<?xml version="1.0" encoding="UTF-8" standalone="no"?>
<svg
   width="19.552006"
   height="19.74209"
   version="1"
   id="svg4"
   sodipodi:docname="audio-card-symbolic.svg"
   inkscape:version="0.92.4 (5da689c313, 2019-01-14)"
   xmlns:inkscape="http://www.inkscape.org/namespaces/inkscape"
   xmlns:sodipodi="http://sodipodi.sourceforge.net/DTD/sodipodi-0.dtd"
   xmlns="http://www.w3.org/2000/svg"
   xmlns:svg="http://www.w3.org/2000/svg"
   xmlns:rdf="http://www.w3.org/1999/02/22-rdf-syntax-ns#"
   xmlns:cc="http://creativecommons.org/ns#"
   xmlns:dc="http://purl.org/dc/elements/1.1/">
  <metadata
     id="metadata10">
    <rdf:RDF>
      <cc:Work
         rdf:about="">
        <dc:format>image/svg+xml</dc:format>
        <dc:type
           rdf:resource="http://purl.org/dc/dcmitype/StillImage" />
        <dc:title />
      </cc:Work>
    </rdf:RDF>
  </metadata>
  <defs
     id="defs8" />
  <sodipodi:namedview
     pagecolor="#ffffff"
     bordercolor="#666666"
     borderopacity="1"
     objecttolerance="10"
     gridtolerance="10"
     guidetolerance="10"
     inkscape:pageopacity="0"
     inkscape:pageshadow="2"
     inkscape:window-width="640"
     inkscape:window-height="480"
     id="namedview6"
     showgrid="false"
     inkscape:zoom="9.8333333"
     inkscape:cx="10.220339"
     inkscape:cy="12"
     inkscape:window-x="0"
     inkscape:window-y="25"
     inkscape:window-maximized="0"
     inkscape:current-layer="svg4"
     inkscape:showpageshadow="0"
     inkscape:pagecheckerboard="0"
     inkscape:deskcolor="#d1d1d1" />
  <path
     d="M 13.124005,1.4820099e-6 A 0.35,0.35 0 0 0 12.773005,0.35000148 V 19.365001 c 0,0.215 0.161,0.377 0.376,0.377 h 1.104 a 0.367,0.367 0 0 0 0.375,-0.377 v -3.443 l 0.11,0.03 h 2.744 a 0.471,0.471 0 0 0 0.457,-0.458 v -3.418 a 0.453,0.453 0 0 0 -0.457,-0.457 h -2.854 V 8.1230015 l 0.11,0.055 h 2.744 c 0.242,0 0.457,-0.216 0.457,-0.485 v -3.416 a 0.453,0.453 0 0 0 -0.457,-0.457 h -2.745 l -0.109,0.028 v -2.045 h 4.574 c 0.188,0 0.35,-0.162 0.35,-0.377 V 0.35000148 A 0.35,0.35 0 0 0 19.202005,1.4820099e-6 Z M 10.972005,2.7050015 c -2.2759996,0.363 -4.8929996,0.736 -7.1619996,1.12 -0.6,0.288 -0.468,1.037 -0.495,1.58 v 7.2589995 c -1.544,-0.354 -3.23900001,0.8 -3.30600001,2.44 -0.11,1.02 0.805,1.909 1.80000001,1.933 1.782,0.042 3.136,-1.126 3.155,-2.605 -0.02,-2.485 0.005,-4.9699995 0,-7.4559995 0.276,-0.02 4.587,-0.808 4.963,-0.86 v 5.5809995 c -1.425,-0.42 -2.848,0.46 -3.2,1.93 -0.259,0.852 0.132,1.857 0.977,2.207 1.65,0.75 3.9699996,-0.77 3.8769996,-2.553 -0.026,-3.3119995 0.021,-6.6269995 0,-9.9399995 -0.044,-0.31 -0.255,-0.659 -0.61,-0.636 z"
     id="path2"
     inkscape:connector-curvature="0"
     style="fill:#bde6fb;fill-opacity:1" />
</svg>
