<?xml version="1.0" encoding="UTF-8" standalone="no"?>
<svg
   width="16.990049"
   height="20.09"
   version="1"
   id="svg4"
   sodipodi:docname="audio-input-microphone-symbolic.svg"
   inkscape:version="0.92.4 (5da689c313, 2019-01-14)"
   xmlns:inkscape="http://www.inkscape.org/namespaces/inkscape"
   xmlns:sodipodi="http://sodipodi.sourceforge.net/DTD/sodipodi-0.dtd"
   xmlns="http://www.w3.org/2000/svg"
   xmlns:svg="http://www.w3.org/2000/svg"
   xmlns:rdf="http://www.w3.org/1999/02/22-rdf-syntax-ns#"
   xmlns:cc="http://creativecommons.org/ns#"
   xmlns:dc="http://purl.org/dc/elements/1.1/">
  <metadata
     id="metadata10">
    <rdf:RDF>
      <cc:Work
         rdf:about="">
        <dc:format>image/svg+xml</dc:format>
        <dc:type
           rdf:resource="http://purl.org/dc/dcmitype/StillImage" />
        <dc:title />
      </cc:Work>
    </rdf:RDF>
  </metadata>
  <defs
     id="defs8" />
  <sodipodi:namedview
     pagecolor="#ffffff"
     bordercolor="#666666"
     borderopacity="1"
     objecttolerance="10"
     gridtolerance="10"
     guidetolerance="10"
     inkscape:pageopacity="0"
     inkscape:pageshadow="2"
     inkscape:window-width="640"
     inkscape:window-height="480"
     id="namedview6"
     showgrid="false"
     inkscape:zoom="9.8333333"
     inkscape:cx="10.220339"
     inkscape:cy="12"
     inkscape:window-x="0"
     inkscape:window-y="25"
     inkscape:window-maximized="0"
     inkscape:current-layer="svg4"
     inkscape:showpageshadow="0"
     inkscape:pagecheckerboard="0"
     inkscape:deskcolor="#d1d1d1" />
  <path
     d="M 8.4999999,7.6293945e-8 A 5.55,5.68 0 0 0 2.9499999,5.6800001 5.55,5.68 0 0 0 8.4999999,11.36 5.55,5.68 0 0 0 14.05,5.6800001 5.55,5.68 0 0 0 8.4999999,7.6293945e-8 Z M 0.00999989,6.0700001 a 8.49,8.68 0 0 0 0,0.06 A 8.49,8.68 0 0 0 7.4399999,14.73 v 5.36 h 2.17 V 14.73 A 8.49,8.68 0 0 0 16.99,6.1300001 a 8.49,8.68 0 0 0 0,-0.06 h -1.96 a 6.53,6.68 0 0 1 0,0.06 A 6.53,6.68 0 0 1 8.4999999,12.81 a 6.53,6.68 0 0 1 -6.53,-6.6799999 6.53,6.68 0 0 1 0,-0.06 H -1.1444092e-7 Z"
     id="path2"
     inkscape:connector-curvature="0"
     style="fill:#bde6fb;fill-opacity:1" />
</svg>
