<?xml version="1.0" encoding="UTF-8" standalone="no"?>
<svg
   width="13.714"
   height="16"
   version="1"
   id="svg4"
   sodipodi:docname="camera-web-symbolic.svg"
   inkscape:version="0.92.4 (5da689c313, 2019-01-14)"
   xmlns:inkscape="http://www.inkscape.org/namespaces/inkscape"
   xmlns:sodipodi="http://sodipodi.sourceforge.net/DTD/sodipodi-0.dtd"
   xmlns="http://www.w3.org/2000/svg"
   xmlns:svg="http://www.w3.org/2000/svg"
   xmlns:rdf="http://www.w3.org/1999/02/22-rdf-syntax-ns#"
   xmlns:cc="http://creativecommons.org/ns#"
   xmlns:dc="http://purl.org/dc/elements/1.1/">
  <metadata
     id="metadata10">
    <rdf:RDF>
      <cc:Work
         rdf:about="">
        <dc:format>image/svg+xml</dc:format>
        <dc:type
           rdf:resource="http://purl.org/dc/dcmitype/StillImage" />
        <dc:title />
      </cc:Work>
    </rdf:RDF>
  </metadata>
  <defs
     id="defs8" />
  <sodipodi:namedview
     pagecolor="#ffffff"
     bordercolor="#666666"
     borderopacity="1"
     objecttolerance="10"
     gridtolerance="10"
     guidetolerance="10"
     inkscape:pageopacity="0"
     inkscape:pageshadow="2"
     inkscape:window-width="640"
     inkscape:window-height="480"
     id="namedview6"
     showgrid="false"
     inkscape:zoom="9.8333333"
     inkscape:cx="10.220339"
     inkscape:cy="12"
     inkscape:window-x="0"
     inkscape:window-y="25"
     inkscape:window-maximized="0"
     inkscape:current-layer="svg4"
     inkscape:showpageshadow="0"
     inkscape:pagecheckerboard="0"
     inkscape:deskcolor="#d1d1d1" />
  <path
     d="m 6.8559999,0 a 6.856,6.856 0 0 0 -3.786,12.571 h -0.784 C -5.3405762e-8,12.571 -5.3405762e-8,14.857 -5.3405762e-8,14.857 V 16 H 13.714 v -1.143 c 0,0 0,-2.286 -2.286,-2.286 H 10.643 A 6.856,6.856 0 0 0 6.8559999,0 Z m 0,4.576 a 2.286,2.286 0 0 1 2.286,2.286 2.286,2.286 0 0 1 -2.286,2.285 2.286,2.286 0 0 1 -2.286,-2.285 2.286,2.286 0 0 1 2.286,-2.286 z"
     id="path2"
     inkscape:connector-curvature="0"
     style="color:#dfdfdf;fill:#bde6fb;fill-opacity:1" />
</svg>
