<?xml version="1.0" encoding="UTF-8" standalone="no"?>
<svg
   width="18.797001"
   height="19.607"
   version="1.1"
   id="svg4"
   sodipodi:docname="drive-harddisk-encrypted-symbolic.svg"
   inkscape:version="0.92.4 (5da689c313, 2019-01-14)"
   xmlns:inkscape="http://www.inkscape.org/namespaces/inkscape"
   xmlns:sodipodi="http://sodipodi.sourceforge.net/DTD/sodipodi-0.dtd"
   xmlns="http://www.w3.org/2000/svg"
   xmlns:svg="http://www.w3.org/2000/svg"
   xmlns:rdf="http://www.w3.org/1999/02/22-rdf-syntax-ns#"
   xmlns:cc="http://creativecommons.org/ns#"
   xmlns:dc="http://purl.org/dc/elements/1.1/">
  <metadata
     id="metadata10">
    <rdf:RDF>
      <cc:Work
         rdf:about="">
        <dc:format>image/svg+xml</dc:format>
        <dc:type
           rdf:resource="http://purl.org/dc/dcmitype/StillImage" />
        <dc:title />
      </cc:Work>
    </rdf:RDF>
  </metadata>
  <defs
     id="defs8" />
  <sodipodi:namedview
     pagecolor="#ffffff"
     bordercolor="#666666"
     borderopacity="1"
     objecttolerance="10"
     gridtolerance="10"
     guidetolerance="10"
     inkscape:pageopacity="0"
     inkscape:pageshadow="2"
     inkscape:window-width="640"
     inkscape:window-height="480"
     id="namedview6"
     showgrid="false"
     inkscape:zoom="9.8333333"
     inkscape:cx="10.220339"
     inkscape:cy="12"
     inkscape:window-x="0"
     inkscape:window-y="25"
     inkscape:window-maximized="0"
     inkscape:current-layer="svg4"
     inkscape:showpageshadow="0"
     inkscape:pagecheckerboard="0"
     inkscape:deskcolor="#d1d1d1" />
  <path
     d="M 8,1.9073486e-8 A 8,8 0 0 0 -1.9073486e-8,8 v 8 H 8 a 8,8 0 0 0 0.446,-0.022 v -3.43 A 4.592,4.592 0 0 1 8,12.576 4.592,4.592 0 0 1 3.424,8 4.592,4.592 0 0 1 8,3.423 4.592,4.592 0 0 1 12.569,7.808 h 3.428 A 8,8 0 0 0 8,1.9073486e-8 Z M 15.088,10.037 a 2.28,2.28 0 0 0 -2.28,2.3 v 0.9 h -1.36 v 5.47 a 0.91,0.91 0 0 0 0.9,0.9 h 5.48 a 0.92,0.92 0 0 0 0.899,-0.9 l 0.07,-5.45 -0.968,-0.02 h -0.461 v -0.9 a 2.28,2.28 0 0 0 -2.28,-2.3 z m 0,0.87 c 0.78,0 1.42,0.64 1.42,1.42 v 0.901 h -2.83 v -0.9 c 0,-0.78 0.63,-1.42 1.41,-1.42 z"
     id="path2"
     inkscape:connector-curvature="0"
     style="fill:#bde6fb;fill-opacity:1" />
</svg>
