<?xml version="1.0" encoding="UTF-8" standalone="no"?>
<svg
   width="20.197794"
   height="14.08252"
   viewBox="0 0 5.3439997 3.726"
   version="1.1"
   id="svg4"
   sodipodi:docname="input-keyboard-symbolic.svg"
   inkscape:version="0.92.4 (5da689c313, 2019-01-14)"
   xmlns:inkscape="http://www.inkscape.org/namespaces/inkscape"
   xmlns:sodipodi="http://sodipodi.sourceforge.net/DTD/sodipodi-0.dtd"
   xmlns="http://www.w3.org/2000/svg"
   xmlns:svg="http://www.w3.org/2000/svg"
   xmlns:rdf="http://www.w3.org/1999/02/22-rdf-syntax-ns#"
   xmlns:cc="http://creativecommons.org/ns#"
   xmlns:dc="http://purl.org/dc/elements/1.1/">
  <metadata
     id="metadata10">
    <rdf:RDF>
      <cc:Work
         rdf:about="">
        <dc:format>image/svg+xml</dc:format>
        <dc:type
           rdf:resource="http://purl.org/dc/dcmitype/StillImage" />
        <dc:title />
      </cc:Work>
    </rdf:RDF>
  </metadata>
  <defs
     id="defs8" />
  <sodipodi:namedview
     pagecolor="#ffffff"
     bordercolor="#666666"
     borderopacity="1"
     objecttolerance="10"
     gridtolerance="10"
     guidetolerance="10"
     inkscape:pageopacity="0"
     inkscape:pageshadow="2"
     inkscape:window-width="640"
     inkscape:window-height="480"
     id="namedview6"
     showgrid="false"
     inkscape:zoom="9.8333333"
     inkscape:cx="10.220339"
     inkscape:cy="12"
     inkscape:window-x="0"
     inkscape:window-y="25"
     inkscape:window-maximized="0"
     inkscape:current-layer="svg4"
     inkscape:showpageshadow="0"
     inkscape:pagecheckerboard="0"
     inkscape:deskcolor="#d1d1d1" />
  <path
     d="M 5.344,-3.6239624e-8 H 3.862381e-8 V 3.72 L 5.344,3.726 Z M 2.415,0.79699996 h 0.53 V 1.329 H 2.415 Z M 2.415,1.596 h 0.53 V 2.128 H 2.415 Z M 1.614,0.79599996 H 2.145 V 1.329 H 1.617 Z M 1.614,1.596 H 2.145 V 2.128 H 1.617 Z M 1.349,2.128 H 0.81900004 V 1.596 H 1.349 Z m 0,-0.8 H 0.81900004 V 0.79899996 H 1.349 Z M 3.741,3.191 H 1.616 V 2.659 h 2.128 z m 0,-1.063 H 3.211 V 1.596 h 0.53 z m 0,-0.8 H 3.211 V 0.79899996 h 0.53 z m 0.802,0.8 H 4.011 V 1.596 h 0.532 z m 0,-0.8 H 4.011 V 0.79899996 h 0.532 z"
     id="path2"
     inkscape:connector-curvature="0"
     style="fill:#bde6fb;fill-opacity:1" />
</svg>
