<?xml version="1.0" encoding="UTF-8" standalone="no"?>
<svg
   width="20.621101"
   height="15.239066"
   viewBox="0 0 5.4559997 4.0320029"
   version="1.1"
   id="svg4"
   sodipodi:docname="laptop-symbolic.svg"
   inkscape:version="0.92.4 (5da689c313, 2019-01-14)"
   xmlns:inkscape="http://www.inkscape.org/namespaces/inkscape"
   xmlns:sodipodi="http://sodipodi.sourceforge.net/DTD/sodipodi-0.dtd"
   xmlns="http://www.w3.org/2000/svg"
   xmlns:svg="http://www.w3.org/2000/svg"
   xmlns:rdf="http://www.w3.org/1999/02/22-rdf-syntax-ns#"
   xmlns:cc="http://creativecommons.org/ns#"
   xmlns:dc="http://purl.org/dc/elements/1.1/">
  <metadata
     id="metadata10">
    <rdf:RDF>
      <cc:Work
         rdf:about="">
        <dc:format>image/svg+xml</dc:format>
        <dc:type
           rdf:resource="http://purl.org/dc/dcmitype/StillImage" />
        <dc:title />
      </cc:Work>
    </rdf:RDF>
  </metadata>
  <defs
     id="defs8" />
  <sodipodi:namedview
     pagecolor="#ffffff"
     bordercolor="#666666"
     borderopacity="1"
     objecttolerance="10"
     gridtolerance="10"
     guidetolerance="10"
     inkscape:pageopacity="0"
     inkscape:pageshadow="2"
     inkscape:window-width="640"
     inkscape:window-height="480"
     id="namedview6"
     showgrid="false"
     inkscape:zoom="9.8333333"
     inkscape:cx="10.220339"
     inkscape:cy="12"
     inkscape:window-x="0"
     inkscape:window-y="25"
     inkscape:window-maximized="0"
     inkscape:current-layer="svg4"
     inkscape:showpageshadow="0"
     inkscape:pagecheckerboard="0"
     inkscape:deskcolor="#d1d1d1" />
  <path
     d="M 0.953,2.9411316e-6 A 0.688,0.688 0 0 0 0.263,0.69000294 V 2.8940029 c 0,0.258 0.142,0.48 0.351,0.598 H 0 v 0.54 h 5.456 v -0.54 H 4.893 a 0.685,0.685 0 0 0 0.35,-0.598 V 0.69100294 a 0.688,0.688 0 0 0 -0.69,-0.69 z M 1.311,0.35600294 h 2.905 a 0.58,0.58 0 0 1 0.58,0.58 V 2.7930029 a 0.58,0.58 0 0 1 -0.58,0.58 H 1.311 a 0.58,0.58 0 0 1 -0.58,-0.58 V 0.93600294 a 0.58,0.58 0 0 1 0.58,-0.58 z m 1,3.07499996 h 0.858 v 0.177 H 2.311 Z"
     id="path2"
     inkscape:connector-curvature="0"
     style="fill:#bde6fb;fill-opacity:1" />
</svg>
