<?xml version="1.0" encoding="UTF-8" standalone="no"?>
<svg
   width="19.275591"
   height="19.279369"
   viewBox="0 0 5.1000001 5.1009998"
   version="1.1"
   id="svg8"
   sodipodi:docname="media-optical-symbolic.svg"
   inkscape:version="0.92.4 (5da689c313, 2019-01-14)"
   xmlns:inkscape="http://www.inkscape.org/namespaces/inkscape"
   xmlns:sodipodi="http://sodipodi.sourceforge.net/DTD/sodipodi-0.dtd"
   xmlns="http://www.w3.org/2000/svg"
   xmlns:svg="http://www.w3.org/2000/svg"
   xmlns:rdf="http://www.w3.org/1999/02/22-rdf-syntax-ns#"
   xmlns:cc="http://creativecommons.org/ns#"
   xmlns:dc="http://purl.org/dc/elements/1.1/">
  <metadata
     id="metadata14">
    <rdf:RDF>
      <cc:Work
         rdf:about="">
        <dc:format>image/svg+xml</dc:format>
        <dc:type
           rdf:resource="http://purl.org/dc/dcmitype/StillImage" />
        <dc:title />
      </cc:Work>
    </rdf:RDF>
  </metadata>
  <defs
     id="defs12" />
  <sodipodi:namedview
     pagecolor="#ffffff"
     bordercolor="#666666"
     borderopacity="1"
     objecttolerance="10"
     gridtolerance="10"
     guidetolerance="10"
     inkscape:pageopacity="0"
     inkscape:pageshadow="2"
     inkscape:window-width="640"
     inkscape:window-height="480"
     id="namedview10"
     showgrid="false"
     inkscape:zoom="9.8333333"
     inkscape:cx="10.220339"
     inkscape:cy="12"
     inkscape:window-x="0"
     inkscape:window-y="25"
     inkscape:window-maximized="0"
     inkscape:current-layer="svg8"
     inkscape:showpageshadow="0"
     inkscape:pagecheckerboard="0"
     inkscape:deskcolor="#d1d1d1" />
  <g
     font-weight="400"
     style="color:#bebebe;font-weight:400;font-family:sans-serif;white-space:normal;fill:#bde6fb;fill-opacity:1"
     id="g6"
     transform="translate(-0.625,-0.62400001)">
    <path
       d="m 3.175,0.624 c -1.4,0 -2.55,1.151 -2.55,2.551 0,1.4 1.15,2.55 2.55,2.55 1.4,0 2.55,-1.15 2.55,-2.55 0,-1.4 -1.15,-2.55 -2.55,-2.55 z m 0,1.458 c 0.612,0 1.093,0.48 1.093,1.093 0,0.612 -0.481,1.093 -1.093,1.093 -0.612,0 -1.093,-0.48 -1.093,-1.093 0,-0.612 0.48,-1.093 1.093,-1.093 z"
       overflow="visible"
       style="font-variant-ligatures:normal;font-variant-position:normal;font-variant-caps:normal;font-variant-numeric:normal;font-variant-alternates:normal;font-feature-settings:normal;text-indent:0;text-decoration:none;text-decoration-line:none;text-decoration-style:solid;text-decoration-color:#000000;text-transform:none;text-orientation:mixed;shape-padding:0;overflow:visible;isolation:auto;mix-blend-mode:normal;fill:#bde6fb;fill-opacity:1"
       id="path2"
       inkscape:connector-curvature="0" />
    <path
       d="m 3.175,2.446 c -0.4,0 -0.73,0.329 -0.73,0.729 0,0.4 0.33,0.729 0.73,0.729 0.4,0 0.729,-0.329 0.729,-0.729 0,-0.4 -0.329,-0.729 -0.73,-0.729 z m 0,0.364 c 0.203,0 0.364,0.162 0.364,0.365 A 0.362,0.362 0 0 1 3.175,3.54 0.362,0.362 0 0 1 2.81,3.175 C 2.81,2.972 2.972,2.81 3.175,2.81 Z"
       overflow="visible"
       style="font-variant-ligatures:normal;font-variant-position:normal;font-variant-caps:normal;font-variant-numeric:normal;font-variant-alternates:normal;font-feature-settings:normal;text-indent:0;text-decoration:none;text-decoration-line:none;text-decoration-style:solid;text-decoration-color:#000000;text-transform:none;text-orientation:mixed;shape-padding:0;overflow:visible;isolation:auto;mix-blend-mode:normal;fill:#bde6fb;fill-opacity:1"
       id="path4"
       inkscape:connector-curvature="0" />
  </g>
</svg>
