<?xml version="1.0" encoding="UTF-8" standalone="no"?>
<svg
   height="19.060001"
   width="20.139999"
   version="1.1"
   id="svg4"
   sodipodi:docname="printer-symbolic.svg"
   inkscape:version="0.92.4 (5da689c313, 2019-01-14)"
   xmlns:inkscape="http://www.inkscape.org/namespaces/inkscape"
   xmlns:sodipodi="http://sodipodi.sourceforge.net/DTD/sodipodi-0.dtd"
   xmlns="http://www.w3.org/2000/svg"
   xmlns:svg="http://www.w3.org/2000/svg"
   xmlns:rdf="http://www.w3.org/1999/02/22-rdf-syntax-ns#"
   xmlns:cc="http://creativecommons.org/ns#"
   xmlns:dc="http://purl.org/dc/elements/1.1/">
  <metadata
     id="metadata10">
    <rdf:RDF>
      <cc:Work
         rdf:about="">
        <dc:format>image/svg+xml</dc:format>
        <dc:type
           rdf:resource="http://purl.org/dc/dcmitype/StillImage" />
        <dc:title />
      </cc:Work>
    </rdf:RDF>
  </metadata>
  <defs
     id="defs8" />
  <sodipodi:namedview
     pagecolor="#ffffff"
     bordercolor="#666666"
     borderopacity="1"
     objecttolerance="10"
     gridtolerance="10"
     guidetolerance="10"
     inkscape:pageopacity="0"
     inkscape:pageshadow="2"
     inkscape:window-width="640"
     inkscape:window-height="480"
     id="namedview6"
     showgrid="false"
     inkscape:zoom="9.8333333"
     inkscape:cx="10.220339"
     inkscape:cy="12"
     inkscape:window-x="0"
     inkscape:window-y="25"
     inkscape:window-maximized="0"
     inkscape:current-layer="svg4"
     inkscape:showpageshadow="0"
     inkscape:pagecheckerboard="0"
     inkscape:deskcolor="#d1d1d1" />
  <path
     d="M 4.1100001,-2.8610229e-8 A 0.1,0.1 0 0 0 4.0100001,0.09999997 V 3.92 c 0,0.05 0.05,0.1 0.1,0.1 H 15.97 a 0.1,0.1 0 0 0 0.1,-0.1 V 0.09999997 A 0.1,0.1 0 0 0 15.97,-2.8610229e-8 Z M 0.10000005,5.13 A 0.1,0.1 0 0 0 5.2452087e-8,5.23 v 8.73 c 0,0.05 0.04999999754791,0.1 0.09999999754791,0.1 H 3.0500001 v 5 H 17.22 v -5 h 2.82 a 0.1,0.1 0 0 0 0.1,-0.1 V 5.23 c 0,-0.05 -0.05,-0.1 -0.1,-0.1 z M 16.65,6.46 a 1.39,1.39 0 0 1 1.4,1.39 1.39,1.39 0 0 1 -1.4,1.39 1.39,1.39 0 0 1 -1.39,-1.4 1.39,1.39 0 0 1 1.4,-1.38 z M 4.2700001,14.07 H 15.87 v 3.6 H 4.2700001 Z"
     id="path2"
     inkscape:connector-curvature="0"
     style="fill:#bde6fb;fill-opacity:1;paint-order:markers fill stroke" />
</svg>
