<?xml version="1.0" encoding="UTF-8" standalone="no"?>
<svg
   width="20"
   height="18.57"
   version="1"
   id="svg4"
   sodipodi:docname="printer-network-symbolic.svg"
   inkscape:version="0.92.4 (5da689c313, 2019-01-14)"
   xmlns:inkscape="http://www.inkscape.org/namespaces/inkscape"
   xmlns:sodipodi="http://sodipodi.sourceforge.net/DTD/sodipodi-0.dtd"
   xmlns="http://www.w3.org/2000/svg"
   xmlns:svg="http://www.w3.org/2000/svg"
   xmlns:rdf="http://www.w3.org/1999/02/22-rdf-syntax-ns#"
   xmlns:cc="http://creativecommons.org/ns#"
   xmlns:dc="http://purl.org/dc/elements/1.1/">
  <metadata
     id="metadata10">
    <rdf:RDF>
      <cc:Work
         rdf:about="">
        <dc:format>image/svg+xml</dc:format>
        <dc:type
           rdf:resource="http://purl.org/dc/dcmitype/StillImage" />
        <dc:title />
      </cc:Work>
    </rdf:RDF>
  </metadata>
  <defs
     id="defs8" />
  <sodipodi:namedview
     pagecolor="#ffffff"
     bordercolor="#666666"
     borderopacity="1"
     objecttolerance="10"
     gridtolerance="10"
     guidetolerance="10"
     inkscape:pageopacity="0"
     inkscape:pageshadow="2"
     inkscape:window-width="640"
     inkscape:window-height="480"
     id="namedview6"
     showgrid="false"
     inkscape:zoom="9.8333333"
     inkscape:cx="10.220339"
     inkscape:cy="12"
     inkscape:window-x="0"
     inkscape:window-y="25"
     inkscape:window-maximized="0"
     inkscape:current-layer="svg4"
     inkscape:showpageshadow="0"
     inkscape:pagecheckerboard="0"
     inkscape:deskcolor="#d1d1d1" />
  <path
     d="M 1.428,8.5830688e-8 C 0.638,8.5830688e-8 0,0.63500009 0,1.4280001 v 2.857 h 20 v -2.857 C 20,0.63700009 19.364,8.5830688e-8 18.572,8.5830688e-8 Z M 0,5.7120001 V 12.856 c 0,0.79 0.72,1.074 1.428,1.428 h 1.43 v 2.143 A 2.155,2.155 0 0 0 5,18.57 h 10 a 2.155,2.155 0 0 0 2.143,-2.142 v -2.143 h 1.429 c 0.79,0 1.428,-0.636 1.428,-1.428 V 5.7120001 Z m 4.285,2.858 h 11.43 V 16.427 A 0.697,0.697 0 0 1 15,17.141 H 5 A 0.697,0.697 0 0 1 4.285,16.427 Z"
     class="ColorScheme-Text error"
     id="path2"
     inkscape:connector-curvature="0"
     style="color:#ff2155;fill:#bde6fb;fill-opacity:1" />
</svg>
