<?xml version="1.0" encoding="UTF-8" standalone="no"?>
<svg
   width="19.729134"
   height="17.529455"
   viewBox="0 0 5.2199999 4.6380017"
   version="1.1"
   id="svg4"
   sodipodi:docname="video-display-symbolic.svg"
   inkscape:version="0.92.4 (5da689c313, 2019-01-14)"
   xmlns:inkscape="http://www.inkscape.org/namespaces/inkscape"
   xmlns:sodipodi="http://sodipodi.sourceforge.net/DTD/sodipodi-0.dtd"
   xmlns="http://www.w3.org/2000/svg"
   xmlns:svg="http://www.w3.org/2000/svg"
   xmlns:rdf="http://www.w3.org/1999/02/22-rdf-syntax-ns#"
   xmlns:cc="http://creativecommons.org/ns#"
   xmlns:dc="http://purl.org/dc/elements/1.1/">
  <metadata
     id="metadata10">
    <rdf:RDF>
      <cc:Work
         rdf:about="">
        <dc:format>image/svg+xml</dc:format>
        <dc:type
           rdf:resource="http://purl.org/dc/dcmitype/StillImage" />
        <dc:title />
      </cc:Work>
    </rdf:RDF>
  </metadata>
  <defs
     id="defs8" />
  <sodipodi:namedview
     pagecolor="#ffffff"
     bordercolor="#666666"
     borderopacity="1"
     objecttolerance="10"
     gridtolerance="10"
     guidetolerance="10"
     inkscape:pageopacity="0"
     inkscape:pageshadow="2"
     inkscape:window-width="640"
     inkscape:window-height="480"
     id="namedview6"
     showgrid="false"
     inkscape:zoom="9.8333333"
     inkscape:cx="10.220339"
     inkscape:cy="12"
     inkscape:window-x="0"
     inkscape:window-y="25"
     inkscape:window-maximized="0"
     inkscape:current-layer="svg4"
     inkscape:showpageshadow="0"
     inkscape:pagecheckerboard="0"
     inkscape:deskcolor="#d1d1d1" />
  <path
     d="M 0.277,1.7819405e-6 A 0.276,0.276 0 0 0 0,0.27600178 V 3.5220018 c 0,0.154 0.124,0.277 0.277,0.277 h 4.666 a 0.276,0.276 0 0 0 0.277,-0.277 V 0.27600178 A 0.276,0.276 0 0 0 4.943,1.7819405e-6 Z M 0.632,0.46200178 h 3.999 c 0.12,0 0.216,0.097 0.216,0.216 V 3.2140018 a 0.216,0.216 0 0 1 -0.216,0.217 H 0.632 a 0.216,0.216 0 0 1 -0.216,-0.217 V 0.67800178 c 0,-0.12 0.096,-0.216 0.216,-0.216 z m 2.99,4.15900002 a 0.987,0.757 0 0 0 -0.5,-0.66 0.987,0.757 0 0 0 -0.994,0.01 0.987,0.757 0 0 0 -0.48,0.667 l 0.987,-0.017 z"
     id="path2"
     inkscape:connector-curvature="0"
     style="fill:#bde6fb;fill-opacity:1" />
</svg>
