<?xml version="1.0" encoding="UTF-8" standalone="no"?>
<svg
   width="39.97398"
   height="39.990211"
   version="1"
   id="svg8"
   sodipodi:docname="audio-speaker-right.svg"
   inkscape:version="0.92.5 (2060ec1f9f, 2020-04-08)"
   xmlns:inkscape="http://www.inkscape.org/namespaces/inkscape"
   xmlns:sodipodi="http://sodipodi.sourceforge.net/DTD/sodipodi-0.dtd"
   xmlns="http://www.w3.org/2000/svg"
   xmlns:svg="http://www.w3.org/2000/svg">
  <sodipodi:namedview
     id="namedview1"
     pagecolor="#505050"
     bordercolor="#eeeeee"
     borderopacity="1"
     inkscape:showpageshadow="0"
     inkscape:pageopacity="0"
     inkscape:pagecheckerboard="0"
     inkscape:deskcolor="#d1d1d1" />
  <defs
     id="defs8">
    <style
       id="current-color-scheme"
       type="text/css">&#10;      .ColorScheme-Highlight {&#10;        color:#1e3f5a;&#10;      }&#10;  </style>
  </defs>
  <path
     class="ColorScheme-Highlight"
     style="fill:#bde6fb;fill-opacity:1"
     inkscape:connector-curvature="0"
     id="path2"
     d="m 5.8085293,5.8798148 a 20,20 0 0 1 28.2619997,-0.066 20,20 0 0 1 0.11,28.2650002 l -14.208,-14.079 z" />
  <path
     class="ColorScheme-Highlight"
     style="opacity:0.5;fill:#bde6fb;fill-opacity:1"
     inkscape:connector-curvature="0"
     id="path4"
     d="m 1.7315293,11.889815 2.156,1.295 a 17.5,17.5 0 0 0 3.728,19.21 17.5,17.5 0 0 0 19.1939997,3.709 l 1.295,2.153 a 20,20 0 0 1 -22.2569997,-4.095 20,20 0 0 1 -4.116,-22.272 z m 5.807,7.435 2.4749997,0.564 a 10,10 0 0 0 2.905,7.202 10,10 0 0 0 7.197,2.92 l 0.575,2.476 a 12.5,12.5 0 0 1 -9.54,-3.629 12.5,12.5 0 0 1 -3.6119997,-9.533 z" />
</svg>
