<?xml version="1.0" encoding="UTF-8" standalone="no"?>
<svg
   width="40.000095"
   height="40.000023"
   version="1"
   id="svg8"
   sodipodi:docname="audio-speaker-left-side.svg"
   inkscape:version="0.92.5 (2060ec1f9f, 2020-04-08)"
   xmlns:inkscape="http://www.inkscape.org/namespaces/inkscape"
   xmlns:sodipodi="http://sodipodi.sourceforge.net/DTD/sodipodi-0.dtd"
   xmlns="http://www.w3.org/2000/svg"
   xmlns:svg="http://www.w3.org/2000/svg">
  <sodipodi:namedview
     id="namedview1"
     pagecolor="#505050"
     bordercolor="#eeeeee"
     borderopacity="1"
     inkscape:showpageshadow="0"
     inkscape:pageopacity="0"
     inkscape:pagecheckerboard="0"
     inkscape:deskcolor="#d1d1d1" />
  <defs
     id="defs8">
    <style
       id="current-color-scheme"
       type="text/css">&#10;      .ColorScheme-Highlight {&#10;        color:#1e3f5a;&#10;      }&#10;  </style>
  </defs>
  <path
     class="ColorScheme-Highlight"
     style="fill:#bde6fb;fill-opacity:1"
     inkscape:connector-curvature="0"
     id="path2"
     d="M 20.030097,2.2649765e-5 A 20,20 0 0 0 9.6797943e-5,19.938023 20,20 0 0 0 19.908097,40.000023 l 0.092,-20 z" />
  <path
     class="ColorScheme-Highlight"
     style="opacity:0.5;fill:#bde6fb;fill-opacity:1"
     inkscape:connector-curvature="0"
     id="path4"
     d="m 27.162097,1.3670226 -0.609,2.44 a 17.5,17.5 0 0 1 10.947,16.2180004 17.5,17.5 0 0 1 -10.949,16.195 l 0.607,2.438 a 20,20 0 0 0 12.842,-18.633 20,20 0 0 0 -12.838,-18.6580004 z m 1.151,9.3640004 -1.35,2.148 a 10,10 0 0 1 3.037,7.146 10,10 0 0 1 -3.024,7.153 l 1.344,2.158 a 12.5,12.5 0 0 0 4.18,-9.31 12.5,12.5 0 0 0 -4.187,-9.295 z" />
</svg>
