<?xml version="1.0" encoding="UTF-8" standalone="no"?>
<svg
   width="39.97348"
   height="39.989517"
   version="1"
   id="svg8"
   sodipodi:docname="audio-speaker-right-back.svg"
   inkscape:version="0.92.5 (2060ec1f9f, 2020-04-08)"
   xmlns:inkscape="http://www.inkscape.org/namespaces/inkscape"
   xmlns:sodipodi="http://sodipodi.sourceforge.net/DTD/sodipodi-0.dtd"
   xmlns="http://www.w3.org/2000/svg"
   xmlns:svg="http://www.w3.org/2000/svg">
  <sodipodi:namedview
     id="namedview1"
     pagecolor="#505050"
     bordercolor="#eeeeee"
     borderopacity="1"
     inkscape:showpageshadow="0"
     inkscape:pageopacity="0"
     inkscape:pagecheckerboard="0"
     inkscape:deskcolor="#d1d1d1" />
  <defs
     id="defs8">
    <style
       id="current-color-scheme"
       type="text/css">&#10;      .ColorScheme-Highlight {&#10;        color:#1e3f5a;&#10;      }&#10;  </style>
  </defs>
  <path
     class="ColorScheme-Highlight"
     style="fill:#bde6fb;fill-opacity:1"
     inkscape:connector-curvature="0"
     id="path2"
     d="m 5.8085293,34.109705 a 20,20 0 0 0 28.2619997,0.066 20,20 0 0 0 0.11,-28.2639999 l -14.208,14.0769999 z" />
  <path
     class="ColorScheme-Highlight"
     style="opacity:0.5;fill:#bde6fb;fill-opacity:1"
     inkscape:connector-curvature="0"
     id="path4"
     d="m 1.7315293,28.099705 2.156,-1.295 a 17.5,17.5 0 0 1 3.728,-19.2089999 17.5,17.5 0 0 1 19.1939997,-3.71 l 1.295,-2.152 a 20,20 0 0 0 -22.2569997,4.094 20,20 0 0 0 -4.116,22.2719999 z m 5.807,-7.435 2.4749997,-0.564 a 10,10 0 0 1 2.905,-7.201 10,10 0 0 1 7.197,-2.9199999 l 0.575,-2.476 a 12.5,12.5 0 0 0 -9.54,3.6279999 12.5,12.5 0 0 0 -3.6119997,9.533 z" />
</svg>
