<?xml version="1.0" encoding="UTF-8" standalone="no"?>
<svg
   width="48"
   height="48"
   viewBox="0 0 12.7 12.7"
   version="1.1"
   id="svg4"
   sodipodi:docname="audio-headset.svg"
   inkscape:version="0.92.5 (2060ec1f9f, 2020-04-08)"
   xmlns:inkscape="http://www.inkscape.org/namespaces/inkscape"
   xmlns:sodipodi="http://sodipodi.sourceforge.net/DTD/sodipodi-0.dtd"
   xmlns="http://www.w3.org/2000/svg"
   xmlns:svg="http://www.w3.org/2000/svg">
  <sodipodi:namedview
     id="namedview1"
     pagecolor="#505050"
     bordercolor="#eeeeee"
     borderopacity="1"
     inkscape:showpageshadow="0"
     inkscape:pageopacity="0"
     inkscape:pagecheckerboard="0"
     inkscape:deskcolor="#d1d1d1" />
  <defs
     id="defs8">
    <style
       id="current-color-scheme"
       type="text/css">&#10;      .ColorScheme-Highlight {&#10;        color:#1e3f5a;&#10;      }&#10;  </style>
  </defs>
  <path
     class="ColorScheme-Highlight"
     style="fill:#bde6fb;fill-opacity:1;stroke-width:0.264583"
     d="M 6.3499999,0 C 2.8429918,0 0,2.8429918 0,6.3499999 0,9.857008 2.8429918,12.7 6.3499999,12.7 9.857008,12.7 12.7,9.857008 12.7,6.3499999 12.7,2.8429918 9.857008,0 6.3499999,0 Z m 0,0.79374999 c 3.0686322,0 5.5562501,2.48761781 5.5562501,5.55624991 0,3.0686322 -2.4876179,5.5562501 -5.5562501,5.5562501 -3.0686321,0 -5.55624991,-2.4876179 -5.55624991,-5.5562501 0,-3.0686321 2.48761781,-5.55624991 5.55624991,-5.55624991 z m 0,1.32291661 c -2.0457546,0 -3.7041666,1.6584121 -3.7041666,3.7041667 9.525e-4,1.1105893 0.5001882,2.1621466 1.3601237,2.8649413 L 4.2948283,9.6216347 C 4.3707031,9.904804 4.6596815,10.071647 4.9428508,9.9957722 5.2260198,9.9198971 5.3928631,9.6304022 5.316988,9.347233 L 4.701005,7.0471151 C 4.6251301,6.7639458 4.3361517,6.5971028 4.0529824,6.6729776 3.7698134,6.7488527 3.6029701,7.0383476 3.6788452,7.3215168 l 0.091467,0.3415813 C 3.3849177,7.125963 3.1768018,6.4819233 3.175,5.8208333 c 0,-1.7535041 1.4214959,-3.175 3.1749999,-3.175 1.7535041,0 3.175,1.4214959 3.175,3.175 -0.00175,0.6614996 -0.2100461,1.305938 -0.5958292,1.8432983 L 9.0211546,7.3215168 C 9.0970297,7.0383476 8.9301864,6.7488527 8.6470174,6.6729776 8.3638482,6.5971028 8.0748697,6.7639458 7.9989949,7.0471151 L 7.3830118,9.347233 C 7.3071367,9.6304022 7.4739801,9.9198971 7.7571491,9.9957722 8.0403183,10.071647 8.3292967,9.904804 8.4051716,9.6216347 L 8.7209147,8.6656208 c 0.096794,-0.080636 0.1876788,-0.166687 0.2749185,-0.2557984 v 0.3214275 0.5291667 0.2645833 0.2645833 c 0,0.2931578 -0.2360086,0.5291668 -0.5291666,0.5291668 h -1.611788 c 0.014726,-0.0416 0.024288,-0.08552 0.024288,-0.132292 0,-0.2198685 -0.1770063,-0.3968748 -0.396875,-0.3968748 H 6.2177083 c -0.2198688,0 -0.396875,0.1770063 -0.396875,0.3968748 0,0.219869 0.1770062,0.396875 0.396875,0.396875 h 0.1322916 0.1322917 1.984375 c 0.4397375,0 0.79375,-0.354012 0.79375,-0.7937498 V 8.7312499 8.1080321 c 0.5083243,-0.6466393 0.7934794,-1.449963 0.7937504,-2.2871988 0,-2.0457546 -1.6584125,-3.7041667 -3.7041671,-3.7041667 z"
     id="path831" />
</svg>
