<?xml version="1.0" encoding="UTF-8" standalone="no"?>
<svg
   width="40.049999"
   height="37.282001"
   version="1"
   id="svg8"
   sodipodi:docname="audio-speaker-mono.svg"
   inkscape:version="0.92.5 (2060ec1f9f, 2020-04-08)"
   xmlns:inkscape="http://www.inkscape.org/namespaces/inkscape"
   xmlns:sodipodi="http://sodipodi.sourceforge.net/DTD/sodipodi-0.dtd"
   xmlns="http://www.w3.org/2000/svg"
   xmlns:svg="http://www.w3.org/2000/svg">
  <sodipodi:namedview
     id="namedview1"
     pagecolor="#505050"
     bordercolor="#eeeeee"
     borderopacity="1"
     inkscape:showpageshadow="0"
     inkscape:pageopacity="0"
     inkscape:pagecheckerboard="0"
     inkscape:deskcolor="#d1d1d1" />
  <defs
     id="defs8">
    <style
       id="current-color-scheme"
       type="text/css">&#10;      .ColorScheme-Highlight {&#10;        color:#1e3f5a;&#10;      }&#10;  </style>
  </defs>
  <ellipse
     cx="20.049999"
     cy="18.577999"
     rx="4.8969998"
     ry="4.8860002"
     id="ellipse2"
     class="ColorScheme-Highlight"
     style="fill:#bde6fb;fill-opacity:1" />
  <path
     class="ColorScheme-Highlight"
     style="opacity:0.5;fill:#bde6fb;fill-opacity:1"
     inkscape:connector-curvature="0"
     id="path4"
     d="M 27.215,1.1444092e-7 26.606,2.4400001 A 17.496,17.496 0 0 1 37.551,18.653 17.496,17.496 0 0 1 26.604,34.845 l 0.606,2.437 A 19.996,19.996 0 0 0 40.05,18.653 19.996,19.996 0 0 0 27.215,1.1444092e-7 Z M 28.366,9.3600001 27.016,11.509 a 9.998,9.998 0 0 1 3.036,7.144 9.998,9.998 0 0 1 -3.023,7.152 l 1.344,2.157 A 12.497,12.497 0 0 0 32.552,18.653 12.497,12.497 0 0 0 28.366,9.3610001 Z M 12.835,1.1444092e-7 13.445,2.4400001 A 17.496,17.496 0 0 0 2.5,18.652 17.496,17.496 0 0 0 13.446,34.844 L 12.84,37.281 A 19.996,19.996 0 0 1 -4.7683716e-8,18.653 19.996,19.996 0 0 1 12.835,1.1444092e-7 Z M 11.685,9.3600001 13.035,11.509 a 9.998,9.998 0 0 0 -3.037,7.144 9.998,9.998 0 0 0 3.023,7.152 l -1.344,2.157 A 12.497,12.497 0 0 1 7.499,18.653 12.497,12.497 0 0 1 11.684,9.3610001 Z" />
</svg>
