<?xml version="1.0" encoding="UTF-8" standalone="no"?>
<svg
   width="40.000095"
   height="40.000023"
   version="1"
   id="svg8"
   sodipodi:docname="audio-speaker-right-side.svg"
   inkscape:version="0.92.5 (2060ec1f9f, 2020-04-08)"
   xmlns:inkscape="http://www.inkscape.org/namespaces/inkscape"
   xmlns:sodipodi="http://sodipodi.sourceforge.net/DTD/sodipodi-0.dtd"
   xmlns="http://www.w3.org/2000/svg"
   xmlns:svg="http://www.w3.org/2000/svg">
  <sodipodi:namedview
     id="namedview1"
     pagecolor="#505050"
     bordercolor="#eeeeee"
     borderopacity="1"
     inkscape:showpageshadow="0"
     inkscape:pageopacity="0"
     inkscape:pagecheckerboard="0"
     inkscape:deskcolor="#d1d1d1" />
  <defs
     id="defs8">
    <style
       id="current-color-scheme"
       type="text/css">&#10;      .ColorScheme-Highlight {&#10;        color:#1e3f5a;&#10;      }&#10;  </style>
  </defs>
  <path
     class="ColorScheme-Highlight"
     style="fill:#bde6fb;fill-opacity:1"
     inkscape:connector-curvature="0"
     id="path2"
     d="M 19.97,40 A 20,20 0 0 0 40,20.062 20,20 0 0 0 20.092,0 L 20,20 Z" />
  <path
     class="ColorScheme-Highlight"
     style="opacity:0.5;fill:#bde6fb;fill-opacity:1"
     inkscape:connector-curvature="0"
     id="path4"
     d="m 12.838,38.633 0.609,-2.44 A 17.5,17.5 0 0 1 2.5,19.975 17.5,17.5 0 0 1 13.449,3.78 L 12.842,1.342 A 20,20 0 0 0 0,19.975 20,20 0 0 0 12.838,38.633 Z m -1.151,-9.364 1.35,-2.148 A 10,10 0 0 1 10,19.975 10,10 0 0 1 13.024,12.822 L 11.68,10.664 a 12.5,12.5 0 0 0 -4.18,9.31 12.5,12.5 0 0 0 4.187,9.295 z" />
</svg>
