<?xml version="1.0" encoding="UTF-8" standalone="no"?>
<svg
   width="48"
   height="48"
   viewBox="0 0 12.7 12.7"
   version="1.1"
   id="svg4"
   sodipodi:docname="audio-card.svg"
   inkscape:version="0.92.5 (2060ec1f9f, 2020-04-08)"
   xmlns:inkscape="http://www.inkscape.org/namespaces/inkscape"
   xmlns:sodipodi="http://sodipodi.sourceforge.net/DTD/sodipodi-0.dtd"
   xmlns="http://www.w3.org/2000/svg"
   xmlns:svg="http://www.w3.org/2000/svg">
  <sodipodi:namedview
     id="namedview1"
     pagecolor="#505050"
     bordercolor="#eeeeee"
     borderopacity="1"
     inkscape:showpageshadow="0"
     inkscape:pageopacity="0"
     inkscape:pagecheckerboard="0"
     inkscape:deskcolor="#d1d1d1" />
  <defs
     id="defs8">
    <style
       id="current-color-scheme"
       type="text/css">&#10;      .ColorScheme-Highlight {&#10;        color:#1e3f5a;&#10;      }&#10;  </style>
  </defs>
  <path
     class="ColorScheme-Highlight"
     style="fill:#bde6fb;fill-opacity:1;stroke-width:0.264583"
     d="M 6.3499999,0 A 6.3499999,6.3499999 0 0 0 0,6.3499999 6.3499999,6.3499999 0 0 0 6.3499999,12.7 6.3499999,6.3499999 0 0 0 12.7,6.3499999 6.3499999,6.3499999 0 0 0 6.3499999,0 Z m 0,0.79374999 A 5.5562499,5.5562499 0 0 1 11.90625,6.3499999 5.5562499,5.5562499 0 0 1 6.3499999,11.90625 5.5562499,5.5562499 0 0 1 0.79374999,6.3499999 5.5562499,5.5562499 0 0 1 6.3499999,0.79374999 Z M 4.7624999,1.5875 V 2.9104166 H 5.2916666 V 1.5875 Z m 1.0583334,0 V 2.9104166 H 6.3499999 V 1.5875 Z m 1.0583333,0 V 2.9104166 H 7.4083332 V 1.5875 Z M 3.4395833,3.4395833 V 9.2604166 H 9.2604166 V 3.4395833 Z M 5.5562499,3.96875 h 2.6458333 v 0.2645833 0.5291666 2.38125 a 0.79374999,0.79374999 0 0 1 -0.79375,0.79375 0.79374999,0.79374999 0 0 1 -0.7937499,-0.79375 0.79374999,0.79374999 0 0 1 0.7937499,-0.79375 0.79374999,0.79374999 0 0 1 0.5291667,0.2030884 V 4.7624999 H 5.8208333 v 3.175 a 0.79374999,0.79374999 0 0 1 -0.79375,0.79375 0.79374999,0.79374999 0 0 1 -0.79375,-0.79375 0.79374999,0.79374999 0 0 1 0.79375,-0.79375 0.79374999,0.79374999 0 0 1 0.5291666,0.2030884 V 4.7624999 4.4979166 Z M 9.7895832,4.7624999 V 5.2916666 H 11.1125 V 4.7624999 Z M 1.5875,5.2916666 V 5.8208333 H 2.9104166 V 5.2916666 Z M 9.7895832,5.8208333 V 6.3499999 H 11.1125 V 5.8208333 Z M 1.5875,6.3499999 V 6.8791666 H 2.9104166 V 6.3499999 Z M 9.7895832,6.8791666 V 7.4083332 H 11.1125 V 6.8791666 Z M 1.5875,7.4083332 V 7.9374999 H 2.9104166 V 7.4083332 Z m 3.7041666,2.38125 V 11.1125 H 5.8208333 V 9.7895832 Z m 1.0583333,0 V 11.1125 H 6.8791666 V 9.7895832 Z m 1.0583333,0 V 11.1125 H 7.9374999 V 9.7895832 Z"
     id="rect835" />
</svg>
