<?xml version="1.0" encoding="UTF-8" standalone="no"?>
<svg
   width="43.993702"
   height="40.799999"
   viewBox="0 0 11.64 10.795"
   version="1.1"
   id="svg6"
   sodipodi:docname="audio-subwoofer.svg"
   inkscape:version="0.92.4 (5da689c313, 2019-01-14)"
   xmlns:inkscape="http://www.inkscape.org/namespaces/inkscape"
   xmlns:sodipodi="http://sodipodi.sourceforge.net/DTD/sodipodi-0.dtd"
   xmlns="http://www.w3.org/2000/svg"
   xmlns:svg="http://www.w3.org/2000/svg">
  <sodipodi:namedview
     id="namedview1"
     pagecolor="#505050"
     bordercolor="#eeeeee"
     borderopacity="1"
     inkscape:showpageshadow="0"
     inkscape:pageopacity="0"
     inkscape:pagecheckerboard="0"
     inkscape:deskcolor="#d1d1d1" />
  <defs
     id="defs8">
    <style
       id="current-color-scheme"
       type="text/css">&#10;      .ColorScheme-Highlight {&#10;        color:#1e3f5a;&#10;      }&#10;  </style>
  </defs>
  <path
     class="ColorScheme-Highlight"
     style="fill:#bde6fb;fill-opacity:1"
     d="M 5.82,2.499 A 2.91,2.898 0 0 0 2.91,5.397 2.91,2.898 0 0 0 5.82,8.295 2.91,2.898 0 0 0 8.73,5.397 2.91,2.898 0 0 0 5.82,2.499 Z m 0,0.527 A 2.381,2.371 0 0 1 8.201,5.397 2.381,2.371 0 0 1 5.82,7.767 2.381,2.371 0 0 1 3.439,5.397 2.381,2.371 0 0 1 5.82,3.027 Z m 0,0.527 A 1.852,1.844 0 0 0 3.968,5.397 1.852,1.844 0 0 0 5.82,7.241 1.852,1.844 0 0 0 7.672,5.397 1.852,1.844 0 0 0 5.82,3.553 Z"
     id="path2"
     inkscape:connector-curvature="0" />
  <path
     d="M 7.939,0 7.789,0.59699999 A 5.21,5.187 0 0 1 11.03,5.397 5.21,5.187 0 0 1 7.789,10.196 L 7.937,10.79 A 5.82,5.796 0 0 0 11.64,5.397 5.82,5.796 0 0 0 7.939,0 Z M 3.702,0.00499999 A 5.82,5.796 0 0 0 2.861023e-8,5.397 5.82,5.796 0 0 0 3.703,10.795 l 0.15,-0.598 A 5.21,5.187 0 0 1 0.61100003,5.397 5.21,5.187 0 0 1 3.851,0.59899999 Z M 2.578,2.295 A 4.498,4.479 0 0 0 1.322,5.397 4.498,4.479 0 0 0 2.585,8.501 L 2.903,7.989 A 3.914,3.897 0 0 1 1.906,5.397 3.914,3.897 0 0 1 2.9,2.807 L 2.578,2.294 Z M 9.06,2.298 8.74,2.808 A 3.914,3.897 0 0 1 9.734,5.397 3.914,3.897 0 0 1 8.737,7.989 L 9.058,8.504 A 4.498,4.479 0 0 0 10.318,5.397 4.498,4.479 0 0 0 9.06,2.298 Z"
     id="path4"
     inkscape:connector-curvature="0"
     class="ColorScheme-Highlight"
     style="opacity:0.5;fill:#bde6fb;fill-opacity:1" />
</svg>
