<?xml version="1.0" encoding="UTF-8" standalone="no"?>
<svg
   width="48"
   height="48"
   viewBox="0 0 12.7 12.7"
   version="1.1"
   id="svg4"
   sodipodi:docname="auth-smartcard.svg"
   inkscape:version="0.92.5 (2060ec1f9f, 2020-04-08)"
   xmlns:inkscape="http://www.inkscape.org/namespaces/inkscape"
   xmlns:sodipodi="http://sodipodi.sourceforge.net/DTD/sodipodi-0.dtd"
   xmlns="http://www.w3.org/2000/svg"
   xmlns:svg="http://www.w3.org/2000/svg">
  <sodipodi:namedview
     id="namedview1"
     pagecolor="#505050"
     bordercolor="#eeeeee"
     borderopacity="1"
     inkscape:showpageshadow="0"
     inkscape:pageopacity="0"
     inkscape:pagecheckerboard="0"
     inkscape:deskcolor="#d1d1d1" />
  <defs
     id="defs8">
    <style
       id="current-color-scheme"
       type="text/css">&#10;      .ColorScheme-Highlight {&#10;        color:#1e3f5a;&#10;      }&#10;  </style>
  </defs>
  <path
     class="ColorScheme-Highlight"
     style="fill:#bde6fb;fill-opacity:1;stroke-width:0.264583"
     d="M 6.3499999,0 C 2.8429918,0 0,2.8429918 0,6.3499999 0,9.857008 2.8429918,12.7 6.3499999,12.7 9.857008,12.7 12.7,9.857008 12.7,6.3499999 12.7,2.8429918 9.857008,0 6.3499999,0 Z m 0,0.79374999 c 3.0686322,0 5.5562501,2.48761781 5.5562501,5.55624991 0,3.0686322 -2.4876179,5.5562501 -5.5562501,5.5562501 -3.0686321,0 -5.55624991,-2.4876179 -5.55624991,-5.5562501 0,-3.0686321 2.48761781,-5.55624991 5.55624991,-5.55624991 z M 3.7041666,2.9104166 C 3.4110083,2.9104166 3.175,3.146425 3.175,3.4395833 v 1.8520833 0.5291667 3.7041666 c 0,0.2931583 0.2360083,0.5291671 0.5291666,0.5291671 h 5.2916666 c 0.2931583,0 0.5291667,-0.2360088 0.5291667,-0.5291671 v -3.7041666 -2.38125 c 0,-0.2931583 -0.2360084,-0.5291667 -0.5291667,-0.5291667 H 5.5562499 Z M 3.96875,6.3499999 H 5.0270833 V 7.6729166 H 3.96875 Z m 1.8520833,0 H 6.8791666 V 9.2604166 H 5.8208333 Z m 1.8520833,0 H 8.7312499 V 7.4083332 H 7.6729166 Z m 0,1.5875 H 8.7312499 V 9.2604166 H 7.6729166 Z M 3.96875,8.2020832 H 5.0270833 V 9.2604166 H 3.96875 Z"
     id="path817" />
</svg>
