<?xml version="1.0" encoding="UTF-8" standalone="no"?>
<svg
   width="48"
   height="48"
   viewBox="0 0 12.7 12.7"
   version="1.1"
   id="svg4"
   sodipodi:docname="drive-multidisk.svg"
   inkscape:version="0.92.5 (2060ec1f9f, 2020-04-08)"
   xmlns:inkscape="http://www.inkscape.org/namespaces/inkscape"
   xmlns:sodipodi="http://sodipodi.sourceforge.net/DTD/sodipodi-0.dtd"
   xmlns="http://www.w3.org/2000/svg"
   xmlns:svg="http://www.w3.org/2000/svg">
  <sodipodi:namedview
     id="namedview1"
     pagecolor="#505050"
     bordercolor="#eeeeee"
     borderopacity="1"
     inkscape:showpageshadow="0"
     inkscape:pageopacity="0"
     inkscape:pagecheckerboard="0"
     inkscape:deskcolor="#d1d1d1" />
  <defs
     id="defs8">
    <style
       id="current-color-scheme"
       type="text/css">&#10;      .ColorScheme-Highlight {&#10;        color:#1e3f5a;&#10;      }&#10;  </style>
  </defs>
  <path
     class="ColorScheme-Highlight"
     style="fill:#bde6fb;fill-opacity:1;stroke-width:0.264583"
     d="M 6.3499999,0 A 6.3499999,6.3499999 0 0 0 0,6.3499999 6.3499999,6.3499999 0 0 0 6.3499999,12.7 6.3499999,6.3499999 0 0 0 12.7,6.3499999 6.3499999,6.3499999 0 0 0 11.1125,2.1585245 6.3499999,6.3499999 0 0 0 10.827246,1.8520833 6.3499999,6.3499999 0 0 0 6.3499999,0 Z m 0,0.79374999 A 5.5562499,5.5562499 0 0 1 9.6030313,1.8520833 5.5562499,5.5562499 0 0 1 11.1125,3.5000448 5.5562499,5.5562499 0 0 1 11.90625,6.3499999 5.5562499,5.5562499 0 0 1 11.1125,9.1994383 5.5562499,5.5562499 0 0 1 10.163204,10.386446 5.5562499,5.5562499 0 0 1 6.3499999,11.90625 5.5562499,5.5562499 0 0 1 2.2965006,10.144084 5.5562499,5.5562499 0 0 1 2.1481893,9.9751016 5.5562499,5.5562499 0 0 1 0.79374999,6.3499999 5.5562499,5.5562499 0 0 1 6.3499999,0.79374999 Z M 2.9104166,2.6458333 c -0.1465791,0 -0.2645833,0.1180042 -0.2645833,0.2645833 v 5.2916666 c 0,0.1465792 0.1180042,0.2645834 0.2645833,0.2645834 h 5.2916666 c 0.1465792,0 0.2645834,-0.1180042 0.2645834,-0.2645834 V 2.9104166 c 0,-0.1465791 -0.1180042,-0.2645833 -0.2645834,-0.2645833 z m 2.6458333,0.79375 A 2.1166664,2.1166664 0 0 1 7.6729166,5.5562499 2.1166664,2.1166664 0 0 1 5.5562499,7.6729166 H 3.4395833 V 5.5562499 A 2.1166664,2.1166664 0 0 1 5.5562499,3.4395833 Z m 3.7041667,0 V 9.2604166 H 3.4395833 v 0.5291666 h 6.0854166 c 0.1465791,0 0.2645833,-0.1180042 0.2645833,-0.2645833 V 3.4395833 Z M 5.5562499,4.4979166 A 1.0583332,1.0583332 0 0 0 4.4979166,5.5562499 1.0583332,1.0583332 0 0 0 5.5562499,6.6145833 1.0583332,1.0583332 0 0 0 6.6145833,5.5562499 1.0583332,1.0583332 0 0 0 5.5562499,4.4979166 Z"
     id="path833" />
</svg>
