<?xml version="1.0" encoding="UTF-8" standalone="no"?>
<svg
   width="48"
   height="48"
   viewBox="0 0 12.7 12.7"
   version="1.1"
   id="svg4"
   sodipodi:docname="drive-harddisk-ieee1394.svg"
   inkscape:version="0.92.5 (2060ec1f9f, 2020-04-08)"
   xmlns:inkscape="http://www.inkscape.org/namespaces/inkscape"
   xmlns:sodipodi="http://sodipodi.sourceforge.net/DTD/sodipodi-0.dtd"
   xmlns="http://www.w3.org/2000/svg"
   xmlns:svg="http://www.w3.org/2000/svg">
  <sodipodi:namedview
     id="namedview1"
     pagecolor="#505050"
     bordercolor="#eeeeee"
     borderopacity="1"
     inkscape:showpageshadow="0"
     inkscape:pageopacity="0"
     inkscape:pagecheckerboard="0"
     inkscape:deskcolor="#d1d1d1" />
  <defs
     id="defs8">
    <style
       id="current-color-scheme"
       type="text/css">&#10;      .ColorScheme-Highlight {&#10;        color:#1e3f5a;&#10;      }&#10;  </style>
  </defs>
  <path
     class="ColorScheme-Highlight"
     style="fill:#bde6fb;fill-opacity:1;stroke-width:0.264583"
     d="M 6.3499999,0 A 6.3499999,6.3499999 0 0 0 0,6.3499999 6.3499999,6.3499999 0 0 0 6.3499999,12.7 6.3499999,6.3499999 0 0 0 12.7,6.3499999 6.3499999,6.3499999 0 0 0 6.3499999,0 Z m 0,0.79374999 A 5.5562499,5.5562499 0 0 1 11.90625,6.3499999 5.5562499,5.5562499 0 0 1 6.3499999,11.90625 5.5562499,5.5562499 0 0 1 0.79374999,6.3499999 5.5562499,5.5562499 0 0 1 6.3499999,0.79374999 Z M 3.175,2.38125 c -0.1465792,0 -0.2645834,0.1229992 -0.2645834,0.2759522 v 6.0740477 1.190625 c 0,0.2198691 0.1180042,0.3968751 0.2645834,0.3968751 h 6.3499999 c 0.1465791,0 0.2645833,-0.177006 0.2645833,-0.3968751 V 8.7312499 2.6572022 C 9.7895832,2.5042492 9.671579,2.38125 9.5249999,2.38125 Z M 5.034318,2.8592571 5.2213867,3.0468424 4.0989747,4.1692544 3.9119058,3.9821858 Z m 2.6189615,0 L 8.7762084,3.9821858 8.027417,4.7304605 6.9050047,3.6080485 Z M 5.5955242,3.4209799 5.7825928,3.6080485 4.6601805,4.7304605 4.4731119,4.5433919 Z M 6.3499999,4.2333333 A 1.0583333,1.0583333 0 0 1 7.4083332,5.2916666 1.0583333,1.0583333 0 0 1 6.3499999,6.3499999 1.0583333,1.0583333 0 0 1 5.2916666,5.2916666 1.0583333,1.0583333 0 0 1 6.3499999,4.2333333 Z m 0,0.5291666 A 0.52916663,0.52916663 0 0 0 5.8208333,5.2916666 0.52916663,0.52916663 0 0 0 6.3499999,5.8208333 0.52916663,0.52916663 0 0 0 6.8791666,5.2916666 0.52916663,0.52916663 0 0 0 6.3499999,4.7624999 Z m -0.79375,2.1166667 h 1.5875 v 0.2645833 h -1.5875 z m 0,0.79375 h 1.5875 v 0.2645833 h -1.5875 z m 0.79375,1.3229166 H 6.8791666 V 10.054167 H 6.3499999 Z m 1.0583333,0 H 7.9374999 V 10.054167 H 7.4083332 Z m 1.0583334,0 H 8.9958332 V 10.054167 H 8.4666666 Z"
     id="path836" />
</svg>
