<?xml version="1.0" encoding="UTF-8" standalone="no"?>
<svg
   width="48"
   height="48"
   viewBox="0 0 12.7 12.7"
   version="1.1"
   id="svg4"
   sodipodi:docname="drive-removable-media-usb.svg"
   inkscape:version="0.92.5 (2060ec1f9f, 2020-04-08)"
   xmlns:inkscape="http://www.inkscape.org/namespaces/inkscape"
   xmlns:sodipodi="http://sodipodi.sourceforge.net/DTD/sodipodi-0.dtd"
   xmlns="http://www.w3.org/2000/svg"
   xmlns:svg="http://www.w3.org/2000/svg">
  <sodipodi:namedview
     id="namedview1"
     pagecolor="#505050"
     bordercolor="#eeeeee"
     borderopacity="1"
     inkscape:showpageshadow="0"
     inkscape:pageopacity="0"
     inkscape:pagecheckerboard="0"
     inkscape:deskcolor="#d1d1d1" />
  <defs
     id="defs8">
    <style
       id="current-color-scheme"
       type="text/css">&#10;      .ColorScheme-Highlight {&#10;        color:#1e3f5a;&#10;      }&#10;  </style>
  </defs>
  <path
     class="ColorScheme-Highlight"
     style="fill:#bde6fb;fill-opacity:1;stroke-width:0.264583"
     d="M 6.3499999,0 A 6.3499999,6.3499999 0 0 0 0,6.3499999 6.3499999,6.3499999 0 0 0 6.3499999,12.7 6.3499999,6.3499999 0 0 0 12.7,6.3499999 6.3499999,6.3499999 0 0 0 6.3499999,0 Z m 0,0.79374999 A 5.5562499,5.5562499 0 0 1 11.90625,6.3499999 5.5562499,5.5562499 0 0 1 6.3499999,11.90625 5.5562499,5.5562499 0 0 1 0.79374999,6.3499999 5.5562499,5.5562499 0 0 1 6.3499999,0.79374999 Z M 3.175,2.38125 c -0.1465792,0 -0.2645834,0.1229995 -0.2645834,0.2759522 v 6.0740477 1.190625 c 0,0.2198691 0.1180042,0.3968751 0.2645834,0.3968751 h 6.3499999 c 0.1465791,0 0.2645833,-0.177006 0.2645833,-0.3968751 V 8.7312499 2.6572022 C 9.7895832,2.5042495 9.671579,2.38125 9.5249999,2.38125 Z M 6.3499999,3.175 7.1437499,4.2333333 H 6.6145833 V 6.9318766 L 7.4083332,6.6145833 v -0.79375 H 7.1437499 V 4.7624999 H 8.2020832 V 5.8208333 H 7.9374999 v 0.79375 0.5291666 l -1.0681517,0.427364 a 0.52916663,0.52916663 0 0 1 0.00982,0.1018027 0.52916663,0.52916663 0 0 1 -0.00206,0.041341 0.52916663,0.52916663 0 0 1 -0.00414,0.037207 0.52916663,0.52916663 0 0 1 -0.00259,0.016536 0.52916663,0.52916663 0 0 1 -0.0062,0.027905 0.52916663,0.52916663 0 0 1 -0.00723,0.027905 0.52916663,0.52916663 0 0 1 -0.00827,0.024289 0.52916663,0.52916663 0 0 1 -0.00827,0.021704 0.52916663,0.52916663 0 0 1 -0.011885,0.027905 0.52916663,0.52916663 0 0 1 -0.010335,0.020672 0.52916663,0.52916663 0 0 1 -0.013436,0.024289 0.52916663,0.52916663 0 0 1 -0.045992,0.066146 0.52916663,0.52916663 0 0 1 -0.016021,0.018087 0.52916663,0.52916663 0 0 1 -0.018603,0.020153 0.52916663,0.52916663 0 0 1 -0.020153,0.018603 0.52916663,0.52916663 0 0 1 -0.018087,0.01602 0.52916663,0.52916663 0 0 1 -0.066146,0.045992 0.52916663,0.52916663 0 0 1 -0.024289,0.013435 0.52916663,0.52916663 0 0 1 -0.020672,0.010335 0.52916663,0.52916663 0 0 1 -0.027905,0.011885 0.52916663,0.52916663 0 0 1 -0.021704,0.00827 0.52916663,0.52916663 0 0 1 -0.024289,0.00827 0.52916663,0.52916663 0 0 1 -0.027905,0.00723 0.52916663,0.52916663 0 0 1 -0.027905,0.0062 0.52916663,0.52916663 0 0 1 -0.016536,0.00259 0.52916663,0.52916663 0 0 1 -0.037207,0.00414 0.52916663,0.52916663 0 0 1 -0.041334,0.00206 0.52916663,0.52916663 0 0 1 -0.041341,-0.00206 0.52916663,0.52916663 0 0 1 -0.037207,-0.00414 0.52916663,0.52916663 0 0 1 -0.016536,-0.00259 0.52916663,0.52916663 0 0 1 -0.027905,-0.0062 0.52916663,0.52916663 0 0 1 -0.027905,-0.00723 0.52916663,0.52916663 0 0 1 -0.024289,-0.00827 0.52916663,0.52916663 0 0 1 -0.021704,-0.00827 0.52916663,0.52916663 0 0 1 -0.027905,-0.011885 0.52916663,0.52916663 0 0 1 -0.020672,-0.010335 0.52916663,0.52916663 0 0 1 -0.024289,-0.013435 0.52916663,0.52916663 0 0 1 -0.024289,-0.014986 0.52916663,0.52916663 0 0 1 -0.014986,-0.010853 0.52916663,0.52916663 0 0 1 -0.026872,-0.020153 0.52916663,0.52916663 0 0 1 -0.018087,-0.016021 0.52916663,0.52916663 0 0 1 -0.020153,-0.018603 0.52916663,0.52916663 0 0 1 -0.018603,-0.020153 0.52916663,0.52916663 0 0 1 -0.01602,-0.018087 0.52916663,0.52916663 0 0 1 -0.020153,-0.026872 0.52916663,0.52916663 0 0 1 -0.010853,-0.014986 0.52916663,0.52916663 0 0 1 -0.014986,-0.024289 0.52916663,0.52916663 0 0 1 -0.013435,-0.024289 0.52916663,0.52916663 0 0 1 -0.010335,-0.020672 0.52916663,0.52916663 0 0 1 -0.011885,-0.027905 0.52916663,0.52916663 0 0 1 -0.00827,-0.021704 0.52916663,0.52916663 0 0 1 -0.00827,-0.024289 0.52916663,0.52916663 0 0 1 -0.00723,-0.027905 0.52916663,0.52916663 0 0 1 -0.0062,-0.027905 0.52916663,0.52916663 0 0 1 -0.00259,-0.016536 0.52916663,0.52916663 0 0 1 -0.00412,-0.037199 0.52916663,0.52916663 0 0 1 -0.00207,-0.041341 0.52916663,0.52916663 0 0 1 0.00982,-0.1018027 L 4.7624999,7.1437499 V 6.6145833 6.2786865 A 0.52916663,0.52916663 0 0 1 4.4979166,5.8208333 0.52916663,0.52916663 0 0 1 5.0270833,5.2916666 0.52916663,0.52916663 0 0 1 5.5562499,5.8208333 0.52916663,0.52916663 0 0 1 5.2916666,6.2781698 v 0.3364135 l 0.79375,0.3172933 V 4.2333333 H 5.5562499 Z m 0,5.8208332 H 6.8791666 V 10.054167 H 6.3499999 Z m 1.0583333,0 H 7.9374999 V 10.054167 H 7.4083332 Z m 1.0583334,0 H 8.9958332 V 10.054167 H 8.4666666 Z"
     id="path836" />
</svg>
