<?xml version="1.0" encoding="UTF-8" standalone="no"?>
<svg
   width="48"
   height="48"
   viewBox="0 0 12.7 12.7"
   version="1.1"
   id="svg4"
   sodipodi:docname="drive-harddisk-root.svg"
   inkscape:version="0.92.5 (2060ec1f9f, 2020-04-08)"
   xmlns:inkscape="http://www.inkscape.org/namespaces/inkscape"
   xmlns:sodipodi="http://sodipodi.sourceforge.net/DTD/sodipodi-0.dtd"
   xmlns="http://www.w3.org/2000/svg"
   xmlns:svg="http://www.w3.org/2000/svg">
  <sodipodi:namedview
     id="namedview1"
     pagecolor="#505050"
     bordercolor="#eeeeee"
     borderopacity="1"
     inkscape:showpageshadow="0"
     inkscape:pageopacity="0"
     inkscape:pagecheckerboard="0"
     inkscape:deskcolor="#d1d1d1" />
  <defs
     id="defs8">
    <style
       id="current-color-scheme"
       type="text/css">&#10;      .ColorScheme-Highlight {&#10;        color:#1e3f5a;&#10;      }&#10;  </style>
  </defs>
  <path
     class="ColorScheme-Highlight"
     style="fill:#bde6fb;fill-opacity:1;stroke-width:0.264583"
     d="M 6.3499999,0 A 6.3499999,6.3499999 0 0 0 0,6.3499999 6.3499999,6.3499999 0 0 0 6.3499999,12.7 6.3499999,6.3499999 0 0 0 12.7,6.3499999 6.3499999,6.3499999 0 0 0 6.3499999,0 Z m 0,0.79374999 A 5.5562499,5.5562499 0 0 1 11.90625,6.3499999 5.5562499,5.5562499 0 0 1 6.3499999,11.90625 5.5562499,5.5562499 0 0 1 0.79374999,6.3499999 5.5562499,5.5562499 0 0 1 6.3499999,0.79374999 Z M 3.175,2.38125 c -0.1465792,0 -0.2645834,0.1229994 -0.2645834,0.2759522 v 6.0740477 1.190625 c 0,0.2198691 0.1180042,0.3968751 0.2645834,0.3968751 h 6.3499999 c 0.1465791,0 0.2645833,-0.177006 0.2645833,-0.3968751 V 8.7312499 2.6572022 C 9.7895832,2.5042494 9.671579,2.38125 9.5249999,2.38125 Z m 3.7041666,1.0583333 h 0.79375 L 4.7624999,7.4083332 H 3.96875 Z M 6.6145833,6.8791666 H 8.7312499 V 7.4083332 H 6.6145833 Z M 6.3499999,8.9958332 H 6.8791666 V 10.054167 H 6.3499999 Z m 1.0583333,0 H 7.9374999 V 10.054167 H 7.4083332 Z m 1.0583334,0 H 8.9958332 V 10.054167 H 8.4666666 Z"
     id="path836" />
</svg>
