<?xml version="1.0" encoding="UTF-8" standalone="no"?>
<svg
   width="48"
   height="48"
   viewBox="0 0 12.7 12.7"
   version="1.1"
   id="svg4"
   sodipodi:docname="input-tablet.svg"
   inkscape:version="0.92.5 (2060ec1f9f, 2020-04-08)"
   xmlns:inkscape="http://www.inkscape.org/namespaces/inkscape"
   xmlns:sodipodi="http://sodipodi.sourceforge.net/DTD/sodipodi-0.dtd"
   xmlns="http://www.w3.org/2000/svg"
   xmlns:svg="http://www.w3.org/2000/svg">
  <sodipodi:namedview
     id="namedview1"
     pagecolor="#505050"
     bordercolor="#eeeeee"
     borderopacity="1"
     inkscape:showpageshadow="0"
     inkscape:pageopacity="0"
     inkscape:pagecheckerboard="0"
     inkscape:deskcolor="#d1d1d1" />
  <defs
     id="defs8">
    <style
       id="current-color-scheme"
       type="text/css">&#10;      .ColorScheme-Highlight {&#10;        color:#1e3f5a;&#10;      }&#10;  </style>
  </defs>
  <path
     class="ColorScheme-Highlight"
     style="fill:#bde6fb;fill-opacity:1;stroke-width:0.264583"
     d="M 6.3499999,0 A 6.3499999,6.3499999 0 0 0 0,6.3499999 6.3499999,6.3499999 0 0 0 6.3499999,12.7 6.3499999,6.3499999 0 0 0 12.7,6.3499999 6.3499999,6.3499999 0 0 0 6.3499999,0 Z m 0,0.79374999 A 5.5562499,5.5562499 0 0 1 11.90625,6.3499999 5.5562499,5.5562499 0 0 1 6.3499999,11.90625 5.5562499,5.5562499 0 0 1 0.79374999,6.3499999 5.5562499,5.5562499 0 0 1 6.3499999,0.79374999 Z M 9.2604166,2.9104166 H 10.583333 Z M 2.6458333,3.175 C 2.4992533,3.175 2.38125,3.2930041 2.38125,3.4395833 v 5.8208333 c 0,0.1465791 0.1180033,0.2645833 0.2645833,0.2645833 h 7.4083337 c 0.146578,0 0.264583,-0.1180042 0.264583,-0.2645833 v -2.38125 H 9.7895832 V 8.9958332 H 3.96875 V 3.7041666 H 9.2604166 V 3.175 Z m 7.4083337,0.5291666 -0.7937504,0.79375 1.0583334,1.0583333 0.79375,-0.79375 z M 8.9958332,4.7624999 6.8791666,6.8791666 7.9374999,7.9374999 10.054167,5.8208333 Z M 6.6145833,7.1437499 6.3499999,8.4666666 7.6729166,8.2020832 Z"
     id="path878" />
</svg>
