<?xml version="1.0" encoding="UTF-8" standalone="no"?>
<svg
   width="48"
   height="48"
   viewBox="0 0 12.7 12.7"
   version="1.1"
   id="svg4"
   sodipodi:docname="multimedia-player.svg"
   inkscape:version="0.92.5 (2060ec1f9f, 2020-04-08)"
   xmlns:inkscape="http://www.inkscape.org/namespaces/inkscape"
   xmlns:sodipodi="http://sodipodi.sourceforge.net/DTD/sodipodi-0.dtd"
   xmlns="http://www.w3.org/2000/svg"
   xmlns:svg="http://www.w3.org/2000/svg">
  <sodipodi:namedview
     id="namedview1"
     pagecolor="#505050"
     bordercolor="#eeeeee"
     borderopacity="1"
     inkscape:showpageshadow="0"
     inkscape:pageopacity="0"
     inkscape:pagecheckerboard="0"
     inkscape:deskcolor="#d1d1d1" />
  <defs
     id="defs8">
    <style
       id="current-color-scheme"
       type="text/css">&#10;      .ColorScheme-Highlight {&#10;        color:#1e3f5a;&#10;      }&#10;  </style>
  </defs>
  <path
     class="ColorScheme-Highlight"
     style="fill:#bde6fb;fill-opacity:1;stroke-width:0.264583"
     d="M 6.3499999,0 A 6.3499999,6.3499999 0 0 0 0,6.3499999 6.3499999,6.3499999 0 0 0 6.3499999,12.7 6.3499999,6.3499999 0 0 0 12.7,6.3499999 6.3499999,6.3499999 0 0 0 6.3499999,0 Z m 0,0.79374999 A 5.5562499,5.5562499 0 0 1 11.90625,6.3499999 5.5562499,5.5562499 0 0 1 6.3499999,11.90625 5.5562499,5.5562499 0 0 1 0.79374999,6.3499999 5.5562499,5.5562499 0 0 1 6.3499999,0.79374999 Z M 3.4395833,2.1166666 C 3.2930041,2.1166666 3.175,2.2346708 3.175,2.38125 v 7.9375 c 0,0.146579 0.1180041,0.264583 0.2645833,0.264583 h 5.8208333 c 0.1465791,0 0.2645833,-0.118004 0.2645833,-0.264583 v -7.9375 c 0,-0.1465792 -0.1180042,-0.2645834 -0.2645833,-0.2645834 z M 3.7041666,2.6458333 H 8.9958332 V 6.0854166 H 3.7041666 Z m 2.6458333,3.96875 A 1.8520833,1.8520833 0 0 1 8.2020832,8.4666666 1.8520833,1.8520833 0 0 1 6.3499999,10.31875 1.8520833,1.8520833 0 0 1 4.4979166,8.4666666 1.8520833,1.8520833 0 0 1 6.3499999,6.6145833 Z m 0,1.0583333 a 0.79374999,0.79374999 0 0 0 -0.79375,0.79375 0.79374999,0.79374999 0 0 0 0.79375,0.79375 0.79374999,0.79374999 0 0 0 0.79375,-0.79375 0.79374999,0.79374999 0 0 0 -0.79375,-0.79375 z"
     id="path817" />
</svg>
