<?xml version="1.0" encoding="UTF-8" standalone="no"?>
<svg
   width="48"
   height="48"
   viewBox="0 0 12.7 12.7"
   version="1.1"
   id="svg4"
   sodipodi:docname="network-modem.svg"
   inkscape:version="0.92.5 (2060ec1f9f, 2020-04-08)"
   xmlns:inkscape="http://www.inkscape.org/namespaces/inkscape"
   xmlns:sodipodi="http://sodipodi.sourceforge.net/DTD/sodipodi-0.dtd"
   xmlns="http://www.w3.org/2000/svg"
   xmlns:svg="http://www.w3.org/2000/svg">
  <sodipodi:namedview
     id="namedview1"
     pagecolor="#505050"
     bordercolor="#eeeeee"
     borderopacity="1"
     inkscape:showpageshadow="0"
     inkscape:pageopacity="0"
     inkscape:pagecheckerboard="0"
     inkscape:deskcolor="#d1d1d1" />
  <defs
     id="defs8">
    <style
       id="current-color-scheme"
       type="text/css">&#10;      .ColorScheme-Highlight {&#10;        color:#1e3f5a;&#10;      }&#10;  </style>
  </defs>
  <path
     class="ColorScheme-Highlight"
     style="fill:#bde6fb;fill-opacity:1;stroke-width:0.264583"
     d="M 6.3499999,0 C 2.8429918,0 0,2.8429918 0,6.3499999 0,9.857008 2.8429918,12.7 6.3499999,12.7 9.857008,12.7 12.7,9.857008 12.7,6.3499999 12.7,2.8429918 9.857008,0 6.3499999,0 Z m 0,0.79374999 c 3.0686322,0 5.5562501,2.48761781 5.5562501,5.55624991 0,3.0686322 -2.4876179,5.5562501 -5.5562501,5.5562501 -3.0686321,0 -5.55624991,-2.4876179 -5.55624991,-5.5562501 0,-3.0686321 2.48761781,-5.55624991 5.55624991,-5.55624991 z M 3.7041666,2.9104166 c -0.1465791,0 -0.2645833,0.1180042 -0.2645833,0.2645834 V 4.7624999 6.0854166 6.3499999 H 2.9104166 c -0.1465791,0 -0.2645833,0.1180042 -0.2645833,0.2645834 v 2.9104166 c 0,0.1465791 0.1180042,0.2645833 0.2645833,0.2645833 h 6.8791666 c 0.1465792,0 0.2645838,-0.1180042 0.2645838,-0.2645833 V 6.6145833 c 0,-0.1465792 -0.1180046,-0.2645834 -0.2645838,-0.2645834 H 3.96875 V 6.0854166 4.7624999 3.175 c 0,-0.1465792 -0.1180042,-0.2645834 -0.2645834,-0.2645834 z m 2.778125,4.4979166 c 0.3653134,0 0.6614583,0.296145 0.6614583,0.6614584 0,0.3653133 -0.2961449,0.6614583 -0.6614583,0.6614583 -0.3653134,0 -0.6614583,-0.296145 -0.6614583,-0.6614583 0,-0.3653134 0.2961449,-0.6614584 0.6614583,-0.6614584 z m 1.8520833,0 c 0.3653134,0 0.6614583,0.296145 0.6614583,0.6614584 0,0.3653133 -0.2961449,0.6614583 -0.6614583,0.6614583 -0.3653134,0 -0.6614583,-0.296145 -0.6614583,-0.6614583 0,-0.3653134 0.2961449,-0.6614584 0.6614583,-0.6614584 z"
     id="path817" />
</svg>
