<?xml version="1.0" encoding="UTF-8" standalone="no"?>
<svg
   width="48"
   height="48"
   viewBox="0 0 12.7 12.7"
   version="1.1"
   id="svg4"
   sodipodi:docname="network-rj45-female.svg"
   inkscape:version="0.92.5 (2060ec1f9f, 2020-04-08)"
   xmlns:inkscape="http://www.inkscape.org/namespaces/inkscape"
   xmlns:sodipodi="http://sodipodi.sourceforge.net/DTD/sodipodi-0.dtd"
   xmlns="http://www.w3.org/2000/svg"
   xmlns:svg="http://www.w3.org/2000/svg">
  <sodipodi:namedview
     id="namedview1"
     pagecolor="#505050"
     bordercolor="#eeeeee"
     borderopacity="1"
     inkscape:showpageshadow="0"
     inkscape:pageopacity="0"
     inkscape:pagecheckerboard="0"
     inkscape:deskcolor="#d1d1d1" />
  <defs
     id="defs8">
    <style
       id="current-color-scheme"
       type="text/css">&#10;      .ColorScheme-Highlight {&#10;        color:#1e3f5a;&#10;      }&#10;  </style>
  </defs>
  <path
     class="ColorScheme-Highlight"
     style="fill:#bde6fb;fill-opacity:1;stroke-width:0.264583"
     d="M 6.3499999,0 A 6.3499999,6.3499999 0 0 0 0,6.3499999 6.3499999,6.3499999 0 0 0 6.3499999,12.7 6.3499999,6.3499999 0 0 0 12.7,6.3499999 6.3499999,6.3499999 0 0 0 6.3499999,0 Z m 0,0.79374999 A 5.5562499,5.5562499 0 0 1 11.90625,6.3499999 5.5562499,5.5562499 0 0 1 6.3499999,11.90625 5.5562499,5.5562499 0 0 1 0.79374999,6.3499999 5.5562499,5.5562499 0 0 1 6.3499999,0.79374999 Z M 2.6458333,3.175 V 5.0270833 H 2.38125 V 5.5562499 H 3.175 v 0.79375 H 2.38125 v 0.5291667 h 0.5291666 v 1.3229166 h 0.79375 v 1.0583334 h 1.0583333 v 0.7937504 h 3.175 V 9.2604166 H 8.9958332 V 8.2020832 h 0.79375 V 6.8791666 H 10.31875 V 6.3499999 H 9.5249999 v -0.79375 H 10.31875 V 5.0270833 H 10.054167 V 3.175 H 9.2604166 V 4.7624999 H 8.7312499 V 3.175 H 8.2020832 V 4.7624999 H 7.6729166 V 3.175 H 7.1437499 V 4.7624999 H 6.6145833 V 3.175 H 6.0854166 V 4.7624999 H 5.5562499 V 3.175 H 5.0270833 V 4.7624999 H 4.4979166 V 3.175 H 3.96875 V 4.7624999 H 3.4395833 V 3.175 Z"
     id="rect824" />
</svg>
