<?xml version="1.0" encoding="UTF-8" standalone="no"?>
<svg
   width="48"
   height="48"
   viewBox="0 0 12.7 12.7"
   version="1.1"
   id="svg4"
   sodipodi:docname="printer-network.svg"
   inkscape:version="0.92.5 (2060ec1f9f, 2020-04-08)"
   xmlns:inkscape="http://www.inkscape.org/namespaces/inkscape"
   xmlns:sodipodi="http://sodipodi.sourceforge.net/DTD/sodipodi-0.dtd"
   xmlns="http://www.w3.org/2000/svg"
   xmlns:svg="http://www.w3.org/2000/svg">
  <sodipodi:namedview
     id="namedview1"
     pagecolor="#505050"
     bordercolor="#eeeeee"
     borderopacity="1"
     inkscape:showpageshadow="0"
     inkscape:pageopacity="0"
     inkscape:pagecheckerboard="0"
     inkscape:deskcolor="#d1d1d1" />
  <defs
     id="defs8">
    <style
       id="current-color-scheme"
       type="text/css">&#10;      .ColorScheme-Highlight {&#10;        color:#1e3f5a;&#10;      }&#10;  </style>
  </defs>
  <path
     class="ColorScheme-Highlight"
     style="fill:#bde6fb;fill-opacity:1;stroke-width:0.264583"
     d="M 6.3499999,0 A 6.3499999,6.3499999 0 0 0 0,6.3499999 6.3499999,6.3499999 0 0 0 6.3499999,12.7 6.3499999,6.3499999 0 0 0 12.7,6.3499999 6.3499999,6.3499999 0 0 0 6.3499999,0 Z m 0,0.79374999 a 5.5562499,5.5562499 0 0 1 5.5562501,5.55624991 5.5562499,5.5562499 0 0 1 -0.998906,3.175 H 6.8791666 V 8.2020832 h 1.0583333 v -0.79375 h -3.175 v 0.79375 H 5.8208333 V 9.5249999 H 1.7983398 A 5.5562499,5.5562499 0 0 1 0.79374999,6.3499999 5.5562499,5.5562499 0 0 1 6.3499999,0.79374999 Z M 5.0270833,2.38125 V 5.0270833 H 7.6729166 V 2.38125 Z M 3.7041666,3.7041666 c -0.1465791,0 -0.2645833,0.1180042 -0.2645833,0.2645834 v 2.6458333 c 0,0.1465791 0.1180042,0.2645833 0.2645833,0.2645833 h 5.2916666 c 0.1465792,0 0.2645834,-0.1180042 0.2645834,-0.2645833 V 3.96875 c 0,-0.1465792 -0.1180042,-0.2645834 -0.2645834,-0.2645834 h -0.79375 V 5.5562499 H 4.4979166 V 3.7041666 Z M 2.2174357,10.054167 H 5.8208333 6.8791666 10.483598 A 5.5562499,5.5562499 0 0 1 6.3499999,11.90625 5.5562499,5.5562499 0 0 1 2.2174357,10.054167 Z"
     id="path842" />
</svg>
