<?xml version="1.0" encoding="UTF-8" standalone="no"?>
<svg
   width="19.853859"
   height="16.60594"
   viewBox="0 0 5.2530002 4.3936549"
   version="1.1"
   id="svg4"
   sodipodi:docname="applications-system-symbolic.svg"
   inkscape:version="0.92.4 (5da689c313, 2019-01-14)"
   xmlns:inkscape="http://www.inkscape.org/namespaces/inkscape"
   xmlns:sodipodi="http://sodipodi.sourceforge.net/DTD/sodipodi-0.dtd"
   xmlns="http://www.w3.org/2000/svg"
   xmlns:svg="http://www.w3.org/2000/svg"
   xmlns:rdf="http://www.w3.org/1999/02/22-rdf-syntax-ns#"
   xmlns:cc="http://creativecommons.org/ns#"
   xmlns:dc="http://purl.org/dc/elements/1.1/">
  <metadata
     id="metadata10">
    <rdf:RDF>
      <cc:Work
         rdf:about="">
        <dc:format>image/svg+xml</dc:format>
        <dc:type
           rdf:resource="http://purl.org/dc/dcmitype/StillImage" />
        <dc:title />
      </cc:Work>
    </rdf:RDF>
  </metadata>
  <defs
     id="defs8" />
  <sodipodi:namedview
     pagecolor="#ffffff"
     bordercolor="#666666"
     borderopacity="1"
     objecttolerance="10"
     gridtolerance="10"
     guidetolerance="10"
     inkscape:pageopacity="0"
     inkscape:pageshadow="2"
     inkscape:window-width="1085"
     inkscape:window-height="480"
     id="namedview6"
     showgrid="false"
     inkscape:zoom="9.8333333"
     inkscape:cx="1.0677966"
     inkscape:cy="12"
     inkscape:window-x="0"
     inkscape:window-y="25"
     inkscape:window-maximized="0"
     inkscape:current-layer="svg4"
     inkscape:showpageshadow="0"
     inkscape:pagecheckerboard="0"
     inkscape:deskcolor="#d1d1d1" />
  <path
     d="M 2.04,-1.3828278e-8 1.825,0.51999999 a 1.325,1.325 0 0 0 -0.267,0.03 l -0.32,-0.46 a 1.804,1.804 0 0 0 -0.318,0.154 l 0.134,0.542 a 1.337,1.337 0 0 0 -0.196,0.179 l -0.528,-0.183 A 1.827,1.827 0 0 0 0.157,1.092 L 0.582,1.449 A 1.276,1.276 0 0 0 0.548,1.577 1.3,1.3 0 0 0 0.53,1.708 L 0,1.87 C 9.9999571e-4,1.99 0.012,2.108 0.037,2.223 L 0.594,2.26 C 0.623,2.345 0.661,2.426 0.705,2.502 L 0.37,2.949 c 0.071,0.095 0.144,0.186 0.233,0.266 l 0.474,-0.3 C 1.149,2.967 1.228,3.011 1.311,3.047 L 1.306,3.611 a 1.882,1.882 0 0 0 0.34,0.07 L 1.862,3.159 c 0.09,-0.002 0.18,-0.011 0.267,-0.03 l 0.32,0.462 C 2.561,3.551 2.664,3.496 2.767,3.436 L 2.632,2.893 C 2.703,2.84 2.77,2.781 2.829,2.715 L 3.357,2.898 A 1.827,1.827 0 0 0 3.527,2.592 L 3.628,2.804 A 0.78,0.78 0 0 0 3.537,2.93 L 3.213,2.886 A 1.066,1.066 0 0 0 3.151,3.084 L 3.435,3.238 A 0.744,0.744 0 0 0 3.431,3.315 c 0,0.026 0.002,0.051 0.004,0.077 L 3.151,3.546 C 3.166,3.615 3.186,3.681 3.213,3.744 L 3.537,3.7 A 0.778,0.778 0 0 0 3.628,3.826 L 3.488,4.12 C 3.54,4.166 3.592,4.209 3.652,4.244 L 3.889,4.018 a 0.757,0.757 0 0 0 0.149,0.048 l 0.063,0.323 a 1.098,1.098 0 0 0 0.202,0 L 4.366,4.066 A 0.744,0.744 0 0 0 4.515,4.018 L 4.751,4.244 C 4.811,4.209 4.864,4.165 4.915,4.119 L 4.775,3.825 A 0.794,0.794 0 0 0 4.867,3.7 L 5.19,3.744 A 1.066,1.066 0 0 0 5.253,3.546 L 4.968,3.392 a 0.728,0.728 0 0 0 0,-0.154 L 5.253,3.084 A 1.066,1.066 0 0 0 5.19,2.887 L 4.867,2.93 A 0.78,0.78 0 0 0 4.775,2.804 L 4.915,2.51 A 1.071,1.071 0 0 0 4.751,2.385 L 4.515,2.612 A 0.774,0.774 0 0 0 4.365,2.564 L 4.303,2.241 A 1.098,1.098 0 0 0 4.202,2.234 c -0.034,0 -0.068,0.004 -0.101,0.007 L 4.038,2.564 A 0.773,0.773 0 0 0 3.888,2.611 L 3.652,2.385 C 3.592,2.421 3.54,2.465 3.489,2.51 L 3.522,2.581 3.105,2.231 A 1.28,1.28 0 0 0 3.139,2.104 C 3.149,2.059 3.153,2.017 3.157,1.972 L 3.688,1.811 A 1.827,1.827 0 0 0 3.65,1.457 L 3.093,1.42 A 1.337,1.337 0 0 0 2.982,1.178 L 3.317,0.73199999 a 1.839,1.839 0 0 0 -0.232,-0.266 l -0.475,0.299 a 1.326,1.326 0 0 0 -0.234,-0.132 l 0.004,-0.564 a 1.882,1.882 0 0 0 -0.168,-0.042 C 2.155,0.01499999 2.097,0.00899999 2.04,-1.3828278e-8 Z M 1.812,1.048 a 0.793,0.793 0 0 1 0.19,0.015 0.79339161,0.79339161 0 1 1 -0.316,1.555 0.793,0.793 0 0 1 0.126,-1.57 z m 2.383,1.804 a 0.463,0.463 0 0 1 0.007,0 0.463,0.463 0 1 1 0,0.925 0.463,0.463 0 0 1 -0.007,-0.925 z"
     id="path2"
     inkscape:connector-curvature="0"
     style="fill:#bde6fb;fill-opacity:1" />
</svg>
