<?xml version="1.0" encoding="UTF-8" standalone="no"?>
<svg
   width="16.39937"
   height="15.07655"
   viewBox="0 0 4.339 3.989004"
   version="1.1"
   id="svg4"
   sodipodi:docname="applications-development-symbolic.svg"
   inkscape:version="0.92.4 (5da689c313, 2019-01-14)"
   xmlns:inkscape="http://www.inkscape.org/namespaces/inkscape"
   xmlns:sodipodi="http://sodipodi.sourceforge.net/DTD/sodipodi-0.dtd"
   xmlns="http://www.w3.org/2000/svg"
   xmlns:svg="http://www.w3.org/2000/svg"
   xmlns:rdf="http://www.w3.org/1999/02/22-rdf-syntax-ns#"
   xmlns:cc="http://creativecommons.org/ns#"
   xmlns:dc="http://purl.org/dc/elements/1.1/">
  <metadata
     id="metadata10">
    <rdf:RDF>
      <cc:Work
         rdf:about="">
        <dc:format>image/svg+xml</dc:format>
        <dc:type
           rdf:resource="http://purl.org/dc/dcmitype/StillImage" />
        <dc:title />
      </cc:Work>
    </rdf:RDF>
  </metadata>
  <defs
     id="defs8" />
  <sodipodi:namedview
     pagecolor="#ffffff"
     bordercolor="#666666"
     borderopacity="1"
     objecttolerance="10"
     gridtolerance="10"
     guidetolerance="10"
     inkscape:pageopacity="0"
     inkscape:pageshadow="2"
     inkscape:window-width="1085"
     inkscape:window-height="480"
     id="namedview6"
     showgrid="false"
     inkscape:zoom="9.8333333"
     inkscape:cx="1.0677966"
     inkscape:cy="12"
     inkscape:window-x="0"
     inkscape:window-y="25"
     inkscape:window-maximized="0"
     inkscape:current-layer="svg4"
     inkscape:showpageshadow="0"
     inkscape:pagecheckerboard="0"
     inkscape:deskcolor="#d1d1d1" />
  <path
     d="M 3.3039999,-1.8119812e-8 2.1969999,2.028 l 0.088,0.135 0.81,0.003 v 0.356 h -0.035 a 0.121,0.121 0 0 0 -0.121,0.122 v 1.224 c 0,0.067 0.054,0.121 0.121,0.121 h 0.43 a 0.121,0.121 0 0 0 0.122,-0.121 V 2.644 a 0.121,0.121 0 0 0 -0.121,-0.122 h -0.052 V 2.167 l 0.8,0.002 0.1,-0.145 z M 1.1339999,0.23199998 C 0.80699994,0.24799998 0.39399994,0.51199998 -5.8174134e-8,1.06 -5.8174134e-8,1.06 1.1699999,0.46099998 1.1699999,1.42 v 0.927 h -0.116 c 0,0 -0.11699996,0 -0.11699996,0.117 v 1.404 c 0,0.117 0.11699996,0.117 0.11699996,0.117 h 0.702 c 0,0 0.117,0 0.117,-0.117 V 2.464 c 0,-0.117 -0.117,-0.117 -0.117,-0.117 h -0.117 v -0.98 c 0.002,-0.109 0.068,-0.40200002 0.347,-0.40200002 L 2.2239999,1.177 h 0.35 V 0.24099998 h -0.35 l -0.238,0.16 c 0,0 -0.524,-0.185 -0.851,-0.169 z"
     id="path2"
     inkscape:connector-curvature="0"
     style="fill:#bde6fb;fill-opacity:1" />
</svg>
