<?xml version="1.0" encoding="UTF-8" standalone="no"?>
<svg
   width="13.789129"
   height="17.862049"
   viewBox="0 0 3.6483738 4.7260005"
   version="1.1"
   id="svg4"
   sodipodi:docname="applications-science-symbolic.svg"
   inkscape:version="0.92.4 (5da689c313, 2019-01-14)"
   xmlns:inkscape="http://www.inkscape.org/namespaces/inkscape"
   xmlns:sodipodi="http://sodipodi.sourceforge.net/DTD/sodipodi-0.dtd"
   xmlns="http://www.w3.org/2000/svg"
   xmlns:svg="http://www.w3.org/2000/svg"
   xmlns:rdf="http://www.w3.org/1999/02/22-rdf-syntax-ns#"
   xmlns:cc="http://creativecommons.org/ns#"
   xmlns:dc="http://purl.org/dc/elements/1.1/">
  <metadata
     id="metadata10">
    <rdf:RDF>
      <cc:Work
         rdf:about="">
        <dc:format>image/svg+xml</dc:format>
        <dc:type
           rdf:resource="http://purl.org/dc/dcmitype/StillImage" />
        <dc:title />
      </cc:Work>
    </rdf:RDF>
  </metadata>
  <defs
     id="defs8" />
  <sodipodi:namedview
     pagecolor="#ffffff"
     bordercolor="#666666"
     borderopacity="1"
     objecttolerance="10"
     gridtolerance="10"
     guidetolerance="10"
     inkscape:pageopacity="0"
     inkscape:pageshadow="2"
     inkscape:window-width="1085"
     inkscape:window-height="480"
     id="namedview6"
     showgrid="false"
     inkscape:zoom="9.8333333"
     inkscape:cx="1.0677966"
     inkscape:cy="12"
     inkscape:window-x="0"
     inkscape:window-y="25"
     inkscape:window-maximized="0"
     inkscape:current-layer="svg4"
     inkscape:showpageshadow="0"
     inkscape:pagecheckerboard="0"
     inkscape:deskcolor="#d1d1d1" />
  <path
     d="M 2.0570471,-1.1920929e-8 A 0.233,0.242 0 0 0 1.8240471,0.24199999 a 0.233,0.242 0 0 0 0.233,0.242 0.233,0.242 0 0 0 0.233,-0.242 A 0.233,0.242 0 0 0 2.0570471,-1.1920929e-8 Z M 1.2430471,0.12599999 a 0.116,0.125 0 0 0 -0.117,0.126 0.116,0.125 0 0 0 0.117,0.125 0.116,0.125 0 0 0 0.116,-0.125 0.116,0.125 0 0 0 -0.116,-0.127 z m -0.2,0.449 A 0.261,0.261 0 0 0 0.91704707,1.064 l 0.12800003,0.07 v 0.702 c -0.034,0.053 -0.065,0.1 -0.11400003,0.186 -0.072,0.123 -0.159,0.277 -0.253,0.446 a 134.362,134.362 0 0 0 -0.576,1.043 0.833,0.833 0 0 0 0.079,0.918 c 0.176,0.235 0.454,0.297 0.684,0.297 H 2.7850471 c 0.23,0 0.507,-0.062 0.683,-0.298 a 0.832,0.832 0 0 0 0.078,-0.917 c -0.304,-0.619 -0.647,-1.102 -0.93,-1.67 V 1.135 l 0.128,-0.072 a 0.261,0.261 0 0 0 -0.128,-0.49000001 h -1.572 z M 1.5670471,1.097 h 0.526 v 0.811 a 0.261,0.261 0 0 0 0.027,0.115 c 0.314,0.642 0.672,1.134 0.962,1.728 a 0.261,0.261 0 0 0 0.005,0.01 c 0.063,0.115 0.067,0.231 -0.026,0.344 a 0.261,0.261 0 0 0 -0.009,0.011 c -0.038,0.052 -0.127,0.088 -0.268,0.088 H 0.86304707 c -0.14,0 -0.23,-0.036 -0.268,-0.088 a 0.261,0.261 0 0 0 -0.008,-0.011 c -0.093,-0.113 -0.09,-0.229 -0.027,-0.344 a 133.796,133.796 0 0 1 0.57200003,-1.038 33.498,33.498 0 0 1 0.249,-0.44 4.69,4.69 0 0 1 0.135,-0.22 0.261,0.261 0 0 0 0.05,-0.155 V 1.097 Z m 0.168,1.23 a 0.197,0.197 0 0 0 -0.197,0.198 0.197,0.197 0 0 0 0.197,0.197 0.197,0.197 0 0 0 0.197,-0.197 0.197,0.197 0 0 0 -0.197,-0.197 z m 0.554,0.571 h -0.93 L 0.77904707,3.943 H 2.8690471 Z"
     id="path2"
     inkscape:connector-curvature="0"
     style="fill:#bde6fb;fill-opacity:1" />
</svg>
