<?xml version="1.0" encoding="UTF-8" standalone="no"?>
<svg
   width="22.601574"
   height="18.939997"
   viewBox="0 0 5.9799998 5.0112075"
   version="1.1"
   id="svg4"
   sodipodi:docname="applications-education-symbolic.svg"
   inkscape:version="0.92.4 (5da689c313, 2019-01-14)"
   xmlns:inkscape="http://www.inkscape.org/namespaces/inkscape"
   xmlns:sodipodi="http://sodipodi.sourceforge.net/DTD/sodipodi-0.dtd"
   xmlns="http://www.w3.org/2000/svg"
   xmlns:svg="http://www.w3.org/2000/svg"
   xmlns:rdf="http://www.w3.org/1999/02/22-rdf-syntax-ns#"
   xmlns:cc="http://creativecommons.org/ns#"
   xmlns:dc="http://purl.org/dc/elements/1.1/">
  <metadata
     id="metadata10">
    <rdf:RDF>
      <cc:Work
         rdf:about="">
        <dc:format>image/svg+xml</dc:format>
        <dc:type
           rdf:resource="http://purl.org/dc/dcmitype/StillImage" />
        <dc:title />
      </cc:Work>
    </rdf:RDF>
  </metadata>
  <defs
     id="defs8" />
  <sodipodi:namedview
     pagecolor="#ffffff"
     bordercolor="#666666"
     borderopacity="1"
     objecttolerance="10"
     gridtolerance="10"
     guidetolerance="10"
     inkscape:pageopacity="0"
     inkscape:pageshadow="2"
     inkscape:window-width="1085"
     inkscape:window-height="480"
     id="namedview6"
     showgrid="false"
     inkscape:zoom="9.8333333"
     inkscape:cx="12"
     inkscape:cy="12"
     inkscape:window-x="0"
     inkscape:window-y="25"
     inkscape:window-maximized="0"
     inkscape:current-layer="svg4"
     inkscape:showpageshadow="0"
     inkscape:pagecheckerboard="0"
     inkscape:deskcolor="#d1d1d1" />
  <path
     d="m 4.49,0.00120793 a 0.83,0.83 0 0 0 -0.01,0 c -0.55,0.02 -0.67,0.43 -0.7,0.68 l -0.03,0.2 c -0.7,0.11 -0.63,0.82999997 -0.2,0.83999997 a 0.83,0.83 0 0 1 0.21,-0.67 0.8,0.8 0 0 0 1.59,0.06 c 0.07,0.12 0.18,0.36 0.16,0.61 0.67,0 0.34,-0.77999997 -0.13,-0.86999997 l -0.02,-0.11 a 0.83,0.83 0 0 0 -0.87,-0.74 z m -3.07,0.13 z m 0,0 c -0.2,0 -0.45000001,0.15 -0.58000001,0.27 -0.16999997,0.15 -0.04,0.27 -0.04,0.52 a 0.8,0.8 0 1 0 1.58000001,0 c 0,-0.27 0.1,-0.52 -0.11,-0.66 -0.13,-0.1 -0.67,-0.13 -0.85,-0.13 z m 2.6,1.69999997 -0.95,1.14 -0.91,-1.13 H 1.1 l -1.1,1.19 0.23999999,0.24 0.78000001,-0.67 v 1.3 h 0.16 v 0.98 h -0.1 v 0.13 h 0.46 v -1.1 h 0.17 v 1.1 h 0.45 v -0.12 h -0.1 v -0.99 h 0.2 v -1.27 l 0.62,0.66 0.26,-0.07 0.14,0.03 0.71,-0.81 0.04,0.32 -0.66,1.13 h 0.76 v 1 h -0.1 v 0.1 h 0.46 v -1.09 h 0.17 v 1.1 h 0.46 v -0.1 h -0.1 v -1 H 5.6 l -0.57,-1.14 0.03,-0.4 0.56,0.75 0.36,-0.1 -0.88,-1.19 z"
     id="path2"
     inkscape:connector-curvature="0"
     style="fill:#bde6fb;fill-opacity:1" />
</svg>
