<?xml version="1.0" encoding="UTF-8" standalone="no"?>
<svg
   width="14.101032"
   height="15.158882"
   viewBox="0 0 3.7308981 4.0107876"
   version="1.1"
   id="svg4"
   sodipodi:docname="applications-multimedia-symbolic.svg"
   inkscape:version="0.92.4 (5da689c313, 2019-01-14)"
   xmlns:inkscape="http://www.inkscape.org/namespaces/inkscape"
   xmlns:sodipodi="http://sodipodi.sourceforge.net/DTD/sodipodi-0.dtd"
   xmlns="http://www.w3.org/2000/svg"
   xmlns:svg="http://www.w3.org/2000/svg"
   xmlns:rdf="http://www.w3.org/1999/02/22-rdf-syntax-ns#"
   xmlns:cc="http://creativecommons.org/ns#"
   xmlns:dc="http://purl.org/dc/elements/1.1/">
  <metadata
     id="metadata10">
    <rdf:RDF>
      <cc:Work
         rdf:about="">
        <dc:format>image/svg+xml</dc:format>
        <dc:type
           rdf:resource="http://purl.org/dc/dcmitype/StillImage" />
        <dc:title />
      </cc:Work>
    </rdf:RDF>
  </metadata>
  <defs
     id="defs8" />
  <sodipodi:namedview
     pagecolor="#ffffff"
     bordercolor="#666666"
     borderopacity="1"
     objecttolerance="10"
     gridtolerance="10"
     guidetolerance="10"
     inkscape:pageopacity="0"
     inkscape:pageshadow="2"
     inkscape:window-width="1085"
     inkscape:window-height="480"
     id="namedview6"
     showgrid="false"
     inkscape:zoom="9.8333333"
     inkscape:cx="1.0677966"
     inkscape:cy="12"
     inkscape:window-x="0"
     inkscape:window-y="25"
     inkscape:window-maximized="0"
     inkscape:current-layer="svg4"
     inkscape:showpageshadow="0"
     inkscape:pagecheckerboard="0"
     inkscape:deskcolor="#d1d1d1" />
  <path
     d="m 0.02020479,-2.3841858e-8 -0.013,0.0050000038419 -0.005,0.013 V 2.918 c 0.009,0.051 -0.02,0.123 0.018,0.16 H 1.1682048 A 0.62,0.62 0 0 0 0.93120479,3.546 c -0.017,0.266 0.24000001,0.487 0.49800001,0.463 0.35,-0.018 0.671,-0.358 0.634,-0.72 V 3.078 h 0.535 a 0.582,0.582 0 0 0 -0.038,0.132 c -0.052,0.233 0.11,0.468 0.333,0.534 0.417,0.137 0.884,-0.266 0.834,-0.697 0,-0.808 0.004,-1.616 0,-2.42500002 -0.01,-0.08 -0.072,-0.16 -0.16,-0.157 -0.287,0.046 -0.575,0.09 -0.862,0.134 V -2.3841858e-8 Z M 0.46620479,0.11999998 H 2.2422048 v 0.55 c -0.119,0.02 -0.238,0.037 -0.356,0.056 -0.153,0.077 -0.098,0.271 -0.108,0.40800002 V 1.526 H 0.46820479 V 0.11999998 Z m -0.326,0.018 h 0.186 v 0.187 h -0.186 z m 2.23900001,0 h 0.186 v 0.187 h -0.186 z m -2.24000001,0.373 h 0.187 v 0.187 h -0.186 v -0.188 z m 2.24000001,0 h 0.186 v 0.109 l -0.186,0.029 v -0.139 z m -2.24000001,0.373 h 0.187 V 1.072 h -0.186 V 0.88399998 Z M 3.4482048,1.21 v 1.464 a 0.738,0.738 0 0 0 -0.743,0.234 V 1.32 c 0.247,-0.038 0.495,-0.075 0.743,-0.11 z M 0.14020479,1.258 h 0.186 v 0.186 h -0.186 z M 2.5652048,1.342 v 0.102 h -0.186 V 1.37 Z m -0.324,0.048 v 0.136 h -0.179 v -0.11 l 0.178,-0.026 z M 0.14020479,1.63 h 0.186 v 0.188 h -0.186 z m 2.23900001,0 h 0.186 v 0.188 h -0.186 z M 0.46620479,1.647 H 1.7772048 v 1.265 a 0.687,0.687 0 0 0 -0.413,0.044 H 0.46620479 v -1.31 z m 1.59700001,0 h 0.178 v 1.27 a 0.18,0.18 0 0 1 0,0.04 h -0.178 z M 0.14020479,2.004 h 0.186 v 0.187 h -0.186 z m 2.23900001,0 h 0.186 v 0.187 h -0.186 z M 0.13920479,2.377 h 0.187 v 0.186 h -0.186 V 2.377 Z m 2.24000001,0 h 0.186 v 0.186 h -0.186 z M 0.13920479,2.75 h 0.187 v 0.187 h -0.186 V 2.75 Z m 2.24000001,0 h 0.186 v 0.187 h -0.186 z"
     id="path2"
     inkscape:connector-curvature="0"
     style="fill:#bde6fb;fill-opacity:1" />
</svg>
