<?xml version="1.0" encoding="UTF-8" standalone="no"?>
<svg
   width="17.7883"
   height="16.682316"
   viewBox="0 0 4.7064876 4.4138627"
   version="1.1"
   id="svg4"
   sodipodi:docname="applications-graphics-symbolic.svg"
   inkscape:version="0.92.4 (5da689c313, 2019-01-14)"
   xmlns:inkscape="http://www.inkscape.org/namespaces/inkscape"
   xmlns:sodipodi="http://sodipodi.sourceforge.net/DTD/sodipodi-0.dtd"
   xmlns="http://www.w3.org/2000/svg"
   xmlns:svg="http://www.w3.org/2000/svg"
   xmlns:rdf="http://www.w3.org/1999/02/22-rdf-syntax-ns#"
   xmlns:cc="http://creativecommons.org/ns#"
   xmlns:dc="http://purl.org/dc/elements/1.1/">
  <metadata
     id="metadata10">
    <rdf:RDF>
      <cc:Work
         rdf:about="">
        <dc:format>image/svg+xml</dc:format>
        <dc:type
           rdf:resource="http://purl.org/dc/dcmitype/StillImage" />
        <dc:title />
      </cc:Work>
    </rdf:RDF>
  </metadata>
  <defs
     id="defs8" />
  <sodipodi:namedview
     pagecolor="#ffffff"
     bordercolor="#666666"
     borderopacity="1"
     objecttolerance="10"
     gridtolerance="10"
     guidetolerance="10"
     inkscape:pageopacity="0"
     inkscape:pageshadow="2"
     inkscape:window-width="1085"
     inkscape:window-height="480"
     id="namedview6"
     showgrid="false"
     inkscape:zoom="9.8333333"
     inkscape:cx="1.0677966"
     inkscape:cy="12"
     inkscape:window-x="0"
     inkscape:window-y="25"
     inkscape:window-maximized="0"
     inkscape:current-layer="svg4"
     inkscape:showpageshadow="0"
     inkscape:pagecheckerboard="0"
     inkscape:deskcolor="#d1d1d1" />
  <path
     d="M 2.322,8.8886595e-4 C 1.7,0.00988887 0.86699999,0.23688887 0.88099999,0.96588887 0.89499999,1.7268889 1.739,1.4548889 1.807,1.7658889 c 0.01,-0.014 0.026,-0.025 0.037,-0.037 0.058,-0.063 0.116,-0.114 0.174,-0.175 0.092,-0.103 0.188,-0.2 0.285,-0.303 C 2.628,0.90388887 2.643,0.88288887 3.419,0.29488887 A 2.1,2.1 0 0 0 2.449,8.8886595e-4 c -0.039,-0.001999996 -0.086,0 -0.128,0 z m 1.806,0 C 3.599,0.38388887 2.891,0.97288887 2.33,1.5698889 c -0.051,0.055 -0.1,0.106 -0.148,0.16 -0.03,0.033 -0.063,0.058 -0.093,0.091 -0.02,0.023 -0.037,0.048 -0.056,0.07 -0.383,0.424 -0.758,0.922 -1.07200001,1.38 a 0.315,0.315 0 0 0 -0.33,0.028 c -0.222,0.146 -0.175,0.672 -0.63099999,0.672 0.04299999,0.177 0.50999999,0.175 0.82599999,0.096 C 1.124,3.9918889 1.214,3.7308889 1.158,3.5128889 c -0.008,-0.03 -0.027,-0.062 -0.046,-0.092 0.584,-0.484 1,-0.888 1.283,-1.187 0.07,-0.073 0.156,-0.168 0.25,-0.272 0.354,-0.393 0.86,-1.01100003 1.483,-1.96000003 z M 1.755,0.45088887 a 0.441,0.441 0 0 1 0.006,0 0.44,0.44 0 0 1 0.44,0.441 0.441,0.441 0 1 1 -0.446,-0.441 z m 2.145,0.195 C 3.482,1.3028889 3.203,1.6918889 2.908,1.9958889 c -0.188,0.193 -0.342,0.386 -0.477,0.523 -0.247,0.263 -0.57,0.572 -0.927,0.91 0.019,0.433 0.239,0.808 0.955,0.947 1.146,0.222 2.361,-0.537 2.239,-2.077 -0.053,-0.661 -0.414,-1.26 -0.798,-1.65300003 z M 4,1.7658889 a 0.294,0.294 0 0 1 0,0.588 0.2945,0.2945 0 0 1 0,-0.589 z m -0.202,0.882 a 0.294,0.294 0 0 1 0.007,0 0.294,0.294 0 0 1 0.011,0 0.294,0.294 0 0 1 0,0.588 0.29413772,0.29413772 0 0 1 -0.018,-0.588 z m -1.45,0.588 a 0.294,0.294 0 0 1 0,0.588 0.294,0.294 0 0 1 0,-0.588 z m 0.881,0 a 0.294,0.294 0 0 1 0,0.588 0.294,0.294 0 0 1 0,-0.588 z"
     id="path2"
     inkscape:connector-curvature="0"
     style="fill:#bde6fb;fill-opacity:1" />
</svg>
