<?xml version="1.0" encoding="UTF-8" standalone="no"?>
<svg
   width="16.633297"
   height="10.962164"
   viewBox="0 0 4.4008932 2.9004059"
   version="1.1"
   id="svg4"
   sodipodi:docname="applications-games-symbolic.svg"
   inkscape:version="0.92.4 (5da689c313, 2019-01-14)"
   xmlns:inkscape="http://www.inkscape.org/namespaces/inkscape"
   xmlns:sodipodi="http://sodipodi.sourceforge.net/DTD/sodipodi-0.dtd"
   xmlns="http://www.w3.org/2000/svg"
   xmlns:svg="http://www.w3.org/2000/svg"
   xmlns:rdf="http://www.w3.org/1999/02/22-rdf-syntax-ns#"
   xmlns:cc="http://creativecommons.org/ns#"
   xmlns:dc="http://purl.org/dc/elements/1.1/">
  <metadata
     id="metadata10">
    <rdf:RDF>
      <cc:Work
         rdf:about="">
        <dc:format>image/svg+xml</dc:format>
        <dc:type
           rdf:resource="http://purl.org/dc/dcmitype/StillImage" />
        <dc:title />
      </cc:Work>
    </rdf:RDF>
  </metadata>
  <defs
     id="defs8" />
  <sodipodi:namedview
     pagecolor="#ffffff"
     bordercolor="#666666"
     borderopacity="1"
     objecttolerance="10"
     gridtolerance="10"
     guidetolerance="10"
     inkscape:pageopacity="0"
     inkscape:pageshadow="2"
     inkscape:window-width="1085"
     inkscape:window-height="480"
     id="namedview6"
     showgrid="false"
     inkscape:zoom="9.8333333"
     inkscape:cx="12"
     inkscape:cy="12"
     inkscape:window-x="0"
     inkscape:window-y="25"
     inkscape:window-maximized="0"
     inkscape:current-layer="svg4"
     inkscape:showpageshadow="0"
     inkscape:pagecheckerboard="0"
     inkscape:deskcolor="#d1d1d1" />
  <path
     d="m 0.56852831,-3.3378601e-8 c -0.043,0 -0.072,0.0200000033786 -0.082,0.0580000033786 L 0.00552834,2.503 c -0.064,0.24 0.44199997,0.527 0.77699997,0.334 L 1.5625283,1.702 h 1.276 l 0.78,1.135 c 0.334,0.193 0.84,-0.094 0.777,-0.334 l -0.48,-2.44500003 c -0.01,-0.037 -0.04,-0.0580000033786 -0.083,-0.0580000033786 z M 1.1315283,0.28499997 a 0.07,0.07 0 0 1 0.005,0 h 0.142 a 0.07,0.07 0 0 1 0.071,0.071 v 0.213 h 0.213 a 0.07,0.07 0 0 1 0.07,0.07 v 0.142 a 0.07,0.07 0 0 1 -0.07,0.071 h -0.213 V 1.065 a 0.07,0.07 0 0 1 -0.07,0.071 h -0.143 a 0.07,0.07 0 0 1 -0.07,-0.07 V 0.85199997 H 0.85352831 a 0.07,0.07 0 0 1 -0.071,-0.07 v -0.143 a 0.07,0.07 0 0 1 0.07,-0.07 H 1.0665283 v -0.214 a 0.07,0.07 0 0 1 0.064,-0.07 z m 2.051,0 a 0.142,0.142 0 0 1 0.011,0 0.142,0.142 0 0 1 0.142,0.142 0.142,0.142 0 0 1 -0.142,0.142 0.142,0.142 0 0 1 -0.142,-0.142 0.142,0.142 0 0 1 0.131,-0.142 z m -0.283,0.284 a 0.142,0.142 0 0 1 0.01,0 0.142,0.142 0 0 1 0.142,0.141 0.142,0.142 0 0 1 -0.142,0.142 0.142,0.142 0 0 1 -0.142,-0.142 0.142,0.142 0 0 1 0.132,-0.141 z m 0.567,0 a 0.142,0.142 0 0 1 0.01,0 0.142,0.142 0 0 1 0.142,0.141 0.142,0.142 0 0 1 -0.142,0.142 0.142,0.142 0 0 1 -0.141,-0.142 0.142,0.142 0 0 1 0.13,-0.141 z m -0.284,0.283 a 0.142,0.142 0 0 1 0.011,0 0.142,0.142 0 0 1 0.142,0.142 0.142,0.142 0 0 1 -0.142,0.14200003 0.142,0.142 0 0 1 -0.142,-0.14200003 0.142,0.142 0 0 1 0.131,-0.142 z"
     id="path2"
     inkscape:connector-curvature="0"
     style="fill:#bde6fb;fill-opacity:1" />
</svg>
