<?xml version="1.0" encoding="UTF-8" standalone="no"?>
<svg
   width="11.619999"
   height="19"
   version="1"
   id="svg4"
   sodipodi:docname="applications-engineering-symbolic.svg"
   inkscape:version="0.92.4 (5da689c313, 2019-01-14)"
   xmlns:inkscape="http://www.inkscape.org/namespaces/inkscape"
   xmlns:sodipodi="http://sodipodi.sourceforge.net/DTD/sodipodi-0.dtd"
   xmlns="http://www.w3.org/2000/svg"
   xmlns:svg="http://www.w3.org/2000/svg"
   xmlns:rdf="http://www.w3.org/1999/02/22-rdf-syntax-ns#"
   xmlns:cc="http://creativecommons.org/ns#"
   xmlns:dc="http://purl.org/dc/elements/1.1/">
  <metadata
     id="metadata10">
    <rdf:RDF>
      <cc:Work
         rdf:about="">
        <dc:format>image/svg+xml</dc:format>
        <dc:type
           rdf:resource="http://purl.org/dc/dcmitype/StillImage" />
        <dc:title />
      </cc:Work>
    </rdf:RDF>
  </metadata>
  <defs
     id="defs8" />
  <sodipodi:namedview
     pagecolor="#ffffff"
     bordercolor="#666666"
     borderopacity="1"
     objecttolerance="10"
     gridtolerance="10"
     guidetolerance="10"
     inkscape:pageopacity="0"
     inkscape:pageshadow="2"
     inkscape:window-width="1085"
     inkscape:window-height="480"
     id="namedview6"
     showgrid="false"
     inkscape:zoom="9.8333333"
     inkscape:cx="1.0677966"
     inkscape:cy="12"
     inkscape:window-x="0"
     inkscape:window-y="25"
     inkscape:window-maximized="0"
     inkscape:current-layer="svg4"
     inkscape:showpageshadow="0"
     inkscape:pagecheckerboard="0"
     inkscape:deskcolor="#d1d1d1" />
  <path
     d="m 5.5999999,0 c -0.94,0 -5.10999996,0.94 -5.10999996,0.94 -0.4,0.23 -0.45,0.65 -0.45,1.38 H 5.1399999 c 0,-0.56 0.35,-0.46 0.92,-0.46 v 1.88 h -0.5 c -0.47,0 -0.46,-0.05 -0.46,-0.46 H -5.7220459e-8 C -5.7220459e-8,4 0.03999994,4.42 0.44999994,4.65 L 5.3199999,5.59 c 0.18,0.09 0.23,0.23 0.23,0.46 v 2.32 h -0.46 a 0.465,0.465 0 1 0 0,0.93 h 0.97 V 19 h 2.78 V 9.3 h 0.42 V 6.49 H 10.23 v 0.24 c 0,0.12 0.1,0.23 0.23,0.23 h 0.48 c 0.12,0 0.22,-0.1 0.22,-0.24 V 5.32 A 0.22,0.22 0 0 0 10.94,5.1 H 10.45 A 0.22,0.22 0 0 0 10.23,5.33 V 5.56 H 9.2699999 V 3.74 h -0.43 v -1.4 c 0.15,0 0.3,-0.02 0.46,-0.05 v 0.5 H 11.62 c 0,-0.33 -0.42,-0.66 -0.95,-0.92 0.54,-0.26 0.95,-0.6 0.95,-0.94 H 8.8399999 V 0 h -3.23 z"
     id="path2"
     inkscape:connector-curvature="0"
     style="fill:#bde6fb;fill-opacity:1" />
</svg>
