<?xml version="1.0" encoding="UTF-8" standalone="no"?>
<svg
   width="15.261733"
   height="15.254172"
   viewBox="0 0 4.0380002 4.0359998"
   version="1.1"
   id="svg4"
   sodipodi:docname="applications-internet-symbolic.svg"
   inkscape:version="0.92.4 (5da689c313, 2019-01-14)"
   xmlns:inkscape="http://www.inkscape.org/namespaces/inkscape"
   xmlns:sodipodi="http://sodipodi.sourceforge.net/DTD/sodipodi-0.dtd"
   xmlns="http://www.w3.org/2000/svg"
   xmlns:svg="http://www.w3.org/2000/svg"
   xmlns:rdf="http://www.w3.org/1999/02/22-rdf-syntax-ns#"
   xmlns:cc="http://creativecommons.org/ns#"
   xmlns:dc="http://purl.org/dc/elements/1.1/">
  <metadata
     id="metadata10">
    <rdf:RDF>
      <cc:Work
         rdf:about="">
        <dc:format>image/svg+xml</dc:format>
        <dc:type
           rdf:resource="http://purl.org/dc/dcmitype/StillImage" />
        <dc:title />
      </cc:Work>
    </rdf:RDF>
  </metadata>
  <defs
     id="defs8" />
  <sodipodi:namedview
     pagecolor="#ffffff"
     bordercolor="#666666"
     borderopacity="1"
     objecttolerance="10"
     gridtolerance="10"
     guidetolerance="10"
     inkscape:pageopacity="0"
     inkscape:pageshadow="2"
     inkscape:window-width="1085"
     inkscape:window-height="480"
     id="namedview6"
     showgrid="false"
     inkscape:zoom="9.8333333"
     inkscape:cx="1.0677966"
     inkscape:cy="12"
     inkscape:window-x="0"
     inkscape:window-y="25"
     inkscape:window-maximized="0"
     inkscape:current-layer="svg4"
     inkscape:showpageshadow="0"
     inkscape:pagecheckerboard="0"
     inkscape:deskcolor="#d1d1d1" />
  <path
     style="color:#000000;font-weight:400;line-height:normal;font-family:'Andale Mono';text-indent:0;text-align:start;text-decoration:none;text-decoration-line:none;text-transform:none;overflow:visible;fill:#bde6fb;fill-opacity:1;marker:none"
     d="M 1.884,-1.8119812e-8 V 0.00399998 A 2.018,2.018 0 0 0 0.00399998,1.884 H -1.8119812e-8 V 2.152 H 0.00499998 A 2.019,2.019 0 0 0 1.885,4.032 V 4.036 H 2.154 V 4.032 A 2.017,2.017 0 0 0 4.032,2.152 H 4.038 V 1.884 H 4.032 A 2.018,2.018 0 0 0 2.154,0.00399998 V 9.9998188e-4 H 2.019 Z M 1.884,0.28599998 V 1.076 H 1.224 C 1.369,0.65699998 1.608,0.35999998 1.884,0.28599998 Z m 0.27,0 c 0.276,0.074 0.514,0.371 0.659,0.79000002 h -0.66 z m -0.89,0.154 A 2.14,2.14 0 0 0 0.94699998,1.077 h -0.403 A 1.76,1.76 0 0 1 1.264,0.43999998 Z m 1.51,0 c 0.295,0.141 0.544,0.363 0.72,0.63700002 H 3.091 A 2.134,2.134 0 0 0 2.774,0.43999998 Z M 0.40399998,1.346 h 0.473 c -0.036,0.17 -0.06,0.35 -0.067,0.538 h -0.536 c 0.015,-0.19 0.06,-0.37 0.13,-0.538 z M 1.149,1.346 H 1.884 V 1.884 H 1.08 C 1.087,1.694 1.111,1.514 1.149,1.346 Z m 1.005,0 H 2.888 C 2.926,1.513 2.95,1.695 2.958,1.884 H 2.154 Z m 1.007,0 h 0.473 c 0.07,0.167 0.115,0.349 0.13,0.538 H 3.228 A 3.195,3.195 0 0 0 3.161,1.346 Z M 0.27399998,2.153 h 0.536 c 0.008,0.188 0.03,0.368 0.067,0.538 h -0.473 a 1.735,1.735 0 0 1 -0.13,-0.538 z M 1.08,2.153 H 1.884 V 2.691 H 1.149 A 3.009,3.009 0 0 1 1.079,2.153 Z m 1.074,0 H 2.958 C 2.951,2.343 2.926,2.523 2.888,2.691 H 2.154 Z m 1.074,0 H 3.763 C 3.749,2.343 3.704,2.523 3.634,2.691 H 3.161 C 3.197,2.521 3.221,2.341 3.228,2.153 Z M 0.54399998,2.961 h 0.403 C 1.026,3.208 1.134,3.424 1.264,3.597 A 1.758,1.758 0 0 1 0.54399998,2.961 Z M 1.224,2.961 h 0.66 v 0.79 C 1.608,3.677 1.369,3.38 1.224,2.961 Z m 0.93,0 H 2.813 C 2.668,3.38 2.43,3.677 2.153,3.751 Z m 0.937,0 H 3.494 A 1.759,1.759 0 0 1 2.774,3.597 C 2.904,3.424 3.012,3.207 3.091,2.961 Z"
     font-weight="400"
     overflow="visible"
     id="path2"
     inkscape:connector-curvature="0" />
</svg>
