<?xml version="1.0" encoding="UTF-8" standalone="no"?>
<svg
   width="15.522606"
   height="15.734208"
   viewBox="0 0 4.1070228 4.1630092"
   version="1.1"
   id="svg4"
   sodipodi:docname="applications-accessories-symbolic.svg"
   inkscape:version="0.92.4 (5da689c313, 2019-01-14)"
   xmlns:inkscape="http://www.inkscape.org/namespaces/inkscape"
   xmlns:sodipodi="http://sodipodi.sourceforge.net/DTD/sodipodi-0.dtd"
   xmlns="http://www.w3.org/2000/svg"
   xmlns:svg="http://www.w3.org/2000/svg"
   xmlns:rdf="http://www.w3.org/1999/02/22-rdf-syntax-ns#"
   xmlns:cc="http://creativecommons.org/ns#"
   xmlns:dc="http://purl.org/dc/elements/1.1/">
  <metadata
     id="metadata10">
    <rdf:RDF>
      <cc:Work
         rdf:about="">
        <dc:format>image/svg+xml</dc:format>
        <dc:type
           rdf:resource="http://purl.org/dc/dcmitype/StillImage" />
        <dc:title />
      </cc:Work>
    </rdf:RDF>
  </metadata>
  <defs
     id="defs8" />
  <sodipodi:namedview
     pagecolor="#ffffff"
     bordercolor="#666666"
     borderopacity="1"
     objecttolerance="10"
     gridtolerance="10"
     guidetolerance="10"
     inkscape:pageopacity="0"
     inkscape:pageshadow="2"
     inkscape:window-width="1085"
     inkscape:window-height="480"
     id="namedview6"
     showgrid="false"
     inkscape:zoom="9.8333333"
     inkscape:cx="1.0677966"
     inkscape:cy="12"
     inkscape:window-x="0"
     inkscape:window-y="25"
     inkscape:window-maximized="0"
     inkscape:current-layer="svg4"
     inkscape:showpageshadow="0"
     inkscape:pagecheckerboard="0"
     inkscape:deskcolor="#d1d1d1" />
  <path
     d="M 1.319,9.0680122e-6 A 0.697,0.697 0 1 0 1.605,1.3310091 l 2.153,2.155 h 0.175 v -0.524 l -1.22,-1.22 0.411,-0.41 a 0.693,0.693 0 0 0 0.983,-0.63500003 0.696,0.696 0 1 0 -1.331,0.286 L 2.365,1.3940091 1.953,0.98300907 A 0.696,0.696 0 0 0 1.319,9.0680122e-6 Z M 1.319,0.34800907 a 0.348,0.348 0 1 1 0,0.69600003 0.348,0.348 0 0 1 0,-0.69600003 z m 2.091,0 a 0.348,0.348 0 1 1 0,0.69600003 0.348,0.348 0 0 1 0,-0.69600003 z M -2.3841858e-8,1.3700091 v 2.793 H 2.793 l -1.163,-1.163 H 1.616 l -0.365,0.365 0.238,0.24 H 0.55799998 v -0.932 l 0.166,0.165 0.36200002,-0.364 0.002,-0.005 0.002,-0.01 v -0.007 z M 2.365,1.6560091 c 0.048,0 0.087,0.04 0.087,0.087 a 0.0875,0.0875 0 0 1 -0.175,0 c 0,-0.048 0.04,-0.087 0.088,-0.087 z m -0.524,0.26 -1.04500002,1.047 v 0.523 h 0.174 L 2.19,2.2660091 Z"
     id="path2"
     inkscape:connector-curvature="0"
     style="fill:#bde6fb;fill-opacity:1" />
</svg>
