<?xml version="1.0" encoding="UTF-8" standalone="no"?>
<svg
   width="17.757404"
   height="17.753031"
   viewBox="0 0 4.6983132 4.6971561"
   version="1.1"
   id="svg4"
   sodipodi:docname="application-x-executable-symbolic.svg"
   inkscape:version="0.92.4 (5da689c313, 2019-01-14)"
   xmlns:inkscape="http://www.inkscape.org/namespaces/inkscape"
   xmlns:sodipodi="http://sodipodi.sourceforge.net/DTD/sodipodi-0.dtd"
   xmlns="http://www.w3.org/2000/svg"
   xmlns:svg="http://www.w3.org/2000/svg"
   xmlns:rdf="http://www.w3.org/1999/02/22-rdf-syntax-ns#"
   xmlns:cc="http://creativecommons.org/ns#"
   xmlns:dc="http://purl.org/dc/elements/1.1/">
  <metadata
     id="metadata10">
    <rdf:RDF>
      <cc:Work
         rdf:about="">
        <dc:format>image/svg+xml</dc:format>
        <dc:type
           rdf:resource="http://purl.org/dc/dcmitype/StillImage" />
        <dc:title />
      </cc:Work>
    </rdf:RDF>
  </metadata>
  <defs
     id="defs8" />
  <sodipodi:namedview
     pagecolor="#ffffff"
     bordercolor="#666666"
     borderopacity="1"
     objecttolerance="10"
     gridtolerance="10"
     guidetolerance="10"
     inkscape:pageopacity="0"
     inkscape:pageshadow="2"
     inkscape:window-width="640"
     inkscape:window-height="480"
     id="namedview6"
     showgrid="false"
     inkscape:zoom="9.8333333"
     inkscape:cx="10.220339"
     inkscape:cy="12"
     inkscape:window-x="0"
     inkscape:window-y="25"
     inkscape:window-maximized="0"
     inkscape:current-layer="svg4"
     inkscape:showpageshadow="0"
     inkscape:pagecheckerboard="0"
     inkscape:deskcolor="#d1d1d1" />
  <path
     style="color:#000000;font-weight:400;line-height:normal;font-family:'Andale Mono';text-indent:0;text-align:start;text-decoration:none;text-decoration-line:none;text-transform:none;overflow:visible;fill:#bde6fb;fill-opacity:1;marker:none"
     d="M 2.3636565,4.4202805e-7 A 0.37,0.37 0 0 0 2.1016565,0.10900044 L 0.10865652,2.1020004 a 0.369,0.369 0 0 0 0,0.523 l 1.96499998,1.964 a 0.369,0.369 0 0 0 0.522,0 l 1.994,-1.993 a 0.369,0.369 0 0 0 0,-0.523 l -1.966,-1.96399996 A 0.368,0.368 0 0 0 2.3616565,4.4202805e-7 Z M 2.3706565,0.43000044 c 0.075,0 0.15,0.03 0.208,0.087 l 1.429,1.42999996 a 0.1,0.1 0 0 0 -0.06,0.027 l -0.173,0.173 a 1.242,1.242 0 0 0 -0.214,-0.091 v -0.247 a 0.099,0.099 0 0 0 -0.1,-0.1 h -0.53 a 0.099,0.099 0 0 0 -0.1,0.1 v 0.247 a 1.237,1.237 0 0 0 -0.215,0.091 l -0.172,-0.173 a 0.103,0.103 0 0 0 -0.146,0 l -0.37,0.37 a 0.103,0.103 0 0 0 0,0.145 l 0.174,0.174 c -0.036,0.068 -0.069,0.14 -0.092,0.214 h -0.246 a 0.099,0.099 0 0 0 -0.1,0.1 v 0.53 c 0,0.057 0.043,0.1 0.1,0.1 h 0.246 c 0.023,0.075 0.056,0.147 0.092,0.215 l -0.119,0.118 -1.41299998,-1.413 a 0.295,0.295 0 0 1 0,-0.417 L 2.1626565,0.51700044 a 0.294,0.294 0 0 1 0.209,-0.086 z m 0.825,2.37399996 c 0.177,0 0.328,0.106 0.397,0.257 l -0.58,0.579 a 0.438,0.438 0 0 1 -0.255,-0.398 0.438,0.438 0 0 1 0.438,-0.438 z"
     font-weight="400"
     overflow="visible"
     id="path2"
     inkscape:connector-curvature="0" />
</svg>
