<?xml version="1.0" encoding="UTF-8" standalone="no"?>
<svg
   width="16.818897"
   height="16.932283"
   viewBox="0 0 4.4499999 4.48"
   version="1.1"
   id="svg4"
   sodipodi:docname="application-x-firmware-symbolic.svg"
   inkscape:version="0.92.4 (5da689c313, 2019-01-14)"
   xmlns:inkscape="http://www.inkscape.org/namespaces/inkscape"
   xmlns:sodipodi="http://sodipodi.sourceforge.net/DTD/sodipodi-0.dtd"
   xmlns="http://www.w3.org/2000/svg"
   xmlns:svg="http://www.w3.org/2000/svg"
   xmlns:rdf="http://www.w3.org/1999/02/22-rdf-syntax-ns#"
   xmlns:cc="http://creativecommons.org/ns#"
   xmlns:dc="http://purl.org/dc/elements/1.1/">
  <metadata
     id="metadata10">
    <rdf:RDF>
      <cc:Work
         rdf:about="">
        <dc:format>image/svg+xml</dc:format>
        <dc:type
           rdf:resource="http://purl.org/dc/dcmitype/StillImage" />
        <dc:title />
      </cc:Work>
    </rdf:RDF>
  </metadata>
  <defs
     id="defs8" />
  <sodipodi:namedview
     pagecolor="#ffffff"
     bordercolor="#666666"
     borderopacity="1"
     objecttolerance="10"
     gridtolerance="10"
     guidetolerance="10"
     inkscape:pageopacity="0"
     inkscape:pageshadow="2"
     inkscape:window-width="640"
     inkscape:window-height="480"
     id="namedview6"
     showgrid="false"
     inkscape:zoom="9.8333333"
     inkscape:cx="10.220339"
     inkscape:cy="12"
     inkscape:window-x="0"
     inkscape:window-y="25"
     inkscape:window-maximized="0"
     inkscape:current-layer="svg4"
     inkscape:showpageshadow="0"
     inkscape:pagecheckerboard="0"
     inkscape:deskcolor="#d1d1d1" />
  <path
     d="M 0.01000001,0.01000005 V 2.6700001 l 1.51999999,0.67 0.04,-0.04 a 0.35,0.35 0 0 1 0.27,-0.12 c 0.18,0 0.34,0.15 0.34,0.35 0,0.2 -0.16,0.36 -0.34,0.36 a 0.35,0.35 0 0 1 -0.35,-0.31 v -0.03 L 1.1920929e-8,2.9100001 v 1.57 H 4.45 V 0.01000005 H 3.75 V 1.3600001 l 0.03,0.02 c 0.1,0.06 0.15,0.17 0.15,0.28 a 0.33,0.33 0 0 1 -0.33,0.33 0.33,0.33 0 0 1 -0.33,-0.33 c 0,-0.14 0.09,-0.28 0.23,-0.31 l 0.04,-0.02 V 0.01000005 H 1.14 V 1.4700001 h 0.71 l 0.01,-0.03 a 0.35,0.35 0 0 1 0.32,-0.23 c 0.19,0 0.34,0.16 0.34,0.35 a 0.34,0.34 0 1 1 -0.64,0.16 l -0.02,-0.03 H 0.92000001 V 5.2452088e-8 Z M 2.17,1.4100001 a 0.18,0.18 0 0 0 -0.18,0.18 0.18,0.18 0 0 0 0.18,0.17 0.18,0.18 0 0 0 0.17,-0.17 0.18,0.18 0 0 0 -0.17,-0.17 z m 1.41,0.07 a 0.18,0.18 0 0 0 -0.17,0.17 0.18,0.18 0 0 0 0.17,0.18 0.18,0.18 0 0 0 0.18,-0.18 0.18,0.18 0 0 0 -0.18,-0.17 z m -1.75,1.88 a 0.18,0.18 0 0 0 -0.18,0.17 c 0,0.1 0.07,0.18 0.17,0.18 a 0.18,0.18 0 0 0 0.19,-0.18 0.18,0.18 0 0 0 -0.18,-0.17 z"
     id="path2"
     inkscape:connector-curvature="0"
     style="fill:#bde6fb;fill-opacity:1" />
</svg>
