<?xml version="1.0" encoding="UTF-8" standalone="no"?>
<svg
   width="18.111496"
   height="18.119055"
   viewBox="0 0 4.792 4.7939999"
   version="1.1"
   id="svg4"
   sodipodi:docname="application-rss+xml-symbolic.svg"
   inkscape:version="0.92.4 (5da689c313, 2019-01-14)"
   inkscape:export-filename="application-rss+xml-symbolic.svg"
   inkscape:export-xdpi="96"
   inkscape:export-ydpi="96"
   xmlns:inkscape="http://www.inkscape.org/namespaces/inkscape"
   xmlns:sodipodi="http://sodipodi.sourceforge.net/DTD/sodipodi-0.dtd"
   xmlns="http://www.w3.org/2000/svg"
   xmlns:svg="http://www.w3.org/2000/svg"
   xmlns:rdf="http://www.w3.org/1999/02/22-rdf-syntax-ns#"
   xmlns:cc="http://creativecommons.org/ns#"
   xmlns:dc="http://purl.org/dc/elements/1.1/">
  <metadata
     id="metadata10">
    <rdf:RDF>
      <cc:Work
         rdf:about="">
        <dc:format>image/svg+xml</dc:format>
        <dc:type
           rdf:resource="http://purl.org/dc/dcmitype/StillImage" />
        <dc:title />
      </cc:Work>
    </rdf:RDF>
  </metadata>
  <defs
     id="defs8" />
  <sodipodi:namedview
     pagecolor="#ffffff"
     bordercolor="#666666"
     borderopacity="1"
     objecttolerance="10"
     gridtolerance="10"
     guidetolerance="10"
     inkscape:pageopacity="0"
     inkscape:pageshadow="2"
     inkscape:window-width="640"
     inkscape:window-height="480"
     id="namedview6"
     showgrid="false"
     inkscape:zoom="9.8333333"
     inkscape:cx="10.220339"
     inkscape:cy="12"
     inkscape:window-x="0"
     inkscape:window-y="25"
     inkscape:window-maximized="0"
     inkscape:current-layer="svg4"
     inkscape:showpageshadow="0"
     inkscape:pagecheckerboard="0"
     inkscape:deskcolor="#d1d1d1" />
  <path
     d="M 1.5735626e-8,0 V 0.843 A 4.025,4.025 0 0 1 3.944,4.793 H 4.792 A 4.87,4.87 0 0 0 0.00100002,0.001 Z m 0,1.94 V 2.699 A 2.17,2.17 0 0 1 2.094,4.794 H 2.852 A 2.925,2.925 0 0 0 1.5735626e-8,1.941 Z M 0.49800002,3.86 a 0.44,0.44 0 0 0 -0.33,0.14 0.426,0.426 0 0 0 -0.14,0.325 0.43,0.43 0 0 0 0.14,0.324 c 0.093,0.09 0.195,0.134 0.33,0.134 0.13,0 0.229,-0.044 0.319,-0.134 a 0.435,0.435 0 0 0 0.14,-0.324 0.426,0.426 0 0 0 -0.14,-0.325 0.421,0.421 0 0 0 -0.32,-0.14 z"
     id="path2"
     inkscape:connector-curvature="0"
     style="fill:#bde6fb;fill-opacity:1" />
</svg>
