<?xml version="1.0" encoding="UTF-8" standalone="no"?>
<svg
   width="14.108975"
   height="18.00189"
   viewBox="0 0 3.7329997 4.7630001"
   version="1.1"
   id="svg4"
   sodipodi:docname="application-x-addon-symbolic.svg"
   inkscape:version="0.92.4 (5da689c313, 2019-01-14)"
   inkscape:export-filename="application-x-addon-symbolic.svg"
   inkscape:export-xdpi="96"
   inkscape:export-ydpi="96"
   xmlns:inkscape="http://www.inkscape.org/namespaces/inkscape"
   xmlns:sodipodi="http://sodipodi.sourceforge.net/DTD/sodipodi-0.dtd"
   xmlns="http://www.w3.org/2000/svg"
   xmlns:svg="http://www.w3.org/2000/svg"
   xmlns:rdf="http://www.w3.org/1999/02/22-rdf-syntax-ns#"
   xmlns:cc="http://creativecommons.org/ns#"
   xmlns:dc="http://purl.org/dc/elements/1.1/">
  <metadata
     id="metadata10">
    <rdf:RDF>
      <cc:Work
         rdf:about="">
        <dc:format>image/svg+xml</dc:format>
        <dc:type
           rdf:resource="http://purl.org/dc/dcmitype/StillImage" />
        <dc:title />
      </cc:Work>
    </rdf:RDF>
  </metadata>
  <defs
     id="defs8" />
  <sodipodi:namedview
     pagecolor="#ffffff"
     bordercolor="#666666"
     borderopacity="1"
     objecttolerance="10"
     gridtolerance="10"
     guidetolerance="10"
     inkscape:pageopacity="0"
     inkscape:pageshadow="2"
     inkscape:window-width="640"
     inkscape:window-height="480"
     id="namedview6"
     showgrid="false"
     inkscape:zoom="9.8333333"
     inkscape:cx="10.220339"
     inkscape:cy="12"
     inkscape:window-x="0"
     inkscape:window-y="25"
     inkscape:window-maximized="0"
     inkscape:current-layer="svg4"
     inkscape:showpageshadow="0"
     inkscape:pagecheckerboard="0"
     inkscape:deskcolor="#d1d1d1" />
  <path
     d="M 1.817,3.0040741e-8 A 0.564,0.564 0 0 0 1.253,0.56400003 c 0,0.194 0.1,0.364 0.25,0.46599997 V 1.128 H 0.25100003 a 0.25,0.25 0 0 0 -0.25,0.25 V 2.596 A 0.56,0.56 0 0 1 1.003,2.945 0.56,0.56 0 0 1 3.0040741e-8,3.294 V 4.512 C 3.0040741e-8,4.65 0.11200003,4.762 0.25100003,4.762 H 1.469 A 0.56,0.56 0 0 1 1.818,3.76 0.56,0.56 0 0 1 2.167,4.763 H 3.385 A 0.25,0.25 0 0 0 3.635,4.512 V 3.258 h 0.098 a 0.563,0.563 0 1 0 0,-0.626 H 3.635 V 1.378 A 0.25,0.25 0 0 0 3.385,1.128 H 2.13 V 1.03 A 0.563,0.563 0 0 0 1.817,3.0040741e-8 Z"
     id="path2"
     inkscape:connector-curvature="0"
     style="fill:#bde6fb;fill-opacity:1" />
</svg>
