<?xml version="1.0" encoding="UTF-8" standalone="no"?>
<svg
   width="20.915461"
   height="15.065046"
   viewBox="0 0 5.5338823 3.9859602"
   version="1.1"
   id="svg4"
   sodipodi:docname="font-x-generic-symbolic.svg"
   inkscape:version="0.92.4 (5da689c313, 2019-01-14)"
   xmlns:inkscape="http://www.inkscape.org/namespaces/inkscape"
   xmlns:sodipodi="http://sodipodi.sourceforge.net/DTD/sodipodi-0.dtd"
   xmlns="http://www.w3.org/2000/svg"
   xmlns:svg="http://www.w3.org/2000/svg"
   xmlns:rdf="http://www.w3.org/1999/02/22-rdf-syntax-ns#"
   xmlns:cc="http://creativecommons.org/ns#"
   xmlns:dc="http://purl.org/dc/elements/1.1/">
  <metadata
     id="metadata10">
    <rdf:RDF>
      <cc:Work
         rdf:about="">
        <dc:format>image/svg+xml</dc:format>
        <dc:type
           rdf:resource="http://purl.org/dc/dcmitype/StillImage" />
        <dc:title />
      </cc:Work>
    </rdf:RDF>
  </metadata>
  <defs
     id="defs8" />
  <sodipodi:namedview
     pagecolor="#ffffff"
     bordercolor="#666666"
     borderopacity="1"
     objecttolerance="10"
     gridtolerance="10"
     guidetolerance="10"
     inkscape:pageopacity="0"
     inkscape:pageshadow="2"
     inkscape:window-width="640"
     inkscape:window-height="480"
     id="namedview6"
     showgrid="false"
     inkscape:zoom="9.8333333"
     inkscape:cx="10.220339"
     inkscape:cy="12"
     inkscape:window-x="0"
     inkscape:window-y="25"
     inkscape:window-maximized="0"
     inkscape:current-layer="svg4"
     inkscape:showpageshadow="0"
     inkscape:pagecheckerboard="0"
     inkscape:deskcolor="#d1d1d1" />
  <path
     style="color:#000000;font-weight:400;line-height:normal;font-family:'Andale Mono';text-indent:0;text-align:start;text-decoration:none;text-decoration-line:none;text-transform:none;overflow:visible;fill:#bde6fb;fill-opacity:1;marker:none"
     d="m 2.6658824,7.1246147e-5 a 0.212,0.212 0 0 0 -0.011,0 c -0.05,0.0040000039 -0.086,0.03000000385 -0.104,0.08800000385 -0.63,1.05199995 -1.251,2.10799995 -1.88500002,3.15699995 -0.155,0.22 -0.294,0.505 -0.576,0.577 -0.105,-0.037 -0.107,0.139 -0.062,0.16 H 1.1708824 c 0.022,-0.115 -0.01,-0.182 -0.145,-0.155 -0.26100002,0.041 -0.23400002,-0.266 -0.13500002,-0.417 0.11900002,-0.24 0.26000002,-0.467 0.38800002,-0.701 h 1.31 c 0.043,0.287 0.11,0.573 0.131,0.863 0.054,0.237 -0.211,0.259 -0.378,0.264 -0.049,-0.01 -0.065,0.175 0.01,0.147 h 1.369 v -0.008 c 0.022,0.002 0.044,0.005 0.067,0.005 a 0.946,0.946 0 0 0 0.467,-0.14 c 0.11,-0.062 0.236,-0.158 0.38,-0.286 0,0.183 0.05,0.308 0.151,0.374 0.055,0.035 0.13,0.052 0.228,0.052 0.07,0 0.138,-0.013 0.205,-0.04 a 0.856,0.856 0 0 0 0.315,-0.252 v -0.152 a 0.671,0.671 0 0 1 -0.123,0.082 0.31,0.31 0 0 1 -0.14,0.03 c -0.078,0 -0.127,-0.026 -0.146,-0.077 a 1.053,1.053 0 0 1 -0.023,-0.262 v -1.139 c 0,-0.272 -0.038,-0.473 -0.111,-0.601 -0.13,-0.222 -0.382,-0.333 -0.76,-0.333 -0.303,0 -0.546,0.08 -0.729,0.24 -0.148,0.128 -0.222,0.264 -0.222,0.408 0,0.059 0.022,0.117 0.064,0.175 0.043,0.055 0.105,0.082 0.187,0.082 a 0.254,0.254 0 0 0 0.187,-0.076 c 0.05,-0.05 0.076,-0.109 0.076,-0.175 a 2.262,2.262 0 0 1 -0.024,-0.105 1.36,1.36 0 0 1 -0.005,-0.123 c 0,-0.085 0.043,-0.153 0.128,-0.204 a 0.521,0.521 0 0 1 0.286,-0.082 c 0.117,0 0.214,0.03 0.292,0.088 0.105,0.081 0.158,0.214 0.158,0.397 v 0.356 c -0.553,0.218 -0.915,0.385 -1.086,0.502 a 0.85,0.85 0 0 0 -0.32,0.372 c -0.083,-0.485 -0.161,-0.97 -0.244,-1.455 l -0.271,-1.63199995 a 0.212,0.212 0 0 0 -0.042,-0.0040000039 z m -0.369,0.874000003853 0.262,1.54799995 h -1.155 z m 2.332,1.48299995 v 0.847 a 0.487,0.487 0 0 1 -0.035,0.21 c -0.023,0.043 -0.078,0.083 -0.164,0.122 a 1.061,1.061 0 0 1 -0.169,0.07 0.615,0.615 0 0 1 -0.193,0.036 c -0.109,0 -0.2,-0.043 -0.274,-0.129 a 0.499,0.499 0 0 1 -0.111,-0.338 c 0,-0.14 0.049,-0.265 0.146,-0.374 0.148,-0.168 0.414,-0.315 0.8,-0.444 z"
     font-weight="400"
     overflow="visible"
     id="path2"
     inkscape:connector-curvature="0" />
</svg>
