<?xml version="1.0" encoding="UTF-8" standalone="no"?>
<svg
   width="16.932316"
   height="16.932283"
   viewBox="0 0 4.4800086 4.48"
   version="1.1"
   id="svg4"
   sodipodi:docname="package-x-generic-symbolic.svg"
   inkscape:version="0.92.4 (5da689c313, 2019-01-14)"
   xmlns:inkscape="http://www.inkscape.org/namespaces/inkscape"
   xmlns:sodipodi="http://sodipodi.sourceforge.net/DTD/sodipodi-0.dtd"
   xmlns="http://www.w3.org/2000/svg"
   xmlns:svg="http://www.w3.org/2000/svg"
   xmlns:rdf="http://www.w3.org/1999/02/22-rdf-syntax-ns#"
   xmlns:cc="http://creativecommons.org/ns#"
   xmlns:dc="http://purl.org/dc/elements/1.1/">
  <metadata
     id="metadata10">
    <rdf:RDF>
      <cc:Work
         rdf:about="">
        <dc:format>image/svg+xml</dc:format>
        <dc:type
           rdf:resource="http://purl.org/dc/dcmitype/StillImage" />
        <dc:title />
      </cc:Work>
    </rdf:RDF>
  </metadata>
  <defs
     id="defs8" />
  <sodipodi:namedview
     pagecolor="#ffffff"
     bordercolor="#666666"
     borderopacity="1"
     objecttolerance="10"
     gridtolerance="10"
     guidetolerance="10"
     inkscape:pageopacity="0"
     inkscape:pageshadow="2"
     inkscape:window-width="640"
     inkscape:window-height="480"
     id="namedview6"
     showgrid="false"
     inkscape:zoom="9.8333333"
     inkscape:cx="10.220339"
     inkscape:cy="12"
     inkscape:window-x="0"
     inkscape:window-y="25"
     inkscape:window-maximized="0"
     inkscape:current-layer="svg4"
     inkscape:showpageshadow="0"
     inkscape:pagecheckerboard="0"
     inkscape:deskcolor="#d1d1d1" />
  <path
     d="m 0.74700554,0 a 0.375,0.375 0 0 0 -0.288,0.135 l -0.345,0.418 A 0.494,0.494 0 0 0 5.5408478e-6,0.871 V 3.982 C 5.5408478e-6,4.257 0.22300554,4.48 0.49800554,4.48 H 3.9820055 a 0.498,0.498 0 0 0 0.498,-0.498 V 0.871 a 0.499,0.499 0 0 0 -0.113,-0.318 l -0.345,-0.418 A 0.38,0.38 0 0 0 3.7320055,0 H 0.74800554 Z m -0.015,0.249 H 3.7190055 l 0.37,0.524 H 0.36900554 Z"
     id="path2"
     inkscape:connector-curvature="0"
     style="fill:#bde6fb;fill-opacity:1" />
</svg>
