<?xml version="1.0" encoding="UTF-8" standalone="no"?>
<svg
   width="17.99811"
   height="17.99811"
   viewBox="0 0 4.7619999 4.7619999"
   version="1.1"
   id="svg4"
   sodipodi:docname="text-x-copying-symbolic.svg"
   inkscape:version="0.92.4 (5da689c313, 2019-01-14)"
   xmlns:inkscape="http://www.inkscape.org/namespaces/inkscape"
   xmlns:sodipodi="http://sodipodi.sourceforge.net/DTD/sodipodi-0.dtd"
   xmlns="http://www.w3.org/2000/svg"
   xmlns:svg="http://www.w3.org/2000/svg"
   xmlns:rdf="http://www.w3.org/1999/02/22-rdf-syntax-ns#"
   xmlns:cc="http://creativecommons.org/ns#"
   xmlns:dc="http://purl.org/dc/elements/1.1/">
  <metadata
     id="metadata10">
    <rdf:RDF>
      <cc:Work
         rdf:about="">
        <dc:format>image/svg+xml</dc:format>
        <dc:type
           rdf:resource="http://purl.org/dc/dcmitype/StillImage" />
        <dc:title />
      </cc:Work>
    </rdf:RDF>
  </metadata>
  <defs
     id="defs8" />
  <sodipodi:namedview
     pagecolor="#ffffff"
     bordercolor="#666666"
     borderopacity="1"
     objecttolerance="10"
     gridtolerance="10"
     guidetolerance="10"
     inkscape:pageopacity="0"
     inkscape:pageshadow="2"
     inkscape:window-width="640"
     inkscape:window-height="480"
     id="namedview6"
     showgrid="false"
     inkscape:zoom="9.8333333"
     inkscape:cx="10.220339"
     inkscape:cy="12"
     inkscape:window-x="0"
     inkscape:window-y="25"
     inkscape:window-maximized="0"
     inkscape:current-layer="svg4"
     inkscape:showpageshadow="0"
     inkscape:pagecheckerboard="0"
     inkscape:deskcolor="#d1d1d1" />
  <path
     style="line-height:normal;text-indent:0;text-align:start;text-decoration:none;text-decoration-line:none;text-transform:none;fill:#bde6fb;fill-opacity:1;marker:none"
     d="M 2.381,3.0040741e-8 A 2.381,2.381 0 0 0 3.0040741e-8,2.381 2.381,2.381 0 0 0 2.381,4.762 2.381,2.381 0 0 0 4.762,2.381 2.381,2.381 0 0 0 2.381,3.0040741e-8 Z M 2.381,0.51000003 A 1.871,1.871 0 0 1 4.255,2.381 1.871,1.871 0 0 1 2.381,4.252 1.871,1.871 0 0 1 0.51100003,2.381 1.871,1.871 0 0 1 2.381,0.51000003 Z M 2.381,1.02 A 1.361,1.361 0 0 0 1.413,1.428 l 0.436,0.29 A 0.851,0.851 0 0 1 2.381,1.53 0.851,0.851 0 0 1 3.234,2.381 0.851,0.851 0 0 1 2.381,3.231 0.851,0.851 0 0 1 1.849,3.044 L 1.413,3.334 A 1.361,1.361 0 0 0 2.381,3.742 1.361,1.361 0 0 0 3.743,2.381 1.361,1.361 0 0 0 2.381,1.02 Z"
     id="path2"
     inkscape:connector-curvature="0" />
</svg>
