<?xml version="1.0" encoding="UTF-8" standalone="no"?>
<svg
   width="17.264883"
   height="17.249763"
   viewBox="0 0 4.5680003 4.5639999"
   version="1.1"
   id="svg4"
   sodipodi:docname="text-html-symbolic.svg"
   inkscape:version="0.92.4 (5da689c313, 2019-01-14)"
   xmlns:inkscape="http://www.inkscape.org/namespaces/inkscape"
   xmlns:sodipodi="http://sodipodi.sourceforge.net/DTD/sodipodi-0.dtd"
   xmlns="http://www.w3.org/2000/svg"
   xmlns:svg="http://www.w3.org/2000/svg"
   xmlns:rdf="http://www.w3.org/1999/02/22-rdf-syntax-ns#"
   xmlns:cc="http://creativecommons.org/ns#"
   xmlns:dc="http://purl.org/dc/elements/1.1/">
  <metadata
     id="metadata10">
    <rdf:RDF>
      <cc:Work
         rdf:about="">
        <dc:format>image/svg+xml</dc:format>
        <dc:type
           rdf:resource="http://purl.org/dc/dcmitype/StillImage" />
        <dc:title />
      </cc:Work>
    </rdf:RDF>
  </metadata>
  <defs
     id="defs8" />
  <sodipodi:namedview
     pagecolor="#ffffff"
     bordercolor="#666666"
     borderopacity="1"
     objecttolerance="10"
     gridtolerance="10"
     guidetolerance="10"
     inkscape:pageopacity="0"
     inkscape:pageshadow="2"
     inkscape:window-width="640"
     inkscape:window-height="480"
     id="namedview6"
     showgrid="false"
     inkscape:zoom="9.8333333"
     inkscape:cx="10.220339"
     inkscape:cy="12"
     inkscape:window-x="0"
     inkscape:window-y="25"
     inkscape:window-maximized="0"
     inkscape:current-layer="svg4"
     inkscape:showpageshadow="0"
     inkscape:pagecheckerboard="0"
     inkscape:deskcolor="#d1d1d1" />
  <path
     style="color:#000000;font-weight:400;line-height:normal;font-family:'Andale Mono';text-indent:0;text-align:start;text-decoration:none;text-decoration-line:none;text-transform:none;overflow:visible;fill:#bde6fb;fill-opacity:1;marker:none"
     d="M 2.132,-1.9550323e-8 V 0.00399998 A 2.282,2.282 0 0 0 0.00600001,2.13 H 1.4305115e-8 V 2.434 H 0.00600001 A 2.284,2.284 0 0 0 2.132,4.56 V 4.564 H 2.437 V 4.56 A 2.281,2.281 0 0 0 4.561,2.434 H 4.568 V 2.13 H 4.561 A 2.282,2.282 0 0 0 2.438,0.00399998 v -0.003 H 2.285 Z M 2.132,0.32299998 V 1.217 H 1.386 C 1.55,0.74299998 1.82,0.40699998 2.132,0.32299998 Z m 0.306,0 c 0.312,0.084 0.581,0.42 0.745,0.89400002 H 2.437 Z m -1.007,0.174 A 2.42,2.42 0 0 0 1.073,1.217 H 0.61700001 A 1.99,1.99 0 0 1 1.431,0.49699998 Z m 1.708,0 c 0.334,0.16 0.615,0.41 0.814,0.72000002 H 3.497 A 2.414,2.414 0 0 0 3.139,0.49699998 Z M 0.45900001,1.522 h 0.534 a 3.58,3.58 0 0 0 -0.075,0.608 h -0.608 c 0.017,-0.214 0.068,-0.418 0.147,-0.608 z M 1.301,1.522 H 2.132 V 2.13 H 1.222 C 1.231,1.916 1.258,1.712 1.301,1.522 Z m 1.137,0 h 0.83 c 0.043,0.189 0.07,0.395 0.08,0.608 h -0.91 z m 1.139,0 H 4.112 C 4.191,1.711 4.242,1.917 4.259,2.13 H 3.652 A 3.614,3.614 0 0 0 3.577,1.522 Z M 0.31000001,2.435 h 0.607 c 0.009,0.212 0.033,0.416 0.075,0.608 h -0.535 a 1.962,1.962 0 0 1 -0.147,-0.608 z M 1.222,2.435 h 0.91 V 3.043 H 1.3 A 3.403,3.403 0 0 1 1.22,2.435 Z m 1.215,0 h 0.91 a 3.31,3.31 0 0 1 -0.08,0.608 h -0.83 z m 1.214,0 H 4.257 A 1.95,1.95 0 0 1 4.111,3.043 H 3.576 A 3.58,3.58 0 0 0 3.651,2.435 Z M 0.61600001,3.349 H 1.072 C 1.161,3.628 1.283,3.872 1.43,4.068 A 1.988,1.988 0 0 1 0.61600001,3.348 Z M 1.385,3.349 H 2.131 V 4.242 C 1.819,4.158 1.549,3.822 1.385,3.349 Z m 1.052,0 H 3.182 C 3.018,3.822 2.749,4.159 2.436,4.242 Z m 1.06,0 H 3.952 A 1.99,1.99 0 0 1 3.138,4.068 C 3.285,3.872 3.408,3.627 3.496,3.348 Z"
     font-weight="400"
     overflow="visible"
     id="path2"
     inkscape:connector-curvature="0" />
</svg>
