<?xml version="1.0" encoding="UTF-8" standalone="no"?>
<svg
   width="15.822999"
   height="15.779999"
   version="1"
   id="svg4"
   sodipodi:docname="text-x-generic-symbolic.svg"
   inkscape:version="0.92.4 (5da689c313, 2019-01-14)"
   xmlns:inkscape="http://www.inkscape.org/namespaces/inkscape"
   xmlns:sodipodi="http://sodipodi.sourceforge.net/DTD/sodipodi-0.dtd"
   xmlns="http://www.w3.org/2000/svg"
   xmlns:svg="http://www.w3.org/2000/svg"
   xmlns:rdf="http://www.w3.org/1999/02/22-rdf-syntax-ns#"
   xmlns:cc="http://creativecommons.org/ns#"
   xmlns:dc="http://purl.org/dc/elements/1.1/">
  <metadata
     id="metadata10">
    <rdf:RDF>
      <cc:Work
         rdf:about="">
        <dc:format>image/svg+xml</dc:format>
        <dc:type
           rdf:resource="http://purl.org/dc/dcmitype/StillImage" />
        <dc:title />
      </cc:Work>
    </rdf:RDF>
  </metadata>
  <defs
     id="defs8" />
  <sodipodi:namedview
     pagecolor="#ffffff"
     bordercolor="#666666"
     borderopacity="1"
     objecttolerance="10"
     gridtolerance="10"
     guidetolerance="10"
     inkscape:pageopacity="0"
     inkscape:pageshadow="2"
     inkscape:window-width="640"
     inkscape:window-height="480"
     id="namedview6"
     showgrid="false"
     inkscape:zoom="9.8333333"
     inkscape:cx="10.220339"
     inkscape:cy="12"
     inkscape:window-x="0"
     inkscape:window-y="25"
     inkscape:window-maximized="0"
     inkscape:current-layer="svg4"
     inkscape:showpageshadow="0"
     inkscape:pagecheckerboard="0"
     inkscape:deskcolor="#d1d1d1" />
  <path
     d="M 1.0500002,-1.335144e-7 C 0.46900018,-1.335144e-7 1.7929077e-7,0.46899987 1.7929077e-7,1.0499999 v 0.509 c 0,0.581 0.46900000070923,1.05 1.05000002070923,1.05 H 14.772 c 0.582,0 1.051,-0.469 1.051,-1.05 v -0.509 C 15.823,0.46899987 15.353,-1.335144e-7 14.773,-1.335144e-7 Z m 0,4.3900000335144 c -0.58100002,0 -1.05000002070923,0.469 -1.05000002070923,1.05 v 0.509 c 0,0.581 0.46900000070923,1.05 1.05000002070923,1.05 H 14.772 c 0.582,0 1.051,-0.469 1.051,-1.05 v -0.509 c 0,-0.581 -0.47,-1.05 -1.05,-1.05 z m 0,4.39 c -0.58100002,0 -1.05000002070923,0.469 -1.05000002070923,1.05 V 10.34 c 0,0.581 0.46900000070923,1.05 1.05000002070923,1.05 H 14.772 c 0.582,0 1.051,-0.469 1.051,-1.05 V 9.8299999 c 0,-0.581 -0.47,-1.05 -1.05,-1.05 z m 0,4.3920001 C 0.46900018,13.172 1.7929077e-7,13.64 1.7929077e-7,14.222 v 0.508 c 0,0.581 0.46900000070923,1.05 1.05000002070923,1.05 H 14.772 c 0.582,0 1.051,-0.469 1.051,-1.05 v -0.509 c 0,-0.581 -0.47,-1.05 -1.05,-1.05 z"
     id="path2"
     inkscape:connector-curvature="0"
     style="fill:#bde6fb;fill-opacity:1" />
</svg>
