<?xml version="1.0" encoding="UTF-8" standalone="no"?>
<svg
   height="21.720001"
   width="21.639999"
   version="1.1"
   id="svg4"
   sodipodi:docname="aptdaemon-cleanup.svg"
   inkscape:version="0.92.4 (5da689c313, 2019-01-14)"
   xmlns:inkscape="http://www.inkscape.org/namespaces/inkscape"
   xmlns:sodipodi="http://sodipodi.sourceforge.net/DTD/sodipodi-0.dtd"
   xmlns="http://www.w3.org/2000/svg"
   xmlns:svg="http://www.w3.org/2000/svg"
   xmlns:rdf="http://www.w3.org/1999/02/22-rdf-syntax-ns#"
   xmlns:cc="http://creativecommons.org/ns#"
   xmlns:dc="http://purl.org/dc/elements/1.1/">
  <metadata
     id="metadata10">
    <rdf:RDF>
      <cc:Work
         rdf:about="">
        <dc:format>image/svg+xml</dc:format>
        <dc:type
           rdf:resource="http://purl.org/dc/dcmitype/StillImage" />
        <dc:title />
      </cc:Work>
    </rdf:RDF>
  </metadata>
  <defs
     id="defs8" />
  <sodipodi:namedview
     pagecolor="#ffffff"
     bordercolor="#666666"
     borderopacity="1"
     objecttolerance="10"
     gridtolerance="10"
     guidetolerance="10"
     inkscape:pageopacity="0"
     inkscape:pageshadow="2"
     inkscape:window-width="1085"
     inkscape:window-height="480"
     id="namedview6"
     showgrid="false"
     inkscape:zoom="9.8333333"
     inkscape:cx="1.0677966"
     inkscape:cy="12"
     inkscape:window-x="0"
     inkscape:window-y="25"
     inkscape:window-maximized="0"
     inkscape:current-layer="svg4"
     inkscape:showpageshadow="0"
     inkscape:pagecheckerboard="0"
     inkscape:deskcolor="#d1d1d1" />
  <path
     d="M 10.82,1.4305115e-8 A 10.82,10.86 0 0 0 5.2452087e-8,10.86 10.82,10.86 0 0 0 10.82,21.72 10.82,10.86 0 0 0 21.64,10.86 10.82,10.86 0 0 0 10.82,1.4305115e-8 Z M 16.72,4.35 l 0.89,0.89 -6.43,6.45 1.83,1.8 -0.92,0.94 -4.5999999,-4.5 0.94,-0.95 L 10.28,10.8 Z m -6.44,6.45 -0.02,0.02 0.9,0.9 0.02,-0.03 z M 6.9600001,10.37 11.72,15.13 9.2900001,17.55 c -0.49,0.81 1.9799999,0.9 2.9999999,1.33 l -4.6599999,0.33 c -1.87,-0.7 -5.13,-3.79 -4.48,-5.03 z"
     id="path2"
     inkscape:connector-curvature="0"
     style="fill:#bde6fb;fill-opacity:0.988235;paint-order:markers fill stroke" />
</svg>
