<?xml version="1.0" encoding="UTF-8" standalone="no"?>
<svg
   height="21.720001"
   width="21.639999"
   version="1.1"
   id="svg4"
   sodipodi:docname="aptdaemon-delete.svg"
   inkscape:version="0.92.4 (5da689c313, 2019-01-14)"
   xmlns:inkscape="http://www.inkscape.org/namespaces/inkscape"
   xmlns:sodipodi="http://sodipodi.sourceforge.net/DTD/sodipodi-0.dtd"
   xmlns="http://www.w3.org/2000/svg"
   xmlns:svg="http://www.w3.org/2000/svg"
   xmlns:rdf="http://www.w3.org/1999/02/22-rdf-syntax-ns#"
   xmlns:cc="http://creativecommons.org/ns#"
   xmlns:dc="http://purl.org/dc/elements/1.1/">
  <metadata
     id="metadata10">
    <rdf:RDF>
      <cc:Work
         rdf:about="">
        <dc:format>image/svg+xml</dc:format>
        <dc:type
           rdf:resource="http://purl.org/dc/dcmitype/StillImage" />
        <dc:title />
      </cc:Work>
    </rdf:RDF>
  </metadata>
  <defs
     id="defs8" />
  <sodipodi:namedview
     pagecolor="#ffffff"
     bordercolor="#666666"
     borderopacity="1"
     objecttolerance="10"
     gridtolerance="10"
     guidetolerance="10"
     inkscape:pageopacity="0"
     inkscape:pageshadow="2"
     inkscape:window-width="1085"
     inkscape:window-height="480"
     id="namedview6"
     showgrid="false"
     inkscape:zoom="9.8333333"
     inkscape:cx="1.0677966"
     inkscape:cy="12"
     inkscape:window-x="0"
     inkscape:window-y="25"
     inkscape:window-maximized="0"
     inkscape:current-layer="svg4"
     inkscape:showpageshadow="0"
     inkscape:pagecheckerboard="0"
     inkscape:deskcolor="#d1d1d1" />
  <path
     d="M 10.82,1.4305115e-8 A 10.82,10.86 0 0 0 5.2452087e-8,10.86 10.82,10.86 0 0 0 10.82,21.72 10.82,10.86 0 0 0 21.64,10.86 10.82,10.86 0 0 0 10.82,1.4305115e-8 Z M 10.88,2.31 a 8.5,8.5 0 0 1 0,17 8.5,8.5 0 0 1 0,-17 z m 0,1.56 a 6.95,6.95 0 0 0 -6.9499999,6.94 c 0,1.72 0.64,3.3 1.68,4.52 L 15.39,5.55 A 6.9,6.9 0 0 0 10.88,3.86 Z m 5.57,2.82 -9.6999999,9.7 A 6.9,6.9 0 0 0 10.88,17.75 6.95,6.95 0 0 0 17.81,10.81 6.9,6.9 0 0 0 16.45,6.69 Z"
     id="path2"
     inkscape:connector-curvature="0"
     style="fill:#bde6fb;fill-opacity:0.980392;paint-order:markers fill stroke" />
</svg>
