<?xml version="1.0" encoding="UTF-8" standalone="no"?>
<svg
   height="21.730001"
   width="21.640005"
   version="1.1"
   id="svg4"
   sodipodi:docname="aptdaemon-working.svg"
   inkscape:version="0.92.4 (5da689c313, 2019-01-14)"
   xmlns:inkscape="http://www.inkscape.org/namespaces/inkscape"
   xmlns:sodipodi="http://sodipodi.sourceforge.net/DTD/sodipodi-0.dtd"
   xmlns="http://www.w3.org/2000/svg"
   xmlns:svg="http://www.w3.org/2000/svg"
   xmlns:rdf="http://www.w3.org/1999/02/22-rdf-syntax-ns#"
   xmlns:cc="http://creativecommons.org/ns#"
   xmlns:dc="http://purl.org/dc/elements/1.1/">
  <metadata
     id="metadata10">
    <rdf:RDF>
      <cc:Work
         rdf:about="">
        <dc:format>image/svg+xml</dc:format>
        <dc:type
           rdf:resource="http://purl.org/dc/dcmitype/StillImage" />
        <dc:title />
      </cc:Work>
    </rdf:RDF>
  </metadata>
  <defs
     id="defs8" />
  <sodipodi:namedview
     pagecolor="#ffffff"
     bordercolor="#666666"
     borderopacity="1"
     objecttolerance="10"
     gridtolerance="10"
     guidetolerance="10"
     inkscape:pageopacity="0"
     inkscape:pageshadow="2"
     inkscape:window-width="1085"
     inkscape:window-height="480"
     id="namedview6"
     showgrid="false"
     inkscape:zoom="9.8333333"
     inkscape:cx="1.0677966"
     inkscape:cy="12"
     inkscape:window-x="0"
     inkscape:window-y="25"
     inkscape:window-maximized="0"
     inkscape:current-layer="svg4"
     inkscape:showpageshadow="0"
     inkscape:pagecheckerboard="0"
     inkscape:deskcolor="#d1d1d1" />
  <path
     d="M 10.82,0.01 A 10.82,10.86 0 0 0 5.2452087e-8,10.87 10.82,10.86 0 0 0 10.82,21.73 10.82,10.86 0 0 0 21.64,10.87 10.82,10.86 0 0 0 10.82,0 Z m 0,1.89 a 9.12,9.12 0 0 1 0.84,0.04 l 0.52,2.68 a 6.43,6.43 0 0 1 1.24,0.4 l 1.97,-1.88 c 0.5,0.3 0.93,0.66 1.36,1.04 l -1.16,2.44 a 6.48,6.48 0 0 1 0.76,1.05 l 2.68,-0.36 a 8.85,8.85 0 0 1 0.52,1.64 l -2.36,1.28 a 6.18,6.18 0 0 1 0,1.28 l 2.36,1.28 a 8.86,8.86 0 0 1 -0.52,1.64 l -2.68,-0.36 a 6.6,6.6 0 0 1 -0.76,1.04 l 1.16,2.45 c -0.43,0.38 -0.87,0.75 -1.36,1.04 l -1.97,-1.88 c -0.39,0.17 -0.81,0.3 -1.24,0.4 l -0.52,2.68 a 9.12,9.12 0 0 1 -1.6799999,0 l -0.52,-2.68 a 6.4,6.4 0 0 1 -1.24,-0.4 l -1.97,1.88 c -0.5,-0.3 -0.93,-0.66 -1.36,-1.04 l 1.16,-2.45 a 6.53,6.53 0 0 1 -0.76,-1.04 l -2.68,0.36 a 8.79,8.79 0 0 1 -0.52,-1.64 l 2.36,-1.28 a 6.21,6.21 0 0 1 -0.03,-0.64 6.18,6.18 0 0 1 0.04,-0.64 l -2.36,-1.28 a 8.86,8.86 0 0 1 0.52,-1.64 l 2.68,0.36 a 6.48,6.48 0 0 1 0.76,-1.05 l -1.17,-2.44 c 0.43,-0.38 0.86,-0.74 1.36,-1.04 l 1.97,1.88 a 6.42,6.42 0 0 1 1.24,-0.4 l 0.52,-2.68 C 10.26,1.92 10.54,1.9 10.82,1.9 Z m 0,5.13 a 3.85,3.85 0 0 0 0,7.69 3.85,3.85 0 0 0 0,-7.7 z"
     id="path2"
     inkscape:connector-curvature="0"
     style="fill:#bde6fb;fill-opacity:0.988235;paint-order:markers fill stroke" />
</svg>
