<?xml version="1.0" encoding="UTF-8" standalone="no"?>
<svg
   width="17.725983"
   height="17.763779"
   viewBox="0 0 4.6899996 4.6999998"
   version="1.1"
   id="svg4"
   sodipodi:docname="computer-fail.svg"
   inkscape:version="0.92.4 (5da689c313, 2019-01-14)"
   xmlns:inkscape="http://www.inkscape.org/namespaces/inkscape"
   xmlns:sodipodi="http://sodipodi.sourceforge.net/DTD/sodipodi-0.dtd"
   xmlns="http://www.w3.org/2000/svg"
   xmlns:svg="http://www.w3.org/2000/svg"
   xmlns:rdf="http://www.w3.org/1999/02/22-rdf-syntax-ns#"
   xmlns:cc="http://creativecommons.org/ns#"
   xmlns:dc="http://purl.org/dc/elements/1.1/">
  <metadata
     id="metadata10">
    <rdf:RDF>
      <cc:Work
         rdf:about="">
        <dc:format>image/svg+xml</dc:format>
        <dc:type
           rdf:resource="http://purl.org/dc/dcmitype/StillImage" />
        <dc:title />
      </cc:Work>
    </rdf:RDF>
  </metadata>
  <defs
     id="defs8" />
  <sodipodi:namedview
     pagecolor="#ffffff"
     bordercolor="#666666"
     borderopacity="1"
     objecttolerance="10"
     gridtolerance="10"
     guidetolerance="10"
     inkscape:pageopacity="0"
     inkscape:pageshadow="2"
     inkscape:window-width="1085"
     inkscape:window-height="480"
     id="namedview6"
     showgrid="false"
     inkscape:zoom="9.8333333"
     inkscape:cx="1.0677966"
     inkscape:cy="12"
     inkscape:window-x="0"
     inkscape:window-y="25"
     inkscape:window-maximized="0"
     inkscape:current-layer="svg4"
     inkscape:showpageshadow="0"
     inkscape:pagecheckerboard="0"
     inkscape:deskcolor="#d1d1d1" />
  <path
     d="M 0.42999996,-4.2915344e-8 A 0.43,0.43 0 0 0 -4.2915344e-8,0.42999996 V 3.35 C -4.2915344e-8,3.59 0.19999996,3.78 0.42999996,3.78 H 1.51 V 4.3 H 0.50999996 V 4.7 H 4.24 V 4.3 H 3.21 V 3.77 H 4.26 A 0.43,0.43 0 0 0 4.69,3.34 V 0.42999996 A 0.43,0.43 0 0 0 4.26,-4.2915344e-8 Z M 0.75999996,0.41999996 H 3.96 a 0.33,0.33 0 0 1 0.33,0.33 V 3.02 A 0.33,0.33 0 0 1 3.96,3.35 H 0.75999996 a 0.33,0.33 0 0 1 -0.33,-0.33 V 0.74999996 a 0.33,0.33 0 0 1 0.33,-0.33 z m 0.60000004,0.4 V 1.49 H 1.68 V 0.81999996 H 1.35 Z m 1.65,0 V 1.49 H 3.34 V 0.81999996 Z M 1.35,2.15 V 2.48 H 3.34 V 2.15 Z M 3.34,2.48 V 2.81 H 3.67 V 2.47 H 3.34 Z m -1.99,0 H 1.02 V 2.81 H 1.35 V 2.47 Z"
     id="path2"
     inkscape:connector-curvature="0"
     style="fill:#bde6fb;fill-opacity:1" />
</svg>
