<?xml version="1.0" encoding="UTF-8" standalone="no"?>
<svg
   width="23.68"
   height="23.68"
   version="1"
   id="svg4"
   sodipodi:docname="dialog-warning.svg"
   inkscape:version="0.92.4 (5da689c313, 2019-01-14)"
   xmlns:inkscape="http://www.inkscape.org/namespaces/inkscape"
   xmlns:sodipodi="http://sodipodi.sourceforge.net/DTD/sodipodi-0.dtd"
   xmlns="http://www.w3.org/2000/svg"
   xmlns:svg="http://www.w3.org/2000/svg"
   xmlns:rdf="http://www.w3.org/1999/02/22-rdf-syntax-ns#"
   xmlns:cc="http://creativecommons.org/ns#"
   xmlns:dc="http://purl.org/dc/elements/1.1/">
  <metadata
     id="metadata10">
    <rdf:RDF>
      <cc:Work
         rdf:about="">
        <dc:format>image/svg+xml</dc:format>
        <dc:type
           rdf:resource="http://purl.org/dc/dcmitype/StillImage" />
        <dc:title />
      </cc:Work>
    </rdf:RDF>
  </metadata>
  <defs
     id="defs8" />
  <sodipodi:namedview
     pagecolor="#ffffff"
     bordercolor="#666666"
     borderopacity="1"
     objecttolerance="10"
     gridtolerance="10"
     guidetolerance="10"
     inkscape:pageopacity="0"
     inkscape:pageshadow="2"
     inkscape:window-width="1085"
     inkscape:window-height="480"
     id="namedview6"
     showgrid="false"
     inkscape:zoom="9.8333333"
     inkscape:cx="1.0677966"
     inkscape:cy="12"
     inkscape:window-x="0"
     inkscape:window-y="25"
     inkscape:window-maximized="0"
     inkscape:current-layer="svg4"
     inkscape:showpageshadow="0"
     inkscape:pagecheckerboard="0"
     inkscape:deskcolor="#d1d1d1" />
  <path
     d="M 11.84,0 A 11.84,11.84 0 0 0 0,11.84 11.84,11.84 0 0 0 11.84,23.68 11.84,11.84 0 0 0 23.68,11.84 11.84,11.84 0 0 0 11.84,0 Z M 11.73,1.76 2.94,16.93 A 10.18,10.18 0 0 1 1.62,11.94 10.18,10.18 0 0 1 11.72,1.76 Z m 0.16,0 a 10.18,10.18 0 0 1 10.1,10.18 10.18,10.18 0 0 1 -1.32,5 z m -0.25,2.71 a 0.9,0.9 0 0 1 0.4,0.02 c 0.56,0.13 0.83,0.75 0.73,1.27 -0.2,2.2 -0.46,4.4 -0.62,6.6 h -0.64 c -0.2,-2.3 -0.47,-4.57 -0.7,-6.85 l 0.01,-0.22 a 0.99,0.99 0 0 1 0.82,-0.82 z m 0.13,9.28 c 0.39,0 0.78,0.2 0.96,0.56 0.32,0.56 0,1.34 -0.63,1.5 -0.64,0.21 -1.39,-0.33 -1.36,-1 a 1.04,1.04 0 0 1 0.4,-0.82 0.94,0.94 0 0 1 0.63,-0.24 z m -8.69,3.42 h 17.45 a 10.18,10.18 0 0 1 -8.72,4.96 10.18,10.18 0 0 1 -8.73,-4.96 z"
     id="path2"
     inkscape:connector-curvature="0"
     style="fill:#bde6fb;fill-opacity:1" />
</svg>
