<?xml version="1.0" encoding="UTF-8" standalone="no"?>
<svg
   width="20.749607"
   height="20.749607"
   viewBox="0 0 5.4900002 5.4900002"
   version="1.1"
   id="svg6"
   sodipodi:docname="image-missing.svg"
   inkscape:version="0.92.4 (5da689c313, 2019-01-14)"
   xmlns:inkscape="http://www.inkscape.org/namespaces/inkscape"
   xmlns:sodipodi="http://sodipodi.sourceforge.net/DTD/sodipodi-0.dtd"
   xmlns="http://www.w3.org/2000/svg"
   xmlns:svg="http://www.w3.org/2000/svg"
   xmlns:rdf="http://www.w3.org/1999/02/22-rdf-syntax-ns#"
   xmlns:cc="http://creativecommons.org/ns#"
   xmlns:dc="http://purl.org/dc/elements/1.1/">
  <metadata
     id="metadata12">
    <rdf:RDF>
      <cc:Work
         rdf:about="">
        <dc:format>image/svg+xml</dc:format>
        <dc:type
           rdf:resource="http://purl.org/dc/dcmitype/StillImage" />
        <dc:title />
      </cc:Work>
    </rdf:RDF>
  </metadata>
  <defs
     id="defs10" />
  <sodipodi:namedview
     pagecolor="#ffffff"
     bordercolor="#666666"
     borderopacity="1"
     objecttolerance="10"
     gridtolerance="10"
     guidetolerance="10"
     inkscape:pageopacity="0"
     inkscape:pageshadow="2"
     inkscape:window-width="1085"
     inkscape:window-height="480"
     id="namedview8"
     showgrid="false"
     inkscape:zoom="9.8333333"
     inkscape:cx="1.0677966"
     inkscape:cy="12"
     inkscape:window-x="0"
     inkscape:window-y="25"
     inkscape:window-maximized="0"
     inkscape:current-layer="svg6"
     inkscape:showpageshadow="0"
     inkscape:pagecheckerboard="0"
     inkscape:deskcolor="#d1d1d1" />
  <path
     d="M 2.61,2.2649765e-8 A 2.76,2.76 0 0 0 1.04,0.59000002 2.76,2.76 0 0 0 0.60000002,1.02 2.76,2.76 0 0 0 2.2649765e-8,2.62 Z M 3.28,0.04000002 l -0.63,0.63 c 0.04,0 0.07,-0.03 0.11,-0.03 0.13,0 0.24,0.04 0.32,0.1 0.08,0.05 0.13,0.13 0.13,0.22 V 1.11 l 0.8,-0.79999998 a 2.76,2.76 0 0 0 -0.73,-0.27 z m 1.17,0.54 L 3.21,1.82 V 2.81 L 4.94,1.08 A 2.76,2.76 0 0 0 4.44,0.58000002 Z M 2.32,1.01 0.05000002,3.27 a 2.76,2.76 0 0 0 0.25,0.73 L 2.32,1.99 Z m 2.9,0.51 -2.01,2 v 0.05 c 0,0.07 -0.03,0.14 -0.09,0.2 A 0.48,0.48 0 0 1 2.89,3.87 0.46,0.46 0 0 1 3.22,4.32 C 3.22,4.38 3.2,4.44 3.18,4.5 A 0.46,0.46 0 0 1 3.1,4.63 L 5.46,2.27 A 2.76,2.76 0 0 0 5.21,1.52 Z M 2.32,2.72 0.57000002,4.44 A 2.76,2.76 0 0 0 1.07,4.93 L 2.37,3.66 C 2.36,3.63 2.33,3.6 2.33,3.56 Z M 5.49,2.95 2.95,5.49 A 2.76,2.76 0 0 0 5.49,2.95 Z m -3.17,1.47 -0.8,0.8 a 2.76,2.76 0 0 0 0.75,0.24 l 0.8,-0.8 A 0.45,0.45 0 0 1 2.94,4.75 0.45,0.45 0 0 1 2.44,4.65 0.47,0.47 0 0 1 2.34,4.5 Z"
     id="path2"
     inkscape:connector-curvature="0"
     style="fill:#bde6fb;fill-opacity:0.301961" />
  <path
     d="M 2.76,0.82000002 A 0.28,0.28 0 0 0 2.48,1.11 v 2.32 a 0.28,0.28 0 1 0 0.56,0 V 1.11 A 0.28,0.28 0 0 0 2.76,0.82000002 Z M 2.76,4.03 a 0.285,0.285 0 1 0 0,0.57 0.285,0.285 0 1 0 0,-0.57 z"
     id="path4"
     inkscape:connector-curvature="0"
     style="fill:#bde6fb;fill-opacity:1" />
</svg>
