<?xml version="1.0" encoding="UTF-8" standalone="no"?>
<svg
   width="23.546001"
   height="23.542999"
   version="1"
   id="svg4"
   sodipodi:docname="laptoptrusted.svg"
   inkscape:version="0.92.4 (5da689c313, 2019-01-14)"
   xmlns:inkscape="http://www.inkscape.org/namespaces/inkscape"
   xmlns:sodipodi="http://sodipodi.sourceforge.net/DTD/sodipodi-0.dtd"
   xmlns="http://www.w3.org/2000/svg"
   xmlns:svg="http://www.w3.org/2000/svg"
   xmlns:rdf="http://www.w3.org/1999/02/22-rdf-syntax-ns#"
   xmlns:cc="http://creativecommons.org/ns#"
   xmlns:dc="http://purl.org/dc/elements/1.1/">
  <metadata
     id="metadata10">
    <rdf:RDF>
      <cc:Work
         rdf:about="">
        <dc:format>image/svg+xml</dc:format>
        <dc:type
           rdf:resource="http://purl.org/dc/dcmitype/StillImage" />
        <dc:title />
      </cc:Work>
    </rdf:RDF>
  </metadata>
  <defs
     id="defs8" />
  <sodipodi:namedview
     pagecolor="#ffffff"
     bordercolor="#666666"
     borderopacity="1"
     objecttolerance="10"
     gridtolerance="10"
     guidetolerance="10"
     inkscape:pageopacity="0"
     inkscape:pageshadow="2"
     inkscape:window-width="1138"
     inkscape:window-height="480"
     id="namedview6"
     showgrid="false"
     inkscape:zoom="9.8333333"
     inkscape:cx="1.0677966"
     inkscape:cy="12"
     inkscape:window-x="0"
     inkscape:window-y="25"
     inkscape:window-maximized="0"
     inkscape:current-layer="svg4"
     inkscape:showpageshadow="0"
     inkscape:pagecheckerboard="0"
     inkscape:deskcolor="#d1d1d1" />
  <path
     d="M 11.773,0 V 9.9999785e-4 A 11.773,11.773 0 0 0 0,11.773 11.773,11.773 0 0 0 11.773,23.543 11.773,11.773 0 0 0 23.546,11.771 11.773,11.773 0 0 0 11.773,0 Z m -5.04,6.128 h 10.233 c 1.086,0 1.96,0.874 1.96,1.96 v 6.263 a 1.947,1.947 0 0 1 -0.995,1.697 h 1.594 v 1.535 H 4.027 V 16.048 H 5.773 A 1.945,1.945 0 0 1 4.777,14.351 V 8.087 c 0,-1.085 0.871,-1.959 1.957,-1.959 z m 1.02,1.013 a 1.647,1.647 0 0 0 -1.65,1.648 v 5.273 a 1.647,1.647 0 0 0 1.65,1.648 h 8.252 a 1.647,1.647 0 0 0 1.647,-1.648 V 8.787 A 1.647,1.647 0 0 0 16.003,7.14 h -8.25 z m 2.841,8.736 v 0.502 h 2.436 v -0.502 h -2.437 z"
     id="path2"
     inkscape:connector-curvature="0"
     style="fill:#bde6fb;fill-opacity:1;stroke-width:1.872" />
</svg>
