<?xml version="1.0" encoding="UTF-8" standalone="no"?>
<svg
   height="22.25"
   width="17.375"
   version="1.1"
   id="svg4"
   sodipodi:docname="livepatch_warning.svg"
   inkscape:version="0.92.5 (2060ec1f9f, 2020-04-08)"
   xmlns:inkscape="http://www.inkscape.org/namespaces/inkscape"
   xmlns:sodipodi="http://sodipodi.sourceforge.net/DTD/sodipodi-0.dtd"
   xmlns="http://www.w3.org/2000/svg"
   xmlns:svg="http://www.w3.org/2000/svg"
   xmlns:rdf="http://www.w3.org/1999/02/22-rdf-syntax-ns#"
   xmlns:cc="http://creativecommons.org/ns#"
   xmlns:dc="http://purl.org/dc/elements/1.1/">
  <metadata
     id="metadata10">
    <rdf:RDF>
      <cc:Work
         rdf:about="">
        <dc:format>image/svg+xml</dc:format>
        <dc:type
           rdf:resource="http://purl.org/dc/dcmitype/StillImage" />
        <dc:title />
      </cc:Work>
    </rdf:RDF>
  </metadata>
  <defs
     id="defs8" />
  <sodipodi:namedview
     pagecolor="#ffffff"
     bordercolor="#666666"
     borderopacity="1"
     objecttolerance="10"
     gridtolerance="10"
     guidetolerance="10"
     inkscape:pageopacity="0"
     inkscape:pageshadow="2"
     inkscape:window-width="1087"
     inkscape:window-height="480"
     id="namedview6"
     showgrid="false"
     inkscape:zoom="9.8333333"
     inkscape:cx="1.0677966"
     inkscape:cy="12"
     inkscape:window-x="0"
     inkscape:window-y="25"
     inkscape:window-maximized="0"
     inkscape:current-layer="svg4"
     inkscape:showpageshadow="0"
     inkscape:pagecheckerboard="0"
     inkscape:deskcolor="#d1d1d1" />
  <path
     d="M 8.681,0 C 8.681,0 6.315,3.963 3.6239625e-8,3.963 3.6239625e-8,17.447 8.681,22.25 8.681,22.25 c 0,0 8.694,-4.754 8.694,-18.287 C 11.071,3.963 8.681,0 8.681,0 Z M 7.529,4.08 h 2.105 v 5.438 c -0.077,1.033 -0.17,2.096 -0.277,3.191 H 7.807 C 7.691,11.622 7.527,10.582 7.527,9.518 V 4.08 Z m 1.158,11.197 a 1.434,1.434 0 0 1 1.018,0.44 1.319,1.319 0 0 1 0.416,1.04 1.411,1.411 0 0 1 -0.416,1.042 1.48,1.48 0 0 1 -1.018,0.37 1.527,1.527 0 0 1 -1.018,-0.394 1.411,1.411 0 0 1 -0.418,-1.04 1.319,1.319 0 0 1 0.418,-1.018 1.458,1.458 0 0 1 1.018,-0.44 z"
     id="path2"
     inkscape:connector-curvature="0"
     style="fill:#bde6fb;fill-opacity:1" />
</svg>
