<?xml version="1.0" encoding="UTF-8" standalone="no"?>
<svg
   width="37.243469"
   height="37.319054"
   viewBox="0 0 9.8540012 9.8739996"
   version="1.1"
   id="svg4"
   sodipodi:docname="osd-rotate-flip.svg"
   inkscape:version="0.92.4 (5da689c313, 2019-01-14)"
   xmlns:inkscape="http://www.inkscape.org/namespaces/inkscape"
   xmlns:sodipodi="http://sodipodi.sourceforge.net/DTD/sodipodi-0.dtd"
   xmlns="http://www.w3.org/2000/svg"
   xmlns:svg="http://www.w3.org/2000/svg"
   xmlns:rdf="http://www.w3.org/1999/02/22-rdf-syntax-ns#"
   xmlns:cc="http://creativecommons.org/ns#"
   xmlns:dc="http://purl.org/dc/elements/1.1/">
  <metadata
     id="metadata10">
    <rdf:RDF>
      <cc:Work
         rdf:about="">
        <dc:format>image/svg+xml</dc:format>
        <dc:type
           rdf:resource="http://purl.org/dc/dcmitype/StillImage" />
        <dc:title />
      </cc:Work>
    </rdf:RDF>
  </metadata>
  <defs
     id="defs8" />
  <sodipodi:namedview
     pagecolor="#ffffff"
     bordercolor="#666666"
     borderopacity="1"
     objecttolerance="10"
     gridtolerance="10"
     guidetolerance="10"
     inkscape:pageopacity="0"
     inkscape:pageshadow="2"
     inkscape:window-width="1138"
     inkscape:window-height="480"
     id="namedview6"
     showgrid="false"
     inkscape:zoom="4.9166667"
     inkscape:cx="2.1355932"
     inkscape:cy="24"
     inkscape:window-x="0"
     inkscape:window-y="25"
     inkscape:window-maximized="0"
     inkscape:current-layer="svg4"
     inkscape:showpageshadow="0"
     inkscape:pagecheckerboard="0"
     inkscape:deskcolor="#d1d1d1" />
  <path
     d="M 0.9030005,5.9127808e-8 A 0.903,0.903 0 0 0 4.9877167e-7,0.90400006 V 7.0380001 c 0,0.505 0.42000000122833,0.904 0.90300000122833,0.904 h 2.27 v 1.092 h -2.103 v 0.84 h 7.838 v -0.84 h -2.163 v -1.112 h 2.206 a 0.903,0.903 0 0 0 0.903,-0.904 V 0.90400006 A 0.903,0.903 0 0 0 8.9510005,5.9127808e-8 Z M 1.5970005,0.88300006 h 6.723 a 0.693,0.693 0 0 1 0.694,0.69300004 v 4.77 a 0.693,0.693 0 0 1 -0.694,0.693 h -6.723 a 0.693,0.693 0 0 1 -0.694,-0.693 v -4.77 a 0.693,0.693 0 0 1 0.694,-0.69300004 z m 3.33,1.23700004 -0.846,0.846 h 0.624 v 2.357 h -0.624 l 0.846,0.845 0.845,-0.845 h -0.623 v -2.357 h 0.623 z"
     class="ColorScheme-Text"
     id="path2"
     inkscape:connector-curvature="0"
     style="fill:#bde6fb;fill-opacity:1;stroke-width:2.101" />
</svg>
