<?xml version="1.0" encoding="UTF-8" standalone="no"?>
<svg
   width="41.676853"
   height="39.171024"
   viewBox="0 0 11.027001 10.364"
   version="1.1"
   id="svg4"
   sodipodi:docname="osd-duplicate.svg"
   inkscape:version="0.92.4 (5da689c313, 2019-01-14)"
   xmlns:inkscape="http://www.inkscape.org/namespaces/inkscape"
   xmlns:sodipodi="http://sodipodi.sourceforge.net/DTD/sodipodi-0.dtd"
   xmlns="http://www.w3.org/2000/svg"
   xmlns:svg="http://www.w3.org/2000/svg"
   xmlns:rdf="http://www.w3.org/1999/02/22-rdf-syntax-ns#"
   xmlns:cc="http://creativecommons.org/ns#"
   xmlns:dc="http://purl.org/dc/elements/1.1/">
  <metadata
     id="metadata10">
    <rdf:RDF>
      <cc:Work
         rdf:about="">
        <dc:format>image/svg+xml</dc:format>
        <dc:type
           rdf:resource="http://purl.org/dc/dcmitype/StillImage" />
        <dc:title />
      </cc:Work>
    </rdf:RDF>
  </metadata>
  <defs
     id="defs8" />
  <sodipodi:namedview
     pagecolor="#ffffff"
     bordercolor="#666666"
     borderopacity="1"
     objecttolerance="10"
     gridtolerance="10"
     guidetolerance="10"
     inkscape:pageopacity="0"
     inkscape:pageshadow="2"
     inkscape:window-width="1138"
     inkscape:window-height="480"
     id="namedview6"
     showgrid="false"
     inkscape:zoom="4.9166667"
     inkscape:cx="2.1355932"
     inkscape:cy="24"
     inkscape:window-x="0"
     inkscape:window-y="25"
     inkscape:window-maximized="0"
     inkscape:current-layer="svg4"
     inkscape:showpageshadow="0"
     inkscape:pagecheckerboard="0"
     inkscape:deskcolor="#d1d1d1" />
  <path
     class="ColorScheme-Text"
     d="M 4.353,1.7166138e-8 A 0.674,0.674 0 0 0 3.679,0.67400002 V 3.001 H 0.67299999 A 0.674,0.674 0 0 0 -1.2397766e-8,3.675 V 8.25 C -1.2397766e-8,8.626 0.31299999,8.923 0.67299999,8.923 H 2.366 V 9.737 H 0.79799999 v 0.627 H 6.641 V 9.737 H 5.028 V 8.907 H 6.673 A 0.674,0.674 0 0 0 7.347,8.233 v -0.87 h 2.975 V 6.737 H 8.708 v -0.83 h 1.645 A 0.674,0.674 0 0 0 11.027,5.232 V 0.67400002 A 0.674,0.674 0 0 0 10.353,1.7166138e-8 Z M 4.87,0.65800002 H 9.883 A 0.517,0.517 0 0 1 10.4,1.175 V 4.731 A 0.517,0.517 0 0 1 9.883,5.248 H 7.347 V 4.744 H 9.179 A 0.26,0.26 0 0 0 9.439,4.482 V 1.352 A 0.26,0.26 0 0 0 9.179,1.091 H 5.527 a 0.26,0.26 0 0 0 -0.26,0.261 v 1.65 H 4.353 V 1.175 A 0.517,0.517 0 0 1 4.87,0.65800002 Z M 5.527,1.938 v 0.001 h 3.652 c 0.035,0 0.065,0.03 0.065,0.065 V 4.482 A 0.065,0.065 0 0 1 9.179,4.547 H 7.347 V 3.675 A 0.674,0.674 0 0 0 6.673,3.001 H 5.463 V 2.004 c 0,-0.035 0.028,-0.065 0.064,-0.065 z M 1.19,3.66 H 6.203 A 0.517,0.517 0 0 1 6.72,4.177 V 7.732 A 0.517,0.517 0 0 1 6.203,8.25 H 1.19 A 0.517,0.517 0 0 1 0.67199999,7.732 V 4.176 A 0.517,0.517 0 0 1 1.19,3.659 Z m 0.657,0.433 a 0.26,0.26 0 0 0 -0.26,0.262 v 3.13 a 0.26,0.26 0 0 0 0.26,0.26 h 3.652 a 0.26,0.26 0 0 0 0.26,-0.26 V 4.352 A 0.26,0.26 0 0 0 5.499,4.091 Z m 0,0.848 h 3.652 c 0.035,0 0.064,0.03 0.064,0.066 V 7.482 A 0.065,0.065 0 0 1 5.499,7.547 H 1.847 A 0.065,0.065 0 0 1 1.782,7.482 V 5.005 C 1.782,4.97 1.811,4.94 1.847,4.94 Z"
     id="path2"
     inkscape:connector-curvature="0"
     style="fill:#bde6fb;fill-opacity:1;stroke-width:1.567" />
</svg>
