<?xml version="1.0" encoding="UTF-8" standalone="no"?>
<svg
   width="37.243462"
   height="37.319054"
   viewBox="0 0 9.8539992 9.8739996"
   version="1.1"
   id="svg4"
   sodipodi:docname="osd-rotate-normal.svg"
   inkscape:version="0.92.4 (5da689c313, 2019-01-14)"
   xmlns:inkscape="http://www.inkscape.org/namespaces/inkscape"
   xmlns:sodipodi="http://sodipodi.sourceforge.net/DTD/sodipodi-0.dtd"
   xmlns="http://www.w3.org/2000/svg"
   xmlns:svg="http://www.w3.org/2000/svg"
   xmlns:rdf="http://www.w3.org/1999/02/22-rdf-syntax-ns#"
   xmlns:cc="http://creativecommons.org/ns#"
   xmlns:dc="http://purl.org/dc/elements/1.1/">
  <metadata
     id="metadata10">
    <rdf:RDF>
      <cc:Work
         rdf:about="">
        <dc:format>image/svg+xml</dc:format>
        <dc:type
           rdf:resource="http://purl.org/dc/dcmitype/StillImage" />
        <dc:title />
      </cc:Work>
    </rdf:RDF>
  </metadata>
  <defs
     id="defs8" />
  <sodipodi:namedview
     pagecolor="#ffffff"
     bordercolor="#666666"
     borderopacity="1"
     objecttolerance="10"
     gridtolerance="10"
     guidetolerance="10"
     inkscape:pageopacity="0"
     inkscape:pageshadow="2"
     inkscape:window-width="1138"
     inkscape:window-height="480"
     id="namedview6"
     showgrid="false"
     inkscape:zoom="4.9166667"
     inkscape:cx="2.1355932"
     inkscape:cy="24"
     inkscape:window-x="0"
     inkscape:window-y="25"
     inkscape:window-maximized="0"
     inkscape:current-layer="svg4"
     inkscape:showpageshadow="0"
     inkscape:pagecheckerboard="0"
     inkscape:deskcolor="#d1d1d1" />
  <path
     d="M 0.90300002,1.3160706e-7 A 0.903,0.903 0 0 0 2.1934509e-8,0.90300013 V 7.0390001 c 0,0.504 0.419999998065491,0.903 0.902999998065491,0.903 H 3.173 v 1.092 H 1.07 v 0.84 h 7.838 v -0.84 H 6.744 v -1.113 h 2.207 a 0.903,0.903 0 0 0 0.903,-0.904 V 0.90300013 A 0.903,0.903 0 0 0 8.951,1.3160706e-7 Z M 1.597,0.88200013 H 8.32 A 0.693,0.693 0 0 1 9.014,1.5750001 v 4.77 a 0.693,0.693 0 0 1 -0.694,0.694 H 1.597 a 0.693,0.693 0 0 1 -0.69399998,-0.694 v -4.77 A 0.693,0.693 0 0 1 1.597,0.88200013 Z M 2.843,1.6620001 a 0.297,0.297 0 0 0 -0.297,0.299 v 3.572 c 0,0.165 0.133,0.298 0.297,0.298 h 4.168 a 0.297,0.297 0 0 0 0.297,-0.298 v -3.573 a 0.297,0.297 0 0 0 -0.297,-0.298 z m 0,0.968 h 4.168 c 0.04,0 0.074,0.034 0.074,0.075 v 2.828 a 0.074,0.074 0 0 1 -0.074,0.074 H 2.843 a 0.074,0.074 0 0 1 -0.074,-0.074 v -2.829 c 0,-0.04 0.033,-0.074 0.074,-0.074 z"
     class="ColorScheme-Text"
     id="path2"
     inkscape:connector-curvature="0"
     style="fill:#bde6fb;fill-opacity:1;stroke-width:2.101" />
</svg>
