<?xml version="1.0" encoding="UTF-8" standalone="no"?>
<svg
   width="41.574806"
   height="29.824251"
   viewBox="0 0 11.000001 7.8909998"
   version="1.1"
   id="svg4"
   sodipodi:docname="osd-sbs-sright.svg"
   inkscape:version="0.92.4 (5da689c313, 2019-01-14)"
   xmlns:inkscape="http://www.inkscape.org/namespaces/inkscape"
   xmlns:sodipodi="http://sodipodi.sourceforge.net/DTD/sodipodi-0.dtd"
   xmlns="http://www.w3.org/2000/svg"
   xmlns:svg="http://www.w3.org/2000/svg"
   xmlns:rdf="http://www.w3.org/1999/02/22-rdf-syntax-ns#"
   xmlns:cc="http://creativecommons.org/ns#"
   xmlns:dc="http://purl.org/dc/elements/1.1/">
  <metadata
     id="metadata10">
    <rdf:RDF>
      <cc:Work
         rdf:about="">
        <dc:format>image/svg+xml</dc:format>
        <dc:type
           rdf:resource="http://purl.org/dc/dcmitype/StillImage" />
        <dc:title />
      </cc:Work>
    </rdf:RDF>
  </metadata>
  <defs
     id="defs8" />
  <sodipodi:namedview
     pagecolor="#ffffff"
     bordercolor="#666666"
     borderopacity="1"
     objecttolerance="10"
     gridtolerance="10"
     guidetolerance="10"
     inkscape:pageopacity="0"
     inkscape:pageshadow="2"
     inkscape:window-width="1138"
     inkscape:window-height="480"
     id="namedview6"
     showgrid="false"
     inkscape:zoom="4.9166667"
     inkscape:cx="24"
     inkscape:cy="24"
     inkscape:window-x="0"
     inkscape:window-y="25"
     inkscape:window-maximized="0"
     inkscape:current-layer="svg4"
     inkscape:showpageshadow="0"
     inkscape:pagecheckerboard="0"
     inkscape:deskcolor="#d1d1d1" />
  <path
     class="ColorScheme-Text"
     d="M 0.72100069,-4.3869019e-8 A 0.722,0.722 0 0 0 6.9141388e-7,0.72299996 V 5.625 C 6.9141388e-7,6.028 0.33500069,6.347 0.72100069,6.347 H 2.5340007 V 7.22 H 0.85600069 V 7.891 H 10.244001 V 7.22 H 8.5160007 V 6.33 h 1.7630003 a 0.722,0.722 0 0 0 0.721,-0.722 V 0.72299996 A 0.722,0.722 0 0 0 10.279001,-4.3869019e-8 H 7.1520007 Z M 1.2760007,0.70599996 h 5.372 A 0.554,0.554 0 0 1 7.2020007,1.259 v 3.812 a 0.554,0.554 0 0 1 -0.554,0.554 h -5.372 A 0.554,0.554 0 0 1 0.72100069,5.071 V 1.259 A 0.554,0.554 0 0 1 1.2760007,0.70599996 Z m 6.597,0 h 1.901 A 0.554,0.554 0 0 1 10.329001,1.26 V 5.07 A 0.554,0.554 0 0 1 9.7740007,5.625 h -1.901 a 0.722,0.722 0 0 0 0,-0.017 V 0.72299996 a 0.722,0.722 0 0 0 0,-0.017 z M 4.1080007,1.242 a 0.272,0.272 0 0 0 -0.273,0.274 V 4.79 c 0,0.151 0.122,0.273 0.273,0.273 h 2.716 V 4.858 h -2.716 a 0.068,0.068 0 0 1 -0.068,-0.068 V 2.196 c 0,-0.037 0.03,-0.068 0.068,-0.068 h 2.716 V 1.241 Z m 4.133,0 v 0.887 h 1.105 c 0.037,0 0.068,0.031 0.068,0.069 V 4.79 a 0.068,0.068 0 0 1 -0.068,0.068 h -1.105 v 0.205 h 1.105 a 0.272,0.272 0 0 0 0.273,-0.273 V 1.515 a 0.272,0.272 0 0 0 -0.273,-0.273 z m -2.851,5.104 h 0.272 v 0.873 h -0.272 z"
     id="path2"
     inkscape:connector-curvature="0"
     style="fill:#bde6fb;fill-opacity:1;stroke-width:1.679" />
</svg>
