<?xml version="1.0" encoding="UTF-8" standalone="no"?>
<svg
   width="41.574806"
   height="29.824251"
   viewBox="0 0 11.000001 7.8909998"
   version="1.1"
   id="svg4"
   sodipodi:docname="osd-sbs-left.svg"
   inkscape:version="0.92.4 (5da689c313, 2019-01-14)"
   xmlns:inkscape="http://www.inkscape.org/namespaces/inkscape"
   xmlns:sodipodi="http://sodipodi.sourceforge.net/DTD/sodipodi-0.dtd"
   xmlns="http://www.w3.org/2000/svg"
   xmlns:svg="http://www.w3.org/2000/svg"
   xmlns:rdf="http://www.w3.org/1999/02/22-rdf-syntax-ns#"
   xmlns:cc="http://creativecommons.org/ns#"
   xmlns:dc="http://purl.org/dc/elements/1.1/">
  <metadata
     id="metadata10">
    <rdf:RDF>
      <cc:Work
         rdf:about="">
        <dc:format>image/svg+xml</dc:format>
        <dc:type
           rdf:resource="http://purl.org/dc/dcmitype/StillImage" />
        <dc:title />
      </cc:Work>
    </rdf:RDF>
  </metadata>
  <defs
     id="defs8" />
  <sodipodi:namedview
     pagecolor="#ffffff"
     bordercolor="#666666"
     borderopacity="1"
     objecttolerance="10"
     gridtolerance="10"
     guidetolerance="10"
     inkscape:pageopacity="0"
     inkscape:pageshadow="2"
     inkscape:window-width="1138"
     inkscape:window-height="480"
     id="namedview6"
     showgrid="false"
     inkscape:zoom="4.9166667"
     inkscape:cx="2.1355932"
     inkscape:cy="24"
     inkscape:window-x="0"
     inkscape:window-y="25"
     inkscape:window-maximized="0"
     inkscape:current-layer="svg4"
     inkscape:showpageshadow="0"
     inkscape:pagecheckerboard="0"
     inkscape:deskcolor="#d1d1d1" />
  <path
     class="ColorScheme-Text"
     d="M 10.279001,-4.3869019e-8 A 0.722,0.722 0 0 1 11.000001,0.72299996 V 5.625 a 0.727,0.727 0 0 1 -0.721,0.722 H 8.4660007 V 7.22 H 10.144001 V 7.891 H 0.75600069 V 7.22 H 2.4840007 V 6.33 H 0.72100069 A 0.722,0.722 0 0 1 6.9141388e-7,5.608 V 0.72299996 A 0.722,0.722 0 0 1 0.72100069,-4.3869019e-8 H 3.8480007 Z M 9.7240007,0.70599996 h -5.372 A 0.554,0.554 0 0 0 3.7980007,1.259 v 3.812 a 0.554,0.554 0 0 0 0.554,0.554 h 5.372 A 0.554,0.554 0 0 0 10.279001,5.071 V 1.259 A 0.554,0.554 0 0 0 9.7240007,0.70599996 Z m -6.597,0 h -1.901 A 0.554,0.554 0 0 0 0.67100069,1.26 V 5.07 A 0.554,0.554 0 0 0 1.2260007,5.625 h 1.901 a 0.722,0.722 0 0 1 0,-0.017 V 0.72299996 a 0.722,0.722 0 0 1 0,-0.017 z M 6.8920007,1.242 a 0.272,0.272 0 0 1 0.273,0.274 V 4.79 a 0.273,0.273 0 0 1 -0.273,0.273 h -2.716 V 4.858 h 2.716 a 0.068,0.068 0 0 0 0.068,-0.068 V 2.196 a 0.069,0.069 0 0 0 -0.068,-0.068 h -2.716 V 1.241 Z m -4.134,0 v 0.887 h -1.104 a 0.069,0.069 0 0 0 -0.068,0.069 V 4.79 a 0.068,0.068 0 0 0 0.068,0.068 h 1.104 v 0.205 h -1.104 a 0.272,0.272 0 0 1 -0.273,-0.273 V 1.515 a 0.272,0.272 0 0 1 0.273,-0.273 z m 2.853,5.104 h -0.272 v 0.873 h 0.272 z"
     id="path2"
     inkscape:connector-curvature="0"
     style="fill:#bde6fb;fill-opacity:1;stroke-width:1.679" />
</svg>
