<?xml version="1.0" encoding="UTF-8" standalone="no"?>
<svg
   width="37.243465"
   height="37.319054"
   viewBox="0 0 9.8540002 9.8739996"
   version="1.1"
   id="svg4"
   sodipodi:docname="osd-rotate-cw.svg"
   inkscape:version="0.92.4 (5da689c313, 2019-01-14)"
   xmlns:inkscape="http://www.inkscape.org/namespaces/inkscape"
   xmlns:sodipodi="http://sodipodi.sourceforge.net/DTD/sodipodi-0.dtd"
   xmlns="http://www.w3.org/2000/svg"
   xmlns:svg="http://www.w3.org/2000/svg"
   xmlns:rdf="http://www.w3.org/1999/02/22-rdf-syntax-ns#"
   xmlns:cc="http://creativecommons.org/ns#"
   xmlns:dc="http://purl.org/dc/elements/1.1/">
  <metadata
     id="metadata10">
    <rdf:RDF>
      <cc:Work
         rdf:about="">
        <dc:format>image/svg+xml</dc:format>
        <dc:type
           rdf:resource="http://purl.org/dc/dcmitype/StillImage" />
        <dc:title />
      </cc:Work>
    </rdf:RDF>
  </metadata>
  <defs
     id="defs8" />
  <sodipodi:namedview
     pagecolor="#ffffff"
     bordercolor="#666666"
     borderopacity="1"
     objecttolerance="10"
     gridtolerance="10"
     guidetolerance="10"
     inkscape:pageopacity="0"
     inkscape:pageshadow="2"
     inkscape:window-width="1138"
     inkscape:window-height="480"
     id="namedview6"
     showgrid="false"
     inkscape:zoom="4.9166667"
     inkscape:cx="2.1355932"
     inkscape:cy="24"
     inkscape:window-x="0"
     inkscape:window-y="25"
     inkscape:window-maximized="0"
     inkscape:current-layer="svg4"
     inkscape:showpageshadow="0"
     inkscape:pagecheckerboard="0"
     inkscape:deskcolor="#d1d1d1" />
  <path
     d="M 8.9510005,1.3160706e-7 A 0.903,0.903 0 0 1 9.8540005,0.90300013 V 7.0390001 a 0.91,0.91 0 0 1 -0.903,0.903 h -2.27 v 1.092 h 2.102 v 0.84 h -7.838 v -0.84 h 2.164 v -1.113 h -2.206 A 0.903,0.903 0 0 1 4.9877167e-7,7.0170001 V 0.90300013 A 0.903,0.903 0 0 1 0.9030005,1.3160706e-7 Z M 8.2570005,0.88200013 h -6.723 a 0.693,0.693 0 0 0 -0.694,0.69299997 v 4.77 a 0.693,0.693 0 0 0 0.694,0.694 h 6.723 a 0.693,0.693 0 0 0 0.694,-0.694 v -4.77 a 0.693,0.693 0 0 0 -0.694,-0.69299997 z m -3.648,0.82999997 a 2.641,2.645 0 0 1 2.492,1.79 l 0.122,-0.045 0.663,-0.245 -0.633,1.369 -1.366,-0.634 0.668,-0.246 0.15,-0.055 a 2.219,2.222 0 0 0 -2.095,-1.512 2.219,2.222 0 0 0 -2.22,2.222 2.219,2.222 0 0 0 1.054,1.887 l -0.274,0.33 a 2.641,2.645 0 0 1 -1.202,-2.216 2.641,2.645 0 0 1 2.64,-2.645 z"
     class="ColorScheme-Text"
     id="path2"
     inkscape:connector-curvature="0"
     style="fill:#bde6fb;fill-opacity:1;stroke-width:2.101" />
</svg>
