<?xml version="1.0" encoding="UTF-8" standalone="no"?>
<svg
   width="19.162205"
   height="16.251966"
   viewBox="0 0 5.07 4.2999995"
   version="1.1"
   id="svg4"
   sodipodi:docname="printer-printing.svg"
   inkscape:version="0.92.4 (5da689c313, 2019-01-14)"
   xmlns:inkscape="http://www.inkscape.org/namespaces/inkscape"
   xmlns:sodipodi="http://sodipodi.sourceforge.net/DTD/sodipodi-0.dtd"
   xmlns="http://www.w3.org/2000/svg"
   xmlns:svg="http://www.w3.org/2000/svg"
   xmlns:rdf="http://www.w3.org/1999/02/22-rdf-syntax-ns#"
   xmlns:cc="http://creativecommons.org/ns#"
   xmlns:dc="http://purl.org/dc/elements/1.1/">
  <metadata
     id="metadata10">
    <rdf:RDF>
      <cc:Work
         rdf:about="">
        <dc:format>image/svg+xml</dc:format>
        <dc:type
           rdf:resource="http://purl.org/dc/dcmitype/StillImage" />
        <dc:title />
      </cc:Work>
    </rdf:RDF>
  </metadata>
  <defs
     id="defs8" />
  <sodipodi:namedview
     pagecolor="#ffffff"
     bordercolor="#666666"
     borderopacity="1"
     objecttolerance="10"
     gridtolerance="10"
     guidetolerance="10"
     inkscape:pageopacity="0"
     inkscape:pageshadow="2"
     inkscape:window-width="1085"
     inkscape:window-height="480"
     id="namedview6"
     showgrid="false"
     inkscape:zoom="9.8333333"
     inkscape:cx="1.0677966"
     inkscape:cy="12"
     inkscape:window-x="0"
     inkscape:window-y="25"
     inkscape:window-maximized="0"
     inkscape:current-layer="svg4"
     inkscape:showpageshadow="0"
     inkscape:pagecheckerboard="0"
     inkscape:deskcolor="#d1d1d1" />
  <path
     d="M 1.09,1.9073486e-8 V 0.72000002 h 2.9 V 1.9073486e-8 Z M 0.36000001,1.08 A 0.39,0.39 0 0 0 1.4305115e-8,1.44 V 2.89 C 1.4305115e-8,3.07 0.18000001,3.25 0.36000001,3.25 h 0.36 V 2.52 H 1.09 V 4.3 h 2.9 V 2.53 H 4.35 V 3.26 H 4.71 C 4.89,3.26 5.07,3.08 5.07,2.9 V 1.45 A 0.39,0.39 0 0 0 4.71,1.09 Z M 1.41,2.52 H 3.66 V 3.99 H 1.41 Z m 0.3,0.36 0.82,0.83 0.83,-0.83 z"
     id="path2"
     inkscape:connector-curvature="0"
     style="fill:#bde6fb;fill-opacity:1" />
</svg>
