<?xml version="1.0" encoding="UTF-8" standalone="no"?>
<svg
   height="22"
   width="18.38509"
   version="1.1"
   id="svg6"
   sodipodi:docname="security-low.svg"
   inkscape:version="0.92.4 (5da689c313, 2019-01-14)"
   xmlns:inkscape="http://www.inkscape.org/namespaces/inkscape"
   xmlns:sodipodi="http://sodipodi.sourceforge.net/DTD/sodipodi-0.dtd"
   xmlns="http://www.w3.org/2000/svg"
   xmlns:svg="http://www.w3.org/2000/svg"
   xmlns:rdf="http://www.w3.org/1999/02/22-rdf-syntax-ns#"
   xmlns:cc="http://creativecommons.org/ns#"
   xmlns:dc="http://purl.org/dc/elements/1.1/">
  <metadata
     id="metadata12">
    <rdf:RDF>
      <cc:Work
         rdf:about="">
        <dc:format>image/svg+xml</dc:format>
        <dc:type
           rdf:resource="http://purl.org/dc/dcmitype/StillImage" />
        <dc:title />
      </cc:Work>
    </rdf:RDF>
  </metadata>
  <defs
     id="defs10" />
  <sodipodi:namedview
     pagecolor="#ffffff"
     bordercolor="#666666"
     borderopacity="1"
     objecttolerance="10"
     gridtolerance="10"
     guidetolerance="10"
     inkscape:pageopacity="0"
     inkscape:pageshadow="2"
     inkscape:window-width="1085"
     inkscape:window-height="480"
     id="namedview8"
     showgrid="false"
     inkscape:zoom="9.8333333"
     inkscape:cx="1.0677966"
     inkscape:cy="12"
     inkscape:window-x="0"
     inkscape:window-y="25"
     inkscape:window-maximized="0"
     inkscape:current-layer="svg6"
     inkscape:showpageshadow="0"
     inkscape:pagecheckerboard="0"
     inkscape:deskcolor="#d1d1d1" />
  <path
     d="m 9.1925447,0 c -4.73,0.88 -4.6,3.52 -9,4 -1.14,10.68 2.9,15.5 9,18 6.1000003,-2.5 10.1400003,-7.32 9.0000003,-18 -4.4,-0.48 -4.27,-3.13 -9.0000003,-4 z"
     id="path2"
     inkscape:connector-curvature="0"
     style="fill:#bde6fb;fill-opacity:0.301961" />
  <path
     d="m 9.1925447,4.37 c 0.74,0 1.3300003,0.59 1.3300003,1.32 v 6.66 a 1.33,1.33 0 0 1 -2.6600003,0 V 5.7 c 0,-0.74 0.6,-1.33 1.33,-1.33 z m 0,10.61 a 1.33,1.33 0 0 1 1.3300003,1.32 1.33,1.33 0 0 1 -1.3300003,1.33 1.33,1.33 0 0 1 -1.33,-1.32 1.33,1.33 0 0 1 1.33,-1.34 z"
     id="path4"
     inkscape:connector-curvature="0"
     style="fill:#bde6fb;fill-opacity:1" />
</svg>
