<?xml version="1.0" encoding="UTF-8" standalone="no"?>
<svg
   width="15.207"
   height="16.5"
   version="1"
   id="svg4"
   sodipodi:docname="smartphonedisconnected.svg"
   inkscape:version="0.92.4 (5da689c313, 2019-01-14)"
   xmlns:inkscape="http://www.inkscape.org/namespaces/inkscape"
   xmlns:sodipodi="http://sodipodi.sourceforge.net/DTD/sodipodi-0.dtd"
   xmlns="http://www.w3.org/2000/svg"
   xmlns:svg="http://www.w3.org/2000/svg"
   xmlns:rdf="http://www.w3.org/1999/02/22-rdf-syntax-ns#"
   xmlns:cc="http://creativecommons.org/ns#"
   xmlns:dc="http://purl.org/dc/elements/1.1/">
  <metadata
     id="metadata10">
    <rdf:RDF>
      <cc:Work
         rdf:about="">
        <dc:format>image/svg+xml</dc:format>
        <dc:type
           rdf:resource="http://purl.org/dc/dcmitype/StillImage" />
        <dc:title />
      </cc:Work>
    </rdf:RDF>
  </metadata>
  <defs
     id="defs8" />
  <sodipodi:namedview
     pagecolor="#ffffff"
     bordercolor="#666666"
     borderopacity="1"
     objecttolerance="10"
     gridtolerance="10"
     guidetolerance="10"
     inkscape:pageopacity="0"
     inkscape:pageshadow="2"
     inkscape:window-width="1138"
     inkscape:window-height="480"
     id="namedview6"
     showgrid="false"
     inkscape:zoom="9.8333333"
     inkscape:cx="1.0677966"
     inkscape:cy="12"
     inkscape:window-x="0"
     inkscape:window-y="25"
     inkscape:window-maximized="0"
     inkscape:current-layer="svg4"
     inkscape:showpageshadow="0"
     inkscape:pagecheckerboard="0"
     inkscape:deskcolor="#d1d1d1" />
  <path
     d="M 2.1839998,5.7220459e-8 C 0.97999978,5.7220459e-8 -2.2125244e-7,1.0100001 -2.2125244e-7,2.2500001 V 14.25 c 0,1.24 0.98000000125244,2.25 2.18400002125244,2.25 h 5.826 c 0.605,0 1.152,-0.257 1.549,-0.668 A 4,4 0 0 0 11.207,16.19 a 4,4 0 0 0 4,-4 4,4 0 0 0 -4,-3.9999999 4,4 0 0 0 -1.012,0.133 v -6.073 C 10.195,1.0090001 9.2149998,5.7220459e-8 8.0099998,5.7220459e-8 Z M 1.2749998,2.2500001 h 7.645 v 6.665 a 4,4 0 0 0 -1.713,3.2749999 4,4 0 0 0 0.043,0.559 h -5.975 z m 7.932,7.9399999 h 0.707 L 11.207,11.483 12.5,10.19 h 0.707 v 0.707 l -1.293,1.293 1.293,1.293 V 14.19 H 12.5 L 11.207,12.897 9.9139998,14.19 h -0.707 V 13.483 L 10.5,12.19 9.2069998,10.897 Z m -5.566,4.059 h 2.914 v 0.748 h -2.914 z"
     id="path2"
     inkscape:connector-curvature="0"
     style="fill:#bde6fb;fill-opacity:1;stroke-width:1.872" />
</svg>
