<?xml version="1.0" encoding="UTF-8" standalone="no"?>
<svg
   width="23.546001"
   height="23.542999"
   version="1"
   id="svg4"
   sodipodi:docname="smartphonetrusted.svg"
   inkscape:version="0.92.4 (5da689c313, 2019-01-14)"
   xmlns:inkscape="http://www.inkscape.org/namespaces/inkscape"
   xmlns:sodipodi="http://sodipodi.sourceforge.net/DTD/sodipodi-0.dtd"
   xmlns="http://www.w3.org/2000/svg"
   xmlns:svg="http://www.w3.org/2000/svg"
   xmlns:rdf="http://www.w3.org/1999/02/22-rdf-syntax-ns#"
   xmlns:cc="http://creativecommons.org/ns#"
   xmlns:dc="http://purl.org/dc/elements/1.1/">
  <metadata
     id="metadata10">
    <rdf:RDF>
      <cc:Work
         rdf:about="">
        <dc:format>image/svg+xml</dc:format>
        <dc:type
           rdf:resource="http://purl.org/dc/dcmitype/StillImage" />
        <dc:title />
      </cc:Work>
    </rdf:RDF>
  </metadata>
  <defs
     id="defs8" />
  <sodipodi:namedview
     pagecolor="#ffffff"
     bordercolor="#666666"
     borderopacity="1"
     objecttolerance="10"
     gridtolerance="10"
     guidetolerance="10"
     inkscape:pageopacity="0"
     inkscape:pageshadow="2"
     inkscape:window-width="1138"
     inkscape:window-height="480"
     id="namedview6"
     showgrid="false"
     inkscape:zoom="9.8333333"
     inkscape:cx="1.0677966"
     inkscape:cy="12"
     inkscape:window-x="0"
     inkscape:window-y="25"
     inkscape:window-maximized="0"
     inkscape:current-layer="svg4"
     inkscape:showpageshadow="0"
     inkscape:pagecheckerboard="0"
     inkscape:deskcolor="#d1d1d1" />
  <path
     d="M 11.773,0 V 9.9999785e-4 A 11.773,11.773 0 0 0 0,11.773 11.773,11.773 0 0 0 11.773,23.543 11.773,11.773 0 0 0 23.546,11.771 11.773,11.773 0 0 0 11.773,0 Z M 8.75,3.581 h 5.826 c 1.205,0 2.185,1.009 2.185,2.25 v 11.998 c 0,1.24 -0.98,2.25 -2.185,2.25 H 8.75 c -1.204,0 -2.184,-1.01 -2.184,-2.25 V 5.831 c 0,-1.241 0.98,-2.25 2.184,-2.25 z m -0.909,2.25 v 10.498 h 7.645 V 5.831 Z m 2.366,11.998 v 0.748 h 2.914 v -0.748 z"
     id="path2"
     inkscape:connector-curvature="0"
     style="fill:#bde6fb;fill-opacity:1;stroke-width:1.872" />
</svg>
