<?xml version="1.0" encoding="UTF-8" standalone="no"?>
<svg
   width="23.68"
   height="23.68"
   version="1"
   id="svg4"
   sodipodi:docname="software-update-available.svg"
   inkscape:version="0.92.4 (5da689c313, 2019-01-14)"
   xmlns:inkscape="http://www.inkscape.org/namespaces/inkscape"
   xmlns:sodipodi="http://sodipodi.sourceforge.net/DTD/sodipodi-0.dtd"
   xmlns="http://www.w3.org/2000/svg"
   xmlns:svg="http://www.w3.org/2000/svg"
   xmlns:rdf="http://www.w3.org/1999/02/22-rdf-syntax-ns#"
   xmlns:cc="http://creativecommons.org/ns#"
   xmlns:dc="http://purl.org/dc/elements/1.1/">
  <metadata
     id="metadata10">
    <rdf:RDF>
      <cc:Work
         rdf:about="">
        <dc:format>image/svg+xml</dc:format>
        <dc:type
           rdf:resource="http://purl.org/dc/dcmitype/StillImage" />
        <dc:title />
      </cc:Work>
    </rdf:RDF>
  </metadata>
  <defs
     id="defs8" />
  <sodipodi:namedview
     pagecolor="#ffffff"
     bordercolor="#666666"
     borderopacity="1"
     objecttolerance="10"
     gridtolerance="10"
     guidetolerance="10"
     inkscape:pageopacity="0"
     inkscape:pageshadow="2"
     inkscape:window-width="1085"
     inkscape:window-height="480"
     id="namedview6"
     showgrid="false"
     inkscape:zoom="9.8333333"
     inkscape:cx="1.0677966"
     inkscape:cy="12"
     inkscape:window-x="0"
     inkscape:window-y="25"
     inkscape:window-maximized="0"
     inkscape:current-layer="svg4"
     inkscape:showpageshadow="0"
     inkscape:pagecheckerboard="0"
     inkscape:deskcolor="#d1d1d1" />
  <path
     d="M 11.84,0 A 11.84,11.84 0 0 0 0,11.84 11.84,11.84 0 0 0 11.84,23.68 11.84,11.84 0 0 0 23.68,11.84 11.84,11.84 0 0 0 11.84,0 Z M 11.3,1.78 8.74,4.34 H 5.04 A 10.18,10.18 0 0 1 11.3,1.78 Z m 1.19,0.01 a 10.18,10.18 0 0 1 6.08,2.55 h -3.53 z m -8.21,3.3 v 3.7 L 1.64,11.44 A 10.18,10.18 0 0 1 4.27,5.11 Z M 19.4,5.17 a 10.18,10.18 0 0 1 2.56,6.1 L 19.4,8.71 Z M 9.34,7.39 h 4.9 v 4.53 h 3.86 l -6.3,6.29 -6.3,-6.3 H 9.34 V 7.4 Z m 12.62,4.92 a 10.18,10.18 0 0 1 -2.57,6.4 v -3.83 z m -20.33,0.02 2.64,2.64 v 3.82 A 10.18,10.18 0 0 1 1.63,12.33 Z m 3.18,7 h 3.83 l 2.77,2.78 a 10.18,10.18 0 0 1 -6.6,-2.78 z m 10.12,0 h 3.86 a 10.18,10.18 0 0 1 -6.63,2.78 z"
     id="path2"
     inkscape:connector-curvature="0"
     style="fill:#bde6fb;fill-opacity:1" />
</svg>
