<?xml version="1.0" encoding="UTF-8" standalone="no"?>
<svg
   width="23.68"
   height="23.68"
   version="1"
   id="svg4"
   sodipodi:docname="software-update-urgent.svg"
   inkscape:version="0.92.4 (5da689c313, 2019-01-14)"
   xmlns:inkscape="http://www.inkscape.org/namespaces/inkscape"
   xmlns:sodipodi="http://sodipodi.sourceforge.net/DTD/sodipodi-0.dtd"
   xmlns="http://www.w3.org/2000/svg"
   xmlns:svg="http://www.w3.org/2000/svg"
   xmlns:rdf="http://www.w3.org/1999/02/22-rdf-syntax-ns#"
   xmlns:cc="http://creativecommons.org/ns#"
   xmlns:dc="http://purl.org/dc/elements/1.1/">
  <metadata
     id="metadata10">
    <rdf:RDF>
      <cc:Work
         rdf:about="">
        <dc:format>image/svg+xml</dc:format>
        <dc:type
           rdf:resource="http://purl.org/dc/dcmitype/StillImage" />
        <dc:title />
      </cc:Work>
    </rdf:RDF>
  </metadata>
  <defs
     id="defs8" />
  <sodipodi:namedview
     pagecolor="#ffffff"
     bordercolor="#666666"
     borderopacity="1"
     objecttolerance="10"
     gridtolerance="10"
     guidetolerance="10"
     inkscape:pageopacity="0"
     inkscape:pageshadow="2"
     inkscape:window-width="1085"
     inkscape:window-height="480"
     id="namedview6"
     showgrid="false"
     inkscape:zoom="9.8333333"
     inkscape:cx="1.0677966"
     inkscape:cy="12"
     inkscape:window-x="0"
     inkscape:window-y="25"
     inkscape:window-maximized="0"
     inkscape:current-layer="svg4"
     inkscape:showpageshadow="0"
     inkscape:pagecheckerboard="0"
     inkscape:deskcolor="#d1d1d1" />
  <path
     d="M 11.84,0 A 11.84,11.84 0 0 0 0,11.84 a 11.84,11.84 0 0 0 11.84,11.84 11.84,11.84 0 0 0 4.01,-0.71 5.02,4.99 0 0 1 -0.04,-0.04 5.02,4.99 0 0 1 -0.34,-0.36 5.02,4.99 0 0 1 -0.3,-0.4 5.02,4.99 0 0 1 -0.27,-0.42 5.02,4.99 0 0 1 -0.05,-0.12 10.18,10.18 0 0 1 -2.69,0.48 l 2.17,-2.17 a 5.02,4.99 0 0 1 -0.02,-0.08 5.02,4.99 0 0 1 -0.02,-0.5 5.02,4.99 0 0 1 0.01,-0.36 5.02,4.99 0 0 1 0.06,-0.5 5.02,4.99 0 0 1 0.11,-0.48 5.02,4.99 0 0 1 0.16,-0.47 5.02,4.99 0 0 1 0.2,-0.46 5.02,4.99 0 0 1 0.26,-0.43 5.02,4.99 0 0 1 0.29,-0.4 5.02,4.99 0 0 1 0.33,-0.38 5.02,4.99 0 0 1 0.37,-0.34 5.02,4.99 0 0 1 0.4,-0.3 5.02,4.99 0 0 1 0.42,-0.26 5.02,4.99 0 0 1 0.46,-0.22 5.02,4.99 0 0 1 0.47,-0.17 5.02,4.99 0 0 1 0.48,-0.12 5.02,4.99 0 0 1 0.5,-0.07 5.02,4.99 0 0 1 0.5,-0.03 5.02,4.99 0 0 1 0.36,0.01 5.02,4.99 0 0 1 0.2,0.03 l 2.09,-2.1 a 10.18,10.18 0 0 1 -0.44,2.57 5.02,4.99 0 0 1 0.07,0.03 5.02,4.99 0 0 1 0.44,0.25 5.02,4.99 0 0 1 0.4,0.3 5.02,4.99 0 0 1 0.38,0.32 5.02,4.99 0 0 1 0.13,0.14 11.84,11.84 0 0 0 0.74,-4.08 A 11.84,11.84 0 0 0 11.84,0 Z M 11.3,1.78 8.74,4.34 H 5.04 A 10.18,10.18 0 0 1 11.3,1.78 Z m 1.19,0 a 10.18,10.18 0 0 1 6.08,2.56 H 15.04 L 12.49,1.79 Z M 4.28,5.1 V 8.8 L 1.64,11.44 A 10.18,10.18 0 0 1 4.27,5.11 V 5.09 Z M 19.4,5.18 a 10.18,10.18 0 0 1 2.56,6.1 L 19.4,8.72 V 5.17 Z M 9.34,7.39 h 4.9 v 4.53 h 3.86 l -6.3,6.29 -6.3,-6.3 h 3.84 z m -7.71,4.95 2.64,2.64 V 18.8 A 10.18,10.18 0 0 1 1.63,12.34 Z m 17.68,3.03 a 4.02,4 0 0 0 -4.02,4 4.02,4 0 0 0 4.02,3.99 4.02,4 0 0 0 4.02,-4 4.02,4 0 0 0 -4.02,-3.99 z m 0.01,1.25 a 0.41,0.41 0 0 1 0.42,0.42 v 3.4 a 0.41,0.41 0 1 1 -0.82,0 v -3.4 a 0.41,0.41 0 0 1 0.4,-0.42 z m -14.5,2.72 h 3.82 l 2.77,2.78 a 10.18,10.18 0 0 1 -6.6,-2.78 z m 14.5,1.97 a 0.42,0.42 0 1 1 0,0.84 0.42,0.42 0 1 1 0,-0.84 z m -0.01,0.49 a 0.52,0.52 0 0 1 0.02,0 0.52,0.52 0 0 0 -0.02,0 z"
     id="path2"
     inkscape:connector-curvature="0"
     style="fill:#bde6fb;fill-opacity:1" />
</svg>
