<?xml version="1.0" encoding="UTF-8" standalone="no"?>
<svg
   width="15.263"
   height="11.101"
   version="1"
   id="svg4"
   sodipodi:docname="tabletconnected.svg"
   inkscape:version="0.92.4 (5da689c313, 2019-01-14)"
   xmlns:inkscape="http://www.inkscape.org/namespaces/inkscape"
   xmlns:sodipodi="http://sodipodi.sourceforge.net/DTD/sodipodi-0.dtd"
   xmlns="http://www.w3.org/2000/svg"
   xmlns:svg="http://www.w3.org/2000/svg"
   xmlns:rdf="http://www.w3.org/1999/02/22-rdf-syntax-ns#"
   xmlns:cc="http://creativecommons.org/ns#"
   xmlns:dc="http://purl.org/dc/elements/1.1/">
  <metadata
     id="metadata10">
    <rdf:RDF>
      <cc:Work
         rdf:about="">
        <dc:format>image/svg+xml</dc:format>
        <dc:type
           rdf:resource="http://purl.org/dc/dcmitype/StillImage" />
        <dc:title />
      </cc:Work>
    </rdf:RDF>
  </metadata>
  <defs
     id="defs8" />
  <sodipodi:namedview
     pagecolor="#ffffff"
     bordercolor="#666666"
     borderopacity="1"
     objecttolerance="10"
     gridtolerance="10"
     guidetolerance="10"
     inkscape:pageopacity="0"
     inkscape:pageshadow="2"
     inkscape:window-width="1138"
     inkscape:window-height="480"
     id="namedview6"
     showgrid="false"
     inkscape:zoom="9.8333333"
     inkscape:cx="1.0677966"
     inkscape:cy="12"
     inkscape:window-x="0"
     inkscape:window-y="25"
     inkscape:window-maximized="0"
     inkscape:current-layer="svg4"
     inkscape:showpageshadow="0"
     inkscape:pagecheckerboard="0"
     inkscape:deskcolor="#d1d1d1" />
  <path
     d="M 1.3870001,0.00100022 A 1.389,1.389 0 0 0 1.0299683e-7,1.3900002 v 8.324 C 1.0299683e-7,10.481 0.6210001,11.101 1.3880001,11.101 H 13.873 c 0.767,0 1.383,-0.622 1.383,-1.3869998 l 0.007,-8.324 A 1.389,1.389 0 0 0 13.875,2.1743774e-7 H 1.3880001 Z m 1.388,1.38899998 H 12.488 v 8.324 H 2.7750001 Z m -1.61,2.907 h 0.003 c 0.187,0 0.338,0.15 0.338,0.338 v 1.76 a 0.338,0.338 0 1 1 -0.676,0 v -1.76 c 0,-0.188 0.149,-0.338 0.336,-0.338 z"
     id="path2"
     inkscape:connector-curvature="0"
     style="fill:#bde6fb;fill-opacity:1;stroke-width:1.872" />
</svg>
