<?xml version="1.0" encoding="UTF-8" standalone="no"?>
<svg
   width="23.546001"
   height="23.542999"
   version="1"
   id="svg4"
   sodipodi:docname="tablettrusted.svg"
   inkscape:version="0.92.4 (5da689c313, 2019-01-14)"
   xmlns:inkscape="http://www.inkscape.org/namespaces/inkscape"
   xmlns:sodipodi="http://sodipodi.sourceforge.net/DTD/sodipodi-0.dtd"
   xmlns="http://www.w3.org/2000/svg"
   xmlns:svg="http://www.w3.org/2000/svg"
   xmlns:rdf="http://www.w3.org/1999/02/22-rdf-syntax-ns#"
   xmlns:cc="http://creativecommons.org/ns#"
   xmlns:dc="http://purl.org/dc/elements/1.1/">
  <metadata
     id="metadata10">
    <rdf:RDF>
      <cc:Work
         rdf:about="">
        <dc:format>image/svg+xml</dc:format>
        <dc:type
           rdf:resource="http://purl.org/dc/dcmitype/StillImage" />
        <dc:title />
      </cc:Work>
    </rdf:RDF>
  </metadata>
  <defs
     id="defs8" />
  <sodipodi:namedview
     pagecolor="#ffffff"
     bordercolor="#666666"
     borderopacity="1"
     objecttolerance="10"
     gridtolerance="10"
     guidetolerance="10"
     inkscape:pageopacity="0"
     inkscape:pageshadow="2"
     inkscape:window-width="1138"
     inkscape:window-height="480"
     id="namedview6"
     showgrid="false"
     inkscape:zoom="9.8333333"
     inkscape:cx="1.0677966"
     inkscape:cy="12"
     inkscape:window-x="0"
     inkscape:window-y="25"
     inkscape:window-maximized="0"
     inkscape:current-layer="svg4"
     inkscape:showpageshadow="0"
     inkscape:pagecheckerboard="0"
     inkscape:deskcolor="#d1d1d1" />
  <path
     d="M 11.773,0 V 9.9999785e-4 A 11.773,11.773 0 0 0 0,11.773 11.773,11.773 0 0 0 11.773,23.543 11.773,11.773 0 0 0 23.546,11.771 11.773,11.773 0 0 0 11.773,0 Z M 5.418,5.775 h 12.488 a 1.389,1.389 0 0 1 1.388,1.389 l -0.007,8.324 c 0,0.765 -0.616,1.387 -1.383,1.387 H 5.419 c -0.767,0 -1.388,-0.62 -1.388,-1.387 V 7.164 a 1.389,1.389 0 0 1 1.387,-1.39 z m 1.388,1.389 v 8.324 h 9.713 V 7.164 Z m -1.61,2.907 a 0.336,0.336 0 0 0 -0.335,0.338 v 1.76 a 0.338,0.338 0 1 0 0.676,0 v -1.76 A 0.337,0.337 0 0 0 5.199,10.071 H 5.197 Z"
     id="path2"
     inkscape:connector-curvature="0"
     style="fill:#bde6fb;fill-opacity:1;stroke-width:1.872" />
</svg>
