<?xml version="1.0" encoding="UTF-8" standalone="no"?>
<svg
   width="48"
   height="48"
   viewBox="0 0 12.7 12.7"
   version="1.1"
   id="svg4"
   sodipodi:docname="folder-visiting.svg"
   inkscape:version="0.92.5 (2060ec1f9f, 2020-04-08)"
   xmlns:inkscape="http://www.inkscape.org/namespaces/inkscape"
   xmlns:sodipodi="http://sodipodi.sourceforge.net/DTD/sodipodi-0.dtd"
   xmlns="http://www.w3.org/2000/svg"
   xmlns:svg="http://www.w3.org/2000/svg">
  <sodipodi:namedview
     id="namedview1"
     pagecolor="#505050"
     bordercolor="#eeeeee"
     borderopacity="1"
     inkscape:showpageshadow="0"
     inkscape:pageopacity="0"
     inkscape:pagecheckerboard="0"
     inkscape:deskcolor="#d1d1d1" />
  <defs
     id="defs8">
    <style
       id="current-color-scheme"
       type="text/css">&#10;      .ColorScheme-Highlight {&#10;        color:#1e3f5a;&#10;      }&#10;  </style>
  </defs>
  <path
     class="ColorScheme-Highlight"
     style="fill:#bde6fb;fill-opacity:1;stroke-width:0.264583"
     d="M 6.3499999,0 A 6.3499999,6.3499999 0 0 0 0,6.3499999 6.3499999,6.3499999 0 0 0 6.3499999,12.7 6.3499999,6.3499999 0 0 0 12.7,6.3499999 6.3499999,6.3499999 0 0 0 6.3499999,0 Z m 0,0.79374999 A 5.5562499,5.5562499 0 0 1 11.90625,6.3499999 5.5562499,5.5562499 0 0 1 6.3499999,11.90625 5.5562499,5.5562499 0 0 1 0.79374999,6.3499999 5.5562499,5.5562499 0 0 1 6.3499999,0.79374999 Z M 2.38125,3.175 c -0.146579,0 -0.2645834,0.1180041 -0.2645834,0.2645833 v 0.79375 5.0270833 c 0,0.1465791 0.1180044,0.2645833 0.2645834,0.2645833 H 4.7624999 10.31875 c 0.146579,0 0.264583,-0.1180042 0.264583,-0.2645833 V 4.2333333 C 10.583333,4.0867541 10.465329,3.96875 10.31875,3.96875 H 5.8208333 L 5.0270833,3.175 H 4.7624999 Z m 0.5291666,0.5291666 h 1.5875 0.2645833 l 0.79375,0.79375 h 4.2333333 c 0.1465789,0 0.2645838,0.1180042 0.2645838,0.2645833 v 0.5291667 0.79375 H 5.5562499 L 4.4979166,7.1437499 H 3.4395833 C 3.2930041,7.1437499 3.175,7.2617541 3.175,7.4083332 c 0,0.1465792 0.1180041,0.2645834 0.2645833,0.2645834 h 0.79375 0.2645833 0.2645833 L 5.8208333,6.6145833 h 4.2333337 v 2.1166666 c 0,0.1465792 -0.1180049,0.2645833 -0.2645838,0.2645833 H 2.9104166 c -0.1465789,0 -0.2645833,-0.1180041 -0.2645833,-0.2645833 V 5.0270833 4.7624999 4.2333333 3.96875 c 0,-0.07329 0.029685,-0.1392452 0.077515,-0.1870687 0.04782,-0.047823 0.1137796,-0.077515 0.1870683,-0.077515 z"
     id="path829" />
</svg>
