<?xml version="1.0" encoding="UTF-8" standalone="no"?>
<svg
   width="48"
   height="48"
   viewBox="0 0 12.7 12.7"
   version="1.1"
   id="svg4"
   sodipodi:docname="folder-activities.svg"
   inkscape:version="0.92.5 (2060ec1f9f, 2020-04-08)"
   xmlns:inkscape="http://www.inkscape.org/namespaces/inkscape"
   xmlns:sodipodi="http://sodipodi.sourceforge.net/DTD/sodipodi-0.dtd"
   xmlns="http://www.w3.org/2000/svg"
   xmlns:svg="http://www.w3.org/2000/svg">
  <sodipodi:namedview
     id="namedview1"
     pagecolor="#505050"
     bordercolor="#eeeeee"
     borderopacity="1"
     inkscape:showpageshadow="0"
     inkscape:pageopacity="0"
     inkscape:pagecheckerboard="0"
     inkscape:deskcolor="#d1d1d1" />
  <defs
     id="defs8">
    <style
       id="current-color-scheme"
       type="text/css">&#10;      .ColorScheme-Highlight {&#10;        color:#1e3f5a;&#10;      }&#10;  </style>
  </defs>
  <path
     class="ColorScheme-Highlight"
     style="fill:#bde6fb;fill-opacity:1;stroke-width:0.264583"
     d="M 6.3499999,0 A 6.3499999,6.3499999 0 0 0 0,6.3499999 6.3499999,6.3499999 0 0 0 6.3499999,12.7 6.3499999,6.3499999 0 0 0 12.7,6.3499999 6.3499999,6.3499999 0 0 0 6.3499999,0 Z m 0,0.79374999 A 5.5562499,5.5562499 0 0 1 11.90625,6.3499999 5.5562499,5.5562499 0 0 1 6.3499999,11.90625 5.5562499,5.5562499 0 0 1 0.79374999,6.3499999 5.5562499,5.5562499 0 0 1 6.3499999,0.79374999 Z M 3.4395833,7.4083332 A 1.0583333,1.0583333 0 0 0 2.38125,8.4666666 1.0583333,1.0583333 0 0 0 3.4395833,9.5249999 1.0583333,1.0583333 0 0 0 4.4979166,8.4666666 1.0583333,1.0583333 0 0 0 3.4395833,7.4083332 Z m 2.9104166,0 A 1.0583333,1.0583333 0 0 0 5.2916666,8.4666666 1.0583333,1.0583333 0 0 0 6.3499999,9.5249999 1.0583333,1.0583333 0 0 0 7.4083332,8.4666666 1.0583333,1.0583333 0 0 0 6.3499999,7.4083332 Z m 2.9104167,0 A 1.0583333,1.0583333 0 0 0 8.2020832,8.4666666 1.0583333,1.0583333 0 0 0 9.2604166,9.5249999 1.0583333,1.0583333 0 0 0 10.31875,8.4666666 1.0583333,1.0583333 0 0 0 9.2604166,7.4083332 Z"
     id="path847" />
</svg>
