<?xml version="1.0" encoding="UTF-8" standalone="no"?>
<svg
   width="48"
   height="48"
   viewBox="0 0 12.7 12.7"
   version="1.1"
   id="svg4"
   sodipodi:docname="folder-video.svg"
   inkscape:version="0.92.5 (2060ec1f9f, 2020-04-08)"
   xmlns:inkscape="http://www.inkscape.org/namespaces/inkscape"
   xmlns:sodipodi="http://sodipodi.sourceforge.net/DTD/sodipodi-0.dtd"
   xmlns="http://www.w3.org/2000/svg"
   xmlns:svg="http://www.w3.org/2000/svg">
  <sodipodi:namedview
     id="namedview1"
     pagecolor="#505050"
     bordercolor="#eeeeee"
     borderopacity="1"
     inkscape:showpageshadow="0"
     inkscape:pageopacity="0"
     inkscape:pagecheckerboard="0"
     inkscape:deskcolor="#d1d1d1" />
  <defs
     id="defs8">
    <style
       id="current-color-scheme"
       type="text/css">&#10;      .ColorScheme-Highlight {&#10;        color:#1e3f5a;&#10;      }&#10;  </style>
  </defs>
  <path
     class="ColorScheme-Highlight"
     style="fill:#bde6fb;fill-opacity:1;stroke-width:0.264583"
     d="M 6.3499999,0 A 6.3499999,6.3499999 0 0 0 0,6.3499999 6.3499999,6.3499999 0 0 0 6.3499999,12.7 6.3499999,6.3499999 0 0 0 12.7,6.3499999 6.3499999,6.3499999 0 0 0 6.3499999,0 Z m 0,0.79374999 A 5.5562499,5.5562499 0 0 1 11.90625,6.3499999 5.5562499,5.5562499 0 0 1 6.3499999,11.90625 5.5562499,5.5562499 0 0 1 0.79374999,6.3499999 5.5562499,5.5562499 0 0 1 6.3499999,0.79374999 Z M 2.9104166,2.6458333 c -0.1465791,0 -0.2645833,0.1180042 -0.2645833,0.2645833 v 6.8791666 c 0,0.1465792 0.1180042,0.2645838 0.2645833,0.2645838 h 6.8791666 c 0.1465789,0 0.2645838,-0.1180046 0.2645838,-0.2645838 V 2.9104166 c 0,-0.1465791 -0.1180049,-0.2645833 -0.2645838,-0.2645833 z M 4.2333333,3.175 H 8.4666666 V 9.5249999 H 4.2333333 Z M 2.9104166,3.96875 H 3.96875 V 5.0270833 H 2.9104166 Z m 5.8208333,0 H 9.7895832 V 5.0270833 H 8.7312499 Z M 2.9104166,5.8208333 H 3.96875 V 6.8791666 H 2.9104166 Z m 5.8208333,0 H 9.7895832 V 6.8791666 H 8.7312499 Z M 2.9104166,7.6729166 H 3.96875 V 8.7312499 H 2.9104166 Z m 5.8208333,0 H 9.7895832 V 8.7312499 H 8.7312499 Z"
     id="rect968" />
</svg>
