<?xml version="1.0" encoding="UTF-8" standalone="no"?>
<svg
   width="48"
   height="48"
   viewBox="0 0 12.7 12.7"
   version="1.1"
   id="svg4"
   sodipodi:docname="folder-remote.svg"
   inkscape:version="0.92.5 (2060ec1f9f, 2020-04-08)"
   xmlns:inkscape="http://www.inkscape.org/namespaces/inkscape"
   xmlns:sodipodi="http://sodipodi.sourceforge.net/DTD/sodipodi-0.dtd"
   xmlns="http://www.w3.org/2000/svg"
   xmlns:svg="http://www.w3.org/2000/svg">
  <sodipodi:namedview
     id="namedview1"
     pagecolor="#505050"
     bordercolor="#eeeeee"
     borderopacity="1"
     inkscape:showpageshadow="0"
     inkscape:pageopacity="0"
     inkscape:pagecheckerboard="0"
     inkscape:deskcolor="#d1d1d1" />
  <defs
     id="defs8">
    <style
       id="current-color-scheme"
       type="text/css">&#10;      .ColorScheme-Highlight {&#10;        color:#1e3f5a;&#10;      }&#10;  </style>
  </defs>
  <path
     class="ColorScheme-Highlight"
     style="fill:#bde6fb;fill-opacity:1;stroke-width:0.264583"
     d="M 6.3499999,0 C 2.8429918,0 0,2.8429918 0,6.3499999 0,9.857008 2.8429918,12.7 6.3499999,12.7 9.857008,12.7 12.7,9.857008 12.7,6.3499999 12.7,2.8429918 9.857008,0 6.3499999,0 Z m 0,0.79374999 c 3.0686322,0 5.5562501,2.48761781 5.5562501,5.55624991 0,3.0686322 -2.4876179,5.5562501 -5.5562501,5.5562501 -3.0686321,0 -5.55624991,-2.4876179 -5.55624991,-5.5562501 0,-3.0686321 2.48761781,-5.55624991 5.55624991,-5.55624991 z M 3.175,3.96875 v 2.3812499 1.8520833 h 1.0583333 l 0.5291666,1.3229167 h 3.175 L 8.4666666,8.2020832 H 9.5249999 V 3.96875 H 9.2604166 8.7312499 V 5.8208333 H 7.6729166 V 3.96875 H 7.1437499 6.8791666 V 5.8208333 H 5.8208333 V 3.96875 H 5.5562499 5.0270833 V 5.8208333 H 3.96875 V 3.96875 Z"
     id="path817" />
</svg>
