<?xml version="1.0" encoding="UTF-8" standalone="no"?>
<svg
   width="48"
   height="48"
   viewBox="0 0 12.7 12.7"
   version="1.1"
   id="svg4"
   sodipodi:docname="folder-development.svg"
   inkscape:version="0.92.5 (2060ec1f9f, 2020-04-08)"
   xmlns:inkscape="http://www.inkscape.org/namespaces/inkscape"
   xmlns:sodipodi="http://sodipodi.sourceforge.net/DTD/sodipodi-0.dtd"
   xmlns="http://www.w3.org/2000/svg"
   xmlns:svg="http://www.w3.org/2000/svg">
  <sodipodi:namedview
     id="namedview1"
     pagecolor="#505050"
     bordercolor="#eeeeee"
     borderopacity="1"
     inkscape:showpageshadow="0"
     inkscape:pageopacity="0"
     inkscape:pagecheckerboard="0"
     inkscape:deskcolor="#d1d1d1" />
  <defs
     id="defs8">
    <style
       id="current-color-scheme"
       type="text/css">&#10;      .ColorScheme-Highlight {&#10;        color:#1e3f5a;&#10;      }&#10;  </style>
  </defs>
  <path
     class="ColorScheme-Highlight"
     style="fill:#bde6fb;fill-opacity:1;stroke-width:0.264583"
     d="M 6.3499999,0 A 6.3499999,6.3499999 0 0 0 0,6.3499999 6.3499999,6.3499999 0 0 0 6.3499999,12.7 6.3499999,6.3499999 0 0 0 12.7,6.3499999 6.3499999,6.3499999 0 0 0 6.3499999,0 Z m 0,0.79374999 A 5.5562499,5.5562499 0 0 1 11.90625,6.3499999 5.5562499,5.5562499 0 0 1 6.3499999,11.90625 5.5562499,5.5562499 0 0 1 0.79374999,6.3499999 5.5562499,5.5562499 0 0 1 6.3499999,0.79374999 Z M 5.8208333,2.6458333 V 2.9104166 H 3.7041666 V 3.175 L 2.38125,3.96875 h 1.3229166 v 0.2645833 h 0.79375 V 6.1334758 C 4.1897593,6.2423677 3.96875,6.532805 3.96875,6.8791666 v 2.38125 c 0,0.4397374 0.3540124,0.7937504 0.7937499,0.7937504 0.4397375,0 0.79375,-0.354013 0.79375,-0.7937504 v -2.38125 c 0,-0.3463616 -0.2210093,-0.6367989 -0.5291666,-0.7456908 V 4.2333333 h 0.79375 v 0.2645833 h 0.79375 V 2.6458333 Z m 2.6458333,0 -1.5875,2.6458333 H 8.2020832 V 6.1334758 C 7.8939259,6.2423677 7.6729166,6.532805 7.6729166,6.8791666 v 2.38125 c 0,0.4397374 0.3540125,0.7937504 0.79375,0.7937504 0.4397375,0 0.79375,-0.354013 0.79375,-0.7937504 v -2.38125 c 0,-0.3463616 -0.2210094,-0.6367989 -0.5291667,-0.7456908 V 5.2916666 h 1.3229171 z"
     id="path831" />
</svg>
