<?xml version="1.0" encoding="UTF-8" standalone="no"?>
<svg
   width="48"
   height="48"
   viewBox="0 0 12.7 12.7"
   version="1.1"
   id="svg4"
   sodipodi:docname="folder-tar.svg"
   inkscape:version="0.92.5 (2060ec1f9f, 2020-04-08)"
   xmlns:inkscape="http://www.inkscape.org/namespaces/inkscape"
   xmlns:sodipodi="http://sodipodi.sourceforge.net/DTD/sodipodi-0.dtd"
   xmlns="http://www.w3.org/2000/svg"
   xmlns:svg="http://www.w3.org/2000/svg">
  <sodipodi:namedview
     id="namedview1"
     pagecolor="#505050"
     bordercolor="#eeeeee"
     borderopacity="1"
     inkscape:showpageshadow="0"
     inkscape:pageopacity="0"
     inkscape:pagecheckerboard="0"
     inkscape:deskcolor="#d1d1d1" />
  <defs
     id="defs8">
    <style
       id="current-color-scheme"
       type="text/css">&#10;      .ColorScheme-Highlight {&#10;        color:#1e3f5a;&#10;      }&#10;  </style>
  </defs>
  <path
     class="ColorScheme-Highlight"
     style="fill:#bde6fb;fill-opacity:1;stroke-width:0.264583"
     d="M 6.3499999,0 A 6.3499999,6.3499999 0 0 0 0,6.3499999 6.3499999,6.3499999 0 0 0 6.3499999,12.7 6.3499999,6.3499999 0 0 0 12.7,6.3499999 6.3499999,6.3499999 0 0 0 6.3499999,0 Z m 0,0.79374999 A 5.5562499,5.5562499 0 0 1 11.90625,6.3499999 5.5562499,5.5562499 0 0 1 6.3499999,11.90625 5.5562499,5.5562499 0 0 1 0.79374999,6.3499999 5.5562499,5.5562499 0 0 1 4.7624999,1.0350789 V 1.5875 h 0.5291667 0.5291667 0.5291666 z m 0,0.79375001 v 1.0583333 h 1.5875 V 1.5875 Z m 0,1.0583333 h -1.5875 v 1.0583333 h 1.5875 z m 0,1.0583333 v 1.0583333 h 1.5875 V 3.7041666 Z m 0,1.0583333 h -1.5875 v 1.0583334 h 1.5875 z m 0,1.3229167 c -0.879475,0 -1.5875,0.708025 -1.5875,1.5875 v 1.5875 c 0,0.8794754 0.708025,1.5875004 1.5875,1.5875004 0.879475,0 1.5875,-0.708025 1.5875,-1.5875004 v -1.5875 c 0,-0.879475 -0.708025,-1.5875 -1.5875,-1.5875 z m 0,2.1166666 A 1.0583333,1.0583333 0 0 1 7.4083332,9.2604166 1.0583333,1.0583333 0 0 1 6.3499999,10.31875 1.0583333,1.0583333 0 0 1 5.2916666,9.2604166 1.0583333,1.0583333 0 0 1 6.3499999,8.2020832 Z"
     id="path844" />
</svg>
