<?xml version="1.0" encoding="UTF-8" standalone="no"?>
<svg
   width="48"
   height="48"
   viewBox="0 0 12.7 12.7"
   version="1.1"
   id="svg4"
   sodipodi:docname="folder-recent.svg"
   inkscape:version="0.92.5 (2060ec1f9f, 2020-04-08)"
   xmlns:inkscape="http://www.inkscape.org/namespaces/inkscape"
   xmlns:sodipodi="http://sodipodi.sourceforge.net/DTD/sodipodi-0.dtd"
   xmlns="http://www.w3.org/2000/svg"
   xmlns:svg="http://www.w3.org/2000/svg">
  <sodipodi:namedview
     id="namedview1"
     pagecolor="#505050"
     bordercolor="#eeeeee"
     borderopacity="1"
     inkscape:showpageshadow="0"
     inkscape:pageopacity="0"
     inkscape:pagecheckerboard="0"
     inkscape:deskcolor="#d1d1d1" />
  <defs
     id="defs8">
    <style
       id="current-color-scheme"
       type="text/css">&#10;      .ColorScheme-Highlight {&#10;        color:#1e3f5a;&#10;      }&#10;  </style>
  </defs>
  <path
     class="ColorScheme-Highlight"
     style="fill:#bde6fb;fill-opacity:1;stroke-width:0.264583"
     d="M 6.3499999,0 A 6.3499999,6.3499999 0 0 0 0,6.3499999 6.3499999,6.3499999 0 0 0 6.3499999,12.7 6.3499999,6.3499999 0 0 0 12.7,6.3499999 6.3499999,6.3499999 0 0 0 6.3499999,0 Z m 0,0.79374999 A 5.5562499,5.5562499 0 0 1 11.90625,6.3499999 5.5562499,5.5562499 0 0 1 6.3499999,11.90625 5.5562499,5.5562499 0 0 1 0.79374999,6.3499999 5.5562499,5.5562499 0 0 1 6.3499999,0.79374999 Z M 8.5948241,4.1496175 c -0.135265,0 -0.2704901,0.051899 -0.3741375,0.1555459 L 6.3499999,6.1763671 5.4012205,5.2275877 c -0.2072942,-0.2072942 -0.5409803,-0.2072942 -0.7482745,0 -0.2072944,0.2072944 -0.2072944,0.5409806 0,0.748275 l 1.3094806,1.3094806 c 0.0023,0.0023 0.00491,0.00396 0.00723,0.0062 0.00225,0.00233 0.00391,0.00494 0.0062,0.00723 0.2072941,0.2072942 0.5409803,0.2072942 0.7482744,0 L 8.9694778,5.0534376 c 0.2072942,-0.2072941 0.2072942,-0.5409803 0,-0.7482747 C 8.8658305,4.2015158 8.7300886,4.149617 8.5948236,4.149617 Z"
     id="path831" />
</svg>
