<?xml version="1.0" encoding="UTF-8" standalone="no"?>
<svg
   width="48"
   height="48"
   viewBox="0 0 12.7 12.7"
   version="1.1"
   id="svg4"
   sodipodi:docname="gnome-fs-web.svg"
   inkscape:version="1.3 (0e150ed6c4, 2023-07-21)"
   inkscape:export-filename="gnome-fs-web.svg"
   inkscape:export-xdpi="96"
   inkscape:export-ydpi="96"
   xmlns:inkscape="http://www.inkscape.org/namespaces/inkscape"
   xmlns:sodipodi="http://sodipodi.sourceforge.net/DTD/sodipodi-0.dtd"
   xmlns="http://www.w3.org/2000/svg"
   xmlns:svg="http://www.w3.org/2000/svg">
  <sodipodi:namedview
     id="namedview1"
     pagecolor="#505050"
     bordercolor="#eeeeee"
     borderopacity="1"
     inkscape:showpageshadow="0"
     inkscape:pageopacity="0"
     inkscape:pagecheckerboard="0"
     inkscape:deskcolor="#d1d1d1"
     inkscape:zoom="16.666667"
     inkscape:cx="24"
     inkscape:cy="24"
     inkscape:window-width="1920"
     inkscape:window-height="1002"
     inkscape:window-x="0"
     inkscape:window-y="50"
     inkscape:window-maximized="1"
     inkscape:current-layer="svg4" />
  <defs
     id="defs8">
    <style
       id="current-color-scheme"
       type="text/css">&#10;      .ColorScheme-Highlight {&#10;        color:#1e3f5a;&#10;      }&#10;  </style>
  </defs>
  <path
     class="ColorScheme-Highlight"
     style="fill:#bde6fb;fill-opacity:1"
     d="M 24 0 A 24 24 0 0 0 0 24 A 24 24 0 0 0 24 48 A 24 24 0 0 0 48 24 A 24 24 0 0 0 24 0 z M 24 3 A 21 21 0 0 1 45 24 A 21 21 0 0 1 41.224609 36 L 29 36 L 29 34 L 26 34 L 26 32 L 39 32 L 39 15 L 9 15 L 9 32 L 22 32 L 22 34 L 19 34 L 19 36 L 6.796875 36 A 21 21 0 0 1 3 24 A 21 21 0 0 1 24 3 z M 9 11 L 9 14 L 39 14 L 39 11 L 9 11 z M 11 17 L 14 17 L 14 20 L 11 20 L 11 17 z M 11 22 L 14 22 L 14 25 L 11 25 L 11 22 z M 11 27 L 14 27 L 14 30 L 11 30 L 11 27 z M 8.3808594 38 L 19 38 L 19 40 L 29 40 L 29 38 L 39.623047 38 A 21 21 0 0 1 24 45 A 21 21 0 0 1 8.3808594 38 z "
     transform="scale(0.26458333)"
     id="rect900" />
</svg>
