<?xml version="1.0" encoding="UTF-8" standalone="no"?>
<svg
   width="48"
   height="48"
   viewBox="0 0 12.7 12.7"
   version="1.1"
   id="svg4"
   sodipodi:docname="user-trash-full.svg"
   inkscape:version="0.92.5 (2060ec1f9f, 2020-04-08)"
   xmlns:inkscape="http://www.inkscape.org/namespaces/inkscape"
   xmlns:sodipodi="http://sodipodi.sourceforge.net/DTD/sodipodi-0.dtd"
   xmlns="http://www.w3.org/2000/svg"
   xmlns:svg="http://www.w3.org/2000/svg">
  <sodipodi:namedview
     id="namedview1"
     pagecolor="#505050"
     bordercolor="#eeeeee"
     borderopacity="1"
     inkscape:showpageshadow="0"
     inkscape:pageopacity="0"
     inkscape:pagecheckerboard="0"
     inkscape:deskcolor="#d1d1d1" />
  <defs
     id="defs8" />
  <style
     id="current-color-scheme"
     type="text/css">&#10;      .ColorScheme-Highlight {&#10;        color:#1e3f5a;&#10;      }&#10;  </style>
  <path
     d="M 6.3499999,0 A 6.3499999,6.3499999 0 0 0 0,6.3499999 6.3499999,6.3499999 0 0 0 6.3499999,12.7 6.3499999,6.3499999 0 0 0 12.7,6.3499999 6.3499999,6.3499999 0 0 0 6.3499999,0 Z m 0,0.79374999 A 5.5562499,5.5562499 0 0 1 11.90625,6.3499999 5.5562499,5.5562499 0 0 1 6.3499999,11.90625 5.5562499,5.5562499 0 0 1 0.79374999,6.3499999 5.5562499,5.5562499 0 0 1 6.3499999,0.79374999 Z M 5.8208333,2.6458333 c -0.2931584,0 -0.5291667,0.2360083 -0.5291667,0.5291667 V 3.4395833 H 3.175 V 3.96875 h 0.5291666 v 5.8208332 c 0,0.1465792 0.1180042,0.2645838 0.2645834,0.2645838 h 4.7624999 c 0.1465792,0 0.2645833,-0.1180046 0.2645833,-0.2645838 V 3.96875 H 9.5249999 V 3.4395833 H 7.4083332 V 3.175 c 0,-0.2931584 -0.2360083,-0.5291667 -0.5291666,-0.5291667 z m 0.2645833,0.2645833 h 0.5291667 c 0.1465791,0 0.2645833,0.1180042 0.2645833,0.2645834 V 3.4395833 H 5.8208333 V 3.175 c 0,-0.1465792 0.1180041,-0.2645834 0.2645833,-0.2645834 z m 0.2645833,2.1166667 c 0.1465792,0 0.2645834,0.1180041 0.2645834,0.2645833 v 2.9104166 c 0,0.1465792 -0.1180042,0.2645834 -0.2645834,0.2645834 -0.1465791,0 -0.2645833,-0.1180042 -0.2645833,-0.2645834 V 5.2916666 c 0,-0.1465792 0.1180042,-0.2645833 0.2645833,-0.2645833 z M 5.0270833,5.5562499 c 0.1465791,0 0.2645833,0.1180042 0.2645833,0.2645834 v 1.8520833 c 0,0.1465791 -0.1180042,0.2645833 -0.2645833,0.2645833 -0.1465792,0 -0.2645834,-0.1180042 -0.2645834,-0.2645833 V 5.8208333 c 0,-0.1465792 0.1180042,-0.2645834 0.2645834,-0.2645834 z m 2.6458333,0 c 0.1465791,0 0.2645833,0.1180042 0.2645833,0.2645834 v 1.8520833 c 0,0.1465791 -0.1180042,0.2645833 -0.2645833,0.2645833 -0.1465792,0 -0.2645834,-0.1180042 -0.2645834,-0.2645833 V 5.8208333 c 0,-0.1465792 0.1180042,-0.2645834 0.2645834,-0.2645834 z"
     id="path890"
     class="ColorScheme-Highlight"
     style="fill:#bde6fb;fill-opacity:1;stroke-width:0.264583" />
</svg>
