<?xml version="1.0" encoding="UTF-8" standalone="no"?>
<svg
   width="20.705"
   height="20.860001"
   version="1"
   id="svg4"
   sodipodi:docname="distributor-logo-symbolic.svg"
   inkscape:version="0.92.4 (5da689c313, 2019-01-14)"
   xmlns:inkscape="http://www.inkscape.org/namespaces/inkscape"
   xmlns:sodipodi="http://sodipodi.sourceforge.net/DTD/sodipodi-0.dtd"
   xmlns="http://www.w3.org/2000/svg"
   xmlns:svg="http://www.w3.org/2000/svg"
   xmlns:rdf="http://www.w3.org/1999/02/22-rdf-syntax-ns#"
   xmlns:cc="http://creativecommons.org/ns#"
   xmlns:dc="http://purl.org/dc/elements/1.1/">
  <metadata
     id="metadata10">
    <rdf:RDF>
      <cc:Work
         rdf:about="">
        <dc:format>image/svg+xml</dc:format>
        <dc:type
           rdf:resource="http://purl.org/dc/dcmitype/StillImage" />
        <dc:title />
      </cc:Work>
    </rdf:RDF>
  </metadata>
  <defs
     id="defs8" />
  <sodipodi:namedview
     pagecolor="#ffffff"
     bordercolor="#666666"
     borderopacity="1"
     objecttolerance="10"
     gridtolerance="10"
     guidetolerance="10"
     inkscape:pageopacity="0"
     inkscape:pageshadow="2"
     inkscape:window-width="640"
     inkscape:window-height="480"
     id="namedview6"
     showgrid="false"
     inkscape:zoom="9.8333333"
     inkscape:cx="10.220339"
     inkscape:cy="12"
     inkscape:window-x="0"
     inkscape:window-y="25"
     inkscape:window-maximized="0"
     inkscape:current-layer="svg4"
     inkscape:showpageshadow="0"
     inkscape:pagecheckerboard="0"
     inkscape:deskcolor="#d1d1d1" />
  <path
     d="M 10.356,7.8201294e-7 A 10.352,10.43 0 0 0 4.4822693e-8,10.428001 10.352,10.43 0 0 0 0.04300004,11.240001 H 3.117 a 7.285,7.336 0 0 0 7.24,6.526 7.285,7.336 0 0 0 5.154,-2.155 l -1.088,-1.087 a 5.754,5.796 0 0 1 -4.067,1.702 5.754,5.796 0 0 1 -5.695,-4.986 h 14.612 a 8.96,9.024 0 0 1 -8.92,8.214 8.96,9.024 0 0 1 -8.652,-6.716 l -1.35199996,0.343 A 10.352,10.43 0 0 0 10.353,20.860001 10.352,10.43 0 0 0 20.705,10.428001 10.352,10.43 0 0 0 20.671,9.7210008 H 4.646 a 5.754,5.796 0 0 1 5.71,-5.087 5.754,5.796 0 0 1 4.097,1.725 l 1.082,-1.082 a 7.285,7.336 0 0 0 -5.179,-2.185 v 0.002 a 7.285,7.336 0 0 0 -7.246,6.627 H 1.429 a 8.96,9.024 0 0 1 8.927,-8.315 8.96,9.024 0 0 1 8.658,6.746 l 1.345,-0.357 A 10.352,10.43 0 0 0 10.356,7.8201294e-7 Z"
     id="path2"
     inkscape:connector-curvature="0"
     style="fill:#bde6fb;fill-opacity:1" />
</svg>
