<?xml version="1.0" encoding="UTF-8" standalone="no"?>
<svg
   width="18.625"
   height="18.624001"
   version="1"
   id="svg30"
   sodipodi:docname="folder-publicshare-symbolic.svg"
   inkscape:version="0.92.4 (5da689c313, 2019-01-14)"
   xmlns:inkscape="http://www.inkscape.org/namespaces/inkscape"
   xmlns:sodipodi="http://sodipodi.sourceforge.net/DTD/sodipodi-0.dtd"
   xmlns="http://www.w3.org/2000/svg"
   xmlns:svg="http://www.w3.org/2000/svg"
   xmlns:rdf="http://www.w3.org/1999/02/22-rdf-syntax-ns#"
   xmlns:cc="http://creativecommons.org/ns#"
   xmlns:dc="http://purl.org/dc/elements/1.1/">
  <metadata
     id="metadata34">
    <rdf:RDF>
      <cc:Work
         rdf:about="">
        <dc:format>image/svg+xml</dc:format>
        <dc:type
           rdf:resource="http://purl.org/dc/dcmitype/StillImage" />
        <dc:title />
      </cc:Work>
    </rdf:RDF>
  </metadata>
  <sodipodi:namedview
     pagecolor="#ffffff"
     bordercolor="#666666"
     borderopacity="1"
     objecttolerance="10"
     gridtolerance="10"
     guidetolerance="10"
     inkscape:pageopacity="0"
     inkscape:pageshadow="2"
     inkscape:window-width="1085"
     inkscape:window-height="480"
     id="namedview32"
     showgrid="false"
     inkscape:zoom="9.8333333"
     inkscape:cx="1.0677966"
     inkscape:cy="12"
     inkscape:window-x="0"
     inkscape:window-y="25"
     inkscape:window-maximized="0"
     inkscape:current-layer="svg30"
     inkscape:showpageshadow="0"
     inkscape:pagecheckerboard="0"
     inkscape:deskcolor="#d1d1d1" />
  <defs
     id="defs26" />
  <path
     d="M 15.132,3.6239624e-8 A 3.492,3.492 0 0 0 11.64,3.492 3.492,3.492 0 0 0 11.671,3.922 L 5.912,6.8 A 3.492,3.492 0 0 0 3.492,5.82 3.492,3.492 0 0 0 3.6239624e-8,9.312 3.492,3.492 0 0 0 3.492,12.804 3.492,3.492 0 0 0 5.915,11.825 l 5.755,2.879 a 3.492,3.492 0 0 0 -0.03,0.428 3.492,3.492 0 0 0 3.492,3.492 3.492,3.492 0 0 0 3.493,-3.492 3.492,3.492 0 0 0 -3.493,-3.492 3.492,3.492 0 0 0 -2.423,0.979 L 6.955,9.741 A 3.492,3.492 0 0 0 6.984,9.312 3.492,3.492 0 0 0 6.954,8.883 l 5.759,-2.88 a 3.492,3.492 0 0 0 2.42,0.98 A 3.492,3.492 0 0 0 18.624,3.492 3.492,3.492 0 0 0 15.132,3.6239624e-8 Z"
     id="path28"
     inkscape:connector-curvature="0"
     style="fill:#bde6fb;fill-opacity:1" />
</svg>
