<?xml version="1.0" encoding="UTF-8" standalone="no"?>
<svg
   width="18.015999"
   height="13.955001"
   version="1"
   id="svg11"
   sodipodi:docname="folder-visiting-symbolic.svg"
   inkscape:version="0.92.4 (5da689c313, 2019-01-14)"
   xmlns:inkscape="http://www.inkscape.org/namespaces/inkscape"
   xmlns:sodipodi="http://sodipodi.sourceforge.net/DTD/sodipodi-0.dtd"
   xmlns="http://www.w3.org/2000/svg"
   xmlns:svg="http://www.w3.org/2000/svg"
   xmlns:rdf="http://www.w3.org/1999/02/22-rdf-syntax-ns#"
   xmlns:cc="http://creativecommons.org/ns#"
   xmlns:dc="http://purl.org/dc/elements/1.1/">
  <metadata
     id="metadata15">
    <rdf:RDF>
      <cc:Work
         rdf:about="">
        <dc:format>image/svg+xml</dc:format>
        <dc:type
           rdf:resource="http://purl.org/dc/dcmitype/StillImage" />
        <dc:title />
      </cc:Work>
    </rdf:RDF>
  </metadata>
  <sodipodi:namedview
     pagecolor="#ffffff"
     bordercolor="#666666"
     borderopacity="1"
     objecttolerance="10"
     gridtolerance="10"
     guidetolerance="10"
     inkscape:pageopacity="0"
     inkscape:pageshadow="2"
     inkscape:window-width="1085"
     inkscape:window-height="480"
     id="namedview13"
     showgrid="false"
     inkscape:zoom="9.8333333"
     inkscape:cx="1.0677966"
     inkscape:cy="12"
     inkscape:window-x="0"
     inkscape:window-y="25"
     inkscape:window-maximized="0"
     inkscape:current-layer="svg11"
     inkscape:showpageshadow="0"
     inkscape:pagecheckerboard="0"
     inkscape:deskcolor="#d1d1d1" />
  <defs
     id="defs7" />
  <path
     d="m 1.3729999,2.3651123e-7 c -0.759,0 -1.37,0.61000000348877 -1.37,1.36999996348877 v 2.285 c 0,0.035 0.008,0.069 0.01,0.103 V 10.442 H -1.0299683e-7 v 2.14 c 0,0.466 0.26700000299683,0.813 0.62000000299683,1.061 L 10.153,4.1100002 H 2.6369999 v 2.023 c 0,0.387 -0.255,0.7 -0.572,0.7 -0.318,0 -0.575,-0.313 -0.575,-0.7 v -2.366 c 0,-0.035 0.012,-0.066 0.016,-0.1 -0.004,-0.027 -0.016,-0.05 -0.016,-0.078 0,-0.266 0.202,-0.475 0.46,-0.507 0.021,-0.003 0.04,-0.014 0.062,-0.014 H 17.99 l 0.024,0.002 v -1.54 H 8.0979999 l -1.53,-1.52899996 h -5.194 z M 18.016,4.1070002 l -0.02,0.004 H 13.344 L 3.4999999,13.955 h 4.72 L 18.016,4.1600002 Z m 0,3.178 -6.67,6.6699998 h 5.297 c 0.759,0 1.369,-0.612 1.369,-1.372 v -1.834 h 0.004 z"
     id="path9"
     inkscape:connector-curvature="0"
     style="fill:#bde6fb;fill-opacity:1" />
</svg>
