<?xml version="1.0" encoding="UTF-8" standalone="no"?>
<svg
   width="20.860001"
   height="19.76004"
   version="1"
   id="svg4"
   sodipodi:docname="folder-remote-symbolic.svg"
   inkscape:version="0.92.4 (5da689c313, 2019-01-14)"
   xmlns:inkscape="http://www.inkscape.org/namespaces/inkscape"
   xmlns:sodipodi="http://sodipodi.sourceforge.net/DTD/sodipodi-0.dtd"
   xmlns="http://www.w3.org/2000/svg"
   xmlns:svg="http://www.w3.org/2000/svg"
   xmlns:rdf="http://www.w3.org/1999/02/22-rdf-syntax-ns#"
   xmlns:cc="http://creativecommons.org/ns#"
   xmlns:dc="http://purl.org/dc/elements/1.1/">
  <metadata
     id="metadata10">
    <rdf:RDF>
      <cc:Work
         rdf:about="">
        <dc:format>image/svg+xml</dc:format>
        <dc:type
           rdf:resource="http://purl.org/dc/dcmitype/StillImage" />
        <dc:title />
      </cc:Work>
    </rdf:RDF>
  </metadata>
  <defs
     id="defs8" />
  <sodipodi:namedview
     pagecolor="#ffffff"
     bordercolor="#666666"
     borderopacity="1"
     objecttolerance="10"
     gridtolerance="10"
     guidetolerance="10"
     inkscape:pageopacity="0"
     inkscape:pageshadow="2"
     inkscape:window-width="1085"
     inkscape:window-height="480"
     id="namedview6"
     showgrid="false"
     inkscape:zoom="9.8333333"
     inkscape:cx="1.0677966"
     inkscape:cy="12"
     inkscape:window-x="0"
     inkscape:window-y="25"
     inkscape:window-maximized="0"
     inkscape:current-layer="svg4"
     inkscape:showpageshadow="0"
     inkscape:pagecheckerboard="0"
     inkscape:deskcolor="#d1d1d1" />
  <path
     d="M 2.4899999,2.0141602e-5 A 2.48,2.48 0 0 0 -5.2452087e-8,2.4800201 V 17.28002 A 2.48,2.48 0 0 0 2.4899999,19.76002 H 18.38 a 2.48,2.48 0 0 0 2.48,-2.48 V 2.4800201 c 0,-1.37 -1.1,-2.479999958398 -2.48,-2.479999958398 H 2.4799999 Z M 9.3599999,4.0000201 H 11.53 c 0.67,0 1.22,0.53 1.22,1.21 v 0.3 a 0.57,0.57 0 0 0 0.58,0.58 h 1.65 c 0.68,0 1.23,0.75 1.23,1.42 V 14.35002 c 0,0.67 -0.55,1.22 -1.23,1.22 H 5.9099999 c -0.68,0 -1.23,-0.55 -1.23,-1.22 V 7.5100201 c 0,-0.67 0.55,-1.41 1.23,-1.41 h 1.65 c 0.28,0.02 0.58,-0.2 0.58,-0.57 v -0.32 c 0,-0.67 0.55,-1.22 1.22,-1.22 z m -2.43,6.5799999 v 2.18 H 13.93 v -2.18 z"
     id="path2"
     inkscape:connector-curvature="0"
     style="fill:#bde6fb;fill-opacity:1" />
</svg>
