<?xml version="1.0" encoding="UTF-8" standalone="no"?>
<svg
   width="17.306999"
   height="17.976021"
   version="1"
   id="svg25"
   sodipodi:docname="folder-video-symbolic.svg"
   inkscape:version="0.92.4 (5da689c313, 2019-01-14)"
   xmlns:inkscape="http://www.inkscape.org/namespaces/inkscape"
   xmlns:sodipodi="http://sodipodi.sourceforge.net/DTD/sodipodi-0.dtd"
   xmlns="http://www.w3.org/2000/svg"
   xmlns:svg="http://www.w3.org/2000/svg"
   xmlns:rdf="http://www.w3.org/1999/02/22-rdf-syntax-ns#"
   xmlns:cc="http://creativecommons.org/ns#"
   xmlns:dc="http://purl.org/dc/elements/1.1/">
  <metadata
     id="metadata29">
    <rdf:RDF>
      <cc:Work
         rdf:about="">
        <dc:format>image/svg+xml</dc:format>
        <dc:type
           rdf:resource="http://purl.org/dc/dcmitype/StillImage" />
        <dc:title />
      </cc:Work>
    </rdf:RDF>
  </metadata>
  <sodipodi:namedview
     pagecolor="#ffffff"
     bordercolor="#666666"
     borderopacity="1"
     objecttolerance="10"
     gridtolerance="10"
     guidetolerance="10"
     inkscape:pageopacity="0"
     inkscape:pageshadow="2"
     inkscape:window-width="1085"
     inkscape:window-height="480"
     id="namedview27"
     showgrid="false"
     inkscape:zoom="9.8333333"
     inkscape:cx="1.0677966"
     inkscape:cy="12"
     inkscape:window-x="0"
     inkscape:window-y="25"
     inkscape:window-maximized="0"
     inkscape:current-layer="svg25"
     inkscape:showpageshadow="0"
     inkscape:pagecheckerboard="0"
     inkscape:deskcolor="#d1d1d1" />
  <defs
     id="defs21" />
  <path
     d="M 0.43300004,1.0406494e-5 A 0.43,0.43 0 0 0 4.3869019e-8,0.42801041 V 17.54801 A 0.43,0.43 0 0 0 0.43300004,17.97601 H 16.874 a 0.43,0.43 0 0 0 0.433,-0.428 V 0.42801041 A 0.43,0.43 0 0 0 16.874,1.0406494e-5 H 2.596 Z M 0.94000004,1.3540104 H 2.388 v 0.725 H 0.94000004 Z m 13.97999996,0 h 1.448 v 0.725 H 14.92 Z m -11.592,0.503 h 10.52 v 6.63 H 3.328 Z m -2.38799996,1.671 H 2.388 v 0.723 H 0.94000004 Z m 13.97999996,0 h 1.448 v 0.723 H 14.92 Z m -13.97999996,2.172 H 2.388 v 0.725 H 0.94000004 Z m 13.97999996,0 h 1.448 v 0.725 H 14.92 Z m -13.97999996,2.173 H 2.388 v 0.723 H 0.94000004 Z m 13.97999996,0 h 1.448 v 0.723 H 14.92 Z m -11.592,2.002 h 10.52 V 16.12401 H 3.328 Z M 0.94000004,10.04301 H 2.388 v 0.726 H 0.94000004 Z m 13.97999996,0 h 1.448 v 0.726 H 14.92 Z m -13.97999996,2.175 H 2.388 v 0.724 H 0.94000004 Z m 13.97999996,0 h 1.448 v 0.724 H 14.92 Z m -13.97999996,2.173 H 2.388 v 0.724 H 0.94000004 Z m 13.97999996,0 h 1.448 v 0.724 H 14.92 Z m -13.97999996,2.172 H 2.388 v 0.725 H 0.94000004 Z m 13.97999996,0 h 1.448 v 0.725 H 14.92 Z"
     id="path23"
     inkscape:connector-curvature="0"
     style="fill:#bde6fb;fill-opacity:1" />
</svg>
