<?xml version="1.0" encoding="UTF-8" standalone="no"?>
<svg
   width="20.613066"
   height="13.584907"
   viewBox="0 0 5.4538736 3.5943399"
   version="1.1"
   id="svg4"
   sodipodi:docname="folder-games-symbolic.svg"
   inkscape:version="0.92.4 (5da689c313, 2019-01-14)"
   xmlns:inkscape="http://www.inkscape.org/namespaces/inkscape"
   xmlns:sodipodi="http://sodipodi.sourceforge.net/DTD/sodipodi-0.dtd"
   xmlns="http://www.w3.org/2000/svg"
   xmlns:svg="http://www.w3.org/2000/svg"
   xmlns:rdf="http://www.w3.org/1999/02/22-rdf-syntax-ns#"
   xmlns:cc="http://creativecommons.org/ns#"
   xmlns:dc="http://purl.org/dc/elements/1.1/">
  <metadata
     id="metadata10">
    <rdf:RDF>
      <cc:Work
         rdf:about="">
        <dc:format>image/svg+xml</dc:format>
        <dc:type
           rdf:resource="http://purl.org/dc/dcmitype/StillImage" />
        <dc:title />
      </cc:Work>
    </rdf:RDF>
  </metadata>
  <defs
     id="defs8" />
  <sodipodi:namedview
     pagecolor="#ffffff"
     bordercolor="#666666"
     borderopacity="1"
     objecttolerance="10"
     gridtolerance="10"
     guidetolerance="10"
     inkscape:pageopacity="0"
     inkscape:pageshadow="2"
     inkscape:window-width="1085"
     inkscape:window-height="480"
     id="namedview6"
     showgrid="false"
     inkscape:zoom="9.8333333"
     inkscape:cx="1.0677966"
     inkscape:cy="12"
     inkscape:window-x="0"
     inkscape:window-y="25"
     inkscape:window-maximized="0"
     inkscape:current-layer="svg4"
     inkscape:showpageshadow="0"
     inkscape:pagecheckerboard="0"
     inkscape:deskcolor="#d1d1d1" />
  <path
     d="m 0.70693683,0 c -0.06,0 -0.1,0.02 -0.1,0.07 l -0.6,3.03 c -0.08,0.3 0.55,0.65 0.96,0.42 L 1.9369368,2.11 h 1.58 l 0.97,1.4 c 0.41,0.24 1.04,-0.11 0.96,-0.4 l -0.6,-3.04 c 0,-0.05 -0.04,-0.07 -0.1,-0.07 z M 1.4069368,0.35 h 0.18 a 0.09,0.09 0 0 1 0.08,0.09 V 0.7 h 0.27 a 0.09,0.09 0 0 1 0.09,0.09 v 0.18 a 0.09,0.09 0 0 1 -0.1,0.08 h -0.26 v 0.27 a 0.09,0.09 0 0 1 -0.08,0.09 h -0.18 a 0.09,0.09 0 0 1 -0.09,-0.1 V 1.05 h -0.26 a 0.09,0.09 0 0 1 -0.09,-0.08 V 0.79 a 0.09,0.09 0 0 1 0.09,-0.09 h 0.26 V 0.44 a 0.09,0.09 0 0 1 0.08,-0.09 z m 2.54,0 a 0.18,0.18 0 0 1 0.01,0 0.18,0.18 0 0 1 0.18,0.18 0.18,0.18 0 0 1 -0.18,0.17 0.18,0.18 0 0 1 -0.17,-0.17 0.18,0.18 0 0 1 0.16,-0.18 z m -0.35,0.35 a 0.18,0.18 0 0 1 0.01,0 0.18,0.18 0 0 1 0.18,0.18 0.18,0.18 0 0 1 -0.18,0.17 0.18,0.18 0 0 1 -0.18,-0.17 0.18,0.18 0 0 1 0.17,-0.18 z m 0.7,0 a 0.18,0.18 0 0 1 0.01,0 0.18,0.18 0 0 1 0.18,0.18 0.18,0.18 0 0 1 -0.18,0.17 0.18,0.18 0 0 1 -0.17,-0.17 0.18,0.18 0 0 1 0.16,-0.18 z m -0.35,0.35 a 0.18,0.18 0 0 1 0.01,0 0.18,0.18 0 0 1 0.18,0.18 0.18,0.18 0 0 1 -0.18,0.18 0.18,0.18 0 0 1 -0.17,-0.18 0.18,0.18 0 0 1 0.16,-0.18 z"
     id="path2"
     inkscape:connector-curvature="0"
     style="fill:#bde6fb;fill-opacity:1" />
</svg>
