<?xml version="1.0" encoding="UTF-8" standalone="no"?>
<svg
   width="18.014"
   height="13.952"
   version="1"
   id="svg11"
   sodipodi:docname="folder-drag-accept-symbolic.svg"
   inkscape:version="0.92.4 (5da689c313, 2019-01-14)"
   xmlns:inkscape="http://www.inkscape.org/namespaces/inkscape"
   xmlns:sodipodi="http://sodipodi.sourceforge.net/DTD/sodipodi-0.dtd"
   xmlns="http://www.w3.org/2000/svg"
   xmlns:svg="http://www.w3.org/2000/svg"
   xmlns:rdf="http://www.w3.org/1999/02/22-rdf-syntax-ns#"
   xmlns:cc="http://creativecommons.org/ns#"
   xmlns:dc="http://purl.org/dc/elements/1.1/">
  <metadata
     id="metadata15">
    <rdf:RDF>
      <cc:Work
         rdf:about="">
        <dc:format>image/svg+xml</dc:format>
        <dc:type
           rdf:resource="http://purl.org/dc/dcmitype/StillImage" />
        <dc:title />
      </cc:Work>
    </rdf:RDF>
  </metadata>
  <sodipodi:namedview
     pagecolor="#ffffff"
     bordercolor="#666666"
     borderopacity="1"
     objecttolerance="10"
     gridtolerance="10"
     guidetolerance="10"
     inkscape:pageopacity="0"
     inkscape:pageshadow="2"
     inkscape:window-width="1085"
     inkscape:window-height="480"
     id="namedview13"
     showgrid="false"
     inkscape:zoom="9.8333333"
     inkscape:cx="1.0677966"
     inkscape:cy="12"
     inkscape:window-x="0"
     inkscape:window-y="25"
     inkscape:window-maximized="0"
     inkscape:current-layer="svg11"
     inkscape:showpageshadow="0"
     inkscape:pagecheckerboard="0"
     inkscape:deskcolor="#d1d1d1" />
  <defs
     id="defs7" />
  <path
     d="M 1.373,-1.6784668e-7 C 0.61299997,-1.6784668e-7 9.9996948e-4,0.60999983 9.9996948e-4,1.3699998 v 2.284 c 0,0.036 0.009000001,0.069 0.0110000005,0.104 V 10.442 H -3.0517578e-8 v 2.14 C -3.0517578e-8,13.341 0.60999997,13.952 1.37,13.952 h 15.272 c 0.76,0 1.37,-0.611 1.37,-1.37 v -1.834 h 0.002 V 1.5279998 H 8.096 L 6.567,9.9983215e-4 Z M 1.975,2.9289998 h 14.02 c 0.367,0 0.663,0.295 0.663,0.663 v 0.6 H 2.366 c -0.021,0 -0.04,0.01 -0.06,0.013 a 0.504,0.504 0 0 0 -0.432,0.508 c 0,0.028 0.011,0.052 0.015,0.079 -0.003,0.033 -0.015,0.063 -0.015,0.098 v 2.368 c 0,0.387 0.24,0.699 0.54,0.699 0.3,0 0.542,-0.312 0.542,-0.7 v -2.021 H 16.658 V 11.841 a 0.661,0.661 0 0 1 -0.663,0.662 H 1.975 A 0.661,0.661 0 0 1 1.312,11.841 V 3.5919998 c 0,-0.368 0.296,-0.663 0.663,-0.663 z"
     id="path9"
     inkscape:connector-curvature="0"
     style="fill:#bde6fb;fill-opacity:1" />
</svg>
