<?xml version="1.0" encoding="UTF-8" standalone="no"?>
<svg
   width="18.04184"
   height="18.02384"
   version="1"
   id="svg11"
   sodipodi:docname="folder-saved-search-symbolic.svg"
   inkscape:version="0.92.4 (5da689c313, 2019-01-14)"
   xmlns:inkscape="http://www.inkscape.org/namespaces/inkscape"
   xmlns:sodipodi="http://sodipodi.sourceforge.net/DTD/sodipodi-0.dtd"
   xmlns="http://www.w3.org/2000/svg"
   xmlns:svg="http://www.w3.org/2000/svg"
   xmlns:rdf="http://www.w3.org/1999/02/22-rdf-syntax-ns#"
   xmlns:cc="http://creativecommons.org/ns#"
   xmlns:dc="http://purl.org/dc/elements/1.1/">
  <metadata
     id="metadata15">
    <rdf:RDF>
      <cc:Work
         rdf:about="">
        <dc:format>image/svg+xml</dc:format>
        <dc:type
           rdf:resource="http://purl.org/dc/dcmitype/StillImage" />
        <dc:title />
      </cc:Work>
    </rdf:RDF>
  </metadata>
  <sodipodi:namedview
     pagecolor="#ffffff"
     bordercolor="#666666"
     borderopacity="1"
     objecttolerance="10"
     gridtolerance="10"
     guidetolerance="10"
     inkscape:pageopacity="0"
     inkscape:pageshadow="2"
     inkscape:window-width="1085"
     inkscape:window-height="480"
     id="namedview13"
     showgrid="false"
     inkscape:zoom="9.8333333"
     inkscape:cx="1.0677966"
     inkscape:cy="12"
     inkscape:window-x="0"
     inkscape:window-y="25"
     inkscape:window-maximized="0"
     inkscape:current-layer="svg11"
     inkscape:showpageshadow="0"
     inkscape:pagecheckerboard="0"
     inkscape:deskcolor="#d1d1d1" />
  <defs
     id="defs7" />
  <path
     d="M 7.079,0 C 3.186,0 0,3.181 0,7.071 c 0,3.89 3.186,7.07 7.079,7.07 a 7.026,7.026 0 0 0 4.006,-1.252 l 4.737,4.733 a 1.286,1.286 0 1 0 1.818,-1.818 l -4.738,-4.733 a 7.013,7.013 0 0 0 1.253,-4 C 14.155,3.181 10.972,0 7.079,0 Z m 0,2.572 a 4.482,4.482 0 0 1 4.504,4.5 c 0,2.499 -2,4.499 -4.504,4.499 a 4.484,4.484 0 0 1 -4.508,-4.5 c 0,-2.499 2.003,-4.499 4.508,-4.499 z"
     id="path9"
     inkscape:connector-curvature="0"
     style="fill:#bde6fb;fill-opacity:1" />
</svg>
