<?xml version="1.0" encoding="UTF-8" standalone="no"?>
<svg
   width="19.540001"
   height="19.540001"
   version="1"
   id="svg4"
   sodipodi:docname="start-here-symbolic.svg"
   inkscape:version="0.92.4 (5da689c313, 2019-01-14)"
   xmlns:inkscape="http://www.inkscape.org/namespaces/inkscape"
   xmlns:sodipodi="http://sodipodi.sourceforge.net/DTD/sodipodi-0.dtd"
   xmlns="http://www.w3.org/2000/svg"
   xmlns:svg="http://www.w3.org/2000/svg"
   xmlns:rdf="http://www.w3.org/1999/02/22-rdf-syntax-ns#"
   xmlns:cc="http://creativecommons.org/ns#"
   xmlns:dc="http://purl.org/dc/elements/1.1/">
  <metadata
     id="metadata10">
    <rdf:RDF>
      <cc:Work
         rdf:about="">
        <dc:format>image/svg+xml</dc:format>
        <dc:type
           rdf:resource="http://purl.org/dc/dcmitype/StillImage" />
        <dc:title />
      </cc:Work>
    </rdf:RDF>
  </metadata>
  <defs
     id="defs8" />
  <sodipodi:namedview
     pagecolor="#ffffff"
     bordercolor="#666666"
     borderopacity="1"
     objecttolerance="10"
     gridtolerance="10"
     guidetolerance="10"
     inkscape:pageopacity="0"
     inkscape:pageshadow="2"
     inkscape:window-width="1085"
     inkscape:window-height="480"
     id="namedview6"
     showgrid="false"
     inkscape:zoom="9.8333333"
     inkscape:cx="12"
     inkscape:cy="12"
     inkscape:window-x="0"
     inkscape:window-y="25"
     inkscape:window-maximized="0"
     inkscape:current-layer="svg4"
     inkscape:showpageshadow="0"
     inkscape:pagecheckerboard="0"
     inkscape:deskcolor="#d1d1d1" />
  <path
     d="M 9.77,-1.9073486e-8 A 9.77,9.77 0 0 0 -1.9073486e-8,9.77 9.77,9.77 0 0 0 9.77,19.54 9.77,9.77 0 0 0 19.54,9.77 9.77,9.77 0 0 0 9.77,-1.9073486e-8 Z M 9.74279,1.4514392 A 8.3911326,8.3911326 0 0 1 18.124851,9.851643 8.3911326,8.3911326 0 0 1 9.74279,18.251848 8.3911326,8.3911326 0 0 1 1.3516567,9.860715 8.3911326,8.3911326 0 0 1 9.74279,1.4605107 Z m 0,1.6510121 A 6.7582637,6.7582637 0 0 0 2.9845222,9.851643 6.7582637,6.7582637 0 0 0 9.742786,16.609907 6.7582637,6.7582637 0 0 0 16.50105,9.851643 6.7582637,6.7582637 0 0 0 9.742786,3.1024513 Z"
     id="path2"
     inkscape:connector-curvature="0"
     style="fill:#bde6fb;fill-opacity:1;stroke-width:0.907149" />
</svg>
