<?xml version="1.0" encoding="UTF-8" standalone="no"?>
<svg
   width="17.391001"
   height="14.137"
   version="1"
   id="svg11"
   sodipodi:docname="user-desktop-symbolic.svg"
   inkscape:version="0.92.4 (5da689c313, 2019-01-14)"
   xmlns:inkscape="http://www.inkscape.org/namespaces/inkscape"
   xmlns:sodipodi="http://sodipodi.sourceforge.net/DTD/sodipodi-0.dtd"
   xmlns="http://www.w3.org/2000/svg"
   xmlns:svg="http://www.w3.org/2000/svg"
   xmlns:rdf="http://www.w3.org/1999/02/22-rdf-syntax-ns#"
   xmlns:cc="http://creativecommons.org/ns#"
   xmlns:dc="http://purl.org/dc/elements/1.1/">
  <metadata
     id="metadata15">
    <rdf:RDF>
      <cc:Work
         rdf:about="">
        <dc:format>image/svg+xml</dc:format>
        <dc:type
           rdf:resource="http://purl.org/dc/dcmitype/StillImage" />
        <dc:title />
      </cc:Work>
    </rdf:RDF>
  </metadata>
  <sodipodi:namedview
     pagecolor="#ffffff"
     bordercolor="#666666"
     borderopacity="1"
     objecttolerance="10"
     gridtolerance="10"
     guidetolerance="10"
     inkscape:pageopacity="0"
     inkscape:pageshadow="2"
     inkscape:window-width="1085"
     inkscape:window-height="480"
     id="namedview13"
     showgrid="false"
     inkscape:zoom="9.8333333"
     inkscape:cx="1.0677966"
     inkscape:cy="12"
     inkscape:window-x="0"
     inkscape:window-y="25"
     inkscape:window-maximized="0"
     inkscape:current-layer="svg11"
     inkscape:showpageshadow="0"
     inkscape:pagecheckerboard="0"
     inkscape:deskcolor="#d1d1d1" />
  <defs
     id="defs7" />
  <path
     d="M 0.5800001,-1.6021728e-7 C 0.2590001,-1.6021728e-7 9.9182129e-8,0.03399984 9.9182129e-8,0.07599984 V 1.7459998 c 0,0.042 0.259000000817871,0.076 0.580000000817871,0.076 H 16.786 c 0.32,0 0.579,-0.034 0.579,-0.076 V 0.07599984 c 0,-0.042 -0.259,-0.0760000002173 -0.58,-0.0760000002173 H 0.5910001 Z M 0.0350001,2.2619998 V 13.557 c 0,0.32 0.258,0.58 0.578,0.58 H 16.813 c 0.321,0 0.578,-0.26 0.578,-0.58 V 2.2619998 Z m 1.08,1.85 h 2.468 v 2.879 h -2.467 z m 0,4.113 h 2.468 V 11.104 h -2.467 z"
     id="path9"
     inkscape:connector-curvature="0"
     style="fill:#bde6fb;fill-opacity:1" />
</svg>
