<?xml version="1.0" encoding="UTF-8" standalone="no"?>
<svg
   width="20.000048"
   height="20.00001"
   version="1.1"
   id="svg8"
   sodipodi:docname="audio-volume-medium-symbolic.svg"
   inkscape:version="0.92.4 (5da689c313, 2019-01-14)"
   xmlns:inkscape="http://www.inkscape.org/namespaces/inkscape"
   xmlns:sodipodi="http://sodipodi.sourceforge.net/DTD/sodipodi-0.dtd"
   xmlns="http://www.w3.org/2000/svg"
   xmlns:svg="http://www.w3.org/2000/svg"
   xmlns:rdf="http://www.w3.org/1999/02/22-rdf-syntax-ns#"
   xmlns:cc="http://creativecommons.org/ns#"
   xmlns:dc="http://purl.org/dc/elements/1.1/">
  <metadata
     id="metadata14">
    <rdf:RDF>
      <cc:Work
         rdf:about="">
        <dc:format>image/svg+xml</dc:format>
        <dc:type
           rdf:resource="http://purl.org/dc/dcmitype/StillImage" />
        <dc:title />
      </cc:Work>
    </rdf:RDF>
  </metadata>
  <defs
     id="defs12" />
  <sodipodi:namedview
     pagecolor="#ffffff"
     bordercolor="#666666"
     borderopacity="1"
     objecttolerance="10"
     gridtolerance="10"
     guidetolerance="10"
     inkscape:pageopacity="0"
     inkscape:pageshadow="2"
     inkscape:window-width="1087"
     inkscape:window-height="480"
     id="namedview10"
     showgrid="false"
     inkscape:zoom="9.8333333"
     inkscape:cx="1.0677966"
     inkscape:cy="12"
     inkscape:window-x="0"
     inkscape:window-y="25"
     inkscape:window-maximized="0"
     inkscape:current-layer="svg8"
     inkscape:showpageshadow="0"
     inkscape:pagecheckerboard="0"
     inkscape:deskcolor="#d1d1d1" />
  <path
     class="ColorScheme-Text"
     d="m 14.155048,5.3640099 -0.674,1.076 a 5,5 0 0 1 1.519,3.5730001 5,5 0 0 1 -1.512,3.576 l 0.672,1.078 a 6.25,6.25 0 0 0 2.09,-4.655 6.25,6.25 0 0 0 -2.095,-4.6480001 z"
     id="path2"
     inkscape:connector-curvature="0"
     style="color:#31363b;fill:#bde6fb;fill-opacity:1" />
  <path
     class="ColorScheme-Text"
     d="m 13.581048,0.68400989 -0.305,1.22000001 a 8.75,8.75 0 0 1 5.474,8.1080001 8.75,8.75 0 0 1 -5.475,8.098 l 0.304,1.219 a 10,10 0 0 0 6.421,-9.317 10,10 0 0 0 -6.419,-9.32800011 z"
     id="path4"
     inkscape:connector-curvature="0"
     style="color:#31363b;opacity:0.25;fill:#bde6fb;fill-opacity:1" />
  <path
     d="M 9.9530484,20.00001 A 10,10 0 0 1 4.8398972e-5,9.9690099 10,10 0 0 1 10.014048,9.894371e-6 L 10.000048,10.00001 Z"
     id="path6"
     inkscape:connector-curvature="0"
     style="fill:#bde6fb;fill-opacity:1;fill-rule:evenodd" />
</svg>
