<?xml version="1.0" encoding="UTF-8" standalone="no"?>
<svg
   width="17.574804"
   height="20.745155"
   viewBox="0 0 4.6500003 5.4888223"
   version="1.1"
   id="svg4"
   sodipodi:docname="avatar-default-symbolic.svg"
   inkscape:version="0.92.4 (5da689c313, 2019-01-14)"
   xmlns:inkscape="http://www.inkscape.org/namespaces/inkscape"
   xmlns:sodipodi="http://sodipodi.sourceforge.net/DTD/sodipodi-0.dtd"
   xmlns="http://www.w3.org/2000/svg"
   xmlns:svg="http://www.w3.org/2000/svg"
   xmlns:rdf="http://www.w3.org/1999/02/22-rdf-syntax-ns#"
   xmlns:cc="http://creativecommons.org/ns#"
   xmlns:dc="http://purl.org/dc/elements/1.1/">
  <metadata
     id="metadata10">
    <rdf:RDF>
      <cc:Work
         rdf:about="">
        <dc:format>image/svg+xml</dc:format>
        <dc:type
           rdf:resource="http://purl.org/dc/dcmitype/StillImage" />
        <dc:title />
      </cc:Work>
    </rdf:RDF>
  </metadata>
  <defs
     id="defs8" />
  <sodipodi:namedview
     pagecolor="#ffffff"
     bordercolor="#666666"
     borderopacity="1"
     objecttolerance="10"
     gridtolerance="10"
     guidetolerance="10"
     inkscape:pageopacity="0"
     inkscape:pageshadow="2"
     inkscape:window-width="1085"
     inkscape:window-height="480"
     id="namedview6"
     showgrid="false"
     inkscape:zoom="9.8333333"
     inkscape:cx="1.0677966"
     inkscape:cy="12"
     inkscape:window-x="0"
     inkscape:window-y="25"
     inkscape:window-maximized="0"
     inkscape:current-layer="svg4"
     inkscape:showpageshadow="0"
     inkscape:pagecheckerboard="0"
     inkscape:deskcolor="#d1d1d1" />
  <path
     d="m 2.33,0.02000002 c -0.59,0 -1.07,0.42 -1.07,0.97 C 1.26,1.17 1.29,1.41 1.4,1.94 1.46,2.09 1.8,2.39 1.98,2.59 A 0.42,0.42 0 0 1 1.94,2.82 C 1.32,3.02 0.22000004,3.42 0.15000004,3.68 L 3.5762787e-8,5.05 C 1.08,5.65 3.61,5.62 4.65,5.05 4.61,4.77 4.58,3.95 4.55,3.68 4.26,3.35 3.55,3.15 2.77,2.82 A 0.34,0.34 0 0 1 2.7,2.65 C 2.85,2.47 3.22,2.09 3.26,1.93 3.4,1.37 3.4,1.17 3.42,0.97000002 3.42,0.44000002 2.94,2.2649765e-8 2.33,2.2649765e-8 Z"
     id="path2"
     inkscape:connector-curvature="0"
     style="fill:#bde6fb;fill-opacity:1" />
</svg>
