<?xml version="1.0" encoding="UTF-8" standalone="no"?>
<svg
   width="21.639999"
   height="21.740459"
   version="1.1"
   id="svg4"
   sodipodi:docname="battery-full-charging-symbolic.svg"
   inkscape:version="0.92.4 (5da689c313, 2019-01-14)"
   xmlns:inkscape="http://www.inkscape.org/namespaces/inkscape"
   xmlns:sodipodi="http://sodipodi.sourceforge.net/DTD/sodipodi-0.dtd"
   xmlns="http://www.w3.org/2000/svg"
   xmlns:svg="http://www.w3.org/2000/svg"
   xmlns:rdf="http://www.w3.org/1999/02/22-rdf-syntax-ns#"
   xmlns:cc="http://creativecommons.org/ns#"
   xmlns:dc="http://purl.org/dc/elements/1.1/">
  <metadata
     id="metadata10">
    <rdf:RDF>
      <cc:Work
         rdf:about="">
        <dc:format>image/svg+xml</dc:format>
        <dc:type
           rdf:resource="http://purl.org/dc/dcmitype/StillImage" />
        <dc:title />
      </cc:Work>
    </rdf:RDF>
  </metadata>
  <defs
     id="defs8" />
  <sodipodi:namedview
     pagecolor="#ffffff"
     bordercolor="#666666"
     borderopacity="1"
     objecttolerance="10"
     gridtolerance="10"
     guidetolerance="10"
     inkscape:pageopacity="0"
     inkscape:pageshadow="2"
     inkscape:window-width="1085"
     inkscape:window-height="480"
     id="namedview6"
     showgrid="false"
     inkscape:zoom="9.8333333"
     inkscape:cx="1.0677966"
     inkscape:cy="12"
     inkscape:window-x="0"
     inkscape:window-y="25"
     inkscape:window-maximized="0"
     inkscape:current-layer="svg4"
     inkscape:showpageshadow="0"
     inkscape:pagecheckerboard="0"
     inkscape:deskcolor="#d1d1d1" />
  <path
     d="M 11,0.00999996 A 10.9,10.9 0 0 0 0,10.88 10.9,10.9 0 0 0 11,21.74 c 0.47,0 0.87,-0.21 1.32,-0.27 l 1.8,-3.08 A 8.32,8.32 0 0 1 11,19.02 8.17,8.17 0 0 1 2.76,10.87 8.17,8.17 0 0 1 11,2.72 8.2,8.2 0 0 1 18.61,7.82 L 20.59,5.85 A 10.87,10.87 0 0 0 10.99,-4.2915344e-8 Z M 11.01,4.52 a 6.42,6.4 0 0 0 -6.42,6.4 6.42,6.4 0 0 0 4.76,6.18 L 17.2,9.25 A 6.42,6.4 0 0 0 11.01,4.52 Z m 9.59,4.49 -7.27,6.77 h 4.15 l -3.11,5.8 7.27,-7.74 h -3.13 l 2.08,-4.83 z"
     id="path2"
     inkscape:connector-curvature="0"
     style="fill:#bde6fb;fill-opacity:1" />
</svg>
