<?xml version="1.0" encoding="UTF-8" standalone="no"?>
<svg
   width="22.148031"
   height="11.954421"
   viewBox="0 0 5.8599999 3.1629406"
   version="1.1"
   id="svg4"
   sodipodi:docname="bumblebee-inactive-symbolic.svg"
   inkscape:version="0.92.4 (5da689c313, 2019-01-14)"
   xmlns:inkscape="http://www.inkscape.org/namespaces/inkscape"
   xmlns:sodipodi="http://sodipodi.sourceforge.net/DTD/sodipodi-0.dtd"
   xmlns="http://www.w3.org/2000/svg"
   xmlns:svg="http://www.w3.org/2000/svg"
   xmlns:rdf="http://www.w3.org/1999/02/22-rdf-syntax-ns#"
   xmlns:cc="http://creativecommons.org/ns#"
   xmlns:dc="http://purl.org/dc/elements/1.1/">
  <metadata
     id="metadata10">
    <rdf:RDF>
      <cc:Work
         rdf:about="">
        <dc:format>image/svg+xml</dc:format>
        <dc:type
           rdf:resource="http://purl.org/dc/dcmitype/StillImage" />
        <dc:title />
      </cc:Work>
    </rdf:RDF>
  </metadata>
  <defs
     id="defs8" />
  <sodipodi:namedview
     pagecolor="#ffffff"
     bordercolor="#666666"
     borderopacity="1"
     objecttolerance="10"
     gridtolerance="10"
     guidetolerance="10"
     inkscape:pageopacity="0"
     inkscape:pageshadow="2"
     inkscape:window-width="862"
     inkscape:window-height="480"
     id="namedview6"
     showgrid="false"
     inkscape:zoom="9.8333333"
     inkscape:cx="1.0677966"
     inkscape:cy="12"
     inkscape:window-x="0"
     inkscape:window-y="25"
     inkscape:window-maximized="0"
     inkscape:current-layer="svg4"
     inkscape:showpageshadow="0"
     inkscape:pagecheckerboard="0"
     inkscape:deskcolor="#d1d1d1" />
  <path
     d="m 2.58,0.00294051 a 2.45,2.45 0 0 0 -0.03,0 H 2.38 A 4.5,4.5 0 0 0 0,1.1929405 c 0,0 0.62000001,1.78 2.37,1.95 l 0.25,0.02 h 0.2 v -0.01 a 6.3,6.3 0 0 0 3.04,-1.05 c -0.1,-0.1 -0.59,-0.34 -0.72,-0.44 -0.68,0.6 -1.38,1.1 -2.32,1.16 a 3.02,3.02 0 0 1 -0.44,-0.01 c -1.28,-0.16 -1.72999999,-1.57 -1.72999999,-1.57 0,0 0.57999999,-0.84999999 1.71999999,-0.93999999 h 0.16 l 0.29,0.02 c 0.84,0.15 1.38,0.86999999 1.38,0.86999999 0,0 -0.65,0.9 -1.38,1.02 a 0.96,0.96 0 0 1 -0.45,-0.04 c -0.55,-0.19 -0.72,-0.82 -0.72,-0.82 0,0 0.31,-0.38999999 0.71,-0.33 0.23,0.03 0.35,0.1 0.46,0.21 0.09,0.1 0.17,0.24 0.28,0.42 l 0.53,-0.46 c 0,0 -0.3,-0.38999999 -0.81,-0.49999999 a 1.25,1.25 0 0 0 -0.46,0 c -0.77,0.08 -1.23,0.59999999 -1.23,0.59999999 0,0 0.27,1 1.23,1.18 a 1.65,1.65 0 0 0 0.46,0 c 1.06,-0.09 2.04,-1.27 2.04,-1.27 0,0 -0.8,-1.04999999 -2.04,-1.19999999 a 2.45,2.45 0 0 0 -0.24,0 z"
     id="path2"
     inkscape:connector-curvature="0"
     style="opacity:0.5;fill:#bde6fb;fill-opacity:1;fill-rule:evenodd" />
</svg>
