<?xml version="1.0" encoding="UTF-8" standalone="no"?>
<svg
   width="21.993397"
   height="17.766945"
   id="svg9"
   version="1.1"
   sodipodi:docname="call-missed-symbolic.svg"
   inkscape:version="0.92.4 (5da689c313, 2019-01-14)"
   xmlns:inkscape="http://www.inkscape.org/namespaces/inkscape"
   xmlns:sodipodi="http://sodipodi.sourceforge.net/DTD/sodipodi-0.dtd"
   xmlns="http://www.w3.org/2000/svg"
   xmlns:svg="http://www.w3.org/2000/svg"
   xmlns:rdf="http://www.w3.org/1999/02/22-rdf-syntax-ns#"
   xmlns:cc="http://creativecommons.org/ns#"
   xmlns:dc="http://purl.org/dc/elements/1.1/">
  <metadata
     id="metadata8">
    <rdf:RDF>
      <cc:Work
         rdf:about="">
        <dc:format>image/svg+xml</dc:format>
        <dc:type
           rdf:resource="http://purl.org/dc/dcmitype/StillImage" />
        <dc:title />
      </cc:Work>
    </rdf:RDF>
  </metadata>
  <sodipodi:namedview
     pagecolor="#ffffff"
     bordercolor="#666666"
     borderopacity="1"
     objecttolerance="10"
     gridtolerance="10"
     guidetolerance="10"
     inkscape:pageopacity="0"
     inkscape:pageshadow="2"
     inkscape:window-width="862"
     inkscape:window-height="480"
     id="namedview6"
     showgrid="false"
     inkscape:zoom="9.8333333"
     inkscape:cx="1.0677966"
     inkscape:cy="12"
     inkscape:window-x="0"
     inkscape:window-y="25"
     inkscape:window-maximized="0"
     inkscape:current-layer="svg9"
     inkscape:showpageshadow="0"
     inkscape:pagecheckerboard="0"
     inkscape:deskcolor="#d1d1d1" />
  <defs
     id="defs3">
    <style
       id="current-color-scheme" />
  </defs>
  <path
     d="M 10.70126,9.3460083e-8 12.49126,1.7900001 l -1.79,1.8 -3.0000002,-3.00000001 -1.41,1.41000001 3.7,3.709 a 1,1 0 0 0 1.4200002,0 l 2.501,-2.5 1.79,1.791 V 9.3460084e-8 h -5 z M 11.26726,8.2380001 A 15.02,15.02 0 0 0 0.41625981,12.606 l -0.06,0.05 c -0.48,0.48 -0.47,1.49 0,1.96 l 2.67999999,2.78 a 1.24,1.24 0 0 0 1.769,0 l 1.77,-1.78 a 1.25,1.25 0 0 0 0,-1.77 l -0.41,-0.41 a 11.22,11.22 0 0 1 9.6800002,0 l -0.42,0.41 a 1.25,1.25 0 0 0 0,1.77 l 1.77,1.769 a 1.25,1.25 0 0 0 1.77,0 l 2.66,-2.738 c 0.46,-0.52 0.51,-1.51 0.03,-1.99 l -0.04,-0.032 a 15.02,15.02 0 0 0 -10.348,-4.3869999 z"
     id="path2"
     inkscape:connector-curvature="0"
     style="fill:#bde6fb;fill-opacity:1" />
</svg>
