<?xml version="1.0" encoding="UTF-8" standalone="no"?>
<svg
   width="20.098"
   height="18.32"
   id="svg9"
   version="1.1"
   sodipodi:docname="daytime-sunrise-symbolic.svg"
   inkscape:version="0.92.4 (5da689c313, 2019-01-14)"
   xmlns:inkscape="http://www.inkscape.org/namespaces/inkscape"
   xmlns:sodipodi="http://sodipodi.sourceforge.net/DTD/sodipodi-0.dtd"
   xmlns="http://www.w3.org/2000/svg"
   xmlns:svg="http://www.w3.org/2000/svg"
   xmlns:rdf="http://www.w3.org/1999/02/22-rdf-syntax-ns#"
   xmlns:cc="http://creativecommons.org/ns#"
   xmlns:dc="http://purl.org/dc/elements/1.1/">
  <metadata
     id="metadata8">
    <rdf:RDF>
      <cc:Work
         rdf:about="">
        <dc:format>image/svg+xml</dc:format>
        <dc:type
           rdf:resource="http://purl.org/dc/dcmitype/StillImage" />
        <dc:title />
      </cc:Work>
    </rdf:RDF>
  </metadata>
  <sodipodi:namedview
     pagecolor="#ffffff"
     bordercolor="#666666"
     borderopacity="1"
     objecttolerance="10"
     gridtolerance="10"
     guidetolerance="10"
     inkscape:pageopacity="0"
     inkscape:pageshadow="2"
     inkscape:window-width="862"
     inkscape:window-height="480"
     id="namedview6"
     showgrid="false"
     inkscape:zoom="9.8333333"
     inkscape:cx="1.0677966"
     inkscape:cy="12"
     inkscape:window-x="0"
     inkscape:window-y="25"
     inkscape:window-maximized="0"
     inkscape:current-layer="svg9"
     inkscape:showpageshadow="0"
     inkscape:pagecheckerboard="0"
     inkscape:deskcolor="#d1d1d1" />
  <defs
     id="defs3">
    <style
       id="current-color-scheme" />
  </defs>
  <path
     d="M 10.049,8.5830688e-8 7.049,4.0000001 h 6 z M 9.705,5.6800001 a 0.339,0.339 0 0 0 -0.314,0.34 v 2.013 c 0,0.18 0.16,0.318 0.34,0.318 h 0.677 c 0.18,0 0.338,-0.139 0.338,-0.318 v -2.014 c 0,-0.18 -0.138,-0.34 -0.338,-0.34 H 9.731 a 0.339,0.339 0 0 0 -0.026,0 z m -6.3,2.623 a 0.339,0.339 0 0 0 -0.215,0.087 l -0.479,0.479 a 0.339,0.339 0 0 0 0,0.459 L 4.127,10.764 a 0.339,0.339 0 0 0 0.479,0 l 0.478,-0.479 a 0.339,0.339 0 0 0 0.08,-0.2 0.339,0.339 0 0 0 0,-0.038 0.339,0.339 0 0 0 -0.08,-0.2399999 l -1.435,-1.417 a 0.339,0.339 0 0 0 -0.245,-0.087 z m 13.26,0 a 0.339,0.339 0 0 0 -0.216,0.087 l -1.435,1.416 a 0.339,0.339 0 0 0 0,0.4789999 l 0.478,0.479 a 0.339,0.339 0 0 0 0.479,0 l 1.416,-1.4359999 a 0.319,0.319 0 0 0 0.1,-0.2 0.319,0.319 0 0 0 0,-0.038 0.339,0.339 0 0 0 -0.1,-0.221 l -0.479,-0.479 a 0.339,0.339 0 0 0 -0.244,-0.087 z M 10.049,11.043 A 4.685,4.685 0 0 0 5.363,15.728 4.685,4.685 0 0 0 6.16,18.32 h 7.778 a 4.685,4.685 0 0 0 0.797,-2.592 4.685,4.685 0 0 0 -4.686,-4.685 z M 0.31500002,15.05 A 0.339,0.339 0 0 0 2.4795532e-8,15.388 v 0.677 c 0,0.18 0.139999995204468,0.34 0.339999995204468,0.34 H 2.354 c 0.18,0 0.318,-0.16 0.318,-0.34 v -0.677 c 0,-0.18 -0.14,-0.338 -0.34,-0.338 H 0.34000002 a 0.339,0.339 0 0 0 -0.025,0 z M 17.74,15.05 a 0.339,0.339 0 0 0 -0.314,0.338 v 0.677 c 0,0.18 0.14,0.34 0.34,0.34 h 1.992 c 0.18,0 0.34,-0.16 0.34,-0.34 v -0.677 c 0,-0.18 -0.14,-0.338 -0.34,-0.338 h -2.014 a 0.339,0.339 0 0 0 -0.004,0 z"
     id="path6"
     inkscape:connector-curvature="0"
     style="fill:#bde6fb;fill-opacity:1" />
</svg>
