<?xml version="1.0" encoding="UTF-8" standalone="no"?>
<svg
   width="23.688"
   height="23.684002"
   version="1"
   id="svg11"
   sodipodi:docname="dialog-error-symbolic.svg"
   inkscape:version="0.92.4 (5da689c313, 2019-01-14)"
   xmlns:inkscape="http://www.inkscape.org/namespaces/inkscape"
   xmlns:sodipodi="http://sodipodi.sourceforge.net/DTD/sodipodi-0.dtd"
   xmlns="http://www.w3.org/2000/svg"
   xmlns:svg="http://www.w3.org/2000/svg"
   xmlns:rdf="http://www.w3.org/1999/02/22-rdf-syntax-ns#"
   xmlns:cc="http://creativecommons.org/ns#"
   xmlns:dc="http://purl.org/dc/elements/1.1/">
  <metadata
     id="metadata15">
    <rdf:RDF>
      <cc:Work
         rdf:about="">
        <dc:format>image/svg+xml</dc:format>
        <dc:type
           rdf:resource="http://purl.org/dc/dcmitype/StillImage" />
        <dc:title />
      </cc:Work>
    </rdf:RDF>
  </metadata>
  <sodipodi:namedview
     pagecolor="#ffffff"
     bordercolor="#666666"
     borderopacity="1"
     objecttolerance="10"
     gridtolerance="10"
     guidetolerance="10"
     inkscape:pageopacity="0"
     inkscape:pageshadow="2"
     inkscape:window-width="1085"
     inkscape:window-height="480"
     id="namedview13"
     showgrid="false"
     inkscape:zoom="9.8333333"
     inkscape:cx="1.0677966"
     inkscape:cy="12"
     inkscape:window-x="0"
     inkscape:window-y="25"
     inkscape:window-maximized="0"
     inkscape:current-layer="svg11"
     inkscape:showpageshadow="0"
     inkscape:pagecheckerboard="0"
     inkscape:deskcolor="#d1d1d1" />
  <defs
     id="defs7" />
  <path
     d="M 11.844,3.7431717e-8 A 11.843,11.843 0 0 0 4.1484833e-8,11.844 11.843,11.843 0 0 0 11.844,23.684 11.843,11.843 0 0 0 23.688,11.844 11.843,11.843 0 0 0 11.844,3.7431717e-8 Z M 11.811,1.76 a 10.182,10.182 0 0 1 3.56,0.656 L 11.844,4.037 7.94,2.533 A 10.182,10.182 0 0 1 11.81,1.76 Z m 3.869,0.77 a 10.182,10.182 0 0 1 5.402,5.236 L 17.305,6.301 Z M 7.684,2.649 6.276,6.492 2.367,8.152 A 10.182,10.182 0 0 1 7.684,2.65 Z m 0.297,4.412 c 0.214,0 0.428,0.084 0.592,0.252 l 3.271,3.357 3.271,-3.357 a 0.824,0.824 0 0 1 1.186,0 0.877,0.877 0 0 1 0,1.216 l -3.271,3.358 3.271,3.357 a 0.88,0.88 0 0 1 0,1.22 0.81,0.81 0 0 1 -0.594,0.251 0.806,0.806 0 0 1 -0.592,-0.252 l -3.271,-3.36 -3.271,3.36 a 0.806,0.806 0 0 1 -0.592,0.252 0.81,0.81 0 0 1 -0.594,-0.252 0.88,0.88 0 0 1 0,-1.219 L 10.658,11.887 7.387,8.53 a 0.877,0.877 0 0 1 0,-1.217 0.827,0.827 0 0 1 0.594,-0.252 z m 13.193,0.906 a 10.182,10.182 0 0 1 0.818,3.977 10.182,10.182 0 0 1 -0.687,3.65 L 19.658,11.768 Z M 2.338,8.229 4.03,12.159 2.492,16.019 A 10.182,10.182 0 0 1 1.627,11.944 10.182,10.182 0 0 1 2.338,8.229 Z m 18.883,7.592 a 10.182,10.182 0 0 1 -5.18,5.37 l 1.451,-3.726 z M 2.547,16.141 6.383,17.625 8,21.381 a 10.182,10.182 0 0 1 -5.453,-5.24 z m 9.547,3.707 3.582,1.508 a 10.182,10.182 0 0 1 -3.865,0.771 10.182,10.182 0 0 1 -3.469,-0.623 z"
     id="path9"
     inkscape:connector-curvature="0"
     style="fill:#bde6fb;fill-opacity:1" />
</svg>
