<?xml version="1.0" encoding="UTF-8" standalone="no"?>
<svg
   width="23.68"
   height="23.68"
   version="1"
   id="svg4"
   sodipodi:docname="dialog-question-symbolic.svg"
   inkscape:version="0.92.4 (5da689c313, 2019-01-14)"
   xmlns:inkscape="http://www.inkscape.org/namespaces/inkscape"
   xmlns:sodipodi="http://sodipodi.sourceforge.net/DTD/sodipodi-0.dtd"
   xmlns="http://www.w3.org/2000/svg"
   xmlns:svg="http://www.w3.org/2000/svg"
   xmlns:rdf="http://www.w3.org/1999/02/22-rdf-syntax-ns#"
   xmlns:cc="http://creativecommons.org/ns#"
   xmlns:dc="http://purl.org/dc/elements/1.1/">
  <metadata
     id="metadata10">
    <rdf:RDF>
      <cc:Work
         rdf:about="">
        <dc:format>image/svg+xml</dc:format>
        <dc:type
           rdf:resource="http://purl.org/dc/dcmitype/StillImage" />
        <dc:title />
      </cc:Work>
    </rdf:RDF>
  </metadata>
  <defs
     id="defs8" />
  <sodipodi:namedview
     pagecolor="#ffffff"
     bordercolor="#666666"
     borderopacity="1"
     objecttolerance="10"
     gridtolerance="10"
     guidetolerance="10"
     inkscape:pageopacity="0"
     inkscape:pageshadow="2"
     inkscape:window-width="1085"
     inkscape:window-height="480"
     id="namedview6"
     showgrid="false"
     inkscape:zoom="9.8333333"
     inkscape:cx="1.0677966"
     inkscape:cy="12"
     inkscape:window-x="0"
     inkscape:window-y="25"
     inkscape:window-maximized="0"
     inkscape:current-layer="svg4"
     inkscape:showpageshadow="0"
     inkscape:pagecheckerboard="0"
     inkscape:deskcolor="#d1d1d1" />
  <path
     d="M 11.84,0 A 11.84,11.84 0 0 0 0,11.84 11.84,11.84 0 0 0 11.84,23.68 11.84,11.84 0 0 0 23.68,11.84 11.84,11.84 0 0 0 11.84,0 Z M 11.81,1.76 A 10.18,10.18 0 0 1 21.99,11.94 10.18,10.18 0 0 1 11.81,22.14 10.18,10.18 0 0 1 1.62,11.94 10.18,10.18 0 0 1 11.81,1.76 Z m 0.03,1.3 a 8.82,8.78 0 0 0 -8.82,8.78 8.82,8.78 0 0 0 8.82,8.78 8.82,8.78 0 0 0 8.82,-8.78 8.82,8.78 0 0 0 -8.82,-8.78 z m 0.11,1.91 c 0.26,0 0.51,0.03 0.76,0.06 1.77,0.16 3.4,1.26 3.43,2.67 0.13,1.45 -1.1,2.69 -2.36,3.68 -1.2,0.87 -1.48,2.1 -1.45,3.37 -0.4,0.08 -0.94,0.1 -0.97,-0.06 -0.03,-0.2 0.02,-0.38 0.02,-0.88 0,-1.3 0.8,-2.54 1.55,-3.63 0.75,-1.09 1.27,-2.2 0.8,-2.94 A 2.67,2.67 0 0 0 10.97,6.17 C 10.92,6.19 10.59,6.25 10.27,6.43 9.9,6.65 9.55,7.19 9.63,7.47 9.7,7.71 9.83,7.97 9.78,8.27 9.73,8.67 9.43,9.09 8.77,9.09 7.63,9.09 7.32,7.74 7.66,6.99 8.24,5.63 10.16,4.94 11.96,4.97 Z m -0.14,11.5 c 0.9,-0.02 1.6,0.86 1.32,1.63 -0.28,0.98 -1.93,1.2 -2.51,0.33 -0.66,-0.79 0.1,-2.03 1.2,-1.97 z"
     id="path2"
     inkscape:connector-curvature="0"
     style="fill:#bde6fb;fill-opacity:1" />
</svg>
