<?xml version="1.0" encoding="UTF-8" standalone="no"?>
<svg
   width="23.68"
   height="23.68"
   version="1"
   id="svg4"
   sodipodi:docname="dialog-password-symbolic.svg"
   inkscape:version="0.92.4 (5da689c313, 2019-01-14)"
   xmlns:inkscape="http://www.inkscape.org/namespaces/inkscape"
   xmlns:sodipodi="http://sodipodi.sourceforge.net/DTD/sodipodi-0.dtd"
   xmlns="http://www.w3.org/2000/svg"
   xmlns:svg="http://www.w3.org/2000/svg"
   xmlns:rdf="http://www.w3.org/1999/02/22-rdf-syntax-ns#"
   xmlns:cc="http://creativecommons.org/ns#"
   xmlns:dc="http://purl.org/dc/elements/1.1/">
  <metadata
     id="metadata10">
    <rdf:RDF>
      <cc:Work
         rdf:about="">
        <dc:format>image/svg+xml</dc:format>
        <dc:type
           rdf:resource="http://purl.org/dc/dcmitype/StillImage" />
        <dc:title />
      </cc:Work>
    </rdf:RDF>
  </metadata>
  <defs
     id="defs8" />
  <sodipodi:namedview
     pagecolor="#ffffff"
     bordercolor="#666666"
     borderopacity="1"
     objecttolerance="10"
     gridtolerance="10"
     guidetolerance="10"
     inkscape:pageopacity="0"
     inkscape:pageshadow="2"
     inkscape:window-width="1085"
     inkscape:window-height="480"
     id="namedview6"
     showgrid="false"
     inkscape:zoom="9.8333333"
     inkscape:cx="1.0677966"
     inkscape:cy="12"
     inkscape:window-x="0"
     inkscape:window-y="25"
     inkscape:window-maximized="0"
     inkscape:current-layer="svg4"
     inkscape:showpageshadow="0"
     inkscape:pagecheckerboard="0"
     inkscape:deskcolor="#d1d1d1" />
  <path
     d="M 11.84,0 A 11.84,11.84 0 0 0 0,11.84 11.84,11.84 0 0 0 11.84,23.68 11.84,11.84 0 0 0 23.68,11.84 11.84,11.84 0 0 0 11.84,0 Z M 11.81,1.76 A 10.18,10.18 0 0 1 21.99,11.94 10.18,10.18 0 0 1 11.81,22.14 10.18,10.18 0 0 1 1.62,11.94 10.18,10.18 0 0 1 11.81,1.76 Z m 0.03,1.3 a 8.82,8.78 0 0 0 -8.82,8.78 8.82,8.78 0 0 0 8.82,8.78 8.82,8.78 0 0 0 8.82,-8.78 8.82,8.78 0 0 0 -8.82,-8.78 z m 2.13,3.2 a 3.46,3.46 0 0 1 3.45,3.45 3.46,3.46 0 0 1 -3.45,3.46 c -0.45,0 -0.86,-0.08 -1.23,-0.2 L 10.91,14.8 H 9.69 v 1.23 H 8.47 v 1.22 H 6.43 v -2.04 l 4.28,-4.27 c -0.12,-0.41 -0.2,-0.82 -0.2,-1.23 a 3.46,3.46 0 0 1 3.46,-3.45 z m 1.01,1.22 c -0.7,0 -1.22,0.53 -1.22,1.22 0,0.69 0.53,1.22 1.22,1.22 0.7,0 1.22,-0.53 1.22,-1.22 0,-0.7 -0.53,-1.22 -1.22,-1.22 z"
     id="path2"
     inkscape:connector-curvature="0"
     style="fill:#bde6fb;fill-opacity:1" />
</svg>
