<?xml version="1.0" encoding="UTF-8" standalone="no"?>
<svg
   width="23.688"
   height="23.684002"
   version="1"
   id="svg4"
   sodipodi:docname="dialog-warning-symbolic.svg"
   inkscape:version="0.92.4 (5da689c313, 2019-01-14)"
   xmlns:inkscape="http://www.inkscape.org/namespaces/inkscape"
   xmlns:sodipodi="http://sodipodi.sourceforge.net/DTD/sodipodi-0.dtd"
   xmlns="http://www.w3.org/2000/svg"
   xmlns:svg="http://www.w3.org/2000/svg"
   xmlns:rdf="http://www.w3.org/1999/02/22-rdf-syntax-ns#"
   xmlns:cc="http://creativecommons.org/ns#"
   xmlns:dc="http://purl.org/dc/elements/1.1/">
  <metadata
     id="metadata10">
    <rdf:RDF>
      <cc:Work
         rdf:about="">
        <dc:format>image/svg+xml</dc:format>
        <dc:type
           rdf:resource="http://purl.org/dc/dcmitype/StillImage" />
        <dc:title />
      </cc:Work>
    </rdf:RDF>
  </metadata>
  <defs
     id="defs8" />
  <sodipodi:namedview
     pagecolor="#ffffff"
     bordercolor="#666666"
     borderopacity="1"
     objecttolerance="10"
     gridtolerance="10"
     guidetolerance="10"
     inkscape:pageopacity="0"
     inkscape:pageshadow="2"
     inkscape:window-width="1085"
     inkscape:window-height="480"
     id="namedview6"
     showgrid="false"
     inkscape:zoom="9.8333333"
     inkscape:cx="1.0677966"
     inkscape:cy="12"
     inkscape:window-x="0"
     inkscape:window-y="25"
     inkscape:window-maximized="0"
     inkscape:current-layer="svg4"
     inkscape:showpageshadow="0"
     inkscape:pagecheckerboard="0"
     inkscape:deskcolor="#d1d1d1" />
  <path
     d="M 11.844,3.7431717e-8 A 11.843,11.843 0 0 0 4.1484833e-8,11.844 11.843,11.843 0 0 0 11.844,23.684 11.843,11.843 0 0 0 23.688,11.844 11.843,11.843 0 0 0 11.844,3.7431717e-8 Z M 11.731,1.762 2.948,16.934 A 10.182,10.182 0 0 1 1.628,11.944 10.182,10.182 0 0 1 11.73,1.762 Z m 0.16,0.002 a 10.182,10.182 0 0 1 10.101,10.18 10.182,10.182 0 0 1 -1.316,4.994 z m -0.248,2.71 a 0.905,0.905 0 0 1 0.41,0.022 c 0.55,0.127 0.819,0.746 0.72,1.268 -0.192,2.202 -0.459,4.394 -0.624,6.6 h -0.637 c -0.2,-2.297 -0.467,-4.569 -0.701,-6.856 0,-0.072 0.005,-0.144 0.017,-0.215 0.055,-0.422 0.41,-0.748 0.815,-0.818 z m 0.135,9.278 c 0.386,-0.001 0.779,0.207 0.957,0.565 0.317,0.553 -0.01,1.332 -0.63,1.49 -0.639,0.216 -1.39,-0.32 -1.365,-1 a 1.04,1.04 0 0 1 0.397,-0.815 0.943,0.943 0 0 1 0.64,-0.24 z M 3.084,17.17 H 20.535 A 10.182,10.182 0 0 1 11.811,22.127 10.182,10.182 0 0 1 3.084,17.17 Z"
     id="path2"
     inkscape:connector-curvature="0"
     style="fill:#bde6fb;fill-opacity:1" />
</svg>
