<?xml version="1.0" encoding="UTF-8" standalone="no"?>
<svg
   width="19.76693"
   height="19.804731"
   viewBox="0 0 5.2300001 5.2400018"
   version="1.1"
   id="svg4"
   sodipodi:docname="display-brightness-off-symbolic.svg"
   inkscape:version="0.92.4 (5da689c313, 2019-01-14)"
   xmlns:inkscape="http://www.inkscape.org/namespaces/inkscape"
   xmlns:sodipodi="http://sodipodi.sourceforge.net/DTD/sodipodi-0.dtd"
   xmlns="http://www.w3.org/2000/svg"
   xmlns:svg="http://www.w3.org/2000/svg"
   xmlns:rdf="http://www.w3.org/1999/02/22-rdf-syntax-ns#"
   xmlns:cc="http://creativecommons.org/ns#"
   xmlns:dc="http://purl.org/dc/elements/1.1/">
  <metadata
     id="metadata10">
    <rdf:RDF>
      <cc:Work
         rdf:about="">
        <dc:format>image/svg+xml</dc:format>
        <dc:type
           rdf:resource="http://purl.org/dc/dcmitype/StillImage" />
        <dc:title />
      </cc:Work>
    </rdf:RDF>
  </metadata>
  <defs
     id="defs8" />
  <sodipodi:namedview
     pagecolor="#ffffff"
     bordercolor="#666666"
     borderopacity="1"
     objecttolerance="10"
     gridtolerance="10"
     guidetolerance="10"
     inkscape:pageopacity="0"
     inkscape:pageshadow="2"
     inkscape:window-width="1085"
     inkscape:window-height="480"
     id="namedview6"
     showgrid="false"
     inkscape:zoom="9.8333333"
     inkscape:cx="1.0677966"
     inkscape:cy="12"
     inkscape:window-x="0"
     inkscape:window-y="25"
     inkscape:window-maximized="0"
     inkscape:current-layer="svg4"
     inkscape:showpageshadow="0"
     inkscape:pagecheckerboard="0"
     inkscape:deskcolor="#d1d1d1" />
  <path
     d="M 2.5299999,1.7261505e-6 A 0.09,0.09 0 0 0 2.4399999,0.10000173 v 0.51 c 0,0.05 0.04,0.1 0.09,0.1 h 0.17 c 0.05,0 0.09,-0.05 0.09,-0.1 v -0.52 a 0.09,0.09 0 0 0 -0.09,-0.09000000385 h -0.16 z M 0.87999994,0.68000173 a 0.09,0.09 0 0 0 -0.05,0.03 l -0.12,0.12 a 0.09,0.09 0 0 0 0,0.12 L 1.0799999,1.3200017 a 0.09,0.09 0 0 0 0.12,0 l 0.12,-0.12 a 0.09,0.09 0 0 0 0,-0.12 L 0.94999994,0.71000173 a 0.09,0.09 0 0 0 -0.06,-0.03 z m 3.44999996,0 a 0.09,0.09 0 0 0 -0.05,0.03 l -0.37,0.36999997 a 0.09,0.09 0 0 0 0,0.12 l 0.12,0.12 a 0.09,0.09 0 0 0 0.12,0 l 0.37,-0.36999997 a 0.09,0.09 0 0 0 0,-0.12 l -0.12,-0.12 a 0.09,0.09 0 0 0 -0.06,-0.03 0.09,0.09 0 0 0 -0.01,0 z m -1.72,0.71999997 a 1.22,1.22 0 0 0 -1.21,1.21 1.22,1.22 0 0 0 1.21,1.23 1.22,1.22 0 0 0 1.23,-1.23 1.22,1.22 0 0 0 -1.22,-1.21 z m -2.51999993,1.04 a 0.09,0.09 0 0 0 -0.09000000198883,0.09 v 0.17 c 0,0.05 0.04000000198883,0.09 0.100000001988831,0.09 h 0.50999997 c 0.05,0 0.1,-0.04 0.1,-0.09 v -0.16 a 0.09,0.09 0 0 0 -0.1,-0.09 H 0.08999997 Z m 4.52999993,0 a 0.09,0.09 0 0 0 -0.1,0.09 v 0.17 c 0,0.05 0.05,0.09 0.1,0.09 h 0.52 c 0.05,0 0.09,-0.04 0.09,-0.09 v -0.16 a 0.09,0.09 0 0 0 -0.1,-0.09 h -0.51 z m -3.49,1.44 a 0.09,0.09 0 0 0 -0.05,0.03 l -0.36999996,0.37 a 0.09,0.09 0 0 0 0,0.12 l 0.12,0.12 a 0.09,0.09 0 0 0 0.12,0 l 0.36999996,-0.37 a 0.09,0.09 0 0 0 0,-0.12 l -0.12,-0.12 a 0.09,0.09 0 0 0 -0.06,-0.03 0.09,0.09 0 0 0 -0.01,0 z m 2.95,0 a 0.09,0.09 0 0 0 -0.05,0.03 l -0.12,0.12 a 0.09,0.09 0 0 0 0,0.12 l 0.37,0.37 a 0.09,0.09 0 0 0 0.12,0 l 0.12,-0.12 a 0.09,0.09 0 0 0 0,-0.12 l -0.37,-0.37 a 0.09,0.09 0 0 0 -0.06,-0.03 z m -1.54,0.66 a 0.09,0.09 0 0 0 -0.09,0.09 v 0.52 c 0,0.05 0.04,0.09 0.09,0.09 h 0.17 c 0.05,0 0.09,-0.04 0.09,-0.1 v -0.51 a 0.09,0.09 0 0 0 -0.09,-0.1 h -0.17 z"
     id="path2"
     inkscape:connector-curvature="0"
     style="fill:#bde6fb;fill-opacity:0.301961" />
</svg>
