<?xml version="1.0" encoding="UTF-8" standalone="no"?>
<svg
   width="22.107393"
   height="15.458268"
   viewBox="0 0 5.8492478 4.0900001"
   version="1.1"
   id="svg4"
   sodipodi:docname="keyboard-brightness-symbolic.svg"
   inkscape:version="0.92.4 (5da689c313, 2019-01-14)"
   xmlns:inkscape="http://www.inkscape.org/namespaces/inkscape"
   xmlns:sodipodi="http://sodipodi.sourceforge.net/DTD/sodipodi-0.dtd"
   xmlns="http://www.w3.org/2000/svg"
   xmlns:svg="http://www.w3.org/2000/svg"
   xmlns:rdf="http://www.w3.org/1999/02/22-rdf-syntax-ns#"
   xmlns:cc="http://creativecommons.org/ns#"
   xmlns:dc="http://purl.org/dc/elements/1.1/">
  <metadata
     id="metadata10">
    <rdf:RDF>
      <cc:Work
         rdf:about="">
        <dc:format>image/svg+xml</dc:format>
        <dc:type
           rdf:resource="http://purl.org/dc/dcmitype/StillImage" />
        <dc:title />
      </cc:Work>
    </rdf:RDF>
  </metadata>
  <defs
     id="defs8" />
  <sodipodi:namedview
     pagecolor="#ffffff"
     bordercolor="#666666"
     borderopacity="1"
     objecttolerance="10"
     gridtolerance="10"
     guidetolerance="10"
     inkscape:pageopacity="0"
     inkscape:pageshadow="2"
     inkscape:window-width="1085"
     inkscape:window-height="480"
     id="namedview6"
     showgrid="false"
     inkscape:zoom="9.8333333"
     inkscape:cx="1.0677966"
     inkscape:cy="12"
     inkscape:window-x="0"
     inkscape:window-y="25"
     inkscape:window-maximized="0"
     inkscape:current-layer="svg4"
     inkscape:showpageshadow="0"
     inkscape:pagecheckerboard="0"
     inkscape:deskcolor="#d1d1d1" />
  <path
     style="color:#bebebe;overflow:visible;fill:#bde6fb;fill-opacity:1;stroke-width:0.08;marker:none"
     d="M 2.7596239,1.2397766e-7 A 0.16,0.16 0 0 0 2.5996239,0.16000012 v 0.65 c 0,0.1 0.07,0.17 0.16,0.17 h 0.33 c 0.09,0 0.16,-0.08 0.16,-0.17 v -0.64 a 0.16,0.16 0 0 0 -0.16,-0.16 z m -1.25,0.26999999602234 -0.06,0.03 -0.28,0.16 a 0.16,0.16 0 0 0 -0.06,0.22 l 0.32,0.55999998 c 0.05,0.08 0.15,0.1 0.23,0.06 l 0.28,-0.16 c 0.07,-0.04 0.1,-0.14 0.05,-0.21999998 l -0.32,-0.57 a 0.16,0.16 0 0 0 -0.16,-0.08 z m 2.83,0 a 0.16,0.16 0 0 0 -0.16,0.08 l -0.32,0.57 a 0.16,0.16 0 0 0 0.05,0.21999998 l 0.28,0.16 c 0.08,0.05 0.18,0.02 0.23,-0.06 l 0.32,-0.55999998 a 0.16,0.16 0 0 0 -0.06,-0.22 l -0.28,-0.16 a 0.16,0.16 0 0 0 -0.06,-0.03 z M 0.35962392,1.1400001 a 0.16,0.16 0 0 0 -0.1,0.06 l -0.22,0.24 a 0.16,0.16 0 0 0 0.02,0.23 l 0.5,0.42 c 0.07,0.06 0.17,0.05 0.23,-0.02 l 0.21,-0.25 a 0.16,0.16 0 0 0 -0.02,-0.22 l -0.5,-0.42 a 0.16,0.16 0 0 0 -0.12,-0.04 z m 5.12999998,0 c -0.04,0 -0.09,0 -0.12,0.04 l -0.5,0.42 a 0.16,0.16 0 0 0 -0.02,0.22 l 0.2,0.25 c 0.07,0.07 0.17,0.08 0.24,0.02 l 0.5,-0.42 a 0.16,0.16 0 0 0 0.02,-0.23 l -0.21,-0.24 a 0.16,0.16 0 0 0 -0.11,-0.06 z m -3.93,0.56 a 0.34,0.34 0 0 0 -0.34,0.34 v 1.7 c 0,0.2 0.15,0.35 0.34,0.35 h 2.73 a 0.34,0.34 0 0 0 0.34,-0.34 v -1.71 a 0.34,0.34 0 0 0 -0.34,-0.34 z m 0.17,0.51 h 0.34 v 0.34 h -0.34 z m 0.51,0 h 0.34 v 0.34 h -0.33 z m 0.51,0 h 0.35 v 0.34 h -0.35 z m 0.52,0 h 0.34 v 0.34 h -0.34 z m 0.5,0 h 0.35 v 0.34 h -0.34 z m -2.04,0.51 h 0.34 v 0.35 h -0.34 z m 0.51,0 h 0.34 v 0.35 h -0.33 z m 0.51,0 h 0.35 v 0.35 h -0.35 z m 0.52,0 h 0.34 v 0.35 h -0.34 z m 0.5,0 h 0.35 v 0.35 h -0.34 z m -1.53,0.69 h 1.37 v 0.34 h -1.37 z"
     overflow="visible"
     id="path2"
     inkscape:connector-curvature="0" />
</svg>
