<?xml version="1.0" encoding="UTF-8" standalone="no"?>
<svg
   width="20.055824"
   height="16.895"
   version="1.1"
   id="svg4"
   sodipodi:docname="media-playlist-repeat-song-symbolic.svg"
   inkscape:version="0.92.4 (5da689c313, 2019-01-14)"
   xmlns:inkscape="http://www.inkscape.org/namespaces/inkscape"
   xmlns:sodipodi="http://sodipodi.sourceforge.net/DTD/sodipodi-0.dtd"
   xmlns="http://www.w3.org/2000/svg"
   xmlns:svg="http://www.w3.org/2000/svg"
   xmlns:rdf="http://www.w3.org/1999/02/22-rdf-syntax-ns#"
   xmlns:cc="http://creativecommons.org/ns#"
   xmlns:dc="http://purl.org/dc/elements/1.1/">
  <metadata
     id="metadata10">
    <rdf:RDF>
      <cc:Work
         rdf:about="">
        <dc:format>image/svg+xml</dc:format>
        <dc:type
           rdf:resource="http://purl.org/dc/dcmitype/StillImage" />
        <dc:title />
      </cc:Work>
    </rdf:RDF>
  </metadata>
  <defs
     id="defs8" />
  <sodipodi:namedview
     pagecolor="#ffffff"
     bordercolor="#666666"
     borderopacity="1"
     objecttolerance="10"
     gridtolerance="10"
     guidetolerance="10"
     inkscape:pageopacity="0"
     inkscape:pageshadow="2"
     inkscape:window-width="1085"
     inkscape:window-height="480"
     id="namedview6"
     showgrid="false"
     inkscape:zoom="9.8333333"
     inkscape:cx="1.0677966"
     inkscape:cy="12"
     inkscape:window-x="0"
     inkscape:window-y="25"
     inkscape:window-maximized="0"
     inkscape:current-layer="svg4"
     inkscape:showpageshadow="0"
     inkscape:pagecheckerboard="0"
     inkscape:deskcolor="#d1d1d1" />
  <path
     d="M 5.4478645,1.335144e-7 V 2.2200001 h -2.22 c -1.93,0.02 -3.07000004,1.53 -3.22000004,3.06 a 9.92,9.92 0 0 0 0.01,0.99 l 0.02,0.14 0.07,0.54 0.03,0.31 0.03,0.14 0.13,0.59 c 0.03,0.08 0.04,0.17 0.06,0.25 l 0.04,0.1 0.2,0.63 0.08,0.22 0.04,0.1 0.26,0.58 L 1.0778645,10.11 l 0.06,0.08 c 0.1,0.2 0.22,0.4 0.33,0.59 l 0.12,0.2 0.04,0.06 0.37,0.52 0.17,0.23 0.06,0.07 0.38,0.43 0.22,0.26 0.05,0.04 0.4,0.38 0.29,0.26 0.05,0.04 c 0.49,0.4 1.1,0.65 1.66,0.96 -0.1,-0.4 -0.25,-0.8 -0.25,-1.24 0,-0.4 0.14,-0.76 0.23,-1.13 l -0.2,-0.15 -0.34,-0.3 -0.23,-0.21 a 7.89,7.89 0 0 1 -2.37,-5.6399999 c 0,-0.62 0.5,-1.12 1.1,-1.12 h 2.23 v 2.23 l 4.44,-3.34 z M 11.287864,2.2200001 v 2.24 h 5.54 c 0.62,0 1.11,0.5 1.11,1.1 0,2.17 -0.87,4.13 -2.28,5.5599999 l -0.09,0.09 -0.23,0.2 a 4.97,4.97 0 0 1 -0.54,0.45 c 0.09,0.38 0.23,0.74 0.23,1.14 0,0.44 -0.15,0.84 -0.25,1.24 0.56,-0.3 1.17,-0.55 1.66,-0.96 l 0.05,-0.04 0.29,-0.26 0.4,-0.38 0.05,-0.04 0.22,-0.26 0.38,-0.43 0.06,-0.07 0.17,-0.23 0.37,-0.52 0.04,-0.06 0.12,-0.2 c 0.11,-0.2 0.23,-0.39 0.33,-0.59 l 0.05,-0.08 0.11,-0.2399999 0.26,-0.58 c 0,-0.03 0.03,-0.07 0.04,-0.1 l 0.07,-0.22 c 0.08,-0.2 0.15,-0.41 0.21,-0.62 l 0.04,-0.1 c 0.02,-0.1 0.03,-0.18 0.06,-0.26 l 0.13,-0.59 0.03,-0.14 c 0.02,-0.1 0.02,-0.2 0.03,-0.31 l 0.07,-0.54 0.02,-0.14 a 10.04,10.04 0 0 0 0.01,-1 c -0.15,-1.52 -1.29,-3.03 -3.22,-3.05 h -2.22 z m -1.26,6.88 a 3.9,3.9 0 1 0 0,7.7899999 3.9,3.9 0 0 0 0,-7.7899999 z M 9.4678645,10.21 h 1.1199995 v 5.56 H 9.4678645 v -3.89 h -1.1 v -0.55 c 1.1,0 1.1,-1.12 1.1,-1.12 z"
     id="path2"
     inkscape:connector-curvature="0"
     style="fill:#bde6fb;fill-opacity:1;stroke-width:1.11" />
</svg>
