<?xml version="1.0" encoding="UTF-8" standalone="no"?>
<svg
   width="20.055857"
   height="15.597625"
   version="1.1"
   id="svg4"
   sodipodi:docname="media-playlist-no-repeat-symbolic-rtl.svg"
   inkscape:version="0.92.4 (5da689c313, 2019-01-14)"
   xmlns:inkscape="http://www.inkscape.org/namespaces/inkscape"
   xmlns:sodipodi="http://sodipodi.sourceforge.net/DTD/sodipodi-0.dtd"
   xmlns="http://www.w3.org/2000/svg"
   xmlns:svg="http://www.w3.org/2000/svg"
   xmlns:rdf="http://www.w3.org/1999/02/22-rdf-syntax-ns#"
   xmlns:cc="http://creativecommons.org/ns#"
   xmlns:dc="http://purl.org/dc/elements/1.1/">
  <metadata
     id="metadata10">
    <rdf:RDF>
      <cc:Work
         rdf:about="">
        <dc:format>image/svg+xml</dc:format>
        <dc:type
           rdf:resource="http://purl.org/dc/dcmitype/StillImage" />
        <dc:title />
      </cc:Work>
    </rdf:RDF>
  </metadata>
  <defs
     id="defs8" />
  <sodipodi:namedview
     pagecolor="#ffffff"
     bordercolor="#666666"
     borderopacity="1"
     objecttolerance="10"
     gridtolerance="10"
     guidetolerance="10"
     inkscape:pageopacity="0"
     inkscape:pageshadow="2"
     inkscape:window-width="1085"
     inkscape:window-height="480"
     id="namedview6"
     showgrid="false"
     inkscape:zoom="9.8333333"
     inkscape:cx="1.0677966"
     inkscape:cy="12"
     inkscape:window-x="0"
     inkscape:window-y="25"
     inkscape:window-maximized="0"
     inkscape:current-layer="svg4"
     inkscape:showpageshadow="0"
     inkscape:pagecheckerboard="0"
     inkscape:deskcolor="#d1d1d1" />
  <path
     d="M 14.607723,1.9073486e-7 V 2.2300002 h 2.22 c 1.93,0.01 3.07,1.53 3.22,3.05 a 9.7,9.7 0 0 1 -0.01,0.99 l -0.02,0.14 -0.07,0.54 -0.03,0.32 c -0.01,0.04 -0.03,0.09 -0.03,0.14 l -0.13,0.58 c -0.03,0.08 -0.04,0.17 -0.06,0.26 l -0.04,0.1 -0.2,0.62 -0.08,0.23 -0.04,0.1 -0.26,0.57 -0.1,0.2399998 -0.06,0.09 c -0.1,0.2 -0.22,0.39 -0.33,0.58 l -0.12,0.2 -0.04,0.06 -0.37,0.52 -0.17,0.24 -0.06,0.06 -0.38,0.43 -0.22,0.26 -0.05,0.05 -0.4,0.37 -0.29,0.27 -0.05,0.03 a 9.99,9.99 0 0 1 -12.8200004,0 l -0.05,-0.03 -0.29,-0.27 -0.4,-0.37 -0.05,-0.05 -0.22,-0.26 -0.38,-0.43 -0.06,-0.06 c -0.06,-0.08 -0.1,-0.16 -0.17,-0.24 l -0.37,-0.52 -0.04,-0.06 -0.12,-0.2 c -0.11,-0.2 -0.23,-0.38 -0.33,-0.58 l -0.05,-0.09 -0.11,-0.2399998 -0.26,-0.58 c 0,-0.03 -0.03,-0.06 -0.04,-0.1 l -0.07,-0.22 c -0.08,-0.2 -0.15,-0.4 -0.21,-0.62 l -0.04,-0.1 c -0.02,-0.09 -0.03,-0.18 -0.06,-0.26 l -0.13,-0.58 c 0,-0.05 -0.02,-0.1 -0.03,-0.14 -0.02,-0.1 -0.02,-0.21 -0.03,-0.32 l -0.07,-0.54 -0.02,-0.14 a 10.04,10.04 0 0 1 -0.01,-0.99 c 0.15,-1.52 1.29,-3.04 3.22,-3.05 h 5.54 v 2.22 h -5.54 c -0.62,0 -1.11,0.5 -1.11,1.11 0,2.16 0.87,4.12 2.28,5.5499998 l 0.09,0.1 0.23,0.2 0.34,0.3 0.29,0.22 0.33,0.24 0.29,0.17 c 0.14,0.08 0.27,0.17 0.41,0.24 l 0.21,0.1 0.51,0.23 0.22,0.08 0.51,0.17 0.28,0.07 c 0.16,0.04 0.31,0.08 0.47,0.1 a 7.93,7.93 0 0 0 2.9000004,0 c 0.16,-0.02 0.31,-0.06 0.47,-0.1 l 0.28,-0.07 a 7.9,7.9 0 0 0 0.5,-0.17 l 0.23,-0.08 a 7.92,7.92 0 0 0 0.5,-0.23 l 0.22,-0.1 c 0.14,-0.07 0.27,-0.16 0.41,-0.24 l 0.29,-0.17 0.33,-0.24 0.3,-0.22 0.33,-0.3 0.23,-0.2 a 7.89,7.89 0 0 0 2.37,-5.6399998 c 0,-0.63 -0.5,-1.12 -1.1,-1.12 h -2.23 v 2.22 l -4.44,-3.33 z"
     id="path2"
     inkscape:connector-curvature="0"
     style="fill:#bde6fb;fill-opacity:0.301961" />
</svg>
