<?xml version="1.0" encoding="UTF-8" standalone="no"?>
<svg
   width="21.160036"
   height="20.16"
   version="1.1"
   id="svg4"
   sodipodi:docname="microphone-sensitivity-high-symbolic.svg"
   inkscape:version="0.92.4 (5da689c313, 2019-01-14)"
   xmlns:inkscape="http://www.inkscape.org/namespaces/inkscape"
   xmlns:sodipodi="http://sodipodi.sourceforge.net/DTD/sodipodi-0.dtd"
   xmlns="http://www.w3.org/2000/svg"
   xmlns:svg="http://www.w3.org/2000/svg"
   xmlns:rdf="http://www.w3.org/1999/02/22-rdf-syntax-ns#"
   xmlns:cc="http://creativecommons.org/ns#"
   xmlns:dc="http://purl.org/dc/elements/1.1/">
  <metadata
     id="metadata10">
    <rdf:RDF>
      <cc:Work
         rdf:about="">
        <dc:format>image/svg+xml</dc:format>
        <dc:type
           rdf:resource="http://purl.org/dc/dcmitype/StillImage" />
        <dc:title />
      </cc:Work>
    </rdf:RDF>
  </metadata>
  <defs
     id="defs8" />
  <sodipodi:namedview
     pagecolor="#ffffff"
     bordercolor="#666666"
     borderopacity="1"
     objecttolerance="10"
     gridtolerance="10"
     guidetolerance="10"
     inkscape:pageopacity="0"
     inkscape:pageshadow="2"
     inkscape:window-width="1085"
     inkscape:window-height="480"
     id="namedview6"
     showgrid="false"
     inkscape:zoom="9.8333333"
     inkscape:cx="1.0677966"
     inkscape:cy="12"
     inkscape:window-x="0"
     inkscape:window-y="25"
     inkscape:window-maximized="0"
     inkscape:current-layer="svg4"
     inkscape:showpageshadow="0"
     inkscape:pagecheckerboard="0"
     inkscape:deskcolor="#d1d1d1" />
  <path
     d="M 8.4400354,-7.6293945e-8 A 5.52,5.65 0 0 0 2.9200354,5.6499999 5.52,5.65 0 0 0 8.4400354,11.29 5.52,5.65 0 0 0 13.960035,5.6499999 5.52,5.65 0 0 0 8.4400354,-7.6293945e-8 Z M 18.300035,0.05999992 V 20.16 h 2.86 V 0.05999992 Z M 3.5409927e-5,6.0399999 a 8.44,8.63 0 0 0 0,0.05 A 8.44,8.63 0 0 0 7.3700354,14.64 v 5.33 h 2.16 v -5.33 a 8.44,8.63 0 0 0 7.3399996,-8.5500001 8.44,8.63 0 0 0 0,-0.05 h -1.95 a 6.5,6.64 0 0 1 0,0.05 A 6.5,6.64 0 0 1 8.4200354,12.73 a 6.5,6.64 0 0 1 -6.49,-6.6400001 6.5,6.64 0 0 1 0,-0.05 z"
     id="path2"
     inkscape:connector-curvature="0"
     style="fill:#bde6fb;fill-opacity:1;stroke-width:5.79" />
</svg>
