<?xml version="1.0" encoding="UTF-8" standalone="no"?>
<svg
   width="21.160036"
   height="20.160009"
   version="1.1"
   id="svg6"
   sodipodi:docname="microphone-sensitivity-medium-symbolic.svg"
   inkscape:version="0.92.4 (5da689c313, 2019-01-14)"
   xmlns:inkscape="http://www.inkscape.org/namespaces/inkscape"
   xmlns:sodipodi="http://sodipodi.sourceforge.net/DTD/sodipodi-0.dtd"
   xmlns="http://www.w3.org/2000/svg"
   xmlns:svg="http://www.w3.org/2000/svg"
   xmlns:rdf="http://www.w3.org/1999/02/22-rdf-syntax-ns#"
   xmlns:cc="http://creativecommons.org/ns#"
   xmlns:dc="http://purl.org/dc/elements/1.1/">
  <metadata
     id="metadata12">
    <rdf:RDF>
      <cc:Work
         rdf:about="">
        <dc:format>image/svg+xml</dc:format>
        <dc:type
           rdf:resource="http://purl.org/dc/dcmitype/StillImage" />
        <dc:title />
      </cc:Work>
    </rdf:RDF>
  </metadata>
  <defs
     id="defs10" />
  <sodipodi:namedview
     pagecolor="#ffffff"
     bordercolor="#666666"
     borderopacity="1"
     objecttolerance="10"
     gridtolerance="10"
     guidetolerance="10"
     inkscape:pageopacity="0"
     inkscape:pageshadow="2"
     inkscape:window-width="1085"
     inkscape:window-height="480"
     id="namedview8"
     showgrid="false"
     inkscape:zoom="9.8333333"
     inkscape:cx="1.0677966"
     inkscape:cy="12"
     inkscape:window-x="0"
     inkscape:window-y="25"
     inkscape:window-maximized="0"
     inkscape:current-layer="svg6"
     inkscape:showpageshadow="0"
     inkscape:pagecheckerboard="0"
     inkscape:deskcolor="#d1d1d1" />
  <path
     d="m 8.4400354,9.2220306e-6 a 5.52,5.65 0 0 0 -5.53,5.6399999779694 5.52,5.65 0 0 0 5.53,5.6499998 A 5.52,5.65 0 0 0 13.960035,5.6400092 5.52,5.65 0 0 0 8.4400354,9.2220306e-6 Z M 3.5409927e-5,6.0400092 a 8.44,8.63 0 0 0 0,0.05 A 8.44,8.63 0 0 0 7.3700354,14.640009 v 5.33 h 2.16 v -5.33 a 8.44,8.63 0 0 0 7.3399996,-8.5499998 8.44,8.63 0 0 0 0,-0.05 h -1.95 a 6.5,6.64 0 0 1 0,0.05 6.5,6.64 0 0 1 -6.4999996,6.6399998 6.5,6.64 0 0 1 -6.49,-6.6399998 6.5,6.64 0 0 1 0,-0.05 z M 18.300035,8.5400092 V 20.160009 h 2.86 V 8.5500092 h -2.86 z"
     id="path2"
     inkscape:connector-curvature="0"
     style="fill:#bde6fb;fill-opacity:1;stroke-width:5.79" />
  <path
     d="m 18.300035,0.06000922 h 2.86 V 20.160009 h -2.86 z"
     id="path4"
     inkscape:connector-curvature="0"
     style="fill:#bde6fb;fill-opacity:0.301961;stroke-width:2.98" />
</svg>
