<?xml version="1.0" encoding="UTF-8" standalone="no"?>
<svg
   height="15.18"
   width="20.322098"
   version="1.1"
   id="svg4"
   sodipodi:docname="network-wireless-hotspot-symbolic.svg"
   inkscape:version="0.92.4 (5da689c313, 2019-01-14)"
   xmlns:inkscape="http://www.inkscape.org/namespaces/inkscape"
   xmlns:sodipodi="http://sodipodi.sourceforge.net/DTD/sodipodi-0.dtd"
   xmlns="http://www.w3.org/2000/svg"
   xmlns:svg="http://www.w3.org/2000/svg"
   xmlns:rdf="http://www.w3.org/1999/02/22-rdf-syntax-ns#"
   xmlns:cc="http://creativecommons.org/ns#"
   xmlns:dc="http://purl.org/dc/elements/1.1/">
  <metadata
     id="metadata10">
    <rdf:RDF>
      <cc:Work
         rdf:about="">
        <dc:format>image/svg+xml</dc:format>
        <dc:type
           rdf:resource="http://purl.org/dc/dcmitype/StillImage" />
        <dc:title />
      </cc:Work>
    </rdf:RDF>
  </metadata>
  <defs
     id="defs8" />
  <sodipodi:namedview
     pagecolor="#ffffff"
     bordercolor="#666666"
     borderopacity="1"
     objecttolerance="10"
     gridtolerance="10"
     guidetolerance="10"
     inkscape:pageopacity="0"
     inkscape:pageshadow="2"
     inkscape:window-width="1085"
     inkscape:window-height="480"
     id="namedview6"
     showgrid="false"
     inkscape:zoom="9.8333333"
     inkscape:cx="1.0677966"
     inkscape:cy="12"
     inkscape:window-x="0"
     inkscape:window-y="25"
     inkscape:window-maximized="0"
     inkscape:current-layer="svg4"
     inkscape:showpageshadow="0"
     inkscape:pagecheckerboard="0"
     inkscape:deskcolor="#d1d1d1" />
  <path
     d="M 16.030982,1.5258789e-7 V 1.5900002 a 8.8,8.8 0 0 1 2.13,5.96 c 0,2.4999998 -0.85,4.3199998 -2.18,5.9499998 v 1.6 h 1.5 a 11.59,11.59 0 0 0 2.84,-7.5399998 11.3,11.3 0 0 0 -2.76,-7.56000004741211 z M 2.760982,0.09000015 A 11.3,11.3 0 0 0 9.8201275e-4,7.6400002 l 0.009999997,-0.01 A 11.59,11.59 0 0 0 2.860982,15.18 h 1.48 v -1.6 a 8.98,8.98 0 0 1 -2.18,-5.9499998 8.8,8.8 0 0 1 2.13,-5.94 V 0.09000015 Z m 9.57,2.16000005 v 2.14 a 5.1,5.1 0 0 1 1.06,3.24 5.1,5.1 0 0 1 -1.09,3.2399998 v 2.16 h 1.07 c 1.33,-1.07 2.17,-3.0999998 2.18,-5.3899998 l 0.01,0.01 c 0,-2.34 -0.79,-4.34 -2.15,-5.4 z m -5.42,0.08 c -1.36,1.06 -2.15,3.07 -2.15,5.4 h 0.02 c 0,2.2999998 0.85,4.3199998 2.18,5.3899998 h 1.06 v -2.16 a 5.06,5.06 0 0 1 -1.09,-3.2299998 5.14,5.14 0 0 1 1.06,-3.24 v -2.16 z m 3.3,3.82 a 1.51,1.51 0 0 0 -1.51,1.51 1.51,1.51 0 0 0 1.51,1.51 1.51,1.51 0 0 0 1.51,-1.51 1.51,1.51 0 0 0 -1.5,-1.5 z"
     id="path2"
     inkscape:connector-curvature="0"
     style="fill:#bde6fb;fill-opacity:1" />
</svg>
