<?xml version="1.0" encoding="UTF-8" standalone="no"?>
<svg
   height="19.24"
   width="20.288321"
   version="1.1"
   id="svg4"
   sodipodi:docname="network-vpn-no-route-symbolic.svg"
   inkscape:version="0.92.4 (5da689c313, 2019-01-14)"
   xmlns:inkscape="http://www.inkscape.org/namespaces/inkscape"
   xmlns:sodipodi="http://sodipodi.sourceforge.net/DTD/sodipodi-0.dtd"
   xmlns="http://www.w3.org/2000/svg"
   xmlns:svg="http://www.w3.org/2000/svg"
   xmlns:rdf="http://www.w3.org/1999/02/22-rdf-syntax-ns#"
   xmlns:cc="http://creativecommons.org/ns#"
   xmlns:dc="http://purl.org/dc/elements/1.1/">
  <metadata
     id="metadata10">
    <rdf:RDF>
      <cc:Work
         rdf:about="">
        <dc:format>image/svg+xml</dc:format>
        <dc:type
           rdf:resource="http://purl.org/dc/dcmitype/StillImage" />
        <dc:title />
      </cc:Work>
    </rdf:RDF>
  </metadata>
  <defs
     id="defs8" />
  <sodipodi:namedview
     pagecolor="#ffffff"
     bordercolor="#666666"
     borderopacity="1"
     objecttolerance="10"
     gridtolerance="10"
     guidetolerance="10"
     inkscape:pageopacity="0"
     inkscape:pageshadow="2"
     inkscape:window-width="862"
     inkscape:window-height="480"
     id="namedview6"
     showgrid="false"
     inkscape:zoom="9.8333333"
     inkscape:cx="1.0677966"
     inkscape:cy="12"
     inkscape:window-x="0"
     inkscape:window-y="25"
     inkscape:window-maximized="0"
     inkscape:current-layer="svg4"
     inkscape:showpageshadow="0"
     inkscape:pagecheckerboard="0"
     inkscape:deskcolor="#d1d1d1" />
  <path
     d="m 4.2273208,0 c -2.46,0.14 -4.35099999,2.04 -4.22099999,4.5 H 3.0063208 c -0.04,-0.84 0.56,-1.45 1.4,-1.5 a 1.48,1.48 0 0 1 1.6,1.41 v 0.049 c 0,0.2 -0.04,0.49 -0.18,0.65 a 6.97,6.97 0 0 1 -1.04,0.99 5.73,5.73 0 0 0 -1.08,1.03 3.1,3.1 0 0 0 -0.7,1.871 c 0,0.8 0.71,1.5 1.5,1.5 0.8,0 1.51,-0.7 1.5,-1.5 0,0 -0.02,0.05 0.05,-0.05 0.07,-0.09 0.27,-0.25 0.56,-0.46 1.82,-1.38 2.4,-2.16 2.4,-4.27 a 4.54,4.54 0 0 0 -4.79,-4.21 V 0 Z M 15.037321,5.67 a 3.23,3.23 0 0 0 -3.228,3.23 v 1.29 H 9.8583208 v 7.75 c 0,0.72 0.5900002,1.3 1.3000002,1.3 h 7.76 a 1.3,1.3 0 0 0 1.29,-1.3 l 0.08,-7.72 -1.37,-0.03 h -0.65 v -1.3 a 3.23,3.23 0 0 0 -3.23,-3.22 z m 0,1.22 a 2,2 0 0 1 2,2 v 1.3 h -4 v -1.3 c 0,-1.1 0.9,-2 2,-2 z M 4.4463208,12 a 1.5003,1.5003 0 0 0 0.06,3 1.5,1.5 0 0 0 0,-3 1.5,1.5 0 0 0 -0.06,0 z"
     id="path2"
     inkscape:connector-curvature="0"
     style="fill:#bde6fb;fill-opacity:1" />
</svg>
