<?xml version="1.0" encoding="UTF-8" standalone="no"?>
<svg
   height="19.690001"
   width="18.85009"
   version="1.1"
   id="svg4"
   sodipodi:docname="network-cellular-signal-excellent-secure-symbolic.svg"
   inkscape:version="0.92.4 (5da689c313, 2019-01-14)"
   xmlns:inkscape="http://www.inkscape.org/namespaces/inkscape"
   xmlns:sodipodi="http://sodipodi.sourceforge.net/DTD/sodipodi-0.dtd"
   xmlns="http://www.w3.org/2000/svg"
   xmlns:svg="http://www.w3.org/2000/svg"
   xmlns:rdf="http://www.w3.org/1999/02/22-rdf-syntax-ns#"
   xmlns:cc="http://creativecommons.org/ns#"
   xmlns:dc="http://purl.org/dc/elements/1.1/">
  <metadata
     id="metadata10">
    <rdf:RDF>
      <cc:Work
         rdf:about="">
        <dc:format>image/svg+xml</dc:format>
        <dc:type
           rdf:resource="http://purl.org/dc/dcmitype/StillImage" />
        <dc:title />
      </cc:Work>
    </rdf:RDF>
  </metadata>
  <defs
     id="defs8" />
  <sodipodi:namedview
     pagecolor="#ffffff"
     bordercolor="#666666"
     borderopacity="1"
     objecttolerance="10"
     gridtolerance="10"
     guidetolerance="10"
     inkscape:pageopacity="0"
     inkscape:pageshadow="2"
     inkscape:window-width="1131"
     inkscape:window-height="480"
     id="namedview6"
     showgrid="false"
     inkscape:zoom="9.8333333"
     inkscape:cx="12"
     inkscape:cy="12"
     inkscape:window-x="0"
     inkscape:window-y="25"
     inkscape:window-maximized="0"
     inkscape:current-layer="svg4"
     inkscape:showpageshadow="0"
     inkscape:pagecheckerboard="0"
     inkscape:deskcolor="#d1d1d1" />
  <path
     style="color:#bebebe;overflow:visible;fill:#bde6fb;fill-opacity:1;stroke-width:1.13;marker:none"
     d="m 14.160089,0 a 0.56,0.56 0 0 0 -0.56,0.57 V 9.6 a 2.76,2.76 0 0 1 0.22,-0.14 2.76,2.76 0 0 1 0.24,-0.12 2.76,2.76 0 0 1 0.26,-0.1 2.76,2.76 0 0 1 0.27,-0.06 2.76,2.76 0 0 1 0.27,-0.04 2.76,2.76 0 0 1 0.28,-0.02 2.76,2.76 0 0 1 0.19,0 2.76,2.76 0 0 1 0.27,0.04 2.76,2.76 0 0 1 0.26,0.06 V 0.57 a 0.56,0.56 0 0 0 -0.56,-0.57 z m -3.4,3.4 a 0.56,0.56 0 0 0 -0.56,0.57 v 12.46 c 0,0.3 0.24,0.51 0.53,0.54 v -3.99 h 1.65 v -1.1 a 2.76,2.76 0 0 1 0.01,-0.2 2.76,2.76 0 0 1 0.03,-0.27 2.76,2.76 0 0 1 0.04,-0.17 V 3.97 a 0.56,0.56 0 0 0 -0.56,-0.57 z M 7.3600895,6.8 a 0.56,0.56 0 0 0 -0.56,0.57 v 9.06 c 0,0.32 0.25,0.57 0.56,0.57 h 1.14 c 0.31,0 0.56,-0.25 0.56,-0.57 V 7.37 a 0.56,0.56 0 0 0 -0.56,-0.57 z m 7.7799995,3.32 a 2.28,2.28 0 0 0 -2.27,2.28 v 0.91 h -1.37 v 5.47 c 0,0.5 0.4,0.91 0.91,0.91 h 5.47 a 0.92,0.92 0 0 0 0.9,-0.91 l 0.07,-5.45 -0.97,-0.02 h -0.46 V 12.4 a 2.28,2.28 0 0 0 -2.28,-2.28 z M 3.9600895,10.2 a 0.56,0.56 0 0 0 -0.56,0.57 v 5.66 c 0,0.32 0.25,0.57 0.56,0.57 h 1.14 c 0.31,0 0.56,-0.25 0.56,-0.57 v -5.66 a 0.56,0.56 0 0 0 -0.56,-0.57 z m 11.1799995,0.79 c 0.78,0 1.42,0.63 1.42,1.41 v 0.91 h -2.83 V 12.4 c 0,-0.78 0.64,-1.41 1.41,-1.41 z M 0.56008947,13.6 A 0.56,0.56 0 0 0 8.9473724e-5,14.17 v 2.26 C 8.9473724e-5,16.75 0.25008947,17 0.56008947,17 H 1.7000895 c 0.31,0 0.56,-0.25 0.56,-0.57 v -2.26 a 0.56,0.56 0 0 0 -0.56,-0.57 z"
     overflow="visible"
     id="path2"
     inkscape:connector-curvature="0" />
</svg>
