<?xml version="1.0" encoding="UTF-8" standalone="no"?>
<svg
   width="20.013788"
   height="18.594229"
   version="1.1"
   id="svg28"
   sodipodi:docname="network-wireless-no-route-symbolic.svg"
   inkscape:version="0.92.4 (5da689c313, 2019-01-14)"
   xmlns:inkscape="http://www.inkscape.org/namespaces/inkscape"
   xmlns:sodipodi="http://sodipodi.sourceforge.net/DTD/sodipodi-0.dtd"
   xmlns:xlink="http://www.w3.org/1999/xlink"
   xmlns="http://www.w3.org/2000/svg"
   xmlns:svg="http://www.w3.org/2000/svg"
   xmlns:rdf="http://www.w3.org/1999/02/22-rdf-syntax-ns#"
   xmlns:cc="http://creativecommons.org/ns#"
   xmlns:dc="http://purl.org/dc/elements/1.1/">
  <metadata
     id="metadata32">
    <rdf:RDF>
      <cc:Work
         rdf:about="">
        <dc:format>image/svg+xml</dc:format>
        <dc:type
           rdf:resource="http://purl.org/dc/dcmitype/StillImage" />
        <dc:title />
      </cc:Work>
    </rdf:RDF>
  </metadata>
  <sodipodi:namedview
     pagecolor="#ffffff"
     bordercolor="#666666"
     borderopacity="1"
     objecttolerance="10"
     gridtolerance="10"
     guidetolerance="10"
     inkscape:pageopacity="0"
     inkscape:pageshadow="2"
     inkscape:window-width="1085"
     inkscape:window-height="480"
     id="namedview30"
     showgrid="false"
     inkscape:zoom="9.8333333"
     inkscape:cx="1.0677966"
     inkscape:cy="12"
     inkscape:window-x="0"
     inkscape:window-y="25"
     inkscape:window-maximized="0"
     inkscape:current-layer="svg28"
     inkscape:showpageshadow="0"
     inkscape:pagecheckerboard="0"
     inkscape:deskcolor="#d1d1d1" />
  <defs
     id="defs14">
    <linearGradient
       id="swatch5"
       inkscape:swatch="solid">
      <stop
         style="stop-color:#bde6fb;stop-opacity:0.3019608;"
         offset="0"
         id="stop5" />
    </linearGradient>
    <linearGradient
       id="swatch4"
       inkscape:swatch="solid">
      <stop
         style="stop-color:#bde6fb;stop-opacity:0.3019608;"
         offset="0"
         id="stop4" />
    </linearGradient>
    <linearGradient
       id="swatch3"
       inkscape:swatch="solid">
      <stop
         style="stop-color:#bde6fb;stop-opacity:0.3019608;"
         offset="0"
         id="stop3" />
    </linearGradient>
    <linearGradient
       id="swatch2"
       inkscape:swatch="solid">
      <stop
         style="stop-color:#bde6fb;stop-opacity:0.3019608;"
         offset="0"
         id="stop2" />
    </linearGradient>
    <linearGradient
       id="swatch1"
       inkscape:swatch="solid">
      <stop
         style="stop-color:#bde6fb;stop-opacity:0.99607843;"
         offset="0"
         id="stop1" />
    </linearGradient>
    <clipPath
       id="a">
      <ellipse
         cx="7.9910002"
         cy="40.182999"
         rx="7.5479999"
         ry="7.4910002"
         fill="#cccccc"
         stroke-width="0.379"
         stroke-linecap="round"
         stroke-linejoin="round"
         id="ellipse2" />
    </clipPath>
    <clipPath
       id="b">
      <ellipse
         cx="23.621"
         cy="24.5"
         rx="21.007"
         ry="21.049999"
         fill="#cccccc"
         stroke-width="0.297"
         stroke-linecap="round"
         stroke-linejoin="round"
         id="ellipse5" />
    </clipPath>
    <clipPath
       id="c">
      <ellipse
         cx="23.621"
         cy="24.5"
         rx="21.007"
         ry="21.049999"
         fill="#cccccc"
         stroke-width="0.297"
         stroke-linecap="round"
         stroke-linejoin="round"
         id="ellipse8" />
    </clipPath>
    <clipPath
       id="d">
      <ellipse
         cx="23.621"
         cy="24.5"
         rx="21.007"
         ry="21.049999"
         fill="#cccccc"
         stroke-width="0.297"
         stroke-linecap="round"
         stroke-linejoin="round"
         id="ellipse11" />
    </clipPath>
    <linearGradient
       inkscape:collect="always"
       xlink:href="#swatch1"
       id="linearGradient1"
       x1="7.4979091"
       y1="11.999956"
       x2="16.502001"
       y2="11.999956"
       gradientUnits="userSpaceOnUse"
       gradientTransform="translate(1.9932052,2.7026622)" />
    <linearGradient
       inkscape:collect="always"
       xlink:href="#swatch2"
       id="linearGradient2"
       x1="2.6140003"
       y1="6.6669998"
       x2="44.627998"
       y2="6.6669998"
       gradientUnits="userSpaceOnUse"
       gradientTransform="translate(4.1842413,5.6735709)" />
    <linearGradient
       inkscape:collect="always"
       xlink:href="#swatch3"
       id="linearGradient3"
       x1="2.6140003"
       y1="17.257999"
       x2="44.627998"
       y2="17.257999"
       gradientUnits="userSpaceOnUse"
       gradientTransform="translate(4.1842413,5.6735709)" />
    <linearGradient
       inkscape:collect="always"
       xlink:href="#swatch4"
       id="linearGradient4"
       x1="2.6140003"
       y1="32.334999"
       x2="28.879999"
       y2="32.334999"
       gradientUnits="userSpaceOnUse"
       gradientTransform="translate(-1.053115,6.9705258)" />
    <linearGradient
       inkscape:collect="always"
       xlink:href="#swatch5"
       id="linearGradient5"
       x1="2.1229999"
       y1="39.922001"
       x2="14.033"
       y2="39.922001"
       gradientUnits="userSpaceOnUse"
       gradientTransform="translate(-1.053115,6.9705258)" />
  </defs>
  <g
     id="g26"
     style="fill:#808080"
     transform="translate(-1.9932052,-2.7026622)">
    <path
       transform="matrix(0.33683739,-0.33683739,0.33683739,0.33683739,-4.255129,6.8714062)"
       clip-path="url(#a)"
       d="m 2.123,33.967 v 11.91 h 11.91 z"
       id="path16"
       inkscape:connector-curvature="0"
       style="fill:url(#linearGradient5);fill-opacity:0.302" />
    <path
       transform="matrix(0.33683739,-0.33683739,0.33683739,0.33683739,-4.255129,6.8714062)"
       clip-path="url(#b)"
       d="M 2.123,26.695 V 19.12 L 28.88,45.877 h -7.576 z"
       id="path18"
       inkscape:connector-curvature="0"
       style="fill:url(#linearGradient4);fill-opacity:0.302" />
    <path
       transform="matrix(0.47636,0,0,0.47636,0.748,0.842)"
       d="m -3.455,14.703 5.11,5.11 h 43.402 l 5.111,-5.11 H 18.859 Z"
       clip-path="url(#c)"
       id="path20"
       inkscape:connector-curvature="0"
       style="fill:url(#linearGradient3);fill-opacity:0.302" />
    <path
       transform="matrix(0.47636,0,0,0.47636,0.748,0.842)"
       d="M 3.127,3.906 -2.396,9.428 H 49.248 L 43.727,3.906 H 20.998 Z"
       clip-path="url(#d)"
       id="path22"
       inkscape:connector-curvature="0"
       style="fill:url(#linearGradient2);fill-opacity:0.302" />
    <path
       d="M 11.721,4.505 C 9.26,4.643 7.367,6.54 7.505,9.004 h 2.998 C 10.455,8.158 11.065,7.552 11.909,7.506 a 1.482,1.482 0 0 1 1.593,1.406 v 0.044 c 0.006,0.195 -0.047,0.489 -0.187,0.657 -0.34,0.408 -0.727,0.743 -1.031,0.983 a 5.729,5.729 0 0 0 -1.08,1.034 c -0.366,0.459 -0.7,1.118 -0.7,1.873 -0.011,0.791 0.706,1.5 1.5,1.5 0.791,0 1.508,-0.709 1.498,-1.5 0,0.003 -0.027,0.046 0.048,-0.049 0.073,-0.093 0.274,-0.25 0.56,-0.466 1.824,-1.383 2.392,-2.162 2.392,-4.265 -0.138,-2.462 -2.317,-4.356 -4.78,-4.218 z m 0.222,11.998 a 1.5,1.5 0 0 0 0.06,2.998 1.5,1.5 0 1 0 0,-2.998 1.5,1.5 0 0 0 -0.06,0 z"
       id="path24"
       inkscape:connector-curvature="0"
       style="fill:url(#linearGradient1);fill-opacity:0.996" />
  </g>
</svg>
