<?xml version="1.0" encoding="UTF-8" standalone="no"?>
<svg
   height="13.57"
   width="10.43"
   version="1.1"
   id="svg4"
   sodipodi:docname="network-vpn-disconnected-symbolic.svg"
   inkscape:version="0.92.4 (5da689c313, 2019-01-14)"
   xmlns:inkscape="http://www.inkscape.org/namespaces/inkscape"
   xmlns:sodipodi="http://sodipodi.sourceforge.net/DTD/sodipodi-0.dtd"
   xmlns="http://www.w3.org/2000/svg"
   xmlns:svg="http://www.w3.org/2000/svg"
   xmlns:rdf="http://www.w3.org/1999/02/22-rdf-syntax-ns#"
   xmlns:cc="http://creativecommons.org/ns#"
   xmlns:dc="http://purl.org/dc/elements/1.1/">
  <metadata
     id="metadata10">
    <rdf:RDF>
      <cc:Work
         rdf:about="">
        <dc:format>image/svg+xml</dc:format>
        <dc:type
           rdf:resource="http://purl.org/dc/dcmitype/StillImage" />
        <dc:title />
      </cc:Work>
    </rdf:RDF>
  </metadata>
  <defs
     id="defs8" />
  <sodipodi:namedview
     pagecolor="#ffffff"
     bordercolor="#666666"
     borderopacity="1"
     objecttolerance="10"
     gridtolerance="10"
     guidetolerance="10"
     inkscape:pageopacity="0"
     inkscape:pageshadow="2"
     inkscape:window-width="1085"
     inkscape:window-height="480"
     id="namedview6"
     showgrid="false"
     inkscape:zoom="9.8333333"
     inkscape:cx="12"
     inkscape:cy="12"
     inkscape:window-x="0"
     inkscape:window-y="25"
     inkscape:window-maximized="0"
     inkscape:current-layer="svg4"
     inkscape:showpageshadow="0"
     inkscape:pagecheckerboard="0"
     inkscape:deskcolor="#d1d1d1" />
  <path
     d="M 5.1799996,-7.6293945e-8 A 3.23,3.23 0 0 0 1.9499996,3.2299999 v 1.29 H -3.8146973e-7 V 12.27 c 0,0.72 0.59000000146973,1.3 1.29999998146973,1.3 h 7.76 A 1.3,1.3 0 0 0 10.35,12.27 l 0.08,-7.7200001 -1.3700004,-0.03 h -0.65 v -1.3 A 3.23,3.23 0 0 0 5.1799996,-7.6293945e-8 Z m 0,1.219999976293945 a 2,2 0 0 1 2,2 v 1.3 h -4 v -1.3 c 0,-1.1 0.9,-2 2,-2 z"
     id="path2"
     inkscape:connector-curvature="0"
     style="fill:#bde6fb;fill-opacity:0.301961" />
</svg>
