<?xml version="1.0" encoding="UTF-8" standalone="no"?>
<svg
   width="17.099998"
   height="12.220001"
   id="svg9"
   version="1.1"
   sodipodi:docname="network-cellular-evdo-symbolic.svg"
   inkscape:version="0.92.4 (5da689c313, 2019-01-14)"
   xmlns:inkscape="http://www.inkscape.org/namespaces/inkscape"
   xmlns:sodipodi="http://sodipodi.sourceforge.net/DTD/sodipodi-0.dtd"
   xmlns="http://www.w3.org/2000/svg"
   xmlns:svg="http://www.w3.org/2000/svg"
   xmlns:rdf="http://www.w3.org/1999/02/22-rdf-syntax-ns#"
   xmlns:cc="http://creativecommons.org/ns#"
   xmlns:dc="http://purl.org/dc/elements/1.1/">
  <metadata
     id="metadata8">
    <rdf:RDF>
      <cc:Work
         rdf:about="">
        <dc:format>image/svg+xml</dc:format>
        <dc:type
           rdf:resource="http://purl.org/dc/dcmitype/StillImage" />
        <dc:title />
      </cc:Work>
    </rdf:RDF>
  </metadata>
  <sodipodi:namedview
     pagecolor="#ffffff"
     bordercolor="#666666"
     borderopacity="1"
     objecttolerance="10"
     gridtolerance="10"
     guidetolerance="10"
     inkscape:pageopacity="0"
     inkscape:pageshadow="2"
     inkscape:window-width="1131"
     inkscape:window-height="480"
     id="namedview6"
     showgrid="false"
     inkscape:zoom="9.8333333"
     inkscape:cx="12"
     inkscape:cy="12"
     inkscape:window-x="0"
     inkscape:window-y="25"
     inkscape:window-maximized="0"
     inkscape:current-layer="svg9"
     inkscape:showpageshadow="0"
     inkscape:pagecheckerboard="0"
     inkscape:deskcolor="#d1d1d1" />
  <defs
     id="defs3">
    <style
       id="current-color-scheme" />
  </defs>
  <path
     d="m 2.44,0.01000013 c 0,0 -2.440000047683716,0 -2.440000047683716,2.43999997 v 7.33 C -4.7683716e-8,12.22 2.44,12.22 2.44,12.22 H 7.33 V 9.7800001 h -4.9 v -2.45 H 6.1 v -2.44 H 2.45 v -2.44 H 7.34 V 1.335144e-7 h -4.9 z m 6.11,0 1.22,9.76999997 C 9.77,12.22 12.22,12.22 12.22,12.22 h 1.22 c 2.44,0 2.44,-2.4399999 2.44,-2.4399999 L 17.1,1.335144e-7 H 14.66 L 13.44,9.7800001 h -1.22 c 0,0 -0.6,-6.52 -1.22,-9.7799999664856 H 8.55 Z"
     id="path823"
     inkscape:connector-curvature="0"
     style="color:#ffffff;fill:#bde6fb;fill-opacity:1;stroke-width:1.22" />
</svg>
