<?xml version="1.0" encoding="UTF-8" standalone="no"?>
<svg
   width="16.4"
   height="17.100027"
   version="1.1"
   id="svg6"
   sodipodi:docname="network-error-symbolic.svg"
   inkscape:version="0.92.4 (5da689c313, 2019-01-14)"
   xmlns:inkscape="http://www.inkscape.org/namespaces/inkscape"
   xmlns:sodipodi="http://sodipodi.sourceforge.net/DTD/sodipodi-0.dtd"
   xmlns="http://www.w3.org/2000/svg"
   xmlns:svg="http://www.w3.org/2000/svg"
   xmlns:rdf="http://www.w3.org/1999/02/22-rdf-syntax-ns#"
   xmlns:cc="http://creativecommons.org/ns#"
   xmlns:dc="http://purl.org/dc/elements/1.1/">
  <metadata
     id="metadata12">
    <rdf:RDF>
      <cc:Work
         rdf:about="">
        <dc:format>image/svg+xml</dc:format>
        <dc:type
           rdf:resource="http://purl.org/dc/dcmitype/StillImage" />
        <dc:title />
      </cc:Work>
    </rdf:RDF>
  </metadata>
  <defs
     id="defs10" />
  <sodipodi:namedview
     pagecolor="#ffffff"
     bordercolor="#666666"
     borderopacity="1"
     objecttolerance="10"
     gridtolerance="10"
     guidetolerance="10"
     inkscape:pageopacity="0"
     inkscape:pageshadow="2"
     inkscape:window-width="1085"
     inkscape:window-height="480"
     id="namedview8"
     showgrid="false"
     inkscape:zoom="9.8333333"
     inkscape:cx="1.0677966"
     inkscape:cy="12"
     inkscape:window-x="0"
     inkscape:window-y="25"
     inkscape:window-maximized="0"
     inkscape:current-layer="svg6"
     inkscape:showpageshadow="0"
     inkscape:pagecheckerboard="0"
     inkscape:deskcolor="#d1d1d1" />
  <path
     d="m 15.03,0.6199999 -3.87,3.87 a 4.8,4.8 0 0 0 -2.68,-0.82 4.8,4.8 0 0 0 -3.41,1.43 l 0.45,0.45 -0.4,0.4 -0.49,-0.5 a 4.8,4.8 0 0 0 -1.39,3.39 A 4.8,4.8 0 0 0 4.06,11.51 L -4.7683717e-8,15.56 1.38,16.95 5.45,12.88 a 4.8,4.8 0 0 0 2.59,0.76 4.8,4.8 0 0 0 3.37,-1.39 l -0.45,-0.45 0.4,-0.4 0.49,0.49 a 4.8,4.8 0 0 0 1.43,-3.4200001 4.8,4.8 0 0 0 -0.76,-2.58 l 3.88,-3.89 z m -8.48,5.95 0.58,0.59 -0.4,0.4 -0.58,-0.59 z m 1.6,1.61 0.59,0.58 -0.4,0.4 -0.58,-0.58 z m 1.61,1.6 0.58,0.6000001 -0.4,0.4 -0.58,-0.6 z"
     id="path2"
     inkscape:connector-curvature="0"
     style="fill:#bde6fb;fill-opacity:0.301961" />
  <path
     d="M 8.27,-9.5367432e-8 C 7.42,-9.5367432e-8 6.74,0.6999999 6.74,1.5999999 v 8.1 C 6.74,10.6 7.42,11.31 8.27,11.31 c 0.85,0 1.54,-0.72 1.54,-1.6100001 v -8.1 C 9.81,0.6999999 9.12,-9.5367432e-8 8.27,-9.5367432e-8 Z M 8.3,13.31 a 1.89,1.89 0 0 0 -1.9,1.89 1.89,1.89 0 0 0 1.9,1.9 1.89,1.89 0 0 0 1.9,-1.9 1.89,1.89 0 0 0 -1.9,-1.88 z"
     id="path4"
     inkscape:connector-curvature="0"
     style="fill:#bde6fb;fill-opacity:1" />
</svg>
