<?xml version="1.0" encoding="UTF-8" standalone="no"?>
<svg
   height="17"
   width="15.86"
   version="1.1"
   id="svg4"
   sodipodi:docname="network-cellular-signal-none-symbolic.svg"
   inkscape:version="0.92.4 (5da689c313, 2019-01-14)"
   xmlns:inkscape="http://www.inkscape.org/namespaces/inkscape"
   xmlns:sodipodi="http://sodipodi.sourceforge.net/DTD/sodipodi-0.dtd"
   xmlns="http://www.w3.org/2000/svg"
   xmlns:svg="http://www.w3.org/2000/svg"
   xmlns:rdf="http://www.w3.org/1999/02/22-rdf-syntax-ns#"
   xmlns:cc="http://creativecommons.org/ns#"
   xmlns:dc="http://purl.org/dc/elements/1.1/">
  <metadata
     id="metadata10">
    <rdf:RDF>
      <cc:Work
         rdf:about="">
        <dc:format>image/svg+xml</dc:format>
        <dc:type
           rdf:resource="http://purl.org/dc/dcmitype/StillImage" />
        <dc:title />
      </cc:Work>
    </rdf:RDF>
  </metadata>
  <defs
     id="defs8" />
  <sodipodi:namedview
     pagecolor="#ffffff"
     bordercolor="#666666"
     borderopacity="1"
     objecttolerance="10"
     gridtolerance="10"
     guidetolerance="10"
     inkscape:pageopacity="0"
     inkscape:pageshadow="2"
     inkscape:window-width="1085"
     inkscape:window-height="480"
     id="namedview6"
     showgrid="false"
     inkscape:zoom="9.8333333"
     inkscape:cx="1.0677966"
     inkscape:cy="12"
     inkscape:window-x="0"
     inkscape:window-y="25"
     inkscape:window-maximized="0"
     inkscape:current-layer="svg4"
     inkscape:showpageshadow="0"
     inkscape:pagecheckerboard="0"
     inkscape:deskcolor="#d1d1d1" />
  <path
     d="M 14.16,0 A 0.57,0.57 0 0 0 13.6,0.57 v 15.86 c 0,0.32 0.25,0.57 0.56,0.57 h 1.14 c 0.31,0 0.56,-0.25 0.56,-0.57 V 0.57 A 0.57,0.57 0 0 0 15.3,0 Z m -3.4,3.4 A 0.57,0.57 0 0 0 10.2,3.97 v 12.46 c 0,0.32 0.25,0.57 0.56,0.57 h 1.14 c 0.31,0 0.56,-0.25 0.56,-0.57 V 3.97 A 0.57,0.57 0 0 0 11.9,3.4 Z M 7.3599998,6.8 a 0.57,0.57 0 0 0 -0.56,0.57 v 9.06 c 0,0.32 0.25,0.57 0.56,0.57 h 1.14 c 0.31,0 0.56,-0.25 0.56,-0.57 V 7.37 a 0.57,0.57 0 0 0 -0.56,-0.57 z m -3.4,3.4 a 0.57,0.57 0 0 0 -0.56,0.57 v 5.66 c 0,0.32 0.25,0.57 0.56,0.57 h 1.14 c 0.31,0 0.56,-0.25 0.56,-0.57 v -5.66 a 0.57,0.57 0 0 0 -0.56,-0.57 z M 0.55999983,13.6 A 0.57,0.57 0 0 0 -1.7166138e-7,14.17 v 2.26 C -1.7166138e-7,16.75 0.24999983,17 0.55999983,17 H 1.6999998 c 0.31,0 0.56,-0.25 0.56,-0.57 v -2.26 a 0.57,0.57 0 0 0 -0.56,-0.57 z"
     style="color:#bebebe;overflow:visible;fill:#bde6fb;fill-opacity:0.301961;stroke-width:1.13;marker:none"
     overflow="visible"
     id="path2"
     inkscape:connector-curvature="0" />
</svg>
