<?xml version="1.0" encoding="UTF-8" standalone="no"?>
<svg
   height="20.290001"
   width="17.680027"
   version="1.1"
   id="svg4"
   sodipodi:docname="network-vpn-error-symbolic.svg"
   inkscape:version="0.92.4 (5da689c313, 2019-01-14)"
   xmlns:inkscape="http://www.inkscape.org/namespaces/inkscape"
   xmlns:sodipodi="http://sodipodi.sourceforge.net/DTD/sodipodi-0.dtd"
   xmlns="http://www.w3.org/2000/svg"
   xmlns:svg="http://www.w3.org/2000/svg"
   xmlns:rdf="http://www.w3.org/1999/02/22-rdf-syntax-ns#"
   xmlns:cc="http://creativecommons.org/ns#"
   xmlns:dc="http://purl.org/dc/elements/1.1/">
  <metadata
     id="metadata10">
    <rdf:RDF>
      <cc:Work
         rdf:about="">
        <dc:format>image/svg+xml</dc:format>
        <dc:type
           rdf:resource="http://purl.org/dc/dcmitype/StillImage" />
        <dc:title />
      </cc:Work>
    </rdf:RDF>
  </metadata>
  <defs
     id="defs8" />
  <sodipodi:namedview
     pagecolor="#ffffff"
     bordercolor="#666666"
     borderopacity="1"
     objecttolerance="10"
     gridtolerance="10"
     guidetolerance="10"
     inkscape:pageopacity="0"
     inkscape:pageshadow="2"
     inkscape:window-width="1085"
     inkscape:window-height="480"
     id="namedview6"
     showgrid="false"
     inkscape:zoom="9.8333333"
     inkscape:cx="1.0677966"
     inkscape:cy="12"
     inkscape:window-x="0"
     inkscape:window-y="25"
     inkscape:window-maximized="0"
     inkscape:current-layer="svg4"
     inkscape:showpageshadow="0"
     inkscape:pagecheckerboard="0"
     inkscape:deskcolor="#d1d1d1" />
  <path
     d="M 12.430027,6.72 A 3.23,3.23 0 0 0 9.2000268,9.95 v 1.29 h -1.95 v 7.75 c 0,0.72 0.59,1.3 1.3,1.3 h 7.7600002 a 1.3,1.3 0 0 0 1.29,-1.3 l 0.08,-7.72 -1.37,-0.03 h -0.65 v -1.3 a 3.23,3.23 0 0 0 -3.23,-3.22 z m 0,1.22 a 2,2 0 0 1 2,2 v 1.3 h -4 v -1.3 c 0,-1.1 0.9,-2 2,-2 z M 1.8700268,-4.7683716e-8 c -0.85,0 -1.53,0.699999997683716 -1.53,1.600000047683716 v 8.1 c 0,0.9 0.68,1.61 1.53,1.61 0.85,0 1.54,-0.72 1.54,-1.61 V 1.6 c 0,-0.90000005 -0.69,-1.600000047683715 -1.54,-1.600000047683716 z M 1.9000268,13.31 A 1.89,1.89 0 0 0 2.6798248e-5,15.2 1.89,1.89 0 0 0 1.9000268,17.1 a 1.89,1.89 0 0 0 1.9,-1.9 1.89,1.89 0 0 0 -1.9,-1.88 z"
     id="path2"
     inkscape:connector-curvature="0"
     style="fill:#bde6fb;fill-opacity:1" />
</svg>
