<?xml version="1.0" encoding="UTF-8" standalone="no"?>
<svg
   width="19.744938"
   height="19.390772"
   version="1.1"
   id="svg28"
   sodipodi:docname="nm-signal-100-secure-symbolic.svg"
   inkscape:version="0.92.4 (5da689c313, 2019-01-14)"
   xmlns:inkscape="http://www.inkscape.org/namespaces/inkscape"
   xmlns:sodipodi="http://sodipodi.sourceforge.net/DTD/sodipodi-0.dtd"
   xmlns="http://www.w3.org/2000/svg"
   xmlns:svg="http://www.w3.org/2000/svg"
   xmlns:rdf="http://www.w3.org/1999/02/22-rdf-syntax-ns#"
   xmlns:cc="http://creativecommons.org/ns#"
   xmlns:dc="http://purl.org/dc/elements/1.1/">
  <metadata
     id="metadata32">
    <rdf:RDF>
      <cc:Work
         rdf:about="">
        <dc:format>image/svg+xml</dc:format>
        <dc:type
           rdf:resource="http://purl.org/dc/dcmitype/StillImage" />
        <dc:title />
      </cc:Work>
    </rdf:RDF>
  </metadata>
  <sodipodi:namedview
     pagecolor="#ffffff"
     bordercolor="#666666"
     borderopacity="1"
     objecttolerance="10"
     gridtolerance="10"
     guidetolerance="10"
     inkscape:pageopacity="0"
     inkscape:pageshadow="2"
     inkscape:window-width="1085"
     inkscape:window-height="480"
     id="namedview30"
     showgrid="false"
     inkscape:zoom="9.8333333"
     inkscape:cx="1.0677966"
     inkscape:cy="12"
     inkscape:window-x="0"
     inkscape:window-y="25"
     inkscape:window-maximized="0"
     inkscape:current-layer="svg28"
     inkscape:showpageshadow="0"
     inkscape:pagecheckerboard="0"
     inkscape:deskcolor="#d1d1d1" />
  <defs
     id="defs14">
    <clipPath
       id="d">
      <ellipse
         cx="23.621"
         cy="24.5"
         rx="21.007"
         ry="21.049999"
         fill="#cccccc"
         stroke-width="0.297"
         stroke-linecap="round"
         stroke-linejoin="round"
         id="ellipse2" />
    </clipPath>
    <clipPath
       id="c">
      <ellipse
         cx="23.621"
         cy="24.5"
         rx="21.007"
         ry="21.049999"
         fill="#cccccc"
         stroke-width="0.297"
         stroke-linecap="round"
         stroke-linejoin="round"
         id="ellipse5" />
    </clipPath>
    <clipPath
       id="b">
      <ellipse
         cx="23.621"
         cy="24.5"
         rx="21.007"
         ry="21.049999"
         fill="#cccccc"
         stroke-width="0.297"
         stroke-linecap="round"
         stroke-linejoin="round"
         id="ellipse8" />
    </clipPath>
    <clipPath
       id="a">
      <ellipse
         cx="7.9910002"
         cy="40.182999"
         rx="7.5479999"
         ry="7.4910002"
         fill="#cccccc"
         stroke-width="0.379"
         stroke-linecap="round"
         stroke-linejoin="round"
         id="ellipse11" />
    </clipPath>
  </defs>
  <g
     id="g26"
     style="fill:#bde6fb;fill-opacity:1"
     transform="translate(-1.9646354,-2.2855008)">
    <path
       d="m 2.123,33.967 v 11.91 h 11.91 z"
       clip-path="url(#a)"
       transform="matrix(0.35128358,-0.35128358,0.35128358,0.35128358,-4.5513326,6.6321111)"
       id="path16"
       inkscape:connector-curvature="0"
       style="fill:#bde6fb;fill-opacity:1" />
    <path
       d="M 2.123,26.695 V 19.12 L 28.88,45.877 h -7.576 z"
       clip-path="url(#b)"
       transform="matrix(0.35128358,-0.35128358,0.35128358,0.35128358,-4.5513326,6.6321111)"
       id="path18"
       inkscape:connector-curvature="0"
       style="fill:#bde6fb;fill-opacity:1" />
    <path
       clip-path="url(#c)"
       d="M 25.853,19.812 H -0.345 l -5.11,-5.11 h 31.308"
       transform="matrix(0.46507,0,0,0.4968,1.487,0.345)"
       id="path20"
       inkscape:connector-curvature="0"
       style="fill:#bde6fb;fill-opacity:1" />
    <path
       clip-path="url(#d)"
       d="M 25.854,9.428 H -2.396 L 3.126,3.906 h 22.727"
       transform="matrix(0.4968,0,0,0.4968,0.666,0.345)"
       id="path22"
       inkscape:connector-curvature="0"
       style="fill:#bde6fb;fill-opacity:1" />
    <path
       d="m 17.806,2.445 a 2.059,2.059 0 0 0 -2.058,2.058 v 0.823 h -0.412 l -0.823,0.003 v 4.936 c 0,0.455 0.369,0.823 0.823,0.823 h 4.94 a 0.826,0.826 0 0 0 0.823,-0.823 L 21.151,5.346 20.275,5.326 H 19.864 V 4.503 A 2.059,2.059 0 0 0 17.806,2.445 Z m 0,0.782 c 0.704,0 1.276,0.572 1.276,1.276 V 5.326 H 16.53 V 4.503 c 0,-0.704 0.572,-1.276 1.276,-1.276 z"
       id="path24"
       inkscape:connector-curvature="0"
       style="fill:#bde6fb;fill-opacity:1" />
  </g>
</svg>
