<?xml version="1.0" encoding="UTF-8" standalone="no"?>
<svg
   height="13.57"
   width="10.421"
   version="1.1"
   id="svg4"
   sodipodi:docname="nm-secure-lock-symbolic.svg"
   inkscape:version="0.92.4 (5da689c313, 2019-01-14)"
   xmlns:inkscape="http://www.inkscape.org/namespaces/inkscape"
   xmlns:sodipodi="http://sodipodi.sourceforge.net/DTD/sodipodi-0.dtd"
   xmlns="http://www.w3.org/2000/svg"
   xmlns:svg="http://www.w3.org/2000/svg"
   xmlns:rdf="http://www.w3.org/1999/02/22-rdf-syntax-ns#"
   xmlns:cc="http://creativecommons.org/ns#"
   xmlns:dc="http://purl.org/dc/elements/1.1/">
  <metadata
     id="metadata10">
    <rdf:RDF>
      <cc:Work
         rdf:about="">
        <dc:format>image/svg+xml</dc:format>
        <dc:type
           rdf:resource="http://purl.org/dc/dcmitype/StillImage" />
        <dc:title />
      </cc:Work>
    </rdf:RDF>
  </metadata>
  <defs
     id="defs8" />
  <sodipodi:namedview
     pagecolor="#ffffff"
     bordercolor="#666666"
     borderopacity="1"
     objecttolerance="10"
     gridtolerance="10"
     guidetolerance="10"
     inkscape:pageopacity="0"
     inkscape:pageshadow="2"
     inkscape:window-width="1085"
     inkscape:window-height="480"
     id="namedview6"
     showgrid="false"
     inkscape:zoom="9.8333333"
     inkscape:cx="12"
     inkscape:cy="12"
     inkscape:window-x="0"
     inkscape:window-y="25"
     inkscape:window-maximized="0"
     inkscape:current-layer="svg4"
     inkscape:showpageshadow="0"
     inkscape:pagecheckerboard="0"
     inkscape:deskcolor="#d1d1d1" />
  <path
     d="M 5.1689998,1.8310547e-7 A 3.232,3.232 0 0 0 1.9389998,3.2300002 v 1.293 h -0.647 L -2.0599365e-7,4.5270002 V 12.277 c 0,0.714 0.57799999599365,1.293 1.29200000599365,1.293 h 7.755 c 0.714,0 1.2840002,-0.579 1.2920002,-1.293 l 0.082,-7.7229998 -1.3740002,-0.031 h -0.647 v -1.292 A 3.232,3.232 0 0 0 5.1699998,1.8310547e-7 Z m 0,1.22800001689453 c 1.105,0 2.003,0.898 2.003,2.003 v 1.292 h -4.006 v -1.292 c 0,-1.105 0.898,-2.003 2.003,-2.003 z"
     id="path2"
     inkscape:connector-curvature="0"
     style="fill:#bde6fb;fill-opacity:1" />
</svg>
