<?xml version="1.0" encoding="UTF-8" standalone="no"?>
<svg
   width="18"
   height="18.374632"
   id="svg9"
   version="1.1"
   sodipodi:docname="notification-disabled-symbolic.svg"
   inkscape:version="0.92.4 (5da689c313, 2019-01-14)"
   xmlns:inkscape="http://www.inkscape.org/namespaces/inkscape"
   xmlns:sodipodi="http://sodipodi.sourceforge.net/DTD/sodipodi-0.dtd"
   xmlns="http://www.w3.org/2000/svg"
   xmlns:svg="http://www.w3.org/2000/svg"
   xmlns:rdf="http://www.w3.org/1999/02/22-rdf-syntax-ns#"
   xmlns:cc="http://creativecommons.org/ns#"
   xmlns:dc="http://purl.org/dc/elements/1.1/">
  <metadata
     id="metadata8">
    <rdf:RDF>
      <cc:Work
         rdf:about="">
        <dc:format>image/svg+xml</dc:format>
        <dc:type
           rdf:resource="http://purl.org/dc/dcmitype/StillImage" />
        <dc:title />
      </cc:Work>
    </rdf:RDF>
  </metadata>
  <sodipodi:namedview
     pagecolor="#ffffff"
     bordercolor="#666666"
     borderopacity="1"
     objecttolerance="10"
     gridtolerance="10"
     guidetolerance="10"
     inkscape:pageopacity="0"
     inkscape:pageshadow="2"
     inkscape:window-width="862"
     inkscape:window-height="480"
     id="namedview6"
     showgrid="false"
     inkscape:zoom="9.8333333"
     inkscape:cx="1.0677966"
     inkscape:cy="12"
     inkscape:window-x="0"
     inkscape:window-y="25"
     inkscape:window-maximized="0"
     inkscape:current-layer="svg9"
     inkscape:showpageshadow="0"
     inkscape:pagecheckerboard="0"
     inkscape:deskcolor="#d1d1d1" />
  <defs
     id="defs3">
    <style
       id="current-color-scheme" />
  </defs>
  <path
     d="m 1.438,0.00609175 a 0.955,0.955 0 0 0 -0.752,0.244 c -0.412,0.383 -0.397,1.06400005 0.035,1.52800005 l 1.734,1.863 A 9,9 0 0 0 0,9.8110918 9,9 0 0 0 0.938,13.784092 H 11.89 l 1.16,1.246 H 4.938 a 4.537,4.537 0 0 0 4.064,2.535 4.537,4.537 0 0 0 4.06,-2.522 l 2.733,2.936 c 0.431,0.464 1.108,0.529 1.52,0.146 0.41,-0.382 0.396,-1.063 -0.036,-1.527 L 14.66,13.784092 4.004,2.3310918 2.205,0.39709175 a 1.216,1.216 0 0 0 -0.768,-0.39 z m 7.562,0.805 A 9,9 0 0 0 5.594,1.4890918 L 17.03,13.784092 h 0.04 A 9,9 0 0 0 18,9.8110918 9,9 0 0 0 9,0.81109175 Z"
     id="path933"
     inkscape:connector-curvature="0"
     style="fill:#bde6fb;fill-opacity:1;stroke-width:1.134" />
</svg>
