<?xml version="1.0" encoding="UTF-8" standalone="no"?>
<svg
   width="20"
   height="20"
   id="svg9"
   version="1.1"
   sodipodi:docname="numlock-enabled-symbolic.svg"
   inkscape:version="0.92.4 (5da689c313, 2019-01-14)"
   xmlns:inkscape="http://www.inkscape.org/namespaces/inkscape"
   xmlns:sodipodi="http://sodipodi.sourceforge.net/DTD/sodipodi-0.dtd"
   xmlns="http://www.w3.org/2000/svg"
   xmlns:svg="http://www.w3.org/2000/svg"
   xmlns:rdf="http://www.w3.org/1999/02/22-rdf-syntax-ns#"
   xmlns:cc="http://creativecommons.org/ns#"
   xmlns:dc="http://purl.org/dc/elements/1.1/">
  <metadata
     id="metadata8">
    <rdf:RDF>
      <cc:Work
         rdf:about="">
        <dc:format>image/svg+xml</dc:format>
        <dc:type
           rdf:resource="http://purl.org/dc/dcmitype/StillImage" />
        <dc:title />
      </cc:Work>
    </rdf:RDF>
  </metadata>
  <sodipodi:namedview
     pagecolor="#ffffff"
     bordercolor="#666666"
     borderopacity="1"
     objecttolerance="10"
     gridtolerance="10"
     guidetolerance="10"
     inkscape:pageopacity="0"
     inkscape:pageshadow="2"
     inkscape:window-width="862"
     inkscape:window-height="480"
     id="namedview6"
     showgrid="false"
     inkscape:zoom="9.8333333"
     inkscape:cx="1.0677966"
     inkscape:cy="12"
     inkscape:window-x="0"
     inkscape:window-y="25"
     inkscape:window-maximized="0"
     inkscape:current-layer="svg9"
     inkscape:showpageshadow="0"
     inkscape:pagecheckerboard="0"
     inkscape:deskcolor="#d1d1d1" />
  <defs
     id="defs3">
    <style
       id="current-color-scheme" />
  </defs>
  <path
     d="M 10,0 A 10,10 0 0 0 0,10 10,10 0 0 0 10,20 10,10 0 0 0 20,10 10,10 0 0 0 10,0 Z m 0,2.223 A 7.778,7.778 0 0 1 17.777,10 7.778,7.778 0 0 1 10,17.777 7.778,7.778 0 0 1 2.223,10 7.778,7.778 0 0 1 10,2.223 Z M 9.775,4.253 A 3.008,3.008 0 0 1 9.355,4.664 C 9.149,4.84 8.919,5.026 8.665,5.221 8.409,5.409 8.145,5.588 7.871,5.758 7.604,5.928 7.368,6.054 7.162,6.138 V 7.934 A 7.78,7.78 0 0 0 7.799,7.705 C 8.042,7.602 8.289,7.491 8.537,7.369 a 9.82,9.82 0 0 0 0.71,-0.4 C 9.477,6.823 9.672,6.677 9.83,6.531 v 9.215 h 1.902 V 4.254 H 9.775 Z"
     id="path823"
     inkscape:connector-curvature="0"
     style="fill:#bde6fb;fill-opacity:1;stroke-width:2.5" />
</svg>
