<?xml version="1.0" encoding="UTF-8" standalone="no"?>
<svg
   height="21.150002"
   width="20.91"
   version="1.1"
   id="svg6"
   sodipodi:docname="printer-error-symbolic.svg"
   inkscape:version="0.92.4 (5da689c313, 2019-01-14)"
   xmlns:inkscape="http://www.inkscape.org/namespaces/inkscape"
   xmlns:sodipodi="http://sodipodi.sourceforge.net/DTD/sodipodi-0.dtd"
   xmlns="http://www.w3.org/2000/svg"
   xmlns:svg="http://www.w3.org/2000/svg"
   xmlns:rdf="http://www.w3.org/1999/02/22-rdf-syntax-ns#"
   xmlns:cc="http://creativecommons.org/ns#"
   xmlns:dc="http://purl.org/dc/elements/1.1/">
  <metadata
     id="metadata12">
    <rdf:RDF>
      <cc:Work
         rdf:about="">
        <dc:format>image/svg+xml</dc:format>
        <dc:type
           rdf:resource="http://purl.org/dc/dcmitype/StillImage" />
        <dc:title />
      </cc:Work>
    </rdf:RDF>
  </metadata>
  <defs
     id="defs10" />
  <sodipodi:namedview
     pagecolor="#ffffff"
     bordercolor="#666666"
     borderopacity="1"
     objecttolerance="10"
     gridtolerance="10"
     guidetolerance="10"
     inkscape:pageopacity="0"
     inkscape:pageshadow="2"
     inkscape:window-width="1085"
     inkscape:window-height="480"
     id="namedview8"
     showgrid="false"
     inkscape:zoom="9.8333333"
     inkscape:cx="1.0677966"
     inkscape:cy="12"
     inkscape:window-x="0"
     inkscape:window-y="25"
     inkscape:window-maximized="0"
     inkscape:current-layer="svg6"
     inkscape:showpageshadow="0"
     inkscape:pagecheckerboard="0"
     inkscape:deskcolor="#d1d1d1" />
  <path
     d="m 1.3299999,5.0000013 c -0.06,0 -0.1,0.04 -0.1,0.1 v 8.5299997 c 0,0.05 0.04,0.1 0.1,0.1 h 2.29 l 1.83,-3.15 1.82,3.17 H 16.73 v 3.51 H 9.2699999 l 0.7900001,1.37 h 8 v -4.9 h 2.76 c 0.05,0 0.09,-0.04 0.09,-0.1 V 5.1100013 c 0,-0.05 -0.04,-0.1 -0.09,-0.1 H 1.3199999 Z m 16.1800001,1.3 a 1.36,1.36 0 0 1 1.36,1.36 1.36,1.36 0 0 1 -1.36,1.35 1.36,1.36 0 0 1 -1.36,-1.35 1.36,1.36 0 0 1 1.36,-1.36 z M 5.2499999,1.3065338e-6 a 0.1,0.1 0 0 0 -0.1,0.090000003466 V 3.8300013 c 0,0.04 0.04,0.09 0.1,0.09 H 16.83 a 0.1,0.1 0 0 0 0.09,-0.1 V 0.10000131 A 0.1,0.1 0 0 0 16.82,1.3065338e-6 H 5.2599999 Z"
     id="path2"
     inkscape:connector-curvature="0"
     style="fill:#bde6fb;fill-opacity:1;paint-order:markers fill stroke" />
  <path
     d="M 5.3999999,11.830001 -5.2452088e-8,21.150001 H 10.8 Z m -0.05,1.9 c 0.37,0 0.66,0.3 0.66,0.65 v 3.26 a 0.65,0.65 0 0 1 -1.3,0 v -3.26 c 0,-0.37 0.29,-0.66 0.64,-0.66 z m 0,5.2 a 0.65,0.65 0 0 1 0.66,0.66 0.65,0.65 0 0 1 -0.66,0.65 0.65,0.65 0 0 1 -0.65,-0.65 0.65,0.65 0 0 1 0.65,-0.66 z"
     id="path4"
     inkscape:connector-curvature="0"
     style="fill:#bde6fb;fill-opacity:1" />
</svg>
