<?xml version="1.0" encoding="UTF-8" standalone="no"?>
<svg
   width="23.849998"
   height="21.65"
   version="1.1"
   id="svg4"
   sodipodi:docname="rotation-locked-symbolic.svg"
   inkscape:version="0.92.4 (5da689c313, 2019-01-14)"
   xmlns:inkscape="http://www.inkscape.org/namespaces/inkscape"
   xmlns:sodipodi="http://sodipodi.sourceforge.net/DTD/sodipodi-0.dtd"
   xmlns="http://www.w3.org/2000/svg"
   xmlns:svg="http://www.w3.org/2000/svg"
   xmlns:rdf="http://www.w3.org/1999/02/22-rdf-syntax-ns#"
   xmlns:cc="http://creativecommons.org/ns#"
   xmlns:dc="http://purl.org/dc/elements/1.1/">
  <metadata
     id="metadata10">
    <rdf:RDF>
      <cc:Work
         rdf:about="">
        <dc:format>image/svg+xml</dc:format>
        <dc:type
           rdf:resource="http://purl.org/dc/dcmitype/StillImage" />
        <dc:title />
      </cc:Work>
    </rdf:RDF>
  </metadata>
  <defs
     id="defs8" />
  <sodipodi:namedview
     pagecolor="#ffffff"
     bordercolor="#666666"
     borderopacity="1"
     objecttolerance="10"
     gridtolerance="10"
     guidetolerance="10"
     inkscape:pageopacity="0"
     inkscape:pageshadow="2"
     inkscape:window-width="1085"
     inkscape:window-height="480"
     id="namedview6"
     showgrid="false"
     inkscape:zoom="9.8333333"
     inkscape:cx="1.0677966"
     inkscape:cy="12"
     inkscape:window-x="0"
     inkscape:window-y="25"
     inkscape:window-maximized="0"
     inkscape:current-layer="svg4"
     inkscape:showpageshadow="0"
     inkscape:pagecheckerboard="0"
     inkscape:deskcolor="#d1d1d1" />
  <path
     d="M 12.57,-4.7683716e-8 A 9.43,9.43 0 0 0 3.14,9.43 H 0 L 4.71,15.71 9.43,9.43 H 6.28 a 6.29,6.29 0 1 1 12.58,0 H 22 C 22,4.22 17.78,-4.7683716e-8 12.57,-4.7683716e-8 Z M 19.54,10.51 a 2.65,2.65 0 0 0 -2.65,2.65 v 1.06 H 15.3 v 6.36 c 0,0.6 0.47,1.07 1.06,1.07 h 6.36 c 0.6,0 1.06,-0.48 1.06,-1.07 l 0.07,-6.34 -1.13,-0.02 h -0.53 v -1.06 a 2.65,2.65 0 0 0 -2.65,-2.65 z m 0,1 h 0.01 c 0.9,0 1.63,0.75 1.63,1.65 v 1.06 h -3.27 v -1.06 c 0,-0.9 0.73,-1.64 1.63,-1.65 z m -5.4,3.98 c -0.5,0.13 -1.02,0.22 -1.57,0.22 a 1.57,1.57 0 0 0 -1.57,1.57 1.57,1.57 0 0 0 1.57,1.58 1.57,1.57 0 0 0 0.15,-0.01 c 0.48,0 0.96,-0.06 1.42,-0.14 z"
     id="path2"
     inkscape:connector-curvature="0"
     style="fill:#bde6fb;fill-opacity:1" />
</svg>
