<?xml version="1.0" encoding="UTF-8" standalone="no"?>
<svg
   viewBox="0 0 392.64001 480"
   version="1.1"
   id="svg4"
   sodipodi:docname="task-due-symbolic.svg"
   inkscape:version="0.92.4 (5da689c313, 2019-01-14)"
   width="392.64001"
   height="480"
   xmlns:inkscape="http://www.inkscape.org/namespaces/inkscape"
   xmlns:sodipodi="http://sodipodi.sourceforge.net/DTD/sodipodi-0.dtd"
   xmlns="http://www.w3.org/2000/svg"
   xmlns:svg="http://www.w3.org/2000/svg"
   xmlns:rdf="http://www.w3.org/1999/02/22-rdf-syntax-ns#"
   xmlns:cc="http://creativecommons.org/ns#"
   xmlns:dc="http://purl.org/dc/elements/1.1/">
  <metadata
     id="metadata10">
    <rdf:RDF>
      <cc:Work
         rdf:about="">
        <dc:format>image/svg+xml</dc:format>
        <dc:type
           rdf:resource="http://purl.org/dc/dcmitype/StillImage" />
        <dc:title />
      </cc:Work>
    </rdf:RDF>
  </metadata>
  <defs
     id="defs8" />
  <sodipodi:namedview
     pagecolor="#ffffff"
     bordercolor="#666666"
     borderopacity="1"
     objecttolerance="10"
     gridtolerance="10"
     guidetolerance="10"
     inkscape:pageopacity="0"
     inkscape:pageshadow="2"
     inkscape:window-width="1085"
     inkscape:window-height="480"
     id="namedview6"
     showgrid="false"
     inkscape:zoom="9.8333333"
     inkscape:cx="1.0677966"
     inkscape:cy="12"
     inkscape:window-x="0"
     inkscape:window-y="25"
     inkscape:window-maximized="0"
     inkscape:current-layer="svg4"
     inkscape:showpageshadow="0"
     inkscape:pagecheckerboard="0"
     inkscape:deskcolor="#d1d1d1" />
  <path
     d="m -79.68,-46 c -1.19,0 -2.19,0.76 -2.56,1.82 h -3.8 a 1.82,1.82 0 0 0 -1.82,1.82 v 14.54 a 1.82,1.82 0 0 0 1.82,1.82 h 12.72 a 1.82,1.82 0 0 0 1.82,-1.82 v -14.54 a 1.82,1.82 0 0 0 -1.82,-1.82 h -3.8 A 2.72,2.72 0 0 0 -79.68,-46 Z m -0.04,1.82 a 0.9,0.9 0 0 1 0.04,0 0.91,0.91 0 0 1 0,1.82 0.91021975,0.91021975 0 0 1 -0.04,-1.82 z m -6.32,1.82 h 1.81 v 2.72 h 9.1 v -2.72 h 1.81 v 14.54 h -12.72 z m 6.36,3.72 c -0.54,0 -0.97,0.29 -0.97,0.65 v 5.37 c 0,0.36 0.43,0.65 0.97,0.65 0.54,0 0.97,-0.3 0.97,-0.65 V -38 c 0,-0.36 -0.43,-0.65 -0.97,-0.65 z m 0,7.4 c -0.54,0 -0.97,0.4 -0.97,0.89 0,0.48 0.43,0.88 0.97,0.88 0.54,0 0.97,-0.4 0.97,-0.88 0,-0.5 -0.43,-0.88 -0.97,-0.88 z"
     id="path2"
     inkscape:connector-curvature="0"
     style="fill:#bde6fb;fill-opacity:1" />
</svg>
