<?xml version="1.0" encoding="UTF-8" standalone="no"?>
<svg
   width="18.166002"
   height="18.124008"
   version="1"
   id="svg4"
   sodipodi:docname="touchpad-enabled-symbolic.svg"
   inkscape:version="0.92.4 (5da689c313, 2019-01-14)"
   xmlns:inkscape="http://www.inkscape.org/namespaces/inkscape"
   xmlns:sodipodi="http://sodipodi.sourceforge.net/DTD/sodipodi-0.dtd"
   xmlns="http://www.w3.org/2000/svg"
   xmlns:svg="http://www.w3.org/2000/svg"
   xmlns:rdf="http://www.w3.org/1999/02/22-rdf-syntax-ns#"
   xmlns:cc="http://creativecommons.org/ns#"
   xmlns:dc="http://purl.org/dc/elements/1.1/">
  <metadata
     id="metadata10">
    <rdf:RDF>
      <cc:Work
         rdf:about="">
        <dc:format>image/svg+xml</dc:format>
        <dc:type
           rdf:resource="http://purl.org/dc/dcmitype/StillImage" />
        <dc:title />
      </cc:Work>
    </rdf:RDF>
  </metadata>
  <defs
     id="defs8" />
  <sodipodi:namedview
     pagecolor="#ffffff"
     bordercolor="#666666"
     borderopacity="1"
     objecttolerance="10"
     gridtolerance="10"
     guidetolerance="10"
     inkscape:pageopacity="0"
     inkscape:pageshadow="2"
     inkscape:window-width="862"
     inkscape:window-height="480"
     id="namedview6"
     showgrid="false"
     inkscape:zoom="9.8333333"
     inkscape:cx="1.0677966"
     inkscape:cy="12"
     inkscape:window-x="0"
     inkscape:window-y="25"
     inkscape:window-maximized="0"
     inkscape:current-layer="svg4"
     inkscape:showpageshadow="0"
     inkscape:pagecheckerboard="0"
     inkscape:deskcolor="#d1d1d1" />
  <path
     d="M 1.1500013,4.327774e-6 A 1.147,1.298 0 0 0 1.3027191e-6,1.3000043 V 10.011004 L 18.162001,10.058004 V 1.3000043 A 1.147,1.298 0 0 0 17.014001,4.327774e-6 Z M 1.3027191e-6,10.798004 v 6.026 c 0,0.722 0.5149999972809,1.3 1.1499999972809,1.3 H 17.016001 a 1.147,1.298 0 0 0 1.15,-1.3 v -5.98 l -18.1619997,-0.047 H 1.3027191e-6 Z M 1.8420013,12.533004 h 5.941 c 0.47,0 0.848,0.37 0.848,0.832 v 2.5 a 0.84,0.84 0 0 1 -0.848,0.834 h -5.941 a 0.84,0.84 0 0 1 -0.848,-0.834 v -2.5 c 0,-0.462 0.378,-0.832 0.848,-0.832 z m 8.5429997,0 h 5.94 c 0.47,0 0.849,0.37 0.849,0.832 v 2.5 a 0.84,0.84 0 0 1 -0.85,0.834 h -5.94 a 0.84,0.84 0 0 1 -0.8489997,-0.834 v -2.5 a 0.84,0.84 0 0 1 0.8499997,-0.832 z"
     id="path2"
     inkscape:connector-curvature="0"
     style="fill:#bde6fb;fill-opacity:1;stroke-width:2.532" />
</svg>
