<?xml version="1.0" encoding="UTF-8" standalone="no"?>
<svg
   width="17.83"
   height="15.531173"
   id="svg9"
   version="1.1"
   sodipodi:docname="user-status-pending-symbolic.svg"
   inkscape:version="0.92.4 (5da689c313, 2019-01-14)"
   xmlns:inkscape="http://www.inkscape.org/namespaces/inkscape"
   xmlns:sodipodi="http://sodipodi.sourceforge.net/DTD/sodipodi-0.dtd"
   xmlns="http://www.w3.org/2000/svg"
   xmlns:svg="http://www.w3.org/2000/svg"
   xmlns:rdf="http://www.w3.org/1999/02/22-rdf-syntax-ns#"
   xmlns:cc="http://creativecommons.org/ns#"
   xmlns:dc="http://purl.org/dc/elements/1.1/">
  <metadata
     id="metadata8">
    <rdf:RDF>
      <cc:Work
         rdf:about="">
        <dc:format>image/svg+xml</dc:format>
        <dc:type
           rdf:resource="http://purl.org/dc/dcmitype/StillImage" />
        <dc:title />
      </cc:Work>
    </rdf:RDF>
  </metadata>
  <sodipodi:namedview
     pagecolor="#ffffff"
     bordercolor="#666666"
     borderopacity="1"
     objecttolerance="10"
     gridtolerance="10"
     guidetolerance="10"
     inkscape:pageopacity="0"
     inkscape:pageshadow="2"
     inkscape:window-width="1085"
     inkscape:window-height="480"
     id="namedview6"
     showgrid="false"
     inkscape:zoom="9.8333333"
     inkscape:cx="1.0677966"
     inkscape:cy="12"
     inkscape:window-x="0"
     inkscape:window-y="25"
     inkscape:window-maximized="0"
     inkscape:current-layer="svg9"
     inkscape:showpageshadow="0"
     inkscape:pagecheckerboard="0"
     inkscape:deskcolor="#d1d1d1" />
  <defs
     id="defs3">
    <style
       id="current-color-scheme" />
  </defs>
  <path
     d="M 10.06,-1.9073486e-8 A 7.77,7.77 0 0 0 2.2899999,7.77 a 7.77,7.77 0 0 0 2.31,5.52 L -5.7220459e-8,15.53 H 9.7999999 A 7.77,7.77 0 0 0 10.07,15.53 7.77,7.77 0 0 0 17.83,7.77 7.77,7.77 0 0 0 10.06,-1.9073486e-8 Z M 10.03,1.15 h 0.03 a 6.67,6.67 0 0 1 6.67,6.68 6.67,6.67 0 0 1 -6.67,6.69 6.67,6.67 0 0 1 -4.3000001,-1.56 6.67,6.67 0 0 1 -0.15,-0.14 6.67,6.67 0 0 1 -2.24,-4.98 A 6.67,6.67 0 0 1 10.04,1.14 Z m -3.9700001,5.2 a 1.38,1.42 0 0 0 -1.38,1.42 1.38,1.42 0 0 0 1.38,1.42 1.38,1.42 0 0 0 1.38,-1.42 1.38,1.42 0 0 0 -1.38,-1.42 z M 10.06,6.35 A 1.38,1.42 0 0 0 8.6799999,7.77 1.38,1.42 0 0 0 10.06,9.19 1.38,1.42 0 0 0 11.44,7.77 1.38,1.42 0 0 0 10.06,6.35 Z m 4,0 a 1.38,1.42 0 0 0 -1.38,1.42 1.38,1.42 0 0 0 1.38,1.42 1.38,1.42 0 0 0 1.38,-1.42 1.38,1.42 0 0 0 -1.38,-1.42 z"
     id="path849"
     inkscape:connector-curvature="0"
     style="fill:#bde6fb;fill-opacity:1;stroke-width:1.24" />
</svg>
