<?xml version="1.0" encoding="UTF-8" standalone="no"?>
<svg
   width="22"
   height="11.647999"
   id="svg9"
   version="1.1"
   sodipodi:docname="view-private-symbolic.svg"
   inkscape:version="0.92.4 (5da689c313, 2019-01-14)"
   xmlns:inkscape="http://www.inkscape.org/namespaces/inkscape"
   xmlns:sodipodi="http://sodipodi.sourceforge.net/DTD/sodipodi-0.dtd"
   xmlns="http://www.w3.org/2000/svg"
   xmlns:svg="http://www.w3.org/2000/svg"
   xmlns:rdf="http://www.w3.org/1999/02/22-rdf-syntax-ns#"
   xmlns:cc="http://creativecommons.org/ns#"
   xmlns:dc="http://purl.org/dc/elements/1.1/">
  <metadata
     id="metadata13">
    <rdf:RDF>
      <cc:Work
         rdf:about="">
        <dc:format>image/svg+xml</dc:format>
        <dc:type
           rdf:resource="http://purl.org/dc/dcmitype/StillImage" />
        <dc:title />
      </cc:Work>
    </rdf:RDF>
  </metadata>
  <sodipodi:namedview
     pagecolor="#ffffff"
     bordercolor="#666666"
     borderopacity="1"
     objecttolerance="10"
     gridtolerance="10"
     guidetolerance="10"
     inkscape:pageopacity="0"
     inkscape:pageshadow="2"
     inkscape:window-width="862"
     inkscape:window-height="480"
     id="namedview11"
     showgrid="false"
     inkscape:zoom="9.8333333"
     inkscape:cx="1.0677966"
     inkscape:cy="12"
     inkscape:window-x="0"
     inkscape:window-y="25"
     inkscape:window-maximized="0"
     inkscape:current-layer="svg9"
     inkscape:showpageshadow="0"
     inkscape:pagecheckerboard="0"
     inkscape:deskcolor="#d1d1d1" />
  <defs
     id="defs3">
    <style
       id="current-color-scheme" />
  </defs>
  <path
     d="M 5.824,-1.1825562e-7 A 5.824,5.824 0 0 0 0,5.8239999 5.824,5.824 0 0 0 5.824,11.648 5.824,5.824 0 0 0 11,8.4889999 5.824,5.824 0 0 0 16.176,11.648 5.824,5.824 0 0 0 22,5.8239999 5.824,5.824 0 0 0 16.176,-1.1825562e-7 5.824,5.824 0 0 0 11,3.1689999 5.824,5.824 0 0 0 5.824,-1.1825562e-7 Z M 5.197,3.9839999 c 0.46,0.017 0.96,0.126 1.507,0.355 0.731,0.305 1.548,0.822 2.477,1.613 -0.458,0.46 -0.953,0.86 -1.511,1.159 a 4.754,4.754 0 0 1 -1.886,0.554 5.02,5.02 0 0 1 -1.372,-0.3 3.205,3.205 0 0 1 -0.96,-0.572 c -0.522,-0.456 -0.835,-1.05 -1.066,-1.698 0.355,-0.28 0.72,-0.532 1.108,-0.726 0.39,-0.193 0.802,-0.329 1.254,-0.372 0.145,-0.014 0.295,-0.019 0.449,-0.013 z m 11.606,0 c 0.154,-0.006 0.304,-0.001 0.449,0.013 0.452,0.043 0.865,0.179 1.254,0.372 0.389,0.194 0.753,0.446 1.108,0.726 -0.231,0.647 -0.544,1.242 -1.067,1.698 a 3.205,3.205 0 0 1 -0.959,0.572 5.02,5.02 0 0 1 -1.372,0.3 4.754,4.754 0 0 1 -1.886,-0.554 c -0.558,-0.3 -1.053,-0.7 -1.511,-1.16 0.929,-0.79 1.746,-1.307 2.477,-1.612 a 4.315,4.315 0 0 1 1.507,-0.355 z"
     id="path819"
     inkscape:connector-curvature="0"
     style="fill:#bde6fb;fill-opacity:1;stroke-width:1.456" />
</svg>
