<?xml version="1.0" encoding="UTF-8" standalone="no"?>
<svg
   width="17.318392"
   height="18.013252"
   version="1.1"
   id="svg4"
   sodipodi:docname="weather-clear-night-symbolic.svg"
   inkscape:version="0.92.4 (5da689c313, 2019-01-14)"
   xmlns:inkscape="http://www.inkscape.org/namespaces/inkscape"
   xmlns:sodipodi="http://sodipodi.sourceforge.net/DTD/sodipodi-0.dtd"
   xmlns="http://www.w3.org/2000/svg"
   xmlns:svg="http://www.w3.org/2000/svg"
   xmlns:rdf="http://www.w3.org/1999/02/22-rdf-syntax-ns#"
   xmlns:cc="http://creativecommons.org/ns#"
   xmlns:dc="http://purl.org/dc/elements/1.1/">
  <metadata
     id="metadata10">
    <rdf:RDF>
      <cc:Work
         rdf:about="">
        <dc:format>image/svg+xml</dc:format>
        <dc:type
           rdf:resource="http://purl.org/dc/dcmitype/StillImage" />
        <dc:title />
      </cc:Work>
    </rdf:RDF>
  </metadata>
  <defs
     id="defs8" />
  <sodipodi:namedview
     pagecolor="#ffffff"
     bordercolor="#666666"
     borderopacity="1"
     objecttolerance="10"
     gridtolerance="10"
     guidetolerance="10"
     inkscape:pageopacity="0"
     inkscape:pageshadow="2"
     inkscape:window-width="1085"
     inkscape:window-height="480"
     id="namedview6"
     showgrid="false"
     inkscape:zoom="9.8333333"
     inkscape:cx="1.0677966"
     inkscape:cy="12"
     inkscape:window-x="0"
     inkscape:window-y="25"
     inkscape:window-maximized="0"
     inkscape:current-layer="svg4"
     inkscape:showpageshadow="0"
     inkscape:pagecheckerboard="0"
     inkscape:deskcolor="#d1d1d1" />
  <path
     style="color:#000000;overflow:visible;isolation:auto;mix-blend-mode:normal;fill:#bde6fb;fill-opacity:1;fill-rule:evenodd"
     d="m 8.9943914,0 a 9,9 0 0 0 -0.078,0.004 9,9 0 0 0 -1.129,0.09 9,9 0 0 0 -0.146,0.02 8.03,8.243 0 0 0 -0.004,0.003 9,9 0 1 0 9.6809996,12.332 7.5,7.5 0 0 1 -0.02,0.01 9,9 0 0 0 0.005,-0.01 7.5,7.5 0 0 1 -1.293,0.606 7.5,7.5 0 0 1 -0.051,0.021 7.5,7.5 0 0 1 -0.05,0.018 7.5,7.5 0 0 1 -2.415,0.406 7.5,7.5 0 0 1 -7.4999996,-7.5 7.5,7.5 0 0 1 1.848,-4.912 8,8 0 0 1 0.02,-0.004 7.5,7.5 0 0 1 1.16,-1.084 z m -2.398,1.355 a 8.03,8.243 0 0 0 -0.059,0.079 8.03,8.243 0 0 0 -0.42,0.7 8.03,8.243 0 0 0 -0.35,0.741 8.03,8.243 0 0 0 -0.277,0.775 8.03,8.243 0 0 0 -0.2,0.797 8.03,8.243 0 0 0 -0.12,0.815 8.03,8.243 0 0 0 -0.041,0.824 8.03,8.243 0 0 0 0.02,0.582 8.03,8.243 0 0 0 0.097,0.818 8.03,8.243 0 0 0 0.176,0.803 8.03,8.243 0 0 0 0.252,0.783 8.03,8.243 0 0 0 0.328,0.752 8.03,8.243 0 0 0 0.4,0.715 8.03,8.243 0 0 0 0.467,0.67 8.03,8.243 0 0 0 0.53,0.62 8.03,8.243 0 0 0 0.585,0.562 8.03,8.243 0 0 0 0.64,0.498 8.03,8.243 0 0 0 0.684,0.43 8.03,8.243 0 0 0 0.7229996,0.359 8.03,8.243 0 0 0 0.754,0.281 8.03,8.243 0 0 0 0.777,0.205 8.03,8.243 0 0 0 0.795,0.123 8.03,8.243 0 0 0 0.801,0.041 8.03,8.243 0 0 0 0.268,-0.006 8.03,8.243 0 0 0 0.799,-0.07 8.03,8.243 0 0 0 0.789,-0.152 8.03,8.243 0 0 0 0.123,-0.038 8,8 0 0 1 -0.131,0.168 8,8 0 0 1 -0.553,0.579 8,8 0 0 1 -0.607,0.52 8,8 0 0 1 -0.657,0.456 8,8 0 0 1 -0.699,0.39 8,8 0 0 1 -0.732,0.317 8,8 0 0 1 -0.764,0.242 8,8 0 0 1 -0.781,0.166 8,8 0 0 1 -0.7949996,0.086 8,8 0 0 1 -0.8,0.006 8,8 0 0 1 -0.796,-0.072 8,8 0 0 1 -0.785,-0.152 8,8 0 0 1 -0.766,-0.23 8,8 0 0 1 -0.74,-0.306 8,8 0 0 1 -0.705,-0.378 8,8 0 0 1 -0.662,-0.446 8,8 0 0 1 -0.617,-0.51 8,8 0 0 1 -0.56,-0.57 8,8 0 0 1 -0.503,-0.621 8,8 0 0 1 -0.437,-0.67 8,8 0 0 1 -0.37,-0.709 8,8 0 0 1 -0.296,-0.744 8,8 0 0 1 -0.219,-0.768 8,8 0 0 1 -0.143,-0.787 8,8 0 0 1 -0.064,-0.799 8,8 0 0 1 0.018,-0.798 8,8 0 0 1 0.097,-0.793 8,8 0 0 1 0.174,-0.782 8,8 0 0 1 0.254,-0.757 8,8 0 0 1 0.326,-0.73 8,8 0 0 1 0.399,-0.694 8,8 0 0 1 0.464,-0.65 8,8 0 0 1 0.528,-0.602 8,8 0 0 1 0.586,-0.545 8,8 0 0 1 0.636,-0.483 8,8 0 0 1 0.682,-0.417 8,8 0 0 1 0.72,-0.348 8,8 0 0 1 0.75,-0.274 8,8 0 0 1 0.007,-0.002 z"
     overflow="visible"
     id="path2"
     inkscape:connector-curvature="0" />
</svg>
