<?xml version="1.0" encoding="UTF-8" standalone="no"?>
<svg
   width="19.442001"
   height="19.290001"
   version="1.1"
   id="svg4"
   sodipodi:docname="weather-cloudy-symbolic.svg"
   inkscape:version="0.92.4 (5da689c313, 2019-01-14)"
   xmlns:inkscape="http://www.inkscape.org/namespaces/inkscape"
   xmlns:sodipodi="http://sodipodi.sourceforge.net/DTD/sodipodi-0.dtd"
   xmlns="http://www.w3.org/2000/svg"
   xmlns:svg="http://www.w3.org/2000/svg"
   xmlns:rdf="http://www.w3.org/1999/02/22-rdf-syntax-ns#"
   xmlns:cc="http://creativecommons.org/ns#"
   xmlns:dc="http://purl.org/dc/elements/1.1/">
  <metadata
     id="metadata10">
    <rdf:RDF>
      <cc:Work
         rdf:about="">
        <dc:format>image/svg+xml</dc:format>
        <dc:type
           rdf:resource="http://purl.org/dc/dcmitype/StillImage" />
        <dc:title />
      </cc:Work>
    </rdf:RDF>
  </metadata>
  <defs
     id="defs8" />
  <sodipodi:namedview
     pagecolor="#ffffff"
     bordercolor="#666666"
     borderopacity="1"
     objecttolerance="10"
     gridtolerance="10"
     guidetolerance="10"
     inkscape:pageopacity="0"
     inkscape:pageshadow="2"
     inkscape:window-width="1131"
     inkscape:window-height="480"
     id="namedview6"
     showgrid="false"
     inkscape:zoom="9.8333333"
     inkscape:cx="12"
     inkscape:cy="12"
     inkscape:window-x="0"
     inkscape:window-y="25"
     inkscape:window-maximized="0"
     inkscape:current-layer="svg4"
     inkscape:showpageshadow="0"
     inkscape:pagecheckerboard="0"
     inkscape:deskcolor="#d1d1d1" />
  <path
     d="M 9.001,-1.9073486e-8 A 6,6 0 0 0 3.001,6 6,6 0 0 0 3.004,6.13 4,4 0 0 0 -4.3869019e-8,10 4,4 0 0 0 3.899,13.997 3.556,3.556 0 0 0 3.442,15.733 3.556,3.556 0 0 0 6.996,19.29 h 8 A 4.444,4.444 0 0 0 19.442,14.844 4.444,4.444 0 0 0 17.492,11.178 5,5 0 0 0 18,9 5,5 0 0 0 14.758,4.325 6,6 0 0 0 9,-1.9073486e-8 Z M 9.001,0.99999998 A 5,5 0 0 1 13.921,5.112 4,4 0 0 1 17.001,9 4,4 0 0 1 16.606,10.707 4.444,4.444 0 0 0 16.559,10.69 5.333,5.333 0 0 0 11.441,6.845 a 5.333,5.333 0 0 0 -5.334,5.332 5.333,5.333 0 0 0 0.004,0.115 3.556,3.556 0 0 0 -1.38,0.707 h -0.73 a 3,3 0 0 1 -3,-3 3,3 0 0 1 3,-3 3,3 0 0 1 0.108,0.006 5,5 0 0 1 -0.108,-1.006 5,5 0 0 1 5,-5.00000002 z M 11.441,7.858 a 4.342,4.342 0 0 1 4.272,3.57 3.474,3.474 0 0 1 2.676,3.377 3.474,3.474 0 0 1 -3.475,3.473 H 7.098 A 2.605,2.605 0 0 1 4.494,15.672 2.605,2.605 0 0 1 7.098,13.069 2.605,2.605 0 0 1 7.192,13.073 4.342,4.342 0 0 1 7.098,12.2 4.342,4.342 0 0 1 11.442,7.858 Z"
     id="path2"
     inkscape:connector-curvature="0"
     style="fill:#bde6fb;fill-opacity:1" />
</svg>
