<?xml version="1.0" encoding="UTF-8" standalone="no"?>
<svg
   width="21.467003"
   height="23.000004"
   version="1"
   id="svg4"
   sodipodi:docname="address-book-new-symbolic.svg"
   inkscape:version="0.92.4 (5da689c313, 2019-01-14)"
   xmlns:inkscape="http://www.inkscape.org/namespaces/inkscape"
   xmlns:sodipodi="http://sodipodi.sourceforge.net/DTD/sodipodi-0.dtd"
   xmlns="http://www.w3.org/2000/svg"
   xmlns:svg="http://www.w3.org/2000/svg"
   xmlns:rdf="http://www.w3.org/1999/02/22-rdf-syntax-ns#"
   xmlns:cc="http://creativecommons.org/ns#"
   xmlns:dc="http://purl.org/dc/elements/1.1/">
  <metadata
     id="metadata10">
    <rdf:RDF>
      <cc:Work
         rdf:about="">
        <dc:format>image/svg+xml</dc:format>
        <dc:type
           rdf:resource="http://purl.org/dc/dcmitype/StillImage" />
        <dc:title />
      </cc:Work>
    </rdf:RDF>
  </metadata>
  <defs
     id="defs8" />
  <sodipodi:namedview
     pagecolor="#ffffff"
     bordercolor="#666666"
     borderopacity="1"
     objecttolerance="10"
     gridtolerance="10"
     guidetolerance="10"
     inkscape:pageopacity="0"
     inkscape:pageshadow="2"
     inkscape:window-width="1085"
     inkscape:window-height="480"
     id="namedview6"
     showgrid="false"
     inkscape:zoom="9.8333333"
     inkscape:cx="1.0677966"
     inkscape:cy="12"
     inkscape:window-x="0"
     inkscape:window-y="25"
     inkscape:window-maximized="0"
     inkscape:current-layer="svg4"
     inkscape:showpageshadow="0"
     inkscape:pagecheckerboard="0"
     inkscape:deskcolor="#d1d1d1" />
  <path
     d="M 1.533003,2.989769e-6 A 1.53,1.53 0 0 0 2.9964447e-6,1.533003 v 18.4 c 0,0.85 0.6840000035553,1.534 1.5340000035553,1.534 h 9.2 v -1.549 l -7.667,0.015 v -18.4 h 13.033 c 0.425,0 0.767,0.342 0.767,0.767 v 9.954 h 1.533 v -10.72 A 1.53,1.53 0 0 0 16.867003,2.989769e-6 Z M 9.949003,6.137003 c -0.738,-0.05 -1.46,0.383 -1.89,0.966 -0.418,0.754 -0.076,1.65 -0.337,2.447 -0.16,0.57 0,1.177 0.414,1.59 0.356,0.447 0.793,1.032 0.55,1.633 -0.353,0.676 -1.054,1.073 -1.692,1.433 a 2.6,2.6 0 0 0 -0.567,0.327 c -0.163,0.046 -0.292,0.169 -0.292,0.345 v 1.605 c 0,0.212 0.169,0.384 0.384,0.384 h 4.189 a 1.56,1.56 0 0 1 1.56,-1.552 h 1.506 v -0.813 c -0.846,-0.457 -1.794,-0.903 -2.267,-1.795 -0.163,-0.709 0.335,-1.33 0.772,-1.822 0.431,-0.547 0.261,-1.27 0.11,-1.883 -0.062,-0.677 0.156,-1.48 -0.349,-2.036 -0.547,-0.555 -1.337,-0.782 -2.09,-0.83 z m 5.385,7.678 v 3.061 h -3.067 v 3.042 l 3.067,0.022 v 3.06 h 3.066 v -3.06 h 3.067 v -3.064 h -3.067 v -3.06 z"
     overflow="visible"
     style="color:#000000;overflow:visible;isolation:auto;mix-blend-mode:normal;fill:#bde6fb;fill-opacity:1;marker:none"
     id="path2"
     inkscape:connector-curvature="0" />
</svg>
