<?xml version="1.0" encoding="UTF-8" standalone="no"?>
<svg
   version="1"
   viewBox="0 0 475.20001 474.96017"
   id="svg6"
   sodipodi:docname="appointment-missed-symbolic.svg"
   inkscape:version="0.92.4 (5da689c313, 2019-01-14)"
   width="475.20001"
   height="474.96017"
   xmlns:inkscape="http://www.inkscape.org/namespaces/inkscape"
   xmlns:sodipodi="http://sodipodi.sourceforge.net/DTD/sodipodi-0.dtd"
   xmlns="http://www.w3.org/2000/svg"
   xmlns:svg="http://www.w3.org/2000/svg"
   xmlns:rdf="http://www.w3.org/1999/02/22-rdf-syntax-ns#"
   xmlns:cc="http://creativecommons.org/ns#"
   xmlns:dc="http://purl.org/dc/elements/1.1/">
  <metadata
     id="metadata12">
    <rdf:RDF>
      <cc:Work
         rdf:about="">
        <dc:format>image/svg+xml</dc:format>
        <dc:type
           rdf:resource="http://purl.org/dc/dcmitype/StillImage" />
        <dc:title />
      </cc:Work>
    </rdf:RDF>
  </metadata>
  <defs
     id="defs10" />
  <sodipodi:namedview
     pagecolor="#ffffff"
     bordercolor="#666666"
     borderopacity="1"
     objecttolerance="10"
     gridtolerance="10"
     guidetolerance="10"
     inkscape:pageopacity="0"
     inkscape:pageshadow="2"
     inkscape:window-width="1085"
     inkscape:window-height="480"
     id="namedview8"
     showgrid="false"
     inkscape:zoom="9.8333333"
     inkscape:cx="1.0677966"
     inkscape:cy="12"
     inkscape:window-x="0"
     inkscape:window-y="25"
     inkscape:window-maximized="0"
     inkscape:current-layer="svg6"
     inkscape:showpageshadow="0"
     inkscape:pagecheckerboard="0"
     inkscape:deskcolor="#d1d1d1" />
  <path
     style="color:#000000;font-weight:400;font-variant-ligatures:normal;font-variant-position:normal;font-variant-caps:normal;font-variant-numeric:normal;font-variant-alternates:normal;font-feature-settings:normal;text-indent:0;text-decoration:none;text-decoration-line:none;text-decoration-style:solid;text-decoration-color:#000000;text-transform:none;text-orientation:mixed;white-space:normal;shape-padding:0;overflow:visible;isolation:auto;mix-blend-mode:normal;fill:#bde6fb;fill-opacity:0.301961"
     d="m -36.399998,-45.999851 a 9.39,9.39 0 0 0 -9.37,9.37 9.39,9.39 0 0 0 11.24,9.18 v -2.57 a 6.96,6.96 0 0 1 -1.87,0.26 6.85,6.85 0 0 1 -6.87,-6.87 c 0,-3.8 3.06,-6.87 6.87,-6.87 a 6.85,6.85 0 0 1 6.6,8.74 h 2.58 a 9.36,9.36 0 0 0 -9.18,-11.24 z m 3.7,5 a 0.62,0.62 0 0 0 -0.09,0.01 v 0.01 a 0.62,0.62 0 0 0 -0.3,0.2 l -3.33,3.3 -2.06,-2.05 a 0.62,0.62 0 1 0 -0.86,0.85 l 2.5,2.5 a 0.62,0.62 0 0 0 0.85,0 l 3.75,-3.74 a 0.62,0.62 0 0 0 -0.45,-1.08 z"
     font-weight="400"
     overflow="visible"
     id="path2"
     inkscape:connector-curvature="0" />
  <path
     style="color:#000000;font-weight:400;font-variant-ligatures:normal;font-variant-position:normal;font-variant-caps:normal;font-variant-numeric:normal;font-variant-alternates:normal;font-feature-settings:normal;text-indent:0;text-decoration:none;text-decoration-line:none;text-decoration-style:solid;text-decoration-color:#000000;text-transform:none;text-orientation:mixed;white-space:normal;shape-padding:0;overflow:visible;isolation:auto;mix-blend-mode:normal;fill:#bde6fb;fill-opacity:1"
     d="m -27.829998,-33.319851 -1.73,1.8 -1.8,-1.75 -1.73,1.8 1.8,1.73 -1.74,1.8 1.8,1.73 1.73,-1.79 1.8,1.74 1.73,-1.8 -1.8,-1.73 1.74,-1.8 z"
     font-weight="400"
     overflow="visible"
     id="path4"
     inkscape:connector-curvature="0" />
</svg>
