<?xml version="1.0" encoding="UTF-8" standalone="no"?>
<svg
   width="23.542681"
   height="23.546459"
   viewBox="0 0 6.2290009 6.2300007"
   version="1.1"
   id="svg4"
   sodipodi:docname="document-open-recent-symbolic.svg"
   inkscape:version="0.92.4 (5da689c313, 2019-01-14)"
   xmlns:inkscape="http://www.inkscape.org/namespaces/inkscape"
   xmlns:sodipodi="http://sodipodi.sourceforge.net/DTD/sodipodi-0.dtd"
   xmlns="http://www.w3.org/2000/svg"
   xmlns:svg="http://www.w3.org/2000/svg"
   xmlns:rdf="http://www.w3.org/1999/02/22-rdf-syntax-ns#"
   xmlns:cc="http://creativecommons.org/ns#"
   xmlns:dc="http://purl.org/dc/elements/1.1/">
  <metadata
     id="metadata10">
    <rdf:RDF>
      <cc:Work
         rdf:about="">
        <dc:format>image/svg+xml</dc:format>
        <dc:type
           rdf:resource="http://purl.org/dc/dcmitype/StillImage" />
        <dc:title />
      </cc:Work>
    </rdf:RDF>
  </metadata>
  <defs
     id="defs8" />
  <sodipodi:namedview
     pagecolor="#ffffff"
     bordercolor="#666666"
     borderopacity="1"
     objecttolerance="10"
     gridtolerance="10"
     guidetolerance="10"
     inkscape:pageopacity="0"
     inkscape:pageshadow="2"
     inkscape:window-width="1085"
     inkscape:window-height="480"
     id="namedview6"
     showgrid="false"
     inkscape:zoom="9.8333333"
     inkscape:cx="1.0677966"
     inkscape:cy="12"
     inkscape:window-x="0"
     inkscape:window-y="25"
     inkscape:window-maximized="0"
     inkscape:current-layer="svg4"
     inkscape:showpageshadow="0"
     inkscape:pagecheckerboard="0"
     inkscape:deskcolor="#d1d1d1" />
  <path
     d="M 3.1140007,0 A 3.114,3.114 0 0 0 6.4359209e-7,3.116 3.114,3.114 0 0 0 3.1140007,6.23 a 3.114,3.114 0 0 0 3.115,-3.115 3.114,3.114 0 0 0 -3.115,-3.114 z m -0.009,0.464 a 2.677,2.677 0 0 1 2.678,2.678 2.677,2.677 0 0 1 -2.678,2.677 A 2.677,2.677 0 0 1 0.42900064,3.142 2.677,2.677 0 0 1 3.1050007,0.464 Z m 1.35,1.178 v 0.005 a 0.22,0.22 0 0 0 -0.031,10e-4 0.22,0.22 0 0 0 -0.11,0.07 l -1.175,1.169 -0.73,-0.727 a 0.22,0.22 0 1 0 -0.305,0.303 l 0.884,0.883 a 0.22,0.22 0 0 0 0.303,0 l 1.325,-1.324 a 0.22,0.22 0 0 0 -0.162,-0.38 z"
     id="path2"
     inkscape:connector-curvature="0"
     style="fill:#bde6fb;fill-opacity:1" />
</svg>
