<?xml version="1.0" encoding="UTF-8" standalone="no"?>
<svg
   width="21.411999"
   height="21.999615"
   version="1"
   id="svg4"
   sodipodi:docname="document-properties-symbolic.svg"
   inkscape:version="0.92.4 (5da689c313, 2019-01-14)"
   xmlns:inkscape="http://www.inkscape.org/namespaces/inkscape"
   xmlns:sodipodi="http://sodipodi.sourceforge.net/DTD/sodipodi-0.dtd"
   xmlns="http://www.w3.org/2000/svg"
   xmlns:svg="http://www.w3.org/2000/svg"
   xmlns:rdf="http://www.w3.org/1999/02/22-rdf-syntax-ns#"
   xmlns:cc="http://creativecommons.org/ns#"
   xmlns:dc="http://purl.org/dc/elements/1.1/">
  <metadata
     id="metadata10">
    <rdf:RDF>
      <cc:Work
         rdf:about="">
        <dc:format>image/svg+xml</dc:format>
        <dc:type
           rdf:resource="http://purl.org/dc/dcmitype/StillImage" />
        <dc:title />
      </cc:Work>
    </rdf:RDF>
  </metadata>
  <defs
     id="defs8" />
  <sodipodi:namedview
     pagecolor="#ffffff"
     bordercolor="#666666"
     borderopacity="1"
     objecttolerance="10"
     gridtolerance="10"
     guidetolerance="10"
     inkscape:pageopacity="0"
     inkscape:pageshadow="2"
     inkscape:window-width="1085"
     inkscape:window-height="480"
     id="namedview6"
     showgrid="false"
     inkscape:zoom="9.8333333"
     inkscape:cx="1.0677966"
     inkscape:cy="12"
     inkscape:window-x="0"
     inkscape:window-y="25"
     inkscape:window-maximized="0"
     inkscape:current-layer="svg4"
     inkscape:showpageshadow="0"
     inkscape:pagecheckerboard="0"
     inkscape:deskcolor="#d1d1d1" />
  <path
     d="M 10.706,0 C 10.359,0 10.014,0.018 9.674,0.05 L 9.036,3.34 A 7.876,7.876 0 0 0 7.514,3.83 L 5.108,1.525 C 4.496,1.886 3.965,2.332 3.438,2.801 L 4.861,5.796 A 7.947,7.947 0 0 0 3.929,7.073 L 0.63899997,6.632 A 10.859,10.859 0 0 0 -2.9563904e-8,8.643 L 2.897,10.215 A 7.584,7.584 0 0 0 2.85,11.001 c 0,0.271 0.02,0.521 0.047,0.785 L -2.9563904e-8,13.358 C 0.15299997,14.057 0.35899997,14.728 0.63799997,15.371 L 3.929,14.929 c 0.267,0.456 0.583,0.885 0.932,1.276 l -1.424,2.997 c 0.528,0.468 1.06,0.915 1.67,1.276 L 7.514,18.17 a 7.8,7.8 0 0 0 1.522,0.491 l 0.638,3.291 a 11.186,11.186 0 0 0 2.062,0 l 0.64,-3.29 a 7.786,7.786 0 0 0 1.52,-0.492 l 2.408,2.31 c 0.61,-0.362 1.143,-0.81 1.67,-1.278 l -1.425,-2.997 c 0.35,-0.391 0.667,-0.82 0.934,-1.276 l 3.289,0.442 a 10.859,10.859 0 0 0 0.64,-2.013 l -2.898,-1.572 c 0.027,-0.264 0.049,-0.514 0.049,-0.785 0,-0.272 -0.022,-0.522 -0.05,-0.786 L 21.412,8.643 A 10.856,10.856 0 0 0 20.772,6.63 l -3.29,0.442 A 7.947,7.947 0 0 0 16.549,5.794 L 17.973,2.8 C 17.447,2.332 16.914,1.886 16.304,1.524 L 13.896,3.83 A 7.88,7.88 0 0 0 12.376,3.34 L 11.736,0.05 A 11.186,11.186 0 0 0 10.706,0 Z m 0,6.286 a 4.7145,4.7145 0 1 1 0,9.429 4.7145,4.7145 0 0 1 0,-9.429 z"
     overflow="visible"
     id="path2"
     inkscape:connector-curvature="0"
     style="overflow:visible;fill:#bde6fb;fill-opacity:1" />
</svg>
