<?xml version="1.0" encoding="UTF-8" standalone="no"?>
<svg
   version="1"
   viewBox="0 0 528.23999 405"
   id="svg4"
   sodipodi:docname="document-open-symbolic.svg"
   inkscape:version="0.92.4 (5da689c313, 2019-01-14)"
   width="528.23999"
   height="405"
   xmlns:inkscape="http://www.inkscape.org/namespaces/inkscape"
   xmlns:sodipodi="http://sodipodi.sourceforge.net/DTD/sodipodi-0.dtd"
   xmlns="http://www.w3.org/2000/svg"
   xmlns:svg="http://www.w3.org/2000/svg"
   xmlns:rdf="http://www.w3.org/1999/02/22-rdf-syntax-ns#"
   xmlns:cc="http://creativecommons.org/ns#"
   xmlns:dc="http://purl.org/dc/elements/1.1/">
  <metadata
     id="metadata10">
    <rdf:RDF>
      <cc:Work
         rdf:about="">
        <dc:format>image/svg+xml</dc:format>
        <dc:type
           rdf:resource="http://purl.org/dc/dcmitype/StillImage" />
        <dc:title />
      </cc:Work>
    </rdf:RDF>
  </metadata>
  <defs
     id="defs8" />
  <sodipodi:namedview
     pagecolor="#ffffff"
     bordercolor="#666666"
     borderopacity="1"
     objecttolerance="10"
     gridtolerance="10"
     guidetolerance="10"
     inkscape:pageopacity="0"
     inkscape:pageshadow="2"
     inkscape:window-width="1085"
     inkscape:window-height="480"
     id="namedview6"
     showgrid="false"
     inkscape:zoom="9.8333333"
     inkscape:cx="1.0677966"
     inkscape:cy="12"
     inkscape:window-x="0"
     inkscape:window-y="25"
     inkscape:window-maximized="0"
     inkscape:current-layer="svg4"
     inkscape:showpageshadow="0"
     inkscape:pagecheckerboard="0"
     inkscape:deskcolor="#d1d1d1" />
  <path
     d="m -17.171999,-81.949001 v 1.705 h -5.713 v 2.59 l 0.01,0.12 v 8.17 h -0.01 v 2.62 a 1.67,1.67 0 0 0 1.67,1.67 h 18.6599998 c 0.93,0 1.68000004,-0.75 1.68000004,-1.67 v -13.52 H -3.5179992 v -1.685 z m 1.414,1.455 h 10.7339998 v 3.5 h -9.8409998 v -0.01 h -0.893 z m -4.719,1.95 h 3.305 v 1.54 h -2.824 l -0.08,0.02 a 0.62,0.62 0 0 0 -0.52,0.62 l 0.02,0.1 -0.02,0.12 v 2.9 c 0,0.47 0.29,0.85 0.66,0.85 0.36,0 0.66,-0.38 0.66,-0.86 v -2.47 h 16.7399998 v 8.07 a 0.8,0.8 0 0 1 -0.8,0.8 H -20.485999 a 0.8,0.8 0 0 1 -0.809,-0.8 v -10.081 a 0.8,0.8 0 0 1 0.799,-0.8 z m 16.9599998,0 h 0.18 c 0.44,0 0.802,0.36 0.802,0.81 v 0.73 h -0.983 z"
     id="path2"
     inkscape:connector-curvature="0"
     style="fill:#bde6fb;fill-opacity:1" />
</svg>
