<?xml version="1.0" encoding="UTF-8" standalone="no"?>
<svg
   width="21"
   height="20.090555"
   version="1"
   id="svg4"
   sodipodi:docname="document-save-symbolic.svg"
   inkscape:version="0.92.4 (5da689c313, 2019-01-14)"
   xmlns:inkscape="http://www.inkscape.org/namespaces/inkscape"
   xmlns:sodipodi="http://sodipodi.sourceforge.net/DTD/sodipodi-0.dtd"
   xmlns="http://www.w3.org/2000/svg"
   xmlns:svg="http://www.w3.org/2000/svg"
   xmlns:rdf="http://www.w3.org/1999/02/22-rdf-syntax-ns#"
   xmlns:cc="http://creativecommons.org/ns#"
   xmlns:dc="http://purl.org/dc/elements/1.1/">
  <metadata
     id="metadata10">
    <rdf:RDF>
      <cc:Work
         rdf:about="">
        <dc:format>image/svg+xml</dc:format>
        <dc:type
           rdf:resource="http://purl.org/dc/dcmitype/StillImage" />
        <dc:title />
      </cc:Work>
    </rdf:RDF>
  </metadata>
  <defs
     id="defs8" />
  <sodipodi:namedview
     pagecolor="#ffffff"
     bordercolor="#666666"
     borderopacity="1"
     objecttolerance="10"
     gridtolerance="10"
     guidetolerance="10"
     inkscape:pageopacity="0"
     inkscape:pageshadow="2"
     inkscape:window-width="1085"
     inkscape:window-height="480"
     id="namedview6"
     showgrid="false"
     inkscape:zoom="9.8333333"
     inkscape:cx="1.0677966"
     inkscape:cy="12"
     inkscape:window-x="0"
     inkscape:window-y="25"
     inkscape:window-maximized="0"
     inkscape:current-layer="svg4"
     inkscape:showpageshadow="0"
     inkscape:pagecheckerboard="0"
     inkscape:deskcolor="#d1d1d1" />
  <path
     d="M 3.652,-1.7166138e-8 C 2.892,-1.7166138e-8 1.917,0.58599998 1.826,1.307 L 0.021,15.677 C 0.008,15.677 0,15.68 0,15.691 h 21 c 0,-0.01 -0.008,-0.014 -0.021,-0.014 L 19.174,1.307 C 19.084,0.58599998 18.109,-1.7166138e-8 17.348,-1.7166138e-8 Z M 7.304,1.911 h 6.392 V 7.39 h 2.84 L 10.5,13.78 4.464,7.39 h 2.84 z M 21,16.434 0,16.436 c 0.424,3.693 0.213,3.635 1.05,3.635 6.681,0 18.557,0.044 18.859,0 0.77,0 0.665,-0.55 1.091,-3.637 z"
     id="path2"
     inkscape:connector-curvature="0"
     style="fill:#bde6fb;fill-opacity:1" />
</svg>
