<?xml version="1.0" encoding="UTF-8" standalone="no"?>
<svg
   width="22.990002"
   height="22.856001"
   version="1"
   id="svg4"
   sodipodi:docname="folder-move-symbolic.svg"
   inkscape:version="0.92.4 (5da689c313, 2019-01-14)"
   xmlns:inkscape="http://www.inkscape.org/namespaces/inkscape"
   xmlns:sodipodi="http://sodipodi.sourceforge.net/DTD/sodipodi-0.dtd"
   xmlns="http://www.w3.org/2000/svg"
   xmlns:svg="http://www.w3.org/2000/svg"
   xmlns:rdf="http://www.w3.org/1999/02/22-rdf-syntax-ns#"
   xmlns:cc="http://creativecommons.org/ns#"
   xmlns:dc="http://purl.org/dc/elements/1.1/">
  <metadata
     id="metadata10">
    <rdf:RDF>
      <cc:Work
         rdf:about="">
        <dc:format>image/svg+xml</dc:format>
        <dc:type
           rdf:resource="http://purl.org/dc/dcmitype/StillImage" />
        <dc:title />
      </cc:Work>
    </rdf:RDF>
  </metadata>
  <defs
     id="defs8" />
  <sodipodi:namedview
     pagecolor="#ffffff"
     bordercolor="#666666"
     borderopacity="1"
     objecttolerance="10"
     gridtolerance="10"
     guidetolerance="10"
     inkscape:pageopacity="0"
     inkscape:pageshadow="2"
     inkscape:window-width="1085"
     inkscape:window-height="480"
     id="namedview6"
     showgrid="false"
     inkscape:zoom="9.8333333"
     inkscape:cx="1.0677966"
     inkscape:cy="12"
     inkscape:window-x="0"
     inkscape:window-y="25"
     inkscape:window-maximized="0"
     inkscape:current-layer="svg4"
     inkscape:showpageshadow="0"
     inkscape:pagecheckerboard="0"
     inkscape:deskcolor="#d1d1d1" />
  <path
     d="M 1.372,9.999795e-4 C 0.61199999,9.999795e-4 -1.1920929e-8,0.61099998 -1.1920929e-8,1.369 V 3.654 C -1.1920929e-8,3.69 0.00999999,3.723 0.01099999,3.758 v 6.683 H -1.1920929e-8 V 12.58 C -1.1920929e-8,13.34 0.60999999,13.951 1.369,13.951 h 3.62 v 5.395 H 4.974 v 2.14 c 0,0.465 0.267,0.813 0.62,1.06 l 9.533,-9.533 H 7.61 v 2.024 c 0,0.387 -0.254,0.7 -0.572,0.7 -0.318,0 -0.574,-0.313 -0.574,-0.7 V 12.67 c 0,-0.034 0.011,-0.066 0.015,-0.1 -0.004,-0.028 -0.015,-0.05 -0.015,-0.078 0,-0.266 0.202,-0.475 0.459,-0.508 0.022,-0.002 0.04,-0.025 0.062,-0.025 h 15.979 l 0.023,0.002 V 10.424 H 18.013 V 1.529 H 8.096 L 6.566,-2.0503998e-8 H 1.371 Z M 1.975,2.929 h 14.02 c 0.367,0 0.662,0.296 0.662,0.664 v 0.6 H 2.366 c -0.021,0 -0.04,0.009 -0.06,0.01 A 0.503,0.503 0 0 0 1.874,4.712 c 0,0.028 0.012,0.053 0.015,0.08 C 1.885,4.825 1.874,4.855 1.874,4.889 v 2.37 c 0,0.387 0.241,0.697 0.54,0.697 0.3,0 0.542,-0.31 0.542,-0.697 V 5.235 h 13.701 v 5.19 H 13.071 L 11.541,8.897 6.346,8.905 c -0.759,0 -1.37,0.61 -1.37,1.37 v 2.228 h -3 A 0.664,0.664 0 0 1 1.311,11.839 V 3.591 c 0,-0.368 0.297,-0.662 0.664,-0.662 z m 21.015,10.082 -0.02,0.002 h -4.652 l -9.844,9.841 h 4.721 l 9.795,-9.795 z m 0,3.175 -6.67,6.67 h 5.297 c 0.76,0 1.37,-0.612 1.37,-1.37 v -1.833 h 0.003 z"
     id="path2"
     inkscape:connector-curvature="0"
     style="fill:#bde6fb;fill-opacity:1" />
</svg>
