<?xml version="1.0" encoding="UTF-8" standalone="no"?>
<svg
   width="22.016005"
   height="17.047014"
   version="1"
   id="svg4"
   sodipodi:docname="folder-new-symbolic.svg"
   inkscape:version="0.92.4 (5da689c313, 2019-01-14)"
   xmlns:inkscape="http://www.inkscape.org/namespaces/inkscape"
   xmlns:sodipodi="http://sodipodi.sourceforge.net/DTD/sodipodi-0.dtd"
   xmlns="http://www.w3.org/2000/svg"
   xmlns:svg="http://www.w3.org/2000/svg"
   xmlns:rdf="http://www.w3.org/1999/02/22-rdf-syntax-ns#"
   xmlns:cc="http://creativecommons.org/ns#"
   xmlns:dc="http://purl.org/dc/elements/1.1/">
  <metadata
     id="metadata10">
    <rdf:RDF>
      <cc:Work
         rdf:about="">
        <dc:format>image/svg+xml</dc:format>
        <dc:type
           rdf:resource="http://purl.org/dc/dcmitype/StillImage" />
        <dc:title />
      </cc:Work>
    </rdf:RDF>
  </metadata>
  <defs
     id="defs8" />
  <sodipodi:namedview
     pagecolor="#ffffff"
     bordercolor="#666666"
     borderopacity="1"
     objecttolerance="10"
     gridtolerance="10"
     guidetolerance="10"
     inkscape:pageopacity="0"
     inkscape:pageshadow="2"
     inkscape:window-width="1085"
     inkscape:window-height="480"
     id="namedview6"
     showgrid="false"
     inkscape:zoom="9.8333333"
     inkscape:cx="1.0677966"
     inkscape:cy="12"
     inkscape:window-x="0"
     inkscape:window-y="25"
     inkscape:window-maximized="0"
     inkscape:current-layer="svg4"
     inkscape:showpageshadow="0"
     inkscape:pagecheckerboard="0"
     inkscape:deskcolor="#d1d1d1" />
  <path
     d="M 1.6780048,1.0896683e-5 A 1.67,1.67 0 0 0 0.00200478,1.6720109 v 2.792 c 0,0.043 0.011,0.083 0.014,0.125 V 12.757011 H 4.784584e-6 v 2.616 A 1.67,1.67 0 0 0 1.6740048,17.047011 H 20.338005 a 1.67,1.67 0 0 0 1.674,-1.674 v -2.24 h 0.004 V 1.8670109 H 9.8960048 l -1.87,-1.867000003317 z M 2.4580048,3.7450109 H 21.984005 l 0.009,1.275 H 3.2230048 v 2.473 c 0,0.473 -0.313,0.854 -0.702,0.854 -0.388,0 -0.7,-0.381 -0.7,-0.854 v -2.894 c 0,-0.042 0.015,-0.079 0.02,-0.12 -0.005,-0.033 -0.02,-0.062 -0.02,-0.096 a 0.63,0.63 0 0 1 0.56,-0.622 c 0.027,-0.002 0.05,-0.016 0.078,-0.016 z m 13.0830002,4.014 h 3.667 v 2.7500001 h 2.75 v 3.668 h -2.75 v 2.75 h -3.667 v -2.75 h -2.74 v -3.667 h 2.74 z"
     id="path2"
     inkscape:connector-curvature="0"
     style="fill:#bde6fb;fill-opacity:0.996078" />
</svg>
