<?xml version="1.0" encoding="UTF-8" standalone="no"?>
<svg
   width="21.230532"
   height="21.2234"
   version="1.1"
   id="svg4"
   sodipodi:docname="gtk-preferences-symbolic.svg"
   inkscape:version="0.92.4 (5da689c313, 2019-01-14)"
   xmlns:inkscape="http://www.inkscape.org/namespaces/inkscape"
   xmlns:sodipodi="http://sodipodi.sourceforge.net/DTD/sodipodi-0.dtd"
   xmlns="http://www.w3.org/2000/svg"
   xmlns:svg="http://www.w3.org/2000/svg"
   xmlns:rdf="http://www.w3.org/1999/02/22-rdf-syntax-ns#"
   xmlns:cc="http://creativecommons.org/ns#"
   xmlns:dc="http://purl.org/dc/elements/1.1/">
  <metadata
     id="metadata10">
    <rdf:RDF>
      <cc:Work
         rdf:about="">
        <dc:format>image/svg+xml</dc:format>
        <dc:type
           rdf:resource="http://purl.org/dc/dcmitype/StillImage" />
        <dc:title />
      </cc:Work>
    </rdf:RDF>
  </metadata>
  <defs
     id="defs8" />
  <sodipodi:namedview
     pagecolor="#ffffff"
     bordercolor="#666666"
     borderopacity="1"
     objecttolerance="10"
     gridtolerance="10"
     guidetolerance="10"
     inkscape:pageopacity="0"
     inkscape:pageshadow="2"
     inkscape:window-width="1085"
     inkscape:window-height="480"
     id="namedview6"
     showgrid="false"
     inkscape:zoom="9.8333333"
     inkscape:cx="1.0677966"
     inkscape:cy="12"
     inkscape:window-x="0"
     inkscape:window-y="25"
     inkscape:window-maximized="0"
     inkscape:current-layer="svg4"
     inkscape:showpageshadow="0"
     inkscape:pagecheckerboard="0"
     inkscape:deskcolor="#d1d1d1" />
  <path
     d="m 2.2622502,0.00636451 a 1.97,1.97 0 0 0 -1.27199999,0.58 l -0.398,0.394 a 1.99,1.99 0 0 0 -0.006,2.82699999 L 8.2172502,11.451365 a 1.995,1.995 0 0 0 2.0119998,0.489 l 6.673,6.666 0.197,0.73 a 0.504,0.505 89.982 0 0 0.198,0.28 l 2.187,1.516 a 0.504,0.505 89.982 0 0 0.646,-0.056 l 0.953,-0.95 a 0.504,0.505 89.982 0 0 0.053,-0.649 l -1.485,-2.184 a 0.504,0.505 89.982 0 0 -0.283,-0.194 l -0.752,-0.223 -6.666,-6.657 a 1.983,1.983 0 0 0 -0.495,-1.9800005 L 3.8262502,0.59336451 a 1.996,1.996 0 0 0 -1.225,-0.58 v -0.003 a 2.043,2.043 0 0 0 -0.339,-0.006 z m 14.0069998,0.15 v 0.006 a 0.432,0.432 0 0 0 -0.091,0.01 c -1.205,0.422 -2.333,1.28699999 -2.87,2.25899999 a 3.307,3.307 0 0 0 -0.305,2.445 c -0.233,0.589 -0.639,1.383 -1.51,2.256 l 0.861,0.96 c 0.457,0.815 0.528,1.465 0.445,2.0180005 0.967,-0.9690005 2.718,-2.1880005 3.335,-2.3980005 1.513,0.26 3.06,-0.377 3.795,-1.705 0.539,-0.973 0.668,-2.39 0.377,-3.62 a 0.258,0.258 0 0 0 -0.063,-0.122 0.252,0.252 0 0 0 -0.226,-0.075 0.238,0.238 0 0 0 -0.197,0.125 l -1.476,2.673 c -0.132,0.238 -0.433,0.344 -0.815,0.333 -0.385,-0.006 -0.84,-0.15 -1.3,-0.398 -0.462,-0.249 -0.824,-0.558 -1.041,-0.872 -0.216,-0.312 -0.289,-0.624 -0.157,-0.862 l 1.467,-2.64199999 a 0.264,0.264 0 0 0 -0.02,-0.3 0.255,0.255 0 0 0 -0.21,-0.091 z M 6.9862502,11.369365 l -6.27499999,5.927 c -0.67,0.676 -0.579,1.83 0.194,2.595 0.77299999,0.766 1.92799999,0.845 2.59899999,0.17 l 6.7289998,-7.24 c -1.2329998,0.393 -2.3029998,-0.173 -3.2469998,-1.448 z m -4.698,6.14 v 0.003 a 0.982,0.982 0 0 1 0.695,0.282 0.987,0.987 0 0 1 0.007,1.392 0.98,0.98 0 0 1 -1.389,0.003 0.987,0.987 0 0 1 -0.006,-1.391 0.975,0.975 0 0 1 0.693,-0.289 z"
     id="path2"
     inkscape:connector-curvature="0"
     style="fill:#bde6fb;fill-opacity:1" />
</svg>
