<?xml version="1.0" encoding="UTF-8" standalone="no"?>
<svg
   width="20.24"
   height="20.238001"
   version="1.1"
   id="svg4"
   sodipodi:docname="help-about-symbolic.svg"
   inkscape:version="0.92.4 (5da689c313, 2019-01-14)"
   xmlns:inkscape="http://www.inkscape.org/namespaces/inkscape"
   xmlns:sodipodi="http://sodipodi.sourceforge.net/DTD/sodipodi-0.dtd"
   xmlns="http://www.w3.org/2000/svg"
   xmlns:svg="http://www.w3.org/2000/svg"
   xmlns:rdf="http://www.w3.org/1999/02/22-rdf-syntax-ns#"
   xmlns:cc="http://creativecommons.org/ns#"
   xmlns:dc="http://purl.org/dc/elements/1.1/">
  <metadata
     id="metadata10">
    <rdf:RDF>
      <cc:Work
         rdf:about="">
        <dc:format>image/svg+xml</dc:format>
        <dc:type
           rdf:resource="http://purl.org/dc/dcmitype/StillImage" />
        <dc:title />
      </cc:Work>
    </rdf:RDF>
  </metadata>
  <defs
     id="defs8" />
  <sodipodi:namedview
     pagecolor="#ffffff"
     bordercolor="#666666"
     borderopacity="1"
     objecttolerance="10"
     gridtolerance="10"
     guidetolerance="10"
     inkscape:pageopacity="0"
     inkscape:pageshadow="2"
     inkscape:window-width="1085"
     inkscape:window-height="480"
     id="namedview6"
     showgrid="false"
     inkscape:zoom="9.8333333"
     inkscape:cx="1.0677966"
     inkscape:cy="12"
     inkscape:window-x="0"
     inkscape:window-y="25"
     inkscape:window-maximized="0"
     inkscape:current-layer="svg4"
     inkscape:showpageshadow="0"
     inkscape:pagecheckerboard="0"
     inkscape:deskcolor="#d1d1d1" />
  <path
     d="m 10.121,0 c 0.641,0 2.71,5.27 3.228,5.655 0.52,0.384 6.072,0.762 6.27,1.384 0.198,0.623 -4.077,4.255 -4.276,4.877 -0.185,0.583 0.996,5.44 0.723,6.375 A 10.12,10.12 0 0 0 20.24,10.12 10.12,10.12 0 0 0 10.12,0 Z m 0,0 A 10.12,10.12 0 0 0 4.3869019e-8,10.12 10.12,10.12 0 0 0 4.175,18.297 C 3.897,17.374 5.084,12.5 4.898,11.917 4.7,11.294 0.42500004,7.662 0.62300004,7.039 0.82100004,6.417 6.373,6.039 6.893,5.655 7.411,5.27 9.479,0 10.121,0 Z m 0,15.788 c -0.605,0 -4.819,2.683 -5.737,2.67 a 10.12,10.12 0 0 0 5.737,1.78 10.12,10.12 0 0 0 5.715,-1.78 c -0.963,-0.03 -5.116,-2.67 -5.715,-2.67 z"
     id="path2"
     inkscape:connector-curvature="0"
     style="fill:#bde6fb;fill-opacity:1" />
</svg>
