<?xml version="1.0" encoding="UTF-8" standalone="no"?>
<svg
   width="14.097638"
   height="21.203148"
   viewBox="0 0 3.7300001 5.6099995"
   version="1.1"
   id="svg4"
   sodipodi:docname="kdeconnect-symbolic.svg"
   inkscape:version="0.92.4 (5da689c313, 2019-01-14)"
   xmlns:inkscape="http://www.inkscape.org/namespaces/inkscape"
   xmlns:sodipodi="http://sodipodi.sourceforge.net/DTD/sodipodi-0.dtd"
   xmlns="http://www.w3.org/2000/svg"
   xmlns:svg="http://www.w3.org/2000/svg"
   xmlns:rdf="http://www.w3.org/1999/02/22-rdf-syntax-ns#"
   xmlns:cc="http://creativecommons.org/ns#"
   xmlns:dc="http://purl.org/dc/elements/1.1/">
  <metadata
     id="metadata10">
    <rdf:RDF>
      <cc:Work
         rdf:about="">
        <dc:format>image/svg+xml</dc:format>
        <dc:type
           rdf:resource="http://purl.org/dc/dcmitype/StillImage" />
        <dc:title />
      </cc:Work>
    </rdf:RDF>
  </metadata>
  <defs
     id="defs8" />
  <sodipodi:namedview
     pagecolor="#ffffff"
     bordercolor="#666666"
     borderopacity="1"
     objecttolerance="10"
     gridtolerance="10"
     guidetolerance="10"
     inkscape:pageopacity="0"
     inkscape:pageshadow="2"
     inkscape:window-width="1085"
     inkscape:window-height="480"
     id="namedview6"
     showgrid="false"
     inkscape:zoom="9.8333333"
     inkscape:cx="1.0677966"
     inkscape:cy="12"
     inkscape:window-x="0"
     inkscape:window-y="25"
     inkscape:window-maximized="0"
     inkscape:current-layer="svg4"
     inkscape:showpageshadow="0"
     inkscape:pagecheckerboard="0"
     inkscape:deskcolor="#d1d1d1" />
  <path
     d="M 0.23000006,0 C 0.10000006,0 5.7220459e-8,0.1 5.7220459e-8,0.24 V 5.37 C 5.7220459e-8,5.5 0.10000006,5.61 0.23000006,5.61 H 3.5000001 c 0.13,0 0.23,-0.1 0.23,-0.24 V 0.24 c 0,-0.13 -0.1,-0.24 -0.23,-0.24 z m 0.29,0.73 H 3.2200001 c 0.09,0 0.16,0.07 0.16,0.17 v 3.61 c 0,0.1 -0.07,0.17 -0.17,0.17 H 0.51000006 a 0.17,0.17 0 0 1 -0.16,-0.17 V 0.9 c 0,-0.1 0.07,-0.17 0.17,-0.17 z M 1.8600001,1.49 h -0.12 l -0.07,0.4 a 0.94,0.94 0 0 0 -0.19,0.06 l -0.29,-0.28 A 1.3,1.3 0 0 0 0.99000006,1.82 L 1.1700001,2.18 a 0.95,0.95 0 0 0 -0.11,0.16 L 0.66000006,2.28 a 1.3,1.3 0 0 0 -0.08,0.24 l 0.35,0.2 a 0.9,0.9 0 0 0 0,0.09 V 2.9 l -0.35,0.19 0.08,0.24 0.40000004,-0.05 0.1,0.15 -0.16,0.36 0.2,0.15 0.28,-0.28 c 0.06,0.03 0.12,0.05 0.19,0.06 l 0.07,0.4 a 1.34,1.34 0 0 0 0.25,0 l 0.07,-0.4 a 0.93,0.93 0 0 0 0.19,-0.06 l 0.28,0.28 c 0.08,-0.04 0.14,-0.1 0.2,-0.15 l -0.17,-0.36 a 0.96,0.96 0 0 0 0.11,-0.15 l 0.4,0.05 a 1.3,1.3 0 0 0 0.08,-0.24 l -0.35,-0.2 a 1.03,1.03 0 0 0 0,-0.18 l 0.35,-0.19 a 1.3,1.3 0 0 0 -0.08,-0.24 l -0.4,0.06 a 0.95,0.95 0 0 0 -0.1,-0.16 l 0.16,-0.36 a 1.3,1.3 0 0 0 -0.2,-0.15 l -0.28,0.28 a 0.94,0.94 0 0 0 -0.19,-0.06 l -0.07,-0.4 a 1.34,1.34 0 0 0 -0.13,0 z m 0,0.75 a 0.565,0.565 0 0 1 0,1.13 0.565,0.565 0 0 1 0,-1.13 z"
     id="path2"
     inkscape:connector-curvature="0"
     style="fill:#bde6fb;fill-opacity:1;fill-rule:evenodd" />
</svg>
