<?xml version="1.0" encoding="UTF-8" standalone="no"?>
<svg
   width="19.170008"
   height="18.066006"
   version="1.1"
   id="svg4"
   sodipodi:docname="mail-archive-symbolic.svg"
   inkscape:version="0.92.4 (5da689c313, 2019-01-14)"
   xmlns:inkscape="http://www.inkscape.org/namespaces/inkscape"
   xmlns:sodipodi="http://sodipodi.sourceforge.net/DTD/sodipodi-0.dtd"
   xmlns="http://www.w3.org/2000/svg"
   xmlns:svg="http://www.w3.org/2000/svg"
   xmlns:rdf="http://www.w3.org/1999/02/22-rdf-syntax-ns#"
   xmlns:cc="http://creativecommons.org/ns#"
   xmlns:dc="http://purl.org/dc/elements/1.1/">
  <metadata
     id="metadata10">
    <rdf:RDF>
      <cc:Work
         rdf:about="">
        <dc:format>image/svg+xml</dc:format>
        <dc:type
           rdf:resource="http://purl.org/dc/dcmitype/StillImage" />
        <dc:title />
      </cc:Work>
    </rdf:RDF>
  </metadata>
  <defs
     id="defs8" />
  <sodipodi:namedview
     pagecolor="#ffffff"
     bordercolor="#666666"
     borderopacity="1"
     objecttolerance="10"
     gridtolerance="10"
     guidetolerance="10"
     inkscape:pageopacity="0"
     inkscape:pageshadow="2"
     inkscape:window-width="640"
     inkscape:window-height="480"
     id="namedview6"
     showgrid="false"
     inkscape:zoom="9.8333333"
     inkscape:cx="10.220339"
     inkscape:cy="12"
     inkscape:window-x="0"
     inkscape:window-y="25"
     inkscape:window-maximized="0"
     inkscape:current-layer="svg4"
     inkscape:showpageshadow="0"
     inkscape:pagecheckerboard="0"
     inkscape:deskcolor="#d1d1d1" />
  <path
     d="M 4.6960077,1.5258789e-8 V 1.221 H 14.474008 V 0.00100002 H 4.6950077 Z M 3.1900077,1.499 A 9.58,9.5 0 0 0 7.6675415e-6,8.554 9.58,9.5 0 0 0 9.5900077,18.066 a 9.58,9.5 0 0 0 9.5800003,-9.5 9.58,9.5 0 0 0 -3.13,-7.014 v 11.193 h -3.85 a 2.56,2.56 0 0 1 -4.4000003,1.82 2.56,2.56 0 0 1 -0.75,-1.82 h -3.85 V 1.498 Z m 1.506,0.946 V 3.667 H 14.474008 V 2.444 H 4.6950077 Z m 0,2.445 v 6.111 H 14.474008 V 4.891 H 4.6950077 Z m 1.223,1.22 3.666,1.835 3.6660003,-1.834 v 1.222 l -3.6660003,1.833 -3.666,-1.834 z"
     id="path2"
     inkscape:connector-curvature="0"
     style="fill:#bde6fb;fill-opacity:1;fill-rule:evenodd" />
</svg>
