<?xml version="1.0" encoding="UTF-8" standalone="no"?>
<svg
   width="19.17001"
   height="19.012005"
   version="1.1"
   id="svg4"
   sodipodi:docname="outbox-symbolic.svg"
   inkscape:version="0.92.4 (5da689c313, 2019-01-14)"
   xmlns:inkscape="http://www.inkscape.org/namespaces/inkscape"
   xmlns:sodipodi="http://sodipodi.sourceforge.net/DTD/sodipodi-0.dtd"
   xmlns="http://www.w3.org/2000/svg"
   xmlns:svg="http://www.w3.org/2000/svg"
   xmlns:rdf="http://www.w3.org/1999/02/22-rdf-syntax-ns#"
   xmlns:cc="http://creativecommons.org/ns#"
   xmlns:dc="http://purl.org/dc/elements/1.1/">
  <metadata
     id="metadata10">
    <rdf:RDF>
      <cc:Work
         rdf:about="">
        <dc:format>image/svg+xml</dc:format>
        <dc:type
           rdf:resource="http://purl.org/dc/dcmitype/StillImage" />
        <dc:title />
      </cc:Work>
    </rdf:RDF>
  </metadata>
  <defs
     id="defs8" />
  <sodipodi:namedview
     pagecolor="#ffffff"
     bordercolor="#666666"
     borderopacity="1"
     objecttolerance="10"
     gridtolerance="10"
     guidetolerance="10"
     inkscape:pageopacity="0"
     inkscape:pageshadow="2"
     inkscape:window-width="640"
     inkscape:window-height="480"
     id="namedview6"
     showgrid="false"
     inkscape:zoom="9.8333333"
     inkscape:cx="10.220339"
     inkscape:cy="12"
     inkscape:window-x="0"
     inkscape:window-y="25"
     inkscape:window-maximized="0"
     inkscape:current-layer="svg4"
     inkscape:showpageshadow="0"
     inkscape:pagecheckerboard="0"
     inkscape:deskcolor="#d1d1d1" />
  <path
     d="M 9.6100077,4.196167e-8 5.6100077,5 h 2 v 7.9 a 9.58,9.5 0 0 0 1.98,0.211 9.58,9.5 0 0 0 2.0200003,-0.21 v -7.9 h 2 L 9.6100077,0.00100004 Z M 5.7600077,0.80000004 A 9.58,9.5 0 0 0 7.6675415e-6,9.5 9.58,9.5 0 0 0 9.5900077,19.012 a 9.58,9.5 0 0 0 9.5800003,-9.5 9.58,9.5 0 0 0 -5.7,-8.69199996 V 1.479 l 2.57,3.213 v 9 h -3.85 a 2.56,2.56 0 0 1 -4.4000003,1.82 2.56,2.56 0 0 1 -0.75,-1.82 h -3.85 v -9 l 2.57,-3.213 V 0.80100004 Z"
     id="path2"
     inkscape:connector-curvature="0"
     style="fill:#bde6fb;fill-opacity:1;fill-rule:evenodd" />
</svg>
