<?xml version="1.0" encoding="UTF-8" standalone="no"?>
<svg
   width="21.720001"
   height="21.720001"
   version="1.1"
   id="svg4"
   sodipodi:docname="system-hibernate-symbolic.svg"
   inkscape:version="0.92.4 (5da689c313, 2019-01-14)"
   xmlns:inkscape="http://www.inkscape.org/namespaces/inkscape"
   xmlns:sodipodi="http://sodipodi.sourceforge.net/DTD/sodipodi-0.dtd"
   xmlns="http://www.w3.org/2000/svg"
   xmlns:svg="http://www.w3.org/2000/svg"
   xmlns:rdf="http://www.w3.org/1999/02/22-rdf-syntax-ns#"
   xmlns:cc="http://creativecommons.org/ns#"
   xmlns:dc="http://purl.org/dc/elements/1.1/">
  <metadata
     id="metadata10">
    <rdf:RDF>
      <cc:Work
         rdf:about="">
        <dc:format>image/svg+xml</dc:format>
        <dc:type
           rdf:resource="http://purl.org/dc/dcmitype/StillImage" />
        <dc:title />
      </cc:Work>
    </rdf:RDF>
  </metadata>
  <defs
     id="defs8" />
  <sodipodi:namedview
     pagecolor="#ffffff"
     bordercolor="#666666"
     borderopacity="1"
     objecttolerance="10"
     gridtolerance="10"
     guidetolerance="10"
     inkscape:pageopacity="0"
     inkscape:pageshadow="2"
     inkscape:window-width="1085"
     inkscape:window-height="480"
     id="namedview6"
     showgrid="false"
     inkscape:zoom="9.8333333"
     inkscape:cx="1.0677966"
     inkscape:cy="12"
     inkscape:window-x="0"
     inkscape:window-y="25"
     inkscape:window-maximized="0"
     inkscape:current-layer="svg4"
     inkscape:showpageshadow="0"
     inkscape:pagecheckerboard="0"
     inkscape:deskcolor="#d1d1d1" />
  <path
     d="M 10.86,1.4305115e-8 A 10.86,10.86 0 0 0 1.4305115e-8,10.86 10.86,10.86 0 0 0 10.86,21.72 10.86,10.86 0 0 0 21.72,10.86 10.86,10.86 0 0 0 10.86,1.4305115e-8 Z M 10.88,1.82 a 8.97,8.97 0 0 1 8.98,8.97 8.97,8.97 0 0 1 -8.98,8.97 8.97,8.97 0 0 1 -8.97,-8.97 8.97,8.97 0 0 1 8.97,-8.97 z m -1.4,2.44 a 6.56,6.56 0 0 0 -6,6.52 6.56,6.56 0 0 0 6,6.53 z m 5,0.71 -0.44,2.64 -2.64,0.37 2.64,0.5 0.49,2.64 0.39,-2.63 2.64,-0.41 -2.64,-0.47 z"
     id="path2"
     inkscape:connector-curvature="0"
     style="fill:#bde6fb;fill-opacity:1" />
</svg>
