<?xml version="1.0" encoding="UTF-8" standalone="no"?>
<svg
   width="21.694489"
   height="21.686932"
   viewBox="0 0 5.7400001 5.7380007"
   version="1.1"
   id="svg4"
   sodipodi:docname="system-run-symbolic.svg"
   inkscape:version="0.92.4 (5da689c313, 2019-01-14)"
   xmlns:inkscape="http://www.inkscape.org/namespaces/inkscape"
   xmlns:sodipodi="http://sodipodi.sourceforge.net/DTD/sodipodi-0.dtd"
   xmlns="http://www.w3.org/2000/svg"
   xmlns:svg="http://www.w3.org/2000/svg"
   xmlns:rdf="http://www.w3.org/1999/02/22-rdf-syntax-ns#"
   xmlns:cc="http://creativecommons.org/ns#"
   xmlns:dc="http://purl.org/dc/elements/1.1/">
  <metadata
     id="metadata10">
    <rdf:RDF>
      <cc:Work
         rdf:about="">
        <dc:format>image/svg+xml</dc:format>
        <dc:type
           rdf:resource="http://purl.org/dc/dcmitype/StillImage" />
        <dc:title />
      </cc:Work>
    </rdf:RDF>
  </metadata>
  <defs
     id="defs8" />
  <sodipodi:namedview
     pagecolor="#ffffff"
     bordercolor="#666666"
     borderopacity="1"
     objecttolerance="10"
     gridtolerance="10"
     guidetolerance="10"
     inkscape:pageopacity="0"
     inkscape:pageshadow="2"
     inkscape:window-width="1085"
     inkscape:window-height="480"
     id="namedview6"
     showgrid="false"
     inkscape:zoom="9.8333333"
     inkscape:cx="1.0677966"
     inkscape:cy="12"
     inkscape:window-x="0"
     inkscape:window-y="25"
     inkscape:window-maximized="0"
     inkscape:current-layer="svg4"
     inkscape:showpageshadow="0"
     inkscape:pagecheckerboard="0"
     inkscape:deskcolor="#d1d1d1" />
  <path
     d="M 2.8700002,7.2097778e-7 A 2.869,2.869 0 0 0 1.7166138e-7,2.8700007 2.869,2.869 0 0 0 2.8700002,5.7380007 a 2.869,2.869 0 0 0 2.87,-2.869 A 2.869,2.869 0 0 0 2.8690002,7.2097778e-7 Z M 2.8620002,0.42700072 a 2.467,2.467 0 0 1 2.466,2.46699998 2.467,2.467 0 0 1 -2.466,2.467 2.467,2.467 0 0 1 -2.46700003,-2.467 2.467,2.467 0 0 1 2.46700003,-2.46699998 z m 0.008,0.269 a 2.75,2.75 0 0 0 -0.204,0.01 l -0.126,0.64999998 a 1.556,1.556 0 0 0 -0.3,0.096 l -0.476,-0.45499998 c -0.12,0.072 -0.226,0.15999998 -0.33,0.25199998 l 0.281,0.592 a 1.57,1.57 0 0 0 -0.184,0.253 l -0.65000003,-0.088 a 2.145,2.145 0 0 0 -0.126,0.398 l 0.57200003,0.31 a 1.498,1.498 0 0 0 -0.009,0.155 c 0,0.054 0.004,0.103 0.01,0.155 l -0.57300003,0.31 c 0.03,0.139 0.07,0.272 0.126,0.399 l 0.65000003,-0.088 c 0.053,0.09 0.115,0.175 0.184,0.252 l -0.281,0.593 c 0.104,0.092 0.21,0.18 0.33,0.251 l 0.475,-0.456 c 0.095,0.043 0.197,0.075 0.301,0.098 l 0.126,0.65 a 2.21,2.21 0 0 0 0.407,0 l 0.127,-0.65 c 0.103,-0.023 0.206,-0.055 0.3,-0.098 l 0.476,0.457 c 0.12,-0.072 0.225,-0.16 0.33,-0.252 l -0.282,-0.593 c 0.07,-0.077 0.132,-0.162 0.185,-0.252 l 0.65,0.088 a 2.145,2.145 0 0 0 0.126,-0.398 l -0.573,-0.31 c 0.006,-0.053 0.01,-0.102 0.01,-0.156 0,-0.054 -0.004,-0.103 -0.01,-0.155 l 0.573,-0.31 a 2.145,2.145 0 0 0 -0.126,-0.398 l -0.65,0.087 a 1.57,1.57 0 0 0 -0.185,-0.253 l 0.281,-0.591 a 2.149,2.149 0 0 0 -0.329,-0.25199998 l -0.476,0.45499998 a 1.557,1.557 0 0 0 -0.3,-0.096 l -0.127,-0.64999998 a 2.21,2.21 0 0 0 -0.203,-0.01 z m 0,1.24199998 a 0.9315,0.9315 0 0 1 0,1.863 0.9315,0.9315 0 0 1 0,-1.863 z"
     id="path2"
     inkscape:connector-curvature="0"
     style="fill:#bde6fb;fill-opacity:1" />
</svg>
