<?xml version="1.0" encoding="UTF-8" standalone="no"?>
<svg
   width="16.98"
   height="16.978998"
   version="1.1"
   id="svg4"
   sodipodi:docname="zoom-in-symbolic.svg"
   inkscape:version="0.92.4 (5da689c313, 2019-01-14)"
   xmlns:inkscape="http://www.inkscape.org/namespaces/inkscape"
   xmlns:sodipodi="http://sodipodi.sourceforge.net/DTD/sodipodi-0.dtd"
   xmlns="http://www.w3.org/2000/svg"
   xmlns:svg="http://www.w3.org/2000/svg"
   xmlns:rdf="http://www.w3.org/1999/02/22-rdf-syntax-ns#"
   xmlns:cc="http://creativecommons.org/ns#"
   xmlns:dc="http://purl.org/dc/elements/1.1/">
  <metadata
     id="metadata10">
    <rdf:RDF>
      <cc:Work
         rdf:about="">
        <dc:format>image/svg+xml</dc:format>
        <dc:type
           rdf:resource="http://purl.org/dc/dcmitype/StillImage" />
        <dc:title />
      </cc:Work>
    </rdf:RDF>
  </metadata>
  <defs
     id="defs8" />
  <sodipodi:namedview
     pagecolor="#ffffff"
     bordercolor="#666666"
     borderopacity="1"
     objecttolerance="10"
     gridtolerance="10"
     guidetolerance="10"
     inkscape:pageopacity="0"
     inkscape:pageshadow="2"
     inkscape:window-width="1085"
     inkscape:window-height="480"
     id="namedview6"
     showgrid="false"
     inkscape:zoom="9.8333333"
     inkscape:cx="1.0677966"
     inkscape:cy="12"
     inkscape:window-x="0"
     inkscape:window-y="25"
     inkscape:window-maximized="0"
     inkscape:current-layer="svg4"
     inkscape:showpageshadow="0"
     inkscape:pagecheckerboard="0"
     inkscape:deskcolor="#d1d1d1" />
  <path
     d="M 6.31,-3.8146973e-8 A 6.31,6.31 0 1 0 6.31,12.62 c 1.568,0 3,-0.573 4.101,-1.52 l 0.268,0.268 v 0.767 l 4.854,4.844 1.447,-1.446 -4.845,-4.855 H 11.363 L 11.096,10.411 A 6.25,6.25 0 0 0 12.621,6.31 6.31,6.31 0 0 0 6.311,-3.8146973e-8 M 6.311,1.94 A 4.3700001,4.3700001 0 1 1 6.309,10.68 4.37,4.37 0 0 1 6.31,1.94 M 5.825,3.882 V 5.824 H 3.883 v 0.971 h 1.942 v 1.942 h 0.97 V 6.795 H 8.737 V 5.825 H 6.796 V 3.881 H 5.825"
     id="path2"
     inkscape:connector-curvature="0"
     style="fill:#bde6fb;fill-opacity:1" />
</svg>
