<?xml version="1.0" encoding="UTF-8" standalone="no"?>
<svg
   width="17.490002"
   height="17.490002"
   version="1.1"
   id="svg4"
   sodipodi:docname="zoom-best-fit-symbolic.svg"
   inkscape:version="0.92.4 (5da689c313, 2019-01-14)"
   inkscape:export-filename="zoom-best-fit-symbolic.png"
   inkscape:export-xdpi="96"
   inkscape:export-ydpi="96"
   xmlns:inkscape="http://www.inkscape.org/namespaces/inkscape"
   xmlns:sodipodi="http://sodipodi.sourceforge.net/DTD/sodipodi-0.dtd"
   xmlns="http://www.w3.org/2000/svg"
   xmlns:svg="http://www.w3.org/2000/svg"
   xmlns:rdf="http://www.w3.org/1999/02/22-rdf-syntax-ns#"
   xmlns:cc="http://creativecommons.org/ns#"
   xmlns:dc="http://purl.org/dc/elements/1.1/">
  <metadata
     id="metadata10">
    <rdf:RDF>
      <cc:Work
         rdf:about="">
        <dc:format>image/svg+xml</dc:format>
        <dc:type
           rdf:resource="http://purl.org/dc/dcmitype/StillImage" />
        <dc:title />
      </cc:Work>
    </rdf:RDF>
  </metadata>
  <defs
     id="defs8" />
  <sodipodi:namedview
     pagecolor="#ffffff"
     bordercolor="#666666"
     borderopacity="1"
     objecttolerance="10"
     gridtolerance="10"
     guidetolerance="10"
     inkscape:pageopacity="0"
     inkscape:pageshadow="2"
     inkscape:window-width="1085"
     inkscape:window-height="480"
     id="namedview6"
     showgrid="false"
     inkscape:zoom="9.8333333"
     inkscape:cx="1.0677966"
     inkscape:cy="12"
     inkscape:window-x="0"
     inkscape:window-y="25"
     inkscape:window-maximized="0"
     inkscape:current-layer="svg4"
     inkscape:showpageshadow="0"
     inkscape:pagecheckerboard="0"
     inkscape:deskcolor="#d1d1d1" />
  <path
     d="m 4.0000001,8.9999999 v -2 h 1 v 1 h 1 v 1 h -2 m 5,0 v -2 h -1 v 1 h -1 v 1 h 2 m 0,-5 v 2 h -1 v -1 h -1 v -1 h 2 m -5,0 v 2 h 1 v -1 h 1 v -1 h -2 m 2.5,-4.00000001444092 A 6.5,6.5 0 1 0 6.5000001,13 6.46,6.46 0 0 0 10.724,11.435 L 11,11.71 V 12.5 L 16,17.49 17.49,16 12.5,11 H 11.705 L 11.429,10.725 A 6.437,6.437 0 0 0 13,6.4999999 6.5,6.5 0 0 0 6.5000001,-1.1444092e-7 m 0,2.00000001444092 a 4.5,4.5 0 1 1 0,9.0000001 4.5,4.5 0 0 1 0,-9.0000001 z"
     id="path2"
     inkscape:connector-curvature="0"
     style="fill:#bde6fb;fill-opacity:1" />
</svg>
