<?xml version="1.0" encoding="UTF-8" standalone="no"?>
<svg
   width="20.995998"
   height="20.995998"
   version="1"
   id="svg6"
   sodipodi:docname="emblem-web.svg"
   inkscape:version="0.92.4 (5da689c313, 2019-01-14)"
   xmlns:inkscape="http://www.inkscape.org/namespaces/inkscape"
   xmlns:sodipodi="http://sodipodi.sourceforge.net/DTD/sodipodi-0.dtd"
   xmlns="http://www.w3.org/2000/svg"
   xmlns:svg="http://www.w3.org/2000/svg"
   xmlns:rdf="http://www.w3.org/1999/02/22-rdf-syntax-ns#"
   xmlns:cc="http://creativecommons.org/ns#"
   xmlns:dc="http://purl.org/dc/elements/1.1/">
  <metadata
     id="metadata12">
    <rdf:RDF>
      <cc:Work
         rdf:about="">
        <dc:format>image/svg+xml</dc:format>
        <dc:type
           rdf:resource="http://purl.org/dc/dcmitype/StillImage" />
        <dc:title />
      </cc:Work>
    </rdf:RDF>
  </metadata>
  <defs
     id="defs10" />
  <sodipodi:namedview
     pagecolor="#ffffff"
     bordercolor="#666666"
     borderopacity="1"
     objecttolerance="10"
     gridtolerance="10"
     guidetolerance="10"
     inkscape:pageopacity="0"
     inkscape:pageshadow="2"
     inkscape:window-width="1160"
     inkscape:window-height="480"
     id="namedview8"
     showgrid="false"
     inkscape:zoom="9.8333333"
     inkscape:cx="1.0677966"
     inkscape:cy="12"
     inkscape:window-x="0"
     inkscape:window-y="25"
     inkscape:window-maximized="0"
     inkscape:current-layer="svg6"
     inkscape:showpageshadow="0"
     inkscape:pagecheckerboard="0"
     inkscape:deskcolor="#d1d1d1" />
  <path
     d="M 10.498,2.5749207e-8 C 4.705,2.5749207e-8 2.5749207e-8,4.706 2.5749207e-8,10.498 2.5749207e-8,16.29 4.706,20.996 10.498,20.996 16.291,20.996 20.996,16.29 20.996,10.498 20.996,4.705 16.29,2.5749207e-8 10.498,2.5749207e-8 Z"
     id="path2"
     inkscape:connector-curvature="0"
     style="fill:#bde6fb;fill-opacity:1" />
  <path
     d="M 10.62,3.142 A 7.39,7.39 0 0 0 3.748,7.82 6.935,6.935 0 0 0 3.591,8.244 l -0.03,0.089 a 7.272,7.272 0 0 0 -0.368,2.269 c 0,4.056 3.312,7.354 7.386,7.354 a 7.395,7.395 0 0 0 6.845,-4.598 l 0.002,-0.002 a 7.73,7.73 0 0 0 0.209,-0.57 c 0.238,-0.721 0.372,-1.49 0.372,-2.29 0,-4.055 -3.314,-7.354 -7.387,-7.354 z M 10.088,4.29 V 6.765 A 13.503,13.503 0 0 1 8.085,6.549 C 8.179,6.33 8.277,6.12 8.385,5.929 8.878,5.044 9.473,4.492 10.088,4.29 Z m 1.055,0.041 c 0.056,0.01 0.112,0.016 0.167,0.026 0.556,0.242 1.09,0.767 1.539,1.571 0.105,0.188 0.201,0.395 0.293,0.608 -0.62,0.12 -1.294,0.199 -1.999,0.227 z M 7.838,4.838 C 7.706,5.022 7.578,5.212 7.463,5.418 7.31,5.693 7.173,5.99 7.047,6.301 A 8.437,8.437 0 0 1 6.185,5.998 6.323,6.323 0 0 1 7.838,4.838 Z m 5.673,0.158 c 0.288,0.115 0.51,0.222 0.73,0.33 0.282,0.195 0.547,0.412 0.792,0.65 A 8.273,8.273 0 0 1 14.18,6.282 7.974,7.974 0 0 0 13.772,5.418 6.493,6.493 0 0 0 13.511,4.996 Z m 2.211,1.772 a 6.245,6.245 0 0 1 1.204,3.206 H 14.938 A 11.65,11.65 0 0 0 14.521,7.279 9.13,9.13 0 0 0 15.7,6.835 C 15.71,6.812 15.715,6.79 15.721,6.768 Z M 5.468,6.838 a 9.24,9.24 0 0 0 1.24,0.46 11.66,11.66 0 0 0 -0.413,2.676 H 4.315 A 6.245,6.245 0 0 1 5.468,6.838 Z m 8.03,0.7 c 0.21,0.736 0.345,1.56 0.385,2.436 H 11.144 V 7.814 A 14.24,14.24 0 0 0 13.497,7.539 Z M 7.732,7.554 a 14.31,14.31 0 0 0 2.357,0.262 V 9.974 H 7.35 C 7.39,9.104 7.524,8.286 7.731,7.554 Z m -3.416,3.47 h 1.979 c 0.04,0.98 0.189,1.906 0.43,2.745 A 9.34,9.34 0 0 0 5.513,14.216 6.246,6.246 0 0 1 4.316,11.024 Z m 3.035,0 h 2.738 v 2.233 a 14.32,14.32 0 0 0 -2.338,0.257 c -0.219,-0.75 -0.36,-1.592 -0.4,-2.49 z m 3.793,0 h 2.739 a 10.662,10.662 0 0 1 -0.404,2.505 14.278,14.278 0 0 0 -2.335,-0.27 z m 3.795,0 h 1.986 a 6.246,6.246 0 0 1 -1.22,3.223 C 15.702,14.244 15.702,14.24 15.7,14.237 a 9.259,9.259 0 0 0 -1.197,-0.45 c 0.245,-0.843 0.396,-1.776 0.436,-2.763 z m -4.85,3.283 v 2.4 C 9.474,16.505 8.878,15.955 8.385,15.071 a 6.596,6.596 0 0 1 -0.27,-0.553 13.43,13.43 0 0 1 1.974,-0.211 z m 1.055,0.002 c 0.694,0.028 1.358,0.103 1.971,0.22 -0.084,0.19 -0.172,0.373 -0.266,0.542 -0.493,0.885 -1.09,1.434 -1.705,1.636 z m -4.07,0.454 c 0.119,0.287 0.246,0.563 0.388,0.818 0.112,0.2 0.235,0.388 0.363,0.567 A 6.32,6.32 0 0 1 6.248,15.052 c 0.258,-0.104 0.53,-0.203 0.826,-0.289 z m 7.079,0.019 c 0.293,0.087 0.562,0.186 0.817,0.291 a 6.318,6.318 0 0 1 -1.563,1.08 6.245,6.245 0 0 0 0.746,-1.371 z"
     id="path4"
     inkscape:connector-curvature="0"
     style="fill:#ffffff;fill-rule:evenodd" />
</svg>
