<?xml version="1.0" encoding="UTF-8" standalone="no"?>
<svg
   width="20.995998"
   height="20.995998"
   version="1"
   id="svg6"
   sodipodi:docname="emblem-github.svg"
   inkscape:version="0.92.4 (5da689c313, 2019-01-14)"
   xmlns:inkscape="http://www.inkscape.org/namespaces/inkscape"
   xmlns:sodipodi="http://sodipodi.sourceforge.net/DTD/sodipodi-0.dtd"
   xmlns="http://www.w3.org/2000/svg"
   xmlns:svg="http://www.w3.org/2000/svg"
   xmlns:rdf="http://www.w3.org/1999/02/22-rdf-syntax-ns#"
   xmlns:cc="http://creativecommons.org/ns#"
   xmlns:dc="http://purl.org/dc/elements/1.1/">
  <metadata
     id="metadata12">
    <rdf:RDF>
      <cc:Work
         rdf:about="">
        <dc:format>image/svg+xml</dc:format>
        <dc:type
           rdf:resource="http://purl.org/dc/dcmitype/StillImage" />
        <dc:title />
      </cc:Work>
    </rdf:RDF>
  </metadata>
  <defs
     id="defs10" />
  <sodipodi:namedview
     pagecolor="#ffffff"
     bordercolor="#666666"
     borderopacity="1"
     objecttolerance="10"
     gridtolerance="10"
     guidetolerance="10"
     inkscape:pageopacity="0"
     inkscape:pageshadow="2"
     inkscape:window-width="1160"
     inkscape:window-height="480"
     id="namedview8"
     showgrid="false"
     inkscape:zoom="9.8333333"
     inkscape:cx="1.0677966"
     inkscape:cy="12"
     inkscape:window-x="0"
     inkscape:window-y="25"
     inkscape:window-maximized="0"
     inkscape:current-layer="svg6"
     inkscape:showpageshadow="0"
     inkscape:pagecheckerboard="0"
     inkscape:deskcolor="#d1d1d1" />
  <path
     d="M 10.498,2.5749207e-8 C 4.705,2.5749207e-8 2.5749207e-8,4.706 2.5749207e-8,10.498 2.5749207e-8,16.29 4.706,20.996 10.498,20.996 16.291,20.996 20.996,16.29 20.996,10.498 20.996,4.705 16.29,2.5749207e-8 10.498,2.5749207e-8 Z"
     id="path2"
     inkscape:connector-curvature="0"
     style="fill:#bde6fb;fill-opacity:1" />
  <path
     d="M 5.497,3.324 C 5.387,3.329 5.333,3.347 5.333,3.347 4.78,4.747 5.13,5.781 5.235,6.038 4.584,6.749 4.187,7.657 4.187,8.767 c 0,3.897 2.374,4.77 4.633,5.027 -0.291,0.254 -0.554,0.702 -0.646,1.36 -0.58,0.26 -2.053,0.708 -2.96,-0.846 0,0 -0.537,-0.976 -1.558,-1.047 0,0 -0.993,-0.014 -0.07,0.617 0,0 0.668,0.313 1.13,1.488 0,0 0.597,1.978 3.426,1.364 0.005,0.848 0.013,1.488 0.013,1.73 0,0.232 -0.139,0.497 -0.504,0.506 v 0.002 h 6.068 c -0.38,0.002 -0.52,-0.27 -0.52,-0.509 0,-0.333 0.012,-1.43 0.012,-2.789 0,-0.949 -0.326,-1.57 -0.69,-1.884 2.265,-0.251 4.643,-1.112 4.643,-5.02 0,-1.11 -0.394,-2.017 -1.046,-2.728 0.105,-0.257 0.455,-1.291 -0.1,-2.691 0,0 -0.853,-0.274 -2.794,1.042 A 9.73,9.73 0 0 0 10.677,4.047 9.714,9.714 0 0 0 8.131,4.389 C 6.674,3.402 5.828,3.309 5.497,3.324 Z"
     id="path4"
     inkscape:connector-curvature="0"
     style="fill:#ffffff" />
</svg>
