<?xml version="1.0" encoding="UTF-8" standalone="no"?>
<svg
   width="20.995998"
   height="20.995998"
   version="1"
   id="svg6"
   sodipodi:docname="emblem-personal.svg"
   inkscape:version="0.92.4 (5da689c313, 2019-01-14)"
   xmlns:inkscape="http://www.inkscape.org/namespaces/inkscape"
   xmlns:sodipodi="http://sodipodi.sourceforge.net/DTD/sodipodi-0.dtd"
   xmlns="http://www.w3.org/2000/svg"
   xmlns:svg="http://www.w3.org/2000/svg"
   xmlns:rdf="http://www.w3.org/1999/02/22-rdf-syntax-ns#"
   xmlns:cc="http://creativecommons.org/ns#"
   xmlns:dc="http://purl.org/dc/elements/1.1/">
  <metadata
     id="metadata12">
    <rdf:RDF>
      <cc:Work
         rdf:about="">
        <dc:format>image/svg+xml</dc:format>
        <dc:type
           rdf:resource="http://purl.org/dc/dcmitype/StillImage" />
        <dc:title />
      </cc:Work>
    </rdf:RDF>
  </metadata>
  <defs
     id="defs10" />
  <sodipodi:namedview
     pagecolor="#ffffff"
     bordercolor="#666666"
     borderopacity="1"
     objecttolerance="10"
     gridtolerance="10"
     guidetolerance="10"
     inkscape:pageopacity="0"
     inkscape:pageshadow="2"
     inkscape:window-width="1160"
     inkscape:window-height="480"
     id="namedview8"
     showgrid="false"
     inkscape:zoom="9.8333333"
     inkscape:cx="1.0677966"
     inkscape:cy="12"
     inkscape:window-x="0"
     inkscape:window-y="25"
     inkscape:window-maximized="0"
     inkscape:current-layer="svg6"
     inkscape:showpageshadow="0"
     inkscape:pagecheckerboard="0"
     inkscape:deskcolor="#d1d1d1" />
  <path
     d="M 10.498,2.5749207e-8 C 4.705,2.5749207e-8 2.5749207e-8,4.706 2.5749207e-8,10.498 2.5749207e-8,16.29 4.706,20.996 10.498,20.996 16.291,20.996 20.996,16.29 20.996,10.498 20.996,4.705 16.29,2.5749207e-8 10.498,2.5749207e-8 Z"
     id="path2"
     inkscape:connector-curvature="0"
     style="fill:#bde6fb;fill-opacity:1" />
  <path
     d="m 10.505,10.977 a 3.8755,3.8755 0 1 0 0,-7.751 3.8755,3.8755 0 1 0 0,7.751 m 0,0 c -2.005,0 -6.02,1.293 -6.02,3.876 v 1.937 h 12.039 v -1.937 c 0,-2.583 -4.014,-3.876 -6.02,-3.876"
     id="path4"
     inkscape:connector-curvature="0"
     style="fill:#ffffff" />
</svg>
