<?xml version="1.0" encoding="UTF-8" standalone="no"?>
<svg
   width="20.995998"
   height="20.995998"
   version="1"
   id="svg6"
   sodipodi:docname="emblem-kali.svg"
   inkscape:version="0.92.5 (2060ec1f9f, 2020-04-08)"
   xmlns:inkscape="http://www.inkscape.org/namespaces/inkscape"
   xmlns:sodipodi="http://sodipodi.sourceforge.net/DTD/sodipodi-0.dtd"
   xmlns="http://www.w3.org/2000/svg"
   xmlns:svg="http://www.w3.org/2000/svg"
   xmlns:rdf="http://www.w3.org/1999/02/22-rdf-syntax-ns#"
   xmlns:cc="http://creativecommons.org/ns#"
   xmlns:dc="http://purl.org/dc/elements/1.1/">
  <metadata
     id="metadata12">
    <rdf:RDF>
      <cc:Work
         rdf:about="">
        <dc:format>image/svg+xml</dc:format>
        <dc:type
           rdf:resource="http://purl.org/dc/dcmitype/StillImage" />
        <dc:title />
      </cc:Work>
    </rdf:RDF>
  </metadata>
  <defs
     id="defs10" />
  <sodipodi:namedview
     pagecolor="#ffffff"
     bordercolor="#666666"
     borderopacity="1"
     objecttolerance="10"
     gridtolerance="10"
     guidetolerance="10"
     inkscape:pageopacity="0"
     inkscape:pageshadow="2"
     inkscape:window-width="1085"
     inkscape:window-height="480"
     id="namedview8"
     showgrid="false"
     inkscape:zoom="9.8333333"
     inkscape:cx="1.0677966"
     inkscape:cy="12"
     inkscape:window-x="0"
     inkscape:window-y="25"
     inkscape:window-maximized="0"
     inkscape:current-layer="svg6"
     inkscape:showpageshadow="0"
     inkscape:pagecheckerboard="0"
     inkscape:deskcolor="#d1d1d1" />
  <path
     d="M 10.498,2.5749207e-8 C 4.705,2.5749207e-8 2.5749207e-8,4.706 2.5749207e-8,10.498 2.5749207e-8,16.29 4.706,20.996 10.498,20.996 16.291,20.996 20.996,16.29 20.996,10.498 20.996,4.705 16.29,2.5749207e-8 10.498,2.5749207e-8 Z"
     id="path2"
     inkscape:connector-curvature="0"
     style="fill:#bde6fb;fill-opacity:1" />
  <path
     d="M 10.012,1.978 C 9.73,2 9.448,2.021 9.172,2.062 c 0.627,0.452 1.305,0.83 1.903,1.321 1.141,0.947 2.205,1.994 3.128,3.155 0.243,0.266 0.649,0.065 0.961,0.113 C 14.813,6.004 14.169,5.584 13.67,5.061 12.53,3.943 11.292,2.931 10.012,1.978 Z M 7.9,3.274 c -0.005,0 0.011,0.168 0.037,0.372 0.027,0.208 0.039,0.38 0.022,0.396 A 5.843,5.843 0 0 1 7.231,3.769 C 6.222,3.351 6.021,3.278 6.021,3.33 6.021,3.351 6.071,3.5 6.124,3.652 6.324,4.2 6.33,4.169 6.039,4.163 5.903,4.163 5.427,4.123 4.994,4.07 A 8.842,8.842 0 0 0 4.187,3.99 C 4.177,3.995 4.302,4.184 4.47,4.4 4.635,4.623 4.762,4.814 4.752,4.823 4.741,4.84 4.314,4.917 3.807,5.008 A 18.88,18.88 0 0 0 2.783,5.214 C 2.7,5.252 2.736,5.297 3.037,5.535 3.226,5.686 3.387,5.819 3.387,5.83 3.387,5.841 3.08,6.042 2.706,6.28 2.336,6.516 1.961,6.764 1.882,6.828 L 1.734,6.943 2.194,7.07 C 2.44,7.134 2.647,7.207 2.647,7.223 2.647,7.24 2.388,7.613 2.065,8.047 1.863,8.316 1.67,8.592 1.487,8.875 c 0,0.019 0.221,0.047 0.491,0.052 l 0.495,0.015 -0.22,0.951 c -0.082,0.319 -0.153,0.64 -0.212,0.964 0.005,0.005 0.195,-0.072 0.416,-0.178 0.234,-0.111 0.428,-0.174 0.449,-0.147 0.038,0.041 0.428,1.366 0.428,1.455 0,0.02 0.026,0.1 0.052,0.18 l 0.057,0.14 0.253,-0.247 0.253,-0.253 0.497,0.4 c 0.276,0.216 0.68,0.507 0.901,0.639 a 31.942,31.942 0 0 0 3.156,1.53 c 2.426,1.014 3.47,1.63 4.403,2.622 0.529,0.559 0.812,1.101 1.024,1.952 l 0.147,0.594 0.041,-0.311 c 0.059,-0.439 0,-1.276 -0.103,-1.588 A 6.742,6.742 0 0 0 13.603,16.802 4.203,4.203 0 0 0 12.799,15.747 C 11.977,14.915 11.135,14.343 9.922,13.789 7.39,12.644 6.64,12.196 5.633,11.238 4.556,10.208 4.151,9.281 4.329,8.257 4.461,7.52 4.996,6.77 5.644,6.422 6.277,6.078 6.608,6.006 7.579,5.98 c 1.077,-0.033 1.61,0.024 2.51,0.424 0.45,0.166 0.5,0.181 0.527,0.187 l 2.168,1.113 a 0.7,0.7 0 0 1 0.236,0.183 c 0.07,0.085 0.053,0.183 0.04,0.338 -0.01,0.136 -0.002,0.278 0.003,0.41 0.034,0.369 0.156,0.683 0.346,0.87 0.164,0.162 0.531,0.393 1.27,0.797 0.36,0.197 0.806,0.458 0.992,0.581 0.432,0.287 0.881,0.65 1.293,1.04 v 10e-4 c 0.282,0.267 0.565,0.565 0.795,0.844 0.193,0.233 0.324,0.368 0.353,0.36 0.03,-0.008 0.378,-0.236 0.783,-0.51 1,-0.68 1.037,-0.707 1,-0.752 A 0.42,0.42 0 0 0 19.751,11.811 1.316,1.316 0 0 0 19.657,11.788 C 19.223,11.702 18.637,11.45 18.173,11.15 A 6.74,6.74 0 0 1 17.56,10.684 c -0.216,-0.188 -0.433,-0.36 -0.618,-0.59 L 16.845,9.972 16.907,9.905 C 17.09,9.705 17.075,9.61 16.787,9.128 A 52.257,52.257 0 0 1 15.886,7.565 4.858,4.858 0 0 0 15.608,7.089 0.626,0.626 0 0 0 15.464,6.939 0.346,0.346 0 0 0 15.32,6.872 C 14.977,6.832 14.47,6.967 14.201,6.835 A 0.976,0.976 0 0 1 13.974,6.661 C 13.8,6.493 13.634,6.289 13.5,6.133 13.207,5.789 12.881,5.405 12.777,5.278 12.497,4.938 12.289,4.717 12.239,4.703 12.226,4.7 12.228,4.699 12.226,4.715 12.221,4.765 12.24,4.972 12.273,5.21 12.317,5.526 12.34,5.687 12.333,5.752 12.33,5.772 12.33,5.775 12.318,5.782 12.285,5.798 12.218,5.746 12.086,5.656 12.084,5.654 12.081,5.65 12.077,5.648 H 12.075 C 11.491,5.245 10.687,4.278 10.287,3.814 l 0.085,0.92 C 10.228,4.664 10.078,4.582 9.945,4.524 9.439,4.362 9.24,4.058 8.46,3.595 8.276,3.484 8.09,3.376 7.9,3.274 Z m 7.674,5.027 c 0.012,0 0.024,0.004 0.04,0.011 0.13,0.16 0.26,0.344 0.352,0.48 0.182,0.27 0.33,0.515 0.333,0.543 0.003,0.038 -0.01,0.042 -0.016,0.048 C 16.237,9.435 16.102,9.432 15.917,9.365 15.603,9.251 15.435,9.116 15.391,8.941 15.344,8.756 15.434,8.404 15.534,8.321 15.55,8.307 15.562,8.302 15.574,8.301 Z"
     id="path4"
     inkscape:connector-curvature="0"
     style="fill:#ffffff" />
</svg>
