<?xml version="1.0" encoding="UTF-8" standalone="no"?>
<svg
   width="20.995998"
   height="20.995998"
   version="1"
   id="svg6"
   sodipodi:docname="emblem-debian.svg"
   inkscape:version="0.92.5 (2060ec1f9f, 2020-04-08)"
   xmlns:inkscape="http://www.inkscape.org/namespaces/inkscape"
   xmlns:sodipodi="http://sodipodi.sourceforge.net/DTD/sodipodi-0.dtd"
   xmlns="http://www.w3.org/2000/svg"
   xmlns:svg="http://www.w3.org/2000/svg"
   xmlns:rdf="http://www.w3.org/1999/02/22-rdf-syntax-ns#"
   xmlns:cc="http://creativecommons.org/ns#"
   xmlns:dc="http://purl.org/dc/elements/1.1/">
  <metadata
     id="metadata12">
    <rdf:RDF>
      <cc:Work
         rdf:about="">
        <dc:format>image/svg+xml</dc:format>
        <dc:type
           rdf:resource="http://purl.org/dc/dcmitype/StillImage" />
        <dc:title />
      </cc:Work>
    </rdf:RDF>
  </metadata>
  <defs
     id="defs10" />
  <sodipodi:namedview
     pagecolor="#ffffff"
     bordercolor="#666666"
     borderopacity="1"
     objecttolerance="10"
     gridtolerance="10"
     guidetolerance="10"
     inkscape:pageopacity="0"
     inkscape:pageshadow="2"
     inkscape:window-width="1085"
     inkscape:window-height="480"
     id="namedview8"
     showgrid="false"
     inkscape:zoom="9.8333333"
     inkscape:cx="1.0677966"
     inkscape:cy="12"
     inkscape:window-x="0"
     inkscape:window-y="25"
     inkscape:window-maximized="0"
     inkscape:current-layer="svg6"
     inkscape:showpageshadow="0"
     inkscape:pagecheckerboard="0"
     inkscape:deskcolor="#d1d1d1" />
  <path
     d="M 10.498,2.5749207e-8 C 4.705,2.5749207e-8 2.5749207e-8,4.706 2.5749207e-8,10.498 2.5749207e-8,16.29 4.706,20.996 10.498,20.996 16.291,20.996 20.996,16.29 20.996,10.498 20.996,4.705 16.29,2.5749207e-8 10.498,2.5749207e-8 Z"
     id="path2"
     inkscape:connector-curvature="0"
     style="fill:#bde6fb;fill-opacity:1" />
  <path
     d="m 11.461,2.208 c -0.147,0.03 -0.33,0.015 -0.499,0.037 z m -0.499,0.037 -0.257,0.014 0.11,0.022 A 0.514,0.514 0 0 1 10.962,2.245 Z M 10.338,2.318 C 9.927,2.34 9.347,2.575 9.523,2.37 8.847,2.663 7.643,3.096 6.953,3.728 V 3.581 c -0.33,0.367 -1.38,1.13 -1.447,1.6 L 5.411,5.211 C 5.249,5.491 5.161,5.799 5.014,6.071 4.816,6.437 4.706,6.217 4.743,6.269 4.324,7.12 4.126,7.825 3.943,8.405 c 0.124,0.177 0,1.146 0.05,1.902 a 8.518,8.518 0 0 0 5.772,8.297 c 0.47,0.162 1.138,0.147 1.718,0.184 -0.69,-0.198 -0.763,-0.103 -1.454,-0.36 -0.47,-0.22 -0.572,-0.477 -0.903,-0.763 L 9.251,17.9 C 8.583,17.665 8.869,17.613 8.326,17.43 L 8.473,17.246 C 8.253,17.246 7.9,16.879 7.797,16.71 H 7.562 C 7.276,16.343 7.136,16.108 7.136,15.902 L 7.063,16.034 C 6.968,15.888 6.006,14.734 6.513,15.006 6.424,14.911 6.299,14.86 6.153,14.625 L 6.263,14.5 C 6.028,14.184 5.829,13.788 5.844,13.663 5.976,13.839 6.064,13.861 6.138,13.898 5.536,12.392 5.499,13.824 5.051,12.37 H 5.139 L 4.956,12.01 5.014,11.6 C 4.574,11.085 4.882,9.455 4.941,8.552 4.992,8.185 5.308,7.789 5.558,7.186 L 5.411,7.157 C 5.683,6.665 7.041,5.16 7.643,5.247 7.951,4.888 7.584,5.247 7.533,5.16 8.186,4.47 8.385,4.675 8.833,4.55 9.303,4.271 8.421,4.675 8.656,4.44 9.464,4.235 9.236,3.97 10.323,3.853 10.367,3.889 10.308,3.926 10.22,3.941 a 4.934,4.934 0 0 1 2.893,0.279 c 1.124,0.543 2.394,2.085 2.424,3.546 h 0.058 c -0.014,0.603 0.096,1.27 -0.11,1.888 L 15.632,9.36 c 0,0.44 -0.125,0.66 -0.272,1.035 l -0.235,0.132 c -0.183,0.36 0.015,0.235 -0.11,0.544 -0.308,0.271 -0.925,0.83 -1.123,0.91 -0.147,-0.022 0.088,-0.19 0.125,-0.257 -0.397,0.272 -0.324,0.411 -0.94,0.595 L 13.062,12.268 C 11.52,12.988 9.391,11.555 9.435,9.624 9.398,9.742 9.375,9.712 9.339,9.771 a 2.452,2.452 0 0 1 1.38,-2.43 2.313,2.313 0 0 1 2.57,0.337 2.247,2.247 0 0 0 -1.864,-0.903 C 10.617,6.775 9.853,7.297 9.596,7.862 9.185,8.112 9.126,8.875 8.95,9 c -0.242,1.814 0.44,2.57 1.645,3.48 0.095,0.074 0.11,0.11 0.11,0.147 1.395,0.53 2.842,0.397 4.06,-0.572 0.302,-0.243 0.647,-0.661 0.735,-0.661 -0.14,0.22 0.037,0.11 -0.088,0.294 0.308,-0.492 -0.125,-0.184 0.33,-0.852 l 0.184,0.235 c -0.074,-0.419 0.484,-0.91 0.426,-1.579 0.132,-0.176 0.146,0.22 0,0.668 0.205,-0.506 0.058,-0.573 0.11,-0.998 l 0.169,0.44 C 16.506,9.11 16.755,8.765 16.807,8.501 16.755,8.457 16.631,8.721 16.594,8.134 c 0,-0.257 0.073,-0.147 0.088,-0.199 A 1.212,1.212 0 0 1 16.432,7.341 C 16.484,7.245 16.594,7.576 16.667,7.576 16.609,7.282 16.52,7.062 16.52,6.826 16.3,6.356 16.447,6.9 16.27,6.628 16.014,5.865 16.447,6.445 16.484,6.1 c 0.367,0.55 0.572,1.365 0.668,1.71 A 7.078,7.078 0 0 0 16.829,6.592 c 0.11,0.051 -0.184,-0.852 0.147,-0.25 a 5.463,5.463 0 0 0 -2.54,-3.025 c 0.124,0.103 0.293,0.25 0.234,0.286 -0.529,-0.323 -0.433,-0.345 -0.507,-0.47 -0.418,-0.183 -0.447,0 -0.726,0 -0.794,-0.44 -0.955,-0.382 -1.69,-0.653 l 0.023,0.161 c -0.529,-0.176 -0.61,0.074 -1.175,0 C 10.558,2.605 10.771,2.546 10.962,2.516 10.448,2.59 10.47,2.421 9.956,2.531 Z m 0.624,0.198 H 11.05 V 2.494 Z M 11.05,2.494 c 0.176,-0.029 0.198,-0.073 -0.294,-0.088 0.147,0.037 0.33,0.059 0.294,0.096 z M 10.206,3.948 C 10.11,3.978 10,4 9.949,4.036 10.022,4 10.11,3.97 10.206,3.948 Z M 4.287,5.762 C 4.347,6.144 3.994,6.305 4.383,6.034 4.559,5.578 4.287,5.924 4.287,5.762 Z M 3.994,7.01 C 3.744,7.319 3.891,7.377 3.854,7.598 3.942,7.318 3.957,7.157 4.001,7.01 Z m 9.788,1.836 c -0.037,0 -0.074,0.088 -0.11,0.176 0.058,0.037 0.095,0.367 0.146,0.147 0.022,-0.242 0,-0.33 -0.036,-0.33 z m 3.01,0.83 -0.051,0.11 a 4.89,4.89 0 0 1 -0.419,1.395 c 0.243,-0.47 0.404,-0.991 0.47,-1.505 z m -3.187,0.183 a 1.407,1.407 0 0 1 -0.242,0.507 c -0.507,0.323 -0.037,-0.184 0,-0.39 -0.543,0.698 -0.073,0.42 -0.088,0.625 0.184,-0.243 0.294,-0.47 0.33,-0.727 z m -1.123,1.065 c -0.22,0.051 -0.455,0.051 -0.676,0.037 -0.271,0 0.06,0.146 0.404,0.176 z m -3.466,0.037 c 0.052,0.22 0.184,0.41 0.309,0.616 L 9.236,11.32 a 0.999,0.999 0 0 1 -0.22,-0.367 z m -0.22,0.367 -0.03,0.198 c 0.184,0.25 0.324,0.529 0.537,0.72 C 9.156,11.9 9.038,11.776 8.796,11.342 Z m 0.345,0.3 c 0.015,0 0.022,0.015 0.03,0.023 L 9.163,11.629 Z m 0.03,0.023 c 0.646,1.13 2.591,1.975 3.62,1.556 a 4.743,4.743 0 0 1 -1.63,-0.183 c -0.184,-0.103 -0.47,-0.323 -0.47,-0.397 v 0.11 A 3.304,3.304 0 0 1 9.618,11.922 C 9.78,12.157 9.941,12.37 10.162,12.554 9.817,12.436 9.347,11.732 9.17,11.644 Z"
     id="path4"
     inkscape:connector-curvature="0"
     style="fill:#ffffff" />
</svg>
