<?xml version="1.0" encoding="UTF-8" standalone="no"?>
<svg
   width="20.995998"
   height="20.995998"
   version="1"
   id="svg6"
   sodipodi:docname="emblem-music.svg"
   inkscape:version="0.92.4 (5da689c313, 2019-01-14)"
   xmlns:inkscape="http://www.inkscape.org/namespaces/inkscape"
   xmlns:sodipodi="http://sodipodi.sourceforge.net/DTD/sodipodi-0.dtd"
   xmlns="http://www.w3.org/2000/svg"
   xmlns:svg="http://www.w3.org/2000/svg"
   xmlns:rdf="http://www.w3.org/1999/02/22-rdf-syntax-ns#"
   xmlns:cc="http://creativecommons.org/ns#"
   xmlns:dc="http://purl.org/dc/elements/1.1/">
  <metadata
     id="metadata12">
    <rdf:RDF>
      <cc:Work
         rdf:about="">
        <dc:format>image/svg+xml</dc:format>
        <dc:type
           rdf:resource="http://purl.org/dc/dcmitype/StillImage" />
        <dc:title />
      </cc:Work>
    </rdf:RDF>
  </metadata>
  <defs
     id="defs10" />
  <sodipodi:namedview
     pagecolor="#ffffff"
     bordercolor="#666666"
     borderopacity="1"
     objecttolerance="10"
     gridtolerance="10"
     guidetolerance="10"
     inkscape:pageopacity="0"
     inkscape:pageshadow="2"
     inkscape:window-width="1160"
     inkscape:window-height="480"
     id="namedview8"
     showgrid="false"
     inkscape:zoom="9.8333333"
     inkscape:cx="1.0677966"
     inkscape:cy="12"
     inkscape:window-x="0"
     inkscape:window-y="25"
     inkscape:window-maximized="0"
     inkscape:current-layer="svg6"
     inkscape:showpageshadow="0"
     inkscape:pagecheckerboard="0"
     inkscape:deskcolor="#d1d1d1" />
  <path
     d="M 10.498,2.5749207e-8 C 4.705,2.5749207e-8 2.5749207e-8,4.706 2.5749207e-8,10.498 2.5749207e-8,16.29 4.706,20.996 10.498,20.996 16.291,20.996 20.996,16.29 20.996,10.498 20.996,4.705 16.29,2.5749207e-8 10.498,2.5749207e-8 Z"
     id="path2"
     inkscape:connector-curvature="0"
     style="fill:#bde6fb;fill-opacity:1" />
  <path
     d="M 15.073,2.788 C 12.74,3.16 10.401,3.494 8.07,3.875 7.436,4.192 7.663,4.998 7.622,5.566 v 7.379 c -1.63,-0.362 -3.51,0.905 -3.523,2.625 -0.073,1.105 0.996,2.02 2.072,1.92 1.459,-0.075 2.657,-1.484 2.5,-2.987 V 6.74 c 1.924,-0.276 4.07,-0.58 5.993,-0.857 v 6.071 c -1.56,-0.448 -3.527,0.58 -3.785,2.222 -0.217,0.968 0.462,1.94 1.389,2.217 1.735,0.567 3.69,-1.105 3.486,-2.893 -0.005,-3.353 0.015,-6.706 0,-10.06 -0.04,-0.333 -0.317,-0.669 -0.681,-0.652 z"
     id="path4"
     inkscape:connector-curvature="0"
     style="fill:#ffffff" />
</svg>
