<?xml version="1.0" encoding="UTF-8" standalone="no"?>
<svg
   width="48"
   height="48"
   viewBox="0 0 12.7 12.7"
   version="1.1"
   id="svg4"
   sodipodi:docname="0trace.svg"
   inkscape:version="0.92.5 (2060ec1f9f, 2020-04-08)"
   xmlns:inkscape="http://www.inkscape.org/namespaces/inkscape"
   xmlns:sodipodi="http://sodipodi.sourceforge.net/DTD/sodipodi-0.dtd"
   xmlns="http://www.w3.org/2000/svg"
   xmlns:svg="http://www.w3.org/2000/svg">
  <sodipodi:namedview
     id="namedview1"
     pagecolor="#505050"
     bordercolor="#eeeeee"
     borderopacity="1"
     inkscape:showpageshadow="0"
     inkscape:pageopacity="0"
     inkscape:pagecheckerboard="0"
     inkscape:deskcolor="#d1d1d1" />
  <defs
     id="defs8">
    <style
       id="current-color-scheme"
       type="text/css">&#10;      .ColorScheme-Highlight {&#10;        color:#1e3f5a;&#10;      }&#10;  </style>
  </defs>
  <path
     class="ColorScheme-Highlight"
     style="fill:#bde6fb;fill-opacity:1;stroke-width:0.264583"
     d="M 6.3499999,0 A 6.3499999,6.3499999 0 0 0 0,6.3499999 6.3499999,6.3499999 0 0 0 6.3499999,12.7 6.3499999,6.3499999 0 0 0 12.7,6.3499999 6.3499999,6.3499999 0 0 0 6.3499999,0 Z m 0,0.79374999 A 5.5562499,5.5562499 0 0 1 11.90625,6.3499999 5.5562499,5.5562499 0 0 1 6.3499999,11.90625 5.5562499,5.5562499 0 0 1 0.79374999,6.3499999 5.5562499,5.5562499 0 0 1 6.3499999,0.79374999 Z M 4.3656249,3.4395833 c -1.2459229,0 -2.2489583,1.0030354 -2.2489583,2.2489583 v 1.5875 c 0,1.2459229 1.0030354,2.2489583 2.2489583,2.2489583 1.2459229,0 2.2489584,-1.0030354 2.2489584,-2.2489583 v -1.5875 c 0,-1.2459229 -1.0030355,-2.2489583 -2.2489584,-2.2489583 z m 0,0.79375 c 0.4066525,0 0.7730779,0.1653894 1.0366293,0.4325318 l -2.48667,2.7130126 c -0.00237,-0.034077 -0.00517,-0.068138 -0.00517,-0.1028361 v -1.5875 c 0,-0.8061854 0.6490229,-1.4552083 1.4552083,-1.4552083 z M 8.2020832,4.4979166 V 5.0270833 H 7.6729166 v 0.5291666 h 0.5291666 v 0.79375 H 7.6729166 V 6.8791666 H 8.2020832 V 7.4083332 H 8.7312499 V 6.8791666 h 0.79375 V 7.4083332 H 10.054167 V 6.8791666 h 0.529166 V 6.3499999 h -0.529166 v -0.79375 h 0.529166 V 5.0270833 H 10.054167 V 4.4979166 H 9.5249999 v 0.5291667 h -0.79375 V 4.4979166 Z M 5.782076,5.3578124 C 5.806648,5.4641506 5.820833,5.574525 5.820833,5.6885416 v 1.5875 c 0,0.8061854 -0.6490229,1.4552083 -1.4552084,1.4552083 -0.4716589,0 -0.8883607,-0.2231541 -1.1539346,-0.5689576 z m 2.9491739,0.1984375 h 0.79375 v 0.79375 h -0.79375 z m -1.5875,2.38125 v 0.79375 h 3.4395831 v -0.79375 z"
     id="path817" />
</svg>
