<?xml version="1.0" encoding="UTF-8" standalone="no"?>
<svg
   width="48"
   height="48"
   viewBox="0 0 12.7 12.7"
   version="1.1"
   id="svg4"
   sodipodi:docname="2048.svg"
   inkscape:version="0.92.5 (2060ec1f9f, 2020-04-08)"
   xmlns:inkscape="http://www.inkscape.org/namespaces/inkscape"
   xmlns:sodipodi="http://sodipodi.sourceforge.net/DTD/sodipodi-0.dtd"
   xmlns="http://www.w3.org/2000/svg"
   xmlns:svg="http://www.w3.org/2000/svg">
  <sodipodi:namedview
     id="namedview1"
     pagecolor="#505050"
     bordercolor="#eeeeee"
     borderopacity="1"
     inkscape:showpageshadow="0"
     inkscape:pageopacity="0"
     inkscape:pagecheckerboard="0"
     inkscape:deskcolor="#d1d1d1" />
  <defs
     id="defs8">
    <style
       id="current-color-scheme"
       type="text/css">&#10;      .ColorScheme-Highlight {&#10;        color:#1e3f5a;&#10;      }&#10;  </style>
  </defs>
  <path
     class="ColorScheme-Highlight"
     style="fill:#bde6fb;fill-opacity:1;stroke-width:0.264583"
     d="M 6.3499999,0 A 6.3499999,6.3499999 0 0 0 0,6.3499999 6.3499999,6.3499999 0 0 0 6.3499999,12.7 6.3499999,6.3499999 0 0 0 12.7,6.3499999 6.3499999,6.3499999 0 0 0 6.3499999,0 Z m 0,0.79374999 A 5.5562499,5.5562499 0 0 1 11.90625,6.3499999 5.5562499,5.5562499 0 0 1 6.3499999,11.90625 5.5562499,5.5562499 0 0 1 0.79374999,6.3499999 5.5562499,5.5562499 0 0 1 6.3499999,0.79374999 Z M 3.3072916,5.0270833 c -0.460017,4.233e-4 -0.8499898,0.338451 -0.9157063,0.79375 h 0.5420858 c 0.055995,-0.1583775 0.205636,-0.2643476 0.3736205,-0.2645834 0.219188,0 0.396875,0.1776871 0.396875,0.396875 -1.59e-5,0.1052518 -0.04184,0.2061869 -0.1162719,0.2806031 L 2.38125,7.1437499 V 7.6729166 H 4.2333333 V 7.1437499 H 3.175 L 3.9615152,6.6073485 C 4.1352533,6.4339218 4.2330221,6.1986072 4.2333333,5.9531249 c 0,-0.5114388 -0.4146029,-0.9260416 -0.9260417,-0.9260416 z m 2.1166667,0 A 0.92604166,1.3229165 0 0 0 4.4979166,6.3499999 0.92604166,1.3229165 0 0 0 5.4239583,7.6729166 0.92604166,1.3229165 0 0 0 6.3499999,6.3499999 0.92604166,1.3229165 0 0 0 5.4239583,5.0270833 Z m 2.2489583,0 -1.0583333,1.5875 V 7.1437499 H 7.6729166 V 7.6729166 H 8.2020832 V 7.1437499 H 8.4666666 V 6.6145833 H 8.2020832 v -1.5875 z m 1.8520833,0 a 0.79374999,0.79374999 0 0 0 -0.79375,0.79375 0.79374999,0.79374999 0 0 0 0.2030883,0.5291666 0.79374999,0.79374999 0 0 0 -0.2030883,0.5291667 0.79374999,0.79374999 0 0 0 0.79375,0.79375 A 0.79374999,0.79374999 0 0 0 10.31875,6.8791666 0.79374999,0.79374999 0 0 0 10.115662,6.3499999 0.79374999,0.79374999 0 0 0 10.31875,5.8208333 0.79374999,0.79374999 0 0 0 9.5249999,5.0270833 Z M 5.4239583,5.5562499 a 0.396875,0.79374999 0 0 1 0.396875,0.79375 0.396875,0.79374999 0 0 1 -0.396875,0.79375 0.396875,0.79374999 0 0 1 -0.396875,-0.79375 0.396875,0.79374999 0 0 1 0.396875,-0.79375 z m 4.1010416,0 A 0.26458331,0.26458331 0 0 1 9.7895832,5.8208333 0.26458331,0.26458331 0 0 1 9.5249999,6.0854166 0.26458331,0.26458331 0 0 1 9.2604166,5.8208333 0.26458331,0.26458331 0 0 1 9.5249999,5.5562499 Z M 7.6729166,5.8208333 v 0.79375 H 7.1437499 Z m 1.8520833,0.79375 A 0.26458331,0.26458331 0 0 1 9.7895832,6.8791666 0.26458331,0.26458331 0 0 1 9.5249999,7.1437499 0.26458331,0.26458331 0 0 1 9.2604166,6.8791666 0.26458331,0.26458331 0 0 1 9.5249999,6.6145833 Z"
     id="path818" />
</svg>
