<?xml version="1.0" encoding="UTF-8" standalone="no"?>
<svg
   width="48"
   height="48"
   viewBox="0 0 12.7 12.7"
   version="1.1"
   id="svg4"
   sodipodi:docname="abiword.svg"
   inkscape:version="0.92.5 (2060ec1f9f, 2020-04-08)"
   xmlns:inkscape="http://www.inkscape.org/namespaces/inkscape"
   xmlns:sodipodi="http://sodipodi.sourceforge.net/DTD/sodipodi-0.dtd"
   xmlns="http://www.w3.org/2000/svg"
   xmlns:svg="http://www.w3.org/2000/svg">
  <sodipodi:namedview
     id="namedview1"
     pagecolor="#505050"
     bordercolor="#eeeeee"
     borderopacity="1"
     inkscape:showpageshadow="0"
     inkscape:pageopacity="0"
     inkscape:pagecheckerboard="0"
     inkscape:deskcolor="#d1d1d1" />
  <defs
     id="defs8">
    <style
       id="current-color-scheme"
       type="text/css">&#10;      .ColorScheme-Highlight {&#10;        color:#1e3f5a;&#10;      }&#10;  </style>
  </defs>
  <path
     class="ColorScheme-Highlight"
     style="fill:#bde6fb;fill-opacity:1;stroke-width:0.264583"
     d="M 6.3499999,0 A 6.3499999,6.3499999 0 0 0 0,6.3499999 6.3499999,6.3499999 0 0 0 6.3499999,12.7 6.3499999,6.3499999 0 0 0 12.7,6.3499999 6.3499999,6.3499999 0 0 0 6.3499999,0 Z m 0,0.79374999 A 5.5562499,5.5562499 0 0 1 11.90625,6.3499999 5.5562499,5.5562499 0 0 1 6.3499999,11.90625 5.5562499,5.5562499 0 0 1 0.79374999,6.3499999 5.5562499,5.5562499 0 0 1 6.3499999,0.79374999 Z M 6.5572224,2.6473835 C 6.305946,2.6291698 6.0460831,2.8234896 5.8725096,3.0029173 5.1453817,3.7523763 4.7024694,4.7302382 4.2684731,5.6745891 3.7623255,6.7921623 3.4301559,7.9832472 3.1863688,9.1865192 3.1009005,9.591755 3.5065057,9.8864009 3.8669473,9.7606444 4.8652998,9.5472447 5.8033401,9.099211 6.6864134,8.5855224 7.1952868,8.2784205 7.6846723,7.9299966 8.1080321,7.5060018 6.8843156,8.1277083 5.6246529,8.7113548 4.2875935,9.0221881 3.8565343,9.0200185 4.0691429,8.4432583 4.1387654,8.1819294 4.472987,7.0717377 4.9915008,6.0320697 5.4844198,4.9898762 5.6796373,4.6605758 5.8184295,4.20708 6.2120239,4.080371 6.5943469,4.0367121 6.8454571,4.4165662 7.0434977,4.6937702 7.853255,5.968321 8.6176296,7.2764011 9.2883219,8.6335813 9.4581897,8.9873292 9.624933,9.3428086 9.7895832,9.6991494 9.2999982,7.6453742 8.6407037,5.6082776 7.5783487,3.7852987 7.3402025,3.4252802 7.1234786,3.0341747 6.8021686,2.7445353 6.723885,2.6827511 6.6409813,2.6534549 6.5572224,2.6473835 Z"
     id="path817" />
</svg>
