<?xml version="1.0" encoding="UTF-8" standalone="no"?>
<svg
   width="48"
   height="48"
   viewBox="0 0 12.7 12.7"
   version="1.1"
   id="svg4"
   sodipodi:docname="accessories-calculator.svg"
   inkscape:version="0.92.5 (2060ec1f9f, 2020-04-08)"
   xmlns:inkscape="http://www.inkscape.org/namespaces/inkscape"
   xmlns:sodipodi="http://sodipodi.sourceforge.net/DTD/sodipodi-0.dtd"
   xmlns="http://www.w3.org/2000/svg"
   xmlns:svg="http://www.w3.org/2000/svg">
  <sodipodi:namedview
     id="namedview1"
     pagecolor="#505050"
     bordercolor="#eeeeee"
     borderopacity="1"
     inkscape:showpageshadow="0"
     inkscape:pageopacity="0"
     inkscape:pagecheckerboard="0"
     inkscape:deskcolor="#d1d1d1" />
  <defs
     id="defs8">
    <style
       id="current-color-scheme"
       type="text/css">&#10;      .ColorScheme-Highlight {&#10;        color:#1e3f5a;&#10;      }&#10;  </style>
  </defs>
  <path
     class="ColorScheme-Highlight"
     style="fill:#bde6fb;fill-opacity:1;stroke-width:0.264583"
     d="M 6.3499999,0 A 6.3499999,6.3499999 0 0 0 0,6.3499999 6.3499999,6.3499999 0 0 0 6.3499999,12.7 6.3499999,6.3499999 0 0 0 12.7,6.3499999 6.3499999,6.3499999 0 0 0 6.3499999,0 Z m 0,0.79374999 A 5.5562499,5.5562499 0 0 1 11.90625,6.3499999 5.5562499,5.5562499 0 0 1 6.3499999,11.90625 5.5562499,5.5562499 0 0 1 0.79374999,6.3499999 5.5562499,5.5562499 0 0 1 6.3499999,0.79374999 Z M 3.7041666,2.1166666 c -0.1399164,0 -0.2526977,0.1258022 -0.2526977,0.2821533 V 10.30118 c 0,0.156351 0.1127813,0.282153 0.2526977,0.282153 h 5.3035522 c 0.1399165,0 0.2526978,-0.125802 0.2526978,-0.282153 V 2.3988199 c 0,-0.1563511 -0.1127813,-0.2821533 -0.2526978,-0.2821533 z m 0.2645834,0.79375 h 4.7624999 v 1.5875 H 3.96875 Z m 0,2.38125 H 5.0270833 V 6.3499999 H 3.96875 Z m 1.8520833,0 H 6.8791666 V 6.3499999 H 5.8208333 Z m 1.8520833,0 H 8.7312499 V 6.3499999 H 7.6729166 Z M 3.96875,7.1437499 H 5.0270833 V 8.2020832 H 3.96875 Z m 1.8520833,0 H 6.8791666 V 8.2020832 H 5.8208333 Z m 1.8520833,0 H 8.7312499 V 8.2020832 H 7.6729166 Z M 3.96875,8.9958332 H 6.8791666 V 10.054167 H 3.96875 Z m 3.7041666,0 H 8.7312499 V 10.054167 H 7.6729166 Z"
     id="path851" />
</svg>
