<?xml version="1.0" encoding="UTF-8" standalone="no"?>
<svg
   width="48"
   height="48"
   viewBox="0 0 12.7 12.7"
   version="1.1"
   id="svg4"
   sodipodi:docname="accessories-text-editor.svg"
   inkscape:version="0.92.5 (2060ec1f9f, 2020-04-08)"
   xmlns:inkscape="http://www.inkscape.org/namespaces/inkscape"
   xmlns:sodipodi="http://sodipodi.sourceforge.net/DTD/sodipodi-0.dtd"
   xmlns="http://www.w3.org/2000/svg"
   xmlns:svg="http://www.w3.org/2000/svg">
  <sodipodi:namedview
     id="namedview1"
     pagecolor="#505050"
     bordercolor="#eeeeee"
     borderopacity="1"
     inkscape:showpageshadow="0"
     inkscape:pageopacity="0"
     inkscape:pagecheckerboard="0"
     inkscape:deskcolor="#d1d1d1" />
  <defs
     id="defs8">
    <style
       id="current-color-scheme"
       type="text/css">&#10;      .ColorScheme-Highlight {&#10;        color:#1e3f5a;&#10;      }&#10;  </style>
  </defs>
  <path
     class="ColorScheme-Highlight"
     style="fill:#bde6fb;fill-opacity:1;stroke-width:0.264583"
     d="M 6.3499999,0 A 6.3499999,6.3499999 0 0 0 0,6.3499999 6.3499999,6.3499999 0 0 0 6.3499999,12.7 6.3499999,6.3499999 0 0 0 12.7,6.3499999 6.3499999,6.3499999 0 0 0 6.3499999,0 Z m 0,0.79374999 A 5.5562499,5.5562499 0 0 1 11.90625,6.3499999 5.5562499,5.5562499 0 0 1 6.3499999,11.90625 5.5562499,5.5562499 0 0 1 0.79374999,6.3499999 5.5562499,5.5562499 0 0 1 6.3499999,0.79374999 Z M 8.9369222,2.2660115 8.0015788,3.2013548 9.498645,4.698421 10.433988,3.7630777 Z M 3.175,3.4395833 c -0.2931584,0 -0.5291667,0.2360083 -0.5291667,0.5291667 v 5.5562499 c 0,0.2931583 0.2360083,0.5291671 0.5291667,0.5291671 h 6.3499999 c 0.2931583,0 0.5291671,-0.2360088 0.5291671,-0.5291671 V 5.0270833 L 9.5249999,5.5562499 v 3.7041667 c 0,0.1465791 -0.1180042,0.2645833 -0.2645833,0.2645833 H 3.4395833 C 3.2930041,9.5249999 3.175,9.4069957 3.175,9.2604166 V 4.2333333 C 3.175,4.0867541 3.2930041,3.96875 3.4395833,3.96875 H 6.3499999 L 6.8791666,3.4395833 Z M 7.6274413,3.5760091 4.446757,6.7561766 5.9438232,8.2532428 9.1239908,5.0725585 Z m -3.5548218,3.554305 v 1.4970662 h 1.4970662 z"
     id="path817" />
</svg>
