<?xml version="1.0" encoding="UTF-8" standalone="no"?>
<svg
   width="47.546455"
   height="47.546455"
   viewBox="0 0 12.58 12.58"
   version="1.1"
   id="svg4"
   sodipodi:docname="ace.svg"
   inkscape:version="0.92.5 (2060ec1f9f, 2020-04-08)"
   xmlns:inkscape="http://www.inkscape.org/namespaces/inkscape"
   xmlns:sodipodi="http://sodipodi.sourceforge.net/DTD/sodipodi-0.dtd"
   xmlns="http://www.w3.org/2000/svg"
   xmlns:svg="http://www.w3.org/2000/svg"
   xmlns:rdf="http://www.w3.org/1999/02/22-rdf-syntax-ns#"
   xmlns:cc="http://creativecommons.org/ns#"
   xmlns:dc="http://purl.org/dc/elements/1.1/">
  <metadata
     id="metadata10">
    <rdf:RDF>
      <cc:Work
         rdf:about="">
        <dc:format>image/svg+xml</dc:format>
        <dc:type
           rdf:resource="http://purl.org/dc/dcmitype/StillImage" />
        <dc:title />
      </cc:Work>
    </rdf:RDF>
  </metadata>
  <defs
     id="defs8" />
  <sodipodi:namedview
     pagecolor="#ffffff"
     bordercolor="#666666"
     borderopacity="1"
     objecttolerance="10"
     gridtolerance="10"
     guidetolerance="10"
     inkscape:pageopacity="0"
     inkscape:pageshadow="2"
     inkscape:window-width="1085"
     inkscape:window-height="480"
     id="namedview6"
     showgrid="false"
     inkscape:zoom="4.9166667"
     inkscape:cx="2.1355932"
     inkscape:cy="24"
     inkscape:window-x="0"
     inkscape:window-y="25"
     inkscape:window-maximized="0"
     inkscape:current-layer="svg4"
     inkscape:showpageshadow="0"
     inkscape:pagecheckerboard="0"
     inkscape:deskcolor="#d1d1d1" />
  <path
     d="M 6.29,0 V 0.001 A 6.29,6.29 0 0 0 0,6.291 6.29,6.29 0 0 0 6.29,12.58 6.29,6.29 0 0 0 12.58,6.29 6.29,6.29 0 0 0 6.29,0 Z M 6.272,0.937 a 5.407,5.407 0 0 1 5.407,5.407 5.407,5.407 0 0 1 -1.04,3.18 0.912,0.912 0 0 0 -0.292,-0.045 H 7.497 V 9.189 C 7.497,9.064 7.322,8.964 7.108,8.964 H 6.747 V 8.393 h 3.478 L 10.389,7.322 H 2.191 l 0.182,1.07 H 5.844 V 8.964 H 5.457 c -0.214,0 -0.387,0.1 -0.387,0.225 v 0.29 H 2.142 A 0.954,0.954 0 0 0 1.898,9.512 5.407,5.407 0 0 1 0.865,6.344 5.407,5.407 0 0 1 6.272,0.938 Z M 3.757,2.561 v 10e-4 c -0.237,0 -0.373,0.033 -0.422,0.22 L 2.188,7.035 10.392,7.039 9.152,2.781 C 9.118,2.659 8.934,2.561 8.78,2.561 Z M 4.596,2.933 A 0.615,0.615 0 0 1 4.92,3.013 L 5.81,3.56 C 5.986,3.669 5.981,3.85 5.798,3.963 L 5.65,4.054 5.349,4.239 5.397,4.292 c 0.157,0.175 0.372,0.414 0.78,0.666 0.408,0.25 0.796,0.383 1.079,0.48 L 7.344,5.468 7.793,5.192 A 0.686,0.686 0 0 1 8.446,5.184 l 0.89,0.548 c 0.177,0.11 0.17,0.29 -0.013,0.402 L 9.07,6.288 9.065,6.285 C 8.957,6.336 8.834,6.38 8.702,6.411 8.579,6.441 8.458,6.46 8.332,6.469 8.273,6.473 6.928,6.551 5.259,5.523 4.05,4.779 3.606,4.23 3.724,3.63 A 0.652,0.652 0 0 1 3.816,3.403 0.926,0.926 0 0 1 4.022,3.178 L 4.016,3.174 4.266,3.019 a 0.654,0.654 0 0 1 0.33,-0.087 z m -2.05,7.32 H 5.07 v 0.24 c 0,0.124 0.173,0.226 0.387,0.226 h 1.652 c 0.214,0 0.387,-0.102 0.387,-0.227 v -0.238 h 2.509 A 5.407,5.407 0 0 1 6.272,11.752 5.407,5.407 0 0 1 2.546,10.254 Z"
     id="path2"
     inkscape:connector-curvature="0"
     style="fill:#bde6fb;fill-opacity:1" />
</svg>
