<?xml version="1.0" encoding="UTF-8" standalone="no"?>
<svg
   width="48"
   height="48"
   viewBox="0 0 12.7 12.7"
   version="1.1"
   id="svg4"
   sodipodi:docname="acetoneiso.svg"
   inkscape:version="0.92.5 (2060ec1f9f, 2020-04-08)"
   xmlns:inkscape="http://www.inkscape.org/namespaces/inkscape"
   xmlns:sodipodi="http://sodipodi.sourceforge.net/DTD/sodipodi-0.dtd"
   xmlns="http://www.w3.org/2000/svg"
   xmlns:svg="http://www.w3.org/2000/svg">
  <sodipodi:namedview
     id="namedview1"
     pagecolor="#505050"
     bordercolor="#eeeeee"
     borderopacity="1"
     inkscape:showpageshadow="0"
     inkscape:pageopacity="0"
     inkscape:pagecheckerboard="0"
     inkscape:deskcolor="#d1d1d1" />
  <defs
     id="defs8">
    <style
       id="current-color-scheme"
       type="text/css">&#10;      .ColorScheme-Highlight {&#10;        color:#1e3f5a;&#10;      }&#10;  </style>
  </defs>
  <path
     class="ColorScheme-Highlight"
     style="fill:#bde6fb;fill-opacity:1;stroke-width:0.264583"
     d="M 6.3499999,0 A 6.3499999,6.3499999 0 0 0 0,6.3499999 6.3499999,6.3499999 0 0 0 6.3499999,12.7 6.3499999,6.3499999 0 0 0 7.4052326,12.60492 3.7041666,3.7041666 0 0 1 7.2016275,12.320183 a 3.7041666,3.7041666 0 0 1 -0.183968,-0.321427 3.7041666,3.7041666 0 0 1 -0.151412,-0.337964 3.7041666,3.7041666 0 0 1 -0.1167887,-0.3514 3.7041666,3.7041666 0 0 1 -0.081132,-0.361218 3.7041666,3.7041666 0 0 1 -0.044442,-0.36742 3.7041666,3.7041666 0 0 1 -0.0093,-0.261999 3.7041666,3.7041666 0 0 1 0.018603,-0.3700035 3.7041666,3.7041666 0 0 1 0.055294,-0.365869 3.7041666,3.7041666 0 0 1 0.09095,-0.3570841 2.9104166,2.9104166 0 0 1 -0.4294312,0.034623 2.9104166,2.9104166 0 0 1 -2.9104166,-2.9104167 2.9104166,2.9104166 0 0 1 2.9104166,-2.9104166 2.9104166,2.9104166 0 0 1 2.9104167,2.9104166 2.9104166,2.9104166 0 0 1 -0.036174,0.434082 3.7041666,3.7041666 0 0 1 0.1038696,-0.034623 3.7041666,3.7041666 0 0 1 0.3612184,-0.081132 3.7041666,3.7041666 0 0 1 0.3674187,-0.044442 3.7041666,3.7041666 0 0 1 0.262,-0.0093 3.7041666,3.7041666 0 0 1 0.370003,0.018603 3.7041666,3.7041666 0 0 1 0.365869,0.055294 3.7041666,3.7041666 0 0 1 0.358635,0.091467 3.7041666,3.7041666 0 0 1 0.347782,0.1271241 3.7041666,3.7041666 0 0 1 0.33383,0.1607137 3.7041666,3.7041666 0 0 1 0.315226,0.1937864 A 3.7041666,3.7041666 0 0 1 12.609566,7.41299 6.3499999,6.3499999 0 0 0 12.7,6.3499999 6.3499999,6.3499999 0 0 0 6.3499999,0 Z m 0,4.4979166 A 1.8520833,1.8520833 0 0 0 4.4979166,6.3499999 1.8520833,1.8520833 0 0 0 6.3499999,8.2020832 1.8520833,1.8520833 0 0 0 8.2020832,6.3499999 1.8520833,1.8520833 0 0 0 6.3499999,4.4979166 Z m 0,0.79375 A 1.0583332,1.0583332 0 0 1 7.4083332,6.3499999 1.0583332,1.0583332 0 0 1 6.3499999,7.4083332 1.0583332,1.0583332 0 0 1 5.2916666,6.3499999 1.0583332,1.0583332 0 0 1 6.3499999,5.2916666 Z M 10.31875,7.1437499 v 0.79375 A 2.3812498,2.3812498 0 0 0 7.9374999,10.31875 2.3812498,2.3812498 0 0 0 10.31875,12.7 2.3812498,2.3812498 0 0 0 12.7,10.31875 H 12.170833 A 1.8520832,1.8520832 0 0 1 10.31875,12.170833 1.8520832,1.8520832 0 0 1 8.4666666,10.31875 1.8520832,1.8520832 0 0 1 10.31875,8.4666666 v 0.79375 l 1.058333,-1.0583334 z"
     id="path861" />
</svg>
