<?xml version="1.0" encoding="UTF-8" standalone="no"?>
<svg
   width="48"
   height="48"
   viewBox="0 0 12.7 12.7"
   version="1.1"
   id="svg4"
   sodipodi:docname="affcat.svg"
   inkscape:version="0.92.5 (2060ec1f9f, 2020-04-08)"
   xmlns:inkscape="http://www.inkscape.org/namespaces/inkscape"
   xmlns:sodipodi="http://sodipodi.sourceforge.net/DTD/sodipodi-0.dtd"
   xmlns="http://www.w3.org/2000/svg"
   xmlns:svg="http://www.w3.org/2000/svg">
  <sodipodi:namedview
     id="namedview1"
     pagecolor="#505050"
     bordercolor="#eeeeee"
     borderopacity="1"
     inkscape:showpageshadow="0"
     inkscape:pageopacity="0"
     inkscape:pagecheckerboard="0"
     inkscape:deskcolor="#d1d1d1" />
  <defs
     id="defs8">
    <style
       id="current-color-scheme"
       type="text/css">&#10;      .ColorScheme-Highlight {&#10;        color:#1e3f5a;&#10;      }&#10;  </style>
  </defs>
  <path
     class="ColorScheme-Highlight"
     style="fill:#bde6fb;fill-opacity:1;stroke-width:0.264583"
     d="M 6.3499999,0 A 6.3499999,6.3499999 0 0 0 0,6.3499999 6.3499999,6.3499999 0 0 0 6.3499999,12.7 6.3499999,6.3499999 0 0 0 10.274825,11.333158 l -0.209806,-0.209806 a 2.3812498,2.3812498 0 0 1 -0.2061893,0.09198 2.3812498,2.3812498 0 0 1 -0.2258261,0.07493 2.3812498,2.3812498 0 0 1 -0.2325439,0.05219 2.3812498,2.3812498 0 0 1 -0.2361612,0.02842 2.3812498,2.3812498 0 0 1 -0.1684653,0.0062 2.3812498,2.3812498 0 0 1 -0.2377117,-0.01189 2.3812498,2.3812498 0 0 1 -0.022221,-0.0036 A 5.5562499,5.5562499 0 0 1 6.3499999,11.90625 5.5562499,5.5562499 0 0 1 0.79374999,6.3499999 5.5562499,5.5562499 0 0 1 6.3499999,0.79374999 5.5562499,5.5562499 0 0 1 11.90625,6.3499999 a 5.5562499,5.5562499 0 0 1 -0.54622,2.3864176 2.3812498,2.3812498 0 0 1 0.01085,0.09095 2.3812498,2.3812498 0 0 1 0.0062,0.1684652 2.3812498,2.3812498 0 0 1 -0.01189,0.2377117 2.3812498,2.3812498 0 0 1 -0.03566,0.2351276 2.3812498,2.3812498 0 0 1 -0.05891,0.2309937 2.3812498,2.3812498 0 0 1 -0.08165,0.2232421 2.3812498,2.3812498 0 0 1 -0.0677,0.1400442 l 0.216008,0.216007 A 6.3499999,6.3499999 0 0 0 12.7,6.3499999 6.3499999,6.3499999 0 0 0 6.3499999,0 Z M 2.38125,3.175 v 0.79375 h 7.9375 V 3.175 Z m 0,1.0583333 v 0.5291666 4.4979167 c 0,0.1465791 0.118004,0.2645833 0.2645833,0.2645833 H 6.6771117 A 2.3812498,2.3812498 0 0 1 6.6492064,9.4004597 2.3812498,2.3812498 0 0 1 6.6207846,9.1642985 2.3812498,2.3812498 0 0 1 6.6145833,8.9958332 2.3812498,2.3812498 0 0 1 6.6264683,8.7581215 2.3812498,2.3812498 0 0 1 6.6621252,8.522994 2.3812498,2.3812498 0 0 1 6.7210362,8.2920003 2.3812498,2.3812498 0 0 1 6.8026851,8.0687581 2.3812498,2.3812498 0 0 1 6.9060377,7.8543009 2.3812498,2.3812498 0 0 1 7.0305781,7.6512125 2.3812498,2.3812498 0 0 1 7.1747554,7.46156 2.3812498,2.3812498 0 0 1 7.3370193,7.2874105 2.3812498,2.3812498 0 0 1 7.5158197,7.1303141 2.3812498,2.3812498 0 0 1 7.7090896,6.9923379 2.3812498,2.3812498 0 0 1 7.9157953,6.8734823 a 2.3812498,2.3812498 0 0 1 0.2170409,-0.097152 2.3812498,2.3812498 0 0 1 0.2258261,-0.074931 2.3812498,2.3812498 0 0 1 0.2325439,-0.052193 2.3812498,2.3812498 0 0 1 0.2361613,-0.028422 2.3812498,2.3812498 0 0 1 0.1684657,-0.0062 2.3812498,2.3812498 0 0 1 0.2377117,0.011885 2.3812498,2.3812498 0 0 1 0.2351276,0.035657 2.3812498,2.3812498 0 0 1 0.2309937,0.058911 2.3812498,2.3812498 0 0 1 0.2232421,0.081649 2.3812498,2.3812498 0 0 1 0.2144577,0.1033526 2.3812498,2.3812498 0 0 1 0.181384,0.1111049 V 4.4979166 4.2333333 Z m 0.5291666,0.79375 H 4.2333333 V 6.3499999 H 2.9104166 Z m 0.031523,1.8949746 H 4.2333333 V 8.2020832 H 2.9419394 Z m 6.0538938,0.221692 A 1.8520833,1.8520833 0 0 0 7.1437499,8.9958332 1.8520833,1.8520833 0 0 0 8.9958332,10.847917 1.8520833,1.8520833 0 0 0 10.105843,10.475846 l 1.348755,1.348238 c 0.103647,0.103647 0.27049,0.103647 0.374137,0 0.103647,-0.103647 0.103647,-0.27049 0,-0.374137 L 10.479464,10.101192 A 1.8520833,1.8520833 0 0 0 10.847917,8.9958332 1.8520833,1.8520833 0 0 0 8.9958334,7.1437499 Z m 0,0.5291667 A 1.3229166,1.3229166 0 0 1 10.31875,8.9958332 1.3229166,1.3229166 0 0 1 8.9958332,10.31875 1.3229166,1.3229166 0 0 1 7.6729166,8.9958332 1.3229166,1.3229166 0 0 1 8.9958334,7.6729166 Z"
     id="path842" />
</svg>
