<?xml version="1.0" encoding="UTF-8" standalone="no"?>
<svg
   width="47.546486"
   height="47.546486"
   viewBox="0 0 12.580008 12.580008"
   version="1.1"
   id="svg6"
   sodipodi:docname="afl.svg"
   inkscape:version="0.92.5 (2060ec1f9f, 2020-04-08)"
   inkscape:export-filename="afl.svg"
   inkscape:export-xdpi="96"
   inkscape:export-ydpi="96"
   xmlns:inkscape="http://www.inkscape.org/namespaces/inkscape"
   xmlns:sodipodi="http://sodipodi.sourceforge.net/DTD/sodipodi-0.dtd"
   xmlns="http://www.w3.org/2000/svg"
   xmlns:svg="http://www.w3.org/2000/svg"
   xmlns:rdf="http://www.w3.org/1999/02/22-rdf-syntax-ns#"
   xmlns:cc="http://creativecommons.org/ns#"
   xmlns:dc="http://purl.org/dc/elements/1.1/">
  <metadata
     id="metadata12">
    <rdf:RDF>
      <cc:Work
         rdf:about="">
        <dc:format>image/svg+xml</dc:format>
        <dc:type
           rdf:resource="http://purl.org/dc/dcmitype/StillImage" />
        <dc:title />
      </cc:Work>
    </rdf:RDF>
  </metadata>
  <defs
     id="defs10" />
  <sodipodi:namedview
     pagecolor="#ffffff"
     bordercolor="#666666"
     borderopacity="1"
     objecttolerance="10"
     gridtolerance="10"
     guidetolerance="10"
     inkscape:pageopacity="0"
     inkscape:pageshadow="2"
     inkscape:window-width="1085"
     inkscape:window-height="480"
     id="namedview8"
     showgrid="false"
     inkscape:zoom="4.9166667"
     inkscape:cx="2.1355932"
     inkscape:cy="24"
     inkscape:window-x="0"
     inkscape:window-y="25"
     inkscape:window-maximized="0"
     inkscape:current-layer="svg6"
     inkscape:showpageshadow="0"
     inkscape:pagecheckerboard="0"
     inkscape:deskcolor="#d1d1d1" />
  <path
     d="M 6.2900079,0 A 6.29,6.29 0 0 0 7.9490244e-6,6.3 6.29,6.29 0 0 0 6.3000079,12.58 6.29,6.29 0 0 0 12.580008,6.29 6.29,6.29 0 0 0 6.2900079,0 Z m -0.02,0.93 0.01,0.01 A 5.4,5.4 0 0 1 11.680008,6.34 5.4,5.4 0 0 1 6.2800079,11.75 5.4,5.4 0 0 1 0.87000795,6.35 5.4,5.4 0 0 1 6.2700079,0.93 Z"
     id="path2"
     inkscape:connector-curvature="0"
     style="fill:#bde6fb;fill-opacity:1" />
  <path
     d="m 2.7520079,2.449 -0.17,0.041 c -0.2,0.16 -0.14,0.78 0.2,2.1 0.2,0.73 0.36,1.12 0.64,1.53 0.18,0.27 0.27,0.38 0.56,0.67 0.27,0.3 0.6,0.7 0.62,1.05 -0.08,0.69 -0.61,1.05 -0.64,1.63 0,0.7 0.36,1.28 1.06,1.28 a 0.6,0.6 0 0 0 0.28,-0.06 1.28,1.28 0 0 0 1,0.48 1.28,1.28 0 0 0 1,-0.5 c 0.1,0.05 0.19,0.08 0.28,0.08 0.7,0 1.06,-0.57 1.06,-1.28 -0.03,-0.58 -0.56,-0.94 -0.64,-1.63 0.01,-0.34 0.35,-0.75 0.62,-1.05 0.3,-0.3 0.38,-0.4 0.56,-0.67 0.28,-0.41 0.44,-0.8 0.63,-1.54 0.3500001,-1.3 0.4000001,-1.93 0.2100001,-2.1 l -0.09,-0.03 h -0.08 c -0.1,0 -0.23,0.05 -0.38,0.12 -0.3,0.15 -0.6,0.37 -0.94,0.7 -0.51,0.48 -0.7,0.76 -1.29,1.98 -0.18,0.36 -0.4,0.8 -0.66,1.19 -0.08,0.05 -0.28,0.05 -0.28,0.05 0,0 -0.2,0 -0.28,-0.05 a 9.26,9.26 0 0 1 -0.66,-1.2 5.63,5.63 0 0 0 -1.29,-1.97 3.72,3.72 0 0 0 -0.94,-0.7 1.13,1.13 0 0 0 -0.38,-0.12 z m 0.15,0.49 0.04,0.011 c 0.26,0.13 0.52,0.32 0.84,0.62 0.48,0.47 0.6,0.66 1.2,1.87 0.14,0.29 0.32,0.64 0.53,1 -0.3,0.11 -0.58,0.3 -0.8,0.55 -0.13,-0.19 -0.28,-0.35 -0.41,-0.48 V 6.5 l -0.02,-0.01 c -0.29,-0.29 -0.33,-0.34 -0.5,-0.6 -0.26,-0.38 -0.4,-0.7 -0.58,-1.42 -0.17,-0.64 -0.27,-1.11 -0.3,-1.4 z m 6.8,0 V 3.06 c -0.03,0.3 -0.13,0.77 -0.3,1.41 a 4.16,4.16 0 0 1 -0.57,1.42 c -0.18,0.26 -0.22,0.31 -0.51,0.6 h -0.01 l -0.01,0.02 c -0.13,0.13 -0.28,0.3 -0.41,0.48 -0.22,-0.25 -0.5,-0.44 -0.8,-0.56 0.21,-0.35 0.39,-0.7 0.53,-1 0.6,-1.2 0.72,-1.39 1.2,-1.86 0.32,-0.3 0.58,-0.5 0.84,-0.62 z m -4.43,4.93 a 0.66,0.66 0 0 1 0.594,0.643 0.21,0.21 0 0 0 -0.184,-0.092 0.21,0.21 0 0 0 -0.21,0.21 0.21,0.21 0 0 0 0.112,0.179 c -0.26,-0.035 -0.562,-0.218 -0.562,-0.46 0,-0.27 -0.02,-0.48 0.25,-0.48 z m 2.06,0 c 0.27,0 0.25,0.21 0.25,0.48 0,0.26 -0.36,0.471 -0.62,0.491 a 0.21,0.21 0 0 1 -0.01,0 0.21,0.21 0 0 1 -0.03,0 0.21,0.21 0 0 1 -0.22,-0.21 0.21,0.21 0 0 1 0.03,-0.1 c 0,0.18 0.06,0.31 0.19,0.31 h 0.03 a 0.21,0.21 0 0 0 0.17,-0.21 0.21,0.21 0 0 0 -0.21,-0.21 0.21,0.21 0 0 0 -0.162,0.06 c 0.02,-0.253 0.188,-0.563 0.582,-0.61 z m -1.05,1.4 a 0.9,0.9 0 0 1 0.02,10e-4 0.9,0.9 0 0 1 0.6,0.21 c 0.16,0.2 -0.19,0.6 -0.6,0.64 l 0.04,0.01 v 0.54 c 0,0.06 0.04,0.1 0.1,0.1 h 0.22 a 0.1,0.1 0 0 0 0.1,-0.1 v -0.34 l 0.3,0.21 a 1,1 0 0 1 -0.76,0.36 1,1 0 0 1 -0.74,-0.33 l 0.28,-0.2 v 0.3 c 0,0.06 0.05,0.1 0.1,0.1 h 0.22 a 0.1,0.1 0 0 0 0.1,-0.1 v -0.54 l 0.04,-0.01 c -0.41,-0.03 -0.76,-0.44 -0.6,-0.64 a 0.9,0.9 0 0 1 0.58,-0.21 z"
     id="path4"
     inkscape:connector-curvature="0"
     style="opacity:0.8;fill:#bde6fb;fill-opacity:1" />
</svg>
