<?xml version="1.0" encoding="UTF-8" standalone="no"?>
<svg
   width="47.542679"
   height="47.546455"
   viewBox="0 0 12.579 12.58"
   version="1.1"
   id="svg4"
   sodipodi:docname="aircrack-ng.svg"
   inkscape:version="0.92.5 (2060ec1f9f, 2020-04-08)"
   xmlns:inkscape="http://www.inkscape.org/namespaces/inkscape"
   xmlns:sodipodi="http://sodipodi.sourceforge.net/DTD/sodipodi-0.dtd"
   xmlns="http://www.w3.org/2000/svg"
   xmlns:svg="http://www.w3.org/2000/svg"
   xmlns:rdf="http://www.w3.org/1999/02/22-rdf-syntax-ns#"
   xmlns:cc="http://creativecommons.org/ns#"
   xmlns:dc="http://purl.org/dc/elements/1.1/">
  <metadata
     id="metadata10">
    <rdf:RDF>
      <cc:Work
         rdf:about="">
        <dc:format>image/svg+xml</dc:format>
        <dc:type
           rdf:resource="http://purl.org/dc/dcmitype/StillImage" />
        <dc:title />
      </cc:Work>
    </rdf:RDF>
  </metadata>
  <defs
     id="defs8" />
  <sodipodi:namedview
     pagecolor="#ffffff"
     bordercolor="#666666"
     borderopacity="1"
     objecttolerance="10"
     gridtolerance="10"
     guidetolerance="10"
     inkscape:pageopacity="0"
     inkscape:pageshadow="2"
     inkscape:window-width="1085"
     inkscape:window-height="480"
     id="namedview6"
     showgrid="false"
     inkscape:zoom="4.9166667"
     inkscape:cx="2.1355932"
     inkscape:cy="24"
     inkscape:window-x="0"
     inkscape:window-y="25"
     inkscape:window-maximized="0"
     inkscape:current-layer="svg4"
     inkscape:showpageshadow="0"
     inkscape:pagecheckerboard="0"
     inkscape:deskcolor="#d1d1d1" />
  <path
     d="M 6.285,0 A 6.295,6.295 0 0 0 0,6.285 6.295,6.295 0 0 0 6.285,12.58 6.295,6.295 0 0 0 12.579,6.285 6.295,6.295 0 0 0 6.285,0 Z M 6.274,0.94 a 5.408,5.408 0 0 1 5.397,5.387 5.407,5.407 0 0 1 -10.814,0 C 0.857,3.34 3.287,0.94 6.274,0.94 Z m 0.148,1.412 c -0.968,0 -1.852,0.547 -2.284,1.412 l 0.457,0.229 a 2.044,2.044 0 0 1 1.827,-1.13 c 0.773,0 1.48,0.437 1.827,1.13 L 8.704,3.765 A 2.554,2.554 0 0 0 6.422,2.352 Z m 0,1.021 c -0.58,0 -1.111,0.329 -1.37,0.848 L 5.508,4.45 a 1.022,1.022 0 0 1 1.827,0 L 7.791,4.221 A 1.532,1.532 0 0 0 6.421,3.373 Z m -0.004,1.01 c -0.268,0 -0.436,0.172 -0.436,0.44 0,0.268 0.168,0.436 0.436,0.436 0.268,0 0.44,-0.168 0.44,-0.436 0,-0.268 -0.172,-0.44 -0.44,-0.44 z M 3.296,4.6 1.878,8.475 H 2.643 L 2.961,7.504 H 4.447 L 4.765,8.475 H 5.563 L 4.218,4.6 H 3.295 Z m 4.35,0 v 3.875 h 0.72 V 7.029 H 9.02 l 0.827,1.446 h 0.865 L 9.74,6.879 C 10.187,6.666 10.466,6.253 10.466,5.729 10.466,5.013 9.942,4.6 9.093,4.6 H 7.645 Z M 3.709,5.22 4.239,6.862 H 3.174 L 3.71,5.22 Z m 4.658,0.005 h 0.63 c 0.453,0 0.721,0.23 0.721,0.615 0,0.363 -0.223,0.58 -0.625,0.58 H 8.367 Z M 6.06,5.761 V 8.475 H 6.77 V 5.761 Z"
     id="path2"
     inkscape:connector-curvature="0"
     style="fill:#bde6fb;fill-opacity:1" />
</svg>
