<?xml version="1.0" encoding="UTF-8" standalone="no"?>
<svg
   width="47.546486"
   height="47.546455"
   viewBox="0 0 12.580008 12.58"
   version="1.1"
   id="svg12"
   sodipodi:docname="akonaditray.svg"
   inkscape:version="0.92.4 (5da689c313, 2019-01-14)"
   xmlns:inkscape="http://www.inkscape.org/namespaces/inkscape"
   xmlns:sodipodi="http://sodipodi.sourceforge.net/DTD/sodipodi-0.dtd"
   xmlns="http://www.w3.org/2000/svg"
   xmlns:svg="http://www.w3.org/2000/svg"
   xmlns:rdf="http://www.w3.org/1999/02/22-rdf-syntax-ns#"
   xmlns:cc="http://creativecommons.org/ns#"
   xmlns:dc="http://purl.org/dc/elements/1.1/">
  <defs
     id="defs16" />
  <sodipodi:namedview
     pagecolor="#ffffff"
     bordercolor="#666666"
     borderopacity="1"
     objecttolerance="10"
     gridtolerance="10"
     guidetolerance="10"
     inkscape:pageopacity="0"
     inkscape:pageshadow="2"
     inkscape:window-width="1087"
     inkscape:window-height="480"
     id="namedview14"
     showgrid="false"
     inkscape:zoom="4.9166667"
     inkscape:cx="2.1355932"
     inkscape:cy="24"
     inkscape:window-x="0"
     inkscape:window-y="25"
     inkscape:window-maximized="0"
     inkscape:current-layer="svg12"
     inkscape:showpageshadow="0"
     inkscape:pagecheckerboard="0"
     inkscape:deskcolor="#d1d1d1" />
  <metadata
     id="metadata2">
    <rdf:RDF>
      <cc:Work>
        <dc:format>image/svg+xml</dc:format>
        <dc:type
           rdf:resource="http://purl.org/dc/dcmitype/StillImage" />
        <dc:title />
      </cc:Work>
    </rdf:RDF>
  </metadata>
  <path
     d="M 6.2900079,0 A 6.29,6.29 0 0 0 7.9473853e-6,6.3 6.29,6.29 0 0 0 6.2900079,12.58 6.29,6.29 0 0 0 12.580008,6.29 6.29,6.29 0 0 0 6.2900079,0 Z m -0.02,0.94 A 5.4,5.4 0 0 1 11.670008,6.34 5.4,5.4 0 0 1 6.2700079,11.75 5.4,5.4 0 0 1 0.87000795,6.35 5.4,5.4 0 0 1 6.2700079,0.94 Z"
     id="path4"
     inkscape:connector-curvature="0"
     style="fill:#bde6fb;fill-opacity:1" />
  <path
     style="color:#000000;overflow:visible;opacity:0.5;fill:#aaccff;marker:none"
     d="m 6.2900079,1.68 a 4.61,4.61 0 0 0 -0.33,0 4.61,4.61 0 0 0 -0.45,0.06 4.61,4.61 0 0 0 -0.45,0.1 4.61,4.61 0 0 0 -0.44,0.15 4.61,4.61 0 0 0 -0.42,0.19 4.61,4.61 0 0 0 -0.4,0.23 4.61,4.61 0 0 0 -0.38,0.27 4.61,4.61 0 0 0 -0.34,0.3 4.61,4.61 0 0 0 -0.32,0.34 4.61,4.61 0 0 0 -0.28,0.36 4.61,4.61 0 0 0 -0.24,0.4 4.61,4.61 0 0 0 -0.2,0.41 4.61,4.61 0 0 0 -0.16,0.44 4.61,4.61 0 0 0 -0.11,0.44 4.61,4.61 0 0 0 -0.07,0.46 4.61,4.61 0 0 0 -0.02,0.46 4.61,4.61 0 0 0 0,0.32 4.61,4.61 0 0 0 0.06,0.46 4.61,4.61 0 0 0 0.1,0.45 4.61,4.61 0 0 0 0.15,0.44 4.61,4.61 0 0 0 0.19,0.42 4.61,4.61 0 0 0 0.23,0.4 4.61,4.61 0 0 0 0.27,0.38 4.61,4.61 0 0 0 0.3,0.34 4.61,4.61 0 0 0 0.34,0.32 4.61,4.61 0 0 0 0.36,0.28 4.61,4.61 0 0 0 0.4,0.24 4.61,4.61 0 0 0 0.41,0.2 4.61,4.61 0 0 0 0.44,0.16 4.61,4.61 0 0 0 0.44,0.11 4.61,4.61 0 0 0 0.46,0.07 4.61,4.61 0 0 0 0.46,0.02 4.61,4.61 0 0 0 0.33,0 4.61,4.61 0 0 0 0.45,-0.06 4.61,4.61 0 0 0 0.45,-0.1 4.61,4.61 0 0 0 0.44,-0.15 4.61,4.61 0 0 0 0.42,-0.19 4.61,4.61 0 0 0 0.4,-0.23 4.61,4.61 0 0 0 0.38,-0.27 4.61,4.61 0 0 0 0.34,-0.3 4.61,4.61 0 0 0 0.32,-0.34 4.61,4.61 0 0 0 0.2800001,-0.37 4.61,4.61 0 0 0 0.24,-0.39 4.61,4.61 0 0 0 0.2,-0.41 4.61,4.61 0 0 0 0.16,-0.44 4.61,4.61 0 0 0 0.11,-0.44 4.61,4.61 0 0 0 0.07,-0.46 4.61,4.61 0 0 0 0.02,-0.46 4.61,4.61 0 0 0 0,-0.33 4.61,4.61 0 0 0 -0.06,-0.46 4.61,4.61 0 0 0 -0.1,-0.45 4.61,4.61 0 0 0 -0.15,-0.43 4.61,4.61 0 0 0 -0.19,-0.42 4.61,4.61 0 0 0 -0.23,-0.4 4.61,4.61 0 0 0 -0.2700001,-0.38 4.61,4.61 0 0 0 -0.3,-0.35 4.61,4.61 0 0 0 -0.34,-0.31 4.61,4.61 0 0 0 -0.37,-0.28 4.61,4.61 0 0 0 -0.39,-0.24 4.61,4.61 0 0 0 -0.41,-0.2 4.61,4.61 0 0 0 -0.44,-0.16 4.61,4.61 0 0 0 -0.44,-0.11 4.61,4.61 0 0 0 -0.46,-0.07 4.61,4.61 0 0 0 -0.46,-0.02 z"
     overflow="visible"
     id="path6"
     inkscape:connector-curvature="0" />
  <path
     style="color:#000000;overflow:visible;opacity:0.5;fill:#5599ff;marker:none"
     d="m 4.1200079,2.23 a 4.61,4.61 0 0 0 -0.32,0.18 4.61,4.61 0 0 0 -0.38,0.27 4.61,4.61 0 0 0 -0.34,0.3 4.61,4.61 0 0 0 -0.32,0.34 4.61,4.61 0 0 0 -0.28,0.37 4.61,4.61 0 0 0 -0.24,0.39 4.61,4.61 0 0 0 -0.2,0.41 4.61,4.61 0 0 0 -0.16,0.44 4.61,4.61 0 0 0 -0.11,0.44 4.61,4.61 0 0 0 -0.07,0.46 4.61,4.61 0 0 0 -0.02,0.46 4.61,4.61 0 0 0 0,0.33 4.61,4.61 0 0 0 0.06,0.45 4.61,4.61 0 0 0 0.1,0.45 4.61,4.61 0 0 0 0.15,0.44 4.61,4.61 0 0 0 0.19,0.42 4.61,4.61 0 0 0 0.23,0.4 4.61,4.61 0 0 0 0.27,0.38 4.61,4.61 0 0 0 0.3,0.34 4.61,4.61 0 0 0 0.34,0.32 4.61,4.61 0 0 0 0.36,0.28 4.61,4.61 0 0 0 0.4,0.24 4.61,4.61 0 0 0 0.41,0.2 4.61,4.61 0 0 0 0.44,0.16 4.61,4.61 0 0 0 0.44,0.11 4.61,4.61 0 0 0 0.46,0.07 4.61,4.61 0 0 0 0.46,0.02 4.61,4.61 0 0 0 0.33,0 4.61,4.61 0 0 0 0.45,-0.06 4.61,4.61 0 0 0 0.45,-0.1 4.61,4.61 0 0 0 0.44,-0.15 4.61,4.61 0 0 0 0.42,-0.19 4.61,4.61 0 0 0 0.4,-0.23 4.61,4.61 0 0 0 0.38,-0.27 4.61,4.61 0 0 0 0.34,-0.3 4.61,4.61 0 0 0 0.32,-0.34 4.61,4.61 0 0 0 0.2800001,-0.37 4.61,4.61 0 0 0 0.24,-0.39 4.61,4.61 0 0 0 0.2,-0.41 4.61,4.61 0 0 0 0.15,-0.43 6.85,6.85 0 0 1 -6.5700001,-5.42 z"
     overflow="visible"
     id="path8"
     inkscape:connector-curvature="0" />
  <path
     style="color:#000000;overflow:visible;opacity:0.5;fill:#0066ff;marker:none"
     d="m 1.7200079,5.7 a 4.61,4.61 0 0 0 -0.02,0.13 4.61,4.61 0 0 0 -0.02,0.46 4.61,4.61 0 0 0 0,0.33 4.61,4.61 0 0 0 0.06,0.45 4.61,4.61 0 0 0 0.1,0.45 4.61,4.61 0 0 0 0.15,0.44 4.61,4.61 0 0 0 0.19,0.42 4.61,4.61 0 0 0 0.23,0.4 4.61,4.61 0 0 0 0.27,0.38 4.61,4.61 0 0 0 0.3,0.34 4.61,4.61 0 0 0 0.34,0.32 4.61,4.61 0 0 0 0.36,0.28 4.61,4.61 0 0 0 0.4,0.24 4.61,4.61 0 0 0 0.41,0.2 4.61,4.61 0 0 0 0.44,0.16 4.61,4.61 0 0 0 0.44,0.11 4.61,4.61 0 0 0 0.46,0.07 4.61,4.61 0 0 0 0.46,0.02 4.61,4.61 0 0 0 0.33,0 4.61,4.61 0 0 0 0.45,-0.06 4.61,4.61 0 0 0 0.45,-0.1 4.61,4.61 0 0 0 0.44,-0.15 4.61,4.61 0 0 0 0.42,-0.19 4.61,4.61 0 0 0 0.4,-0.23 4.61,4.61 0 0 0 0.38,-0.27 4.61,4.61 0 0 0 0.34,-0.3 4.61,4.61 0 0 0 0.32,-0.34 4.61,4.61 0 0 0 0.2800001,-0.36 4.61,4.61 0 0 0 0.24,-0.4 4.61,4.61 0 0 0 0.2,-0.41 4.61,4.61 0 0 0 0.16,-0.44 4.61,4.61 0 0 0 0.11,-0.44 4.61,4.61 0 0 0 0.07,-0.46 4.61,4.61 0 0 0 0.02,-0.46 4.61,4.61 0 0 0 0,-0.33 4.61,4.61 0 0 0 -0.01,-0.05 C 9.7500079,6.28 8.2600079,6.52 6.5900079,6.52 c -1.96,0 -3.7,-0.32 -4.87,-0.82 z"
     overflow="visible"
     id="path10"
     inkscape:connector-curvature="0" />
</svg>
