<?xml version="1.0" encoding="UTF-8" standalone="no"?>
<svg
   width="47.538898"
   height="47.542679"
   viewBox="0 0 12.578 12.579"
   version="1.1"
   id="svg4"
   sodipodi:docname="alienarena.svg"
   inkscape:version="0.92.4 (5da689c313, 2019-01-14)"
   xmlns:inkscape="http://www.inkscape.org/namespaces/inkscape"
   xmlns:sodipodi="http://sodipodi.sourceforge.net/DTD/sodipodi-0.dtd"
   xmlns="http://www.w3.org/2000/svg"
   xmlns:svg="http://www.w3.org/2000/svg"
   xmlns:rdf="http://www.w3.org/1999/02/22-rdf-syntax-ns#"
   xmlns:cc="http://creativecommons.org/ns#"
   xmlns:dc="http://purl.org/dc/elements/1.1/">
  <metadata
     id="metadata10">
    <rdf:RDF>
      <cc:Work
         rdf:about="">
        <dc:format>image/svg+xml</dc:format>
        <dc:type
           rdf:resource="http://purl.org/dc/dcmitype/StillImage" />
        <dc:title />
      </cc:Work>
    </rdf:RDF>
  </metadata>
  <defs
     id="defs8" />
  <sodipodi:namedview
     pagecolor="#ffffff"
     bordercolor="#666666"
     borderopacity="1"
     objecttolerance="10"
     gridtolerance="10"
     guidetolerance="10"
     inkscape:pageopacity="0"
     inkscape:pageshadow="2"
     inkscape:window-width="1087"
     inkscape:window-height="480"
     id="namedview6"
     showgrid="false"
     inkscape:zoom="4.9166667"
     inkscape:cx="2.1355932"
     inkscape:cy="24"
     inkscape:window-x="0"
     inkscape:window-y="25"
     inkscape:window-maximized="0"
     inkscape:current-layer="svg4"
     inkscape:showpageshadow="0"
     inkscape:pagecheckerboard="0"
     inkscape:deskcolor="#d1d1d1" />
  <path
     d="M 6.289,0.001 A 6.29,6.29 0 0 0 0,6.291 6.29,6.29 0 0 0 6.29,12.579 6.29,6.29 0 0 0 12.578,6.291 6.29,6.29 0 0 0 6.29,0 Z M 6.271,0.937 A 5.407,5.407 0 0 1 11.678,6.344 5.407,5.407 0 0 1 6.271,11.751 5.407,5.407 0 0 1 0.864,6.344 5.407,5.407 0 0 1 6.271,0.937 Z M 6.265,1.693 c -2.104,0 -3.81,1.235 -3.81,3.685 0,2.45 2.023,5.84 3.81,5.84 1.682,0 3.81,-3.39 3.81,-5.84 0,-2.45 -1.706,-3.685 -3.81,-3.685 z M 8.61,6.456 C 8.768,6.451 8.926,6.464 9.081,6.497 A 1.935,1.935 0 0 1 6.784,8.794 1.935,1.935 0 0 1 8.609,6.456 Z M 3.92,6.489 C 4.393,6.506 4.861,6.692 5.222,7.048 5.703,7.522 5.878,8.184 5.747,8.795 5.127,8.925 4.457,8.751 3.975,8.277 A 1.89,1.89 0 0 1 3.449,6.53 C 3.604,6.497 3.762,6.484 3.919,6.49 Z"
     id="path2"
     inkscape:connector-curvature="0"
     style="fill:#bde6fb;fill-opacity:1" />
</svg>
