<?xml version="1.0" encoding="UTF-8" standalone="no"?>
<svg
   width="47.546486"
   height="47.546486"
   viewBox="0 0 12.580008 12.580008"
   version="1.1"
   id="svg6"
   sodipodi:docname="amarok.svg"
   inkscape:version="0.92.4 (5da689c313, 2019-01-14)"
   xmlns:inkscape="http://www.inkscape.org/namespaces/inkscape"
   xmlns:sodipodi="http://sodipodi.sourceforge.net/DTD/sodipodi-0.dtd"
   xmlns="http://www.w3.org/2000/svg"
   xmlns:svg="http://www.w3.org/2000/svg"
   xmlns:rdf="http://www.w3.org/1999/02/22-rdf-syntax-ns#"
   xmlns:cc="http://creativecommons.org/ns#"
   xmlns:dc="http://purl.org/dc/elements/1.1/">
  <defs
     id="defs10" />
  <sodipodi:namedview
     pagecolor="#ffffff"
     bordercolor="#666666"
     borderopacity="1"
     objecttolerance="10"
     gridtolerance="10"
     guidetolerance="10"
     inkscape:pageopacity="0"
     inkscape:pageshadow="2"
     inkscape:window-width="1087"
     inkscape:window-height="480"
     id="namedview8"
     showgrid="false"
     inkscape:zoom="4.9166667"
     inkscape:cx="2.1355932"
     inkscape:cy="24"
     inkscape:window-x="0"
     inkscape:window-y="25"
     inkscape:window-maximized="0"
     inkscape:current-layer="svg6"
     inkscape:showpageshadow="0"
     inkscape:pagecheckerboard="0"
     inkscape:deskcolor="#d1d1d1" />
  <metadata
     id="metadata2">
    <rdf:RDF>
      <cc:Work>
        <dc:format>image/svg+xml</dc:format>
        <dc:type
           rdf:resource="http://purl.org/dc/dcmitype/StillImage" />
        <dc:title />
      </cc:Work>
    </rdf:RDF>
  </metadata>
  <path
     d="M 6.2900079,0 A 6.29,6.29 0 0 0 7.9490244e-6,6.3 6.29,6.29 0 0 0 6.3000079,12.58 6.29,6.29 0 0 0 12.580008,6.29 6.29,6.29 0 0 0 6.2900079,0 Z m -0.01,0.94 A 5.4,5.4 0 0 1 11.680008,6.34 5.4,5.4 0 0 1 6.2800079,11.75 5.4,5.4 0 0 1 0.87000795,6.35 5.4,5.4 0 0 1 6.2700079,0.93 Z m 0.02,0.32 a 5.03,5.03 0 0 0 -4.37,7.5 c 0.54,-0.3 0.76,-0.81 0.64,-0.83 -0.07,-0.3 -0.6,-0.76 -0.74,-1.5 0.22,-0.07 0.81,-0.06 0.92,-0.11 0.13,-0.07 0.53,-0.55 0.65,-0.56 0.12,-0.01 0.38,-0.07 0.58,-0.16 0.2,-0.1 0.99,-0.91 1.16,-1.01 0.17,-0.1 0.68,-0.1 0.85,-0.08 0.16,0.01 0.31,-0.06 0.42,-0.2 0.11,-0.15 1.29,-0.99 1.43,-1.06 0.15,-0.08 0.55,-0.55 0.76,-0.55 0.06,0 0.17,0.21 0.33,0.42 0.16,0.21 0.13,0.4 0.04,0.56 -0.38,0.34 -0.59,1 -0.7,1.54 0.4,-0.19 0.92,0.06 1.32,-0.27 0.09,0.04 0.08,0.4 0.08,0.51 0,0.12 -0.08,0.23 -0.39,0.34 -0.33,0.12 -1.11,0.62 -1.44,1.11 -0.32,0.5 -0.4,2.37 -0.43,2.6 l -0.04,0.67 c -0.04,0.28 0.3,0.64 0.45,0.89 a 5.03,5.03 0 0 0 -1.52,-9.81 z m -0.29,3.76 a 0.7,0.7 0 0 0 -0.36,0.1 c -0.29,0.28 -0.48,0.56 -0.7,1 0.48,-0.25 1.62,-0.5 1.23,-1.08 a 1.24,1.24 0 0 0 -0.17,-0.02 z"
     id="path4"
     inkscape:connector-curvature="0"
     style="fill:#bde6fb;fill-opacity:1" />
</svg>
