<?xml version="1.0" encoding="UTF-8" standalone="no"?>
<svg
   width="47.546455"
   height="47.542679"
   viewBox="0 0 12.58 12.579"
   version="1.1"
   id="svg4"
   sodipodi:docname="amule.svg"
   inkscape:version="0.92.4 (5da689c313, 2019-01-14)"
   xmlns:inkscape="http://www.inkscape.org/namespaces/inkscape"
   xmlns:sodipodi="http://sodipodi.sourceforge.net/DTD/sodipodi-0.dtd"
   xmlns="http://www.w3.org/2000/svg"
   xmlns:svg="http://www.w3.org/2000/svg"
   xmlns:rdf="http://www.w3.org/1999/02/22-rdf-syntax-ns#"
   xmlns:cc="http://creativecommons.org/ns#"
   xmlns:dc="http://purl.org/dc/elements/1.1/">
  <metadata
     id="metadata10">
    <rdf:RDF>
      <cc:Work
         rdf:about="">
        <dc:format>image/svg+xml</dc:format>
        <dc:type
           rdf:resource="http://purl.org/dc/dcmitype/StillImage" />
        <dc:title />
      </cc:Work>
    </rdf:RDF>
  </metadata>
  <defs
     id="defs8" />
  <sodipodi:namedview
     pagecolor="#ffffff"
     bordercolor="#666666"
     borderopacity="1"
     objecttolerance="10"
     gridtolerance="10"
     guidetolerance="10"
     inkscape:pageopacity="0"
     inkscape:pageshadow="2"
     inkscape:window-width="1087"
     inkscape:window-height="480"
     id="namedview6"
     showgrid="false"
     inkscape:zoom="4.9166667"
     inkscape:cx="2.1355932"
     inkscape:cy="24"
     inkscape:window-x="0"
     inkscape:window-y="25"
     inkscape:window-maximized="0"
     inkscape:current-layer="svg4"
     inkscape:showpageshadow="0"
     inkscape:pagecheckerboard="0"
     inkscape:deskcolor="#d1d1d1" />
  <path
     d="M 6.29,9.9999565e-4 A 6.29,6.29 0 0 0 0,6.291 6.29,6.29 0 0 0 6.29,12.579 6.29,6.29 0 0 0 12.58,6.29 6.29,6.29 0 0 0 6.29,0 Z M 6.272,0.937 A 5.407,5.407 0 0 1 11.679,6.344 5.407,5.407 0 0 1 6.272,11.751 5.407,5.407 0 0 1 0.866,6.344 5.407,5.407 0 0 1 6.272,0.938 Z M 8.62,1.747 C 8.529,1.732 8.35,1.909 8.205,2.071 7.875,2.438 7.558,2.846 7.199,3.366 6.959,3.714 6.871,3.821 6.797,4.206 A 2.604,2.604 0 0 0 6.59,4.164 V 4.165 A 2.144,2.144 0 0 0 5.678,4.309 C 5.246,3.641 4.618,2.993 3.858,2.401 3.775,2.337 3.713,2.306 3.668,2.303 H 3.666 C 3.346,2.279 3.842,3.571 3.994,3.903 4.122,4.182 4.446,4.68 4.731,5.096 4.667,5.236 4.618,5.393 4.592,5.569 4.498,6.223 4.627,6.758 4.472,7.414 4.264,8.304 3.518,8.751 3.697,9.609 c 0.003,0.02 0.002,0.038 0.006,0.06 0.037,0.18 0.133,0.377 0.276,0.6 A 0.731,0.731 0 0 0 4.06,10.37 c 0.118,0.132 0.285,0.236 0.483,0.316 a 2.948,2.948 0 0 0 0.598,0.17 h 0.047 c 0.547,0.1 1.132,0.122 1.472,0.152 0.08,0.008 0.163,0.01 0.245,0.01 0.255,-0.005 0.513,-0.05 0.755,-0.13 h 10e-4 l 0.035,-0.014 a 2.47,2.47 0 0 0 0.27,-0.11 1.94,1.94 0 0 0 0.696,-0.546 C 8.81,10.025 8.908,9.802 8.934,9.555 A 1.51,1.51 0 0 0 8.794,8.724 C 8.352,7.752 7.891,6.572 8.031,5.379 A 0.921,0.921 0 0 0 7.924,4.901 1.058,1.058 0 0 0 7.774,4.711 C 8.147,3.971 8.407,3.017 8.618,2.226 8.708,1.885 8.691,1.758 8.62,1.746 Z M 5.444,5.593 c 0.1,0 0.206,0.041 0.315,0.135 0.173,0.148 0.42,0.571 0.418,0.8 C 6.172,7.117 5.807,7.279 5.369,7.41 4.932,7.541 4.883,6.614 4.9,6.282 4.918,5.948 5.147,5.592 5.444,5.593 Z m 1.791,0.273 a 0.549,0.549 0 0 1 0.14,0.003 c 0.15,0.022 0.32,0.09 0.39,0.164 0.15,0.156 0.19,0.472 0.208,0.64 0.006,0.048 0.006,0.106 0.005,0.167 A 0.263,0.263 0 0 0 7.762,6.645 0.263,0.263 0 0 0 7.464,6.868 0.263,0.263 0 0 0 7.687,7.165 0.263,0.263 0 0 0 7.969,7 C 7.959,7.113 7.945,7.236 7.924,7.371 7.88,7.661 7.051,7.387 6.892,7.237 6.732,7.087 6.655,6.969 6.695,6.697 6.725,6.487 7.072,5.884 7.235,5.866 Z M 5.628,5.888 A 0.263,0.263 0 0 0 5.376,6.113 0.263,0.263 0 0 0 5.598,6.411 0.263,0.263 0 0 0 5.896,6.189 0.263,0.263 0 0 0 5.673,5.891 0.263,0.263 0 0 0 5.628,5.888 Z M 8.054,7.893 C 8.264,8.003 8.378,8.191 8.325,8.558 8.277,8.893 7.689,9.311 7.47,9.748 A 3.04,3.04 0 0 1 7.5,9.356 C 7.557,8.956 7.808,8.274 8.054,7.893 Z M 4.625,8.054 C 4.875,8.498 5.061,8.901 5.218,9.357 5.292,9.574 5.296,9.804 5.271,10.041 5.297,9.481 4.307,9.229 4.42,8.452 A 0.68,0.68 0 0 1 4.625,8.054 Z"
     id="path2"
     inkscape:connector-curvature="0"
     style="fill:#bde6fb;fill-opacity:1" />
</svg>
