<?xml version="1.0" encoding="UTF-8" standalone="no"?>
<svg
   width="47.546486"
   height="47.546486"
   viewBox="0 0 12.580008 12.580008"
   version="1.1"
   id="svg4"
   sodipodi:docname="anatine.svg"
   inkscape:version="0.92.4 (5da689c313, 2019-01-14)"
   xmlns:inkscape="http://www.inkscape.org/namespaces/inkscape"
   xmlns:sodipodi="http://sodipodi.sourceforge.net/DTD/sodipodi-0.dtd"
   xmlns="http://www.w3.org/2000/svg"
   xmlns:svg="http://www.w3.org/2000/svg"
   xmlns:rdf="http://www.w3.org/1999/02/22-rdf-syntax-ns#"
   xmlns:cc="http://creativecommons.org/ns#"
   xmlns:dc="http://purl.org/dc/elements/1.1/">
  <metadata
     id="metadata10">
    <rdf:RDF>
      <cc:Work
         rdf:about="">
        <dc:format>image/svg+xml</dc:format>
        <dc:type
           rdf:resource="http://purl.org/dc/dcmitype/StillImage" />
        <dc:title />
      </cc:Work>
    </rdf:RDF>
  </metadata>
  <defs
     id="defs8" />
  <sodipodi:namedview
     pagecolor="#ffffff"
     bordercolor="#666666"
     borderopacity="1"
     objecttolerance="10"
     gridtolerance="10"
     guidetolerance="10"
     inkscape:pageopacity="0"
     inkscape:pageshadow="2"
     inkscape:window-width="861"
     inkscape:window-height="480"
     id="namedview6"
     showgrid="false"
     inkscape:zoom="4.9166667"
     inkscape:cx="2.1355932"
     inkscape:cy="24"
     inkscape:window-x="0"
     inkscape:window-y="25"
     inkscape:window-maximized="0"
     inkscape:current-layer="svg4"
     inkscape:showpageshadow="0"
     inkscape:pagecheckerboard="0"
     inkscape:deskcolor="#d1d1d1" />
  <path
     d="M 6.2900079,0 A 6.29,6.29 0 0 0 7.9490244e-6,6.3 6.29,6.29 0 0 0 6.3000079,12.58 6.29,6.29 0 0 0 12.580008,6.29 6.29,6.29 0 0 0 6.2900079,0 Z m -0.02,0.93 0.01,0.01 A 5.4,5.4 0 0 1 11.680008,6.34 5.4,5.4 0 0 1 6.2800079,11.75 5.4,5.4 0 0 1 0.87000795,6.35 5.4,5.4 0 0 1 6.2700079,0.93 Z m -0.36,1.457 c -0.361,-0.015 -0.742,0.056 -1.011,0.19 -0.234,0.116 -0.443,0.34 -0.64,0.689 a 0.863,0.863 0 0 1 -0.131,0.188 0.62,0.62 0 0 1 -0.178,0.046 5.228,5.228 0 0 1 -0.826,-0.122 c 0,0 -0.177,-0.046 -0.197,0.146 0.01,0.357 0.287,0.607 0.567,0.846 -0.192,0.07 -0.252,0.218 -0.427,0.354 -0.033,0.063 0.005,0.123 0.113,0.175 0.14,0.068 0.284,0.085 0.577,0.071 0.3,-0.014 0.34,0.03 0.437,0.11 0.102,0.086 0.142,0.166 0.15,0.352 a 0.928,0.928 0 0 1 -0.109,0.538 2.245,2.245 0 0 1 -0.376,0.52 c -0.345,0.379 -0.59,0.781 -0.697,1.147 -0.108,0.368 -0.039,0.865 0.182,1.307 0.105,0.209 0.23,0.38 0.415,0.567 0.458,0.463 1.078,0.717 1.967,0.808 0.039,0.005 0.295,0.005 0.57,0.003 0.53,-0.006 0.685,-0.021 1.068,-0.107 1.417,-0.32 2.346,-1.3 2.61,-2.754 a 4.72,4.72 0 0 0 0.018,-1.061 c -0.05,-0.342 -0.12,-0.482 -0.248,-0.678 -0.091,-0.139 -0.177,-0.218 -0.297,-0.218 -0.122,0 -0.2,0.076 -0.333,0.253 -0.154,0.208 -0.36,0.364 -0.504,0.438 -0.226,0.115 -0.399,0.095 -0.807,-0.095 a 3.096,3.096 0 0 0 -1.16,-0.313 c -0.118,-0.01 -0.294,0 -0.314,0 0.043,-0.026 0.5,-0.33 0.663,-0.476 0.208,-0.219 0.33,-0.449 0.41,-0.776 a 2.736,2.736 0 0 0 0,-1.039 c 0,-0.026 0.066,-0.056 0.155,-0.069 0.107,-0.015 0.118,-0.057 0.028,-0.11 l -0.065,-0.04 0.065,-0.052 c 0.07,-0.056 0.115,-0.13 0.115,-0.188 0,-0.043 -0.003,-0.043 -0.142,-0.007 -0.197,0.05 -0.334,0.002 -0.542,-0.192 a 1.672,1.672 0 0 0 -1.106,-0.45 z"
     id="path2"
     inkscape:connector-curvature="0"
     style="fill:#bde6fb;fill-opacity:1" />
</svg>
