<?xml version="1.0" encoding="UTF-8" standalone="no"?>
<svg
   width="47.546486"
   height="47.546455"
   viewBox="0 0 12.580008 12.58"
   version="1.1"
   id="svg4"
   sodipodi:docname="androidstudio.svg"
   inkscape:version="0.92.4 (5da689c313, 2019-01-14)"
   xmlns:inkscape="http://www.inkscape.org/namespaces/inkscape"
   xmlns:sodipodi="http://sodipodi.sourceforge.net/DTD/sodipodi-0.dtd"
   xmlns="http://www.w3.org/2000/svg"
   xmlns:svg="http://www.w3.org/2000/svg"
   xmlns:rdf="http://www.w3.org/1999/02/22-rdf-syntax-ns#"
   xmlns:cc="http://creativecommons.org/ns#"
   xmlns:dc="http://purl.org/dc/elements/1.1/">
  <metadata
     id="metadata10">
    <rdf:RDF>
      <cc:Work
         rdf:about="">
        <dc:format>image/svg+xml</dc:format>
        <dc:type
           rdf:resource="http://purl.org/dc/dcmitype/StillImage" />
        <dc:title />
      </cc:Work>
    </rdf:RDF>
  </metadata>
  <defs
     id="defs8" />
  <sodipodi:namedview
     pagecolor="#ffffff"
     bordercolor="#666666"
     borderopacity="1"
     objecttolerance="10"
     gridtolerance="10"
     guidetolerance="10"
     inkscape:pageopacity="0"
     inkscape:pageshadow="2"
     inkscape:window-width="1087"
     inkscape:window-height="480"
     id="namedview6"
     showgrid="false"
     inkscape:zoom="4.9166667"
     inkscape:cx="2.1355932"
     inkscape:cy="24"
     inkscape:window-x="0"
     inkscape:window-y="25"
     inkscape:window-maximized="0"
     inkscape:current-layer="svg4"
     inkscape:showpageshadow="0"
     inkscape:pagecheckerboard="0"
     inkscape:deskcolor="#d1d1d1" />
  <path
     d="M 6.2900079,0 A 6.29,6.29 0 0 0 7.9490244e-6,6.3 6.29,6.29 0 0 0 1.9300079,10.82 l 0.43,-0.75 A 5.4,5.4 0 0 1 0.87000795,6.35 5.4,5.4 0 0 1 6.2700079,0.93 l 0.01,0.01 a 5.4,5.4 0 0 1 5.4000001,5.4 5.4,5.4 0 0 1 -1.6900001,3.93 l 0.4400001,0.75 a 6.29,6.29 0 0 0 2.15,-4.73 A 6.29,6.29 0 0 0 6.2900079,0 Z m -0.79,2.58 v 0.95 h -0.35 a 0.6,0.6 0 0 0 -0.6,0.59 v 1.55 h 0.01 c 0,0.05 0.03,0.11 0.1,0.18 l 0.28,0.24 -2.86,4.95 -0.06,1.06 0.89,-0.59 1.56,-2.7 c 0.56,0.28 1.2,0.43 1.87,0.43 0.51,0 1.08,-0.09 1.58,-0.26 l 1.47,2.53 0.8800001,0.6 -0.06,-1.07 L 8.7800079,8.56 A 4.17,4.17 0 0 0 10.600008,5.12 H 9.6400079 c 0,1.27 -0.38,1.57 -0.84,2.1 -0.15,0.18 -0.33,0.34 -0.52,0.48 l -0.92,-1.6 0.28,-0.25 c 0.06,-0.07 0.09,-0.13 0.09,-0.18 V 4.13 a 0.6,0.6 0 0 0 -0.6,-0.6 h -0.35 V 2.59 h -1.28 z m 0.64,1.58 v 0.01 c 0.35,0 0.63,0.28 0.63,0.63 0,0.35 -0.28,0.63 -0.63,0.63 a 0.63,0.63 0 0 1 -0.64,-0.63 c 0,-0.35 0.29,-0.63 0.64,-0.63 z m -0.49,2.58 0.18,0.16 c 0.08,0.08 0.2,0.12 0.3,0.12 a 0.4,0.4 0 0 0 0.3,-0.12 l 0.18,-0.16 0.8,1.38 a 4,4 0 0 1 -1.1,0.17 c -0.49,0 -0.96,-0.13 -1.37,-0.34 l 0.7,-1.21 z m -2.16,4.24 -0.42,0.71 a 6.29,6.29 0 0 0 3.22,0.89 6.29,6.29 0 0 0 3.01,-0.77 l -0.42,-0.74 a 5.4,5.4 0 0 1 -2.61,0.68 5.4,5.4 0 0 1 -2.78,-0.77 z"
     id="path2"
     inkscape:connector-curvature="0"
     style="fill:#bde6fb;fill-opacity:1" />
</svg>
