<?xml version="1.0" encoding="UTF-8" standalone="no"?>
<svg
   width="47.542679"
   height="47.546455"
   viewBox="0 0 12.579 12.58"
   version="1.1"
   id="svg4"
   sodipodi:docname="android-sdk.svg"
   inkscape:version="0.92.5 (2060ec1f9f, 2020-04-08)"
   inkscape:export-filename="android-sdk.png"
   inkscape:export-xdpi="96"
   inkscape:export-ydpi="96"
   xmlns:inkscape="http://www.inkscape.org/namespaces/inkscape"
   xmlns:sodipodi="http://sodipodi.sourceforge.net/DTD/sodipodi-0.dtd"
   xmlns="http://www.w3.org/2000/svg"
   xmlns:svg="http://www.w3.org/2000/svg"
   xmlns:rdf="http://www.w3.org/1999/02/22-rdf-syntax-ns#"
   xmlns:cc="http://creativecommons.org/ns#"
   xmlns:dc="http://purl.org/dc/elements/1.1/">
  <metadata
     id="metadata10">
    <rdf:RDF>
      <cc:Work
         rdf:about="">
        <dc:format>image/svg+xml</dc:format>
        <dc:type
           rdf:resource="http://purl.org/dc/dcmitype/StillImage" />
        <dc:title />
      </cc:Work>
    </rdf:RDF>
  </metadata>
  <defs
     id="defs8" />
  <sodipodi:namedview
     pagecolor="#ffffff"
     bordercolor="#666666"
     borderopacity="1"
     objecttolerance="10"
     gridtolerance="10"
     guidetolerance="10"
     inkscape:pageopacity="0"
     inkscape:pageshadow="2"
     inkscape:window-width="1085"
     inkscape:window-height="480"
     id="namedview6"
     showgrid="false"
     inkscape:zoom="4.9166667"
     inkscape:cx="2.1355932"
     inkscape:cy="24"
     inkscape:window-x="0"
     inkscape:window-y="25"
     inkscape:window-maximized="0"
     inkscape:current-layer="svg4"
     inkscape:showpageshadow="0"
     inkscape:pagecheckerboard="0"
     inkscape:deskcolor="#d1d1d1" />
  <path
     d="M 6.285,0 A 6.295,6.295 0 0 0 0,6.285 6.295,6.295 0 0 0 6.285,12.58 6.295,6.295 0 0 0 12.579,6.285 6.295,6.295 0 0 0 6.285,0 Z M 6.274,0.94 a 5.408,5.408 0 0 1 5.397,5.387 5.407,5.407 0 0 1 -10.814,0 C 0.857,3.34 3.287,0.94 6.274,0.94 Z M 4.695,1.551 A 0.132,0.132 0 0 0 4.611,1.581 0.132,0.132 0 0 0 4.595,1.769 l 0.487,0.58 A 2.381,2.249 0 0 0 3.925,4.146 l 4.751,0.02 A 2.381,2.249 0 0 0 7.519,2.348 L 8.004,1.77 A 0.132,0.132 0 0 0 7.988,1.584 0.132,0.132 0 0 0 7.801,1.6 L 7.276,2.226 A 2.381,2.249 0 0 0 6.3,2.028 2.381,2.249 0 0 0 5.325,2.228 L 4.797,1.6 A 0.132,0.132 0 0 0 4.707,1.553 V 1.552 a 0.132,0.132 0 0 0 -0.013,0 z M 5.506,2.82 A 0.265,0.265 0 0 1 5.772,3.085 0.265,0.265 0 0 1 5.506,3.35 0.265,0.265 0 0 1 5.242,3.085 0.265,0.265 0 0 1 5.506,2.82 Z m 1.588,0 A 0.265,0.265 0 0 1 7.359,3.085 0.265,0.265 0 0 1 7.094,3.35 0.265,0.265 0 0 1 6.829,3.085 0.265,0.265 0 0 1 7.094,2.82 Z M 3.919,4.672 v 3.441 c 0,0.292 0.237,0.528 0.53,0.528 h 0.264 v 1.588 a 0.53,0.53 0 0 0 1.059,0 V 8.64 h 1.057 v 1.588 a 0.53,0.53 0 1 0 1.059,0 V 8.64 H 8.152 A 0.53,0.53 0 0 0 8.682,8.111 V 4.672 Z M 2.861,4.937 a 0.528,0.528 0 0 0 -0.53,0.53 v 2.116 a 0.53,0.53 0 1 0 1.06,0 V 5.465 A 0.528,0.528 0 0 0 2.861,4.936 Z m 6.879,0 a 0.528,0.528 0 0 0 -0.53,0.53 v 2.116 a 0.53,0.53 0 0 0 1.06,0 V 5.465 A 0.528,0.528 0 0 0 9.74,4.936 Z"
     id="path2"
     inkscape:connector-curvature="0"
     style="fill:#bde6fb;fill-opacity:1" />
</svg>
