<?xml version="1.0" encoding="UTF-8" standalone="no"?>
<svg
   width="47.546486"
   height="47.546486"
   viewBox="0 0 12.580008 12.580008"
   version="1.1"
   id="svg11"
   sodipodi:docname="android-file-transfer.svg"
   inkscape:version="0.92.4 (5da689c313, 2019-01-14)"
   xmlns:inkscape="http://www.inkscape.org/namespaces/inkscape"
   xmlns:sodipodi="http://sodipodi.sourceforge.net/DTD/sodipodi-0.dtd"
   xmlns="http://www.w3.org/2000/svg"
   xmlns:svg="http://www.w3.org/2000/svg"
   xmlns:rdf="http://www.w3.org/1999/02/22-rdf-syntax-ns#"
   xmlns:cc="http://creativecommons.org/ns#"
   xmlns:dc="http://purl.org/dc/elements/1.1/">
  <metadata
     id="metadata15">
    <rdf:RDF>
      <cc:Work
         rdf:about="">
        <dc:format>image/svg+xml</dc:format>
        <dc:type
           rdf:resource="http://purl.org/dc/dcmitype/StillImage" />
        <dc:title />
      </cc:Work>
    </rdf:RDF>
  </metadata>
  <sodipodi:namedview
     pagecolor="#ffffff"
     bordercolor="#666666"
     borderopacity="1"
     objecttolerance="10"
     gridtolerance="10"
     guidetolerance="10"
     inkscape:pageopacity="0"
     inkscape:pageshadow="2"
     inkscape:window-width="1087"
     inkscape:window-height="480"
     id="namedview13"
     showgrid="false"
     inkscape:zoom="4.9166667"
     inkscape:cx="2.1355932"
     inkscape:cy="24"
     inkscape:window-x="0"
     inkscape:window-y="25"
     inkscape:window-maximized="0"
     inkscape:current-layer="svg11"
     inkscape:showpageshadow="0"
     inkscape:pagecheckerboard="0"
     inkscape:deskcolor="#d1d1d1" />
  <defs
     id="defs7" />
  <path
     d="M 6.2900079,0 A 6.29,6.29 0 0 0 7.9490244e-6,6.3 6.29,6.29 0 0 0 6.3000079,12.58 6.29,6.29 0 0 0 12.580008,6.29 6.29,6.29 0 0 0 6.2900079,0 Z m -0.01,0.94 a 5.4,5.4 0 0 1 5.4000001,5.4 5.4,5.4 0 0 1 -1.28,3.5 c -0.05,-0.26 -0.08,-0.5 -0.18,-0.81 A 5.18,5.18 0 0 0 9.4800079,7.6 a 3.6,3.6 0 0 0 -1.44,-1.1 l 0.87,-1.5 a 0.26,0.26 0 0 0 -0.1,-0.36 0.26,0.26 0 0 0 -0.36,0.1 l -0.92,1.6 a 4.87,4.87 0 0 0 -2.46,0 l -0.92,-1.61 a 0.2641969,0.2641969 0 1 0 -0.46,0.26 l 0.87,1.5 a 3.5,3.5 0 0 0 -1.44,1.1 4.22,4.22 0 0 0 -0.74,1.43 c -0.1,0.32 -0.14,0.58 -0.18,0.85 a 5.4,5.4 0 0 0 0.37,0.4 A 5.4,5.4 0 0 1 0.87000795,6.34 5.4,5.4 0 0 1 6.2700079,0.93 Z m -1.04,0.72 -2.12,1.59 2.13,1.58 V 4.3 h 2.12 v 0.53 l 2.11,-1.6 -2.11,-1.58 v 0.53 h -2.13 V 1.65 Z m -0.53,6.64 a 0.53,0.53 0 0 1 0.06,0 0.53,0.53 0 0 1 0.05,0.01 0.53,0.53 0 0 1 0.05,0.02 0.53,0.53 0 0 1 0.05,0.01 0.53,0.53 0 0 1 0.05,0.03 0.53,0.53 0 0 1 0.04,0.03 0.53,0.53 0 0 1 0.04,0.03 0.53,0.53 0 0 1 0.04,0.03 0.53,0.53 0 0 1 0.04,0.04 0.53,0.53 0 0 1 0.03,0.05 0.53,0.53 0 0 1 0.02,0.04 0.53,0.53 0 0 1 0.03,0.05 0.53,0.53 0 0 1 0.01,0.05 0.53,0.53 0 0 1 0.01,0.05 0.53,0.53 0 0 1 0.01,0.05 0.53,0.53 0 0 1 0,0.04 0.53,0.53 0 0 1 0,0.05 0.53,0.53 0 0 1 0,0.06 0.53,0.53 0 0 1 -0.02,0.05 0.53,0.53 0 0 1 -0.02,0.05 0.53,0.53 0 0 1 -0.02,0.05 0.53,0.53 0 0 1 -0.03,0.04 0.53,0.53 0 0 1 -0.03,0.04 0.53,0.53 0 0 1 -0.04,0.04 0.53,0.53 0 0 1 -0.04,0.04 0.53,0.53 0 0 1 -0.04,0.03 0.53,0.53 0 0 1 -0.05,0.02 0.53,0.53 0 0 1 -0.05,0.02 0.53,0.53 0 0 1 -0.05,0.02 0.53,0.53 0 0 1 -0.05,0.01 0.53,0.53 0 0 1 -0.05,0 0.53,0.53 0 0 1 -0.04,0.01 0.53,0.53 0 0 1 -0.05,0 0.53,0.53 0 0 1 -0.05,0 0.53,0.53 0 0 1 -0.05,-0.02 0.53,0.53 0 0 1 -0.05,-0.02 0.53,0.53 0 0 1 -0.05,-0.02 0.53,0.53 0 0 1 -0.05,-0.03 0.53,0.53 0 0 1 -0.04,-0.03 0.53,0.53 0 0 1 -0.04,-0.04 0.53,0.53 0 0 1 -0.03,-0.04 0.53,0.53 0 0 1 -0.03,-0.04 0.53,0.53 0 0 1 -0.03,-0.05 0.53,0.53 0 0 1 -0.02,-0.05 0.53,0.53 0 0 1 -0.02,-0.05 0.53,0.53 0 0 1 0,-0.05 0.53,0.53 0 0 1 -0.02,-0.05 0.53,0.53 0 0 1 0,-0.04 0.53,0.53 0 0 1 0,-0.05 0.53,0.53 0 0 1 0.01,-0.05 0.53,0.53 0 0 1 0.02,-0.05 0.53,0.53 0 0 1 0.02,-0.05 0.53,0.53 0 0 1 0.02,-0.05 0.53,0.53 0 0 1 0.03,-0.05 0.53,0.53 0 0 1 0.03,-0.04 0.53,0.53 0 0 1 0.03,-0.04 0.53,0.53 0 0 1 0.04,-0.03 0.53,0.53 0 0 1 0.05,-0.03 0.53,0.53 0 0 1 0.04,-0.03 0.53,0.53 0 0 1 0.05,-0.02 0.53,0.53 0 0 1 0.05,-0.02 0.53,0.53 0 0 1 0.05,-0.01 0.53,0.53 0 0 1 0.06,0 0.53,0.53 0 0 1 0.03,0 z m 3.18,0 a 0.53,0.53 0 0 1 0.05,0 0.53,0.53 0 0 1 0.05,0.01 0.53,0.53 0 0 1 0.05,0.02 0.53,0.53 0 0 1 0.05,0.01 0.53,0.53 0 0 1 0.05,0.03 0.53,0.53 0 0 1 0.05,0.03 0.53,0.53 0 0 1 0.04,0.03 0.53,0.53 0 0 1 0.04,0.03 0.53,0.53 0 0 1 0.03,0.04 0.53,0.53 0 0 1 0.03,0.05 0.53,0.53 0 0 1 0.03,0.04 0.53,0.53 0 0 1 0.02,0.05 0.53,0.53 0 0 1 0.02,0.05 0.53,0.53 0 0 1 0,0.05 0.53,0.53 0 0 1 0.02,0.05 0.53,0.53 0 0 1 0,0.04 0.53,0.53 0 0 1 0,0.05 0.53,0.53 0 0 1 -0.01,0.06 0.53,0.53 0 0 1 -0.02,0.05 0.53,0.53 0 0 1 -0.02,0.05 0.53,0.53 0 0 1 -0.02,0.05 0.53,0.53 0 0 1 -0.03,0.04 0.53,0.53 0 0 1 -0.03,0.04 0.53,0.53 0 0 1 -0.03,0.04 0.53,0.53 0 0 1 -0.04,0.04 0.53,0.53 0 0 1 -0.05,0.03 0.53,0.53 0 0 1 -0.04,0.02 0.53,0.53 0 0 1 -0.05,0.02 0.53,0.53 0 0 1 -0.05,0.02 0.53,0.53 0 0 1 -0.05,0.01 0.53,0.53 0 0 1 -0.06,0 0.53,0.53 0 0 1 -0.03,0.01 0.53,0.53 0 0 1 -0.06,0 0.53,0.53 0 0 1 -0.05,0 0.53,0.53 0 0 1 -0.05,-0.02 0.53,0.53 0 0 1 -0.05,-0.02 0.53,0.53 0 0 1 -0.05,-0.02 0.53,0.53 0 0 1 -0.04,-0.03 0.53,0.53 0 0 1 -0.04,-0.03 0.53,0.53 0 0 1 -0.04,-0.04 0.53,0.53 0 0 1 -0.04,-0.04 0.53,0.53 0 0 1 -0.03,-0.04 0.53,0.53 0 0 1 -0.02,-0.05 0.53,0.53 0 0 1 -0.03,-0.05 0.53,0.53 0 0 1 -0.01,-0.05 0.53,0.53 0 0 1 -0.01,-0.05 0.53,0.53 0 0 1 -0.01,-0.05 0.53,0.53 0 0 1 0,-0.04 0.53,0.53 0 0 1 0,-0.05 0.53,0.53 0 0 1 0,-0.05 0.53,0.53 0 0 1 0.02,-0.05 0.53,0.53 0 0 1 0.02,-0.05 0.53,0.53 0 0 1 0.02,-0.05 0.53,0.53 0 0 1 0.03,-0.05 0.53,0.53 0 0 1 0.03,-0.04 0.53,0.53 0 0 1 0.04,-0.04 0.53,0.53 0 0 1 0.04,-0.03 0.53,0.53 0 0 1 0.04,-0.03 0.53,0.53 0 0 1 0.05,-0.03 0.53,0.53 0 0 1 0.05,-0.02 0.53,0.53 0 0 1 0.05,-0.02 0.53,0.53 0 0 1 0.05,-0.01 0.53,0.53 0 0 1 0.05,0 0.53,0.53 0 0 1 0.04,0 z"
     id="path9"
     inkscape:connector-curvature="0"
     style="fill:#bde6fb;fill-opacity:1" />
</svg>
