<?xml version="1.0" encoding="UTF-8" standalone="no"?>
<svg
   width="47.542679"
   height="47.546455"
   viewBox="0 0 12.579 12.58"
   version="1.1"
   id="svg4"
   sodipodi:docname="apachedirectorystudio.svg"
   inkscape:version="0.92.5 (2060ec1f9f, 2020-04-08)"
   xmlns:inkscape="http://www.inkscape.org/namespaces/inkscape"
   xmlns:sodipodi="http://sodipodi.sourceforge.net/DTD/sodipodi-0.dtd"
   xmlns="http://www.w3.org/2000/svg"
   xmlns:svg="http://www.w3.org/2000/svg"
   xmlns:rdf="http://www.w3.org/1999/02/22-rdf-syntax-ns#"
   xmlns:cc="http://creativecommons.org/ns#"
   xmlns:dc="http://purl.org/dc/elements/1.1/">
  <metadata
     id="metadata10">
    <rdf:RDF>
      <cc:Work
         rdf:about="">
        <dc:format>image/svg+xml</dc:format>
        <dc:type
           rdf:resource="http://purl.org/dc/dcmitype/StillImage" />
        <dc:title />
      </cc:Work>
    </rdf:RDF>
  </metadata>
  <defs
     id="defs8" />
  <sodipodi:namedview
     pagecolor="#ffffff"
     bordercolor="#666666"
     borderopacity="1"
     objecttolerance="10"
     gridtolerance="10"
     guidetolerance="10"
     inkscape:pageopacity="0"
     inkscape:pageshadow="2"
     inkscape:window-width="1085"
     inkscape:window-height="480"
     id="namedview6"
     showgrid="false"
     inkscape:zoom="4.9166667"
     inkscape:cx="2.1355932"
     inkscape:cy="24"
     inkscape:window-x="0"
     inkscape:window-y="25"
     inkscape:window-maximized="0"
     inkscape:current-layer="svg4"
     inkscape:showpageshadow="0"
     inkscape:pagecheckerboard="0"
     inkscape:deskcolor="#d1d1d1" />
  <path
     d="M 6.285,0 A 6.295,6.295 0 0 0 0,6.285 6.295,6.295 0 0 0 6.285,12.58 6.295,6.295 0 0 0 12.579,6.285 6.295,6.295 0 0 0 6.285,0 Z M 6.274,0.94 a 5.408,5.408 0 0 1 5.397,5.387 5.407,5.407 0 0 1 -0.668,2.602 C 10.792,8.861 10.413,8.759 10.841,8.914 l 0.058,0.016 0.056,0.016 0.034,0.006 a 5.407,5.407 0 0 1 -4.124,2.743 c -0.223,-0.527 -0.016,-1.155 0.144,-1.68 0.24,-0.683 0.476,0.284 0.62,0.528 0.24,0.44 0.118,-10e-4 -0.012,-0.196 C 7.39,10.011 7.643,9.983 7.868,10.202 8.433,10.469 7.616,9.959 7.548,9.758 7.054,9.515 7.916,8.625 8.178,9.108 8.351,9.578 8.216,10.134 8.739,10.411 8.825,10.356 8.332,9.828 8.405,9.517 8.676,9.608 8.885,10.179 9.179,10.35 9.081,10.137 8.908,9.773 9.295,10.062 9.755,10.393 9.272,9.929 9.051,9.862 8.519,9.582 9.214,9.483 9.446,9.685 9.337,9.503 9.591,9.415 9.322,9.437 8.767,9.645 8.359,9.31 8.152,8.815 8.22,8.437 8.992,8.585 9.307,8.688 9.679,8.86 10.017,8.926 10.431,9.142 11.015,9.238 10.161,9.03 10.047,8.85 10.525,8.756 9.902,8.742 9.743,8.684 9.154,8.594 9.733,8.524 9.99,8.534 9.757,8.423 9.187,8.576 8.834,8.471 8.1,8.605 8.729,7.721 9.098,7.798 9.658,7.929 10.235,7.934 10.8,8.011 11.188,8.265 11.12,7.794 10.732,7.903 10.376,7.916 10.355,7.752 10.687,7.635 10.589,7.521 9.835,8.097 9.846,7.7 9.851,7.687 9.246,7.801 9.057,7.648 8.628,7.422 9.395,7.143 9.635,7.32 c 0.153,0.044 1.03,-0.048 0.581,0.13 -0.672,0.305 0.23,0.08 0.43,-0.125 0.176,-0.029 0.945,0.003 0.438,-0.072 C 10.921,7.173 10.022,7.404 10.381,7.108 10.209,7.238 9.709,7.276 9.407,7.201 8.872,7.318 9.105,6.831 9.405,6.722 c 0.426,-0.05 0.841,-0.261 1.286,-0.118 0.244,0.194 0.425,-0.078 0.107,-0.08 -0.605,-0.048 0.243,-0.127 0.403,-0.208 0.025,-0.248 -0.477,0.11 -0.742,0.068 -0.09,0.012 -0.936,0.27 -0.455,-0.12 0.377,-0.286 0.615,-0.757 1.092,-0.86 0.164,-0.328 -0.623,0.282 -0.233,-0.125 0.46,-0.635 -0.614,0.62 -0.24,0.008 0.238,-0.257 0.074,-0.242 0.16,-0.515 0.163,-0.503 -0.095,-0.086 -0.15,0.16 C 10.467,5.295 9.94,5.21 9.714,5.474 9.384,5.782 9.5,5.472 9.608,5.25 9.906,4.947 9.423,5.269 9.598,4.974 9.768,4.492 10.228,4.281 10.403,3.829 10.133,4.052 9.852,4.049 9.61,4.352 9.438,4.238 9.24,4.72 8.89,4.832 9,4.469 9.354,4.074 9.668,3.796 9.576,3.35 9.389,4.02 9.185,4.21 8.981,4.204 8.936,4.616 8.714,4.859 8.382,5.221 8.192,5.713 7.791,6.007 7.888,5.639 8.169,5.127 8.377,4.722 8.633,4.349 8.81,3.909 9.111,3.586 9.277,3.412 9.649,2.682 9.276,3.228 9.05,3.581 9.092,3.238 9.23,3.065 9.435,2.661 9.144,2.847 9.094,3.14 8.871,3.658 9.011,3.047 9.004,2.808 8.924,3.168 8.822,2.708 8.83,3.02 8.907,3.805 8.429,4.475 8.077,5.133 7.723,5.825 8.237,4.523 8.037,4.825 7.822,5.321 7.811,5.987 7.322,6.302 7.194,6.018 7.674,5.477 7.787,5.1 7.941,4.644 8.249,4.28 8.497,3.876 8.861,3.376 8.39,3.896 8.233,4.094 8.089,3.805 8.541,3.154 8.475,2.883 8.235,3.395 8.36,2.808 8.399,2.579 8.082,3.296 8.187,4.136 7.809,4.837 7.625,5.211 7.467,5.654 7.181,5.939 7.347,5.479 7.122,5.834 6.982,6.031 7.039,5.56 7.596,5.277 7.626,4.778 7.336,5.225 7.406,4.681 7.406,4.448 7.562,3.998 7.822,3.579 8.001,3.135 8.152,3.022 8.151,2.395 8.013,2.788 7.896,3.4 7.88,2.042 7.81,2.694 7.971,3.152 7.744,3.616 7.48,3.982 7.147,4.318 7.388,3.851 7.496,3.567 7.659,2.969 7.376,3.711 7.228,3.807 7.418,3.327 7.476,2.807 7.563,2.3 7.666,1.787 7.391,2.34 7.427,2.544 7.397,2.91 7.339,3.348 7.121,3.628 7.024,3.158 7.281,2.528 7.163,2.158 7.059,2.751 7.071,2.006 6.983,1.846 6.91,3.089 7.131,4.353 6.851,5.581 6.704,6.134 6.742,6.758 6.493,7.268 6.431,6.585 6.444,5.895 6.439,5.208 6.382,4.744 6.625,4.336 6.659,3.885 6.471,3.973 6.749,3.377 6.677,3.088 6.743,2.633 6.837,2.255 6.74,1.81 6.59,1.886 6.804,2.456 6.575,2.63 6.092,3.045 6.565,2.264 6.525,2.04 6.44,2.152 6.349,2.314 6.348,1.878 6.298,2.068 6.261,2.305 6.191,1.938 6.27,2.401 6.311,2.917 6.167,3.394 6.113,2.902 6.083,2.401 5.984,1.913 5.655,1.409 5.977,2.173 5.971,2.417 5.886,2.555 5.772,1.725 5.635,1.591 5.678,1.823 5.792,2.437 5.582,1.894 5.366,1.314 5.599,2.086 5.529,2.309 5.437,2.226 5.381,1.786 5.156,1.655 5.008,1.805 5.499,2.141 5.44,2.472 5.603,2.649 5.665,3.735 5.494,3.154 5.264,2.619 5.389,3.353 5.399,3.599 5.209,3.137 5.234,2.63 5.159,2.144 5.053,2.262 4.991,1.994 4.982,1.77 4.973,1.226 4.899,2.21 4.742,1.723 4.789,2.166 5.225,2.443 5.168,2.93 5.198,3.62 4.953,2.414 4.928,2.473 5.031,2.875 4.838,2.673 4.792,2.431 4.802,2.124 4.427,2.007 4.692,2.345 4.989,2.94 4.173,1.953 4.47,2.409 4.894,2.819 5.133,3.362 5.34,3.904 5.538,4.386 5.236,3.976 5.094,3.77 4.699,3.375 4.619,2.787 4.357,2.312 4.207,2.294 4.552,2.882 4.565,3.067 4.377,3.048 4.347,2.343 4.053,2.388 4.135,2.553 4.169,2.786 3.998,2.5 4.041,2.747 4.238,3.098 4.328,3.39 4.267,3.679 4.618,3.94 4.636,4.361 4.219,3.901 4.036,3.272 3.868,2.686 3.765,2.329 3.788,2.577 3.868,2.806 4.044,3.556 3.53,2.123 3.595,2.702 3.128,2.544 3.561,2.735 3.697,2.898 3.952,3.695 4.491,4.343 4.943,5.032 5.223,5.406 4.915,5.24 4.771,5.002 4.528,4.759 4.309,4.493 4.226,4.154 4.177,4.526 4.433,4.881 4.351,5.264 4.192,5.154 4.024,4.513 3.907,4.197 3.737,3.799 3.697,3.287 3.344,3.01 2.934,2.69 3.284,3.089 3.443,3.231 3.602,3.428 3.613,3.721 3.697,3.956 3.372,3.791 3.197,3.196 2.904,2.887 2.99,3.077 3.018,3.23 2.827,2.989 2.437,2.655 3.114,3.451 2.855,3.3 2.764,3.505 3.389,3.867 3.581,4.147 3.721,4.257 4.221,4.982 3.82,4.77 3.357,4.453 3.046,3.976 2.629,3.61 2.163,3.261 3.269,4.34 2.81,4.024 2.478,3.748 2.598,3.991 2.841,4.124 3.337,4.391 3.708,4.822 4.093,5.224 4.456,5.64 3.971,5.371 3.811,5.195 3.873,5.384 4.526,5.771 4.665,6.152 4.945,6.537 4.572,6.302 4.422,6.116 4.058,5.697 3.465,5.413 3.389,4.815 3.219,4.428 3.225,4.652 3.362,4.919 3.534,5.296 3.31,5.069 3.207,4.884 3.279,5.163 2.808,4.727 2.786,4.456 2.689,4.351 2.89,4.82 2.61,4.507 2.654,4.774 3.238,5.081 3.388,5.444 3.638,5.851 3.266,5.61 3.19,5.349 2.87,4.937 3.05,5.336 3.229,5.545 3.478,5.867 3.859,6.285 3.87,6.642 3.369,6.336 3.05,5.827 2.848,5.287 2.605,4.777 2.78,5.332 2.886,5.553 2.804,5.64 2.412,5.038 2.201,4.857 1.704,4.387 2.721,5.429 2.23,5.112 1.744,4.831 2.23,5.239 2.43,5.353 2.797,5.582 2.477,5.591 2.26,5.451 2.265,5.596 2.855,5.699 2.977,5.979 2.909,6.304 2.144,5.863 1.851,5.777 1.881,5.884 2.605,6.187 2.935,6.209 3.418,6.354 3.819,6.789 4.162,7.153 3.782,7.039 3.597,6.757 3.28,6.65 2.934,6.575 3.09,6.66 3.322,6.78 3.667,7.11 4.26,7.18 4.405,7.689 4.072,7.652 3.739,7.256 3.365,7.161 2.986,6.896 2.808,6.382 2.353,6.234 2.632,6.499 2.62,6.72 2.971,6.894 3.396,7.187 2.795,7.065 2.629,6.938 2.196,6.696 1.949,6.216 1.65,5.834 1.336,5.513 1.535,5.882 1.644,6.035 0.874,5.8 2.017,6.193 1.947,6.542 2.561,7.016 1.612,6.732 1.337,6.655 1.335,6.646 1.345,6.895 1.569,6.84 1.829,6.867 2.654,6.98 2.502,7.21 2.268,7.275 1.521,7.249 1.574,7.429 2.091,7.364 2.612,7.248 3.122,7.272 3.582,7.518 4.121,7.679 4.485,8.068 4.371,8.278 3.724,8.233 3.427,8.255 3.227,8.255 2.589,7.521 2.829,7.858 3.163,8.128 2.771,8.069 2.577,7.958 2.465,7.925 1.721,7.57 2.093,7.801 2.6,8.076 1.919,7.939 1.696,8.017 1.948,8.172 2.669,8 3.064,8.253 3.589,8.416 2.699,8.611 2.724,8.592 3.5,8.634 1.914,8.932 2.664,8.883 2.402,9.161 2.789,8.9 2.906,8.828 3.283,8.471 3.838,8.437 4.288,8.676 4.164,9.086 3.48,8.929 3.158,9.181 3.208,9.336 2.227,9.635 2.724,9.604 2.462,10.034 3.23,9.164 3.203,9.43 3.308,9.688 3.678,8.93 3.984,9.056 4.018,9.488 3.391,9.592 3.097,9.824 c 0.23,-0.15 0.377,0.044 0.595,-0.208 0.16,0.162 -0.31,0.746 -0.353,0.801 0.414,-0.185 0.454,-0.619 0.64,-0.98 0.19,0.3 0.24,-0.571 0.555,-0.608 0.167,-0.41 0.542,-0.037 0.668,0.232 0.516,0.496 -0.492,0.574 -0.755,0.818 0.27,0.043 0.096,0.357 -0.193,0.354 -0.387,0.093 -0.258,0.16 0.056,0.047 0.38,-0.23 -0.079,0.46 0.13,0.22 0.293,-0.327 0.47,-0.83 0.942,-0.885 0.545,0.198 0.332,0.93 0.38,1.375 0.088,0.2 -0.105,0.488 -0.164,0.703 A 5.407,5.407 0 0 1 0.858,6.328 c 0,-2.987 2.429,-5.387 5.416,-5.387 z M 4.464,2.005 C 4.459,2.003 4.467,2.024 4.504,2.085 4.627,2.215 4.482,2.012 4.464,2.005 Z M 5.67,2.309 C 5.881,2.353 6.027,3.102 5.978,3.392 5.974,3.464 5.977,3.538 5.957,3.608 5.791,3.163 5.647,2.761 5.627,2.31 A 0.094,0.094 0 0 1 5.67,2.309 Z M 9.404,2.755 C 9.396,2.758 9.387,2.774 9.379,2.81 9.439,2.84 9.429,2.744 9.404,2.755 Z m -2.838,0.01 c 0.013,0 0.02,0.05 0.01,0.187 L 6.563,3.018 6.55,3.07 C 6.428,3.21 6.525,2.765 6.566,2.766 Z M 3.456,2.883 C 3.452,2.89 3.459,2.93 3.492,3.03 3.596,3.146 3.471,2.863 3.456,2.883 Z M 4.312,2.986 C 4.589,3.336 4.825,3.717 5.095,4.073 5.02,4.11 4.901,4 4.855,3.941 4.69,3.531 4.31,3.471 4.312,2.986 Z M 6.337,3.074 C 6.462,3.222 6.397,3.882 6.369,4.217 6.355,4.287 6.343,4.359 6.319,4.427 6.148,4.075 6.335,3.507 6.337,3.074 Z M 5.669,3.427 C 5.716,3.44 5.779,3.612 5.825,3.737 6.185,4.383 6.366,5.122 6.288,5.862 6.095,5.824 6.218,4.788 5.943,4.759 5.945,5.342 5.757,4.718 5.678,4.508 5.528,4.232 5.556,3.919 5.606,3.618 5.617,3.468 5.64,3.418 5.669,3.427 Z m 3.56,0.305 C 9.202,3.747 9.15,3.842 9.13,3.995 9.122,4.045 9.21,3.932 9.173,3.959 9.255,3.785 9.254,3.717 9.228,3.732 Z M 4.83,4.157 C 5.012,4.161 5.408,4.425 5.46,4.656 5.647,5.136 6.094,5.598 5.954,6.145 5.927,6.18 5.939,6.42 5.866,6.377 A 46.74,46.74 0 0 0 4.856,4.494 C 4.69,4.246 4.722,4.155 4.83,4.157 Z m 5.013,0.122 c 0.019,-0.004 0.033,0.002 0.04,0.02 L 9.811,4.368 9.754,4.414 C 9.351,4.763 9.709,4.302 9.843,4.279 Z M 10.086,4.77 C 10.032,4.76 10.033,4.889 9.951,5.066 9.709,5.551 10.336,4.782 10.165,4.83 10.129,4.792 10.105,4.774 10.086,4.77 Z m -1,0.073 C 9.174,4.88 8.908,5.366 8.801,5.513 8.586,5.998 8.17,6.339 7.753,6.646 7.445,6.807 7.868,6.213 7.906,6.159 8.272,5.811 8.425,5.259 8.861,4.984 8.988,4.868 9.057,4.831 9.086,4.843 Z M 4.45,4.941 C 4.777,5.116 5.117,5.602 5.382,5.943 L 5.367,5.955 H 5.315 C 4.7,6.055 4.333,5.503 4.45,4.941 Z M 9.262,4.965 C 9.321,4.919 9.234,5.18 9.128,5.3 L 9.088,5.363 C 8.846,5.765 9.048,5.275 9.151,5.13 9.207,5.03 9.243,4.98 9.262,4.965 Z M 1.976,5.271 C 1.969,5.275 1.979,5.291 2.021,5.327 2.161,5.35 1.996,5.258 1.976,5.271 Z m 8.416,0.007 C 10.512,5.633 9.962,6.27 9.564,6.464 9.697,6.206 9.575,6.23 9.45,6.416 L 9.4,6.473 C 9.088,6.883 9.113,6.377 9.246,6.139 9.412,5.637 9.929,5.432 10.392,5.279 Z m -6.77,0.385 c 0.348,0.117 0.644,0.563 0.98,0.793 0.608,0.413 1.126,1.035 1.226,1.783 0.02,0.026 0,0.24 -0.082,0.108 C 5.406,7.872 4.941,7.503 4.603,7.03 4.53,6.898 4.005,6.175 4.15,6.565 4.207,6.761 4.798,7.293 4.456,7.214 4.053,6.782 3.829,6.209 3.623,5.664 Z m 1.33,0.41 a 0.283,0.283 0 0 1 0.122,0.015 c 0.587,0.087 0.803,0.686 0.79,1.206 L 5.871,7.371 5.875,7.435 C 5.745,7.459 5.486,6.951 5.321,6.761 5.263,6.61 4.771,6.107 4.951,6.072 Z m 4.04,0.084 C 9.235,6.225 8.871,6.867 8.821,7.119 8.707,7.205 8.544,7.101 8.424,7.081 8.448,6.788 8.752,6.395 8.993,6.157 Z m -0.51,0.05 C 8.709,6.292 8.404,7.061 8.062,6.992 7.992,6.993 7.922,6.994 7.854,7.004 7.884,6.774 8.217,6.384 8.482,6.207 Z M 1.31,6.214 C 1.3,6.212 1.294,6.219 1.299,6.245 1.4,6.313 1.339,6.221 1.309,6.214 Z M 1.509,6.367 C 1.479,6.373 1.518,6.406 1.696,6.477 1.753,6.492 1.812,6.519 1.873,6.512 1.791,6.422 1.557,6.357 1.509,6.367 Z M 7.447,6.439 C 7.537,6.802 7.189,7.184 6.963,7.466 L 6.892,7.525 C 6.9,7.117 7.143,6.715 7.447,6.439 Z M 2.378,6.499 C 2.363,6.494 2.364,6.506 2.399,6.553 2.606,6.683 2.423,6.514 2.379,6.499 Z M 11.2,6.732 a 0.152,0.152 0 0 0 -0.034,0.012 c 0.035,-0.01 0.04,-0.013 0.034,-0.012 z m -0.316,0.376 a 0.23,0.23 0 0 0 -0.156,0.059 l 0.063,0.01 0.06,0.004 c 0.33,0.053 0.196,-0.077 0.033,-0.073 z M 1.401,7.118 C 1.383,7.121 1.399,7.138 1.481,7.18 1.796,7.224 1.452,7.107 1.401,7.117 Z M 8.607,7.243 C 8.68,7.251 8.739,7.28 8.772,7.34 8.576,7.741 7.947,7.786 7.605,8.108 7.143,8.31 7.879,7.637 7.917,7.528 8.046,7.398 8.388,7.222 8.607,7.243 Z m 2.585,0.286 c -0.147,0 -0.482,0.068 -0.27,0.107 0.055,-0.015 0.134,0.067 0.174,-0.013 0.205,-0.07 0.184,-0.094 0.096,-0.094 z M 4.68,7.571 c 0.31,0.162 0.862,0.569 0.776,0.9 A 1.295,1.295 0 0 1 5.138,8.47 C 4.948,8.286 4.5,7.764 4.68,7.57 Z M 7.294,7.649 C 7.335,8.073 7.209,8.516 6.787,8.7 6.753,8.74 6.633,8.789 6.674,8.68 6.73,8.316 7.08,7.733 7.294,7.65 Z M 1.536,7.778 C 1.524,7.777 1.515,7.788 1.514,7.821 1.624,7.889 1.571,7.781 1.536,7.778 Z m 9.719,0.135 c -0.013,0.002 -0.025,0.016 -0.032,0.054 0.106,0.05 0.07,-0.06 0.032,-0.054 z M 8.313,7.958 C 8.362,8.158 7.757,8.555 7.517,8.778 7.484,8.753 7.432,8.885 7.392,8.837 7.455,8.375 7.864,8.035 8.313,7.958 Z M 4.425,8.315 C 4.629,8.333 4.885,8.464 4.631,8.522 4.499,8.586 3.621,8.359 4.258,8.342 4.294,8.316 4.357,8.309 4.425,8.315 Z M 5.421,8.652 C 5.539,8.674 5.689,8.789 5.626,8.967 5.694,9.272 5.469,8.965 5.406,8.89 5.216,8.698 5.302,8.629 5.421,8.652 Z M 6.914,8.987 C 6.922,8.981 6.934,8.992 6.95,9.039 6.896,9.181 6.888,9.005 6.914,8.987 Z m 2.83,0.007 C 9.714,8.99 9.712,9.01 9.803,9.084 9.915,9.074 9.793,9 9.743,8.994 Z M 6.693,9.307 C 6.798,9.297 6.929,9.461 6.739,9.63 6.616,9.876 6.603,9.662 6.606,9.546 6.576,9.38 6.63,9.312 6.693,9.306 Z m 1.679,0.795 c -0.008,-0.003 -0.021,0.005 -0.042,0.034 0.039,0.08 0.066,-0.025 0.042,-0.034 z m -4.75,0.231 c -0.014,0.006 -0.038,0.03 -0.076,0.086 0.06,0.049 0.116,-0.102 0.076,-0.086 z"
     id="path2"
     inkscape:connector-curvature="0"
     style="fill:#bde6fb;fill-opacity:1" />
</svg>
