<?xml version="1.0" encoding="UTF-8" standalone="no"?>
<svg
   width="48"
   height="48"
   viewBox="0 0 12.7 12.7"
   version="1.1"
   id="svg4"
   sodipodi:docname="apache-users.svg"
   inkscape:version="0.92.5 (2060ec1f9f, 2020-04-08)"
   xmlns:inkscape="http://www.inkscape.org/namespaces/inkscape"
   xmlns:sodipodi="http://sodipodi.sourceforge.net/DTD/sodipodi-0.dtd"
   xmlns="http://www.w3.org/2000/svg"
   xmlns:svg="http://www.w3.org/2000/svg">
  <sodipodi:namedview
     id="namedview1"
     pagecolor="#505050"
     bordercolor="#eeeeee"
     borderopacity="1"
     inkscape:showpageshadow="0"
     inkscape:pageopacity="0"
     inkscape:pagecheckerboard="0"
     inkscape:deskcolor="#d1d1d1" />
  <defs
     id="defs8">
    <style
       id="current-color-scheme"
       type="text/css">&#10;      .ColorScheme-Highlight {&#10;        color:#1e3f5a;&#10;      }&#10;  </style>
  </defs>
  <path
     class="ColorScheme-Highlight"
     style="fill:#bde6fb;fill-opacity:1;stroke-width:0.264583"
     d="M 6.3499999,0 A 6.3499999,6.3499999 0 0 0 0,6.3499999 6.3499999,6.3499999 0 0 0 6.3499999,12.7 6.3499999,6.3499999 0 0 0 12.7,6.3499999 6.3499999,6.3499999 0 0 0 6.3499999,0 Z m 0,0.79374999 A 5.5562499,5.5562499 0 0 1 11.90625,6.3499999 5.5562499,5.5562499 0 0 1 6.3499999,11.90625 5.5562499,5.5562499 0 0 1 0.79374999,6.3499999 5.5562499,5.5562499 0 0 1 6.3499999,0.79374999 Z"
     id="path821" />
  <path
     style="fill:#bf2d5d;stroke-width:0.264583"
     d="M 4.9537027,6.0854166 A 2.1166663,2.1166663 0 0 0 6.3499999,6.6145833 2.1166663,2.1166663 0 0 0 7.7473306,6.0854166 Z m 0.073381,1.3229166 c -0.4285242,0 -0.7905263,0.215123 -1.0319785,0.5291667 H 8.704895 C 8.4634429,7.6234562 8.1014408,7.4083332 7.6729166,7.4083332 Z"
     id="path872" />
  <path
     style="fill:#112d5c;stroke-width:0.264583"
     d="M 3.9951048,7.9374999 C 3.8236067,8.1605587 3.7041666,8.4268783 3.7041666,8.7312499 V 9.7895832 H 8.9958332 V 8.7312499 c 0,-0.3043716 -0.11944,-0.5706912 -0.2909382,-0.79375 z"
     id="path870" />
  <path
     style="fill:#ca2929;stroke-width:0.264583"
     d="m 4.2524537,4.2333333 a 2.1166664,2.1166664 0 0 0 -0.01912,0.2645833 2.1166664,2.1166664 0 0 0 0.7203694,1.5875 H 7.747331 a 2.1166664,2.1166664 0 0 0 0.719336,-1.5875 2.1166664,2.1166664 0 0 0 -0.018603,-0.2645833 z"
     id="path862" />
  <path
     style="fill:#fe8a19;stroke-width:0.264583"
     d="M 4.2524537,4.2333333 H 8.4480632 A 2.1166664,2.1166664 0 0 0 6.3499999,2.38125 2.1166664,2.1166664 0 0 0 4.2524537,4.2333333 Z"
     id="path817" />
</svg>
