<?xml version="1.0" encoding="UTF-8" standalone="no"?>
<svg
   width="48"
   height="48"
   viewBox="0 0 12.7 12.7"
   version="1.1"
   id="svg4"
   sodipodi:docname="appcode.svg"
   inkscape:version="0.92.5 (2060ec1f9f, 2020-04-08)"
   xmlns:inkscape="http://www.inkscape.org/namespaces/inkscape"
   xmlns:sodipodi="http://sodipodi.sourceforge.net/DTD/sodipodi-0.dtd"
   xmlns="http://www.w3.org/2000/svg"
   xmlns:svg="http://www.w3.org/2000/svg">
  <sodipodi:namedview
     id="namedview1"
     pagecolor="#505050"
     bordercolor="#eeeeee"
     borderopacity="1"
     inkscape:showpageshadow="0"
     inkscape:pageopacity="0"
     inkscape:pagecheckerboard="0"
     inkscape:deskcolor="#d1d1d1" />
  <defs
     id="defs8">
    <style
       id="current-color-scheme"
       type="text/css">&#10;      .ColorScheme-Highlight {&#10;        color:#1e3f5a;&#10;      }&#10;  </style>
  </defs>
  <path
     class="ColorScheme-Highlight"
     style="fill:#bde6fb;fill-opacity:1;stroke-width:0.264583"
     d="M 6.3499999,0 A 6.3499999,6.3499999 0 0 0 0,6.3499999 6.3499999,6.3499999 0 0 0 6.3499999,12.7 6.3499999,6.3499999 0 0 0 12.7,6.3499999 6.3499999,6.3499999 0 0 0 6.3499999,0 Z m 0,0.79374999 A 5.5562499,5.5562499 0 0 1 11.90625,6.3499999 5.5562499,5.5562499 0 0 1 6.3499999,11.90625 5.5562499,5.5562499 0 0 1 0.79374999,6.3499999 5.5562499,5.5562499 0 0 1 6.3499999,0.79374999 Z m 0,1.05833331 A 4.4979182,4.4979182 0 0 0 1.8520833,6.3499999 4.4979182,4.4979182 0 0 0 6.3499999,10.847917 4.4979182,4.4979182 0 0 0 10.847917,6.3499999 4.4979182,4.4979182 0 0 0 6.3499999,1.8520833 Z m -1.5875,3.175 h 0.2645834 0.2645833 0.2645833 l 0.79375,2.6458333 H 5.8208333 L 5.6621867,7.1437499 H 4.6565632 L 4.4979166,7.6729166 H 3.96875 Z m 3.175,0 c 0.3685646,0 0.7010506,0.1506222 0.9410279,0.3937743 l -0.373104,0.375171 C 8.3614905,5.6481268 8.1602791,5.5557332 7.9374999,5.5557332 c -0.4384146,0 -0.79375,0.3553354 -0.79375,0.79375 0,0.4384146 0.3553354,0.79375 0.79375,0.79375 0.2156354,0 0.4108318,-0.086643 0.5539713,-0.2263429 L 8.8661255,7.2905111 C 8.627207,7.5265186 8.2997145,7.6729166 7.9374999,7.6729166 7.2069853,7.6729163 6.6145833,7.0805142 6.6145833,6.3499999 c 0,-0.7305151 0.592402,-1.3229166 1.3229166,-1.3229166 z m -2.778125,0.4408 -0.3441649,1.1467 H 5.5035399 Z M 4.4979166,8.4666666 H 8.2020832 V 8.9958332 H 4.4979166 Z"
     id="path833" />
</svg>
