<?xml version="1.0" encoding="UTF-8" standalone="no"?>
<svg
   width="48"
   height="48"
   viewBox="0 0 12.7 12.7"
   version="1.1"
   id="svg4"
   sodipodi:docname="AppImage.svg"
   inkscape:version="0.92.5 (2060ec1f9f, 2020-04-08)"
   xmlns:inkscape="http://www.inkscape.org/namespaces/inkscape"
   xmlns:sodipodi="http://sodipodi.sourceforge.net/DTD/sodipodi-0.dtd"
   xmlns="http://www.w3.org/2000/svg"
   xmlns:svg="http://www.w3.org/2000/svg">
  <sodipodi:namedview
     id="namedview1"
     pagecolor="#505050"
     bordercolor="#eeeeee"
     borderopacity="1"
     inkscape:showpageshadow="0"
     inkscape:pageopacity="0"
     inkscape:pagecheckerboard="0"
     inkscape:deskcolor="#d1d1d1" />
  <defs
     id="defs8">
    <style
       id="current-color-scheme"
       type="text/css">&#10;      .ColorScheme-Highlight {&#10;        color:#1e3f5a;&#10;      }&#10;  </style>
  </defs>
  <path
     class="ColorScheme-Highlight"
     style="fill:#bde6fb;fill-opacity:1;stroke-width:0.264583"
     d="M 6.3499999,0 A 6.3499999,6.3499999 0 0 0 0,6.3499999 6.3499999,6.3499999 0 0 0 6.3499999,12.7 6.3499999,6.3499999 0 0 0 12.7,6.3499999 6.3499999,6.3499999 0 0 0 6.3499999,0 Z m 0,0.79374999 A 5.5562499,5.5562499 0 0 1 11.90625,6.3499999 5.5562499,5.5562499 0 0 1 6.3499999,11.90625 5.5562499,5.5562499 0 0 1 0.79374999,6.3499999 5.5562499,5.5562499 0 0 1 6.3499999,0.79374999 Z m -0.79375,1.05833331 v 2.38125 h -0.79375 l 1.5875,1.5875 1.5875,-1.5875 h -0.79375 v -2.38125 z m 0.5291667,4.7625 -0.221692,0.8867674 a 1.3229167,1.3229167 0 0 0 -0.038241,0.017052 L 5.0405191,7.0476308 4.6663818,7.421768 5.1366372,8.2051828 a 1.3229167,1.3229167 0 0 0 -0.015502,0.039791 L 4.2333333,8.4666666 v 0.5291666 l 0.8867674,0.221692 a 1.3229167,1.3229167 0 0 0 0.017052,0.03824 L 4.6663808,10.040731 5.040518,10.414868 5.8239329,9.9446126 a 1.3229167,1.3229167 0 0 0 0.039791,0.015502 L 6.0854166,10.847917 H 6.6145833 L 6.8362752,9.9611491 a 1.3229167,1.3229167 0 0 0 0.03824,-0.017052 L 7.6594808,10.414869 8.033618,10.040732 7.5633627,9.257317 A 1.3229167,1.3229167 0 0 0 7.5788647,9.217526 L 8.4666666,8.9958332 V 8.4666666 L 7.5798991,8.2449746 A 1.3229167,1.3229167 0 0 0 7.5628467,8.2067341 L 8.0336191,7.421769 7.6594818,7.0476318 6.876067,7.5178871 A 1.3229167,1.3229167 0 0 0 6.8362763,7.5023852 L 6.6145833,6.6145833 Z m 0.2645833,1.3229166 a 0.79374999,0.79374999 0 0 1 0.79375,0.79375 0.79374999,0.79374999 0 0 1 -0.79375,0.79375 0.79374999,0.79374999 0 0 1 -0.79375,-0.79375 0.79374999,0.79374999 0 0 1 0.79375,-0.79375 z"
     id="path817" />
</svg>
