<?xml version="1.0" encoding="UTF-8" standalone="no"?>
<svg
   width="47.546455"
   height="47.546455"
   viewBox="0 0 12.58 12.58"
   version="1.1"
   id="svg4"
   sodipodi:docname="arduino.svg"
   inkscape:version="0.92.4 (5da689c313, 2019-01-14)"
   xmlns:inkscape="http://www.inkscape.org/namespaces/inkscape"
   xmlns:sodipodi="http://sodipodi.sourceforge.net/DTD/sodipodi-0.dtd"
   xmlns="http://www.w3.org/2000/svg"
   xmlns:svg="http://www.w3.org/2000/svg"
   xmlns:rdf="http://www.w3.org/1999/02/22-rdf-syntax-ns#"
   xmlns:cc="http://creativecommons.org/ns#"
   xmlns:dc="http://purl.org/dc/elements/1.1/">
  <metadata
     id="metadata10">
    <rdf:RDF>
      <cc:Work
         rdf:about="">
        <dc:format>image/svg+xml</dc:format>
        <dc:type
           rdf:resource="http://purl.org/dc/dcmitype/StillImage" />
        <dc:title />
      </cc:Work>
    </rdf:RDF>
  </metadata>
  <defs
     id="defs8" />
  <sodipodi:namedview
     pagecolor="#ffffff"
     bordercolor="#666666"
     borderopacity="1"
     objecttolerance="10"
     gridtolerance="10"
     guidetolerance="10"
     inkscape:pageopacity="0"
     inkscape:pageshadow="2"
     inkscape:window-width="861"
     inkscape:window-height="480"
     id="namedview6"
     showgrid="false"
     inkscape:zoom="4.9166667"
     inkscape:cx="2.1355932"
     inkscape:cy="24"
     inkscape:window-x="0"
     inkscape:window-y="25"
     inkscape:window-maximized="0"
     inkscape:current-layer="svg4"
     inkscape:showpageshadow="0"
     inkscape:pagecheckerboard="0"
     inkscape:deskcolor="#d1d1d1" />
  <path
     d="M 6.29,9.9999768e-4 A 6.29,6.29 0 0 0 0,6.291 6.29,6.29 0 0 0 6.29,12.58 6.29,6.29 0 0 0 12.58,6.29 6.29,6.29 0 0 0 6.29,0 Z M 6.272,0.938 A 5.407,5.407 0 0 1 11.679,6.345 5.407,5.407 0 0 1 6.272,11.752 5.407,5.407 0 0 1 0.866,6.345 5.407,5.407 0 0 1 6.272,0.939 Z m 2.27,3.237 C 7.536,4.175 6.667,4.67 6.262,5.382 5.862,4.671 5.006,4.177 4.014,4.177 c -1.373,0 -2.49,0.943 -2.49,2.102 0,1.16 1.117,2.102 2.49,2.102 0.992,0 1.849,-0.494 2.248,-1.205 0.405,0.712 1.274,1.207 2.28,1.207 1.393,0 2.526,-0.944 2.526,-2.104 0,-1.16 -1.133,-2.104 -2.525,-2.104 z M 4.046,4.706 c 1.09,0 1.975,0.705 1.975,1.572 0,0.868 -0.886,1.573 -1.975,1.573 -1.09,0 -1.976,-0.705 -1.976,-1.573 0,-0.867 0.887,-1.572 1.976,-1.572 z m 4.493,0.002 c 1.093,0 1.981,0.705 1.981,1.57 0,0.866 -0.888,1.57 -1.98,1.57 -1.093,0 -1.982,-0.704 -1.982,-1.57 0,-0.865 0.889,-1.57 1.981,-1.57 z M 8.415,5.23 V 6.024 H 7.621 V 6.553 H 8.415 V 7.347 H 8.944 V 6.553 H 9.738 V 6.023 H 8.944 V 5.23 H 8.414 Z M 2.858,6.024 V 6.553 H 4.976 V 6.023 H 2.858 Z"
     id="path2"
     inkscape:connector-curvature="0"
     style="fill:#bde6fb;fill-opacity:1" />
</svg>
