<?xml version="1.0" encoding="UTF-8" standalone="no"?>
<svg
   width="47.546455"
   height="47.546455"
   viewBox="0 0 12.58 12.58"
   version="1.1"
   id="svg6"
   sodipodi:docname="armitage.svg"
   inkscape:version="0.92.5 (2060ec1f9f, 2020-04-08)"
   xmlns:inkscape="http://www.inkscape.org/namespaces/inkscape"
   xmlns:sodipodi="http://sodipodi.sourceforge.net/DTD/sodipodi-0.dtd"
   xmlns="http://www.w3.org/2000/svg"
   xmlns:svg="http://www.w3.org/2000/svg"
   xmlns:rdf="http://www.w3.org/1999/02/22-rdf-syntax-ns#"
   xmlns:cc="http://creativecommons.org/ns#"
   xmlns:dc="http://purl.org/dc/elements/1.1/">
  <metadata
     id="metadata12">
    <rdf:RDF>
      <cc:Work
         rdf:about="">
        <dc:format>image/svg+xml</dc:format>
        <dc:type
           rdf:resource="http://purl.org/dc/dcmitype/StillImage" />
        <dc:title />
      </cc:Work>
    </rdf:RDF>
  </metadata>
  <defs
     id="defs10" />
  <sodipodi:namedview
     pagecolor="#ffffff"
     bordercolor="#666666"
     borderopacity="1"
     objecttolerance="10"
     gridtolerance="10"
     guidetolerance="10"
     inkscape:pageopacity="0"
     inkscape:pageshadow="2"
     inkscape:window-width="1085"
     inkscape:window-height="480"
     id="namedview8"
     showgrid="false"
     inkscape:zoom="4.9166667"
     inkscape:cx="2.1355932"
     inkscape:cy="24"
     inkscape:window-x="0"
     inkscape:window-y="25"
     inkscape:window-maximized="0"
     inkscape:current-layer="svg6"
     inkscape:showpageshadow="0"
     inkscape:pagecheckerboard="0"
     inkscape:deskcolor="#d1d1d1" />
  <path
     d="M 6.285,0 A 6.295,6.295 0 0 0 0,6.285 6.295,6.295 0 0 0 6.285,12.58 6.295,6.295 0 0 0 12.58,6.285 6.295,6.295 0 0 0 6.285,0 Z m -0.01,0.94 a 5.408,5.408 0 0 1 5.397,5.387 5.4075,5.4075 0 0 1 -10.815,0 C 0.857,3.34 3.287,0.94 6.274,0.94 Z M 7.698,3.435 A 5.025,5.025 0 0 1 5.849,4.29 C 3.703,4.292 2.28,5.73 1.062,6.825 L 1.089,6.81 1.013,6.878 C 2.82,5.81 3.94,5.325 4.643,5.192 4.758,5.132 4.873,5.057 4.987,5.022 5.239,4.943 5.501,4.902 5.765,4.892 6.03,4.881 6.298,4.899 6.561,4.939 6.825,4.979 7.084,5.042 7.331,5.117 A 6.468,6.468 0 0 1 8.626,5.676 C 8.8,5.776 8.949,5.873 9.065,5.961 9.18,6.05 9.264,6.128 9.307,6.189 9.35,6.249 9.354,6.293 9.31,6.311 A 8.999,8.999 0 0 1 8.42,7.357 7.36,7.36 0 0 1 7.49,8.151 6.274,6.274 0 0 1 5.566,9.091 C 5.541,9.099 5.516,9.101 5.491,9.107 5.505,9.117 5.511,9.136 5.527,9.145 7.32,8.905 8.943,7.85 10.44,6.188 L 11.567,5.33 C 11.191,5.6 10.78,5.837 10.307,6.01 10.214,5.944 10.119,5.876 10.027,5.814 L 11.289,4.852 A 5.108,5.108 0 0 1 9.739,5.629 12.542,12.542 0 0 0 9.399,5.42 L 10.655,4.463 A 5.105,5.105 0 0 1 9.093,5.244 9.921,9.921 0 0 0 8.534,4.96 L 9.799,3.997 C 9.327,4.336 8.799,4.62 8.164,4.796 A 7.44,7.44 0 0 0 7.444,4.536 L 8.576,3.674 A 5.13,5.13 0 0 1 7.069,4.436 5.707,5.707 0 0 0 6.517,4.335 Z M 5.595,5.497 a 0.865,0.865 0 0 0 -0.313,0.059 0.613,0.613 0 0 1 0.007,0.006 0.613,0.613 0 0 1 0.035,0.05 0.613,0.613 0 0 1 0.03,0.053 0.613,0.613 0 0 1 0.025,0.056 0.613,0.613 0 0 1 0.02,0.058 0.613,0.613 0 0 1 0.014,0.06 A 0.613,0.613 0 0 1 5.42,5.899 0.613,0.613 0 0 1 5.421,5.944 0.613,0.613 0 0 1 5.418,6.004 0.613,0.613 0 0 1 5.408,6.065 0.613,0.613 0 0 1 5.394,6.125 0.613,0.613 0 0 1 5.373,6.183 0.613,0.613 0 0 1 5.346,6.237 0.613,0.613 0 0 1 5.314,6.289 0.613,0.613 0 0 1 5.277,6.339 0.613,0.613 0 0 1 5.235,6.383 0.613,0.613 0 0 1 5.189,6.423 0.613,0.613 0 0 1 5.139,6.46 0.613,0.613 0 0 1 5.086,6.49 0.613,0.613 0 0 1 5.03,6.515 0.613,0.613 0 0 1 4.972,6.534 0.613,0.613 0 0 1 4.912,6.548 0.613,0.613 0 0 1 4.852,6.555 0.613,0.613 0 0 1 4.808,6.557 0.613,0.613 0 0 1 4.754,6.554 0.865,0.865 0 0 0 5.595,7.226 0.865,0.865 0 0 0 6.46,6.362 0.865,0.865 0 0 0 5.595,5.497 Z"
     id="path2"
     inkscape:connector-curvature="0"
     style="fill:#bde6fb;fill-opacity:1" />
  <path
     d="M 5.952,4.886 A 3.165,3.165 0 0 0 4.975,5.018 C 4.424,5.189 3.847,5.676 3.325,6.241 A 2.217,2.217 0 0 0 7.75,6.063 2.225,2.225 0 0 0 7.572,5.198 5.14,5.14 0 0 0 5.952,4.886 Z M 4.808,5.33 A 0.613,0.613 0 0 1 5.421,5.944 0.613,0.613 0 0 1 4.808,6.557 0.613,0.613 0 0 1 4.195,5.944 0.613,0.613 0 0 1 4.808,5.33 Z"
     id="path4"
     inkscape:connector-curvature="0"
     style="opacity:0.75;fill:#bde6fb;fill-opacity:1" />
</svg>
