<?xml version="1.0" encoding="UTF-8" standalone="no"?>
<svg
   width="47.542679"
   height="47.546455"
   viewBox="0 0 12.579 12.58"
   version="1.1"
   id="svg6"
   sodipodi:docname="arping.svg"
   inkscape:version="0.92.5 (2060ec1f9f, 2020-04-08)"
   xmlns:inkscape="http://www.inkscape.org/namespaces/inkscape"
   xmlns:sodipodi="http://sodipodi.sourceforge.net/DTD/sodipodi-0.dtd"
   xmlns="http://www.w3.org/2000/svg"
   xmlns:svg="http://www.w3.org/2000/svg"
   xmlns:rdf="http://www.w3.org/1999/02/22-rdf-syntax-ns#"
   xmlns:cc="http://creativecommons.org/ns#"
   xmlns:dc="http://purl.org/dc/elements/1.1/">
  <metadata
     id="metadata12">
    <rdf:RDF>
      <cc:Work
         rdf:about="">
        <dc:format>image/svg+xml</dc:format>
        <dc:type
           rdf:resource="http://purl.org/dc/dcmitype/StillImage" />
        <dc:title />
      </cc:Work>
    </rdf:RDF>
  </metadata>
  <defs
     id="defs10" />
  <sodipodi:namedview
     pagecolor="#ffffff"
     bordercolor="#666666"
     borderopacity="1"
     objecttolerance="10"
     gridtolerance="10"
     guidetolerance="10"
     inkscape:pageopacity="0"
     inkscape:pageshadow="2"
     inkscape:window-width="1085"
     inkscape:window-height="480"
     id="namedview8"
     showgrid="false"
     inkscape:zoom="4.9166667"
     inkscape:cx="2.1355932"
     inkscape:cy="24"
     inkscape:window-x="0"
     inkscape:window-y="25"
     inkscape:window-maximized="0"
     inkscape:current-layer="svg6"
     inkscape:showpageshadow="0"
     inkscape:pagecheckerboard="0"
     inkscape:deskcolor="#d1d1d1" />
  <path
     d="M 6.285,0 A 6.295,6.295 0 0 0 0,6.285 6.295,6.295 0 0 0 6.285,12.58 6.295,6.295 0 0 0 12.579,6.285 6.295,6.295 0 0 0 6.285,0 Z M 6.274,0.94 a 5.408,5.408 0 0 1 5.397,5.387 5.407,5.407 0 0 1 -10.814,0 C 0.857,3.34 3.287,0.94 6.274,0.94 Z M 2.082,5.335 1.379,7.312 H 1.906 L 2.026,6.904 H 2.714 L 2.843,7.312 H 3.387 L 2.712,5.335 Z m 1.487,0 V 7.312 H 4.062 V 6.637 h 0.22 L 4.666,7.312 H 5.258 L 4.765,6.534 A 0.66,0.66 0 0 0 5.121,5.933 C 5.121,5.551 4.848,5.335 4.384,5.335 Z m 0.493,0.43 h 0.253 c 0.185,0 0.294,0.089 0.294,0.237 0,0.134 -0.08,0.216 -0.225,0.216 H 4.062 Z M 2.364,5.771 2.578,6.46 H 2.159 L 2.364,5.77 Z m 7.318,1.94 c -0.7,0 -1.148,0.421 -1.148,1.04 0,0.595 0.416,0.993 1.037,0.993 0.313,0 0.581,-0.094 0.803,-0.282 V 8.545 H 9.486 V 8.961 H 9.904 V 9.26 A 0.582,0.582 0 0 1 9.631,9.317 c -0.356,0 -0.579,-0.231 -0.579,-0.607 0,-0.367 0.214,-0.564 0.616,-0.564 0.168,0 0.364,0.032 0.495,0.077 L 10.3,7.836 A 1.495,1.495 0 0 0 9.682,7.711 Z M 5.481,7.739 v 1.977 h 0.5 V 7.739 Z m 0.905,0 V 9.716 H 6.854 V 8.417 l 0.82,1.299 H 8.227 V 7.739 H 7.754 L 7.748,9.026 6.95,7.739 Z"
     id="path2"
     inkscape:connector-curvature="0"
     style="fill:#bde6fb;fill-opacity:1" />
  <path
     style="color:#000000;font-variant-ligatures:normal;font-variant-position:normal;font-variant-caps:normal;font-variant-numeric:normal;font-variant-alternates:normal;font-feature-settings:normal;text-indent:0;text-decoration:none;text-decoration-line:none;text-decoration-style:solid;text-decoration-color:#000000;text-transform:none;text-orientation:mixed;white-space:normal;shape-padding:0;clip-rule:evenodd;opacity:0.8;isolation:auto;mix-blend-mode:normal;solid-color:#000000;fill:#54bd8e;fill-rule:evenodd"
     d="M 6.348,1.673 C 6.164,1.683 5.98,1.707 5.798,1.747 A 0.386,0.386 0 0 0 5.63,1.838 0.168,0.168 0 0 0 5.597,1.883 l -0.17,0.35 A 0.029,0.029 0 0 0 5.46,2.274 L 5.548,2.253 A 0.029,0.029 0 0 0 5.568,2.237 L 5.666,2.034 C 5.856,1.991 6.049,1.964 6.242,1.954 A 0.029,0.029 0 0 0 6.267,1.937 L 6.294,1.881 A 0.029,0.029 0 0 0 6.267,1.841 3.38,3.38 0 0 0 5.724,1.914 L 5.747,1.867 C 5.937,1.823 6.13,1.797 6.323,1.787 A 0.029,0.029 0 0 0 6.348,1.77 L 6.375,1.715 A 0.029,0.029 0 0 0 6.35,1.674 a 0.029,0.029 0 0 0 -0.002,0 z M 6.752,1.676 A 0.277,0.277 0 0 0 6.642,1.699 0.223,0.223 0 0 0 6.592,1.73 0.128,0.128 0 0 0 6.556,1.773 L 6.386,2.125 A 0.029,0.029 0 0 0 6.41,2.166 L 6.5,2.17 A 0.029,0.029 0 0 0 6.528,2.154 L 6.624,1.956 c 0.192,0.011 0.383,0.038 0.57,0.079 A 0.029,0.029 0 0 0 7.227,2.019 L 7.254,1.964 A 0.029,0.029 0 0 0 7.256,1.951 0.029,0.029 0 0 0 7.234,1.923 3.733,3.733 0 0 0 6.678,1.845 L 6.705,1.789 C 6.897,1.8 7.088,1.826 7.275,1.868 A 0.029,0.029 0 0 0 7.308,1.852 L 7.335,1.797 A 0.029,0.029 0 0 0 7.315,1.756 3.717,3.717 0 0 0 6.752,1.676 Z M 6.466,1.788 H 6.375 A 0.029,0.029 0 0 0 6.35,1.804 l -0.034,0.07 a 0.029,0.029 0 0 0 0.026,0.042 h 0.09 A 0.029,0.029 0 0 0 6.458,1.899 L 6.492,1.829 A 0.029,0.029 0 0 0 6.466,1.788 Z M 5.578,1.802 a 0.029,0.029 0 0 0 -0.003,0 C 5.396,1.855 5.22,1.924 5.05,2.01 A 0.44,0.44 0 0 0 4.938,2.088 0.483,0.483 0 0 0 4.894,2.134 0.226,0.226 0 0 0 4.864,2.179 C 4.807,2.296 4.749,2.413 4.693,2.531 a 0.029,0.029 0 0 0 0.04,0.037 L 4.815,2.523 A 0.029,0.029 0 0 0 4.828,2.51 l 0.1,-0.206 C 5.108,2.211 5.294,2.136 5.483,2.081 A 0.029,0.029 0 0 0 5.501,2.066 L 5.528,2.01 A 0.029,0.029 0 0 0 5.494,1.97 C 5.324,2.02 5.158,2.088 4.994,2.167 L 5.009,2.137 C 5.189,2.044 5.375,1.97 5.564,1.914 A 0.029,0.029 0 0 0 5.582,1.899 L 5.609,1.843 a 0.029,0.029 0 0 0 -0.025,-0.04 0.029,0.029 0 0 0 -0.006,0 z m 1.894,0 A 0.248,0.248 0 0 0 7.412,1.812 0.176,0.176 0 0 0 7.36,1.835 0.112,0.112 0 0 0 7.323,1.878 l -0.17,0.351 a 0.029,0.029 0 0 0 0.018,0.04 L 7.259,2.292 A 0.029,0.029 0 0 0 7.292,2.277 L 7.386,2.084 c 0.185,0.05 0.366,0.114 0.54,0.192 A 0.029,0.029 0 0 0 7.964,2.262 L 7.991,2.207 A 0.029,0.029 0 0 0 7.977,2.167 3.918,3.918 0 0 0 7.439,1.976 l 0.029,-0.06 c 0.184,0.05 0.364,0.115 0.539,0.192 A 0.029,0.029 0 0 0 8.045,2.095 L 8.072,2.039 A 0.029,0.029 0 0 0 8.058,2 3.937,3.937 0 0 0 7.537,1.812 0.223,0.223 0 0 0 7.472,1.802 Z M 6.402,1.92 H 6.311 A 0.029,0.029 0 0 0 6.285,1.937 L 6.252,2.006 a 0.029,0.029 0 0 0 -0.003,0.013 0.029,0.029 0 0 0 0.03,0.028 h 0.09 A 0.029,0.029 0 0 0 6.394,2.03 L 6.428,1.961 A 0.029,0.029 0 0 0 6.402,1.92 Z m 1.66,0.232 A 0.029,0.029 0 0 0 8.04,2.168 l -0.034,0.07 a 0.029,0.029 0 0 0 0.013,0.038 l 0.083,0.04 A 0.029,0.029 0 0 0 8.14,2.302 L 8.174,2.232 A 0.029,0.029 0 0 0 8.161,2.194 4.642,4.642 0 0 0 8.078,2.154 0.029,0.029 0 0 0 8.067,2.152 a 0.029,0.029 0 0 0 -0.006,0 z M 8.331,2.163 8.317,2.164 a 0.125,0.125 0 0 0 -0.052,0.017 0.096,0.096 0 0 0 -0.037,0.04 0.029,0.029 0 0 0 0,10e-4 L 8.057,2.573 a 0.029,0.029 0 0 0 0.012,0.038 l 0.08,0.044 A 0.029,0.029 0 0 0 8.189,2.642 L 8.279,2.455 C 8.443,2.549 8.601,2.653 8.749,2.77 A 0.029,0.029 0 0 0 8.793,2.76 C 8.801,2.741 8.811,2.723 8.82,2.704 A 0.029,0.029 0 0 0 8.822,2.691 0.029,0.029 0 0 0 8.812,2.669 3.89,3.89 0 0 0 8.332,2.347 L 8.36,2.287 c 0.164,0.094 0.322,0.2 0.47,0.316 A 0.029,0.029 0 0 0 8.873,2.593 L 8.901,2.537 A 0.029,0.029 0 0 0 8.892,2.502 3.862,3.862 0 0 0 8.434,2.192 0.213,0.213 0 0 0 8.331,2.163 Z M 4.682,2.23 A 0.029,0.029 0 0 0 4.668,2.235 3.332,3.332 0 0 0 4.153,2.676 1.297,1.297 0 0 0 4.069,2.788 L 4.058,2.808 A 0.029,0.029 0 0 0 4.024,2.815 3.918,3.918 0 0 0 3.52,3.56 L 3.496,3.607 3.326,3.959 A 0.029,0.029 0 0 0 3.376,3.985 4.32,4.32 0 0 1 3.434,3.883 0.029,0.029 0 0 0 3.435,3.881 L 3.539,3.667 C 3.641,3.491 3.754,3.334 3.871,3.187 A 0.029,0.029 0 0 0 3.918,3.218 L 3.989,3.143 A 0.029,0.029 0 0 0 3.994,3.136 L 4.097,2.925 a 3.29,3.29 0 0 1 0.48,-0.408 0.029,0.029 0 0 0 0.042,0.037 l 0.08,-0.05 A 0.029,0.029 0 0 0 4.71,2.491 L 4.744,2.422 A 0.029,0.029 0 0 0 4.737,2.388 L 4.763,2.372 A 0.029,0.029 0 0 0 4.774,2.36 L 4.808,2.29 A 0.029,0.029 0 0 0 4.768,2.253 2.988,2.988 0 0 0 4.698,2.297 L 4.71,2.272 A 0.029,0.029 0 0 0 4.685,2.231 V 2.23 a 0.029,0.029 0 0 0 -0.003,0 z M 8,2.283 A 0.029,0.029 0 0 0 7.976,2.3 L 7.942,2.369 A 0.029,0.029 0 0 0 7.956,2.408 C 7.983,2.42 8.011,2.433 8.038,2.447 A 0.029,0.029 0 0 0 8.076,2.434 L 8.11,2.364 A 0.029,0.029 0 0 0 8.097,2.326 L 8.014,2.286 A 0.029,0.029 0 0 0 8.003,2.284 V 2.283 A 0.029,0.029 0 0 0 8,2.283 Z M 4.659,2.349 4.641,2.385 A 0.029,0.029 0 0 0 4.648,2.419 L 4.632,2.429 A 0.029,0.029 0 0 0 4.594,2.399 C 4.616,2.382 4.637,2.364 4.659,2.349 Z m 1.575,0.209 c -0.15,0.007 -0.3,0.027 -0.446,0.06 A 0.325,0.325 0 0 0 5.691,2.66 0.248,0.248 0 0 0 5.653,2.691 0.13,0.13 0 0 0 5.627,2.726 L 5.487,3.014 A 0.02,0.02 0 0 0 5.51,3.04 L 5.582,3.022 A 0.02,0.02 0 0 0 5.595,3.012 L 5.675,2.844 C 5.831,2.808 5.989,2.786 6.148,2.778 A 0.02,0.02 0 0 0 6.164,2.768 L 6.186,2.722 A 0.02,0.02 0 0 0 6.168,2.694 C 6.017,2.702 5.867,2.724 5.718,2.756 L 5.742,2.708 C 5.897,2.672 6.055,2.65 6.214,2.642 A 0.02,0.02 0 0 0 6.23,2.631 L 6.252,2.585 a 0.02,0.02 0 0 0 -0.017,-0.027 0.02,0.02 0 0 0 -0.001,0 z M 6.55,2.56 V 2.561 L 6.523,2.564 A 0.215,0.215 0 0 0 6.436,2.604 0.102,0.102 0 0 0 6.408,2.637 L 6.268,2.925 A 0.02,0.02 0 0 0 6.285,2.953 L 6.359,2.956 A 0.02,0.02 0 0 0 6.377,2.945 l 0.08,-0.164 c 0.157,0.01 0.314,0.03 0.468,0.065 A 0.02,0.02 0 0 0 6.945,2.834 L 6.967,2.789 a 0.02,0.02 0 0 0 0,-0.013 A 0.02,0.02 0 0 0 6.954,2.762 L 6.952,2.761 A 3.01,3.01 0 0 0 6.495,2.697 L 6.521,2.643 c 0.158,0.01 0.315,0.03 0.469,0.065 A 0.02,0.02 0 0 0 7.01,2.698 L 7.033,2.652 A 0.02,0.02 0 0 0 7.02,2.625 3.01,3.01 0 0 0 6.549,2.56 Z M 8.96,2.6 A 0.1,0.1 0 0 0 8.91,2.612 0.087,0.087 0 0 0 8.873,2.652 l -0.17,0.35 a 0.029,0.029 0 0 0 0.006,0.036 l 0.07,0.058 A 0.029,0.029 0 0 0 8.823,3.087 L 8.911,2.907 C 9.05,3.029 9.181,3.162 9.299,3.304 A 0.029,0.029 0 0 0 9.346,3.298 L 9.374,3.242 A 0.029,0.029 0 0 0 9.369,3.212 3.647,3.647 0 0 0 8.964,2.797 L 8.992,2.739 c 0.14,0.123 0.27,0.256 0.388,0.398 A 0.029,0.029 0 0 0 9.428,3.132 L 9.454,3.076 A 0.029,0.029 0 0 0 9.45,3.045 3.608,3.608 0 0 0 9.067,2.648 0.2,0.2 0 0 0 9.015,2.614 0.144,0.144 0 0 0 8.961,2.601 Z M 6.33,2.651 6.256,2.652 A 0.02,0.02 0 0 0 6.239,2.663 L 6.211,2.72 A 0.02,0.02 0 0 0 6.229,2.748 L 6.303,2.747 A 0.02,0.02 0 0 0 6.32,2.736 L 6.348,2.679 A 0.02,0.02 0 0 0 6.33,2.652 Z M 5.608,2.663 a 0.02,0.02 0 0 0 -0.002,0 A 2.58,2.58 0 0 0 5.178,2.833 0.346,0.346 0 0 0 5.088,2.896 0.368,0.368 0 0 0 5.053,2.933 0.185,0.185 0 0 0 5.029,2.969 L 4.889,3.256 A 0.02,0.02 0 0 0 4.917,3.281 L 4.984,3.245 A 0.02,0.02 0 0 0 4.992,3.235 C 5.02,3.179 5.048,3.123 5.075,3.065 5.222,2.989 5.375,2.929 5.529,2.883 A 0.02,0.02 0 0 0 5.541,2.873 L 5.563,2.828 A 0.02,0.02 0 0 0 5.545,2.8 0.02,0.02 0 0 0 5.54,2.8 2.592,2.592 0 0 0 5.123,2.966 L 5.141,2.929 C 5.288,2.853 5.44,2.792 5.595,2.746 A 0.02,0.02 0 0 0 5.607,2.736 L 5.629,2.691 a 0.02,0.02 0 0 0 -0.017,-0.028 0.02,0.02 0 0 0 -0.004,0 z m 1.542,0 A 0.18,0.18 0 0 0 7.102,2.671 0.132,0.132 0 0 0 7.061,2.69 0.085,0.085 0 0 0 7.031,2.722 L 6.893,3.01 A 0.02,0.02 0 0 0 6.906,3.036 L 6.978,3.055 A 0.02,0.02 0 0 0 7,3.045 L 7.078,2.883 c 0.151,0.042 0.3,0.095 0.443,0.159 A 0.02,0.02 0 0 0 7.546,3.032 L 7.568,2.987 A 0.02,0.02 0 0 0 7.559,2.961 3.181,3.181 0 0 0 7.117,2.803 L 7.144,2.747 c 0.151,0.042 0.3,0.094 0.443,0.158 A 0.02,0.02 0 0 0 7.612,2.896 L 7.634,2.85 A 0.02,0.02 0 0 0 7.625,2.825 3.198,3.198 0 0 0 7.201,2.671 0.181,0.181 0 0 0 7.15,2.664 Z M 6.278,2.759 6.204,2.76 A 0.02,0.02 0 0 0 6.187,2.77 L 6.16,2.828 a 0.02,0.02 0 0 0 -0.002,0.008 0.02,0.02 0 0 0 0.02,0.02 L 6.251,2.855 A 0.02,0.02 0 0 0 6.268,2.844 L 6.296,2.787 A 0.02,0.02 0 0 0 6.278,2.759 Z M 7.63,2.949 A 0.02,0.02 0 0 0 7.616,2.96 L 7.588,3.017 a 0.02,0.02 0 0 0 0.01,0.025 C 7.62,3.052 7.641,3.064 7.663,3.075 A 0.02,0.02 0 0 0 7.689,3.065 L 7.717,3.009 A 0.02,0.02 0 0 0 7.708,2.984 C 7.686,2.973 7.664,2.961 7.641,2.951 a 0.02,0.02 0 0 0 -0.01,-0.002 0.02,0.02 0 0 0 -0.001,0 z m 0.219,0.01 h -0.01 a 0.02,0.02 0 0 0 -0.002,0 0.099,0.099 0 0 0 -0.04,0.014 0.074,0.074 0 0 0 -0.03,0.031 L 7.629,3.292 A 0.02,0.02 0 0 0 7.637,3.317 L 7.702,3.352 A 0.02,0.02 0 0 0 7.729,3.344 L 7.804,3.187 C 7.94,3.264 8.07,3.35 8.192,3.447 A 0.02,0.02 0 0 0 8.22,3.44 L 8.242,3.395 A 0.02,0.02 0 0 0 8.24,3.373 0.02,0.02 0 0 0 8.238,3.371 3.146,3.146 0 0 0 7.843,3.107 L 7.871,3.05 C 8.006,3.128 8.136,3.214 8.258,3.31 A 0.02,0.02 0 0 0 8.287,3.304 L 8.309,3.258 A 0.02,0.02 0 0 0 8.303,3.235 3.17,3.17 0 0 0 7.931,2.982 0.167,0.167 0 0 0 7.848,2.959 Z M 4.878,3.013 A 0.02,0.02 0 0 0 4.868,3.016 2.702,2.702 0 0 0 4.45,3.376 0.944,0.944 0 0 0 4.382,3.467 L 4.371,3.487 A 0.02,0.02 0 0 0 4.345,3.49 3.206,3.206 0 0 0 3.993,3.99 L 3.962,4.047 3.935,4.097 3.915,4.137 3.777,4.424 A 0.02,0.02 0 0 0 3.811,4.441 L 3.858,4.358 A 0.02,0.02 0 0 0 3.859,4.356 L 3.944,4.181 C 4.034,4.024 4.134,3.885 4.239,3.756 L 4.222,3.792 A 0.02,0.02 0 0 0 4.253,3.814 2.62,2.62 0 0 1 4.311,3.752 0.02,0.02 0 0 0 4.314,3.747 L 4.398,3.574 C 4.526,3.442 4.661,3.328 4.803,3.23 a 0.02,0.02 0 0 0 0.001,0 L 4.796,3.245 A 0.02,0.02 0 0 0 4.824,3.269 L 4.89,3.229 A 0.02,0.02 0 0 0 4.898,3.219 L 4.925,3.163 A 0.02,0.02 0 0 0 4.915,3.137 C 4.925,3.132 4.933,3.126 4.942,3.12 A 0.02,0.02 0 0 0 4.949,3.112 L 4.977,3.056 A 0.02,0.02 0 0 0 4.95,3.031 2.624,2.624 0 0 0 4.883,3.073 0.02,0.02 0 0 0 4.881,3.074 C 4.887,3.064 4.891,3.052 4.897,3.041 A 0.02,0.02 0 0 0 4.88,3.013 a 0.02,0.02 0 0 0 -0.002,0 z m 2.7,0.044 A 0.02,0.02 0 0 0 7.564,3.067 C 7.554,3.087 7.544,3.105 7.536,3.124 A 0.02,0.02 0 0 0 7.546,3.15 L 7.612,3.182 A 0.02,0.02 0 0 0 7.638,3.173 L 7.665,3.117 A 0.02,0.02 0 0 0 7.656,3.091 2.523,2.523 0 0 0 7.589,3.058 0.02,0.02 0 0 0 7.579,3.057 a 0.02,0.02 0 0 0 -10e-4,0 z M 4.87,3.092 4.848,3.137 A 0.02,0.02 0 0 0 4.858,3.163 1.907,1.907 0 0 0 4.83,3.18 0.02,0.02 0 0 0 4.829,3.182 L 4.83,3.178 A 0.02,0.02 0 0 0 4.803,3.153 2.66,2.66 0 0 0 4.606,3.303 C 4.691,3.227 4.778,3.156 4.868,3.093 a 0.02,0.02 0 0 0 0.002,0 z M 9.424,3.218 A 0.029,0.029 0 0 0 9.398,3.235 l -0.033,0.07 a 0.029,0.029 0 0 0 0.003,0.03 l 0.054,0.07 A 0.029,0.029 0 0 0 9.472,3.401 L 9.505,3.332 A 0.029,0.029 0 0 0 9.503,3.302 L 9.447,3.229 A 0.029,0.029 0 0 0 9.424,3.219 Z M 9.602,3.311 A 0.074,0.074 0 0 0 9.528,3.356 L 9.357,3.707 a 0.029,0.029 0 0 0 0.002,0.03 C 9.377,3.761 9.394,3.786 9.41,3.811 A 0.029,0.029 0 0 0 9.46,3.807 L 9.542,3.64 C 9.639,3.792 9.726,3.95 9.798,4.119 A 0.029,0.029 0 0 0 9.85,4.12 L 9.877,4.064 a 0.029,0.029 0 0 0 0,-0.024 3.294,3.294 0 0 0 -0.278,-0.518 l 0.024,-0.05 c 0.098,0.153 0.185,0.312 0.256,0.48 a 0.029,0.029 0 0 0 0.052,0 C 9.941,3.934 9.949,3.915 9.958,3.897 a 0.029,0.029 0 0 0 0,-0.024 A 3.27,3.27 0 0 0 9.7,3.384 0.2,0.2 0 0 0 9.66,3.338 0.117,0.117 0 0 0 9.615,3.313 Z M 8.361,3.316 A 0.076,0.076 0 0 0 8.322,3.325 0.069,0.069 0 0 0 8.293,3.355 L 8.154,3.643 A 0.02,0.02 0 0 0 8.159,3.666 L 8.215,3.713 A 0.02,0.02 0 0 0 8.245,3.707 L 8.319,3.555 c 0.115,0.101 0.223,0.21 0.32,0.329 A 0.02,0.02 0 0 0 8.672,3.88 L 8.693,3.835 A 0.02,0.02 0 0 0 8.691,3.815 2.958,2.958 0 0 0 8.358,3.473 C 8.368,3.455 8.376,3.436 8.385,3.418 8.5,3.519 8.608,3.629 8.705,3.748 A 0.02,0.02 0 0 0 8.737,3.743 L 8.759,3.698 A 0.02,0.02 0 0 0 8.757,3.678 2.95,2.95 0 0 0 8.445,3.354 0.16,0.16 0 0 0 8.403,3.326 0.118,0.118 0 0 0 8.362,3.316 Z M 9.358,3.35 A 0.029,0.029 0 0 0 9.335,3.366 l -0.034,0.07 a 0.029,0.029 0 0 0 0.003,0.03 L 9.359,3.538 A 0.029,0.029 0 0 0 9.407,3.533 L 9.442,3.463 A 0.029,0.029 0 0 0 9.439,3.433 5.848,5.848 0 0 0 9.383,3.361 0.029,0.029 0 0 0 9.361,3.351 a 0.029,0.029 0 0 0 -0.003,0 z M 6.108,3.38 A 2.225,2.225 0 0 0 5.743,3.429 0.204,0.204 0 0 0 5.666,3.463 0.198,0.198 0 0 0 5.636,3.488 0.102,0.102 0 0 0 5.616,3.515 L 5.501,3.751 a 0.01,0.01 0 0 0 0,10e-4 0.01,0.01 0 0 0 0,0.005 0.01,0.01 0 0 0 10e-4,0.003 0.01,0.01 0 0 0 0.002,0.002 0.01,0.01 0 0 0 0.002,0.002 0.01,0.01 0 0 0 0.005,0 0.01,0.01 0 0 0 0.002,0 L 5.572,3.749 A 0.01,0.01 0 0 0 5.574,3.748 0.01,0.01 0 0 0 5.576,3.747 0.01,0.01 0 0 0 5.577,3.745 0.01,0.01 0 0 0 5.578,3.744 L 5.646,3.604 C 5.775,3.574 5.906,3.555 6.037,3.549 A 0.01,0.01 0 0 0 6.039,3.548 0.01,0.01 0 0 0 6.041,3.547 0.01,0.01 0 0 0 6.043,3.546 0.01,0.01 0 0 0 6.044,3.544 a 0.01,0.01 0 0 0 0,-10e-4 L 6.063,3.506 A 0.01,0.01 0 0 0 6.064,3.503 0.01,0.01 0 0 0 6.063,3.497 0.01,0.01 0 0 0 6.062,3.496 0.01,0.01 0 0 0 6.061,3.494 a 0.01,0.01 0 0 0 -0.002,0 0.01,0.01 0 0 0 -0.001,-0.002 0.01,0.01 0 0 0 -0.004,0 2.236,2.236 0 0 0 -0.38,0.052 L 5.7,3.491 C 5.83,3.461 5.96,3.443 6.09,3.436 A 0.01,0.01 0 0 0 6.096,3.435 0.01,0.01 0 0 0 6.097,3.434 0.01,0.01 0 0 0 6.099,3.431 L 6.117,3.394 a 0.01,0.01 0 0 0 0.001,-0.003 0.01,0.01 0 0 0 0,-0.006 0.01,0.01 0 0 0 -0.002,-10e-4 0.01,0.01 0 0 0 0,-0.002 0.01,0.01 0 0 0 -0.002,0 0.01,0.01 0 0 0 -0.004,-0.002 0.01,0.01 0 0 0 -0.002,0 z m 0.26,0.002 A 0.182,0.182 0 0 0 6.309,3.396 0.141,0.141 0 0 0 6.277,3.416 0.077,0.077 0 0 0 6.256,3.442 L 6.142,3.677 a 0.01,0.01 0 0 0 0,0.002 0.01,0.01 0 0 0 0,0.005 0.01,0.01 0 0 0 10e-4,0.003 0.01,0.01 0 0 0 0.001,0.002 0.01,0.01 0 0 0 0.002,0 0.01,0.01 0 0 0 0.002,0.002 0.01,0.01 0 0 0 0.002,0 l 0.06,0.003 a 0.01,0.01 0 0 0 0.004,0 A 0.01,0.01 0 0 0 6.217,3.692 0.01,0.01 0 0 0 6.219,3.69 0.01,0.01 0 0 0 6.22,3.688 L 6.287,3.55 c 0.13,0.007 0.26,0.025 0.389,0.053 a 0.01,0.01 0 0 0 0.006,0 0.01,0.01 0 0 0 0.002,-0.002 0.01,0.01 0 0 0 0.002,-0.002 0.01,0.01 0 0 0 0,-0.001 L 6.704,3.561 A 0.01,0.01 0 0 0 6.704,3.56 0.01,0.01 0 0 0 6.705,3.554 0.01,0.01 0 0 0 6.703,3.55 0.01,0.01 0 0 0 6.702,3.549 0.01,0.01 0 0 0 6.699,3.548 0.01,0.01 0 0 0 6.699,3.547 2.457,2.457 0 0 0 6.314,3.494 L 6.341,3.437 c 0.13,0.008 0.26,0.026 0.39,0.054 a 0.01,0.01 0 0 0 0.005,0 0.01,0.01 0 0 0 0.002,-0.002 0.01,0.01 0 0 0 0.002,-0.002 0.01,0.01 0 0 0 0,-10e-4 L 6.759,3.448 a 0.01,0.01 0 0 0 0,-0.005 A 0.01,0.01 0 0 0 6.758,3.44 0.01,0.01 0 0 0 6.757,3.438 0.01,0.01 0 0 0 6.755,3.436 0.01,0.01 0 0 0 6.752,3.435 2.461,2.461 0 0 0 6.367,3.382 Z M 6.187,3.457 H 6.126 A 0.01,0.01 0 0 0 6.122,3.458 0.01,0.01 0 0 0 6.12,3.46 0.01,0.01 0 0 0 6.118,3.463 L 6.095,3.509 a 0.01,0.01 0 0 0 -10e-4,0.003 0.01,0.01 0 0 0 10e-4,0.006 0.01,0.01 0 0 0 0.001,0.001 0.01,0.01 0 0 0 0.001,0.002 0.01,0.01 0 0 0 0.002,0 0.01,0.01 0 0 0 0.002,0.002 0.01,0.01 0 0 0 0.003,0 h 0.06 a 0.01,0.01 0 0 0 0.005,-0.002 0.01,0.01 0 0 0 0.001,0 0.01,0.01 0 0 0 0.003,-0.003 0.01,0.01 0 0 0 0,-10e-4 L 6.196,3.471 a 0.01,0.01 0 0 0 0,-0.005 0.01,0.01 0 0 0 0,-0.005 A 0.01,0.01 0 0 0 6.193,3.459 0.01,0.01 0 0 0 6.19,3.457 a 0.01,0.01 0 0 0 -0.003,0 z m 0.672,0.01 A 0.134,0.134 0 0 0 6.821,3.472 0.109,0.109 0 0 0 6.79,3.487 0.067,0.067 0 0 0 6.768,3.511 L 6.654,3.747 a 0.01,0.01 0 0 0 0,0.005 0.01,0.01 0 0 0 0,0.004 0.01,0.01 0 0 0 0.002,0.002 0.01,0.01 0 0 0 0.003,0.002 0.01,0.01 0 0 0 0.001,0 l 0.06,0.016 a 0.01,0.01 0 0 0 0.004,0 A 0.01,0.01 0 0 0 6.727,3.774 0.01,0.01 0 0 0 6.729,3.772 0.01,0.01 0 0 0 6.73,3.771 L 6.797,3.634 c 0.126,0.034 0.25,0.078 0.37,0.131 A 0.01,0.01 0 0 0 7.171,3.766 0.01,0.01 0 0 0 7.175,3.765 0.01,0.01 0 0 0 7.177,3.764 0.01,0.01 0 0 0 7.177,3.762 0.01,0.01 0 0 0 7.179,3.761 L 7.197,3.723 a 0.01,0.01 0 0 0 0,-10e-4 0.01,0.01 0 0 0 0,-0.006 A 0.01,0.01 0 0 0 7.196,3.713 0.01,0.01 0 0 0 7.194,3.711 0.01,0.01 0 0 0 7.192,3.711 2.586,2.586 0 0 0 6.823,3.579 L 6.851,3.521 c 0.126,0.035 0.25,0.079 0.37,0.132 a 0.01,0.01 0 0 0 0.006,0 0.01,0.01 0 0 0 0.002,0 0.01,0.01 0 0 0 0.002,-0.002 0.01,0.01 0 0 0 0.001,-10e-4 0.01,0.01 0 0 0 0,-10e-4 L 7.251,3.611 a 0.01,0.01 0 0 0 0,-0.001 0.01,0.01 0 0 0 0,-0.006 A 0.01,0.01 0 0 0 7.25,3.601 0.01,0.01 0 0 0 7.248,3.599 0.01,0.01 0 0 0 7.246,3.599 2.603,2.603 0 0 0 6.9,3.473 0.148,0.148 0 0 0 6.859,3.467 Z m -1.264,0 A 2.11,2.11 0 0 0 5.245,3.605 0.298,0.298 0 0 0 5.173,3.656 L 5.144,3.686 A 0.154,0.154 0 0 0 5.125,3.714 L 5.011,3.95 a 0.01,0.01 0 0 0 0,0.003 0.01,0.01 0 0 0 0,0.005 0.01,0.01 0 0 0 10e-4,0.002 0.01,0.01 0 0 0 0.001,10e-4 0.01,0.01 0 0 0 0.002,0.001 0.01,0.01 0 0 0 0.003,0.002 0.01,0.01 0 0 0 0.005,-10e-4 0.01,0.01 0 0 0 0.001,0 L 5.08,3.933 A 0.01,0.01 0 0 0 5.08,3.932 0.01,0.01 0 0 0 5.082,3.931 0.01,0.01 0 0 0 5.084,3.928 L 5.152,3.786 C 5.274,3.723 5.4,3.673 5.528,3.635 A 0.01,0.01 0 0 0 5.531,3.633 0.01,0.01 0 0 0 5.533,3.631 0.01,0.01 0 0 0 5.533,3.63 L 5.552,3.592 a 0.01,0.01 0 0 0 0,-0.003 0.01,0.01 0 0 0 0,-0.005 A 0.01,0.01 0 0 0 5.55,3.582 0.01,0.01 0 0 0 5.549,3.581 0.01,0.01 0 0 0 5.547,3.58 0.01,0.01 0 0 0 5.543,3.579 a 0.01,0.01 0 0 0 -0.002,0 0.01,0.01 0 0 0 -0.002,0 C 5.419,3.615 5.299,3.664 5.183,3.722 L 5.207,3.675 C 5.328,3.611 5.454,3.561 5.582,3.523 a 0.01,0.01 0 0 0 0.001,0 A 0.01,0.01 0 0 0 5.586,3.521 0.01,0.01 0 0 0 5.588,3.519 L 5.606,3.481 a 0.01,0.01 0 0 0 0,-0.003 0.01,0.01 0 0 0 0,-0.005 0.01,0.01 0 0 0 0,-0.002 A 0.01,0.01 0 0 0 5.603,3.469 0.01,0.01 0 0 0 5.602,3.468 0.01,0.01 0 0 0 5.597,3.467 a 0.01,0.01 0 0 0 -0.001,0 0.01,0.01 0 0 0 -0.001,0 z m 0.55,0.078 -0.062,10e-4 a 0.01,0.01 0 0 0 -0.002,0 0.01,0.01 0 0 0 -0.003,0.002 0.01,0.01 0 0 0 -0.002,10e-4 0.01,0.01 0 0 0 0,0.002 0.01,0.01 0 0 0 -10e-4,0 L 6.052,3.598 a 0.01,0.01 0 0 0 0,0.002 0.01,0.01 0 0 0 0,0.005 0.01,0.01 0 0 0 0.001,0.003 0.01,0.01 0 0 0 0.002,0.002 0.01,0.01 0 0 0 0.003,0.002 0.01,0.01 0 0 0 0.003,0 h 0.06 A 0.01,0.01 0 0 0 6.123,3.611 0.01,0.01 0 0 0 6.127,3.61 0.01,0.01 0 0 0 6.129,3.608 0.01,0.01 0 0 0 6.13,3.606 L 6.153,3.559 a 0.01,0.01 0 0 0 0,-0.006 0.01,0.01 0 0 0 -10e-4,-0.004 0.01,0.01 0 0 0 -0.003,-0.003 0.01,0.01 0 0 0 -0.003,0 0.01,0.01 0 0 0 -0.002,0 V 3.545 Z M 4.305,3.62 4.303,3.622 4.304,3.62 Z M 7.255,3.7 A 0.01,0.01 0 0 0 7.253,3.701 0.01,0.01 0 0 0 7.249,3.703 0.01,0.01 0 0 0 7.247,3.705 a 0.01,0.01 0 0 0 0,10e-4 5.721,5.721 0 0 1 -0.023,0.047 0.01,0.01 0 0 0 0,10e-4 0.01,0.01 0 0 0 0,0.005 0.01,0.01 0 0 0 10e-4,0.003 0.01,0.01 0 0 0 0.001,0.002 0.01,0.01 0 0 0 0.002,0.001 L 7.284,3.792 A 0.01,0.01 0 0 0 7.29,3.793 0.01,0.01 0 0 0 7.293,3.791 0.01,0.01 0 0 0 7.295,3.79 0.01,0.01 0 0 0 7.296,3.788 L 7.319,3.741 a 0.01,0.01 0 0 0 0,-0.003 0.01,0.01 0 0 0 0,-0.005 A 0.01,0.01 0 0 0 7.317,3.73 0.01,0.01 0 0 0 7.315,3.729 2.703,2.703 0 0 0 7.259,3.702 0.01,0.01 0 0 0 7.258,3.701 a 0.01,0.01 0 0 0 -0.002,0 0.01,0.01 0 0 0 -0.001,0 z M 7.441,3.709 H 7.425 A 0.077,0.077 0 0 0 7.395,3.719 0.054,0.054 0 0 0 7.373,3.742 L 7.259,3.978 A 0.01,0.01 0 0 0 7.258,3.983 0.01,0.01 0 0 0 7.259,3.987 0.01,0.01 0 0 0 7.26,3.989 0.01,0.01 0 0 0 7.263,3.991 L 7.316,4.02 a 0.01,0.01 0 0 0 0.004,0.001 0.01,0.01 0 0 0 0.005,0 A 0.01,0.01 0 0 0 7.327,4.019 0.01,0.01 0 0 0 7.328,4.018 0.01,0.01 0 0 0 7.33,4.016 L 7.395,3.881 c 0.113,0.064 0.222,0.137 0.324,0.217 a 0.01,0.01 0 0 0 0.003,0.002 0.01,0.01 0 0 0 0.005,0 0.01,0.01 0 0 0 0.003,-0.002 0.01,0.01 0 0 0 0.002,0 0.01,0.01 0 0 0 0,-0.002 0.01,0.01 0 0 0 10e-4,-0.001 L 7.751,4.058 a 0.01,0.01 0 0 0 0,-0.002 0.01,0.01 0 0 0 0,-0.006 0.01,0.01 0 0 0 0,-0.002 0.01,0.01 0 0 0 -0.002,-0.002 0.01,0.01 0 0 0 -10e-4,0 2.588,2.588 0 0 0 -0.327,-0.22 L 7.449,3.769 c 0.113,0.064 0.222,0.137 0.323,0.217 a 0.01,0.01 0 0 0 0.003,0.002 0.01,0.01 0 0 0 0.006,0 0.01,0.01 0 0 0 0.003,-0.002 0.01,0.01 0 0 0 0.001,0 0.01,0.01 0 0 0 10e-4,-0.002 0.01,0.01 0 0 0 0,-10e-4 L 7.805,3.945 A 0.01,0.01 0 0 0 7.806,3.943 0.01,0.01 0 0 0 7.806,3.938 0.01,0.01 0 0 0 7.804,3.936 0.01,0.01 0 0 0 7.803,3.934 2.585,2.585 0 0 0 7.495,3.725 0.133,0.133 0 0 0 7.44,3.708 Z M 4.995,3.753 A 0.01,0.01 0 0 0 4.992,3.755 2.207,2.207 0 0 0 4.649,4.049 0.714,0.714 0 0 0 4.594,4.124 L 4.58,4.149 A 0.01,0.01 0 0 0 4.578,4.144 0.01,0.01 0 0 0 4.578,4.142 0.01,0.01 0 0 0 4.576,4.141 0.01,0.01 0 0 0 4.574,4.139 0.01,0.01 0 0 0 4.57,4.139 0.01,0.01 0 0 0 4.565,4.14 0.01,0.01 0 0 0 4.564,4.141 0.01,0.01 0 0 0 4.563,4.142 2.622,2.622 0 0 0 4.275,4.552 C 4.265,4.568 4.258,4.583 4.25,4.598 L 4.228,4.64 4.212,4.671 4.098,4.907 a 0.01,0.01 0 0 0 0,0.001 0.01,0.01 0 0 0 0,0.006 0.01,0.01 0 0 0 0,0.003 0.01,0.01 0 0 0 0.003,0.003 0.01,0.01 0 0 0 0.002,0 A 0.01,0.01 0 0 0 4.108,4.921 0.01,0.01 0 0 0 4.112,4.92 0.01,0.01 0 0 0 4.113,4.918 0.01,0.01 0 0 0 4.115,4.916 L 4.154,4.848 4.224,4.703 C 4.309,4.556 4.402,4.425 4.502,4.308 L 4.462,4.39 a 0.01,0.01 0 0 0 0,0.005 0.01,0.01 0 0 0 0.001,0.004 0.01,0.01 0 0 0 0.001,0.001 0.01,0.01 0 0 0 0.002,0.002 0.01,0.01 0 0 0 10e-4,0 0.01,0.01 0 0 0 0.004,10e-4 0.01,0.01 0 0 0 0.004,0 0.01,0.01 0 0 0 0.002,-0.002 0.01,0.01 0 0 0 10e-4,0 L 4.526,4.35 a 0.01,0.01 0 0 0 0.001,-0.002 0.01,0.01 0 0 0 0,-10e-4 L 4.597,4.204 C 4.702,4.095 4.814,4 4.93,3.92 A 0.01,0.01 0 0 0 4.932,3.919 0.01,0.01 0 0 0 4.933,3.917 L 4.951,3.879 a 0.01,0.01 0 0 0 0,-10e-4 0.01,0.01 0 0 0 0,-0.006 0.01,0.01 0 0 0 0,-0.003 A 0.01,0.01 0 0 0 4.949,3.868 0.01,0.01 0 0 0 4.948,3.867 0.01,0.01 0 0 0 4.945,3.865 0.01,0.01 0 0 0 4.94,3.865 0.01,0.01 0 0 0 4.937,3.866 2.224,2.224 0 0 0 4.637,4.118 L 4.651,4.091 C 4.756,3.981 4.867,3.887 4.984,3.807 a 0.01,0.01 0 0 0 0.002,-10e-4 0.01,0.01 0 0 0 0,-0.002 0.01,0.01 0 0 0 0.001,0 L 5.005,3.766 A 0.01,0.01 0 0 0 5.006,3.764 0.01,0.01 0 0 0 5.006,3.758 0.01,0.01 0 0 0 5.005,3.756 0.01,0.01 0 0 0 5.003,3.755 0.01,0.01 0 0 0 5,3.753 a 0.01,0.01 0 0 0 -0.003,0 0.01,0.01 0 0 0 -0.002,0 z M 5.061,3.766 A 0.01,0.01 0 0 0 5.057,3.767 2.038,2.038 0 0 0 5.003,3.801 0.01,0.01 0 0 0 5.002,3.802 0.01,0.01 0 0 0 5,3.804 0.01,0.01 0 0 0 5,3.805 L 4.977,3.852 a 0.01,0.01 0 0 0 0,0.001 0.01,0.01 0 0 0 0,0.005 0.01,0.01 0 0 0 0,0.004 0.01,0.01 0 0 0 10e-4,0 0.01,0.01 0 0 0 0.002,0.002 0.01,0.01 0 0 0 10e-4,0 0.01,0.01 0 0 0 0.005,0.001 0.01,0.01 0 0 0 0.005,-0.001 L 5.045,3.83 A 0.01,0.01 0 0 0 5.047,3.828 0.01,0.01 0 0 0 5.048,3.827 L 5.071,3.779 a 0.01,0.01 0 0 0 0,-0.004 0.01,0.01 0 0 0 0,-0.005 A 0.01,0.01 0 0 0 5.07,3.769 0.01,0.01 0 0 0 5.068,3.767 a 0.01,0.01 0 0 0 -10e-4,0 0.01,0.01 0 0 0 -0.004,-10e-4 0.01,0.01 0 0 0 -0.002,0 z m 2.15,0.023 A 0.01,0.01 0 0 0 7.208,3.79 0.01,0.01 0 0 0 7.206,3.791 0.01,0.01 0 0 0 7.204,3.795 L 7.181,3.841 a 0.01,0.01 0 0 0 0,0.003 0.01,0.01 0 0 0 0,0.004 0.01,0.01 0 0 0 0.001,0.003 0.01,0.01 0 0 0 0.002,10e-4 0.01,0.01 0 0 0 0.002,0.002 L 7.241,3.88 a 0.01,0.01 0 0 0 0.002,10e-4 0.01,0.01 0 0 0 0.006,0 A 0.01,0.01 0 0 0 7.25,3.88 0.01,0.01 0 0 0 7.252,3.878 0.01,0.01 0 0 0 7.254,3.876 L 7.276,3.829 a 0.01,0.01 0 0 0 0,-0.005 0.01,0.01 0 0 0 0,-0.004 A 0.01,0.01 0 0 0 7.275,3.819 0.01,0.01 0 0 0 7.273,3.817 0.01,0.01 0 0 0 7.272,3.817 2.396,2.396 0 0 0 7.216,3.79 0.01,0.01 0 0 0 7.212,3.789 Z M 8.737,3.821 A 0.02,0.02 0 0 0 8.722,3.831 L 8.694,3.889 a 0.02,0.02 0 0 0 0.002,0.02 L 8.741,3.967 A 0.02,0.02 0 0 0 8.774,3.964 L 8.801,3.907 A 0.02,0.02 0 0 0 8.799,3.887 L 8.753,3.828 a 0.02,0.02 0 0 0 -0.014,-0.007 0.02,0.02 0 0 0 -0.002,0 z M 5.019,3.853 a 0.01,0.01 0 0 0 0,10e-4 0.01,0.01 0 0 0 -0.005,10e-4 L 4.96,3.89 a 0.01,0.01 0 0 0 -0.001,0 0.01,0.01 0 0 0 -0.002,0.003 L 4.934,3.94 a 0.01,0.01 0 0 0 -0.001,0.004 0.01,0.01 0 0 0 0.001,0.005 0.01,0.01 0 0 0 10e-4,0.002 0.01,0.01 0 0 0 0.003,0.002 0.01,0.01 0 0 0 0.004,0 0.01,0.01 0 0 0 0.005,0 L 5.002,3.918 a 0.01,0.01 0 0 0 0.002,-0.002 0.01,0.01 0 0 0 0.001,-10e-4 0.01,0.01 0 0 0 0,-10e-4 C 5.013,3.898 5.021,3.884 5.028,3.867 a 0.01,0.01 0 0 0 0,-0.002 0.01,0.01 0 0 0 0,-0.006 A 0.01,0.01 0 0 0 5.026,3.856 0.01,0.01 0 0 0 5.024,3.855 0.01,0.01 0 0 0 5.022,3.854 a 0.01,0.01 0 0 0 -0.002,0 0.01,0.01 0 0 0 -10e-4,0 z m 3.864,0.043 c -0.01,0 -0.02,10e-4 -0.028,0.006 a 0.02,0.02 0 0 0 -0.001,0 0.06,0.06 0 0 0 -0.027,0.028 0.02,0.02 0 0 0 0,10e-4 l -0.14,0.287 a 0.02,0.02 0 0 0 0.002,0.02 L 8.73,4.298 A 0.02,0.02 0 0 0 8.763,4.296 L 8.833,4.152 C 8.914,4.278 8.987,4.41 9.046,4.55 A 0.02,0.02 0 0 0 9.08,4.551 L 9.102,4.506 A 0.02,0.02 0 0 0 9.104,4.499 0.02,0.02 0 0 0 9.104,4.49 0.02,0.02 0 0 0 9.103,4.488 2.72,2.72 0 0 0 8.876,4.065 l 0.023,-0.05 c 0.082,0.127 0.154,0.259 0.213,0.399 a 0.02,0.02 0 0 0 0.035,0 L 9.169,4.369 a 0.02,0.02 0 0 0 0,-0.016 A 2.668,2.668 0 0 0 8.959,3.954 0.152,0.152 0 0 0 8.928,3.918 0.09,0.09 0 0 0 8.893,3.898 0.061,0.061 0 0 0 8.883,3.896 Z M 8.685,3.928 A 0.02,0.02 0 0 0 8.67,3.939 L 8.642,3.996 a 0.02,0.02 0 0 0 0.002,0.02 l 0.045,0.06 A 0.02,0.02 0 0 0 8.722,4.072 L 8.749,4.015 A 0.02,0.02 0 0 0 8.747,3.995 L 8.702,3.935 a 0.02,0.02 0 0 0 -0.015,-0.007 0.02,0.02 0 0 0 -0.002,0 z m 1.271,0.068 c -0.008,0 -0.017,0 -0.025,0.004 A 0.072,0.072 0 0 0 9.896,4.037 L 9.726,4.389 A 0.029,0.029 0 0 0 9.723,4.401 0.029,0.029 0 0 0 9.726,4.411 L 9.758,4.497 A 0.029,0.029 0 0 0 9.811,4.5 L 9.883,4.35 c 0.057,0.168 0.102,0.341 0.13,0.521 a 0.029,0.029 0 0 0 0.037,0.024 l -0.007,0.013 a 0.029,0.029 0 0 0 -0.002,0.016 l 0.002,0.03 A 0.029,0.029 0 0 0 10.013,4.97 L 9.979,5.04 A 0.029,0.029 0 0 0 9.976,5.055 c 0.005,0.032 0.008,0.064 0.01,0.095 a 0.029,0.029 0 0 0 0.045,0.021 L 9.94,5.36 A 0.029,0.029 0 0 0 9.937,5.374 L 9.941,5.47 A 0.029,0.029 0 0 0 9.996,5.482 L 10.043,5.385 A 3.34,3.34 0 0 1 9.997,5.913 0.029,0.029 0 0 0 10.01,5.943 L 9.876,6.218 A 0.029,0.029 0 0 0 9.874,6.224 L 9.851,6.328 A 0.029,0.029 0 0 0 9.884,6.363 4.16,4.16 0 0 1 9.72,6.814 0.029,0.029 0 0 0 9.772,6.838 H 9.773 L 9.8,6.782 C 9.815,6.749 9.824,6.718 9.837,6.686 A 0.029,0.029 0 0 0 9.854,6.671 H 9.855 L 9.881,6.616 a 0.029,0.029 0 0 0 10e-4,-10e-4 4.13,4.13 0 0 0 0.237,-0.712 0.14,0.14 0 0 0 0.002,-0.04 c 0,-0.006 0,-0.013 -0.009,-0.023 A 0.034,0.034 0 0 0 10.092,5.829 L 10.084,5.83 10.091,5.776 a 0.029,0.029 0 0 0 0.04,-0.012 L 10.158,5.708 A 0.029,0.029 0 0 0 10.16,5.7 3.41,3.41 0 0 0 10.212,5.086 0.66,0.66 0 0 0 10.207,5.034 a 0.029,0.029 0 0 0 0,-0.005 0.029,0.029 0 0 0 0,-0.001 0.102,0.102 0 0 0 -0.017,-0.041 0.041,0.041 0 0 0 -0.021,-0.016 0.042,0.042 0 0 0 -0.03,0.002 c -0.007,0.003 -0.01,0.008 -0.015,0.012 L 10.137,4.959 A 0.029,0.029 0 0 0 10.139,4.944 1.89,1.89 0 0 0 10.129,4.847 0.029,0.029 0 0 0 10.091,4.823 0.029,0.029 0 0 0 10.094,4.807 C 10.064,4.603 10.013,4.407 9.945,4.218 L 9.963,4.183 c 0.056,0.168 0.101,0.341 0.128,0.522 a 0.029,0.029 0 0 0 0.054,0.008 L 10.172,4.657 A 0.029,0.029 0 0 0 10.175,4.64 3.064,3.064 0 0 0 10.041,4.089 0.212,0.212 0 0 0 10.015,4.035 0.1,0.1 0 0 0 9.98,4.002 0.06,0.06 0 0 0 9.956,3.996 Z M 7.853,4.002 A 0.06,0.06 0 0 0 7.823,4.008 0.048,0.048 0 0 0 7.802,4.031 L 7.688,4.266 a 0.01,0.01 0 0 0 0,0.003 0.01,0.01 0 0 0 0,0.005 0.01,0.01 0 0 0 0.001,0.002 0.01,0.01 0 0 0 0.001,0.002 l 0.047,0.039 a 0.01,0.01 0 0 0 0.001,0.002 0.01,0.01 0 0 0 0.003,0 0.01,0.01 0 0 0 0.006,0 0.01,0.01 0 0 0 0.002,-0.002 0.01,0.01 0 0 0 0.002,-0.002 0.01,0.01 0 0 0 0,-0.001 L 7.816,4.181 c 0.097,0.085 0.187,0.177 0.27,0.277 a 0.01,0.01 0 0 0 0,10e-4 0.01,0.01 0 0 0 0.002,0.001 0.01,0.01 0 0 0 0.003,0.001 0.01,0.01 0 0 0 0.005,0 A 0.01,0.01 0 0 0 8.098,4.46 0.01,0.01 0 0 0 8.1,4.458 0.01,0.01 0 0 0 8.101,4.456 L 8.12,4.419 a 0.01,0.01 0 0 0 0,-0.004 0.01,0.01 0 0 0 0,-0.006 0.01,0.01 0 0 0 -10e-4,0 A 2.42,2.42 0 0 0 7.843,4.126 L 7.871,4.069 C 7.967,4.154 8.058,4.247 8.14,4.346 a 0.01,0.01 0 0 0 10e-4,0.001 0.01,0.01 0 0 0 0.003,0.002 0.01,0.01 0 0 0 0.006,0 0.01,0.01 0 0 0 0.003,-0.002 0.01,0.01 0 0 0 10e-4,0 0.01,0.01 0 0 0 10e-4,-0.002 0.01,0.01 0 0 0 0,-10e-4 L 8.174,4.307 A 0.01,0.01 0 0 0 8.176,4.303 0.01,0.01 0 0 0 8.174,4.298 0.01,0.01 0 0 0 8.174,4.296 2.443,2.443 0 0 0 7.919,4.031 0.126,0.126 0 0 0 7.886,4.01 0.086,0.086 0 0 0 7.854,4.002 Z M 4.556,4.196 4.526,4.26 A 0.01,0.01 0 0 0 4.524,4.256 0.01,0.01 0 0 0 4.522,4.253 0.01,0.01 0 0 0 4.519,4.251 a 0.01,0.01 0 0 0 -0.003,0 0.01,0.01 0 0 0 -0.002,0 C 4.528,4.233 4.541,4.213 4.556,4.196 Z m 3.603,0.22 a 0.01,0.01 0 0 0 0,10e-4 A 0.01,0.01 0 0 0 8.156,4.419 0.01,0.01 0 0 0 8.154,4.421 L 8.132,4.468 a 0.01,0.01 0 0 0 -10e-4,0.003 0.01,0.01 0 0 0 0,0.006 0.01,0.01 0 0 0 10e-4,10e-4 L 8.169,4.527 A 0.01,0.01 0 0 0 8.172,4.529 0.01,0.01 0 0 0 8.177,4.53 0.01,0.01 0 0 0 8.182,4.529 0.01,0.01 0 0 0 8.183,4.528 0.01,0.01 0 0 0 8.185,4.526 L 8.208,4.479 A 0.01,0.01 0 0 0 8.209,4.474 0.01,0.01 0 0 0 8.208,4.469 a 0.01,0.01 0 0 0 -10e-4,0 L 8.17,4.42 A 0.01,0.01 0 0 0 8.169,4.419 0.01,0.01 0 0 0 8.166,4.417 a 0.01,0.01 0 0 0 -0.003,0 0.01,0.01 0 0 0 -0.004,0 z m 1.012,0.04 A 0.04,0.04 0 0 0 9.153,4.459 0.056,0.056 0 0 0 9.127,4.488 l -0.14,0.287 a 0.02,0.02 0 0 0 0,0.012 0.02,0.02 0 0 0 0,0.003 c 0.01,0.023 0.018,0.047 0.027,0.07 A 0.02,0.02 0 0 0 9.049,4.862 L 9.113,4.729 C 9.161,4.87 9.198,5.015 9.221,5.167 A 0.02,0.02 0 0 0 9.257,5.172 L 9.279,5.127 A 0.02,0.02 0 0 0 9.281,5.115 2.601,2.601 0 0 0 9.16,4.633 L 9.18,4.593 C 9.227,4.733 9.264,4.879 9.287,5.03 A 0.02,0.02 0 0 0 9.323,5.036 L 9.345,4.99 A 0.02,0.02 0 0 0 9.348,4.979 2.624,2.624 0 0 0 9.237,4.529 0.181,0.181 0 0 0 9.217,4.486 0.076,0.076 0 0 0 9.189,4.46 0.02,0.02 0 0 0 9.188,4.46 0.045,0.045 0 0 0 9.171,4.456 Z M 8.281,4.479 A 0.04,0.04 0 0 0 8.261,4.482 0.043,0.043 0 0 0 8.241,4.503 L 8.126,4.739 a 0.01,0.01 0 0 0 0,0.003 0.01,0.01 0 0 0 0,0.005 0.01,0.01 0 0 0 0.001,0.001 l 0.035,0.05 a 0.01,0.01 0 0 0 0,0.002 0.01,0.01 0 0 0 10e-4,0 0.01,0.01 0 0 0 0.002,0.002 0.01,0.01 0 0 0 0.004,0 0.01,0.01 0 0 0 0.005,0 0.01,0.01 0 0 0 0.002,-10e-4 0.01,0.01 0 0 0 0.002,-0.002 0.01,0.01 0 0 0 0,-0.001 L 8.24,4.668 c 0.07,0.108 0.13,0.22 0.181,0.338 a 0.01,0.01 0 0 0 0.002,0.003 0.01,0.01 0 0 0 0.002,0.003 0.01,0.01 0 0 0 0.004,0 0.01,0.01 0 0 0 0.004,0 0.01,0.01 0 0 0 0.003,-0.002 0.01,0.01 0 0 0 0.002,-0.002 0.01,0.01 0 0 0 0,-0.001 L 8.456,4.97 a 0.01,0.01 0 0 0 0.001,-0.004 0.01,0.01 0 0 0 0,-0.003 0.01,0.01 0 0 0 0,-0.002 2.195,2.195 0 0 0 -0.189,-0.35 L 8.294,4.557 c 0.07,0.107 0.13,0.219 0.18,0.337 a 0.01,0.01 0 0 0 0.002,0.003 0.01,0.01 0 0 0 0.002,0.002 0.01,0.01 0 0 0 0.002,0 0.01,0.01 0 0 0 0.006,0 0.01,0.01 0 0 0 0.003,0 0.01,0.01 0 0 0 0.002,-0.002 0.01,0.01 0 0 0 0,-0.001 0.01,0.01 0 0 0 0.001,-0.001 L 8.51,4.858 A 0.01,0.01 0 0 0 8.51,4.856 0.01,0.01 0 0 0 8.511,4.85 2.27,2.27 0 0 0 8.338,4.523 0.118,0.118 0 0 0 8.314,4.494 0.069,0.069 0 0 0 8.287,4.48 L 8.28,4.479 Z M 8.119,4.505 a 0.01,0.01 0 0 0 -0.003,0 A 0.01,0.01 0 0 0 8.113,4.507 0.01,0.01 0 0 0 8.111,4.51 L 8.089,4.557 a 0.01,0.01 0 0 0 -0.001,0.002 0.01,0.01 0 0 0 0,0.006 0.01,0.01 0 0 0 0.001,0.002 l 0.037,0.048 a 0.01,0.01 0 0 0 0.003,0.003 0.01,0.01 0 0 0 0.003,0 0.01,0.01 0 0 0 0.004,0 0.01,0.01 0 0 0 0.003,0 0.01,0.01 0 0 0 0.001,-0.002 0.01,0.01 0 0 0 0.002,-10e-4 0.01,0.01 0 0 0 0,-0.001 L 8.165,4.567 a 0.01,0.01 0 0 0 0,-0.007 0.01,0.01 0 0 0 0,-0.002 0.01,0.01 0 0 0 0,-10e-4 A 1.557,1.557 0 0 0 8.127,4.508 0.01,0.01 0 0 0 8.123,4.506 0.01,0.01 0 0 0 8.12,4.505 a 0.01,0.01 0 0 0 -10e-4,0 z m 0.398,0.433 c -0.004,0 -0.008,0 -0.012,0.002 A 0.04,0.04 0 0 0 8.487,4.96 L 8.372,5.196 a 0.01,0.01 0 0 0 -10e-4,0.003 0.01,0.01 0 0 0 0,0.002 0.01,0.01 0 0 0 0,0.003 0.01,0.01 0 0 0 10e-4,0 l 0.022,0.057 a 0.01,0.01 0 0 0 0.002,0.003 0.01,0.01 0 0 0 0.002,0.002 0.01,0.01 0 0 0 0.003,0.001 0.01,0.01 0 0 0 0.004,0 A 0.01,0.01 0 0 0 8.409,5.265 0.01,0.01 0 0 0 8.412,5.263 L 8.472,5.14 c 0.04,0.12 0.073,0.245 0.092,0.374 a 0.01,0.01 0 0 0 0,0.002 0.01,0.01 0 0 0 0.002,0.002 0.01,0.01 0 0 0 10e-4,0.002 0.01,0.01 0 0 0 0.003,0.002 0.01,0.01 0 0 0 0.005,0 A 0.01,0.01 0 0 0 8.579,5.521 0.01,0.01 0 0 0 8.581,5.519 0.01,0.01 0 0 0 8.582,5.517 L 8.6,5.48 a 0.01,0.01 0 0 0 0.001,-0.003 0.01,0.01 0 0 0 0,-0.003 2.117,2.117 0 0 0 -0.1,-0.397 l 0.024,-0.05 c 0.042,0.12 0.074,0.246 0.093,0.375 a 0.01,0.01 0 0 0 0,0.003 0.01,0.01 0 0 0 0.002,0.002 0.01,0.01 0 0 0 0.002,0.001 0.01,0.01 0 0 0 0.002,10e-4 0.01,0.01 0 0 0 0.003,0.001 0.01,0.01 0 0 0 0.005,0 A 0.01,0.01 0 0 0 8.633,5.408 0.01,0.01 0 0 0 8.635,5.406 0.01,0.01 0 0 0 8.636,5.405 L 8.655,5.368 a 0.01,0.01 0 0 0 0,-0.001 0.01,0.01 0 0 0 0,-0.005 A 2.101,2.101 0 0 0 8.565,4.994 0.124,0.124 0 0 0 8.55,4.961 0.058,0.058 0 0 0 8.53,4.941 0.01,0.01 0 0 0 8.529,4.941 0.035,0.035 0 0 0 8.517,4.938 Z m 1.577,0.101 -0.017,0.037 -0.003,-0.032 a 0.029,0.029 0 0 0 0.02,-0.005 z M 9.29,5.131 A 0.02,0.02 0 0 0 9.274,5.142 C 9.264,5.162 9.254,5.18 9.246,5.199 a 0.02,0.02 0 0 0 -0.002,0.01 c 0,0.011 0.002,0.021 0.003,0.032 A 0.02,0.02 0 0 0 9.221,5.25 L 9.194,5.307 A 0.02,0.02 0 0 0 9.191,5.317 L 9.199,5.395 A 0.02,0.02 0 0 0 9.236,5.401 L 9.263,5.344 A 0.02,0.02 0 0 0 9.265,5.334 L 9.262,5.302 A 0.02,0.02 0 0 0 9.288,5.294 L 9.315,5.236 A 0.02,0.02 0 0 0 9.318,5.226 L 9.31,5.148 A 0.02,0.02 0 0 0 9.29,5.131 Z m 0.05,0.12 H 9.339 A 0.03,0.03 0 0 0 9.324,5.254 C 9.311,5.26 9.306,5.27 9.301,5.281 L 9.161,5.568 A 0.02,0.02 0 0 0 9.159,5.578 L 9.163,5.656 A 0.02,0.02 0 0 0 9.199,5.665 L 9.246,5.568 C 9.245,5.715 9.234,5.865 9.207,6.02 A 0.02,0.02 0 0 0 9.22,6.04 L 9.11,6.27 A 0.02,0.02 0 0 0 9.108,6.274 3.66,3.66 0 0 1 9.09,6.359 0.02,0.02 0 0 0 9.12,6.379 C 9.082,6.503 9.039,6.629 8.983,6.757 A 0.02,0.02 0 0 0 9.018,6.773 V 6.772 L 9.041,6.727 C 9.053,6.699 9.061,6.673 9.072,6.646 A 0.02,0.02 0 0 0 9.085,6.636 H 9.086 L 9.108,6.59 C 9.188,6.41 9.248,6.232 9.291,6.057 L 9.301,6.009 A 0.147,0.147 0 0 0 9.304,5.977 c 0,-0.005 0,-0.01 -0.006,-0.016 A 0.02,0.02 0 0 0 9.284,5.953 c -0.004,0 -0.008,10e-4 -0.01,0.003 L 9.281,5.897 A 0.02,0.02 0 0 0 9.313,5.894 L 9.335,5.849 A 0.02,0.02 0 0 0 9.336,5.844 c 0.03,-0.172 0.043,-0.339 0.041,-0.502 0,-0.016 0,-0.03 -0.004,-0.042 a 0.02,0.02 0 0 0 0,-0.004 A 0.08,0.08 0 0 0 9.36,5.264 0.031,0.031 0 0 0 9.345,5.252 H 9.339 Z M 5.48,5.335 V 7.312 H 5.973 V 6.731 H 6.136 C 6.671,6.731 7.024,6.437 7.024,5.993 7.024,5.58 6.722,5.335 6.218,5.335 H 5.481 Z m 3.832,0.097 c 0,0.07 -0.002,0.142 -0.008,0.214 0.004,-0.07 0.007,-0.14 0.005,-0.207 z m -0.7,0.06 a 0.01,0.01 0 0 0 0,0.001 A 0.01,0.01 0 0 0 8.61,5.494 0.01,0.01 0 0 0 8.608,5.496 0.01,0.01 0 0 0 8.606,5.498 3.86,3.86 0 0 0 8.584,5.544 0.01,0.01 0 0 0 8.583,5.548 a 0.01,0.01 0 0 0 0,0.002 L 8.59,5.614 a 0.01,0.01 0 0 0 0,0.002 0.01,0.01 0 0 0 0.002,0.003 0.01,0.01 0 0 0 0.004,0.002 0.01,0.01 0 0 0 0.003,10e-4 0.01,0.01 0 0 0 0.005,-10e-4 0.01,0.01 0 0 0 0.001,-0.001 0.01,0.01 0 0 0 0.003,-0.002 0.01,0.01 0 0 0 0,-0.001 L 8.63,5.57 a 0.01,0.01 0 0 0 10e-4,-0.002 0.01,0.01 0 0 0 0,-0.003 L 8.625,5.501 a 0.01,0.01 0 0 0 0,-0.003 A 0.01,0.01 0 0 0 8.623,5.496 0.01,0.01 0 0 0 8.62,5.494 0.01,0.01 0 0 0 8.617,5.493 a 0.01,0.01 0 0 0 -0.002,0 0.01,0.01 0 0 0 -0.002,0 z M 8.571,5.58 a 0.01,0.01 0 0 0 -0.002,0.001 0.01,0.01 0 0 0 -0.002,0.002 0.01,0.01 0 0 0 -0.002,0 0.01,0.01 0 0 0 0,0.002 0.01,0.01 0 0 0 -10e-4,0 L 8.541,5.633 a 0.01,0.01 0 0 0 0,0.001 0.01,0.01 0 0 0 0,0.004 L 8.547,5.702 A 0.01,0.01 0 0 0 8.549,5.706 0.01,0.01 0 0 0 8.551,5.708 0.01,0.01 0 0 0 8.552,5.709 0.01,0.01 0 0 0 8.555,5.71 0.01,0.01 0 0 0 8.56,5.71 0.01,0.01 0 0 0 8.562,5.709 0.01,0.01 0 0 0 8.564,5.707 0.01,0.01 0 0 0 8.565,5.705 L 8.588,5.659 a 0.01,0.01 0 0 0 0,-0.003 0.01,0.01 0 0 0 0,-0.003 L 8.582,5.589 A 0.01,0.01 0 0 0 8.581,5.586 0.01,0.01 0 0 0 8.58,5.584 0.01,0.01 0 0 0 8.578,5.582 0.01,0.01 0 0 0 8.575,5.581 a 0.01,0.01 0 0 0 -0.003,0 0.01,0.01 0 0 0 -10e-4,0 z M 8.655,5.59 H 8.651 A 0.017,0.017 0 0 0 8.645,5.593 C 8.637,5.596 8.632,5.603 8.628,5.612 L 8.514,5.848 a 0.01,0.01 0 0 0 0,0.004 l 0.002,0.065 a 0.01,0.01 0 0 0 0,0.004 0.01,0.01 0 0 0 0.002,0.002 0.01,0.01 0 0 0 0,0.001 0.01,0.01 0 0 0 0.005,0.003 0.01,0.01 0 0 0 0.005,0 A 0.01,0.01 0 0 0 8.531,5.925 0.01,0.01 0 0 0 8.533,5.923 0.01,0.01 0 0 0 8.534,5.922 l 0.05,-0.105 c 0.002,0.13 -0.008,0.263 -0.031,0.4 a 0.01,0.01 0 0 0 0,0.002 0.01,0.01 0 0 0 10e-4,0.004 0.01,0.01 0 0 0 10e-4,0.001 0.01,0.01 0 0 0 0.002,0.002 0.01,0.01 0 0 0 0.002,0.001 0.01,0.01 0 0 0 0.006,0 0.01,0.01 0 0 0 0.002,0 L 8.472,6.423 a 0.01,0.01 0 0 0 0,0.002 l -0.016,0.07 a 0.01,0.01 0 0 0 0,0.006 0.01,0.01 0 0 0 0.002,0.002 0.01,0.01 0 0 0 0.002,0.002 0.01,0.01 0 0 0 10e-4,0.002 0.01,0.01 0 0 0 0.004,0 0.01,0.01 0 0 0 0.005,-10e-4 0.01,0.01 0 0 0 10e-4,-0.001 0.01,0.01 0 0 0 0.002,-0.002 0.01,0.01 0 0 0 0,-0.001 L 8.496,6.455 C 8.463,6.576 8.423,6.699 8.368,6.823 a 0.01,0.01 0 0 0 0,0.006 0.01,0.01 0 0 0 0,0.003 0.01,0.01 0 0 0 0.002,0.002 0.01,0.01 0 0 0 0.002,0.001 0.01,0.01 0 0 0 0.005,0.001 0.01,0.01 0 0 0 0.005,0 A 0.01,0.01 0 0 0 8.383,6.834 0.01,0.01 0 0 0 8.385,6.831 L 8.386,6.83 8.404,6.793 a 0.01,0.01 0 0 0 10e-4,0 l 0.027,-0.07 a 0.01,0.01 0 0 0 10e-4,0 0.01,0.01 0 0 0 0.004,-10e-4 0.01,0.01 0 0 0 0.002,-0.001 0.01,0.01 0 0 0 0.002,-0.002 0.01,0.01 0 0 0 0,-0.001 H 8.442 L 8.46,6.68 A 2.768,2.768 0 0 0 8.618,6.204 0.123,0.123 0 0 0 8.621,6.18 c 0,-0.003 0,-0.007 -0.004,-0.01 A 0.012,0.012 0 0 0 8.609,6.165 L 8.603,6.168 A 0.017,0.017 0 0 0 8.595,6.175 V 6.177 C 8.62,6.027 8.631,5.879 8.627,5.735 8.633,5.725 8.637,5.713 8.643,5.702 8.644,5.832 8.635,5.966 8.611,6.102 a 0.01,0.01 0 0 0 0,0.005 0.01,0.01 0 0 0 0.002,0.003 0.01,0.01 0 0 0 0,10e-4 0.01,0.01 0 0 0 0.004,0.002 0.01,0.01 0 0 0 0.006,0 0.01,0.01 0 0 0 0.002,0 A 0.01,0.01 0 0 0 8.627,6.112 0.01,0.01 0 0 0 8.628,6.11 0.01,0.01 0 0 0 8.629,6.109 L 8.647,6.071 a 0.01,0.01 0 0 0 0,-0.003 C 8.672,5.928 8.683,5.791 8.682,5.658 8.682,5.643 8.681,5.631 8.679,5.621 a 0.01,0.01 0 0 0 0,-0.003 C 8.676,5.609 8.674,5.602 8.671,5.597 A 0.02,0.02 0 0 0 8.661,5.59 Z M 5.973,5.768 h 0.205 c 0.2,0 0.334,0.108 0.334,0.273 0,0.16 -0.112,0.257 -0.288,0.257 h -0.25 v -0.53 z"
     id="path4"
     inkscape:connector-curvature="0" />
</svg>
