<?xml version="1.0" encoding="UTF-8" standalone="no"?>
<svg
   width="47.515514"
   height="47.546455"
   viewBox="0 0 12.571813 12.58"
   version="1.1"
   id="svg11"
   sodipodi:docname="artikulate.svg"
   inkscape:version="0.92.4 (5da689c313, 2019-01-14)"
   xmlns:inkscape="http://www.inkscape.org/namespaces/inkscape"
   xmlns:sodipodi="http://sodipodi.sourceforge.net/DTD/sodipodi-0.dtd"
   xmlns="http://www.w3.org/2000/svg"
   xmlns:svg="http://www.w3.org/2000/svg"
   xmlns:rdf="http://www.w3.org/1999/02/22-rdf-syntax-ns#"
   xmlns:cc="http://creativecommons.org/ns#"
   xmlns:dc="http://purl.org/dc/elements/1.1/">
  <metadata
     id="metadata15">
    <rdf:RDF>
      <cc:Work
         rdf:about="">
        <dc:format>image/svg+xml</dc:format>
        <dc:type
           rdf:resource="http://purl.org/dc/dcmitype/StillImage" />
        <dc:title />
      </cc:Work>
    </rdf:RDF>
  </metadata>
  <sodipodi:namedview
     pagecolor="#ffffff"
     bordercolor="#666666"
     borderopacity="1"
     objecttolerance="10"
     gridtolerance="10"
     guidetolerance="10"
     inkscape:pageopacity="0"
     inkscape:pageshadow="2"
     inkscape:window-width="1112"
     inkscape:window-height="480"
     id="namedview13"
     showgrid="false"
     inkscape:zoom="4.9166667"
     inkscape:cx="2.1355932"
     inkscape:cy="24"
     inkscape:window-x="0"
     inkscape:window-y="25"
     inkscape:window-maximized="0"
     inkscape:current-layer="svg11"
     inkscape:showpageshadow="0"
     inkscape:pagecheckerboard="0"
     inkscape:deskcolor="#d1d1d1" />
  <defs
     id="defs7" />
  <path
     d="m 6.2891311,0 a 6.29,6.29 0 0 0 -3.392,1 l 2.415,0.017 a 5.4,5.4 0 0 1 0.957,-0.087 5.417,5.417 0 0 1 5.4099999,5.41 5.4,5.4 0 0 1 -0.196,1.43 V 9.827 A 6.29,6.29 0 0 0 6.2891311,0 Z m -4.753,1.517 v 3.97 h 2.383 l 1.587,1.322 V 5.486 h 1.323 V 1.517 Z m 2.651,0.649 c 0.256,0 0.451,0.058 0.585,0.174 0.134,0.115 0.2,0.25 0.198,0.403 a 0.835,0.835 0 0 1 -0.097,0.407 0.55,0.55 0 0 1 -0.25,0.248 0.377,0.377 0 0 0 -0.23,0.314 0.251,0.251 0 0 1 -0.086,0.166 0.249,0.249 0 0 1 -0.174,0.068 h -0.006 a 0.25,0.25 0 0 1 -0.2,-0.097 0.257,0.257 0 0 1 -0.058,-0.22 0.682,0.682 0 0 1 0.283,-0.442 c 0.153,-0.107 0.23,-0.238 0.231,-0.393 0,-0.143 -0.1,-0.22 -0.301,-0.229 a 0.345,0.345 0 0 0 -0.284,0.11 c -0.073,0.078 -0.15,0.095 -0.231,0.05 a 0.276,0.276 0 0 1 -0.112,-0.154 0.257,0.257 0 0 1 0.015,-0.209 0.227,0.227 0 0 1 0.142,-0.122 c 0.192,-0.05 0.383,-0.074 0.575,-0.074 z m -3.18,0.71 a 6.29,6.29 0 0 0 5.282,9.704 6.29,6.29 0 0 0 3.538,-1.09 h -1.912 a 5.4,5.4 0 0 1 -1.636,0.26 A 5.4,5.4 0 0 1 0.86913112,6.35 5.4,5.4 0 0 1 1.0071311,5.14 Z m 3.122,1.252 c 0.108,0 0.194,0.032 0.26,0.097 0.067,0.065 0.101,0.147 0.104,0.248 a 0.326,0.326 0 0 1 -0.095,0.25 0.387,0.387 0 0 1 -0.273,0.097 0.362,0.362 0 0 1 -0.265,-0.097 0.343,0.343 0 0 1 -0.097,-0.25 0.336,0.336 0 0 1 0.104,-0.248 0.364,0.364 0 0 1 0.262,-0.097 z m 2.964,1.622 v 1.323 h -1.324 v 3.968 H 11.060131 V 7.074 H 8.6801311 l -1.588,-1.324 z m 1.338,1.887 c 0.045,0 0.085,0.008 0.12,0.024 a 0.197,0.197 0 0 1 0.086,0.079 0.391,0.391 0 0 1 0.054,0.149 c 0.013,0.06 0.019,0.135 0.019,0.225 0,0.065 -0.004,0.127 -0.01,0.188 -0.008,0.06 -0.016,0.126 -0.028,0.2 l -0.144,1.05 h -0.2 l -0.135,-0.969 a 14.512,14.512 0 0 1 -0.048,-0.361 1.46,1.46 0 0 1 -0.004,-0.112 c 0,-0.164 0.025,-0.284 0.075,-0.36 a 0.245,0.245 0 0 1 0.215,-0.113 z m 0.004,2.116 c 0.044,0 0.085,0.008 0.124,0.025 a 0.314,0.314 0 0 1 0.196,0.296 0.332,0.332 0 0 1 -0.093,0.231 0.312,0.312 0 0 1 -0.227,0.095 0.332,0.332 0 0 1 -0.128,-0.025 0.343,0.343 0 0 1 -0.174,-0.173 0.332,0.332 0 0 1 0,-0.252 0.314,0.314 0 0 1 0.174,-0.172 0.332,0.332 0 0 1 0.128,-0.025 z"
     id="path9"
     inkscape:connector-curvature="0"
     style="fill:#bde6fb;fill-opacity:1" />
</svg>
