<?xml version="1.0" encoding="UTF-8" standalone="no"?>
<svg
   width="47.538902"
   height="47.542679"
   viewBox="0 0 12.578001 12.579"
   version="1.1"
   id="svg6"
   sodipodi:docname="asleap.svg"
   inkscape:version="0.92.5 (2060ec1f9f, 2020-04-08)"
   xmlns:inkscape="http://www.inkscape.org/namespaces/inkscape"
   xmlns:sodipodi="http://sodipodi.sourceforge.net/DTD/sodipodi-0.dtd"
   xmlns="http://www.w3.org/2000/svg"
   xmlns:svg="http://www.w3.org/2000/svg"
   xmlns:rdf="http://www.w3.org/1999/02/22-rdf-syntax-ns#"
   xmlns:cc="http://creativecommons.org/ns#"
   xmlns:dc="http://purl.org/dc/elements/1.1/">
  <metadata
     id="metadata12">
    <rdf:RDF>
      <cc:Work
         rdf:about="">
        <dc:format>image/svg+xml</dc:format>
        <dc:type
           rdf:resource="http://purl.org/dc/dcmitype/StillImage" />
        <dc:title />
      </cc:Work>
    </rdf:RDF>
  </metadata>
  <defs
     id="defs10" />
  <sodipodi:namedview
     pagecolor="#ffffff"
     bordercolor="#666666"
     borderopacity="1"
     objecttolerance="10"
     gridtolerance="10"
     guidetolerance="10"
     inkscape:pageopacity="0"
     inkscape:pageshadow="2"
     inkscape:window-width="1085"
     inkscape:window-height="480"
     id="namedview8"
     showgrid="false"
     inkscape:zoom="4.9166667"
     inkscape:cx="2.1355932"
     inkscape:cy="24"
     inkscape:window-x="0"
     inkscape:window-y="25"
     inkscape:window-maximized="0"
     inkscape:current-layer="svg6"
     inkscape:showpageshadow="0"
     inkscape:pagecheckerboard="0"
     inkscape:deskcolor="#d1d1d1" />
  <path
     d="m 6.2890014,0.001 a 6.29,6.29 0 0 0 -0.3,0.015 6.29,6.29 0 0 0 -0.255,0.013 6.29,6.29 0 0 0 -1.304,0.253 6.29,6.29 0 0 0 -0.028,0.01 6.29,6.29 0 0 0 -1.664,0.808 6.29,6.29 0 0 0 -0.187,0.143 6.29,6.29 0 0 0 -1.189,1.139 6.29,6.29 0 0 0 -0.127,0.178 6.29,6.29 0 0 0 -1.00599995,2.05 6.29,6.29 0 0 0 -0.006,0.025 A 6.29,6.29 0 0 0 1.4484525e-6,6.29 6.29,6.29 0 0 0 0.03100145,6.918 a 6.29,6.29 0 0 0 0.004,0.025 6.29,6.29 0 0 0 1.20599995,3.085 6.29,6.29 0 0 0 0.15,0.197 6.29,6.29 0 0 0 4.898,2.354 6.29,6.29 0 0 0 0.733,-0.048 6.29,6.29 0 0 0 0.341,-0.051 6.29,6.29 0 0 0 3.9559996,-2.426 6.29,6.29 0 0 0 0.164,-0.23 6.29,6.29 0 0 0 0.822,-1.72 6.29,6.29 0 0 0 0.044,-0.133 6.29,6.29 0 0 0 0.118,-0.526 6.29,6.29 0 0 0 0.02,-0.088 6.29,6.29 0 0 0 0.091,-1.067 6.29,6.29 0 0 0 -0.072,-0.897 6.29,6.29 0 0 0 -0.036,-0.236 6.29,6.29 0 0 0 -0.091,-0.405 6.29,6.29 0 0 0 -0.04,-0.16 6.29,6.29 0 0 0 -0.832,-1.807 6.29,6.29 0 0 0 -0.028,-0.046 6.29,6.29 0 0 0 -1.334,-1.414 6.29,6.29 0 0 0 -0.1999996,-0.142 6.29,6.29 0 0 0 -1.392,-0.76 6.29,6.29 0 0 0 -0.254,-0.083 6.29,6.29 0 0 0 -0.938,-0.246 6.29,6.29 0 0 0 -0.005,0 6.29,6.29 0 0 0 -1.067,-0.094 z m -0.018,0.936 a 5.407,5.407 0 0 1 0.94,0.087 1.232,1.232 0 0 1 -1.091,0.979 c -0.069,-0.43 -0.342,-0.77 -0.693,-0.997 a 5.407,5.407 0 0 1 0.844,-0.07 z m 1.217,0.144 a 5.407,5.407 0 0 1 0.624,0.186 c 0.305,0.224 0.515,0.569 0.515,0.975 0,0.442 -0.239,0.823 -0.59,1.039 a 3.466,3.466 0 0 0 -0.663,-0.298 c -0.145,-0.36 -0.375,-0.675 -0.726,-0.837 0.428,-0.197 0.737,-0.594 0.84,-1.065 z m -2.483,0.012 c 0.493,0.16 0.858,0.604 0.858,1.15 0,0.23 -0.079,0.437 -0.193,0.62 a 3.455,3.455 0 0 0 -0.983,0.336 c -0.107,-0.462 -0.382,-0.86 -0.804,-1.053 0.395,-0.181 0.67,-0.542 0.796,-0.964 a 5.407,5.407 0 0 1 0.326,-0.09 z m -0.637,0.193 c -0.185,0.392 -0.56,0.679 -1.012,0.717 -0.01,-0.06 -0.054,-0.105 -0.07,-0.163 a 5.407,5.407 0 0 1 1.082,-0.554 z m 4.302,0.22 a 5.407,5.407 0 0 1 0.653,0.375 1.233,1.233 0 0 1 -0.438,0.122 c -0.03,-0.185 -0.124,-0.341 -0.215,-0.497 z m -5.616,0.5 c 0.015,0.079 0.044,0.153 0.044,0.236 a 1.23,1.23 0 0 1 -1.091,1.22 c -0.005,-0.11 -0.073,-0.196 -0.1,-0.3 a 5.407,5.407 0 0 1 1.147,-1.156 z m 6.485,0.04 a 5.407,5.407 0 0 1 1.2079996,1.273 1.213,1.213 0 0 1 -0.447,0.144 1.524,1.524 0 0 0 -0.8869996,-1.317 c 0.05,-0.023 0.08,-0.073 0.126,-0.1 z m -6.165,0.244 c 0.56,0.055 0.992,0.49 1.084,1.039 -0.489,0.302 -0.897,0.72 -1.186,1.218 -0.125,-0.41 -0.389,-0.761 -0.773,-0.938 0.503,-0.233 0.856,-0.734 0.875,-1.319 z m 2.764,0 c 0.4,0.04 0.73,0.28 0.927,0.608 a 3.488,3.488 0 0 0 -1.094,-0.075 c 0.08,-0.168 0.16,-0.337 0.167,-0.533 z m 2.765,0 a 1.241,1.241 0 0 1 0.448,2.34 3.5,3.5 0 0 0 -1.097,-1.212 c 0.364,-0.264 0.634,-0.65 0.649,-1.128 z m -2.616,0.85 a 3.152,3.15 0 0 1 3.152,3.15 c 0,-0.236 0.297,-0.571 0.23,-0.84 l -0.005,-0.017 c 0.22,0.224 0.3619996,0.525 0.3619996,0.864 0,0.337 -0.1459996,0.63 -0.3649996,0.853 0.014,-0.056 0.03,-0.113 0.042,-0.17 0.044,-0.223 -0.264,-0.454 -0.264,-0.69 a 3.152,3.15 0 0 1 -3.152,3.15 3.152,3.15 0 0 1 -3.152,-3.147 c -0.002,0.142 -0.103,0.282 -0.18,0.42 -0.133,-0.146 -0.275,-0.287 -0.456,-0.371 0.21,-0.098 0.377,-0.261 0.521,-0.44 -0.01,-0.024 -0.011,-0.05 -0.022,-0.075 0.063,0.15 0.136,0.304 0.137,0.46 a 3.152,3.15 0 0 1 3.152,-3.147 z m -3.152,3.147 a 3.152,3.15 0 0 0 0,0.003 3.152,3.15 0 0 0 0,0.003 V 6.29 Z m -1.42,-2.844 c 0.002,0.03 0.017,0.056 0.017,0.086 0,0.425 -0.225,0.785 -0.55,1.01 a 5.407,5.407 0 0 1 0.533,-1.096 z m 9.1679996,0.089 a 5.407,5.407 0 0 1 0.161,0.28 c -0.086,-0.066 -0.152,-0.157 -0.251,-0.203 0.036,-0.017 0.055,-0.058 0.09,-0.077 z M 1.9920014,3.753 a 1.227,1.227 0 0 1 1.1,1.151 3.452,3.452 0 0 0 -0.17,0.483 0.437,0.437 0 0 0 -0.003,0.192 1.21,1.21 0 0 1 -0.915,0.617 1.524,1.524 0 0 0 -0.885,-1.283 c 0.46,-0.21 0.796,-0.643 0.873,-1.16 z m 8.2929996,0 a 1.23,1.23 0 0 1 1.107,1.222 1.23,1.23 0 0 1 -1.094,1.22 1.508,1.508 0 0 0 -0.7839996,-1.214 l -0.043,-0.104 c 0.427,-0.22 0.7409996,-0.631 0.8139996,-1.124 z m -4.0799996,0.88 c -0.242,0 -0.472,0.053 -0.676,0.15 -0.024,0.011 0.006,0.073 0,0.1 0.228,0.577 0.758,1.407 0.758,1.407 0,0 -0.415,-0.098 -0.83,-0.157 a 3.379,3.379 0 0 0 -0.57,-0.042 c -0.155,0.006 -0.259,0.04 -0.259,0.116 a 1.568,1.568 0 0 0 0.462,1.114 1.58,1.58 0 0 0 1.728,0.337 1.577,1.577 0 0 0 0,-2.902 1.571,1.571 0 0 0 -0.614,-0.124 z M 0.99700145,5.171 C 1.4280014,5.367 1.7320014,5.793 1.7320014,6.297 c 0,0.51 -0.313,0.939 -0.75199995,1.131 a 5.407,5.407 0 0 1 -0.116,-1.084 5.407,5.407 0 0 1 0.133,-1.173 z M 11.576001,5.321 a 5.407,5.407 0 0 1 0.102,1.023 5.407,5.407 0 0 1 -0.096,0.998 c -0.116,-0.437 -0.386,-0.814 -0.79,-1 0.41,-0.19 0.672,-0.576 0.784,-1.02 z M 1.9960014,6.486 c 0.385,0.04 0.7,0.268 0.896,0.58 0.049,0.213 0.117,0.418 0.203,0.614 0,0.01 0.003,0.018 0.003,0.029 a 1.23,1.23 0 0 1 -1.096,1.22 1.524,1.524 0 0 0 -0.883,-1.248 c 0.47,-0.216 0.811,-0.663 0.877,-1.195 z m 8.2939996,0 a 1.23,1.23 0 0 1 0.006,2.443 1.52,1.52 0 0 0 -0.8309996,-1.216 l 0.039,-0.09 c 0.419,-0.23 0.7239996,-0.642 0.7859996,-1.137 z M 9.3430014,7.958 a 1.243,1.243 0 0 1 -0.446,2.346 c -0.043,-0.473 -0.326,-0.858 -0.707,-1.1 0.48,-0.314 0.876,-0.742 1.153,-1.246 z m -8.206,0.063 c 0.352,0.22 0.595,0.599 0.595,1.043 0,0.058 -0.024,0.109 -0.032,0.165 a 5.407,5.407 0 0 1 -0.563,-1.208 z m 2.15,0.036 c 0.288,0.488 0.692,0.898 1.173,1.195 a 1.232,1.232 0 0 1 -1.092,1.052 1.507,1.507 0 0 0 -0.869,-1.23 c 0.408,-0.188 0.676,-0.572 0.788,-1.017 z m 7.7679996,0.8 a 5.407,5.407 0 0 1 -0.17,0.294 c -0.036,-0.02 -0.056,-0.06 -0.092,-0.076 0.105,-0.049 0.171,-0.148 0.262,-0.219 z M 1.9990014,9.22 a 1.23,1.23 0 0 1 1.098,1.222 c 0,0.084 -0.029,0.16 -0.045,0.24 a 5.407,5.407 0 0 1 -1.161,-1.178 c 0.031,-0.098 0.098,-0.179 0.108,-0.284 z m 8.2939996,0 c 0.165,0.018 0.318,0.072 0.457,0.149 a 5.407,5.407 0 0 1 -1.1499996,1.232 c -0.068,-0.045 -0.113,-0.119 -0.188,-0.153 0.479,-0.22 0.8249996,-0.681 0.8799996,-1.228 z M 7.9390014,9.353 c 0.404,0.201 0.688,0.607 0.688,1.089 0,0.412 -0.215,0.762 -0.528,0.985 a 5.407,5.407 0 0 1 -0.595,0.175 c -0.08,-0.511 -0.4,-0.945 -0.856,-1.154 0.358,-0.164 0.595,-0.487 0.738,-0.856 0.192,-0.064 0.377,-0.144 0.553,-0.239 z m -3.233,0.037 c 0.28,0.143 0.58,0.25 0.898,0.313 0.159,0.206 0.26,0.459 0.26,0.739 0,0.547 -0.37,0.992 -0.865,1.15 a 5.407,5.407 0 0 1 -0.292,-0.073 c -0.103,-0.471 -0.395,-0.875 -0.824,-1.071 0.425,-0.195 0.718,-0.592 0.823,-1.058 z m 2.37,0.288 c -0.195,0.34 -0.533,0.587 -0.943,0.626 a 1.382,1.382 0 0 0 -0.197,-0.551 c 0.116,0.011 0.232,0.019 0.35,0.019 0.273,0 0.537,-0.035 0.79,-0.094 z m -3.709,0.914 c 0.49,0.045 0.89,0.378 1.05,0.824 a 5.407,5.407 0 0 1 -1.144,-0.576 c 0.025,-0.086 0.085,-0.156 0.094,-0.248 z m 2.765,0 a 1.234,1.234 0 0 1 1.097,1.072 5.407,5.407 0 0 1 -0.958,0.087 5.407,5.407 0 0 1 -0.849,-0.074 c 0.377,-0.242 0.663,-0.617 0.71,-1.085 z m 2.765,0 c 0.178,0.016 0.34,0.078 0.49,0.163 a 5.407,5.407 0 0 1 -0.716,0.431 c 0.107,-0.182 0.204,-0.374 0.226,-0.594 z"
     id="path2"
     inkscape:connector-curvature="0"
     style="clip-rule:evenodd;fill:#bde6fb;fill-opacity:1;fill-rule:evenodd" />
  <path
     d="m 8.6090014,5.958 c -0.776,0.093 -1.735,0.652 -2.488,0.498 -0.752,-0.155 -2.82,-0.83 -2.82,-0.83 0,0 0.431,0.546 0.166,0.498 -0.266,-0.048 -0.142,1.32 0.038,1.626 0.18,0.305 0.462,0.538 0.791,0.53 0.33,-0.009 1.307,-0.973 2.987,-0.166 1.579,0.759 2.128,-0.724 2.136,-1.313 0.01,-0.747 -0.032,-0.935 -0.81,-0.843 z"
     id="path4"
     inkscape:connector-curvature="0"
     style="opacity:0.4;fill:#bde6fb;fill-opacity:1" />
</svg>
