<?xml version="1.0" encoding="UTF-8" standalone="no"?>
<svg
   width="47.546486"
   height="47.546486"
   viewBox="0 0 12.580008 12.580008"
   version="1.1"
   id="svg4"
   sodipodi:docname="atom-beta.svg"
   inkscape:version="0.92.4 (5da689c313, 2019-01-14)"
   xmlns:inkscape="http://www.inkscape.org/namespaces/inkscape"
   xmlns:sodipodi="http://sodipodi.sourceforge.net/DTD/sodipodi-0.dtd"
   xmlns="http://www.w3.org/2000/svg"
   xmlns:svg="http://www.w3.org/2000/svg"
   xmlns:rdf="http://www.w3.org/1999/02/22-rdf-syntax-ns#"
   xmlns:cc="http://creativecommons.org/ns#"
   xmlns:dc="http://purl.org/dc/elements/1.1/">
  <metadata
     id="metadata10">
    <rdf:RDF>
      <cc:Work
         rdf:about="">
        <dc:format>image/svg+xml</dc:format>
        <dc:type
           rdf:resource="http://purl.org/dc/dcmitype/StillImage" />
        <dc:title />
      </cc:Work>
    </rdf:RDF>
  </metadata>
  <defs
     id="defs8" />
  <sodipodi:namedview
     pagecolor="#ffffff"
     bordercolor="#666666"
     borderopacity="1"
     objecttolerance="10"
     gridtolerance="10"
     guidetolerance="10"
     inkscape:pageopacity="0"
     inkscape:pageshadow="2"
     inkscape:window-width="1087"
     inkscape:window-height="480"
     id="namedview6"
     showgrid="false"
     inkscape:zoom="4.9166667"
     inkscape:cx="2.1355932"
     inkscape:cy="24"
     inkscape:window-x="0"
     inkscape:window-y="25"
     inkscape:window-maximized="0"
     inkscape:current-layer="svg4"
     inkscape:showpageshadow="0"
     inkscape:pagecheckerboard="0"
     inkscape:deskcolor="#d1d1d1" />
  <path
     d="M 6.2900079,0 A 6.29,6.29 0 0 0 7.9490244e-6,6.3 6.29,6.29 0 0 0 6.3000079,12.58 6.29,6.29 0 0 0 12.580008,6.29 6.29,6.29 0 0 0 6.2900079,0 Z m -0.01,0.94 A 5.4,5.4 0 0 1 11.680008,6.34 5.4,5.4 0 0 1 6.2800079,11.75 5.4,5.4 0 0 1 0.87000795,6.35 5.4,5.4 0 0 1 6.2700079,0.93 Z m 0,0.53 a 4.88,4.88 0 0 0 -4.88,4.88 4.88,4.88 0 0 0 4.88,4.87 A 4.88,4.88 0 0 0 11.150008,6.35 4.88,4.88 0 0 0 6.2800079,1.47 Z m 0.02,0.67 c 0.55,0 1.02,0.7 1.3,1.83 1.09,-0.35 1.93,-0.33 2.23,0.15 0.2300001,0.37 0.06,0.94 -0.5,1.62 -0.15,0.2 -0.32,0.38 -0.5,0.55 a 7.14,7.14 0 0 1 0.2,0.22 0.49,0.49 0 0 1 0.7,0.44 0.48,0.48 0 0 1 -0.1,0.29 c 0.3,0.5 0.3800001,0.93 0.2,1.23 -0.17,0.26 -0.5,0.38 -0.94,0.38 a 4.32,4.32 0 0 1 -1.3,-0.24 c -0.27,1.12 -0.74,1.82 -1.3,1.82 -0.55,0 -1.02,-0.7 -1.3,-1.83 l -0.23,0.08 a 0.49,0.49 0 0 1 -0.93,0.17 h -0.14 c -0.56,0 -0.81,-0.2 -0.92,-0.39 -0.23,-0.37 -0.06,-0.94 0.49,-1.62 a 6.33,6.33 0 0 1 0.51,-0.55 6.24,6.24 0 0 1 -0.51,-0.56 c -0.55,-0.67 -0.72,-1.25 -0.5,-1.63 0.3,-0.47 1.15,-0.5 2.25,-0.13 a 6.4,6.4 0 0 1 0.1,-0.37 0.49,0.49 0 0 1 0.3,-0.86 h 0.07 c 0.3,-0.5 0.6,-0.6 0.82,-0.6 z m 0,0.29 c -0.18,0 -0.38,0.15 -0.55,0.43 a 0.49,0.49 0 0 1 -0.33,0.85 h -0.04 l -0.1,0.36 c 0.35,0.13 0.69,0.28 1.02,0.45 0.32,-0.17 0.66,-0.33 1,-0.46 -0.24,-1.01 -0.63,-1.63 -1,-1.63 z m 2.62,1.59 c -0.33,0 -0.76,0.08 -1.26,0.24 0.07,0.4 0.13,0.79 0.15,1.18 0.28,0.2 0.54,0.42 0.8,0.64 0.18,-0.16 0.34,-0.34 0.5,-0.53 0.45,-0.55 0.62,-1.04 0.47,-1.29 -0.1,-0.16 -0.33,-0.24 -0.66,-0.24 z m -5.24,0 c -0.33,0 -0.56,0.09 -0.66,0.24 -0.16,0.26 0.02,0.74 0.46,1.29 a 6.1,6.1 0 0 0 0.5,0.54 c 0.26,-0.23 0.53,-0.45 0.8,-0.65 a 9.57,9.57 0 0 1 0.17,-1.18 c -0.5,-0.16 -0.93,-0.24 -1.26,-0.24 z m 3.69,0.34 c -0.24,0.09 -0.5,0.2 -0.75,0.32 a 13.26,13.26 0 0 1 0.49,0.3 10,10 0 0 1 0.39,0.24 c -0.03,-0.3 -0.08,-0.6 -0.13,-0.86 z m -2.15,0 c -0.05,0.27 -0.1,0.56 -0.12,0.86 a 11.7,11.7 0 0 1 0.88,-0.53 8.97,8.97 0 0 0 -0.76,-0.33 z m 1.08,0.49 a 10.97,10.97 0 0 0 -1.23,0.75 11.2,11.2 0 0 0 0,1.37 10.56,10.56 0 0 0 1.23,0.76 9.87,9.87 0 0 0 1.23,-0.76 11.24,11.24 0 0 0 0,-1.37 10.54,10.54 0 0 0 -1.23,-0.75 z m 0,0.75 a 0.69,0.69 0 0 1 0,1.37 0.69,0.69 0 1 1 0,-1.37 z m -1.55,0.23 c -0.2,0.15 -0.38,0.3 -0.56,0.46 a 9.94,9.94 0 0 0 0.56,0.46 V 6.29 Z m 3.07,0 a 11.66,11.66 0 0 1 0,0.92 l 0.56,-0.46 c -0.18,-0.15 -0.36,-0.31 -0.56,-0.46 z m -3.85,0.66 c -0.17,0.17 -0.34,0.35 -0.5,0.54 -0.45,0.55 -0.62,1.03 -0.46,1.29 0.1,0.17 0.38,0.25 0.78,0.23 a 0.49,0.49 0 0 1 0.9,-0.16 l 0.23,-0.08 a 9.5,9.5 0 0 1 -0.15,-1.18 c -0.28,-0.2 -0.54,-0.41 -0.8,-0.64 z m 4.63,0 c -0.25,0.23 -0.52,0.45 -0.8,0.64 -0.02,0.4 -0.08,0.8 -0.15,1.18 0.99,0.33 1.72,0.32 1.92,0 0.1,-0.19 0.04,-0.5 -0.2,-0.9 a 0.47,0.47 0 0 1 -0.15,0.03 0.49,0.49 0 0 1 -0.49,-0.49 0.49,0.49 0 0 1 0.08,-0.25 7.19,7.19 0 0 0 -0.21,-0.2 z m -3.51,0.86 a 9.04,9.04 0 0 0 0.12,0.87 l 0.76,-0.32 a 41.45,41.45 0 0 0 -0.88,-0.55 z m 2.4,0 a 8.79,8.79 0 0 1 -0.88,0.54 8.73,8.73 0 0 0 0.75,0.32 c 0.05,-0.26 0.1,-0.55 0.13,-0.86 z m -1.2,0.7 c -0.33,0.17 -0.67,0.33 -1.01,0.45 0.24,1.02 0.64,1.64 1,1.64 0.38,0 0.77,-0.6 1.02,-1.63 a 9.5,9.5 0 0 1 -1.01,-0.45 z"
     id="path2"
     inkscape:connector-curvature="0"
     style="fill:#bde6fb;fill-opacity:1" />
</svg>
