<?xml version="1.0" encoding="UTF-8" standalone="no"?>
<svg
   width="47.546455"
   height="47.542679"
   viewBox="0 0 12.58 12.579"
   version="1.1"
   id="svg4"
   sodipodi:docname="atom.svg"
   inkscape:version="0.92.4 (5da689c313, 2019-01-14)"
   xmlns:inkscape="http://www.inkscape.org/namespaces/inkscape"
   xmlns:sodipodi="http://sodipodi.sourceforge.net/DTD/sodipodi-0.dtd"
   xmlns="http://www.w3.org/2000/svg"
   xmlns:svg="http://www.w3.org/2000/svg"
   xmlns:rdf="http://www.w3.org/1999/02/22-rdf-syntax-ns#"
   xmlns:cc="http://creativecommons.org/ns#"
   xmlns:dc="http://purl.org/dc/elements/1.1/">
  <metadata
     id="metadata10">
    <rdf:RDF>
      <cc:Work
         rdf:about="">
        <dc:format>image/svg+xml</dc:format>
        <dc:type
           rdf:resource="http://purl.org/dc/dcmitype/StillImage" />
        <dc:title />
      </cc:Work>
    </rdf:RDF>
  </metadata>
  <defs
     id="defs8" />
  <sodipodi:namedview
     pagecolor="#ffffff"
     bordercolor="#666666"
     borderopacity="1"
     objecttolerance="10"
     gridtolerance="10"
     guidetolerance="10"
     inkscape:pageopacity="0"
     inkscape:pageshadow="2"
     inkscape:window-width="1087"
     inkscape:window-height="480"
     id="namedview6"
     showgrid="false"
     inkscape:zoom="4.9166667"
     inkscape:cx="2.1355932"
     inkscape:cy="24"
     inkscape:window-x="0"
     inkscape:window-y="25"
     inkscape:window-maximized="0"
     inkscape:current-layer="svg4"
     inkscape:showpageshadow="0"
     inkscape:pagecheckerboard="0"
     inkscape:deskcolor="#d1d1d1" />
  <path
     d="M 6.29,9.9999565e-4 A 6.29,6.29 0 0 0 0,6.291 6.29,6.29 0 0 0 6.29,12.579 6.29,6.29 0 0 0 12.58,6.29 6.29,6.29 0 0 0 6.29,0 Z M 6.272,0.937 A 5.407,5.407 0 0 1 11.679,6.344 5.407,5.407 0 0 1 6.272,11.751 5.407,5.407 0 0 1 0.866,6.344 5.407,5.407 0 0 1 6.272,0.938 Z M 6.295,1.15 c -0.26,0 -0.643,0.133 -1.013,0.739 H 5.206 A 0.602,0.602 0 0 0 4.826,2.96 7.903,7.903 0 0 0 4.701,3.418 C 3.348,2.968 2.293,2.998 1.932,3.582 1.646,4.045 1.859,4.76 2.536,5.587 2.733,5.83 2.946,6.062 3.172,6.28 A 7.82,7.82 0 0 0 2.536,6.966 C 1.859,7.799 1.646,8.513 1.932,8.97 2.07,9.195 2.382,9.445 3.075,9.445 H 3.248 A 0.602,0.602 0 0 0 4.4,9.232 c 0.096,-0.027 0.193,-0.057 0.291,-0.09 0.336,1.383 0.912,2.264 1.603,2.264 0.69,0 1.265,-0.876 1.6,-2.256 a 5.338,5.338 0 0 0 1.603,0.3 c 0.547,0 0.96,-0.155 1.159,-0.476 0.23,-0.364 0.14,-0.893 -0.25,-1.518 A 0.599,0.599 0 0 0 10.528,7.099 0.603,0.603 0 0 0 9.681,6.552 8.827,8.827 0 0 0 9.418,6.286 C 9.644,6.071 9.857,5.841 10.055,5.601 10.731,4.767 10.945,4.053 10.658,3.595 10.294,3.012 9.248,2.981 7.896,3.413 7.56,2.028 6.98,1.151 6.296,1.151 Z m 0.002,0.361 c 0.456,0 0.944,0.762 1.247,2.016 C 7.117,3.691 6.7,3.88 6.295,4.093 5.891,3.883 5.475,3.698 5.048,3.537 5.084,3.38 5.125,3.23 5.168,3.088 h 0.04 A 0.603,0.603 0 0 0 5.617,2.041 C 5.834,1.698 6.071,1.511 6.297,1.511 Z M 9.535,3.476 C 9.943,3.478 10.227,3.58 10.347,3.774 10.54,4.086 10.325,4.685 9.771,5.364 9.578,5.597 9.371,5.819 9.151,6.028 8.838,5.748 8.51,5.483 8.169,5.238 8.135,4.748 8.072,4.261 7.978,3.778 8.595,3.571 9.127,3.473 9.535,3.476 Z M 3.06,3.481 c 0.41,0 0.942,0.095 1.552,0.297 A 11.83,11.83 0 0 0 4.425,5.234 C 4.083,5.482 3.753,5.747 3.438,6.029 A 7.536,7.536 0 0 1 2.818,5.367 C 2.272,4.683 2.05,4.091 2.243,3.777 2.363,3.584 2.65,3.483 3.06,3.481 Z M 7.622,3.894 C 7.688,4.225 7.741,4.583 7.777,4.963 A 12.35,12.35 0 0 0 7.3,4.653 16.396,16.396 0 0 0 6.69,4.297 C 7.014,4.14 7.325,4.005 7.622,3.894 Z M 4.968,3.897 C 5.265,4.008 5.577,4.144 5.9,4.3 A 14.458,14.458 0 0 0 4.813,4.966 C 4.849,4.59 4.903,4.235 4.968,3.897 Z M 6.295,4.499 A 13.034,13.034 0 0 1 7.815,5.432 13.887,13.887 0 0 1 7.813,7.124 V 7.125 C 7.585,7.285 7.351,7.442 7.106,7.594 6.862,7.745 6.566,7.918 6.295,8.057 A 13.05,13.05 0 0 1 4.775,7.124 13.835,13.835 0 0 1 4.777,5.432 13.56,13.56 0 0 1 6.295,4.499 Z m 0,0.931 a 0.8485,0.8485 0 1 0 0,1.697 0.8485,0.8485 0 0 0 0,-1.697 z M 4.397,5.71 c 0,0.182 -0.013,0.377 -0.013,0.568 0,0.191 0.004,0.381 0.011,0.567 A 12.291,12.291 0 0 1 3.706,6.278 C 3.922,6.087 4.153,5.898 4.397,5.71 Z M 8.195,5.712 C 8.439,5.898 8.665,6.096 8.883,6.278 8.67,6.468 8.44,6.658 8.195,6.845 a 14.416,14.416 0 0 0 0,-1.133 z M 3.437,6.531 c 0.314,0.28 0.641,0.544 0.982,0.79 0.033,0.49 0.097,0.977 0.191,1.459 -0.1,0.04 -0.2,0.07 -0.3,0.098 A 0.603,0.603 0 0 0 3.205,9.081 C 2.717,9.105 2.375,9.001 2.241,8.786 2.048,8.474 2.263,7.874 2.817,7.196 3.01,6.962 3.217,6.74 3.437,6.531 Z m 5.715,0.004 c 0.09,0.086 0.175,0.172 0.257,0.257 a 0.601,0.601 0 0 0 -0.09,0.31 c 0,0.334 0.271,0.605 0.606,0.605 a 0.585,0.585 0 0 0 0.182,-0.033 c 0.3,0.478 0.38,0.872 0.24,1.11 -0.239,0.389 -1.144,0.403 -2.37,0 C 8.072,8.303 8.135,7.816 8.169,7.326 8.509,7.08 8.839,6.816 9.152,6.535 Z M 4.812,7.593 C 4.97,7.699 5.129,7.802 5.291,7.903 5.495,8.023 5.697,8.145 5.898,8.267 5.582,8.42 5.271,8.553 4.968,8.668 A 11.175,11.175 0 0 1 4.813,7.593 Z M 7.777,7.594 C 7.741,7.974 7.687,8.331 7.622,8.659 V 8.661 A 10.786,10.786 0 0 1 6.691,8.258 C 6.895,8.145 7.097,8.028 7.3,7.904 7.464,7.804 7.622,7.7 7.777,7.594 Z M 6.295,8.466 C 6.701,8.676 7.119,8.862 7.546,9.023 7.24,10.288 6.751,11.043 6.295,11.043 5.837,11.043 5.349,10.28 5.046,9.02 5.473,8.86 5.89,8.674 6.295,8.466 Z"
     id="path2"
     inkscape:connector-curvature="0"
     style="fill:#bde6fb;fill-opacity:1" />
</svg>
