<?xml version="1.0" encoding="UTF-8" standalone="no"?>
<svg
   width="47.546455"
   height="47.542679"
   viewBox="0 0 12.58 12.579"
   version="1.1"
   id="svg4"
   sodipodi:docname="atril.svg"
   inkscape:version="0.92.4 (5da689c313, 2019-01-14)"
   xmlns:inkscape="http://www.inkscape.org/namespaces/inkscape"
   xmlns:sodipodi="http://sodipodi.sourceforge.net/DTD/sodipodi-0.dtd"
   xmlns="http://www.w3.org/2000/svg"
   xmlns:svg="http://www.w3.org/2000/svg"
   xmlns:rdf="http://www.w3.org/1999/02/22-rdf-syntax-ns#"
   xmlns:cc="http://creativecommons.org/ns#"
   xmlns:dc="http://purl.org/dc/elements/1.1/">
  <metadata
     id="metadata10">
    <rdf:RDF>
      <cc:Work
         rdf:about="">
        <dc:format>image/svg+xml</dc:format>
        <dc:type
           rdf:resource="http://purl.org/dc/dcmitype/StillImage" />
        <dc:title />
      </cc:Work>
    </rdf:RDF>
  </metadata>
  <defs
     id="defs8" />
  <sodipodi:namedview
     pagecolor="#ffffff"
     bordercolor="#666666"
     borderopacity="1"
     objecttolerance="10"
     gridtolerance="10"
     guidetolerance="10"
     inkscape:pageopacity="0"
     inkscape:pageshadow="2"
     inkscape:window-width="1087"
     inkscape:window-height="480"
     id="namedview6"
     showgrid="false"
     inkscape:zoom="4.9166667"
     inkscape:cx="2.1355932"
     inkscape:cy="24"
     inkscape:window-x="0"
     inkscape:window-y="25"
     inkscape:window-maximized="0"
     inkscape:current-layer="svg4"
     inkscape:showpageshadow="0"
     inkscape:pagecheckerboard="0"
     inkscape:deskcolor="#d1d1d1" />
  <path
     d="M 6.29,9.9999565e-4 A 6.29,6.29 0 0 0 0,6.291 6.29,6.29 0 0 0 6.29,12.579 6.29,6.29 0 0 0 12.58,6.29 6.29,6.29 0 0 0 6.29,0 Z M 6.272,0.937 a 5.407,5.407 0 0 1 4.3,2.138 C 9.705,3.995 7.472,5.659 6.797,5.659 6.718,5.659 6.687,5.035 6.619,4.092 6.549,3.111 6.574,2.305 6.458,2.36 6.442,2.367 6.171,3.1 5.772,3.823 4.814,5.559 4.207,6.32 3.225,6.974 2.8,7.257 2.132,7.614 1.985,7.809 1.845,7.995 1.93,7.881 2.497,7.719 3.913,7.312 3.807,6.989 2.737,8.272 1.279,10.02 2.012,9.477 3.539,8.049 4.239,7.394 5.003,6.935 5.201,6.859 5.414,6.776 5.548,6.719 5.813,6.701 6.127,6.68 6.308,6.711 6.425,7.057 6.524,7.35 6.749,7.886 7.103,8.305 c 0.143,0.17 0.27,0.251 0.4,0.333 0.121,0.074 0.243,0.153 0.41,0.187 0.335,0.074 0.559,0.037 0.794,0.026 0.503,-0.03 1.357,-0.489 1.943,-0.96 0.69,-0.554 0.939,-0.827 1.017,-1.312 A 5.407,5.407 0 0 1 6.272,11.751 5.407,5.407 0 0 1 0.866,6.344 5.407,5.407 0 0 1 6.272,0.938 Z M 11.148,4.02 A 5.407,5.407 0 0 1 11.53,5.113 L 11.245,5.535 C 10.286,6.966 9.136,7.918 8.359,7.918 6.646,7.918 6.418,6.594 8.045,5.925 9.126,5.48 10.409,4.693 11.148,4.021 Z M 6.11,4.365 6.177,5.122 C 6.164,5.62 5.889,5.902 5.584,6.029 5.282,6.156 4.984,6.372 5.012,6.034 5.027,5.855 5.297,5.569 5.622,5.112 Z"
     id="path2"
     inkscape:connector-curvature="0"
     style="fill:#bde6fb;fill-opacity:1" />
</svg>
