<?xml version="1.0" encoding="UTF-8" standalone="no"?>
<svg
   width="47.546455"
   height="47.542679"
   viewBox="0 0 12.58 12.579"
   version="1.1"
   id="svg4"
   sodipodi:docname="audacity.svg"
   inkscape:version="0.92.4 (5da689c313, 2019-01-14)"
   xmlns:inkscape="http://www.inkscape.org/namespaces/inkscape"
   xmlns:sodipodi="http://sodipodi.sourceforge.net/DTD/sodipodi-0.dtd"
   xmlns="http://www.w3.org/2000/svg"
   xmlns:svg="http://www.w3.org/2000/svg"
   xmlns:rdf="http://www.w3.org/1999/02/22-rdf-syntax-ns#"
   xmlns:cc="http://creativecommons.org/ns#"
   xmlns:dc="http://purl.org/dc/elements/1.1/">
  <metadata
     id="metadata10">
    <rdf:RDF>
      <cc:Work
         rdf:about="">
        <dc:format>image/svg+xml</dc:format>
        <dc:type
           rdf:resource="http://purl.org/dc/dcmitype/StillImage" />
        <dc:title />
      </cc:Work>
    </rdf:RDF>
  </metadata>
  <defs
     id="defs8" />
  <sodipodi:namedview
     pagecolor="#ffffff"
     bordercolor="#666666"
     borderopacity="1"
     objecttolerance="10"
     gridtolerance="10"
     guidetolerance="10"
     inkscape:pageopacity="0"
     inkscape:pageshadow="2"
     inkscape:window-width="1087"
     inkscape:window-height="480"
     id="namedview6"
     showgrid="false"
     inkscape:zoom="4.9166667"
     inkscape:cx="2.1355932"
     inkscape:cy="24"
     inkscape:window-x="0"
     inkscape:window-y="25"
     inkscape:window-maximized="0"
     inkscape:current-layer="svg4"
     inkscape:showpageshadow="0"
     inkscape:pagecheckerboard="0"
     inkscape:deskcolor="#d1d1d1" />
  <path
     d="M 6.29,9.9999565e-4 A 6.29,6.29 0 0 0 0,6.291 6.29,6.29 0 0 0 6.29,12.579 6.29,6.29 0 0 0 12.58,6.29 6.29,6.29 0 0 0 6.29,0 Z M 6.272,0.937 A 5.407,5.407 0 0 1 11.679,6.344 5.407,5.407 0 0 1 6.272,11.751 5.407,5.407 0 0 1 0.866,6.344 5.407,5.407 0 0 1 6.272,0.938 Z m 0.027,0.8 c -0.318,0 -0.644,0.045 -0.965,0.13 -2.056,0.54 -3.272,2.6 -2.721,4.612 L 3.242,6.322 A 3.077,3.077 0 0 1 3.126,5.505 c 0,-1.736 1.43,-3.137 3.203,-3.137 1.773,0 3.217,1.4 3.217,3.137 0,0.283 -0.044,0.556 -0.116,0.817 l 0.63,0.157 a 3.678,3.678 0 0 0 0,-1.948 C 9.594,2.833 8.015,1.721 6.3,1.737 Z M 7.104,6.522 V 6.525 C 7.075,6.52 7.048,6.539 7.031,6.553 7.014,6.568 7.009,6.581 7.001,6.597 6.986,6.628 6.981,6.667 6.972,6.711 6.955,6.801 6.938,6.921 6.929,7.069 6.909,7.366 6.895,7.761 6.885,8.158 6.875,8.555 6.865,8.951 6.841,9.246 A 2.876,2.876 0 0 1 6.797,9.605 C 6.795,9.615 6.785,9.615 6.782,9.619 A 1.664,1.664 0 0 1 6.738,9.347 C 6.718,9.114 6.718,8.803 6.709,8.487 A 14.918,14.918 0 0 0 6.665,7.613 1.891,1.891 0 0 0 6.622,7.313 0.35,0.35 0 0 0 6.578,7.213 C 6.559,7.183 6.536,7.155 6.489,7.155 A 0.17,0.17 0 0 0 6.387,7.198 C 6.365,7.219 6.356,7.242 6.344,7.27 6.319,7.325 6.31,7.39 6.299,7.47 A 5.94,5.94 0 0 0 6.256,8.043 C 6.248,8.249 6.246,8.453 6.226,8.602 A 0.732,0.732 0 0 1 6.183,8.773 0.13,0.13 0 0 1 6.168,8.803 C 6.165,8.803 6.158,8.792 6.153,8.788 A 0.216,0.216 0 0 1 6.124,8.716 1.657,1.657 0 0 1 6.094,8.444 C 6.089,8.341 6.091,8.232 6.066,8.143 A 0.25,0.25 0 0 0 6.007,8.029 0.208,0.208 0 0 0 5.861,7.971 C 5.798,7.976 5.756,8.022 5.73,8.071 A 0.562,0.562 0 0 0 5.67,8.244 C 5.648,8.377 5.647,8.55 5.641,8.716 5.635,8.882 5.631,9.044 5.612,9.16 5.604,9.212 5.58,9.25 5.568,9.275 5.564,9.265 5.558,9.261 5.554,9.246 A 1.547,1.547 0 0 1 5.509,8.988 12.971,12.971 0 0 1 5.466,8.172 C 5.456,7.872 5.457,7.569 5.436,7.341 A 1.868,1.868 0 0 0 5.393,7.054 C 5.383,7.018 5.366,6.996 5.349,6.968 5.332,6.941 5.307,6.897 5.261,6.897 A 0.135,0.135 0 0 0 5.159,6.954 C 5.142,6.98 5.139,7.006 5.129,7.04 A 1.58,1.58 0 0 0 5.085,7.298 C 5.064,7.504 5.053,7.774 5.042,8.043 5.03,8.312 5.02,8.576 4.998,8.773 4.987,8.871 4.969,8.953 4.953,9.003 4.944,8.977 4.917,8.947 4.91,8.902 4.892,8.789 4.89,8.644 4.88,8.486 4.871,8.328 4.862,8.168 4.837,8.043 A 0.59,0.59 0 0 0 4.779,7.871 C 4.752,7.825 4.709,7.784 4.647,7.784 A 0.136,0.136 0 0 0 4.544,7.842 0.263,0.263 0 0 0 4.5,7.928 C 4.48,7.998 4.465,8.091 4.457,8.199 4.44,8.416 4.447,8.704 4.442,8.988 4.437,9.271 4.422,9.553 4.398,9.762 A 1.2,1.2 0 0 1 4.354,10.004 C 4.347,10.024 4.345,10.037 4.34,10.048 4.332,10.035 4.318,10.02 4.31,9.99 A 1.417,1.417 0 0 1 4.281,9.819 h 0.03 L 4.267,9.675 V 9.648 C 4.244,9.381 4.229,9.028 4.223,8.674 4.217,8.31 4.211,7.946 4.193,7.671 4.185,7.533 4.182,7.413 4.163,7.327 4.155,7.285 4.136,7.258 4.12,7.227 4.112,7.211 4.107,7.197 4.091,7.184 A 0.12,0.12 0 0 0 4.018,7.155 C 3.968,7.155 3.945,7.197 3.93,7.227 3.914,7.257 3.91,7.287 3.9,7.327 3.883,7.407 3.865,7.514 3.857,7.642 3.849,7.765 3.847,7.936 3.842,8.086 L 3.491,6.768 2.701,6.983 a 0.773,0.773 0 0 0 -0.556,0.96 l 0.41,1.519 a 0.8,0.8 0 0 0 0.98,0.558 c 0.23,-0.037 0.381,-0.095 0.614,-0.157 0.01,0.051 0.017,0.116 0.03,0.157 0.012,0.044 0.022,0.083 0.044,0.115 0.021,0.032 0.068,0.073 0.117,0.072 0.04,0 0.079,-0.03 0.102,-0.057 0.023,-0.028 0.03,-0.065 0.044,-0.101 A 1.21,1.21 0 0 0 4.544,9.776 C 4.569,9.557 4.568,9.273 4.574,8.989 4.578,8.705 4.587,8.424 4.604,8.215 4.611,8.111 4.617,8.025 4.632,7.972 A 0.34,0.34 0 0 1 4.647,7.928 c 10e-4,0 10e-4,-0.009 0.014,0.014 0.014,0.023 0.018,0.074 0.03,0.129 0.021,0.11 0.034,0.258 0.043,0.415 0.01,0.157 0.024,0.32 0.045,0.445 0.01,0.062 0.021,0.11 0.043,0.157 0.011,0.023 0.024,0.053 0.044,0.071 a 0.11,0.11 0 0 0 0.073,0.03 c 0.043,0 0.084,-0.032 0.103,-0.058 A 0.28,0.28 0 0 0 5.085,9.045 1.48,1.48 0 0 0 5.129,8.787 C 5.153,8.582 5.162,8.325 5.174,8.057 5.184,7.787 5.197,7.51 5.218,7.312 5.226,7.232 5.235,7.176 5.246,7.125 c 0.013,0.058 0.036,0.137 0.044,0.23 0.02,0.22 0.034,0.517 0.044,0.816 0.01,0.3 0.02,0.602 0.044,0.831 0.012,0.115 0.023,0.212 0.044,0.286 0.01,0.037 0.025,0.059 0.044,0.086 0.018,0.029 0.043,0.07 0.088,0.072 C 5.617,9.45 5.674,9.394 5.7,9.346 5.725,9.299 5.734,9.239 5.744,9.173 5.765,9.043 5.781,8.881 5.788,8.716 5.794,8.55 5.797,8.389 5.817,8.271 5.827,8.212 5.832,8.168 5.846,8.142 5.86,8.116 5.873,8.114 5.876,8.114 c 0.016,0 0.02,0.002 0.028,0.013 0.01,0.01 0.021,0.026 0.03,0.058 0.019,0.064 0.024,0.17 0.03,0.272 0.005,0.103 0.007,0.211 0.029,0.3 0.01,0.045 0.03,0.08 0.058,0.115 C 6.08,8.907 6.131,8.93 6.183,8.93 6.218,8.93 6.249,8.923 6.27,8.9 6.292,8.879 6.303,8.842 6.315,8.814 a 0.82,0.82 0 0 0 0.043,-0.2 C 6.379,8.454 6.394,8.247 6.402,8.041 6.41,7.836 6.41,7.631 6.432,7.483 A 0.582,0.582 0 0 1 6.475,7.325 c 0.003,0.01 0.01,0.016 0.014,0.029 0.017,0.061 0.034,0.155 0.045,0.272 0.02,0.233 0.02,0.543 0.03,0.86 0.007,0.315 0.021,0.632 0.043,0.872 0.01,0.12 0.023,0.225 0.044,0.302 0.01,0.038 0.025,0.072 0.044,0.1 a 0.124,0.124 0 0 0 0.102,0.058 c 0.027,0 0.042,-0.015 0.058,-0.03 C 6.872,9.775 6.891,9.762 6.9,9.746 A 0.443,0.443 0 0 0 6.944,9.631 C 6.965,9.537 6.974,9.41 6.987,9.259 7.012,8.957 7.021,8.553 7.031,8.156 7.041,7.759 7.057,7.359 7.075,7.067 7.082,6.957 7.08,6.883 7.09,6.809 c 0.014,0.088 0.034,0.193 0.044,0.33 0.022,0.32 0.046,0.75 0.058,1.175 0.012,0.425 0.022,0.855 0.043,1.174 0.011,0.16 0.027,0.29 0.045,0.387 0.009,0.048 0.014,0.081 0.029,0.114 0.007,0.017 0.015,0.042 0.03,0.057 0.014,0.016 0.041,0.03 0.072,0.03 A 0.118,0.118 0 0 0 7.499,10.018 0.318,0.318 0 0 0 7.543,9.932 C 7.563,9.865 7.575,9.777 7.587,9.674 7.61,9.469 7.617,9.197 7.63,8.93 7.643,8.662 7.652,8.396 7.674,8.198 7.685,8.1 7.704,8.021 7.719,7.969 7.727,7.994 7.741,8.013 7.748,8.055 7.766,8.167 7.768,8.326 7.777,8.485 7.787,8.645 7.795,8.803 7.82,8.93 A 0.582,0.582 0 0 0 7.879,9.101 0.178,0.178 0 0 0 8.026,9.187 C 8.061,9.187 8.09,9.166 8.113,9.144 8.137,9.123 8.145,9.1 8.157,9.073 A 0.74,0.74 0 0 0 8.216,8.871 C 8.239,8.711 8.238,8.504 8.245,8.299 8.252,8.093 8.27,7.889 8.289,7.739 8.299,7.666 8.304,7.603 8.319,7.568 c 0.002,0.004 0.01,0.004 0.014,0.014 0.015,0.048 0.034,0.135 0.043,0.23 0.02,0.19 0.024,0.44 0.03,0.702 0.006,0.26 0.007,0.53 0.029,0.73 0.008,0.077 0.027,0.131 0.044,0.186 l -0.103,0.387 0.776,0.2 a 0.801,0.801 0 0 0 0.98,-0.558 L 10.542,7.94 A 0.773,0.773 0 0 0 9.985,6.98 L 9.195,6.766 9.065,7.253 C 9.059,7.239 9.058,7.223 9.05,7.21 9.027,7.178 8.995,7.152 8.947,7.152 8.904,7.152 8.864,7.182 8.844,7.21 A 0.248,0.248 0 0 0 8.801,7.295 1.619,1.619 0 0 0 8.757,7.582 c -0.02,0.223 -0.024,0.51 -0.03,0.802 0,0.053 0.002,0.091 0,0.143 L 8.581,9.072 C 8.571,8.901 8.557,8.717 8.552,8.514 A 9.501,9.501 0 0 0 8.508,7.797 C 8.498,7.697 8.487,7.605 8.465,7.539 A 0.26,0.26 0 0 0 8.42,7.453 0.106,0.106 0 0 0 8.333,7.41 C 8.297,7.41 8.252,7.417 8.23,7.439 8.209,7.461 8.197,7.497 8.186,7.525 a 0.812,0.812 0 0 0 -0.044,0.2 C 8.122,7.885 8.12,8.093 8.113,8.299 A 5.46,5.46 0 0 1 8.069,8.857 C 8.059,8.931 8.056,8.98 8.04,9.014 8.034,9.028 8.014,9.026 8.01,9.029 A 0.47,0.47 0 0 1 7.967,8.9 3.484,3.484 0 0 1 7.923,8.47 4.201,4.201 0 0 0 7.879,8.04 0.644,0.644 0 0 0 7.835,7.869 0.156,0.156 0 0 0 7.792,7.811 0.142,0.142 0 0 0 7.704,7.783 C 7.661,7.783 7.633,7.814 7.616,7.84 7.599,7.865 7.596,7.893 7.586,7.926 7.567,7.992 7.554,8.081 7.543,8.184 7.52,8.389 7.497,8.662 7.484,8.929 7.471,9.196 7.462,9.462 7.44,9.659 A 1.533,1.533 0 0 1 7.411,9.831 3.321,3.321 0 0 1 7.367,9.474 C 7.346,9.159 7.336,8.739 7.324,8.314 7.312,7.888 7.302,7.464 7.279,7.138 A 3.807,3.807 0 0 0 7.235,6.737 C 7.226,6.687 7.221,6.643 7.207,6.608 7.199,6.591 7.19,6.581 7.177,6.565 A 0.128,0.128 0 0 0 7.104,6.522 Z"
     id="path2"
     inkscape:connector-curvature="0"
     style="fill:#bde6fb;fill-opacity:1" />
</svg>
