<?xml version="1.0" encoding="UTF-8" standalone="no"?>
<svg
   width="48"
   height="48"
   viewBox="0 0 12.7 12.7"
   version="1.1"
   id="svg4"
   sodipodi:docname="audiobook.svg"
   inkscape:version="0.92.5 (2060ec1f9f, 2020-04-08)"
   xmlns:inkscape="http://www.inkscape.org/namespaces/inkscape"
   xmlns:sodipodi="http://sodipodi.sourceforge.net/DTD/sodipodi-0.dtd"
   xmlns="http://www.w3.org/2000/svg"
   xmlns:svg="http://www.w3.org/2000/svg">
  <sodipodi:namedview
     id="namedview1"
     pagecolor="#505050"
     bordercolor="#eeeeee"
     borderopacity="1"
     inkscape:showpageshadow="0"
     inkscape:pageopacity="0"
     inkscape:pagecheckerboard="0"
     inkscape:deskcolor="#d1d1d1" />
  <defs
     id="defs8">
    <style
       id="current-color-scheme"
       type="text/css">&#10;      .ColorScheme-Highlight {&#10;        color:#1e3f5a;&#10;      }&#10;  </style>
  </defs>
  <path
     class="ColorScheme-Highlight"
     style="fill:#bde6fb;fill-opacity:1;stroke-width:0.264583"
     d="M 6.3499999,0 A 6.3499999,6.3499999 0 0 0 0,6.3499999 6.3499999,6.3499999 0 0 0 6.3499999,12.7 6.3499999,6.3499999 0 0 0 12.7,6.3499999 6.3499999,6.3499999 0 0 0 6.3499999,0 Z m 0,0.79374999 A 5.5562499,5.5562499 0 0 1 11.90625,6.3499999 5.5562499,5.5562499 0 0 1 6.3499999,11.90625 5.5562499,5.5562499 0 0 1 0.79374999,6.3499999 5.5562499,5.5562499 0 0 1 6.3499999,0.79374999 Z M 3.7041666,2.6458333 C 3.4110083,2.6458333 3.175,2.8818416 3.175,3.175 v 6.3499999 c 0,0.2931583 0.2360083,0.5291671 0.5291666,0.5291671 h 2.38125 V 9.5249999 H 4.2333333 V 3.175 h 2.1166666 v 2.9104166 l 0.79375,-0.79375 0.79375,0.79375 V 3.175 h 0.79375 c 0.1465789,0 0.2645833,0.1180041 0.2645833,0.2645833 V 6.8791666 H 9.5249999 V 3.175 c 0,-0.2931584 -0.2360086,-0.5291667 -0.5291667,-0.5291667 h -1.0583333 -1.5875 z m 4.4979166,4.7624999 a 1.5875,1.5875 0 0 0 -1.5874999,1.5875 1.5875,1.5875 0 0 0 1.5874999,1.5874998 z M 8.8268513,7.538558 8.7229817,7.7798868 a 1.3229165,1.3229165 0 0 1 0.1131712,0.054777 1.3229165,1.3229165 0 0 1 0.1126549,0.069246 1.3229165,1.3229165 0 0 1 0.1054198,0.080098 1.3229165,1.3229165 0 0 1 0.096635,0.089917 1.3229165,1.3229165 0 0 1 0.087333,0.099735 1.3229165,1.3229165 0 0 1 0.076998,0.1074869 1.3229165,1.3229165 0 0 1 0.065629,0.1147218 1.3229165,1.3229165 0 0 1 0.05426,0.120406 1.3229165,1.3229165 0 0 1 0.041858,0.1255737 1.3229165,1.3229165 0 0 1 0.028939,0.1291912 1.3229165,1.3229165 0 0 1 0.01602,0.131258 1.3229165,1.3229165 0 0 1 0.0031,0.093534 1.3229165,1.3229165 0 0 1 -0.00672,0.1322917 1.3229165,1.3229165 0 0 1 -0.019637,0.1307415 1.3229165,1.3229165 0 0 1 -0.032556,0.1281575 1.3229165,1.3229165 0 0 1 -0.045475,0.1240234 1.3229165,1.3229165 0 0 1 -0.057361,0.1188556 1.3229165,1.3229165 0 0 1 -0.069247,0.1126549 1.3229165,1.3229165 0 0 1 -0.080098,0.1054197 1.3229165,1.3229165 0 0 1 -0.089917,0.096635 1.3229165,1.3229165 0 0 1 -0.099735,0.087333 1.3229165,1.3229165 0 0 1 -0.107487,0.077 1.3229165,1.3229165 0 0 1 -0.1147217,0.06563 1.3229165,1.3229165 0 0 1 -0.079582,0.03566 l 0.104903,0.243913 A 1.5874999,1.5874999 0 0 0 9.7895832,8.9958332 1.5874999,1.5874999 0 0 0 8.8268513,7.538558 Z M 8.9498412,8.2480752 8.7627726,8.4351438 a 0.79374999,0.79374999 0 0 1 0.00878,0.00775 0.79374999,0.79374999 0 0 1 0.052193,0.059428 0.79374999,0.79374999 0 0 1 0.045992,0.064595 0.79374999,0.79374999 0 0 1 0.039791,0.06873 0.79374999,0.79374999 0 0 1 0.032556,0.072347 0.79374999,0.79374999 0 0 1 0.024805,0.075448 0.79374999,0.79374999 0 0 1 0.017571,0.077514 0.79374999,0.79374999 0 0 1 0.0093,0.078548 0.79374999,0.79374999 0 0 1 0.00207,0.056327 0.79374999,0.79374999 0 0 1 -0.00414,0.079065 0.79374999,0.79374999 0 0 1 -0.011885,0.078548 0.79374999,0.79374999 0 0 1 -0.019637,0.076998 0.79374999,0.79374999 0 0 1 -0.026872,0.074414 0.79374999,0.79374999 0 0 1 -0.034623,0.071314 0.79374999,0.79374999 0 0 1 -0.041341,0.067696 0.79374999,0.79374999 0 0 1 -0.048059,0.063562 0.79374999,0.79374999 0 0 1 -0.046509,0.049093 L 8.9498402,9.7435912 A 1.0583332,1.0583332 0 0 0 9.2604166,8.9958332 1.0583332,1.0583332 0 0 0 8.9498412,8.2480752 Z"
     id="path845" />
</svg>
