<?xml version="1.0" encoding="UTF-8" standalone="no"?>
<svg
   width="47.542679"
   height="47.546455"
   viewBox="0 0 12.579 12.58"
   version="1.1"
   id="svg4"
   sodipodi:docname="autopsy.svg"
   inkscape:version="0.92.5 (2060ec1f9f, 2020-04-08)"
   xmlns:inkscape="http://www.inkscape.org/namespaces/inkscape"
   xmlns:sodipodi="http://sodipodi.sourceforge.net/DTD/sodipodi-0.dtd"
   xmlns="http://www.w3.org/2000/svg"
   xmlns:svg="http://www.w3.org/2000/svg"
   xmlns:rdf="http://www.w3.org/1999/02/22-rdf-syntax-ns#"
   xmlns:cc="http://creativecommons.org/ns#"
   xmlns:dc="http://purl.org/dc/elements/1.1/">
  <metadata
     id="metadata10">
    <rdf:RDF>
      <cc:Work
         rdf:about="">
        <dc:format>image/svg+xml</dc:format>
        <dc:type
           rdf:resource="http://purl.org/dc/dcmitype/StillImage" />
        <dc:title />
      </cc:Work>
    </rdf:RDF>
  </metadata>
  <defs
     id="defs8" />
  <sodipodi:namedview
     pagecolor="#ffffff"
     bordercolor="#666666"
     borderopacity="1"
     objecttolerance="10"
     gridtolerance="10"
     guidetolerance="10"
     inkscape:pageopacity="0"
     inkscape:pageshadow="2"
     inkscape:window-width="1085"
     inkscape:window-height="480"
     id="namedview6"
     showgrid="false"
     inkscape:zoom="4.9166667"
     inkscape:cx="2.1355932"
     inkscape:cy="24"
     inkscape:window-x="0"
     inkscape:window-y="25"
     inkscape:window-maximized="0"
     inkscape:current-layer="svg4"
     inkscape:showpageshadow="0"
     inkscape:pagecheckerboard="0"
     inkscape:deskcolor="#d1d1d1" />
  <path
     d="M 6.285,0 A 6.295,6.295 0 0 0 0,6.285 6.295,6.295 0 0 0 6.285,12.58 6.295,6.295 0 0 0 12.579,6.285 6.295,6.295 0 0 0 6.285,0 Z M 6.274,0.94 a 5.408,5.408 0 0 1 5.397,5.387 5.407,5.407 0 0 1 -10.814,0 C 0.857,3.34 3.287,0.94 6.274,0.94 Z M 8.811,1.788 8.814,1.791 8.804,1.792 H 8.802 L 8.794,1.796 H 8.791 A 0.042,0.042 0 0 0 8.783,1.801 c 0,0.001 0,-0.012 -0.002,-0.012 L 8.777,1.792 A 0.196,0.196 0 0 0 8.761,1.804 L 8.757,1.807 8.738,1.824 A 1.125,1.125 0 0 0 8.71,1.853 L 8.708,1.854 C 8.662,1.903 8.62,1.954 8.581,2.011 8.411,2.257 8.299,2.6 8.186,3.187 8.146,3.392 8.092,3.632 8.066,3.72 A 2.16,2.16 0 0 1 7.865,4.187 0.086,0.086 0 0 1 7.855,4.198 0.023,0.023 0 0 1 7.847,4.204 2.14,2.14 0 0 1 7.55,4.191 C 7.208,4.163 6.795,4.181 6.27,4.247 L 5.857,4.299 5.813,4.243 C 5.733,4.137 5.61,3.883 5.44,3.469 5.11,2.662 4.873,2.319 4.48,2.073 4.353,1.993 4.097,1.895 4.018,1.895 A 0.07,0.07 0 0 0 3.984,1.903 0.04,0.04 0 0 0 3.975,1.908 0.043,0.043 0 0 0 3.969,1.916 C 3.949,1.948 3.961,2.019 4.006,2.152 4.031,2.228 4.069,2.42 4.09,2.58 4.137,2.937 4.115,3.156 3.993,3.545 3.861,3.965 3.793,4.242 3.779,4.421 3.758,4.686 3.824,4.865 4.172,5.477 c 0.21,0.37 0.241,0.48 0.229,0.83 -0.01,0.272 -0.01,0.275 -0.108,0.44 A 1.394,1.394 0 0 0 4.195,6.938 c 0,0.01 -0.01,0.026 -0.022,0.04 L 4.159,6.992 A 0.06,0.06 0 0 1 4.148,7 C 4.12,7.014 4.078,7.004 3.964,6.962 A 1.615,1.615 0 0 0 2.847,6.957 1.5,1.5 0 0 0 2.809,6.972 L 2.773,6.987 A 1.79,1.79 0 0 0 2.596,7.074 1.27,1.27 0 0 0 2.561,7.094 L 2.528,7.115 A 1.334,1.334 0 0 0 2.495,7.137 L 2.469,7.155 2.462,7.16 2.43,7.183 V 7.185 L 2.399,7.208 2.368,7.234 2.351,7.249 2.338,7.259 V 7.26 A 1.71,1.71 0 0 0 2.278,7.314 L 2.25,7.344 A 1.461,1.461 0 0 0 2.222,7.373 1.592,1.592 0 0 0 4.427,9.668 V 9.667 A 1.656,1.656 0 0 0 4.519,9.581 V 9.579 A 2.004,2.004 0 0 0 4.594,9.497 L 4.632,9.453 4.667,9.409 V 9.408 L 4.677,9.396 4.7,9.366 A 0.955,0.955 0 0 0 4.772,9.254 1.004,1.004 0 0 1 4.864,9.114 V 9.113 A 0.128,0.128 0 0 1 4.875,9.102 L 4.884,9.095 c 0.076,-0.03 0.853,0.11 0.978,0.175 0.022,0.011 0.106,0.156 0.186,0.32 0.08,0.165 0.165,0.337 0.188,0.382 0.048,0.096 0.219,0.177 0.44,0.21 0.208,0.03 0.211,0.03 0.4,-0.056 0.1,-0.044 0.247,-0.098 0.328,-0.121 0.158,-0.044 0.196,-0.04 0.52,0.05 0.071,0.02 0.199,0.035 0.285,0.035 A 0.596,0.596 0 0 0 8.475,10.03 H 8.476 A 1.155,1.155 0 0 0 8.642,9.93 H 8.643 L 8.689,9.896 H 8.69 C 8.717,9.875 8.746,9.852 8.776,9.826 L 8.79,9.815 A 4.98,4.98 0 0 0 8.844,9.768 H 8.845 L 8.903,9.716 8.942,9.68 C 8.955,9.67 8.966,9.658 8.976,9.648 H 8.977 A 0.491,0.491 0 0 0 9.055,9.561 C 9.125,9.462 9.116,9.381 9.057,9.221 A 7.962,7.962 0 0 1 8.997,9.052 C 8.995,9.045 8.997,9.036 9.001,9.026 A 0.125,0.125 0 0 1 9.017,9.004 L 9.028,8.99 A 0.714,0.714 0 0 1 9.081,8.94 H 9.082 L 9.092,8.931 9.154,8.881 9.163,8.874 9.173,8.866 A 1.943,1.943 0 0 0 9.25,8.804 L 9.283,8.772 9.299,8.757 9.312,8.743 V 8.742 L 9.337,8.714 9.341,8.706 9.356,8.686 A 0.395,0.395 0 0 0 9.388,8.627 L 9.435,8.518 9.7,8.502 C 9.846,8.494 10.108,8.487 10.283,8.487 10.575,8.486 10.657,8.482 10.7,8.444 a 0.061,0.061 0 0 0 0.01,-0.01 V 8.433 l 0.009,-0.01 V 8.422 L 10.727,8.41 10.735,8.396 A 0.979,0.979 0 0 0 10.742,8.381 V 8.38 C 10.809,8.226 10.761,7.929 10.652,7.879 10.614,7.862 10.474,7.866 10.17,7.891 9.881,7.916 9.734,7.92 9.718,7.904 9.702,7.888 9.702,7.847 9.718,7.777 9.758,7.604 9.748,7.242 9.698,7.045 9.631,6.812 9.562,6.685 9.326,6.373 L 9.153,6.146 9.152,6.145 9.125,6.109 V 6.099 6.098 L 9.143,5.91 C 9.173,5.585 9.164,5.321 9.119,5.236 A 0.596,0.596 0 0 1 9.083,5.156 V 5.149 L 9.08,5.142 9.079,5.141 9.08,5.137 9.082,5.132 c 0,-0.003 0.004,-0.008 0.006,-0.013 V 5.118 L 9.11,5.08 9.114,5.071 9.151,5.011 V 5.008 H 9.153 L 9.199,4.934 C 9.369,4.667 9.495,4.401 9.513,4.267 A 0.684,0.684 0 0 0 9.49,3.983 0.808,0.808 0 0 0 9.475,3.934 V 3.933 A 1.666,1.666 0 0 0 9.355,3.663 C 9.135,3.244 9.105,3.173 9.045,2.95 A 5.78,5.78 0 0 1 8.93,2.244 L 8.92,2.154 8.908,2.059 A 2.143,2.143 0 0 0 8.881,1.9 L 8.879,1.887 8.874,1.868 8.866,1.841 C 8.861,1.826 8.856,1.827 8.85,1.818 L 8.848,1.816 A 0.067,0.067 0 0 0 8.832,1.796 H 8.831 8.83 A 0.03,0.03 0 0 0 8.82,1.791 V 1.79 A 0.034,0.034 0 0 0 8.81,1.788 Z m -4.47,0.553 c 0.042,0 0.162,0.157 0.251,0.329 0.11,0.211 0.211,0.532 0.306,0.967 0.038,0.177 0.087,0.349 0.108,0.381 0.03,0.045 0.035,0.092 0.026,0.195 A 9.136,9.136 0 0 0 5.009,4.592 C 5.003,4.725 4.987,4.846 4.973,4.86 4.937,4.897 4.87,4.83 4.79,4.676 A 0.429,0.429 0 0 0 4.706,4.548 c -0.01,0 -0.024,0.03 -0.032,0.065 A 3.241,3.241 0 0 1 4.65,4.717 0.54,0.54 0 0 0 4.687,4.897 1.8,1.8 0 0 1 4.735,5.053 C 4.735,5.122 4.542,4.964 4.446,4.817 4.316,4.617 4.301,4.505 4.311,3.797 4.316,3.442 4.32,2.969 4.32,2.746 4.32,2.523 4.33,2.341 4.341,2.341 Z m 4.45,0.446 c 0.012,0 0.041,0.087 0.064,0.193 0.05,0.233 0.13,0.436 0.31,0.793 C 9.275,3.993 9.302,4.07 9.31,4.188 9.322,4.367 9.277,4.512 9.153,4.69 9.103,4.76 9.047,4.822 9.028,4.825 8.979,4.835 8.868,4.699 8.868,4.63 A 0.68,0.68 0 0 1 8.918,4.45 C 9.001,4.247 8.99,4.014 8.882,3.656 A 1.86,1.86 0 0 1 8.781,3.075 C 8.773,2.897 8.777,2.787 8.791,2.787 Z M 4.96,3.025 c 0.022,0.003 0.151,0.28 0.267,0.577 0.065,0.167 0.156,0.365 0.202,0.442 0.15,0.25 0.16,0.387 0.045,0.613 -0.096,0.19 -0.075,0.22 0.096,0.14 A 0.849,0.849 0 0 0 5.78,4.644 C 5.904,4.514 5.914,4.509 6.152,4.477 6.306,4.457 6.396,4.457 6.515,4.477 6.703,4.509 7.1,4.636 7.122,4.671 7.139,4.698 7.078,4.694 6.684,4.642 6.489,4.616 6.256,4.628 6.15,4.668 6.12,4.679 6.026,4.743 5.938,4.81 5.744,4.96 5.606,5.026 5.563,4.99 5.547,4.977 5.503,4.972 5.466,4.979 5.428,4.986 5.371,4.999 5.336,5.008 5.251,5.029 5.24,4.983 5.285,4.786 5.36,4.454 5.324,4.169 5.146,3.704 5.064,3.489 4.94,3.044 4.958,3.026 H 4.96 Z m 2.68,1.37 C 7.83,4.4 8.174,4.463 8.263,4.53 c 0.022,0.017 0.162,0.173 0.31,0.347 0.175,0.204 0.271,0.337 0.272,0.372 0,0.132 -0.103,0.208 -0.4,0.293 C 8.029,5.662 7.983,5.646 8.193,5.462 8.308,5.36 8.317,5.346 8.315,5.249 A 0.742,0.742 0 0 0 8.249,5.006 C 8.207,4.915 8.19,4.846 8.199,4.806 8.211,4.754 8.197,4.729 8.125,4.666 8.018,4.572 7.946,4.542 7.711,4.49 A 0.751,0.751 0 0 1 7.518,4.431 C 7.501,4.404 7.555,4.394 7.641,4.396 Z M 5.834,5.138 c 0.044,0 0.132,0.022 0.296,0.068 0.267,0.075 0.495,0.178 0.556,0.25 0.085,0.1 0.26,0.41 0.252,0.448 C 6.924,5.98 6.861,5.959 6.764,5.846 6.625,5.684 6.455,5.562 6.109,5.376 5.938,5.285 5.8,5.196 5.796,5.174 5.791,5.15 5.799,5.138 5.834,5.138 Z m 2.065,0.145 a 0.222,0.222 0 0 1 0.152,0.056 c 0.036,0.033 0.042,0.06 0.03,0.125 A 0.274,0.274 0 0 1 8.036,5.578 0.268,0.268 0 0 1 7.912,5.621 C 7.825,5.633 7.815,5.629 7.768,5.553 7.701,5.443 7.704,5.384 7.782,5.323 A 0.194,0.194 0 0 1 7.899,5.283 Z M 7.018,5.301 C 7.063,5.303 7.107,5.321 7.142,5.356 7.224,5.438 7.225,5.584 7.145,5.636 7.032,5.711 6.978,5.709 6.911,5.629 6.822,5.523 6.809,5.45 6.866,5.374 A 0.18,0.18 0 0 1 7.018,5.301 Z M 8.81,5.676 c 0.084,0 0.14,0.101 0.14,0.25 0,0.18 -0.054,0.24 -0.283,0.319 C 8.43,6.325 8.3,6.325 8.224,6.24 8.187,6.2 8.187,6.191 8.221,6.124 8.265,6.039 8.327,6.069 8.413,6.137 8.56,6.253 8.801,6.096 8.801,5.897 A 0.609,0.609 0 0 0 8.753,5.688 0.132,0.132 0 0 1 8.81,5.676 Z m -1.405,0 C 7.423,5.678 7.443,5.709 7.458,5.764 7.498,5.908 7.488,5.991 7.426,6.05 7.352,6.12 7.177,6.143 7.133,6.09 7.086,6.034 7.115,5.993 7.222,5.961 7.307,5.936 7.32,5.921 7.342,5.834 7.356,5.779 7.372,5.721 7.378,5.705 7.385,5.684 7.394,5.675 7.405,5.676 Z M 5.98,5.686 c 0.042,0 0.08,0.01 0.095,0.028 0.004,0.005 0.004,0.013 10e-4,0.021 L 5.973,5.713 C 5.951,5.798 5.852,5.99 6.093,6.231 6.208,6.319 6.452,6.319 6.537,6.214 6.635,6.128 6.621,6.106 6.683,6.184 6.76,6.283 6.746,6.321 6.608,6.381 A 0.642,0.642 0 0 1 5.86,6.233 C 5.744,6.106 5.71,5.818 5.8,5.729 5.824,5.704 5.91,5.685 5.98,5.686 Z M 8.683,5.721 C 8.635,5.796 8.587,5.909 8.563,5.864 8.525,5.793 8.572,5.723 8.657,5.723 c 0.009,0 0.018,0 0.026,-0.002 z M 7.758,5.747 C 7.768,5.745 7.787,5.759 7.803,5.781 7.859,5.856 7.839,6.215 7.774,6.302 7.722,6.372 7.616,6.402 7.588,6.356 7.578,6.341 7.6,6.276 7.635,6.212 A 0.849,0.849 0 0 0 7.72,5.929 0.829,0.829 0 0 1 7.754,5.749 C 7.755,5.747 7.757,5.747 7.758,5.747 Z M 6.1,5.777 C 6.126,5.779 6.16,5.789 6.189,5.804 6.279,5.851 6.285,5.924 6.201,5.963 6.13,5.995 6.077,5.971 6.034,5.886 L 6.1,5.776 Z m 0.322,0.18 c 0.046,0 0.122,0.07 0.122,0.111 0,0.014 -0.017,0.032 -0.038,0.04 C 6.457,6.126 6.462,6.128 6.418,6.079 6.366,6.022 6.368,5.958 6.422,5.958 Z M 9.03,6.315 9.04,6.317 a 0.61,0.61 0 0 1 0.129,0.15 C 9.219,6.542 9.296,6.639 9.337,6.682 9.431,6.78 9.49,6.912 9.527,7.109 9.559,7.277 9.562,7.707 9.532,7.836 9.513,7.916 9.511,7.919 9.38,7.926 L 9.247,7.932 9.222,7.843 A 0.711,0.711 0 0 1 9.197,7.707 0.185,0.185 0 0 0 9.176,7.627 C 9.159,7.602 9.15,7.605 9.129,7.644 9.087,7.724 9.099,7.854 9.174,8.12 L 9.245,8.372 9.198,8.499 A 0.78,0.78 0 0 1 8.86,8.894 0.942,0.942 0 0 1 8.727,8.962 C 8.595,8.95 7.958,8.698 7.91,8.638 7.89,8.613 7.883,8.544 7.887,8.438 L 7.894,8.274 8.039,8.2 C 8.307,8.064 8.597,7.786 8.707,7.56 8.752,7.467 8.754,7.448 8.726,7.308 A 0.71,0.71 0 0 1 8.763,6.892 C 8.776,6.86 8.766,6.853 8.714,6.857 8.615,6.864 8.62,6.81 8.727,6.712 L 8.826,6.622 8.713,6.609 C 8.651,6.602 8.589,6.579 8.574,6.559 8.56,6.539 8.496,6.512 8.434,6.498 8.24,6.454 8.241,6.435 8.437,6.422 8.538,6.415 8.708,6.385 8.814,6.356 8.906,6.331 8.996,6.314 9.03,6.316 Z M 7.957,6.498 c 0.018,0 0.062,0.04 0.098,0.088 0.079,0.108 0.297,0.457 0.296,0.474 0,0.048 -0.059,0.077 -0.19,0.096 C 8.014,7.177 7.932,7.178 7.53,7.161 L 7.33,7.151 7.447,7.106 C 7.512,7.081 7.647,7.04 7.747,7.016 7.846,6.991 7.939,6.964 7.954,6.955 7.98,6.938 7.974,6.803 7.938,6.586 7.928,6.519 7.931,6.498 7.957,6.498 Z M 5.282,6.56 C 5.38,6.562 5.435,6.585 5.639,6.686 5.899,6.816 5.961,6.877 5.861,6.909 5.822,6.922 5.857,6.94 6.019,6.994 6.133,7.033 6.314,7.108 6.422,7.162 6.606,7.255 6.629,7.275 6.839,7.535 7.109,7.869 7.338,8.085 7.531,8.187 L 7.675,8.265 7.666,8.43 C 7.656,8.592 7.654,8.597 7.55,8.691 A 2.916,2.916 0 0 1 6.899,9.069 C 6.65,9.156 6.454,9.08 6.257,8.821 6.032,8.524 6.017,8.46 6.085,8.104 6.123,7.908 6.108,7.854 6.039,7.93 6.015,7.956 5.984,7.977 5.969,7.977 5.955,7.977 5.897,7.901 5.84,7.807 5.691,7.561 5.516,7.332 5.41,7.248 5.34,7.19 5.325,7.168 5.346,7.143 5.361,7.125 5.366,7.1 5.359,7.088 5.336,7.05 5.123,7.033 5.022,7.06 A 0.497,0.497 0 0 0 4.735,7.353 C 4.72,7.401 4.699,7.436 4.689,7.433 A 2.599,2.599 0 0 1 4.499,7.266 L 4.329,7.107 4.383,6.989 A 0.564,0.564 0 0 1 4.688,6.686 1.313,1.313 0 0 1 5.282,6.56 Z M 3.416,7.105 c 0.488,0.011 0.956,0.3 1.173,0.755 0.11,0.23 0.146,0.383 0.146,0.61 0,0.228 -0.037,0.38 -0.146,0.611 -0.167,0.35 -0.495,0.62 -0.875,0.716 -0.174,0.044 -0.5,0.044 -0.667,0 A 1.399,1.399 0 0 1 2.093,8.812 1.713,1.713 0 0 1 2.093,8.13 1.39,1.39 0 0 1 3.078,7.145 C 3.19,7.116 3.304,7.104 3.416,7.106 Z M 5.156,7.32 C 5.314,7.32 5.53,7.541 5.773,7.951 5.9,8.167 5.961,8.397 5.907,8.461 5.891,8.481 5.835,8.494 5.763,8.494 H 5.645 L 5.66,8.419 A 0.282,0.282 0 0 1 5.71,8.306 C 5.74,8.272 5.732,8.256 5.633,8.161 5.501,8.033 5.471,8.016 5.281,7.967 A 3.57,3.57 0 0 1 5.094,7.915 C 5.068,7.905 5.082,7.932 5.131,7.984 5.231,8.09 5.218,8.142 5.092,8.142 5,8.142 4.946,8.11 4.946,8.053 4.946,8.035 4.919,7.953 4.886,7.87 L 4.826,7.719 4.879,7.612 C 4.963,7.442 5.08,7.32 5.156,7.32 Z M 5.14,8.518 c 0.073,0 0.09,0.006 0.065,0.023 -0.047,0.03 -0.165,0.03 -0.165,0 0,-0.013 0.045,-0.023 0.1,-0.023 z m 0.603,0.104 c 0.14,0 0.186,0.062 0.323,0.26 C 6.237,9.128 6.343,9.229 6.493,9.284 6.553,9.306 6.62,9.339 6.641,9.357 6.704,9.41 6.936,9.337 7.248,9.167 7.601,8.974 7.715,8.931 7.841,8.946 7.945,8.958 8.761,9.166 8.821,9.196 8.867,9.22 8.899,9.354 8.881,9.451 8.869,9.513 8.834,9.553 8.712,9.642 A 4.717,4.717 0 0 1 8.429,9.833 L 8.3,9.912 8.097,9.882 A 0.89,0.89 0 0 1 7.872,9.832 C 7.858,9.818 7.871,9.787 7.905,9.751 7.935,9.718 7.955,9.686 7.947,9.678 7.908,9.639 7.408,9.785 7.043,9.941 6.911,9.998 6.783,10.043 6.761,10.041 A 0.632,0.632 0 0 1 6.33,9.806 0.964,0.964 0 0 1 6.239,9.611 2.155,2.155 0 0 0 6.039,9.191 C 5.981,9.11 5.764,8.893 5.74,8.893 5.727,8.893 5.725,8.924 5.733,8.963 5.752,9.048 5.752,9.048 5.451,8.998 A 2.626,2.626 0 0 0 5.142,8.964 C 5.007,8.963 4.97,8.944 4.97,8.877 4.97,8.785 5.012,8.732 5.094,8.719 L 5.476,8.656 C 5.596,8.636 5.679,8.623 5.743,8.622 Z M 7.935,9.246 A 0.975,0.975 0 0 0 7.553,9.315 C 7.443,9.371 7.342,9.452 7.342,9.485 7.342,9.51 7.359,9.509 7.415,9.478 7.441,9.465 7.579,9.452 7.721,9.449 7.974,9.445 7.981,9.443 8.031,9.38 8.061,9.345 8.099,9.316 8.118,9.315 8.143,9.315 8.139,9.305 8.105,9.278 8.078,9.257 8.013,9.246 7.935,9.246 Z"
     id="path2"
     inkscape:connector-curvature="0"
     style="fill:#bde6fb;fill-opacity:1" />
</svg>
