<?xml version="1.0" encoding="UTF-8" standalone="no"?>
<svg
   width="47.542679"
   height="47.546455"
   viewBox="0 0 12.579 12.58"
   version="1.1"
   id="svg6"
   sodipodi:docname="bbqsql.svg"
   inkscape:version="0.92.5 (2060ec1f9f, 2020-04-08)"
   xmlns:inkscape="http://www.inkscape.org/namespaces/inkscape"
   xmlns:sodipodi="http://sodipodi.sourceforge.net/DTD/sodipodi-0.dtd"
   xmlns="http://www.w3.org/2000/svg"
   xmlns:svg="http://www.w3.org/2000/svg"
   xmlns:rdf="http://www.w3.org/1999/02/22-rdf-syntax-ns#"
   xmlns:cc="http://creativecommons.org/ns#"
   xmlns:dc="http://purl.org/dc/elements/1.1/">
  <metadata
     id="metadata12">
    <rdf:RDF>
      <cc:Work
         rdf:about="">
        <dc:format>image/svg+xml</dc:format>
        <dc:type
           rdf:resource="http://purl.org/dc/dcmitype/StillImage" />
        <dc:title />
      </cc:Work>
    </rdf:RDF>
  </metadata>
  <defs
     id="defs10" />
  <sodipodi:namedview
     pagecolor="#ffffff"
     bordercolor="#666666"
     borderopacity="1"
     objecttolerance="10"
     gridtolerance="10"
     guidetolerance="10"
     inkscape:pageopacity="0"
     inkscape:pageshadow="2"
     inkscape:window-width="1085"
     inkscape:window-height="480"
     id="namedview8"
     showgrid="false"
     inkscape:zoom="4.9166667"
     inkscape:cx="2.1355932"
     inkscape:cy="24"
     inkscape:window-x="0"
     inkscape:window-y="25"
     inkscape:window-maximized="0"
     inkscape:current-layer="svg6"
     inkscape:showpageshadow="0"
     inkscape:pagecheckerboard="0"
     inkscape:deskcolor="#d1d1d1" />
  <path
     d="M 6.285,0 A 6.295,6.295 0 0 0 0,6.285 6.295,6.295 0 0 0 6.285,12.58 6.295,6.295 0 0 0 12.579,6.285 6.295,6.295 0 0 0 6.285,0 Z M 6.274,0.94 a 5.408,5.408 0 0 1 5.397,5.387 5.407,5.407 0 0 1 -0.097,1.006 H 9.184 A 3.016,3.016 0 0 0 9.32,6.248 L 9.288,5.664 8.931,6.128 A 0.98,0.98 0 0 1 8.765,6.289 C 8.795,6.189 8.823,6.073 8.841,5.946 8.903,5.506 8.864,4.832 8.326,4.113 L 8.101,3.813 7.953,4.158 c -0.17,0.4 -0.447,0.6 -0.704,0.51 C 7.052,4.6 6.892,4.374 6.809,4.048 6.732,3.745 6.688,3.211 6.911,2.39 L 7.006,2.041 6.654,2.121 C 5.466,2.388 4.665,3.232 4.339,4.561 A 5.906,5.906 0 0 0 4.179,6.006 2.37,2.37 0 0 1 3.755,5.575 L 3.487,5.182 3.365,5.642 A 3.04,3.04 0 0 0 3.406,7.333 H 0.958 A 5.407,5.407 0 0 1 0.858,6.327 C 0.858,3.34 3.287,0.94 6.274,0.94 Z M 4.072,8.06 c 0.25,0 0.521,0.054 0.725,0.145 L 4.629,8.691 A 1.889,1.889 0 0 0 4.041,8.596 c -0.24,0 -0.377,0.067 -0.377,0.19 0,0.362 1.207,0.092 1.207,0.989 0,0.49 -0.358,0.799 -1.006,0.799 -0.302,0 -0.626,-0.081 -0.876,-0.194 l 0.169,-0.5 c 0.243,0.103 0.51,0.145 0.731,0.145 0.236,0 0.342,-0.063 0.342,-0.176 0,-0.377 -1.2,-0.141 -1.2,-0.972 0,-0.492 0.422,-0.816 1.041,-0.816 z m 2.292,0 c 0.739,0 1.232,0.497 1.232,1.243 0,0.32 -0.088,0.595 -0.247,0.806 l 0.31,0.296 -0.38,0.356 -0.334,-0.32 c -0.18,0.087 -0.388,0.133 -0.62,0.133 -0.732,0 -1.221,-0.493 -1.221,-1.236 0,-0.767 0.503,-1.277 1.26,-1.277 z M 8.011,8.096 H 8.62 V 10 h 1.01 v 0.539 H 8.011 Z M 6.325,8.589 c -0.373,0 -0.595,0.264 -0.595,0.714 0,0.468 0.236,0.743 0.634,0.743 A 0.746,0.746 0 0 0 6.519,10.028 L 6.149,9.676 6.515,9.314 6.909,9.69 a 0.969,0.969 0 0 0 0.06,-0.352 c 0,-0.471 -0.24,-0.749 -0.644,-0.749 z"
     id="path2"
     inkscape:connector-curvature="0"
     style="fill:#bde6fb;fill-opacity:1" />
</svg>
