<?xml version="1.0" encoding="UTF-8" standalone="no"?>
<svg
   width="47.542679"
   height="47.546455"
   viewBox="0 0 12.579 12.58"
   version="1.1"
   id="svg6"
   sodipodi:docname="bed.svg"
   inkscape:version="0.92.5 (2060ec1f9f, 2020-04-08)"
   xmlns:inkscape="http://www.inkscape.org/namespaces/inkscape"
   xmlns:sodipodi="http://sodipodi.sourceforge.net/DTD/sodipodi-0.dtd"
   xmlns="http://www.w3.org/2000/svg"
   xmlns:svg="http://www.w3.org/2000/svg"
   xmlns:rdf="http://www.w3.org/1999/02/22-rdf-syntax-ns#"
   xmlns:cc="http://creativecommons.org/ns#"
   xmlns:dc="http://purl.org/dc/elements/1.1/">
  <metadata
     id="metadata12">
    <rdf:RDF>
      <cc:Work
         rdf:about="">
        <dc:format>image/svg+xml</dc:format>
        <dc:type
           rdf:resource="http://purl.org/dc/dcmitype/StillImage" />
        <dc:title />
      </cc:Work>
    </rdf:RDF>
  </metadata>
  <defs
     id="defs10" />
  <sodipodi:namedview
     pagecolor="#ffffff"
     bordercolor="#666666"
     borderopacity="1"
     objecttolerance="10"
     gridtolerance="10"
     guidetolerance="10"
     inkscape:pageopacity="0"
     inkscape:pageshadow="2"
     inkscape:window-width="1085"
     inkscape:window-height="480"
     id="namedview8"
     showgrid="false"
     inkscape:zoom="4.9166667"
     inkscape:cx="2.1355932"
     inkscape:cy="24"
     inkscape:window-x="0"
     inkscape:window-y="25"
     inkscape:window-maximized="0"
     inkscape:current-layer="svg6"
     inkscape:showpageshadow="0"
     inkscape:pagecheckerboard="0"
     inkscape:deskcolor="#d1d1d1" />
  <path
     d="m 4.249,2.23 c 0,0 0.26,0.56 0.631,1.64 -0.007,0.034 -0.125,0.095 -0.221,0.095 -0.096,0 -0.315,-0.22 -0.315,-0.22 l 0.063,0.189 c 0,0 0.118,0.324 0.126,0.378 0.008,0.055 -0.126,0.222 -0.126,0.222 0,0 -0.076,0.008 -0.126,-0.032 C 4.231,4.462 4.079,4.447 4.028,4.47 3.976,4.493 3.841,4.505 3.681,4.66 3.464,4.826 3.555,5.196 3.555,5.196 L 3.397,5.259 c 0,0 -0.13,0.167 -0.126,0.378 10e-4,0.074 0.04,0.128 0.087,0.17 L 3.448,5.691 3.76,5.354 C 3.803,5.319 3.845,5.282 3.888,5.248 4.028,5.14 4.18,5.046 4.28,4.892 A 0.582,0.582 0 0 1 4.567,4.678 C 4.761,4.601 4.958,4.53 5.147,4.443 A 0.385,0.385 0 0 1 5.384,4.408 c 0.074,0.013 0.144,0.05 0.213,0.1 l 0.07,0.05 c 0.108,0.078 0.2,0.166 0.26,0.27 0.06,0.105 0.088,0.226 0.07,0.371 l -0.01,0.068 c 0.137,-0.073 0.247,-0.032 0.351,0.03 0.115,0.066 0.225,0.14 0.336,0.212 0.093,0.06 0.159,0.133 0.196,0.218 a 0.479,0.479 0 0 1 0.023,0.291 c -0.011,0.06 -0.025,0.12 -0.038,0.18 0.167,0.053 0.3,0.127 0.402,0.218 0.1,0.09 0.168,0.198 0.2,0.316 a 0.7,0.7 0 0 1 -0.01,0.384 c -0.04,0.136 -0.116,0.279 -0.231,0.422 0.08,0.075 0.165,0.15 0.245,0.228 0.07,0.07 0.125,0.144 0.152,0.226 a 0.39,0.39 0 0 1 -0.01,0.27 C 7.576,8.332 7.52,8.381 7.48,8.441 7.593,8.426 7.73,8.411 7.75,8.351 7.78,8.265 7.782,7.909 7.782,7.909 L 8.098,8.067 8.792,8.445 8.382,7.656 8.445,7.625 8.697,7.593 8.539,7.404 8.602,7.341 9.233,7.467 8.603,6.899 c 0,0 0.351,0.082 0.378,0.095 0.027,0.012 0.332,-0.041 0.474,-0.252 0.141,-0.211 0,-0.505 0,-0.505 0,0 0.084,-0.187 0.126,-0.316 0.04,-0.129 -0.158,-0.315 -0.158,-0.315 0,0 0.129,-0.207 0.095,-0.379 C 9.483,5.055 9.202,5.007 9.202,5.007 9.202,5.007 9.21,4.748 9.139,4.565 9.069,4.382 8.761,4.281 8.761,4.281 L 9.707,3.839 8.824,3.997 8.476,4.123 8.224,4.155 c 0,0 -0.06,-0.062 -0.063,-0.095 C 8.159,4.027 8.476,3.744 8.476,3.744 L 9.076,3.24 7.782,3.65 7.751,3.555 c 0,0 0.099,-0.385 0.094,-0.41 A 13.76,13.76 0 0 0 7.782,2.893 L 7.562,2.672 7.309,2.577 c 0,0 -0.052,-0.083 -0.063,-0.126 C 7.236,2.408 7.17,2.321 6.899,2.261 6.629,2.202 6.371,2.568 6.363,2.609 6.355,2.649 6.288,2.742 6.268,2.735 A 1.358,1.358 0 0 0 5.952,2.83 C 5.901,2.86 5.868,2.964 5.858,3.05 5.848,3.137 5.638,3.019 5.638,3.019 L 5.321,2.578 5.164,2.356 5.29,3.082 5.258,3.176 H 5.101 C 5.101,3.176 4.797,2.84 4.786,2.83 4.774,2.819 4.249,2.23 4.249,2.23 Z"
     id="path2"
     inkscape:connector-curvature="0"
     style="opacity:0.75;fill:#fd7d00" />
  <path
     d="M 6.285,0 A 6.295,6.295 0 0 0 0,6.285 6.295,6.295 0 0 0 2.147,11.01 c -0.017,0.016 -0.01,0.015 -0.028,0.031 l 0.086,0.02 A 6.295,6.295 0 0 0 6.285,12.58 6.295,6.295 0 0 0 12.579,6.285 6.295,6.295 0 0 0 6.285,0 Z M 6.274,0.94 a 5.408,5.408 0 0 1 5.397,5.387 5.407,5.407 0 0 1 -7.199,5.1 c 0.046,-0.238 0.127,-0.48 0.532,-0.728 0.046,-0.027 0.093,-0.057 0.144,-0.07 0.307,-0.077 0.57,-0.24 0.82,-0.425 C 6.224,10.016 6.455,9.801 6.658,9.557 6.831,9.351 6.987,9.133 7.052,8.871 7.154,8.788 7.255,8.711 7.351,8.629 A 0.895,0.895 0 0 0 7.602,8.262 C 7.679,8.064 7.602,7.904 7.461,7.766 7.381,7.688 7.297,7.613 7.216,7.538 7.676,6.963 7.52,6.41 6.856,6.198 6.868,6.138 6.882,6.078 6.893,6.018 6.937,5.798 6.86,5.63 6.674,5.509 6.564,5.437 6.453,5.363 6.338,5.296 6.234,5.236 6.124,5.194 5.987,5.267 L 5.997,5.199 C 6.034,4.909 5.885,4.715 5.667,4.557 L 5.597,4.507 C 5.493,4.432 5.387,4.389 5.27,4.405 A 0.433,0.433 0 0 0 5.147,4.443 C 4.958,4.53 4.761,4.601 4.567,4.678 A 0.582,0.582 0 0 0 4.28,4.892 C 4.18,5.046 4.028,5.14 3.888,5.248 3.845,5.282 3.803,5.318 3.76,5.354 L 3.448,5.691 C 3.387,5.771 3.329,5.854 3.264,5.931 3.114,6.107 2.96,6.281 2.808,6.455 2.795,6.47 2.783,6.487 2.766,6.497 2.589,6.597 2.536,6.765 2.539,6.95 2.544,7.241 2.562,7.533 2.579,7.823 2.593,8.055 2.609,8.287 2.633,8.518 2.658,8.746 2.559,8.899 2.386,9.036 2.28,9.119 2.092,9.349 1.92,9.545 A 5.407,5.407 0 0 1 0.857,6.327 C 0.857,3.34 3.287,0.94 6.274,0.94 Z M 5.304,4.637 C 5.34,4.647 5.383,4.65 5.411,4.672 5.511,4.75 5.606,4.834 5.703,4.916 5.713,4.926 5.722,4.938 5.729,4.95 5.786,5.053 5.754,5.415 5.68,5.506 L 5.5,5.734 C 5.145,5.509 4.868,5.172 4.436,5.097 L 4.424,5.074 C 4.492,5.02 4.554,4.954 4.631,4.915 4.764,4.848 4.903,4.789 5.044,4.742 5.198,4.692 5.336,4.76 5.454,4.85 5.533,4.91 5.59,5 5.645,5.064 5.66,4.964 5.588,4.872 5.305,4.637 Z M 4.35,5.262 C 4.48,5.366 4.522,5.502 4.502,5.78 4.582,5.599 4.553,5.445 4.469,5.274 4.827,5.375 5.059,5.641 5.336,5.824 5.301,5.907 5.259,5.979 5.239,6.056 5.199,6.206 5.253,6.33 5.385,6.413 5.553,6.519 5.737,6.578 5.945,6.611 A 0.79,0.79 0 0 1 5.515,6.807 C 5.211,6.849 4.939,6.75 4.684,6.598 4.552,6.52 4.43,6.422 4.292,6.345 l 0.354,0.38 C 4.636,6.754 4.628,6.79 4.613,6.823 4.556,6.959 4.484,6.988 4.337,6.965 A 2.755,2.755 0 0 0 3.934,6.931 0.323,0.323 0 0 0 3.687,7.044 C 3.941,6.923 4.165,7.037 4.405,7.132 a 1.539,1.539 0 0 1 -0.66,0.673 c 0.084,0.01 0.227,-0.04 0.387,-0.15 0.119,-0.08 0.23,-0.173 0.354,-0.268 0.108,0.066 0.185,0.17 0.24,0.287 0.101,0.214 0.12,0.441 0.094,0.673 A 1.598,1.598 0 0 1 4.41,9.278 0.9,0.9 0 0 1 3.989,9.537 L 3.987,9.561 C 4.023,9.566 4.06,9.576 4.097,9.575 4.141,9.573 4.186,9.562 4.23,9.553 l 0.128,-0.03 0.025,0.169 c -0.237,0.267 -0.52,0.751 -0.9,1.269 a 5.407,5.407 0 0 1 -0.732,-0.53 c 0.115,-0.18 0.19,-0.315 0.298,-0.42 L 3.037,9.997 c -0.087,0.07 -0.258,0.28 -0.342,0.39 A 5.407,5.407 0 0 1 2.081,9.742 C 2.321,9.472 2.6,9.157 2.764,9.02 3.003,9.372 3.329,9.54 3.757,9.489 3.667,9.47 3.576,9.457 3.487,9.431 3.122,9.324 2.879,8.969 2.868,8.588 2.858,8.215 2.811,7.843 2.788,7.469 2.778,7.275 2.782,7.079 2.785,6.884 2.786,6.805 2.834,6.751 2.891,6.694 3.073,6.508 3.243,6.312 3.416,6.118 3.59,5.922 3.762,5.722 3.936,5.525 3.952,5.507 3.973,5.494 3.982,5.487 l 0.147,0.3 0.032,-0.01 C 4.086,5.662 4.011,5.536 4.091,5.407 A 0.31,0.31 0 0 1 4.351,5.262 Z M 6.13,5.477 C 6.155,5.479 6.179,5.484 6.198,5.495 6.339,5.578 6.476,5.669 6.609,5.764 6.639,5.785 6.65,5.832 6.662,5.874 6.515,5.751 6.388,5.603 6.182,5.577 A 0.931,0.931 0 0 1 6.648,6.014 0.739,0.739 0 0 1 6.503,6.362 C 6.188,6.733 5.851,7.083 5.457,7.373 5.29,7.496 5.171,7.489 5.02,7.346 A 0.708,0.708 0 0 1 4.798,6.96 L 4.891,6.884 C 5.106,6.965 5.321,7.006 5.545,6.97 A 0.946,0.946 0 0 0 6.143,6.646 0.448,0.448 0 0 0 6.256,6.293 0.278,0.278 0 0 0 6.069,6.045 C 5.925,5.988 5.789,5.914 5.636,5.841 5.757,5.679 5.837,5.501 6.053,5.48 A 0.474,0.474 0 0 1 6.129,5.477 Z M 5.424,5.891 c 0.034,0.02 0.06,0.037 0.084,0.053 A 0.189,0.189 0 0 1 5.478,6.089 C 5.505,6.054 5.561,6.049 5.57,5.995 L 6.065,6.232 C 6.12,6.328 6.095,6.424 6.034,6.515 5.807,6.541 5.406,6.378 5.341,6.23 5.408,6.217 5.421,6.148 5.461,6.107 A 0.238,0.238 0 0 1 5.32,6.175 C 5.306,6.064 5.347,5.975 5.424,5.891 Z m 1.372,0.545 a 0.324,0.324 0 0 1 0.09,0.02 0.546,0.546 0 0 1 0.357,0.578 C 7.159,6.832 7.1,6.627 6.867,6.57 7.108,6.714 7.137,6.955 7.149,7.202 A 0.096,0.096 0 0 1 7.124,7.27 C 7.031,7.356 6.946,7.458 6.837,7.518 6.537,7.682 6.23,7.832 5.922,7.98 5.706,8.083 5.6,8.05 5.469,7.845 5.425,7.778 5.399,7.7 5.367,7.633 5.84,7.327 6.217,6.944 6.575,6.539 6.638,6.467 6.71,6.43 6.795,6.436 Z M 6.997,7.639 C 7.11,7.755 7.23,7.871 7.342,7.994 7.408,8.065 7.407,8.11 7.356,8.218 7.301,8.068 7.238,7.928 7.058,7.911 7.258,7.995 7.267,8.173 7.282,8.355 7.144,8.501 7.006,8.649 6.801,8.698 A 5.341,5.341 0 0 1 6.246,8.808 C 6.103,8.826 5.976,8.78 5.909,8.633 A 0.494,0.494 0 0 1 5.928,8.176 0.085,0.085 0 0 1 5.965,8.143 Z m -1.6,0.983 c 0.087,0.01 0.173,0.051 0.265,0.126 0.061,0.05 0.12,0.103 0.178,0.158 A 0.32,0.32 0 0 0 6.128,8.995 L 6.754,8.888 C 6.764,8.886 6.775,8.881 6.785,8.878 L 6.802,8.899 C 6.749,8.994 6.704,9.094 6.641,9.181 A 3.5,3.5 0 0 1 5.364,10.297 0.706,0.706 0 0 1 4.658,10.267 C 4.645,10.259 4.628,10.254 4.613,10.247 l -0.014,0.02 0.267,0.226 c -0.061,0.049 -0.134,0.094 -0.19,0.155 -0.308,0.32 -0.397,0.537 -0.44,0.684 A 5.407,5.407 0 0 1 3.554,11.004 C 3.915,10.54 4.18,10.118 4.412,9.891 4.467,9.971 4.459,10.093 4.589,10.121 4.522,9.858 4.557,9.607 4.622,9.36 4.699,9.068 4.866,8.84 5.13,8.689 A 0.434,0.434 0 0 1 5.397,8.622 Z"
     id="path4"
     inkscape:connector-curvature="0"
     style="fill:#bde6fb;fill-opacity:1" />
</svg>
