<?xml version="1.0" encoding="UTF-8" standalone="no"?>
<svg
   width="47.542679"
   height="47.546455"
   viewBox="0 0 12.579 12.58"
   version="1.1"
   id="svg4"
   sodipodi:docname="beef-xss.svg"
   inkscape:version="0.92.5 (2060ec1f9f, 2020-04-08)"
   xmlns:inkscape="http://www.inkscape.org/namespaces/inkscape"
   xmlns:sodipodi="http://sodipodi.sourceforge.net/DTD/sodipodi-0.dtd"
   xmlns="http://www.w3.org/2000/svg"
   xmlns:svg="http://www.w3.org/2000/svg"
   xmlns:rdf="http://www.w3.org/1999/02/22-rdf-syntax-ns#"
   xmlns:cc="http://creativecommons.org/ns#"
   xmlns:dc="http://purl.org/dc/elements/1.1/">
  <metadata
     id="metadata10">
    <rdf:RDF>
      <cc:Work
         rdf:about="">
        <dc:format>image/svg+xml</dc:format>
        <dc:type
           rdf:resource="http://purl.org/dc/dcmitype/StillImage" />
        <dc:title />
      </cc:Work>
    </rdf:RDF>
  </metadata>
  <defs
     id="defs8" />
  <sodipodi:namedview
     pagecolor="#ffffff"
     bordercolor="#666666"
     borderopacity="1"
     objecttolerance="10"
     gridtolerance="10"
     guidetolerance="10"
     inkscape:pageopacity="0"
     inkscape:pageshadow="2"
     inkscape:window-width="1085"
     inkscape:window-height="480"
     id="namedview6"
     showgrid="false"
     inkscape:zoom="4.9166667"
     inkscape:cx="2.1355932"
     inkscape:cy="24"
     inkscape:window-x="0"
     inkscape:window-y="25"
     inkscape:window-maximized="0"
     inkscape:current-layer="svg4"
     inkscape:showpageshadow="0"
     inkscape:pagecheckerboard="0"
     inkscape:deskcolor="#d1d1d1" />
  <path
     d="M 6.285,0 A 6.295,6.295 0 0 0 0,6.285 6.295,6.295 0 0 0 6.285,12.58 6.295,6.295 0 0 0 12.579,6.285 6.295,6.295 0 0 0 6.285,0 Z M 6.274,0.94 a 5.408,5.408 0 0 1 5.397,5.387 5.407,5.407 0 0 1 -10.814,0 C 0.857,3.34 3.287,0.94 6.274,0.94 Z m 0.54,0.39 c -0.033,0 -0.1,0.313 -0.1,0.468 0,0.478 0.266,0.918 0.983,1.625 C 8.16,3.88 8.262,4.004 8.262,4.117 8.262,4.309 8.036,4.394 7.325,4.47 6.641,4.544 6.345,4.595 6.017,4.695 5.34,4.9 5.011,5.135 4.296,5.923 4.096,6.143 4.085,6.15 3.966,6.15 3.855,6.15 3.832,6.137 3.705,6.004 A 3.131,3.131 0 0 1 3.348,5.469 C 3.08,4.989 2.934,4.798 2.749,4.693 2.622,4.62 2.432,4.56 2.407,4.586 A 0.83,0.83 0 0 0 2.453,4.774 C 2.489,4.891 2.522,5.127 2.547,5.461 2.622,6.428 2.685,6.634 2.992,6.925 3.178,7.101 3.334,7.189 3.745,7.351 3.977,7.442 4.035,7.477 4.043,7.525 4.048,7.557 4,7.719 3.936,7.884 L 3.822,8.183 3.7,8.213 A 0.586,0.586 0 0 0 3.492,8.323 C 3.414,8.392 3.404,8.418 3.404,8.547 c 0,0.13 0.009,0.153 0.088,0.219 0.109,0.09 0.109,0.12 0.004,0.226 -0.142,0.14 -0.2,0.288 -0.214,0.532 -0.014,0.26 0.018,0.398 0.132,0.57 0.115,0.173 0.265,0.268 0.542,0.342 0.15,0.04 0.298,0.103 0.405,0.173 0.093,0.06 0.206,0.124 0.251,0.142 l 0.138,0.056 c 0.03,0.013 0.092,0.029 0.138,0.035 0.198,0.03 0.439,-0.012 0.633,-0.108 0.192,-0.095 0.269,-0.15 0.653,-0.47 C 6.603,9.908 7.028,9.666 7.522,9.496 8.084,9.303 8.299,9.166 8.554,8.84 8.964,8.316 9.044,7.834 8.826,7.196 8.626,6.616 8.702,6.492 9.529,6.036 9.939,5.809 10.232,5.532 10.326,5.282 10.379,5.138 10.386,5.076 10.378,4.8 10.368,4.487 10.368,4.48 10.239,4.221 9.974,3.682 9.669,3.422 8.647,2.857 7.649,2.306 7.247,1.982 6.899,1.447 A 0.823,0.823 0 0 0 6.814,1.33 Z m 0.018,0.276 c 0.027,-0.007 0.075,0.044 0.149,0.151 0.24,0.35 0.57,0.598 1.639,1.233 0.789,0.47 1.093,0.716 1.323,1.071 0.156,0.241 0.288,0.7 0.206,0.714 C 10.133,4.778 10.084,4.707 10.039,4.617 9.829,4.205 9.489,3.871 8.916,3.517 8.656,3.356 8.084,3.037 8.056,3.037 c -0.01,0 0.133,0.145 0.316,0.322 0.686,0.66 0.89,1.016 0.747,1.297 C 9.021,4.847 8.789,4.984 8.358,5.107 8.237,5.142 7.915,5.246 7.642,5.339 7.37,5.432 7.103,5.527 7.05,5.55 6.92,5.606 6.885,5.587 6.885,5.462 6.885,5.226 7.059,4.835 7.212,4.728 7.25,4.701 7.425,4.664 7.665,4.633 8.315,4.549 8.51,4.456 8.509,4.231 8.508,4.021 8.422,3.902 7.884,3.368 7.281,2.768 7.081,2.528 6.932,2.218 A 1.01,1.01 0 0 1 6.808,1.798 C 6.799,1.675 6.806,1.612 6.832,1.606 Z M 2.587,4.717 C 2.62,4.709 2.692,4.757 2.787,4.857 2.952,5.027 3.108,5.268 3.321,5.68 3.59,6.201 3.776,6.351 4.071,6.285 4.138,6.27 4.199,6.264 4.206,6.271 A 0.673,0.673 0 0 1 4.17,6.468 C 4.107,6.699 4.054,6.739 3.83,6.723 3.564,6.703 3.415,6.555 3.133,6.03 L 2.987,5.758 2.978,5.889 c -0.011,0.181 0.067,0.655 0.134,0.805 0.03,0.068 0.054,0.128 0.054,0.134 0,0.006 -0.017,0.01 -0.039,0.01 -0.1,0 -0.308,-0.365 -0.386,-0.675 A 8.173,8.173 0 0 1 2.645,5.433 C 2.614,5.123 2.581,4.835 2.571,4.793 2.561,4.747 2.567,4.723 2.587,4.717 Z m 4.397,0.01 C 7.044,4.736 7.016,4.783 6.954,4.877 6.825,5.072 6.768,5.286 6.768,5.575 V 5.841 L 6.613,5.898 C 6.229,6.039 5.922,6.291 5.593,6.735 5.213,7.252 4.612,8.198 4.638,8.24 c 0.009,0.014 0.08,0.033 0.16,0.043 0.361,0.045 0.648,0.228 0.806,0.515 0.067,0.12 0.081,0.18 0.082,0.332 0,0.258 -0.041,0.285 -0.137,0.09 A 1.335,1.335 0 0 0 5.002,8.684 C 4.858,8.614 4.787,8.597 4.557,8.584 A 2.722,2.722 0 0 0 4.062,8.601 C 3.607,8.669 3.616,8.668 3.58,8.601 3.507,8.465 3.607,8.354 3.84,8.314 4.03,8.282 4.043,8.272 4.091,8.124 4.117,8.046 4.186,7.867 4.246,7.727 4.428,7.297 4.47,6.961 4.362,6.791 4.305,6.701 4.313,6.621 4.408,6.353 4.551,5.948 4.735,5.703 5.146,5.373 5.482,5.104 5.924,4.916 6.492,4.803 6.778,4.745 6.924,4.717 6.984,4.726 Z M 6.52,6.329 6.593,6.396 C 6.683,6.48 6.733,6.637 6.708,6.767 6.684,6.894 6.546,7.052 6.403,7.117 6.24,7.191 5.838,7.176 5.838,7.096 5.838,7.085 5.934,6.976 6.052,6.853 6.169,6.731 6.322,6.563 6.392,6.48 Z M 3.897,9.043 C 3.953,9.035 3.947,9.093 3.882,9.221 3.817,9.349 3.81,9.561 3.868,9.674 3.967,9.865 4.367,9.93 4.646,9.8 4.876,9.693 4.966,9.479 4.89,9.224 4.828,9.02 4.924,9.027 5.106,9.24 5.416,9.603 5.212,10.042 4.664,10.184 4.368,10.261 3.989,10.23 3.757,10.109 3.362,9.903 3.347,9.387 3.727,9.131 a 0.53,0.53 0 0 1 0.17,-0.088 z"
     id="path2"
     inkscape:connector-curvature="0"
     style="fill:#bde6fb;fill-opacity:1" />
</svg>
