<?xml version="1.0" encoding="UTF-8" standalone="no"?>
<svg
   width="47.542679"
   height="47.546455"
   viewBox="0 0 12.579 12.58"
   version="1.1"
   id="svg4"
   sodipodi:docname="bettercap.svg"
   inkscape:version="0.92.5 (2060ec1f9f, 2020-04-08)"
   xmlns:inkscape="http://www.inkscape.org/namespaces/inkscape"
   xmlns:sodipodi="http://sodipodi.sourceforge.net/DTD/sodipodi-0.dtd"
   xmlns="http://www.w3.org/2000/svg"
   xmlns:svg="http://www.w3.org/2000/svg"
   xmlns:rdf="http://www.w3.org/1999/02/22-rdf-syntax-ns#"
   xmlns:cc="http://creativecommons.org/ns#"
   xmlns:dc="http://purl.org/dc/elements/1.1/">
  <metadata
     id="metadata10">
    <rdf:RDF>
      <cc:Work
         rdf:about="">
        <dc:format>image/svg+xml</dc:format>
        <dc:type
           rdf:resource="http://purl.org/dc/dcmitype/StillImage" />
        <dc:title />
      </cc:Work>
    </rdf:RDF>
  </metadata>
  <defs
     id="defs8" />
  <sodipodi:namedview
     pagecolor="#ffffff"
     bordercolor="#666666"
     borderopacity="1"
     objecttolerance="10"
     gridtolerance="10"
     guidetolerance="10"
     inkscape:pageopacity="0"
     inkscape:pageshadow="2"
     inkscape:window-width="1085"
     inkscape:window-height="480"
     id="namedview6"
     showgrid="false"
     inkscape:zoom="4.9166667"
     inkscape:cx="2.1355932"
     inkscape:cy="24"
     inkscape:window-x="0"
     inkscape:window-y="25"
     inkscape:window-maximized="0"
     inkscape:current-layer="svg4"
     inkscape:showpageshadow="0"
     inkscape:pagecheckerboard="0"
     inkscape:deskcolor="#d1d1d1" />
  <path
     d="M 6.285,0 A 6.295,6.295 0 0 0 0,6.285 6.295,6.295 0 0 0 6.285,12.58 6.295,6.295 0 0 0 12.579,6.285 6.295,6.295 0 0 0 6.285,0 Z M 6.274,0.94 a 5.408,5.408 0 0 1 5.397,5.387 5.407,5.407 0 0 1 -10.814,0 C 0.857,3.34 3.287,0.94 6.274,0.94 Z M 6.183,2.839 C 5.991,2.838 5.969,2.944 6.09,3.174 6.238,3.454 6.195,3.704 6.01,3.75 L 6.012,3.752 6.007,3.754 C 5.716,3.82 5.554,3.962 5.775,3.947 5.873,4.045 5.871,4.063 5.749,4.152 A 0.58,0.58 0 0 1 5.459,4.248 C 5.336,4.243 5.238,4.355 5.113,4.411 5.087,4.423 5.061,4.503 5.057,4.524 4.996,4.798 5.127,4.824 5.577,4.629 6.269,4.329 7.337,4.212 7.409,4.427 7.423,4.47 7.314,4.629 7.167,4.781 6.949,5.005 6.849,5.016 6.648,5.056 5.624,5.262 5.848,4.948 6.604,4.864 6.836,4.784 6.868,4.687 6.689,4.594 6.463,4.474 5.368,4.756 5.368,4.932 c 0,0.042 0.054,0.116 0.12,0.164 C 5.599,5.176 5.59,5.198 5.374,5.376 4.955,5.722 5.326,5.861 5.913,5.578 6.213,5.432 6.721,5.396 7.359,5.473 7.509,5.491 7.531,5.468 7.531,5.295 7.531,5.133 7.582,5.067 7.806,4.942 A 4.31,4.31 0 0 1 8.141,4.768 C 8.277,4.721 8.081,4.428 7.795,4.249 6.894,4.094 7.298,4.03 7.855,3.944 7.995,3.919 8.143,3.858 8.184,3.81 8.297,3.677 7.874,3.394 7.424,3.3 7.284,3.244 6.928,3.288 6.916,3.346 6.9,3.429 6.96,3.13 6.931,3.099 A 0.995,0.995 0 0 0 6.552,2.906 1.563,1.563 0 0 0 6.182,2.839 Z m 0.888,0.61 A 0.278,0.278 0 0 1 7.127,3.452 C 7.327,3.49 7.309,3.629 7.092,3.739 6.035,4.184 6.63,3.753 6.897,3.492 L 7.071,3.448 Z M 5.854,3.531 C 5.81,3.533 5.721,3.566 5.556,3.636 5.361,3.718 5.216,3.743 5.155,3.705 5,3.609 4.898,3.633 4.815,3.784 4.712,3.973 4.786,4.23 4.96,4.284 4.972,4.288 4.972,4.295 4.981,4.299 5.086,4.28 5.179,4.277 5.378,4.083 5.435,4.02 5.487,3.951 5.544,3.888 L 5.881,3.616 C 5.897,3.56 5.898,3.53 5.854,3.531 Z m -3.629,2.78 c -0.4,0.028 -0.565,0.376 -0.564,1.148 0,0.984 0.234,1.456 0.808,1.63 C 2.901,9.219 3.072,9.216 4.475,9.061 6.002,8.891 6.6,8.892 8.165,9.068 9.51,9.218 10.019,9.204 10.327,9.006 10.772,8.719 10.929,8.315 10.929,7.446 10.931,6.191 10.559,6.048 9.042,6.716 7.83,7.249 7.326,7.389 6.498,7.426 5.572,7.468 5.13,7.365 3.656,6.76 3.108,6.535 2.549,6.336 2.411,6.318 A 0.932,0.932 0 0 0 2.225,6.311 Z m 0.63,0.859 c 0.328,0 1.844,0.764 1.998,1.008 C 4.936,8.31 3.843,8.185 3.188,7.987 2.488,7.776 2.241,7.17 2.855,7.17 Z m 6.979,0.002 c 0.125,-0.003 0.215,0.03 0.274,0.1 0.256,0.302 -0.376,0.701 -1.386,0.875 -0.315,0.055 -0.662,0.1 -0.77,0.1 -0.28,0 -0.157,-0.125 0.494,-0.498 0.667,-0.383 1.113,-0.57 1.388,-0.577 z"
     id="path2"
     inkscape:connector-curvature="0"
     style="fill:#bde6fb;fill-opacity:1" />
</svg>
