<?xml version="1.0" encoding="UTF-8" standalone="no"?>
<svg
   width="47.542679"
   height="47.546455"
   viewBox="0 0 12.579 12.58"
   version="1.1"
   id="svg4"
   sodipodi:docname="binwalk.svg"
   inkscape:version="0.92.5 (2060ec1f9f, 2020-04-08)"
   xmlns:inkscape="http://www.inkscape.org/namespaces/inkscape"
   xmlns:sodipodi="http://sodipodi.sourceforge.net/DTD/sodipodi-0.dtd"
   xmlns="http://www.w3.org/2000/svg"
   xmlns:svg="http://www.w3.org/2000/svg"
   xmlns:rdf="http://www.w3.org/1999/02/22-rdf-syntax-ns#"
   xmlns:cc="http://creativecommons.org/ns#"
   xmlns:dc="http://purl.org/dc/elements/1.1/">
  <metadata
     id="metadata10">
    <rdf:RDF>
      <cc:Work
         rdf:about="">
        <dc:format>image/svg+xml</dc:format>
        <dc:type
           rdf:resource="http://purl.org/dc/dcmitype/StillImage" />
        <dc:title />
      </cc:Work>
    </rdf:RDF>
  </metadata>
  <defs
     id="defs8" />
  <sodipodi:namedview
     pagecolor="#ffffff"
     bordercolor="#666666"
     borderopacity="1"
     objecttolerance="10"
     gridtolerance="10"
     guidetolerance="10"
     inkscape:pageopacity="0"
     inkscape:pageshadow="2"
     inkscape:window-width="1085"
     inkscape:window-height="480"
     id="namedview6"
     showgrid="false"
     inkscape:zoom="4.9166667"
     inkscape:cx="2.1355932"
     inkscape:cy="24"
     inkscape:window-x="0"
     inkscape:window-y="25"
     inkscape:window-maximized="0"
     inkscape:current-layer="svg4"
     inkscape:showpageshadow="0"
     inkscape:pagecheckerboard="0"
     inkscape:deskcolor="#d1d1d1" />
  <path
     d="M 6.285,0 A 6.295,6.295 0 0 0 0,6.285 6.295,6.295 0 0 0 6.285,12.58 6.295,6.295 0 0 0 12.579,6.285 6.295,6.295 0 0 0 6.285,0 Z M 6.274,0.94 a 5.408,5.408 0 0 1 5.397,5.387 5.407,5.407 0 0 1 -10.814,0 C 0.857,3.34 3.287,0.94 6.274,0.94 Z M 7.101,1.83 V 1.831 C 5.526,1.831 5.331,1.839 5.258,1.906 5.142,2.011 5.136,2.841 5.25,2.967 5.3,3.023 5.384,3.041 6.045,3.047 l -0.034,0.02 v 0.57 L 4.497,3.624 v 0.829 h 0.382 c 0.373,0 0.383,0.002 0.486,0.106 L 5.471,4.664 5.462,5.901 5.452,7.137 5.307,7.148 C 5.085,7.165 4.992,7.042 4.786,6.457 4.516,5.689 4.336,5.437 3.908,5.227 A 1.381,1.381 0 0 0 3.416,5.079 C 3.216,5.059 3.164,5.039 3.056,4.937 2.761,4.658 2.355,4.671 2.093,4.969 1.737,5.374 2.044,6.037 2.587,6.037 c 0.168,0 0.402,-0.11 0.5,-0.235 C 3.167,5.701 3.169,5.7 3.37,5.742 3.768,5.826 3.928,6.017 4.154,6.679 4.219,6.871 4.285,7.058 4.299,7.093 4.323,7.151 4.273,7.156 3.525,7.156 2.725,7.156 2.724,7.155 2.656,7.07 2.558,6.944 2.367,6.867 2.156,6.867 c -0.493,0 -0.79,0.48 -0.573,0.928 A 0.648,0.648 0 0 0 2.616,7.963 L 2.739,7.84 h 1.344 c 1.472,0 1.387,-0.012 1.387,0.213 0,0.198 -0.067,0.236 -0.456,0.256 L 4.659,8.327 4.6,8.669 A 71.17,71.17 0 0 0 4.52,9.131 L 4.501,9.251 6.011,9.215 V 9.579 L 6.052,9.602 C 5.471,9.609 5.351,9.627 5.3,9.673 5.184,9.778 5.178,10.608 5.292,10.735 c 0.07,0.077 0.187,0.082 1.836,0.082 1.574,0 1.768,-0.007 1.842,-0.075 C 9.086,10.637 9.092,9.807 8.978,9.681 8.925,9.623 8.844,9.605 8.102,9.601 V 9.165 L 8.918,9.146 C 9.903,8.924 10.338,8.41 10.341,7.461 10.343,6.753 10.108,6.424 9.407,6.158 9.33,6.128 9.334,6.122 9.494,6.001 9.818,5.758 9.97,5.321 9.9,4.829 A 1.393,1.393 0 0 0 9.625,4.181 C 9.409,3.935 8.933,3.728 8.412,3.656 L 8.102,3.653 V 3.045 C 8.751,3.039 8.875,3.022 8.928,2.974 9.045,2.869 9.051,2.039 8.936,1.913 8.866,1.835 8.749,1.83 7.101,1.83 Z M 5.446,2.102 H 8.74 V 2.779 H 5.445 V 2.102 Z m 0.527,0.135 c -0.211,0 -0.284,0.215 -0.114,0.334 A 0.192,0.192 0 0 0 6.151,2.486 C 6.19,2.386 6.083,2.237 5.973,2.237 Z m 1.128,0 C 6.89,2.237 6.817,2.452 6.987,2.571 A 0.192,0.192 0 0 0 7.279,2.486 C 7.318,2.386 7.211,2.237 7.101,2.237 Z m 1.083,0 C 7.974,2.237 7.9,2.452 8.07,2.571 A 0.192,0.192 0 0 0 8.363,2.486 C 8.401,2.386 8.294,2.237 8.183,2.237 Z M 6.768,3.049 H 7.345 V 3.648 L 6.768,3.643 Z m 0.035,1.43 0.479,0.02 C 7.563,4.511 7.837,4.543 7.949,4.577 8.404,4.717 8.615,5.126 8.426,5.497 8.341,5.664 8.109,5.813 7.836,5.877 7.603,5.931 6.866,5.981 6.83,5.945 6.816,5.93 6.804,5.595 6.804,5.199 V 4.479 Z M 2.57,5.015 c 0.106,0 0.157,0.024 0.238,0.116 0.057,0.064 0.104,0.157 0.104,0.207 0,0.146 -0.097,0.293 -0.22,0.336 C 2.56,5.72 2.559,5.72 2.458,5.679 2.344,5.633 2.227,5.466 2.227,5.349 2.227,5.287 2.268,5.201 2.331,5.131 2.413,5.039 2.463,5.015 2.57,5.015 Z m 4.233,1.7 0.587,0.018 c 0.67,0.02 0.984,0.096 1.2,0.286 0.172,0.15 0.232,0.278 0.232,0.497 0,0.474 -0.388,0.721 -1.249,0.792 C 7.068,8.35 6.861,8.354 6.828,8.321 6.815,8.308 6.803,7.941 6.803,7.506 Z m -4.63,0.458 h 0.02 C 2.277,7.176 2.353,7.22 2.425,7.306 2.541,7.444 2.54,7.589 2.422,7.73 2.344,7.822 2.302,7.84 2.172,7.84 2.043,7.84 2.002,7.822 1.924,7.73 1.77,7.547 1.819,7.312 2.032,7.21 A 0.358,0.358 0 0 1 2.174,7.173 Z m 5.172,2.01 V 9.599 L 7.143,9.598 H 6.768 v -0.4 L 7.345,9.184 Z M 5.488,9.87 h 3.294 v 0.676 H 5.488 Z m 0.526,0.134 c -0.21,0 -0.283,0.215 -0.113,0.334 a 0.192,0.192 0 0 0 0.293,-0.084 c 0.038,-0.1 -0.07,-0.25 -0.18,-0.25 z m 1.128,0 c -0.21,0 -0.283,0.215 -0.113,0.334 a 0.192,0.192 0 0 0 0.293,-0.084 c 0.038,-0.1 -0.069,-0.25 -0.18,-0.25 z m 1.084,0 c -0.211,0 -0.284,0.215 -0.114,0.334 a 0.192,0.192 0 0 0 0.292,-0.084 c 0.039,-0.1 -0.068,-0.25 -0.178,-0.25 z"
     id="path2"
     inkscape:connector-curvature="0"
     style="fill:#bde6fb;fill-opacity:1" />
</svg>
