<?xml version="1.0" encoding="UTF-8" standalone="no"?>
<svg
   width="48"
   height="48"
   viewBox="0 0 12.7 12.7"
   version="1.1"
   id="svg4"
   sodipodi:docname="blender.svg"
   inkscape:version="0.92.5 (2060ec1f9f, 2020-04-08)"
   xmlns:inkscape="http://www.inkscape.org/namespaces/inkscape"
   xmlns:sodipodi="http://sodipodi.sourceforge.net/DTD/sodipodi-0.dtd"
   xmlns="http://www.w3.org/2000/svg"
   xmlns:svg="http://www.w3.org/2000/svg">
  <sodipodi:namedview
     id="namedview1"
     pagecolor="#505050"
     bordercolor="#eeeeee"
     borderopacity="1"
     inkscape:showpageshadow="0"
     inkscape:pageopacity="0"
     inkscape:pagecheckerboard="0"
     inkscape:deskcolor="#d1d1d1" />
  <defs
     id="defs8">
    <style
       id="current-color-scheme"
       type="text/css">&#10;      .ColorScheme-Highlight {&#10;        color:#1e3f5a;&#10;      }&#10;  </style>
  </defs>
  <path
     class="ColorScheme-Highlight"
     style="fill:#bde6fb;fill-opacity:1;stroke-width:0.264583"
     d="M 6.3499999,0 A 6.3499999,6.3499999 0 0 0 0,6.3499999 6.3499999,6.3499999 0 0 0 6.3499999,12.7 6.3499999,6.3499999 0 0 0 12.7,6.3499999 6.3499999,6.3499999 0 0 0 6.3499999,0 Z m 0,0.79374999 A 5.5562499,5.5562499 0 0 1 11.90625,6.3499999 5.5562499,5.5562499 0 0 1 6.3499999,11.90625 5.5562499,5.5562499 0 0 1 0.79374999,6.3499999 5.5562499,5.5562499 0 0 1 6.3499999,0.79374999 Z m 0.026355,1.39423011 c -0.1352651,0 -0.2704902,0.051899 -0.3741373,0.1555461 -0.2072941,0.2072942 -0.2072941,0.5409806 0,0.7482747 L 7.1437499,4.2333333 H 6.6145833 6.2177083 2.9104166 c -0.2931583,0 -0.5291666,0.2360083 -0.5291666,0.5291666 0,0.2931584 0.2360083,0.5291667 0.5291666,0.5291667 H 4.8534505 L 2.3435262,7.8010741 c -0.2072943,0.2072942 -0.2072943,0.5414973 0,0.7487915 0.2072942,0.2072941 0.5409806,0.2072941 0.7482747,0 L 4.4979166,7.1437499 A 2.9104166,2.9104166 0 0 0 7.4083332,10.054167 2.9104166,2.9104166 0 0 0 10.31875,7.1437499 2.9104166,2.9104166 0 0 0 9.4526527,5.0741087 C 9.4298959,5.0347565 9.4037122,4.9967461 9.3699705,4.9630044 L 6.751009,2.3435262 C 6.6473619,2.239879 6.5116201,2.1879801 6.3763549,2.1879801 Z M 7.4083332,5.2916666 A 1.8520833,1.8520833 0 0 1 9.2604166,7.1437499 1.8520833,1.8520833 0 0 1 7.4083332,8.9958332 1.8520833,1.8520833 0 0 1 5.5562499,7.1437499 1.8520833,1.8520833 0 0 1 7.4083332,5.2916666 Z m 0,1.0583333 a 0.79374999,0.79374999 0 0 0 -0.7937499,0.79375 0.79374999,0.79374999 0 0 0 0.7937499,0.79375 0.79374999,0.79374999 0 0 0 0.79375,-0.79375 0.79374999,0.79374999 0 0 0 -0.79375,-0.79375 z"
     id="path852" />
</svg>
