<?xml version="1.0" encoding="UTF-8" standalone="no"?>
<svg
   width="47.546455"
   height="47.546455"
   viewBox="0 0 12.58 12.58"
   version="1.1"
   id="svg12"
   sodipodi:docname="blinken.svg"
   inkscape:version="0.92.4 (5da689c313, 2019-01-14)"
   xmlns:inkscape="http://www.inkscape.org/namespaces/inkscape"
   xmlns:sodipodi="http://sodipodi.sourceforge.net/DTD/sodipodi-0.dtd"
   xmlns="http://www.w3.org/2000/svg"
   xmlns:svg="http://www.w3.org/2000/svg"
   xmlns:rdf="http://www.w3.org/1999/02/22-rdf-syntax-ns#"
   xmlns:cc="http://creativecommons.org/ns#"
   xmlns:dc="http://purl.org/dc/elements/1.1/">
  <metadata
     id="metadata18">
    <rdf:RDF>
      <cc:Work
         rdf:about="">
        <dc:format>image/svg+xml</dc:format>
        <dc:type
           rdf:resource="http://purl.org/dc/dcmitype/StillImage" />
        <dc:title />
      </cc:Work>
    </rdf:RDF>
  </metadata>
  <defs
     id="defs16" />
  <sodipodi:namedview
     pagecolor="#ffffff"
     bordercolor="#666666"
     borderopacity="1"
     objecttolerance="10"
     gridtolerance="10"
     guidetolerance="10"
     inkscape:pageopacity="0"
     inkscape:pageshadow="2"
     inkscape:window-width="1112"
     inkscape:window-height="480"
     id="namedview14"
     showgrid="false"
     inkscape:zoom="4.9166667"
     inkscape:cx="2.1355932"
     inkscape:cy="24"
     inkscape:window-x="0"
     inkscape:window-y="25"
     inkscape:window-maximized="0"
     inkscape:current-layer="svg12"
     inkscape:showpageshadow="0"
     inkscape:pagecheckerboard="0"
     inkscape:deskcolor="#d1d1d1" />
  <path
     d="m 6.29,0 a 6.29,6.29 0 1 0 0,12.58 A 6.29,6.29 0 0 0 6.29,0 Z M 6.27,0.93 a 5.417,5.417 0 0 1 5.41,5.41 5.4,5.4 0 0 1 -5.4,5.41 5.4,5.4 0 0 1 -5.41,-5.4 5.4,5.4 0 0 1 5.4,-5.42 z"
     id="path2"
     inkscape:connector-curvature="0"
     style="fill:#bde6fb;fill-opacity:1" />
  <path
     d="M 6.3,1.834 A 4.488,4.488 0 0 0 1.802,6.332 H 4.276 A 2.024,2.024 0 0 1 4.286,6.13 2.024,2.024 0 0 1 4.316,5.93 2.024,2.024 0 0 1 4.366,5.734 2.024,2.024 0 0 1 4.436,5.544 2.024,2.024 0 0 1 4.524,5.361 2.024,2.024 0 0 1 4.629,5.189 2.024,2.024 0 0 1 4.752,5.028 2.024,2.024 0 0 1 4.89,4.88 2.024,2.024 0 0 1 5.042,4.746 2.024,2.024 0 0 1 5.207,4.628 2.024,2.024 0 0 1 5.382,4.528 2.024,2.024 0 0 1 5.567,4.445 2.024,2.024 0 0 1 5.758,4.381 2.024,2.024 0 0 1 5.956,4.337 2.024,2.024 0 0 1 6.156,4.313 2.024,2.024 0 0 1 6.3,4.308 Z"
     id="path4"
     inkscape:connector-curvature="0"
     style="opacity:0.75;fill:#c8ab37" />
  <path
     d="m 6.3,1.834 v 2.474 a 2.024,2.024 0 0 1 0.202,0.01 2.024,2.024 0 0 1 0.2,0.03 2.024,2.024 0 0 1 0.196,0.05 2.024,2.024 0 0 1 0.19,0.07 2.024,2.024 0 0 1 0.182,0.088 2.024,2.024 0 0 1 0.173,0.105 2.024,2.024 0 0 1 0.16,0.123 2.024,2.024 0 0 1 0.15,0.137 2.024,2.024 0 0 1 0.132,0.153 2.024,2.024 0 0 1 0.118,0.164 2.024,2.024 0 0 1 0.101,0.176 2.024,2.024 0 0 1 0.083,0.184 2.024,2.024 0 0 1 0.063,0.193 2.024,2.024 0 0 1 0.045,0.197 2.024,2.024 0 0 1 0.024,0.2 2.024,2.024 0 0 1 0.005,0.144 h 2.474 A 4.488,4.488 0 0 0 6.3,1.834 Z"
     id="path6"
     inkscape:connector-curvature="0"
     style="opacity:0.75;fill:#d40000" />
  <path
     d="M 6.3,8.356 V 10.83 A 4.488,4.488 0 0 0 10.798,6.332 H 8.324 A 2.024,2.024 0 0 1 8.314,6.534 2.024,2.024 0 0 1 8.284,6.734 2.024,2.024 0 0 1 8.234,6.93 2.024,2.024 0 0 1 8.164,7.12 2.024,2.024 0 0 1 8.076,7.302 2.024,2.024 0 0 1 7.971,7.475 2.024,2.024 0 0 1 7.848,7.636 2.024,2.024 0 0 1 7.71,7.784 2.024,2.024 0 0 1 7.558,7.917 2.024,2.024 0 0 1 7.393,8.035 2.024,2.024 0 0 1 7.218,8.135 2.024,2.024 0 0 1 7.033,8.218 2.024,2.024 0 0 1 6.842,8.282 2.024,2.024 0 0 1 6.644,8.326 2.024,2.024 0 0 1 6.444,8.351 2.024,2.024 0 0 1 6.3,8.356 Z"
     id="path8"
     inkscape:connector-curvature="0"
     style="opacity:0.75;fill:#008000" />
  <path
     d="M 4.276,6.332 H 1.802 A 4.488,4.488 0 0 0 6.3,10.83 V 8.356 A 2.024,2.024 0 0 1 6.098,8.346 2.024,2.024 0 0 1 5.898,8.316 2.024,2.024 0 0 1 5.702,8.266 2.024,2.024 0 0 1 5.512,8.196 2.024,2.024 0 0 1 5.33,8.108 2.024,2.024 0 0 1 5.157,8.002 2.024,2.024 0 0 1 4.997,7.88 2.024,2.024 0 0 1 4.847,7.742 2.024,2.024 0 0 1 4.715,7.59 2.024,2.024 0 0 1 4.597,7.426 2.024,2.024 0 0 1 4.496,7.25 2.024,2.024 0 0 1 4.413,7.065 2.024,2.024 0 0 1 4.35,6.873 2.024,2.024 0 0 1 4.305,6.676 2.024,2.024 0 0 1 4.281,6.475 2.024,2.024 0 0 1 4.276,6.332 Z"
     id="path10"
     inkscape:connector-curvature="0"
     style="opacity:0.75;fill:#008080" />
</svg>
