<?xml version="1.0" encoding="UTF-8" standalone="no"?>
<svg
   width="47.546486"
   height="47.546486"
   viewBox="0 0 12.580008 12.580008"
   version="1.1"
   id="svg4"
   sodipodi:docname="blkcalc.svg"
   inkscape:version="0.92.5 (2060ec1f9f, 2020-04-08)"
   xmlns:inkscape="http://www.inkscape.org/namespaces/inkscape"
   xmlns:sodipodi="http://sodipodi.sourceforge.net/DTD/sodipodi-0.dtd"
   xmlns="http://www.w3.org/2000/svg"
   xmlns:svg="http://www.w3.org/2000/svg"
   xmlns:rdf="http://www.w3.org/1999/02/22-rdf-syntax-ns#"
   xmlns:cc="http://creativecommons.org/ns#"
   xmlns:dc="http://purl.org/dc/elements/1.1/">
  <metadata
     id="metadata10">
    <rdf:RDF>
      <cc:Work
         rdf:about="">
        <dc:format>image/svg+xml</dc:format>
        <dc:type
           rdf:resource="http://purl.org/dc/dcmitype/StillImage" />
        <dc:title />
      </cc:Work>
    </rdf:RDF>
  </metadata>
  <defs
     id="defs8" />
  <sodipodi:namedview
     pagecolor="#ffffff"
     bordercolor="#666666"
     borderopacity="1"
     objecttolerance="10"
     gridtolerance="10"
     guidetolerance="10"
     inkscape:pageopacity="0"
     inkscape:pageshadow="2"
     inkscape:window-width="1085"
     inkscape:window-height="480"
     id="namedview6"
     showgrid="false"
     inkscape:zoom="4.9166667"
     inkscape:cx="2.1355932"
     inkscape:cy="24"
     inkscape:window-x="0"
     inkscape:window-y="25"
     inkscape:window-maximized="0"
     inkscape:current-layer="svg4"
     inkscape:showpageshadow="0"
     inkscape:pagecheckerboard="0"
     inkscape:deskcolor="#d1d1d1" />
  <path
     d="M 6.2900079,0 A 6.29,6.29 0 0 0 7.9490244e-6,6.3 6.29,6.29 0 0 0 6.3000079,12.58 a 6.29,6.29 0 0 0 1.472,-0.185 3.175,3.175 0 0 1 -0.09,-0.055 3.175,3.175 0 0 1 -0.252,-0.192 3.175,3.175 0 0 1 -0.232,-0.216 3.175,3.175 0 0 1 -0.207,-0.235 5.4,5.4 0 0 1 -0.711,0.053 A 5.4,5.4 0 0 1 0.87000795,6.35 5.4,5.4 0 0 1 6.2700079,0.93 l 0.01,0.01 a 5.4,5.4 0 0 1 5.4000001,5.4 5.4,5.4 0 0 1 -0.097,1.01 3.175,3.175 0 0 1 0.17,0.157 3.175,3.175 0 0 1 0.21,0.24 3.175,3.175 0 0 1 0.184,0.257 3.175,3.175 0 0 1 0.122,0.213 6.29,6.29 0 0 0 0.311,-1.927 A 6.29,6.29 0 0 0 6.2900079,0 Z m 0.05,2.04 c -0.43,0 -0.75,0.2 -0.75,0.44 v 0.31 h -0.02 l -0.49,0.25 a 0.18,0.18 0 0 0 -0.05,0.05 1.2,1.2 0 0 0 -0.45,-0.08 c -0.43,0 -0.75,0.18 -0.75,0.43 V 3.7 c -0.03,0 -0.06,0 -0.08,0.02 l -0.93,0.5 a 0.17,0.17 0 0 0 -0.07,0.08 l -0.01,0.02 v 0.02 l -0.02,0.05 v 4.06 c 0,0.06 0.03,0.12 0.09,0.15 l 3.38,1.89 h 0.01 l 0.07,0.02 h 0.01 l 0.06,-0.01 0.03,-0.01 0.025,-0.014 a 3.175,3.175 0 0 1 -0.049,-0.217 3.175,3.175 0 0 1 -0.038,-0.315 3.175,3.175 0 0 1 -0.008,-0.224 3.175,3.175 0 0 1 0.016,-0.317 3.175,3.175 0 0 1 0.047,-0.314 3.175,3.175 0 0 1 0.079,-0.308 3.175,3.175 0 0 1 0.109,-0.298 3.175,3.175 0 0 1 0.138,-0.286 3.175,3.175 0 0 1 0.165,-0.27 3.175,3.175 0 0 1 0.193,-0.253 3.175,3.175 0 0 1 0.216,-0.232 3.175,3.175 0 0 1 0.238,-0.21 3.175,3.175 0 0 1 0.258,-0.184 3.175,3.175 0 0 1 0.276,-0.158 3.175,3.175 0 0 1 0.29,-0.13 3.175,3.175 0 0 1 0.3,-0.1 3.175,3.175 0 0 1 0.31,-0.07 3.175,3.175 0 0 1 0.315,-0.038 3.175,3.175 0 0 1 0.225,-0.007 3.175,3.175 0 0 1 0.317,0.016 3.175,3.175 0 0 1 0.088,0.013 V 4.4 a 0.18,0.18 0 0 0 -0.09,-0.15 h -0.02 c 0,-0.01 0,-0.02 -0.02,-0.03 l -0.93,-0.5 h -0.01 V 3.43 c 0,-0.24 -0.33,-0.43 -0.76,-0.43 -0.18,0 -0.34,0.04 -0.47,0.1 l -0.02,-0.03 -0.45,-0.22 h -0.01 V 2.48 c 0,-0.25 -0.33,-0.43 -0.76,-0.43 z m -0.48,0.77 c 0.13,0.06 0.3,0.1 0.48,0.1 0.2,0 0.36,-0.04 0.49,-0.1 V 3.3 c 0,0.05 -0.18,0.17 -0.49,0.17 -0.3,0 -0.48,-0.12 -0.48,-0.17 z m -0.27,0.36 V 3.3 c 0,0.24 0.32,0.43 0.75,0.43 0.43,0 0.76,-0.19 0.76,-0.43 V 3.23 l 0.21,0.1 -0.01,0.1 v 0.81 c 0,0.25 0.32,0.44 0.75,0.44 0.43,0 0.76,-0.19 0.76,-0.44 V 4.13 l 0.53,0.28 -3.06,1.7 -3.03,-1.7 0.58,-0.32 v 0.18 c 0,0.24 0.32,0.43 0.75,0.43 0.43,0 0.76,-0.19 0.76,-0.43 V 3.43 a 0.28,0.28 0 0 0 -0.03,-0.12 z m -1.49,0.6 c 0.13,0.06 0.3,0.1 0.48,0.1 0.2,0 0.36,-0.04 0.5,-0.1 v 0.49 c 0,0.05 -0.18,0.16 -0.5,0.16 -0.31,0 -0.48,-0.11 -0.48,-0.16 z m 3.47,0 c 0.13,0.06 0.3,0.1 0.48,0.1 0.2,0 0.36,-0.04 0.5,-0.1 v 0.48 c 0,0.05 -0.18,0.17 -0.5,0.17 -0.3,0 -0.48,-0.11 -0.48,-0.17 z m -1.24,0.18 c -0.43,0 -0.75,0.18 -0.75,0.43 V 5.2 c 0,0.25 0.32,0.43 0.75,0.43 0.43,0 0.76,-0.18 0.76,-0.43 V 4.38 c 0,-0.25 -0.33,-0.43 -0.76,-0.43 z m -0.48,0.76 c 0.13,0.06 0.3,0.1 0.48,0.1 0.2,0 0.36,-0.04 0.49,-0.1 V 5.2 c 0,0.05 -0.17,0.17 -0.49,0.17 -0.3,0 -0.48,-0.12 -0.48,-0.17 z m 3.625,2.628 a 2.381,2.381 0 0 0 -2.381,2.382 2.381,2.381 0 0 0 2.381,2.38 A 2.381,2.381 0 0 0 11.856008,9.72 2.381,2.381 0 0 0 9.4750079,7.338 Z m -1.323,1.323 H 10.798008 V 9.455 H 8.1520079 Z m 0,1.323 h 2.6460001 v 0.794 H 8.1520079 Z"
     id="path2"
     inkscape:connector-curvature="0"
     style="fill:#bde6fb;fill-opacity:1" />
</svg>
