<?xml version="1.0" encoding="UTF-8" standalone="no"?>
<svg
   width="47.546486"
   height="47.546486"
   viewBox="0 0 12.580008 12.580008"
   version="1.1"
   id="svg4"
   sodipodi:docname="blkcat.svg"
   inkscape:version="0.92.5 (2060ec1f9f, 2020-04-08)"
   xmlns:inkscape="http://www.inkscape.org/namespaces/inkscape"
   xmlns:sodipodi="http://sodipodi.sourceforge.net/DTD/sodipodi-0.dtd"
   xmlns="http://www.w3.org/2000/svg"
   xmlns:svg="http://www.w3.org/2000/svg"
   xmlns:rdf="http://www.w3.org/1999/02/22-rdf-syntax-ns#"
   xmlns:cc="http://creativecommons.org/ns#"
   xmlns:dc="http://purl.org/dc/elements/1.1/">
  <metadata
     id="metadata10">
    <rdf:RDF>
      <cc:Work
         rdf:about="">
        <dc:format>image/svg+xml</dc:format>
        <dc:type
           rdf:resource="http://purl.org/dc/dcmitype/StillImage" />
        <dc:title />
      </cc:Work>
    </rdf:RDF>
  </metadata>
  <defs
     id="defs8" />
  <sodipodi:namedview
     pagecolor="#ffffff"
     bordercolor="#666666"
     borderopacity="1"
     objecttolerance="10"
     gridtolerance="10"
     guidetolerance="10"
     inkscape:pageopacity="0"
     inkscape:pageshadow="2"
     inkscape:window-width="1085"
     inkscape:window-height="480"
     id="namedview6"
     showgrid="false"
     inkscape:zoom="4.9166667"
     inkscape:cx="2.1355932"
     inkscape:cy="24"
     inkscape:window-x="0"
     inkscape:window-y="25"
     inkscape:window-maximized="0"
     inkscape:current-layer="svg4"
     inkscape:showpageshadow="0"
     inkscape:pagecheckerboard="0"
     inkscape:deskcolor="#d1d1d1" />
  <path
     d="M 6.2900079,0 A 6.29,6.29 0 0 0 7.9490244e-6,6.3 6.29,6.29 0 0 0 6.3000079,12.58 a 6.29,6.29 0 0 0 2.953,-0.745 2.646,2.646 0 0 1 -0.043,10e-4 2.646,2.646 0 0 1 -0.264,-0.013 2.646,2.646 0 0 1 -0.261,-0.04 2.646,2.646 0 0 1 -0.256,-0.065 2.646,2.646 0 0 1 -0.249,-0.09 2.646,2.646 0 0 1 -0.238,-0.116 2.646,2.646 0 0 1 -0.033,-0.02 5.4,5.4 0 0 1 -1.63,0.258 A 5.4,5.4 0 0 1 0.86900795,6.35 5.4,5.4 0 0 1 6.2700079,0.93 l 0.01,0.01 a 5.4,5.4 0 0 1 5.4000001,5.4 5.4,5.4 0 0 1 -0.21,1.481 2.646,2.646 0 0 1 0.098,0.17 2.646,2.646 0 0 1 0.108,0.24 2.646,2.646 0 0 1 0.084,0.251 2.646,2.646 0 0 1 0.058,0.259 2.646,2.646 0 0 1 0.032,0.262 2.646,2.646 0 0 1 0.006,0.187 2.646,2.646 0 0 1 0,0.023 6.29,6.29 0 0 0 0.724,-2.923 A 6.29,6.29 0 0 0 6.2900079,0 Z m 0.05,2.04 c -0.43,0 -0.75,0.2 -0.75,0.44 v 0.31 h -0.02 l -0.49,0.25 a 0.18,0.18 0 0 0 -0.05,0.05 1.2,1.2 0 0 0 -0.45,-0.08 c -0.43,0 -0.75,0.18 -0.75,0.43 V 3.7 c -0.03,0 -0.06,0 -0.08,0.02 l -0.93,0.5 a 0.17,0.17 0 0 0 -0.07,0.08 l -0.01,0.02 v 0.02 l -0.02,0.05 v 4.06 c 0,0.06 0.03,0.12 0.09,0.15 l 3.38,1.89 h 0.01 l 0.07,0.02 h 0.01 l 0.06,-0.01 0.03,-0.01 0.422,-0.235 a 2.646,2.646 0 0 1 -0.048,-0.106 2.646,2.646 0 0 1 -0.083,-0.25 2.646,2.646 0 0 1 -0.058,-0.259 2.646,2.646 0 0 1 -0.032,-0.263 2.646,2.646 0 0 1 -0.006,-0.187 2.646,2.646 0 0 1 0.013,-0.264 2.646,2.646 0 0 1 0.04,-0.261 2.646,2.646 0 0 1 0.065,-0.256 2.646,2.646 0 0 1 0.09,-0.249 2.646,2.646 0 0 1 0.116,-0.238 2.646,2.646 0 0 1 0.138,-0.226 2.646,2.646 0 0 1 0.16,-0.21 2.646,2.646 0 0 1 0.18,-0.194 2.646,2.646 0 0 1 0.199,-0.174 2.646,2.646 0 0 1 0.215,-0.154 2.646,2.646 0 0 1 0.23,-0.132 2.646,2.646 0 0 1 0.24,-0.108 2.646,2.646 0 0 1 0.251,-0.083 2.646,2.646 0 0 1 0.259,-0.058 2.646,2.646 0 0 1 0.262,-0.032 2.646,2.646 0 0 1 0.187,-0.006 2.646,2.646 0 0 1 0.264,0.013 2.646,2.646 0 0 1 0.262,0.04 2.646,2.646 0 0 1 0.144,0.036 V 4.4 a 0.18,0.18 0 0 0 -0.09,-0.15 h -0.02 c 0,-0.01 0,-0.02 -0.02,-0.03 l -0.93,-0.5 h -0.01 V 3.43 c 0,-0.24 -0.33,-0.43 -0.76,-0.43 -0.18,0 -0.34,0.04 -0.47,0.1 l -0.02,-0.03 -0.45,-0.22 h -0.01 V 2.48 c 0,-0.25 -0.33,-0.43 -0.76,-0.43 z m -0.48,0.77 c 0.13,0.06 0.3,0.1 0.48,0.1 0.2,0 0.36,-0.04 0.49,-0.1 V 3.3 c 0,0.05 -0.18,0.17 -0.49,0.17 -0.3,0 -0.48,-0.12 -0.48,-0.17 z m -0.27,0.36 V 3.3 c 0,0.24 0.32,0.43 0.75,0.43 0.43,0 0.76,-0.19 0.76,-0.43 V 3.23 l 0.21,0.1 -0.01,0.1 v 0.81 c 0,0.25 0.32,0.44 0.75,0.44 0.43,0 0.76,-0.19 0.76,-0.44 V 4.13 l 0.53,0.28 -3.06,1.7 -3.03,-1.7 0.58,-0.32 v 0.18 c 0,0.24 0.32,0.43 0.75,0.43 0.43,0 0.76,-0.19 0.76,-0.43 V 3.43 a 0.28,0.28 0 0 0 -0.03,-0.12 z m -1.49,0.6 c 0.13,0.06 0.3,0.1 0.48,0.1 0.2,0 0.36,-0.04 0.5,-0.1 v 0.49 c 0,0.05 -0.18,0.16 -0.5,0.16 -0.31,0 -0.48,-0.11 -0.48,-0.16 z m 3.47,0 c 0.13,0.06 0.3,0.1 0.48,0.1 0.2,0 0.36,-0.04 0.5,-0.1 v 0.48 c 0,0.05 -0.18,0.17 -0.5,0.17 -0.3,0 -0.48,-0.11 -0.48,-0.17 z m -1.24,0.18 c -0.43,0 -0.75,0.18 -0.75,0.43 V 5.2 c 0,0.25 0.32,0.43 0.75,0.43 0.43,0 0.76,-0.18 0.76,-0.43 V 4.38 c 0,-0.25 -0.33,-0.43 -0.76,-0.43 z m -0.48,0.76 c 0.13,0.06 0.3,0.1 0.48,0.1 0.2,0 0.36,-0.04 0.49,-0.1 V 5.2 c 0,0.05 -0.17,0.17 -0.49,0.17 -0.3,0 -0.48,-0.12 -0.48,-0.17 z m 3.335,2.374 a 2.088,2.088 0 0 0 -2.082,2.081 2.088,2.088 0 0 0 2.082,2.081 c 0.437,0 0.8440001,-0.137 1.1800001,-0.368 l 1.393,1.392 a 0.379,0.379 0 1 0 0.535,-0.535 l -1.394,-1.392 c 0.232,-0.336 0.369,-0.741 0.369,-1.178 A 2.088,2.088 0 0 0 9.1850079,7.085 Z m 0,0.757 a 1.32,1.32 0 0 1 1.3250001,1.324 1.32,1.32 0 0 1 -1.3250001,1.325 1.32,1.32 0 0 1 -1.325,-1.325 c 0,-0.735 0.59,-1.324 1.326,-1.324 z"
     id="path2"
     inkscape:connector-curvature="0"
     style="fill:#bde6fb;fill-opacity:1" />
</svg>
