<?xml version="1.0" encoding="UTF-8" standalone="no"?>
<svg
   width="47.538898"
   height="47.538898"
   viewBox="0 0 12.578 12.578"
   version="1.1"
   id="svg4"
   sodipodi:docname="bluegriffon.svg"
   inkscape:version="0.92.4 (5da689c313, 2019-01-14)"
   xmlns:inkscape="http://www.inkscape.org/namespaces/inkscape"
   xmlns:sodipodi="http://sodipodi.sourceforge.net/DTD/sodipodi-0.dtd"
   xmlns="http://www.w3.org/2000/svg"
   xmlns:svg="http://www.w3.org/2000/svg"
   xmlns:rdf="http://www.w3.org/1999/02/22-rdf-syntax-ns#"
   xmlns:cc="http://creativecommons.org/ns#"
   xmlns:dc="http://purl.org/dc/elements/1.1/">
  <metadata
     id="metadata10">
    <rdf:RDF>
      <cc:Work
         rdf:about="">
        <dc:format>image/svg+xml</dc:format>
        <dc:type
           rdf:resource="http://purl.org/dc/dcmitype/StillImage" />
        <dc:title />
      </cc:Work>
    </rdf:RDF>
  </metadata>
  <defs
     id="defs8" />
  <sodipodi:namedview
     pagecolor="#ffffff"
     bordercolor="#666666"
     borderopacity="1"
     objecttolerance="10"
     gridtolerance="10"
     guidetolerance="10"
     inkscape:pageopacity="0"
     inkscape:pageshadow="2"
     inkscape:window-width="1087"
     inkscape:window-height="480"
     id="namedview6"
     showgrid="false"
     inkscape:zoom="4.9166667"
     inkscape:cx="2.1355932"
     inkscape:cy="24"
     inkscape:window-x="0"
     inkscape:window-y="25"
     inkscape:window-maximized="0"
     inkscape:current-layer="svg4"
     inkscape:showpageshadow="0"
     inkscape:pagecheckerboard="0"
     inkscape:deskcolor="#d1d1d1" />
  <path
     d="M 6.289,0 A 6.29,6.29 0 0 0 0,6.29 6.29,6.29 0 0 0 6.29,12.578 6.29,6.29 0 0 0 12.578,6.29 6.29,6.29 0 0 0 11.322,2.53 l -0.64,0.697 A 5.407,5.407 0 0 1 11.678,6.343 5.407,5.407 0 0 1 6.271,11.75 5.407,5.407 0 0 1 0.864,6.343 5.407,5.407 0 0 1 6.271,0.936 5.407,5.407 0 0 1 8.809,1.572 L 9.733,1.029 A 6.29,6.29 0 0 0 6.289,0 Z m 4.855,0.786 c 0,-0.013 -0.152,0.09 -0.338,0.231 C 9.053,2.339 6.861,3.496 5.634,3.746 L 5.404,3.793 5.315,4.023 C 5.01,4.827 4.141,5.396 2.78,5.686 A 3.125,3.125 0 0 0 2.267,5.832 1.457,1.457 0 0 0 1.712,6.388 C 1.624,6.558 1.61,6.631 1.624,6.862 1.634,7.056 1.661,7.159 1.716,7.218 1.79,7.298 1.974,7.341 1.928,7.267 1.891,7.209 2.064,7.023 2.235,6.937 2.512,6.798 2.942,6.733 3.393,6.739 c 0.08,0 0.177,0.005 0.243,0.01 0.338,0.024 0.673,0.087 0.951,0.191 0.15,0.056 0.276,0.123 0.38,0.199 0.383,0.196 0.706,0.452 0.977,0.747 L 5.946,7.857 C 5.948,7.663 5.954,7.504 5.96,7.504 c 0.007,0 0.031,0.05 0.055,0.111 0.057,0.148 0.087,0.303 0.093,0.46 0.515,0.64 0.819,1.427 0.997,2.188 C 7.344,9.857 7.57,9.32 7.571,9.101 7.572,8.776 7.801,9.413 7.873,9.943 l 0.05,0.367 0.09,-0.222 C 8.165,9.716 8.236,9.328 8.236,8.871 A 3.25,3.25 0 0 0 8.209,8.356 C 8.194,8.309 8.199,8.271 8.219,8.271 c 0.05,0 0.443,0.394 0.544,0.545 C 8.858,8.958 8.865,8.896 8.787,8.608 8.58,7.845 7.987,7.125 7.142,6.612 L 6.815,6.414 6.977,6.409 C 7.067,6.406 7.195,6.391 7.263,6.376 L 7.387,6.349 7.222,6.294 7.059,6.239 7.322,6.186 A 3,3 0 0 0 7.876,5.998 L 8.168,5.862 7.798,5.877 7.428,5.891 7.716,5.795 C 8.116,5.663 8.884,5.267 8.835,5.218 A 1.825,1.825 0 0 0 8.515,5.284 C 8.02,5.41 7.967,5.383 8.355,5.199 8.731,5.02 9.262,4.683 9.523,4.457 L 9.687,4.315 9.379,4.451 C 9.118,4.567 8.521,4.758 8.419,4.758 8.402,4.758 8.507,4.698 8.653,4.622 9.07,4.409 9.447,4.126 9.913,3.676 L 10.345,3.26 9.995,3.442 C 9.665,3.613 8.968,3.921 8.968,3.895 8.968,3.889 9.056,3.822 9.164,3.748 9.58,3.458 10.317,2.694 10.754,2.099 L 10.912,1.883 10.523,2.182 C 10.109,2.5 9.261,3.04 9.228,3.008 9.217,2.997 9.258,2.956 9.32,2.916 9.501,2.799 10.3,1.912 10.738,1.34 10.962,1.049 11.145,0.8 11.145,0.786 Z"
     id="path2"
     inkscape:connector-curvature="0"
     style="fill:#bde6fb;fill-opacity:1" />
</svg>
