<?xml version="1.0" encoding="UTF-8" standalone="no"?>
<svg
   width="47.546455"
   height="47.546467"
   viewBox="0 0 12.58 12.580003"
   version="1.1"
   id="svg4"
   sodipodi:docname="bomi.svg"
   inkscape:version="0.92.4 (5da689c313, 2019-01-14)"
   xmlns:inkscape="http://www.inkscape.org/namespaces/inkscape"
   xmlns:sodipodi="http://sodipodi.sourceforge.net/DTD/sodipodi-0.dtd"
   xmlns="http://www.w3.org/2000/svg"
   xmlns:svg="http://www.w3.org/2000/svg"
   xmlns:rdf="http://www.w3.org/1999/02/22-rdf-syntax-ns#"
   xmlns:cc="http://creativecommons.org/ns#"
   xmlns:dc="http://purl.org/dc/elements/1.1/">
  <metadata
     id="metadata10">
    <rdf:RDF>
      <cc:Work
         rdf:about="">
        <dc:format>image/svg+xml</dc:format>
        <dc:type
           rdf:resource="http://purl.org/dc/dcmitype/StillImage" />
        <dc:title />
      </cc:Work>
    </rdf:RDF>
  </metadata>
  <defs
     id="defs8" />
  <sodipodi:namedview
     pagecolor="#ffffff"
     bordercolor="#666666"
     borderopacity="1"
     objecttolerance="10"
     gridtolerance="10"
     guidetolerance="10"
     inkscape:pageopacity="0"
     inkscape:pageshadow="2"
     inkscape:window-width="1087"
     inkscape:window-height="480"
     id="namedview6"
     showgrid="false"
     inkscape:zoom="4.9166667"
     inkscape:cx="2.1355932"
     inkscape:cy="24"
     inkscape:window-x="0"
     inkscape:window-y="25"
     inkscape:window-maximized="0"
     inkscape:current-layer="svg4"
     inkscape:showpageshadow="0"
     inkscape:pagecheckerboard="0"
     inkscape:deskcolor="#d1d1d1" />
  <path
     d="M 6.29,1.5547872e-6 A 6.29,6.29 0 0 0 3.27,0.77000155 6.29,6.29 0 0 0 2.74,1.1000016 a 6.29,6.29 0 0 0 -0.5,0.38 6.29,6.29 0 0 0 -0.46,0.43 6.29,6.29 0 0 0 -0.42,0.47 6.29,6.29 0 0 0 -0.36,0.51 6.29,6.29 0 0 0 -1,3.4 6.29,6.29 0 0 0 6.29,6.2900004 6.29,6.29 0 0 0 3.02,-0.77 6.29,6.29 0 0 0 0.53,-0.33 6.29,6.29 0 0 0 0.5,-0.38 6.29,6.29 0 0 0 0.46,-0.43 6.29,6.29 0 0 0 0.42,-0.47 6.29,6.29 0 0 0 0.36,-0.5100004 6.29,6.29 0 0 0 1,-3.4 A 6.29,6.29 0 0 0 6.29,1.5547872e-6 Z M 6.27,0.94000155 a 5.4,5.4 0 0 1 5.4,5.40000005 5.4,5.4 0 0 1 -5.4,5.4100004 5.4,5.4 0 0 1 -5.4,-5.4000004 5.4,5.4 0 0 1 2.95,-4.82 v 7.71 c 0,0.13 0.1,0.23 0.22,0.23 h 0.8 c 0.12,0 0.23,-0.1 0.23,-0.23 v -8.16 A 5.4,5.4 0 0 1 6.27,0.94000155 Z M 5.88,3.8400016 a 0.33,0.38 0 0 0 -0.3,0.39 v 4.89 a 0.33,0.38 0 0 0 0.5,0.33 l 1.83,-1.21 1.83,-1.23 a 0.33,0.38 0 0 0 0,-0.67 l -1.83,-1.22 -1.83,-1.23 a 0.33,0.38 0 0 0 -0.16,-0.05 0.33,0.38 0 0 0 -0.04,0 z"
     id="path2"
     inkscape:connector-curvature="0"
     style="fill:#bde6fb;fill-opacity:1" />
</svg>
