<?xml version="1.0" encoding="UTF-8" standalone="no"?>
<svg
   width="47.546486"
   height="47.546486"
   viewBox="0 0 12.580008 12.580008"
   version="1.1"
   id="svg21"
   sodipodi:docname="bovo.svg"
   inkscape:version="0.92.4 (5da689c313, 2019-01-14)"
   xmlns:inkscape="http://www.inkscape.org/namespaces/inkscape"
   xmlns:sodipodi="http://sodipodi.sourceforge.net/DTD/sodipodi-0.dtd"
   xmlns="http://www.w3.org/2000/svg"
   xmlns:svg="http://www.w3.org/2000/svg"
   xmlns:rdf="http://www.w3.org/1999/02/22-rdf-syntax-ns#"
   xmlns:cc="http://creativecommons.org/ns#"
   xmlns:dc="http://purl.org/dc/elements/1.1/">
  <metadata
     id="metadata25">
    <rdf:RDF>
      <cc:Work
         rdf:about="">
        <dc:format>image/svg+xml</dc:format>
        <dc:type
           rdf:resource="http://purl.org/dc/dcmitype/StillImage" />
        <dc:title />
      </cc:Work>
    </rdf:RDF>
  </metadata>
  <sodipodi:namedview
     pagecolor="#ffffff"
     bordercolor="#666666"
     borderopacity="1"
     objecttolerance="10"
     gridtolerance="10"
     guidetolerance="10"
     inkscape:pageopacity="0"
     inkscape:pageshadow="2"
     inkscape:window-width="1087"
     inkscape:window-height="480"
     id="namedview23"
     showgrid="false"
     inkscape:zoom="4.9166667"
     inkscape:cx="2.1355932"
     inkscape:cy="24"
     inkscape:window-x="0"
     inkscape:window-y="25"
     inkscape:window-maximized="0"
     inkscape:current-layer="svg21"
     inkscape:showpageshadow="0"
     inkscape:pagecheckerboard="0"
     inkscape:deskcolor="#d1d1d1" />
  <defs
     id="defs17" />
  <path
     d="M 6.2900079,0 A 6.29,6.29 0 0 0 7.9490244e-6,6.3 6.29,6.29 0 0 0 6.3000079,12.58 6.29,6.29 0 0 0 12.580008,6.29 6.29,6.29 0 0 0 6.2900079,0 Z m -0.01,0.94 a 5.4,5.4 0 0 1 1.88,0.34 v 3.05 h -3.63 v -3.1 a 5.4,5.4 0 0 1 1.75,-0.29 z m -2.02,0.4 v 2.99 h -3 a 5.4,5.4 0 0 1 3,-3 z m 0.85,0 -0.19,0.19 1.22,1.2 -1.22,1.23 0.19,0.19 1.21,-1.22 1.23,1.22 0.19,-0.2 -1.22,-1.2 1.21,-1.22 -0.19,-0.2 -1.22,1.23 -1.21,-1.23 z m 3.32,0.05 A 5.4,5.4 0 0 1 11.290008,4.33 H 8.4300079 Z m -7.27,3.22 h 3.1 v 3.34 h -3.14 A 5.4,5.4 0 0 1 0.87000795,6.35 5.4,5.4 0 0 1 1.1700079,4.61 Z m 3.37,0 h 3.63 v 3.34 h -3.63 z m 3.9,0 h 2.9600001 a 5.4,5.4 0 0 1 0.3,1.74 5.4,5.4 0 0 1 -0.25,1.6 H 8.4400079 V 4.61 Z m 1.6200001,0.21 a 1.46,1.46 0 0 0 -1.4500001,1.46 1.46,1.46 0 0 0 1.4500001,1.46 1.46,1.46 0 0 0 1.46,-1.46 1.46,1.46 0 0 0 -1.46,-1.46 z m -4.9200001,0.05 -0.18,0.19 1.22,1.22 -1.22,1.21 0.2,0.19 1.2,-1.22 1.22,1.22 0.2,-0.19 -1.23,-1.21 1.21,-1.22 -0.19,-0.19 -1.21,1.22 z m 4.9200001,0.22 a 1.2,1.2 0 0 1 1.2,1.19 1.2,1.2 0 0 1 -1.2,1.2 1.2,1.2 0 0 1 -1.1900001,-1.2 1.2,1.2 0 0 1 1.2000001,-1.2 z M 1.2100079,8.23 h 3.05 v 3.13 a 5.4,5.4 0 0 1 -3.05,-3.13 z m 3.32,0 h 3.63 v 3.18 a 5.4,5.4 0 0 1 -1.88,0.34 5.4,5.4 0 0 1 -1.75,-0.3 z m 3.9,0 H 11.330008 A 5.4,5.4 0 0 1 8.4300079,11.3 Z m -2.08,0.3 a 1.46,1.46 0 0 0 -1.46,1.45 1.46,1.46 0 0 0 1.46,1.46 1.46,1.46 0 0 0 1.45,-1.46 1.46,1.46 0 0 0 -1.45,-1.45 z m 0,0.26 a 1.2,1.2 0 0 1 1.19,1.2 1.2,1.2 0 0 1 -1.2,1.18 1.2,1.2 0 0 1 -1.18,-1.19 1.2,1.2 0 0 1 1.19,-1.19 z"
     id="path19"
     inkscape:connector-curvature="0"
     style="fill:#bde6fb;fill-opacity:1" />
</svg>
