<?xml version="1.0" encoding="UTF-8" standalone="no"?>
<svg
   width="47.546486"
   height="47.546486"
   viewBox="0 0 12.580008 12.580008"
   version="1.1"
   id="svg6"
   sodipodi:docname="brave-browser-nightly.svg"
   inkscape:version="0.92.4 (5da689c313, 2019-01-14)"
   xmlns:inkscape="http://www.inkscape.org/namespaces/inkscape"
   xmlns:sodipodi="http://sodipodi.sourceforge.net/DTD/sodipodi-0.dtd"
   xmlns="http://www.w3.org/2000/svg"
   xmlns:svg="http://www.w3.org/2000/svg"
   xmlns:rdf="http://www.w3.org/1999/02/22-rdf-syntax-ns#"
   xmlns:cc="http://creativecommons.org/ns#"
   xmlns:dc="http://purl.org/dc/elements/1.1/">
  <metadata
     id="metadata12">
    <rdf:RDF>
      <cc:Work
         rdf:about="">
        <dc:format>image/svg+xml</dc:format>
        <dc:type
           rdf:resource="http://purl.org/dc/dcmitype/StillImage" />
        <dc:title />
      </cc:Work>
    </rdf:RDF>
  </metadata>
  <defs
     id="defs10" />
  <sodipodi:namedview
     pagecolor="#ffffff"
     bordercolor="#666666"
     borderopacity="1"
     objecttolerance="10"
     gridtolerance="10"
     guidetolerance="10"
     inkscape:pageopacity="0"
     inkscape:pageshadow="2"
     inkscape:window-width="1087"
     inkscape:window-height="480"
     id="namedview8"
     showgrid="false"
     inkscape:zoom="4.9166667"
     inkscape:cx="2.1355932"
     inkscape:cy="24"
     inkscape:window-x="0"
     inkscape:window-y="25"
     inkscape:window-maximized="0"
     inkscape:current-layer="svg6"
     inkscape:showpageshadow="0"
     inkscape:pagecheckerboard="0"
     inkscape:deskcolor="#d1d1d1" />
  <path
     d="M 6.2900079,0 A 6.29,6.29 0 0 0 7.9490244e-6,6.3 6.29,6.29 0 0 0 6.3000079,12.58 6.29,6.29 0 0 0 12.580008,6.29 6.29,6.29 0 0 0 6.2900079,0 Z m -0.01,0.94 A 5.4,5.4 0 0 1 11.680008,6.34 5.4,5.4 0 0 1 6.2800079,11.75 5.4,5.4 0 0 1 0.87000795,6.35 5.4,5.4 0 0 1 6.2700079,0.93 Z"
     id="path2"
     inkscape:connector-curvature="0"
     style="fill:#bde6fb;fill-opacity:1" />
  <path
     d="m 6.2800079,1.47 a 4.88,4.88 0 0 0 -4.88,4.88 4.88,4.88 0 0 0 4.88,4.87 A 4.88,4.88 0 0 0 11.150008,6.35 4.88,4.88 0 0 0 6.2800079,1.47 Z m -2,2 c 0.36,0.04 0.62,0.18 0.98,0.23 l 0.27,-0.06 c 0.5,-0.16 0.67,-0.17 0.77,-0.17 0.1,0 0.26,0.01 0.77,0.17 l 0.27,0.06 c 0.36,-0.05 0.64,-0.18 0.99,-0.23 0.06,0 0.85,1.05 1.03,1.39 0.08,0.14 0.1,0.28 0.07,0.38 -0.03,0.1 -0.17,0.2 -0.74,0.73 -0.27,0.24 -0.49,0.46 -0.5,0.47 -0.02,0.07 0,0.18 0.08,0.37 0.1,0.25 0.12,0.35 0.07,0.5 a 0.89,0.89 0 0 1 -0.29,0.41 c -0.14,0.12 -0.23,0.25 -0.32,0.24 -0.1,-0.02 -0.72,-0.42 -0.82,-0.5 -0.24,-0.2 -0.48,-0.44 -0.5,-0.49 0,-0.02 0.01,-0.07 0.03,-0.1 0.02,-0.03 0.2,-0.2 0.4,-0.37 0.34,-0.3 0.4,-0.37 0.4,-0.45 l -0.13,-0.38 a 1.3,1.3 0 0 1 -0.14,-0.43 c 0,-0.12 0.05,-0.2 0.14,-0.27 l 0.62,-0.26 a 233.29,233.29 0 0 0 0.63,-0.26 2.6,2.6 0 0 0 -0.37,-0.05 c -0.42,-0.04 -0.41,-0.04 -0.87,0.13 -0.3,0.1 -0.34,0.12 -0.36,0.17 a 0.24,0.24 0 0 0 -0.03,0.09 l 0.13,0.6 c 0.13,0.54 0.13,0.58 0.1,0.6 a 2,2 0 0 1 -0.6,0.17 2.1,2.1 0 0 1 -0.72,-0.16 c -0.04,-0.04 -0.03,-0.06 0.1,-0.6 l 0.13,-0.61 a 0.24,0.24 0 0 0 -0.03,-0.1 c -0.02,-0.04 -0.07,-0.06 -0.4,-0.18 l -0.37,-0.13 h -0.2 c -0.26,0.01 -0.63,0.05 -0.63,0.08 0,0 0.26,0.12 0.6,0.25 0.33,0.12 0.63,0.24 0.66,0.27 a 0.3,0.3 0 0 1 0.13,0.26 c 0,0.08 -0.03,0.17 -0.14,0.44 -0.2,0.46 -0.21,0.4 0.28,0.83 0.21,0.18 0.4,0.35 0.4,0.38 0.04,0.08 0,0.15 -0.25,0.36 -0.28,0.26 -0.34,0.3 -0.71,0.48 -0.17,0.08 -0.34,0.23 -0.37,0.23 -0.08,0 -0.13,-0.11 -0.27,-0.22 a 0.91,0.91 0 0 1 -0.3,-0.43 c -0.06,-0.16 -0.05,-0.23 0.06,-0.5 0.08,-0.19 0.1,-0.3 0.07,-0.37 0,-0.01 -0.21,-0.22 -0.46,-0.45 -0.74,-0.68 -0.81,-0.71 -0.78,-0.9 0.02,-0.15 0.09,-0.2 0.33,-0.56 0.21,-0.31 0.72,-1.02 0.78,-1.06 z m 2.01,4.06 c 0.09,0 0.17,0.03 0.33,0.1 0.3,0.12 0.92,0.43 0.95,0.47 0.03,0.05 0,0.09 -0.2,0.23 -0.34,0.25 -0.72,0.5 -0.72,0.5 -0.37,0.33 -0.35,0.33 -0.7,0.02 l -0.81,-0.56 c -0.14,-0.1 -0.16,-0.14 -0.11,-0.2 0.05,-0.04 0.67,-0.35 0.94,-0.47 0.15,-0.06 0.23,-0.1 0.32,-0.1 z"
     id="path4"
     inkscape:connector-curvature="0"
     style="opacity:0.75;fill:#800080" />
</svg>
