<?xml version="1.0" encoding="UTF-8" standalone="no"?>
<svg
   width="47.546486"
   height="47.546486"
   viewBox="0 0 12.580008 12.580008"
   version="1.1"
   id="svg6"
   sodipodi:docname="builder.svg"
   inkscape:version="0.92.4 (5da689c313, 2019-01-14)"
   xmlns:inkscape="http://www.inkscape.org/namespaces/inkscape"
   xmlns:sodipodi="http://sodipodi.sourceforge.net/DTD/sodipodi-0.dtd"
   xmlns="http://www.w3.org/2000/svg"
   xmlns:svg="http://www.w3.org/2000/svg"
   xmlns:rdf="http://www.w3.org/1999/02/22-rdf-syntax-ns#"
   xmlns:cc="http://creativecommons.org/ns#"
   xmlns:dc="http://purl.org/dc/elements/1.1/">
  <defs
     id="defs10" />
  <sodipodi:namedview
     pagecolor="#ffffff"
     bordercolor="#666666"
     borderopacity="1"
     objecttolerance="10"
     gridtolerance="10"
     guidetolerance="10"
     inkscape:pageopacity="0"
     inkscape:pageshadow="2"
     inkscape:window-width="1087"
     inkscape:window-height="480"
     id="namedview8"
     showgrid="false"
     inkscape:zoom="4.9166667"
     inkscape:cx="2.1355932"
     inkscape:cy="24"
     inkscape:window-x="0"
     inkscape:window-y="25"
     inkscape:window-maximized="0"
     inkscape:current-layer="svg6"
     inkscape:showpageshadow="0"
     inkscape:pagecheckerboard="0"
     inkscape:deskcolor="#d1d1d1" />
  <metadata
     id="metadata2">
    <rdf:RDF>
      <cc:Work>
        <dc:format>image/svg+xml</dc:format>
        <dc:type
           rdf:resource="http://purl.org/dc/dcmitype/StillImage" />
        <dc:title />
      </cc:Work>
    </rdf:RDF>
  </metadata>
  <path
     d="M 6.2900079,0 A 6.29,6.29 0 0 0 7.9490244e-6,6.3 6.29,6.29 0 0 0 6.3000079,12.58 6.29,6.29 0 0 0 12.580008,6.29 6.29,6.29 0 0 0 6.2900079,0 Z m -0.01,0.94 a 5.4,5.4 0 0 1 5.4000001,5.4 5.4,5.4 0 0 1 -5.4000001,5.41 5.4,5.4 0 0 1 -0.7,-0.05 l -0.12,-4.73 a 1.66,1.66 0 0 0 0.49,-1.68 l 1.27,-1.26 0.21,-0.04 0.52,0.52 -0.16,0.16 a 0.29,0.29 0 0 0 -0.08,0.2 V 6 c 0,0.15 0.12,0.28 0.28,0.28 h 1.12 c 0.3800003,0 0.3800003,-0.56 0,-0.56 h -0.84 V 4.99 l 0.96,-0.96 h 0.72 v 0.84 c 0,0.38 0.5700001,0.38 0.5700001,0 V 3.75 a 0.28,0.28 0 0 0 -0.28,-0.28 H 9.1100079 a 0.29,0.29 0 0 0 -0.2,0.08 l -0.16,0.17 -0.52,-0.53 c 0.02,-0.09 0.04,-0.18 0.04,-0.28 a 1.1207141,1.1207141 0 0 0 -2.24,-0.08 l -1.28,1.26 a 1.68,1.68 0 0 0 -1.56,2.87 l -0.9,3.05 A 5.4,5.4 0 0 1 0.88000798,6.35 5.4,5.4 0 0 1 6.2700079,0.93 Z m 0.86,1.4 a 0.565,0.565 0 1 1 0,1.13 0.565,0.565 0 0 1 0,-1.13 z m 0,0.26 a 0.3,0.3 0 0 0 -0.3,0.3 c 0,0.17 0.13,0.31 0.3,0.31 a 0.3,0.3 0 0 0 0.3,-0.3 0.3,0.3 0 0 0 -0.3,-0.31 z m -2.8,2 a 1.12,1.12 0 1 1 0,2.24 1.125,1.125 0 0 1 0,-2.25 z m 0,0.56 a 0.56,0.56 0 1 0 0,1.12 0.56,0.56 0 0 0 0,-1.12 z"
     id="path4"
     inkscape:connector-curvature="0"
     style="fill:#bde6fb;fill-opacity:1" />
</svg>
