<?xml version="1.0" encoding="UTF-8" standalone="no"?>
<svg
   width="47.542679"
   height="47.546455"
   viewBox="0 0 12.579 12.58"
   version="1.1"
   id="svg4"
   sodipodi:docname="bulk-extractor.svg"
   inkscape:version="0.92.5 (2060ec1f9f, 2020-04-08)"
   xmlns:inkscape="http://www.inkscape.org/namespaces/inkscape"
   xmlns:sodipodi="http://sodipodi.sourceforge.net/DTD/sodipodi-0.dtd"
   xmlns="http://www.w3.org/2000/svg"
   xmlns:svg="http://www.w3.org/2000/svg"
   xmlns:rdf="http://www.w3.org/1999/02/22-rdf-syntax-ns#"
   xmlns:cc="http://creativecommons.org/ns#"
   xmlns:dc="http://purl.org/dc/elements/1.1/">
  <metadata
     id="metadata10">
    <rdf:RDF>
      <cc:Work
         rdf:about="">
        <dc:format>image/svg+xml</dc:format>
        <dc:type
           rdf:resource="http://purl.org/dc/dcmitype/StillImage" />
        <dc:title />
      </cc:Work>
    </rdf:RDF>
  </metadata>
  <defs
     id="defs8" />
  <sodipodi:namedview
     pagecolor="#ffffff"
     bordercolor="#666666"
     borderopacity="1"
     objecttolerance="10"
     gridtolerance="10"
     guidetolerance="10"
     inkscape:pageopacity="0"
     inkscape:pageshadow="2"
     inkscape:window-width="1085"
     inkscape:window-height="480"
     id="namedview6"
     showgrid="false"
     inkscape:zoom="4.9166667"
     inkscape:cx="2.1355932"
     inkscape:cy="24"
     inkscape:window-x="0"
     inkscape:window-y="25"
     inkscape:window-maximized="0"
     inkscape:current-layer="svg4"
     inkscape:showpageshadow="0"
     inkscape:pagecheckerboard="0"
     inkscape:deskcolor="#d1d1d1" />
  <path
     d="M 6.285,0 A 6.295,6.295 0 0 0 0,6.285 6.295,6.295 0 0 0 6.285,12.58 6.295,6.295 0 0 0 12.579,6.285 6.295,6.295 0 0 0 6.285,0 Z M 6.274,0.94 a 5.408,5.408 0 0 1 5.397,5.387 5.407,5.407 0 0 1 -10.814,0 C 0.857,3.34 3.287,0.94 6.274,0.94 Z M 9.214,2.458 9.158,2.461 H 9.155 A 1.208,1.208 0 0 0 8.904,2.506 1.826,1.826 0 0 0 8.698,2.577 L 8.693,2.579 C 8.646,2.599 8.597,2.621 8.548,2.646 H 8.546 C 8.496,2.672 8.446,2.7 8.394,2.73 L 8.388,2.733 C 8.337,2.763 8.284,2.797 8.23,2.833 8.23,2.835 8.229,2.835 8.228,2.835 A 4.372,4.372 0 0 0 7.795,3.174 L 7.792,3.176 A 5.918,5.918 0 0 0 7.511,3.441 L 3.114,7.919 C 3.106,7.936 3.102,7.947 3.103,7.954 V 7.956 L 3.104,8.032 2.64,8.493 2.595,8.816 2.205,9.262 2.4,9.621 2.502,9.645 2.448,9.501 2.791,9.156 A 0.063,0.063 0 0 1 2.816,9.14 C 2.844,9.132 2.874,9.143 2.898,9.15 L 3.022,9.189 A 0.085,0.085 0 0 0 3.061,9.191 0.326,0.326 0 0 0 3.167,9.147 0.595,0.595 0 0 0 3.223,9.109 L 3.245,9.091 3.672,8.719 3.741,8.714 8.401,3.806 C 8.841,3.366 9.173,3.449 9.274,3.49 L 6.022,8.087 A 0.28,0.28 0 0 1 6.135,8.102 C 6.056,8.189 5.741,8.54 5.703,8.648 5.659,8.772 5.812,8.83 5.873,8.838 6.037,8.86 5.72,9.436 5.446,9.728 A 0.077,0.077 0 0 1 5.399,9.752 H 5.385 C 5.335,9.755 5.272,9.73 5.22,9.73 l 0.114,0.338 c 0.065,0.003 0.14,0.034 0.201,0.026 L 5.55,10.091 a 0.1,0.1 0 0 0 0.041,-0.02 C 5.721,9.962 5.893,9.594 5.967,9.551 6.012,9.525 6.089,9.621 6.121,9.58 6.235,9.433 6.401,9.157 6.565,8.927 L 6.587,9.012 9.919,4.022 9.925,4.011 9.939,3.985 9.948,3.968 9.965,3.935 C 9.967,3.93 9.968,3.925 9.971,3.921 A 0.52,0.52 0 0 0 9.984,3.891 L 9.991,3.875 a 1.51,1.51 0 0 0 0.015,-0.04 l 0.002,-0.008 0.012,-0.036 0.004,-0.012 0.012,-0.042 0.003,-0.008 0.01,-0.038 0.002,-0.01 0.01,-0.045 V 3.631 L 10.067,3.589 10.068,3.582 10.074,3.535 V 3.531 C 10.077,3.515 10.077,3.499 10.078,3.483 L 10.08,3.433 V 3.431 c 10e-4,-0.033 0,-0.066 -0.002,-0.099 V 3.331 C 10.048,2.866 9.753,2.451 9.216,2.458 H 9.215 Z M 9.169,2.605 H 9.17 9.168 Z"
     id="path2"
     inkscape:connector-curvature="0"
     style="fill:#bde6fb;fill-opacity:1" />
</svg>
