<?xml version="1.0" encoding="UTF-8" standalone="no"?>
<svg
   width="47.542679"
   height="47.546455"
   viewBox="0 0 12.579 12.58"
   version="1.1"
   id="svg6"
   sodipodi:docname="burp.svg"
   inkscape:version="0.92.5 (2060ec1f9f, 2020-04-08)"
   xmlns:inkscape="http://www.inkscape.org/namespaces/inkscape"
   xmlns:sodipodi="http://sodipodi.sourceforge.net/DTD/sodipodi-0.dtd"
   xmlns="http://www.w3.org/2000/svg"
   xmlns:svg="http://www.w3.org/2000/svg"
   xmlns:rdf="http://www.w3.org/1999/02/22-rdf-syntax-ns#"
   xmlns:cc="http://creativecommons.org/ns#"
   xmlns:dc="http://purl.org/dc/elements/1.1/">
  <metadata
     id="metadata12">
    <rdf:RDF>
      <cc:Work
         rdf:about="">
        <dc:format>image/svg+xml</dc:format>
        <dc:type
           rdf:resource="http://purl.org/dc/dcmitype/StillImage" />
        <dc:title />
      </cc:Work>
    </rdf:RDF>
  </metadata>
  <defs
     id="defs10" />
  <sodipodi:namedview
     pagecolor="#ffffff"
     bordercolor="#666666"
     borderopacity="1"
     objecttolerance="10"
     gridtolerance="10"
     guidetolerance="10"
     inkscape:pageopacity="0"
     inkscape:pageshadow="2"
     inkscape:window-width="1085"
     inkscape:window-height="480"
     id="namedview8"
     showgrid="false"
     inkscape:zoom="4.9166667"
     inkscape:cx="2.1355932"
     inkscape:cy="24"
     inkscape:window-x="0"
     inkscape:window-y="25"
     inkscape:window-maximized="0"
     inkscape:current-layer="svg6"
     inkscape:showpageshadow="0"
     inkscape:pagecheckerboard="0"
     inkscape:deskcolor="#d1d1d1" />
  <path
     d="M 6.285,0 A 6.295,6.295 0 0 0 0,6.285 6.295,6.295 0 0 0 6.285,12.58 6.295,6.295 0 0 0 12.579,6.285 6.295,6.295 0 0 0 6.285,0 Z M 6.274,0.94 a 5.408,5.408 0 0 1 5.397,5.387 5.407,5.407 0 0 1 -10.814,0 C 0.857,3.34 3.287,0.94 6.274,0.94 Z M 6.033,1.786 A 4.498,4.498 0 0 0 1.797,6.275 4.498,4.498 0 0 0 6.211,10.769 V 9.17 a 0.177,0.177 0 0 1 0,-0.01 0.177,0.177 0 0 1 0,-0.017 A 0.177,0.177 0 0 1 6.213,9.125 0.177,0.177 0 0 1 6.217,9.107 0.177,0.177 0 0 1 6.222,9.091 0.177,0.177 0 0 1 6.226,9.081 0.177,0.177 0 0 1 6.235,9.064 0.177,0.177 0 0 1 6.244,9.05 0.177,0.177 0 0 1 6.255,9.036 0.177,0.177 0 0 1 6.267,9.023 0.177,0.177 0 0 1 6.281,9.012 L 8.152,7.33 H 6.327 a 0.177,0.177 0 0 1 -0.001,0 0.177,0.177 0 0 1 -0.018,0.002 0.177,0.177 0 0 1 -0.017,0 A 0.177,0.177 0 0 1 6.273,7.331 0.177,0.177 0 0 1 6.256,7.327 0.177,0.177 0 0 1 6.248,7.325 0.177,0.177 0 0 1 6.239,7.322 0.177,0.177 0 0 1 6.222,7.317 0.177,0.177 0 0 1 6.206,7.309 0.177,0.177 0 0 1 6.191,7.3 0.177,0.177 0 0 1 6.177,7.29 0.177,0.177 0 0 1 6.164,7.278 0.177,0.177 0 0 1 6.152,7.264 0.177,0.177 0 0 1 6.142,7.25 0.177,0.177 0 0 1 6.132,7.235 0.177,0.177 0 0 1 6.125,7.219 0.177,0.177 0 0 1 6.119,7.202 0.177,0.177 0 0 1 6.115,7.185 0.177,0.177 0 0 1 6.113,7.167 a 0.177,0.177 0 0 1 0,-0.018 0.177,0.177 0 0 1 0,-0.017 A 0.177,0.177 0 0 1 6.117,7.114 0.177,0.177 0 0 1 6.121,7.097 V 5.578 H 4.023 A 0.177,0.177 0 0 1 4.008,5.582 0.177,0.177 0 0 1 3.991,5.584 0.177,0.177 0 0 1 3.973,5.585 0.177,0.177 0 0 1 3.956,5.584 0.177,0.177 0 0 1 3.938,5.581 0.177,0.177 0 0 1 3.921,5.576 0.177,0.177 0 0 1 3.904,5.57 0.177,0.177 0 0 1 3.888,5.562 0.177,0.177 0 0 1 3.873,5.552 0.177,0.177 0 0 1 3.859,5.542 0.177,0.177 0 0 1 3.847,5.529 0.177,0.177 0 0 1 3.835,5.516 0.177,0.177 0 0 1 3.825,5.501 0.177,0.177 0 0 1 3.817,5.486 0.177,0.177 0 0 1 3.81,5.469 0.177,0.177 0 0 1 3.805,5.453 0.177,0.177 0 0 1 3.801,5.435 0.177,0.177 0 0 1 3.799,5.42 0.177,0.177 0 0 1 3.797,5.403 0.177,0.177 0 0 1 3.799,5.385 0.177,0.177 0 0 1 3.801,5.367 0.177,0.177 0 0 1 3.805,5.35 0.177,0.177 0 0 1 3.811,5.333 0.177,0.177 0 0 1 3.819,5.317 0.177,0.177 0 0 1 3.828,5.302 0.177,0.177 0 0 1 3.838,5.288 0.177,0.177 0 0 1 3.851,5.275 0.177,0.177 0 0 1 3.864,5.263 0.177,0.177 0 0 1 3.878,5.253 0.177,0.177 0 0 1 3.894,5.244 L 6.033,3.32 Z"
     id="path2"
     inkscape:connector-curvature="0"
     style="fill:#bde6fb;fill-opacity:1" />
  <path
     d="M 6.387,1.782 V 3.38 a 0.177,0.177 0 0 1 0,0.014 0.177,0.177 0 0 1 0,0.018 0.177,0.177 0 0 1 -0.002,0.017 0.177,0.177 0 0 1 -0.004,0.016 0.177,0.177 0 0 1 0,0.002 A 0.177,0.177 0 0 1 6.379,3.455 0.177,0.177 0 0 1 6.373,3.472 0.177,0.177 0 0 1 6.365,3.488 0.177,0.177 0 0 1 6.355,3.503 0.177,0.177 0 0 1 6.345,3.517 0.177,0.177 0 0 1 6.333,3.529 0.177,0.177 0 0 1 6.319,3.541 0.177,0.177 0 0 1 6.305,3.551 L 4.444,5.225 h 1.823 a 0.177,0.177 0 0 1 0.01,-0.002 0.177,0.177 0 0 1 0.019,-10e-4 0.177,0.177 0 0 1 0.01,0 0.177,0.177 0 0 1 0.018,0.002 0.177,0.177 0 0 1 0.018,0.004 0.177,0.177 0 0 1 0.017,0.005 0.177,0.177 0 0 1 0.016,0.006 0.177,0.177 0 0 1 0.015,0.009 0.177,0.177 0 0 1 0.015,0.01 0.177,0.177 0 0 1 0.014,0.011 0.177,0.177 0 0 1 0.012,0.013 0.177,0.177 0 0 1 0.004,0.003 0.177,0.177 0 0 1 0,0.002 0.177,0.177 0 0 1 0.009,0.01 0.177,0.177 0 0 1 0.01,0.015 0.177,0.177 0 0 1 0.007,0.015 0.177,0.177 0 0 1 0.007,0.017 0.177,0.177 0 0 1 0.005,0.017 0.177,0.177 0 0 1 0.003,0.017 0.177,0.177 0 0 1 0.002,0.018 0.177,0.177 0 0 1 0,0.018 0.177,0.177 0 0 1 -0.003,0.017 v 1.545 h 2.118 a 0.177,0.177 0 0 1 0.009,-0.002 0.177,0.177 0 0 1 0.007,0 0.177,0.177 0 0 1 0.018,0 0.177,0.177 0 0 1 0.017,0.002 0.177,0.177 0 0 1 0.017,0.004 0.177,0.177 0 0 1 0.017,0.006 0.177,0.177 0 0 1 0.016,0.006 0.177,0.177 0 0 1 0.016,0.01 0.177,0.177 0 0 1 0.014,0.01 0.177,0.177 0 0 1 0.014,0.01 0.177,0.177 0 0 1 0.012,0.014 0.177,0.177 0 0 1 0.01,0.014 0.177,0.177 0 0 1 0.01,0.015 0.177,0.177 0 0 1 0.008,0.016 0.177,0.177 0 0 1 0.006,0.016 0.177,0.177 0 0 1 0.004,0.018 0.177,0.177 0 0 1 0.002,0.01 0.177,0.177 0 0 1 0.002,0.015 0.177,0.177 0 0 1 0,0.003 0.177,0.177 0 0 1 0,0.016 0.177,0.177 0 0 1 0,0.002 0.177,0.177 0 0 1 0,0.004 A 0.177,0.177 0 0 1 8.79,7.183 0.177,0.177 0 0 1 8.786,7.201 0.177,0.177 0 0 1 8.78,7.217 0.177,0.177 0 0 1 8.773,7.234 0.177,0.177 0 0 1 8.764,7.249 0.177,0.177 0 0 1 8.754,7.263 0.177,0.177 0 0 1 8.742,7.276 0.177,0.177 0 0 1 8.729,7.288 0.177,0.177 0 0 1 8.716,7.299 L 6.565,9.232 v 1.531 A 4.498,4.498 0 0 0 10.792,6.275 4.498,4.498 0 0 0 6.386,1.782 Z"
     id="path4"
     inkscape:connector-curvature="0"
     style="opacity:0.8;fill:#ff9955" />
</svg>
