<?xml version="1.0" encoding="UTF-8" standalone="no"?>
<svg
   width="47.546455"
   height="47.546455"
   viewBox="0 0 12.58 12.58"
   version="1.1"
   id="svg4"
   sodipodi:docname="caffeine.svg"
   inkscape:version="0.92.4 (5da689c313, 2019-01-14)"
   xmlns:inkscape="http://www.inkscape.org/namespaces/inkscape"
   xmlns:sodipodi="http://sodipodi.sourceforge.net/DTD/sodipodi-0.dtd"
   xmlns="http://www.w3.org/2000/svg"
   xmlns:svg="http://www.w3.org/2000/svg"
   xmlns:rdf="http://www.w3.org/1999/02/22-rdf-syntax-ns#"
   xmlns:cc="http://creativecommons.org/ns#"
   xmlns:dc="http://purl.org/dc/elements/1.1/">
  <metadata
     id="metadata10">
    <rdf:RDF>
      <cc:Work
         rdf:about="">
        <dc:format>image/svg+xml</dc:format>
        <dc:type
           rdf:resource="http://purl.org/dc/dcmitype/StillImage" />
        <dc:title />
      </cc:Work>
    </rdf:RDF>
  </metadata>
  <defs
     id="defs8" />
  <sodipodi:namedview
     pagecolor="#ffffff"
     bordercolor="#666666"
     borderopacity="1"
     objecttolerance="10"
     gridtolerance="10"
     guidetolerance="10"
     inkscape:pageopacity="0"
     inkscape:pageshadow="2"
     inkscape:window-width="1112"
     inkscape:window-height="480"
     id="namedview6"
     showgrid="false"
     inkscape:zoom="4.9166667"
     inkscape:cx="2.1355932"
     inkscape:cy="24"
     inkscape:window-x="0"
     inkscape:window-y="25"
     inkscape:window-maximized="0"
     inkscape:current-layer="svg4"
     inkscape:showpageshadow="0"
     inkscape:pagecheckerboard="0"
     inkscape:deskcolor="#d1d1d1" />
  <path
     d="m 6.29,0 a 6.29,6.29 0 0 1 0,12.58 A 6.29,6.29 0 0 1 6.29,0 Z M 6.31,0.93 A 5.417,5.417 0 0 0 0.9,6.34 5.4,5.4 0 0 0 6.3,11.75 5.4,5.4 0 0 0 11.71,6.35 5.4,5.4 0 0 0 6.31,0.93 Z M 7.688,2.708 C 7.505,3.436 7.664,3.707 7.956,4.154 8.242,4.593 7.952,5.137 7.587,5.566 7.809,4.686 7.367,4.492 7.197,4.112 7.007,3.692 7.165,3.367 7.688,2.708 Z m -1.429,0 C 6.076,3.436 6.235,3.707 6.527,4.154 6.813,4.593 6.523,5.137 6.158,5.566 6.381,4.686 5.938,4.492 5.768,4.112 5.579,3.692 5.736,3.367 6.259,2.708 Z m -1.429,0 C 4.647,3.436 4.806,3.707 5.098,4.154 5.385,4.593 5.095,5.137 4.73,5.566 4.952,4.686 4.51,4.492 4.34,4.112 4.15,3.692 4.307,3.367 4.83,2.708 Z m 4.433,3.334 c 0,0 0.714,0 0.714,0.714 v 0.476 c 0,0 0,0.715 -0.714,0.715 H 9.005 C 8.91,9.107 8.072,9.852 6.643,9.852 H 5.691 C 4.262,9.852 3.309,8.899 3.309,7.471 V 6.04 h 5.715 z m 0,0.476 -0.234,0.007 -0.005,0.946 h 0.239 c 0,0 0.245,0 0.245,-0.224 V 6.771 c 0,0 -0.007,-0.268 -0.245,-0.253 z"
     id="path2"
     inkscape:connector-curvature="0"
     style="fill:#bde6fb;fill-opacity:1" />
</svg>
