<?xml version="1.0" encoding="UTF-8" standalone="no"?>
<svg
   width="47.546474"
   height="47.542736"
   viewBox="0 0 12.580005 12.579016"
   version="1.1"
   id="svg4"
   sodipodi:docname="calf.svg"
   inkscape:version="0.92.5 (2060ec1f9f, 2020-04-08)"
   xmlns:inkscape="http://www.inkscape.org/namespaces/inkscape"
   xmlns:sodipodi="http://sodipodi.sourceforge.net/DTD/sodipodi-0.dtd"
   xmlns="http://www.w3.org/2000/svg"
   xmlns:svg="http://www.w3.org/2000/svg"
   xmlns:rdf="http://www.w3.org/1999/02/22-rdf-syntax-ns#"
   xmlns:cc="http://creativecommons.org/ns#"
   xmlns:dc="http://purl.org/dc/elements/1.1/">
  <metadata
     id="metadata10">
    <rdf:RDF>
      <cc:Work
         rdf:about="">
        <dc:format>image/svg+xml</dc:format>
        <dc:type
           rdf:resource="http://purl.org/dc/dcmitype/StillImage" />
        <dc:title />
      </cc:Work>
    </rdf:RDF>
  </metadata>
  <defs
     id="defs8" />
  <sodipodi:namedview
     pagecolor="#ffffff"
     bordercolor="#666666"
     borderopacity="1"
     objecttolerance="10"
     gridtolerance="10"
     guidetolerance="10"
     inkscape:pageopacity="0"
     inkscape:pageshadow="2"
     inkscape:window-width="1085"
     inkscape:window-height="480"
     id="namedview6"
     showgrid="false"
     inkscape:zoom="4.9166667"
     inkscape:cx="2.1355932"
     inkscape:cy="24"
     inkscape:window-x="0"
     inkscape:window-y="25"
     inkscape:window-maximized="0"
     inkscape:current-layer="svg4"
     inkscape:showpageshadow="0"
     inkscape:pagecheckerboard="0"
     inkscape:deskcolor="#d1d1d1" />
  <path
     d="m 6.2900035,1.6115308e-5 a 6.29,6.29 0 0 0 -0.628,0.03000000469 6.29,6.29 0 0 0 -0.621,0.094 6.29,6.29 0 0 0 -0.454,0.116 6.29,6.29 0 0 0 -1.542,0.67 6.29,6.29 0 0 0 -0.307,0.18699998 6.29,6.29 0 0 0 -0.5,0.38 6.29,6.29 0 0 0 -0.343,0.32 6.29,6.29 0 0 0 -1.44000004,2.15 6.29,6.29 0 0 0 -0.028,0.062 6.29,6.29 0 0 0 -0.197,0.597 6.29,6.29 0 0 0 -0.138,0.614 6.29,6.29 0 0 0 -0.076,0.624 6.29,6.29 0 0 0 -0.016000003676,0.455 6.29,6.29 0 0 0 0.023000003676,0.437 6.29,6.29 0 0 0 0.414,1.838 6.29,6.29 0 0 0 0.064,0.174 6.29,6.29 0 0 0 0.227,0.469 6.29,6.29 0 0 0 2.52500004,2.5719999 6.29,6.29 0 0 0 0.193,0.11 6.29,6.29 0 0 0 0.575,0.256 6.29,6.29 0 0 0 0.507,0.168 6.29,6.29 0 0 0 1.772,0.256 6.29,6.29 0 0 0 0.41,-0.021 6.29,6.29 0 0 0 0.218,-0.012 6.29,6.29 0 0 0 0.622,-0.094 6.29,6.29 0 0 0 0.402,-0.104 6.29,6.29 0 0 0 1.243,-0.486 6.29,6.29 0 0 0 0.12,-0.058 6.29,6.29 0 0 0 0.535,-0.33 6.29,6.29 0 0 0 0.4999995,-0.38 6.29,6.29 0 0 0 0.46,-0.43 6.29,6.29 0 0 0 0.413,-0.473 6.29,6.29 0 0 0 0.221,-0.3099999 6.29,6.29 0 0 0 0.797,-1.579 6.29,6.29 0 0 0 0.112,-0.34 6.29,6.29 0 0 0 0.043,-0.19 6.29,6.29 0 0 0 0.184,-1.473 6.29,6.29 0 0 0 0,-0.01 6.29,6.29 0 0 0 -0.031,-0.628 6.29,6.29 0 0 0 -0.094,-0.622 6.29,6.29 0 0 0 -0.073,-0.284 6.29,6.29 0 0 0 -2.33,-3.5 6.29,6.29 0 0 0 -0.3629995,-0.25899998 6.29,6.29 0 0 0 -0.546,-0.313 6.29,6.29 0 0 0 -0.573,-0.256 6.29,6.29 0 0 0 -0.597,-0.197 6.29,6.29 0 0 0 -0.388,-0.087 6.29,6.29 0 0 0 -0.772,-0.117 6.29,6.29 0 0 0 -0.078,-0.01 6.29,6.29 0 0 0 -0.445,-0.01600000469 z m -0.02,0.930000004692 0.01,0.01 a 5.4,5.4 0 0 1 1.086,0.10999998 c 0.051,0.119 0.088,0.267 0.159,0.315 0.227,0.152 0.619,0.102 0.9,0.022 a 5.4,5.4 0 0 1 2.7139995,2.606 c -0.02,0 -0.047,10e-4 -0.065,-0.001 -0.172,-0.027 -0.5,-0.2 -0.69,-0.18 -0.064,0.007 -0.114,0.036 -0.136,0.099 -0.038,0.105 0.084,0.18 0.083,0.284 -0.002,0.217 -0.19,0.282 -0.124,0.507 0.066,0.222 0.369,0.173 0.538,0.325 0.086,0.078 0.048,0.194 0.227,0.244 0.171,0.048 0.418,-0.022 0.453,-0.223 0.008,-0.044 -0.041,-0.134 -0.02,-0.183 0.01,-0.024 0.037,-0.027 0.054,-0.044 a 5.4,5.4 0 0 1 0.221,1.519 5.4,5.4 0 0 1 -0.144,1.225 c -0.019,-0.005 -0.048,-0.006 -0.064,-0.011 -0.16,-0.048 -0.216,-0.196 -0.372,-0.305 -0.148,-0.104 -0.372,-0.15 -0.615,-0.157 a 2.95,2.95 0 0 0 -0.7279995,0.076 c -0.126,0.03 -0.328,0.087 -0.351,0.223 -0.055,0.312 0.328,0.346 0.537,0.447 a 0.665,0.665 0 0 1 0.3099995,0.366 c 0.105,0.305 -0.003,0.54 0.372,0.61 a 0.96,0.96 0 0 0 0.433,-0.02 c 0.021,-0.008 0.035,-0.033 0.053,-0.044 a 5.4,5.4 0 0 1 -0.548,0.878 l -0.042,-10e-4 c -0.347,-0.021 -0.6549995,-0.28 -1.0739995,-0.245 -0.337,0.028 -0.817,0.201 -0.806,0.569 0.005,0.1199999 0.12,0.2769999 0.207,0.3859999 0.091,0.114 0.279,0.197 0.31,0.325 0.021,0.09 -0.008,0.181 -0.03,0.27 a 5.4,5.4 0 0 1 -2.848,0.818 5.4,5.4 0 0 1 -1.346,-0.175 c -0.142,-0.07 -0.301,-0.138 -0.385,-0.263 -0.076,-0.112 -0.051,-0.416 -0.123,-0.549 -0.055,-0.1 -0.345,-0.249 -0.456,-0.284 a 0.977,0.977 0 0 0 -0.213,-0.037 c -0.241,-0.02 -0.54,0.021 -0.655,0.139 -0.031,0.032 -0.024,0.07 -0.04,0.104 a 5.4,5.4 0 0 1 -1.486,-1.6749999 c 0.023,-0.046 0.058,-0.105 0.045,-0.156 -0.013,-0.051 -0.11,-0.064 -0.18,-0.09 a 5.4,5.4 0 0 1 -0.56300004,-2.18 c 0.072,-0.022 0.12300004,-0.058 0.22000004,-0.065 0.336,-0.024 0.785,0.09 0.95,-0.264 0.049,-0.104 0.086,-0.352 -0.02,-0.508 -0.07,-0.102 -0.48,-0.19 -0.497,-0.346 -0.02,-0.18 0.294,-0.268 0.29,-0.467 -0.006,-0.271 -0.334,-0.289 -0.537,-0.365 -0.03,-0.01 -0.062,-0.028 -0.1,-0.038 a 5.4,5.4 0 0 1 1.34,-2.089 c 0.087,0.236 0.12,0.52 0.391,0.604 0.313,0.096 0.727,-0.17 0.828,-0.407 0.038,-0.09 0.018,-0.214 0.062,-0.325 0.109,-0.283 0.414,-0.332 0.66,-0.588 0.114,-0.12 0.246,-0.355 0.083,-0.488 -0.006,-0.005 -0.035,0 -0.044,-0.004 a 5.4,5.4 0 0 1 1.766,-0.30399998 z m 1.954,0.89599998 c -0.19,0.01 -0.379,0.055 -0.466,0.143 -0.323,0.329 0.202,0.804 0.207,1.076 0.007,0.374 -0.456,0.59 -0.33,1.056 0.033,0.124 0.23,0.284 0.412,0.325 0.699,0.161 0.727,-0.767 1.406,-0.833 0.221,-0.021 0.6729995,0.085 0.6819995,-0.203 0.005,-0.182 -0.2899995,-0.282 -0.4549995,-0.366 -0.164,-0.083 -0.371,-0.171 -0.475,-0.325 -0.076,-0.113 -0.053,-0.415 -0.125,-0.547 -0.055,-0.101 -0.344,-0.25 -0.455,-0.285 a 0.973,0.973 0 0 0 -0.213,-0.038 1.507,1.507 0 0 0 -0.188,-0.003 z m -1.904,0.035 a 0.3,0.3 0 0 0 -0.246,0.102 c -0.028,0.03 -0.021,0.144 -0.062,0.183 -0.148,0.139 -0.486,0.08 -0.559,0.324 -0.061,0.208 0.115,0.301 0.124,0.488 0.008,0.163 -0.202,0.303 0.062,0.386 0.202,0.063 0.442,-0.126 0.662,-0.163 0.183,-0.03 0.376,0.024 0.434,-0.081 0.03,-0.056 -0.04,-0.108 -0.021,-0.203 0.034,-0.171 0.236,-0.148 0.248,-0.265 0.02,-0.194 -0.282,-0.246 -0.31,-0.303 -0.024,-0.05 0.027,-0.164 0.02,-0.203 -0.023,-0.128 -0.185,-0.256 -0.352,-0.265 z m -0.86,2.154 a 0.645,0.645 0 0 0 -0.105,0.005 c -0.163,0.022 -0.424,0.23 -0.454,0.345 -0.12,0.443 0.327,0.687 0.33,1.035 0.005,0.356 -0.347,0.529 -0.31,0.854 0.028,0.239 0.203,0.327 0.455,0.366 0.33,0.05 0.86,-0.1 0.971,-0.305 0.073,-0.134 0.043,-0.398 0.124,-0.528 0.09,-0.145 0.283,-0.248 0.475,-0.346 0.18,-0.09 0.46,-0.191 0.455,-0.366 -0.01,-0.314 -0.679,-0.16 -0.93,-0.264 -0.324,-0.134 -0.506,-0.78 -1.01,-0.796 z m -2.384,0.291 c -0.225,0.02 -0.547,0.136 -0.54,0.381 0.004,0.08 0.082,0.185 0.14,0.258 0.06,0.076 0.186,0.132 0.206,0.217 0.041,0.172 -0.083,0.347 -0.082,0.49 0.003,0.315 0.166,0.515 0.538,0.528 0.155,0.005 0.313,-0.036 0.373,-0.136 0.03,-0.048 0.004,-0.133 0.055,-0.203 0.122,-0.163 0.48,-0.077 0.497,-0.299 0.014,-0.18 -0.197,-0.184 -0.193,-0.312 0.005,-0.144 0.268,-0.151 0.332,-0.245 0.058,-0.085 0.053,-0.253 0.013,-0.338 -0.1,-0.217 -0.372,-0.163 -0.622,-0.178 -0.232,-0.014 -0.437,-0.186 -0.717,-0.163 z m 5.964,1.094 c -0.114,0.02 -0.176,0.139 -0.309,0.176 -0.241,0.067 -0.66,-0.16 -0.685,0.157 -0.02,0.241 0.406,0.282 0.599,0.381 0.092,0.048 0.11,0.146 0.194,0.23 0.158,0.161 0.53,0.215 0.816,0.203 0.08,-0.004 0.212,-0.017 0.242,-0.098 0.069,-0.185 -0.163,-0.25 -0.28,-0.336 a 0.417,0.417 0 0 1 -0.15,-0.26 c -0.03,-0.2 0.064,-0.33 -0.158,-0.416 a 0.599,0.599 0 0 0 -0.27,-0.037 z m -6.12,1.9 a 7.3,7.3 0 0 0 -0.423,0.007 c -0.292,0.015 -0.575,0.05 -0.675,0.126 -0.134,0.101 -0.22,0.375 -0.166,0.569 0.096,0.348 0.608,0.48 0.744,0.67 0.17,0.238 0.12,0.669 0.455,0.773 0.313,0.096 0.726,-0.169 0.827,-0.407 0.038,-0.089 0.02,-0.214 0.062,-0.325 0.109,-0.283 0.414,-0.333 0.66,-0.59 0.115,-0.118 0.246,-0.354 0.084,-0.487 -0.065,-0.053 -0.311,-0.021 -0.476,-0.04 -0.304,-0.038 -0.463,-0.259 -0.786,-0.285 a 4.61,4.61 0 0 0 -0.306,-0.011 z m 3.26,0.324 a 0.3,0.3 0 0 0 -0.246,0.102 c -0.028,0.03 -0.021,0.144 -0.062,0.182 -0.148,0.14 -0.485,0.082 -0.558,0.325 -0.061,0.208 0.115,0.3 0.124,0.487 0.008,0.163 -0.203,0.304 0.061,0.386 0.202,0.063 0.442,-0.126 0.662,-0.163 0.183,-0.03 0.376,0.024 0.434,-0.08 0.03,-0.056 -0.04,-0.11 -0.02,-0.204 0.034,-0.171 0.235,-0.147 0.247,-0.263 0.02,-0.195 -0.282,-0.248 -0.31,-0.305 -0.024,-0.05 0.029,-0.164 0.022,-0.203 -0.024,-0.128 -0.187,-0.256 -0.354,-0.264 z m 1.503,0.518 c -0.064,0.007 -0.112,0.035 -0.134,0.098 -0.038,0.105 0.083,0.18 0.082,0.284 -0.003,0.217 -0.191,0.284 -0.124,0.509 0.065,0.222 0.368,0.173 0.537,0.325 0.086,0.078 0.048,0.194 0.227,0.244 0.172,0.048 0.42,-0.023 0.455,-0.224 0.007,-0.044 -0.042,-0.134 -0.02,-0.183 0.068,-0.16 0.313,-0.135 0.31,-0.305 -0.004,-0.132 -0.209,-0.118 -0.248,-0.264 -0.021,-0.077 0.053,-0.163 0.02,-0.222 -0.062,-0.113 -0.286,-0.063 -0.413,-0.083 -0.172,-0.026 -0.5,-0.2 -0.692,-0.18 z m -2.113,1.285 c -0.225,0.019 -0.546,0.134 -0.538,0.379 0.003,0.08 0.08,0.186 0.137,0.2589999 0.061,0.076 0.188,0.131 0.208,0.216 0.041,0.172 -0.084,0.347 -0.083,0.49 0.003,0.316 0.166,0.516 0.538,0.529 0.155,0.005 0.314,-0.036 0.374,-0.136 0.029,-0.047 0.003,-0.134 0.055,-0.203 0.122,-0.163 0.48,-0.077 0.497,-0.3 0.014,-0.178 -0.197,-0.184 -0.193,-0.312 0.005,-0.144 0.267,-0.15 0.33,-0.244 0.059,-0.085 0.055,-0.2539999 0.015,-0.3399999 -0.1,-0.216 -0.372,-0.161 -0.622,-0.176 -0.232,-0.013 -0.438,-0.186 -0.718,-0.162 z m 2.017,0.9669999 c -0.042,0.003 -0.077,0.018 -0.098,0.05 -0.032,0.044 0.04,0.16 0.04,0.182 0.002,0.155 -0.11,0.245 -0.04,0.365 0.042,0.075 0.228,0.097 0.288,0.142 0.071,0.053 0.057,0.136 0.187,0.163 0.093,0.02 0.17,-0.014 0.207,-0.062 0.044,-0.058 -0.002,-0.145 0.02,-0.182 0.073,-0.127 0.296,-0.126 0.124,-0.284 -0.017,-0.015 -0.068,-0.019 -0.082,-0.06 -0.028,-0.08 0.075,-0.082 0.02,-0.143 -0.056,-0.062 -0.166,-0.041 -0.249,-0.061 -0.101,-0.024 -0.291,-0.118 -0.417,-0.11 z"
     id="path2"
     inkscape:connector-curvature="0"
     style="fill:#bde6fb;fill-opacity:1" />
</svg>
