<?xml version="1.0" encoding="UTF-8" standalone="no"?>
<svg
   width="48"
   height="48"
   viewBox="0 0 12.7 12.7"
   version="1.1"
   id="svg4"
   sodipodi:docname="calibre-viewer.svg"
   inkscape:version="0.92.5 (2060ec1f9f, 2020-04-08)"
   xmlns:inkscape="http://www.inkscape.org/namespaces/inkscape"
   xmlns:sodipodi="http://sodipodi.sourceforge.net/DTD/sodipodi-0.dtd"
   xmlns="http://www.w3.org/2000/svg"
   xmlns:svg="http://www.w3.org/2000/svg">
  <sodipodi:namedview
     id="namedview1"
     pagecolor="#505050"
     bordercolor="#eeeeee"
     borderopacity="1"
     inkscape:showpageshadow="0"
     inkscape:pageopacity="0"
     inkscape:pagecheckerboard="0"
     inkscape:deskcolor="#d1d1d1" />
  <defs
     id="defs8">
    <style
       id="current-color-scheme"
       type="text/css">&#10;      .ColorScheme-Highlight {&#10;        color:#1e3f5a;&#10;      }&#10;  </style>
  </defs>
  <path
     class="ColorScheme-Highlight"
     style="fill:#bde6fb;fill-opacity:1;stroke-width:0.264583"
     d="M 6.3499999,0 A 6.3499999,6.3499999 0 0 0 0,6.3499999 6.3499999,6.3499999 0 0 0 6.3499999,12.7 6.3499999,6.3499999 0 0 0 10.274825,11.333158 l -0.209806,-0.209806 a 2.3812497,2.3812497 0 0 1 -0.2061893,0.09198 2.3812497,2.3812497 0 0 1 -0.2258261,0.07493 2.3812497,2.3812497 0 0 1 -0.2325439,0.05219 2.3812497,2.3812497 0 0 1 -0.2361612,0.02842 2.3812497,2.3812497 0 0 1 -0.1684653,0.0062 2.3812497,2.3812497 0 0 1 -0.2377117,-0.01189 2.3812497,2.3812497 0 0 1 -0.022221,-0.0036 A 5.5562499,5.5562499 0 0 1 6.3499999,11.90625 5.5562499,5.5562499 0 0 1 0.79374999,6.3499999 5.5562499,5.5562499 0 0 1 6.3499999,0.79374999 5.5562499,5.5562499 0 0 1 11.90625,6.3499999 a 5.5562499,5.5562499 0 0 1 -0.54622,2.3864176 2.3812497,2.3812497 0 0 1 0.01085,0.09095 2.3812497,2.3812497 0 0 1 0.0062,0.1684652 2.3812497,2.3812497 0 0 1 -0.01189,0.2377117 2.3812497,2.3812497 0 0 1 -0.03566,0.2351276 2.3812497,2.3812497 0 0 1 -0.05891,0.2309937 2.3812497,2.3812497 0 0 1 -0.08165,0.2232421 2.3812497,2.3812497 0 0 1 -0.0677,0.1400442 l 0.216008,0.216007 A 6.3499999,6.3499999 0 0 0 12.7,6.3499999 6.3499999,6.3499999 0 0 0 6.3499999,0 Z M 3.7041666,2.6458333 C 3.4110083,2.6458333 3.175,2.8818416 3.175,3.175 v 6.3499999 c 0,0.2931583 0.2360083,0.5291671 0.5291666,0.5291671 H 6.6145833 V 9.5249999 h -2.38125 V 3.175 h 2.1166666 v 2.9104166 l 0.79375,-0.79375 0.79375,0.79375 V 3.175 h 0.79375 c 0.1465792,0 0.2645833,0.1180041 0.2645833,0.2645833 v 3.175 H 9.5249999 V 3.175 c 0,-0.2931584 -0.2360084,-0.5291667 -0.5291667,-0.5291667 h -1.0583333 -1.5875 z M 8.9958332,7.1437499 A 1.8520833,1.8520833 0 0 0 7.1437499,8.9958332 1.8520833,1.8520833 0 0 0 8.9958332,10.847917 1.8520833,1.8520833 0 0 0 10.105843,10.475846 l 1.348755,1.348238 c 0.103647,0.103649 0.27049,0.103649 0.374137,0 0.103647,-0.103647 0.103647,-0.27049 0,-0.374137 L 10.479464,10.101192 A 1.8520833,1.8520833 0 0 0 10.847917,8.9958332 1.8520833,1.8520833 0 0 0 8.9958332,7.1437499 Z m 0,0.5291667 A 1.3229165,1.3229165 0 0 1 10.31875,8.9958332 1.3229165,1.3229165 0 0 1 8.9958332,10.31875 1.3229165,1.3229165 0 0 1 7.6729166,8.9958332 1.3229165,1.3229165 0 0 1 8.9958332,7.6729166 Z"
     id="path833" />
</svg>
