<?xml version="1.0" encoding="UTF-8" standalone="no"?>
<svg
   width="48"
   height="48"
   viewBox="0 0 12.7 12.7"
   version="1.1"
   id="svg4"
   sodipodi:docname="calibre-ebook-edit.svg"
   inkscape:version="0.92.5 (2060ec1f9f, 2020-04-08)"
   xmlns:inkscape="http://www.inkscape.org/namespaces/inkscape"
   xmlns:sodipodi="http://sodipodi.sourceforge.net/DTD/sodipodi-0.dtd"
   xmlns="http://www.w3.org/2000/svg"
   xmlns:svg="http://www.w3.org/2000/svg">
  <sodipodi:namedview
     id="namedview1"
     pagecolor="#505050"
     bordercolor="#eeeeee"
     borderopacity="1"
     inkscape:showpageshadow="0"
     inkscape:pageopacity="0"
     inkscape:pagecheckerboard="0"
     inkscape:deskcolor="#d1d1d1" />
  <defs
     id="defs8">
    <style
       id="current-color-scheme"
       type="text/css">&#10;      .ColorScheme-Highlight {&#10;        color:#1e3f5a;&#10;      }&#10;  </style>
  </defs>
  <path
     class="ColorScheme-Highlight"
     style="fill:#bde6fb;fill-opacity:1;stroke-width:0.264583"
     d="M 6.3499999,0 A 6.3499999,6.3499999 0 0 0 0,6.3499999 6.3499999,6.3499999 0 0 0 6.3499999,12.7 6.3499999,6.3499999 0 0 0 12.7,6.3499999 6.3499999,6.3499999 0 0 0 6.3499999,0 Z m 0,0.79374999 A 5.5562499,5.5562499 0 0 1 11.90625,6.3499999 5.5562499,5.5562499 0 0 1 6.3499999,11.90625 5.5562499,5.5562499 0 0 1 0.79374999,6.3499999 5.5562499,5.5562499 0 0 1 6.3499999,0.79374999 Z m 0,0.83819171 1.5875,0.6123657 z M 3.7041666,2.6458333 C 3.4110083,2.6458333 3.175,2.8818416 3.175,3.175 v 6.3499999 c 0,0.2931583 0.2360083,0.5291671 0.5291666,0.5291671 h 5.2916666 c 0.2931583,0 0.5291667,-0.2360088 0.5291667,-0.5291671 v -2.38125 L 8.9958332,7.6729166 v 1.5875 c 0,0.1465791 -0.1180041,0.2645833 -0.2645833,0.2645833 H 4.2333333 V 3.175 h 1.0583333 v 2.9104166 l 0.79375,-0.79375 0.79375,0.79375 V 3.175 2.6458333 H 6.3499999 5.2916666 Z m 4.2333333,0 V 3.175 h 0.79375 c 0.1465792,0 0.2645833,0.1180041 0.2645833,0.2645833 V 4.0746867 L 9.5249999,3.6514566 V 3.175 c 0,-0.2931584 -0.2360084,-0.5291667 -0.5291667,-0.5291667 z m 1.5875,1.5875 -0.79375,0.79375 1.0583333,1.0583333 0.7937498,-0.79375 z M 8.4666666,5.2916666 6.3499999,7.4083332 7.4083332,8.4666666 9.5249999,6.3499999 Z m -2.38125,2.38125 -0.2645833,1.3229166 1.3229166,-0.2645833 z"
     id="path844" />
</svg>
