<?xml version="1.0" encoding="UTF-8" standalone="no"?>
<svg
   width="47.54644"
   height="47.546432"
   version="1.1"
   viewBox="0 0 12.579996 12.579994"
   id="svg6"
   sodipodi:docname="carla.svg"
   inkscape:version="0.92.4 (5da689c313, 2019-01-14)"
   xmlns:inkscape="http://www.inkscape.org/namespaces/inkscape"
   xmlns:sodipodi="http://sodipodi.sourceforge.net/DTD/sodipodi-0.dtd"
   xmlns="http://www.w3.org/2000/svg"
   xmlns:svg="http://www.w3.org/2000/svg"
   xmlns:rdf="http://www.w3.org/1999/02/22-rdf-syntax-ns#"
   xmlns:cc="http://creativecommons.org/ns#"
   xmlns:dc="http://purl.org/dc/elements/1.1/">
  <metadata
     id="metadata12">
    <rdf:RDF>
      <cc:Work
         rdf:about="">
        <dc:format>image/svg+xml</dc:format>
        <dc:type
           rdf:resource="http://purl.org/dc/dcmitype/StillImage" />
        <dc:title />
      </cc:Work>
    </rdf:RDF>
  </metadata>
  <defs
     id="defs10" />
  <sodipodi:namedview
     pagecolor="#ffffff"
     bordercolor="#666666"
     borderopacity="1"
     objecttolerance="10"
     gridtolerance="10"
     guidetolerance="10"
     inkscape:pageopacity="0"
     inkscape:pageshadow="2"
     inkscape:window-width="1136"
     inkscape:window-height="480"
     id="namedview8"
     showgrid="false"
     inkscape:zoom="4.9166667"
     inkscape:cx="2.1355932"
     inkscape:cy="24"
     inkscape:window-x="0"
     inkscape:window-y="25"
     inkscape:window-maximized="0"
     inkscape:current-layer="svg6"
     inkscape:showpageshadow="0"
     inkscape:pagecheckerboard="0"
     inkscape:deskcolor="#d1d1d1" />
  <path
     d="M 6.2898694,0 C 2.8119653,-3.5452687e-5 -0.00581176,2.8222749 9.004251e-6,6.3004435 0.00568186,9.7741144 2.8262526,12.585541 6.2999234,12.579985 9.7698901,12.574599 12.579995,9.7600916 12.579995,6.2901249 12.580025,2.8161895 9.7638048,0 6.290134,2.6457731e-4 Z M 6.2697158,0.93015745 C 9.2520615,0.93005413 11.679848,3.3576525 11.679584,6.3400247 11.685117,9.3263392 9.2657403,11.750156 6.2795052,11.749892 3.2931908,11.755425 0.86937338,9.3360493 0.86963796,6.3498142 0.8586608,3.3597956 3.2796178,0.92989287 6.2697158,0.93015745 Z"
     id="path2"
     inkscape:connector-curvature="0"
     style="fill:#bde6fb;fill-opacity:1;stroke-width:0.99998" />
  <path
     d="M 6.2708196,1.9884854 C 3.8656287,1.9883859 1.918214,3.9426733 1.9269452,6.3479701 1.9268578,8.7500654 3.8764764,10.696342 6.2784924,10.691844 8.6805878,10.691932 10.626865,8.7423132 10.622367,6.3402972 10.622451,3.9412975 8.6697665,1.9884854 6.2708196,1.98875 Z M 7.3591165,4.695668 h 1.276916 V 5.3338614 H 7.3591165 Z M 4.3794166,4.9085728 a 1.2769425,1.2769425 0 0 1 1.276916,1.276916 1.2769425,1.2769425 0 0 1 -1.276916,1.276916 1.2769425,1.2769425 0 0 1 -1.276916,-1.276916 1.2769425,1.2769425 0 0 1 1.276916,-1.276916 z M 7.3591165,5.5467663 H 9.0613184 V 6.1854888 H 7.3591165 Z m 0,0.8516301 h 0.851101 v 0.6381934 h -0.851101 z m 0,0.8511009 h 2.128017 v 0.6381934 h -2.128017 z"
     id="path4"
     inkscape:connector-curvature="0"
     style="opacity:0.75;fill:#ff2a2a;stroke-width:0.804376" />
</svg>
