<?xml version="1.0" encoding="UTF-8" standalone="no"?>
<svg
   width="47.542679"
   height="47.546455"
   viewBox="0 0 12.579 12.58"
   version="1.1"
   id="svg13"
   sodipodi:docname="cewl.svg"
   inkscape:version="0.92.5 (2060ec1f9f, 2020-04-08)"
   xmlns:inkscape="http://www.inkscape.org/namespaces/inkscape"
   xmlns:sodipodi="http://sodipodi.sourceforge.net/DTD/sodipodi-0.dtd"
   xmlns="http://www.w3.org/2000/svg"
   xmlns:svg="http://www.w3.org/2000/svg"
   xmlns:rdf="http://www.w3.org/1999/02/22-rdf-syntax-ns#"
   xmlns:cc="http://creativecommons.org/ns#"
   xmlns:dc="http://purl.org/dc/elements/1.1/">
  <metadata
     id="metadata17">
    <rdf:RDF>
      <cc:Work
         rdf:about="">
        <dc:format>image/svg+xml</dc:format>
        <dc:type
           rdf:resource="http://purl.org/dc/dcmitype/StillImage" />
        <dc:title />
      </cc:Work>
    </rdf:RDF>
  </metadata>
  <sodipodi:namedview
     pagecolor="#ffffff"
     bordercolor="#666666"
     borderopacity="1"
     objecttolerance="10"
     gridtolerance="10"
     guidetolerance="10"
     inkscape:pageopacity="0"
     inkscape:pageshadow="2"
     inkscape:window-width="1085"
     inkscape:window-height="480"
     id="namedview15"
     showgrid="false"
     inkscape:zoom="4.9166667"
     inkscape:cx="2.1355932"
     inkscape:cy="24"
     inkscape:window-x="0"
     inkscape:window-y="25"
     inkscape:window-maximized="0"
     inkscape:current-layer="svg13"
     inkscape:showpageshadow="0"
     inkscape:pagecheckerboard="0"
     inkscape:deskcolor="#d1d1d1" />
  <defs
     id="defs7" />
  <path
     d="M 6.285,0 A 6.295,6.295 0 0 0 0,6.285 6.295,6.295 0 0 0 6.285,12.58 6.295,6.295 0 0 0 12.579,6.285 6.295,6.295 0 0 0 6.285,0 Z M 6.274,0.94 a 5.408,5.408 0 0 1 5.397,5.387 5.407,5.407 0 0 1 -10.814,0 C 0.857,3.34 3.287,0.94 6.274,0.94 Z M 6.045,2.185 a 0.42,0.42 0 0 0 -0.08,0.07 C 5.912,2.306 5.855,2.348 5.837,2.348 5.82,2.348 5.793,2.377 5.777,2.411 5.761,2.448 5.712,2.486 5.661,2.503 5.596,2.524 5.561,2.558 5.526,2.636 A 0.553,0.553 0 0 0 5.478,2.785 0.085,0.085 0 0 1 5.438,2.85 C 5.404,2.869 5.398,2.917 5.41,3.162 l 0.013,0.252 c 0,0.06 -0.122,-0.013 -0.117,0.14 0.005,0.14 0.184,0.329 0.207,0.439 0.024,0.092 0.02,0.171 -0.016,0.2 A 0.544,0.544 0 0 1 5.31,4.23 C 5.201,4.237 5.135,4.257 5.085,4.296 A 0.28,0.28 0 0 1 4.926,4.352 c -0.062,0 -0.09,0.013 -0.1,0.045 C 4.818,4.432 4.793,4.439 4.706,4.432 4.599,4.424 4.595,4.426 4.477,4.581 A 0.718,0.718 0 0 0 4.343,4.831 0.422,0.422 0 0 1 4.294,4.973 0.296,0.296 0 0 0 4.26,5.113 0.4,0.4 0 0 1 4.208,5.287 C 4.165,5.357 4.157,5.407 4.163,5.566 4.171,5.746 4.167,5.761 4.114,5.785 4.083,5.798 4.057,5.825 4.057,5.845 4.057,5.865 4.029,5.931 3.994,5.99 3.956,6.055 3.937,6.115 3.947,6.142 A 0.062,0.062 0 0 1 3.926,6.214 C 3.905,6.229 3.879,6.287 3.869,6.343 A 0.4,0.4 0 0 1 3.824,6.476 C 3.81,6.493 3.804,6.539 3.814,6.577 3.824,6.616 3.83,6.707 3.829,6.781 a 0.43,0.43 0 0 0 0.052,0.23 C 3.933,7.105 3.965,7.126 4.311,7.306 4.401,7.354 4.537,7.533 4.505,7.564 4.498,7.572 4.419,7.543 4.331,7.499 A 1.66,1.66 0 0 0 3.677,7.345 c -0.244,0 -0.484,0.15 -0.523,0.327 a 5.063,5.063 0 0 1 -0.08,0.27 C 2.989,8.212 3.004,8.292 3.177,8.484 3.345,8.671 3.46,8.748 3.654,8.802 L 3.808,8.845 3.756,8.902 C 3.664,8.999 3.571,9.269 3.557,9.475 3.547,9.645 3.551,9.675 3.604,9.752 3.678,9.858 3.812,9.932 3.93,9.932 3.979,9.931 4.124,9.903 4.252,9.87 4.471,9.812 4.566,9.81 4.63,9.859 4.659,9.881 4.774,9.856 4.865,9.807 4.959,9.757 5.416,9.771 5.629,9.831 5.992,9.934 6.222,9.968 6.57,9.973 c 0.216,0.003 0.426,0.022 0.564,0.05 l 0.219,0.046 0.062,-0.058 c 0.052,-0.05 0.07,-0.053 0.117,-0.028 0.03,0.016 0.077,0.024 0.103,0.017 0.026,-0.007 0.151,0.003 0.278,0.022 0.126,0.019 0.246,0.028 0.267,0.02 a 0.08,0.08 0 0 1 0.07,0.013 c 0.019,0.015 0.062,0.022 0.096,0.015 a 0.326,0.326 0 0 1 0.15,0.023 c 0.048,0.02 0.157,0.053 0.24,0.074 0.25,0.064 0.438,0.055 0.598,-0.026 0.175,-0.09 0.225,-0.174 0.23,-0.392 A 0.616,0.616 0 0 0 9.299,9.199 C 9.124,9.065 9.009,9.022 8.824,9.02 A 0.528,0.528 0 0 0 8.557,9.082 0.539,0.539 0 0 1 8.331,9.144 L 8.229,9.141 8.305,9.114 C 8.346,9.099 8.435,9.054 8.501,9.016 8.567,8.977 8.669,8.932 8.728,8.916 A 0.638,0.638 0 0 0 8.888,8.852 0.2,0.2 0 0 1 8.979,8.816 C 9.017,8.816 9.175,8.67 9.315,8.503 9.358,8.453 9.384,8.375 9.405,8.236 9.432,8.061 9.43,8.026 9.387,7.9 9.29,7.618 9.222,7.535 9.017,7.444 8.867,7.378 8.721,7.375 8.411,7.434 A 0.998,0.998 0 0 1 8.173,7.462 C 8.132,7.42 8.203,7.325 8.323,7.258 8.637,7.086 8.699,6.989 8.698,6.681 A 0.78,0.78 0 0 0 8.57,6.22 0.66,0.66 0 0 1 8.472,5.941 C 8.462,5.857 8.438,5.784 8.417,5.771 8.394,5.756 8.376,5.678 8.364,5.539 8.334,5.173 8.322,5.091 8.291,5.032 8.247,4.948 8.188,4.884 8.165,4.898 8.155,4.904 8.111,4.85 8.069,4.777 A 1.423,1.423 0 0 0 7.858,4.514 0.573,0.573 0 0 0 7.568,4.343 1.203,1.203 0 0 0 7.347,4.301 0.12,0.12 0 0 1 7.247,4.251 C 7.208,4.188 7.144,4.185 7.087,4.243 7.045,4.284 7.037,4.281 6.957,4.188 6.911,4.134 6.872,4.065 6.872,4.034 6.872,4.004 6.907,3.903 6.949,3.811 7.038,3.616 7.066,3.561 6.987,3.507 6.933,3.471 6.955,3.411 6.977,3.305 7.043,2.999 6.899,2.475 6.748,2.475 6.735,2.475 6.716,2.452 6.708,2.425 6.698,2.397 6.676,2.373 6.657,2.373 6.637,2.373 6.605,2.349 6.584,2.32 6.552,2.274 6.517,2.264 6.36,2.26 A 0.622,0.622 0 0 0 6.144,2.278 C 6.102,2.311 6.061,2.28 6.061,2.215 6.061,2.19 6.058,2.179 6.045,2.185 Z m -1.49,3.787 h 3.48 c 0.053,0 0.098,0.043 0.095,0.095 L 8.029,8.042 C 8.026,8.094 7.986,8.137 7.934,8.137 H 4.657 C 4.605,8.137 4.565,8.094 4.562,8.042 L 4.461,6.067 C 4.458,6.015 4.503,5.972 4.556,5.972 Z"
     id="path9"
     inkscape:connector-curvature="0"
     style="fill:#bde6fb;fill-opacity:1" />
  <path
     d="m 4.556,5.972 h 3.478 c 0.053,0 0.098,0.043 0.095,0.096 L 8.028,8.042 C 8.025,8.094 7.985,8.137 7.933,8.137 H 4.657 C 4.605,8.137 4.565,8.094 4.562,8.042 L 4.461,6.068 C 4.458,6.015 4.503,5.972 4.556,5.972 Z"
     id="path11"
     inkscape:connector-curvature="0"
     style="opacity:0.75;fill:#00ba96" />
</svg>
