<?xml version="1.0" encoding="UTF-8" standalone="no"?>
<svg
   width="47.538898"
   height="47.538898"
   viewBox="0 0 12.578 12.578"
   version="1.1"
   id="svg6"
   sodipodi:docname="cherrytree.svg"
   inkscape:version="0.92.5 (2060ec1f9f, 2020-04-08)"
   xmlns:inkscape="http://www.inkscape.org/namespaces/inkscape"
   xmlns:sodipodi="http://sodipodi.sourceforge.net/DTD/sodipodi-0.dtd"
   xmlns="http://www.w3.org/2000/svg"
   xmlns:svg="http://www.w3.org/2000/svg"
   xmlns:rdf="http://www.w3.org/1999/02/22-rdf-syntax-ns#"
   xmlns:cc="http://creativecommons.org/ns#"
   xmlns:dc="http://purl.org/dc/elements/1.1/">
  <metadata
     id="metadata12">
    <rdf:RDF>
      <cc:Work
         rdf:about="">
        <dc:format>image/svg+xml</dc:format>
        <dc:type
           rdf:resource="http://purl.org/dc/dcmitype/StillImage" />
        <dc:title />
      </cc:Work>
    </rdf:RDF>
  </metadata>
  <defs
     id="defs10" />
  <sodipodi:namedview
     pagecolor="#ffffff"
     bordercolor="#666666"
     borderopacity="1"
     objecttolerance="10"
     gridtolerance="10"
     guidetolerance="10"
     inkscape:pageopacity="0"
     inkscape:pageshadow="2"
     inkscape:window-width="1085"
     inkscape:window-height="480"
     id="namedview8"
     showgrid="false"
     inkscape:zoom="4.9166667"
     inkscape:cx="2.1355932"
     inkscape:cy="24"
     inkscape:window-x="0"
     inkscape:window-y="25"
     inkscape:window-maximized="0"
     inkscape:current-layer="svg6"
     inkscape:showpageshadow="0"
     inkscape:pagecheckerboard="0"
     inkscape:deskcolor="#d1d1d1" />
  <path
     d="M 3.801,4.81 C 3.133,4.79 2.581,5.125 2.262,5.842 1.808,6.862 1.965,8.232 3.012,8.67 3.577,9.093 4.3,9.043 4.933,8.731 5.151,9.498 5.666,10.135 6.458,10.246 7.6,10.713 8.807,9.771 9.275,8.629 9.801,7.347 9.097,6.362 7.62,5.963 6.989,5.793 6.427,5.787 5.974,5.941 A 2.979,2.979 0 0 0 5.101,5.221 c -0.458,-0.26 -0.9,-0.4 -1.3,-0.411 z"
     id="path2"
     inkscape:connector-curvature="0"
     style="opacity:0.75;fill:#ff0000" />
  <path
     d="M 6.289,0 A 6.29,6.29 0 0 0 0,6.289 6.29,6.29 0 0 0 6.289,12.578 6.29,6.29 0 0 0 12.578,6.289 6.29,6.29 0 0 0 6.289,0 Z M 6.271,0.936 A 5.407,5.407 0 0 1 11.678,6.343 5.407,5.407 0 0 1 6.271,11.75 5.407,5.407 0 0 1 0.864,6.343 5.407,5.407 0 0 1 6.271,0.936 Z m 2.766,1.42 -0.33,0.23 C 5.319,3.731 4.975,5.386 4.521,5.376 4.635,5.602 4.86,5.646 5.159,5.666 4.791,5.266 6.242,3.734 8.448,2.913 7.599,4.119 7.393,6.381 7.095,6.406 7.334,6.567 7.475,6.631 7.726,6.502 7.487,6.24 7.909,4.105 8.703,2.907 L 9.245,2.58 9.037,2.357 Z"
     id="path4"
     inkscape:connector-curvature="0"
     style="fill:#bde6fb;fill-opacity:1" />
</svg>
