<?xml version="1.0" encoding="UTF-8" standalone="no"?>
<svg
   width="47.542679"
   height="47.546455"
   viewBox="0 0 12.579 12.58"
   version="1.1"
   id="svg10"
   sodipodi:docname="chrome-store.svg"
   inkscape:version="0.92.5 (2060ec1f9f, 2020-04-08)"
   xmlns:inkscape="http://www.inkscape.org/namespaces/inkscape"
   xmlns:sodipodi="http://sodipodi.sourceforge.net/DTD/sodipodi-0.dtd"
   xmlns="http://www.w3.org/2000/svg"
   xmlns:svg="http://www.w3.org/2000/svg"
   xmlns:rdf="http://www.w3.org/1999/02/22-rdf-syntax-ns#"
   xmlns:cc="http://creativecommons.org/ns#"
   xmlns:dc="http://purl.org/dc/elements/1.1/">
  <metadata
     id="metadata16">
    <rdf:RDF>
      <cc:Work
         rdf:about="">
        <dc:format>image/svg+xml</dc:format>
        <dc:type
           rdf:resource="http://purl.org/dc/dcmitype/StillImage" />
        <dc:title />
      </cc:Work>
    </rdf:RDF>
  </metadata>
  <defs
     id="defs14" />
  <sodipodi:namedview
     pagecolor="#ffffff"
     bordercolor="#666666"
     borderopacity="1"
     objecttolerance="10"
     gridtolerance="10"
     guidetolerance="10"
     inkscape:pageopacity="0"
     inkscape:pageshadow="2"
     inkscape:window-width="1085"
     inkscape:window-height="480"
     id="namedview12"
     showgrid="false"
     inkscape:zoom="4.9166667"
     inkscape:cx="2.1355932"
     inkscape:cy="24"
     inkscape:window-x="0"
     inkscape:window-y="25"
     inkscape:window-maximized="0"
     inkscape:current-layer="svg10"
     inkscape:showpageshadow="0"
     inkscape:pagecheckerboard="0"
     inkscape:deskcolor="#d1d1d1" />
  <path
     d="M 6.285,0 A 6.295,6.295 0 0 0 0,6.285 6.295,6.295 0 0 0 6.285,12.58 6.295,6.295 0 0 0 12.579,6.285 6.295,6.295 0 0 0 6.285,0 Z M 6.274,0.94 a 5.408,5.408 0 0 1 5.397,5.387 5.407,5.407 0 0 1 -10.814,0 C 0.857,3.34 3.287,0.94 6.274,0.94 Z m 0.062,0.405 a 1.69,1.69 0 0 0 -1.67,1.69 v 0.56 h -1.1 a 0.61,0.61 0 0 0 -0.6,0.61 v 4.229 c 0.077,-0.166 0.143,-0.33 0.25,-0.5 V 7.933 L 3.219,7.929 C 3.222,7.924 3.277,7.824 3.394,7.676 3.511,7.528 3.689,7.331 3.934,7.133 A 3.7,3.7 0 0 1 4.884,6.577 3.95,3.95 0 0 1 5.525,6.381 c 0.233,-0.05 0.486,-0.083 0.76,-0.094 0,0 0.137,-0.006 0.36,0.019 0.223,0.025 0.532,0.081 0.877,0.206 a 3.745,3.745 0 0 1 1.63,1.149 c 0.17,0.207 0.33,0.445 0.475,0.72 H 9.621 c 0.002,0.003 0.052,0.105 0.095,0.2 V 4.205 a 0.61,0.61 0 0 0 -0.62,-0.61 h -1.07 v -0.56 a 1.69,1.69 0 0 0 -1.69,-1.69 z m 0.006,0.56 h 0.005 a 1.122,1.122 0 0 1 1.12,1.13 v 0.56 h -2.25 v -0.56 c 0,-0.628 0.497,-1.127 1.125,-1.13 z m -1.425,2.25 c 0.16,0 0.3,0.13 0.3,0.28 a 0.3,0.3 0 0 1 -0.3,0.29 0.28,0.28 0 0 1 -0.28,-0.29 c 0,-0.15 0.12,-0.28 0.28,-0.28 z m 2.81,0 c 0.16,0 0.3,0.13 0.3,0.28 a 0.3,0.3 0 0 1 -0.3,0.29 0.28,0.28 0 0 1 -0.28,-0.29 c 0,-0.15 0.12,-0.28 0.28,-0.28 z m -1.449,4.72 a 1.141,1.141 0 0 0 -1.142,1.14 h 2.282 a 1.141,1.141 0 0 0 -1.14,-1.14 z"
     id="path2"
     inkscape:connector-curvature="0"
     style="fill:#bde6fb;fill-opacity:1" />
  <path
     d="M 4.691,10.015 H 4.913 C 4.913,9.72 4.973,9.481 5.069,9.284 5.557,8.592 6.128,8.61 6.128,8.61 H 9.151 C 8.159,6.732 6.287,6.816 6.287,6.816 4.396,6.891 3.656,8.226 3.656,8.226 c 0,0 0.642,1.113 1.035,1.79 z"
     id="path4"
     inkscape:connector-curvature="0"
     style="opacity:0.9;fill:#e16b5a" />
  <path
     d="M 7.683,10.015 H 9.435 C 9.438,9.182 9.145,8.607 9.145,8.607 c 0,0 -2.469,-0.011 -2.948,-0.002 0.478,-0.018 0.907,0.087 1.325,0.694 0.134,0.288 0.162,0.52 0.16,0.717 z"
     id="path6"
     inkscape:connector-curvature="0"
     style="opacity:0.9;fill:#ffd464" />
  <path
     d="M 3.165,10.015 H 4.694 L 3.658,8.225 C 3.241,8.885 3.159,9.483 3.165,10.017 Z"
     id="path8"
     inkscape:connector-curvature="0"
     style="opacity:0.9;fill:#74b340" />
</svg>
