<?xml version="1.0" encoding="UTF-8" standalone="no"?>
<svg
   width="47.542679"
   height="47.546455"
   viewBox="0 0 12.579 12.58"
   version="1.1"
   id="svg6"
   sodipodi:docname="chromium-app-list.svg"
   inkscape:version="0.92.5 (2060ec1f9f, 2020-04-08)"
   xmlns:inkscape="http://www.inkscape.org/namespaces/inkscape"
   xmlns:sodipodi="http://sodipodi.sourceforge.net/DTD/sodipodi-0.dtd"
   xmlns="http://www.w3.org/2000/svg"
   xmlns:svg="http://www.w3.org/2000/svg"
   xmlns:rdf="http://www.w3.org/1999/02/22-rdf-syntax-ns#"
   xmlns:cc="http://creativecommons.org/ns#"
   xmlns:dc="http://purl.org/dc/elements/1.1/">
  <metadata
     id="metadata12">
    <rdf:RDF>
      <cc:Work
         rdf:about="">
        <dc:format>image/svg+xml</dc:format>
        <dc:type
           rdf:resource="http://purl.org/dc/dcmitype/StillImage" />
        <dc:title />
      </cc:Work>
    </rdf:RDF>
  </metadata>
  <defs
     id="defs10" />
  <sodipodi:namedview
     pagecolor="#ffffff"
     bordercolor="#666666"
     borderopacity="1"
     objecttolerance="10"
     gridtolerance="10"
     guidetolerance="10"
     inkscape:pageopacity="0"
     inkscape:pageshadow="2"
     inkscape:window-width="1085"
     inkscape:window-height="480"
     id="namedview8"
     showgrid="false"
     inkscape:zoom="4.9166667"
     inkscape:cx="2.1355932"
     inkscape:cy="24"
     inkscape:window-x="0"
     inkscape:window-y="25"
     inkscape:window-maximized="0"
     inkscape:current-layer="svg6"
     inkscape:showpageshadow="0"
     inkscape:pagecheckerboard="0"
     inkscape:deskcolor="#d1d1d1" />
  <path
     d="M 6.285,0 A 6.295,6.295 0 0 0 0,6.285 6.295,6.295 0 0 0 6.285,12.58 6.295,6.295 0 0 0 12.579,6.285 6.295,6.295 0 0 0 6.285,0 Z M 6.274,0.94 a 5.408,5.408 0 0 1 5.397,5.387 5.407,5.407 0 0 1 -10.814,0 C 0.857,3.34 3.287,0.94 6.274,0.94 Z"
     id="path2"
     inkscape:connector-curvature="0"
     style="fill:#bde6fb;fill-opacity:1" />
  <path
     d="m 6.273,1.732 c -2.549,0 -4.622,2.048 -4.622,4.597 a 4.613,4.613 0 0 0 9.226,0 A 4.614,4.614 0 0 0 6.273,1.732 Z M 4.26,3.629 A 0.61,0.61 0 0 1 4.87,4.24 0.61,0.61 0 0 1 4.26,4.85 0.61,0.61 0 0 1 3.65,4.24 0.61,0.61 0 0 1 4.26,3.63 Z m 2.035,0 A 0.61,0.61 0 0 1 6.905,4.24 0.61,0.61 0 0 1 6.295,4.85 0.61,0.61 0 0 1 5.685,4.24 0.61,0.61 0 0 1 6.295,3.63 Z m 2.035,0 A 0.61,0.61 0 0 1 8.94,4.24 0.61,0.61 0 0 1 8.33,4.85 0.61,0.61 0 0 1 7.72,4.24 0.61,0.61 0 0 1 8.33,3.63 Z M 4.26,5.665 A 0.61,0.61 0 0 1 4.87,6.276 0.61,0.61 0 0 1 4.26,6.886 0.61,0.61 0 0 1 3.65,6.276 0.61,0.61 0 0 1 4.26,5.666 Z m 2.035,0 a 0.61,0.61 0 0 1 0.61,0.611 0.61,0.61 0 0 1 -0.61,0.61 0.61,0.61 0 0 1 -0.61,-0.61 0.61,0.61 0 0 1 0.61,-0.61 z m 2.035,0 A 0.61,0.61 0 0 1 8.94,6.276 0.61,0.61 0 0 1 8.33,6.886 0.61,0.61 0 0 1 7.72,6.276 0.61,0.61 0 0 1 8.33,5.666 Z M 4.26,7.701 a 0.61,0.61 0 0 1 0.61,0.61 0.61,0.61 0 0 1 -0.61,0.61 0.61,0.61 0 0 1 -0.61,-0.61 0.61,0.61 0 0 1 0.61,-0.61 z m 2.035,0 a 0.61,0.61 0 0 1 0.61,0.61 0.61,0.61 0 0 1 -0.61,0.61 0.61,0.61 0 0 1 -0.61,-0.61 0.61,0.61 0 0 1 0.61,-0.61 z m 2.035,0 a 0.61,0.61 0 0 1 0.61,0.61 0.61,0.61 0 0 1 -0.61,0.61 0.61,0.61 0 0 1 -0.61,-0.61 0.61,0.61 0 0 1 0.61,-0.61 z"
     id="path4"
     inkscape:connector-curvature="0"
     style="opacity:0.8;fill:#008080" />
</svg>
