<?xml version="1.0" encoding="UTF-8" standalone="no"?>
<svg
   width="47.542679"
   height="47.546455"
   viewBox="0 0 12.579 12.58"
   version="1.1"
   id="svg8"
   sodipodi:docname="cisco-anyconnect.svg"
   inkscape:version="0.92.5 (2060ec1f9f, 2020-04-08)"
   xmlns:inkscape="http://www.inkscape.org/namespaces/inkscape"
   xmlns:sodipodi="http://sodipodi.sourceforge.net/DTD/sodipodi-0.dtd"
   xmlns="http://www.w3.org/2000/svg"
   xmlns:svg="http://www.w3.org/2000/svg"
   xmlns:rdf="http://www.w3.org/1999/02/22-rdf-syntax-ns#"
   xmlns:cc="http://creativecommons.org/ns#"
   xmlns:dc="http://purl.org/dc/elements/1.1/">
  <metadata
     id="metadata14">
    <rdf:RDF>
      <cc:Work
         rdf:about="">
        <dc:format>image/svg+xml</dc:format>
        <dc:type
           rdf:resource="http://purl.org/dc/dcmitype/StillImage" />
        <dc:title />
      </cc:Work>
    </rdf:RDF>
  </metadata>
  <defs
     id="defs12" />
  <sodipodi:namedview
     pagecolor="#ffffff"
     bordercolor="#666666"
     borderopacity="1"
     objecttolerance="10"
     gridtolerance="10"
     guidetolerance="10"
     inkscape:pageopacity="0"
     inkscape:pageshadow="2"
     inkscape:window-width="1085"
     inkscape:window-height="480"
     id="namedview10"
     showgrid="false"
     inkscape:zoom="4.9166667"
     inkscape:cx="2.1355932"
     inkscape:cy="24"
     inkscape:window-x="0"
     inkscape:window-y="25"
     inkscape:window-maximized="0"
     inkscape:current-layer="svg8"
     inkscape:showpageshadow="0"
     inkscape:pagecheckerboard="0"
     inkscape:deskcolor="#d1d1d1" />
  <path
     d="M 4.644,2.504 A 5.458,5.458 0 0 0 1.684,3.383 5.439,5.439 0 0 0 0.897,7.219 3.82,3.82 0 0 1 4.645,4.141 3.82,3.82 0 0 1 4.677,4.143 5.458,5.458 0 0 1 4.729,3.737 5.458,5.458 0 0 1 4.851,3.205 5.458,5.458 0 0 1 5.025,2.688 5.458,5.458 0 0 1 5.099,2.526 5.458,5.458 0 0 0 4.645,2.504 Z M 6.719,2.918 A 3.82,3.82 0 0 0 6.583,3.199 3.82,3.82 0 0 0 6.453,3.558 3.82,3.82 0 0 0 6.358,3.928 3.82,3.82 0 0 0 6.301,4.306 3.82,3.82 0 0 0 6.29,4.519 3.82,3.82 0 0 1 8.464,7.962 3.82,3.82 0 0 1 8.456,8.129 3.82,3.82 0 0 0 8.614,8.206 3.82,3.82 0 0 0 8.973,8.336 3.82,3.82 0 0 0 9.343,8.431 3.82,3.82 0 0 0 9.721,8.488 3.82,3.82 0 0 0 10.069,8.506 5.458,5.458 0 0 0 10.102,7.962 5.458,5.458 0 0 0 6.719,2.918 Z M 8.025,9.73 A 3.82,3.82 0 0 1 5.379,11.707 5.44,5.44 0 0 0 9.233,10.915 5.458,5.458 0 0 0 9.648,10.123 5.458,5.458 0 0 1 9.173,10.065 5.458,5.458 0 0 1 8.641,9.945 5.458,5.458 0 0 1 8.123,9.773 5.458,5.458 0 0 1 8.025,9.73 Z"
     id="path2"
     inkscape:connector-curvature="0"
     style="opacity:0.8;fill:#318bcf" />
  <path
     d="M 6.281,0.866 C 6.255,0.866 6.23,0.868 6.204,0.869 A 5.458,5.458 0 0 0 4.645,4.687 5.458,5.458 0 0 0 10.103,10.145 5.458,5.458 0 0 0 10.187,10.14 5.436,5.436 0 0 0 11.374,8.286 3.82,3.82 0 0 1 10.103,8.507 3.82,3.82 0 0 1 6.283,4.687 3.82,3.82 0 0 1 8.373,1.281 5.463,5.463 0 0 0 6.283,0.865 Z"
     id="path4"
     inkscape:connector-curvature="0"
     style="opacity:0.8;fill:#7bc450" />
  <path
     d="M 6.285,0 A 6.295,6.295 0 0 0 0,6.285 6.295,6.295 0 0 0 6.285,12.58 6.295,6.295 0 0 0 12.579,6.285 6.295,6.295 0 0 0 6.285,0 Z m -0.01,0.94 a 5.408,5.408 0 0 1 5.396,5.387 5.407,5.407 0 1 1 -10.814,0 C 0.857,3.34 3.287,0.94 6.274,0.94 Z"
     id="path6"
     inkscape:connector-curvature="0"
     style="fill:#bde6fb;fill-opacity:1" />
</svg>
