<?xml version="1.0" encoding="UTF-8" standalone="no"?>
<svg
   width="47.542679"
   height="47.546455"
   viewBox="0 0 12.579 12.58"
   version="1.1"
   id="svg4"
   sodipodi:docname="clang.svg"
   inkscape:version="0.92.5 (2060ec1f9f, 2020-04-08)"
   xmlns:inkscape="http://www.inkscape.org/namespaces/inkscape"
   xmlns:sodipodi="http://sodipodi.sourceforge.net/DTD/sodipodi-0.dtd"
   xmlns="http://www.w3.org/2000/svg"
   xmlns:svg="http://www.w3.org/2000/svg"
   xmlns:rdf="http://www.w3.org/1999/02/22-rdf-syntax-ns#"
   xmlns:cc="http://creativecommons.org/ns#"
   xmlns:dc="http://purl.org/dc/elements/1.1/">
  <metadata
     id="metadata10">
    <rdf:RDF>
      <cc:Work
         rdf:about="">
        <dc:format>image/svg+xml</dc:format>
        <dc:type
           rdf:resource="http://purl.org/dc/dcmitype/StillImage" />
        <dc:title />
      </cc:Work>
    </rdf:RDF>
  </metadata>
  <defs
     id="defs8" />
  <sodipodi:namedview
     pagecolor="#ffffff"
     bordercolor="#666666"
     borderopacity="1"
     objecttolerance="10"
     gridtolerance="10"
     guidetolerance="10"
     inkscape:pageopacity="0"
     inkscape:pageshadow="2"
     inkscape:window-width="1085"
     inkscape:window-height="480"
     id="namedview6"
     showgrid="false"
     inkscape:zoom="4.9166667"
     inkscape:cx="2.1355932"
     inkscape:cy="24"
     inkscape:window-x="0"
     inkscape:window-y="25"
     inkscape:window-maximized="0"
     inkscape:current-layer="svg4"
     inkscape:showpageshadow="0"
     inkscape:pagecheckerboard="0"
     inkscape:deskcolor="#d1d1d1" />
  <path
     d="M 6.285,0 A 6.295,6.295 0 0 0 2.579,1.222 c 0.288,0.23 0.531,0.434 0.72,0.607 A 5.414,5.414 0 0 1 6.274,0.939 5.408,5.408 0 0 1 9.406,1.952 C 9.428,1.865 9.438,1.788 9.543,1.604 9.603,1.499 9.789,1.289 9.893,1.146 A 6.295,6.295 0 0 0 6.285,0 Z M 10.86,1.006 C 9.972,1.996 9.838,2.442 9.824,2.597 a 0.145,0.155 0 0 0 -0.11,0.15 0.145,0.155 0 0 0 0.098,0.147 c 0.02,0.19 0.042,0.588 0.036,1.138 A 4.088,4.088 0 0 1 9.621,5.308 C 9.613,5.304 9.606,5.3 9.601,5.301 9.574,5.303 9.459,5.497 9.423,5.582 A 0.171,0.171 0 0 0 9.425,5.729 3.534,3.534 0 0 1 9.422,5.734 0.072,0.072 0 0 0 9.409,5.768 3.534,3.534 0 0 1 9.192,6.188 0.112,0.112 0 0 0 9.182,6.181 0.083,0.083 0 0 0 9.123,6.193 C 9.099,6.212 9.045,6.293 8.866,6.383 A 0.703,0.703 0 0 1 8.7,6.443 C 8.757,6.153 8.804,5.817 8.826,5.426 A 2.634,2.634 0 0 0 8.796,4.825 L 8.797,4.817 8.795,4.821 A 2.13,2.13 0 0 0 8.631,4.288 V 4.285 4.286 C 8.323,3.621 7.715,3.283 7.201,3.266 H 7.135 L 7.136,3.254 C 7.147,3.204 7.149,3.188 7.091,3.237 A 0.449,0.449 0 0 0 7.06,3.267 1.972,1.972 0 0 0 6.987,3.272 0.331,0.331 0 0 1 6.985,3.212 C 6.987,3.174 6.997,3.148 6.94,3.197 A 0.266,0.266 0 0 0 6.865,3.287 L 6.825,3.294 C 6.816,3.273 6.796,3.24 6.799,3.211 6.804,3.15 6.822,3.139 6.78,3.178 A 0.436,0.436 0 0 0 6.666,3.332 L 6.65,3.338 6.617,3.348 C 6.609,3.339 6.579,3.313 6.572,3.256 6.565,3.198 6.566,3.169 6.532,3.229 A 0.59,0.59 0 0 0 6.463,3.41 1.336,1.336 0 0 0 6.416,3.433 0.139,0.139 0 0 1 6.386,3.343 C 6.384,3.269 6.408,3.209 6.352,3.309 A 0.84,0.84 0 0 0 6.276,3.519 1.182,1.182 0 0 0 6.222,3.559 1.26,1.26 0 0 1 6.218,3.471 C 6.216,3.399 6.228,3.319 6.182,3.459 A 0.99,0.99 0 0 0 6.147,3.626 1.079,1.079 0 0 0 5.813,4.438 v 0.008 c 0,0.055 0.003,0.107 0.008,0.156 C 5.831,4.729 5.85,4.835 5.876,4.924 5.827,4.991 5.823,5.28 5.871,5.347 5.908,5.399 6.113,5.52 6.167,5.549 A 0.195,0.195 0 0 1 6.225,5.606 C 6.282,5.705 6.281,5.896 6.237,5.995 6.181,6.118 6.292,6.142 6.384,6.161 A 0.335,0.335 0 0 0 6.57,6.141 L 6.577,6.138 C 6.599,6.128 6.616,6.114 6.623,6.099 6.648,6.05 6.543,5.939 6.5,5.713 6.457,5.486 6.568,5.468 6.568,5.468 c 0,0 0.049,0.012 0.122,0.129 0.057,0.09 0.117,0.161 0.173,0.212 A 0.368,0.368 0 0 1 6.76,5.899 0.313,0.313 0 0 0 6.917,5.854 0.393,0.393 0 0 0 6.953,5.877 0.512,0.512 0 0 1 6.928,5.903 0.262,0.262 0 0 0 6.983,5.892 c 0.014,0.005 0.028,0.009 0.04,0.01 A 0.007,0.007 0 0 0 7.028,5.904 L 7.034,5.903 C 7.118,5.9 7.322,5.712 7.322,5.676 7.322,5.662 7.307,5.646 7.284,5.626 L 7.214,5.568 A 0.577,0.577 0 0 1 7.138,5.492 C 7.065,5.4 7.064,5.278 7.064,5.278 L 7.073,5.268 V 5.269 L 7.074,5.265 C 7.101,5.225 7.154,5.07 6.831,4.707 A 1.569,1.569 0 0 0 6.354,4.343 C 6.333,4.1 6.431,3.873 6.674,3.76 H 6.676 A 0.967,0.967 0 0 1 7.132,3.688 C 7.501,3.707 7.781,3.884 7.973,4.15 8.226,4.518 8.333,5.058 8.25,5.601 8.217,5.634 8.223,5.639 8.244,5.64 A 2.423,2.423 0 0 1 8.216,5.781 L 8.202,5.789 c -0.064,0.038 -0.037,0.037 0,0.047 L 8.199,5.846 C 8.189,5.879 8.177,5.913 8.165,5.946 A 0.47,0.47 0 0 0 8.12,5.961 C 8.05,5.989 8.078,5.992 8.114,6.008 L 8.136,6.02 A 2.992,2.992 0 0 1 8.084,6.143 0.427,0.427 0 0 0 8.042,6.152 C 7.969,6.17 7.997,6.177 8.03,6.198 8.038,6.202 8.045,6.208 8.051,6.212 A 3.458,3.458 0 0 1 7.995,6.323 0.417,0.417 0 0 0 7.917,6.335 C 7.843,6.355 7.871,6.361 7.904,6.381 A 0.337,0.337 0 0 1 7.947,6.412 L 7.903,6.487 7.885,6.517 A 0.311,0.311 0 0 0 7.779,6.528 C 7.705,6.548 7.733,6.554 7.766,6.574 A 0.35,0.35 0 0 1 7.821,6.616 4.57,4.57 0 0 1 7.755,6.71 0.267,0.267 0 0 0 7.637,6.707 C 7.562,6.717 7.588,6.727 7.619,6.751 7.654,6.779 7.671,6.802 7.68,6.812 L 7.648,6.855 C 7.625,6.825 7.571,6.792 7.521,6.756 A 0.437,0.437 0 0 0 7.371,6.689 C 7.346,6.689 7.269,6.828 6.845,6.791 6.422,6.754 6.395,6.713 6.359,6.713 c -0.036,0 -0.116,0.03 -0.118,0.03 A 4.317,4.317 0 0 1 5.349,6.05 c 0,0 0.057,-0.064 -0.024,-0.146 A 1.993,1.993 0 0 0 5.028,5.679 3.684,3.684 0 0 1 4.663,5.012 C 4.417,4.46 4.397,4.078 4.409,3.912 A 0.213,0.213 0 0 0 4.49,3.744 0.213,0.213 0 0 0 4.306,3.534 C 4.198,3.309 3.786,2.752 2.217,1.569 3.745,2.878 4.043,3.39 4.121,3.603 A 0.213,0.213 0 0 0 4.108,3.62 9.661,9.661 0 0 0 3.175,2.968 c -0.67,-0.4 -0.973,-0.45 -0.973,-0.45 0,0 0.106,0.099 0.09,0.148 C 2.275,2.715 1.599,2.569 0.89,3.042 0.215,3.492 0.092,3.811 0.092,3.811 c 0,0 0.284,-0.397 0.816,-0.675 -0.007,0.175 -0.024,1.018 0.23,2.13 0.275,1.201 0.794,2.323 0.835,2.412 0.003,0.09 0.008,0.14 0.008,0.14 0,0 0.077,-0.924 0.39,-1.885 0.09,0.146 0.392,0.578 1.074,1.084 0.842,0.626 1.226,0.794 1.24,0.8 L 4.688,7.94 c 0,0 0.003,-0.058 0.01,-0.135 C 4.721,7.77 4.852,7.582 4.982,7.458 5.134,7.314 5.246,7.244 5.262,7.234 5.278,7.29 5.294,7.338 5.31,7.376 A 5.947,5.947 0 0 1 5.283,7.23 C 5.339,7.235 5.561,7.265 5.906,7.434 6.084,7.521 6.221,7.638 6.319,7.742 A 2.697,2.697 0 0 0 6.311,7.745 c 0,0 0.065,0.057 0.14,0.207 A 1.25,1.25 0 0 0 6.073,7.996 1.492,1.492 0 0 0 6.023,7.899 0.248,0.248 0 0 0 6.003,7.829 C 5.988,7.796 5.952,7.777 5.916,7.756 A 0.207,0.207 0 0 0 5.864,7.718 0.117,0.117 0 0 1 5.835,7.681 C 5.792,7.586 5.422,7.687 5.348,7.774 5.258,7.88 5.24,8.014 5.276,8.088 5.287,8.112 5.313,8.131 5.347,8.145 5.348,8.26 5.418,8.533 5.556,8.73 A 2.6,2.6 0 0 1 5.501,8.389 0.76,0.76 0 0 1 5.508,8.204 c 0.024,0.17 0.09,0.353 0.296,0.58 L 5.807,8.787 5.805,8.784 5.807,8.785 A 1.005,1.005 0 0 1 5.705,8.199 L 5.711,8.172 h 0.002 c 0.02,0.135 0.074,0.275 0.25,0.497 L 5.957,8.657 5.962,8.667 A 0.84,0.84 0 0 1 5.869,8.187 L 5.876,8.134 5.88,8.132 A 0.265,0.265 0 0 1 5.95,8.198 C 6.016,8.287 6.047,8.379 6.06,8.442 A 0.227,0.275 23.56 0 0 6.093,8.639 C 5.964,8.734 5.838,8.822 5.713,8.904 L 5.695,8.916 A 10.193,10.193 0 0 1 5.392,9.105 L 5.376,9.115 5.345,9.132 A 7.004,7.004 0 0 1 5.115,9.26 L 5.045,9.22 H 5.048 L 5.043,9.218 C 4.543,8.93 4.17,8.737 3.743,8.66 3.261,8.573 2.818,8.806 2.717,9.219 A 0.67,0.67 0 0 0 3.061,9.968 L 3.074,9.975 3.096,9.986 3.122,10 3.137,10.006 c 0.015,0.007 0.03,0.014 0.047,0.02 l 0.003,10e-4 0.052,0.019 H 3.24 a 1.181,1.181 0 0 0 0.14,0.037 l 0.014,0.003 c 0.078,0.015 0.162,0.026 0.255,0.03 0.504,0.025 1.114,-0.21 1.717,-0.507 l 0.159,0.085 c 1.316,0.726 2.118,0.82 3.18,0.377 a 3.925,3.925 0 0 1 -0.718,0.16 0.035,0.035 0 0 0 -0.001,0 c -0.113,0.013 -0.234,0.02 -0.362,0.018 A 0.026,0.026 0 0 0 7.612,10.245 l 0.001,0.004 A 2.863,2.863 0 0 1 7.278,10.224 C 7.273,10.222 7.268,10.222 7.263,10.222 V 10.22 A 0.138,0.138 0 0 0 7.261,10.222 3.284,3.284 0 0 1 6.458,9.995 4.079,4.079 0 0 1 6.073,9.809 C 5.883,9.704 5.713,9.607 5.553,9.515 5.762,9.408 5.968,9.295 6.167,9.187 6.304,9.114 6.429,9.046 6.531,8.989 L 6.563,8.972 6.566,8.971 A 0.006,0.006 0 0 1 6.569,8.97 L 6.649,8.95 C 6.737,8.922 6.861,8.872 7.008,8.803 7.022,8.863 7.056,8.915 7.108,8.935 7.23,8.982 7.319,8.948 7.378,8.881 A 0.073,0.073 0 0 0 7.388,8.876 L 7.414,8.856 C 7.44,8.841 7.467,8.823 7.492,8.811 A 0.588,0.588 0 0 1 7.579,8.781 L 7.597,8.776 C 7.522,8.929 7.55,9.076 7.55,9.076 7.572,8.883 7.664,8.761 7.753,8.706 A 0.675,0.675 0 0 1 7.857,8.671 c 0.032,0 0.059,0.012 0.074,0.036 0.036,0.062 0.112,0.1 0.188,0.117 C 8.131,8.902 8.096,9.032 7.914,9.27 8.049,9.18 8.139,9.097 8.196,9.022 A 0.455,0.455 0 0 0 8.269,8.896 C 8.275,8.999 8.247,9.156 8.109,9.43 L 8.117,9.423 C 8.144,9.399 8.264,9.286 8.354,9.137 L 8.366,9.119 C 8.366,9.116 8.369,9.114 8.37,9.112 L 8.373,9.105 C 8.377,9.204 8.368,9.335 8.341,9.511 8.518,9.166 8.509,8.954 8.465,8.829 A 0.301,0.301 0 0 0 8.459,8.807 0.332,0.332 0 0 0 8.454,8.774 L 8.476,8.744 C 8.537,8.658 8.451,8.566 8.396,8.53 8.366,8.51 8.293,8.45 8.162,8.449 8.046,8.309 7.899,8.371 7.666,8.523 A 0.668,0.668 0 0 1 7.581,8.571 0.365,0.365 0 0 0 7.552,8.511 C 7.636,8.461 7.721,8.408 7.808,8.351 7.97,8.245 8.091,8.138 8.181,8.036 8.446,7.768 8.54,7.508 8.809,7.286 L 8.803,7.288 8.833,7.271 C 9.276,7.034 9.51,6.988 9.526,6.985 L 9.524,7.051 9.534,6.987 a 0.928,0.928 0 0 1 0.249,0.177 1.096,1.096 0 0 1 0.186,0.251 l 0.023,0.157 c 0,0 0,-0.06 -0.005,-0.171 0.079,-0.079 0.527,-0.54 0.891,-1.276 a 5.9,5.9 0 0 0 0.526,-1.511 c 0.235,0.673 0.343,1.275 0.343,1.275 0,0 0,-0.069 -0.015,-0.194 0.05,-0.175 0.266,-0.968 0.324,-1.941 0.052,-0.876 -0.034,-1.442 -0.072,-1.641 0.335,0.278 0.513,0.676 0.513,0.676 0,0 -0.077,-0.32 -0.5,-0.769 -0.445,-0.473 -0.87,-0.327 -0.88,-0.376 -0.01,-0.05 0.056,-0.147 0.056,-0.147 0,0 -0.19,0.049 -0.611,0.45 -0.27,0.257 -0.5,0.533 -0.615,0.677 A 0.145,0.155 0 0 0 9.935,2.615 C 9.975,2.445 10.12,2.04 10.86,1.006 Z M 0.338,4.283 A 6.295,6.295 0 0 0 0,6.285 6.295,6.295 0 0 0 6.285,12.58 6.295,6.295 0 0 0 12.579,6.285 6.295,6.295 0 0 0 12.431,4.954 c -0.07,0.264 -0.171,0.594 -0.33,0.99 -0.15,0.37 -0.31,0.668 -0.46,0.943 A 5.407,5.407 0 0 1 0.861,6.467 C 0.728,6.093 0.588,5.711 0.487,5.267 0.398,4.88 0.373,4.587 0.338,4.283 Z m 5.78,3.816 a 0.943,0.943 0 0 1 0.157,0.1 0.227,0.275 23.56 0 0 -0.002,0 H 6.272 A 0.227,0.275 23.56 0 0 6.192,8.235 0.493,0.493 0 0 1 6.127,8.119 L 6.119,8.099 Z M 3.608,8.91 c 0.08,0 0.168,0.01 0.264,0.034 L 3.895,8.95 3.906,8.953 A 1.911,1.911 0 0 1 4.055,9.003 11.01,11.01 0 0 1 4.899,9.37 C 4.787,9.424 4.683,9.47 4.605,9.503 4.079,9.72 3.655,9.783 3.392,9.707 2.904,9.568 2.999,8.913 3.609,8.91 Z"
     id="path2"
     inkscape:connector-curvature="0"
     style="fill:#bde6fb;fill-opacity:1" />
</svg>
