<?xml version="1.0" encoding="UTF-8" standalone="no"?>
<svg
   width="47.546455"
   height="47.546455"
   viewBox="0 0 12.58 12.58"
   version="1.1"
   id="svg6"
   sodipodi:docname="clementine.svg"
   inkscape:version="0.92.4 (5da689c313, 2019-01-14)"
   xmlns:inkscape="http://www.inkscape.org/namespaces/inkscape"
   xmlns:sodipodi="http://sodipodi.sourceforge.net/DTD/sodipodi-0.dtd"
   xmlns="http://www.w3.org/2000/svg"
   xmlns:svg="http://www.w3.org/2000/svg"
   xmlns:rdf="http://www.w3.org/1999/02/22-rdf-syntax-ns#"
   xmlns:cc="http://creativecommons.org/ns#"
   xmlns:dc="http://purl.org/dc/elements/1.1/">
  <metadata
     id="metadata12">
    <rdf:RDF>
      <cc:Work
         rdf:about="">
        <dc:format>image/svg+xml</dc:format>
        <dc:type
           rdf:resource="http://purl.org/dc/dcmitype/StillImage" />
        <dc:title />
      </cc:Work>
    </rdf:RDF>
  </metadata>
  <defs
     id="defs10" />
  <sodipodi:namedview
     pagecolor="#ffffff"
     bordercolor="#666666"
     borderopacity="1"
     objecttolerance="10"
     gridtolerance="10"
     guidetolerance="10"
     inkscape:pageopacity="0"
     inkscape:pageshadow="2"
     inkscape:window-width="1087"
     inkscape:window-height="480"
     id="namedview8"
     showgrid="false"
     inkscape:zoom="4.9166667"
     inkscape:cx="2.1355932"
     inkscape:cy="24"
     inkscape:window-x="0"
     inkscape:window-y="25"
     inkscape:window-maximized="0"
     inkscape:current-layer="svg6"
     inkscape:showpageshadow="0"
     inkscape:pagecheckerboard="0"
     inkscape:deskcolor="#d1d1d1" />
  <path
     d="m 6.29,1.792 c -0.844,0 -1.406,0.562 -1.406,0.562 0,0 0.335,1.14 0.562,1.687 0.241,0.58 0.844,1.687 0.844,1.687 0,0 0.602,-1.106 0.843,-1.687 0.227,-0.548 0.562,-1.687 0.562,-1.687 0,0 -0.562,-0.562 -1.405,-0.562 m -1.789,0.72 c 0,0 -0.796,0 -1.392,0.597 -0.596,0.596 -0.596,1.392 -0.596,1.392 0,0 1.043,0.568 1.59,0.795 0.581,0.24 1.79,0.596 1.79,0.596 0,0 -0.356,-1.208 -0.597,-1.789 C 5.069,3.556 4.501,2.513 4.501,2.513 m 3.578,0 c 0,0 -0.568,1.043 -0.795,1.59 -0.24,0.581 -0.596,1.79 -0.596,1.79 0,0 1.207,-0.356 1.788,-0.597 0.548,-0.227 1.59,-0.795 1.59,-0.795 0,0 0,-0.796 -0.595,-1.392 C 8.874,2.513 8.079,2.513 8.079,2.513 M 2.354,4.884 c 0,0 -0.562,0.563 -0.562,1.406 0,0.843 0.562,1.406 0.562,1.406 0,0 1.14,-0.336 1.687,-0.563 C 4.621,6.893 5.728,6.29 5.728,6.29 5.728,6.29 4.622,5.687 4.04,5.447 3.492,5.22 2.353,4.884 2.353,4.884 m 7.872,0 c 0,0 -1.14,0.336 -1.687,0.563 -0.58,0.24 -1.687,0.843 -1.687,0.843 0,0 1.106,0.603 1.687,0.843 0.548,0.227 1.687,0.563 1.687,0.563 0,0 0.562,-0.563 0.562,-1.406 0,-0.843 -0.562,-1.406 -0.562,-1.406 M 5.892,6.687 c 0,0 -1.207,0.356 -1.788,0.597 -0.548,0.227 -1.59,0.795 -1.59,0.795 0,0 0,0.795 0.595,1.392 0.597,0.596 1.392,0.596 1.392,0.596 0,0 0.568,-1.043 0.795,-1.59 0.24,-0.582 0.596,-1.79 0.596,-1.79 m 0.796,0 c 0,0 0.355,1.208 0.596,1.79 0.227,0.547 0.795,1.59 0.795,1.59 0,0 0.795,0 1.392,-0.596 0.596,-0.597 0.596,-1.392 0.596,-1.392 0,0 -1.043,-0.568 -1.59,-0.795 C 7.895,7.044 6.687,6.688 6.687,6.688 M 6.29,6.852 c 0,0 -0.603,1.106 -0.843,1.688 -0.227,0.548 -0.563,1.687 -0.563,1.687 0,0 0.563,0.562 1.406,0.562 0.843,0 1.406,-0.562 1.406,-0.562 0,0 -0.336,-1.14 -0.563,-1.687 C 6.893,7.96 6.29,6.853 6.29,6.853"
     id="path2"
     inkscape:connector-curvature="0"
     style="opacity:0.75;fill:#aa4400" />
  <path
     d="M 6.29,0 A 6.29,6.29 0 0 0 0,6.29 6.29,6.29 0 0 0 6.29,12.58 6.29,6.29 0 0 0 12.58,6.29 6.29,6.29 0 0 0 6.29,0 Z M 6.272,0.937 A 5.407,5.407 0 0 1 11.679,6.344 5.407,5.407 0 0 1 6.272,11.751 5.407,5.407 0 0 1 0.865,6.344 5.407,5.407 0 0 1 6.272,0.937 Z"
     id="path4"
     inkscape:connector-curvature="0"
     style="fill:#bde6fb;fill-opacity:1" />
</svg>
