<?xml version="1.0" encoding="UTF-8" standalone="no"?>
<svg
   width="48"
   height="48"
   viewBox="0 0 12.7 12.7"
   version="1.1"
   id="svg4"
   sodipodi:docname="clion.svg"
   inkscape:version="0.92.5 (2060ec1f9f, 2020-04-08)"
   xmlns:inkscape="http://www.inkscape.org/namespaces/inkscape"
   xmlns:sodipodi="http://sodipodi.sourceforge.net/DTD/sodipodi-0.dtd"
   xmlns="http://www.w3.org/2000/svg"
   xmlns:svg="http://www.w3.org/2000/svg">
  <sodipodi:namedview
     id="namedview1"
     pagecolor="#505050"
     bordercolor="#eeeeee"
     borderopacity="1"
     inkscape:showpageshadow="0"
     inkscape:pageopacity="0"
     inkscape:pagecheckerboard="0"
     inkscape:deskcolor="#d1d1d1" />
  <defs
     id="defs8">
    <style
       id="current-color-scheme"
       type="text/css">&#10;      .ColorScheme-Highlight {&#10;        color:#1e3f5a;&#10;      }&#10;  </style>
  </defs>
  <path
     class="ColorScheme-Highlight"
     style="fill:#bde6fb;fill-opacity:1;stroke-width:0.264583"
     d="M 6.3499999,0 A 6.3499999,6.3499999 0 0 0 0,6.3499999 6.3499999,6.3499999 0 0 0 6.3499999,12.7 6.3499999,6.3499999 0 0 0 12.7,6.3499999 6.3499999,6.3499999 0 0 0 6.3499999,0 Z m 0,0.79374999 A 5.5562499,5.5562499 0 0 1 11.90625,6.3499999 5.5562499,5.5562499 0 0 1 6.3499999,11.90625 5.5562499,5.5562499 0 0 1 0.79374999,6.3499999 5.5562499,5.5562499 0 0 1 6.3499999,0.79374999 Z m 0,1.05833331 A 4.4979182,4.4979182 0 0 0 1.8520833,6.3499999 4.4979182,4.4979182 0 0 0 6.3499999,10.847917 4.4979182,4.4979182 0 0 0 10.847917,6.3499999 4.4979182,4.4979182 0 0 0 6.3499999,1.8520833 Z m -1.05885,3.1646648 c 0.3685645,0 0.7010505,0.1506223 0.9410279,0.3937744 L 5.8590738,5.7856934 C 5.7151404,5.6377916 5.513929,5.5453978 5.2911499,5.5453978 c -0.4384146,0 -0.79375,0.3553354 -0.79375,0.79375 0,0.4384145 0.3553354,0.79375 0.79375,0.79375 0.2156354,0 0.4108317,-0.086643 0.5539713,-0.2263426 l 0.374654,0.3736205 C 5.980857,7.516184 5.6533644,7.6625812 5.2911499,7.6625814 4.5606353,7.6625812 3.9682332,7.0701788 3.9682332,6.3396648 c 0,-0.7305151 0.5924021,-1.3229169 1.3229167,-1.3229167 z m 1.5880167,0.010335 H 7.4083332 V 7.1437499 H 8.7312499 V 7.6729166 H 7.4083332 6.8791666 V 7.1437499 Z m -2.38125,3.4395833 H 8.2020832 V 8.9958332 H 4.4979166 Z"
     id="path843" />
</svg>
