<?xml version="1.0" encoding="UTF-8" standalone="no"?>
<svg
   width="48"
   height="48"
   viewBox="0 0 12.7 12.7"
   version="1.1"
   id="svg4"
   sodipodi:docname="cockos-reaper.svg"
   inkscape:version="0.92.5 (2060ec1f9f, 2020-04-08)"
   xmlns:inkscape="http://www.inkscape.org/namespaces/inkscape"
   xmlns:sodipodi="http://sodipodi.sourceforge.net/DTD/sodipodi-0.dtd"
   xmlns="http://www.w3.org/2000/svg"
   xmlns:svg="http://www.w3.org/2000/svg">
  <sodipodi:namedview
     id="namedview1"
     pagecolor="#505050"
     bordercolor="#eeeeee"
     borderopacity="1"
     inkscape:showpageshadow="0"
     inkscape:pageopacity="0"
     inkscape:pagecheckerboard="0"
     inkscape:deskcolor="#d1d1d1" />
  <defs
     id="defs8">
    <style
       id="current-color-scheme"
       type="text/css">&#10;      .ColorScheme-Highlight {&#10;        color:#1e3f5a;&#10;      }&#10;  </style>
  </defs>
  <path
     class="ColorScheme-Highlight"
     style="fill:#bde6fb;fill-opacity:1;stroke-width:0.264583"
     d="M 6.3499999,0 A 6.3499999,6.3499999 0 0 0 0,6.3499999 6.3499999,6.3499999 0 0 0 6.3499999,12.7 6.3499999,6.3499999 0 0 0 12.7,6.3499999 6.3499999,6.3499999 0 0 0 6.3499999,0 Z m 0,0.79374999 A 5.5562499,5.5562499 0 0 1 11.90625,6.3499999 5.5562499,5.5562499 0 0 1 6.3499999,11.90625 5.5562499,5.5562499 0 0 1 0.79374999,6.3499999 5.5562499,5.5562499 0 0 1 6.3499999,0.79374999 Z M 5.6497844,3.1837849 C 4.9175765,3.1895846 4.1819475,3.3193458 3.5367351,3.5667074 L 3.175,3.7041666 3.4933268,4.3067139 C 3.7084277,4.7283007 4.1044862,5.2185265 4.7325277,5.889563 5.7046862,6.904769 6.0746298,7.5159401 6.2724852,8.3762328 6.4101453,8.9698519 6.3929016,10.182924 6.246646,10.67325 6.0659962,11.258271 6.2121515,11.103304 6.4874581,10.423653 6.7713825,9.7267666 6.8744906,8.4962718 6.7024321,7.704956 6.5561916,6.9822731 6.0915769,6.1390495 5.4549632,5.4249917 5.145242,5.0808482 4.8354776,4.6851887 4.766633,4.547526 4.6461894,4.315235 4.6465497,4.2895895 4.784204,4.212146 5.2402133,3.9712693 6.0228993,3.8245727 6.8316241,3.8245727 7.8812265,3.8331584 8.7415967,4.083047 9.5591063,4.6250407 9.8516031,4.8229173 10.023751,4.9086214 9.9291096,4.8053913 9.6710112,4.5214934 8.6898071,3.9021784 8.1219849,3.6612753 7.8381928,3.5408793 7.3051034,3.3862854 6.9437622,3.3088418 H 6.9432331 C 6.5272017,3.2218098 6.0889273,3.1803083 5.6497719,3.1837849 Z"
     id="path821" />
</svg>
