<?xml version="1.0" encoding="UTF-8" standalone="no"?>
<svg
   width="47.546486"
   height="47.546486"
   viewBox="0 0 12.580008 12.580008"
   version="1.1"
   id="svg14"
   sodipodi:docname="codeblocks.svg"
   inkscape:version="0.92.4 (5da689c313, 2019-01-14)"
   xmlns:inkscape="http://www.inkscape.org/namespaces/inkscape"
   xmlns:sodipodi="http://sodipodi.sourceforge.net/DTD/sodipodi-0.dtd"
   xmlns="http://www.w3.org/2000/svg"
   xmlns:svg="http://www.w3.org/2000/svg"
   xmlns:rdf="http://www.w3.org/1999/02/22-rdf-syntax-ns#"
   xmlns:cc="http://creativecommons.org/ns#"
   xmlns:dc="http://purl.org/dc/elements/1.1/">
  <metadata
     id="metadata20">
    <rdf:RDF>
      <cc:Work
         rdf:about="">
        <dc:format>image/svg+xml</dc:format>
        <dc:type
           rdf:resource="http://purl.org/dc/dcmitype/StillImage" />
        <dc:title />
      </cc:Work>
    </rdf:RDF>
  </metadata>
  <defs
     id="defs18" />
  <sodipodi:namedview
     pagecolor="#ffffff"
     bordercolor="#666666"
     borderopacity="1"
     objecttolerance="10"
     gridtolerance="10"
     guidetolerance="10"
     inkscape:pageopacity="0"
     inkscape:pageshadow="2"
     inkscape:window-width="1087"
     inkscape:window-height="480"
     id="namedview16"
     showgrid="false"
     inkscape:zoom="4.9166667"
     inkscape:cx="2.1355932"
     inkscape:cy="24"
     inkscape:window-x="0"
     inkscape:window-y="25"
     inkscape:window-maximized="0"
     inkscape:current-layer="svg14"
     inkscape:showpageshadow="0"
     inkscape:pagecheckerboard="0"
     inkscape:deskcolor="#d1d1d1" />
  <path
     d="M 6.2900079,0 A 6.29,6.29 0 0 0 7.9490244e-6,6.3 6.29,6.29 0 0 0 6.3000079,12.58 6.29,6.29 0 0 0 12.580008,6.29 6.29,6.29 0 0 0 6.2900079,0 Z m -0.01,0.94 A 5.4,5.4 0 0 1 11.680008,6.34 5.4,5.4 0 0 1 6.2800079,11.75 5.4,5.4 0 0 1 0.87000795,6.35 5.4,5.4 0 0 1 6.2700079,0.93 Z"
     id="path2"
     inkscape:connector-curvature="0"
     style="fill:#bde6fb;fill-opacity:1" />
  <g
     id="g12"
     style="opacity:0.75"
     transform="translate(-0.04999205,-0.07)">
    <path
       d="M 6.35,2.91 H 3.28 c -0.2,0 -0.37,0.16 -0.37,0.37 v 3.07 h 3.44 z"
       id="path4"
       inkscape:connector-curvature="0"
       style="opacity:0.75;fill:#d40000" />
    <path
       d="m 6.35,2.91 h 3.07 c 0.2,0 0.37,0.16 0.37,0.37 V 6.35 H 6.35 Z"
       id="path6"
       inkscape:connector-curvature="0"
       style="opacity:0.75;fill:#008000" />
    <path
       d="M 6.35,9.79 H 3.28 A 0.37,0.37 0 0 1 2.91,9.42 V 6.35 h 3.44 z"
       id="path8"
       inkscape:connector-curvature="0"
       style="opacity:0.75;fill:#ffff00" />
    <path
       d="m 6.35,9.79 h 3.07 c 0.2,0 0.37,-0.16 0.37,-0.37 V 6.35 H 6.35 Z"
       id="path10"
       inkscape:connector-curvature="0"
       style="opacity:0.75;fill:#0000ff" />
  </g>
</svg>
