<?xml version="1.0" encoding="UTF-8" standalone="no"?>
<svg
   width="47.546486"
   height="47.546486"
   viewBox="0 0 12.580008 12.580008"
   version="1.1"
   id="svg16"
   sodipodi:docname="com.github.themix_project.Oomox.svg"
   inkscape:version="0.92.4 (5da689c313, 2019-01-14)"
   xmlns:inkscape="http://www.inkscape.org/namespaces/inkscape"
   xmlns:sodipodi="http://sodipodi.sourceforge.net/DTD/sodipodi-0.dtd"
   xmlns="http://www.w3.org/2000/svg"
   xmlns:svg="http://www.w3.org/2000/svg"
   xmlns:rdf="http://www.w3.org/1999/02/22-rdf-syntax-ns#"
   xmlns:cc="http://creativecommons.org/ns#"
   xmlns:dc="http://purl.org/dc/elements/1.1/">
  <metadata
     id="metadata22">
    <rdf:RDF>
      <cc:Work
         rdf:about="">
        <dc:format>image/svg+xml</dc:format>
        <dc:type
           rdf:resource="http://purl.org/dc/dcmitype/StillImage" />
        <dc:title />
      </cc:Work>
    </rdf:RDF>
  </metadata>
  <defs
     id="defs20" />
  <sodipodi:namedview
     pagecolor="#ffffff"
     bordercolor="#666666"
     borderopacity="1"
     objecttolerance="10"
     gridtolerance="10"
     guidetolerance="10"
     inkscape:pageopacity="0"
     inkscape:pageshadow="2"
     inkscape:window-width="1087"
     inkscape:window-height="480"
     id="namedview18"
     showgrid="false"
     inkscape:zoom="4.9166667"
     inkscape:cx="2.1355932"
     inkscape:cy="24"
     inkscape:window-x="0"
     inkscape:window-y="25"
     inkscape:window-maximized="0"
     inkscape:current-layer="svg16"
     inkscape:showpageshadow="0"
     inkscape:pagecheckerboard="0"
     inkscape:deskcolor="#d1d1d1" />
  <path
     d="M 6.2900079,0 A 6.29,6.29 0 0 0 7.9490244e-6,6.3 6.29,6.29 0 0 0 6.3000079,12.58 6.29,6.29 0 0 0 12.580008,6.29 6.29,6.29 0 0 0 6.2900079,0 Z m -0.02,0.93 0.01,0.01 A 5.4,5.4 0 0 1 11.680008,6.34 5.4,5.4 0 0 1 6.2800079,11.75 5.4,5.4 0 0 1 0.87000795,6.35 5.4,5.4 0 0 1 6.2700079,0.93 Z m -0.22,0.72 a 4.7,4.7 0 0 0 -3.13,1.38 4.7,4.7 0 0 0 -1.23,4.54 4.7,4.7 0 0 0 3.33,3.31 4.7,4.7 0 0 0 4.53,-1.22 4.7,4.7 0 0 0 1.2000001,-4.53 h 0.01 A 4.7,4.7 0 0 0 7.4500079,1.81 l -0.46,1.72 h 1.36 a 0.7,0.7 0 0 1 0.06,0 0.7,0.7 0 0 1 0.07,0.01 0.7,0.7 0 0 1 0.07,0.02 0.7,0.7 0 0 1 0.06,0.02 0.7,0.7 0 0 1 0.07,0.03 0.7,0.7 0 0 1 0.06,0.03 0.7,0.7 0 0 1 0.05,0.05 0.7,0.7 0 0 1 0.06,0.04 0.7,0.7 0 0 1 0.04,0.05 0.7,0.7 0 0 1 0.04,0.06 0.7,0.7 0 0 1 0.04,0.06 0.7,0.7 0 0 1 0.03,0.06 0.7,0.7 0 0 1 0.02,0.07 0.7,0.7 0 0 1 0.02,0.07 0.7,0.7 0 0 1 0,0.07 0.7,0.7 0 0 1 0.01,0.07 v 2.11 a 2.82,2.82 0 0 1 0,0.03 2.82,2.82 0 0 1 -0.02,0.29 2.82,2.82 0 0 1 -0.04,0.27 2.82,2.82 0 0 1 -0.08,0.28 2.82,2.82 0 0 1 -0.1,0.26 2.82,2.82 0 0 1 -0.12,0.25 2.82,2.82 0 0 1 -0.15,0.24 2.82,2.82 0 0 1 -0.18,0.22 2.82,2.82 0 0 1 -0.13,0.15 2.82,2.82 0 0 1 -0.06,0.06 2.82,2.82 0 0 1 -0.21,0.18 2.82,2.82 0 0 1 -0.24,0.16 2.82,2.82 0 0 1 -0.24,0.14 2.82,2.82 0 0 1 -0.26,0.11 2.82,2.82 0 0 1 -0.27,0.09 2.82,2.82 0 0 1 -0.28,0.06 2.82,2.82 0 0 1 -0.28,0.03 2.82,2.82 0 0 1 -0.28,0 2.82,2.82 0 0 1 -0.28,-0.03 2.82,2.82 0 0 1 -0.28,-0.05 2.82,2.82 0 0 1 -0.05,-0.02 2.82,2.82 0 0 1 -0.21,-0.06 2.82,2.82 0 0 1 -0.27,-0.11 2.82,2.82 0 0 1 -0.24,-0.13 2.82,2.82 0 0 1 -0.24,-0.16 2.82,2.82 0 0 1 -0.22,-0.18 2.82,2.82 0 0 1 -0.2,-0.2 2.82,2.82 0 0 1 -0.17,-0.22 2.82,2.82 0 0 1 -0.16,-0.24 2.82,2.82 0 0 1 -0.13,-0.25 2.82,2.82 0 0 1 -0.1,-0.26 2.82,2.82 0 0 1 -0.05,-0.18 2.82,2.82 0 0 1 -0.03,-0.09 2.82,2.82 0 0 1 -0.05,-0.28 2.82,2.82 0 0 1 -0.02,-0.28 2.82,2.82 0 0 1 0,-0.28 2.82,2.82 0 0 1 0.04,-0.28 2.82,2.82 0 0 1 0.06,-0.28 2.82,2.82 0 0 1 0.09,-0.26 2.82,2.82 0 0 1 0.12,-0.26 2.82,2.82 0 0 1 0.14,-0.24 2.82,2.82 0 0 1 0.16,-0.23 2.82,2.82 0 0 1 0.19,-0.22 2.82,2.82 0 0 1 0.02,-0.02 2.82,2.82 0 0 1 0.01,-0.01 2.82,2.82 0 0 1 0.17,-0.16 2.82,2.82 0 0 1 0.23,-0.17 2.82,2.82 0 0 1 0.24,-0.15 2.82,2.82 0 0 1 0.25,-0.12 2.82,2.82 0 0 1 0.27,-0.1 2.82,2.82 0 0 1 0.27,-0.07 2.82,2.82 0 0 1 0.28,-0.04 2.82,2.82 0 0 1 0.28,-0.01 h 0.76 l 0.46,-1.72 a 4.7,4.7 0 0 0 -1.4,-0.16 z m 2.06,2.35 a 0.47,0.47 0 0 0 -0.03,0 0.47,0.47 0 0 0 -0.05,0 0.47,0.47 0 0 0 -0.04,0.02 0.47,0.47 0 0 0 -0.05,0.01 0.47,0.47 0 0 0 -0.04,0.02 0.47,0.47 0 0 0 -0.04,0.03 0.47,0.47 0 0 0 -0.04,0.02 0.47,0.47 0 0 0 -0.04,0.04 0.47,0.47 0 0 0 -0.03,0.03 0.47,0.47 0 0 0 -0.03,0.04 0.47,0.47 0 0 0 -0.02,0.04 0.47,0.47 0 0 0 -0.02,0.04 0.47,0.47 0 0 0 -0.02,0.04 0.47,0.47 0 0 0 -0.01,0.05 0.47,0.47 0 0 0 0,0.05 0.47,0.47 0 0 0 -0.01,0.04 0.47,0.47 0 0 0 0,0.04 0.47,0.47 0 0 0 0,0.05 0.47,0.47 0 0 0 0.02,0.04 0.47,0.47 0 0 0 0.01,0.05 0.47,0.47 0 0 0 0.02,0.04 0.47,0.47 0 0 0 0.03,0.04 0.47,0.47 0 0 0 0.02,0.04 0.47,0.47 0 0 0 0.03,0.03 0.47,0.47 0 0 0 0.04,0.04 0.47,0.47 0 0 0 0.04,0.03 0.47,0.47 0 0 0 0.04,0.02 0.47,0.47 0 0 0 0.04,0.02 0.47,0.47 0 0 0 0.04,0.02 0.47,0.47 0 0 0 0.05,0 0.47,0.47 0 0 0 0.05,0.02 0.47,0.47 0 0 0 0.04,0 0.47,0.47 0 0 0 0.04,0 0.47,0.47 0 0 0 0.04,0 0.47,0.47 0 0 0 0.06,-0.02 0.47,0.47 0 0 0 0.04,0 0.47,0.47 0 0 0 0.04,-0.02 0.47,0.47 0 0 0 0.04,-0.03 0.47,0.47 0 0 0 0.04,-0.02 0.47,0.47 0 0 0 0.03,-0.04 0.47,0.47 0 0 0 0.04,-0.03 0.47,0.47 0 0 0 0.02,-0.04 0.47,0.47 0 0 0 0.03,-0.04 0.47,0.47 0 0 0 0.02,-0.04 0.47,0.47 0 0 0 0.02,-0.05 0.47,0.47 0 0 0 0,-0.04 0.47,0.47 0 0 0 0.01,-0.05 0.47,0.47 0 0 0 0,-0.05 0.47,0.47 0 0 0 0,-0.03 0.47,0.47 0 0 0 0,-0.05 0.47,0.47 0 0 0 -0.01,-0.04 0.47,0.47 0 0 0 -0.02,-0.05 0.47,0.47 0 0 0 -0.01,-0.04 0.47,0.47 0 0 0 -0.03,-0.04 0.47,0.47 0 0 0 -0.03,-0.04 0.47,0.47 0 0 0 -0.03,-0.03 0.47,0.47 0 0 0 -0.03,-0.04 0.47,0.47 0 0 0 -0.04,-0.03 0.47,0.47 0 0 0 -0.04,-0.02 0.47,0.47 0 0 0 -0.04,-0.02 0.47,0.47 0 0 0 -0.05,-0.02 0.47,0.47 0 0 0 -0.04,0 0.47,0.47 0 0 0 -0.05,-0.02 0.47,0.47 0 0 0 -0.05,0 z"
     id="path2"
     inkscape:connector-curvature="0"
     style="fill:#bde6fb;fill-opacity:1" />
  <path
     d="m 7.4500079,1.81 -0.46,1.72 h 1.36 a 0.7,0.7 0 0 1 0.06,0 0.7,0.7 0 0 1 0.07,0.01 0.7,0.7 0 0 1 0.07,0.02 0.7,0.7 0 0 1 0.06,0.02 0.7,0.7 0 0 1 0.07,0.03 0.7,0.7 0 0 1 0.06,0.03 0.7,0.7 0 0 1 0.05,0.05 0.7,0.7 0 0 1 0.06,0.04 0.7,0.7 0 0 1 0.04,0.05 0.7,0.7 0 0 1 0.04,0.06 0.7,0.7 0 0 1 0.04,0.06 0.7,0.7 0 0 1 0.03,0.06 0.7,0.7 0 0 1 0.02,0.07 0.7,0.7 0 0 1 0.02,0.07 0.7,0.7 0 0 1 0,0.07 0.7,0.7 0 0 1 0.01,0.07 V 5.59 L 10.770008,5.13 A 4.7,4.7 0 0 0 7.4500079,1.81 Z"
     id="path4"
     inkscape:connector-curvature="0"
     style="fill:#479ae1" />
  <path
     d="m 8.2300079,8.33 1.32,1.34 A 4.7,4.7 0 0 0 10.750008,5.14 L 9.0500079,5.6 v 0.76 a 2.82,2.82 0 0 1 0,0.03 2.82,2.82 0 0 1 -0.03,0.29 2.82,2.82 0 0 1 -0.04,0.27 2.82,2.82 0 0 1 -0.08,0.28 2.82,2.82 0 0 1 -0.1,0.26 2.82,2.82 0 0 1 -0.12,0.25 2.82,2.82 0 0 1 -0.15,0.24 2.82,2.82 0 0 1 -0.17,0.22 2.82,2.82 0 0 1 -0.14,0.15 z"
     id="path6"
     inkscape:connector-curvature="0"
     style="fill:#4fae53" />
  <path
     d="m 5.5000079,9.07 -0.48,1.8 a 4.7,4.7 0 0 0 4.53,-1.22 l -1.32,-1.32 a 2.82,2.82 0 0 1 -0.06,0.07 2.82,2.82 0 0 1 -0.21,0.18 2.82,2.82 0 0 1 -0.24,0.16 2.82,2.82 0 0 1 -0.24,0.14 2.82,2.82 0 0 1 -0.26,0.11 2.82,2.82 0 0 1 -0.27,0.09 2.82,2.82 0 0 1 -0.28,0.06 2.82,2.82 0 0 1 -0.28,0.03 2.82,2.82 0 0 1 -0.28,0 2.82,2.82 0 0 1 -0.28,-0.03 2.82,2.82 0 0 1 -0.28,-0.05 2.82,2.82 0 0 1 -0.05,-0.02 z"
     id="path8"
     inkscape:connector-curvature="0"
     style="fill:#e0ad2f" />
  <path
     d="m 3.5100079,7.08 -1.82,0.48 a 4.7,4.7 0 0 0 3.33,3.31 l 0.48,-1.8 a 2.82,2.82 0 0 1 -0.22,-0.06 2.82,2.82 0 0 1 -0.26,-0.11 2.82,2.82 0 0 1 -0.24,-0.13 2.82,2.82 0 0 1 -0.24,-0.16 2.82,2.82 0 0 1 -0.22,-0.18 2.82,2.82 0 0 1 -0.2,-0.2 2.82,2.82 0 0 1 -0.17,-0.22 2.82,2.82 0 0 1 -0.16,-0.24 2.82,2.82 0 0 1 -0.13,-0.25 2.82,2.82 0 0 1 -0.1,-0.26 2.82,2.82 0 0 1 -0.05,-0.18 z"
     id="path10"
     inkscape:connector-curvature="0"
     style="fill:#e98928" />
  <path
     d="m 2.9200079,3.02 a 4.7,4.7 0 0 0 -1.23,4.54 l 1.82,-0.48 a 2.82,2.82 0 0 1 -0.03,-0.09 2.82,2.82 0 0 1 -0.05,-0.28 2.82,2.82 0 0 1 -0.02,-0.28 2.82,2.82 0 0 1 0,-0.28 2.82,2.82 0 0 1 0.04,-0.28 2.82,2.82 0 0 1 0.06,-0.28 2.82,2.82 0 0 1 0.09,-0.26 2.82,2.82 0 0 1 0.12,-0.26 2.82,2.82 0 0 1 0.14,-0.24 2.82,2.82 0 0 1 0.16,-0.23 2.82,2.82 0 0 1 0.19,-0.22 2.82,2.82 0 0 1 0.03,-0.03 z"
     id="path12"
     inkscape:connector-curvature="0"
     style="fill:#d74845" />
  <path
     d="m 6.0500079,1.65 a 4.7,4.7 0 0 0 -3.14,1.39 l 1.32,1.32 a 2.82,2.82 0 0 1 0.18,-0.17 2.82,2.82 0 0 1 0.23,-0.17 2.82,2.82 0 0 1 0.24,-0.15 2.82,2.82 0 0 1 0.25,-0.12 2.82,2.82 0 0 1 0.27,-0.1 2.82,2.82 0 0 1 0.27,-0.07 2.82,2.82 0 0 1 0.28,-0.04 2.82,2.82 0 0 1 0.28,-0.01 h 0.76 l 0.46,-1.72 a 4.7,4.7 0 0 0 -1.4,-0.16 z"
     id="path14"
     inkscape:connector-curvature="0"
     style="fill:#a458b8" />
</svg>
