<?xml version="1.0" encoding="UTF-8" standalone="no"?>
<svg
   width="47.540787"
   height="47.540787"
   viewBox="0 0 12.5785 12.5785"
   version="1.1"
   id="svg4"
   sodipodi:docname="conduit.svg"
   inkscape:version="0.92.4 (5da689c313, 2019-01-14)"
   xmlns:inkscape="http://www.inkscape.org/namespaces/inkscape"
   xmlns:sodipodi="http://sodipodi.sourceforge.net/DTD/sodipodi-0.dtd"
   xmlns="http://www.w3.org/2000/svg"
   xmlns:svg="http://www.w3.org/2000/svg"
   xmlns:rdf="http://www.w3.org/1999/02/22-rdf-syntax-ns#"
   xmlns:cc="http://creativecommons.org/ns#"
   xmlns:dc="http://purl.org/dc/elements/1.1/">
  <metadata
     id="metadata10">
    <rdf:RDF>
      <cc:Work
         rdf:about="">
        <dc:format>image/svg+xml</dc:format>
        <dc:type
           rdf:resource="http://purl.org/dc/dcmitype/StillImage" />
        <dc:title />
      </cc:Work>
    </rdf:RDF>
  </metadata>
  <defs
     id="defs8" />
  <sodipodi:namedview
     pagecolor="#ffffff"
     bordercolor="#666666"
     borderopacity="1"
     objecttolerance="10"
     gridtolerance="10"
     guidetolerance="10"
     inkscape:pageopacity="0"
     inkscape:pageshadow="2"
     inkscape:window-width="1087"
     inkscape:window-height="480"
     id="namedview6"
     showgrid="false"
     inkscape:zoom="4.9166667"
     inkscape:cx="2.1355932"
     inkscape:cy="24"
     inkscape:window-x="0"
     inkscape:window-y="25"
     inkscape:window-maximized="0"
     inkscape:current-layer="svg4"
     inkscape:showpageshadow="0"
     inkscape:pagecheckerboard="0"
     inkscape:deskcolor="#d1d1d1" />
  <path
     d="M 6.2895,0 A 6.2893,6.2893 0 0 0 0,6.2895 6.2893,6.2893 0 0 0 6.2895,12.5785 6.2893,6.2893 0 0 0 12.5785,6.2895 6.2893,6.2893 0 0 0 6.2895,0 Z M 6.2715,0.9363 A 5.407,5.407 0 0 1 11.6783,6.3433 5.407,5.407 0 0 1 6.2714,11.7502 5.407,5.407 0 0 1 0.864,6.3431 5.407,5.407 0 0 1 6.2714,0.9362 Z M 6.5898,1.3368 A 3.3548,3.3548 0 0 0 5.1221,1.6903 L 5.5929,2.3962 C 6.6949,1.9021 8.0261,2.2599 8.7178,3.2985 9.4095,4.3371 9.226,5.7035 8.3452,6.5298 L 7.4352,5.1624 6.8802,7.7788 9.5307,8.3101 8.816,7.2362 C 10.0803,6.1444 10.3677,4.2597 9.4175,2.8329 8.7643,1.8519 7.6857,1.3262 6.5898,1.3369 Z M 7.259,2.882 A 0.8348,0.8348 0 0 0 6.7887,3.023 0.8396,0.8396 0 0 0 6.5551,4.1878 c 0.2574,0.3865 0.779,0.4915 1.1653,0.2341 A 0.8402,0.8402 0 0 0 7.954,3.2566 0.8407,0.8407 0 0 0 7.259,2.882 Z M 3.0592,4.2447 3.7744,5.3185 C 2.5101,6.4103 2.2227,8.2945 3.1729,9.7213 4.1231,11.1481 5.9724,11.61 7.4672,10.8644 L 6.9975,10.1585 C 5.8955,10.6526 4.5638,10.2943 3.8721,9.2557 3.1804,8.2171 3.3634,6.8512 4.2441,6.0249 L 5.1552,7.3918 5.7097,4.7759 Z m 2.2815,3.747 A 0.8362,0.8362 0 0 0 4.87,8.1328 0.8396,0.8396 0 0 0 4.6364,9.2976 C 4.8937,9.684 5.4147,9.789 5.8012,9.5316 6.1876,9.2744 6.2926,8.7528 6.0352,8.3664 A 0.8398,0.8398 0 0 0 5.3407,7.9917 Z"
     id="path2"
     inkscape:connector-curvature="0"
     style="fill:#bde6fb;fill-opacity:1" />
</svg>
