<?xml version="1.0" encoding="UTF-8" standalone="no"?>
<svg
   width="47.542679"
   height="47.546455"
   viewBox="0 0 12.579 12.58"
   version="1.1"
   id="svg4"
   sodipodi:docname="cowpatty.svg"
   inkscape:version="0.92.5 (2060ec1f9f, 2020-04-08)"
   xmlns:inkscape="http://www.inkscape.org/namespaces/inkscape"
   xmlns:sodipodi="http://sodipodi.sourceforge.net/DTD/sodipodi-0.dtd"
   xmlns="http://www.w3.org/2000/svg"
   xmlns:svg="http://www.w3.org/2000/svg"
   xmlns:rdf="http://www.w3.org/1999/02/22-rdf-syntax-ns#"
   xmlns:cc="http://creativecommons.org/ns#"
   xmlns:dc="http://purl.org/dc/elements/1.1/">
  <metadata
     id="metadata10">
    <rdf:RDF>
      <cc:Work
         rdf:about="">
        <dc:format>image/svg+xml</dc:format>
        <dc:type
           rdf:resource="http://purl.org/dc/dcmitype/StillImage" />
        <dc:title />
      </cc:Work>
    </rdf:RDF>
  </metadata>
  <defs
     id="defs8" />
  <sodipodi:namedview
     pagecolor="#ffffff"
     bordercolor="#666666"
     borderopacity="1"
     objecttolerance="10"
     gridtolerance="10"
     guidetolerance="10"
     inkscape:pageopacity="0"
     inkscape:pageshadow="2"
     inkscape:window-width="1085"
     inkscape:window-height="480"
     id="namedview6"
     showgrid="false"
     inkscape:zoom="4.9166667"
     inkscape:cx="2.1355932"
     inkscape:cy="24"
     inkscape:window-x="0"
     inkscape:window-y="25"
     inkscape:window-maximized="0"
     inkscape:current-layer="svg4"
     inkscape:showpageshadow="0"
     inkscape:pagecheckerboard="0"
     inkscape:deskcolor="#d1d1d1" />
  <path
     d="M 6.285,0 A 6.295,6.295 0 0 0 0,6.285 6.295,6.295 0 0 0 6.285,12.58 6.295,6.295 0 0 0 12.579,6.285 6.295,6.295 0 0 0 6.285,0 Z M 6.274,0.94 a 5.408,5.408 0 0 1 5.397,5.387 5.407,5.407 0 0 1 -10.814,0 C 0.857,3.34 3.287,0.94 6.274,0.94 Z m 1.594,1.175 c -0.045,0 -0.06,0.017 -0.083,0.048 -0.06,0.082 -0.062,0.282 -0.003,0.327 0.025,0.018 0.146,0.052 0.269,0.074 0.31,0.054 0.657,0.235 0.883,0.457 0.22,0.217 0.434,0.614 0.467,0.866 0.012,0.093 0.038,0.206 0.056,0.25 H 9.455 c 0.027,0.067 0.06,0.08 0.196,0.08 0.205,0 0.222,-0.04 0.166,-0.372 A 2.127,2.127 0 0 0 9.013,2.547 2.004,2.004 0 0 0 8.126,2.157 1.59,1.59 0 0 0 7.866,2.115 Z M 4.703,2.118 A 0.734,0.734 0 0 0 4.556,2.125 2.167,2.167 0 0 0 3.284,2.792 C 2.949,3.146 2.73,3.642 2.729,4.048 v 0.17 H 2.925 C 3.1,4.218 3.122,4.209 3.136,4.138 3.246,3.561 3.346,3.345 3.645,3.045 3.905,2.784 4.202,2.63 4.573,2.563 L 4.822,2.518 4.832,2.363 C 4.845,2.195 4.819,2.128 4.703,2.118 Z M 4.691,2.878 A 0.824,0.824 0 0 0 4.549,2.898 C 4.283,2.954 4.109,3.049 3.885,3.26 3.621,3.51 3.419,3.973 3.492,4.162 c 0.015,0.04 0.072,0.056 0.2,0.056 0.167,0 0.182,-0.007 0.201,-0.099 C 3.976,3.732 4.198,3.449 4.499,3.346 4.595,3.314 4.701,3.287 4.735,3.287 c 0.073,0 0.104,-0.07 0.104,-0.23 0,-0.132 -0.033,-0.183 -0.148,-0.18 z M 7.859,2.895 C 7.779,2.892 7.77,2.911 7.752,2.983 7.71,3.15 7.774,3.263 7.926,3.294 a 0.95,0.95 0 0 1 0.727,0.663 c 0.033,0.114 0.067,0.22 0.076,0.235 0.01,0.016 0.092,0.024 0.183,0.019 L 9.079,4.2 9.074,4.031 C 9.057,3.525 8.502,2.959 7.967,2.905 A 1.716,1.716 0 0 0 7.859,2.895 Z m -3.31,0.786 c -0.178,0 -0.287,0.3 -0.287,0.793 0,0.328 0.056,0.515 0.225,0.754 C 4.574,5.349 4.545,5.338 4.31,5.159 4.14,5.03 3.86,4.933 3.656,4.933 3.317,4.933 2.752,5.211 2.522,5.489 2.304,5.753 2.336,5.906 2.673,6.214 3.076,6.582 3.536,6.699 4.003,6.551 L 4.222,6.482 4.224,6.808 C 4.228,7.34 4.403,7.871 4.778,8.489 L 4.906,8.7 4.833,8.883 a 1.25,1.25 0 0 0 0.06,0.945 c 0.186,0.343 0.546,0.597 1.002,0.708 C 6.471,10.677 7.223,10.483 7.541,10.11 7.829,9.774 7.922,9.299 7.779,8.892 L 7.705,8.683 7.895,8.367 C 8.232,7.807 8.381,7.314 8.381,6.756 8.381,6.508 8.39,6.467 8.436,6.486 8.666,6.574 8.916,6.621 9.081,6.607 9.517,6.571 10.206,6.065 10.206,5.781 10.206,5.679 10.176,5.616 10.072,5.5 9.772,5.166 9.21,4.906 8.875,4.945 8.662,4.971 8.39,5.095 8.153,5.278 L 7.978,5.413 8.11,5.213 C 8.345,4.858 8.405,4.463 8.29,4.02 8.23,3.788 8.155,3.68 8.055,3.68 7.968,3.68 7.902,3.791 7.811,4.092 7.673,4.544 7.527,4.717 7.194,4.823 7.081,4.859 7.026,4.855 6.818,4.79 6.519,4.697 6.114,4.688 5.843,4.768 5.543,4.858 5.376,4.844 5.201,4.718 5.017,4.584 4.942,4.464 4.801,4.076 4.678,3.735 4.644,3.681 4.55,3.681 Z m 1.7,1.547 c 0.385,-0.007 0.782,0.092 1.083,0.298 0.162,0.111 0.37,0.356 0.37,0.435 0,0.016 -0.071,0.065 -0.157,0.11 C 7.275,6.215 6.999,6.49 6.878,6.736 6.635,7.23 6.704,7.756 7.12,8.578 c 0.22,0.436 0.242,0.497 0.242,0.697 0,0.387 -0.23,0.66 -0.663,0.79 -0.225,0.066 -0.603,0.07 -0.804,0.006 C 5.443,9.929 5.188,9.577 5.248,9.177 5.262,9.087 5.37,8.815 5.489,8.574 5.753,8.04 5.799,7.917 5.841,7.618 5.934,6.96 5.631,6.356 5.083,6.104 4.988,6.06 4.911,6.007 4.911,5.985 4.911,5.924 5.101,5.675 5.237,5.561 5.492,5.346 5.865,5.234 6.25,5.228 Z m -2.58,0.208 c 0.063,0 0.163,0.022 0.222,0.048 0.103,0.044 0.095,0.047 -0.168,0.064 -0.299,0.02 -0.386,0.064 -0.386,0.193 0,0.118 0.056,0.139 0.346,0.127 0.318,-0.013 0.428,0.014 0.365,0.09 A 0.558,0.558 0 0 1 3.904,6.063 C 3.697,6.17 3.314,6.095 3.084,5.902 L 2.961,5.798 3.066,5.688 C 3.184,5.564 3.496,5.433 3.669,5.436 Z m 5.22,0.003 a 0.952,0.952 0 0 1 0.65,0.215 L 9.674,5.765 9.591,5.855 C 9.546,5.905 9.428,5.983 9.329,6.029 9.102,6.136 8.806,6.143 8.645,6.045 8.396,5.893 8.462,5.846 8.907,5.857 9.201,5.865 9.24,5.859 9.274,5.797 9.302,5.743 9.295,5.707 9.243,5.643 9.181,5.567 9.146,5.559 8.867,5.559 8.698,5.559 8.56,5.554 8.56,5.549 8.56,5.543 8.616,5.514 8.685,5.486 A 0.65,0.65 0 0 1 8.89,5.439 Z M 5.029,6.804 C 5.243,6.772 5.407,7.014 5.233,7.187 5.136,7.284 4.998,7.277 4.891,7.171 4.761,7.041 4.777,6.918 4.935,6.835 A 0.292,0.292 0 0 1 5.029,6.804 Z m 2.574,0 C 7.777,6.816 7.872,7.004 7.772,7.19 7.699,7.326 7.394,7.222 7.333,7.04 7.304,6.953 7.4,6.839 7.524,6.811 A 0.28,0.28 0 0 1 7.603,6.805 Z M 5.747,9.053 c -0.038,0.002 -0.068,0.028 -0.103,0.08 -0.067,0.103 -0.027,0.24 0.117,0.39 0.065,0.069 0.13,0.099 0.212,0.099 0.108,0 0.118,-0.01 0.118,-0.11 0,-0.14 -0.079,-0.293 -0.2,-0.389 C 5.83,9.075 5.785,9.052 5.747,9.053 Z m 1.18,0.013 C 6.84,9.074 6.637,9.204 6.582,9.296 6.52,9.401 6.501,9.554 6.545,9.597 6.605,9.657 6.751,9.613 6.865,9.5 6.963,9.401 6.985,9.35 6.985,9.233 6.985,9.153 6.972,9.08 6.955,9.07 6.949,9.066 6.939,9.065 6.927,9.066 Z"
     id="path2"
     inkscape:connector-curvature="0"
     style="fill:#bde6fb;fill-opacity:1" />
</svg>
