<?xml version="1.0" encoding="UTF-8" standalone="no"?>
<svg
   width="47.542679"
   height="47.546455"
   viewBox="0 0 12.579 12.58"
   version="1.1"
   id="svg4"
   sodipodi:docname="crunch.svg"
   inkscape:version="0.92.5 (2060ec1f9f, 2020-04-08)"
   xmlns:inkscape="http://www.inkscape.org/namespaces/inkscape"
   xmlns:sodipodi="http://sodipodi.sourceforge.net/DTD/sodipodi-0.dtd"
   xmlns="http://www.w3.org/2000/svg"
   xmlns:svg="http://www.w3.org/2000/svg"
   xmlns:rdf="http://www.w3.org/1999/02/22-rdf-syntax-ns#"
   xmlns:cc="http://creativecommons.org/ns#"
   xmlns:dc="http://purl.org/dc/elements/1.1/">
  <metadata
     id="metadata10">
    <rdf:RDF>
      <cc:Work
         rdf:about="">
        <dc:format>image/svg+xml</dc:format>
        <dc:type
           rdf:resource="http://purl.org/dc/dcmitype/StillImage" />
        <dc:title />
      </cc:Work>
    </rdf:RDF>
  </metadata>
  <defs
     id="defs8" />
  <sodipodi:namedview
     pagecolor="#ffffff"
     bordercolor="#666666"
     borderopacity="1"
     objecttolerance="10"
     gridtolerance="10"
     guidetolerance="10"
     inkscape:pageopacity="0"
     inkscape:pageshadow="2"
     inkscape:window-width="1085"
     inkscape:window-height="480"
     id="namedview6"
     showgrid="false"
     inkscape:zoom="4.9166667"
     inkscape:cx="2.1355932"
     inkscape:cy="24"
     inkscape:window-x="0"
     inkscape:window-y="25"
     inkscape:window-maximized="0"
     inkscape:current-layer="svg4"
     inkscape:showpageshadow="0"
     inkscape:pagecheckerboard="0"
     inkscape:deskcolor="#d1d1d1" />
  <path
     d="M 6.285,0 A 6.295,6.295 0 0 0 0,6.285 6.295,6.295 0 0 0 6.285,12.58 6.295,6.295 0 0 0 12.579,6.285 6.295,6.295 0 0 0 6.285,0 Z M 6.274,0.94 a 5.408,5.408 0 0 1 5.397,5.387 5.407,5.407 0 0 1 -10.814,0 C 0.857,3.34 3.287,0.94 6.274,0.94 Z M 5.322,2.25 A 0.479,0.479 0 0 0 4.842,2.728 V 3.74 L 2.906,3.755 A 0.48,0.48 0 0 0 2.431,4.232 L 2.428,4.921 H 2.295 a 0.48,0.48 0 0 0 -0.48,0.48 v 2.573 a 0.48,0.48 0 0 0 0.48,0.48 H 2.428 L 2.429,8.89 a 0.48,0.48 0 0 0 0.48,0.478 h 0.178 v 0.451 c 0,0.265 0.214,0.48 0.479,0.48 h 0.995 a 0.48,0.48 0 0 0 0.48,-0.48 V 9.365 L 8.009,9.36 v 0.46 c 0,0.264 0.214,0.479 0.48,0.479 h 0.994 a 0.48,0.48 0 0 0 0.48,-0.48 v -0.49 a 0.479,0.479 0 0 0 0.32,-0.452 L 10.282,8.647 V 8.635 L 10.275,4.224 A 0.48,0.48 0 0 0 9.795,3.745 H 9.513 L 9.495,3.746 H 9.492 V 2.729 A 0.48,0.48 0 0 0 9.013,2.249 H 5.322 Z m 0,0.721 H 9.014 V 6.015 H 5.322 Z M 6.375,3.263 V 5.161 H 8.001 V 3.915 H 7.308 V 3.264 H 6.375 Z m 1.11,0.08 V 3.8 h 0.42 L 7.485,3.344 Z M 6.683,4.199 H 7.689 V 4.292 H 6.683 Z m 0,0.16 H 7.689 V 4.452 H 6.683 Z M 5.062,4.46 5.071,5.343 5.079,6.225 6.313,6.231 A 0.549,0.549 0 0 0 6.224,6.347 C 6.037,6.653 5.713,7.034 5.647,7.139 5.582,7.244 5.574,7.355 5.72,7.355 h 0.432 v 0.898 c 0,0.062 0.02,0.111 0.072,0.111 0.052,0 0.109,-0.086 0.144,-0.144 C 6.555,7.914 6.879,7.388 6.945,7.283 7.01,7.178 7.018,7.067 6.872,7.067 H 6.44 c 0,-0.317 -0.001,-0.452 0,-0.752 A 0.153,0.153 0 0 0 6.42,6.231 L 9.239,6.242 9.248,5.36 9.256,4.477 9.512,4.467 H 9.796 L 9.803,8.877 2.909,8.889 2.901,6.663 2.91,4.477 Z M 6.683,4.52 H 7.689 V 4.613 H 6.683 Z m 0,0.16 H 7.689 V 4.773 H 6.683 Z M 3.548,4.789 V 4.982 H 4.603 V 4.789 Z m 0,0.326 V 5.309 H 4.603 V 5.115 Z m 0,0.327 V 5.636 H 4.603 V 5.442 Z m -1.253,0.2 H 2.683 V 7.975 H 2.295 Z M 3.522,6.995 V 7.189 H 4.578 V 6.995 Z m 0,0.327 V 7.516 H 4.578 V 7.322 Z m 0,0.327 V 7.843 H 4.578 V 7.649 Z m 0,0.327 V 8.169 H 4.578 V 7.975 H 3.522 Z m 0.044,1.093 h 0.995 v 0.33 H 3.566 Z m 4.922,0 h 0.995 v 0.33 H 8.488 Z M 3.566,9.489 H 4.561 V 9.821 H 3.566 Z m 4.922,0 H 9.483 V 9.821 H 8.488 Z"
     id="path2"
     inkscape:connector-curvature="0"
     style="fill:#bde6fb;fill-opacity:1" />
</svg>
