<?xml version="1.0" encoding="UTF-8" standalone="no"?>
<svg
   width="48"
   height="48"
   viewBox="0 0 12.7 12.7"
   version="1.1"
   id="svg4"
   sodipodi:docname="cs-applets.svg"
   inkscape:version="0.92.5 (2060ec1f9f, 2020-04-08)"
   xmlns:inkscape="http://www.inkscape.org/namespaces/inkscape"
   xmlns:sodipodi="http://sodipodi.sourceforge.net/DTD/sodipodi-0.dtd"
   xmlns="http://www.w3.org/2000/svg"
   xmlns:svg="http://www.w3.org/2000/svg">
  <sodipodi:namedview
     id="namedview1"
     pagecolor="#505050"
     bordercolor="#eeeeee"
     borderopacity="1"
     inkscape:showpageshadow="0"
     inkscape:pageopacity="0"
     inkscape:pagecheckerboard="0"
     inkscape:deskcolor="#d1d1d1" />
  <defs
     id="defs8">
    <style
       id="current-color-scheme"
       type="text/css">&#10;      .ColorScheme-Highlight {&#10;        color:#1e3f5a;&#10;      }&#10;  </style>
  </defs>
  <path
     class="ColorScheme-Highlight"
     style="fill:#bde6fb;fill-opacity:1;stroke-width:0.264583"
     d="M 6.3499999,0 A 6.3499999,6.3499999 0 0 0 0,6.3499999 6.3499999,6.3499999 0 0 0 6.3499999,12.7 6.3499999,6.3499999 0 0 0 12.7,6.3499999 6.3499999,6.3499999 0 0 0 6.3499999,0 Z m 0,0.79374999 A 5.5562499,5.5562499 0 0 1 11.90625,6.3499999 5.5562499,5.5562499 0 0 1 6.3499999,11.90625 5.5562499,5.5562499 0 0 1 0.79374999,6.3499999 5.5562499,5.5562499 0 0 1 6.3499999,0.79374999 Z M 1.9275309,8.7312499 a 5.0270843,5.0270843 0 0 0 0.1922363,0.3348633 5.0270843,5.0270843 0 0 0 0.2924886,0.4087606 5.0270843,5.0270843 0 0 0 0.3317628,0.3777546 5.0270843,5.0270843 0 0 0 0.3674194,0.3420976 5.0270843,5.0270843 0 0 0 0.3999754,0.304375 5.0270843,5.0270843 0 0 0 0.4283977,0.262516 5.0270843,5.0270843 0 0 0 0.1788004,0.0863 H 4.2333333 V 8.7312499 Z m 3.3641357,0 V 10.847917 H 7.4083332 V 8.7312499 Z m 3.175,0 v 2.1166671 h 0.1245401 a 5.0270843,5.0270843 0 0 0 0.039274,-0.01757 5.0270843,5.0270843 0 0 0 0.4356323,-0.250115 5.0270843,5.0270843 0 0 0 0.4087606,-0.292488 5.0270843,5.0270843 0 0 0 0.3777546,-0.3317628 5.0270843,5.0270843 0 0 0 0.3420978,-0.3674195 5.0270843,5.0270843 0 0 0 0.304375,-0.3999753 5.0270843,5.0270843 0 0 0 0.262516,-0.4283978 5.0270843,5.0270843 0 0 0 0.01395,-0.028938 z"
     id="path817" />
</svg>
