<?xml version="1.0" encoding="UTF-8" standalone="no"?>
<svg
   width="48"
   height="48"
   viewBox="0 0 12.7 12.7"
   version="1.1"
   id="svg4"
   sodipodi:docname="cs-login.svg"
   inkscape:version="0.92.5 (2060ec1f9f, 2020-04-08)"
   xmlns:inkscape="http://www.inkscape.org/namespaces/inkscape"
   xmlns:sodipodi="http://sodipodi.sourceforge.net/DTD/sodipodi-0.dtd"
   xmlns="http://www.w3.org/2000/svg"
   xmlns:svg="http://www.w3.org/2000/svg">
  <sodipodi:namedview
     id="namedview1"
     pagecolor="#505050"
     bordercolor="#eeeeee"
     borderopacity="1"
     inkscape:showpageshadow="0"
     inkscape:pageopacity="0"
     inkscape:pagecheckerboard="0"
     inkscape:deskcolor="#d1d1d1" />
  <defs
     id="defs8">
    <style
       id="current-color-scheme"
       type="text/css">&#10;      .ColorScheme-Highlight {&#10;        color:#1e3f5a;&#10;      }&#10;  </style>
  </defs>
  <path
     class="ColorScheme-Highlight"
     style="fill:#bde6fb;fill-opacity:1;stroke-width:0.264583"
     d="M 6.3499999,0 A 6.3499999,6.3499999 0 0 0 0,6.3499999 6.3499999,6.3499999 0 0 0 6.3499999,12.7 6.3499999,6.3499999 0 0 0 12.7,6.3499999 6.3499999,6.3499999 0 0 0 6.3499999,0 Z m 0,0.79374999 A 5.5562499,5.5562499 0 0 1 11.90625,6.3499999 5.5562499,5.5562499 0 0 1 6.3499999,11.90625 5.5562499,5.5562499 0 0 1 0.79374999,6.3499999 5.5562499,5.5562499 0 0 1 6.3499999,0.79374999 Z M 3.4395833,3.96875 A 1.0583333,1.0583333 0 0 0 2.38125,5.0270833 1.0583333,1.0583333 0 0 0 3.4395833,6.0854166 1.0583333,1.0583333 0 0 0 4.4979166,5.0270833 1.0583333,1.0583333 0 0 0 3.4395833,3.96875 Z m 2.9104166,1.8520833 c -0.4397375,0 -0.79375,0.3540125 -0.79375,0.79375 0,0.4397374 0.3540125,0.7937499 0.79375,0.7937499 h 3.4395833 c 0.4397378,0 0.7937498,-0.3540125 0.7937498,-0.7937499 0,-0.4397375 -0.354012,-0.79375 -0.7937498,-0.79375 z m -3.4395833,0.79375 c -0.4397375,0 -0.79375,0.3540124 -0.79375,0.7937499 v 0.79375 h 2.6458333 v -0.79375 c 0,-0.4397375 -0.3540125,-0.7937499 -0.7937499,-0.7937499 z"
     id="path817" />
</svg>
