<?xml version="1.0" encoding="UTF-8" standalone="no"?>
<svg
   width="47.546486"
   height="47.546486"
   viewBox="0 0 12.580008 12.580008"
   version="1.1"
   id="svg4"
   sodipodi:docname="cuttlefish.svg"
   inkscape:version="0.92.4 (5da689c313, 2019-01-14)"
   xmlns:inkscape="http://www.inkscape.org/namespaces/inkscape"
   xmlns:sodipodi="http://sodipodi.sourceforge.net/DTD/sodipodi-0.dtd"
   xmlns="http://www.w3.org/2000/svg"
   xmlns:svg="http://www.w3.org/2000/svg"
   xmlns:rdf="http://www.w3.org/1999/02/22-rdf-syntax-ns#"
   xmlns:cc="http://creativecommons.org/ns#"
   xmlns:dc="http://purl.org/dc/elements/1.1/">
  <metadata
     id="metadata10">
    <rdf:RDF>
      <cc:Work
         rdf:about="">
        <dc:format>image/svg+xml</dc:format>
        <dc:type
           rdf:resource="http://purl.org/dc/dcmitype/StillImage" />
        <dc:title />
      </cc:Work>
    </rdf:RDF>
  </metadata>
  <defs
     id="defs8" />
  <sodipodi:namedview
     pagecolor="#ffffff"
     bordercolor="#666666"
     borderopacity="1"
     objecttolerance="10"
     gridtolerance="10"
     guidetolerance="10"
     inkscape:pageopacity="0"
     inkscape:pageshadow="2"
     inkscape:window-width="1087"
     inkscape:window-height="480"
     id="namedview6"
     showgrid="false"
     inkscape:zoom="4.9166667"
     inkscape:cx="2.1355932"
     inkscape:cy="24"
     inkscape:window-x="0"
     inkscape:window-y="25"
     inkscape:window-maximized="0"
     inkscape:current-layer="svg4"
     inkscape:showpageshadow="0"
     inkscape:pagecheckerboard="0"
     inkscape:deskcolor="#d1d1d1" />
  <path
     d="M 6.2900079,0 A 6.29,6.29 0 0 0 7.9490244e-6,6.3 6.29,6.29 0 0 0 6.3000079,12.58 6.29,6.29 0 0 0 12.580008,6.29 6.29,6.29 0 0 0 6.2900079,0 Z m -0.02,0.93 0.01,0.01 A 5.4,5.4 0 0 1 11.680008,6.34 5.4,5.4 0 0 1 6.2800079,11.75 5.4,5.4 0 0 1 0.87000795,6.35 5.4,5.4 0 0 1 6.2700079,0.93 Z m 0.03,1.131 c -0.798,0 -1.53,0.282 -2.12,0.753 -0.29,-0.025 -0.647,0.008 -0.647,0.33 0,0.04 0.008,0.095 0.017,0.157 a 1.016,1.883 13.34 0 1 0.155,-0.027 1.016,1.883 13.34 0 1 0.172,0.021 1.016,1.883 13.34 0 1 0.112,0.048 1.017,3.765 13.956 0 1 -0.326,1.848 1.017,3.765 13.956 0 1 -0.585,1.774 1.016,1.883 13.34 0 1 -0.118,-0.018 1.016,1.883 13.34 0 1 -0.195,-0.103 c -0.062,0.235 0.22,0.417 0.443,0.52 0.065,0.08 0.137,0.151 0.214,0.218 -0.002,0.155 0.002,0.303 0.022,0.429 0.126,0.81 -0.379,1.35 0,1.35 0.378,0 0.755,-0.539 0.756,-1.347 0.049,0.017 0.097,0.034 0.147,0.049 -0.023,0.292 -0.028,0.573 0.007,0.794 0.126,0.81 -0.379,1.35 0,1.35 0.378,0 0.757,-0.54 0.757,-1.35 V 8.21 c 0.07,0.009 0.141,0.017 0.214,0.023 -0.047,0.4 -0.07,0.81 -0.023,1.11 0.126,0.81 -0.379,1.35 0,1.35 0.378,0 0.757,-0.54 0.757,-1.35 V 8.27 l 0.24,0.003 c 0.082,0 0.162,-0.002 0.242,-0.003 v 1.075 c 0,0.81 0.378,1.35 0.757,1.35 0.378,0 -0.126,-0.54 0,-1.35 0.047,-0.3 0.024,-0.712 -0.023,-1.11 0.072,-0.007 0.143,-0.016 0.214,-0.024 v 0.647 c 0,0.81 0.378,1.35 0.757,1.35 0.378,0 -0.127,-0.54 0,-1.35 0.034,-0.22 0.03,-0.502 0.006,-0.794 0.05,-0.015 0.098,-0.032 0.147,-0.049 0,0.808 0.379,1.346 0.757,1.346 0.378,0 -0.127,-0.54 0,-1.35 0.02,-0.125 0.023,-0.273 0.022,-0.428 0.076,-0.066 0.148,-0.137 0.212,-0.216 0.224,-0.103 0.51,-0.286 0.447,-0.522 a 1.883,1.016 76.66 0 1 -0.198,0.103 1.883,1.016 76.66 0 1 -0.117,0.018 3.765,1.017 76.044 0 1 -0.585,-1.774 3.765,1.017 76.044 0 1 -0.326,-1.848 1.883,1.016 76.66 0 1 0.111,-0.048 1.883,1.016 76.66 0 1 0.173,-0.02 1.883,1.016 76.66 0 1 0.171,0.032 c 0.01,-0.065 0.018,-0.124 0.018,-0.165 0,-0.328 -0.372,-0.357 -0.665,-0.33 a 3.386,3.386 0 0 0 -2.12,-0.75 z m 2.766,1.246 a 3.73,3.73 0 0 1 -0.024,0.136 c 0.28,0.364 0.495,0.786 0.632,1.246 -0.178,-0.001 -0.221,-0.06 -0.373,-0.093 -0.214,-0.045 -0.616,0.382 -0.268,0.318 0.311,-0.058 0.426,0.408 0.786,0.502 0.015,0.14 0.024,0.281 0.024,0.425 0,0.314 -0.035,0.588 -0.102,0.828 0.03,0.04 0.057,0.078 0.072,0.107 0.013,0.023 0.018,0.045 0.024,0.068 A 1.883,1.016 76.66 0 0 10.159008,4.841 1.883,1.016 76.66 0 0 9.0660079,3.307 Z m -6.301,3.537 c 0.006,-0.023 0.01,-0.045 0.023,-0.068 a 0.881,0.881 0 0 1 0.071,-0.105 3.064,3.064 0 0 1 -0.103,-0.83 c 0,-0.144 0.01,-0.285 0.025,-0.425 0.36,-0.094 0.475,-0.56 0.786,-0.502 0.348,0.064 -0.054,-0.363 -0.269,-0.318 -0.151,0.032 -0.194,0.092 -0.372,0.093 0.14,-0.467 0.359,-0.896 0.645,-1.264 a 3.578,3.578 0 0 1 -0.02,-0.124 1.016,1.883 13.34 0 0 -1.11,1.54 1.016,1.883 13.34 0 0 0.324,2.003 z m 3.555,-4.504 c 0.368,0 0.718,0.077 1.039,0.215 a 0.525,0.525 0 0 1 -0.043,0.188 c -0.149,0.332 -0.618,0.553 -0.834,0.444 -0.2,-0.102 -0.3,-0.52 -0.195,-0.846 z m -0.185,0.01 c 0.041,0.19 0.037,0.389 -0.04,0.531 -0.167,0.314 -0.634,0.288 -0.902,0.124 a 0.545,0.545 0 0 1 -0.243,-0.277 2.63,2.63 0 0 1 1.185,-0.377 z m 1.31,0.488 c 0.097,0 0.014,0.128 0.014,0.22 0,0.092 0.033,0.407 -0.063,0.407 -0.097,0 -0.3,-0.234 -0.3,-0.326 0,-0.093 0.253,-0.301 0.35,-0.301 z m -2.105,0.284 a 0.124,0.124 0 0 1 0.052,0.016 c 0.126,0.073 0.009,0.343 -0.04,0.439 -0.05,0.096 -0.16,0.261 -0.286,0.188 -0.127,-0.073 -0.123,-0.324 -0.074,-0.42 0.042,-0.084 0.22,-0.235 0.348,-0.223 z m 0.778,0.033 c 0.14,-0.002 0.261,0.043 0.315,0.167 0.108,0.247 -0.167,0.74 -0.43,0.87 -0.263,0.131 -0.414,0.037 -0.522,-0.21 -0.108,-0.247 -0.057,-0.58 0.206,-0.711 a 1.06,1.06 0 0 1 0.431,-0.116 z m 0.748,0.111 c 0.17,-0.015 0.314,0.097 0.408,0.285 0.125,0.25 0.163,0.674 -0.084,0.814 -0.247,0.14 -0.586,0.011 -0.71,-0.239 -0.126,-0.25 -0.039,-0.66 0.208,-0.8 a 0.44,0.44 0 0 1 0.178,-0.06 z m 0.704,0.377 c 0.143,-0.01 0.265,0.205 0.272,0.314 0.006,0.11 -0.093,0.392 -0.237,0.402 -0.143,0.009 -0.177,-0.286 -0.184,-0.395 -0.006,-0.11 0.005,-0.312 0.149,-0.321 z m -1.39,0.572 a 0.314,0.314 0 0 1 0.18,0.057 c 0.218,0.154 0.17,0.483 0.044,0.686 -0.126,0.203 -0.467,0.23 -0.686,0.075 -0.22,-0.154 -0.157,-0.324 -0.032,-0.527 0.094,-0.152 0.303,-0.294 0.494,-0.291 z m -0.652,0.05 c 0.078,0 0.092,0.063 0.092,0.174 0,0.11 -0.076,0.16 -0.155,0.16 -0.078,0 -0.13,-0.05 -0.13,-0.16 0,-0.11 0.115,-0.174 0.193,-0.174 z m 1.248,0.24 c 0.121,0 0.332,0.126 0.332,0.28 0,0.155 -0.161,0.281 -0.282,0.281 -0.12,0 -0.28,-0.005 -0.28,-0.16 0,-0.155 0.11,-0.4 0.23,-0.4 z"
     id="path2"
     inkscape:connector-curvature="0"
     style="fill:#bde6fb;fill-opacity:1;stroke-width:3.78" />
</svg>
