<?xml version="1.0" encoding="UTF-8" standalone="no"?>
<svg
   width="47.542679"
   height="47.546455"
   viewBox="0 0 12.579 12.58"
   version="1.1"
   id="svg6"
   sodipodi:docname="cutycapt.svg"
   inkscape:version="0.92.5 (2060ec1f9f, 2020-04-08)"
   xmlns:inkscape="http://www.inkscape.org/namespaces/inkscape"
   xmlns:sodipodi="http://sodipodi.sourceforge.net/DTD/sodipodi-0.dtd"
   xmlns="http://www.w3.org/2000/svg"
   xmlns:svg="http://www.w3.org/2000/svg"
   xmlns:rdf="http://www.w3.org/1999/02/22-rdf-syntax-ns#"
   xmlns:cc="http://creativecommons.org/ns#"
   xmlns:dc="http://purl.org/dc/elements/1.1/">
  <metadata
     id="metadata12">
    <rdf:RDF>
      <cc:Work
         rdf:about="">
        <dc:format>image/svg+xml</dc:format>
        <dc:type
           rdf:resource="http://purl.org/dc/dcmitype/StillImage" />
        <dc:title />
      </cc:Work>
    </rdf:RDF>
  </metadata>
  <defs
     id="defs10" />
  <sodipodi:namedview
     pagecolor="#ffffff"
     bordercolor="#666666"
     borderopacity="1"
     objecttolerance="10"
     gridtolerance="10"
     guidetolerance="10"
     inkscape:pageopacity="0"
     inkscape:pageshadow="2"
     inkscape:window-width="1085"
     inkscape:window-height="480"
     id="namedview8"
     showgrid="false"
     inkscape:zoom="4.9166667"
     inkscape:cx="2.1355932"
     inkscape:cy="24"
     inkscape:window-x="0"
     inkscape:window-y="25"
     inkscape:window-maximized="0"
     inkscape:current-layer="svg6"
     inkscape:showpageshadow="0"
     inkscape:pagecheckerboard="0"
     inkscape:deskcolor="#d1d1d1" />
  <path
     d="M 6.285,0 A 6.295,6.295 0 0 0 0,6.285 6.295,6.295 0 0 0 6.285,12.58 6.295,6.295 0 0 0 12.579,6.285 6.295,6.295 0 0 0 6.285,0 Z M 6.274,0.94 a 5.408,5.408 0 0 1 5.397,5.387 5.407,5.407 0 0 1 -10.814,0 C 0.857,3.34 3.287,0.94 6.274,0.94 Z m 0.96,1.356 c -0.337,0 -0.682,0.013 -0.746,0.016 H 3.477 a 0.487,0.487 0 0 0 -0.093,0 0.513,0.513 0 0 0 -0.404,0.497 v 6.949 c 0,0.26 0.237,0.497 0.497,0.497 H 5.31 c 0.449,0.492 1.07,0.82 1.752,0.891 0.16,0.016 0.448,0.014 0.613,-0.005 a 2.744,2.744 0 0 0 1.21,-0.443 2.79,2.79 0 0 0 1.217,-1.95 c 0.02,-0.14 0.02,-0.571 0,-0.71 a 2.815,2.815 0 0 0 -0.5,-1.26 V 5.424 C 9.605,5.292 9.638,3.78 9.545,3.686 L 7.955,2.35 C 7.908,2.304 7.575,2.294 7.236,2.296 Z m 0.249,0.511 0.021,1.24 C 7.506,4.16 7.61,4.262 7.721,4.259 L 9.009,4.237 h 0.066 l 0.013,0.5 0.017,0.677 V 6.251 A 2.737,2.737 0 0 0 7.311,5.627 2.752,2.752 0 0 0 4.729,7.515 2.601,2.601 0 0 0 4.59,8.392 2.721,2.721 0 0 0 4.949,9.758 H 3.477 V 2.809 h 3.09 z M 7.365,6.704 c 0.005,0 0.04,0.132 0.08,0.293 C 7.523,7.317 7.546,7.402 7.56,7.42 7.565,7.427 7.6,7.443 7.636,7.457 7.726,7.49 7.801,7.539 7.874,7.584 L 8.773,6.974 8.144,7.889 C 8.188,7.957 8.257,8.011 8.286,8.093 L 8.327,8.207 C 8.33,8.211 8.386,8.224 8.861,8.337 8.967,8.362 9.049,8.386 9.044,8.391 A 8.433,8.433 0 0 1 8.462,8.536 C 8.327,8.568 8.334,8.561 8.285,8.693 A 0.96,0.96 0 0 1 8.183,8.898 0.089,0.089 0 0 1 8.163,8.917 1.33,1.33 0 0 1 8.095,8.825 L 8.029,8.734 8.064,8.629 A 0.558,0.558 0 0 0 8.099,8.389 0.605,0.605 0 0 0 8.022,8.067 L 7.614,8.661 7.087,8.118 7.653,7.733 C 7.628,7.721 7.616,7.689 7.59,7.68 A 0.864,0.864 0 0 0 7.178,7.67 L 7.083,7.692 7.027,7.644 C 6.934,7.564 6.912,7.541 6.918,7.531 A 0.711,0.711 0 0 1 7.04,7.477 C 7.103,7.452 7.163,7.427 7.172,7.42 7.187,7.408 7.216,7.297 7.347,6.749 7.353,6.724 7.361,6.703 7.365,6.703 Z M 6.54,7.882 6.566,7.913 6.641,8.007 6.689,8.068 6.661,8.158 A 0.715,0.715 0 0 0 6.706,8.666 L 7.07,8.136 7.597,8.678 7.063,9.041 c 0.035,0.017 0.068,0.05 0.099,0.058 0.12,0.033 0.348,0.03 0.435,-0.005 0.04,-0.016 0.048,-0.016 0.075,-0.002 0.05,0.027 0.159,0.131 0.15,0.144 A 0.755,0.755 0 0 1 7.688,9.298 C 7.581,9.339 7.558,9.352 7.548,9.377 A 8.305,8.305 0 0 0 7.461,9.733 L 7.378,10.088 C 7.37,10.12 7.381,10.157 7.268,9.703 A 3.212,3.212 0 0 0 7.17,9.353 0.397,0.397 0 0 0 7.085,9.314 1.234,1.234 0 0 1 6.845,9.19 L 6.008,9.758 H 5.955 L 6.565,8.87 C 6.536,8.824 6.483,8.788 6.466,8.743 6.416,8.608 6.4,8.576 6.379,8.569 L 6.022,8.483 A 5.084,5.084 0 0 1 5.675,8.393 2.982,2.982 0 0 1 6.023,8.299 C 6.257,8.243 6.385,8.207 6.395,8.196 A 0.92,0.92 0 0 0 6.455,8.059 C 6.481,7.994 6.51,7.928 6.52,7.912 Z"
     id="path2"
     inkscape:connector-curvature="0"
     style="fill:#bde6fb;fill-opacity:1" />
  <path
     d="M 7.614,8.662 8.773,6.974 7.087,8.119 Z"
     id="path4"
     inkscape:connector-curvature="0"
     style="opacity:0.75;fill:#fd4747;fill-opacity:0.996;stroke:#dc4545;stroke-width:0.026" />
</svg>
