<?xml version="1.0" encoding="UTF-8" standalone="no"?>
<svg
   width="47.542679"
   height="47.546455"
   viewBox="0 0 12.579 12.58"
   version="1.1"
   id="svg6"
   sodipodi:docname="dbeaver.svg"
   inkscape:version="0.92.5 (2060ec1f9f, 2020-04-08)"
   xmlns:inkscape="http://www.inkscape.org/namespaces/inkscape"
   xmlns:sodipodi="http://sodipodi.sourceforge.net/DTD/sodipodi-0.dtd"
   xmlns="http://www.w3.org/2000/svg"
   xmlns:svg="http://www.w3.org/2000/svg"
   xmlns:rdf="http://www.w3.org/1999/02/22-rdf-syntax-ns#"
   xmlns:cc="http://creativecommons.org/ns#"
   xmlns:dc="http://purl.org/dc/elements/1.1/">
  <metadata
     id="metadata12">
    <rdf:RDF>
      <cc:Work
         rdf:about="">
        <dc:format>image/svg+xml</dc:format>
        <dc:type
           rdf:resource="http://purl.org/dc/dcmitype/StillImage" />
        <dc:title />
      </cc:Work>
    </rdf:RDF>
  </metadata>
  <defs
     id="defs10" />
  <sodipodi:namedview
     pagecolor="#ffffff"
     bordercolor="#666666"
     borderopacity="1"
     objecttolerance="10"
     gridtolerance="10"
     guidetolerance="10"
     inkscape:pageopacity="0"
     inkscape:pageshadow="2"
     inkscape:window-width="1085"
     inkscape:window-height="480"
     id="namedview8"
     showgrid="false"
     inkscape:zoom="4.9166667"
     inkscape:cx="2.1355932"
     inkscape:cy="24"
     inkscape:window-x="0"
     inkscape:window-y="25"
     inkscape:window-maximized="0"
     inkscape:current-layer="svg6"
     inkscape:showpageshadow="0"
     inkscape:pagecheckerboard="0"
     inkscape:deskcolor="#d1d1d1" />
  <path
     d="M 6.285,0 A 6.295,6.295 0 0 0 0,6.285 6.295,6.295 0 0 0 6.285,12.58 6.295,6.295 0 0 0 12.579,6.285 6.295,6.295 0 0 0 6.285,0 Z M 6.274,0.94 a 5.408,5.408 0 0 1 5.397,5.387 5.407,5.407 0 0 1 -10.814,0 C 0.857,3.34 3.287,0.94 6.274,0.94 Z M 7.659,2.057 A 1.254,1.254 0 0 0 7.234,2.103 C 6.978,2.189 6.531,2.519 6.242,2.833 L 5.96,3.141 H 5.71 C 5.533,3.141 5.447,3.161 5.42,3.205 5.344,3.325 5.376,3.646 5.486,3.886 5.63,4.198 5.606,4.316 5.251,5.01 5.093,5.32 4.941,5.649 4.912,5.743 a 0.948,0.948 0 0 1 -0.078,0.2 C 4.819,5.96 4.813,5.624 4.82,5.197 4.85,3.373 4.54,2.679 3.635,2.543 A 1.083,1.083 0 0 0 2.528,3.128 C 2.051,4.112 2.322,5.76 3.272,7.639 c 0.812,1.607 1.685,2.527 2.656,2.798 0.104,0.03 0.423,0.054 0.71,0.057 0.473,0.003 0.537,-0.006 0.727,-0.103 0.242,-0.124 0.423,-0.134 0.682,-0.038 0.236,0.087 0.654,0.083 0.88,-0.008 C 9.204,10.233 9.278,9.983 9.082,9.819 8.98,9.733 8.996,9.311 9.124,8.721 9.222,8.271 9.231,8.157 9.21,7.662 9.18,7.012 9.068,6.402 8.906,6.017 8.74,5.623 8.752,5.474 8.991,4.958 9.151,4.614 9.198,4.461 9.214,4.236 L 9.234,3.952 9.12,4.175 A 1.03,1.03 0 0 1 8.89,4.483 L 8.772,4.568 8.786,4.26 8.801,3.952 8.711,4.237 A 1.538,1.538 0 0 1 8.506,4.663 C 8.397,4.794 8.371,4.804 8.141,4.803 7.859,4.8 7.48,4.639 7.141,4.378 A 1.528,1.528 0 0 0 6.943,4.238 c 0,0.006 0.038,0.134 0.084,0.283 C 7.154,4.928 7.139,5.047 6.9,5.529 6.618,6.099 6.544,6.409 6.579,6.873 6.609,7.268 6.665,7.513 6.827,7.939 7.072,8.582 7.066,8.913 6.81,8.861 6.523,8.803 5.898,8.259 5.639,7.841 L 5.512,7.635 5.46,7.883 C 5.39,8.223 5.434,8.809 5.567,9.3 5.627,9.52 5.667,9.708 5.658,9.717 5.649,9.727 5.554,9.633 5.446,9.509 5.197,9.222 4.979,8.775 4.865,8.319 4.742,7.831 4.77,7.009 4.931,6.391 5.056,5.91 5.478,4.799 5.571,4.702 5.581,4.692 5.629,4.722 5.68,4.766 5.77,4.847 5.77,4.846 5.722,4.754 5.515,4.356 5.907,3.359 6.518,2.732 6.991,2.246 7.49,2.073 8.084,2.189 L 8.232,2.219 8.062,2.137 A 1.114,1.114 0 0 0 7.659,2.057 Z M 7.095,2.7 A 0.197,0.197 0 0 0 6.924,2.76 C 6.844,2.84 6.845,2.834 6.906,3.04 L 6.956,3.204 7.092,3.119 C 7.168,3.072 7.302,3.008 7.391,2.977 L 7.551,2.921 7.36,2.808 A 0.706,0.706 0 0 0 7.095,2.7 Z M 8.844,2.759 C 8.558,2.743 7.996,2.912 7.943,3.052 7.903,3.159 8.074,3.364 8.3,3.477 8.423,3.539 8.558,3.589 8.601,3.589 8.708,3.589 8.875,3.412 8.973,3.195 9.088,2.941 9.08,2.829 8.947,2.778 A 0.35,0.35 0 0 0 8.844,2.758 Z M 8.87,4.649 C 8.902,4.657 8.878,4.757 8.802,4.977 8.696,5.288 8.602,5.437 8.528,5.407 8.498,5.396 8.461,5.413 8.448,5.447 8.415,5.535 8.18,5.525 8.133,5.434 A 1.097,1.097 0 0 1 8.073,5.157 L 8.052,4.954 H 8.196 C 8.378,4.954 8.574,4.872 8.75,4.722 8.812,4.67 8.85,4.642 8.87,4.648 Z"
     id="path2"
     inkscape:connector-curvature="0"
     style="fill:#bde6fb;fill-opacity:1" />
  <path
     d="M 5.867,10.433 C 4.92,10.171 4.051,9.233 3.237,7.598 2.55,6.215 2.256,5.118 2.303,4.106 2.341,3.278 2.573,2.821 3.059,2.609 3.333,2.491 3.722,2.506 4.046,2.649 4.419,2.813 4.555,3.004 4.709,3.582 4.782,3.854 4.8,4.079 4.819,4.912 L 4.839,5.913 4.912,5.7 C 4.992,5.467 5.289,4.856 5.44,4.615 5.582,4.387 5.594,4.164 5.477,3.909 A 1.08,1.08 0 0 1 5.378,3.475 C 5.378,3.132 5.388,3.12 5.71,3.118 L 5.99,3.115 6.15,2.905 C 6.345,2.646 6.711,2.35 7.044,2.181 7.258,2.072 7.341,2.054 7.615,2.056 7.877,2.057 7.971,2.078 8.126,2.165 8.231,2.224 8.278,2.26 8.232,2.245 7.631,2.055 7.105,2.196 6.589,2.688 5.956,3.292 5.524,4.325 5.733,4.733 5.813,4.89 5.796,4.906 5.679,4.779 L 5.596,4.689 5.513,4.853 A 10.285,10.285 0 0 0 4.927,6.468 C 4.828,6.865 4.81,7.029 4.809,7.534 4.807,8.173 4.877,8.514 5.103,8.962 5.216,9.186 5.511,9.601 5.558,9.602 5.576,9.602 5.533,9.488 5.463,9.348 4.903,8.23 4.979,6.758 5.673,5.268 5.813,4.963 5.854,4.908 5.916,4.934 6.042,4.988 6.477,5.011 6.477,4.964 6.477,4.94 6.414,4.909 6.337,4.894 5.852,4.803 5.925,4.364 6.537,3.687 6.937,3.244 6.947,3.224 6.889,3.005 6.804,2.684 7.011,2.601 7.394,2.802 7.59,2.904 7.618,2.907 7.937,2.868 8.123,2.844 8.398,2.802 8.55,2.774 8.702,2.746 8.878,2.735 8.941,2.751 c 0.102,0.026 0.115,0.05 0.115,0.2 0,0.095 0.04,0.291 0.09,0.437 0.073,0.22 0.085,0.342 0.072,0.713 -0.015,0.43 -0.024,0.465 -0.215,0.877 -0.123,0.264 -0.2,0.488 -0.2,0.583 0,0.085 0.057,0.298 0.127,0.474 0.297,0.749 0.376,1.905 0.19,2.774 -0.14,0.657 -0.14,0.874 0.007,1.05 0.092,0.11 0.106,0.154 0.074,0.244 -0.059,0.167 -0.227,0.267 -0.538,0.32 -0.254,0.045 -0.31,0.04 -0.57,-0.044 C 7.725,10.259 7.642,10.261 7.399,10.391 7.214,10.491 7.16,10.498 6.638,10.494 6.308,10.492 5.989,10.466 5.867,10.433 Z M 8.387,5.455 A 0.596,0.596 0 0 0 8.504,5.316 C 8.551,5.236 8.552,5.236 8.527,5.327 8.488,5.471 8.578,5.444 8.658,5.288 8.756,5.098 8.892,4.688 8.866,4.662 8.854,4.65 8.792,4.69 8.728,4.752 A 0.694,0.694 0 0 1 8.224,4.954 h -0.15 l 0.02,0.212 C 8.122,5.471 8.233,5.58 8.388,5.455 Z"
     id="path4"
     inkscape:connector-curvature="0"
     style="opacity:0.5;fill:#bde6fb;fill-opacity:1" />
</svg>
