<?xml version="1.0" encoding="UTF-8" standalone="no"?>
<svg
   width="47.546486"
   height="47.546486"
   viewBox="0 0 12.580008 12.580008"
   version="1.1"
   id="svg6"
   sodipodi:docname="dbpwaudit.svg"
   inkscape:version="0.92.5 (2060ec1f9f, 2020-04-08)"
   xmlns:inkscape="http://www.inkscape.org/namespaces/inkscape"
   xmlns:sodipodi="http://sodipodi.sourceforge.net/DTD/sodipodi-0.dtd"
   xmlns="http://www.w3.org/2000/svg"
   xmlns:svg="http://www.w3.org/2000/svg"
   xmlns:rdf="http://www.w3.org/1999/02/22-rdf-syntax-ns#"
   xmlns:cc="http://creativecommons.org/ns#"
   xmlns:dc="http://purl.org/dc/elements/1.1/">
  <metadata
     id="metadata12">
    <rdf:RDF>
      <cc:Work
         rdf:about="">
        <dc:format>image/svg+xml</dc:format>
        <dc:type
           rdf:resource="http://purl.org/dc/dcmitype/StillImage" />
        <dc:title />
      </cc:Work>
    </rdf:RDF>
  </metadata>
  <defs
     id="defs10" />
  <sodipodi:namedview
     pagecolor="#ffffff"
     bordercolor="#666666"
     borderopacity="1"
     objecttolerance="10"
     gridtolerance="10"
     guidetolerance="10"
     inkscape:pageopacity="0"
     inkscape:pageshadow="2"
     inkscape:window-width="1085"
     inkscape:window-height="480"
     id="namedview8"
     showgrid="false"
     inkscape:zoom="4.9166667"
     inkscape:cx="2.1355932"
     inkscape:cy="24"
     inkscape:window-x="0"
     inkscape:window-y="25"
     inkscape:window-maximized="0"
     inkscape:current-layer="svg6"
     inkscape:showpageshadow="0"
     inkscape:pagecheckerboard="0"
     inkscape:deskcolor="#d1d1d1" />
  <path
     d="M 6.2900079,0 A 6.29,6.29 0 0 0 7.9490244e-6,6.3 6.29,6.29 0 0 0 6.3000079,12.58 6.29,6.29 0 0 0 12.580008,6.29 6.29,6.29 0 0 0 6.2900079,0 Z m -0.02,0.93 0.01,0.01 A 5.4,5.4 0 0 1 11.641008,5.75 H 9.2540079 l 0.01,-0.748 -0.785,-0.01 h -0.365 v -0.73 a 1.825,1.825 0 0 0 -1.836,-1.837 h -0.01 a 1.825,1.825 0 0 0 -1.826,1.826 v 0.74 h -1.106 v 0.76 H 0.90300795 A 5.4,5.4 0 0 1 6.2700079,0.93 Z m 0.008,2.182 c 0.623,0 1.139,0.516 1.139,1.15 v 0.73 h -2.267 v -0.73 c 0,-0.623 0.494,-1.139 1.127,-1.15 z M 0.87300795,6.28 H 11.678008 a 5.4,5.4 0 0 1 0.002,0.06 5.4,5.4 0 0 1 -0.405,2.057 H 1.2770079 A 5.4,5.4 0 0 1 0.87000795,6.35 a 5.4,5.4 0 0 1 0.003,-0.07 z M 2.6170079,6.468 v 0.618 l -0.622,-0.184 -0.106,0.368 0.628,0.176 -0.4,0.54 0.313,0.223 0.38,-0.54 0.37,0.535 0.318,-0.218 a 50.568,50.568 0 0 1 -0.377,-0.54 l 0.585,-0.168 -0.1,-0.368 -0.605,0.174 V 6.468 Z m 2.335,0 v 0.618 l -0.622,-0.184 -0.106,0.368 0.628,0.176 -0.4,0.54 0.313,0.223 0.379,-0.54 0.37,0.535 0.318,-0.218 a 50.618,50.618 0 0 1 -0.376,-0.54 l 0.585,-0.168 -0.1,-0.368 -0.605,0.174 V 6.468 Z m 2.335,0 v 0.618 l -0.622,-0.184 -0.106,0.368 0.627,0.176 -0.399,0.54 0.312,0.223 0.38,-0.54 0.37,0.535 0.318,-0.218 a 50.602,50.602 0 0 1 -0.377,-0.54 l 0.586,-0.168 -0.1,-0.368 -0.605,0.174 V 6.468 Z m 2.334,0 v 0.618 l -0.622,-0.184 -0.105,0.368 0.626,0.176 -0.398,0.54 0.312,0.223 0.379,-0.54 0.3700001,0.535 0.318,-0.218 a 50.582,50.582 0 0 1 -0.376,-0.54 l 0.586,-0.168 -0.101,-0.368 -0.605,0.174 V 6.468 Z m -8.091,2.458 h 1.806 v 0.468 c 0,0.419 0.323,0.74 0.741,0.74 h 4.403 c 0.408,0 0.73,-0.321 0.73,-0.74 l 0.006,-0.468 h 1.8100001 a 5.4,5.4 0 0 1 -4.7460001,2.824 5.4,5.4 0 0 1 -4.75,-2.824 z"
     id="path2"
     inkscape:connector-curvature="0"
     style="fill:#bde6fb;fill-opacity:1" />
</svg>
