<?xml version="1.0" encoding="UTF-8" standalone="no"?>
<svg
   width="47.546486"
   height="47.546486"
   viewBox="0 0 12.580008 12.580008"
   version="1.1"
   id="svg4"
   sodipodi:docname="debian-logo.svg"
   inkscape:version="0.92.4 (5da689c313, 2019-01-14)"
   xmlns:inkscape="http://www.inkscape.org/namespaces/inkscape"
   xmlns:sodipodi="http://sodipodi.sourceforge.net/DTD/sodipodi-0.dtd"
   xmlns="http://www.w3.org/2000/svg"
   xmlns:svg="http://www.w3.org/2000/svg"
   xmlns:rdf="http://www.w3.org/1999/02/22-rdf-syntax-ns#"
   xmlns:cc="http://creativecommons.org/ns#"
   xmlns:dc="http://purl.org/dc/elements/1.1/">
  <metadata
     id="metadata10">
    <rdf:RDF>
      <cc:Work
         rdf:about="">
        <dc:format>image/svg+xml</dc:format>
        <dc:type
           rdf:resource="http://purl.org/dc/dcmitype/StillImage" />
        <dc:title />
      </cc:Work>
    </rdf:RDF>
  </metadata>
  <defs
     id="defs8" />
  <sodipodi:namedview
     pagecolor="#ffffff"
     bordercolor="#666666"
     borderopacity="1"
     objecttolerance="10"
     gridtolerance="10"
     guidetolerance="10"
     inkscape:pageopacity="0"
     inkscape:pageshadow="2"
     inkscape:window-width="1087"
     inkscape:window-height="480"
     id="namedview6"
     showgrid="false"
     inkscape:zoom="4.9166667"
     inkscape:cx="2.1355932"
     inkscape:cy="24"
     inkscape:window-x="0"
     inkscape:window-y="25"
     inkscape:window-maximized="0"
     inkscape:current-layer="svg4"
     inkscape:showpageshadow="0"
     inkscape:pagecheckerboard="0"
     inkscape:deskcolor="#d1d1d1" />
  <path
     d="M 6.2900079,0 A 6.29,6.29 0 0 0 7.9490244e-6,6.3 6.29,6.29 0 0 0 6.3000079,12.58 6.29,6.29 0 0 0 12.580008,6.29 6.29,6.29 0 0 0 6.2900079,0 Z m -0.01,0.94 A 5.4,5.4 0 0 1 11.680008,6.34 5.4,5.4 0 0 1 6.2800079,11.75 5.4,5.4 0 0 1 0.87000795,6.35 5.4,5.4 0 0 1 6.2700079,0.93 Z m 0.55,0.77 -0.42,0.03 0.06,0.01 c 0.1,-0.04 0.25,-0.02 0.36,-0.04 z m -0.62,0.06 c -0.23,0.01 -0.55,0.14 -0.45,0.03 -0.37,0.16 -1.04,0.4 -1.42,0.75 V 2.47 c -0.18,0.2 -0.76,0.62 -0.8,0.88 l -0.05,0.02 c -0.09,0.15 -0.14,0.32 -0.22,0.47 -0.11,0.2 -0.17,0.08 -0.15,0.11 -0.23,0.47 -0.34,0.86 -0.44,1.18 0.07,0.1 0,0.63 0.03,1.05 a 4.7,4.7 0 0 0 3.18,4.58 c 0.26,0.09 0.63,0.08 0.95,0.1 -0.38,-0.11 -0.42,-0.06 -0.8,-0.2 -0.26,-0.12 -0.32,-0.26 -0.5,-0.42 l 0.07,0.13 c -0.37,-0.13 -0.21,-0.16 -0.51,-0.26 l 0.08,-0.1 c -0.12,0 -0.32,-0.2 -0.37,-0.3 h -0.13 c -0.16,-0.2 -0.24,-0.33 -0.24,-0.44 l -0.04,0.07 c -0.05,-0.08 -0.58,-0.72 -0.3,-0.57 -0.05,-0.05 -0.12,-0.08 -0.2,-0.21 l 0.06,-0.07 c -0.13,-0.17 -0.24,-0.39 -0.23,-0.46 0.07,0.1 0.12,0.11 0.16,0.13 -0.33,-0.83 -0.35,-0.04 -0.6,-0.84 h 0.05 l -0.1,-0.2 0.03,-0.23 c -0.24,-0.28 -0.07,-1.18 -0.04,-1.68 0.03,-0.2 0.2,-0.42 0.34,-0.75 l -0.08,-0.02 c 0.15,-0.27 0.9,-1.1 1.23,-1.05 0.17,-0.2 -0.03,0 -0.06,-0.05 0.36,-0.38 0.47,-0.27 0.72,-0.34 0.26,-0.15 -0.23,0.07 -0.1,-0.06 0.45,-0.11 0.32,-0.26 0.92,-0.32 0.06,0.04 -0.15,0.06 -0.2,0.1 0.38,-0.18 1.2,-0.14 1.74,0.1 0.62,0.3 1.32,1.15 1.34,1.96 h 0.03 c -0.01,0.33 0.05,0.7 -0.06,1.04 l 0.08,-0.16 c 0,0.24 -0.07,0.36 -0.15,0.57 l -0.13,0.07 c -0.1,0.2 0.01,0.13 -0.06,0.3 -0.17,0.15 -0.51,0.46 -0.62,0.5 -0.08,-0.01 0.05,-0.1 0.07,-0.14 -0.22,0.15 -0.18,0.23 -0.52,0.33 l -0.01,-0.03 c -0.85,0.4 -2.02,-0.39 -2,-1.46 -0.02,0.07 -0.03,0.05 -0.05,0.08 -0.04,-0.56 0.25,-1.11 0.76,-1.34 0.5,-0.24 1.07,-0.14 1.42,0.19 -0.19,-0.26 -0.58,-0.53 -1.03,-0.5 -0.45,0 -0.87,0.29 -1.01,0.6 -0.23,0.14 -0.26,0.56 -0.36,0.63 -0.13,1 0.25,1.42 0.91,1.92 0.05,0.04 0.06,0.06 0.06,0.08 0.77,0.29 1.57,0.22 2.24,-0.32 0.17,-0.13 0.36,-0.36 0.41,-0.36 -0.08,0.12 0.02,0.06 -0.05,0.16 0.17,-0.27 -0.07,-0.1 0.18,-0.47 l 0.1,0.13 c -0.04,-0.23 0.27,-0.5 0.24,-0.87 0.07,-0.1 0.08,0.12 0,0.37 0.11,-0.28 0.03,-0.32 0.06,-0.55 l 0.09,0.24 c -0.07,-0.27 0.07,-0.46 0.1,-0.61 -0.03,-0.02 -0.1,0.12 -0.12,-0.2 0,-0.14 0.04,-0.08 0.05,-0.11 -0.02,-0.02 -0.1,-0.12 -0.14,-0.33 0.03,-0.05 0.09,0.13 0.13,0.13 -0.03,-0.16 -0.08,-0.28 -0.08,-0.41 -0.12,-0.26 -0.04,0.04 -0.14,-0.11 -0.14,-0.42 0.1,-0.1 0.12,-0.29 0.2,0.3 0.32,0.75 0.37,0.94 -0.04,-0.23 -0.1,-0.45 -0.18,-0.67 0.06,0.03 -0.1,-0.47 0.08,-0.14 -0.2,-0.7 -0.82,-1.36 -1.4,-1.67 0.07,0.06 0.16,0.14 0.13,0.16 -0.29,-0.18 -0.24,-0.19 -0.28,-0.26 -0.23,-0.1 -0.25,0 -0.4,0 -0.44,-0.24 -0.53,-0.21 -0.93,-0.36 l 0.01,0.09 c -0.29,-0.1 -0.34,0.04 -0.65,0 -0.02,-0.02 0.1,-0.05 0.2,-0.07 -0.28,0.04 -0.27,-0.05 -0.55,0.01 z m 0.23,0.05 c 0.08,0.02 0.18,0.03 0.16,0.05 0.1,-0.02 0.11,-0.04 -0.16,-0.05 z m 0.16,0.05 -0.05,0.01 h 0.05 z m -3.73,1.8 c 0.03,0.21 -0.16,0.3 0.05,0.15 0.1,-0.25 -0.05,-0.06 -0.05,-0.15 z m -0.16,0.69 c -0.14,0.17 -0.06,0.2 -0.08,0.32 0.05,-0.15 0.06,-0.24 0.08,-0.32 z m 5.4,1.01 c -0.02,0 -0.04,0.05 -0.06,0.1 0.03,0.02 0.05,0.2 0.08,0.08 0.01,-0.13 0,-0.18 -0.02,-0.18 z m 1.66,0.46 -0.03,0.06 a 2.7,2.7 0 0 1 -0.26,0.84 c 0.15,-0.28 0.25,-0.59 0.29,-0.9 z m -1.76,0.1 c -0.02,0.1 -0.07,0.2 -0.13,0.28 -0.28,0.18 -0.02,-0.1 0,-0.21 -0.3,0.38 -0.04,0.23 -0.05,0.34 0.1,-0.13 0.16,-0.26 0.18,-0.4 z m -0.62,0.59 c -0.12,0.03 -0.25,0.03 -0.37,0.02 -0.15,0 0.03,0.08 0.22,0.1 z m -1.91,0.02 c 0.03,0.12 0.1,0.23 0.17,0.34 l -0.05,-0.14 c -0.06,-0.06 -0.09,-0.13 -0.12,-0.2 z m -0.12,0.2 -0.02,0.11 c 0.1,0.14 0.18,0.29 0.3,0.4 -0.08,-0.19 -0.15,-0.26 -0.28,-0.5 z m 0.2,0.17 c 0.35,0.63 1.43,1.1 2,0.87 -0.26,0.01 -0.6,0 -0.9,-0.1 -0.1,-0.06 -0.26,-0.18 -0.26,-0.22 v 0.06 c -0.22,-0.1 -0.42,-0.26 -0.59,-0.45 0.09,0.13 0.18,0.25 0.3,0.35 -0.2,-0.07 -0.48,-0.5 -0.56,-0.51 z"
     id="path2"
     inkscape:connector-curvature="0"
     style="fill:#bde6fb;fill-opacity:1" />
</svg>
