<?xml version="1.0" encoding="UTF-8" standalone="no"?>
<svg
   width="48"
   height="48"
   viewBox="0 0 12.7 12.7"
   version="1.1"
   id="svg4"
   sodipodi:docname="deepin-draw.svg"
   inkscape:version="0.92.5 (2060ec1f9f, 2020-04-08)"
   xmlns:inkscape="http://www.inkscape.org/namespaces/inkscape"
   xmlns:sodipodi="http://sodipodi.sourceforge.net/DTD/sodipodi-0.dtd"
   xmlns="http://www.w3.org/2000/svg"
   xmlns:svg="http://www.w3.org/2000/svg">
  <sodipodi:namedview
     id="namedview1"
     pagecolor="#505050"
     bordercolor="#eeeeee"
     borderopacity="1"
     inkscape:showpageshadow="0"
     inkscape:pageopacity="0"
     inkscape:pagecheckerboard="0"
     inkscape:deskcolor="#d1d1d1" />
  <defs
     id="defs8">
    <style
       id="current-color-scheme"
       type="text/css">&#10;      .ColorScheme-Highlight {&#10;        color:#1e3f5a;&#10;      }&#10;  </style>
  </defs>
  <path
     class="ColorScheme-Highlight"
     style="fill:#bde6fb;fill-opacity:1"
     d="M 6.3499996,0 A 6.3499999,6.3499999 0 0 0 0,6.3499999 6.3499999,6.3499999 0 0 0 6.3499996,12.7 6.3499999,6.3499999 0 0 0 12.7,6.3499999 6.3499999,6.3499999 0 0 0 6.3499996,0 Z m 0,0.79374999 A 5.5562499,5.5562499 0 0 1 11.90625,6.3499999 5.5562499,5.5562499 0 0 1 6.3499996,11.90625 5.5562499,5.5562499 0 0 1 0.7937496,6.3499999 5.5562499,5.5562499 0 0 1 6.3499996,0.79374999 Z m 0,1.32291661 c -2.4841317,0 -5.7623678,4.7622407 -3.7191528,4.2012939 C 9.2606353,4.4978097 -0.655639,10.132378 6.3499996,9.7895832 8.8311615,9.6681765 10.847917,8.0719424 10.847917,5.9531249 c 0,-2.1188174 -2.0137874,-3.8364583 -4.4979174,-3.8364583 z M 6.4822912,2.6458333 A 0.6614583,0.6614583 0 0 1 7.1437495,3.3072916 0.6614583,0.6614583 0 0 1 6.4822912,3.96875 0.6614583,0.6614583 0 0 1 5.8208328,3.3072916 0.6614583,0.6614583 0 0 1 6.4822912,2.6458333 Z m 1.8520833,0.79375 A 0.6614583,0.6614583 0 0 1 8.9958329,4.1010416 0.6614583,0.6614583 0 0 1 8.3343745,4.7624999 0.6614583,0.6614583 0 0 1 7.6729162,4.1010416 0.6614583,0.6614583 0 0 1 8.3343745,3.4395833 Z M 9.3927078,5.2916666 A 0.6614583,0.6614583 0 0 1 10.054167,5.9531249 0.6614583,0.6614583 0 0 1 9.3927078,6.6145833 0.6614583,0.6614583 0 0 1 8.7312495,5.9531249 0.6614583,0.6614583 0 0 1 9.3927078,5.2916666 Z M 5.6885412,7.4083332 A 0.92604166,0.92604166 0 0 1 6.6145829,8.3343749 0.92604166,0.92604166 0 0 1 5.6885412,9.2604166 0.92604166,0.92604166 0 0 1 4.7624995,8.3343749 0.92604166,0.92604166 0 0 1 5.6885412,7.4083332 Z"
     id="path828"
     inkscape:connector-curvature="0" />
</svg>
