<?xml version="1.0" encoding="UTF-8" standalone="no"?>
<svg
   width="47.546486"
   height="47.546486"
   viewBox="0 0 12.580008 12.580008"
   version="1.1"
   id="svg4"
   sodipodi:docname="desktop-environment-kde.svg"
   inkscape:version="0.92.4 (5da689c313, 2019-01-14)"
   xmlns:inkscape="http://www.inkscape.org/namespaces/inkscape"
   xmlns:sodipodi="http://sodipodi.sourceforge.net/DTD/sodipodi-0.dtd"
   xmlns="http://www.w3.org/2000/svg"
   xmlns:svg="http://www.w3.org/2000/svg"
   xmlns:rdf="http://www.w3.org/1999/02/22-rdf-syntax-ns#"
   xmlns:cc="http://creativecommons.org/ns#"
   xmlns:dc="http://purl.org/dc/elements/1.1/">
  <metadata
     id="metadata10">
    <rdf:RDF>
      <cc:Work
         rdf:about="">
        <dc:format>image/svg+xml</dc:format>
        <dc:type
           rdf:resource="http://purl.org/dc/dcmitype/StillImage" />
        <dc:title />
      </cc:Work>
    </rdf:RDF>
  </metadata>
  <defs
     id="defs8" />
  <sodipodi:namedview
     pagecolor="#ffffff"
     bordercolor="#666666"
     borderopacity="1"
     objecttolerance="10"
     gridtolerance="10"
     guidetolerance="10"
     inkscape:pageopacity="0"
     inkscape:pageshadow="2"
     inkscape:window-width="1087"
     inkscape:window-height="480"
     id="namedview6"
     showgrid="false"
     inkscape:zoom="4.9166667"
     inkscape:cx="2.1355932"
     inkscape:cy="24"
     inkscape:window-x="0"
     inkscape:window-y="25"
     inkscape:window-maximized="0"
     inkscape:current-layer="svg4"
     inkscape:showpageshadow="0"
     inkscape:pagecheckerboard="0"
     inkscape:deskcolor="#d1d1d1" />
  <path
     d="M 6.2900079,0 A 6.29,6.29 0 0 0 7.9490244e-6,6.3 6.29,6.29 0 0 0 6.3000079,12.58 6.29,6.29 0 0 0 12.580008,6.29 6.29,6.29 0 0 0 6.2900079,0 Z m -0.02,0.93 0.01,0.01 A 5.4,5.4 0 0 1 11.680008,6.34 5.4,5.4 0 0 1 6.2800079,11.75 5.4,5.4 0 0 1 0.87000795,6.35 5.4,5.4 0 0 1 6.2700079,0.93 Z m 0.028,1.551 h 0.007 z m 0,0 -1.242,0.124 v 5.29 l 1.242,-0.194 V 5.464 l 1.74,2.485 1.477,-0.497 -1.974,-2.237 1.989,-2.237 -1.491,-0.497 -1.74,2.485 V 2.482 Z m -2.808,1.493 a 0.07,0.07 0 0 0 -0.043,0.017 l -0.53,0.526 a 0.067,0.067 0 0 0 -0.009,0.083 l 0.564,0.925 c -0.133,0.215 -0.235,0.45 -0.304,0.7 l -1.04,0.214 a 0.071,0.071 0 0 0 -0.055,0.07 v 0.743 a 0.07,0.07 0 0 0 0.055,0.066 l 1.008,0.243 c 0.064,0.28 0.171,0.544 0.314,0.784 l -0.588,0.89 a 0.068,0.068 0 0 0 0.009,0.085 l 0.53,0.526 a 0.068,0.068 0 0 0 0.083,0.009 l 0.918,-0.554 c 0.227,0.136 0.474,0.24 0.737,0.305 l 0.214,1.024 a 0.067,0.067 0 0 0 0.066,0.054 h 0.75 a 0.068,0.068 0 0 0 0.065,-0.051 l 0.255,-1.03 c 0.265,-0.069 0.512,-0.18 0.74,-0.32 l 0.921,0.6 a 0.069,0.069 0 0 0 0.086,-0.008 l 0.527,-0.526 a 0.068,0.068 0 0 0 0.011,-0.083 l -0.36,-0.59 -0.117,0.038 a 0.043,0.043 0 0 1 -0.047,-0.018 l -0.2,-0.27 a 13.022,13.022 0 0 0 -0.45,-0.629 1.988,1.988 0 0 1 -3.787,-0.84 c 0,-0.755 0.353,-1.425 0.994,-1.76 V 4.393 c -0.139,0.051 -0.23,0.114 -0.357,0.187 l -0.917,-0.597 a 0.063,0.063 0 0 0 -0.043,-0.009 z"
     id="path2"
     inkscape:connector-curvature="0"
     style="fill:#bde6fb;fill-opacity:1;stroke-width:3.78" />
</svg>
