<?xml version="1.0" encoding="UTF-8" standalone="no"?>
<svg
   width="47.546486"
   height="47.546486"
   viewBox="0 0 12.580008 12.580008"
   version="1.1"
   id="svg4"
   sodipodi:docname="devhelp.svg"
   inkscape:version="0.92.5 (2060ec1f9f, 2020-04-08)"
   xmlns:inkscape="http://www.inkscape.org/namespaces/inkscape"
   xmlns:sodipodi="http://sodipodi.sourceforge.net/DTD/sodipodi-0.dtd"
   xmlns="http://www.w3.org/2000/svg"
   xmlns:svg="http://www.w3.org/2000/svg"
   xmlns:rdf="http://www.w3.org/1999/02/22-rdf-syntax-ns#"
   xmlns:cc="http://creativecommons.org/ns#"
   xmlns:dc="http://purl.org/dc/elements/1.1/">
  <metadata
     id="metadata10">
    <rdf:RDF>
      <cc:Work
         rdf:about="">
        <dc:format>image/svg+xml</dc:format>
        <dc:type
           rdf:resource="http://purl.org/dc/dcmitype/StillImage" />
        <dc:title />
      </cc:Work>
    </rdf:RDF>
  </metadata>
  <defs
     id="defs8" />
  <sodipodi:namedview
     pagecolor="#ffffff"
     bordercolor="#666666"
     borderopacity="1"
     objecttolerance="10"
     gridtolerance="10"
     guidetolerance="10"
     inkscape:pageopacity="0"
     inkscape:pageshadow="2"
     inkscape:window-width="1085"
     inkscape:window-height="480"
     id="namedview6"
     showgrid="false"
     inkscape:zoom="4.9166667"
     inkscape:cx="2.1355932"
     inkscape:cy="24"
     inkscape:window-x="0"
     inkscape:window-y="25"
     inkscape:window-maximized="0"
     inkscape:current-layer="svg4"
     inkscape:showpageshadow="0"
     inkscape:pagecheckerboard="0"
     inkscape:deskcolor="#d1d1d1" />
  <path
     d="M 6.2900079,0 A 6.29,6.29 0 0 0 7.9490244e-6,6.3 6.29,6.29 0 0 0 6.3000079,12.58 6.29,6.29 0 0 0 12.580008,6.29 6.29,6.29 0 0 0 6.2900079,0 Z m -0.02,0.93 0.01,0.01 a 5.4,5.4 0 0 1 5.4000001,5.4 5.4,5.4 0 0 1 -0.02,0.42 H 9.5100079 v -4 a 0.4,0.4 0 0 0 -0.4,-0.4 h -5.63 a 0.4,0.4 0 0 0 -0.4,0.4 v 4 H 0.88600795 a 5.4,5.4 0 0 1 -0.016,-0.41 5.4,5.4 0 0 1 5.39999995,-5.42 z m -1.73,1.99 h 2.59 v 2.74 l 0.5,-0.3 0.5,0.3 V 2.93 h 0.46 c 0.18,0 0.33,0.16 0.33,0.35 v 3.48 h -4.38 z m 2.15,4.092 c 0.025,-0.002 0.044,0 0.064,0.002 a 0.99,0.99 0 0 1 0.24,0.055 c 0.018,0.007 0.036,0.013 0.059,0.027 a 0.186,0.186 0 0 1 0.044,0.036 c 0.019,0.02 0.052,0.061 0.048,0.13 -0.003,0.045 -0.007,0.04 -0.01,0.05 l -0.011,0.035 -0.036,0.103 -0.122,0.334 a 118.817,118.817 0 0 1 -0.869,2.264 l -0.039,0.094 -0.014,0.031 -0.01,0.02 a 0.155,0.155 0 0 1 -0.016,0.02 c -0.008,0.01 -0.009,0.037 -0.09,0.056 -0.046,0.01 -0.061,0.005 -0.08,0.003 a 0.96,0.96 0 0 1 -0.17,-0.043 0.388,0.388 0 0 1 -0.134,-0.078 0.235,0.235 0 0 1 -0.057,-0.076 0.2,0.2 0 0 1 -0.009,-0.153 V 9.92 l 0.519,-1.404 a 109.008,109.008 0 0 1 0.479,-1.274 4.644,4.644 0 0 1 0.048,-0.118 l 0.008,-0.014 c 0.003,-0.006 0,-0.008 0.022,-0.034 0.072,-0.085 0.11,-0.063 0.136,-0.064 z m -1.605,0.375 0.479,0.459 -0.524,0.525 c -0.11,0.11 -0.21,0.215 -0.28,0.293 l -0.032,0.038 0.032,0.036 c 0.07,0.078 0.168,0.18 0.277,0.29 l 0.517,0.514 -0.202,0.214 a 1.005,1.005 0 0 1 -0.13,0.116 c -0.017,0.01 -0.016,0.034 -0.107,0.034 -0.06,0 -0.068,-0.013 -0.079,-0.019 a 0.185,0.185 0 0 1 -0.021,-0.012 l -0.022,-0.017 a 6.243,6.243 0 0 1 -0.167,-0.154 24.39,24.39 0 0 1 -0.383,-0.377 l -0.646,-0.648 0.645,-0.647 z m 2.43,0 0.643,0.645 0.645,0.647 -0.646,0.648 a 23.937,23.937 0 0 1 -0.51,0.494 c -0.015,0.015 -0.028,0.027 -0.041,0.037 a 0.29,0.29 0 0 1 -0.022,0.017 l -0.02,0.012 c -0.01,0.006 -0.018,0.02 -0.079,0.02 -0.091,0 -0.09,-0.024 -0.107,-0.035 a 1,1 0 0 1 -0.13,-0.116 l -0.202,-0.214 0.517,-0.515 c 0.109,-0.108 0.207,-0.211 0.277,-0.289 l 0.032,-0.036 -0.032,-0.038 a 8.683,8.683 0 0 0 -0.28,-0.293 l -0.524,-0.525 z m 4.6180001,3.04 -0.028,0.074 h 0.028 v -0.073 z m -9.3150001,0.074 h 6.91 a 5.4,5.4 0 0 1 -3.448,1.249 5.4,5.4 0 0 1 -3.462,-1.25 z"
     id="path2"
     inkscape:connector-curvature="0"
     style="fill:#bde6fb;fill-opacity:1" />
</svg>
