<?xml version="1.0" encoding="UTF-8" standalone="no"?>
<svg
   width="47.542679"
   height="47.546455"
   viewBox="0 0 12.579 12.58"
   version="1.1"
   id="svg4"
   sodipodi:docname="dex2jar.svg"
   inkscape:version="0.92.5 (2060ec1f9f, 2020-04-08)"
   xmlns:inkscape="http://www.inkscape.org/namespaces/inkscape"
   xmlns:sodipodi="http://sodipodi.sourceforge.net/DTD/sodipodi-0.dtd"
   xmlns="http://www.w3.org/2000/svg"
   xmlns:svg="http://www.w3.org/2000/svg"
   xmlns:rdf="http://www.w3.org/1999/02/22-rdf-syntax-ns#"
   xmlns:cc="http://creativecommons.org/ns#"
   xmlns:dc="http://purl.org/dc/elements/1.1/">
  <metadata
     id="metadata10">
    <rdf:RDF>
      <cc:Work
         rdf:about="">
        <dc:format>image/svg+xml</dc:format>
        <dc:type
           rdf:resource="http://purl.org/dc/dcmitype/StillImage" />
        <dc:title />
      </cc:Work>
    </rdf:RDF>
  </metadata>
  <defs
     id="defs8" />
  <sodipodi:namedview
     pagecolor="#ffffff"
     bordercolor="#666666"
     borderopacity="1"
     objecttolerance="10"
     gridtolerance="10"
     guidetolerance="10"
     inkscape:pageopacity="0"
     inkscape:pageshadow="2"
     inkscape:window-width="1085"
     inkscape:window-height="480"
     id="namedview6"
     showgrid="false"
     inkscape:zoom="4.9166667"
     inkscape:cx="2.1355932"
     inkscape:cy="24"
     inkscape:window-x="0"
     inkscape:window-y="25"
     inkscape:window-maximized="0"
     inkscape:current-layer="svg4"
     inkscape:showpageshadow="0"
     inkscape:pagecheckerboard="0"
     inkscape:deskcolor="#d1d1d1" />
  <path
     d="M 6.285,0 A 6.295,6.295 0 0 0 0,6.285 6.295,6.295 0 0 0 6.285,12.58 6.295,6.295 0 0 0 12.579,6.285 6.295,6.295 0 0 0 6.285,0 Z M 6.274,0.94 a 5.408,5.408 0 0 1 5.397,5.387 5.407,5.407 0 0 1 -10.814,0 C 0.857,3.34 3.287,0.94 6.274,0.94 Z M 4.703,1.567 A 0.132,0.132 0 0 0 4.606,1.597 0.132,0.132 0 0 0 4.59,1.784 l 0.486,0.58 A 2.381,2.249 0 0 0 3.92,4.161 l 4.752,0.02 A 2.381,2.249 0 0 0 7.515,2.363 L 8,1.785 A 0.132,0.132 0 0 0 7.984,1.599 0.132,0.132 0 0 0 7.797,1.615 L 7.272,2.241 A 2.381,2.249 0 0 0 6.295,2.043 2.381,2.249 0 0 0 5.32,2.243 L 4.793,1.615 A 0.132,0.132 0 0 0 4.703,1.568 Z M 5.501,2.835 A 0.265,0.265 0 0 1 5.766,3.1 0.265,0.265 0 0 1 5.501,3.365 0.265,0.265 0 0 1 5.237,3.1 0.265,0.265 0 0 1 5.501,2.835 Z m 1.588,0 A 0.265,0.265 0 0 1 7.353,3.1 0.265,0.265 0 0 1 7.089,3.365 0.265,0.265 0 0 1 6.824,3.1 0.265,0.265 0 0 1 7.089,2.835 Z M 3.914,4.687 V 7.069 H 4.443 V 6.468 A 0.53,0.53 0 0 1 4.423,6.455 0.53,0.53 0 0 1 4.379,6.425 0.53,0.53 0 0 1 4.339,6.39 0.53,0.53 0 0 1 4.303,6.351 0.53,0.53 0 0 1 4.271,6.309 0.53,0.53 0 0 1 4.243,6.264 0.53,0.53 0 0 1 4.221,6.217 0.53,0.53 0 0 1 4.202,6.167 0.53,0.53 0 0 1 4.189,6.115 0.53,0.53 0 0 1 4.181,6.063 0.53,0.53 0 0 1 4.178,6.01 0.53,0.53 0 0 1 4.178,5.986 0.53,0.53 0 0 1 4.184,5.934 0.53,0.53 0 0 1 4.194,5.882 0.53,0.53 0 0 1 4.21,5.832 0.53,0.53 0 0 1 4.23,5.782 0.53,0.53 0 0 1 4.256,5.736 0.53,0.53 0 0 1 4.286,5.692 0.53,0.53 0 0 1 4.319,5.652 0.53,0.53 0 0 1 4.357,5.615 0.53,0.53 0 0 1 4.398,5.582 0.53,0.53 0 0 1 4.443,5.553 V 6.01 h 0.53 V 5.553 a 0.53,0.53 0 0 1 0.02,0.012 0.53,0.53 0 0 1 0.043,0.031 0.53,0.53 0 0 1 0.04,0.035 0.53,0.53 0 0 1 0.036,0.039 0.53,0.53 0 0 1 0.032,0.042 0.53,0.53 0 0 1 0.028,0.045 0.53,0.53 0 0 1 0.023,0.047 0.53,0.53 0 0 1 0.018,0.05 0.53,0.53 0 0 1 0.013,0.052 0.53,0.53 0 0 1 0.008,0.052 0.53,0.53 0 0 1 0.003,0.052 0.53,0.53 0 0 1 0,0.025 A 0.53,0.53 0 0 1 5.231,6.087 0.53,0.53 0 0 1 5.221,6.14 0.53,0.53 0 0 1 5.205,6.19 0.53,0.53 0 0 1 5.185,6.239 0.53,0.53 0 0 1 5.159,6.285 0.53,0.53 0 0 1 5.129,6.329 0.53,0.53 0 0 1 5.096,6.369 0.53,0.53 0 0 1 5.058,6.407 0.53,0.53 0 0 1 5.017,6.439 0.53,0.53 0 0 1 4.972,6.469 v 0.6 H 5.548 A 0.794,0.794 0 0 1 5.564,7.024 0.794,0.794 0 0 1 5.598,6.953 0.794,0.794 0 0 1 5.64,6.885 0.794,0.794 0 0 1 5.688,6.822 0.794,0.794 0 0 1 5.742,6.764 0.794,0.794 0 0 1 5.802,6.712 0.794,0.794 0 0 1 5.866,6.666 0.794,0.794 0 0 1 5.935,6.626 0.794,0.794 0 0 1 6.007,6.593 0.794,0.794 0 0 1 6.083,6.569 0.794,0.794 0 0 1 6.16,6.551 0.794,0.794 0 0 1 6.239,6.541 0.794,0.794 0 0 1 6.295,6.54 h 0.794 v 0.529 h 0.264 v -0.53 h 0.53 v 0.53 H 8.676 V 4.687 H 3.915 Z M 2.855,4.952 a 0.528,0.528 0 0 0 -0.529,0.53 v 2.116 a 0.5295,0.5295 0 1 0 1.059,0 V 5.481 A 0.528,0.528 0 0 0 2.855,4.952 Z m 6.88,0 a 0.528,0.528 0 0 0 -0.53,0.53 v 2.116 a 0.5295,0.5295 0 1 0 1.059,0 V 5.481 A 0.528,0.528 0 0 0 9.734,4.952 Z M 7.089,5.746 H 8.324 V 5.755 A 0.131,0.131 0 0 1 8.412,5.878 V 6.52 a 0.1325,0.1325 0 1 1 -0.265,0 V 6.275 H 7.089 V 5.745 Z M 6.295,6.804 a 0.53,0.53 0 0 0 -0.53,0.53 0.53,0.53 0 0 0 0.53,0.528 V 7.686 A 0.353,0.353 0 0 1 5.942,7.333 0.353,0.353 0 0 1 6.295,6.98 H 6.648 V 7.862 H 6.824 V 6.805 H 6.295 Z M 3.914,7.598 v 0.53 c 0,0.292 0.236,0.528 0.529,0.528 h 0.264 v 1.588 a 0.5295,0.5295 0 1 0 1.059,0 V 8.655 h 1.058 v 1.588 a 0.529,0.529 0 1 0 1.058,0 V 8.655 h 0.265 c 0.293,0 0.53,-0.236 0.53,-0.529 V 7.596 H 7.088 v 0.53 H 6.295 A 0.794,0.794 0 0 1 6.215,8.122 0.794,0.794 0 0 1 6.137,8.11 0.794,0.794 0 0 1 6.06,8.09 0.794,0.794 0 0 1 5.986,8.064 0.794,0.794 0 0 1 5.915,8.029 0.794,0.794 0 0 1 5.847,7.988 0.794,0.794 0 0 1 5.783,7.94 0.794,0.794 0 0 1 5.726,7.885 0.794,0.794 0 0 1 5.673,7.825 0.794,0.794 0 0 1 5.627,7.761 0.794,0.794 0 0 1 5.587,7.693 0.794,0.794 0 0 1 5.555,7.62 0.794,0.794 0 0 1 5.547,7.597 H 3.913 Z"
     id="path2"
     inkscape:connector-curvature="0"
     style="fill:#bde6fb;fill-opacity:1" />
</svg>
