<?xml version="1.0" encoding="UTF-8" standalone="no"?>
<svg
   width="47.546455"
   height="47.546455"
   viewBox="0 0 12.58 12.58"
   version="1.1"
   id="svg6"
   sodipodi:docname="discord-canary.svg"
   inkscape:version="0.92.4 (5da689c313, 2019-01-14)"
   xmlns:inkscape="http://www.inkscape.org/namespaces/inkscape"
   xmlns:sodipodi="http://sodipodi.sourceforge.net/DTD/sodipodi-0.dtd"
   xmlns="http://www.w3.org/2000/svg"
   xmlns:svg="http://www.w3.org/2000/svg"
   xmlns:rdf="http://www.w3.org/1999/02/22-rdf-syntax-ns#"
   xmlns:cc="http://creativecommons.org/ns#"
   xmlns:dc="http://purl.org/dc/elements/1.1/">
  <metadata
     id="metadata12">
    <rdf:RDF>
      <cc:Work
         rdf:about="">
        <dc:format>image/svg+xml</dc:format>
        <dc:type
           rdf:resource="http://purl.org/dc/dcmitype/StillImage" />
        <dc:title />
      </cc:Work>
    </rdf:RDF>
  </metadata>
  <defs
     id="defs10" />
  <sodipodi:namedview
     pagecolor="#ffffff"
     bordercolor="#666666"
     borderopacity="1"
     objecttolerance="10"
     gridtolerance="10"
     guidetolerance="10"
     inkscape:pageopacity="0"
     inkscape:pageshadow="2"
     inkscape:window-width="1138"
     inkscape:window-height="480"
     id="namedview8"
     showgrid="false"
     inkscape:zoom="4.9166667"
     inkscape:cx="2.1355932"
     inkscape:cy="24"
     inkscape:window-x="0"
     inkscape:window-y="25"
     inkscape:window-maximized="0"
     inkscape:current-layer="svg6"
     inkscape:showpageshadow="0"
     inkscape:pagecheckerboard="0"
     inkscape:deskcolor="#d1d1d1" />
  <path
     d="m 6.29,0 a 6.29,6.29 0 1 0 0,12.58 A 6.29,6.29 0 0 0 6.29,0 Z M 6.27,0.93 a 5.417,5.417 0 0 1 5.41,5.41 5.4,5.4 0 0 1 -5.4,5.41 5.4,5.4 0 0 1 -5.41,-5.4 5.4,5.4 0 0 1 5.4,-5.42 z"
     id="path2"
     inkscape:connector-curvature="0"
     style="fill:#bde6fb;fill-opacity:1" />
  <path
     d="m 5.296,3.524 c 0,0 -0.857,-0.02 -1.764,0.688 -0.907,0.708 -1.213,1.714 -1.213,3.825 0,0 0.835,0.953 2.227,1 0,0 0.233,-0.292 0.422,-0.543 C 4.168,8.242 3.866,7.719 3.866,7.719 4.551,8.191 5.492,8.411 6.3,8.424 7.108,8.411 8.05,8.191 8.734,7.719 c 0,0 -0.302,0.523 -1.102,0.775 0.189,0.251 0.422,0.542 0.422,0.542 1.392,-0.046 2.227,-1 2.227,-1 C 10.281,5.926 9.975,4.92 9.068,4.212 8.161,3.504 7.304,3.524 7.304,3.524 L 7.241,3.586 c 1.134,0.338 1.65,0.86 1.65,0.86 0,0 -0.138,-0.08 -0.37,-0.185 C 7.948,4.004 7.219,3.831 6.3,3.831 5.381,3.831 4.652,4.004 4.08,4.261 3.847,4.367 3.708,4.446 3.708,4.446 c 0,0 0.517,-0.522 1.65,-0.86 C 5.344,3.56 5.296,3.524 5.296,3.524 Z m -0.221,2.45 c 0.342,0 0.618,0.34 0.613,0.765 0,0.425 -0.27,0.766 -0.613,0.766 -0.336,0 -0.612,-0.34 -0.612,-0.766 0,-0.424 0.27,-0.765 0.612,-0.765 z m 2.45,0 c 0.342,0 0.612,0.34 0.612,0.765 0,0.425 -0.276,0.766 -0.612,0.766 C 7.183,7.505 6.912,7.165 6.912,6.739 6.907,6.315 7.182,5.974 7.525,5.974 Z"
     id="path4"
     inkscape:connector-curvature="0"
     style="opacity:0.9;fill:#c8ab37" />
</svg>
