<?xml version="1.0" encoding="UTF-8" standalone="no"?>
<svg
   width="47.546486"
   height="47.546486"
   viewBox="0 0 12.580008 12.580008"
   version="1.1"
   id="svg4"
   sodipodi:docname="display-im6.q16.svg"
   inkscape:version="0.92.4 (5da689c313, 2019-01-14)"
   xmlns:inkscape="http://www.inkscape.org/namespaces/inkscape"
   xmlns:sodipodi="http://sodipodi.sourceforge.net/DTD/sodipodi-0.dtd"
   xmlns="http://www.w3.org/2000/svg"
   xmlns:svg="http://www.w3.org/2000/svg"
   xmlns:rdf="http://www.w3.org/1999/02/22-rdf-syntax-ns#"
   xmlns:cc="http://creativecommons.org/ns#"
   xmlns:dc="http://purl.org/dc/elements/1.1/">
  <metadata
     id="metadata10">
    <rdf:RDF>
      <cc:Work
         rdf:about="">
        <dc:format>image/svg+xml</dc:format>
        <dc:type
           rdf:resource="http://purl.org/dc/dcmitype/StillImage" />
        <dc:title />
      </cc:Work>
    </rdf:RDF>
  </metadata>
  <defs
     id="defs8" />
  <sodipodi:namedview
     pagecolor="#ffffff"
     bordercolor="#666666"
     borderopacity="1"
     objecttolerance="10"
     gridtolerance="10"
     guidetolerance="10"
     inkscape:pageopacity="0"
     inkscape:pageshadow="2"
     inkscape:window-width="1087"
     inkscape:window-height="480"
     id="namedview6"
     showgrid="false"
     inkscape:zoom="4.9166667"
     inkscape:cx="2.1355932"
     inkscape:cy="24"
     inkscape:window-x="0"
     inkscape:window-y="25"
     inkscape:window-maximized="0"
     inkscape:current-layer="svg4"
     inkscape:showpageshadow="0"
     inkscape:pagecheckerboard="0"
     inkscape:deskcolor="#d1d1d1" />
  <path
     d="M 6.2900079,0 A 6.29,6.29 0 0 0 7.9490244e-6,6.3 6.29,6.29 0 0 0 6.3000079,12.58 6.29,6.29 0 0 0 12.580008,6.29 6.29,6.29 0 0 0 6.2900079,0 Z m -0.01,0.94 A 5.4,5.4 0 0 1 11.680008,6.34 5.4,5.4 0 0 1 6.2800079,11.75 5.4,5.4 0 0 1 0.87000795,6.35 5.4,5.4 0 0 1 6.2700079,0.93 Z m 0.14,1.75 a 0.12,0.12 0 0 0 -0.12,0.13 v 0.25 a 0.125,0.125 0 0 0 0.25,0 V 2.82 a 0.12,0.12 0 0 0 -0.13,-0.13 z m 2.37,0.25 a 0.85,0.85 0 1 0 0,1.7 0.85,0.85 0 0 0 0,-1.7 z m -3.6,0.13 a 0.12,0.12 0 1 0 0,0.24 0.12,0.12 0 0 0 0,-0.24 z m 0.74,0.12 a 0.125,0.125 0 0 0 0,0.25 h 0.25 a 0.125,0.125 0 0 0 0,-0.25 z m 0.74,0 a 0.125,0.125 0 0 0 0,0.25 h 0.25 a 0.125,0.125 0 1 0 0,-0.25 z m 2.35,0 a 0.125,0.125 0 0 1 0,0.25 0.12,0.12 0 0 1 -0.12,-0.13 c 0,-0.07 0.05,-0.12 0.12,-0.12 z m -0.48,0.12 a 0.12539936,0.12539936 0 0 1 0.02,0.25 0.25,0.25 0 0 0 -0.16,0.13 c -0.04,0.1 0,0.24 0.1,0.42 a 0.12,0.12 0 0 1 0.01,0.13 0.12,0.12 0 0 1 -0.21,0 c -0.16,-0.25 -0.2,-0.47 -0.12,-0.65 a 0.5,0.5 0 0 1 0.32,-0.27 0.14,0.14 0 0 1 0.04,0 z m -2.12,0.13 a 0.12,0.12 0 0 0 -0.12,0.12 v 0.25 a 0.125,0.125 0 0 0 0.25,0 V 3.56 a 0.12,0.12 0 0 0 -0.13,-0.12 z m 1.13,0.74 a 0.73,0.73 0 0 1 -0.2,0.68 l -0.53,0.53 0.19,0.18 a 0.12727922,0.12727922 0 1 1 -0.18,0.18 l -0.18,-0.18 -2.42,2.42 0.35,0.35 0.81,-0.81 -0.17,-0.17 a 0.12,0.12 0 0 1 0,-0.18 0.12,0.12 0 0 1 0.18,0 l 0.17,0.17 0.69,-0.7 -0.17,-0.16 a 0.12020815,0.12020815 0 0 1 0.17,-0.17 l 0.17,0.16 1.28,-1.27 a 0.72,0.72 0 0 1 0.68,-0.2 0.62,0.62 0 0 0 -0.48,-0.22 0.12,0.12 0 0 1 -0.09,-0.04 0.12,0.12 0 0 1 -0.03,-0.09 0.62,0.62 0 0 0 -0.24,-0.48 z m -1,0.12 a 0.125,0.125 0 1 0 0,0.25 0.125,0.125 0 0 0 0,-0.25 z m -1.24,0.12 a 0.12,0.12 0 0 0 -0.12,0.13 V 4.8 c 0,0.06 0.05,0.12 0.12,0.12 a 0.12,0.12 0 0 0 0.12,-0.12 V 4.55 a 0.12,0.12 0 0 0 -0.12,-0.12 z m -0.5,0.5 a 0.12,0.12 0 0 0 -0.12,0.12 c 0,0.07 0.06,0.13 0.13,0.13 h 0.24 a 0.125,0.125 0 0 0 0,-0.25 h -0.24 z m 0.75,0 a 0.125,0.125 0 1 0 0,0.25 h 0.25 a 0.125,0.125 0 0 0 0,-0.25 h -0.26 z m 3.96,0.12 z m -4.2,0.13 a 0.12,0.12 0 0 0 -0.13,0.12 v 0.25 a 0.12,0.12 0 0 0 0.24,0 V 5.29 a 0.12,0.12 0 0 0 -0.12,-0.12 z m 3.08,0.61 a 0.125,0.125 0 1 0 0,0.25 0.12,0.12 0 0 0 0.13,-0.12 0.12,0.12 0 0 0 -0.13,-0.13 z m 0.87,0 a 0.12,0.12 0 0 0 -0.13,0.13 v 0.25 a 0.125,0.125 0 0 0 0.25,0 V 5.91 a 0.12,0.12 0 0 0 -0.12,-0.12 z m -0.5,0.5 a 0.125,0.125 0 0 0 0,0.25 h 0.25 a 0.125,0.125 0 0 0 0,-0.25 z m 0.75,0 a 0.125,0.125 0 0 0 0,0.25 h 0.24 a 0.125,0.125 0 0 0 0,-0.25 z m -0.25,0.25 a 0.12,0.12 0 0 0 -0.13,0.12 V 6.9 c 0,0.07 0.06,0.12 0.13,0.12 a 0.12,0.12 0 0 0 0.12,-0.12 V 6.65 a 0.12,0.12 0 0 0 -0.12,-0.12 z m -5.22,1.64 -0.57,0.57 0.18,0.17 a 0.13,0.13 0 0 1 -0.06,0.21 0.12,0.12 0 0 1 -0.12,-0.03 l -0.17,-0.18 -0.53,0.53 a 0.25,0.25 0 1 0 0.35,0.35 l 1.28,-1.26 -0.35,-0.35 z"
     id="path2"
     inkscape:connector-curvature="0"
     style="fill:#bde6fb;fill-opacity:1" />
</svg>
