<?xml version="1.0" encoding="UTF-8" standalone="no"?>
<svg
   width="47.357479"
   height="47.357479"
   viewBox="0 0 12.53 12.53"
   version="1.1"
   id="svg6"
   sodipodi:docname="distributor-logo-linux-mint.svg"
   inkscape:version="0.92.4 (5da689c313, 2019-01-14)"
   xmlns:inkscape="http://www.inkscape.org/namespaces/inkscape"
   xmlns:sodipodi="http://sodipodi.sourceforge.net/DTD/sodipodi-0.dtd"
   xmlns="http://www.w3.org/2000/svg"
   xmlns:svg="http://www.w3.org/2000/svg"
   xmlns:rdf="http://www.w3.org/1999/02/22-rdf-syntax-ns#"
   xmlns:cc="http://creativecommons.org/ns#"
   xmlns:dc="http://purl.org/dc/elements/1.1/">
  <metadata
     id="metadata12">
    <rdf:RDF>
      <cc:Work
         rdf:about="">
        <dc:format>image/svg+xml</dc:format>
        <dc:type
           rdf:resource="http://purl.org/dc/dcmitype/StillImage" />
        <dc:title />
      </cc:Work>
    </rdf:RDF>
  </metadata>
  <defs
     id="defs10" />
  <sodipodi:namedview
     pagecolor="#ffffff"
     bordercolor="#666666"
     borderopacity="1"
     objecttolerance="10"
     gridtolerance="10"
     guidetolerance="10"
     inkscape:pageopacity="0"
     inkscape:pageshadow="2"
     inkscape:window-width="1087"
     inkscape:window-height="480"
     id="namedview8"
     showgrid="false"
     inkscape:zoom="4.9166667"
     inkscape:cx="2.1355932"
     inkscape:cy="24"
     inkscape:window-x="0"
     inkscape:window-y="25"
     inkscape:window-maximized="0"
     inkscape:current-layer="svg6"
     inkscape:showpageshadow="0"
     inkscape:pagecheckerboard="0"
     inkscape:deskcolor="#d1d1d1" />
  <path
     d="M 6.26,0 A 6.27,6.27 0 0 0 0,6.26 6.27,6.27 0 0 0 6.26,12.53 6.27,6.27 0 0 0 12.53,6.26 6.27,6.27 0 0 0 6.26,0 Z M 6.25,0.92 a 5.39,5.39 0 0 1 5.37,5.4 5.39,5.39 0 0 1 -5.38,5.39 5.39,5.39 0 0 1 -5.4,-5.4 5.39,5.39 0 0 1 5.4,-5.38 z"
     id="path2"
     inkscape:connector-curvature="0"
     style="fill:#bde6fb;fill-opacity:1" />
  <path
     d="M 2.05,3.32 V 5.3 H 3.04 V 7.55 C 3.04,8.9 4.14,10 5.49,10 H 9.72 V 5.77 C 9.72,4.41 8.62,3.32 7.27,3.32 Z m 2.22,0.99 h 0.5 v 3.46 c 0,0.27 0.22,0.5 0.5,0.5 h 2.22 a 0.5,0.5 0 0 0 0.5,-0.5 V 5.92 C 7.99,5.72 7.82,5.55 7.62,5.55 7.41,5.55 7.24,5.73 7.24,5.92 V 7.41 H 6.74 V 5.91 C 6.74,5.71 6.58,5.54 6.38,5.54 6.18,5.54 6.01,5.72 6.01,5.91 V 7.4 H 5.51 V 5.91 C 5.51,5.44 5.9,5.05 6.38,5.05 6.62,5.05 6.84,5.15 7,5.32 A 0.83,0.83 0 0 1 7.62,5.05 c 0.47,0 0.86,0.4 0.86,0.86 v 1.86 c 0,0.55 -0.44,1 -0.99,1 H 5.26 a 0.99,0.99 0 0 1 -0.99,-1 z"
     id="path4"
     inkscape:connector-curvature="0"
     style="opacity:0.75;fill:#008000" />
</svg>
