<?xml version="1.0" encoding="UTF-8" standalone="no"?>
<svg
   width="47.546486"
   height="47.546486"
   viewBox="0 0 12.580008 12.580008"
   version="1.1"
   id="svg8"
   sodipodi:docname="distributor-logo-fedora.svg"
   inkscape:version="0.92.4 (5da689c313, 2019-01-14)"
   xmlns:inkscape="http://www.inkscape.org/namespaces/inkscape"
   xmlns:sodipodi="http://sodipodi.sourceforge.net/DTD/sodipodi-0.dtd"
   xmlns="http://www.w3.org/2000/svg"
   xmlns:svg="http://www.w3.org/2000/svg"
   xmlns:rdf="http://www.w3.org/1999/02/22-rdf-syntax-ns#"
   xmlns:cc="http://creativecommons.org/ns#"
   xmlns:dc="http://purl.org/dc/elements/1.1/">
  <metadata
     id="metadata14">
    <rdf:RDF>
      <cc:Work
         rdf:about="">
        <dc:format>image/svg+xml</dc:format>
        <dc:type
           rdf:resource="http://purl.org/dc/dcmitype/StillImage" />
        <dc:title />
      </cc:Work>
    </rdf:RDF>
  </metadata>
  <defs
     id="defs12" />
  <sodipodi:namedview
     pagecolor="#ffffff"
     bordercolor="#666666"
     borderopacity="1"
     objecttolerance="10"
     gridtolerance="10"
     guidetolerance="10"
     inkscape:pageopacity="0"
     inkscape:pageshadow="2"
     inkscape:window-width="1087"
     inkscape:window-height="480"
     id="namedview10"
     showgrid="false"
     inkscape:zoom="4.9166667"
     inkscape:cx="2.1355932"
     inkscape:cy="24"
     inkscape:window-x="0"
     inkscape:window-y="25"
     inkscape:window-maximized="0"
     inkscape:current-layer="svg8"
     inkscape:showpageshadow="0"
     inkscape:pagecheckerboard="0"
     inkscape:deskcolor="#d1d1d1" />
  <path
     d="M 6.2900079,0 A 6.29,6.29 0 0 0 7.9490244e-6,6.3 6.29,6.29 0 0 0 6.3000079,12.58 6.29,6.29 0 0 0 12.580008,6.29 6.29,6.29 0 0 0 6.2900079,0 Z m -0.02,0.93 0.01,0.01 A 5.4,5.4 0 0 1 11.680008,6.34 5.4,5.4 0 0 1 6.2800079,11.75 5.4,5.4 0 0 1 0.87000795,6.35 5.4,5.4 0 0 1 6.2700079,0.93 Z"
     id="path2"
     inkscape:connector-curvature="0"
     style="fill:#bde6fb;fill-opacity:1" />
  <path
     d="m 8.0400079,2.31 c -1.24,0 -2.24,1 -2.24,2.23 v 1.24 h -1.24 a 2.23,2.23 0 1 0 2.24,2.25 V 6.78 h 1.24 a 2.235,2.235 0 1 0 0,-4.47 z m 0,1 a 1.24,1.24 0 0 1 0,2.47 h -1 c -0.1,0 -0.24,0 -0.24,-0.27 V 4.54 c 0,-0.68 0.55,-1.24 1.24,-1.24 z m -3.49,3.46 h 1 c 0.1,0 0.24,0 0.24,0.27 v 0.97 a 1.24,1.24 0 1 1 -1.24,-1.24 z"
     id="path4"
     inkscape:connector-curvature="0"
     style="opacity:0.51;fill:#bde6fb;fill-opacity:1" />
  <path
     d="m 8.0400079,2.31 c -1.24,0 -2.24,1 -2.24,2.23 v 1.24 h -1.24 a 0.5,0.5 0 0 0 -0.05,0 0.5,0.5 0 0 0 -0.44,0.5 0.5,0.5 0 0 0 0.5,0.5 h 0.98 c 0.12,0 0.25,0 0.25,0.27 v 0.97 a 1.24,1.24 0 0 1 -1.77,1.11 0.5,0.5 0 0 0 -0.44,0.89 2.23,2.23 0 0 0 3.2,-2.01 V 6.79 h 1 a 0.5,0.5 0 0 0 0.5,-0.5 0.5,0.5 0 0 0 -0.5,-0.5 h -0.74 c -0.12,0 -0.25,0 -0.25,-0.27 V 4.55 a 1.24,1.24 0 0 1 1.6,-1.18 0.5,0.5 0 0 0 0.6,-0.62 l 0.01,-0.02 -0.02,-0.02 a 0.5,0.5 0 0 0 -0.36,-0.3 l -0.01,-0.01 a 2.23,2.23 0 0 0 -0.58,-0.08 z"
     id="path6"
     inkscape:connector-curvature="0"
     style="fill:#bde6fb;fill-opacity:1" />
</svg>
