<?xml version="1.0" encoding="UTF-8" standalone="no"?>
<svg
   width="47.546486"
   height="47.546486"
   viewBox="0 0 12.580008 12.580008"
   version="1.1"
   id="svg4"
   sodipodi:docname="distributor-logo-ubuntu.svg"
   inkscape:version="0.92.4 (5da689c313, 2019-01-14)"
   xmlns:inkscape="http://www.inkscape.org/namespaces/inkscape"
   xmlns:sodipodi="http://sodipodi.sourceforge.net/DTD/sodipodi-0.dtd"
   xmlns="http://www.w3.org/2000/svg"
   xmlns:svg="http://www.w3.org/2000/svg"
   xmlns:rdf="http://www.w3.org/1999/02/22-rdf-syntax-ns#"
   xmlns:cc="http://creativecommons.org/ns#"
   xmlns:dc="http://purl.org/dc/elements/1.1/">
  <metadata
     id="metadata10">
    <rdf:RDF>
      <cc:Work
         rdf:about="">
        <dc:format>image/svg+xml</dc:format>
        <dc:type
           rdf:resource="http://purl.org/dc/dcmitype/StillImage" />
        <dc:title />
      </cc:Work>
    </rdf:RDF>
  </metadata>
  <defs
     id="defs8" />
  <sodipodi:namedview
     pagecolor="#ffffff"
     bordercolor="#666666"
     borderopacity="1"
     objecttolerance="10"
     gridtolerance="10"
     guidetolerance="10"
     inkscape:pageopacity="0"
     inkscape:pageshadow="2"
     inkscape:window-width="1087"
     inkscape:window-height="480"
     id="namedview6"
     showgrid="false"
     inkscape:zoom="4.9166667"
     inkscape:cx="2.1355932"
     inkscape:cy="24"
     inkscape:window-x="0"
     inkscape:window-y="25"
     inkscape:window-maximized="0"
     inkscape:current-layer="svg4"
     inkscape:showpageshadow="0"
     inkscape:pagecheckerboard="0"
     inkscape:deskcolor="#d1d1d1" />
  <path
     d="M 6.2900079,0 A 6.29,6.29 0 0 0 7.9490244e-6,6.3 6.29,6.29 0 0 0 6.3000079,12.58 6.29,6.29 0 0 0 12.580008,6.29 6.29,6.29 0 0 0 6.2900079,0 Z m -0.02,0.93 0.01,0.01 A 5.4,5.4 0 0 1 11.680008,6.34 5.4,5.4 0 0 1 6.2800079,11.75 5.4,5.4 0 0 1 0.87000795,6.35 5.4,5.4 0 0 1 6.2700079,0.93 Z m 1.98,1.23 c -0.26,0 -0.5,0.15 -0.65,0.39 a 0.75,0.75 0 0 0 0.28,1.03 c 0.36,0.2 0.85,0.08 1.06,-0.28 a 0.76,0.76 0 0 0 -0.29,-1.04 0.83,0.83 0 0 0 -0.4,-0.1 z m -1.94,0.82 c -0.52,0 -1.01,0.12 -1.45,0.34 l 0.54,0.95 c 0.28,-0.14 0.58,-0.23 0.91,-0.23 1.17,0 2.14,0.91 2.24,2.05 l 1.07,-0.02 a 3.3,3.3 0 0 0 -0.99,-2.15 c -0.29,0.11 -0.6,0.1 -0.9,-0.07 a 1.1,1.1 0 0 1 -0.51,-0.77 c -0.28,-0.08 -0.6,-0.1 -0.9,-0.1 z m -1.82,0.55 a 3.3,3.3 0 0 0 -1.37,1.92 c 0.24,0.2 0.4,0.5 0.4,0.83 0,0.34 -0.16,0.64 -0.4,0.84 0.2,0.8 0.7,1.46 1.37,1.9 l 0.56,-0.92 a 2.22,2.22 0 0 1 0,-3.64 z m -2.04,2 a 0.76,0.76 0 0 0 -0.77,0.75 c 0,0.42 0.35,0.77 0.77,0.77 0.42,0 0.75,-0.35 0.75,-0.77 a 0.75,0.75 0 0 0 -0.75,-0.75 z m 6.1,0.94 a 2.26,2.26 0 0 1 -2.24,2.06 c -0.33,0 -0.63,-0.1 -0.91,-0.22 l -0.54,0.94 a 3.43,3.43 0 0 0 2.36,0.24 c 0.05,-0.3 0.23,-0.6 0.52,-0.77 0.28,-0.17 0.6,-0.18 0.9,-0.07 0.56,-0.55 0.93,-1.3 0.98,-2.15 z m -0.3,2.4 a 0.75,0.75 0 0 0 -0.37,0.12 0.75,0.75 0 0 0 -0.28,1.03 c 0.21,0.36 0.69,0.49 1.05,0.28 0.37,-0.21 0.5,-0.67 0.29,-1.04 a 0.78,0.78 0 0 0 -0.7,-0.38 z"
     id="path2"
     inkscape:connector-curvature="0"
     style="fill:#bde6fb;fill-opacity:1" />
</svg>
