<?xml version="1.0" encoding="UTF-8" standalone="no"?>
<svg
   width="47.546486"
   height="47.546486"
   viewBox="0 0 12.580008 12.580008"
   version="1.1"
   id="svg4"
   sodipodi:docname="distributor-logo-chakra.svg"
   inkscape:version="0.92.4 (5da689c313, 2019-01-14)"
   xmlns:inkscape="http://www.inkscape.org/namespaces/inkscape"
   xmlns:sodipodi="http://sodipodi.sourceforge.net/DTD/sodipodi-0.dtd"
   xmlns="http://www.w3.org/2000/svg"
   xmlns:svg="http://www.w3.org/2000/svg"
   xmlns:rdf="http://www.w3.org/1999/02/22-rdf-syntax-ns#"
   xmlns:cc="http://creativecommons.org/ns#"
   xmlns:dc="http://purl.org/dc/elements/1.1/">
  <metadata
     id="metadata10">
    <rdf:RDF>
      <cc:Work
         rdf:about="">
        <dc:format>image/svg+xml</dc:format>
        <dc:type
           rdf:resource="http://purl.org/dc/dcmitype/StillImage" />
        <dc:title />
      </cc:Work>
    </rdf:RDF>
  </metadata>
  <defs
     id="defs8" />
  <sodipodi:namedview
     pagecolor="#ffffff"
     bordercolor="#666666"
     borderopacity="1"
     objecttolerance="10"
     gridtolerance="10"
     guidetolerance="10"
     inkscape:pageopacity="0"
     inkscape:pageshadow="2"
     inkscape:window-width="1087"
     inkscape:window-height="480"
     id="namedview6"
     showgrid="false"
     inkscape:zoom="4.9166667"
     inkscape:cx="2.1355932"
     inkscape:cy="24"
     inkscape:window-x="0"
     inkscape:window-y="25"
     inkscape:window-maximized="0"
     inkscape:current-layer="svg4"
     inkscape:showpageshadow="0"
     inkscape:pagecheckerboard="0"
     inkscape:deskcolor="#d1d1d1" />
  <path
     d="M 6.2900079,0 A 6.29,6.29 0 0 0 7.9490244e-6,6.3 6.29,6.29 0 0 0 6.3000079,12.58 6.29,6.29 0 0 0 12.580008,6.29 6.29,6.29 0 0 0 6.2900079,0 Z m -0.02,0.93 0.01,0.01 A 5.4,5.4 0 0 1 11.680008,6.34 5.4,5.4 0 0 1 6.2800079,11.75 5.4,5.4 0 0 1 0.87000795,6.35 5.4,5.4 0 0 1 6.2700079,0.93 Z m 0.35,1.05 a 0.15,0.15 0 0 0 -0.1,0.05 c -0.11,0.1 -0.07,0.37 0.14,0.94 l 0.3,0.75 c 0.49,1.22 0.62,1.7 0.62,2.16 0,0.3 -0.05,0.46 -0.19,0.6 -0.13,0.15 -0.32,0.22 -0.62,0.24 -0.16,0 -0.17,0 -0.14,0.02 l 0.17,0.03 c 0.17,0.03 0.53,0.02 0.68,-0.01 0.7,-0.15 1.2,-0.7 1.46,-1.59 0.11,-0.38 0.15,-0.7 0.16,-1.17 0,-0.5 -0.05,-0.77 -0.18,-1.16 -0.15,-0.46 -0.29,-0.69 -0.47,-0.78 -0.1,-0.05 -0.25,-0.06 -0.56,-0.02 a 4.26,4.26 0 0 1 -1.27,-0.06 z m -3.06,0.71 -0.2,0.01 c -0.38,0.04 -0.55,0.13 -0.63,0.34 -0.02,0.04 -0.06,0.2 -0.08,0.33 -0.1,0.43 -0.16,0.64 -0.32,0.91 -0.13,0.24 -0.13,0.25 -0.13,0.3 0,0.14 0.13,0.2 0.47,0.23 0.23,0.02 0.53,0.01 1.43,-0.04 0.44,-0.03 1.32,-0.04 1.55,-0.02 0.56,0.04 0.9,0.15 1.1,0.35 0.2,0.2 0.23,0.45 0.11,0.8 l -0.03,0.12 c 0,0.05 0.1,-0.13 0.17,-0.3 a 1.6,1.6 0 0 0 -0.21,-1.65 4.07,4.07 0 0 0 -3.23,-1.38 z m 1.32,2.25 c -0.2,0 -0.42,0.04 -0.64,0.12 a 4.03,4.03 0 0 0 -2.37,2.8 c -0.06,0.28 -0.02,0.44 0.12,0.58 0.05,0.05 0.15,0.1 0.35,0.22 0.36,0.19 0.52,0.3 0.8,0.58 l 0.21,0.19 c 0.19,0.1 0.35,-0.15 0.55,-0.81 l 0.18,-0.64 c 0.29,-1.08 0.41,-1.47 0.61,-1.88 0.12,-0.24 0.22,-0.4 0.36,-0.53 0.17,-0.17 0.32,-0.24 0.51,-0.24 a 0.9,0.9 0 0 1 0.18,0.02 c 0.1,0.03 0.26,0.1 0.38,0.2 0.06,0.03 0.1,0.06 0.11,0.05 0.01,-0.01 -0.28,-0.28 -0.39,-0.35 -0.3,-0.2 -0.62,-0.31 -0.96,-0.3 z m 5.4600001,0.24 c -0.11,0 -0.28,0.08 -0.5200001,0.24 -0.2,0.14 -0.37,0.27 -0.9,0.7 -0.82,0.65 -1.23,0.93 -1.63,1.13 -0.54,0.26 -0.92,0.26 -1.17,-0.02 a 0.95,0.95 0 0 1 -0.2,-0.32 6.07,6.07 0 0 0 -0.05,-0.15 l -0.02,-0.03 v 0.06 a 1.84,1.84 0 0 0 0.31,0.88 c 0.1,0.13 0.28,0.3 0.4,0.39 0.27,0.18 0.65,0.3 1.02,0.35 A 4.35,4.35 0 0 0 10.540008,7.56 c 0.34,-0.27 0.46,-0.43 0.46,-0.62 0,-0.1 -0.02,-0.17 -0.16,-0.45 a 2.9,2.9 0 0 1 -0.3,-1.03 c -0.03,-0.16 -0.05,-0.2 -0.1,-0.24 a 0.18,0.18 0 0 0 -0.1,-0.03 z m -4.7300001,0.85 -0.15,0.06 c -0.62,0.3 -0.96,0.8 -1,1.47 -0.02,0.49 0.16,1.1 0.49,1.66 a 4.85,4.85 0 0 0 0.96,1.15 c 0.25,0.2 0.6,0.41 0.8,0.47 0.16,0.06 0.3,0.04 0.44,-0.06 0.04,-0.02 0.14,-0.11 0.24,-0.2 0.33,-0.3 0.49,-0.4 0.84,-0.58 0.13,-0.06 0.23,-0.12 0.25,-0.14 0.09,-0.09 0.05,-0.2 -0.1,-0.35 a 6.88,6.88 0 0 0 -1.2,-0.82 c -0.74,-0.46 -1.17,-0.76 -1.45,-1 -0.55,-0.48 -0.72,-0.86 -0.55,-1.21 0.05,-0.1 0.23,-0.3 0.36,-0.39 0.05,-0.03 0.08,-0.05 0.07,-0.06 z"
     id="path2"
     inkscape:connector-curvature="0"
     style="fill:#bde6fb;fill-opacity:1" />
</svg>
