<?xml version="1.0" encoding="UTF-8" standalone="no"?>
<svg
   width="47.546486"
   height="47.546486"
   viewBox="0 0 12.580008 12.580008"
   version="1.1"
   id="svg4"
   sodipodi:docname="distributor-logo-freebsd.svg"
   inkscape:version="0.92.4 (5da689c313, 2019-01-14)"
   xmlns:inkscape="http://www.inkscape.org/namespaces/inkscape"
   xmlns:sodipodi="http://sodipodi.sourceforge.net/DTD/sodipodi-0.dtd"
   xmlns="http://www.w3.org/2000/svg"
   xmlns:svg="http://www.w3.org/2000/svg"
   xmlns:rdf="http://www.w3.org/1999/02/22-rdf-syntax-ns#"
   xmlns:cc="http://creativecommons.org/ns#"
   xmlns:dc="http://purl.org/dc/elements/1.1/">
  <metadata
     id="metadata10">
    <rdf:RDF>
      <cc:Work
         rdf:about="">
        <dc:format>image/svg+xml</dc:format>
        <dc:type
           rdf:resource="http://purl.org/dc/dcmitype/StillImage" />
        <dc:title />
      </cc:Work>
    </rdf:RDF>
  </metadata>
  <defs
     id="defs8" />
  <sodipodi:namedview
     pagecolor="#ffffff"
     bordercolor="#666666"
     borderopacity="1"
     objecttolerance="10"
     gridtolerance="10"
     guidetolerance="10"
     inkscape:pageopacity="0"
     inkscape:pageshadow="2"
     inkscape:window-width="1087"
     inkscape:window-height="480"
     id="namedview6"
     showgrid="false"
     inkscape:zoom="4.9166667"
     inkscape:cx="2.1355932"
     inkscape:cy="24"
     inkscape:window-x="0"
     inkscape:window-y="25"
     inkscape:window-maximized="0"
     inkscape:current-layer="svg4"
     inkscape:showpageshadow="0"
     inkscape:pagecheckerboard="0"
     inkscape:deskcolor="#d1d1d1" />
  <path
     d="M 6.2900079,0 A 6.29,6.29 0 0 0 7.9490244e-6,6.3 6.29,6.29 0 0 0 6.3000079,12.58 6.29,6.29 0 0 0 12.580008,6.29 6.29,6.29 0 0 0 6.2900079,0 Z m -0.02,0.93 0.01,0.01 A 5.4,5.4 0 0 1 11.680008,6.34 5.4,5.4 0 0 1 6.2800079,11.75 5.4,5.4 0 0 1 0.87000795,6.35 5.4,5.4 0 0 1 6.2700079,0.93 Z m -3.4,2.17 c -0.13,0 -0.24,0.03 -0.3,0.1 -0.28,0.27 0.12,1.14 0.46,1.74 0.3,-0.53 0.74,-0.97 1.26,-1.3 a 3.76,3.76 0 0 0 -1.42,-0.54 z m 6.69,0.05 a 5.33,5.33 0 0 0 -2.06,0.96 c -0.19,0.18 -0.02,0.65 0.37,1.04 0.4,0.4 0.86,0.56 1.04,0.38 0.19,-0.19 1.2800001,-1.9 0.88,-2.3 -0.05,-0.06 -0.13,-0.08 -0.23,-0.08 z m -3.29,0.12 a 3.57,3.57 0 1 0 3.1,1.81 l -0.17,0.31 c 0.05,0.2 0.04,0.35 -0.05,0.44 -0.2,0.2 -0.77,-0.01 -1.28,-0.5 l -0.1,-0.1 a 2.27,2.27 0 0 1 -0.42,-0.56 c -0.18,-0.32 -0.23,-0.6 -0.09,-0.74 0.07,-0.07 0.19,-0.1 0.33,-0.07 l 0.32,-0.19 c -0.49,-0.26 -1.05,-0.4 -1.64,-0.4 z"
     id="path2"
     inkscape:connector-curvature="0"
     style="fill:#bde6fb;fill-opacity:1" />
</svg>
