<?xml version="1.0" encoding="UTF-8" standalone="no"?>
<svg
   width="47.546486"
   height="47.546486"
   viewBox="0 0 12.580008 12.580008"
   version="1.1"
   id="svg4"
   sodipodi:docname="distributor-logo-lubuntu.svg"
   inkscape:version="0.92.4 (5da689c313, 2019-01-14)"
   xmlns:inkscape="http://www.inkscape.org/namespaces/inkscape"
   xmlns:sodipodi="http://sodipodi.sourceforge.net/DTD/sodipodi-0.dtd"
   xmlns="http://www.w3.org/2000/svg"
   xmlns:svg="http://www.w3.org/2000/svg"
   xmlns:rdf="http://www.w3.org/1999/02/22-rdf-syntax-ns#"
   xmlns:cc="http://creativecommons.org/ns#"
   xmlns:dc="http://purl.org/dc/elements/1.1/">
  <metadata
     id="metadata10">
    <rdf:RDF>
      <cc:Work
         rdf:about="">
        <dc:format>image/svg+xml</dc:format>
        <dc:type
           rdf:resource="http://purl.org/dc/dcmitype/StillImage" />
        <dc:title />
      </cc:Work>
    </rdf:RDF>
  </metadata>
  <defs
     id="defs8" />
  <sodipodi:namedview
     pagecolor="#ffffff"
     bordercolor="#666666"
     borderopacity="1"
     objecttolerance="10"
     gridtolerance="10"
     guidetolerance="10"
     inkscape:pageopacity="0"
     inkscape:pageshadow="2"
     inkscape:window-width="1087"
     inkscape:window-height="480"
     id="namedview6"
     showgrid="false"
     inkscape:zoom="4.9166667"
     inkscape:cx="2.1355932"
     inkscape:cy="24"
     inkscape:window-x="0"
     inkscape:window-y="25"
     inkscape:window-maximized="0"
     inkscape:current-layer="svg4"
     inkscape:showpageshadow="0"
     inkscape:pagecheckerboard="0"
     inkscape:deskcolor="#d1d1d1" />
  <path
     d="M 6.2900079,0 A 6.29,6.29 0 0 0 7.9490244e-6,6.3 6.29,6.29 0 0 0 6.3000079,12.58 6.29,6.29 0 0 0 12.580008,6.29 6.29,6.29 0 0 0 6.2900079,0 Z m -0.02,0.93 0.01,0.01 a 5.4,5.4 0 0 1 5.4000001,5.4 5.4,5.4 0 0 1 -2.0300001,4.23 c -0.43,-2.44 -1.24,-5.51 -2.7,-6.48 0.19,-0.12 0.2,-0.75 0.2,-0.75 l 0.5,-0.62 c -0.18,0 -1.12,0.27 -1.4,0.62 -0.74,0.05 -3.4,1.83 -5.37999995,3.2 a 5.4,5.4 0 0 1 -0.01,-0.19 5.4,5.4 0 0 1 5.40999995,-5.42 z m -0.31,5.33 h 0.04 c 1.2,0 2.37,2.53 3.14,4.66 a 5.4,5.4 0 0 1 -2.86,0.83 5.4,5.4 0 0 1 -3.66,-1.43 l 0.85,-1.19 c 1.08,-1.48 2.02,-2.86 2.49,-2.87 z m -3.47,0.56 c 0.09,0 0.15,0.02 0.18,0.05 0.15,0.18 -0.48,1.04 -1.16,2.03 A 5.4,5.4 0 0 1 0.95000795,7.23 6.24,6.24 0 0 1 2.5000079,6.83 Z m 1.12,0.53 h 0.05 c 0.04,0.06 -0.68,1.25 -1.47,2.53 a 5.4,5.4 0 0 1 -0.44,-0.58 c 0.8,-0.98 1.6,-1.91 1.86,-1.95 z"
     id="path2"
     inkscape:connector-curvature="0"
     style="fill:#bde6fb;fill-opacity:1" />
</svg>
