<?xml version="1.0" encoding="UTF-8" standalone="no"?>
<svg
   width="47.546486"
   height="47.546486"
   viewBox="0 0 12.580008 12.580008"
   version="1.1"
   id="svg4"
   sodipodi:docname="distributor-logo-kaos.svg"
   inkscape:version="0.92.4 (5da689c313, 2019-01-14)"
   xmlns:inkscape="http://www.inkscape.org/namespaces/inkscape"
   xmlns:sodipodi="http://sodipodi.sourceforge.net/DTD/sodipodi-0.dtd"
   xmlns="http://www.w3.org/2000/svg"
   xmlns:svg="http://www.w3.org/2000/svg"
   xmlns:rdf="http://www.w3.org/1999/02/22-rdf-syntax-ns#"
   xmlns:cc="http://creativecommons.org/ns#"
   xmlns:dc="http://purl.org/dc/elements/1.1/">
  <metadata
     id="metadata10">
    <rdf:RDF>
      <cc:Work
         rdf:about="">
        <dc:format>image/svg+xml</dc:format>
        <dc:type
           rdf:resource="http://purl.org/dc/dcmitype/StillImage" />
        <dc:title />
      </cc:Work>
    </rdf:RDF>
  </metadata>
  <defs
     id="defs8" />
  <sodipodi:namedview
     pagecolor="#ffffff"
     bordercolor="#666666"
     borderopacity="1"
     objecttolerance="10"
     gridtolerance="10"
     guidetolerance="10"
     inkscape:pageopacity="0"
     inkscape:pageshadow="2"
     inkscape:window-width="1087"
     inkscape:window-height="480"
     id="namedview6"
     showgrid="false"
     inkscape:zoom="4.9166667"
     inkscape:cx="2.1355932"
     inkscape:cy="24"
     inkscape:window-x="0"
     inkscape:window-y="25"
     inkscape:window-maximized="0"
     inkscape:current-layer="svg4"
     inkscape:showpageshadow="0"
     inkscape:pagecheckerboard="0"
     inkscape:deskcolor="#d1d1d1" />
  <path
     d="M 6.2900079,0 A 6.29,6.29 0 0 0 7.9490244e-6,6.3 6.29,6.29 0 0 0 6.3000079,12.58 6.29,6.29 0 0 0 12.580008,6.29 6.29,6.29 0 0 0 6.2900079,0 Z m -0.02,0.93 0.01,0.01 A 5.4,5.4 0 0 1 11.680008,6.34 5.4,5.4 0 0 1 6.2800079,11.75 5.4,5.4 0 0 1 0.87000795,6.35 5.4,5.4 0 0 1 6.2700079,0.93 Z m -0.9,0.85 a 0.23,0.23 0 0 0 -0.19,0.19 l -0.19,0.96 c -0.34,0.13 -0.66,0.31 -0.94,0.54 l -0.94,-0.32 a 0.23,0.23 0 0 0 -0.27,0.1 l -0.89,1.56 a 0.23,0.23 0 0 0 0.05,0.28 l 0.75,0.66 a 3.57,3.57 0 0 0 0,1.06 l -0.75,0.66 c -0.08,0.07 -0.1,0.19 -0.05,0.28 l 0.9,1.56 c 0.06,0.09 0.17,0.13 0.27,0.1 l 0.94,-0.32 c 0.28,0.23 0.6,0.4 0.94,0.54 l 0.19,0.97 c 0.02,0.1 0.12,0.18 0.22,0.18 h 1.8 c 0.1,0 0.2,-0.08 0.22,-0.18 l 0.19,-0.97 c 0.34,-0.13 0.66,-0.31 0.94,-0.54 l 0.94,0.32 c 0.1,0.03 0.21,-0.01 0.27,-0.1 L 10.670008,7.75 a 0.23,0.23 0 0 0 -0.05,-0.28 L 9.8700079,6.81 a 3.58,3.58 0 0 0 0,-1.06 L 10.620008,5.09 c 0.08,-0.06 0.1,-0.19 0.05,-0.28 L 9.7700079,3.25 a 0.23,0.23 0 0 0 -0.27,-0.1 l -0.94,0.32 c -0.28,-0.23 -0.6,-0.4 -0.94,-0.54 l -0.19,-0.96 a 0.23,0.23 0 0 0 -0.22,-0.19 h -1.8 -0.02 z m 0.93,2.25 a 2.25,2.25 0 0 1 2.25,2.25 2.25,2.25 0 0 1 -2.25,2.25 2.25,2.25 0 0 1 -2.25,-2.25 2.25,2.25 0 0 1 2.25,-2.25 z"
     id="path2"
     inkscape:connector-curvature="0"
     style="fill:#bde6fb;fill-opacity:1" />
</svg>
