<?xml version="1.0" encoding="UTF-8" standalone="no"?>
<svg
   width="47.546486"
   height="47.546486"
   viewBox="0 0 12.580008 12.580008"
   version="1.1"
   id="svg4"
   sodipodi:docname="distributor-logo-opensuse.svg"
   inkscape:version="0.92.4 (5da689c313, 2019-01-14)"
   xmlns:inkscape="http://www.inkscape.org/namespaces/inkscape"
   xmlns:sodipodi="http://sodipodi.sourceforge.net/DTD/sodipodi-0.dtd"
   xmlns="http://www.w3.org/2000/svg"
   xmlns:svg="http://www.w3.org/2000/svg"
   xmlns:rdf="http://www.w3.org/1999/02/22-rdf-syntax-ns#"
   xmlns:cc="http://creativecommons.org/ns#"
   xmlns:dc="http://purl.org/dc/elements/1.1/">
  <metadata
     id="metadata10">
    <rdf:RDF>
      <cc:Work
         rdf:about="">
        <dc:format>image/svg+xml</dc:format>
        <dc:type
           rdf:resource="http://purl.org/dc/dcmitype/StillImage" />
        <dc:title />
      </cc:Work>
    </rdf:RDF>
  </metadata>
  <defs
     id="defs8" />
  <sodipodi:namedview
     pagecolor="#ffffff"
     bordercolor="#666666"
     borderopacity="1"
     objecttolerance="10"
     gridtolerance="10"
     guidetolerance="10"
     inkscape:pageopacity="0"
     inkscape:pageshadow="2"
     inkscape:window-width="1087"
     inkscape:window-height="480"
     id="namedview6"
     showgrid="false"
     inkscape:zoom="4.9166667"
     inkscape:cx="2.1355932"
     inkscape:cy="24"
     inkscape:window-x="0"
     inkscape:window-y="25"
     inkscape:window-maximized="0"
     inkscape:current-layer="svg4"
     inkscape:showpageshadow="0"
     inkscape:pagecheckerboard="0"
     inkscape:deskcolor="#d1d1d1" />
  <path
     d="M 6.2900079,0 A 6.29,6.29 0 0 0 7.9490244e-6,6.3 6.29,6.29 0 0 0 6.3000079,12.58 6.29,6.29 0 0 0 12.580008,6.29 6.29,6.29 0 0 0 6.2900079,0 Z m -0.02,0.94 a 5.4,5.4 0 1 1 -4.04,8.98 c 0.4,-0.32 1.09,-0.24 1.92,-0.14 0.4,0.04 0.86,0.1 1.34,0.1 a 9.8,9.8 0 0 0 3.62,-0.61 c 0.56,-0.25 0.9300001,-0.41 1.1500001,-0.62 a 0.68,0.68 0 0 0 0.17,-0.3 l 0.03,-0.08 c 0.04,-0.09 0.1,-0.3 0.11,-0.4 0.02,-0.05 0.02,-0.1 -0.01,-0.13 l -0.13,0.02 c -0.38,0.23 -1.3400001,0.67 -2.2400001,0.7 -1.12,0.02 -3.37,-1.13 -3.6,-1.25 l -0.03,-0.03 -0.46,-1.1 c 1.62,1.05 2.95,1.65 3.99,1.75 1.14,0.1 2.0400001,-0.53 2.4200001,-0.8 l 0.15,-0.1 0.03,-0.03 c -0.07,-0.4 -0.67,-2.35 -1.1200001,-2.82 -0.12,-0.13 -0.22,-0.25 -0.43,-0.37 -1.63,-0.95 -5.52,-1.53 -5.7,-1.56 l -0.03,0.01 v 0.03 l -0.03,0.9 a 15,15 0 0 0 -1.13,-0.36 4.82,4.82 0 0 1 4.02,-1.8 z m 1.43,2.86 h 0.09 a 1.67,1.67 0 0 1 1.06,2.87 c -0.32,0.3 -0.74,0.47 -1.19,0.45 a 1.67,1.67 0 0 1 -1.6,-1.72 1.65,1.65 0 0 1 1.63,-1.6 z m -0.04,0.49 a 1.15,1.15 0 0 0 -1.08,1.12 1.16,1.16 0 0 0 1.94,0.89 1.16,1.16 0 0 0 -0.87,-2 z m 0.3,0.58 c 0.29,0 0.52,0.15 0.52,0.34 0,0.2 -0.23,0.35 -0.52,0.35 -0.28,0 -0.51,-0.16 -0.51,-0.35 0,-0.19 0.23,-0.34 0.51,-0.34 z"
     id="path2"
     inkscape:connector-curvature="0"
     style="fill:#bde6fb;fill-opacity:1" />
</svg>
