<?xml version="1.0" encoding="UTF-8" standalone="no"?>
<svg
   width="47.546486"
   height="47.546486"
   viewBox="0 0 12.580008 12.580008"
   version="1.1"
   id="svg4"
   sodipodi:docname="distributor-logo.svg"
   inkscape:version="0.92.4 (5da689c313, 2019-01-14)"
   xmlns:inkscape="http://www.inkscape.org/namespaces/inkscape"
   xmlns:sodipodi="http://sodipodi.sourceforge.net/DTD/sodipodi-0.dtd"
   xmlns="http://www.w3.org/2000/svg"
   xmlns:svg="http://www.w3.org/2000/svg"
   xmlns:rdf="http://www.w3.org/1999/02/22-rdf-syntax-ns#"
   xmlns:cc="http://creativecommons.org/ns#"
   xmlns:dc="http://purl.org/dc/elements/1.1/">
  <metadata
     id="metadata10">
    <rdf:RDF>
      <cc:Work
         rdf:about="">
        <dc:format>image/svg+xml</dc:format>
        <dc:type
           rdf:resource="http://purl.org/dc/dcmitype/StillImage" />
        <dc:title />
      </cc:Work>
    </rdf:RDF>
  </metadata>
  <defs
     id="defs8" />
  <sodipodi:namedview
     pagecolor="#ffffff"
     bordercolor="#666666"
     borderopacity="1"
     objecttolerance="10"
     gridtolerance="10"
     guidetolerance="10"
     inkscape:pageopacity="0"
     inkscape:pageshadow="2"
     inkscape:window-width="1087"
     inkscape:window-height="480"
     id="namedview6"
     showgrid="false"
     inkscape:zoom="4.9166667"
     inkscape:cx="2.1355932"
     inkscape:cy="24"
     inkscape:window-x="0"
     inkscape:window-y="25"
     inkscape:window-maximized="0"
     inkscape:current-layer="svg4"
     inkscape:showpageshadow="0"
     inkscape:pagecheckerboard="0"
     inkscape:deskcolor="#d1d1d1" />
  <path
     d="M 6.2900079,0 A 6.29,6.29 0 0 0 7.9490244e-6,6.3 6.29,6.29 0 0 0 6.3000079,12.58 6.29,6.29 0 0 0 12.580008,6.29 6.29,6.29 0 0 0 6.2900079,0 Z m -0.01,0.94 A 5.4,5.4 0 0 1 11.680008,6.34 5.4,5.4 0 0 1 6.2800079,11.75 5.4,5.4 0 0 1 0.87000795,6.35 5.4,5.4 0 0 1 6.2700079,0.93 Z m 0.02,0.68 c -2.56,0 -4.65,1.81 -4.65,4.39 v 0.57 h 1.7 c 0.07,0.72 0.36,1.43 0.9,1.98 a 3.12,3.13 0 0 0 4.36,0.01 l -0.33,-0.32 -0.23,-0.23 c -0.92,0.91 -2.43,0.93 -3.36,0.02 a 2.53,2.53 0 0 1 -0.68,-1.46 H 10.260008 A 3.98,4 0 0 1 2.4300079,7.32 l -0.64,0.11 a 4.63,4.65 0 0 0 4.49,3.51 c 2.55,0 4.6200001,-1.8 4.6200001,-4.36 V 5.99 H 4.0100079 a 2.53,2.53 0 0 1 0.67,-1.43 2.32,2.32 0 0 1 3.33,-0.03 l 0.56,-0.55 a 3.04,3.05 0 0 0 -2.1,-0.91 3.04,3.05 0 0 0 -2.24,0.94 3.26,3.26 0 0 0 -0.89,1.98 h -1.03 A 3.98,4 0 0 1 10.140008,5.24 l 0.64,-0.11 A 4.63,4.65 0 0 0 6.3000079,1.62 Z"
     id="path2"
     inkscape:connector-curvature="0"
     style="fill:#bde6fb;fill-opacity:1;stroke-width:3.78" />
</svg>
