<?xml version="1.0" encoding="UTF-8" standalone="no"?>
<svg
   width="47.542679"
   height="47.546455"
   viewBox="0 0 12.579 12.58"
   version="1.1"
   id="svg4"
   sodipodi:docname="distributor-logo-kali-linux.svg"
   inkscape:version="0.92.5 (2060ec1f9f, 2020-04-08)"
   xmlns:inkscape="http://www.inkscape.org/namespaces/inkscape"
   xmlns:sodipodi="http://sodipodi.sourceforge.net/DTD/sodipodi-0.dtd"
   xmlns="http://www.w3.org/2000/svg"
   xmlns:svg="http://www.w3.org/2000/svg"
   xmlns:rdf="http://www.w3.org/1999/02/22-rdf-syntax-ns#"
   xmlns:cc="http://creativecommons.org/ns#"
   xmlns:dc="http://purl.org/dc/elements/1.1/">
  <metadata
     id="metadata10">
    <rdf:RDF>
      <cc:Work
         rdf:about="">
        <dc:format>image/svg+xml</dc:format>
        <dc:type
           rdf:resource="http://purl.org/dc/dcmitype/StillImage" />
        <dc:title />
      </cc:Work>
    </rdf:RDF>
  </metadata>
  <defs
     id="defs8" />
  <sodipodi:namedview
     pagecolor="#ffffff"
     bordercolor="#666666"
     borderopacity="1"
     objecttolerance="10"
     gridtolerance="10"
     guidetolerance="10"
     inkscape:pageopacity="0"
     inkscape:pageshadow="2"
     inkscape:window-width="1085"
     inkscape:window-height="480"
     id="namedview6"
     showgrid="false"
     inkscape:zoom="4.9166667"
     inkscape:cx="2.1355932"
     inkscape:cy="24"
     inkscape:window-x="0"
     inkscape:window-y="25"
     inkscape:window-maximized="0"
     inkscape:current-layer="svg4"
     inkscape:showpageshadow="0"
     inkscape:pagecheckerboard="0"
     inkscape:deskcolor="#d1d1d1" />
  <path
     d="M 6.285,0 A 6.295,6.295 0 0 0 0,6.285 6.296,6.296 0 0 0 6.285,12.58 6.295,6.295 0 0 0 12.579,6.285 6.295,6.295 0 0 0 6.285,0 Z M 6.274,0.94 a 5.408,5.408 0 0 1 5.397,5.387 5.407,5.407 0 1 1 -10.814,0 C 0.857,3.34 3.287,0.94 6.274,0.94 Z M 5.982,1.784 C 5.832,1.796 5.683,1.807 5.537,1.829 5.869,2.068 6.227,2.268 6.544,2.528 A 11.428,11.428 0 0 1 8.2,4.198 C 8.328,4.338 8.543,4.232 8.708,4.258 8.522,3.915 8.181,3.693 7.918,3.416 A 18.695,18.695 0 0 0 5.982,1.785 Z M 4.864,2.47 c -0.003,0 0.006,0.089 0.02,0.197 0.014,0.11 0.02,0.2 0.011,0.21 A 3.092,3.092 0 0 1 4.51,2.732 C 3.976,2.512 3.87,2.472 3.87,2.5 3.87,2.511 3.896,2.59 3.924,2.67 4.03,2.96 4.034,2.944 3.879,2.94 3.807,2.94 3.555,2.92 3.326,2.891 A 4.678,4.678 0 0 0 2.899,2.849 c -0.005,0.003 0.06,0.103 0.15,0.217 0.087,0.118 0.154,0.22 0.149,0.224 a 6.16,6.16 0 0 1 -0.5,0.098 9.99,9.99 0 0 0 -0.542,0.109 c -0.044,0.02 -0.025,0.044 0.134,0.17 0.1,0.08 0.185,0.15 0.185,0.156 0,0.006 -0.162,0.112 -0.36,0.238 A 9.03,9.03 0 0 0 1.679,4.351 L 1.601,4.412 1.844,4.479 c 0.13,0.034 0.24,0.073 0.24,0.08 0,0.01 -0.137,0.208 -0.308,0.437 A 7.54,7.54 0 0 0 1.47,5.434 c 0,0.01 0.117,0.025 0.26,0.028 L 1.992,5.47 1.875,5.973 A 7.39,7.39 0 0 0 1.763,6.483 C 1.766,6.486 1.866,6.445 1.983,6.389 2.107,6.33 2.21,6.297 2.221,6.311 c 0.02,0.022 0.226,0.723 0.226,0.77 0,0.011 0.014,0.053 0.028,0.095 L 2.505,7.251 2.639,7.12 2.773,6.986 3.036,7.198 c 0.146,0.114 0.36,0.268 0.477,0.338 0.541,0.3 1.099,0.571 1.67,0.81 1.284,0.536 1.836,0.862 2.33,1.387 0.28,0.296 0.43,0.583 0.542,1.033 l 0.078,0.315 0.022,-0.165 c 0.03,-0.232 0,-0.675 -0.055,-0.84 A 3.57,3.57 0 0 0 7.882,9.63 2.224,2.224 0 0 0 7.457,9.071 C 7.022,8.631 6.576,8.328 5.934,8.035 4.594,7.429 4.197,7.192 3.664,6.685 3.094,6.14 2.88,5.649 2.974,5.107 3.044,4.717 3.327,4.32 3.67,4.137 4.005,3.954 4.18,3.916 4.694,3.902 5.264,3.885 5.546,3.915 6.023,4.127 6.26,4.215 6.288,4.222 6.301,4.226 L 7.448,4.815 A 0.37,0.37 0 0 1 7.573,4.912 C 7.611,4.957 7.601,5.009 7.595,5.091 7.59,5.162 7.593,5.237 7.596,5.308 7.614,5.503 7.679,5.669 7.78,5.768 7.867,5.854 8.06,5.976 8.452,6.19 c 0.19,0.104 0.426,0.242 0.524,0.307 0.23,0.152 0.467,0.344 0.685,0.55 v 0.001 c 0.149,0.142 0.299,0.3 0.42,0.447 0.103,0.123 0.172,0.195 0.187,0.19 0.017,-0.004 0.2,-0.124 0.415,-0.27 0.529,-0.359 0.549,-0.374 0.529,-0.397 A 0.222,0.222 0 0 0 11.136,6.988 2.494,2.494 0 0 1 10.301,6.638 3.57,3.57 0 0 1 9.976,6.392 C 9.862,6.292 9.747,6.202 9.649,6.08 L 9.599,6.015 9.631,5.979 C 9.727,5.873 9.72,5.824 9.568,5.569 9.368,5.234 9.172,4.893 9.09,4.741 A 2.57,2.57 0 0 0 8.943,4.489 0.331,0.331 0 0 0 8.867,4.41 0.183,0.183 0 0 0 8.791,4.374 C 8.609,4.353 8.341,4.424 8.199,4.354 A 0.516,0.516 0 0 1 8.079,4.263 C 7.987,4.174 7.899,4.066 7.828,3.983 A 48.045,48.045 0 0 1 7.445,3.531 C 7.296,3.351 7.187,3.234 7.16,3.227 7.154,3.225 7.154,3.224 7.153,3.233 7.151,3.259 7.161,3.369 7.178,3.495 7.201,3.662 7.214,3.747 7.21,3.782 7.208,3.792 7.208,3.794 7.202,3.797 7.185,3.806 7.149,3.778 7.079,3.731 L 7.075,3.727 H 7.074 C 6.764,3.513 6.339,3.002 6.127,2.756 L 6.173,3.243 C 6.096,3.206 6.017,3.163 5.946,3.132 5.678,3.046 5.573,2.885 5.16,2.64 A 7.294,7.294 0 0 0 4.864,2.47 Z m 4.061,2.66 c 0.007,0 0.013,0.003 0.022,0.007 C 9.015,5.221 9.084,5.318 9.133,5.391 9.229,5.534 9.307,5.663 9.309,5.678 9.311,5.698 9.304,5.7 9.301,5.703 9.276,5.731 9.204,5.729 9.107,5.693 8.94,5.633 8.851,5.562 8.828,5.469 8.804,5.371 8.851,5.185 8.904,5.141 8.912,5.134 8.919,5.131 8.925,5.131 Z"
     id="path2"
     inkscape:connector-curvature="0"
     style="fill:#bde6fb;fill-opacity:1" />
</svg>
