<?xml version="1.0" encoding="UTF-8" standalone="no"?>
<svg
   width="47.546486"
   height="47.546486"
   viewBox="0 0 12.580008 12.580008"
   version="1.1"
   id="svg4"
   sodipodi:docname="distributor-logo-elementary.svg"
   inkscape:version="0.92.4 (5da689c313, 2019-01-14)"
   xmlns:inkscape="http://www.inkscape.org/namespaces/inkscape"
   xmlns:sodipodi="http://sodipodi.sourceforge.net/DTD/sodipodi-0.dtd"
   xmlns="http://www.w3.org/2000/svg"
   xmlns:svg="http://www.w3.org/2000/svg"
   xmlns:rdf="http://www.w3.org/1999/02/22-rdf-syntax-ns#"
   xmlns:cc="http://creativecommons.org/ns#"
   xmlns:dc="http://purl.org/dc/elements/1.1/">
  <metadata
     id="metadata10">
    <rdf:RDF>
      <cc:Work
         rdf:about="">
        <dc:format>image/svg+xml</dc:format>
        <dc:type
           rdf:resource="http://purl.org/dc/dcmitype/StillImage" />
        <dc:title />
      </cc:Work>
    </rdf:RDF>
  </metadata>
  <defs
     id="defs8" />
  <sodipodi:namedview
     pagecolor="#ffffff"
     bordercolor="#666666"
     borderopacity="1"
     objecttolerance="10"
     gridtolerance="10"
     guidetolerance="10"
     inkscape:pageopacity="0"
     inkscape:pageshadow="2"
     inkscape:window-width="1087"
     inkscape:window-height="480"
     id="namedview6"
     showgrid="false"
     inkscape:zoom="4.9166667"
     inkscape:cx="2.1355932"
     inkscape:cy="24"
     inkscape:window-x="0"
     inkscape:window-y="25"
     inkscape:window-maximized="0"
     inkscape:current-layer="svg4"
     inkscape:showpageshadow="0"
     inkscape:pagecheckerboard="0"
     inkscape:deskcolor="#d1d1d1" />
  <path
     d="M 6.2900079,0 A 6.29,6.29 0 0 0 7.9490244e-6,6.3 6.29,6.29 0 0 0 6.3000079,12.58 6.29,6.29 0 0 0 12.580008,6.29 6.29,6.29 0 0 0 6.2900079,0 Z m 0.01,0.95 c 0.3,0 0.59,0.02 0.87,0.07 a 5.4,5.4 0 0 1 0.05,0 l 0.32,0.07 a 5.4,5.4 0 0 1 0.2,0.06 l 0.23,0.07 a 5.4,5.4 0 0 1 0.3,0.1 l 0.15,0.06 a 5.4,5.4 0 0 1 0.45,0.22 5.4,5.4 0 0 1 0.43,0.27 l 0.07,0.05 a 5.4,5.4 0 0 1 0.35,0.26 l 0.07,0.06 a 5.4,5.4 0 0 1 0.3600001,0.34 5.4,5.4 0 0 1 0.67,0.84 5.4,5.4 0 0 1 0.27,0.47 5.4,5.4 0 0 1 0.39,0.98 9.34,9.34 0 0 1 -2.2800001,2.97 c -0.46,0.4 -0.96,0.75 -1.5,1 -0.56,0.25 -1.16,0.39 -1.77,0.35 -0.45,-0.02 -0.9,-0.15 -1.3,-0.37 1.06,-0.57 2,-1.33 2.78,-2.24 0.51,-0.6 0.96,-1.28 1.13,-2.04 0.09,-0.39 0.1,-0.79 0.02,-1.17 a 2.16,2.16 0 0 0 -0.53,-1.04 c -0.26,-0.28 -0.6,-0.48 -0.97,-0.58 -0.37,-0.1 -0.77,-0.1 -1.14,-0.04 -0.76,0.14 -1.43,0.58 -1.97,1.12 a 4.78,4.78 0 0 0 -1.44,3.66 3.85,3.85 0 0 0 0.95,2.25 8.8,8.8 0 0 1 -1.74,0.42 5.38,5.38 0 0 1 4.58,-8.2 z m 0.03,1.09 c 0.38,0 0.76,0.11 1.07,0.34 0.27,0.2 0.47,0.5 0.58,0.82 0.12,0.32 0.15,0.67 0.1,1 -0.07,0.68 -0.41,1.3 -0.83,1.85 a 7.93,7.93 0 0 1 -3.1,2.42 c -0.24,-0.2 -0.44,-0.45 -0.6,-0.72 a 3.23,3.23 0 0 1 -0.36,-1.9 c 0.07,-0.64 0.29,-1.27 0.59,-1.85 0.34,-0.67 0.82,-1.3 1.48,-1.67 0.33,-0.18 0.7,-0.3 1.08,-0.3 z m 5.3000001,3.58 a 5.4,5.4 0 0 1 0.05,0.72 5.4,5.4 0 0 1 -0.02,0.5 l -0.01,0.09 a 5.4,5.4 0 0 1 -0.06,0.4 l -0.05,0.21 a 5.4,5.4 0 0 1 -0.06,0.26 5.38,5.38 0 0 1 -9.3300001,1.96 c 0.61,-0.14 1.2,-0.34 1.78,-0.6 0.25,0.2 0.52,0.35 0.82,0.47 0.84,0.32 1.8,0.27 2.65,-0.02 a 6.5,6.5 0 0 0 2.28,-1.45 9.78,9.78 0 0 0 1.9500001,-2.54 z"
     id="path2"
     inkscape:connector-curvature="0"
     style="fill:#bde6fb;fill-opacity:1" />
</svg>
