<?xml version="1.0" encoding="UTF-8" standalone="no"?>
<svg
   width="47.546486"
   height="47.546486"
   viewBox="0 0 12.580008 12.580008"
   version="1.1"
   id="svg6"
   sodipodi:docname="distributor-logo-antergos.svg"
   inkscape:version="0.92.4 (5da689c313, 2019-01-14)"
   xmlns:inkscape="http://www.inkscape.org/namespaces/inkscape"
   xmlns:sodipodi="http://sodipodi.sourceforge.net/DTD/sodipodi-0.dtd"
   xmlns="http://www.w3.org/2000/svg"
   xmlns:svg="http://www.w3.org/2000/svg"
   xmlns:rdf="http://www.w3.org/1999/02/22-rdf-syntax-ns#"
   xmlns:cc="http://creativecommons.org/ns#"
   xmlns:dc="http://purl.org/dc/elements/1.1/">
  <metadata
     id="metadata12">
    <rdf:RDF>
      <cc:Work
         rdf:about="">
        <dc:format>image/svg+xml</dc:format>
        <dc:type
           rdf:resource="http://purl.org/dc/dcmitype/StillImage" />
        <dc:title />
      </cc:Work>
    </rdf:RDF>
  </metadata>
  <defs
     id="defs10" />
  <sodipodi:namedview
     pagecolor="#ffffff"
     bordercolor="#666666"
     borderopacity="1"
     objecttolerance="10"
     gridtolerance="10"
     guidetolerance="10"
     inkscape:pageopacity="0"
     inkscape:pageshadow="2"
     inkscape:window-width="1087"
     inkscape:window-height="480"
     id="namedview8"
     showgrid="false"
     inkscape:zoom="4.9166667"
     inkscape:cx="2.1355932"
     inkscape:cy="24"
     inkscape:window-x="0"
     inkscape:window-y="25"
     inkscape:window-maximized="0"
     inkscape:current-layer="svg6"
     inkscape:showpageshadow="0"
     inkscape:pagecheckerboard="0"
     inkscape:deskcolor="#d1d1d1" />
  <path
     d="M 6.2900079,0 A 6.29,6.29 0 0 0 7.9490244e-6,6.3 6.29,6.29 0 0 0 6.3000079,12.58 6.29,6.29 0 0 0 12.580008,6.29 6.29,6.29 0 0 0 6.2900079,0 Z m -0.02,0.93 0.01,0.01 A 5.4,5.4 0 0 1 11.680008,6.34 5.4,5.4 0 0 1 6.2800079,11.75 5.4,5.4 0 0 1 0.87000795,6.35 5.4,5.4 0 0 1 6.2700079,0.93 Z"
     id="path2"
     inkscape:connector-curvature="0"
     style="fill:#bde6fb;fill-opacity:1" />
  <path
     d="m 6.0500079,3.24 a 0.06,0.06 0 0 0 -0.03,0.02 8.55,8.55 0 0 1 -3.31,1.99 0.06,0.06 0 0 0 -0.04,0.02 c -0.17,0.31 -0.29,0.77 -0.33,1.25 -0.04,0.47 0,0.97 0.1,1.36 a 0.06,0.06 0 0 0 0.1,0.03 c 0.81,-0.67 2.68,-1.48 3.9,-4.6 a 0.06,0.06 0 0 0 -0.05,-0.07 z m 1,0.11 a 0.06,0.06 0 0 0 -0.05,0.05 c -0.6,2.55 -1.3,4.99 -2.98,6.54 a 0.06,0.06 0 0 0 0,0.08 c 0.66,0.62 1.62,0.71 2.7,0.57 a 0.06,0.06 0 0 0 0.05,-0.03 c 1.21,-2.86 1.12,-5.42 0.34,-7.17 a 0.06,0.06 0 0 0 -0.06,-0.04 z m 1,0.45 a 0.06,0.06 0 0 0 -0.04,0.08 c 0.9,1.7 1.04,3.5 1.1,5.21 a 0.06,0.06 0 0 0 0.1,0.02 c 0.26,-0.8 0.57,-1.63 0.52,-2.5 -0.05,-0.89 -0.47,-1.81 -1.64,-2.8 a 0.06,0.06 0 0 0 -0.04,-0.01 z"
     id="path4"
     inkscape:connector-curvature="0"
     style="fill:#bde6fb;fill-opacity:1" />
</svg>
