<?xml version="1.0" encoding="UTF-8" standalone="no"?>
<svg
   width="47.542397"
   height="47.542404"
   version="1.1"
   viewBox="0 0 12.578926 12.578928"
   id="svg6"
   sodipodi:docname="distributor-logo-rhel.svg"
   inkscape:version="0.92.4 (5da689c313, 2019-01-14)"
   xmlns:inkscape="http://www.inkscape.org/namespaces/inkscape"
   xmlns:sodipodi="http://sodipodi.sourceforge.net/DTD/sodipodi-0.dtd"
   xmlns="http://www.w3.org/2000/svg"
   xmlns:svg="http://www.w3.org/2000/svg"
   xmlns:rdf="http://www.w3.org/1999/02/22-rdf-syntax-ns#"
   xmlns:cc="http://creativecommons.org/ns#"
   xmlns:dc="http://purl.org/dc/elements/1.1/">
  <metadata
     id="metadata12">
    <rdf:RDF>
      <cc:Work
         rdf:about="">
        <dc:format>image/svg+xml</dc:format>
        <dc:type
           rdf:resource="http://purl.org/dc/dcmitype/StillImage" />
        <dc:title />
      </cc:Work>
    </rdf:RDF>
  </metadata>
  <defs
     id="defs10" />
  <sodipodi:namedview
     pagecolor="#ffffff"
     bordercolor="#666666"
     borderopacity="1"
     objecttolerance="10"
     gridtolerance="10"
     guidetolerance="10"
     inkscape:pageopacity="0"
     inkscape:pageshadow="2"
     inkscape:window-width="1136"
     inkscape:window-height="480"
     id="namedview8"
     showgrid="false"
     inkscape:zoom="4.9166667"
     inkscape:cx="2.1355932"
     inkscape:cy="24"
     inkscape:window-x="0"
     inkscape:window-y="25"
     inkscape:window-maximized="0"
     inkscape:current-layer="svg6"
     inkscape:showpageshadow="0"
     inkscape:pagecheckerboard="0"
     inkscape:deskcolor="#d1d1d1" />
  <path
     d="M 6.2843042,0 C 2.815925,0.0057469 0.00582076,2.815925 0,6.2843042 c -4.6082631e-6,3.4723479 2.8119563,6.2888018 6.2843042,6.2946228 3.4765812,0 6.2946228,-2.8180416 6.2946228,-6.2946228 C 12.573169,2.8119563 9.7566521,0 6.2843042,0 Z m -0.010335,0.93947067 c 2.9741438,0.00572 5.3855261,2.41251983 5.3969031,5.38658423 0,2.9865791 -2.4208808,5.4074861 -5.4074863,5.4074861 -2.986579,0 -5.40722149,-2.4208806 -5.40722149,-5.4074861 0,-2.986579 2.43122569,-5.38658423 5.41780469,-5.38658423 z M 1.2392761,6.0006215 a 5.1087752,5.0309887 0 0 0 0.01757,0.3245338 5.1087752,5.0309887 0 0 1 -0.01757,-0.3245338 z m 0.01757,0.3245338 a 5.1087752,5.0309887 0 0 0 0.018086,0.2346084 5.1087752,5.0309887 0 0 1 -0.018086,-0.2346084 z m 0.018086,0.2346084 a 5.1087752,5.0309887 0 0 0 0.03979,0.253211 5.1087752,5.0309887 0 0 1 -0.03979,-0.253211 z m 0.03979,0.253211 a 5.1087752,5.0309887 0 0 0 0.045476,0.2506287 5.1087752,5.0309887 0 0 1 -0.045476,-0.2506287 z m 0.045476,0.2506287 a 5.1087752,5.0309887 0 0 0 0.058911,0.2242739 5.1087752,5.0309887 0 0 1 -0.058911,-0.2242739 z m 0.058911,0.2242739 A 5.1087752,5.0309887 0 0 0 1.5100592,7.6030979 5.1087752,5.0309887 0 0 1 1.4191098,7.2878773 Z M 11.449867,6.1794194 a 5.1087752,5.0309887 0 0 1 -0.02635,0.3374453 5.1087752,5.0309887 0 0 0 0.02635,-0.3374453 z m -7.6191105,0.273364 c -0.2861962,-0.00343 -0.428699,0.2517082 -0.4072151,0.4599195 0.02491,0.2413604 0.1836556,0.4347578 0.2573464,0.5632643 0.072998,0.1281784 0.110351,0.2117831 0.2480438,0.2687075 0.098254,0.039885 0.1349966,0.09971 0.1059351,0.1787978 -0.0256,0.068862 -0.1278715,0.084779 -0.1953341,0.087848 C 3.697342,8.0177977 3.5978256,7.9801694 3.5248147,7.933807 3.4404005,7.8813091 3.3713028,7.8075971 3.2979585,7.6821465 3.2121605,7.5440807 3.0779629,7.3576126 2.9212495,7.3576126 c -0.074728,0 -0.1452914,0.019961 -0.207219,0.050643 C 2.468397,7.5347304 2.1762187,7.6092335 1.8613685,7.6092759 H 1.5120435 A 5.1087752,5.0309887 0 0 0 6.3477722,11.031882 5.1087752,5.0309887 0 0 0 10.764936,8.516309 h -0.745693 c -0.8621075,0 -0.6902363,0.2087854 -0.9327503,0.3079976 -0.026984,0.013294 -0.045476,0.040983 -0.045476,0.072347 0,0.011249 0.00291,0.022834 0.00775,0.032038 0.028368,0.082157 -0.019165,0.1705536 -0.2537269,0.221689 C 8.4470126,9.2257194 8.2271466,9.4788828 8.1015505,9.5958272 7.9538249,9.7342342 7.5376776,9.8193999 7.6003037,9.7369012 7.6494309,9.6724707 7.8368435,9.5718324 7.9506605,9.3550064 8.0530636,9.1617149 8.1440897,9.1062166 8.2689767,8.9214392 c 0.037017,-0.054205 0.1791392,-0.2449799 0.2206545,-0.395309 0.04636,-0.1476118 0.030585,-0.3322066 0.048574,-0.4082469 0.0256,-0.1097716 0.1305332,-0.3474729 0.1384918,-0.4821442 0.00449,-0.076022 -0.3224966,0.1085202 -0.4774876,0.1085202 -0.1549909,0 -0.3060132,-0.091532 -0.444415,-0.097667 C 7.5835426,7.6380696 7.4734667,7.7770725 7.3181318,7.7525274 7.2299102,7.738891 7.1546266,7.6616892 7.0003183,7.6558922 6.779939,7.6480516 6.5105013,7.7768158 6.0050477,7.7607929 5.5075579,7.7447694 5.0481148,7.1413846 4.9854887,7.0456067 4.9117978,6.9327686 4.8220867,6.9331999 4.7245255,7.021836 4.6266176,7.1097877 4.5057363,7.0405048 4.4718304,6.9815299 4.4064421,6.8686918 4.2319886,6.540184 3.9617995,6.4709699 3.9150959,6.4590389 3.871427,6.4533737 3.8305441,6.4528832 Z m 7.5698985,0.253211 a 5.1087752,5.0309887 0 0 1 -0.05994,0.3301959 5.1087752,5.0309887 0 0 0 0.05994,-0.3301959 z m -0.09301,0.4759265 a 5.1087752,5.0309887 0 0 1 -0.104901,0.3643267 5.1087752,5.0309887 0 0 0 0.104901,-0.3643267 z m -0.137458,0.461454 A 5.1087752,5.0309887 0 0 1 11.007921,8.0469653 5.1087752,5.0309887 0 0 0 11.170182,7.6433749 Z M 10.989834,8.0857262 A 5.1087752,5.0309887 0 0 1 10.766079,8.513605 5.1087752,5.0309887 0 0 0 10.989834,8.0857262 Z M 7.3254006,8.2645241 c 0.00342,0 0.0065,0.00189 0.00879,0.00465 0.021718,0.028749 0.059152,0.1262999 0.013436,0.2511446 C 7.3219015,8.586483 7.2944513,8.6328824 7.245303,8.6872325 7.185582,8.7530017 7.0698361,8.8287034 6.9109532,8.6892994 6.8252293,8.6148677 6.819681,8.5894865 6.7016651,8.6107508 6.61737,8.6257147 6.5838133,8.507525 6.6138166,8.4102495 c 0.030575,-0.097276 0.1548958,-0.1753637 0.3100613,-0.050125 0.070008,0.056318 0.1784963,0.1760965 0.2733641,0.069762 0.039719,-0.042928 0.063761,-0.072246 0.1183387,-0.1596793 0.00258,-0.00355 0.00581,-0.00568 0.00982,-0.00568 z"
     id="path2"
     inkscape:connector-curvature="0"
     style="fill:#bde6fb;fill-opacity:1;stroke-width:1.04387" />
  <path
     d="m 6.9890028,1.7943524 c -0.11268,0.00431 -0.22667,0.020851 -0.33767,0.049416 -0.16335,0.041762 -0.35313,0.44568 -1.0755,0.074608 -1.0139,-0.37307 -1.1777,0.28306 -1.2364,0.50723 -0.059338,0.22417 -0.20057,0.86138 -0.20057,0.86138 -0.047003,0.25992 -0.10872,0.7106 1.4844,1.0149 0.74206,0.14132 0.77912,0.33389 0.81245,0.47187 0.059004,0.24757 0.15318,0.53817 0.25919,0.609 0.10601,0.070828 -4.96e-5,0.12929 -0.11772,0.14098 -0.31569,0.033075 -1.4843,-0.45123 -2.1757,-0.84445 -0.56538,-0.34612 -0.57456,-0.60792 -0.44523,-0.87252 -0.85406,-0.092544 -1.4948,0.030762 -1.6108,0.43602 -0.19968,0.69492 1.5251,1.882 3.4896,2.478 2.0615,0.62509 4.1817002,0.18853 4.4174002,-1.1094 0.10701,-0.58968 -0.3888202,-1.1503 -1.2252002,-1.339 -0.04867,0.16371 -0.16698,0.54719 -0.475,0.70555 -0.045004,0.023051 -0.061999,-0.01497 -0.041664,-0.050385 0.11667,-0.19845 0.18666,-0.2973 0.22066,-0.37514 0.047003,-0.11459 0.07254,-0.27747 -0.0218,-0.61624 -0.18502,-0.66718 -0.57182,-1.5592 -0.85218,-1.8483 -0.20327,-0.20947 -0.53012,-0.30652 -0.86816,-0.29359 z m -0.048931,0.24708 h 0.028583 c 0.31854,0.00681 0.57343,0.12295 0.56973,0.25968 -0.00403,0.13672 -0.2649,0.24212 -0.58378,0.23593 -0.10259,-0.00248 -0.19936,-0.016004 -0.28244,-0.038272 -0.010431,-0.00216 -0.016957,-0.00961 -0.016957,-0.018893 0,-0.00897 0.00667,-0.016902 0.01744,-0.01938 0.19812,-0.042068 0.33207,-0.11108 0.32265,-0.17634 -0.012782,-0.086299 -0.27179,-0.13358 -0.57991,-0.10513 -0.033974,0.00309 -0.066876,0.00698 -0.098831,0.011627 h -0.00243 c -0.00874,8e-7 -0.015978,-0.00614 -0.015978,-0.013565 0,-0.00557 0.00382,-0.010431 0.00921,-0.012596 0.11134,-0.053821 0.27682,-0.097012 0.46654,-0.11434 0.056846,-0.00557 0.11269,-0.00872 0.16617,-0.00872 z m -2.2227,0.74414 c 0.047473,-0.00199 0.091196,0.024557 0.11191,0.051353 0.050533,0.065287 0.15878,0.17201 0.2994,0.16811 0.14062,-0.0039 0.30274,-0.034397 0.52904,-0.034397 0.22912,0 0.38298,0.088387 0.39145,0.16472 0.00785,0.064637 -0.018859,0.12536 -0.27372,0.14485 -0.53515,0.039952 -0.59073,0.10014 -0.69085,0.21026 -0.14124,0.15623 -0.32798,-0.20202 -0.32798,-0.20202 -0.11205,-0.024361 -0.24706,-0.21089 -0.17392,-0.38466 0.036095,-0.086075 0.087209,-0.11622 0.13468,-0.11821 z"
     id="path4"
     inkscape:connector-curvature="0"
     style="opacity:0.8;fill:#ff2a2a;stroke-width:0.24804" />
</svg>
