<?xml version="1.0" encoding="UTF-8" standalone="no"?>
<svg
   width="47.546486"
   height="47.546455"
   viewBox="0 0 12.580008 12.58"
   version="1.1"
   id="svg4"
   sodipodi:docname="distributor-logo-archlinux.svg"
   inkscape:version="0.92.4 (5da689c313, 2019-01-14)"
   xmlns:inkscape="http://www.inkscape.org/namespaces/inkscape"
   xmlns:sodipodi="http://sodipodi.sourceforge.net/DTD/sodipodi-0.dtd"
   xmlns="http://www.w3.org/2000/svg"
   xmlns:svg="http://www.w3.org/2000/svg"
   xmlns:rdf="http://www.w3.org/1999/02/22-rdf-syntax-ns#"
   xmlns:cc="http://creativecommons.org/ns#"
   xmlns:dc="http://purl.org/dc/elements/1.1/">
  <metadata
     id="metadata10">
    <rdf:RDF>
      <cc:Work
         rdf:about="">
        <dc:format>image/svg+xml</dc:format>
        <dc:type
           rdf:resource="http://purl.org/dc/dcmitype/StillImage" />
        <dc:title />
      </cc:Work>
    </rdf:RDF>
  </metadata>
  <defs
     id="defs8" />
  <sodipodi:namedview
     pagecolor="#ffffff"
     bordercolor="#666666"
     borderopacity="1"
     objecttolerance="10"
     gridtolerance="10"
     guidetolerance="10"
     inkscape:pageopacity="0"
     inkscape:pageshadow="2"
     inkscape:window-width="1087"
     inkscape:window-height="480"
     id="namedview6"
     showgrid="false"
     inkscape:zoom="4.9166667"
     inkscape:cx="2.1355932"
     inkscape:cy="24"
     inkscape:window-x="0"
     inkscape:window-y="25"
     inkscape:window-maximized="0"
     inkscape:current-layer="svg4"
     inkscape:showpageshadow="0"
     inkscape:pagecheckerboard="0"
     inkscape:deskcolor="#d1d1d1" />
  <path
     d="M 6.2900079,0 A 6.29,6.29 0 0 0 7.9490244e-6,6.3 6.29,6.29 0 0 0 1.6100079,10.48 l -0.6,1.1 1.08,-0.62 a 6.29,6.29 0 0 0 4.21,1.62 6.29,6.29 0 0 0 4.2000001,-1.62 l 1.1,0.61 -0.61,-1.11 a 6.29,6.29 0 0 0 1.59,-4.17 A 6.29,6.29 0 0 0 6.2900079,0 Z m -0.02,0.93 0.01,0.01 a 5.4,5.4 0 0 1 5.4000001,5.4 5.4,5.4 0 0 1 -1.2,3.4 c -0.38,-0.31 -0.8300001,-0.68 -1.6100001,-1.09 0.64,0.17 1.1,0.36 1.4600001,0.58 C 7.5000079,3.96 7.2700079,3.26 6.3000079,0.99 c -0.47,1.15 -0.76,1.9 -1.28,3.03 0.32,0.34 0.72,0.74 1.36,1.19 a 5.62,5.62 0 0 1 -1.51,-0.87 c -0.55,1.15 -1.4,2.75 -2.83,5.37 A 5.4,5.4 0 0 1 0.87000795,6.35 5.4,5.4 0 0 1 6.2700079,0.93 Z m 0.1,6.14 c 0.65,0 1.28,1.06 1.25,2.14 0,0.2 -0.02,0.4 -0.06,0.58 0.68,0.13 1.36,0.38 2.12,0.75 a 5.4,5.4 0 0 1 -3.4,1.21 5.4,5.4 0 0 1 -3.4,-1.2 8.56,8.56 0 0 1 2.19,-0.77 3.07,3.07 0 0 1 -0.08,-0.72 V 9.01 c 0.03,-1.08 0.73,-1.93 1.38,-1.94 z"
     id="path2"
     inkscape:connector-curvature="0"
     style="fill:#bde6fb;fill-opacity:1" />
</svg>
