<?xml version="1.0" encoding="UTF-8" standalone="no"?>
<svg
   width="47.546486"
   height="47.546486"
   viewBox="0 0 12.580008 12.580008"
   version="1.1"
   id="svg4"
   sodipodi:docname="distributor-logo-gentoo.svg"
   inkscape:version="0.92.4 (5da689c313, 2019-01-14)"
   xmlns:inkscape="http://www.inkscape.org/namespaces/inkscape"
   xmlns:sodipodi="http://sodipodi.sourceforge.net/DTD/sodipodi-0.dtd"
   xmlns="http://www.w3.org/2000/svg"
   xmlns:svg="http://www.w3.org/2000/svg"
   xmlns:rdf="http://www.w3.org/1999/02/22-rdf-syntax-ns#"
   xmlns:cc="http://creativecommons.org/ns#"
   xmlns:dc="http://purl.org/dc/elements/1.1/">
  <metadata
     id="metadata10">
    <rdf:RDF>
      <cc:Work
         rdf:about="">
        <dc:format>image/svg+xml</dc:format>
        <dc:type
           rdf:resource="http://purl.org/dc/dcmitype/StillImage" />
        <dc:title />
      </cc:Work>
    </rdf:RDF>
  </metadata>
  <defs
     id="defs8" />
  <sodipodi:namedview
     pagecolor="#ffffff"
     bordercolor="#666666"
     borderopacity="1"
     objecttolerance="10"
     gridtolerance="10"
     guidetolerance="10"
     inkscape:pageopacity="0"
     inkscape:pageshadow="2"
     inkscape:window-width="1087"
     inkscape:window-height="480"
     id="namedview6"
     showgrid="false"
     inkscape:zoom="4.9166667"
     inkscape:cx="2.1355932"
     inkscape:cy="24"
     inkscape:window-x="0"
     inkscape:window-y="25"
     inkscape:window-maximized="0"
     inkscape:current-layer="svg4"
     inkscape:showpageshadow="0"
     inkscape:pagecheckerboard="0"
     inkscape:deskcolor="#d1d1d1" />
  <path
     d="M 6.2900079,0 A 6.29,6.29 0 0 0 7.9490244e-6,6.3 6.29,6.29 0 0 0 6.3000079,12.58 6.29,6.29 0 0 0 12.580008,6.29 6.29,6.29 0 0 0 6.2900079,0 Z m -0.02,0.93 0.01,0.01 A 5.4,5.4 0 0 1 11.680008,6.34 5.4,5.4 0 0 1 6.2800079,11.75 5.4,5.4 0 0 1 0.87000795,6.35 5.4,5.4 0 0 1 6.2700079,0.93 Z m -0.54,1 -0.26,0.02 c -0.9,0.1 -1.06,0.23 -1.84,0.9 -0.27,0.21 -0.74,0.76 -0.84,1.4 -0.04,0.24 0.03,0.45 0.2,0.6 0.55,0.47 1.44,0.86 2.18,1.23 0.21,0.1 0.08,0.3 -0.24,0.62 -0.82,0.8 -1.93,1.77 -1.97,2.52 -0.02,0.34 0.1,0.82 0.51,1.06 0.48,0.28 1.42,0.1 2.05,-0.16 0.9,-0.37 2.1,-1.2 3.02,-2 0.97,-0.85 1.8600001,-1.92 1.9000001,-2.09 a 0.88,0.88 0 0 0 -0.1,-0.64 c -0.18,-0.36 -0.4300001,-0.62 -0.6900001,-0.92 -0.7,-0.74 -1.44,-1.42 -2.3,-1.93 a 3.32,3.32 0 0 0 -1.62,-0.6 z m 0.45,1.5 c 0.2,0.02 0.44,0.09 0.69,0.22 0.66,0.33 1.37,1.22 0.08,1.73 -0.36,0.14 -1.52,-0.34 -1.52,-1 0,-0.66 0.3,-0.96 0.75,-0.94 z"
     id="path2"
     inkscape:connector-curvature="0"
     style="fill:#bde6fb;fill-opacity:1" />
</svg>
