<?xml version="1.0" encoding="UTF-8" standalone="no"?>
<svg
   width="47.546486"
   height="47.546486"
   viewBox="0 0 12.580008 12.580008"
   version="1.1"
   id="svg4"
   sodipodi:docname="distributor-logo-pop-os.svg"
   inkscape:version="0.92.4 (5da689c313, 2019-01-14)"
   xmlns:inkscape="http://www.inkscape.org/namespaces/inkscape"
   xmlns:sodipodi="http://sodipodi.sourceforge.net/DTD/sodipodi-0.dtd"
   xmlns="http://www.w3.org/2000/svg"
   xmlns:svg="http://www.w3.org/2000/svg"
   xmlns:rdf="http://www.w3.org/1999/02/22-rdf-syntax-ns#"
   xmlns:cc="http://creativecommons.org/ns#"
   xmlns:dc="http://purl.org/dc/elements/1.1/">
  <metadata
     id="metadata10">
    <rdf:RDF>
      <cc:Work
         rdf:about="">
        <dc:format>image/svg+xml</dc:format>
        <dc:type
           rdf:resource="http://purl.org/dc/dcmitype/StillImage" />
        <dc:title />
      </cc:Work>
    </rdf:RDF>
  </metadata>
  <defs
     id="defs8" />
  <sodipodi:namedview
     pagecolor="#ffffff"
     bordercolor="#666666"
     borderopacity="1"
     objecttolerance="10"
     gridtolerance="10"
     guidetolerance="10"
     inkscape:pageopacity="0"
     inkscape:pageshadow="2"
     inkscape:window-width="861"
     inkscape:window-height="480"
     id="namedview6"
     showgrid="false"
     inkscape:zoom="4.9166667"
     inkscape:cx="2.1355932"
     inkscape:cy="24"
     inkscape:window-x="0"
     inkscape:window-y="25"
     inkscape:window-maximized="0"
     inkscape:current-layer="svg4"
     inkscape:showpageshadow="0"
     inkscape:pagecheckerboard="0"
     inkscape:deskcolor="#d1d1d1" />
  <path
     d="M 6.2900079,0 A 6.29,6.29 0 0 0 7.9490244e-6,6.3 6.29,6.29 0 0 0 6.3000079,12.58 6.29,6.29 0 0 0 12.580008,6.29 6.29,6.29 0 0 0 6.2900079,0 Z m -0.02,0.93 0.01,0.01 A 5.4,5.4 0 0 1 11.680008,6.34 5.4,5.4 0 0 1 6.2800079,11.75 5.4,5.4 0 0 1 0.87000795,6.35 5.4,5.4 0 0 1 6.2700079,0.93 Z m -0.88,1.646 c -0.473,0.012 -1.011,0.27 -1.286,0.46 -0.275,0.19 -0.836,0.57 -0.847,0.94 0,0.247 0.132,0.448 0.253,0.694 0.12,0.247 1.748,3.561 2.232,4.087 0.253,0.27 0.605,0.19 0.682,-0.055 0.076,-0.247 -0.012,-0.515 -0.11,-0.773 l -0.528,-1.4 c 0.615,-0.224 1.055,-0.683 1.32,-1.254 V 5.253 c 0.131,-0.28 0.164,-0.672 0.054,-1.176 a 1.973,1.973 0 0 0 -0.825,-1.22 c -0.275,-0.18 -0.472,-0.292 -0.945,-0.28 z m -0.394,1.022 c 0.026,0.003 0.054,0.01 0.086,0.02 0.077,0.023 0.143,0.078 0.198,0.123 0.275,0.224 0.484,0.56 0.583,0.907 a 1.407,1.433 0 0 1 0.022,0.537 c 0,0.09 -0.011,0.157 -0.066,0.247 -0.055,0.09 -0.187,0.156 -0.253,0.145 -0.066,-0.011 -0.121,-0.055 -0.176,-0.111 -0.23,-0.236 -0.44,-0.706 -0.517,-0.93 -0.072,-0.21 -0.27,-0.98 0.123,-0.938 z m 3.567,0.83 c -0.156,0.003 -0.335,0.044 -0.406,0.11 -0.095,0.089 -0.18,0.266 -0.233,0.62 -0.18,1.292 -0.243,2.352 -0.053,2.43 0.159,0.066 0.275,-0.045 0.846,-1.105 l 0.297,-0.586 c 0.116,-0.254 0.264,-0.607 0.306,-0.773 0.043,-0.166 0.032,-0.299 -0.095,-0.42 a 0.952,0.994 0 0 0 -0.518,-0.265 0.702,0.702 0 0 0 -0.144,-0.011 z m -0.609,3.704 a 0.469,0.469 0 0 0 -0.449,0.328 0.351,0.351 0 0 0 0.122,0.387 0.51,0.51 0 0 0 0.459,0.043 0.368,0.368 0 0 0 0.18,-0.237 c 0.064,-0.225 -0.048,-0.516 -0.312,-0.52 z m -3.74,1.058 c -0.237,0 -0.428,0.177 -0.428,0.397 0,0.22 0.19,0.397 0.427,0.397 h 4.438 c 0.237,0 0.427,-0.177 0.427,-0.397 0,-0.22 -0.19,-0.397 -0.427,-0.397 h -4.438 z"
     id="path2"
     inkscape:connector-curvature="0"
     style="fill:#bde6fb;fill-opacity:1" />
</svg>
