<?xml version="1.0" encoding="UTF-8" standalone="no"?>
<svg
   width="47.542679"
   height="47.546455"
   viewBox="0 0 12.579 12.58"
   version="1.1"
   id="svg4"
   sodipodi:docname="dmitry.svg"
   inkscape:version="0.92.5 (2060ec1f9f, 2020-04-08)"
   xmlns:inkscape="http://www.inkscape.org/namespaces/inkscape"
   xmlns:sodipodi="http://sodipodi.sourceforge.net/DTD/sodipodi-0.dtd"
   xmlns="http://www.w3.org/2000/svg"
   xmlns:svg="http://www.w3.org/2000/svg"
   xmlns:rdf="http://www.w3.org/1999/02/22-rdf-syntax-ns#"
   xmlns:cc="http://creativecommons.org/ns#"
   xmlns:dc="http://purl.org/dc/elements/1.1/">
  <metadata
     id="metadata10">
    <rdf:RDF>
      <cc:Work
         rdf:about="">
        <dc:format>image/svg+xml</dc:format>
        <dc:type
           rdf:resource="http://purl.org/dc/dcmitype/StillImage" />
        <dc:title />
      </cc:Work>
    </rdf:RDF>
  </metadata>
  <defs
     id="defs8" />
  <sodipodi:namedview
     pagecolor="#ffffff"
     bordercolor="#666666"
     borderopacity="1"
     objecttolerance="10"
     gridtolerance="10"
     guidetolerance="10"
     inkscape:pageopacity="0"
     inkscape:pageshadow="2"
     inkscape:window-width="1085"
     inkscape:window-height="480"
     id="namedview6"
     showgrid="false"
     inkscape:zoom="4.9166667"
     inkscape:cx="2.1355932"
     inkscape:cy="24"
     inkscape:window-x="0"
     inkscape:window-y="25"
     inkscape:window-maximized="0"
     inkscape:current-layer="svg4"
     inkscape:showpageshadow="0"
     inkscape:pagecheckerboard="0"
     inkscape:deskcolor="#d1d1d1" />
  <path
     d="M 6.285,0 A 6.295,6.295 0 0 0 0,6.285 6.295,6.295 0 0 0 6.285,12.58 6.295,6.295 0 0 0 12.579,6.285 6.295,6.295 0 0 0 6.285,0 Z M 6.274,0.94 a 5.408,5.408 0 0 1 5.397,5.387 5.407,5.407 0 0 1 -10.814,0 C 0.857,3.34 3.287,0.94 6.274,0.94 Z M 5.892,2.173 A 3.446,3.446 0 0 0 2.445,5.619 3.446,3.446 0 0 0 3.24,7.819 3.446,3.446 0 0 0 3.4,7.995 3.446,3.446 0 0 1 3.255,7.839 3.446,3.446 0 0 1 3.24,7.819 0.086,0.086 0 0 0 3.23,7.857 V 8.306 L 2.768,8.62 A 0.088,0.088 0 0 0 2.747,8.637 L 2.744,8.641 2.737,8.651 2.733,8.658 c 0,0.003 -0.002,0.004 -0.003,0.007 L 2.726,8.677 a 0.209,0.209 0 0 0 -0.002,0.01 v 0.698 c 0,0.03 0.014,0.057 0.038,0.074 0.826,0.571 1.924,0.918 3.129,0.918 1.204,0 2.302,-0.346 3.127,-0.917 A 0.09,0.09 0 0 0 9.058,9.385 V 8.7 H 9.057 A 0.09,0.09 0 0 0 9.017,8.622 L 8.549,8.304 v -0.4 A 0.09,0.09 0 0 0 8.521,7.84 3.446,3.446 0 0 0 8.706,7.599 L 9.65,8.543 10.143,8.05 9.059,6.966 A 3.446,3.446 0 0 0 9.337,5.619 3.446,3.446 0 0 0 5.891,2.173 Z m 0,0.414 A 3.031,3.031 0 0 1 8.924,5.619 3.031,3.031 0 0 1 8.74,6.647 L 5.957,3.863 5.464,4.356 8.411,7.303 A 3.031,3.031 0 0 1 5.891,8.651 3.031,3.031 0 0 1 2.861,5.619 3.031,3.031 0 0 1 5.891,2.587 Z M 6.11,2.795 A 2.784,2.784 0 0 0 3.326,5.579 2.784,2.784 0 0 0 3.983,7.375 3.16,3.16 0 0 1 3.642,5.955 3.16,3.16 0 0 1 6.439,2.818 2.784,2.784 0 0 0 6.11,2.795 Z M 5.989,4.079 6.883,4.973 6.577,5.279 5.683,4.385 Z M 5.731,5.449 5.639,6.039 5.046,6.107 5.636,6.199 5.703,6.792 5.795,6.202 6.389,6.135 5.799,6.042 5.731,5.45 Z M 6.739,6.003 6.574,7.058 5.514,7.178 6.568,7.344 6.688,8.404 6.854,7.349 7.914,7.229 6.86,7.064 6.739,6.004 Z M 4.643,8.831 A 3.446,3.446 0 0 0 5.306,9.015 3.446,3.446 0 0 1 4.97,8.94 3.446,3.446 0 0 1 4.643,8.83 Z"
     id="path2"
     inkscape:connector-curvature="0"
     style="fill:#bde6fb;fill-opacity:1" />
</svg>
