<?xml version="1.0" encoding="UTF-8" standalone="no"?>
<svg
   width="47.546455"
   height="47.546459"
   viewBox="0 0 12.58 12.580001"
   version="1.1"
   id="svg4"
   sodipodi:docname="dolphin-emu.svg"
   inkscape:version="0.92.4 (5da689c313, 2019-01-14)"
   xmlns:inkscape="http://www.inkscape.org/namespaces/inkscape"
   xmlns:sodipodi="http://sodipodi.sourceforge.net/DTD/sodipodi-0.dtd"
   xmlns="http://www.w3.org/2000/svg"
   xmlns:svg="http://www.w3.org/2000/svg"
   xmlns:rdf="http://www.w3.org/1999/02/22-rdf-syntax-ns#"
   xmlns:cc="http://creativecommons.org/ns#"
   xmlns:dc="http://purl.org/dc/elements/1.1/">
  <metadata
     id="metadata10">
    <rdf:RDF>
      <cc:Work
         rdf:about="">
        <dc:format>image/svg+xml</dc:format>
        <dc:type
           rdf:resource="http://purl.org/dc/dcmitype/StillImage" />
        <dc:title />
      </cc:Work>
    </rdf:RDF>
  </metadata>
  <defs
     id="defs8" />
  <sodipodi:namedview
     pagecolor="#ffffff"
     bordercolor="#666666"
     borderopacity="1"
     objecttolerance="10"
     gridtolerance="10"
     guidetolerance="10"
     inkscape:pageopacity="0"
     inkscape:pageshadow="2"
     inkscape:window-width="861"
     inkscape:window-height="480"
     id="namedview6"
     showgrid="false"
     inkscape:zoom="4.9166667"
     inkscape:cx="2.1355932"
     inkscape:cy="24"
     inkscape:window-x="0"
     inkscape:window-y="25"
     inkscape:window-maximized="0"
     inkscape:current-layer="svg4"
     inkscape:showpageshadow="0"
     inkscape:pagecheckerboard="0"
     inkscape:deskcolor="#d1d1d1" />
  <path
     d="M 6.289,3.1602383e-7 A 6.29,6.29 0 0 0 0,6.2900003 6.29,6.29 0 0 0 6.29,12.58 6.29,6.29 0 0 0 12.58,6.2900003 6.29,6.29 0 0 0 6.288,3.1602383e-7 Z M 6.271,0.93700032 a 5.407,5.407 0 0 1 5.408,5.40699998 5.407,5.407 0 0 1 -0.025,0.501 c -1.135,-1.417 -2.213,-1.779 -2.177,-2.217 0.04,-0.476 1.187,-0.775 1.187,-0.775 a 3.748,3.748 0 0 0 -0.799,-0.097 c -0.73,-0.004 -1.268,0.251 -1.734,0.607 -1.497,-0.8 -5.863,-0.804 -6.156,1.984 0,0 -0.697,0.613 -0.48,0.86 0.211,0.24 1.244,-0.706 3.42,-0.729 0.489,1.15 1.41,1.618 2.634,1.604 -0.51,-0.32 -1.114,-0.555 -1.106,-1.443 1.656,0.19 2.812,0.867 3.871,1.59 -0.656,-0.941 -3.072,-2.93 -6.912,-2.13 1.306,-2.556 5.543,-1.354 8.162,1.346 A 5.407,5.407 0 0 1 6.271,11.752 5.407,5.407 0 0 1 0.865,6.3440003 5.407,5.407 0 0 1 6.271,0.93800032 Z"
     id="path2"
     inkscape:connector-curvature="0"
     style="fill:#bde6fb;fill-opacity:1" />
</svg>
