<?xml version="1.0" encoding="UTF-8" standalone="no"?>
<svg
   width="47.546486"
   height="47.546486"
   viewBox="0 0 12.580008 12.580008"
   version="1.1"
   id="svg4"
   sodipodi:docname="dosbox.svg"
   inkscape:version="0.92.4 (5da689c313, 2019-01-14)"
   xmlns:inkscape="http://www.inkscape.org/namespaces/inkscape"
   xmlns:sodipodi="http://sodipodi.sourceforge.net/DTD/sodipodi-0.dtd"
   xmlns="http://www.w3.org/2000/svg"
   xmlns:svg="http://www.w3.org/2000/svg"
   xmlns:rdf="http://www.w3.org/1999/02/22-rdf-syntax-ns#"
   xmlns:cc="http://creativecommons.org/ns#"
   xmlns:dc="http://purl.org/dc/elements/1.1/">
  <metadata
     id="metadata10">
    <rdf:RDF>
      <cc:Work
         rdf:about="">
        <dc:format>image/svg+xml</dc:format>
        <dc:type
           rdf:resource="http://purl.org/dc/dcmitype/StillImage" />
        <dc:title />
      </cc:Work>
    </rdf:RDF>
  </metadata>
  <defs
     id="defs8" />
  <sodipodi:namedview
     pagecolor="#ffffff"
     bordercolor="#666666"
     borderopacity="1"
     objecttolerance="10"
     gridtolerance="10"
     guidetolerance="10"
     inkscape:pageopacity="0"
     inkscape:pageshadow="2"
     inkscape:window-width="1087"
     inkscape:window-height="480"
     id="namedview6"
     showgrid="false"
     inkscape:zoom="4.9166667"
     inkscape:cx="2.1355932"
     inkscape:cy="24"
     inkscape:window-x="0"
     inkscape:window-y="25"
     inkscape:window-maximized="0"
     inkscape:current-layer="svg4"
     inkscape:showpageshadow="0"
     inkscape:pagecheckerboard="0"
     inkscape:deskcolor="#d1d1d1" />
  <path
     d="M 6.2900079,0 A 6.29,6.29 0 0 0 7.9490244e-6,6.3 6.29,6.29 0 0 0 6.3000079,12.58 6.29,6.29 0 0 0 12.580008,6.29 6.29,6.29 0 0 0 6.2900079,0 Z m -0.02,0.93 0.01,0.01 A 5.4,5.4 0 0 1 11.680008,6.34 5.4,5.4 0 0 1 6.2800079,11.75 5.4,5.4 0 0 1 0.87000795,6.35 5.4,5.4 0 0 1 6.2700079,0.93 Z m -1.06,0.7 v 0.34 h 0.34 v 2.06 h -0.34 v 0.35 h 1.72 V 4.03 h 0.34 V 1.97 h -0.34 V 1.63 Z m 1.03,0.34 h 0.34 v 2.06 h -0.33 V 1.97 Z m -3.66,2.93 v 0.35 h 0.34 v 2.06 h -0.34 v 0.35 h 1.72 V 7.31 h 0.34 V 6.28 h -0.34 V 5.93 h 0.34 v -0.7 h -0.34 V 4.89 h -1.72 z m 2.97,0 v 0.35 h -0.34 v 2.06 h 0.34 v 0.35 h 1.38 V 7.31 h 0.34 V 5.25 h -0.34 V 4.9 Z m 2.07,0 v 0.35 h 0.33 v 0.68 h 0.34 v 0.68 h -0.34 v 0.7 h -0.34 v 0.34 h 0.68 V 7.3 h 0.35 V 6.96 h 0.34 V 7.3 h 0.35 V 7.65 H 10.010008 V 7.3 H 9.6700079 V 6.63 h -0.34 V 5.95 h 0.34 V 5.25 H 10.010008 V 4.91 H 9.3500079 v 0.35 h -0.35 V 5.6 h -0.35 V 5.26 h -0.35 V 4.91 h -0.68 z m -4.01,0.35 h 0.34 v 0.68 h -0.34 v -0.7 z m 2.28,0 h 0.7 v 2.06 h -0.7 z m -2.28,1.03 h 0.34 v 1.03 h -0.34 z m 1.97,1.9 v 0.35 h -0.35 v 0.68 h 0.35 v 0.35 h 0.68 V 9.9 h 0.35 v 0.69 h -0.7 V 9.9 h -0.68 v 0.69 h 0.35 v 0.34 h 1.37 v -0.34 h 0.35 V 9.9 h -0.35 V 9.56 h -0.34 V 9.21 h -0.7 V 8.53 h 0.7 v 0.68 h 0.69 V 8.53 h -0.35 V 8.18 Z"
     id="path2"
     inkscape:connector-curvature="0"
     style="fill:#bde6fb;fill-opacity:1" />
</svg>
