<?xml version="1.0" encoding="UTF-8" standalone="no"?>
<svg
   width="48"
   height="48"
   viewBox="0 0 12.7 12.7"
   version="1.1"
   id="svg4"
   sodipodi:docname="dotmemory.svg"
   inkscape:version="0.92.5 (2060ec1f9f, 2020-04-08)"
   xmlns:inkscape="http://www.inkscape.org/namespaces/inkscape"
   xmlns:sodipodi="http://sodipodi.sourceforge.net/DTD/sodipodi-0.dtd"
   xmlns="http://www.w3.org/2000/svg"
   xmlns:svg="http://www.w3.org/2000/svg">
  <sodipodi:namedview
     id="namedview1"
     pagecolor="#505050"
     bordercolor="#eeeeee"
     borderopacity="1"
     inkscape:showpageshadow="0"
     inkscape:pageopacity="0"
     inkscape:pagecheckerboard="0"
     inkscape:deskcolor="#d1d1d1" />
  <defs
     id="defs8">
    <style
       id="current-color-scheme"
       type="text/css">&#10;      .ColorScheme-Highlight {&#10;        color:#1e3f5a;&#10;      }&#10;  </style>
  </defs>
  <path
     class="ColorScheme-Highlight"
     style="fill:#bde6fb;fill-opacity:1;stroke-width:0.264583"
     d="M 6.3499999,0 A 6.3499999,6.3499999 0 0 0 0,6.3499999 6.3499999,6.3499999 0 0 0 6.3499999,12.7 6.3499999,6.3499999 0 0 0 12.7,6.3499999 6.3499999,6.3499999 0 0 0 6.3499999,0 Z m 0,0.79374999 A 5.5562499,5.5562499 0 0 1 11.90625,6.3499999 5.5562499,5.5562499 0 0 1 6.3499999,11.90625 5.5562499,5.5562499 0 0 1 0.79374999,6.3499999 5.5562499,5.5562499 0 0 1 6.3499999,0.79374999 Z m 0,1.05833331 A 4.4979182,4.4979182 0 0 0 1.8520833,6.3499999 4.4979182,4.4979182 0 0 0 6.3499999,10.847917 4.4979182,4.4979182 0 0 0 10.847917,6.3499999 4.4979182,4.4979182 0 0 0 6.3499999,1.8520833 Z m -2.3812499,3.175 H 4.4979166 4.7624999 A 1.3229165,1.3229165 0 0 1 6.0854166,6.3499999 1.3229165,1.3229165 0 0 1 4.7624999,7.6729166 H 4.4979166 3.96875 Z m 2.3812499,0.0031 H 7.0243773 L 7.6346761,6.059062 8.248592,5.0301842 H 8.9157349 V 7.6729166 H 8.3994873 V 5.8616577 l -0.765845,1.2820922 -0.76016,-1.2857096 -0.00723,1.8148763 H 6.3499999 Z M 4.4979166,5.5562499 v 1.5875 h 0.2645833 a 0.79374999,0.79374999 0 0 0 0.056327,-0.00206 0.79374999,0.79374999 0 0 0 0.078548,-0.0093 0.79374999,0.79374999 0 0 0 0.077515,-0.017571 0.79374999,0.79374999 0 0 0 0.075448,-0.024805 0.79374999,0.79374999 0 0 0 0.072347,-0.032556 0.79374999,0.79374999 0 0 0 0.06873,-0.039791 0.79374999,0.79374999 0 0 0 0.064595,-0.045992 0.79374999,0.79374999 0 0 0 0.059428,-0.052193 0.79374999,0.79374999 0 0 0 0.05426,-0.057878 0.79374999,0.79374999 0 0 0 0.048059,-0.063562 0.79374999,0.79374999 0 0 0 0.041341,-0.067696 0.79374999,0.79374999 0 0 0 0.034623,-0.071313 0.79374999,0.79374999 0 0 0 0.026872,-0.074414 0.79374999,0.79374999 0 0 0 0.019637,-0.076998 0.79374999,0.79374999 0 0 0 0.011885,-0.078548 0.79374999,0.79374999 0 0 0 0.00413,-0.079066 0.79374999,0.79374999 0 0 0 -0.00206,-0.056327 0.79374999,0.79374999 0 0 0 -0.0093,-0.078548 0.79374999,0.79374999 0 0 0 -0.017571,-0.077514 0.79374999,0.79374999 0 0 0 -0.024805,-0.075448 0.79374999,0.79374999 0 0 0 -0.032556,-0.072347 0.79374999,0.79374999 0 0 0 -0.039791,-0.06873 0.79374999,0.79374999 0 0 0 -0.045992,-0.064595 0.79374999,0.79374999 0 0 0 -0.052193,-0.059428 0.79374999,0.79374999 0 0 0 -0.057878,-0.05426 0.79374999,0.79374999 0 0 0 -0.063562,-0.048059 0.79374999,0.79374999 0 0 0 -0.067696,-0.041341 0.79374999,0.79374999 0 0 0 -0.071313,-0.034623 0.79374999,0.79374999 0 0 0 -0.074414,-0.026872 0.79374999,0.79374999 0 0 0 -0.076998,-0.019637 0.79374999,0.79374999 0 0 0 -0.078548,-0.011885 0.79374999,0.79374999 0 0 0 -0.079066,-0.00413 z m 0,2.9104167 H 8.2020832 V 8.9958332 H 4.4979166 Z"
     id="path943" />
</svg>
