<?xml version="1.0" encoding="UTF-8" standalone="no"?>
<svg
   width="48"
   height="48"
   viewBox="0 0 12.7 12.7"
   version="1.1"
   id="svg4"
   sodipodi:docname="driftnet.svg"
   inkscape:version="0.92.5 (2060ec1f9f, 2020-04-08)"
   xmlns:inkscape="http://www.inkscape.org/namespaces/inkscape"
   xmlns:sodipodi="http://sodipodi.sourceforge.net/DTD/sodipodi-0.dtd"
   xmlns="http://www.w3.org/2000/svg"
   xmlns:svg="http://www.w3.org/2000/svg">
  <sodipodi:namedview
     id="namedview1"
     pagecolor="#505050"
     bordercolor="#eeeeee"
     borderopacity="1"
     inkscape:showpageshadow="0"
     inkscape:pageopacity="0"
     inkscape:pagecheckerboard="0"
     inkscape:deskcolor="#d1d1d1" />
  <defs
     id="defs8">
    <style
       id="current-color-scheme"
       type="text/css">&#10;      .ColorScheme-Highlight {&#10;        color:#1e3f5a;&#10;      }&#10;  </style>
  </defs>
  <path
     class="ColorScheme-Highlight"
     style="fill:#bde6fb;fill-opacity:1;stroke-width:0.264583"
     d="M 6.3499999,0 A 6.3499999,6.3499999 0 0 0 0,6.3499999 6.3499999,6.3499999 0 0 0 6.3499999,12.7 6.3499999,6.3499999 0 0 0 12.7,6.3499999 6.3499999,6.3499999 0 0 0 6.3499999,0 Z m 0,0.79374999 A 5.5562499,5.5562499 0 0 1 9.9471963,2.1166666 H 7.6729166 V 1.8520833 C 7.6729166,1.7055041 7.5549124,1.5875 7.4083332,1.5875 H 5.2916666 c -0.1465792,0 -0.2645833,0.1180041 -0.2645833,0.2645833 V 2.1166666 H 2.760555 A 5.5562499,5.5562499 0 0 1 6.3499999,0.79374999 Z M 2.2164021,2.6458333 H 5.0270833 V 2.9104166 C 5.0270833,3.0569958 5.1450874,3.175 5.2916666,3.175 H 5.8208333 V 4.4979166 H 3.7041666 c -0.1465791,0 -0.2645833,0.1180042 -0.2645833,0.2645833 v 5.0270833 c 0,0.1465792 0.1180042,0.2645838 0.2645833,0.2645838 h 5.2916666 c 0.1465789,0 0.2645834,-0.1180046 0.2645834,-0.2645838 V 4.7624999 c 0,-0.1465791 -0.1180045,-0.2645833 -0.2645834,-0.2645833 H 6.8791666 V 3.175 h 0.5291666 c 0.1465792,0 0.2645834,-0.1180042 0.2645834,-0.2645834 V 2.6458333 H 10.482564 A 5.5562499,5.5562499 0 0 1 11.90625,6.3499999 5.5562499,5.5562499 0 0 1 6.3499999,11.90625 5.5562499,5.5562499 0 0 1 0.79374999,6.3499999 5.5562499,5.5562499 0 0 1 2.2164021,2.6458333 Z M 3.96875,5.0270833 H 8.7312499 V 8.9958332 H 3.96875 Z M 7.6729166,5.5562499 A 0.52916663,0.52916663 0 0 0 7.1437499,6.0854166 0.52916663,0.52916663 0 0 0 7.6729166,6.6145833 0.52916663,0.52916663 0 0 0 8.2020832,6.0854166 0.52916663,0.52916663 0 0 0 7.6729166,5.5562499 Z M 4.2333333,6.6145833 v 1.8520833 h 0.922941 0.0031 0.2645833 0.9260417 0.5291666 1.5875 v -0.79375 h -1.5875 -0.5291666 -0.01292 c 0.00624,-0.043564 0.012919,-0.086949 0.012919,-0.1322917 0,-0.5130271 -0.4130146,-0.9260416 -0.9260416,-0.9260416 H 5.2916666 Z"
     id="path817" />
</svg>
