<?xml version="1.0" encoding="UTF-8" standalone="no"?>
<svg
   width="47.546455"
   height="47.542679"
   viewBox="0 0 12.58 12.579"
   version="1.1"
   id="svg4"
   sodipodi:docname="easytag.svg"
   inkscape:version="0.92.4 (5da689c313, 2019-01-14)"
   xmlns:inkscape="http://www.inkscape.org/namespaces/inkscape"
   xmlns:sodipodi="http://sodipodi.sourceforge.net/DTD/sodipodi-0.dtd"
   xmlns="http://www.w3.org/2000/svg"
   xmlns:svg="http://www.w3.org/2000/svg"
   xmlns:rdf="http://www.w3.org/1999/02/22-rdf-syntax-ns#"
   xmlns:cc="http://creativecommons.org/ns#"
   xmlns:dc="http://purl.org/dc/elements/1.1/">
  <metadata
     id="metadata10">
    <rdf:RDF>
      <cc:Work
         rdf:about="">
        <dc:format>image/svg+xml</dc:format>
        <dc:type
           rdf:resource="http://purl.org/dc/dcmitype/StillImage" />
        <dc:title />
      </cc:Work>
    </rdf:RDF>
  </metadata>
  <defs
     id="defs8" />
  <sodipodi:namedview
     pagecolor="#ffffff"
     bordercolor="#666666"
     borderopacity="1"
     objecttolerance="10"
     gridtolerance="10"
     guidetolerance="10"
     inkscape:pageopacity="0"
     inkscape:pageshadow="2"
     inkscape:window-width="1087"
     inkscape:window-height="480"
     id="namedview6"
     showgrid="false"
     inkscape:zoom="4.9166667"
     inkscape:cx="2.1355932"
     inkscape:cy="24"
     inkscape:window-x="0"
     inkscape:window-y="25"
     inkscape:window-maximized="0"
     inkscape:current-layer="svg4"
     inkscape:showpageshadow="0"
     inkscape:pagecheckerboard="0"
     inkscape:deskcolor="#d1d1d1" />
  <path
     d="M 6.29,9.9999565e-4 A 6.29,6.29 0 0 0 0,6.291 6.29,6.29 0 0 0 6.29,12.579 6.29,6.29 0 0 0 12.58,6.29 6.29,6.29 0 0 0 6.29,0 Z M 6.272,0.937 A 5.407,5.407 0 0 1 11.679,6.344 5.407,5.407 0 0 1 6.272,11.751 5.407,5.407 0 0 1 0.866,6.344 5.407,5.407 0 0 1 6.272,0.938 Z M 8.059,2.495 A 0.483,0.483 0 0 0 7.939,2.511 L 5.078,3.351 1.766,7.441 A 0.501,0.501 0 0 0 1.86,8.164 l 1.27,0.95 1.272,0.948 1.27,0.95 A 0.551,0.551 0 0 0 6.426,10.921 L 9.392,7.261 9.725,6.849 9.759,6.226 9.882,3.968 A 0.507,0.507 0 0 0 9.675,3.554 L 8.403,2.604 A 0.55,0.55 0 0 0 8.059,2.496 Z M 7.868,3.65 A 0.836,0.836 0 0 1 8.389,3.825 0.836,0.836 0 0 1 8.536,4.998 0.836,0.836 0 0 1 7.364,5.144 0.836,0.836 0 0 1 7.216,3.972 0.836,0.836 0 0 1 7.868,3.65 Z M 6.216,4.971 c 0.01,0 0.023,0 0.038,0.005 0.027,0 0.05,0.014 0.072,0.027 C 6.293,5.435 6.472,5.896 6.706,6.269 7.04,6.733 7.066,7.381 6.816,7.89 6.81,7.885 6.889,7.647 6.891,7.545 6.956,7.041 6.664,6.573 6.299,6.255 6.256,6.185 6.136,6.167 6.103,6.255 5.934,7.09 5.773,7.925 5.606,8.76 5.578,9.217 5.129,9.6 4.676,9.537 4.343,9.506 4.052,9.14 4.185,8.809 4.337,8.365 4.884,8.159 5.313,8.283 5.379,8.316 5.491,8.357 5.529,8.263 5.737,7.231 5.937,6.197 6.143,5.165 6.169,5.104 6.144,4.978 6.216,4.971 Z"
     id="path2"
     inkscape:connector-curvature="0"
     style="fill:#bde6fb;fill-opacity:1" />
</svg>
