<?xml version="1.0" encoding="UTF-8" standalone="no"?>
<svg
   width="47.546455"
   height="47.546455"
   viewBox="0 0 12.58 12.58"
   version="1.1"
   id="svg4"
   sodipodi:docname="easymp3gain.svg"
   inkscape:version="0.92.4 (5da689c313, 2019-01-14)"
   xmlns:inkscape="http://www.inkscape.org/namespaces/inkscape"
   xmlns:sodipodi="http://sodipodi.sourceforge.net/DTD/sodipodi-0.dtd"
   xmlns="http://www.w3.org/2000/svg"
   xmlns:svg="http://www.w3.org/2000/svg"
   xmlns:rdf="http://www.w3.org/1999/02/22-rdf-syntax-ns#"
   xmlns:cc="http://creativecommons.org/ns#"
   xmlns:dc="http://purl.org/dc/elements/1.1/">
  <metadata
     id="metadata10">
    <rdf:RDF>
      <cc:Work
         rdf:about="">
        <dc:format>image/svg+xml</dc:format>
        <dc:type
           rdf:resource="http://purl.org/dc/dcmitype/StillImage" />
        <dc:title />
      </cc:Work>
    </rdf:RDF>
  </metadata>
  <defs
     id="defs8" />
  <sodipodi:namedview
     pagecolor="#ffffff"
     bordercolor="#666666"
     borderopacity="1"
     objecttolerance="10"
     gridtolerance="10"
     guidetolerance="10"
     inkscape:pageopacity="0"
     inkscape:pageshadow="2"
     inkscape:window-width="862"
     inkscape:window-height="480"
     id="namedview6"
     showgrid="false"
     inkscape:zoom="4.9166667"
     inkscape:cx="2.1355932"
     inkscape:cy="24"
     inkscape:window-x="0"
     inkscape:window-y="25"
     inkscape:window-maximized="0"
     inkscape:current-layer="svg4"
     inkscape:showpageshadow="0"
     inkscape:pagecheckerboard="0"
     inkscape:deskcolor="#d1d1d1" />
  <path
     d="m 6.29,0 a 6.29,6.29 0 1 0 0,12.58 A 6.29,6.29 0 0 0 6.29,0 Z M 6.27,0.93 a 5.412,5.412 0 0 1 4.884,3.1 L 10.997,7.4 10.885,5.168 C 10.891,5.122 10.83,5.074 10.759,5.071 10.687,5.067 10.615,5.107 10.609,5.153 L 10.417,5.942 9.962,3.806 V 3.79 C 9.934,3.71 9.71,3.717 9.695,3.797 V 3.812 L 9.509,8.07 9.353,5.555 C 9.356,5.509 9.297,5.468 9.226,5.466 9.154,5.464 9.088,5.502 9.084,5.548 V 5.563 L 8.646,7.67 8.43,5.966 V 5.943 C 8.41,5.863 8.195,5.857 8.17,5.936 L 8.124,6.092 V 3.54 C 8.109,3.46 7.884,3.454 7.856,3.533 V 3.54 L 7.343,8.027 6.904,5.935 c -0.022,-0.08 -0.246,-0.08 -0.268,0 L 6.346,6.992 H 0.909 A 5.4,5.4 0 0 1 6.27,0.93 Z M 3.213,3.144 V 4.825 A 0.91,0.91 0 0 0 2.816,4.731 0.93,0.93 0 0 0 1.89,5.657 0.93,0.93 0 0 0 2.816,6.583 0.93,0.93 0 0 0 3.742,5.657 V 3.673 H 5.33 V 4.825 A 0.91,0.91 0 0 0 4.933,4.731 0.93,0.93 0 0 0 4.007,5.657 0.93,0.93 0 0 0 4.933,6.583 0.93,0.93 0 0 0 5.859,5.657 V 3.144 Z m 8.17,1.674 0.182,2.64 a 5.352,5.352 0 0 1 -0.35,1.078 z m -1.465,0.037 0.35,1.69 c 0.022,0.079 0.245,0.079 0.267,0 l 0.127,-0.477 0.155,3.205 A 5.423,5.423 0 0 1 9.66,10.558 Z M 2.816,5.26 c 0.222,0 0.397,0.175 0.397,0.397 A 0.393,0.393 0 0 1 2.816,6.054 0.393,0.393 0 0 1 2.419,5.657 C 2.419,5.435 2.594,5.26 2.816,5.26 Z m 2.117,0 c 0.222,0 0.397,0.175 0.397,0.397 A 0.393,0.393 0 0 1 4.933,6.054 0.393,0.393 0 0 1 4.536,5.657 C 4.536,5.435 4.71,5.26 4.933,5.26 Z M 7.856,5.883 V 7.11 C 7.862,7.222 8.092,7.241 8.124,7.133 L 8.259,6.649 8.482,8.472 v 0.022 c 0.019,0.08 0.242,0.08 0.267,0 V 8.48 L 9.144,6.567 9.389,10.63 c 0.01,0.032 0.054,0.048 0.103,0.054 A 5.4,5.4 0 0 1 0.942,7.229 h 5.523 c 0.061,0 0.122,-0.044 0.134,-0.096 L 6.755,6.53 7.246,8.889 C 7.25,8.935 7.316,8.973 7.388,8.971 7.459,8.968 7.518,8.927 7.514,8.881 V 8.86 L 7.856,5.884 Z"
     id="path2"
     inkscape:connector-curvature="0"
     style="fill:#bde6fb;fill-opacity:1" />
</svg>
