<?xml version="1.0" encoding="UTF-8" standalone="no"?>
<svg
   width="47.546455"
   height="47.546455"
   viewBox="0 0 12.58 12.58"
   version="1.1"
   id="svg4"
   sodipodi:docname="ekiga.svg"
   inkscape:version="0.92.4 (5da689c313, 2019-01-14)"
   xmlns:inkscape="http://www.inkscape.org/namespaces/inkscape"
   xmlns:sodipodi="http://sodipodi.sourceforge.net/DTD/sodipodi-0.dtd"
   xmlns="http://www.w3.org/2000/svg"
   xmlns:svg="http://www.w3.org/2000/svg"
   xmlns:rdf="http://www.w3.org/1999/02/22-rdf-syntax-ns#"
   xmlns:cc="http://creativecommons.org/ns#"
   xmlns:dc="http://purl.org/dc/elements/1.1/">
  <metadata
     id="metadata10">
    <rdf:RDF>
      <cc:Work
         rdf:about="">
        <dc:format>image/svg+xml</dc:format>
        <dc:type
           rdf:resource="http://purl.org/dc/dcmitype/StillImage" />
        <dc:title />
      </cc:Work>
    </rdf:RDF>
  </metadata>
  <defs
     id="defs8" />
  <sodipodi:namedview
     pagecolor="#ffffff"
     bordercolor="#666666"
     borderopacity="1"
     objecttolerance="10"
     gridtolerance="10"
     guidetolerance="10"
     inkscape:pageopacity="0"
     inkscape:pageshadow="2"
     inkscape:window-width="1366"
     inkscape:window-height="717"
     id="namedview6"
     showgrid="false"
     inkscape:zoom="10.854167"
     inkscape:cx="24"
     inkscape:cy="24"
     inkscape:window-x="0"
     inkscape:window-y="25"
     inkscape:window-maximized="1"
     inkscape:current-layer="svg4"
     inkscape:showpageshadow="0"
     inkscape:pagecheckerboard="0"
     inkscape:deskcolor="#d1d1d1" />
  <path
     d="M 6.29,9.9999768e-4 A 6.29,6.29 0 0 0 0,6.291 6.29,6.29 0 0 0 6.29,12.58 6.29,6.29 0 0 0 12.58,6.29 6.29,6.29 0 0 0 6.29,0 Z M 6.272,0.938 A 5.407,5.407 0 0 1 11.679,6.345 5.407,5.407 0 0 1 6.272,11.752 5.407,5.407 0 0 1 0.866,6.345 5.407,5.407 0 0 1 6.272,0.939 Z M 8.349,2.9 C 8.196,2.9 8.049,2.938 7.925,3 7.931,3.008 7.936,3.02 7.941,3.03 l 0.67,1.444 c 0.322,-0.02 0.915,0.632 0.915,1.805 0,1.173 -0.593,1.824 -0.916,1.805 L 7.94,9.527 C 7.936,9.537 7.931,9.55 7.925,9.559 c 0.124,0.06 0.27,0.1 0.424,0.1 0.13,-0.001 0.263,-0.028 0.387,-0.1 0.508,-0.294 1.386,-1.579 1.386,-3.28 0,-1.701 -0.878,-2.986 -1.386,-3.28 A 0.765,0.765 0 0 0 8.349,2.899 Z M 7.643,3.104 A 0.103,0.103 0 0 0 7.606,3.114 L 7.203,3.302 V 3.308 C 7.158,3.328 7.135,3.378 7.156,3.423 l 0.623,1.35 A 0.092,0.092 0 0 0 7.899,4.82 L 8.312,4.631 A 0.09,0.09 0 0 0 8.354,4.511 L 7.726,3.156 A 0.088,0.088 0 0 0 7.643,3.104 Z M 3.593,3.266 3.26,6.279 H 3.93 L 3.595,3.266 Z M 3.929,6.279 4.264,9.292 4.598,6.279 h -0.67 z m 0.67,0 0.334,1.005 0.335,-1.005 h -0.67 z m 0.669,0 h 0.67 L 5.603,4.27 Z m 0.67,0 0.334,2.176 0.335,-2.176 h -0.67 z m 0.67,0 H 7.276 L 6.941,5.274 6.607,6.279 Z m 0.668,0 h 0.67 L 7.611,5.777 Z m 0.67,0 0.335,0.67 0.335,-0.67 z m 0.67,0 H 9.285 L 8.95,5.777 Z m -5.357,0 h -0.67 l 0.335,0.837 z m -0.67,0 L 2.256,4.94 1.92,6.279 H 2.59 Z M 7.867,7.728 A 0.1,0.1 0 0 0 7.779,7.785 L 7.156,9.135 C 7.135,9.18 7.158,9.229 7.203,9.25 v 0.006 l 0.403,0.188 c 0.011,0.005 0.025,0.01 0.037,0.01 A 0.089,0.089 0 0 0 7.726,9.402 L 8.354,8.047 A 0.09,0.09 0 0 0 8.312,7.927 L 7.899,7.738 C 7.888,7.733 7.879,7.728 7.867,7.728 Z"
     id="path2"
     inkscape:connector-curvature="0"
     style="fill:#bde6fb;fill-opacity:1" />
</svg>
