<?xml version="1.0" encoding="UTF-8" standalone="no"?>
<svg
   width="47.542397"
   height="47.542404"
   version="1.1"
   viewBox="0 0 12.578926 12.578928"
   id="svg4"
   sodipodi:docname="electorrent.svg"
   inkscape:version="0.92.4 (5da689c313, 2019-01-14)"
   xmlns:inkscape="http://www.inkscape.org/namespaces/inkscape"
   xmlns:sodipodi="http://sodipodi.sourceforge.net/DTD/sodipodi-0.dtd"
   xmlns="http://www.w3.org/2000/svg"
   xmlns:svg="http://www.w3.org/2000/svg"
   xmlns:rdf="http://www.w3.org/1999/02/22-rdf-syntax-ns#"
   xmlns:cc="http://creativecommons.org/ns#"
   xmlns:dc="http://purl.org/dc/elements/1.1/">
  <metadata
     id="metadata10">
    <rdf:RDF>
      <cc:Work
         rdf:about="">
        <dc:format>image/svg+xml</dc:format>
        <dc:type
           rdf:resource="http://purl.org/dc/dcmitype/StillImage" />
        <dc:title />
      </cc:Work>
    </rdf:RDF>
  </metadata>
  <defs
     id="defs8" />
  <sodipodi:namedview
     pagecolor="#ffffff"
     bordercolor="#666666"
     borderopacity="1"
     objecttolerance="10"
     gridtolerance="10"
     guidetolerance="10"
     inkscape:pageopacity="0"
     inkscape:pageshadow="2"
     inkscape:window-width="1136"
     inkscape:window-height="480"
     id="namedview6"
     showgrid="false"
     inkscape:zoom="4.9166667"
     inkscape:cx="2.1355932"
     inkscape:cy="24"
     inkscape:window-x="0"
     inkscape:window-y="25"
     inkscape:window-maximized="0"
     inkscape:current-layer="svg4"
     inkscape:showpageshadow="0"
     inkscape:pagecheckerboard="0"
     inkscape:deskcolor="#d1d1d1" />
  <path
     d="M 6.2843042,0 C 2.815925,0.0057469 0.00582076,2.815925 0,6.2843042 c -4.6082631e-6,3.4723479 2.8119563,6.2888018 6.2843042,6.2946228 3.4765812,0 6.2946228,-2.8180416 6.2946228,-6.2946228 C 12.573169,2.8119563 9.7566521,0 6.2843042,0 Z m -0.010335,0.93947067 c 2.9741438,0.00572 5.3855261,2.41251983 5.3969031,5.38658423 0,2.9865791 -2.4208808,5.4074861 -5.4074863,5.4074861 -2.986579,0 -5.40722149,-2.4208806 -5.40722149,-5.4074861 0,-2.986579 2.43122569,-5.38658423 5.41780469,-5.38658423 z M 7.2651121,2.7196972 9.8044715,5.2425204 C 9.6781108,4.3508594 8.3893389,2.8305827 7.2651121,2.7196972 Z M 7.0687434,3.4002764 9.1647197,5.5789339 C 8.9934465,4.7321721 8.1505052,3.5536269 7.0687434,3.4002764 Z M 5.748939,4.0084929 c -0.08856,6.879e-4 -0.1850367,0.05086 -0.3064365,0.1483103 L 5.1319385,4.4394805 6.0863844,5.3991121 6.348898,5.1598524 C 6.6208068,4.8907746 6.5765611,4.7584846 6.4217607,4.5697067 L 6.0093863,4.1552686 C 5.9186115,4.056612 5.8375019,4.0078023 5.748939,4.0085087 Z m 1.1384084,0.014469 1.6221135,1.7037629 C 8.2105913,4.9893404 7.7926079,4.3275994 6.8873474,4.0229619 Z M 4.887493,4.6632191 3.875157,5.5861535 C 3.3544636,5.9882886 2.95635,6.5673484 2.8219963,7.1669132 2.7056499,7.7496506 2.8380193,8.6179493 3.5589045,9.2447922 4.2598828,9.8543581 5.0800279,9.9149204 5.6207765,9.7512248 6.1614986,9.587508 6.503918,9.2422258 6.503918,9.2422258 6.510548,9.2356658 6.5172,9.2289078 6.523555,9.2220718 L 7.9260403,7.7167443 6.9726263,6.7586736 5.7096801,8.1503115 C 5.1691696,8.7458546 4.6999635,8.4403441 4.4410455,8.2205893 4.1431019,7.9182272 3.9436086,7.3541162 4.3170236,7.013443 L 5.8419833,5.6223343 4.8875374,4.6632318 Z M 7.7843794,6.0471048 C 7.6604025,6.039605 7.5532185,6.1392554 7.4195501,6.2791282 L 7.198377,6.5163189 8.1517911,7.4743895 8.4029357,7.2051529 C 8.7051654,6.908056 8.6202697,6.8015097 8.4644294,6.6227594 L 8.0350161,6.1907532 C 7.9389735,6.0943323 7.858774,6.0515947 7.7843874,6.0470942 Z"
     id="path2"
     inkscape:connector-curvature="0"
     style="fill:#bde6fb;fill-opacity:1;stroke-width:1.04387" />
</svg>
