<?xml version="1.0" encoding="UTF-8" standalone="no"?>
<svg
   width="47.543304"
   height="47.543308"
   viewBox="0 0 12.579166 12.579167"
   version="1.1"
   id="svg4"
   sodipodi:docname="electron.svg"
   inkscape:version="0.92.4 (5da689c313, 2019-01-14)"
   xmlns:inkscape="http://www.inkscape.org/namespaces/inkscape"
   xmlns:sodipodi="http://sodipodi.sourceforge.net/DTD/sodipodi-0.dtd"
   xmlns="http://www.w3.org/2000/svg"
   xmlns:svg="http://www.w3.org/2000/svg"
   xmlns:rdf="http://www.w3.org/1999/02/22-rdf-syntax-ns#"
   xmlns:cc="http://creativecommons.org/ns#"
   xmlns:dc="http://purl.org/dc/elements/1.1/">
  <metadata
     id="metadata10">
    <rdf:RDF>
      <cc:Work
         rdf:about="">
        <dc:format>image/svg+xml</dc:format>
        <dc:type
           rdf:resource="http://purl.org/dc/dcmitype/StillImage" />
        <dc:title />
      </cc:Work>
    </rdf:RDF>
  </metadata>
  <defs
     id="defs8" />
  <sodipodi:namedview
     pagecolor="#ffffff"
     bordercolor="#666666"
     borderopacity="1"
     objecttolerance="10"
     gridtolerance="10"
     guidetolerance="10"
     inkscape:pageopacity="0"
     inkscape:pageshadow="2"
     inkscape:window-width="1087"
     inkscape:window-height="480"
     id="namedview6"
     showgrid="false"
     inkscape:zoom="4.9166667"
     inkscape:cx="2.1355932"
     inkscape:cy="24"
     inkscape:window-x="0"
     inkscape:window-y="25"
     inkscape:window-maximized="0"
     inkscape:current-layer="svg4"
     inkscape:showpageshadow="0"
     inkscape:pagecheckerboard="0"
     inkscape:deskcolor="#d1d1d1" />
  <path
     d="M 6.2843637,0 A 6.2948029,6.2948029 0 0 0 0,6.2843637 6.2948029,6.2948029 0 0 0 6.2948029,12.579166 6.2948029,6.2948029 0 0 0 12.579166,6.2843637 6.2948029,6.2948029 0 0 0 6.2843637,0 Z m -0.020878,0.91864452 0.010439,0.0208783 A 5.4074758,5.4074758 0 0 1 11.670961,6.3261203 5.4074758,5.4074758 0 0 1 6.2634854,11.733596 5.4074758,5.4074758 0 0 1 0.85600968,6.3261203 5.4074758,5.4074758 0 0 1 6.2634854,0.91864452 Z M 6.0964592,1.7850933 A 0.88732711,0.88732711 0 0 0 5.2091321,2.6828596 0.88732711,0.88732711 0 0 0 6.0964592,3.5701867 c 0.2505394,0 0.4802005,-0.1043914 0.6472268,-0.2714177 0.1043914,0.1148306 0.1983437,0.2609785 0.292296,0.438444 A 8.3304357,8.3304357 0 0 0 3.5597475,5.9816286 L 3.2465733,5.6058195 C 3.0377904,5.3030843 2.9020816,5.0212275 2.8498859,4.7915664 2.7976901,4.5514661 2.8185684,4.3635615 2.9020816,4.2174135 2.9960339,4.0712655 3.1421818,3.956435 3.371843,3.883361 3.6119433,3.810287 3.9251175,3.7789695 4.2800484,3.8207261 4.5619052,3.8520435 4.8750795,3.9146784 5.1986929,4.0086307 L 5.4596715,3.5597475 C 5.0629841,3.4344778 4.6871749,3.3509647 4.3322441,3.3196473 3.9146784,3.2778907 3.5493084,3.298769 3.225695,3.4031604 2.9125207,3.5075518 2.6306639,3.6850173 2.4740767,3.9668741 2.3070505,4.2382918 2.2861722,4.5723444 2.3696853,4.9063969 2.4323202,5.2195712 2.5993464,5.5640629 2.8394467,5.8981155 L 3.2465733,6.3887552 C 3.0377904,6.7019294 2.8707641,7.0151037 2.7976901,7.328278 A 0.88732711,0.88732711 0 0 0 2.348807,8.5914142 0.88732711,0.88732711 0 0 0 3.5701867,8.9254668 0.88732711,0.88732711 0 0 0 3.8938001,7.7040871 0.88732711,0.88732711 0 0 0 3.3405256,7.2865214 C 3.3927213,7.1194951 3.4866735,6.9420297 3.6119433,6.7541251 A 8.2156051,8.2156051 0 0 0 7.3387171,8.6958056 C 7.2760823,8.9045885 7.2030083,9.0924931 7.1299343,9.2595193 a 2.4010028,2.4010028 0 0 1 -0.511518,0.7516177 c -0.1774654,0.167027 -0.3444917,0.240101 -0.5219571,0.240101 -0.1670263,0 -0.3444917,-0.07307 -0.5219572,-0.240101 C 5.3970366,9.8441113 5.2195712,9.5935719 5.0734232,9.2595193 4.9481535,8.9985408 4.8542012,8.7062448 4.7706881,8.3721922 H 4.2487309 c 0.093952,0.4071266 0.2087829,0.7724966 0.36537,1.09611 0.1670263,0.3758091 0.3758092,0.6889828 0.6263486,0.9186438 0.2401003,0.229662 0.5323962,0.37581 0.8560097,0.37581 0.3131742,0 0.6263485,-0.146148 0.8664488,-0.37581 C 7.2134474,10.157285 7.4117911,9.8441113 7.5892565,9.4683022 7.6832088,9.2595193 7.766722,9.0194191 7.839796,8.7688796 c 0.3966874,0.041757 0.7516182,0.020878 1.0647925,-0.073074 l 0.1148306,0.073074 A 0.88732711,0.88732711 0 0 0 10.240798,8.4557054 0.88732711,0.88732711 0 0 0 9.9067462,7.2343257 0.88732711,0.88732711 0 0 0 8.6958056,7.5475 0.88732711,0.88732711 0 0 0 8.6122925,8.2469225 C 8.4243879,8.2886791 8.2051659,8.2886791 7.9650657,8.2782399 A 8.3199965,8.3199965 0 0 0 7.7249654,4.0712655 4.6767358,4.6767358 0 0 1 8.3095574,3.9668741 c 0.3549308,-0.031317 0.6681051,0 0.9082054,0.062635 0.2296611,0.073074 0.3758091,0.1879045 0.4697614,0.3340525 0.083513,0.146148 0.1043914,0.3340526 0.052196,0.5741529 C 9.6875242,5.1778146 9.5518153,5.4596715 9.3325933,5.7519675 9.1760062,5.9816286 8.9672233,6.2217289 8.7062448,6.45139 L 8.9776625,6.9002731 C 9.2908368,6.6288554 9.5413762,6.3365594 9.750159,6.0442635 c 0.2401003,-0.3340526 0.407126,-0.6681052 0.4802,-0.9917186 0.07307,-0.3340525 0.0522,-0.6681051 -0.104391,-0.9395228 A 1.2840145,1.2840145 0 0 0 9.3639108,3.5493084 C 9.0507365,3.444917 8.6644882,3.4240387 8.2573617,3.4657953 A 5.2195712,5.2195712 0 0 0 7.5266217,3.591065 C 7.3700345,3.2778907 7.1925691,3.0169121 6.9733471,2.8185684 A 0.88732711,0.88732711 0 0 0 6.0964592,1.7850933 Z m 0,0.5428354 A 0.35493084,0.35493084 0 0 1 6.45139,2.641103 0.73073997,0.73073997 0 0 1 6.3991943,2.8707641 0.35493084,0.35493084 0 0 1 6.0964592,3.0377904 0.35493084,0.35493084 0 0 1 5.7415283,2.6828596 c 0,-0.2087829 0.1565872,-0.3549309 0.3549309,-0.3549309 z M 7.2447648,4.2069744 A 7.8293568,7.8293568 0 0 1 7.4639868,8.2156051 7.6832089,7.6832089 0 0 1 3.9146784,6.3574377 7.7876003,7.7876003 0 0 1 7.2343257,4.2174135 Z M 6.2948029,5.6266978 A 0.62634855,0.64722683 0 0 0 5.6684543,6.2739246 0.62634855,0.64722683 0 0 0 6.2948029,6.9211514 0.62634855,0.64722683 0 0 0 6.9211514,6.2739246 0.62634855,0.64722683 0 0 0 6.2948029,5.6266978 Z M 9.457863,7.6414522 c 0.062635,0 0.1252697,0.020878 0.1879046,0.052196 0.1670263,0.1043914 0.2296611,0.3131742 0.1252697,0.4906397 A 0.35493084,0.35493084 0 0 1 9.3221542,8.3304357 0.70986169,0.70986169 0 0 1 9.1446888,8.1634094 0.35493084,0.35493084 0 0 1 9.457863,7.6414522 Z M 3.1421818,7.7980394 A 0.35493084,0.35493084 0 0 1 3.298769,8.4557054 0.35493084,0.35493084 0 0 1 2.9125207,7.8606742 0.7620574,0.7620574 0 0 1 3.1421818,7.7980394 Z"
     id="path2"
     inkscape:connector-curvature="0"
     style="fill:#bde6fb;fill-opacity:1;stroke-width:1.04391" />
</svg>
