<?xml version="1.0" encoding="UTF-8" standalone="no"?>
<svg
   width="47.546486"
   height="47.546486"
   viewBox="0 0 12.580008 12.580008"
   version="1.1"
   id="svg10"
   sodipodi:docname="etcher-electron.svg"
   inkscape:version="0.92.4 (5da689c313, 2019-01-14)"
   xmlns:inkscape="http://www.inkscape.org/namespaces/inkscape"
   xmlns:sodipodi="http://sodipodi.sourceforge.net/DTD/sodipodi-0.dtd"
   xmlns:xlink="http://www.w3.org/1999/xlink"
   xmlns="http://www.w3.org/2000/svg"
   xmlns:svg="http://www.w3.org/2000/svg"
   xmlns:rdf="http://www.w3.org/1999/02/22-rdf-syntax-ns#"
   xmlns:cc="http://creativecommons.org/ns#"
   xmlns:dc="http://purl.org/dc/elements/1.1/">
  <defs
     id="defs14">
    <linearGradient
       id="swatch1"
       inkscape:swatch="solid">
      <stop
         style="stop-color:#bde6fb;stop-opacity:1;"
         offset="0"
         id="stop1" />
    </linearGradient>
    <linearGradient
       inkscape:collect="always"
       xlink:href="#swatch1"
       id="linearGradient1"
       x1="2.29"
       y1="6.0748539"
       x2="10.29"
       y2="6.0748539"
       gradientUnits="userSpaceOnUse"
       gradientTransform="translate(0.04999205,0.07)" />
  </defs>
  <sodipodi:namedview
     pagecolor="#ffffff"
     bordercolor="#666666"
     borderopacity="1"
     objecttolerance="10"
     gridtolerance="10"
     guidetolerance="10"
     inkscape:pageopacity="0"
     inkscape:pageshadow="2"
     inkscape:window-width="1087"
     inkscape:window-height="480"
     id="namedview12"
     showgrid="false"
     inkscape:zoom="4.9166667"
     inkscape:cx="2.1355932"
     inkscape:cy="24"
     inkscape:window-x="0"
     inkscape:window-y="25"
     inkscape:window-maximized="0"
     inkscape:current-layer="svg10"
     inkscape:showpageshadow="0"
     inkscape:pagecheckerboard="0"
     inkscape:deskcolor="#d1d1d1" />
  <metadata
     id="metadata2">
    <rdf:RDF>
      <cc:Work>
        <dc:format>image/svg+xml</dc:format>
        <dc:type
           rdf:resource="http://purl.org/dc/dcmitype/StillImage" />
        <dc:title />
      </cc:Work>
    </rdf:RDF>
  </metadata>
  <path
     d="M 6.2900079,0 A 6.29,6.29 0 0 0 7.9490244e-6,6.3 6.29,6.29 0 0 0 6.3000079,12.58 6.29,6.29 0 0 0 12.580008,6.29 6.29,6.29 0 0 0 6.2900079,0 Z m -0.02,0.93 0.01,0.01 A 5.4,5.4 0 0 1 11.680008,6.34 5.4,5.4 0 0 1 6.2800079,11.75 5.4,5.4 0 0 1 0.87000795,6.35 5.4,5.4 0 0 1 6.2700079,0.93 Z m -2.26,2.26 v 0.75 h 1.12 V 3.19 Z m 3.35,0 v 0.75 h 1.12 V 3.19 Z m -3.35,2.6 v 0.75 h 3.3 a 2.05,2.05 0 0 0 -0.41,0.38 h -2.52 v 0.74 h 2.13 a 2.05,2.05 0 0 0 -0.07,0.37 h -1.69 v 0.75 h 1.76 a 2.05,2.05 0 0 0 1.97,1.49 A 2.05,2.05 0 0 0 10.520008,8.22 2.05,2.05 0 0 0 8.4800079,6.17 V 5.8 Z m 4.1,1.14 h 0.74 V 8.6 h 0.46 l -0.83,0.93 -0.84,-0.93 h 0.47 z"
     id="path4"
     inkscape:connector-curvature="0"
     style="fill:#bde6fb;fill-opacity:1" />
  <g
     id="g8"
     style="fill:none;stroke:#1e3f5a;stroke-width:0.56"
     transform="translate(-0.04999205,-0.07)">
    <path
       d="M 3.5,2.66 H 9.1 V 4.92 H 3.5 Z M 2.94,4.94 c -0.2,0 -0.37,0.16 -0.37,0.37 v 3.72 c 0,0.2 0.17,0.38 0.37,0.38 h 4.34 l 0.26,-2.6 1.34,-0.23 0.8,0.65 0.13,2.1 c 0.12,-0.06 0.2,-0.16 0.2,-0.3 V 5.31 C 10.01,5.11 9.85,4.94 9.64,4.94 H 6.8512471 Z"
       id="path6"
       inkscape:connector-curvature="0"
       sodipodi:nodetypes="cccccsssscccccssscs"
       style="stroke:url(#linearGradient1)" />
  </g>
</svg>
