<?xml version="1.0" encoding="UTF-8" standalone="no"?>
<svg
   width="47.542679"
   height="47.546455"
   viewBox="0 0 12.579 12.58"
   version="1.1"
   id="svg4"
   sodipodi:docname="ettercap.svg"
   inkscape:version="0.92.5 (2060ec1f9f, 2020-04-08)"
   xmlns:inkscape="http://www.inkscape.org/namespaces/inkscape"
   xmlns:sodipodi="http://sodipodi.sourceforge.net/DTD/sodipodi-0.dtd"
   xmlns="http://www.w3.org/2000/svg"
   xmlns:svg="http://www.w3.org/2000/svg"
   xmlns:rdf="http://www.w3.org/1999/02/22-rdf-syntax-ns#"
   xmlns:cc="http://creativecommons.org/ns#"
   xmlns:dc="http://purl.org/dc/elements/1.1/">
  <metadata
     id="metadata10">
    <rdf:RDF>
      <cc:Work
         rdf:about="">
        <dc:format>image/svg+xml</dc:format>
        <dc:type
           rdf:resource="http://purl.org/dc/dcmitype/StillImage" />
        <dc:title />
      </cc:Work>
    </rdf:RDF>
  </metadata>
  <defs
     id="defs8" />
  <sodipodi:namedview
     pagecolor="#ffffff"
     bordercolor="#666666"
     borderopacity="1"
     objecttolerance="10"
     gridtolerance="10"
     guidetolerance="10"
     inkscape:pageopacity="0"
     inkscape:pageshadow="2"
     inkscape:window-width="1085"
     inkscape:window-height="480"
     id="namedview6"
     showgrid="false"
     inkscape:zoom="4.9166667"
     inkscape:cx="2.1355932"
     inkscape:cy="24"
     inkscape:window-x="0"
     inkscape:window-y="25"
     inkscape:window-maximized="0"
     inkscape:current-layer="svg4"
     inkscape:showpageshadow="0"
     inkscape:pagecheckerboard="0"
     inkscape:deskcolor="#d1d1d1" />
  <path
     d="M 6.285,0 A 6.295,6.295 0 0 0 0,6.285 6.295,6.295 0 0 0 6.285,12.58 6.295,6.295 0 0 0 12.579,6.285 6.295,6.295 0 0 0 6.285,0 Z M 6.274,0.94 a 5.408,5.408 0 0 1 5.397,5.387 5.407,5.407 0 0 1 -10.814,0 C 0.857,3.34 3.287,0.94 6.274,0.94 Z M 6.779,2.097 A 3.455,3.455 0 0 0 6.092,2.179 C 5.492,2.314 4.934,2.607 4.417,3.059 A 5.376,5.376 0 0 0 3.302,4.405 6.146,6.146 0 0 0 2.63,6.085 5.39,5.39 0 0 0 2.518,6.739 L 7.134,2.122 C 7.094,2.119 7.053,2.102 7.013,2.102 A 3.576,3.576 0 0 0 6.779,2.098 Z M 8.55,2.497 7.198,3.849 C 7.101,3.829 7.009,3.842 6.916,3.842 c 0.14,0 0.28,0 0.428,0.043 0.303,0.09 0.517,0.273 0.64,0.548 C 8.038,4.549 8.061,4.68 8.074,4.816 8.073,4.798 8.081,4.776 8.079,4.76 L 9.511,3.327 a 2.658,2.658 0 0 0 -0.96,-0.83 z m 1.475,2.108 -2.678,2.678 1.38,0.41 1.116,-1.115 C 9.878,6.466 9.918,6.351 9.943,6.244 A 4.127,4.127 0 0 0 10.024,4.605 Z M 5.878,5.17 2.685,8.363 c 0.046,0.127 0.087,0.255 0.15,0.373 0.144,0.268 0.34,0.497 0.563,0.705 L 4.76,8.081 C 4.814,8.161 4.9,8.221 4.975,8.29 4.875,8.199 4.77,8.11 4.707,7.997 4.528,7.671 4.501,7.251 4.625,6.737 A 1.84,1.84 0 0 1 4.659,6.619 C 4.677,6.563 4.689,6.521 4.696,6.493 L 7.243,7.251 5.968,6.871 7.258,5.581 Z M 8.722,8.578 Z M 8.182,8.709 8.114,8.723 8.183,8.709 Z M 8.114,8.723 Z m -0.5,0.084 A 6.1,6.1 0 0 1 7.086,8.857 C 6.653,8.877 6.253,8.837 5.883,8.747 L 4.51,10.121 c 0.12,0.047 0.233,0.1 0.364,0.14 0.362,0.107 0.728,0.148 1.094,0.193 L 7.615,8.807 Z"
     id="path2"
     inkscape:connector-curvature="0"
     style="fill:#bde6fb;fill-opacity:1" />
</svg>
