<?xml version="1.0" encoding="UTF-8" standalone="no"?>
<svg
   width="47.546455"
   height="47.546455"
   viewBox="0 0 12.58 12.58"
   version="1.1"
   id="svg4"
   sodipodi:docname="evernote.svg"
   inkscape:version="0.92.4 (5da689c313, 2019-01-14)"
   xmlns:inkscape="http://www.inkscape.org/namespaces/inkscape"
   xmlns:sodipodi="http://sodipodi.sourceforge.net/DTD/sodipodi-0.dtd"
   xmlns="http://www.w3.org/2000/svg"
   xmlns:svg="http://www.w3.org/2000/svg"
   xmlns:rdf="http://www.w3.org/1999/02/22-rdf-syntax-ns#"
   xmlns:cc="http://creativecommons.org/ns#"
   xmlns:dc="http://purl.org/dc/elements/1.1/">
  <metadata
     id="metadata10">
    <rdf:RDF>
      <cc:Work
         rdf:about="">
        <dc:format>image/svg+xml</dc:format>
        <dc:type
           rdf:resource="http://purl.org/dc/dcmitype/StillImage" />
        <dc:title />
      </cc:Work>
    </rdf:RDF>
  </metadata>
  <defs
     id="defs8" />
  <sodipodi:namedview
     pagecolor="#ffffff"
     bordercolor="#666666"
     borderopacity="1"
     objecttolerance="10"
     gridtolerance="10"
     guidetolerance="10"
     inkscape:pageopacity="0"
     inkscape:pageshadow="2"
     inkscape:window-width="1112"
     inkscape:window-height="480"
     id="namedview6"
     showgrid="false"
     inkscape:zoom="4.9166667"
     inkscape:cx="2.1355932"
     inkscape:cy="24"
     inkscape:window-x="0"
     inkscape:window-y="25"
     inkscape:window-maximized="0"
     inkscape:current-layer="svg4"
     inkscape:showpageshadow="0"
     inkscape:pagecheckerboard="0"
     inkscape:deskcolor="#d1d1d1" />
  <path
     d="m 6.29,0 a 6.29,6.29 0 0 0 0,12.58 A 6.29,6.29 0 0 0 6.29,0 Z M 6.27,0.93 a 5.417,5.417 0 0 1 5.41,5.41 5.4,5.4 0 0 1 -5.4,5.41 5.4,5.4 0 0 1 -5.41,-5.4 5.4,5.4 0 0 1 5.4,-5.42 z M 5.738,2.468 c 0,0 -0.984,-0.014 -0.987,0.774 v 0.677 c 0,0 0.03,0.165 -0.306,0.165 H 3.549 c 0,0 -0.376,0.058 -0.376,0.801 0,0 0.034,1.319 0.453,2.2 0,0 0.104,0.38 0.64,0.51 0,0 1.052,0.28 1.361,0.239 0,0 0.64,0.243 0.681,-1.228 0,0 0.041,-0.22 0.069,0.125 0,0 -0.02,0.757 0.633,0.798 0,0 0.502,0.138 0.811,0.11 0,0 0.413,0.024 0.413,0.705 0,0 0.144,0.787 -0.379,0.787 H 7.134 c 0,0 -0.2,0.049 -0.2,-0.24 0,0 -0.055,-0.24 0.289,-0.24 h 0.17 V 8.17 H 6.921 c 0,0 -0.729,-0.07 -0.729,0.55 v 0.824 c 0,0 0.103,0.548 0.729,0.548 h 1.331 c 0,0 0.532,0.005 0.842,-0.992 0,0 0.532,-2.002 0.252,-4.785 0,0 0.04,-0.852 -0.811,-1.132 0,0 -0.982,-0.141 -1.662,-0.13 0,0 -0.095,-0.585 -1.135,-0.585 z M 4.51,2.883 3.549,3.843 h 0.96 v -0.96 z m 3.48,2.659 c 0.235,0 0.4,0.396 0.4,0.637 A 2.007,2.007 0 0 0 7.557,6.103 c 0,-0.24 0.198,-0.561 0.433,-0.561 z"
     id="path2"
     inkscape:connector-curvature="0"
     style="fill:#bde6fb;fill-opacity:1" />
</svg>
