<?xml version="1.0" encoding="UTF-8" standalone="no"?>
<svg
   width="167.75"
   height="48"
   viewBox="0 0 44.383854 12.7"
   version="1.1"
   id="svg4"
   sodipodi:docname="evolution-calendar.svg"
   inkscape:version="0.92.5 (2060ec1f9f, 2020-04-08)"
   xmlns:inkscape="http://www.inkscape.org/namespaces/inkscape"
   xmlns:sodipodi="http://sodipodi.sourceforge.net/DTD/sodipodi-0.dtd"
   xmlns="http://www.w3.org/2000/svg"
   xmlns:svg="http://www.w3.org/2000/svg">
  <sodipodi:namedview
     id="namedview1"
     pagecolor="#505050"
     bordercolor="#eeeeee"
     borderopacity="1"
     inkscape:showpageshadow="0"
     inkscape:pageopacity="0"
     inkscape:pagecheckerboard="0"
     inkscape:deskcolor="#d1d1d1" />
  <defs
     id="defs8">
    <style
       id="current-color-scheme"
       type="text/css">&#10;      .ColorScheme-Highlight {&#10;        color:#1e3f5a;&#10;      }&#10;  </style>
  </defs>
  <path
     class="ColorScheme-Highlight"
     style="fill:#bde6fb;fill-opacity:1;stroke-width:0.264583"
     d="M 6.3499999,0 A 6.3499999,6.3499999 0 0 0 0,6.3499999 6.3499999,6.3499999 0 0 0 6.3499999,12.7 6.3499999,6.3499999 0 0 0 12.7,6.3499999 6.3499999,6.3499999 0 0 0 6.3499999,0 Z M 38.093798,0.07183024 V 0.0728637 A 6.2900001,6.2900001 0 0 0 31.803742,6.362919 6.2900001,6.2900001 0 0 0 38.093798,12.650907 6.2900001,6.2900001 0 0 0 44.383854,6.3618855 6.2900001,6.2900001 0 0 0 38.093798,0.07183024 Z M 6.3499999,0.79374999 A 5.5562499,5.5562499 0 0 1 11.90625,6.3499999 5.5562499,5.5562499 0 0 1 6.3499999,11.90625 5.5562499,5.5562499 0 0 1 0.79374999,6.3499999 5.5562499,5.5562499 0 0 1 6.3499999,0.79374999 Z M 38.076229,1.0092407 a 5.4070001,5.4070001 0 0 1 5.406904,5.4069051 5.4070001,5.4070001 0 0 1 -5.406904,5.4069052 5.4070001,5.4070001 0 0 1 -5.40639,-5.4069052 5.4070001,5.4070001 0 0 1 5.40639,-5.4063883 z m -2.112018,1.3435872 a 0.504,0.504 0 0 0 -0.505393,0.5053954 v 0.8066691 h 1.010274 V 2.8582233 A 0.504,0.504 0 0 0 35.964211,2.3528279 Z m 4.266925,0 a 0.504,0.504 0 0 0 -0.50488,0.5053954 v 0.8066691 h 1.009758 V 2.8582233 A 0.504,0.504 0 0 0 40.231136,2.3528279 Z M 4.2333333,2.38125 c -0.2931583,0 -0.5291667,0.2360083 -0.5291667,0.5291666 V 3.4395833 H 4.7624999 V 2.9104166 C 4.7624999,2.6172583 4.5264916,2.38125 4.2333333,2.38125 Z m 4.2333333,0 c -0.2931584,0 -0.5291667,0.2360083 -0.5291667,0.5291666 V 3.4395833 H 8.9958332 V 2.9104166 C 8.9958332,2.6172583 8.7598249,2.38125 8.4666666,2.38125 Z M 34.070787,3.8927857 v 1.3802775 h 0.01034 v 3.5568887 c 0,0.417 0.159623,0.774219 0.481624,1.0702189 0.322,0.2970002 0.710269,0.4459672 1.16427,0.4459672 h 4.754747 c 0.454002,0 0.841272,-0.148934 1.16427,-0.4449337 C 41.968039,9.6042042 42.12818,9.2469519 42.12818,8.8299519 V 4.6937702 h -0.0052 V 3.8938192 H 34.071822 Z M 2.38125,3.96875 v 1.3229166 3.7041666 c 0,0.7328958 0.5900208,1.3229168 1.3229166,1.3229168 h 5.2916666 c 0.7328958,0 1.3229168,-0.590021 1.3229168,-1.3229168 V 5.2916666 3.96875 H 8.9958332 3.7041666 Z m 32.429545,1.3043132 h 6.586162 V 8.8299519 A 0.77999999,0.77999999 0 0 1 41.128238,9.4247477 0.92,0.92 0 0 1 40.481765,9.6717611 H 35.727018 A 0.92,0.92 0 0 1 35.081061,9.4247477 0.77999999,0.77999999 0 0 1 34.810795,8.8299519 Z M 2.9104166,5.2916666 h 6.8791666 v 0.79375 0.5291667 2.3812499 c 0,0.4397375 -0.3540125,0.79375 -0.79375,0.79375 H 3.7041666 c -0.4397375,0 -0.79375,-0.3540125 -0.79375,-0.79375 V 6.6145833 6.0854166 Z M 36.866999,6.0099691 c -0.107479,1.799e-4 -0.225801,0.015179 -0.355015,0.045992 -0.130003,0.03 -0.269063,0.075909 -0.418063,0.135909 v 0.3751707 c 0.147,-0.082 0.283892,-0.143968 0.412895,-0.183968 0.129998,-0.04 0.252968,-0.059945 0.36897,-0.059945 0.163999,0 0.297423,0.044942 0.398425,0.1369425 a 0.456,0.456 0 0 1 0.153996,0.3570841 c 0,0.089 -0.02331,0.1798515 -0.07131,0.2728515 -0.047,0.092 -0.130048,0.2039305 -0.248046,0.3369302 -0.063,0.071 -0.215887,0.2299399 -0.458888,0.4759402 -0.242002,0.2449997 -0.433126,0.4399772 -0.574125,0.5849771 v 0.3121257 h 1.739945 V 8.4878539 h -1.295011 c 0.298,-0.3050001 0.529981,-0.5400345 0.692981,-0.7100343 0.163999,-0.1700001 0.262487,-0.2730248 0.292488,-0.3090248 0.112001,-0.1370002 0.18796,-0.255051 0.22996,-0.3560509 a 0.81699999,0.81699999 0 0 0 0.06356,-0.319877 0.70500001,0.70500001 0 0 0 -0.252695,-0.5699911 C 37.377494,6.0812375 37.15205,6.0103297 36.869068,6.0099691 Z M 39.262203,6.0600951 38.606946,6.19187 V 6.5288003 L 39.26582,6.3980591 v 2.0897948 h -0.605647 v 0.3121257 h 1.577681 V 8.4878539 H 39.633239 V 6.0600952 Z M 5.1593749,6.0854166 a 0.92604166,0.92604166 0 0 0 -0.9157065,0.79375 h 0.267684 a 0.6614583,0.6614583 0 0 1 0.01602,-0.063045 0.6614583,0.6614583 0 0 1 0.022738,-0.062012 0.6614583,0.6614583 0 0 1 0.028939,-0.059945 0.6614583,0.6614583 0 0 1 0.034623,-0.056327 0.6614583,0.6614583 0 0 1 0.039791,-0.05271 0.6614583,0.6614583 0 0 1 0.044958,-0.048059 0.6614583,0.6614583 0 0 1 0.049609,-0.043925 0.6614583,0.6614583 0 0 1 0.053744,-0.038241 0.6614583,0.6614583 0 0 1 0.057361,-0.033073 0.6614583,0.6614583 0 0 1 0.060462,-0.026872 0.6614583,0.6614583 0 0 1 0.063045,-0.020672 0.6614583,0.6614583 0 0 1 0.064079,-0.01447 0.6614583,0.6614583 0 0 1 0.065629,-0.00827 0.6614583,0.6614583 0 0 1 0.047024,-0.00155 0.6614583,0.6614583 0 0 1 0.066146,0.0031 0.6614583,0.6614583 0 0 1 0.065112,0.010335 0.6614583,0.6614583 0 0 1 0.064079,0.016021 0.6614583,0.6614583 0 0 1 0.062012,0.022738 0.6614583,0.6614583 0 0 1 0.059945,0.028939 0.6614583,0.6614583 0 0 1 0.056327,0.034623 0.6614583,0.6614583 0 0 1 0.05271,0.039791 0.6614583,0.6614583 0 0 1 0.048059,0.044958 0.6614583,0.6614583 0 0 1 0.043925,0.049609 0.6614583,0.6614583 0 0 1 0.038241,0.053744 0.6614583,0.6614583 0 0 1 0.033073,0.057361 0.6614583,0.6614583 0 0 1 0.026872,0.060462 0.6614583,0.6614583 0 0 1 0.020672,0.063045 0.6614583,0.6614583 0 0 1 0.01447,0.064079 0.6614583,0.6614583 0 0 1 0.00827,0.065629 0.6614583,0.6614583 0 0 1 0.00155,0.047024 0.6614583,0.6614583 0 0 1 -0.0031,0.066146 0.6614583,0.6614583 0 0 1 -0.010335,0.065112 0.6614583,0.6614583 0 0 1 -0.01602,0.064079 0.6614583,0.6614583 0 0 1 -0.022738,0.062012 0.6614583,0.6614583 0 0 1 -0.028939,0.059945 0.6614583,0.6614583 0 0 1 -0.034623,0.056327 0.6614583,0.6614583 0 0 1 -0.039791,0.05271 0.6614583,0.6614583 0 0 1 -0.03824,0.041341 L 4.2333333,8.4666666 V 8.7312499 H 6.0854166 V 8.4666666 H 4.6865357 L 5.8135985,7.6656818 A 0.92604166,0.92604166 0 0 0 6.0854166,7.0114582 0.92604166,0.92604166 0 0 0 5.1593749,6.0854166 Z m 2.5135417,0 -0.79375,0.2645833 v 0.2645834 l 0.79375,-0.2645834 V 8.4666666 H 7.1437499 V 8.7312499 H 8.4666666 V 8.4666666 H 7.9374999 v -2.38125 z"
     id="path817" />
</svg>
