<?xml version="1.0" encoding="UTF-8" standalone="no"?>
<svg
   width="47.542679"
   height="47.546455"
   viewBox="0 0 12.579 12.58"
   version="1.1"
   id="svg8"
   sodipodi:docname="exe2hex.svg"
   inkscape:version="0.92.5 (2060ec1f9f, 2020-04-08)"
   xmlns:inkscape="http://www.inkscape.org/namespaces/inkscape"
   xmlns:sodipodi="http://sodipodi.sourceforge.net/DTD/sodipodi-0.dtd"
   xmlns:xlink="http://www.w3.org/1999/xlink"
   xmlns="http://www.w3.org/2000/svg"
   xmlns:svg="http://www.w3.org/2000/svg"
   xmlns:rdf="http://www.w3.org/1999/02/22-rdf-syntax-ns#"
   xmlns:cc="http://creativecommons.org/ns#"
   xmlns:dc="http://purl.org/dc/elements/1.1/">
  <metadata
     id="metadata14">
    <rdf:RDF>
      <cc:Work
         rdf:about="">
        <dc:format>image/svg+xml</dc:format>
        <dc:type
           rdf:resource="http://purl.org/dc/dcmitype/StillImage" />
        <dc:title />
      </cc:Work>
    </rdf:RDF>
  </metadata>
  <defs
     id="defs12">
    <linearGradient
       id="swatch3"
       inkscape:swatch="solid">
      <stop
         style="stop-color:#bde6fb;stop-opacity:1;"
         offset="0"
         id="stop3" />
    </linearGradient>
    <linearGradient
       inkscape:collect="always"
       xlink:href="#swatch3"
       id="linearGradient3"
       x1="2.3416383"
       y1="4.7634459"
       x2="8.6361189"
       y2="4.7634459"
       gradientUnits="userSpaceOnUse" />
  </defs>
  <sodipodi:namedview
     pagecolor="#ffffff"
     bordercolor="#666666"
     borderopacity="1"
     objecttolerance="10"
     gridtolerance="10"
     guidetolerance="10"
     inkscape:pageopacity="0"
     inkscape:pageshadow="2"
     inkscape:window-width="1085"
     inkscape:window-height="480"
     id="namedview10"
     showgrid="false"
     inkscape:zoom="4.9166667"
     inkscape:cx="2.1355932"
     inkscape:cy="24"
     inkscape:window-x="0"
     inkscape:window-y="25"
     inkscape:window-maximized="0"
     inkscape:current-layer="svg8"
     inkscape:showpageshadow="0"
     inkscape:pagecheckerboard="0"
     inkscape:deskcolor="#d1d1d1" />
  <path
     d="M 6.285,0 A 6.295,6.295 0 0 0 0,6.285 6.295,6.295 0 0 0 6.285,12.58 6.295,6.295 0 0 0 12.579,6.285 6.295,6.295 0 0 0 6.285,0 Z M 6.274,0.94 a 5.408,5.408 0 0 1 5.397,5.387 5.407,5.407 0 0 1 -10.814,0 C 0.857,3.34 3.287,0.94 6.274,0.94 Z M 5.596,3.76 C 5.566,3.757 5.536,3.786 5.499,3.844 5.405,3.99 5.219,4.482 5.237,4.537 5.247,4.564 5.391,4.645 5.559,4.718 5.726,4.791 5.907,4.852 5.961,4.854 6.063,4.859 6.064,4.843 5.985,4.524 5.963,4.434 5.975,4.41 6.052,4.386 6.104,4.369 6.262,4.304 6.405,4.24 L 6.663,4.124 6.593,3.979 C 6.556,3.899 6.511,3.834 6.495,3.834 6.479,3.834 6.315,3.898 6.132,3.977 L 5.798,4.119 5.72,3.936 C 5.67,3.82 5.634,3.763 5.596,3.759 Z M 4.379,4.265 C 4.371,4.265 4.365,4.266 4.362,4.268 4.308,4.301 4.32,4.439 4.388,4.57 L 4.448,4.687 4.132,4.818 C 3.754,4.974 3.736,4.989 3.769,5.112 3.825,5.325 3.844,5.327 4.204,5.171 4.39,5.09 4.557,5.033 4.575,5.044 A 0.473,0.473 0 0 1 4.655,5.21 C 4.693,5.323 4.723,5.352 4.79,5.342 4.856,5.332 4.908,5.248 5.015,4.982 5.105,4.759 5.141,4.614 5.119,4.578 5.079,4.514 4.493,4.27 4.379,4.265 Z M 7.863,4.424 6.461,6.264 6.287,6.3 6.165,6.45 6.143,10.643 6.351,10.787 10.313,9.284 10.413,9.14 V 5.627 L 10.227,5.477 10.011,5.522 Z M 9.893,6.554 9.9,7.586 8.705,7.899 8.698,6.746 Z M 3.54,6.723 C 3.442,6.719 3.425,6.835 3.537,7.019 3.605,7.13 3.61,7.169 3.57,7.305 3.544,7.392 3.499,7.478 3.47,7.495 3.386,7.548 3.404,7.895 3.499,8.037 A 0.49,0.49 0 0 1 3.58,8.246 c 0,0.057 0.025,0.085 0.072,0.081 A 0.586,0.586 0 0 0 3.959,8.163 C 4.035,8.049 3.959,7.46 3.839,7.223 3.765,7.078 3.802,7.033 4.019,7.004 4.203,6.98 4.476,7.095 4.578,7.24 4.632,7.317 4.629,7.346 4.554,7.517 A 1.66,1.66 0 0 0 4.45,8.004 L 4.43,8.299 4.604,8.506 c 0.095,0.114 0.189,0.207 0.209,0.207 0.02,0 0.048,-0.047 0.062,-0.104 A 0.317,0.317 0 0 1 4.98,8.451 C 5.094,8.371 5.125,8.126 5.037,7.992 A 1.824,1.824 0 0 1 4.894,7.672 L 4.82,7.459 4.917,7.346 C 5.031,7.213 5.039,7.145 4.95,7.056 4.87,6.976 4.837,6.976 4.685,7.054 4.571,7.113 4.556,7.111 4.438,7.024 4.347,6.956 4.248,6.928 4.088,6.924 3.915,6.919 3.832,6.892 3.72,6.807 3.646,6.751 3.585,6.724 3.54,6.723 Z M 8.57,6.767 8.578,7.932 7.106,8.317 7.099,7.004 Z m -5,0.029 h 0.007 c 0.022,0.003 0.06,0.028 0.11,0.078 0.09,0.09 0.095,0.11 0.042,0.154 C 3.678,7.071 3.657,7.058 3.601,6.949 3.551,6.854 3.543,6.801 3.569,6.796 Z m -0.6,0.031 c -0.118,0 -0.127,0.01 -0.127,0.148 0,0.208 0.11,0.414 0.282,0.531 0.175,0.12 0.204,0.123 0.239,0.028 A 0.257,0.257 0 0 1 3.417,7.442 0.564,0.564 0 0 0 3.493,7.282 C 3.535,7.156 3.531,7.131 3.453,7.048 A 0.752,0.752 0 0 0 2.97,6.828 Z m 1.843,0.29 c 0.045,0 0.079,0.019 0.079,0.053 0,0.03 -0.033,0.085 -0.073,0.121 C 4.751,7.352 4.742,7.351 4.692,7.271 4.648,7.201 4.648,7.179 4.694,7.151 A 0.224,0.224 0 0 1 4.813,7.116 Z M 5.199,7.403 A 0.716,0.716 0 0 0 5.021,7.428 C 4.933,7.452 4.928,7.468 4.953,7.641 A 0.732,0.732 0 0 0 5.059,7.928 0.362,0.362 0 0 1 5.138,8.08 c 0,0.03 0.041,0.061 0.092,0.07 L 5.354,8.174 C 5.463,8.193 5.679,8.046 5.734,7.916 5.831,7.683 5.812,7.629 5.594,7.51 A 0.794,0.794 0 0 0 5.199,7.403 Z M 9.901,7.715 9.908,8.743 8.712,9.188 8.706,8.03 Z M 3.664,7.774 C 3.677,7.775 3.689,7.787 3.702,7.809 3.722,7.842 3.73,7.883 3.719,7.901 3.69,7.948 3.631,7.941 3.599,7.889 3.584,7.865 3.593,7.823 3.619,7.797 3.637,7.78 3.651,7.772 3.664,7.774 Z M 8.579,8.064 8.588,9.234 7.114,9.783 7.107,8.451 Z M 4.772,8.109 c 0.04,0 0.079,0.037 0.079,0.091 0,0.088 -0.067,0.109 -0.125,0.04 C 4.689,8.195 4.686,8.163 4.718,8.132 A 0.075,0.075 0 0 1 4.772,8.109 Z M 4.019,8.306 A 0.525,0.525 0 0 0 3.771,8.374 C 3.472,8.539 3.444,8.61 3.576,8.868 3.691,9.093 3.794,9.166 4.042,9.2 4.166,9.217 4.318,9.27 4.384,9.318 4.622,9.495 4.892,9.398 4.892,9.134 4.892,8.951 4.84,8.858 4.595,8.605 4.401,8.404 4.205,8.303 4.019,8.305 Z m 0.015,0.09 C 4.176,8.39 4.379,8.495 4.556,8.678 4.79,8.921 4.861,9.068 4.8,9.184 A 0.366,0.366 0 0 1 4.712,9.296 C 4.63,9.35 4.546,9.329 4.359,9.205 A 0.624,0.624 0 0 0 4.019,9.082 0.338,0.338 0 0 1 3.744,8.964 C 3.537,8.757 3.544,8.507 3.757,8.507 c 0.046,0 0.117,-0.03 0.158,-0.066 A 0.184,0.184 0 0 1 4.034,8.396 Z m -0.14,0.241 c -0.007,0 -0.012,0 -0.018,0.002 -0.1,0.019 -0.109,0.114 -0.01,0.114 0.054,0 0.1,0.039 0.124,0.103 0.05,0.13 0.082,0.13 0.082,0.003 0,-0.11 -0.093,-0.223 -0.179,-0.222 z m 0.54,0.199 c -0.088,0 -0.137,0.091 -0.1,0.187 0.028,0.074 0.107,0.04 0.107,-0.046 0,-0.082 0.07,-0.074 0.118,0.012 0.022,0.04 0.053,0.057 0.07,0.04 C 4.673,8.985 4.523,8.836 4.434,8.836 Z M 3.924,9.243 C 3.884,9.243 3.869,9.258 3.9,9.291 3.929,9.322 4.058,9.388 4.187,9.438 4.315,9.488 4.467,9.528 4.523,9.53 4.605,9.531 4.582,9.506 4.403,9.404 4.239,9.31 4.016,9.242 3.925,9.244 Z"
     id="path2"
     inkscape:connector-curvature="0"
     style="fill:#bde6fb;fill-opacity:1" />
  <path
     d="m 2.411,5.507 v 3.678 l 3.886,1.46 3.962,-1.503 V 5.628 L 8.459,3.642 V 2.665 L 4.277,2.115 v 0.813 z"
     id="path4"
     inkscape:connector-curvature="0"
     style="fill:none;stroke:#fffefb;stroke-width:0.307;stroke-opacity:1" />
  <path
     d="M 2.411,5.507 6.319,6.451 8.459,3.641 4.277,2.928 Z"
     id="path6"
     inkscape:connector-curvature="0"
     style="fill:url(#linearGradient3);stroke:#ffffff;stroke-width:0.307;stroke-linejoin:bevel;stroke-opacity:1" />
</svg>
