<?xml version="1.0" encoding="UTF-8" standalone="no"?>
<svg
   width="47.542679"
   height="47.546455"
   viewBox="0 0 12.579 12.58"
   version="1.1"
   id="svg4"
   sodipodi:docname="eyewitness.svg"
   inkscape:version="0.92.5 (2060ec1f9f, 2020-04-08)"
   xmlns:inkscape="http://www.inkscape.org/namespaces/inkscape"
   xmlns:sodipodi="http://sodipodi.sourceforge.net/DTD/sodipodi-0.dtd"
   xmlns="http://www.w3.org/2000/svg"
   xmlns:svg="http://www.w3.org/2000/svg"
   xmlns:rdf="http://www.w3.org/1999/02/22-rdf-syntax-ns#"
   xmlns:cc="http://creativecommons.org/ns#"
   xmlns:dc="http://purl.org/dc/elements/1.1/">
  <metadata
     id="metadata10">
    <rdf:RDF>
      <cc:Work
         rdf:about="">
        <dc:format>image/svg+xml</dc:format>
        <dc:type
           rdf:resource="http://purl.org/dc/dcmitype/StillImage" />
        <dc:title />
      </cc:Work>
    </rdf:RDF>
  </metadata>
  <defs
     id="defs8" />
  <sodipodi:namedview
     pagecolor="#ffffff"
     bordercolor="#666666"
     borderopacity="1"
     objecttolerance="10"
     gridtolerance="10"
     guidetolerance="10"
     inkscape:pageopacity="0"
     inkscape:pageshadow="2"
     inkscape:window-width="1085"
     inkscape:window-height="480"
     id="namedview6"
     showgrid="false"
     inkscape:zoom="4.9166667"
     inkscape:cx="2.1355932"
     inkscape:cy="24"
     inkscape:window-x="0"
     inkscape:window-y="25"
     inkscape:window-maximized="0"
     inkscape:current-layer="svg4"
     inkscape:showpageshadow="0"
     inkscape:pagecheckerboard="0"
     inkscape:deskcolor="#d1d1d1" />
  <path
     d="M 6.285,0 A 6.295,6.295 0 0 0 0,6.285 6.295,6.295 0 0 0 6.285,12.58 6.295,6.295 0 0 0 12.579,6.285 6.295,6.295 0 0 0 6.285,0 Z M 6.274,0.94 a 5.408,5.408 0 0 1 5.397,5.387 5.407,5.407 0 0 1 -10.814,0 C 0.857,3.34 3.287,0.94 6.274,0.94 Z m 0.021,2.193 c -3.77,0 -5.027,3.142 -5.027,3.142 0,0 1.257,3.142 5.027,3.142 3.77,0 5.027,-3.142 5.027,-3.142 0,0 -1.257,-3.142 -5.027,-3.142 z m 0,0.454 c 0.422,0 0.808,0.042 1.162,0.115 a 4.722,4.722 0 0 1 2.352,1.217 c 0.351,0.332 0.597,0.665 0.756,0.915 0.158,0.25 0.228,0.416 0.228,0.416 0,0 -0.07,0.167 -0.228,0.417 A 4.837,4.837 0 0 1 9.201,8.071 C 8.971,8.227 8.711,8.373 8.421,8.498 8.131,8.622 7.811,8.727 7.457,8.799 7.103,8.872 6.717,8.914 6.295,8.914 5.873,8.914 5.487,8.872 5.133,8.799 A 4.963,4.963 0 0 1 4.169,8.498 4.721,4.721 0 0 1 2.781,7.582 4.837,4.837 0 0 1 2.025,6.667 C 1.867,6.417 1.797,6.25 1.797,6.25 c 0,0 0.07,-0.166 0.228,-0.416 A 4.838,4.838 0 0 1 3.389,4.43 C 3.619,4.274 3.879,4.128 4.169,4.003 4.459,3.878 4.779,3.774 5.133,3.702 5.487,3.629 5.873,3.587 6.295,3.587 Z M 6.3,3.854 A 2.403,2.403 0 0 0 4.773,4.399 L 5.658,5.933 5.672,5.909 6.823,3.913 A 2.405,2.405 0 0 0 6.3,3.854 Z M 7.157,4.014 6.272,5.545 H 8.605 A 2.422,2.422 0 0 0 7.157,4.013 Z M 4.519,4.64 A 2.408,2.408 0 0 0 3.931,6.755 h 1.81 L 5.462,6.271 Z m 2.339,1.148 0.07,0.12 1.151,1.995 A 2.408,2.408 0 0 0 8.668,5.788 Z M 6.941,6.61 6.717,6.996 5.775,8.629 A 2.403,2.403 0 0 0 7.827,8.143 Z M 3.995,6.995 A 2.422,2.422 0 0 0 5.443,8.528 L 6.329,6.995 H 3.994 Z"
     id="path2"
     inkscape:connector-curvature="0"
     style="fill:#bde6fb;fill-opacity:1" />
</svg>
