<?xml version="1.0" encoding="UTF-8" standalone="no"?>
<svg
   width="47.546486"
   height="47.546486"
   viewBox="0 0 12.580008 12.580008"
   version="1.1"
   id="svg4"
   sodipodi:docname="falkon.svg"
   inkscape:version="0.92.4 (5da689c313, 2019-01-14)"
   xmlns:inkscape="http://www.inkscape.org/namespaces/inkscape"
   xmlns:sodipodi="http://sodipodi.sourceforge.net/DTD/sodipodi-0.dtd"
   xmlns="http://www.w3.org/2000/svg"
   xmlns:svg="http://www.w3.org/2000/svg"
   xmlns:rdf="http://www.w3.org/1999/02/22-rdf-syntax-ns#"
   xmlns:cc="http://creativecommons.org/ns#"
   xmlns:dc="http://purl.org/dc/elements/1.1/">
  <metadata
     id="metadata10">
    <rdf:RDF>
      <cc:Work
         rdf:about="">
        <dc:format>image/svg+xml</dc:format>
        <dc:type
           rdf:resource="http://purl.org/dc/dcmitype/StillImage" />
        <dc:title />
      </cc:Work>
    </rdf:RDF>
  </metadata>
  <defs
     id="defs8" />
  <sodipodi:namedview
     pagecolor="#ffffff"
     bordercolor="#666666"
     borderopacity="1"
     objecttolerance="10"
     gridtolerance="10"
     guidetolerance="10"
     inkscape:pageopacity="0"
     inkscape:pageshadow="2"
     inkscape:window-width="1087"
     inkscape:window-height="480"
     id="namedview6"
     showgrid="false"
     inkscape:zoom="4.9166667"
     inkscape:cx="2.1355932"
     inkscape:cy="24"
     inkscape:window-x="0"
     inkscape:window-y="25"
     inkscape:window-maximized="0"
     inkscape:current-layer="svg4"
     inkscape:showpageshadow="0"
     inkscape:pagecheckerboard="0"
     inkscape:deskcolor="#d1d1d1" />
  <path
     d="M 6.2900079,0 A 6.29,6.29 0 0 0 7.9490244e-6,6.3 6.29,6.29 0 0 0 6.3000079,12.58 6.29,6.29 0 0 0 12.580008,6.29 6.29,6.29 0 0 0 6.2900079,0 Z m -0.01,0.94 a 5.4,5.4 0 0 1 5.4000001,5.4 5.4,5.4 0 0 1 -1.8300001,4.05 7.77,7.77 0 0 1 -0.9,-1.03 4.74,4.74 0 0 1 -0.49,-0.84 c -0.13,-0.3 -0.2,-0.6 -0.2,-0.89 a 1.19,1.19 0 0 1 0.32,-0.82 c 0.11,-0.12 0.26,-0.24 0.45,-0.34 0.18,-0.1 0.4,-0.19 0.68,-0.26 0.5300001,-0.07 1.0800001,-0.1 1.6700001,-0.07 -0.02,-0.19 -0.09,-0.38 -0.19,-0.57 -0.1,-0.18 -0.24,-0.36 -0.4,-0.52 a 2.66,2.66 0 0 0 -0.62,-0.44 C 9.9300079,4.49 9.6700079,4.4 9.3700079,4.33 c -0.1,-0.04 -0.44,-0.51 -1.07,-0.97 a 4.75,4.75 0 0 0 -3.87,-0.8 c -0.4,0.09 -0.83,0.22 -1.29,0.4 h 0.01 a 4.5,4.5 0 0 1 1.23,-0.05 c 0.47,0.02 0.9,0.07 1,0.1 a 0.4,0.4 0 0 1 -0.14,0.24 0.58,0.58 0 0 1 -0.27,0.13 1.94,1.94 0 0 0 -0.64,-0.02 c -0.2,0.04 -0.38,0.1 -0.55,0.19 -0.17,0.1 -0.32,0.2 -0.46,0.34 -0.14,0.14 -0.26,0.3 -0.38,0.47 -0.22,0.34 -0.4,0.74 -0.54,1.15 -0.13,0.4 -0.23,0.82 -0.29,1.2 0.05,-0.17 0.17,-0.31 0.34,-0.44 0.17,-0.13 0.38,-0.24 0.63,-0.35 0.5,-0.2 1.12,-0.35 1.73,-0.45 a 21,21 0 0 1 2.38,-0.27 8.8,8.8 0 0 0 -3.65,1.1 c -0.28,0.17 -0.53,0.34 -0.73,0.5 -0.02,0 -0.03,0.02 -0.03,0.02 -0.05,0.1 -0.1,0.23 -0.17,0.34 -0.21,0.5 -0.36,0.95 -0.45,1.37 -0.1,0.42 -0.14,0.8 -0.14,1.14 V 9.68 A 5.4,5.4 0 0 1 0.87000795,6.35 5.4,5.4 0 0 1 6.2700079,0.93 Z m 1.46,2.94 a 0.9,0.9 0 0 1 0.19,0 c 0.13,0.03 0.27,0.1 0.38,0.22 0.12,0.13 0.2,0.32 0.24,0.62 -0.25,0.02 -0.45,-0.01 -0.6,-0.08 a 0.89,0.89 0 0 1 -0.34,-0.27 c -0.16,-0.21 -0.2,-0.43 -0.2,-0.43 0,0 0.14,-0.06 0.33,-0.06 z m 1.33,2.24 c 0.49,0 0.78,0.05 0.78,0.05 a 7.7,7.7 0 0 0 -3.42,0.94 7.84,7.84 0 0 0 -2.25,1.9 9.93,9.93 0 0 0 -1.14,1.66 5.4,5.4 0 0 1 -0.72,-0.65 9.2,9.2 0 0 1 2.63,-2.64 8.02,8.02 0 0 1 4.12,-1.26 z"
     id="path2"
     inkscape:connector-curvature="0"
     style="fill:#bde6fb;fill-opacity:1" />
</svg>
