<?xml version="1.0" encoding="UTF-8" standalone="no"?>
<svg
   width="47.542679"
   height="47.546455"
   viewBox="0 0 12.579 12.58"
   version="1.1"
   id="svg4"
   sodipodi:docname="ferret-sidejack.svg"
   inkscape:version="0.92.5 (2060ec1f9f, 2020-04-08)"
   xmlns:inkscape="http://www.inkscape.org/namespaces/inkscape"
   xmlns:sodipodi="http://sodipodi.sourceforge.net/DTD/sodipodi-0.dtd"
   xmlns="http://www.w3.org/2000/svg"
   xmlns:svg="http://www.w3.org/2000/svg"
   xmlns:rdf="http://www.w3.org/1999/02/22-rdf-syntax-ns#"
   xmlns:cc="http://creativecommons.org/ns#"
   xmlns:dc="http://purl.org/dc/elements/1.1/">
  <metadata
     id="metadata10">
    <rdf:RDF>
      <cc:Work
         rdf:about="">
        <dc:format>image/svg+xml</dc:format>
        <dc:type
           rdf:resource="http://purl.org/dc/dcmitype/StillImage" />
        <dc:title />
      </cc:Work>
    </rdf:RDF>
  </metadata>
  <defs
     id="defs8" />
  <sodipodi:namedview
     pagecolor="#ffffff"
     bordercolor="#666666"
     borderopacity="1"
     objecttolerance="10"
     gridtolerance="10"
     guidetolerance="10"
     inkscape:pageopacity="0"
     inkscape:pageshadow="2"
     inkscape:window-width="1085"
     inkscape:window-height="480"
     id="namedview6"
     showgrid="false"
     inkscape:zoom="4.9166667"
     inkscape:cx="2.1355932"
     inkscape:cy="24"
     inkscape:window-x="0"
     inkscape:window-y="25"
     inkscape:window-maximized="0"
     inkscape:current-layer="svg4"
     inkscape:showpageshadow="0"
     inkscape:pagecheckerboard="0"
     inkscape:deskcolor="#d1d1d1" />
  <path
     d="M 6.285,0 A 6.295,6.295 0 0 0 0,6.285 6.295,6.295 0 0 0 6.285,12.58 6.295,6.295 0 0 0 12.579,6.285 6.295,6.295 0 0 0 6.285,0 Z M 6.274,0.94 a 5.408,5.408 0 0 1 5.397,5.387 5.407,5.407 0 0 1 -10.814,0 C 0.857,3.34 3.287,0.94 6.274,0.94 Z M 2.37,3.18 A 0.945,0.945 0 0 0 2.105,3.243 C 1.749,3.39 1.756,4.024 2.126,5.176 2.336,5.846 2.343,6.027 2.154,6.404 A 10,10 0 0 0 1.777,7.347 C 1.519,8.08 1.533,8.31 1.854,8.735 c 0.335,0.44 1.361,1.02 2.855,1.613 0.558,0.223 0.711,0.25 1.43,0.278 0.726,0.028 0.858,0.007 1.333,-0.146 C 8.218,10.229 9.308,9.754 9.852,9.433 10.375,9.14 10.92,8.575 10.982,8.283 11.038,8.031 10.87,7.403 10.528,6.614 10.382,6.258 10.257,5.93 10.257,5.888 c 0,-0.049 0.09,-0.37 0.202,-0.726 0.37,-1.137 0.377,-1.766 0.02,-1.912 C 10.201,3.131 9.775,3.208 8.778,3.55 L 7.884,3.85 7.416,3.76 C 6.788,3.64 5.728,3.64 5.148,3.76 4.695,3.857 4.681,3.857 4.136,3.654 3.592,3.445 2.566,3.174 2.37,3.181 Z m 7.808,0.349 c 0.02,0.004 0.06,0.02 0.106,0.035 0.063,0.028 0.112,0.126 0.112,0.23 0,0.21 -0.182,1.02 -0.272,1.229 -0.105,0.244 -0.216,0.704 -0.216,0.914 0,0.111 0.097,0.405 0.208,0.65 0.447,0.948 0.587,1.59 0.392,1.855 -0.14,0.196 -0.272,0.105 -1.11,-0.81 C 8.903,7.095 8.539,6.76 8.288,6.627 7.576,6.244 6.976,6.404 6.872,7.011 6.788,7.514 7.039,8.044 7.695,8.735 7.954,9.007 7.967,9.049 7.932,9.329 7.904,9.559 7.828,9.685 7.618,9.887 7.29,10.194 6.921,10.306 6.251,10.299 5.671,10.292 5.385,10.222 5.085,10.006 4.834,9.824 4.575,9.307 4.638,9.105 4.666,9.028 4.855,8.77 5.065,8.526 5.595,7.919 5.748,7.591 5.706,7.102 5.651,6.474 5.309,6.286 4.625,6.488 4.255,6.6 4.143,6.69 3.265,7.577 2.741,8.114 2.28,8.547 2.238,8.547 2.196,8.547 2.112,8.47 2.049,8.373 1.903,8.143 1.952,7.877 2.336,6.907 2.755,5.832 2.747,5.917 2.516,5.19 2.259,4.367 2.154,3.836 2.21,3.69 2.273,3.515 2.845,3.6 3.843,3.941 L 4.701,4.234 5.365,4.115 a 5.289,5.289 0 0 1 2.142,0.042 c 0.405,0.084 0.44,0.077 1.012,-0.14 0.32,-0.125 0.823,-0.285 1.11,-0.355 0.285,-0.07 0.53,-0.133 0.537,-0.133 z M 9.956,3.803 A 0.766,0.766 0 0 0 9.698,3.85 c -0.39,0.14 -0.907,0.398 -0.907,0.46 0,0.043 0.125,0.196 0.279,0.35 0.16,0.146 0.35,0.397 0.426,0.551 0.132,0.258 0.153,0.272 0.265,0.167 0.119,-0.104 0.44,-0.858 0.516,-1.2 0.047,-0.23 -0.09,-0.374 -0.32,-0.375 z M 2.498,3.81 C 2.429,3.81 2.38,3.82 2.357,3.843 2.322,3.871 2.301,3.969 2.301,4.053 c 0,0.216 0.32,1.067 0.488,1.284 L 2.915,5.504 3.048,5.267 C 3.118,5.134 3.305,4.883 3.473,4.715 3.633,4.548 3.766,4.367 3.766,4.311 3.766,4.14 2.866,3.815 2.498,3.81 Z M 4.645,7.108 A 0.353,0.368 0 0 1 4.998,7.476 0.353,0.368 0 0 1 4.645,7.844 0.353,0.368 0 0 1 4.293,7.476 0.353,0.368 0 0 1 4.645,7.108 Z m 3.285,0 A 0.353,0.368 0 0 1 8.283,7.476 0.353,0.368 0 0 1 7.93,7.844 0.353,0.368 0 0 1 7.577,7.476 0.353,0.368 0 0 1 7.93,7.108 Z M 4.645,7.265 A 0.203,0.212 0 0 0 4.442,7.476 0.203,0.212 0 0 0 4.645,7.687 0.203,0.212 0 0 0 4.848,7.476 0.203,0.212 0 0 0 4.645,7.265 Z m 3.285,0 A 0.203,0.212 0 0 0 7.726,7.476 0.203,0.212 0 0 0 7.93,7.687 0.203,0.212 0 0 0 8.133,7.476 0.203,0.212 0 0 0 7.93,7.265 Z M 6.319,8.434 A 1.183,1.183 0 0 0 5.944,8.484 C 5.476,8.624 5.49,9.098 5.972,9.356 6.104,9.426 6.209,9.51 6.209,9.538 6.209,9.615 5.943,9.608 5.783,9.524 5.594,9.419 5.608,9.559 5.803,9.691 6.041,9.859 6.635,9.838 6.823,9.663 7.012,9.482 7.018,9.426 6.843,9.523 A 0.95,0.95 0 0 1 6.509,9.593 L 6.314,9.587 6.481,9.468 C 6.991,9.098 7.102,8.826 6.844,8.588 6.739,8.493 6.534,8.438 6.319,8.434 Z"
     id="path2"
     inkscape:connector-curvature="0"
     style="fill:#bde6fb;fill-opacity:1" />
</svg>
