<?xml version="1.0" encoding="UTF-8" standalone="no"?>
<svg
   width="47.538898"
   height="47.538898"
   viewBox="0 0 12.578 12.578"
   version="1.1"
   id="svg4"
   sodipodi:docname="fingerprint-gui.svg"
   inkscape:version="0.92.4 (5da689c313, 2019-01-14)"
   xmlns:inkscape="http://www.inkscape.org/namespaces/inkscape"
   xmlns:sodipodi="http://sodipodi.sourceforge.net/DTD/sodipodi-0.dtd"
   xmlns="http://www.w3.org/2000/svg"
   xmlns:svg="http://www.w3.org/2000/svg"
   xmlns:rdf="http://www.w3.org/1999/02/22-rdf-syntax-ns#"
   xmlns:cc="http://creativecommons.org/ns#"
   xmlns:dc="http://purl.org/dc/elements/1.1/">
  <metadata
     id="metadata10">
    <rdf:RDF>
      <cc:Work
         rdf:about="">
        <dc:format>image/svg+xml</dc:format>
        <dc:type
           rdf:resource="http://purl.org/dc/dcmitype/StillImage" />
        <dc:title />
      </cc:Work>
    </rdf:RDF>
  </metadata>
  <defs
     id="defs8" />
  <sodipodi:namedview
     pagecolor="#ffffff"
     bordercolor="#666666"
     borderopacity="1"
     objecttolerance="10"
     gridtolerance="10"
     guidetolerance="10"
     inkscape:pageopacity="0"
     inkscape:pageshadow="2"
     inkscape:window-width="1087"
     inkscape:window-height="480"
     id="namedview6"
     showgrid="false"
     inkscape:zoom="4.9166667"
     inkscape:cx="2.1355932"
     inkscape:cy="24"
     inkscape:window-x="0"
     inkscape:window-y="25"
     inkscape:window-maximized="0"
     inkscape:current-layer="svg4"
     inkscape:showpageshadow="0"
     inkscape:pagecheckerboard="0"
     inkscape:deskcolor="#d1d1d1" />
  <path
     d="M 6.289,0 A 6.29,6.29 0 0 0 0,6.289 6.29,6.29 0 0 0 6.289,12.578 6.29,6.29 0 0 0 12.578,6.289 6.29,6.29 0 0 0 6.289,0 Z M 6.271,0.936 A 5.407,5.407 0 0 1 11.678,6.343 5.407,5.407 0 0 1 6.271,11.75 5.407,5.407 0 0 1 0.864,6.343 5.407,5.407 0 0 1 6.271,0.936 Z M 6.152,1.948 C 5.283,1.945 4.538,2.105 3.861,2.444 3.635,2.557 3.601,2.597 3.615,2.719 3.645,2.967 3.773,2.992 4.153,2.821 4.861,2.504 5.205,2.436 6.097,2.435 7.121,2.435 7.498,2.521 8.338,2.956 8.482,3.031 8.939,3.383 9.109,3.194 9.279,3.025 9.189,2.886 8.754,2.639 7.897,2.151 7.148,1.952 6.152,1.948 Z M 6.126,2.953 a 4.248,4.248 0 0 0 -3.133,1.36 c -0.325,0.35 -0.704,0.926 -0.704,1.069 0,0.165 0.068,0.257 0.192,0.257 0.098,0 0.197,-0.105 0.432,-0.459 0.526,-0.791 1.209,-1.316 2.088,-1.606 0.682,-0.223 1.48,-0.197 2.248,0 a 4.022,4.022 0 0 1 2.306,1.969 c 0.102,0.2 0.163,0.26 0.262,0.26 0.17,0 0.27,-0.126 0.224,-0.284 C 9.966,5.264 9.564,4.647 9.261,4.319 A 4.261,4.261 0 0 0 6.126,2.953 Z M 6.18,3.951 V 3.952 A 3.412,3.412 0 0 0 5.44,4.022 C 4.263,4.269 3.279,5.222 2.964,6.422 2.796,7.058 2.874,8.098 3.149,8.93 3.232,9.178 3.271,9.23 3.389,9.244 3.661,9.275 3.687,9.146 3.525,8.584 3.06,6.975 3.461,5.607 4.615,4.861 c 1.14,-0.738 2.708,-0.52 3.6,0.5 0.56,0.64 0.867,1.722 0.623,2.194 C 8.676,7.866 8.284,8.054 7.961,7.973 7.726,7.913 7.446,7.624 7.411,7.403 7.284,6.618 7.106,6.311 6.655,6.101 6.271,5.921 5.95,5.927 5.573,6.118 5.221,6.296 4.952,6.656 4.897,7.02 4.877,7.15 4.887,7.434 4.917,7.65 a 3.258,3.258 0 0 0 2.468,2.729 c 0.165,0.04 0.436,0.07 0.602,0.064 l 0.302,-0.01 c 0.17,-0.086 0.18,-0.286 0,-0.384 L 7.862,9.984 C 7.325,9.903 7.103,9.832 6.734,9.624 5.932,9.173 5.357,8.194 5.357,7.279 5.357,6.875 5.51,6.64 5.866,6.493 c 0.257,-0.107 0.26,-0.107 0.518,0 0.325,0.134 0.482,0.36 0.522,0.751 0.074,0.717 0.572,1.19 1.254,1.19 0.548,0 1.009,-0.356 1.172,-0.904 C 9.492,6.993 9.277,6.093 8.826,5.407 A 3.224,3.224 0 0 0 6.18,3.951 Z M 6.144,4.991 A 2.876,2.876 0 0 0 5.166,5.171 C 4.722,5.387 4.3,5.821 4.081,6.281 3.915,6.633 3.906,6.687 3.906,7.283 c 0,0.733 0.088,1.122 0.404,1.78 0.272,0.567 0.649,1.062 1.067,1.4 0.363,0.295 0.402,0.309 0.553,0.198 C 6.085,10.548 5.998,10.354 5.686,10.114 5.347,9.854 4.981,9.384 4.734,8.891 4.328,8.081 4.226,7.081 4.49,6.509 4.682,6.093 4.975,5.783 5.348,5.599 5.797,5.379 6.452,5.379 6.9,5.599 7.436,5.862 7.778,6.341 7.899,6.998 7.971,7.39 8.08,7.52 8.248,7.412 8.325,7.362 8.342,7.279 8.335,6.981 8.317,6.255 7.809,5.527 7.066,5.161 6.816,5.041 6.486,4.987 6.144,4.991 Z M 6.142,6.974 A 0.275,0.275 0 0 0 6.007,7.013 C 5.902,7.069 5.894,7.109 5.92,7.412 A 2.252,2.252 0 0 0 7.658,9.399 C 8.074,9.49 8.185,9.488 8.285,9.388 8.484,9.188 8.351,9.03 7.937,8.974 A 1.812,1.812 0 0 1 6.363,7.358 C 6.333,7.103 6.26,6.976 6.142,6.974 Z"
     id="path2"
     inkscape:connector-curvature="0"
     style="fill:#bde6fb;fill-opacity:1" />
</svg>
