<?xml version="1.0" encoding="UTF-8" standalone="no"?>
<svg
   width="47.546455"
   height="47.542679"
   viewBox="0 0 12.58 12.579"
   version="1.1"
   id="svg4"
   sodipodi:docname="firewall.svg"
   inkscape:version="0.92.4 (5da689c313, 2019-01-14)"
   xmlns:inkscape="http://www.inkscape.org/namespaces/inkscape"
   xmlns:sodipodi="http://sodipodi.sourceforge.net/DTD/sodipodi-0.dtd"
   xmlns="http://www.w3.org/2000/svg"
   xmlns:svg="http://www.w3.org/2000/svg"
   xmlns:rdf="http://www.w3.org/1999/02/22-rdf-syntax-ns#"
   xmlns:cc="http://creativecommons.org/ns#"
   xmlns:dc="http://purl.org/dc/elements/1.1/">
  <metadata
     id="metadata10">
    <rdf:RDF>
      <cc:Work
         rdf:about="">
        <dc:format>image/svg+xml</dc:format>
        <dc:type
           rdf:resource="http://purl.org/dc/dcmitype/StillImage" />
        <dc:title />
      </cc:Work>
    </rdf:RDF>
  </metadata>
  <defs
     id="defs8" />
  <sodipodi:namedview
     pagecolor="#ffffff"
     bordercolor="#666666"
     borderopacity="1"
     objecttolerance="10"
     gridtolerance="10"
     guidetolerance="10"
     inkscape:pageopacity="0"
     inkscape:pageshadow="2"
     inkscape:window-width="1087"
     inkscape:window-height="480"
     id="namedview6"
     showgrid="false"
     inkscape:zoom="4.9166667"
     inkscape:cx="2.1355932"
     inkscape:cy="24"
     inkscape:window-x="0"
     inkscape:window-y="25"
     inkscape:window-maximized="0"
     inkscape:current-layer="svg4"
     inkscape:showpageshadow="0"
     inkscape:pagecheckerboard="0"
     inkscape:deskcolor="#d1d1d1" />
  <path
     d="M 6.29,9.9999565e-4 A 6.29,6.29 0 0 0 0,6.291 6.29,6.29 0 0 0 6.29,12.579 6.29,6.29 0 0 0 12.58,6.29 6.29,6.29 0 0 0 6.29,0 Z M 6.272,0.937 A 5.407,5.407 0 0 1 11.679,6.344 5.407,5.407 0 0 1 6.272,11.751 5.407,5.407 0 0 1 0.866,6.344 5.407,5.407 0 0 1 6.272,0.938 Z M 2.929,2.913 A 0.125,0.125 0 0 0 2.804,3.038 v 2.856 c 0,3.907 3.414,5.23 3.449,5.243 0.014,0.004 0.028,0.008 0.043,0.008 0.015,0 0.03,-10e-4 0.043,-0.008 C 6.374,11.124 9.788,9.801 9.788,5.894 V 3.038 A 0.125,0.125 0 0 0 9.663,2.913 Z m 0.124,0.25 h 6.485 v 2.73 c 0,3.494 -2.852,4.827 -3.242,4.992 C 5.906,10.72 3.053,9.392 3.053,5.894 Z M 5.661,3.358 C 5.799,4.433 5.386,4.68 4.418,6.721 3.45,8.761 5.303,10.057 5.303,10.057 4.558,7.603 6.132,6.707 6.132,6.707 6.022,8.017 6.766,9.036 6.766,9.036 7.039,8.953 7.562,8.568 7.562,8.568 c 0,0.468 -0.276,1.488 -0.276,1.488 0,0 0.965,-0.746 1.269,-1.985 C 8.858,6.831 7.977,5.588 7.977,5.588 A 3.322,3.322 0 0 1 7.152,7.986 0.48,0.48 0 0 0 7.224,7.875 C 7.329,7.665 7.496,7.123 7.398,5.866 7.26,4.102 5.661,3.358 5.661,3.358 Z"
     id="path2"
     inkscape:connector-curvature="0"
     style="fill:#bde6fb;fill-opacity:1" />
</svg>
