<?xml version="1.0" encoding="UTF-8" standalone="no"?>
<svg
   width="47.542679"
   height="47.546455"
   viewBox="0 0 12.579 12.58"
   version="1.1"
   id="svg6"
   sodipodi:docname="flasm.svg"
   inkscape:version="0.92.5 (2060ec1f9f, 2020-04-08)"
   xmlns:inkscape="http://www.inkscape.org/namespaces/inkscape"
   xmlns:sodipodi="http://sodipodi.sourceforge.net/DTD/sodipodi-0.dtd"
   xmlns="http://www.w3.org/2000/svg"
   xmlns:svg="http://www.w3.org/2000/svg"
   xmlns:rdf="http://www.w3.org/1999/02/22-rdf-syntax-ns#"
   xmlns:cc="http://creativecommons.org/ns#"
   xmlns:dc="http://purl.org/dc/elements/1.1/">
  <metadata
     id="metadata12">
    <rdf:RDF>
      <cc:Work
         rdf:about="">
        <dc:format>image/svg+xml</dc:format>
        <dc:type
           rdf:resource="http://purl.org/dc/dcmitype/StillImage" />
        <dc:title />
      </cc:Work>
    </rdf:RDF>
  </metadata>
  <defs
     id="defs10" />
  <sodipodi:namedview
     pagecolor="#ffffff"
     bordercolor="#666666"
     borderopacity="1"
     objecttolerance="10"
     gridtolerance="10"
     guidetolerance="10"
     inkscape:pageopacity="0"
     inkscape:pageshadow="2"
     inkscape:window-width="1085"
     inkscape:window-height="480"
     id="namedview8"
     showgrid="false"
     inkscape:zoom="4.9166667"
     inkscape:cx="2.1355932"
     inkscape:cy="24"
     inkscape:window-x="0"
     inkscape:window-y="25"
     inkscape:window-maximized="0"
     inkscape:current-layer="svg6"
     inkscape:showpageshadow="0"
     inkscape:pagecheckerboard="0"
     inkscape:deskcolor="#d1d1d1" />
  <path
     d="M 6.285,0 A 6.295,6.295 0 0 0 0,6.285 6.295,6.295 0 0 0 6.285,12.58 6.295,6.295 0 0 0 12.579,6.285 6.295,6.295 0 0 0 6.285,0 Z M 6.274,0.94 a 5.408,5.408 0 0 1 5.397,5.387 5.407,5.407 0 0 1 -10.814,0 C 0.857,3.34 3.287,0.94 6.274,0.94 Z m 1.957,3.29 c -0.353,0 -0.665,0.29 -0.789,0.702 l 0.335,0.151 c 0.069,-0.178 0.22,-0.302 0.38,-0.302 0.28,0 0.45,0.339 0.839,0.339 0.348,0 0.696,-0.28 0.829,-0.706 L 9.463,4.263 C 9.385,4.46 9.225,4.57 9.06,4.57 8.753,4.57 8.616,4.23 8.23,4.23 Z M 5.685,7.558 c -0.579,0 -0.916,0.233 -0.916,0.65 0,0.754 1.129,0.467 1.129,0.833 0,0.13 -0.138,0.208 -0.363,0.208 C 5.34,9.249 5.069,9.195 4.856,9.112 L 4.74,9.508 c 0.229,0.1 0.524,0.158 0.804,0.158 0.554,0 0.883,-0.246 0.883,-0.65 0,-0.758 -1.146,-0.504 -1.146,-0.846 0,-0.12 0.146,-0.196 0.392,-0.196 0.167,0 0.367,0.034 0.554,0.088 l 0.112,-0.4 A 2.032,2.032 0 0 0 5.685,7.558 Z m -2.279,0 c -0.287,0 -0.6,0.07 -0.837,0.196 L 2.694,8.125 C 2.906,8.042 3.106,8 3.294,8 c 0.325,0 0.5,0.125 0.5,0.367 V 8.421 C 2.919,8.433 2.531,8.633 2.531,9.062 c 0,0.367 0.27,0.605 0.7,0.605 0.258,0 0.475,-0.083 0.63,-0.242 l 0.074,0.2 H 4.319 V 8.407 c 0,-0.55 -0.313,-0.85 -0.913,-0.85 z m 4.592,0.008 a 0.961,0.961 0 0 0 -0.65,0.25 L 7.257,7.599 H 6.873 V 9.625 H 7.407 V 8.169 A 0.645,0.645 0 0 1 7.811,8.028 c 0.258,0 0.387,0.145 0.387,0.42 V 9.625 H 8.732 V 8.375 A 0.966,0.966 0 0 0 8.715,8.183 c 0.12,-0.1 0.266,-0.154 0.42,-0.154 0.259,0 0.388,0.145 0.388,0.42 v 1.176 h 0.534 v -1.25 c 0,-0.5 -0.284,-0.809 -0.738,-0.809 A 0.946,0.946 0 0 0 8.607,7.883 C 8.486,7.678 8.273,7.566 7.998,7.566 Z M 3.795,8.715 V 9.103 A 0.564,0.564 0 0 1 3.407,9.249 c -0.204,0 -0.341,-0.104 -0.341,-0.258 0,-0.184 0.208,-0.267 0.729,-0.275 z"
     id="path2"
     inkscape:connector-curvature="0"
     style="fill:#bde6fb;fill-opacity:1" />
  <path
     d="m 5.681,2.74 v 3.342 c 0,0.46 0.28,0.74 0.744,0.74 0.175,0 0.367,-0.034 0.51,-0.1 L 6.792,6.257 A 0.514,0.514 0 0 1 6.622,6.291 C 6.458,6.291 6.37,6.181 6.37,5.995 V 2.74 Z M 2.563,2.986 V 6.782 H 3.28 V 5.202 H 4.92 V 4.583 H 3.28 V 3.603 H 5.101 V 2.986 Z"
     id="path4"
     inkscape:connector-curvature="0"
     style="opacity:0.8;fill:#ff2a2a" />
</svg>
