<?xml version="1.0" encoding="UTF-8" standalone="no"?>
<svg
   width="47.546486"
   height="47.546486"
   viewBox="0 0 12.580008 12.580008"
   version="1.1"
   id="svg12"
   sodipodi:docname="flow.svg"
   inkscape:version="0.92.4 (5da689c313, 2019-01-14)"
   xmlns:inkscape="http://www.inkscape.org/namespaces/inkscape"
   xmlns:sodipodi="http://sodipodi.sourceforge.net/DTD/sodipodi-0.dtd"
   xmlns="http://www.w3.org/2000/svg"
   xmlns:svg="http://www.w3.org/2000/svg"
   xmlns:rdf="http://www.w3.org/1999/02/22-rdf-syntax-ns#"
   xmlns:cc="http://creativecommons.org/ns#"
   xmlns:dc="http://purl.org/dc/elements/1.1/">
  <metadata
     id="metadata18">
    <rdf:RDF>
      <cc:Work
         rdf:about="">
        <dc:format>image/svg+xml</dc:format>
        <dc:type
           rdf:resource="http://purl.org/dc/dcmitype/StillImage" />
        <dc:title />
      </cc:Work>
    </rdf:RDF>
  </metadata>
  <defs
     id="defs16" />
  <sodipodi:namedview
     pagecolor="#ffffff"
     bordercolor="#666666"
     borderopacity="1"
     objecttolerance="10"
     gridtolerance="10"
     guidetolerance="10"
     inkscape:pageopacity="0"
     inkscape:pageshadow="2"
     inkscape:window-width="1087"
     inkscape:window-height="480"
     id="namedview14"
     showgrid="false"
     inkscape:zoom="4.9166667"
     inkscape:cx="2.1355932"
     inkscape:cy="24"
     inkscape:window-x="0"
     inkscape:window-y="25"
     inkscape:window-maximized="0"
     inkscape:current-layer="svg12"
     inkscape:showpageshadow="0"
     inkscape:pagecheckerboard="0"
     inkscape:deskcolor="#d1d1d1" />
  <path
     d="M 6.2900079,0 A 6.29,6.29 0 0 0 7.9490244e-6,6.3 6.29,6.29 0 0 0 6.3000079,12.58 6.29,6.29 0 0 0 12.580008,6.29 6.29,6.29 0 0 0 6.2900079,0 Z m -0.01,0.94 A 5.4,5.4 0 0 1 11.680008,6.34 5.4,5.4 0 0 1 6.2800079,11.75 5.4,5.4 0 0 1 0.87000795,6.35 5.4,5.4 0 0 1 6.2700079,0.93 Z"
     id="path2"
     inkscape:connector-curvature="0"
     style="fill:#bde6fb;fill-opacity:1" />
  <path
     d="m 6.0800079,1.74 v 0.45 l -0.37,0.06 a 4.18,4.18 0 0 0 -3.23,2.6 c 0.02,0.02 0.1,-0.05 0.18,-0.13 l 0.16,-0.17 0.4,0.4 0.4,0.39 0.1,-0.22 a 2.87,2.87 0 0 1 2.19,-1.61 h 0.17 l 0.01,0.41 0.02,0.41 0.75,-0.75 0.75,-0.75 -0.76,-0.77 -0.77,-0.77 z"
     id="path4"
     inkscape:connector-curvature="0"
     style="opacity:0.75;fill:#800080" />
  <path
     d="m 7.8700079,2.65 0.18,0.17 -0.4,0.4 -0.39,0.41 0.18,0.08 c 0.24,0.1 0.63,0.38 0.86,0.6 0.4,0.4 0.8,1.19 0.8,1.6 v 0.17 l -0.42,0.02 -0.4,0.01 0.74,0.76 0.76,0.75 0.7600001,-0.77 0.77,-0.77 h -0.9 l -0.03,-0.2 A 4.16,4.16 0 0 0 7.7500079,2.48 c -0.03,0 0.03,0.07 0.12,0.17 z"
     id="path6"
     inkscape:connector-curvature="0"
     style="opacity:0.75;fill:#800000" />
  <path
     d="m 2.0500079,5.76 -0.76,0.76 h 0.89 l 0.06,0.37 c 0.1,0.51 0.2,0.85 0.46,1.36 a 4.44,4.44 0 0 0 2.15,1.88 c 0.03,0 -0.03,-0.09 -0.13,-0.18 l -0.17,-0.19 0.4,-0.4 0.4,-0.4 -0.2,-0.08 a 2.92,2.92 0 0 1 -1.63,-2.1 l -0.03,-0.26 0.42,-0.02 0.42,-0.01 -0.75,-0.76 -0.76,-0.75 z"
     id="path8"
     inkscape:connector-curvature="0"
     style="opacity:0.75;fill:#0000ff" />
  <path
     d="m 8.8800079,7.46 c -0.08,0.26 -0.5,0.8 -0.78,1.02 -0.34,0.27 -0.96,0.56 -1.3,0.6 l -0.28,0.03 -0.01,-0.42 -0.02,-0.42 -0.75,0.75 -0.75,0.76 0.76,0.77 0.77,0.76 v -0.89 l 0.2,-0.04 A 4.16,4.16 0 0 0 10.120008,7.75 c 0.01,-0.02 -0.07,0.03 -0.1700001,0.13 l -0.18,0.18 -0.38,-0.39 c -0.2,-0.21 -0.4,-0.38 -0.41,-0.38 -0.02,0 -0.07,0.08 -0.1,0.17 z"
     id="path10"
     inkscape:connector-curvature="0"
     style="opacity:0.75;fill:#008000" />
</svg>
