<?xml version="1.0" encoding="UTF-8" standalone="no"?>
<svg
   width="47.546486"
   height="47.546608"
   viewBox="0 0 12.580008 12.58004"
   version="1.1"
   id="svg6"
   sodipodi:docname="focuswriter.svg"
   inkscape:version="0.92.4 (5da689c313, 2019-01-14)"
   xmlns:inkscape="http://www.inkscape.org/namespaces/inkscape"
   xmlns:sodipodi="http://sodipodi.sourceforge.net/DTD/sodipodi-0.dtd"
   xmlns="http://www.w3.org/2000/svg"
   xmlns:svg="http://www.w3.org/2000/svg"
   xmlns:rdf="http://www.w3.org/1999/02/22-rdf-syntax-ns#"
   xmlns:cc="http://creativecommons.org/ns#"
   xmlns:dc="http://purl.org/dc/elements/1.1/">
  <defs
     id="defs10" />
  <sodipodi:namedview
     pagecolor="#ffffff"
     bordercolor="#666666"
     borderopacity="1"
     objecttolerance="10"
     gridtolerance="10"
     guidetolerance="10"
     inkscape:pageopacity="0"
     inkscape:pageshadow="2"
     inkscape:window-width="1087"
     inkscape:window-height="480"
     id="namedview8"
     showgrid="false"
     inkscape:zoom="4.9166667"
     inkscape:cx="2.1355932"
     inkscape:cy="24"
     inkscape:window-x="0"
     inkscape:window-y="25"
     inkscape:window-maximized="0"
     inkscape:current-layer="svg6"
     inkscape:showpageshadow="0"
     inkscape:pagecheckerboard="0"
     inkscape:deskcolor="#d1d1d1" />
  <metadata
     id="metadata2">
    <rdf:RDF>
      <cc:Work>
        <dc:format>image/svg+xml</dc:format>
        <dc:type
           rdf:resource="http://purl.org/dc/dcmitype/StillImage" />
        <dc:title />
      </cc:Work>
    </rdf:RDF>
  </metadata>
  <path
     d="M 6.280008,3.1791329e-5 A 6.29,6.29 0 0 0 7.9585612e-6,6.3000318 6.29,6.29 0 0 0 6.280008,12.580032 a 6.29,6.29 0 0 0 6.3,-6.2900002 6.29,6.29 0 0 0 -6.31,-6.290000008671 z M 6.270008,0.94003179 a 5.4,5.4 0 0 1 5.4,5.40000001 5.4,5.4 0 0 1 -5.4,5.4100002 A 5.4,5.4 0 0 1 0.86000796,6.3500318 5.4,5.4 0 0 1 6.260008,0.93003179 Z m 2.13,2.19000001 h -3.93 a 0.48,0.48 0 0 0 -0.49,0.48 l 0.02,6.02 c 0,0.27 0.22,0.4800002 0.48,0.4800002 0.27,0 0.48,-0.2100002 0.48,-0.4700002 v -2.82 l 2.51,-0.02 c 0.28,0 0.48,-0.24 0.48,-0.52 0,-0.19 -0.18,-0.45 -0.43,-0.45 h -0.05 l -2.53,0.03 v -1.76 h 3.45 c 0.27,0 0.48,-0.22 0.48,-0.49 a 0.48,0.48 0 0 0 -0.48,-0.48 z"
     id="path4"
     inkscape:connector-curvature="0"
     style="fill:#bde6fb;fill-opacity:0.988235" />
</svg>
