<?xml version="1.0" encoding="UTF-8" standalone="no"?>
<svg
   width="47.542679"
   height="47.546455"
   viewBox="0 0 12.579 12.58"
   version="1.1"
   id="svg4"
   sodipodi:docname="foremost.svg"
   inkscape:version="0.92.5 (2060ec1f9f, 2020-04-08)"
   xmlns:inkscape="http://www.inkscape.org/namespaces/inkscape"
   xmlns:sodipodi="http://sodipodi.sourceforge.net/DTD/sodipodi-0.dtd"
   xmlns="http://www.w3.org/2000/svg"
   xmlns:svg="http://www.w3.org/2000/svg"
   xmlns:rdf="http://www.w3.org/1999/02/22-rdf-syntax-ns#"
   xmlns:cc="http://creativecommons.org/ns#"
   xmlns:dc="http://purl.org/dc/elements/1.1/">
  <metadata
     id="metadata10">
    <rdf:RDF>
      <cc:Work
         rdf:about="">
        <dc:format>image/svg+xml</dc:format>
        <dc:type
           rdf:resource="http://purl.org/dc/dcmitype/StillImage" />
        <dc:title />
      </cc:Work>
    </rdf:RDF>
  </metadata>
  <defs
     id="defs8" />
  <sodipodi:namedview
     pagecolor="#ffffff"
     bordercolor="#666666"
     borderopacity="1"
     objecttolerance="10"
     gridtolerance="10"
     guidetolerance="10"
     inkscape:pageopacity="0"
     inkscape:pageshadow="2"
     inkscape:window-width="1085"
     inkscape:window-height="480"
     id="namedview6"
     showgrid="false"
     inkscape:zoom="4.9166667"
     inkscape:cx="2.1355932"
     inkscape:cy="24"
     inkscape:window-x="0"
     inkscape:window-y="25"
     inkscape:window-maximized="0"
     inkscape:current-layer="svg4"
     inkscape:showpageshadow="0"
     inkscape:pagecheckerboard="0"
     inkscape:deskcolor="#d1d1d1" />
  <path
     d="M 6.285,0 A 6.295,6.295 0 0 0 0,6.285 6.295,6.295 0 0 0 6.285,12.58 6.295,6.295 0 0 0 12.579,6.285 6.295,6.295 0 0 0 6.285,0 Z M 6.274,0.94 a 5.408,5.408 0 0 1 5.397,5.387 5.407,5.407 0 0 1 -10.814,0 C 0.857,3.34 3.287,0.94 6.274,0.94 Z M 9.06,1.886 8.32,1.898 C 7.913,1.91 6.675,1.928 5.575,1.946 l -2.003,0.03 0.012,0.15 c 0,0.083 0.035,0.58 0.071,1.106 0.12,1.71 0.06,6.709 -0.083,7.27 L 3.53,10.664 3.852,10.604 C 4.026,10.568 4.444,10.556 4.785,10.58 5.491,10.622 5.539,10.574 5.192,10.233 L 4.989,10.03 4.947,8.296 C 4.923,7.339 4.923,6.532 4.941,6.496 4.971,6.454 5.311,6.431 5.939,6.431 h 0.95 v 0.328 c 0,0.18 0.019,0.33 0.043,0.33 0.107,0 1.572,-0.921 1.53,-0.963 C 8.408,6.072 7.518,5.522 7.147,5.312 L 6.89,5.162 V 5.773 H 4.935 L 4.899,4.595 A 62.592,62.592 0 0 1 4.857,3.01 V 2.605 H 8.031 L 8.014,3.424 7.996,4.249 7.56,4.267 7.123,4.285 7.141,4.028 7.159,3.776 7.476,3.794 C 7.656,3.8 7.786,3.783 7.786,3.747 7.786,3.693 6.716,2.784 6.651,2.784 6.633,2.784 6.394,3.011 6.113,3.292 L 5.605,3.801 h 0.746 v 1.117 l 0.676,0.037 c 0.365,0.024 0.957,0.041 1.316,0.041 h 0.64 v -1.28 c 0,-0.7 0.017,-1.4 0.035,-1.555 z M 8.525,2.131 a 0.33,0.33 0 0 1 0.33,0.33 0.33,0.33 0 0 1 -0.33,0.331 0.33,0.33 0 0 1 -0.33,-0.33 0.33,0.33 0 0 1 0.33,-0.331 z m -4.316,0.14 a 0.33,0.33 0 0 1 0.33,0.33 0.33,0.33 0 0 1 -0.33,0.33 0.33,0.33 0 0 1 -0.33,-0.33 0.33,0.33 0 0 1 0.33,-0.33 z M 6.715,3.21 a 0.33,0.33 0 0 1 0.33,0.33 0.33,0.33 0 0 1 -0.33,0.331 0.33,0.33 0 0 1 -0.33,-0.33 0.33,0.33 0 0 1 0.33,-0.331 z m 1.793,0.904 a 0.33,0.33 0 0 1 0.33,0.331 0.33,0.33 0 0 1 -0.33,0.33 0.33,0.33 0 0 1 -0.33,-0.33 0.33,0.33 0 0 1 0.33,-0.33 z m -4.16,1.672 a 0.33,0.33 0 0 1 0.33,0.33 0.33,0.33 0 0 1 -0.33,0.33 0.33,0.33 0 0 1 -0.33,-0.33 0.33,0.33 0 0 1 0.33,-0.33 z m 3.046,0.017 a 0.33,0.33 0 0 1 0.33,0.33 0.33,0.33 0 0 1 -0.33,0.331 0.33,0.33 0 0 1 -0.331,-0.33 0.33,0.33 0 0 1 0.33,-0.331 z m -3.15,3.776 a 0.33,0.33 0 0 1 0.33,0.33 0.33,0.33 0 0 1 -0.33,0.332 0.33,0.33 0 0 1 -0.33,-0.331 0.33,0.33 0 0 1 0.33,-0.33 z"
     id="path2"
     inkscape:connector-curvature="0"
     style="fill:#bde6fb;fill-opacity:1" />
</svg>
