<?xml version="1.0" encoding="UTF-8" standalone="no"?>
<svg
   width="47.542397"
   height="47.542404"
   version="1.1"
   viewBox="0 0 12.578926 12.578928"
   id="svg4"
   sodipodi:docname="freetube.svg"
   inkscape:version="0.92.4 (5da689c313, 2019-01-14)"
   xmlns:inkscape="http://www.inkscape.org/namespaces/inkscape"
   xmlns:sodipodi="http://sodipodi.sourceforge.net/DTD/sodipodi-0.dtd"
   xmlns="http://www.w3.org/2000/svg"
   xmlns:svg="http://www.w3.org/2000/svg"
   xmlns:rdf="http://www.w3.org/1999/02/22-rdf-syntax-ns#"
   xmlns:cc="http://creativecommons.org/ns#"
   xmlns:dc="http://purl.org/dc/elements/1.1/">
  <metadata
     id="metadata10">
    <rdf:RDF>
      <cc:Work
         rdf:about="">
        <dc:format>image/svg+xml</dc:format>
        <dc:type
           rdf:resource="http://purl.org/dc/dcmitype/StillImage" />
        <dc:title />
      </cc:Work>
    </rdf:RDF>
  </metadata>
  <defs
     id="defs8" />
  <sodipodi:namedview
     pagecolor="#ffffff"
     bordercolor="#666666"
     borderopacity="1"
     objecttolerance="10"
     gridtolerance="10"
     guidetolerance="10"
     inkscape:pageopacity="0"
     inkscape:pageshadow="2"
     inkscape:window-width="1136"
     inkscape:window-height="480"
     id="namedview6"
     showgrid="false"
     inkscape:zoom="4.9166667"
     inkscape:cx="2.1355932"
     inkscape:cy="24"
     inkscape:window-x="0"
     inkscape:window-y="25"
     inkscape:window-maximized="0"
     inkscape:current-layer="svg4"
     inkscape:showpageshadow="0"
     inkscape:pagecheckerboard="0"
     inkscape:deskcolor="#d1d1d1" />
  <path
     d="M 6.2843042,0 C 2.815925,0.0057469 0.00582076,2.815925 0,6.2843042 c -4.6082631e-6,3.4723479 2.8119563,6.2888018 6.2843042,6.2946228 3.4765812,0 6.2946228,-2.8180416 6.2946228,-6.2946228 C 12.573169,2.8119563 9.7566521,0 6.2843042,0 Z m -0.010335,0.93947067 c 2.9741438,0.00572 5.3855261,2.41251983 5.3969031,5.38658423 0,2.9865791 -2.4208808,5.4074861 -5.4074863,5.4074861 -2.986579,0 -5.40722149,-2.4208806 -5.40722149,-5.4074861 0,-2.986579 2.43122569,-5.38658423 5.41780469,-5.38658423 z M 3.8751808,3.0643921 c -0.1891667,0 -0.3410701,0.2192204 -0.3410701,0.4914308 v 5.15931 c 0,0.7370405 0.6827487,1.2283395 1.0242157,1.2283395 H 4.8998992 V 9.4520412 8.7151329 3.5558229 c 0,-0.2722263 -0.1524114,-0.4914308 -0.3415728,-0.4914308 z m 2.0070774,0 c -0.2722263,0 -0.4914309,0.1748529 -0.4914309,0.3917106 v 0.7823631 c 0,0.2168498 0.2192204,0.3917107 0.4914309,0.3917107 h 2.948215 c 0.7370405,0 1.2288418,-0.7826541 1.2288418,-1.1740738 V 3.0643921 H 9.5678841 8.8304732 Z M 5.5851349,5.5210703 A 0.18934139,0.19795611 0 0 0 5.3908326,5.7195053 V 6.9958921 8.2717762 A 0.18934139,0.19795611 0 0 0 5.6750445,8.4428219 L 6.7323326,7.8046285 7.7890916,7.1664351 a 0.18934139,0.19795611 0 0 0 0,-0.3426047 L 6.7323326,6.185637 5.6750445,5.5479463 a 0.18934139,0.19795611 0 0 0 -0.089915,-0.026871 z"
     id="path2"
     inkscape:connector-curvature="0"
     style="fill:#bde6fb;fill-opacity:1;stroke-width:1.04387" />
</svg>
