<?xml version="1.0" encoding="UTF-8" standalone="no"?>
<svg
   width="47.542679"
   height="47.546455"
   viewBox="0 0 12.579 12.58"
   version="1.1"
   id="svg14"
   sodipodi:docname="frescobaldi.svg"
   inkscape:version="0.92.5 (2060ec1f9f, 2020-04-08)"
   xmlns:inkscape="http://www.inkscape.org/namespaces/inkscape"
   xmlns:sodipodi="http://sodipodi.sourceforge.net/DTD/sodipodi-0.dtd"
   xmlns="http://www.w3.org/2000/svg"
   xmlns:svg="http://www.w3.org/2000/svg"
   xmlns:rdf="http://www.w3.org/1999/02/22-rdf-syntax-ns#"
   xmlns:cc="http://creativecommons.org/ns#"
   xmlns:dc="http://purl.org/dc/elements/1.1/">
  <metadata
     id="metadata20">
    <rdf:RDF>
      <cc:Work
         rdf:about="">
        <dc:format>image/svg+xml</dc:format>
        <dc:type
           rdf:resource="http://purl.org/dc/dcmitype/StillImage" />
        <dc:title />
      </cc:Work>
    </rdf:RDF>
  </metadata>
  <defs
     id="defs18" />
  <sodipodi:namedview
     pagecolor="#ffffff"
     bordercolor="#666666"
     borderopacity="1"
     objecttolerance="10"
     gridtolerance="10"
     guidetolerance="10"
     inkscape:pageopacity="0"
     inkscape:pageshadow="2"
     inkscape:window-width="1085"
     inkscape:window-height="480"
     id="namedview16"
     showgrid="false"
     inkscape:zoom="4.9166667"
     inkscape:cx="2.1355932"
     inkscape:cy="24"
     inkscape:window-x="0"
     inkscape:window-y="25"
     inkscape:window-maximized="0"
     inkscape:current-layer="svg14"
     inkscape:showpageshadow="0"
     inkscape:pagecheckerboard="0"
     inkscape:deskcolor="#d1d1d1" />
  <path
     d="M 6.285,0 A 6.295,6.295 0 0 0 0,6.285 6.295,6.295 0 0 0 6.285,12.58 6.295,6.295 0 0 0 12.579,6.285 6.295,6.295 0 0 0 6.285,0 Z m -0.01,0.94 a 5.408,5.408 0 0 1 5.396,5.387 5.407,5.407 0 1 1 -10.814,0 C 0.857,3.34 3.287,0.94 6.274,0.94 Z"
     id="path2"
     inkscape:connector-curvature="0"
     style="fill:#bde6fb;fill-opacity:1" />
  <path
     d="M 4.058,2.924 C 3.982,2.92 3.928,2.937 3.899,2.977 3.717,3.247 3.816,4.066 3.946,4.862 L 3.952,4.901 3.953,4.907 C 4.314,4.835 4.799,4.792 5.163,4.753 4.966,4.773 4.729,4.794 4.497,4.82 4.499,4.487 4.499,4.128 4.529,3.84 4.544,3.696 4.567,3.57 4.601,3.473 4.635,3.377 4.681,3.31 4.741,3.285 A 0.13,0.13 0 0 1 4.788,3.276 C 4.885,3.274 5.02,3.361 5.175,3.5 5.331,3.64 5.506,3.83 5.685,4.035 5.742,3.937 5.802,3.845 5.861,3.742 5.123,3.335 4.387,2.94 4.058,2.925 Z M 10.089,4.12 C 9.404,4.136 8.216,4.606 7.757,4.65 7.739,4.652 7.675,4.614 7.652,4.61 7.622,4.796 7.598,4.976 7.57,5.149 7.855,5.089 8.177,5.01 8.474,4.949 8.77,4.889 9.041,4.845 9.226,4.856 9.348,4.864 9.433,4.896 9.46,4.962 9.494,5.045 9.44,5.179 9.335,5.342 A 5.038,5.038 0 0 1 8.893,5.9 C 9.036,5.992 9.149,6.078 9.285,6.17 9.842,5.41 10.777,4.384 10.468,4.192 10.379,4.137 10.248,4.116 10.089,4.12 Z M 3.255,7.54 C 2.745,8.15 2.254,8.778 2.465,9.061 2.69,9.361 3.902,9.105 4.862,8.917 4.781,8.59 4.704,8.237 4.624,8.117 A 14.861,14.861 0 0 1 3.254,7.541 Z M 9.018,7.797 C 8.476,8.092 7.908,8.371 7.762,8.47 7.746,8.48 7.668,8.538 7.635,8.562 7.625,8.732 7.608,8.888 7.572,9.01 7.537,9.133 7.484,9.22 7.405,9.253 A 0.436,0.436 0 0 1 7.152,9.257 1.628,1.628 0 0 1 6.856,9.152 c 0.857,0.434 1.982,1.04 2.175,0.755 0.22,-0.323 0.101,-1.302 -0.013,-2.11 z"
     id="path4"
     inkscape:connector-curvature="0"
     style="opacity:0.8;fill:#ee4075;fill-rule:evenodd" />
  <path
     d="M 6.765,2.573 C 6.533,2.528 6.067,3.375 5.681,4.043 5.785,4.162 5.885,4.265 5.988,4.387 6.198,4.229 6.365,4.111 6.647,3.891 A 8.41,8.41 0 0 1 7.205,3.487 C 7.065,3.018 6.915,2.602 6.765,2.573 Z M 3.111,4.85 C 2.557,4.852 2.103,4.885 2.066,5.027 2.006,5.256 2.477,5.832 3.014,6.42 3.307,6.297 3.651,6.177 3.931,6.056 A 5.954,5.954 0 0 1 3.579,5.476 C 3.494,5.306 3.45,5.17 3.483,5.098 3.508,5.043 3.588,4.997 3.703,4.959 3.818,4.921 3.968,4.891 4.134,4.866 L 4.144,4.865 C 3.81,4.86 3.443,4.849 3.111,4.85 Z M 8.885,5.895 C 8.662,6.147 8.421,6.41 8.205,6.643 8.278,6.713 8.339,6.782 8.375,6.847 8.411,6.912 8.423,6.972 8.397,7.027 8.368,7.091 8.282,7.136 8.162,7.167 8.042,7.2 7.887,7.219 7.722,7.233 A 0.071,0.071 0 0 0 7.714,7.244 C 7.674,7.34 7.658,7.504 7.651,7.698 7.645,7.892 7.647,8.116 7.643,8.333 7.641,8.42 7.628,8.487 7.623,8.569 L 7.76,8.469 C 8.061,8.265 10.105,7.325 10.173,6.968 10.211,6.774 9.543,6.322 8.885,5.895 Z M 4.608,8.101 4.622,8.115 C 4.826,8.416 4.988,9.909 5.345,9.977 5.563,10.019 6.225,9.575 6.837,9.137 6.734,9.09 6.633,9.05 6.526,8.99 6.184,8.8 5.842,8.57 5.649,8.49 A 42.65,42.65 0 0 0 4.609,8.101 Z"
     id="path6"
     inkscape:connector-curvature="0"
     style="opacity:0.8;fill:#fc69a4;fill-rule:evenodd" />
  <path
     d="M 4.788,3.276 A 0.13,0.13 0 0 0 4.741,3.286 C 4.498,3.384 4.501,4.154 4.497,4.82 4.961,4.769 5.445,4.739 5.594,4.683 5.651,4.662 5.864,4.481 5.988,4.387 5.534,3.852 5.037,3.27 4.788,3.277 Z m 4.438,1.58 C 8.857,4.834 8.141,5.029 7.57,5.149 7.555,5.242 7.536,5.35 7.524,5.433 7.488,5.687 7.472,5.884 7.5,5.96 7.528,6.037 7.607,6.123 7.707,6.214 7.807,6.305 7.928,6.402 8.042,6.497 8.104,6.549 8.146,6.599 8.199,6.65 8.756,6.05 9.571,5.233 9.459,4.962 9.433,4.895 9.349,4.864 9.226,4.856 Z m -5.293,1.2 C 3.323,6.319 2.386,6.577 2.415,6.873 2.472,7.46 5.262,8.327 5.649,8.489 6.035,8.651 7.016,9.41 7.404,9.253 7.792,9.095 7.552,7.628 7.715,7.244 7.716,7.24 7.727,7.23 7.728,7.227 7.671,7.232 7.625,7.242 7.565,7.246 7.172,7.269 6.757,7.27 6.605,7.326 6.53,7.355 6.445,7.432 6.353,7.53 6.263,7.628 6.167,7.747 6.072,7.858 5.977,7.968 5.882,8.071 5.792,8.138 5.702,8.205 5.619,8.236 5.545,8.202 5.398,8.134 5.193,7.934 5.011,7.712 4.829,7.49 4.669,7.247 4.613,7.094 4.556,6.942 4.241,6.517 3.956,6.093 3.946,6.08 3.942,6.069 3.933,6.056 Z"
     id="path8"
     inkscape:connector-curvature="0"
     style="opacity:0.8;fill:#ff96bf;fill-rule:evenodd" />
  <path
     d="M 7.693,3.285 C 7.399,3.15 5.897,4.57 5.594,4.683 5.291,4.797 3.619,4.803 3.484,5.098 3.349,5.394 4.5,6.789 4.613,7.094 4.726,7.4 5.251,8.066 5.545,8.202 5.839,8.337 6.302,7.44 6.605,7.327 6.909,7.213 8.264,7.324 8.398,7.027 8.533,6.732 7.613,6.265 7.5,5.96 7.387,5.655 7.987,3.42 7.693,3.285 Z M 6.276,4.866 c 0.103,0.02 0.21,0.101 0.313,0.193 0.102,0.091 0.2,0.192 0.285,0.25 0.06,0.04 0.165,0.076 0.26,0.118 C 7.23,5.469 7.316,5.517 7.339,5.584 7.371,5.677 7.346,5.807 7.31,5.937 7.275,6.067 7.228,6.2 7.215,6.297 7.206,6.368 7.223,6.471 7.23,6.57 7.237,6.669 7.233,6.763 7.182,6.817 7.111,6.891 6.979,6.939 6.84,6.977 6.702,7.017 6.557,7.047 6.46,7.088 6.39,7.118 6.303,7.185 6.214,7.242 6.126,7.299 6.036,7.345 5.962,7.332 5.859,7.312 5.752,7.23 5.649,7.139 5.546,7.047 5.448,6.946 5.364,6.889 5.303,6.849 5.198,6.813 5.104,6.771 5.008,6.729 4.922,6.681 4.899,6.613 4.867,6.52 4.891,6.391 4.927,6.26 4.963,6.13 5.01,5.998 5.023,5.9 5.032,5.83 5.014,5.726 5.008,5.627 5.001,5.529 5.005,5.434 5.056,5.381 5.126,5.307 5.259,5.259 5.397,5.22 5.536,5.18 5.681,5.15 5.777,5.11 5.847,5.08 5.935,5.012 6.023,4.956 6.112,4.899 6.202,4.853 6.276,4.866 Z"
     id="path10"
     inkscape:connector-curvature="0"
     style="opacity:0.8;fill:#ffcbdb;fill-rule:evenodd" />
  <path
     d="M 7.215,6.297 C 7.197,6.439 7.284,6.71 7.182,6.817 7.04,6.965 6.654,7.007 6.46,7.088 6.32,7.148 6.11,7.358 5.962,7.331 5.756,7.294 5.532,7.003 5.364,6.889 5.242,6.807 4.945,6.747 4.899,6.613 4.835,6.427 4.997,6.096 5.022,5.9 5.04,5.759 4.954,5.488 5.056,5.38 5.198,5.232 5.584,5.191 5.777,5.11 5.917,5.05 6.127,4.84 6.276,4.866 6.482,4.904 6.706,5.194 6.874,5.308 6.996,5.39 7.292,5.45 7.339,5.585 7.403,5.77 7.24,6.102 7.215,6.297 Z"
     id="path12"
     inkscape:connector-curvature="0"
     style="opacity:0.8;fill:#ff940a;fill-rule:evenodd" />
</svg>
