<?xml version="1.0" encoding="UTF-8" standalone="no"?>
<svg
   width="47.546455"
   height="47.546455"
   viewBox="0 0 12.58 12.58"
   version="1.1"
   id="svg4"
   sodipodi:docname="frogr.svg"
   inkscape:version="0.92.4 (5da689c313, 2019-01-14)"
   xmlns:inkscape="http://www.inkscape.org/namespaces/inkscape"
   xmlns:sodipodi="http://sodipodi.sourceforge.net/DTD/sodipodi-0.dtd"
   xmlns="http://www.w3.org/2000/svg"
   xmlns:svg="http://www.w3.org/2000/svg"
   xmlns:rdf="http://www.w3.org/1999/02/22-rdf-syntax-ns#"
   xmlns:cc="http://creativecommons.org/ns#"
   xmlns:dc="http://purl.org/dc/elements/1.1/">
  <metadata
     id="metadata10">
    <rdf:RDF>
      <cc:Work
         rdf:about="">
        <dc:format>image/svg+xml</dc:format>
        <dc:type
           rdf:resource="http://purl.org/dc/dcmitype/StillImage" />
        <dc:title />
      </cc:Work>
    </rdf:RDF>
  </metadata>
  <defs
     id="defs8" />
  <sodipodi:namedview
     pagecolor="#ffffff"
     bordercolor="#666666"
     borderopacity="1"
     objecttolerance="10"
     gridtolerance="10"
     guidetolerance="10"
     inkscape:pageopacity="0"
     inkscape:pageshadow="2"
     inkscape:window-width="1112"
     inkscape:window-height="480"
     id="namedview6"
     showgrid="false"
     inkscape:zoom="4.9166667"
     inkscape:cx="2.1355932"
     inkscape:cy="24"
     inkscape:window-x="0"
     inkscape:window-y="25"
     inkscape:window-maximized="0"
     inkscape:current-layer="svg4"
     inkscape:showpageshadow="0"
     inkscape:pagecheckerboard="0"
     inkscape:deskcolor="#d1d1d1" />
  <path
     d="m 6.29,0 a 6.29,6.29 0 0 0 0,12.58 A 6.29,6.29 0 0 0 6.29,0 Z M 6.27,0.93 a 5.417,5.417 0 0 1 5.41,5.41 5.4,5.4 0 0 1 -5.4,5.41 5.4,5.4 0 0 1 -5.41,-5.4 5.4,5.4 0 0 1 5.4,-5.42 z M 3.632,2.768 A 0.38,0.376 0 0 0 3.315,2.945 0.38,0.376 0 0 0 3.296,2.978 0.38,0.376 0 0 0 3.281,3.012 0.38,0.376 0 0 0 3.27,3.048 0.38,0.376 0 0 0 3.262,3.085 0.38,0.376 0 0 0 3.258,3.123 a 0.38,0.376 0 0 0 0,0.025 V 3.525 H 2.877 a 0.38,0.376 0 0 0 -0.026,0.75 0.38,0.376 0 0 0 0.026,10e-4 h 0.38 V 4.902 A 0.38,0.376 0 0 0 3.259,4.94 0.38,0.376 0 0 0 3.324,5.114 0.38,0.376 0 0 0 3.347,5.144 0.38,0.376 0 0 0 3.373,5.172 0.38,0.376 0 0 0 3.5,5.252 0.38,0.376 0 0 0 3.638,5.278 H 4.525 V 7.282 H 3.638 A 0.38,0.376 0 0 0 3.258,7.658 V 8.284 H 2.877 a 0.38,0.376 0 1 0 0,0.751 h 0.38 v 0.376 a 0.3805,0.37649474 0 1 0 0.761,0 V 8.033 h 0.507 v 0.132 c 0,0.76 0.633,1.372 1.42,1.372 h 0.71 c 0.786,0 1.42,-0.612 1.42,-1.372 V 8.033 h 0.506 v 1.378 a 0.38,0.376 0 1 0 0.76,0 V 9.035 h 0.381 a 0.38,0.376 0 1 0 0,-0.751 H 9.342 V 7.658 A 0.38,0.376 0 0 0 8.962,7.282 H 8.074 V 5.278 H 8.961 A 0.38,0.376 0 0 0 9.341,4.902 V 4.276 h 0.381 a 0.38,0.376 0 1 0 0,-0.751 H 9.342 V 3.149 A 0.38,0.376 0 0 0 8.956,2.768 0.38,0.376 0 0 0 8.581,3.148 V 4.527 H 8.074 V 4.394 C 8.074,4.341 8.07,4.289 8.064,4.237 L 8.054,4.245 A 0.88,0.88 0 0 1 7.379,4.377 0.883,0.883 0 0 1 6.874,4.076 0.886,0.886 0 0 1 6.676,3.608 0.882,0.882 0 0 1 6.778,3.101 0.88,0.88 0 0 1 6.82,3.033 1.498,1.498 0 0 0 6.655,3.023 h -0.71 c -0.062,0 -0.122,0.006 -0.18,0.013 A 0.87,0.87 0 0 1 5.893,3.342 0.865,0.865 0 0 1 5.588,4.194 0.889,0.889 0 0 1 4.533,4.248 1.352,1.352 0 0 0 4.525,4.394 V 4.527 H 4.018 V 3.148 A 0.38,0.376 0 0 0 3.974,2.968 0.38,0.376 0 0 0 3.954,2.936 0.38,0.376 0 0 0 3.932,2.906 0.38,0.376 0 0 0 3.632,2.768 Z m 1.393,0.25 a 0.504,0.504 0 0 0 -0.507,0.5 c 0,0.277 0.227,0.501 0.507,0.501 0.28,0 0.506,-0.224 0.506,-0.5 0,-0.277 -0.227,-0.501 -0.506,-0.501 z m 2.533,0 a 0.504,0.504 0 0 0 -0.507,0.5 c 0,0.277 0.227,0.501 0.507,0.501 0.28,0 0.506,-0.224 0.506,-0.5 0,-0.277 -0.226,-0.501 -0.506,-0.501 z"
     id="path2"
     inkscape:connector-curvature="0"
     style="fill:#bde6fb;fill-opacity:1" />
</svg>
