<?xml version="1.0" encoding="UTF-8" standalone="no"?>
<svg
   width="47.546455"
   height="47.546455"
   viewBox="0 0 12.58 12.58"
   version="1.1"
   id="svg4"
   sodipodi:docname="frostwire.svg"
   inkscape:version="0.92.4 (5da689c313, 2019-01-14)"
   xmlns:inkscape="http://www.inkscape.org/namespaces/inkscape"
   xmlns:sodipodi="http://sodipodi.sourceforge.net/DTD/sodipodi-0.dtd"
   xmlns="http://www.w3.org/2000/svg"
   xmlns:svg="http://www.w3.org/2000/svg"
   xmlns:rdf="http://www.w3.org/1999/02/22-rdf-syntax-ns#"
   xmlns:cc="http://creativecommons.org/ns#"
   xmlns:dc="http://purl.org/dc/elements/1.1/">
  <metadata
     id="metadata10">
    <rdf:RDF>
      <cc:Work
         rdf:about="">
        <dc:format>image/svg+xml</dc:format>
        <dc:type
           rdf:resource="http://purl.org/dc/dcmitype/StillImage" />
        <dc:title />
      </cc:Work>
    </rdf:RDF>
  </metadata>
  <defs
     id="defs8" />
  <sodipodi:namedview
     pagecolor="#ffffff"
     bordercolor="#666666"
     borderopacity="1"
     objecttolerance="10"
     gridtolerance="10"
     guidetolerance="10"
     inkscape:pageopacity="0"
     inkscape:pageshadow="2"
     inkscape:window-width="1112"
     inkscape:window-height="480"
     id="namedview6"
     showgrid="false"
     inkscape:zoom="4.9166667"
     inkscape:cx="2.1355932"
     inkscape:cy="24"
     inkscape:window-x="0"
     inkscape:window-y="25"
     inkscape:window-maximized="0"
     inkscape:current-layer="svg4"
     inkscape:showpageshadow="0"
     inkscape:pagecheckerboard="0"
     inkscape:deskcolor="#d1d1d1" />
  <path
     d="m 6.29,0 a 6.29,6.29 0 0 0 0,12.58 A 6.29,6.29 0 0 0 6.29,0 Z M 6.27,0.93 a 5.417,5.417 0 0 1 5.16,3.81 C 10.647,4.976 9.982,5.343 9.242,5.825 A 5.867,5.867 0 0 1 8.638,5.252 C 8.574,5.374 8.419,5.709 8.363,5.8 8.57,6.008 8.656,6.133 8.821,6.256 8.623,6.403 8.625,6.449 8.152,6.88 8.251,7.073 8.305,7.257 8.404,7.445 8.633,7.191 8.802,6.987 9.295,6.649 9.929,6.993 10.481,7.352 11.508,7.673 A 5.4,5.4 0 0 1 6.28,11.75 5.4,5.4 0 0 1 1.08,7.838 C 1.903,7.602 2.599,7.221 3.366,6.721 3.613,6.921 3.764,7.095 3.962,7.303 4.026,7.181 4.185,6.836 4.242,6.746 4.035,6.538 3.952,6.421 3.787,6.298 3.985,6.152 3.983,6.105 4.456,5.674 4.356,5.482 4.303,5.297 4.205,5.109 3.975,5.363 3.798,5.567 3.305,5.904 2.675,5.562 2.093,5.214 1.07,4.896 A 5.4,5.4 0 0 1 6.27,0.93 Z M 3.84,2.51 C 3.688,2.526 3.567,2.691 3.666,2.883 4.1,3.79 4.358,4.435 4.809,5.431 4.889,5.241 4.939,5.109 5.059,4.825 4.595,3.877 4.529,3.477 4.099,2.669 4.03,2.549 3.931,2.501 3.839,2.51 Z M 8.82,2.543 C 8.726,2.539 8.623,2.599 8.561,2.748 7.993,4.063 6.95,6.723 6.482,7.792 6.217,8.35 6.692,8.572 6.872,8.265 7.472,6.977 8.377,4.51 9.036,2.937 9.118,2.728 8.979,2.55 8.821,2.543 Z m -2.877,1.7 C 5.849,4.239 5.754,4.299 5.693,4.448 5.123,5.763 4.07,8.431 3.604,9.5 3.338,10.057 3.809,10.219 4.014,9.86 4.614,8.572 5.503,6.21 6.161,4.636 6.243,4.427 6.101,4.25 5.942,4.243 Z M 6.896,4.494 C 6.801,4.49 6.706,4.541 6.645,4.69 6.077,6.005 5.875,6.652 5.409,7.721 5.143,8.279 5.593,8.471 5.773,8.061 6.374,6.773 6.456,6.461 7.114,4.887 7.196,4.678 7.054,4.501 6.896,4.494 Z m 4.711,0.978 A 5.417,5.417 0 0 1 11.68,6.34 5.4,5.4 0 0 1 11.634,7.014 C 11.078,6.834 10.331,6.591 9.85,6.244 10.228,5.968 10.736,5.696 11.607,5.472 Z M 0.938,5.518 C 1.499,5.703 2.266,5.961 2.75,6.31 2.362,6.592 1.84,6.865 0.927,7.09 A 5.4,5.4 0 0 1 0.87,6.35 5.4,5.4 0 0 1 0.938,5.518 Z M 7.78,6.997 C 7.7,7.187 7.642,7.312 7.521,7.596 7.986,8.544 8.06,8.952 8.489,9.759 8.673,10.081 9.081,9.853 8.923,9.546 8.489,8.639 8.231,7.993 7.78,6.996 Z"
     id="path2"
     inkscape:connector-curvature="0"
     style="fill:#bde6fb;fill-opacity:1" />
</svg>
