<?xml version="1.0" encoding="UTF-8" standalone="no"?>
<svg
   width="48"
   height="48"
   viewBox="0 0 12.7 12.7"
   version="1.1"
   id="svg4"
   sodipodi:docname="fwupd.svg"
   inkscape:version="0.92.5 (2060ec1f9f, 2020-04-08)"
   xmlns:inkscape="http://www.inkscape.org/namespaces/inkscape"
   xmlns:sodipodi="http://sodipodi.sourceforge.net/DTD/sodipodi-0.dtd"
   xmlns="http://www.w3.org/2000/svg"
   xmlns:svg="http://www.w3.org/2000/svg">
  <sodipodi:namedview
     id="namedview1"
     pagecolor="#505050"
     bordercolor="#eeeeee"
     borderopacity="1"
     inkscape:showpageshadow="0"
     inkscape:pageopacity="0"
     inkscape:pagecheckerboard="0"
     inkscape:deskcolor="#d1d1d1" />
  <defs
     id="defs8">
    <style
       id="current-color-scheme"
       type="text/css">&#10;      .ColorScheme-Highlight {&#10;        color:#1e3f5a;&#10;      }&#10;  </style>
  </defs>
  <path
     class="ColorScheme-Highlight"
     style="fill:#bde6fb;fill-opacity:1;stroke-width:0.264583"
     d="M 6.3499999,0 A 6.3499999,6.3499999 0 0 0 0,6.3499999 6.3499999,6.3499999 0 0 0 6.3499999,12.7 6.3499999,6.3499999 0 0 0 12.7,6.3499999 6.3499999,6.3499999 0 0 0 6.3499999,0 Z m 0,0.79374999 A 5.5562499,5.5562499 0 0 1 11.90625,6.3499999 5.5562499,5.5562499 0 0 1 6.3499999,11.90625 5.5562499,5.5562499 0 0 1 0.79374999,6.3499999 5.5562499,5.5562499 0 0 1 6.3499999,0.79374999 Z M 2.9104166,2.9104166 V 3.96875 H 1.8520833 V 4.4979166 H 2.9104166 V 5.0270833 H 1.8520833 V 5.5562499 H 2.9104166 V 6.0854166 H 1.8520833 V 6.6145833 H 2.9104166 V 7.1437499 H 1.8520833 V 7.6729166 H 2.9104166 V 8.2020832 H 1.8520833 V 8.7312499 H 2.9104166 V 9.7895832 H 3.4395833 V 8.7312499 H 3.96875 V 9.7895832 H 4.4979166 V 8.7312499 H 5.0270833 V 9.7895832 H 5.5562499 V 8.7312499 H 6.0854166 V 9.7895832 H 6.6145833 V 8.7312499 H 7.1437499 V 9.7895832 H 7.6729166 V 8.7312499 H 8.2020832 V 9.7895832 H 8.7312499 V 8.7312499 H 9.2604166 V 9.7895832 H 9.7895832 V 8.7312499 H 10.847917 V 8.2020832 H 9.7895832 V 7.6729166 H 10.847917 V 7.1437499 H 9.7895832 V 6.6145833 H 10.847917 V 6.0854166 H 9.7895832 V 5.5562499 H 10.847917 V 5.0270833 H 9.7895832 V 4.4979166 H 10.847917 V 3.96875 H 9.7895832 V 2.9104166 H 9.2604166 V 3.96875 H 8.7312499 V 2.9104166 H 8.2020832 V 3.96875 H 7.6729166 V 2.9104166 H 7.1437499 V 3.96875 H 6.6145833 V 2.9104166 H 6.0854166 V 3.96875 H 5.5562499 V 2.9104166 H 5.0270833 V 3.96875 H 4.4979166 V 2.9104166 H 3.96875 V 3.96875 H 3.4395833 V 2.9104166 Z M 3.96875,5.2916666 H 8.4666666 V 5.8208333 H 3.96875 Z m 0,0.79375 H 8.4666666 V 6.6145833 H 3.96875 Z m 0,0.79375 H 8.4666666 V 7.4083332 H 3.96875 Z"
     id="path817" />
</svg>
