<?xml version="1.0" encoding="UTF-8" standalone="no"?>
<svg
   width="48"
   height="48"
   viewBox="0 0 12.7 12.7"
   version="1.1"
   id="svg4"
   sodipodi:docname="galternatives.svg"
   inkscape:version="0.92.5 (2060ec1f9f, 2020-04-08)"
   xmlns:inkscape="http://www.inkscape.org/namespaces/inkscape"
   xmlns:sodipodi="http://sodipodi.sourceforge.net/DTD/sodipodi-0.dtd"
   xmlns="http://www.w3.org/2000/svg"
   xmlns:svg="http://www.w3.org/2000/svg">
  <sodipodi:namedview
     id="namedview1"
     pagecolor="#505050"
     bordercolor="#eeeeee"
     borderopacity="1"
     inkscape:showpageshadow="0"
     inkscape:pageopacity="0"
     inkscape:pagecheckerboard="0"
     inkscape:deskcolor="#d1d1d1" />
  <defs
     id="defs8">
    <style
       id="current-color-scheme"
       type="text/css">&#10;      .ColorScheme-Highlight {&#10;        color:#1e3f5a;&#10;      }&#10;  </style>
  </defs>
  <path
     class="ColorScheme-Highlight"
     style="fill:#bde6fb;fill-opacity:1;stroke-width:0.264583"
     d="M 6.3499999,0 A 6.3499999,6.3499999 0 0 0 0,6.3499999 6.3499999,6.3499999 0 0 0 6.3499999,12.7 6.3499999,6.3499999 0 0 0 12.7,6.3499999 6.3499999,6.3499999 0 0 0 6.3499999,0 Z m 0,0.79374999 A 5.5562499,5.5562499 0 0 1 11.90625,6.3499999 5.5562499,5.5562499 0 0 1 6.3499999,11.90625 5.5562499,5.5562499 0 0 1 0.79374999,6.3499999 5.5562499,5.5562499 0 0 1 6.3499999,0.79374999 Z M 7.6729166,2.2598103 A 1.0583332,1.0583332 0 0 0 7.1437499,3.175 1.0583332,1.0583332 0 0 0 7.6729166,4.0901895 V 5.4678833 L 7.3613078,5.3640137 A 1.1906249,1.1906249 0 0 0 7.2558877,5.1087321 L 7.5271891,4.5661294 7.3401205,4.3790608 6.7985512,4.6498454 A 1.1906249,1.1906249 0 0 0 6.5417194,4.5444253 L 6.3499999,3.96875 H 6.0854166 L 5.8931804,4.5449421 a 1.1906249,1.1906249 0 0 0 -0.2552816,0.10542 L 5.095296,4.3790608 4.9082274,4.5661294 5.179012,5.1076986 A 1.1906249,1.1906249 0 0 0 5.073592,5.3645305 L 4.7624999,5.4678833 V 3.7041666 h 0.2645834 c 0,0.1465792 0.1180041,0.2645834 0.2645833,0.2645834 h 0.2645833 c 0.1465792,0 0.2645834,-0.1180042 0.2645834,-0.2645834 V 2.6458333 C 5.8208333,2.4992541 5.7028291,2.38125 5.5562499,2.38125 H 5.2916666 c -0.1465792,0 -0.2645833,0.1180041 -0.2645833,0.2645833 H 3.96875 c -0.1465792,0 -0.2645834,0.1180042 -0.2645834,0.2645833 l -0.79375,0.5291667 h 0.79375 c 0,0.1465792 0.1180042,0.2645833 0.2645834,0.2645833 H 4.2333333 V 5.8208333 H 3.5155475 C 3.4114009,5.7344201 3.2592367,5.7365963 3.1615642,5.8342688 L 2.039152,6.956681 c -0.1036471,0.1036471 -0.1036471,0.2704904 0,0.3741373 0.1036471,0.103647 0.2704902,0.103647 0.3741374,0 L 3.175,6.569108 v 3.2204752 c 0,0.1465792 0.1180041,0.2645838 0.2645833,0.2645838 h 5.8208333 c 0.1465791,0 0.2645833,-0.1180046 0.2645833,-0.2645838 V 6.569108 L 10.28671,7.3308185 c 0.103647,0.1036471 0.270491,0.1036471 0.374138,0 0.103647,-0.1036468 0.103647,-0.2704901 0,-0.3741372 L 9.5384357,5.8342691 C 9.4407629,5.7365963 9.2885989,5.7344201 9.1844523,5.8208333 H 8.7312499 V 4.0901895 A 1.0583332,1.0583332 0 0 0 9.2604166,3.175 1.0583332,1.0583332 0 0 0 8.7312499,2.2598103 V 3.175 c 0,0.07329 -0.029691,0.1392451 -0.077515,0.1870686 -0.047823,0.047823 -0.1137791,0.077515 -0.1870686,0.077515 H 7.9374999 c -0.07329,0 -0.1392452,-0.029691 -0.1870686,-0.077515 C 7.7026078,3.3142451 7.6729166,3.2482895 7.6729166,3.175 Z M 6.2177083,5.0270833 A 0.6614583,0.6614583 0 0 1 6.8791666,5.6885416 0.6614583,0.6614583 0 0 1 6.8657308,5.8208333 H 5.5707195 A 0.6614583,0.6614583 0 0 1 5.5562499,5.6885416 0.6614583,0.6614583 0 0 1 6.2177083,5.0270833 Z"
     id="path817" />
</svg>
