<?xml version="1.0" encoding="UTF-8" standalone="no"?>
<svg
   width="48"
   height="48"
   viewBox="0 0 12.7 12.7"
   version="1.1"
   id="svg4"
   sodipodi:docname="gbrainy.svg"
   inkscape:version="0.92.5 (2060ec1f9f, 2020-04-08)"
   xmlns:inkscape="http://www.inkscape.org/namespaces/inkscape"
   xmlns:sodipodi="http://sodipodi.sourceforge.net/DTD/sodipodi-0.dtd"
   xmlns="http://www.w3.org/2000/svg"
   xmlns:svg="http://www.w3.org/2000/svg">
  <sodipodi:namedview
     id="namedview1"
     pagecolor="#505050"
     bordercolor="#eeeeee"
     borderopacity="1"
     inkscape:showpageshadow="0"
     inkscape:pageopacity="0"
     inkscape:pagecheckerboard="0"
     inkscape:deskcolor="#d1d1d1" />
  <defs
     id="defs8">
    <style
       id="current-color-scheme"
       type="text/css">&#10;      .ColorScheme-Highlight {&#10;        color:#1e3f5a;&#10;      }&#10;  </style>
  </defs>
  <path
     class="ColorScheme-Highlight"
     style="fill:#bde6fb;fill-opacity:1;stroke-width:0.264583"
     d="M 6.3499999,0 A 6.3499999,6.3499999 0 0 0 0,6.3499999 6.3499999,6.3499999 0 0 0 6.3499999,12.7 6.3499999,6.3499999 0 0 0 12.7,6.3499999 6.3499999,6.3499999 0 0 0 6.3499999,0 Z m 0,0.79374999 A 5.5562499,5.5562499 0 0 1 11.90625,6.3499999 5.5562499,5.5562499 0 0 1 6.3499999,11.90625 5.5562499,5.5562499 0 0 1 0.79374999,6.3499999 5.5562499,5.5562499 0 0 1 6.3499999,0.79374999 Z M 6.0316731,3.310909 C 5.843883,3.3086865 5.6393913,3.3263263 5.4048379,3.3817057 A 1.898329,1.898329 0 0 0 4.9692057,3.5512044 c -0.5599245,0 -0.7771011,0.2445747 -0.8578289,0.403076 C 3.918418,3.9365586 3.7551267,3.976434 3.6266519,4.073653 A 0.67387848,0.67387848 0 0 0 3.3899739,4.4524414 0.83533365,0.83533365 0 0 0 2.9378052,4.8632689 C 2.8098223,5.1308021 2.8583652,5.41803 2.89233,5.5479817 2.8076644,5.6848247 2.7803102,5.8171455 2.808614,5.9402059 a 0.43071121,0.43071121 0 0 0 0.1343588,0.2247923 0.70612028,0.70612028 0 0 0 0.1715656,0.4991944 c 0.2985448,0.3460457 0.8928505,0.395619 1.0097577,0.4015259 0.030765,0.3864096 0.3234571,0.766985 0.9709999,0.8624797 l 0.00517,5.292e-4 c 0.00615,0 0.077887,0.00723 0.199471,0.00723 0.1100159,0 0.259557,-0.00546 0.4387329,-0.026872 0.3814871,0.3605668 0.5002125,0.8497443 0.5880777,1.2112956 0.031257,0.1309362 0.059127,0.2453992 0.094568,0.3322793 a 0.13856595,0.13856595 0 0 0 0.1508953,0.084233 L 7.1980096,9.4325105 A 0.13856595,0.13856595 0 0 0 7.3080805,9.257844 1.4506354,1.4506354 0 0 1 7.2527866,8.88319 c 0.04061,0.01329 0.08265,0.025048 0.1235067,0.03514 0.3322629,0.083681 0.6703181,0.066264 0.9518798,-0.050643 0.296083,-0.1223221 0.4955902,-0.3383854 0.5632733,-0.6061646 0.00911,-0.037657 0.015991,-0.075293 0.020672,-0.113688 0.2362758,-0.032242 0.5199009,-0.1730682 0.738456,-0.5922119 0,-0.0032 0.0014,-0.00554 0.0031,-0.00775 0.00615,-0.014033 0.1457211,-0.3336659 0.1870694,-0.724506 C 9.8916907,6.3409707 9.7694304,5.9619877 9.4841765,5.7143903 A 0.62219313,0.62219313 0 0 0 9.2821216,5.0332952 C 9.2513567,4.7871745 9.0194415,4.6308226 8.8294362,4.5547713 A 0.82007415,0.82007415 0 0 0 8.5684703,3.9945987 C 8.3144737,3.7639834 7.9506227,3.733116 7.7731698,3.733116 h -0.00568 C 7.594211,3.43775 7.1981506,3.4239112 6.9675353,3.4669825 A 3.1414847,3.1414847 0 0 0 6.5608419,3.3569116 4.2522272,4.2522272 0 0 0 6.0316752,3.3109196 Z m -0.025839,0.2635499 c 0.1722845,-0.00542 0.3405934,0.010673 0.5022948,0.053743 0.1329049,0.027073 0.2689651,0.064391 0.403593,0.1121378 a 0.13856595,0.13856595 0 0 0 0.078031,0.00465 c 0.00394,-0.00172 0.4608134,-0.1055669 0.5617228,0.1767334 a 0.13856595,0.13856595 0 0 0 0.1431435,0.090951 c 0.00443,0 0.4397484,-0.038599 0.6883302,0.1875854 a 0.52300647,0.52300647 0 0 1 0.1632974,0.311092 C 8.3591955,4.5204599 8.0684385,4.5854691 7.9168283,4.8854904 A 0.13856595,0.13856595 0 0 0 8.1638417,5.0100306 C 8.2915783,4.7577568 8.6085443,4.7835145 8.6661365,4.7904058 c 0.050701,0.016737 0.3536659,0.1242132 0.342098,0.3095419 a 0.13856595,0.13856595 0 0 0 0.073897,0.1328084 c 7.409e-4,0 0.049898,0.027427 0.091984,0.085266 0.056362,0.077036 0.074713,0.1699969 0.054777,0.2785361 l -0.00827,0.012401 C 9.0052709,5.6323404 8.6820408,5.7678565 8.6382314,6.1670646 a 0.13856595,0.13856595 0 0 0 0.2754352,0.029972 C 8.941232,5.9440248 9.1591137,5.8944856 9.2521473,5.8843944 9.8583426,6.3288883 9.430042,7.3659216 9.4014921,7.4326204 9.2513583,7.719597 9.063938,7.8657899 8.8284007,7.878588 8.7269983,7.7941688 8.4619469,7.6064199 7.9989938,7.4956656 a 0.13874903,0.13874903 0 0 0 -0.065112,0.2697509 c 0.3955158,0.09451 0.6221946,0.24961 0.7053833,0.3172933 0,0.037656 -0.00667,0.075442 -0.01602,0.1116211 C 8.5255342,8.5849247 7.9960615,8.7902088 7.444505,8.6511507 A 1.4191319,1.4191319 0 0 1 7.1814718,8.5576163 0.13856595,0.13856595 0 0 0 6.9840678,8.6692374 1.8985751,1.8985751 0 0 0 7.007322,9.1839348 L 6.6440367,9.2449128 A 5.3344201,5.3344201 0 0 1 6.5954629,9.0557777 C 6.5147353,8.7195773 6.3976511,8.2342158 6.0523437,7.836731 6.3400587,7.7665865 6.6156458,7.7211517 6.8755492,7.6987547 A 0.13856595,0.13856595 0 1 0 6.8528109,7.4233195 5.8744087,5.8744087 0 0 0 5.7572706,7.6269246 3.0543579,3.0543579 0 0 1 5.1314688,7.6527638 C 4.5314264,7.5629298 4.3644854,7.2009637 4.4038646,6.9179249 A 0.13856595,0.13856595 0 0 0 4.2338492,6.7649626 L 4.133597,6.7887328 C 3.9581137,6.7808561 3.5217573,6.7124881 3.3248608,6.4838418 A 0.44990863,0.44990863 0 0 1 3.2246093,6.1169393 0.13856595,0.13856595 0 0 0 3.1527792,5.9774129 c -7.408e-4,0 -0.060631,-0.036434 -0.074414,-0.098702 -0.017722,-0.074821 0.03245,-0.163779 0.076998,-0.2253091 A 0.13856595,0.13856595 0 0 0 3.1739657,5.5242105 C 3.1729867,5.5212577 3.0707152,5.2267688 3.1868853,4.9821247 3.2516148,4.8467584 3.3764574,4.7470321 3.5563717,4.685502 a 0.13684311,0.13684311 0 0 0 0.092501,-0.1193726 c 7.408e-4,-0.00148 0.018508,-0.1776027 0.1462442,-0.2728516 0.088603,-0.066206 0.2150927,-0.082589 0.3782716,-0.049609 A 0.13856595,0.13856595 0 0 0 4.3377193,4.1294637 c 0,-0.00295 0.061303,-0.2911827 0.6020306,-0.3012736 0.081712,0.1117388 0.2620473,0.4058607 0.1281575,0.6692098 a 0.13856595,0.13856595 0 0 0 0.2459797,0.1255736 0.71301165,0.71301165 0 0 0 0.078031,-0.2909382 c 0.074575,-0.031503 0.1909408,-0.066322 0.2842205,-0.038758 0.059807,0.017722 0.1061521,0.061729 0.1415933,0.1338421 A 0.13869318,0.13869318 0 1 0 6.0668129,4.3056804 0.507747,0.507747 0 0 0 5.7541704,4.0281777 0.6684638,0.6684638 0 0 0 5.356262,4.0488496 1.2342953,1.2342953 0 0 0 5.2141516,3.7398248 c 0.064484,-0.02855 0.1516883,-0.061613 0.260966,-0.089917 a 2.7737802,2.7737802 0 0 1 0.5307171,-0.075448 z m 0.686263,0.3958412 a 0.73688537,0.73688537 0 0 0 -0.1736328,0.021704 0.13856595,0.13856595 0 0 0 0.073897,0.2661335 0.43686423,0.43686423 0 0 1 0.298173,0.03514 c 0.078513,0.046271 0.1327049,0.1305726 0.1617472,0.2516642 A 0.13856595,0.13856595 0 0 0 7.2176462,4.6482944 0.13856595,0.13856595 0 0 0 7.3204823,4.4818964 C 7.2744578,4.2849998 7.1770684,4.1422248 7.031611,4.0560826 A 0.65221984,0.65221984 0 0 0 6.6920969,3.9713333 Z m -2.76779,0.7844483 A 0.13856595,0.13856595 0 0 0 3.7997669,4.928898 c 0.032488,0.1176456 0.030617,0.2152057 -0.0031,0.2976562 l -0.00259,0.00517 A 0.30838923,0.30838923 0 0 1 3.7274139,5.3293922 0.4376026,0.4376026 0 0 1 3.5553313,5.4358457 0.13856595,0.13856595 0 0 0 3.6281953,5.703013 0.71916466,0.71916466 0 0 0 3.9444549,5.503025 c 0.092295,0.068421 0.2017638,0.1038696 0.320394,0.1038696 a 0.62908449,0.62908449 0 0 0 0.1007795,-0.00827 C 4.5226501,5.5725393 4.639901,5.4987673 4.652946,5.4911376 A 0.13856595,0.13856595 0 1 0 4.5036009,5.2585937 c -7.408e-4,0 -0.082198,0.050418 -0.181384,0.066663 A 0.26162631,0.26162631 0 0 1 4.0788208,5.2539428 0.76371253,0.76371253 0 0 0 4.0669358,4.8575846 0.13856595,0.13856595 0 0 0 3.9382615,4.7547484 a 0.13856595,0.13856595 0 0 0 -0.013954,0 z m 2.2298382,0.390674 A 0.13856595,0.13856595 0 0 0 6.0161701,5.3082031 c 9.79e-4,0.00763 0.036569,0.1979377 0.168982,0.3849893 0.031503,0.044301 0.070026,0.091878 0.1167886,0.1364258 -0.024612,0.1422577 -0.2421149,0.2194526 -0.2475301,0.2211753 a 0.13856595,0.13856595 0 0 0 0.088884,0.2614827 c 0.1277366,-0.042333 0.3146708,-0.1502008 0.396875,-0.3229777 0.107801,0.049224 0.2369219,0.081649 0.3922241,0.081649 h 0.030489 a 0.13876301,0.13876301 0 0 0 -0.00362,-0.2775024 h -0.0031 C 6.4006721,5.8072268 6.2923694,5.2816556 6.2869547,5.2570435 A 0.13856595,0.13856595 0 0 0 6.1546631,5.1454224 Z m 1.1715046,0.09095 a 0.13856595,0.13856595 0 0 0 -0.062528,0.2578653 c 0.00148,7.408e-4 0.1404459,0.08492 0.2315105,0.2387452 0.1151845,0.193697 0.1045329,0.412927 -0.032556,0.6521564 a 0.13857978,0.13857978 0 1 0 0.2402946,0.13746 C 7.9423389,6.1027174 7.8477022,5.7778776 7.7256253,5.5795044 A 1.0337069,1.0337069 0 0 0 7.4036811,5.255493 0.13856595,0.13856595 0 0 0 7.3390851,5.236372 a 0.13856595,0.13856595 0 0 0 -5.291e-4,0 0.13856595,0.13856595 0 0 0 -0.01292,0 z M 4.9547351,5.836853 4.9407836,5.8373822 A 0.13856595,0.13856595 0 0 0 4.821411,5.9918946 C 4.8445462,6.1818998 4.6958771,6.3190942 4.6085042,6.3830853 a 0.86142244,0.86142244 0 0 0 -0.4816244,-0.064596 0.13856595,0.13856595 0 0 0 0.047542,0.2718181 c 0.00246,0 0.2358911,-0.038384 0.3756877,0.083199 0.079989,0.06916 0.118192,0.1846545 0.1152382,0.3436482 a 0.13856595,0.13856595 0 0 0 0.276986,0.00672 C 4.9462711,6.8375574 4.9061991,6.6846997 4.8239949,6.567053 4.9593613,6.453838 5.1322144,6.2496628 5.095296,5.9572712 A 0.13856595,0.13856595 0 0 0 4.9557699,5.8368652 Z M 8.2666778,6.4481852 A 0.13856595,0.13856595 0 0 0 8.1431711,6.6502401 0.74992975,0.74992975 0 0 0 8.5074899,6.9752847 c -0.043071,0.1693312 -0.070717,0.4682754 0.1798339,0.677478 A 0.13782759,0.13782759 0 0 0 8.8821439,7.6357103 0.13856595,0.13856595 0 0 0 8.8645729,7.4398568 C 8.7119782,7.3121199 8.7552352,7.1028689 8.785508,7.0083584 8.910045,6.9930999 9.0387,6.9395958 9.1679137,6.8455777 A 0.13856595,0.13856595 0 0 0 9.0077167,6.6202684 C 8.8730888,6.7172397 8.7502142,6.7528595 8.6433979,6.7277553 8.4816965,6.6908372 8.3890762,6.5247416 8.3875995,6.5210496 A 0.13856595,0.13856595 0 0 0 8.2666768,6.448186 Z M 6.6409371,6.5949461 A 0.13856595,0.13856595 0 0 0 6.5313832,6.6641926 0.49987115,0.49987115 0 0 1 6.1081533,6.9334268 0.71005821,0.71005821 0 0 1 5.8373687,6.8926024 0.13857383,0.13857383 0 0 0 5.7319486,7.1489175 c 0.016245,0.0064 0.1570151,0.060978 0.3420981,0.060978 h 0.035657 A 0.76912718,0.76912718 0 0 0 6.7696116,6.8026856 0.13856595,0.13856595 0 0 0 6.6548899,6.5949461 a 0.13856595,0.13856595 0 0 0 -5.292e-4,0 0.13856595,0.13856595 0 0 0 -0.013435,0 z"
     id="path817" />
</svg>
