<?xml version="1.0" encoding="UTF-8" standalone="no"?>
<svg
   width="47.546455"
   height="47.546455"
   viewBox="0 0 12.58 12.58"
   version="1.1"
   id="svg4"
   sodipodi:docname="gcompris.svg"
   inkscape:version="0.92.4 (5da689c313, 2019-01-14)"
   xmlns:inkscape="http://www.inkscape.org/namespaces/inkscape"
   xmlns:sodipodi="http://sodipodi.sourceforge.net/DTD/sodipodi-0.dtd"
   xmlns="http://www.w3.org/2000/svg"
   xmlns:svg="http://www.w3.org/2000/svg"
   xmlns:rdf="http://www.w3.org/1999/02/22-rdf-syntax-ns#"
   xmlns:cc="http://creativecommons.org/ns#"
   xmlns:dc="http://purl.org/dc/elements/1.1/">
  <metadata
     id="metadata10">
    <rdf:RDF>
      <cc:Work
         rdf:about="">
        <dc:format>image/svg+xml</dc:format>
        <dc:type
           rdf:resource="http://purl.org/dc/dcmitype/StillImage" />
        <dc:title />
      </cc:Work>
    </rdf:RDF>
  </metadata>
  <defs
     id="defs8" />
  <sodipodi:namedview
     pagecolor="#ffffff"
     bordercolor="#666666"
     borderopacity="1"
     objecttolerance="10"
     gridtolerance="10"
     guidetolerance="10"
     inkscape:pageopacity="0"
     inkscape:pageshadow="2"
     inkscape:window-width="1112"
     inkscape:window-height="480"
     id="namedview6"
     showgrid="false"
     inkscape:zoom="4.9166667"
     inkscape:cx="2.1355932"
     inkscape:cy="24"
     inkscape:window-x="0"
     inkscape:window-y="25"
     inkscape:window-maximized="0"
     inkscape:current-layer="svg4"
     inkscape:showpageshadow="0"
     inkscape:pagecheckerboard="0"
     inkscape:deskcolor="#d1d1d1" />
  <path
     d="m 6.29,0 a 6.29,6.29 0 0 0 0,12.58 A 6.29,6.29 0 0 0 6.29,0 Z M 6.27,0.93 a 5.417,5.417 0 0 1 5.41,5.41 5.4,5.4 0 0 1 -5.4,5.41 5.4,5.4 0 0 1 -5.41,-5.4 5.4,5.4 0 0 1 5.4,-5.42 z M 6.296,2.108 A 0.423,0.212 0 0 0 5.872,2.32 H 4.814 c -0.118,0 -0.212,0.047 -0.212,0.105 0,0.06 0.094,0.106 0.212,0.106 H 7.778 C 7.895,2.531 7.989,2.484 7.989,2.425 7.989,2.367 7.895,2.32 7.778,2.32 H 6.719 A 0.423,0.212 0 0 0 6.296,2.108 Z m 0,0.51 C 6.272,2.618 6.25,2.623 6.228,2.625 6.2,2.627 6.172,2.628 6.145,2.633 6.138,2.635 6.131,2.638 6.123,2.639 5.41,2.793 4.986,3.838 5.03,4.833 c 0,0.03 -0.005,0.06 -0.005,0.089 L 2.147,6.796 C 2.093,6.824 2.064,6.871 2.061,6.937 v 0.95 c 0,0.053 0.024,0.097 0.07,0.132 0.05,0.032 0.103,0.041 0.16,0.026 L 5.025,7.197 5.449,9.182 4.363,9.664 A 0.16,0.16 0 0 0 4.308,9.783 L 4.39,10.453 6.296,10.24 8.21,10.452 8.292,9.782 A 0.16,0.16 0 0 0 8.237,9.664 L 7.142,9.182 7.575,7.197 10.309,8.045 c 0.057,0.015 0.11,0.006 0.16,-0.026 a 0.158,0.158 0 0 0 0.07,-0.133 V 6.937 C 10.537,6.871 10.508,6.823 10.453,6.797 L 7.575,4.921 C 7.575,4.892 7.571,4.861 7.57,4.832 7.613,3.836 7.19,2.792 6.476,2.638 L 6.455,2.632 C 6.428,2.627 6.4,2.626 6.372,2.624 6.349,2.622 6.328,2.618 6.304,2.618 Z M 6.25,4.467 c 0.506,0 0.801,0.287 0.801,0.287 L 6.564,5.203 C 6.23,5.059 5.944,5.316 5.981,5.679 6.019,6.042 6.277,6.119 6.563,6.08 6.849,6.043 6.659,5.804 6.659,5.804 L 6.544,5.832 6.363,5.642 7.328,5.337 C 7.46,6.291 7.098,6.701 6.314,6.7 5.532,6.7 5.236,6.107 5.236,5.592 5.237,5.076 5.744,4.467 6.25,4.467 Z"
     id="path2"
     inkscape:connector-curvature="0"
     style="fill:#bde6fb;fill-opacity:1" />
</svg>
