<?xml version="1.0" encoding="UTF-8" standalone="no"?>
<svg
   width="48"
   height="48"
   viewBox="0 0 12.7 12.7"
   version="1.1"
   id="svg4"
   sodipodi:docname="gdm-setup.svg"
   inkscape:version="0.92.5 (2060ec1f9f, 2020-04-08)"
   xmlns:inkscape="http://www.inkscape.org/namespaces/inkscape"
   xmlns:sodipodi="http://sodipodi.sourceforge.net/DTD/sodipodi-0.dtd"
   xmlns="http://www.w3.org/2000/svg"
   xmlns:svg="http://www.w3.org/2000/svg">
  <sodipodi:namedview
     id="namedview1"
     pagecolor="#505050"
     bordercolor="#eeeeee"
     borderopacity="1"
     inkscape:showpageshadow="0"
     inkscape:pageopacity="0"
     inkscape:pagecheckerboard="0"
     inkscape:deskcolor="#d1d1d1" />
  <defs
     id="defs8">
    <style
       id="current-color-scheme"
       type="text/css">&#10;      .ColorScheme-Highlight {&#10;        color:#1e3f5a;&#10;      }&#10;  </style>
  </defs>
  <path
     class="ColorScheme-Highlight"
     style="fill:#bde6fb;fill-opacity:1;stroke-width:0.264583"
     d="M 6.3499999,0 A 6.3499999,6.3499999 0 0 0 0,6.3499999 6.3499999,6.3499999 0 0 0 6.3499999,12.7 6.3499999,6.3499999 0 0 0 12.7,6.3499999 6.3499999,6.3499999 0 0 0 6.3499999,0 Z m 0,0.79374999 A 5.5562499,5.5562499 0 0 1 11.90625,6.3499999 5.5562499,5.5562499 0 0 1 6.8791666,11.875761 V 9.5249999 H 10.31875 c 0.146579,0 0.264583,-0.1180042 0.264583,-0.2645833 V 3.4395833 C 10.583333,3.2930041 10.465329,3.175 10.31875,3.175 h -7.9375 c -0.1465792,0 -0.2645834,0.1180041 -0.2645834,0.2645833 v 5.8208333 c 0,0.1465791 0.1180042,0.2645833 0.2645834,0.2645833 H 5.8208333 V 11.879378 A 5.5562499,5.5562499 0 0 1 0.79374999,6.3499999 5.5562499,5.5562499 0 0 1 6.3499999,0.79374999 Z M 2.6458333,3.7041666 H 10.054167 V 8.9958332 H 6.8791666 V 8.5881061 A 1.0583332,1.0583332 0 0 0 7.4083332,7.6729166 1.0583332,1.0583332 0 0 0 6.8791666,6.7577271 v 0.9151895 c 0,0.07329 -0.029691,0.1392451 -0.077515,0.1870686 -0.047824,0.047823 -0.1137791,0.077515 -0.1870686,0.077515 H 6.0854166 c -0.07329,0 -0.1392452,-0.029691 -0.1870686,-0.077515 C 5.850524,7.8121622 5.820833,7.7462062 5.820833,7.6729166 V 6.7577271 A 1.0583332,1.0583332 0 0 0 5.2916666,7.6729166 1.0583332,1.0583332 0 0 0 5.8208333,8.5881061 v 0.4077271 h -3.175 z m 1.5875,0.5291667 V 4.4979166 H 8.2020832 V 4.2333333 Z m 0.6614583,0.5291666 a 0.396875,0.396875 0 0 0 -0.396875,0.396875 0.396875,0.396875 0 0 0 0.396875,0.396875 0.396875,0.396875 0 0 0 0.396875,-0.396875 0.396875,0.396875 0 0 0 -0.396875,-0.396875 z m 1.3229167,0 a 0.396875,0.396875 0 0 0 -0.396875,0.396875 0.396875,0.396875 0 0 0 0.396875,0.396875 0.396875,0.396875 0 0 0 0.396875,-0.396875 0.396875,0.396875 0 0 0 -0.396875,-0.396875 z m 1.3229166,0 a 0.396875,0.396875 0 0 0 -0.396875,0.396875 0.396875,0.396875 0 0 0 0.396875,0.396875 0.396875,0.396875 0 0 0 0.396875,-0.396875 0.396875,0.396875 0 0 0 -0.396875,-0.396875 z M 4.2333333,5.8208333 V 6.0854166 H 8.2020832 V 5.8208333 Z"
     id="rect883" />
</svg>
