<?xml version="1.0" encoding="UTF-8" standalone="no"?>
<svg
   width="47.546455"
   height="47.542679"
   viewBox="0 0 12.58 12.579"
   version="1.1"
   id="svg4"
   sodipodi:docname="geany.svg"
   inkscape:version="0.92.4 (5da689c313, 2019-01-14)"
   xmlns:inkscape="http://www.inkscape.org/namespaces/inkscape"
   xmlns:sodipodi="http://sodipodi.sourceforge.net/DTD/sodipodi-0.dtd"
   xmlns="http://www.w3.org/2000/svg"
   xmlns:svg="http://www.w3.org/2000/svg"
   xmlns:rdf="http://www.w3.org/1999/02/22-rdf-syntax-ns#"
   xmlns:cc="http://creativecommons.org/ns#"
   xmlns:dc="http://purl.org/dc/elements/1.1/">
  <metadata
     id="metadata10">
    <rdf:RDF>
      <cc:Work
         rdf:about="">
        <dc:format>image/svg+xml</dc:format>
        <dc:type
           rdf:resource="http://purl.org/dc/dcmitype/StillImage" />
        <dc:title />
      </cc:Work>
    </rdf:RDF>
  </metadata>
  <defs
     id="defs8" />
  <sodipodi:namedview
     pagecolor="#ffffff"
     bordercolor="#666666"
     borderopacity="1"
     objecttolerance="10"
     gridtolerance="10"
     guidetolerance="10"
     inkscape:pageopacity="0"
     inkscape:pageshadow="2"
     inkscape:window-width="1087"
     inkscape:window-height="480"
     id="namedview6"
     showgrid="false"
     inkscape:zoom="4.9166667"
     inkscape:cx="2.1355932"
     inkscape:cy="24"
     inkscape:window-x="0"
     inkscape:window-y="25"
     inkscape:window-maximized="0"
     inkscape:current-layer="svg4"
     inkscape:showpageshadow="0"
     inkscape:pagecheckerboard="0"
     inkscape:deskcolor="#d1d1d1" />
  <path
     d="M 6.29,9.9999565e-4 A 6.29,6.29 0 0 0 0,6.291 6.29,6.29 0 0 0 6.29,12.579 6.29,6.29 0 0 0 12.58,6.29 6.29,6.29 0 0 0 6.29,0 Z M 6.272,0.937 A 5.407,5.407 0 0 1 11.679,6.344 5.407,5.407 0 0 1 6.272,11.751 5.407,5.407 0 0 1 0.866,6.344 5.407,5.407 0 0 1 6.272,0.938 Z M 3.209,2.628 c -1.128,0.794 0.415,1.511 0,2.517 0.798,-0.54 0.604,-1.452 0,-2.517 z M 6.771,5.625 A 0.414,0.414 0 0 0 6.639,5.649 C 6.524,5.695 6.376,5.9 6.376,5.9 L 5.32,6.404 H 4.792 C 3.877,6.433 3.626,5.511 2.946,5.649 3.762,6.283 2.949,7.185 3.474,7.662 4.372,8.478 5.566,9.156 6.726,9.172 h -0.35 v 0.253 l -1.32,0.503 h 3.43 L 7.166,9.425 V 9.173 h -0.31 c 0.884,-0.026 1.74,-0.45 2.422,-1.51 2.713,1.378 1.414,-3.648 0,-1.26 H 8.486 L 7.166,5.9 c 0,0 -0.15,-0.206 -0.264,-0.251 A 0.355,0.355 0 0 0 6.77,5.625 Z m 3.29,0.778 a 0.264,0.503 0 0 1 10e-4,0 0.264,0.503 0 0 1 0.019,0.002 0.264,0.503 0 0 1 0.252,0.523 V 6.931 A 0.264,0.503 0 0 1 10.056,7.409 0.264,0.503 0 0 1 9.806,6.884 0.264,0.503 0 0 1 10.062,6.403 Z"
     id="path2"
     inkscape:connector-curvature="0"
     style="fill:#bde6fb;fill-opacity:1" />
</svg>
