<?xml version="1.0" encoding="UTF-8" standalone="no"?>
<svg
   width="47.546455"
   height="47.542679"
   viewBox="0 0 12.58 12.579"
   version="1.1"
   id="svg4"
   sodipodi:docname="gimp.svg"
   inkscape:version="0.92.4 (5da689c313, 2019-01-14)"
   xmlns:inkscape="http://www.inkscape.org/namespaces/inkscape"
   xmlns:sodipodi="http://sodipodi.sourceforge.net/DTD/sodipodi-0.dtd"
   xmlns="http://www.w3.org/2000/svg"
   xmlns:svg="http://www.w3.org/2000/svg"
   xmlns:rdf="http://www.w3.org/1999/02/22-rdf-syntax-ns#"
   xmlns:cc="http://creativecommons.org/ns#"
   xmlns:dc="http://purl.org/dc/elements/1.1/">
  <metadata
     id="metadata10">
    <rdf:RDF>
      <cc:Work
         rdf:about="">
        <dc:format>image/svg+xml</dc:format>
        <dc:type
           rdf:resource="http://purl.org/dc/dcmitype/StillImage" />
        <dc:title />
      </cc:Work>
    </rdf:RDF>
  </metadata>
  <defs
     id="defs8" />
  <sodipodi:namedview
     pagecolor="#ffffff"
     bordercolor="#666666"
     borderopacity="1"
     objecttolerance="10"
     gridtolerance="10"
     guidetolerance="10"
     inkscape:pageopacity="0"
     inkscape:pageshadow="2"
     inkscape:window-width="1087"
     inkscape:window-height="480"
     id="namedview6"
     showgrid="false"
     inkscape:zoom="4.9166667"
     inkscape:cx="2.1355932"
     inkscape:cy="24"
     inkscape:window-x="0"
     inkscape:window-y="25"
     inkscape:window-maximized="0"
     inkscape:current-layer="svg4"
     inkscape:showpageshadow="0"
     inkscape:pagecheckerboard="0"
     inkscape:deskcolor="#d1d1d1" />
  <path
     d="M 6.29,9.9999565e-4 A 6.29,6.29 0 0 0 0,6.291 6.29,6.29 0 0 0 6.29,12.579 6.29,6.29 0 0 0 12.58,6.29 6.29,6.29 0 0 0 6.29,0 Z M 6.272,0.937 A 5.407,5.407 0 0 1 11.679,6.344 5.407,5.407 0 0 1 6.272,11.751 5.407,5.407 0 0 1 0.866,6.344 5.407,5.407 0 0 1 6.272,0.938 Z M 10.084,2.89 C 10.015,2.879 9.954,2.918 9.916,2.963 A 0.492,0.492 0 0 0 9.83,3.132 C 9.791,3.252 9.648,3.697 9.131,4.138 8.615,4.578 7.725,5.234 6.181,5.273 5.242,5.285 4.594,4.801 4.221,4.06 4.127,3.875 3.991,3.531 3.991,3.75 V 4.09 L 3.986,5.843 4.007,6.141 C 3.918,6.392 4.121,6.613 3.6,7.004 3.733,7.717 3.257,8.005 3.17,8.011 3.425,8.267 3.76,8.555 4.16,8.789 4.956,9.259 5.977,9.628 6.969,9.645 7.961,9.663 8.931,9.316 9.573,8.355 10.215,7.395 10.528,5.561 10.272,3.173 a 0.49,0.49 0 0 0 -0.05,-0.17 c -0.025,-0.05 -0.068,-0.1 -0.138,-0.11 z M 5.116,5.31 c 0.25,0 0.501,0.08 0.692,0.245 0.05,0.042 0.095,0.09 0.134,0.144 A 0.883,0.883 0 0 1 6.077,5.555 C 6.268,5.39 6.519,5.311 6.769,5.311 c 0.25,0 0.5,0.08 0.692,0.244 A 0.938,0.938 0 0 1 7.779,6.285 0.938,0.938 0 0 1 7.461,7.017 1.062,1.062 0 0 1 6.769,7.261 c -0.25,0 -0.501,-0.08 -0.692,-0.244 A 0.892,0.892 0 0 1 5.942,6.873 0.884,0.884 0 0 1 5.808,7.017 1.062,1.062 0 0 1 5.116,7.261 c -0.25,0 -0.5,-0.08 -0.692,-0.244 A 0.938,0.938 0 0 1 4.106,6.286 C 4.106,5.968 4.233,5.719 4.424,5.555 4.615,5.39 4.866,5.311 5.116,5.311 Z M 2.099,5.528 A 0.86,0.86 0 0 0 1.577,5.688 C 1.147,5.995 1.036,6.691 1.567,7.419 2.097,8.147 2.798,8.259 3.228,7.953 3.658,7.646 3.771,6.951 3.24,6.223 2.892,5.745 2.47,5.532 2.1,5.529 Z M 5.094,5.87 A 0.51,0.51 0 0 0 4.754,5.995 0.49,0.49 0 0 0 4.597,6.367 0.49,0.49 0 0 0 4.754,6.74 0.51,0.51 0 0 0 5.094,6.864 0.51,0.51 0 0 0 5.434,6.74 0.49,0.49 0 0 0 5.591,6.367 0.49,0.49 0 0 0 5.434,5.995 0.51,0.51 0 0 0 5.094,5.87 Z m 1.789,0 A 0.51,0.51 0 0 0 6.543,5.995 0.49,0.49 0 0 0 6.386,6.367 0.49,0.49 0 0 0 6.544,6.74 0.51,0.51 0 0 0 6.883,6.864 0.51,0.51 0 0 0 7.223,6.74 0.49,0.49 0 0 0 7.38,6.367 0.49,0.49 0 0 0 7.223,5.995 0.51,0.51 0 0 0 6.883,5.87 Z m 0.895,1.79 c 0,0 0.331,0.135 0.503,0.355 C 8.452,8.235 8.221,8.371 8.175,8.653 8.075,8.406 8.013,8.313 7.988,8.214 7.806,8.464 7.494,8.644 7.073,8.653 6.626,8.663 6.056,8.489 5.393,8.256 c 0.425,0 0.813,0.02 1.166,0 0.585,-0.036 1.1,-0.1 1.36,-0.3 C 7.809,7.814 7.778,7.66 7.778,7.66 Z"
     id="path2"
     inkscape:connector-curvature="0"
     style="fill:#bde6fb;fill-opacity:1" />
</svg>
