<?xml version="1.0" encoding="UTF-8" standalone="no"?>
<svg
   width="48"
   height="48"
   viewBox="0 0 12.7 12.7"
   version="1.1"
   id="svg4"
   sodipodi:docname="github.svg"
   inkscape:version="0.92.5 (2060ec1f9f, 2020-04-08)"
   xmlns:inkscape="http://www.inkscape.org/namespaces/inkscape"
   xmlns:sodipodi="http://sodipodi.sourceforge.net/DTD/sodipodi-0.dtd"
   xmlns="http://www.w3.org/2000/svg"
   xmlns:svg="http://www.w3.org/2000/svg">
  <sodipodi:namedview
     id="namedview1"
     pagecolor="#505050"
     bordercolor="#eeeeee"
     borderopacity="1"
     inkscape:showpageshadow="0"
     inkscape:pageopacity="0"
     inkscape:pagecheckerboard="0"
     inkscape:deskcolor="#d1d1d1" />
  <defs
     id="defs8">
    <style
       id="current-color-scheme"
       type="text/css">&#10;      .ColorScheme-Highlight {&#10;        color:#1e3f5a;&#10;      }&#10;  </style>
  </defs>
  <path
     class="ColorScheme-Highlight"
     style="fill:#bde6fb;fill-opacity:1;stroke-width:0.264583"
     d="M 6.3499999,0 A 6.3499999,6.3499999 0 0 0 0,6.3499999 6.3499999,6.3499999 0 0 0 6.3499999,12.7 6.3499999,6.3499999 0 0 0 12.7,6.3499999 6.3499999,6.3499999 0 0 0 6.3499999,0 Z m 0,0.79374999 A 5.5562499,5.5562499 0 0 1 11.90625,6.3499999 5.5562499,5.5562499 0 0 1 6.3499999,11.90625 5.5562499,5.5562499 0 0 1 0.79374999,6.3499999 5.5562499,5.5562499 0 0 1 6.3499999,0.79374999 Z M 8.9958332,2.38125 C 8.2314978,2.4514512 7.8178633,2.6523061 7.5804159,2.9192016 7.5233145,2.9151408 7.4665035,2.9104166 7.4083332,2.9104166 H 5.2916666 c -0.051183,0 -0.1010499,0.0046 -0.151412,0.00775 C 4.8959925,2.6766234 4.4887186,2.4955238 3.7734131,2.4298258 3.5474148,2.9948216 3.4680054,3.4132284 3.5315673,3.6886636 3.1465744,4.1113752 2.9104166,4.6722249 2.9104166,5.2916666 c 0,1.3192125 1.0620375,2.38125 2.38125,2.38125 H 5.5619342 C 5.2880344,7.8769349 5.0958577,8.1828147 5.043103,8.5364298 3.7345688,8.8361643 3.7385688,7.5706009 2.6458333,7.4083332 3.634981,8.0040212 3.1406301,9.2790699 5.0270833,9.2666179 V 10.054167 10.31875 H 7.6729166 V 10.054167 8.7312499 c 0,-0.4357905 -0.2116342,-0.8175805 -0.534851,-1.0583333 h 0.2702676 c 1.3192125,0 2.38125,-1.0620375 2.38125,-2.38125 0,-0.5985624 -0.2202945,-1.1426179 -0.5823934,-1.5601114 C 9.317262,3.4619776 9.2489331,3.0139992 8.9958332,2.38125 Z"
     id="path831" />
</svg>
