<?xml version="1.0" encoding="UTF-8" standalone="no"?>
<svg
   width="47.546486"
   height="47.546486"
   viewBox="0 0 12.580008 12.580008"
   version="1.1"
   id="svg4"
   sodipodi:docname="gitkraken.svg"
   inkscape:version="0.92.4 (5da689c313, 2019-01-14)"
   xmlns:inkscape="http://www.inkscape.org/namespaces/inkscape"
   xmlns:sodipodi="http://sodipodi.sourceforge.net/DTD/sodipodi-0.dtd"
   xmlns="http://www.w3.org/2000/svg"
   xmlns:svg="http://www.w3.org/2000/svg"
   xmlns:rdf="http://www.w3.org/1999/02/22-rdf-syntax-ns#"
   xmlns:cc="http://creativecommons.org/ns#"
   xmlns:dc="http://purl.org/dc/elements/1.1/">
  <metadata
     id="metadata10">
    <rdf:RDF>
      <cc:Work
         rdf:about="">
        <dc:format>image/svg+xml</dc:format>
        <dc:type
           rdf:resource="http://purl.org/dc/dcmitype/StillImage" />
        <dc:title />
      </cc:Work>
    </rdf:RDF>
  </metadata>
  <defs
     id="defs8" />
  <sodipodi:namedview
     pagecolor="#ffffff"
     bordercolor="#666666"
     borderopacity="1"
     objecttolerance="10"
     gridtolerance="10"
     guidetolerance="10"
     inkscape:pageopacity="0"
     inkscape:pageshadow="2"
     inkscape:window-width="1087"
     inkscape:window-height="480"
     id="namedview6"
     showgrid="false"
     inkscape:zoom="4.9166667"
     inkscape:cx="2.1355932"
     inkscape:cy="24"
     inkscape:window-x="0"
     inkscape:window-y="25"
     inkscape:window-maximized="0"
     inkscape:current-layer="svg4"
     inkscape:showpageshadow="0"
     inkscape:pagecheckerboard="0"
     inkscape:deskcolor="#d1d1d1" />
  <path
     d="M 6.2900079,0 A 6.29,6.29 0 0 0 7.9490244e-6,6.3 6.29,6.29 0 0 0 6.3000079,12.58 6.29,6.29 0 0 0 12.580008,6.29 6.29,6.29 0 0 0 6.2900079,0 Z m -0.01,0.94 A 5.4,5.4 0 0 1 11.680008,6.34 5.4,5.4 0 0 1 6.2800079,11.75 5.4,5.4 0 0 1 0.87000795,6.35 5.4,5.4 0 0 1 6.2700079,0.93 Z m 1.81,2.07 a 0.18,0.18 0 0 0 -0.18,0.1 l -0.01,0.09 c 0,0.07 0.03,0.13 0.09,0.16 a 3.54,3.54 0 0 1 -0.42,6.39 V 8.27 c 0.23,-0.07 0.4,-0.28 0.4,-0.54 0,-0.21 -0.11,-0.39 -0.29,-0.49 0.13,-1.27 0.72,-0.93 0.72,-1.34 V 5.66 c 0,-0.6 -1.4,-2.6 -2.07,-2.64 h -0.12 c -0.66,0.05 -2.07,2.03 -2.07,2.64 V 5.9 c 0,0.4 0.58,0.07 0.71,1.34 a 0.56,0.56 0 0 0 -0.27,0.5 c 0,0.24 0.17,0.46 0.4,0.53 v 1.48 a 3.55,3.55 0 0 1 -0.42,-6.4 0.18,0.18 0 0 0 0.07,-0.24 c -0.02,-0.06 -0.09,-0.1 -0.16,-0.1 a 0.2,0.2 0 0 0 -0.09,0.02 3.9,3.9 0 0 0 0.97,7.21 V 8.58 l 0.37,0.1 v 1.98 a 4.25,4.25 0 0 1 -3.42,-5.71 c 0.04,-0.1 0,-0.2 -0.1,-0.24 a 0.22,0.22 0 0 0 -0.06,-0.01 0.19,0.19 0 0 0 -0.18,0.12 4.61,4.61 0 0 0 4.12,6.24 V 8.72 h 0.39 v 2.34 a 4.61,4.61 0 0 0 4.1300001,-6.23 0.19,0.19 0 0 0 -0.25,-0.11 0.19,0.19 0 0 0 -0.11,0.17 l 0.01,0.06 a 4.23,4.23 0 0 1 -3.4100001,5.7 V 8.67 l 0.37,-0.1 v 1.66 a 3.9,3.9 0 0 0 0.88,-7.22 z m -2.93,4.32 c 0.1,0 0.2,0.05 0.26,0.12 0.07,0.07 0.12,0.16 0.12,0.26 -0.01,0.11 -0.05,0.2 -0.12,0.27 a 0.37,0.37 0 0 1 -0.26,0.11 c -0.1,0 -0.2,-0.04 -0.27,-0.11 a 0.35,0.35 0 0 1 -0.11,-0.27 c 0,-0.1 0.04,-0.2 0.11,-0.26 a 0.37,0.37 0 0 1 0.27,-0.12 z m 2.23,0 c 0.11,0 0.2,0.05 0.27,0.12 0.07,0.07 0.11,0.16 0.11,0.26 0,0.11 -0.04,0.2 -0.11,0.27 a 0.37,0.37 0 0 1 -0.27,0.11 c -0.1,0 -0.2,-0.04 -0.26,-0.11 a 0.37,0.37 0 0 1 -0.12,-0.27 c 0,-0.1 0.05,-0.2 0.12,-0.26 a 0.37,0.37 0 0 1 0.26,-0.12 z"
     id="path2"
     inkscape:connector-curvature="0"
     style="fill:#bde6fb;fill-opacity:1" />
</svg>
