<?xml version="1.0" encoding="UTF-8" standalone="no"?>
<svg
   width="47.546455"
   height="47.546455"
   viewBox="0 0 12.58 12.58"
   version="1.1"
   id="svg10"
   sodipodi:docname="gitlab.svg"
   inkscape:version="0.92.4 (5da689c313, 2019-01-14)"
   xmlns:inkscape="http://www.inkscape.org/namespaces/inkscape"
   xmlns:sodipodi="http://sodipodi.sourceforge.net/DTD/sodipodi-0.dtd"
   xmlns="http://www.w3.org/2000/svg"
   xmlns:svg="http://www.w3.org/2000/svg"
   xmlns:rdf="http://www.w3.org/1999/02/22-rdf-syntax-ns#"
   xmlns:cc="http://creativecommons.org/ns#"
   xmlns:dc="http://purl.org/dc/elements/1.1/">
  <metadata
     id="metadata16">
    <rdf:RDF>
      <cc:Work
         rdf:about="">
        <dc:format>image/svg+xml</dc:format>
        <dc:type
           rdf:resource="http://purl.org/dc/dcmitype/StillImage" />
        <dc:title />
      </cc:Work>
    </rdf:RDF>
  </metadata>
  <defs
     id="defs14" />
  <sodipodi:namedview
     pagecolor="#ffffff"
     bordercolor="#666666"
     borderopacity="1"
     objecttolerance="10"
     gridtolerance="10"
     guidetolerance="10"
     inkscape:pageopacity="0"
     inkscape:pageshadow="2"
     inkscape:window-width="861"
     inkscape:window-height="480"
     id="namedview12"
     showgrid="false"
     inkscape:zoom="4.9166667"
     inkscape:cx="2.1355932"
     inkscape:cy="24"
     inkscape:window-x="0"
     inkscape:window-y="25"
     inkscape:window-maximized="0"
     inkscape:current-layer="svg10"
     inkscape:showpageshadow="0"
     inkscape:pagecheckerboard="0"
     inkscape:deskcolor="#d1d1d1" />
  <path
     d="M 6.29,9.9999768e-4 A 6.29,6.29 0 0 0 0,6.291 6.29,6.29 0 0 0 6.29,12.58 6.29,6.29 0 0 0 12.58,6.29 6.29,6.29 0 0 0 6.29,0 Z M 6.272,0.938 A 5.407,5.407 0 0 1 11.679,6.345 5.407,5.407 0 0 1 6.272,11.752 5.407,5.407 0 0 1 0.866,6.345 5.407,5.407 0 0 1 6.272,0.939 Z M 3.479,2.553 A 0.168,0.168 0 0 0 3.316,2.669 L 2.318,5.765 H 4.64 L 3.642,2.669 A 0.168,0.168 0 0 0 3.479,2.553 Z m 1.16,3.212 1.657,4.927 1.656,-4.927 H 4.64 Z m 3.313,0 h 2.322 L 9.276,2.669 C 9.225,2.514 9.001,2.514 8.95,2.669 Z"
     id="path2"
     inkscape:connector-curvature="0"
     style="fill:#bde6fb;fill-opacity:1" />
  <path
     d="m 2.318,5.766 -0.503,1.44 a 0.334,0.334 0 0 0 0.124,0.377 l 4.357,3.109 z m 3.978,4.926 4.357,-3.11 a 0.334,0.334 0 0 0 0.124,-0.376 l -0.503,-1.44 z"
     id="path4"
     inkscape:connector-curvature="0"
     style="opacity:0.5;fill:#bde6fb;fill-opacity:1;fill-rule:evenodd" />
  <path
     d="M 6.296,10.692 1.939,7.582 v 0.001 z m 4.357,-3.109 -4.357,3.109 z"
     id="path6"
     inkscape:connector-curvature="0"
     style="fill:#bde6fb;fill-opacity:1;fill-rule:evenodd" />
  <path
     d="M 2.318,5.766 6.296,10.692 4.64,5.766 Z m 3.978,4.926 3.978,-4.926 H 7.952 Z"
     id="path8"
     inkscape:connector-curvature="0"
     style="opacity:0.75;fill:#bde6fb;fill-opacity:1;fill-rule:evenodd" />
</svg>
