<?xml version="1.0" encoding="UTF-8" standalone="no"?>
<svg
   width="47.542969"
   height="47.542969"
   version="1.1"
   viewBox="0 0 12.579077 12.579077"
   id="svg14"
   sodipodi:docname="gitter.svg"
   inkscape:version="0.92.4 (5da689c313, 2019-01-14)"
   xmlns:inkscape="http://www.inkscape.org/namespaces/inkscape"
   xmlns:sodipodi="http://sodipodi.sourceforge.net/DTD/sodipodi-0.dtd"
   xmlns="http://www.w3.org/2000/svg"
   xmlns:svg="http://www.w3.org/2000/svg"
   xmlns:rdf="http://www.w3.org/1999/02/22-rdf-syntax-ns#"
   xmlns:cc="http://creativecommons.org/ns#"
   xmlns:dc="http://purl.org/dc/elements/1.1/">
  <metadata
     id="metadata20">
    <rdf:RDF>
      <cc:Work
         rdf:about="">
        <dc:format>image/svg+xml</dc:format>
        <dc:type
           rdf:resource="http://purl.org/dc/dcmitype/StillImage" />
        <dc:title />
      </cc:Work>
    </rdf:RDF>
  </metadata>
  <defs
     id="defs18" />
  <sodipodi:namedview
     pagecolor="#ffffff"
     bordercolor="#666666"
     borderopacity="1"
     objecttolerance="10"
     gridtolerance="10"
     guidetolerance="10"
     inkscape:pageopacity="0"
     inkscape:pageshadow="2"
     inkscape:window-width="1136"
     inkscape:window-height="480"
     id="namedview16"
     showgrid="false"
     inkscape:zoom="4.9166667"
     inkscape:cx="2.1355932"
     inkscape:cy="24"
     inkscape:window-x="0"
     inkscape:window-y="25"
     inkscape:window-maximized="0"
     inkscape:current-layer="svg14"
     inkscape:showpageshadow="0"
     inkscape:pagecheckerboard="0"
     inkscape:deskcolor="#d1d1d1" />
  <path
     style="fill:#bde6fb;fill-opacity:1;stroke-width:1.0439"
     d="M 6.284371,0 C 2.8159709,0.0057471 0.00579999,2.8159709 0,6.2843707 c -4.6209961e-6,3.4725001 2.8118709,6.2889063 6.284371,6.2947063 3.4764998,0 6.294706,-2.8182062 6.294706,-6.2947063 C 12.573318,2.8119709 9.7567708,0 6.284371,0 Z m -0.010335,0.93947751 c 2.9743,0.00572 5.3856864,2.41255139 5.3970864,5.38675109 0,2.9865002 -2.4209216,5.4074214 -5.4074218,5.4074214 -2.9865,0 -5.40742173,-2.4209212 -5.40742173,-5.4074214 0,-2.9864999 2.43125713,-5.38675109 5.41775713,-5.38675109 z M 3.3470825,2.997233 V 7.5824827 H 4.3294516 V 2.997233 Z m 1.6376261,1.3099975 v 5.5676188 h 0.982369 V 4.3072305 Z m 1.6376261,0 v 5.5676188 h 0.982369 V 4.3072305 Z m 1.637626,0 V 7.5824827 H 9.2423298 V 4.3072305 Z"
     id="path2"
     inkscape:connector-curvature="0" />
</svg>
