<?xml version="1.0" encoding="UTF-8" standalone="no"?>
<svg
   width="48"
   height="48"
   viewBox="0 0 12.7 12.7"
   version="1.1"
   id="svg4"
   sodipodi:docname="glipper.svg"
   inkscape:version="0.92.5 (2060ec1f9f, 2020-04-08)"
   inkscape:export-filename="glipper.png"
   inkscape:export-xdpi="96"
   inkscape:export-ydpi="96"
   xmlns:inkscape="http://www.inkscape.org/namespaces/inkscape"
   xmlns:sodipodi="http://sodipodi.sourceforge.net/DTD/sodipodi-0.dtd"
   xmlns="http://www.w3.org/2000/svg"
   xmlns:svg="http://www.w3.org/2000/svg">
  <sodipodi:namedview
     id="namedview1"
     pagecolor="#505050"
     bordercolor="#eeeeee"
     borderopacity="1"
     inkscape:showpageshadow="0"
     inkscape:pageopacity="0"
     inkscape:pagecheckerboard="0"
     inkscape:deskcolor="#d1d1d1" />
  <defs
     id="defs8">
    <style
       id="current-color-scheme"
       type="text/css">&#10;      .ColorScheme-Highlight {&#10;        color:#1e3f5a;&#10;      }&#10;  </style>
  </defs>
  <path
     class="ColorScheme-Highlight"
     style="fill:#bde6fb;fill-opacity:1;stroke-width:0.264583"
     d="M 6.3499999,0 A 6.3499999,6.3499999 0 0 0 0,6.3499999 6.3499999,6.3499999 0 0 0 6.3499999,12.7 6.3499999,6.3499999 0 0 0 12.7,6.3499999 6.3499999,6.3499999 0 0 0 6.3499999,0 Z m 0,0.79374999 A 5.5562499,5.5562499 0 0 1 11.90625,6.3499999 5.5562499,5.5562499 0 0 1 6.3499999,11.90625 5.5562499,5.5562499 0 0 1 0.79374999,6.3499999 5.5562499,5.5562499 0 0 1 6.3499999,0.79374999 Z m 0,1.32291661 a 1.0583332,1.0583332 0 0 0 -1.0231935,0.79375 H 3.4395833 c -0.2931583,0 -0.5291667,0.2360084 -0.5291667,0.5291667 v 6.6145837 c 0,0.293159 0.2360084,0.529166 0.5291667,0.529166 h 5.8208333 c 0.2931583,0 0.5291666,-0.236007 0.5291666,-0.529166 V 3.4395833 c 0,-0.2931583 -0.2360083,-0.5291667 -0.5291666,-0.5291667 H 7.3737101 a 1.0583332,1.0583332 0 0 0 -1.0237102,-0.79375 z m 0,0.5291667 A 0.52916663,0.52916663 0 0 1 6.8791666,3.175 0.52916663,0.52916663 0 0 1 6.3499999,3.7041666 0.52916663,0.52916663 0 0 1 5.8208333,3.175 0.52916663,0.52916663 0 0 1 6.3499999,2.6458333 Z M 3.4395833,3.7041666 H 4.4979166 V 4.7624999 H 8.2020832 V 3.7041666 H 9.2604166 V 10.054167 H 3.4395833 Z"
     id="path817" />
</svg>
