<?xml version="1.0" encoding="UTF-8" standalone="no"?>
<svg
   width="48"
   height="48"
   viewBox="0 0 12.7 12.7"
   version="1.1"
   id="svg4"
   sodipodi:docname="gnome-panel-window-menu.svg"
   inkscape:version="0.92.5 (2060ec1f9f, 2020-04-08)"
   xmlns:inkscape="http://www.inkscape.org/namespaces/inkscape"
   xmlns:sodipodi="http://sodipodi.sourceforge.net/DTD/sodipodi-0.dtd"
   xmlns="http://www.w3.org/2000/svg"
   xmlns:svg="http://www.w3.org/2000/svg">
  <sodipodi:namedview
     id="namedview1"
     pagecolor="#505050"
     bordercolor="#eeeeee"
     borderopacity="1"
     inkscape:showpageshadow="0"
     inkscape:pageopacity="0"
     inkscape:pagecheckerboard="0"
     inkscape:deskcolor="#d1d1d1" />
  <defs
     id="defs8">
    <style
       id="current-color-scheme"
       type="text/css">&#10;      .ColorScheme-Highlight {&#10;        color:#1e3f5a;&#10;      }&#10;  </style>
  </defs>
  <path
     class="ColorScheme-Highlight"
     style="fill:#bde6fb;fill-opacity:1;stroke-width:0.264583"
     d="M 6.3499999,0 A 6.3499999,6.3499999 0 0 0 0,6.3499999 6.3499999,6.3499999 0 0 0 6.3499999,12.7 6.3499999,6.3499999 0 0 0 12.7,6.3499999 6.3499999,6.3499999 0 0 0 6.3499999,0 Z m 0,0.79374999 A 5.5562499,5.5562499 0 0 1 11.90625,6.3499999 5.5562499,5.5562499 0 0 1 6.3499999,11.90625 5.5562499,5.5562499 0 0 1 0.79374999,6.3499999 5.5562499,5.5562499 0 0 1 6.3499999,0.79374999 Z M 3.175,2.9104166 c -0.4397378,0 -0.79375,0.3540125 -0.79375,0.79375 v 5.2916666 c 0,0.4397375 0.3540122,0.79375 0.79375,0.79375 h 6.3499999 c 0.4397377,0 0.7937501,-0.3540125 0.7937501,-0.79375 V 3.7041666 c 0,-0.4397375 -0.3540124,-0.79375 -0.7937501,-0.79375 z M 2.9104166,4.2333333 h 6.8791666 c 0.1465792,0 0.2645838,0.1242422 0.2645838,0.2785358 V 9.246464 c 0,0.1542936 -0.1180046,0.2785359 -0.2645838,0.2785359 H 2.9104166 c -0.1465791,0 -0.2645833,-0.1242423 -0.2645833,-0.2785359 V 4.5118691 c 0,-0.1542936 0.1180042,-0.2785358 0.2645833,-0.2785358 z m 0.5291667,0.79375 V 5.5562499 H 3.96875 V 5.0270833 Z m 1.3229166,0 V 5.5562499 H 9.2604166 V 5.0270833 Z m -1.3229166,1.5875 V 7.1437499 H 3.96875 V 6.6145833 Z m 1.3229166,0 V 7.1437499 H 9.2604166 V 6.6145833 Z M 3.4395833,8.2020832 V 8.7312499 H 3.96875 V 8.2020832 Z m 1.3229166,0 V 8.7312499 H 9.2604166 V 8.2020832 Z"
     id="path831" />
</svg>
