<?xml version="1.0" encoding="UTF-8" standalone="no"?>
<svg
   width="47.376377"
   height="47.372604"
   viewBox="0 0 12.535 12.534002"
   version="1.1"
   id="svg4"
   sodipodi:docname="gnome-mines.svg"
   inkscape:version="0.92.4 (5da689c313, 2019-01-14)"
   xmlns:inkscape="http://www.inkscape.org/namespaces/inkscape"
   xmlns:sodipodi="http://sodipodi.sourceforge.net/DTD/sodipodi-0.dtd"
   xmlns="http://www.w3.org/2000/svg"
   xmlns:svg="http://www.w3.org/2000/svg"
   xmlns:rdf="http://www.w3.org/1999/02/22-rdf-syntax-ns#"
   xmlns:cc="http://creativecommons.org/ns#"
   xmlns:dc="http://purl.org/dc/elements/1.1/">
  <metadata
     id="metadata10">
    <rdf:RDF>
      <cc:Work
         rdf:about="">
        <dc:format>image/svg+xml</dc:format>
        <dc:type
           rdf:resource="http://purl.org/dc/dcmitype/StillImage" />
        <dc:title />
      </cc:Work>
    </rdf:RDF>
  </metadata>
  <defs
     id="defs8" />
  <sodipodi:namedview
     pagecolor="#ffffff"
     bordercolor="#666666"
     borderopacity="1"
     objecttolerance="10"
     gridtolerance="10"
     guidetolerance="10"
     inkscape:pageopacity="0"
     inkscape:pageshadow="2"
     inkscape:window-width="1087"
     inkscape:window-height="480"
     id="namedview6"
     showgrid="false"
     inkscape:zoom="4.9166667"
     inkscape:cx="2.1355932"
     inkscape:cy="24"
     inkscape:window-x="0"
     inkscape:window-y="25"
     inkscape:window-maximized="0"
     inkscape:current-layer="svg4"
     inkscape:showpageshadow="0"
     inkscape:pagecheckerboard="0"
     inkscape:deskcolor="#d1d1d1" />
  <path
     d="M 6.268,8.2373619e-8 A 6.267,6.267 0 0 0 0,6.2670001 6.267,6.267 0 0 0 6.268,12.534 6.267,6.267 0 0 0 12.535,6.2670001 6.267,6.267 0 0 0 6.268,8.2373619e-8 Z M 6.25,0.93200008 A 5.388,5.388 0 0 1 11.638,6.3220001 5.388,5.388 0 0 1 6.25,11.709 5.388,5.388 0 0 1 0.861,6.3210001 5.388,5.388 0 0 1 6.251,0.93200008 Z m -0.43,1.10800002 -0.09,1.26 a 3.024,3.024 0 0 0 -1.172,0.488 l -0.956,-0.83 -0.643,0.643 0.827,0.953 a 3.024,3.024 0 0 0 -0.484,1.175 l -1.261,0.09 v 0.907 l 1.26,0.09 a 3.024,3.024 0 0 0 0.488,1.173 l -0.83,0.956 0.643,0.642 0.953,-0.827 a 3.024,3.024 0 0 0 1.175,0.484 L 5.82,10.506 h 0.908 l 0.09,-1.2599999 a 3.024,3.024 0 0 0 1.172,-0.488 l 0.956,0.829 0.643,-0.642 -0.827,-0.954 a 3.024,3.024 0 0 0 0.484,-1.174 l 1.261,-0.09 v -0.907 l -1.26,-0.09 a 3.024,3.024 0 0 0 -0.488,-1.173 l 0.83,-0.956 -0.643,-0.643 -0.953,0.827 a 3.024,3.024 0 0 0 -1.175,-0.484 l -0.09,-1.261 z m -0.12,2.275 a 1.058,1.058 0 0 1 1.058,1.058 1.058,1.058 0 0 1 -1.058,1.06 1.058,1.058 0 0 1 -1.058,-1.06 1.058,1.058 0 0 1 1.058,-1.058 z"
     id="path2"
     inkscape:connector-curvature="0"
     style="fill:#bde6fb;fill-opacity:1" />
</svg>
