<?xml version="1.0" encoding="UTF-8" standalone="no"?>
<svg
   width="47.538898"
   height="47.538898"
   viewBox="0 0 12.578 12.578"
   version="1.1"
   id="svg4"
   sodipodi:docname="gnome-klotski.svg"
   inkscape:version="0.92.4 (5da689c313, 2019-01-14)"
   xmlns:inkscape="http://www.inkscape.org/namespaces/inkscape"
   xmlns:sodipodi="http://sodipodi.sourceforge.net/DTD/sodipodi-0.dtd"
   xmlns="http://www.w3.org/2000/svg"
   xmlns:svg="http://www.w3.org/2000/svg"
   xmlns:rdf="http://www.w3.org/1999/02/22-rdf-syntax-ns#"
   xmlns:cc="http://creativecommons.org/ns#"
   xmlns:dc="http://purl.org/dc/elements/1.1/">
  <metadata
     id="metadata10">
    <rdf:RDF>
      <cc:Work
         rdf:about="">
        <dc:format>image/svg+xml</dc:format>
        <dc:type
           rdf:resource="http://purl.org/dc/dcmitype/StillImage" />
        <dc:title />
      </cc:Work>
    </rdf:RDF>
  </metadata>
  <defs
     id="defs8" />
  <sodipodi:namedview
     pagecolor="#ffffff"
     bordercolor="#666666"
     borderopacity="1"
     objecttolerance="10"
     gridtolerance="10"
     guidetolerance="10"
     inkscape:pageopacity="0"
     inkscape:pageshadow="2"
     inkscape:window-width="861"
     inkscape:window-height="480"
     id="namedview6"
     showgrid="false"
     inkscape:zoom="4.9166667"
     inkscape:cx="2.1355932"
     inkscape:cy="24"
     inkscape:window-x="0"
     inkscape:window-y="25"
     inkscape:window-maximized="0"
     inkscape:current-layer="svg4"
     inkscape:showpageshadow="0"
     inkscape:pagecheckerboard="0"
     inkscape:deskcolor="#d1d1d1" />
  <path
     style="font-weight:400;font-size:14.983px;line-height:1.25;font-family:'Electric Guitar Icons';-inkscape-font-specification:'Electric Guitar Icons';letter-spacing:0;word-spacing:0;fill:#bde6fb;fill-opacity:1"
     d="M 6.29,0 H 6.289 A 6.29,6.29 0 0 0 0,6.29 a 6.29,6.29 0 0 0 0.32,1.964 6.29,6.29 0 0 0 1.589,2.547 6.29,6.29 0 0 0 0.472,0.415 6.29,6.29 0 0 0 1.058,0.679 6.29,6.29 0 0 0 0.538,0.24 A 6.29,6.29 0 0 0 6.29,12.578 6.29,6.29 0 0 0 12.578,6.29 6.29,6.29 0 0 0 12.111,3.92 6.29,6.29 0 0 0 12.081,3.84 6.29,6.29 0 0 0 9.042,0.64 6.29,6.29 0 0 0 6.291,0 Z M 6.27,0.937 a 5.407,5.407 0 0 1 0.019,0 V 6.29 h 5.387 A 5.407,5.407 0 0 1 11.678,6.344 5.407,5.407 0 0 1 6.289,11.75 V 6.29 H 0.867 A 5.407,5.407 0 0 1 6.271,0.937 Z M 3.115,3.115 V 4.967 H 4.967 V 3.115 H 3.114 Z M 7.613,7.613 V 9.465 H 9.465 V 7.613 H 7.612 Z"
     font-weight="400"
     font-size="14.983"
     letter-spacing="0"
     word-spacing="0"
     id="path2"
     inkscape:connector-curvature="0" />
</svg>
