<?xml version="1.0" encoding="UTF-8" standalone="no"?>
<svg
   width="47.546455"
   height="47.542679"
   viewBox="0 0 12.58 12.579"
   version="1.1"
   id="svg4"
   sodipodi:docname="gnome-sound-recorder.svg"
   inkscape:version="0.92.4 (5da689c313, 2019-01-14)"
   xmlns:inkscape="http://www.inkscape.org/namespaces/inkscape"
   xmlns:sodipodi="http://sodipodi.sourceforge.net/DTD/sodipodi-0.dtd"
   xmlns="http://www.w3.org/2000/svg"
   xmlns:svg="http://www.w3.org/2000/svg"
   xmlns:rdf="http://www.w3.org/1999/02/22-rdf-syntax-ns#"
   xmlns:cc="http://creativecommons.org/ns#"
   xmlns:dc="http://purl.org/dc/elements/1.1/">
  <metadata
     id="metadata10">
    <rdf:RDF>
      <cc:Work
         rdf:about="">
        <dc:format>image/svg+xml</dc:format>
        <dc:type
           rdf:resource="http://purl.org/dc/dcmitype/StillImage" />
        <dc:title />
      </cc:Work>
    </rdf:RDF>
  </metadata>
  <defs
     id="defs8" />
  <sodipodi:namedview
     pagecolor="#ffffff"
     bordercolor="#666666"
     borderopacity="1"
     objecttolerance="10"
     gridtolerance="10"
     guidetolerance="10"
     inkscape:pageopacity="0"
     inkscape:pageshadow="2"
     inkscape:window-width="1087"
     inkscape:window-height="480"
     id="namedview6"
     showgrid="false"
     inkscape:zoom="4.9166667"
     inkscape:cx="2.1355932"
     inkscape:cy="24"
     inkscape:window-x="0"
     inkscape:window-y="25"
     inkscape:window-maximized="0"
     inkscape:current-layer="svg4"
     inkscape:showpageshadow="0"
     inkscape:pagecheckerboard="0"
     inkscape:deskcolor="#d1d1d1" />
  <path
     d="M 6.29,9.9999565e-4 A 6.29,6.29 0 0 0 0,6.291 6.29,6.29 0 0 0 6.29,12.579 6.29,6.29 0 0 0 12.58,6.29 6.29,6.29 0 0 0 6.29,0 Z M 6.272,0.937 A 5.407,5.407 0 0 1 11.679,6.344 5.407,5.407 0 0 1 6.272,11.751 5.407,5.407 0 0 1 0.866,6.344 5.407,5.407 0 0 1 6.272,0.938 Z M 8.194,2.175 A 1.79,1.79 0 0 0 6.717,2.893 C 6.547,3.12 6.593,3.537 6.74,3.779 l 0.923,1.52 C 7.81,5.54 8.161,5.772 8.44,5.726 A 1.787,1.787 0 1 0 8.194,2.176 Z M 5.749,4.185 A 0.45,0.45 0 0 0 5.488,4.298 L 2.001,7.312 A 0.664,0.664 0 0 0 1.858,8.096 l 0.011,0.02 a 0.557,0.557 0 0 0 0.71,0.237 L 4.368,7.537 C 4.625,7.42 4.834,7.514 4.834,7.748 c 0,0.234 0.068,0.424 0.153,0.424 0.084,0 0.152,0.23 0.152,0.512 v 2.196 c 0,0.283 0.116,0.512 0.259,0.512 0.143,0 0.259,-0.229 0.259,-0.512 V 8.684 c 0,-0.283 0.079,-0.512 0.176,-0.512 0.098,0 0.176,-0.229 0.176,-0.512 V 7.3 c 0,-0.282 0.209,-0.606 0.466,-0.723 L 6.79,6.433 A 0.442,0.442 0 0 0 6.988,5.783 L 6.141,4.4 A 0.433,0.433 0 0 0 5.839,4.19 0.394,0.394 0 0 0 5.749,4.185 Z"
     id="path2"
     inkscape:connector-curvature="0"
     style="fill:#bde6fb;fill-opacity:1" />
</svg>
