<?xml version="1.0" encoding="UTF-8" standalone="no"?>
<svg
   width="47.546455"
   height="47.546455"
   viewBox="0 0 12.58 12.58"
   version="1.1"
   id="svg12"
   sodipodi:docname="gnome-tetravex.svg"
   inkscape:version="0.92.4 (5da689c313, 2019-01-14)"
   xmlns:inkscape="http://www.inkscape.org/namespaces/inkscape"
   xmlns:sodipodi="http://sodipodi.sourceforge.net/DTD/sodipodi-0.dtd"
   xmlns="http://www.w3.org/2000/svg"
   xmlns:svg="http://www.w3.org/2000/svg"
   xmlns:rdf="http://www.w3.org/1999/02/22-rdf-syntax-ns#"
   xmlns:cc="http://creativecommons.org/ns#"
   xmlns:dc="http://purl.org/dc/elements/1.1/">
  <metadata
     id="metadata18">
    <rdf:RDF>
      <cc:Work
         rdf:about="">
        <dc:format>image/svg+xml</dc:format>
        <dc:type
           rdf:resource="http://purl.org/dc/dcmitype/StillImage" />
        <dc:title />
      </cc:Work>
    </rdf:RDF>
  </metadata>
  <defs
     id="defs16" />
  <sodipodi:namedview
     pagecolor="#ffffff"
     bordercolor="#666666"
     borderopacity="1"
     objecttolerance="10"
     gridtolerance="10"
     guidetolerance="10"
     inkscape:pageopacity="0"
     inkscape:pageshadow="2"
     inkscape:window-width="1112"
     inkscape:window-height="480"
     id="namedview14"
     showgrid="false"
     inkscape:zoom="4.9166667"
     inkscape:cx="2.1355932"
     inkscape:cy="24"
     inkscape:window-x="0"
     inkscape:window-y="25"
     inkscape:window-maximized="0"
     inkscape:current-layer="svg12"
     inkscape:showpageshadow="0"
     inkscape:pagecheckerboard="0"
     inkscape:deskcolor="#d1d1d1" />
  <path
     d="m 6.29,0 a 6.29,6.29 0 1 0 0,12.58 A 6.29,6.29 0 0 0 6.29,0 Z M 6.27,0.93 a 5.417,5.417 0 0 1 5.41,5.41 5.4,5.4 0 0 1 -5.4,5.41 5.4,5.4 0 0 1 -5.41,-5.4 5.4,5.4 0 0 1 5.4,-5.42 z"
     id="path2"
     inkscape:connector-curvature="0"
     style="fill:#bde6fb;fill-opacity:1" />
  <path
     d="M 3.19,2.804 A 0.364,0.364 0 0 0 2.93,2.911 L 6.3,6.28 9.67,2.91 A 0.363,0.363 0 0 0 9.41,2.804 Z m 0,0"
     id="path4"
     inkscape:connector-curvature="0"
     style="opacity:0.75;fill:#0066ff" />
  <path
     d="M 6.3,6.28 2.93,9.65 a 0.364,0.364 0 0 0 0.26,0.106 h 6.22 c 0.102,0 0.193,-0.04 0.26,-0.107 z m 0,0"
     id="path6"
     inkscape:connector-curvature="0"
     style="opacity:0.75;fill:#aa0088" />
  <path
     d="M 9.67,2.91 6.3,6.28 9.67,9.65 A 0.362,0.362 0 0 0 9.776,9.39 V 3.17 A 0.363,0.363 0 0 0 9.669,2.91 Z m 0,0"
     id="path8"
     inkscape:connector-curvature="0"
     style="opacity:0.75;fill:#37c837" />
  <path
     d="M 2.93,2.91 A 0.365,0.365 0 0 0 2.824,3.17 v 6.22 c 0,0.102 0.04,0.193 0.107,0.26 l 3.37,-3.37 z m 0,0"
     id="path10"
     inkscape:connector-curvature="0"
     style="opacity:0.75;fill:#ff2a2a" />
</svg>
