<?xml version="1.0" encoding="UTF-8" standalone="no"?>
<svg
   width="47.546486"
   height="47.546486"
   viewBox="0 0 12.580008 12.580008"
   version="1.1"
   id="svg4"
   sodipodi:docname="gnome-sudoku.svg"
   inkscape:version="0.92.4 (5da689c313, 2019-01-14)"
   xmlns:inkscape="http://www.inkscape.org/namespaces/inkscape"
   xmlns:sodipodi="http://sodipodi.sourceforge.net/DTD/sodipodi-0.dtd"
   xmlns="http://www.w3.org/2000/svg"
   xmlns:svg="http://www.w3.org/2000/svg"
   xmlns:rdf="http://www.w3.org/1999/02/22-rdf-syntax-ns#"
   xmlns:cc="http://creativecommons.org/ns#"
   xmlns:dc="http://purl.org/dc/elements/1.1/">
  <metadata
     id="metadata10">
    <rdf:RDF>
      <cc:Work
         rdf:about="">
        <dc:format>image/svg+xml</dc:format>
        <dc:type
           rdf:resource="http://purl.org/dc/dcmitype/StillImage" />
        <dc:title />
      </cc:Work>
    </rdf:RDF>
  </metadata>
  <defs
     id="defs8" />
  <sodipodi:namedview
     pagecolor="#ffffff"
     bordercolor="#666666"
     borderopacity="1"
     objecttolerance="10"
     gridtolerance="10"
     guidetolerance="10"
     inkscape:pageopacity="0"
     inkscape:pageshadow="2"
     inkscape:window-width="1087"
     inkscape:window-height="480"
     id="namedview6"
     showgrid="false"
     inkscape:zoom="4.9166667"
     inkscape:cx="2.1355932"
     inkscape:cy="24"
     inkscape:window-x="0"
     inkscape:window-y="25"
     inkscape:window-maximized="0"
     inkscape:current-layer="svg4"
     inkscape:showpageshadow="0"
     inkscape:pagecheckerboard="0"
     inkscape:deskcolor="#d1d1d1" />
  <path
     d="M 6.2900079,0 A 6.29,6.29 0 0 0 7.9490244e-6,6.3 6.29,6.29 0 0 0 6.3000079,12.58 6.29,6.29 0 0 0 12.580008,6.29 6.29,6.29 0 0 0 6.2900079,0 Z m -0.03,0.94 v 2.03 h -3.01 V 1.9 1.87 a 5.4,5.4 0 0 1 3.01,-0.93 z m 0.24,0.01 a 5.4,5.4 0 0 1 2.92,1 v 1.02 h -2.92 z m -3.49,1.1 v 0.92 h -0.95 a 5.4,5.4 0 0 1 0.95,-0.93 z m 6.65,0.08 A 5.4,5.4 0 0 1 10.500008,2.97 H 9.6500079 V 2.13 Z m -7.78,1.07 h 1.13 V 6.17 H 0.88000795 A 5.4,5.4 0 0 1 1.8800079,3.21 Z m 1.37,0 h 3 v 2.97 h -3 V 3.21 Z m 3.25,0 h 2.92 v 2.97 h -2.92 V 3.21 Z m 3.16,0 h 1.0000001 a 5.4,5.4 0 0 1 1.02,2.97 H 9.6500079 V 3.21 Z m -4.8,0.44 -0.86,1.3 v 0.27 h 0.93 V 5.7 h 0.28 V 5.21 h 0.3 V 4.98 h -0.3 V 3.64 Z m 0.07,0.24 v 1.1 h -0.7 z M 0.87000795,6.41 H 3.0100079 v 2.92 h -1.24 A 5.4,5.4 0 0 1 0.87000795,6.41 Z m 2.37999995,0 h 3 v 2.92 h -3 z m 3.25,0 h 2.92 v 2.92 h -2.92 z m 3.16,0 h 2.0200001 a 5.4,5.4 0 0 1 -0.9,2.92 H 9.6500079 V 6.41 Z m -1.8,0.4 a 1.75,1.75 0 0 0 -0.56,0.08 v 0.25 a 2.28,2.28 0 0 1 0.53,-0.1 0.52,0.52 0 0 1 0.32,0.09 0.28,0.28 0 0 1 0.12,0.24 0.28,0.28 0 0 1 -0.11,0.24 0.52,0.52 0 0 1 -0.32,0.08 h -0.25 v 0.23 h 0.24 c 0.15,0 0.27,0.03 0.36,0.1 a 0.34,0.34 0 0 1 0.12,0.28 0.35,0.35 0 0 1 -0.13,0.3 c -0.1,0.07 -0.23,0.1 -0.4,0.1 -0.1,0 -0.2,0 -0.29,-0.03 a 0.96,0.96 0 0 1 -0.25,-0.1 v 0.27 a 1.92,1.92 0 0 0 0.55,0.1 c 0.26,0 0.45,-0.05 0.6,-0.17 a 0.57,0.57 0 0 0 0.2,-0.47 0.5,0.5 0 0 0 -0.11,-0.33 0.53,0.53 0 0 0 -0.31,-0.18 0.51,0.51 0 0 0 0.28,-0.16 0.44,0.44 0 0 0 0.1,-0.29 0.47,0.47 0 0 0 -0.19,-0.39 0.8,0.8 0 0 0 -0.5,-0.14 z m -5.92,2.76 h 1.07 v 1.08 a 5.4,5.4 0 0 1 -1.06,-1.08 z m 1.31,0 h 3.01 v 2.18 a 5.4,5.4 0 0 1 -3.01,-0.92 V 9.56 Z m 3.25,0 h 2.92 v 1.17 a 5.4,5.4 0 0 1 -2.92,1 V 9.58 Z m 3.16,0 h 0.9500001 a 5.4,5.4 0 0 1 -0.9500001,1 z"
     id="path2"
     inkscape:connector-curvature="0"
     style="fill:#bde6fb;fill-opacity:1" />
</svg>
