<?xml version="1.0" encoding="UTF-8" standalone="no"?>
<svg
   width="48"
   height="48"
   viewBox="0 0 12.7 12.7"
   version="1.1"
   id="svg4"
   sodipodi:docname="gnome-disks.svg"
   inkscape:version="0.92.5 (2060ec1f9f, 2020-04-08)"
   xmlns:inkscape="http://www.inkscape.org/namespaces/inkscape"
   xmlns:sodipodi="http://sodipodi.sourceforge.net/DTD/sodipodi-0.dtd"
   xmlns="http://www.w3.org/2000/svg"
   xmlns:svg="http://www.w3.org/2000/svg">
  <sodipodi:namedview
     id="namedview1"
     pagecolor="#505050"
     bordercolor="#eeeeee"
     borderopacity="1"
     inkscape:showpageshadow="0"
     inkscape:pageopacity="0"
     inkscape:pagecheckerboard="0"
     inkscape:deskcolor="#d1d1d1" />
  <defs
     id="defs8">
    <style
       id="current-color-scheme"
       type="text/css">&#10;      .ColorScheme-Highlight {&#10;        color:#1e3f5a;&#10;      }&#10;  </style>
  </defs>
  <path
     class="ColorScheme-Highlight"
     style="fill:#bde6fb;fill-opacity:1;stroke-width:0.264583"
     d="M 6.3499999,0 A 6.3499999,6.3499999 0 0 0 0,6.3499999 6.3499999,6.3499999 0 0 0 6.3499999,12.7 6.3499999,6.3499999 0 0 0 12.7,6.3499999 6.3499999,6.3499999 0 0 0 6.3499999,0 Z m 0,0.79374999 A 5.5562499,5.5562499 0 0 1 11.90625,6.3499999 5.5562499,5.5562499 0 0 1 6.3499999,11.90625 5.5562499,5.5562499 0 0 1 0.79374999,6.3499999 5.5562499,5.5562499 0 0 1 6.3499999,0.79374999 Z M 3.175,2.38125 c -0.1465792,0 -0.2645834,0.1229997 -0.2645834,0.2759522 v 6.0740477 1.190625 c 0,0.2198691 0.1180042,0.3968751 0.2645834,0.3968751 h 6.3499999 c 0.1465791,0 0.2645833,-0.177006 0.2645833,-0.3968751 V 8.7312499 2.6572022 C 9.7895832,2.5042497 9.671579,2.38125 9.5249999,2.38125 Z M 7.1437499,2.8267009 A 1.8520833,1.8520833 0 0 1 8.2020832,4.4979166 1.8520833,1.8520833 0 0 1 7.1437499,6.1691323 v 1.2392009 c 0,0.4397375 -0.3540125,0.79375 -0.79375,0.79375 -0.4397375,0 -0.79375,-0.3540125 -0.79375,-0.79375 V 6.1686156 A 1.8520833,1.8520833 0 0 1 4.4979166,4.4979166 1.8520833,1.8520833 0 0 1 5.5562499,2.8272176 v 1.4877645 c 0,0.1240285 0.049809,0.2358446 0.1307415,0.3167764 0.080932,0.080932 0.1927479,0.1307414 0.3167764,0.1307414 h 0.6924643 c 0.1240284,0 0.2358445,-0.049809 0.3167763,-0.1307414 0.080932,-0.080932 0.1307415,-0.1927479 0.1307415,-0.3167764 z m -0.79375,6.1691323 H 6.8791666 V 10.054167 H 6.3499999 Z m 1.0583333,0 H 7.9374999 V 10.054167 H 7.4083332 Z m 1.0583334,0 H 8.9958332 V 10.054167 H 8.4666666 Z"
     id="path836" />
</svg>
