<?xml version="1.0" encoding="UTF-8" standalone="no"?>
<svg
   width="47.546486"
   height="47.546486"
   viewBox="0 0 12.580008 12.580008"
   version="1.1"
   id="svg4"
   sodipodi:docname="gnome-foot.svg"
   inkscape:version="0.92.4 (5da689c313, 2019-01-14)"
   xmlns:inkscape="http://www.inkscape.org/namespaces/inkscape"
   xmlns:sodipodi="http://sodipodi.sourceforge.net/DTD/sodipodi-0.dtd"
   xmlns="http://www.w3.org/2000/svg"
   xmlns:svg="http://www.w3.org/2000/svg"
   xmlns:rdf="http://www.w3.org/1999/02/22-rdf-syntax-ns#"
   xmlns:cc="http://creativecommons.org/ns#"
   xmlns:dc="http://purl.org/dc/elements/1.1/">
  <metadata
     id="metadata10">
    <rdf:RDF>
      <cc:Work
         rdf:about="">
        <dc:format>image/svg+xml</dc:format>
        <dc:type
           rdf:resource="http://purl.org/dc/dcmitype/StillImage" />
        <dc:title />
      </cc:Work>
    </rdf:RDF>
  </metadata>
  <defs
     id="defs8" />
  <sodipodi:namedview
     pagecolor="#ffffff"
     bordercolor="#666666"
     borderopacity="1"
     objecttolerance="10"
     gridtolerance="10"
     guidetolerance="10"
     inkscape:pageopacity="0"
     inkscape:pageshadow="2"
     inkscape:window-width="1087"
     inkscape:window-height="480"
     id="namedview6"
     showgrid="false"
     inkscape:zoom="4.9166667"
     inkscape:cx="2.1355932"
     inkscape:cy="24"
     inkscape:window-x="0"
     inkscape:window-y="25"
     inkscape:window-maximized="0"
     inkscape:current-layer="svg4"
     inkscape:showpageshadow="0"
     inkscape:pagecheckerboard="0"
     inkscape:deskcolor="#d1d1d1" />
  <path
     d="M 6.2900079,0 A 6.29,6.29 0 0 0 7.9490244e-6,6.3 6.29,6.29 0 0 0 6.3000079,12.58 6.29,6.29 0 0 0 12.580008,6.29 6.29,6.29 0 0 0 6.2900079,0 Z m -0.02,0.93 0.01,0.01 A 5.4,5.4 0 0 1 11.680008,6.34 5.4,5.4 0 0 1 6.2800079,11.75 5.4,5.4 0 0 1 0.87000795,6.35 5.4,5.4 0 0 1 6.2700079,0.93 Z m 2.16,2 c -1.32,0 -1.57,2.01 -0.83,2.01 0.75,0 2.15,-2 0.83,-2 z m -2.1,0.24 c -0.75,0.1 -0.49,1.52 -0.08,1.55 0.4,0.03 0.84,-1.66 0.08,-1.55 z m -1.36,0.44 a 0.48,0.48 0 0 0 -0.13,0.03 c -0.7,0.27 -0.1,1.37 0.3,1.3 0.36,-0.07 0.4,-1.39 -0.17,-1.33 z m -0.93,0.89 a 0.38,0.38 0 0 0 -0.2,0.06 c -0.59,0.34 0.2,1.17 0.53,1.04 0.3,-0.11 0.11,-1.09 -0.33,-1.1 z m 2.71,0.67 c -1.04,-0.02 -2.41,0.52 -2.65,1.62 -0.25,1.19 1.05,2.83 2.4,2.83 0.67,0 1.43,-0.63 1.58,-1.42 0.1,-0.61 -1.38,-0.37 -1.33,0.03 0.04,0.33 -0.13,0.5 -0.37,0.5 -0.32,-0.03 -0.48,-0.22 -0.53,-0.5 -0.05,-0.74 2.28,-1.27 2.1,-2.42 -0.07,-0.42 -0.58,-0.63 -1.2,-0.64 z"
     id="path2"
     inkscape:connector-curvature="0"
     style="fill:#bde6fb;fill-opacity:1" />
</svg>
