<?xml version="1.0" encoding="UTF-8" standalone="no"?>
<svg
   width="47.546486"
   height="47.546486"
   viewBox="0 0 12.580008 12.580008"
   version="1.1"
   id="svg4"
   sodipodi:docname="gnome-boxes.svg"
   inkscape:version="0.92.4 (5da689c313, 2019-01-14)"
   xmlns:inkscape="http://www.inkscape.org/namespaces/inkscape"
   xmlns:sodipodi="http://sodipodi.sourceforge.net/DTD/sodipodi-0.dtd"
   xmlns="http://www.w3.org/2000/svg"
   xmlns:svg="http://www.w3.org/2000/svg"
   xmlns:rdf="http://www.w3.org/1999/02/22-rdf-syntax-ns#"
   xmlns:cc="http://creativecommons.org/ns#"
   xmlns:dc="http://purl.org/dc/elements/1.1/">
  <metadata
     id="metadata10">
    <rdf:RDF>
      <cc:Work
         rdf:about="">
        <dc:format>image/svg+xml</dc:format>
        <dc:type
           rdf:resource="http://purl.org/dc/dcmitype/StillImage" />
        <dc:title />
      </cc:Work>
    </rdf:RDF>
  </metadata>
  <defs
     id="defs8" />
  <sodipodi:namedview
     pagecolor="#ffffff"
     bordercolor="#666666"
     borderopacity="1"
     objecttolerance="10"
     gridtolerance="10"
     guidetolerance="10"
     inkscape:pageopacity="0"
     inkscape:pageshadow="2"
     inkscape:window-width="1087"
     inkscape:window-height="480"
     id="namedview6"
     showgrid="false"
     inkscape:zoom="4.9166667"
     inkscape:cx="2.1355932"
     inkscape:cy="24"
     inkscape:window-x="0"
     inkscape:window-y="25"
     inkscape:window-maximized="0"
     inkscape:current-layer="svg4"
     inkscape:showpageshadow="0"
     inkscape:pagecheckerboard="0"
     inkscape:deskcolor="#d1d1d1" />
  <path
     d="M 6.2900079,0 A 6.29,6.29 0 0 0 7.9490244e-6,6.3 6.29,6.29 0 0 0 6.3000079,12.58 6.29,6.29 0 0 0 12.580008,6.29 6.29,6.29 0 0 0 6.2900079,0 Z m -0.01,0.94 A 5.4,5.4 0 0 1 11.680008,6.34 5.4,5.4 0 0 1 6.2800079,11.75 5.4,5.4 0 0 1 0.87000795,6.35 5.4,5.4 0 0 1 6.2700079,0.93 Z m -2.76,1.64 a 0.93,0.93 0 0 0 -0.92,0.92 0.93,0.93 0 0 0 0.52,0.84 v 3.88 a 0.93,0.93 0 0 0 -0.52,0.84 0.93,0.93 0 0 0 0.92,0.92 0.93,0.93 0 0 0 0.84,-0.53 h 3.88 a 0.93,0.93 0 0 0 0.84,0.53 A 0.93,0.93 0 0 0 10.000008,9.06 0.93,0.93 0 0 0 9.4700079,8.22 V 4.34 A 0.93,0.93 0 0 0 10.000008,3.5 0.93,0.93 0 0 0 9.0800079,2.58 a 0.93,0.93 0 0 0 -0.84,0.52 h -3.88 a 0.93,0.93 0 0 0 -0.84,-0.52 z m 0.93,1.05 h 3.7 a 0.93,0.93 0 0 0 0.17,0.41 l -0.59,0.6 -0.13,0.12 a 0.53,0.53 0 0 0 -0.25,-0.07 0.53,0.53 0 0 0 -0.46,0.27 h -1.2 a 0.53,0.53 0 0 0 -0.46,-0.27 0.53,0.53 0 0 0 -0.25,0.07 l -0.13,-0.13 -0.59,-0.59 a 0.93,0.93 0 0 0 0.17,-0.4 z m -0.38,0.62 0.6,0.6 0.12,0.12 a 0.53,0.53 0 0 0 -0.07,0.25 0.53,0.53 0 0 0 0.27,0.46 v 1.2 a 0.53,0.53 0 0 0 -0.27,0.46 0.53,0.53 0 0 0 0.07,0.25 l -0.13,0.13 -0.59,0.59 a 0.93,0.93 0 0 0 -0.4,-0.17 V 4.43 a 0.93,0.93 0 0 0 0.4,-0.17 z m 4.48,0 a 0.93,0.93 0 0 0 0.4,0.17 v 3.71 a 0.93,0.93 0 0 0 -0.4,0.17 l -0.4,-0.4 -0.2,-0.19 -0.12,-0.13 a 0.53,0.53 0 0 0 0.07,-0.25 0.53,0.53 0 0 0 -0.27,-0.46 v -1.2 a 0.53,0.53 0 0 0 0.27,-0.46 0.53,0.53 0 0 0 -0.07,-0.25 l 0.12,-0.13 0.59,-0.59 z m -2.77,0.97 h 1.06 a 0.53,0.53 0 0 0 0.53,0.53 v 1.06 a 0.53,0.53 0 0 0 -0.53,0.53 h -1.07 a 0.53,0.53 0 0 0 -0.53,-0.53 V 5.75 a 0.53,0.53 0 0 0 0.53,-0.53 z m -0.07,2.38 h 1.2 a 0.53,0.53 0 0 0 0.46,0.27 0.53,0.53 0 0 0 0.25,-0.07 l 0.13,0.13 0.59,0.59 a 0.93,0.93 0 0 0 -0.17,0.4 h -3.72 a 0.93,0.93 0 0 0 -0.17,-0.4 l 0.59,-0.6 0.13,-0.12 a 0.53,0.53 0 0 0 0.25,0.07 0.53,0.53 0 0 0 0.46,-0.27 z"
     id="path2"
     inkscape:connector-curvature="0"
     style="fill:#bde6fb;fill-opacity:1" />
</svg>
