<?xml version="1.0" encoding="UTF-8" standalone="no"?>
<svg
   width="48"
   height="48"
   viewBox="0 0 12.7 12.7"
   version="1.1"
   id="svg4"
   sodipodi:docname="goland.svg"
   inkscape:version="0.92.5 (2060ec1f9f, 2020-04-08)"
   xmlns:inkscape="http://www.inkscape.org/namespaces/inkscape"
   xmlns:sodipodi="http://sodipodi.sourceforge.net/DTD/sodipodi-0.dtd"
   xmlns="http://www.w3.org/2000/svg"
   xmlns:svg="http://www.w3.org/2000/svg">
  <sodipodi:namedview
     id="namedview1"
     pagecolor="#505050"
     bordercolor="#eeeeee"
     borderopacity="1"
     inkscape:showpageshadow="0"
     inkscape:pageopacity="0"
     inkscape:pagecheckerboard="0"
     inkscape:deskcolor="#d1d1d1" />
  <defs
     id="defs8">
    <style
       id="current-color-scheme"
       type="text/css">&#10;      .ColorScheme-Highlight {&#10;        color:#1e3f5a;&#10;      }&#10;  </style>
  </defs>
  <path
     class="ColorScheme-Highlight"
     style="fill:#bde6fb;fill-opacity:1;stroke-width:0.264583"
     d="M 6.3499999,0 A 6.3499999,6.3499999 0 0 0 0,6.3499999 6.3499999,6.3499999 0 0 0 6.3499999,12.7 6.3499999,6.3499999 0 0 0 12.7,6.3499999 6.3499999,6.3499999 0 0 0 6.3499999,0 Z m 0,0.79374999 A 5.5562499,5.5562499 0 0 1 11.90625,6.3499999 5.5562499,5.5562499 0 0 1 6.3499999,11.90625 5.5562499,5.5562499 0 0 1 0.79374999,6.3499999 5.5562499,5.5562499 0 0 1 6.3499999,0.79374999 Z m 0,1.05833331 A 4.4979182,4.4979182 0 0 0 1.8520833,6.3499999 4.4979182,4.4979182 0 0 0 6.3499999,10.847917 4.4979182,4.4979182 0 0 0 10.847917,6.3499999 4.4979182,4.4979182 0 0 0 6.3499999,1.8520833 Z m -1.0583333,3.175 a 1.3229165,1.3229165 0 0 1 0.9348266,0.38809 L 5.852356,5.7893105 a 0.79374999,0.79374999 0 0 0 -0.5606894,-0.2330606 0.79374999,0.79374999 0 0 0 -0.79375,0.79375 0.79374999,0.79374999 0 0 0 0.79375,0.79375 0.79374999,0.79374999 0 0 0 0.5291667,-0.2036051 V 6.6884806 6.6145833 H 5.2916666 V 6.0854166 h 1.0583333 v 0.073897 0.190686 0.2645834 0.073897 0.4526854 0.00258 h -0.00206 A 1.3229165,1.3229165 0 0 1 5.2916666,7.6729166 1.3229165,1.3229165 0 0 1 3.96875,6.3499999 1.3229165,1.3229165 0 0 1 5.2916666,5.0270833 Z m 2.38125,0 c 0.5863166,0 1.0583333,0.4720166 1.0583333,1.0583333 v 0.5291667 c 0,0.5863166 -0.4720167,1.0583333 -1.0583333,1.0583333 -0.5863167,0 -1.0583333,-0.4720167 -1.0583333,-1.0583333 V 6.0854166 c 0,-0.5863167 0.4720166,-1.0583333 1.0583333,-1.0583333 z m 0,0.5291666 c -0.2931584,0 -0.5291667,0.2360084 -0.5291667,0.5291667 v 0.5291667 c 0,0.2931583 0.2360083,0.5291666 0.5291667,0.5291666 0.2931583,0 0.5291666,-0.2360083 0.5291666,-0.5291666 V 6.0854166 c 0,-0.2931583 -0.2360083,-0.5291667 -0.5291666,-0.5291667 z m -3.175,2.9104167 H 8.2020832 V 8.9958332 H 4.4979166 Z"
     id="path829" />
</svg>
