<?xml version="1.0" encoding="UTF-8" standalone="no"?>
<svg
   width="47.542679"
   height="47.546455"
   viewBox="0 0 12.579 12.58"
   version="1.1"
   id="svg4"
   sodipodi:docname="golismero.svg"
   inkscape:version="0.92.5 (2060ec1f9f, 2020-04-08)"
   xmlns:inkscape="http://www.inkscape.org/namespaces/inkscape"
   xmlns:sodipodi="http://sodipodi.sourceforge.net/DTD/sodipodi-0.dtd"
   xmlns="http://www.w3.org/2000/svg"
   xmlns:svg="http://www.w3.org/2000/svg"
   xmlns:rdf="http://www.w3.org/1999/02/22-rdf-syntax-ns#"
   xmlns:cc="http://creativecommons.org/ns#"
   xmlns:dc="http://purl.org/dc/elements/1.1/">
  <metadata
     id="metadata10">
    <rdf:RDF>
      <cc:Work
         rdf:about="">
        <dc:format>image/svg+xml</dc:format>
        <dc:type
           rdf:resource="http://purl.org/dc/dcmitype/StillImage" />
        <dc:title />
      </cc:Work>
    </rdf:RDF>
  </metadata>
  <defs
     id="defs8" />
  <sodipodi:namedview
     pagecolor="#ffffff"
     bordercolor="#666666"
     borderopacity="1"
     objecttolerance="10"
     gridtolerance="10"
     guidetolerance="10"
     inkscape:pageopacity="0"
     inkscape:pageshadow="2"
     inkscape:window-width="1085"
     inkscape:window-height="480"
     id="namedview6"
     showgrid="false"
     inkscape:zoom="4.9166667"
     inkscape:cx="2.1355932"
     inkscape:cy="24"
     inkscape:window-x="0"
     inkscape:window-y="25"
     inkscape:window-maximized="0"
     inkscape:current-layer="svg4"
     inkscape:showpageshadow="0"
     inkscape:pagecheckerboard="0"
     inkscape:deskcolor="#d1d1d1" />
  <path
     d="M 6.285,0 A 6.295,6.295 0 0 0 0,6.285 6.295,6.295 0 0 0 6.285,12.58 6.295,6.295 0 0 0 12.579,6.285 6.295,6.295 0 0 0 6.285,0 Z M 6.274,0.94 a 5.408,5.408 0 0 1 5.397,5.387 5.407,5.407 0 0 1 -10.814,0 C 0.857,3.34 3.287,0.94 6.274,0.94 Z m 4.264,2.496 c -0.016,0 -0.052,0.02 -0.11,0.063 A 4.571,4.571 0 0 1 8.685,4.321 C 7.918,4.493 7.226,4.482 5.772,4.279 4.418,4.089 3.817,4.107 3.254,4.351 2.535,4.662 1.98,5.416 1.607,6.589 1.538,6.807 1.54,6.796 1.577,6.795 c 0.016,0 0.064,-0.09 0.108,-0.199 0.1,-0.25 0.352,-0.578 0.554,-0.721 0.194,-0.138 0.456,-0.249 0.77,-0.326 0.246,-0.06 0.317,-0.062 2.13,-0.063 1.666,0 1.911,-0.007 2.187,-0.053 1.335,-0.226 2.24,-0.73 3.01,-1.68 0.167,-0.206 0.235,-0.314 0.202,-0.317 z M 9.665,5.32 A 1.7,1.7 0 0 0 9.318,5.435 7.213,7.213 0 0 1 8.648,5.663 C 8.464,5.713 8.304,5.764 8.293,5.775 8.283,5.785 8.298,5.878 8.328,5.979 8.398,6.221 8.423,6.739 8.378,7.018 8.236,7.898 7.647,8.621 6.795,8.96 6.039,9.26 4.975,9.287 3.813,9.035 3.577,8.983 3.502,8.987 3.601,9.045 3.765,9.14 4.195,9.32 4.497,9.421 5.277,9.68 5.991,9.749 6.701,9.632 A 3.406,3.406 0 0 0 8.54,8.698 C 9.206,8.053 9.594,7.21 9.703,6.164 9.734,5.866 9.718,5.364 9.676,5.322 9.676,5.321 9.672,5.32 9.666,5.32 Z M 5.866,5.853 A 0.843,0.843 0 0 0 5.336,6.04 C 5.306,6.034 4.992,6.021 4.618,6.01 L 3.913,5.992 3.876,6.079 C 3.813,6.229 3.774,6.558 3.79,6.787 3.854,7.697 4.483,8.449 5.362,8.667 5.636,8.734 6.06,8.734 6.347,8.666 6.937,8.525 7.433,8.125 7.707,7.566 7.852,7.272 7.9,7.09 7.919,6.762 7.933,6.502 7.888,6.166 7.817,6.011 7.798,5.969 7.777,5.95 7.702,5.948 A 2.382,2.382 0 0 0 7.408,5.975 C 7.287,5.991 7.008,6.011 6.787,6.02 L 6.391,6.038 A 0.843,0.843 0 0 0 5.866,5.853 Z M 6.55,6.156 A 0.27,0.27 0 0 1 6.741,6.23 C 6.759,6.246 6.774,6.26 6.785,6.273 A 0.156,0.156 0 0 1 6.824,6.378 C 6.892,6.373 6.977,6.368 7.015,6.363 7.129,6.35 7.199,6.343 7.245,6.343 7.303,6.345 7.32,6.359 7.335,6.39 7.39,6.504 7.425,6.752 7.413,6.944 A 1.263,1.263 0 0 1 7.249,7.536 1.58,1.58 0 0 1 6.189,8.348 c -0.223,0.05 -0.553,0.05 -0.766,0 C 4.739,8.188 4.249,7.633 4.199,6.962 A 1.36,1.36 0 0 1 4.266,6.441 L 4.294,6.376 4.844,6.39 5.079,6.397 A 0.843,0.843 0 0 0 5.023,6.697 0.843,0.843 0 0 0 5.866,7.539 0.843,0.843 0 0 0 6.709,6.696 0.843,0.843 0 0 0 6.707,6.658 0.18,0.18 0 0 1 6.621,6.695 0.417,0.417 0 0 1 6.491,6.69 0.295,0.295 0 0 1 6.375,6.635 0.257,0.257 0 0 1 6.301,6.539 0.252,0.252 0 0 1 6.281,6.415 0.301,0.301 0 0 1 6.396,6.206 0.268,0.268 0 0 1 6.55,6.156 Z"
     id="path2"
     inkscape:connector-curvature="0"
     style="fill:#bde6fb;fill-opacity:1" />
</svg>
