<?xml version="1.0" encoding="UTF-8" standalone="no"?>
<svg
   width="48"
   height="48"
   viewBox="0 0 12.7 12.7"
   version="1.1"
   id="svg4"
   sodipodi:docname="google-play-music-desktop-player.svg"
   inkscape:version="0.92.5 (2060ec1f9f, 2020-04-08)"
   xmlns:inkscape="http://www.inkscape.org/namespaces/inkscape"
   xmlns:sodipodi="http://sodipodi.sourceforge.net/DTD/sodipodi-0.dtd"
   xmlns="http://www.w3.org/2000/svg"
   xmlns:svg="http://www.w3.org/2000/svg">
  <sodipodi:namedview
     id="namedview1"
     pagecolor="#505050"
     bordercolor="#eeeeee"
     borderopacity="1"
     inkscape:showpageshadow="0"
     inkscape:pageopacity="0"
     inkscape:pagecheckerboard="0"
     inkscape:deskcolor="#d1d1d1" />
  <defs
     id="defs8">
    <style
       id="current-color-scheme"
       type="text/css">&#10;      .ColorScheme-Highlight {&#10;        color:#1e3f5a;&#10;      }&#10;  </style>
  </defs>
  <path
     class="ColorScheme-Highlight"
     style="fill:#bde6fb;fill-opacity:1;stroke-width:0.264583"
     d="M 6.3499999,0 A 6.3499999,6.3499999 0 0 0 0,6.3499999 6.3499999,6.3499999 0 0 0 6.3499999,12.7 6.3499999,6.3499999 0 0 0 12.7,6.3499999 6.3499999,6.3499999 0 0 0 6.3499999,0 Z m 0,0.79374999 A 5.5562499,5.5562499 0 0 1 11.90625,6.3499999 5.5562499,5.5562499 0 0 1 6.3499999,11.90625 5.5562499,5.5562499 0 0 1 0.79374999,6.3499999 5.5562499,5.5562499 0 0 1 6.3499999,0.79374999 Z"
     id="path817" />
  <path
     style="fill:#ffd429;stroke-width:0.264583"
     d="M 6.3499999,2.6458333 A 3.7041666,3.7041666 0 0 0 2.6458333,6.3499999 3.7041666,3.7041666 0 0 0 6.3499999,10.054167 3.7041666,3.7041666 0 0 0 10.054167,6.3499999 3.7041666,3.7041666 0 0 0 6.3499999,2.6458333 Z m -1.3229166,1.5875 3.7041666,2.1166666 -3.7041666,2.1166667 z"
     id="path833" />
  <path
     style="fill:#ff6500;stroke-width:0.264583"
     d="M 6.3499999,1.8520833 A 4.4979166,4.4979166 0 0 0 1.8520833,6.3499999 4.4979166,4.4979166 0 0 0 6.3499999,10.847917 4.4979166,4.4979166 0 0 0 10.847917,6.3499999 4.4979166,4.4979166 0 0 0 6.3499999,1.8520833 Z m 0,0.79375 A 3.7041666,3.7041666 0 0 1 10.054167,6.3499999 3.7041666,3.7041666 0 0 1 6.3499999,10.054167 3.7041666,3.7041666 0 0 1 2.6458333,6.3499999 3.7041666,3.7041666 0 0 1 6.3499999,2.6458333 Z"
     id="path821" />
</svg>
