<?xml version="1.0" encoding="UTF-8" standalone="no"?>
<svg
   width="47.546486"
   height="47.546486"
   viewBox="0 0 12.580008 12.580008"
   version="1.1"
   id="svg12"
   sodipodi:docname="google-chrome-unstable.svg"
   inkscape:version="0.92.4 (5da689c313, 2019-01-14)"
   xmlns:inkscape="http://www.inkscape.org/namespaces/inkscape"
   xmlns:sodipodi="http://sodipodi.sourceforge.net/DTD/sodipodi-0.dtd"
   xmlns="http://www.w3.org/2000/svg"
   xmlns:svg="http://www.w3.org/2000/svg"
   xmlns:rdf="http://www.w3.org/1999/02/22-rdf-syntax-ns#"
   xmlns:cc="http://creativecommons.org/ns#"
   xmlns:dc="http://purl.org/dc/elements/1.1/">
  <metadata
     id="metadata18">
    <rdf:RDF>
      <cc:Work
         rdf:about="">
        <dc:format>image/svg+xml</dc:format>
        <dc:type
           rdf:resource="http://purl.org/dc/dcmitype/StillImage" />
        <dc:title />
      </cc:Work>
    </rdf:RDF>
  </metadata>
  <defs
     id="defs16" />
  <sodipodi:namedview
     pagecolor="#ffffff"
     bordercolor="#666666"
     borderopacity="1"
     objecttolerance="10"
     gridtolerance="10"
     guidetolerance="10"
     inkscape:pageopacity="0"
     inkscape:pageshadow="2"
     inkscape:window-width="1087"
     inkscape:window-height="480"
     id="namedview14"
     showgrid="false"
     inkscape:zoom="4.9166667"
     inkscape:cx="2.1355932"
     inkscape:cy="24"
     inkscape:window-x="0"
     inkscape:window-y="25"
     inkscape:window-maximized="0"
     inkscape:current-layer="svg12"
     inkscape:showpageshadow="0"
     inkscape:pagecheckerboard="0"
     inkscape:deskcolor="#d1d1d1" />
  <path
     d="M 6.2900079,0 A 6.29,6.29 0 0 0 7.9490244e-6,6.3 6.29,6.29 0 0 0 6.3000079,12.58 6.29,6.29 0 0 0 12.580008,6.29 6.29,6.29 0 0 0 6.2900079,0 Z m -0.01,0.94 A 5.4,5.4 0 0 1 11.680008,6.34 5.4,5.4 0 0 1 6.2800079,11.75 5.4,5.4 0 0 1 0.87000795,6.35 5.4,5.4 0 0 1 6.2700079,0.93 Z m -0.03,3.66 a 1.71,1.71 0 0 0 -1.7,1.7 1.71,1.71 0 0 0 1.7,1.73 1.71,1.71 0 0 0 1.72,-1.71 1.71,1.71 0 0 0 -1.72,-1.72 z"
     id="path2"
     inkscape:connector-curvature="0"
     style="fill:#bde6fb;fill-opacity:1" />
  <g
     id="g10"
     style="fill:#aa0000"
     transform="translate(-0.04999205,-0.07)">
    <path
       d="m 6.33,1.58 c 0,0 2.8,-0.13 4.3,2.69 H 6.08 c 0,0 -0.86,-0.03 -1.59,1 C 4.28,5.71 4.06,6.16 4.31,7.04 L 2.38,3.7 c 0,0 1.11,-2 3.95,-2.11 z"
       id="path4"
       inkscape:connector-curvature="0" />
    <path
       d="m 10.48,8.73 c 0,0 -1.3,2.49 -4.49,2.37 L 8.26,7.18 C 8.26,7.18 8.71,6.45 8.18,5.3 7.55,4.39 6.91,4.23 6.19,4.26 h 4.42 c 0,0 1.19,1.96 -0.13,4.47 z"
       id="path6"
       inkscape:connector-curvature="0"
       style="opacity:0.4" />
    <path
       d="m 2.2,8.75 c 0,0 -1.52,-2.37 0.18,-5.06 L 4.65,7.6 c 0,0 0.4,0.75 1.67,0.87 C 6.8,8.43 7.3,8.4 7.94,7.74 7.6,8.38 6,11.1 6,11.1 6,11.1 3.71,11.14 2.2,8.75 Z"
       id="path8"
       inkscape:connector-curvature="0"
       style="opacity:0.7" />
  </g>
</svg>
