<?xml version="1.0" encoding="UTF-8" standalone="no"?>
<svg
   width="47.855667"
   height="47.855049"
   version="1.1"
   viewBox="0 0 12.661812 12.661648"
   id="svg4"
   sodipodi:docname="google-earth.svg"
   inkscape:version="0.92.4 (5da689c313, 2019-01-14)"
   xmlns:inkscape="http://www.inkscape.org/namespaces/inkscape"
   xmlns:sodipodi="http://sodipodi.sourceforge.net/DTD/sodipodi-0.dtd"
   xmlns="http://www.w3.org/2000/svg"
   xmlns:svg="http://www.w3.org/2000/svg"
   xmlns:rdf="http://www.w3.org/1999/02/22-rdf-syntax-ns#"
   xmlns:cc="http://creativecommons.org/ns#"
   xmlns:dc="http://purl.org/dc/elements/1.1/">
  <metadata
     id="metadata10">
    <rdf:RDF>
      <cc:Work
         rdf:about="">
        <dc:format>image/svg+xml</dc:format>
        <dc:type
           rdf:resource="http://purl.org/dc/dcmitype/StillImage" />
        <dc:title />
      </cc:Work>
    </rdf:RDF>
  </metadata>
  <defs
     id="defs8" />
  <sodipodi:namedview
     pagecolor="#ffffff"
     bordercolor="#666666"
     borderopacity="1"
     objecttolerance="10"
     gridtolerance="10"
     guidetolerance="10"
     inkscape:pageopacity="0"
     inkscape:pageshadow="2"
     inkscape:window-width="1136"
     inkscape:window-height="480"
     id="namedview6"
     showgrid="false"
     inkscape:zoom="4.9166667"
     inkscape:cx="2.1355932"
     inkscape:cy="24"
     inkscape:window-x="0"
     inkscape:window-y="25"
     inkscape:window-maximized="0"
     inkscape:current-layer="svg4"
     inkscape:showpageshadow="0"
     inkscape:pagecheckerboard="0"
     inkscape:deskcolor="#d1d1d1" />
  <path
     d="M 6.3736383,5.291961e-5 C 5.3784206,-0.00107731 4.3845523,0.22735095 3.5103535,0.67544628 1.8640839,1.5192448 0.80237725,2.8060297 0.22479911,4.6507608 0.09495648,5.0650402 0.00206773,5.2768365 9.2959665e-6,6.1405843 -7.8870403e-4,6.628073 0.0499197,6.9831658 0.10284361,7.2552334 0.40107818,9.3034266 1.6859051,11.030526 3.4598346,11.941739 4.1015734,12.284317 4.7919685,12.51302 5.5118907,12.607846 7.4585909,12.864144 9.410477,12.195604 10.797405,10.798171 12.726061,8.8544078 13.210745,5.9277826 12.005583,3.5031715 11.282963,2.0493044 9.9007437,0.83779257 8.3805728,0.32503653 7.7363735,0.10787191 7.0549212,3.9686961e-4 6.3739981,0 Z M 6.3100783,0.99585268 c 0.5136292,9.878e-4 1.0099019,0.075051 1.4805103,0.20980402 0.2308064,0.130258 0.4492304,0.2777296 0.651105,0.4459496 0.5158251,0.4298102 0.8769504,0.8382952 1.4681015,1.6587843 0.8628749,1.1979653 1.2705129,1.6467988 1.6293369,1.7523133 0.107718,0.4222697 0.166201,0.86433 0.167944,1.3198044 0,0.2075313 -0.0129,0.4119511 -0.03565,0.6134023 C 11.375118,6.8666157 11.013252,6.6883099 10.765023,6.5380549 9.9423912,6.0400889 8.9066399,5.1962904 7.4458673,3.8337827 6.0088539,2.4934734 5.5784352,2.147879 5.0253836,1.8912893 4.6630677,1.7231117 4.2320405,1.6353478 3.772756,1.6230846 4.5303809,1.2235688 5.393679,0.99573888 6.3100253,0.99573888 Z M 2.484516,4.2488638 C 2.727411,4.2500838 3.0145756,4.2981388 3.2560313,4.352214 3.9203123,4.5008074 4.3938047,4.9861212 6.114289,6.2125289 8.0619947,7.6010183 8.4080918,7.59996 9.7353309,8.1307339 10.104817,8.2785018 10.829158,8.2683129 11.370859,8.2449372 11.133086,8.8918618 10.776427,9.479494 10.32545,9.9833068 9.6159524,10.077778 9.1580174,9.9117515 8.3498842,9.8871906 6.6899887,9.8366743 5.3259994,9.4863519 3.0913567,8.5358747 2.5061322,8.2869234 2.1135484,8.1927144 1.8289132,8.1937728 1.5809012,8.1945554 1.417359,8.2707338 1.2770258,8.3772219 1.0314215,7.7594541 0.89256464,7.0878178 0.89256464,6.3825269 0.89256464,5.7536731 1.0055693,5.1534205 1.2036577,4.5935163 1.5552317,4.3662473 1.9064352,4.3255761 2.2599141,4.264855 2.3276891,4.253241 2.4037397,4.248429 2.4847039,4.248835 Z m 1.7032338,6.5983612 c 0.1748265,-1.93e-4 0.4299425,0.04947 0.8516301,0.149342 0.3550663,0.08384 0.8776647,0.189249 1.1616649,0.23409 0.5204289,0.08233 1.6404754,0.105593 2.3517723,0.06304 -0.6865851,0.315564 -1.4479405,0.496087 -2.2530575,0.496087 -0.9371688,0 -1.8184319,-0.238881 -2.586878,-0.658354 0.020853,-0.03979 0.051059,-0.07873 0.1054192,-0.133325 0.099874,-0.100299 0.1946542,-0.150699 0.369486,-0.150892 z"
     id="path2"
     inkscape:connector-curvature="0"
     style="fill:#bde6fb;fill-opacity:1;stroke-width:1.04387" />
</svg>
