<?xml version="1.0" encoding="UTF-8" standalone="no"?>
<svg
   width="47.546455"
   height="47.542679"
   viewBox="0 0 12.58 12.579"
   version="1.1"
   id="svg6"
   sodipodi:docname="google.svg"
   inkscape:version="0.92.4 (5da689c313, 2019-01-14)"
   xmlns:inkscape="http://www.inkscape.org/namespaces/inkscape"
   xmlns:sodipodi="http://sodipodi.sourceforge.net/DTD/sodipodi-0.dtd"
   xmlns="http://www.w3.org/2000/svg"
   xmlns:svg="http://www.w3.org/2000/svg"
   xmlns:rdf="http://www.w3.org/1999/02/22-rdf-syntax-ns#"
   xmlns:cc="http://creativecommons.org/ns#"
   xmlns:dc="http://purl.org/dc/elements/1.1/">
  <metadata
     id="metadata12">
    <rdf:RDF>
      <cc:Work
         rdf:about="">
        <dc:format>image/svg+xml</dc:format>
        <dc:type
           rdf:resource="http://purl.org/dc/dcmitype/StillImage" />
        <dc:title />
      </cc:Work>
    </rdf:RDF>
  </metadata>
  <defs
     id="defs10" />
  <sodipodi:namedview
     pagecolor="#ffffff"
     bordercolor="#666666"
     borderopacity="1"
     objecttolerance="10"
     gridtolerance="10"
     guidetolerance="10"
     inkscape:pageopacity="0"
     inkscape:pageshadow="2"
     inkscape:window-width="1087"
     inkscape:window-height="480"
     id="namedview8"
     showgrid="false"
     inkscape:zoom="4.9166667"
     inkscape:cx="2.1355932"
     inkscape:cy="24"
     inkscape:window-x="0"
     inkscape:window-y="25"
     inkscape:window-maximized="0"
     inkscape:current-layer="svg6"
     inkscape:showpageshadow="0"
     inkscape:pagecheckerboard="0"
     inkscape:deskcolor="#d1d1d1" />
  <path
     d="M 6.29,9.9999565e-4 A 6.29,6.29 0 0 0 0,6.291 6.29,6.29 0 0 0 6.29,12.579 6.29,6.29 0 0 0 12.58,6.29 6.29,6.29 0 0 0 6.29,0 Z M 6.272,0.937 A 5.407,5.407 0 0 1 11.679,6.344 5.407,5.407 0 0 1 6.272,11.751 5.407,5.407 0 0 1 0.866,6.344 5.407,5.407 0 0 1 6.272,0.938 Z"
     id="path2"
     inkscape:connector-curvature="0"
     style="fill:#bde6fb;fill-opacity:1" />
  <path
     d="M 6.93,2.312 C 6.075,2.312 5.483,2.5 4.95,2.94 4.531,3.301 4.282,3.826 4.282,4.344 c 0,0.799 0.609,1.648 1.737,1.648 0.108,0 0.228,-0.012 0.334,-0.022 L 6.338,6.009 c -0.046,0.108 -0.089,0.21 -0.089,0.37 0,0.312 0.15,0.504 0.296,0.69 L 6.564,7.092 6.531,7.095 C 6.065,7.127 5.198,7.186 4.564,7.575 3.816,8.02 3.758,8.667 3.758,8.855 c 0,0.747 0.696,1.5 2.25,1.5 1.808,0 2.754,-0.997 2.754,-1.982 0,-0.729 -0.427,-1.088 -0.88,-1.47 L 7.498,6.606 C 7.38,6.508 7.233,6.386 7.233,6.16 7.233,5.938 7.38,5.791 7.51,5.662 L 7.524,5.649 C 7.937,5.323 8.405,4.954 8.405,4.156 8.405,3.354 7.904,2.939 7.663,2.74 H 8.299 A 0.043,0.043 0 0 0 8.322,2.734 L 8.87,2.389 A 0.041,0.041 0 0 0 8.888,2.343 0.041,0.041 0 0 0 8.848,2.313 Z M 6.166,2.708 c 0.849,0 1.319,1.142 1.319,1.93 0,0.125 0,0.503 -0.262,0.766 A 1.073,1.073 0 0 1 6.511,5.698 c -0.924,0 -1.308,-1.216 -1.308,-1.867 0,-0.33 0.075,-0.585 0.23,-0.777 A 0.97,0.97 0 0 1 6.166,2.708 Z m 0.513,4.679 c 0.104,0 0.157,0 0.24,0.01 0.771,0.549 1.142,0.837 1.142,1.386 0,0.699 -0.59,1.133 -1.54,1.133 -1.101,0 -1.841,-0.515 -1.841,-1.28 0,-0.5 0.302,-0.864 0.899,-1.08 0.477,-0.16 1.094,-0.17 1.1,-0.17 z"
     id="path4"
     inkscape:connector-curvature="0"
     style="opacity:0.75;fill:#006680" />
</svg>
