<?xml version="1.0" encoding="UTF-8" standalone="no"?>
<svg
   width="47.546455"
   height="47.542679"
   viewBox="0 0 12.58 12.579"
   version="1.1"
   id="svg6"
   sodipodi:docname="google-plus.svg"
   inkscape:version="0.92.4 (5da689c313, 2019-01-14)"
   xmlns:inkscape="http://www.inkscape.org/namespaces/inkscape"
   xmlns:sodipodi="http://sodipodi.sourceforge.net/DTD/sodipodi-0.dtd"
   xmlns="http://www.w3.org/2000/svg"
   xmlns:svg="http://www.w3.org/2000/svg"
   xmlns:rdf="http://www.w3.org/1999/02/22-rdf-syntax-ns#"
   xmlns:cc="http://creativecommons.org/ns#"
   xmlns:dc="http://purl.org/dc/elements/1.1/">
  <metadata
     id="metadata12">
    <rdf:RDF>
      <cc:Work
         rdf:about="">
        <dc:format>image/svg+xml</dc:format>
        <dc:type
           rdf:resource="http://purl.org/dc/dcmitype/StillImage" />
        <dc:title />
      </cc:Work>
    </rdf:RDF>
  </metadata>
  <defs
     id="defs10" />
  <sodipodi:namedview
     pagecolor="#ffffff"
     bordercolor="#666666"
     borderopacity="1"
     objecttolerance="10"
     gridtolerance="10"
     guidetolerance="10"
     inkscape:pageopacity="0"
     inkscape:pageshadow="2"
     inkscape:window-width="1087"
     inkscape:window-height="480"
     id="namedview8"
     showgrid="false"
     inkscape:zoom="4.9166667"
     inkscape:cx="2.1355932"
     inkscape:cy="24"
     inkscape:window-x="0"
     inkscape:window-y="25"
     inkscape:window-maximized="0"
     inkscape:current-layer="svg6"
     inkscape:showpageshadow="0"
     inkscape:pagecheckerboard="0"
     inkscape:deskcolor="#d1d1d1" />
  <path
     d="M 6.29,9.9999565e-4 A 6.29,6.29 0 0 0 0,6.291 6.29,6.29 0 0 0 6.29,12.579 6.29,6.29 0 0 0 12.58,6.29 6.29,6.29 0 0 0 6.29,0 Z M 6.272,0.937 A 5.407,5.407 0 0 1 11.679,6.344 5.407,5.407 0 0 1 6.272,11.751 5.407,5.407 0 0 1 0.866,6.344 5.407,5.407 0 0 1 6.272,0.938 Z"
     id="path2"
     inkscape:connector-curvature="0"
     style="fill:#bde6fb;fill-opacity:1" />
  <path
     d="m 5.526,2.083 c -0.892,0 -1.51,0.195 -2.066,0.654 -0.436,0.377 -0.697,0.925 -0.697,1.466 0,0.833 0.635,1.72 1.812,1.72 0.113,0 0.239,-0.014 0.35,-0.023 L 4.908,5.94 C 4.861,6.053 4.816,6.16 4.816,6.326 c 0,0.325 0.157,0.526 0.308,0.72 L 5.143,7.07 5.11,7.072 C 4.624,7.105 3.719,7.167 3.058,7.573 2.278,8.037 2.217,8.712 2.217,8.907 c 0,0.78 0.726,1.566 2.347,1.566 1.886,0 2.872,-1.04 2.872,-2.068 0,-0.76 -0.445,-1.135 -0.918,-1.533 l -0.4,-0.31 C 5.995,6.459 5.843,6.332 5.843,6.096 5.843,5.865 5.996,5.712 6.131,5.577 L 6.146,5.563 c 0.43,-0.34 0.92,-0.724 0.92,-1.557 0,-0.837 -0.524,-1.269 -0.775,-1.477 h 0.664 c 0.008,0 0.016,0 0.023,-0.011 L 7.549,2.158 C 7.565,2.146 7.573,2.128 7.568,2.109 A 0.044,0.044 0 0 0 7.526,2.078 Z M 4.729,2.497 c 0.886,0 1.375,1.19 1.375,2.013 0,0.13 0,0.525 -0.273,0.8 A 1.119,1.119 0 0 1 5.089,5.616 c -0.965,0 -1.365,-1.269 -1.365,-1.948 0,-0.345 0.078,-0.61 0.24,-0.81 C 4.139,2.638 4.44,2.497 4.729,2.497 Z M 8.78,4.907 A 0.045,0.045 0 0 0 8.736,4.952 v 1.05 H 7.688 A 0.043,0.043 0 0 0 7.644,6.046 v 0.46 c 0,0.023 0.02,0.043 0.044,0.043 h 1.048 v 1.059 c 0,0.023 0.02,0.044 0.044,0.044 h 0.454 c 0.024,0 0.042,-0.02 0.042,-0.044 v -1.06 h 1.055 c 0.024,0 0.044,-0.02 0.044,-0.044 V 6.044 A 0.043,0.043 0 0 0 10.331,6.002 H 9.276 V 4.952 A 0.044,0.044 0 0 0 9.234,4.908 Z M 5.264,7.378 c 0.109,0 0.163,0 0.25,0.013 0.804,0.572 1.192,0.873 1.192,1.446 0,0.729 -0.615,1.182 -1.606,1.182 -1.15,0 -1.922,-0.537 -1.922,-1.336 0,-0.522 0.316,-0.9 0.938,-1.126 C 4.614,7.389 5.258,7.381 5.264,7.381 Z"
     id="path4"
     inkscape:connector-curvature="0"
     style="opacity:0.75;fill:#d40000" />
</svg>
