<?xml version="1.0" encoding="UTF-8" standalone="no"?>
<svg
   width="47.546455"
   height="47.542679"
   viewBox="0 0 12.58 12.579"
   version="1.1"
   id="svg10"
   sodipodi:docname="google-chrome.svg"
   inkscape:version="0.92.4 (5da689c313, 2019-01-14)"
   xmlns:inkscape="http://www.inkscape.org/namespaces/inkscape"
   xmlns:sodipodi="http://sodipodi.sourceforge.net/DTD/sodipodi-0.dtd"
   xmlns="http://www.w3.org/2000/svg"
   xmlns:svg="http://www.w3.org/2000/svg"
   xmlns:rdf="http://www.w3.org/1999/02/22-rdf-syntax-ns#"
   xmlns:cc="http://creativecommons.org/ns#"
   xmlns:dc="http://purl.org/dc/elements/1.1/">
  <metadata
     id="metadata16">
    <rdf:RDF>
      <cc:Work
         rdf:about="">
        <dc:format>image/svg+xml</dc:format>
        <dc:type
           rdf:resource="http://purl.org/dc/dcmitype/StillImage" />
        <dc:title />
      </cc:Work>
    </rdf:RDF>
  </metadata>
  <defs
     id="defs14" />
  <sodipodi:namedview
     pagecolor="#ffffff"
     bordercolor="#666666"
     borderopacity="1"
     objecttolerance="10"
     gridtolerance="10"
     guidetolerance="10"
     inkscape:pageopacity="0"
     inkscape:pageshadow="2"
     inkscape:window-width="1087"
     inkscape:window-height="480"
     id="namedview12"
     showgrid="false"
     inkscape:zoom="4.9166667"
     inkscape:cx="2.1355932"
     inkscape:cy="24"
     inkscape:window-x="0"
     inkscape:window-y="25"
     inkscape:window-maximized="0"
     inkscape:current-layer="svg10"
     inkscape:showpageshadow="0"
     inkscape:pagecheckerboard="0"
     inkscape:deskcolor="#d1d1d1" />
  <path
     d="M 6.29,9.9999565e-4 A 6.29,6.29 0 0 0 0,6.291 6.29,6.29 0 0 0 6.29,12.579 6.29,6.29 0 0 0 12.58,6.29 6.29,6.29 0 0 0 6.29,0 Z M 6.272,0.937 A 5.407,5.407 0 0 1 11.679,6.344 5.407,5.407 0 0 1 6.272,11.751 5.407,5.407 0 0 1 0.866,6.344 5.407,5.407 0 0 1 6.272,0.938 Z M 6.26,4.593 A 1.712,1.712 0 0 0 4.548,6.304 1.712,1.712 0 0 0 6.26,8.016 1.712,1.712 0 0 0 7.971,6.304 1.712,1.712 0 0 0 6.26,4.593 Z"
     id="path2"
     inkscape:connector-curvature="0"
     style="fill:#bde6fb;fill-opacity:1" />
  <path
     d="m 6.272,1.504 c 0,0 2.808,-0.126 4.296,2.691 H 6.033 c 0,0 -0.856,-0.027 -1.587,1.01 C 4.236,5.638 4.011,6.087 4.264,6.97 3.899,6.353 2.326,3.62 2.326,3.62 c 0,0 1.11,-2.004 3.946,-2.116 z"
     id="path4"
     inkscape:connector-curvature="0"
     style="opacity:0.9;fill:#e16b5a" />
  <path
     d="m 10.422,8.656 c 0,0 -1.295,2.49 -4.483,2.368 l 2.268,-3.92 c 0,0 0.453,-0.726 -0.082,-1.876 C 7.497,4.317 6.855,4.16 6.138,4.187 6.856,4.173 10.559,4.19 10.559,4.19 c 0,0 1.184,1.961 -0.137,4.469 z"
     id="path6"
     inkscape:connector-curvature="0"
     style="opacity:0.9;fill:#ffd464" />
  <path
     d="m 2.142,8.675 c 0,0 -1.513,-2.365 0.187,-5.06 l 2.267,3.923 c 0,0 0.403,0.754 1.668,0.867 C 6.746,8.37 7.248,8.339 7.888,7.68 7.535,8.304 5.95,11.03 5.95,11.03 c 0,0 -2.294,0.042 -3.808,-2.354 z"
     id="path8"
     inkscape:connector-curvature="0"
     style="opacity:0.9;fill:#74b340" />
</svg>
