<?xml version="1.0" encoding="UTF-8" standalone="no"?>
<svg
   width="47.546455"
   height="47.542679"
   viewBox="0 0 12.58 12.579"
   version="1.1"
   id="svg17"
   sodipodi:docname="gparted.svg"
   inkscape:version="0.92.4 (5da689c313, 2019-01-14)"
   xmlns:inkscape="http://www.inkscape.org/namespaces/inkscape"
   xmlns:sodipodi="http://sodipodi.sourceforge.net/DTD/sodipodi-0.dtd"
   xmlns="http://www.w3.org/2000/svg"
   xmlns:svg="http://www.w3.org/2000/svg"
   xmlns:rdf="http://www.w3.org/1999/02/22-rdf-syntax-ns#"
   xmlns:cc="http://creativecommons.org/ns#"
   xmlns:dc="http://purl.org/dc/elements/1.1/">
  <metadata
     id="metadata21">
    <rdf:RDF>
      <cc:Work
         rdf:about="">
        <dc:format>image/svg+xml</dc:format>
        <dc:type
           rdf:resource="http://purl.org/dc/dcmitype/StillImage" />
        <dc:title />
      </cc:Work>
    </rdf:RDF>
  </metadata>
  <sodipodi:namedview
     pagecolor="#ffffff"
     bordercolor="#666666"
     borderopacity="1"
     objecttolerance="10"
     gridtolerance="10"
     guidetolerance="10"
     inkscape:pageopacity="0"
     inkscape:pageshadow="2"
     inkscape:window-width="1087"
     inkscape:window-height="480"
     id="namedview19"
     showgrid="false"
     inkscape:zoom="4.9166667"
     inkscape:cx="2.1355932"
     inkscape:cy="24"
     inkscape:window-x="0"
     inkscape:window-y="25"
     inkscape:window-maximized="0"
     inkscape:current-layer="svg17"
     inkscape:showpageshadow="0"
     inkscape:pagecheckerboard="0"
     inkscape:deskcolor="#d1d1d1" />
  <defs
     id="defs7">
    <linearGradient
       id="a"
       x2="0"
       y1="36"
       y2="12"
       gradientTransform="matrix(0.15434,0,0,0.15434,2.646,2.646)"
       gradientUnits="userSpaceOnUse">
      <stop
         stop-color="#06a370"
         id="stop2" />
      <stop
         offset="1"
         stop-color="#22d1b0"
         id="stop4" />
    </linearGradient>
  </defs>
  <path
     d="M 6.29,9.9999565e-4 A 6.29,6.29 0 0 0 0,6.291 6.29,6.29 0 0 0 6.29,12.579 6.29,6.29 0 0 0 12.58,6.29 6.29,6.29 0 0 0 6.29,0 Z M 6.272,0.937 A 5.407,5.407 0 0 1 11.679,6.344 5.407,5.407 0 0 1 6.272,11.751 5.407,5.407 0 0 1 0.866,6.344 5.407,5.407 0 0 1 6.272,0.938 Z"
     id="path9"
     inkscape:connector-curvature="0"
     style="fill:#bde6fb;fill-opacity:1" />
  <path
     d="M 6.296,1.251 A 5.016,5.016 0 0 0 1.269,6.278 h 1.76 A 3.26,3.26 0 0 1 6.296,3.01 Z M 9.564,6.278 A 3.26,3.26 0 0 1 6.296,9.546 v 1.76 a 5.016,5.016 0 0 0 5.027,-5.028 z"
     id="path11"
     inkscape:connector-curvature="0"
     style="fill:#bde6fb;fill-opacity:1" />
  <path
     d="M 6.296,3.103 A 3.168,3.168 0 0 0 3.121,6.278 c 0,1.759 1.416,3.175 3.175,3.175 1.759,0 3.175,-1.416 3.175,-3.175 H 8.164 A 1.864,1.864 0 0 1 6.296,8.146 1.864,1.864 0 0 1 4.428,6.278 C 4.428,5.243 5.261,4.41 6.296,4.41 Z"
     id="path13"
     inkscape:connector-curvature="0"
     style="opacity:0.75;fill:#bde6fb;fill-opacity:1" />
  <path
     d="M 6.296,4.426 A 1.848,1.848 0 0 0 4.444,6.278 c 0,1.026 0.826,1.852 1.852,1.852 1.026,0 1.852,-0.826 1.852,-1.852 A 1.848,1.848 0 0 0 6.296,4.426 m 0,0.772 c 0.599,0 1.08,0.481 1.08,1.08 0,0.599 -0.481,1.08 -1.08,1.08 -0.599,0 -1.08,-0.481 -1.08,-1.08 0,-0.599 0.481,-1.08 1.08,-1.08"
     id="path15"
     style="opacity:0.7;fill:url(#a)"
     inkscape:connector-curvature="0" />
</svg>
