<?xml version="1.0" encoding="UTF-8" standalone="no"?>
<svg
   width="47.546486"
   height="47.546486"
   viewBox="0 0 12.580008 12.580008"
   version="1.1"
   id="svg4"
   sodipodi:docname="gpick.svg"
   inkscape:version="0.92.4 (5da689c313, 2019-01-14)"
   xmlns:inkscape="http://www.inkscape.org/namespaces/inkscape"
   xmlns:sodipodi="http://sodipodi.sourceforge.net/DTD/sodipodi-0.dtd"
   xmlns="http://www.w3.org/2000/svg"
   xmlns:svg="http://www.w3.org/2000/svg"
   xmlns:rdf="http://www.w3.org/1999/02/22-rdf-syntax-ns#"
   xmlns:cc="http://creativecommons.org/ns#"
   xmlns:dc="http://purl.org/dc/elements/1.1/">
  <metadata
     id="metadata10">
    <rdf:RDF>
      <cc:Work
         rdf:about="">
        <dc:format>image/svg+xml</dc:format>
        <dc:type
           rdf:resource="http://purl.org/dc/dcmitype/StillImage" />
        <dc:title />
      </cc:Work>
    </rdf:RDF>
  </metadata>
  <defs
     id="defs8" />
  <sodipodi:namedview
     pagecolor="#ffffff"
     bordercolor="#666666"
     borderopacity="1"
     objecttolerance="10"
     gridtolerance="10"
     guidetolerance="10"
     inkscape:pageopacity="0"
     inkscape:pageshadow="2"
     inkscape:window-width="1087"
     inkscape:window-height="480"
     id="namedview6"
     showgrid="false"
     inkscape:zoom="4.9166667"
     inkscape:cx="2.1355932"
     inkscape:cy="24"
     inkscape:window-x="0"
     inkscape:window-y="25"
     inkscape:window-maximized="0"
     inkscape:current-layer="svg4"
     inkscape:showpageshadow="0"
     inkscape:pagecheckerboard="0"
     inkscape:deskcolor="#d1d1d1" />
  <path
     d="M 6.2900079,0 A 6.29,6.29 0 0 0 7.9490244e-6,6.3 6.29,6.29 0 0 0 6.3000079,12.58 6.29,6.29 0 0 0 12.580008,6.29 6.29,6.29 0 0 0 6.2900079,0 Z m -0.02,0.93 0.01,0.01 A 5.4,5.4 0 0 1 11.680008,6.34 5.4,5.4 0 0 1 6.2800079,11.75 5.4,5.4 0 0 1 0.87000795,6.35 5.4,5.4 0 0 1 6.2700079,0.93 Z m 2.624,1.813 a 0.94,0.94 0 0 0 -0.666,0.276 l -0.255,0.254 a 0.35037159,0.35037159 0 0 0 -0.495,0.496 l 0.083,0.082 -2.749,2.749 -0.954,0.954 a 0.43,0.43 0 0 0 -0.126,0.285 l -0.002,0.05 V 7.89 l -0.039,0.863 a 0.143,0.143 0 0 0 0.143,0.15 h 0.007 l 0.457,-0.021 0.28,-0.012 0.126,-0.006 a 0.564,0.564 0 0 0 0.372,-0.165 l 3.667,-3.666 0.068,0.069 a 0.349,0.349 0 0 0 0.496,0 0.35,0.35 0 0 0 0,-0.495 l 0.254,-0.255 a 0.943,0.943 0 0 0 -0.667,-1.609 z m -1.168,1.603 0.522,0.522 -1.335,1.336 -1.288,0.242 2.1,-2.1 z m -3.981,4.85 c -0.543,0 -0.982,0.138 -0.982,0.31 0,0.172 0.44,0.31 0.982,0.31 0.542,0 0.981,-0.138 0.981,-0.31 0,-0.172 -0.44,-0.31 -0.981,-0.31 z"
     id="path2"
     inkscape:connector-curvature="0"
     style="fill:#bde6fb;fill-opacity:1" />
</svg>
