<?xml version="1.0" encoding="UTF-8" standalone="no"?>
<svg
   width="47.546455"
   height="47.546455"
   viewBox="0 0 12.58 12.58"
   version="1.1"
   id="svg4"
   sodipodi:docname="gpodder.svg"
   inkscape:version="0.92.4 (5da689c313, 2019-01-14)"
   xmlns:inkscape="http://www.inkscape.org/namespaces/inkscape"
   xmlns:sodipodi="http://sodipodi.sourceforge.net/DTD/sodipodi-0.dtd"
   xmlns="http://www.w3.org/2000/svg"
   xmlns:svg="http://www.w3.org/2000/svg"
   xmlns:rdf="http://www.w3.org/1999/02/22-rdf-syntax-ns#"
   xmlns:cc="http://creativecommons.org/ns#"
   xmlns:dc="http://purl.org/dc/elements/1.1/">
  <metadata
     id="metadata10">
    <rdf:RDF>
      <cc:Work
         rdf:about="">
        <dc:format>image/svg+xml</dc:format>
        <dc:type
           rdf:resource="http://purl.org/dc/dcmitype/StillImage" />
        <dc:title />
      </cc:Work>
    </rdf:RDF>
  </metadata>
  <defs
     id="defs8" />
  <sodipodi:namedview
     pagecolor="#ffffff"
     bordercolor="#666666"
     borderopacity="1"
     objecttolerance="10"
     gridtolerance="10"
     guidetolerance="10"
     inkscape:pageopacity="0"
     inkscape:pageshadow="2"
     inkscape:window-width="1138"
     inkscape:window-height="480"
     id="namedview6"
     showgrid="false"
     inkscape:zoom="4.9166667"
     inkscape:cx="2.1355932"
     inkscape:cy="24"
     inkscape:window-x="0"
     inkscape:window-y="25"
     inkscape:window-maximized="0"
     inkscape:current-layer="svg4"
     inkscape:showpageshadow="0"
     inkscape:pagecheckerboard="0"
     inkscape:deskcolor="#d1d1d1" />
  <path
     d="M 6.29,9.9999768e-4 A 6.29,6.29 0 0 0 0,6.291 6.29,6.29 0 0 0 6.29,12.58 6.29,6.29 0 0 0 12.58,6.29 6.29,6.29 0 0 0 6.29,0 Z M 6.272,0.938 A 5.407,5.407 0 0 1 11.679,6.345 5.407,5.407 0 0 1 6.272,11.752 5.407,5.407 0 0 1 0.866,6.345 5.407,5.407 0 0 1 6.272,0.939 Z m -0.13,1.086 a 2.97,2.97 0 0 0 -0.28,0.02 C 4.371,2.208 3.282,3.436 3.383,4.809 L 2.988,4.854 3.185,6.657 3.51,6.619 A 4.198,4.198 0 0 1 3.516,5.912 C 3.553,5.492 3.646,5.104 3.784,4.764 H 3.764 C 3.687,3.588 4.621,2.541 5.9,2.4 7.108,2.267 8.194,2.994 8.462,4.057 l 0.05,0.07 C 8.788,4.551 8.973,5.111 9.035,5.733 9.044,5.823 9.051,5.912 9.054,6 L 9.436,5.956 9.239,4.146 8.882,4.185 C 8.686,2.918 7.51,2.002 6.142,2.025 Z M 6.038,3.529 c -0.233,0.01 -0.4,0.26 -0.524,0.613 A 0.605,0.605 0 0 0 5.059,3.987 C 4.513,4.049 4.018,4.889 3.925,5.95 3.825,7.081 4.222,8.03 4.81,8.078 5.053,8.098 5.288,7.955 5.489,7.707 5.732,8.29 5.763,8.978 2.929,8.461 2.439,8.371 2.405,8.647 2.379,9.307 2.352,9.967 4.382,10.198 7.052,10.047 8.046,9.966 10.151,9.932 10.209,8.767 10.267,7.603 9.79,8.07 8.946,8.264 7.501,8.597 7.319,8.261 7.276,7.731 7.431,7.86 7.596,7.928 7.767,7.912 8.355,7.858 8.739,6.902 8.627,5.771 8.515,4.641 7.947,3.767 7.359,3.821 7.06,3.859 6.809,4.138 6.696,4.323 6.53,3.873 6.329,3.518 6.038,3.529 Z m 1.2,0.53 C 7.369,4.047 7.498,4.086 7.62,4.168 7.743,4.25 7.858,4.373 7.96,4.53 8.062,4.687 8.15,4.877 8.22,5.09 8.29,5.303 8.34,5.54 8.365,5.791 8.39,6.042 8.387,6.284 8.361,6.505 A 2.346,2.346 0 0 1 8.216,7.101 C 8.146,7.273 8.058,7.415 7.954,7.517 A 0.58,0.58 0 0 1 7.601,7.693 0.587,0.587 0 0 1 7.218,7.583 1.785,1.785 0 0 1 6.951,7.376 2.694,2.694 0 0 1 6.661,6.752 3.759,3.759 0 0 1 6.499,5.962 3.737,3.737 0 0 1 6.503,5.159 C 6.529,4.895 6.605,4.659 6.701,4.449 6.742,4.413 6.801,4.347 6.885,4.235 A 0.58,0.58 0 0 1 7.239,4.059 Z M 5.195,4.206 a 0.581,0.581 0 0 1 0.452,0.172 l 0.208,0.285 c 0.08,0.192 0.152,0.4 0.184,0.65 0.033,0.248 0.038,0.52 0.014,0.802 C 6.028,6.398 5.975,6.665 5.9,6.906 5.883,6.961 5.86,7.009 5.841,7.06 5.863,7.002 5.885,6.944 5.904,6.882 5.843,7.058 5.774,7.227 5.689,7.362 5.589,7.519 5.476,7.644 5.354,7.727 A 0.585,0.585 0 0 1 4.974,7.84 0.58,0.58 0 0 1 4.619,7.669 1.215,1.215 0 0 1 4.352,7.256 2.34,2.34 0 0 1 4.199,6.663 3.307,3.307 0 0 1 4.187,5.95 C 4.207,5.714 4.251,5.49 4.311,5.287 4.371,5.084 4.45,4.901 4.54,4.745 4.63,4.59 4.734,4.461 4.844,4.369 a 0.67,0.67 0 0 1 0.35,-0.163 z m 2.406,1.546 c -0.274,0 -0.497,0.274 -0.497,0.612 0,0.338 0.223,0.612 0.497,0.612 0.275,0 0.497,-0.274 0.497,-0.612 0,-0.338 -0.222,-0.612 -0.497,-0.612 z M 4.951,5.918 C 4.676,5.921 4.456,6.198 4.46,6.536 4.464,6.874 4.689,7.145 4.963,7.141 5.238,7.138 5.458,6.861 5.453,6.523 5.45,6.186 5.225,5.915 4.95,5.918 Z"
     id="path2"
     inkscape:connector-curvature="0"
     style="fill:#bde6fb;fill-opacity:1" />
</svg>
