<?xml version="1.0" encoding="UTF-8" standalone="no"?>
<svg
   width="47.542679"
   height="47.546455"
   viewBox="0 0 12.579 12.58"
   version="1.1"
   id="svg6"
   sodipodi:docname="gqrx.svg"
   inkscape:version="0.92.5 (2060ec1f9f, 2020-04-08)"
   xmlns:inkscape="http://www.inkscape.org/namespaces/inkscape"
   xmlns:sodipodi="http://sodipodi.sourceforge.net/DTD/sodipodi-0.dtd"
   xmlns="http://www.w3.org/2000/svg"
   xmlns:svg="http://www.w3.org/2000/svg"
   xmlns:rdf="http://www.w3.org/1999/02/22-rdf-syntax-ns#"
   xmlns:cc="http://creativecommons.org/ns#"
   xmlns:dc="http://purl.org/dc/elements/1.1/">
  <metadata
     id="metadata12">
    <rdf:RDF>
      <cc:Work
         rdf:about="">
        <dc:format>image/svg+xml</dc:format>
        <dc:type
           rdf:resource="http://purl.org/dc/dcmitype/StillImage" />
        <dc:title />
      </cc:Work>
    </rdf:RDF>
  </metadata>
  <defs
     id="defs10" />
  <sodipodi:namedview
     pagecolor="#ffffff"
     bordercolor="#666666"
     borderopacity="1"
     objecttolerance="10"
     gridtolerance="10"
     guidetolerance="10"
     inkscape:pageopacity="0"
     inkscape:pageshadow="2"
     inkscape:window-width="1085"
     inkscape:window-height="480"
     id="namedview8"
     showgrid="false"
     inkscape:zoom="4.9166667"
     inkscape:cx="2.1355932"
     inkscape:cy="24"
     inkscape:window-x="0"
     inkscape:window-y="25"
     inkscape:window-maximized="0"
     inkscape:current-layer="svg6"
     inkscape:showpageshadow="0"
     inkscape:pagecheckerboard="0"
     inkscape:deskcolor="#d1d1d1" />
  <path
     d="M 3.527,2.801 3.337,3.603 2.512,7.513 H 0.998 a 5.407,5.407 0 0 0 0.008,0.045 5.407,5.407 0 0 0 0.08,0.27 h 1.747 l 0.682,-3.253 0.98,5.017 0.186,0.86 0.187,-0.86 0.421,-2.385 H 6.737 L 6.951,6.654 7.627,8.688 8.126,7.814 h 3.323 A 5.407,5.407 0 0 0 11.531,7.498 H 7.889 L 7.722,7.784 6.975,5.543 6.458,6.89 H 4.963 L 4.673,8.525 3.711,3.607 Z m 5.095,0.34 h 0.896 z m 0,0.497 h 0.896 z m 0,0.498 h 0.896 z m 0,0.497 C 8.56,4.633 8.51,4.67 8.51,4.716 v 0.083 c 0,0.046 0.05,0.083 0.112,0.083 h 0.896 c 0.062,0 0.111,-0.037 0.111,-0.083 V 4.716 C 9.629,4.67 9.579,4.633 9.518,4.633 Z m 0,0.498 C 8.56,5.131 8.51,5.168 8.51,5.214 v 0.083 c 0,0.046 0.05,0.082 0.112,0.082 h 0.896 c 0.062,0 0.111,-0.036 0.111,-0.082 V 5.214 c 0,-0.046 -0.05,-0.083 -0.111,-0.083 z"
     id="path2"
     inkscape:connector-curvature="0"
     style="opacity:0.75;fill:#d45500;fill-rule:evenodd" />
  <path
     d="M 6.285,0 A 6.295,6.295 0 0 0 0,6.285 6.295,6.295 0 0 0 6.285,12.58 6.295,6.295 0 0 0 12.579,6.285 6.295,6.295 0 0 0 6.285,0 Z M 6.274,0.94 a 5.408,5.408 0 0 1 5.397,5.387 5.407,5.407 0 0 1 -10.814,0 C 0.857,3.34 3.287,0.94 6.274,0.94 Z m 2.348,2.2 C 8.56,3.14 8.51,3.178 8.51,3.224 v 0.082 c 0,0.046 0.05,0.083 0.112,0.083 h 0.896 c 0.062,0 0.111,-0.037 0.111,-0.083 V 3.225 c 0,-0.046 -0.05,-0.083 -0.111,-0.083 z m 0,0.498 C 8.56,3.638 8.51,3.675 8.51,3.721 v 0.083 c 0,0.046 0.05,0.083 0.112,0.083 H 9.518 C 9.58,3.887 9.629,3.85 9.629,3.804 V 3.721 c 0,-0.046 -0.05,-0.083 -0.111,-0.083 z m 0,0.498 C 8.56,4.136 8.51,4.173 8.51,4.219 v 0.082 c 0,0.046 0.05,0.083 0.112,0.083 h 0.896 c 0.062,0 0.111,-0.037 0.111,-0.083 V 4.219 c 0,-0.046 -0.05,-0.083 -0.111,-0.083 z"
     id="path4"
     inkscape:connector-curvature="0"
     style="fill:#bde6fb;fill-opacity:1" />
</svg>
