<?xml version="1.0" encoding="UTF-8" standalone="no"?>
<svg
   width="47.546486"
   height="47.546486"
   viewBox="0 0 12.580008 12.580008"
   version="1.1"
   id="svg4"
   sodipodi:docname="granatier.svg"
   inkscape:version="0.92.4 (5da689c313, 2019-01-14)"
   xmlns:inkscape="http://www.inkscape.org/namespaces/inkscape"
   xmlns:sodipodi="http://sodipodi.sourceforge.net/DTD/sodipodi-0.dtd"
   xmlns="http://www.w3.org/2000/svg"
   xmlns:svg="http://www.w3.org/2000/svg"
   xmlns:rdf="http://www.w3.org/1999/02/22-rdf-syntax-ns#"
   xmlns:cc="http://creativecommons.org/ns#"
   xmlns:dc="http://purl.org/dc/elements/1.1/">
  <metadata
     id="metadata10">
    <rdf:RDF>
      <cc:Work
         rdf:about="">
        <dc:format>image/svg+xml</dc:format>
        <dc:type
           rdf:resource="http://purl.org/dc/dcmitype/StillImage" />
        <dc:title />
      </cc:Work>
    </rdf:RDF>
  </metadata>
  <defs
     id="defs8" />
  <sodipodi:namedview
     pagecolor="#ffffff"
     bordercolor="#666666"
     borderopacity="1"
     objecttolerance="10"
     gridtolerance="10"
     guidetolerance="10"
     inkscape:pageopacity="0"
     inkscape:pageshadow="2"
     inkscape:window-width="1087"
     inkscape:window-height="480"
     id="namedview6"
     showgrid="false"
     inkscape:zoom="4.9166667"
     inkscape:cx="2.1355932"
     inkscape:cy="24"
     inkscape:window-x="0"
     inkscape:window-y="25"
     inkscape:window-maximized="0"
     inkscape:current-layer="svg4"
     inkscape:showpageshadow="0"
     inkscape:pagecheckerboard="0"
     inkscape:deskcolor="#d1d1d1" />
  <path
     d="M 6.2900079,0 A 6.29,6.29 0 0 0 7.9490244e-6,6.3 6.29,6.29 0 0 0 6.3000079,12.58 6.29,6.29 0 0 0 12.580008,6.29 6.29,6.29 0 0 0 6.2900079,0 Z m -0.01,0.94 A 5.4,5.4 0 0 1 11.680008,6.34 5.4,5.4 0 0 1 6.2800079,11.75 5.4,5.4 0 0 1 0.87000795,6.35 5.4,5.4 0 0 1 6.2700079,0.93 Z m 2.86,1.7 h -0.15 v 0.78 h 0.15 z m -0.79,0.24 -0.1,0.1 0.55,0.56 0.1,-0.1 z m 1.46,0.15 -0.55,0.55 0.1,0.1 0.56,-0.55 -0.1,-0.1 z m -0.33,0.76 V 3.94 H 10.260008 V 3.79 Z m -0.55,0.03 -0.86,0.85 -0.42,-0.42 a 0.2,0.2 0 0 0 -0.28,0 l -0.49,0.49 a 3.19,3.19 0 0 0 -4.63,2.75 v 0.1 a 3.19,3.19 0 1 0 6.04,-1.44 l 0.49,-0.49 a 0.2,0.2 0 0 0 0,-0.28 l -0.48,-0.48 0.86,-0.86 z m 0.6,0.25 -0.1,0.1 0.55,0.55 0.1000001,-0.1 z m -4.74,0.9 a 0.65,0.47 0 0 1 0.65,0.47 0.65,0.47 0 0 1 -0.65,0.46 0.65,0.47 0 0 1 -0.65,-0.46 0.65,0.47 0 0 1 0.65,-0.47 z m -1.12,1.16 a 0.61,1.16 12.98 0 1 0.1,0 0.61,1.16 12.98 0 1 0.34,1.28 0.61,1.16 12.98 0 1 -0.86,1 0.61,1.16 12.98 0 1 -0.33,-1.28 0.61,1.16 12.98 0 1 0.75,-1 z"
     id="path2"
     inkscape:connector-curvature="0"
     style="fill:#bde6fb;fill-opacity:1" />
</svg>
