<?xml version="1.0" encoding="UTF-8" standalone="no"?>
<svg
   width="48"
   height="48"
   viewBox="0 0 12.7 12.7"
   version="1.1"
   id="svg4"
   sodipodi:docname="grip.svg"
   inkscape:version="0.92.5 (2060ec1f9f, 2020-04-08)"
   xmlns:inkscape="http://www.inkscape.org/namespaces/inkscape"
   xmlns:sodipodi="http://sodipodi.sourceforge.net/DTD/sodipodi-0.dtd"
   xmlns="http://www.w3.org/2000/svg"
   xmlns:svg="http://www.w3.org/2000/svg">
  <sodipodi:namedview
     id="namedview1"
     pagecolor="#505050"
     bordercolor="#eeeeee"
     borderopacity="1"
     inkscape:showpageshadow="0"
     inkscape:pageopacity="0"
     inkscape:pagecheckerboard="0"
     inkscape:deskcolor="#d1d1d1" />
  <defs
     id="defs8">
    <style
       id="current-color-scheme"
       type="text/css">&#10;      .ColorScheme-Highlight {&#10;        color:#1e3f5a;&#10;      }&#10;  </style>
  </defs>
  <path
     class="ColorScheme-Highlight"
     style="fill:#bde6fb;fill-opacity:1;stroke-width:0.264583"
     d="M 6.3499999,0 A 6.3499999,6.3499999 0 0 0 0,6.3499999 6.3499999,6.3499999 0 0 0 6.3499999,12.7 6.3499999,6.3499999 0 0 0 9.2562824,11.989449 L 7.1437499,9.5249999 h 1.5875 V 8.0206989 A 2.9104166,2.9104166 0 0 1 6.3499999,9.2604166 2.9104166,2.9104166 0 0 1 3.4395833,6.3499999 2.9104166,2.9104166 0 0 1 6.3499999,3.4395833 2.9104166,2.9104166 0 0 1 9.245947,6.0854166 H 11.90625 V 9.4097614 A 6.3499999,6.3499999 0 0 0 12.7,6.3499999 6.3499999,6.3499999 0 0 0 6.3499999,0 Z m 0,4.4979166 A 1.8520833,1.8520833 0 0 0 4.4979166,6.3499999 1.8520833,1.8520833 0 0 0 6.3499999,8.2020832 1.8520833,1.8520833 0 0 0 8.2020832,6.3499999 1.8520833,1.8520833 0 0 0 6.3499999,4.4979166 Z m 0,0.79375 A 1.0583332,1.0583332 0 0 1 7.4083332,6.3499999 1.0583332,1.0583332 0 0 1 6.3499999,7.4083332 1.0583332,1.0583332 0 0 1 5.2916666,6.3499999 1.0583332,1.0583332 0 0 1 6.3499999,5.2916666 Z M 9.2604166,6.6145833 V 10.054167 H 8.2020832 l 2.1166668,2.38125 2.116667,-2.38125 H 11.377083 V 6.6145833 Z"
     id="path838" />
</svg>
