<?xml version="1.0" encoding="UTF-8" standalone="no"?>
<svg
   width="47.546486"
   height="47.546486"
   viewBox="0 0 12.580008 12.580008"
   version="1.1"
   id="svg6"
   sodipodi:docname="gtranslator.svg"
   inkscape:version="0.92.4 (5da689c313, 2019-01-14)"
   xmlns:inkscape="http://www.inkscape.org/namespaces/inkscape"
   xmlns:sodipodi="http://sodipodi.sourceforge.net/DTD/sodipodi-0.dtd"
   xmlns="http://www.w3.org/2000/svg"
   xmlns:svg="http://www.w3.org/2000/svg"
   xmlns:rdf="http://www.w3.org/1999/02/22-rdf-syntax-ns#"
   xmlns:cc="http://creativecommons.org/ns#"
   xmlns:dc="http://purl.org/dc/elements/1.1/">
  <defs
     id="defs10" />
  <sodipodi:namedview
     pagecolor="#ffffff"
     bordercolor="#666666"
     borderopacity="1"
     objecttolerance="10"
     gridtolerance="10"
     guidetolerance="10"
     inkscape:pageopacity="0"
     inkscape:pageshadow="2"
     inkscape:window-width="1087"
     inkscape:window-height="480"
     id="namedview8"
     showgrid="false"
     inkscape:zoom="4.9166667"
     inkscape:cx="2.1355932"
     inkscape:cy="24"
     inkscape:window-x="0"
     inkscape:window-y="25"
     inkscape:window-maximized="0"
     inkscape:current-layer="svg6"
     inkscape:showpageshadow="0"
     inkscape:pagecheckerboard="0"
     inkscape:deskcolor="#d1d1d1" />
  <metadata
     id="metadata2">
    <rdf:RDF>
      <cc:Work>
        <dc:format>image/svg+xml</dc:format>
        <dc:type
           rdf:resource="http://purl.org/dc/dcmitype/StillImage" />
        <dc:title />
      </cc:Work>
    </rdf:RDF>
  </metadata>
  <path
     d="M 6.2900079,0 A 6.29,6.29 0 0 0 7.9490244e-6,6.3 6.29,6.29 0 0 0 6.3000079,12.58 6.29,6.29 0 0 0 12.580008,6.29 6.29,6.29 0 0 0 6.2900079,0 Z m -0.01,0.94 A 5.4,5.4 0 0 1 11.680008,6.34 5.4,5.4 0 0 1 6.2800079,11.75 5.4,5.4 0 0 1 0.87000795,6.35 5.4,5.4 0 0 1 6.2700079,0.93 Z m -0.28,2 a 0.77,0.77 0 0 0 -0.76,0.76 v 1.48 c -0.4,-0.15 -0.83,-0.23 -1.3,-0.23 -1.62,0 -2.94,0.97 -2.94,2.18 0,1.03 0.97,1.89 2.26,2.12 l -0.17,1.2 1.33,-1.17 c 1.4,-0.17 2.46,-1.07 2.46,-2.15 0,-0.07 0,-0.14 -0.02,-0.21 h 0.34 l 1.42,1.06 a 0.38,0.38 0 0 0 0.6,-0.37 l -0.12,-0.7 h 0.88 c 0.4100001,0 0.7600001,-0.34 0.7600001,-0.75 V 3.7 A 0.77,0.77 0 0 0 9.9800079,2.94 Z m 0,0.76 h 3.98 v 2.46 h -1.33 a 0.38,0.38 0 0 0 -0.37,0.44 l 0.03,0.21 -0.76,-0.57 a 0.38,0.38 0 0 0 -0.23,-0.08 h -0.75 a 2.35,2.35 0 0 0 -0.57,-0.59 z m 2.08,0.34 c -0.28,0 -0.5,0.08 -0.65,0.24 a 0.82,0.82 0 0 0 -0.24,0.6 c 0,0.27 0.1,0.47 0.3,0.6 h -0.34 v 0.33 h 0.8 V 5.45 a 0.34,0.34 0 0 1 -0.09,-0.06 0.68,0.68 0 0 1 -0.2,-0.5 0.6,0.6 0 0 1 0.12,-0.37 c 0.07,-0.1 0.18,-0.15 0.31,-0.15 0.14,0 0.24,0.05 0.32,0.15 0.08,0.1 0.11,0.22 0.11,0.37 0,0.2 -0.06,0.36 -0.2,0.5 a 0.35,0.35 0 0 1 -0.08,0.06 v 0.36 h 0.8 V 5.47 h -0.36 c 0.2,-0.12 0.3,-0.32 0.3,-0.59 a 0.82,0.82 0 0 0 -0.23,-0.6 0.88,0.88 0 0 0 -0.66,-0.24 z m -4.23,1.9 h 0.72 l 0.87,2.34 h -0.6 l -0.15,-0.43 h -0.95 l -0.15,0.43 h -0.6 z m 0.36,0.54 -0.32,0.94 h 0.64 z"
     id="path4"
     inkscape:connector-curvature="0"
     style="fill:#bde6fb;fill-opacity:1" />
</svg>
