<?xml version="1.0" encoding="UTF-8" standalone="no"?>
<svg
   width="47.542679"
   height="47.546455"
   viewBox="0 0 12.579 12.58"
   version="1.1"
   id="svg4"
   sodipodi:docname="guymager.svg"
   inkscape:version="0.92.5 (2060ec1f9f, 2020-04-08)"
   xmlns:inkscape="http://www.inkscape.org/namespaces/inkscape"
   xmlns:sodipodi="http://sodipodi.sourceforge.net/DTD/sodipodi-0.dtd"
   xmlns="http://www.w3.org/2000/svg"
   xmlns:svg="http://www.w3.org/2000/svg"
   xmlns:rdf="http://www.w3.org/1999/02/22-rdf-syntax-ns#"
   xmlns:cc="http://creativecommons.org/ns#"
   xmlns:dc="http://purl.org/dc/elements/1.1/">
  <metadata
     id="metadata10">
    <rdf:RDF>
      <cc:Work
         rdf:about="">
        <dc:format>image/svg+xml</dc:format>
        <dc:type
           rdf:resource="http://purl.org/dc/dcmitype/StillImage" />
        <dc:title />
      </cc:Work>
    </rdf:RDF>
  </metadata>
  <defs
     id="defs8" />
  <sodipodi:namedview
     pagecolor="#ffffff"
     bordercolor="#666666"
     borderopacity="1"
     objecttolerance="10"
     gridtolerance="10"
     guidetolerance="10"
     inkscape:pageopacity="0"
     inkscape:pageshadow="2"
     inkscape:window-width="1085"
     inkscape:window-height="480"
     id="namedview6"
     showgrid="false"
     inkscape:zoom="4.9166667"
     inkscape:cx="2.1355932"
     inkscape:cy="24"
     inkscape:window-x="0"
     inkscape:window-y="25"
     inkscape:window-maximized="0"
     inkscape:current-layer="svg4"
     inkscape:showpageshadow="0"
     inkscape:pagecheckerboard="0"
     inkscape:deskcolor="#d1d1d1" />
  <path
     d="M 6.285,0 A 6.295,6.295 0 0 0 0,6.285 6.295,6.295 0 0 0 6.285,12.58 6.295,6.295 0 0 0 12.579,6.285 6.295,6.295 0 0 0 6.285,0 Z M 6.274,0.94 a 5.408,5.408 0 0 1 5.397,5.387 5.407,5.407 0 0 1 -10.814,0 C 0.857,3.34 3.287,0.94 6.274,0.94 Z m 1.275,1.475 a 0.373,0.373 0 0 0 -0.36,0.306 l -0.24,1.33 A 2.042,2.042 0 0 0 6.227,4.581 L 5.885,2.957 c 0,0 -0.063,-0.298 -0.362,-0.235 L 2.546,3.349 V 3.348 C 2.249,3.411 2.312,3.708 2.312,3.708 l 0.38,1.81 A 0.56,0.56 0 0 0 2.326,6.043 v 3.374 c 0,0.311 0.251,0.562 0.562,0.562 h 6.814 c 0.311,0 0.562,-0.25 0.562,-0.562 V 6.043 A 0.558,0.558 0 0 0 10.076,5.626 L 10.427,3.688 9.827,2.821 7.624,2.421 A 0.373,0.373 0 0 0 7.549,2.416 Z M 7.557,2.787 9.392,3.12 9.259,3.855 7.424,3.522 Z M 4.402,3.603 A 1.217,1.217 0 0 1 5.432,5.48 H 3.306 L 3.219,5.071 A 1.217,1.217 0 0 1 4.159,3.63 1.217,1.217 0 0 1 4.401,3.603 Z m -0.01,0.613 a 0.609,0.609 0 0 0 -0.106,0.009 0.609,0.609 0 1 0 0.25,1.19 0.609,0.609 0 0 0 -0.143,-1.2 z m 4.782,0.262 z m -1.427,0.56 c 0.33,0 0.607,0.178 0.754,0.442 H 8.135 a 0.572,0.572 0 0 0 -0.776,0 H 6.993 A 0.855,0.855 0 0 1 7.747,5.039 Z M 6.295,6.009 A 1.852,1.852 0 0 1 8.147,7.861 1.852,1.852 0 0 1 6.295,9.715 1.852,1.852 0 0 1 4.443,7.862 1.852,1.852 0 0 1 6.295,6.01 Z m 0.164,0.66 c -0.82,0 -1.345,0.493 -1.345,1.217 0,0.697 0.487,1.165 1.215,1.165 0.367,0 0.68,-0.11 0.94,-0.33 V 7.646 h -1.04 v 0.487 h 0.49 v 0.35 A 0.68,0.68 0 0 1 6.399,8.55 c -0.417,0 -0.678,-0.27 -0.678,-0.71 0,-0.43 0.25,-0.661 0.72,-0.661 0.198,0 0.428,0.037 0.582,0.09 L 7.183,6.816 A 1.75,1.75 0 0 0 6.459,6.669 Z"
     id="path2"
     inkscape:connector-curvature="0"
     style="fill:#bde6fb;fill-opacity:1" />
</svg>
