<?xml version="1.0" encoding="UTF-8" standalone="no"?>
<svg
   width="47.538898"
   height="47.542679"
   viewBox="0 0 12.578 12.579"
   version="1.1"
   id="svg4"
   sodipodi:docname="gx_head.svg"
   inkscape:version="0.92.4 (5da689c313, 2019-01-14)"
   xmlns:inkscape="http://www.inkscape.org/namespaces/inkscape"
   xmlns:sodipodi="http://sodipodi.sourceforge.net/DTD/sodipodi-0.dtd"
   xmlns="http://www.w3.org/2000/svg"
   xmlns:svg="http://www.w3.org/2000/svg"
   xmlns:rdf="http://www.w3.org/1999/02/22-rdf-syntax-ns#"
   xmlns:cc="http://creativecommons.org/ns#"
   xmlns:dc="http://purl.org/dc/elements/1.1/">
  <metadata
     id="metadata10">
    <rdf:RDF>
      <cc:Work
         rdf:about="">
        <dc:format>image/svg+xml</dc:format>
        <dc:type
           rdf:resource="http://purl.org/dc/dcmitype/StillImage" />
        <dc:title />
      </cc:Work>
    </rdf:RDF>
  </metadata>
  <defs
     id="defs8" />
  <sodipodi:namedview
     pagecolor="#ffffff"
     bordercolor="#666666"
     borderopacity="1"
     objecttolerance="10"
     gridtolerance="10"
     guidetolerance="10"
     inkscape:pageopacity="0"
     inkscape:pageshadow="2"
     inkscape:window-width="1087"
     inkscape:window-height="480"
     id="namedview6"
     showgrid="false"
     inkscape:zoom="4.9166667"
     inkscape:cx="2.1355932"
     inkscape:cy="24"
     inkscape:window-x="0"
     inkscape:window-y="25"
     inkscape:window-maximized="0"
     inkscape:current-layer="svg4"
     inkscape:showpageshadow="0"
     inkscape:pagecheckerboard="0"
     inkscape:deskcolor="#d1d1d1" />
  <path
     d="M 6.289,0.001 A 6.29,6.29 0 0 0 0,6.291 6.29,6.29 0 0 0 6.29,12.579 6.29,6.29 0 0 0 12.578,6.291 6.29,6.29 0 0 0 6.29,0 Z M 6.271,0.937 A 5.407,5.407 0 0 1 11.678,6.344 5.407,5.407 0 0 1 6.271,11.751 5.407,5.407 0 0 1 0.864,6.344 5.407,5.407 0 0 1 6.271,0.937 Z M 6.208,1.487 C 4.347,1.487 2.895,2.398 1.853,4.22 A 5.164,5.164 0 0 0 1.385,6.388 c 0,0.888 0.23,1.694 0.687,2.417 L 2.73,8.175 h 0.036 c 0.04,0.01 0.059,0.032 0.059,0.066 v 0.095 c -0.05,0 -0.259,0.198 -0.629,0.594 V 8.966 L 2.89,8.306 c 0.03,0 0.071,0.042 0.125,0.125 L 2.32,9.149 h 0.037 c 0,-0.024 0.229,-0.253 0.687,-0.688 0.053,0.044 0.095,0.066 0.124,0.066 V 8.614 C 2.71,9.078 2.481,9.32 2.481,9.34 h 0.03 c 0,-0.03 0.24,-0.271 0.723,-0.726 L 3.329,8.747 V 8.776 L 2.606,9.53 h 0.028 c 0,-0.03 0.242,-0.27 0.724,-0.725 h 0.03 c 0.029,0 0.06,0.032 0.094,0.095 V 8.93 L 2.795,9.655 v 0.03 L 3.548,8.966 c 0.03,0 0.07,0.042 0.124,0.125 L 2.949,9.845 h 0.036 c 0,-0.029 0.24,-0.271 0.717,-0.725 L 3.73,9.186 2.985,9.97 c 1.028,0.84 2.07,1.26 3.128,1.26 2.036,0 3.563,-0.975 4.581,-2.923 0.273,-0.723 0.41,-1.384 0.41,-1.985 0,-1.563 -0.712,-2.903 -2.134,-4.021 A 5.1,5.1 0 0 0 6.208,1.488 Z m 2.134,1.824 h 0.065 c 0.03,0 0.071,0.052 0.125,0.154 V 3.532 L 8.437,3.656 v 0.029 l 0.029,0.066 c 0.268,-0.127 0.509,-0.19 0.723,-0.19 0.497,0 0.8,0.334 0.906,1.003 C 9.94,5.15 9.647,5.443 9.219,5.443 H 9.094 C 8.928,5.443 8.751,5.423 8.561,5.385 8.293,5.385 8.115,5.541 8.027,5.853 7.827,6.63 7.484,7.289 6.997,7.831 L 6.866,7.926 H 6.836 C 6.398,7.716 6.074,7.611 5.864,7.611 H 5.806 c -0.331,0 -0.677,0.178 -1.038,0.535 -0.044,0 -0.065,-0.02 -0.065,-0.059 0.029,0 1.159,-1.133 3.39,-3.398 0.17,-0.176 0.348,-0.3 0.533,-0.374 V 4.22 C 8.606,4.073 8.544,4 8.436,4 A 0.32,0.32 0 0 0 8.246,4.154 V 4.285 L 8.342,4.41 A 260.75,260.75 0 0 1 4.674,8.087 C 4.639,8.087 4.598,8.043 4.549,7.956 6.624,5.84 7.691,4.784 7.749,4.784 7.852,4.784 7.903,4.72 7.903,4.594 V 4.534 C 7.869,4.452 7.796,4.41 7.683,4.41 7.586,4.45 7.535,4.49 7.53,4.535 v 0.124 l 0.088,0.125 c -0.93,0.962 -1.41,1.443 -1.44,1.443 0,0.039 -0.167,0.207 -0.503,0.505 0,0.025 -0.252,0.286 -0.753,0.784 C 4.673,7.74 4.549,7.877 4.549,7.926 H 4.52 C 4.486,7.926 4.444,7.885 4.396,7.802 V 7.772 C 6.071,6.053 6.939,5.194 6.997,5.194 A 0.184,0.184 0 0 0 7.18,5.069 V 5.004 C 7.18,4.891 7.119,4.818 6.997,4.784 6.87,4.818 6.807,4.891 6.807,5.004 V 5.069 L 6.902,5.194 C 6.142,5.98 5.294,6.828 4.359,7.736 H 4.299 C 4.299,7.696 4.278,7.677 4.234,7.677 V 7.611 C 5.579,6.21 6.309,5.51 6.427,5.51 L 6.464,5.444 V 5.319 C 6.43,5.236 6.357,5.195 6.244,5.195 c -0.107,0.03 -0.16,0.102 -0.16,0.22 0,0.048 0.031,0.112 0.094,0.19 C 4.868,6.924 4.201,7.583 4.176,7.583 L 4.045,7.458 c 0,-0.029 0.377,-0.407 1.132,-1.135 A 1.24,1.24 0 0 1 5.74,5.883 V 5.73 C 5.74,5.696 5.699,5.654 5.616,5.605 H 5.492 c -0.034,0 -0.076,0.042 -0.124,0.125 v 0.124 l 0.087,0.125 c 0,0.03 -0.48,0.51 -1.44,1.443 C 3.982,7.422 3.94,7.38 3.891,7.297 4.437,6.697 4.803,6.362 4.988,6.294 A 0.248,0.248 0 0 0 5.017,6.169 C 5.017,6.042 4.944,5.979 4.797,5.979 4.705,6.018 4.654,6.059 4.644,6.103 V 6.265 L 4.703,6.36 V 6.389 C 4.162,6.936 3.891,7.229 3.891,7.268 H 3.862 C 3.828,7.268 3.796,7.236 3.767,7.173 V 7.143 C 4.079,6.903 4.235,6.548 4.235,6.074 4.547,5.888 4.703,5.784 4.703,5.759 c -0.02,0 -0.03,-0.01 -0.03,-0.03 L 4.52,5.759 C 4.437,5.73 4.396,5.637 4.396,5.481 a 0.64,0.64 0 0 1 0.467,-0.22 c 0.054,0 0.096,0.083 0.125,0.25 L 4.893,5.635 V 5.664 H 4.958 C 5.251,5.507 5.397,5.414 5.397,5.386 V 5.349 H 5.207 C 5.153,5.349 5.112,5.266 5.082,5.099 5.233,4.953 5.358,4.88 5.455,4.88 h 0.132 c 0.053,0 0.095,0.083 0.124,0.25 -0.034,0 -0.076,0.043 -0.124,0.131 L 5.645,5.29 C 5.957,5.12 6.113,5.024 6.113,5.005 L 6.083,4.945 5.93,4.975 C 5.877,4.975 5.835,4.892 5.806,4.726 A 0.508,0.508 0 0 1 6.273,4.47 c 0.025,0 0.076,0.073 0.154,0.22 L 6.303,4.85 V 4.88 C 6.659,4.753 6.836,4.658 6.836,4.594 6.607,4.57 6.493,4.477 6.493,4.316 6.633,4.169 6.78,4.096 6.931,4.096 h 0.066 c 0.054,0 0.095,0.083 0.125,0.25 -0.035,0 -0.076,0.04 -0.125,0.124 L 7.055,4.507 C 7.27,4.414 7.428,4.319 7.53,4.221 V 4.155 L 7.37,4.191 H 7.339 c -0.053,0 -0.095,-0.095 -0.124,-0.285 0.156,-0.147 0.312,-0.22 0.468,-0.22 0.063,0 0.114,0.095 0.153,0.286 -0.083,0.03 -0.124,0.06 -0.124,0.095 L 7.749,4.126 8.246,3.876 V 3.78 H 8.056 C 7.973,3.746 7.931,3.673 7.931,3.56 V 3.532 a 0.465,0.465 0 0 1 0.41,-0.22 z m -4.67,3.927 c 0.034,0 0.076,0.041 0.125,0.124 C 3.747,7.367 3.497,7.609 3.044,8.087 2.98,8.121 2.949,8.163 2.949,8.212 h -0.06 c -0.034,0 -0.066,-0.032 -0.095,-0.095 0,-0.025 0.293,-0.318 0.877,-0.88 z m 0.154,0.153 c 0.087,0.034 0.131,0.067 0.131,0.096 0,0.024 -0.294,0.317 -0.884,0.879 H 3.043 C 3.014,8.366 2.983,8.334 2.949,8.27 V 8.241 C 3.475,7.675 3.767,7.391 3.826,7.391 Z m 0.16,0.125 c 0.049,0 0.08,0.054 0.095,0.161 0,0.03 -0.24,0.28 -0.723,0.754 C 3.295,8.471 3.263,8.512 3.263,8.556 H 3.233 C 3.18,8.512 3.139,8.49 3.109,8.49 V 8.395 c 0,-0.025 0.293,-0.318 0.877,-0.88 z m 0.154,0.19 c 0.034,0 0.076,0.042 0.124,0.125 0,0.024 -0.292,0.317 -0.877,0.879 -0.029,0 -0.07,-0.042 -0.124,-0.125 0,-0.024 0.292,-0.317 0.877,-0.879 z M 4.3,7.868 c 0.025,0 0.076,0.05 0.154,0.153 -0.054,0 -0.2,0.137 -0.438,0.41 C 3.738,8.724 3.57,8.871 3.511,8.871 L 3.424,8.747 c 0,-0.03 0.292,-0.323 0.876,-0.88 z M 4.454,8.051 H 4.52 c 0.04,0.01 0.059,0.032 0.059,0.066 v 0.058 c 0,0.03 -0.293,0.325 -0.877,0.886 H 3.672 C 3.672,9.022 3.64,8.969 3.577,8.901 Z m 0.19,0.124 0.03,0.066 c 0,0.025 -0.293,0.317 -0.877,0.879 H 3.767 V 9.06 c 0,-0.024 0.293,-0.32 0.877,-0.886 z"
     font-size="14.983"
     font-weight="400"
     letter-spacing="0"
     style="font-weight:400;font-size:14.983px;line-height:1.25;font-family:'Electric Guitar Icons';-inkscape-font-specification:'Electric Guitar Icons';letter-spacing:0;word-spacing:0;fill:#bde6fb;fill-opacity:1"
     word-spacing="0"
     id="path2"
     inkscape:connector-curvature="0" />
</svg>
