<?xml version="1.0" encoding="UTF-8" standalone="no"?>
<svg
   width="47.54644"
   height="47.546432"
   version="1.1"
   viewBox="0 0 12.579996 12.579994"
   id="svg4"
   sodipodi:docname="hamster.svg"
   inkscape:version="0.92.4 (5da689c313, 2019-01-14)"
   xmlns:inkscape="http://www.inkscape.org/namespaces/inkscape"
   xmlns:sodipodi="http://sodipodi.sourceforge.net/DTD/sodipodi-0.dtd"
   xmlns="http://www.w3.org/2000/svg"
   xmlns:svg="http://www.w3.org/2000/svg"
   xmlns:rdf="http://www.w3.org/1999/02/22-rdf-syntax-ns#"
   xmlns:cc="http://creativecommons.org/ns#"
   xmlns:dc="http://purl.org/dc/elements/1.1/">
  <metadata
     id="metadata10">
    <rdf:RDF>
      <cc:Work
         rdf:about="">
        <dc:format>image/svg+xml</dc:format>
        <dc:type
           rdf:resource="http://purl.org/dc/dcmitype/StillImage" />
        <dc:title />
      </cc:Work>
    </rdf:RDF>
  </metadata>
  <defs
     id="defs8" />
  <sodipodi:namedview
     pagecolor="#ffffff"
     bordercolor="#666666"
     borderopacity="1"
     objecttolerance="10"
     gridtolerance="10"
     guidetolerance="10"
     inkscape:pageopacity="0"
     inkscape:pageshadow="2"
     inkscape:window-width="1136"
     inkscape:window-height="480"
     id="namedview6"
     showgrid="false"
     inkscape:zoom="4.9166667"
     inkscape:cx="2.1355932"
     inkscape:cy="24"
     inkscape:window-x="0"
     inkscape:window-y="25"
     inkscape:window-maximized="0"
     inkscape:current-layer="svg4"
     inkscape:showpageshadow="0"
     inkscape:pagecheckerboard="0"
     inkscape:deskcolor="#d1d1d1" />
  <path
     d="M 6.2898694,0 C 2.8119653,-3.5452687e-5 -0.00581176,2.8222749 9.004251e-6,6.3004435 0.00568186,9.7741144 2.8262526,12.585541 6.2999234,12.579985 9.7698901,12.574599 12.579995,9.7600916 12.579995,6.2901249 12.580025,2.8161895 9.7638048,0 6.290134,2.6457731e-4 Z M 6.2697158,0.93015745 C 9.2520615,0.93005413 11.679848,3.3576525 11.679584,6.3400247 11.685117,9.3263392 9.2657403,11.750156 6.2795052,11.749892 3.2931908,11.755425 0.86937338,9.3360493 0.86963796,6.3498142 0.8586608,3.3597956 3.2796178,0.92989287 6.2697158,0.93015745 Z M 3.0910517,2.8287306 c -0.031157,-0.00159 -0.049093,0.018893 -0.049093,0.06356 0,0.031779 0.039655,0.1032259 0.087333,0.1508926 0.039727,0.039729 0.1271148,0.2701362 0.1906828,0.5084963 0.1072634,0.3972669 0.13111,0.8545405 0.089399,1.2190259 -0.020857,0.182248 -0.058155,0.340779 -0.109552,0.4578557 -0.051397,0.1170713 -0.1168333,0.1927968 -0.1943023,0.2067031 -0.063563,0.011915 -0.095479,0.00938 -0.0925,-0.03824 0.00298,-0.047672 0.04079,-0.1407778 0.1162697,-0.3115959 C 3.2325808,4.8550139 3.2782685,4.5387535 3.269331,4.2219189 3.2603919,3.9050844 3.1969577,3.5871121 3.081749,3.3527207 2.9784596,3.146142 2.8988528,3.0368122 2.8233708,3.019932 2.7478914,3.0030492 2.6766797,3.0787428 2.5892783,3.2416209 c -0.11124,0.2065815 -0.143659,0.4448384 -0.143659,1.104304 0,0.4767203 0.01225,0.7412474 0.097667,0.9249982 0.085414,0.1837376 0.2444825,0.2868841 0.5384732,0.4418221 0.1350734,0.071508 0.2080657,0.1153728 0.2289226,0.144175 0.020857,0.028807 -0.010304,0.042851 -0.085782,0.054776 -0.095344,0.015893 -0.309929,-0.04799 -0.4847105,-0.1353909 L 2.4141211,5.6093923 2.2952665,5.9912871 C 2.2237558,6.1978659 2.14444,6.5311097 2.1206013,6.7297299 l -0.047542,0.3736134 0.4201266,0.134875 c 0.2383624,0.079453 0.5724449,0.2149024 0.7472265,0.3023091 0.3972668,0.198636 1.3271597,0.8581917 1.2794824,0.905869 C 4.4801681,8.4940684 4.2255495,8.3589447 3.7090894,8.0252379 3.3753746,7.8027658 2.2475759,7.2785138 2.104544,7.2785138 c -0.063563,0 0.039528,0.897667 0.1348749,1.1280897 l 0.087333,0.2222049 h 1.0247183 c 0.603851,0 1.0487687,0.031911 1.0805447,0.07958 0.031781,0.047669 -0.3175224,0.07958 -0.9849519,0.07958 -0.603851,0 -1.0407519,0.031583 -1.0407519,0.071312 0,0.047669 0.087396,0.1746598 0.1906828,0.3017799 l 0.1906828,0.2149713 0.707434,-0.1353909 c 0.810435,-0.1509614 0.897085,-0.1592322 0.897085,-0.071828 0,0.039727 -0.2937632,0.1277657 -0.6433528,0.2072191 L 3.0977376,9.5186571 3.3514645,9.6695497 c 0.1549354,0.095347 0.2410245,0.1431007 0.3353816,0.1421086 0.094349,-9.869e-4 0.1973952,-0.051059 0.388086,-0.1503767 0.1867167,-0.095347 0.2858258,-0.1423493 0.3384772,-0.1483103 0.052636,-0.00596 0.058911,0.029257 0.058911,0.1007679 0,0.055617 -0.1036704,0.1275752 -0.2387412,0.1514112 -0.1271254,0.031781 -0.2382251,0.087393 -0.2382251,0.1271228 0,0.087404 0.9139386,0.4051248 1.1761374,0.4051248 0.1032894,0 0.3177342,0.111097 0.4687035,0.238225 0.1906907,0.170829 0.4187508,0.256312 0.6521368,0.256312 0.2333966,0 0.4720901,-0.08549 0.6826428,-0.256312 0.1668521,-0.127128 0.3656761,-0.238225 0.4371656,-0.238225 0.2304174,0 1.1916418,-0.3179458 1.1916418,-0.3973991 0,-0.031781 -0.1268581,-0.1109728 -0.2857728,-0.1586448 C 8.1273187,9.6777914 8.0551731,9.6217904 8.1107904,9.566173 c 0.055617,-0.055617 0.19113,-0.023774 0.4056541,0.1033502 L 8.8420102,9.8524565 9.1835829,9.6860595 9.5174035,9.5263802 8.9453551,9.3915079 C 8.6275416,9.3199972 8.3094106,9.2649011 8.2379211,9.2649011 c -0.1112347,0 -0.1188573,-0.024287 -0.055292,-0.087848 0.071508,-0.071508 0.2860639,-0.055231 0.8660762,0.048058 L 9.8197179,9.3760035 9.9623428,9.1930702 c 0.07548,-0.09336 0.1273712,-0.165164 0.1462412,-0.2206544 0.01886,-0.055493 0.0048,-0.094643 -0.05271,-0.1219555 -0.115209,-0.054623 -0.403326,-0.062528 -0.9435984,-0.062528 -0.6833043,0 -0.9774379,-0.024288 -0.9456618,-0.087848 0.039727,-0.055623 0.4131945,-0.079453 1.0567589,-0.06356 l 1.0014883,0.016019 0.09508,-0.230473 c 0.05562,-0.1271256 0.119115,-0.4369805 0.150893,-0.6991793 0.03177,-0.2304175 0.04582,-0.3457002 0.02894,-0.3963409 -0.01689,-0.050654 -0.06467,-0.036102 -0.15606,-0.00827 C 9.9861628,7.4215476 9.1198483,7.8422562 8.6192894,8.1600697 8.3411893,8.3348672 8.0950506,8.4619291 8.063248,8.4380904 8.0076307,8.382473 7.9839746,8.4062561 8.5639922,8.016932 9.1599057,7.6196651 9.5567228,7.4209126 10.104959,7.2381672 l 0.421159,-0.134875 -0.04754,-0.3736134 C 10.454742,6.5310427 10.375426,6.1978201 10.30391,5.991236 L 10.176787,5.6093413 9.9308098,5.736464 C 9.5891576,5.9192121 9.2388802,6.0071294 9.2388802,5.9276654 c 0,-0.039729 0.143524,-0.151345 0.3183162,-0.2387411 0.2502794,-0.1271254 0.3993044,-0.2441068 0.4847106,-0.4397584 0.08541,-0.1956543 0.106806,-0.4700793 0.102834,-0.9110548 0,-0.3972669 -0.04146,-0.7467506 -0.108001,-0.9890794 C 10.00347,3.2278646 9.9640398,3.1336847 9.92047,3.0736039 9.876894,3.0135129 9.829571,2.9879459 9.7799119,3.0038419 9.6865519,3.0356209 9.6010823,3.1466384 9.5303177,3.3035581 9.4595527,3.4604805 9.4032531,3.6626461 9.3665056,3.8771676 c -0.036748,0.2145267 -0.054165,0.4413459 -0.045476,0.6459456 0.0087,0.2045944 0.043486,0.3875568 0.1090361,0.5146874 0.071508,0.1390448 0.110949,0.2420431 0.1198865,0.3105641 0.00895,0.068526 -0.012949,0.1023183 -0.064595,0.1023183 -0.039727,0 -0.1346765,-0.1589623 -0.2061872,-0.3576063 C 9.1878004,4.8547141 9.1538494,4.505286 9.1727193,4.15567 9.1915902,3.8060804 9.2633432,3.4561204 9.3825233,3.2177603 9.4778673,3.0270722 9.5332863,2.8602334 9.5173956,2.8363947 9.5064698,2.8264648 9.4915009,2.8245294 9.47347,2.82916 9.4193819,2.8430584 9.3370923,2.9174636 9.2491961,3.0239782 9.1320031,3.1660021 9.0049994,3.3648631 8.9215667,3.5515772 8.834168,3.7740493 8.6988459,3.9731854 8.6352912,3.9970241 8.5717285,4.0208609 8.174287,3.9250636 7.7531815,3.7820528 7.4433054,3.6787635 7.2209788,3.6167882 7.0064573,3.5810329 6.7919306,3.5452723 6.5853782,3.5360755 6.3072782,3.5360755 c -0.3893295,0 -0.7170647,0.023366 -1.0050865,0.076998 C 5.0141699,3.6667013 4.7662585,3.7502053 4.5358357,3.8693854 4.3054183,3.9885655 4.1483054,4.0345627 4.0221801,3.9918568 3.8960469,3.9491536 3.8007849,3.8180066 3.6935188,3.5836099 3.5902295,3.3611405 3.4312698,3.1071013 3.3359125,3.0038093 3.2524878,2.9164159 3.1792653,2.8582691 3.1266244,2.8374123 c -0.013159,-0.00521 -0.02527,-0.00826 -0.035655,-0.00878 z m 4.8111227,2.9413359 c 0.1784618,-0.0045 0.3305662,0.1315862 0.4795512,0.4195974 0.2304148,0.4608454 0.2379739,1.2390546 0.015503,1.5409668 C 8.2144854,7.9689882 8.0553908,8.0331251 7.7693798,7.9616223 7.5151264,7.8980596 7.3322672,7.5801509 7.2448764,7.0557533 7.1574777,6.5154545 7.2532041,6.1580863 7.5471855,5.9276636 7.6782849,5.8263612 7.7951208,5.772752 7.902199,5.7700533 Z M 4.6208532,5.7897031 C 4.9339307,5.7546145 5.2546811,6.0217556 5.3381031,6.4041372 5.4096112,6.7775654 5.3142743,7.4526413 5.1474203,7.7068762 4.8852216,8.1120805 4.3212693,8.0804367 4.1464613,7.6593338 3.9239918,7.119035 4.1389599,5.9594073 4.4885632,5.8243392 c 0.043701,-0.017877 0.087565,-0.029612 0.13229,-0.034623 z m 0.034623,0.8330037 A 0.32019472,0.54434689 0 0 0 4.3361281,7.1673711 0.32019472,0.54434689 0 0 0 4.6554762,7.7115064 0.32019472,0.54434689 0 0 0 4.9758561,7.1673711 0.32019472,0.54434689 0 0 0 4.6554762,6.6227068 Z m 3.2736483,0 A 0.32019472,0.54434689 0 0 0 7.6087446,7.1673711 0.32019472,0.54434689 0 0 0 7.9291245,7.7115064 0.32019472,0.54434689 0 0 0 8.2495044,7.1673711 0.32019472,0.54434689 0 0 0 7.9291245,6.6227068 Z M 5.0936206,8.3853652 c 0.053633,0.00496 0.0499,0.076281 -0.057361,0.2113544 C 4.8217329,8.8668558 4.8059084,9.4233998 5.012489,9.5982078 5.2429065,9.8047866 5.6480896,9.9797062 5.7752203,9.9320282 5.942075,9.8684657 5.9343228,9.844254 5.703908,9.5661672 5.5688373,9.4072604 5.505473,9.2327435 5.505473,9.0261594 c 0,-0.4131681 0.1266042,-0.4687035 0.1901669,-0.087333 0.05562,0.3495896 0.3493779,0.6433528 0.6433527,0.6433528 0.2383601,0 0.5169364,-0.3177342 0.5725776,-0.6593863 C 6.935407,8.7638865 6.9829459,8.6524719 7.0226726,8.6763 7.1656887,8.7636987 7.0943791,9.2484013 6.8877977,9.5423762 6.6414896,9.9158044 6.720808,10.03505 7.1260229,9.8999825 7.6901339,9.7172371 7.8887541,9.1686569 7.5709406,8.6442593 7.4517605,8.4456233 7.4359995,8.3905324 7.5233982,8.3905324 c 0.2065788,0 0.4449177,0.3970023 0.4449177,0.7306906 0,0.5561736 -0.3893559,1.016992 -0.8660761,1.016992 -0.095347,0 -0.1989483,0.08786 -0.2625137,0.214972 -0.095344,0.206581 -0.1432594,0.222205 -0.5405369,0.222205 -0.3972669,0 -0.4446796,-0.01563 -0.5400078,-0.222205 -0.063563,-0.127123 -0.166651,-0.214972 -0.261995,-0.214972 -0.2224695,0 -0.59594,-0.2063078 -0.738972,-0.4128765 C 4.5675237,9.4472385 4.5912301,8.803383 4.8057568,8.5729603 4.9289109,8.4418609 5.0399604,8.3804122 5.0935934,8.3853784 Z"
     id="path2"
     style="fill:#bde6fb;fill-opacity:1;stroke-width:0.99998"
     inkscape:connector-curvature="0" />
</svg>
