<?xml version="1.0" encoding="UTF-8" standalone="no"?>
<svg
   width="47.542679"
   height="47.546455"
   viewBox="0 0 12.579 12.58"
   version="1.1"
   id="svg4"
   sodipodi:docname="hashdeep.svg"
   inkscape:version="0.92.5 (2060ec1f9f, 2020-04-08)"
   xmlns:inkscape="http://www.inkscape.org/namespaces/inkscape"
   xmlns:sodipodi="http://sodipodi.sourceforge.net/DTD/sodipodi-0.dtd"
   xmlns="http://www.w3.org/2000/svg"
   xmlns:svg="http://www.w3.org/2000/svg"
   xmlns:rdf="http://www.w3.org/1999/02/22-rdf-syntax-ns#"
   xmlns:cc="http://creativecommons.org/ns#"
   xmlns:dc="http://purl.org/dc/elements/1.1/">
  <metadata
     id="metadata10">
    <rdf:RDF>
      <cc:Work
         rdf:about="">
        <dc:format>image/svg+xml</dc:format>
        <dc:type
           rdf:resource="http://purl.org/dc/dcmitype/StillImage" />
        <dc:title />
      </cc:Work>
    </rdf:RDF>
  </metadata>
  <defs
     id="defs8" />
  <sodipodi:namedview
     pagecolor="#ffffff"
     bordercolor="#666666"
     borderopacity="1"
     objecttolerance="10"
     gridtolerance="10"
     guidetolerance="10"
     inkscape:pageopacity="0"
     inkscape:pageshadow="2"
     inkscape:window-width="1085"
     inkscape:window-height="480"
     id="namedview6"
     showgrid="false"
     inkscape:zoom="4.9166667"
     inkscape:cx="2.1355932"
     inkscape:cy="24"
     inkscape:window-x="0"
     inkscape:window-y="25"
     inkscape:window-maximized="0"
     inkscape:current-layer="svg4"
     inkscape:showpageshadow="0"
     inkscape:pagecheckerboard="0"
     inkscape:deskcolor="#d1d1d1" />
  <path
     d="M 6.285,0 A 6.295,6.295 0 0 0 0,6.285 6.295,6.295 0 0 0 6.285,12.58 6.295,6.295 0 0 0 12.579,6.285 6.295,6.295 0 0 0 6.285,0 Z M 6.274,0.94 a 5.408,5.408 0 0 1 5.397,5.387 5.407,5.407 0 0 1 -10.814,0 C 0.857,3.34 3.287,0.94 6.274,0.94 Z M 1.629,4.713 v 3.08 h 0.746 v -1.73 l 0.639,1.255 h 0.58 L 4.248,5.983 v 1.81 H 4.993 V 4.713 H 4.26 L 3.342,6.51 2.37,4.713 H 1.63 Z m 3.961,0 v 3.08 h 0.753 v -3.08 z m 3.307,0 -0.08,1.806 C 9.008,6.483 9.252,6.457 9.434,6.457 c 0.462,0 0.728,0.146 0.728,0.395 0,0.208 -0.19,0.32 -0.537,0.32 -0.266,0 -0.564,-0.063 -0.785,-0.17 L 8.631,7.606 c 0.298,0.151 0.635,0.231 0.999,0.231 0.812,0 1.33,-0.4 1.33,-1.065 0,-0.586 -0.416,-0.914 -1.162,-0.914 A 1.86,1.86 0 0 0 9.625,5.867 L 9.647,5.383 h 1.15 V 4.713 Z M 6.805,4.715 v 0.664 c 0.526,0.038 0.835,0.369 0.835,0.902 0,0.54 -0.295,0.84 -0.835,0.85 v 0.66 C 7.794,7.744 8.439,7.122 8.439,6.191 8.439,5.283 7.832,4.736 6.805,4.715 Z"
     id="path2"
     inkscape:connector-curvature="0"
     style="fill:#bde6fb;fill-opacity:1" />
</svg>
