<?xml version="1.0" encoding="UTF-8" standalone="no"?>
<svg
   width="47.542679"
   height="47.546455"
   viewBox="0 0 12.579 12.58"
   version="1.1"
   id="svg4"
   sodipodi:docname="hashcat.svg"
   inkscape:version="0.92.5 (2060ec1f9f, 2020-04-08)"
   xmlns:inkscape="http://www.inkscape.org/namespaces/inkscape"
   xmlns:sodipodi="http://sodipodi.sourceforge.net/DTD/sodipodi-0.dtd"
   xmlns="http://www.w3.org/2000/svg"
   xmlns:svg="http://www.w3.org/2000/svg"
   xmlns:rdf="http://www.w3.org/1999/02/22-rdf-syntax-ns#"
   xmlns:cc="http://creativecommons.org/ns#"
   xmlns:dc="http://purl.org/dc/elements/1.1/">
  <metadata
     id="metadata10">
    <rdf:RDF>
      <cc:Work
         rdf:about="">
        <dc:format>image/svg+xml</dc:format>
        <dc:type
           rdf:resource="http://purl.org/dc/dcmitype/StillImage" />
        <dc:title />
      </cc:Work>
    </rdf:RDF>
  </metadata>
  <defs
     id="defs8" />
  <sodipodi:namedview
     pagecolor="#ffffff"
     bordercolor="#666666"
     borderopacity="1"
     objecttolerance="10"
     gridtolerance="10"
     guidetolerance="10"
     inkscape:pageopacity="0"
     inkscape:pageshadow="2"
     inkscape:window-width="1085"
     inkscape:window-height="480"
     id="namedview6"
     showgrid="false"
     inkscape:zoom="4.9166667"
     inkscape:cx="2.1355932"
     inkscape:cy="24"
     inkscape:window-x="0"
     inkscape:window-y="25"
     inkscape:window-maximized="0"
     inkscape:current-layer="svg4"
     inkscape:showpageshadow="0"
     inkscape:pagecheckerboard="0"
     inkscape:deskcolor="#d1d1d1" />
  <path
     d="M 6.285,0 A 6.295,6.295 0 0 0 0,6.285 6.295,6.295 0 0 0 6.285,12.58 6.295,6.295 0 0 0 12.579,6.285 6.295,6.295 0 0 0 6.285,0 Z M 6.274,0.94 a 5.408,5.408 0 0 1 5.397,5.387 5.407,5.407 0 0 1 -3.395,5.016 C 8.267,11.03 8.177,10.766 7.897,10.333 8.1,10.005 8.134,9.535 7.896,8.912 7.781,8.612 7.752,8.405 7.766,8.274 A 0.33,0.33 0 0 1 7.891,8.022 C 8.037,7.897 8.36,7.832 8.661,7.652 A 0.201,0.201 0 0 0 8.563,7.276 0.201,0.201 0 0 0 8.454,7.306 C 8.247,7.43 7.903,7.482 7.629,7.716 A 0.78,0.78 0 0 0 7.364,8.236 C 7.342,8.459 7.392,8.72 7.52,9.056 7.683,9.483 7.7,9.756 7.638,9.953 L 7.573,9.863 C 7.143,9.269 6.843,8.025 6.74,6.407 L 6.708,5.906 6.84,5.872 C 6.998,5.832 7.31,5.622 7.486,5.436 7.682,5.229 7.856,4.8 7.896,4.43 7.939,4.027 8.04,3.884 8.6,3.434 8.81,3.265 8.985,3.1 8.986,3.068 8.991,2.989 8.98,2.991 8.614,3.123 8.016,3.338 7.939,3.335 7.07,3.053 6.676,2.906 6.49,2.838 6.32,2.835 6.128,2.832 5.955,2.912 5.52,3.053 4.651,3.335 4.574,3.338 3.976,3.123 3.61,2.991 3.6,2.989 3.604,3.068 3.605,3.1 3.779,3.265 3.99,3.434 4.55,3.884 4.652,4.027 4.695,4.43 4.735,4.8 4.909,5.229 5.105,5.436 5.28,5.621 5.592,5.833 5.75,5.872 L 5.882,5.906 5.85,6.406 C 5.747,8.026 5.447,9.268 5.017,9.863 4.47,10.617 4.318,10.941 4.311,11.362 A 5.407,5.407 0 0 1 0.857,6.327 C 0.857,3.34 3.287,0.94 6.274,0.94 Z M 5.248,4.854 C 5.263,4.856 5.285,4.874 5.315,4.914 5.347,4.957 5.501,5.042 5.657,5.102 5.868,5.184 5.94,5.235 5.94,5.303 5.94,5.435 5.698,5.446 5.5,5.324 A 0.672,0.672 0 0 1 5.273,5.058 C 5.22,4.931 5.215,4.851 5.248,4.854 Z m 2.101,0.012 c 0.031,0 0.02,0.065 -0.032,0.192 C 7.201,5.335 6.718,5.545 6.644,5.351 6.603,5.243 6.656,5.196 6.916,5.11 7.048,5.066 7.199,4.988 7.25,4.937 7.297,4.889 7.33,4.866 7.35,4.866 Z"
     id="path2"
     inkscape:connector-curvature="0"
     style="fill:#bde6fb;fill-opacity:1" />
</svg>
