<?xml version="1.0" encoding="UTF-8" standalone="no"?>
<svg
   width="47.546455"
   height="47.542679"
   viewBox="0 0 12.58 12.579"
   version="1.1"
   id="svg4"
   sodipodi:docname="hb-icon.svg"
   inkscape:version="0.92.4 (5da689c313, 2019-01-14)"
   xmlns:inkscape="http://www.inkscape.org/namespaces/inkscape"
   xmlns:sodipodi="http://sodipodi.sourceforge.net/DTD/sodipodi-0.dtd"
   xmlns="http://www.w3.org/2000/svg"
   xmlns:svg="http://www.w3.org/2000/svg"
   xmlns:rdf="http://www.w3.org/1999/02/22-rdf-syntax-ns#"
   xmlns:cc="http://creativecommons.org/ns#"
   xmlns:dc="http://purl.org/dc/elements/1.1/">
  <metadata
     id="metadata10">
    <rdf:RDF>
      <cc:Work
         rdf:about="">
        <dc:format>image/svg+xml</dc:format>
        <dc:type
           rdf:resource="http://purl.org/dc/dcmitype/StillImage" />
        <dc:title />
      </cc:Work>
    </rdf:RDF>
  </metadata>
  <defs
     id="defs8" />
  <sodipodi:namedview
     pagecolor="#ffffff"
     bordercolor="#666666"
     borderopacity="1"
     objecttolerance="10"
     gridtolerance="10"
     guidetolerance="10"
     inkscape:pageopacity="0"
     inkscape:pageshadow="2"
     inkscape:window-width="1087"
     inkscape:window-height="480"
     id="namedview6"
     showgrid="false"
     inkscape:zoom="4.9166667"
     inkscape:cx="2.1355932"
     inkscape:cy="24"
     inkscape:window-x="0"
     inkscape:window-y="25"
     inkscape:window-maximized="0"
     inkscape:current-layer="svg4"
     inkscape:showpageshadow="0"
     inkscape:pagecheckerboard="0"
     inkscape:deskcolor="#d1d1d1" />
  <path
     d="M 6.29,9.9999565e-4 A 6.29,6.29 0 0 0 0,6.291 6.29,6.29 0 0 0 6.29,12.579 6.29,6.29 0 0 0 12.58,6.29 6.29,6.29 0 0 0 6.29,0 Z M 6.272,0.937 A 5.407,5.407 0 0 1 10.763,3.341 0.246,0.246 0 0 0 10.646,3.316 C 9.626,3.296 8.982,4.13 8.982,4.13 8.676,3.723 8.029,3.506 7.632,3.407 7.451,3.361 7.432,3.404 7.558,3.515 L 7.57,3.526 c 0.02,0.002 0.036,0.005 0.062,0.011 0.397,0.1 1.044,0.316 1.35,0.723 0,0 0.644,-0.833 1.664,-0.814 0.041,0 0.073,0.007 0.097,0.014 0.038,-0.028 0.05,-0.054 0.05,-0.077 a 5.407,5.407 0 0 1 0.419,0.779 1.959,1.959 0 0 0 -1.02,-0.293 1.608,1.608 0 0 0 -0.64,0.124 0.94,0.94 0 0 0 -0.014,0.136 c 0,0 0.815,-0.404 1.754,0.212 A 5.407,5.407 0 0 1 11.679,6.344 5.407,5.407 0 0 1 6.272,11.751 5.407,5.407 0 0 1 0.866,6.344 5.407,5.407 0 0 1 6.272,0.938 Z M 6.848,3.65 1.667,3.662 3.934,7.022 v 2.61 H 2.962 v 0.26 H 5.553 V 9.632 H 4.581 V 7.038 L 6.848,3.649 Z M 7.323,3.821 C 7.152,3.814 7.14,3.873 7.243,3.955 A 0.494,0.494 0 0 1 7.323,3.952 C 7.508,3.96 7.76,4 8.063,4.119 c 0,0 -0.015,-0.058 -0.046,-0.146 A 2.279,2.279 0 0 0 7.323,3.821 Z m 0.693,0.872 a 2.437,2.757 44.855 0 0 -0.678,0.12 l 0.107,0.15 C 7.509,5.054 7.65,5.084 7.762,5.033 L 8.163,4.844 a 0.183,0.183 0 0 0 0.111,-0.15 2.437,2.757 44.855 0 0 -0.258,0 z m 0.789,0.092 a 0.157,0.157 0 0 0 -0.01,0.196 l 0.232,0.326 c 0.064,0.09 0.205,0.121 0.316,0.07 l 0.3,-0.142 A 2.437,2.757 44.855 0 0 8.805,4.785 Z M 7.123,4.887 a 2.437,2.757 44.855 0 0 -0.76,0.44 l 0.078,0.109 c 0.064,0.09 0.205,0.12 0.316,0.068 L 7.159,5.315 C 7.27,5.263 7.309,5.148 7.244,5.058 Z M 8.366,4.983 A 0.267,0.267 0 0 0 8.278,5.007 l -0.4,0.188 C 7.766,5.247 7.728,5.362 7.792,5.452 l 0.231,0.327 c 0.064,0.09 0.205,0.12 0.316,0.069 L 8.741,5.658 C 8.852,5.607 8.891,5.492 8.826,5.402 L 8.596,5.075 A 0.23,0.23 0 0 0 8.455,4.988 0.293,0.293 0 0 0 8.365,4.983 Z M 9.796,5.38 9.459,5.539 C 9.347,5.591 9.309,5.706 9.374,5.796 l 0.231,0.326 c 0.064,0.09 0.205,0.121 0.317,0.07 L 10.23,6.046 A 2.437,2.757 44.855 0 0 9.796,5.381 Z M 7.362,5.454 A 0.27,0.27 0 0 0 7.275,5.479 L 6.873,5.668 C 6.762,5.72 6.724,5.834 6.788,5.925 L 7.019,6.25 C 7.084,6.34 7.225,6.372 7.336,6.32 L 7.737,6.13 C 7.848,6.078 7.887,5.964 7.823,5.873 L 7.591,5.547 A 0.229,0.229 0 0 0 7.451,5.459 0.29,0.29 0 0 0 7.362,5.454 Z M 6.197,5.468 A 2.437,2.757 44.855 0 0 5.747,5.977 L 5.754,5.975 6.155,5.787 C 6.267,5.734 6.305,5.62 6.241,5.529 L 6.196,5.468 Z m 2.747,0.33 A 0.273,0.273 0 0 0 8.857,5.822 L 8.455,6.011 C 8.344,6.063 8.306,6.178 8.37,6.268 l 0.231,0.326 c 0.064,0.09 0.205,0.121 0.317,0.069 L 9.32,6.473 C 9.43,6.422 9.468,6.307 9.404,6.217 L 9.174,5.89 A 0.23,0.23 0 0 0 9.033,5.803 0.29,0.29 0 0 0 8.944,5.798 Z M 6.359,5.925 A 0.273,0.273 0 0 0 6.271,5.95 L 5.87,6.138 C 5.758,6.19 5.72,6.305 5.784,6.395 L 6.016,6.721 C 6.08,6.811 6.221,6.841 6.332,6.79 L 6.734,6.601 C 6.844,6.549 6.883,6.434 6.819,6.344 L 6.587,6.019 A 0.232,0.232 0 0 0 6.447,5.93 0.29,0.29 0 0 0 6.359,5.925 Z m 3.939,0.307 -0.26,0.122 C 9.926,6.407 9.888,6.522 9.952,6.612 l 0.232,0.326 A 0.248,0.248 0 0 0 10.41,7.03 2.437,2.757 44.855 0 0 10.298,6.232 Z M 7.94,6.269 A 0.27,0.27 0 0 0 7.854,6.293 L 7.452,6.482 C 7.341,6.534 7.302,6.649 7.367,6.739 l 0.23,0.326 c 0.065,0.09 0.206,0.12 0.318,0.068 l 0.4,-0.188 C 8.427,6.893 8.465,6.778 8.401,6.688 L 8.17,6.361 A 0.23,0.23 0 0 0 8.03,6.273 0.293,0.293 0 0 0 7.94,6.269 Z M 5.49,6.42 A 2.437,2.757 44.855 0 0 5.352,6.755 2.437,2.757 44.855 0 0 5.235,7.285 0.27,0.27 0 0 0 5.329,7.261 L 5.73,7.073 C 5.841,7.021 5.88,6.906 5.815,6.815 L 5.584,6.489 A 0.217,0.217 0 0 0 5.489,6.42 Z M 9.523,6.612 A 0.274,0.274 0 0 0 9.435,6.636 L 9.033,6.825 C 8.923,6.877 8.884,6.991 8.949,7.082 L 9.18,7.408 c 0.064,0.09 0.205,0.122 0.316,0.07 L 9.898,7.288 C 10.01,7.236 10.048,7.121 9.983,7.031 L 9.751,6.704 A 0.23,0.23 0 0 0 9.611,6.617 0.293,0.293 0 0 0 9.523,6.612 Z M 6.937,6.74 A 0.273,0.273 0 0 0 6.849,6.764 L 6.448,6.952 C 6.337,7.005 6.299,7.119 6.363,7.21 L 6.595,7.536 C 6.659,7.626 6.8,7.657 6.911,7.606 L 7.312,7.416 C 7.424,7.364 7.462,7.249 7.397,7.159 L 7.166,6.832 A 0.231,0.231 0 0 0 7.026,6.745 0.287,0.287 0 0 0 6.937,6.74 Z M 8.519,7.084 A 0.275,0.275 0 0 0 8.431,7.107 l -0.4,0.19 C 7.919,7.349 7.881,7.463 7.945,7.553 l 0.231,0.326 c 0.064,0.09 0.206,0.12 0.317,0.069 L 8.894,7.76 C 9.006,7.707 9.044,7.593 8.98,7.502 L 8.748,7.176 A 0.23,0.23 0 0 0 8.608,7.088 0.29,0.29 0 0 0 8.519,7.084 Z M 5.933,7.212 A 0.268,0.268 0 0 0 5.846,7.236 L 5.444,7.424 C 5.334,7.476 5.295,7.591 5.359,7.682 l 0.232,0.326 c 0.064,0.09 0.205,0.12 0.316,0.068 L 6.309,7.888 C 6.421,7.835 6.459,7.721 6.394,7.63 L 6.164,7.305 A 0.23,0.23 0 0 0 6.023,7.217 H 6.022 A 0.29,0.29 0 0 0 5.933,7.212 Z m 4.168,0.215 A 0.268,0.268 0 0 0 10.014,7.452 L 9.612,7.64 C 9.501,7.692 9.462,7.807 9.527,7.897 l 0.232,0.326 c 0.063,0.09 0.201,0.12 0.312,0.07 a 2.437,2.757 44.855 0 0 0.204,-0.47 2.437,2.757 44.855 0 0 0.073,-0.278 L 10.331,7.52 A 0.231,0.231 0 0 0 10.191,7.432 H 10.19 A 0.293,0.293 0 0 0 10.1,7.427 Z M 7.515,7.555 A 0.267,0.267 0 0 0 7.428,7.579 L 7.027,7.767 C 6.915,7.82 6.877,7.934 6.941,8.025 L 7.172,8.351 C 7.237,8.441 7.378,8.472 7.489,8.42 L 7.89,8.231 C 8.001,8.179 8.04,8.064 7.975,7.974 L 7.746,7.648 A 0.232,0.232 0 0 0 7.606,7.56 H 7.605 A 0.293,0.293 0 0 0 7.516,7.555 Z M 5.229,7.875 A 2.437,2.757 44.855 0 0 5.327,8.343 C 5.419,8.286 5.449,8.185 5.39,8.102 L 5.23,7.875 Z M 9.097,7.899 A 0.274,0.274 0 0 0 9.01,7.923 L 8.608,8.111 C 8.497,8.164 8.459,8.279 8.523,8.369 l 0.232,0.326 c 0.064,0.09 0.205,0.12 0.316,0.068 L 9.473,8.575 C 9.584,8.522 9.622,8.407 9.558,8.317 L 9.326,7.991 A 0.23,0.23 0 0 0 9.186,7.904 0.287,0.287 0 0 0 9.097,7.899 Z M 6.511,8.026 A 0.27,0.27 0 0 0 6.424,8.051 L 6.023,8.239 C 5.911,8.291 5.873,8.406 5.938,8.496 l 0.23,0.327 c 0.065,0.09 0.206,0.12 0.318,0.068 L 6.887,8.703 C 6.998,8.65 7.036,8.536 6.972,8.445 L 6.741,8.12 A 0.229,0.229 0 0 0 6.601,8.031 H 6.6 A 0.29,0.29 0 0 0 6.511,8.026 Z M 8.094,8.37 A 0.272,0.272 0 0 0 8.006,8.394 L 7.605,8.583 C 7.494,8.635 7.455,8.75 7.52,8.84 l 0.23,0.326 c 0.065,0.09 0.206,0.121 0.317,0.069 L 8.469,9.046 C 8.58,8.994 8.619,8.879 8.554,8.789 L 8.323,8.463 A 0.23,0.23 0 0 0 8.183,8.375 0.29,0.29 0 0 0 8.093,8.37 Z M 5.508,8.498 A 0.274,0.274 0 0 0 5.421,8.522 L 5.396,8.534 A 2.437,2.757 44.855 0 0 5.83,9.199 L 5.883,9.174 C 5.994,9.122 6.033,9.007 5.968,8.917 L 5.738,8.591 A 0.228,0.228 0 0 0 5.597,8.503 0.29,0.29 0 0 0 5.508,8.498 Z M 9.676,8.714 A 0.265,0.265 0 0 0 9.589,8.738 L 9.186,8.928 C 9.075,8.98 9.036,9.095 9.101,9.185 L 9.19,9.311 A 2.437,2.757 44.855 0 0 9.786,8.728 L 9.765,8.718 A 0.293,0.293 0 0 0 9.675,8.714 Z M 7.09,8.842 A 0.267,0.267 0 0 0 7.003,8.866 L 6.601,9.055 C 6.491,9.107 6.451,9.222 6.516,9.312 l 0.231,0.326 c 0.064,0.09 0.206,0.12 0.317,0.069 l 0.4,-0.19 C 7.576,9.465 7.614,9.351 7.55,9.26 L 7.32,8.934 A 0.23,0.23 0 0 0 7.179,8.847 0.293,0.293 0 0 0 7.089,8.842 Z M 8.672,9.185 A 0.27,0.27 0 0 0 8.584,9.209 L 8.183,9.399 C 8.071,9.45 8.033,9.565 8.098,9.656 l 0.1,0.14 A 2.437,2.757 44.855 0 0 9.011,9.432 L 8.901,9.278 A 0.23,0.23 0 0 0 8.761,9.19 H 8.76 A 0.287,0.287 0 0 0 8.672,9.185 Z M 6.086,9.313 A 0.273,0.273 0 0 0 5.999,9.338 L 5.983,9.345 a 2.437,2.757 44.855 0 0 0.53,0.34 L 6.315,9.406 A 0.23,0.23 0 0 0 6.175,9.318 0.29,0.29 0 0 0 6.086,9.313 Z M 7.669,9.657 A 0.276,0.276 0 0 0 7.581,9.681 L 7.18,9.87 7.178,9.871 A 2.437,2.757 44.855 0 0 7.967,9.847 L 7.898,9.749 A 0.232,0.232 0 0 0 7.758,9.661 H 7.756 A 0.29,0.29 0 0 0 7.668,9.657 Z"
     id="path2"
     inkscape:connector-curvature="0"
     style="fill:#bde6fb;fill-opacity:1" />
</svg>
