<?xml version="1.0" encoding="UTF-8" standalone="no"?>
<svg
   width="47.546455"
   height="47.546455"
   viewBox="0 0 12.58 12.58"
   version="1.1"
   id="svg4"
   sodipodi:docname="hedgewars.svg"
   inkscape:version="0.92.4 (5da689c313, 2019-01-14)"
   xmlns:inkscape="http://www.inkscape.org/namespaces/inkscape"
   xmlns:sodipodi="http://sodipodi.sourceforge.net/DTD/sodipodi-0.dtd"
   xmlns="http://www.w3.org/2000/svg"
   xmlns:svg="http://www.w3.org/2000/svg"
   xmlns:rdf="http://www.w3.org/1999/02/22-rdf-syntax-ns#"
   xmlns:cc="http://creativecommons.org/ns#"
   xmlns:dc="http://purl.org/dc/elements/1.1/">
  <metadata
     id="metadata10">
    <rdf:RDF>
      <cc:Work
         rdf:about="">
        <dc:format>image/svg+xml</dc:format>
        <dc:type
           rdf:resource="http://purl.org/dc/dcmitype/StillImage" />
        <dc:title />
      </cc:Work>
    </rdf:RDF>
  </metadata>
  <defs
     id="defs8" />
  <sodipodi:namedview
     pagecolor="#ffffff"
     bordercolor="#666666"
     borderopacity="1"
     objecttolerance="10"
     gridtolerance="10"
     guidetolerance="10"
     inkscape:pageopacity="0"
     inkscape:pageshadow="2"
     inkscape:window-width="862"
     inkscape:window-height="480"
     id="namedview6"
     showgrid="false"
     inkscape:zoom="4.9166667"
     inkscape:cx="2.1355932"
     inkscape:cy="24"
     inkscape:window-x="0"
     inkscape:window-y="25"
     inkscape:window-maximized="0"
     inkscape:current-layer="svg4"
     inkscape:showpageshadow="0"
     inkscape:pagecheckerboard="0"
     inkscape:deskcolor="#d1d1d1" />
  <path
     d="M 6.29,9.9999768e-4 A 6.29,6.29 0 0 0 0,6.291 6.29,6.29 0 0 0 6.29,12.58 6.29,6.29 0 0 0 12.58,6.29 6.29,6.29 0 0 0 6.29,0 Z M 6.272,0.938 A 5.407,5.407 0 0 1 11.679,6.345 5.407,5.407 0 0 1 6.272,11.752 5.407,5.407 0 0 1 0.866,6.345 5.407,5.407 0 0 1 6.272,0.939 Z m -1.3,1.136 V 3.612 L 2.658,3.57 3.792,5.183 2.056,5.87 3.529,6.959 2.43,8.355 4.017,8.475 A 0.885,0.885 0 0 0 3.997,8.652 0.885,0.885 0 0 0 4.883,9.537 0.885,0.885 0 0 0 5.389,9.377 0.967,0.967 0 0 0 5.386,9.443 0.967,0.967 0 0 0 6.353,10.411 0.967,0.967 0 0 0 7.093,10.063 0.967,0.967 0 0 0 7.906,10.507 0.967,0.967 0 0 0 8.873,9.54 0.967,0.967 0 0 0 8.691,8.979 3.048,3.048 0 0 0 9.473,8.173 0.967,0.967 0 0 0 9.556,8.178 0.967,0.967 0 0 0 10.523,7.211 0.967,0.967 0 0 0 9.976,6.342 3.048,3.048 0 0 0 7.347,3.47 L 4.973,2.074 Z M 6.956,3.633 A 2.836,2.836 0 0 1 9.555,7.605 2.688,2.688 0 1 1 5.82,3.869 2.825,2.825 0 0 1 6.955,3.632 Z M 7.679,4.781 A 1.174,0.882 76.108 0 0 7.504,4.801 1.174,0.882 76.108 0 0 6.929,6.153 1.174,0.882 76.108 0 0 8.067,7.081 1.174,0.882 76.108 0 0 8.563,6.655 0.956,0.718 76.108 0 0 9.023,6.735 0.956,0.718 76.108 0 0 9.49,5.635 0.956,0.718 76.108 0 0 8.707,4.865 0.956,0.718 76.108 0 0 8.564,4.88 0.956,0.718 76.108 0 0 8.274,5.06 1.174,0.882 76.108 0 0 7.679,4.781 Z m 1.338,0.73 a 0.298,0.4 0 0 1 0.297,0.401 0.298,0.4 0 0 1 -0.297,0.4 0.298,0.4 0 0 1 -0.298,-0.4 0.298,0.4 0 0 1 0.298,-0.4 z M 7.983,5.553 a 0.34,0.456 0 0 1 0.34,0.456 0.34,0.456 0 0 1 -0.34,0.456 0.34,0.456 0 0 1 -0.34,-0.456 0.34,0.456 0 0 1 0.34,-0.456 z m 2,0.981 A 0.586,0.586 0 0 1 10.246,7.022 0.586,0.586 0 0 1 9.776,7.596 3.048,3.048 0 0 0 9.983,6.534 Z M 9.113,7.16 C 9.063,7.165 8.934,7.282 8.934,7.282 8.62,7.502 8.395,7.466 8.139,7.457 7.942,7.45 7.969,7.593 8.047,7.642 8.074,7.659 8.139,7.668 8.139,7.668 8.719,7.727 9.015,7.464 9.109,7.289 9.161,7.192 9.129,7.165 9.129,7.165 9.125,7.16 9.119,7.159 9.112,7.16 Z M 4.503,8.317 A 3.048,3.048 0 0 0 5.246,9.023 0.556,0.556 0 0 1 5.02,9.071 0.556,0.556 0 0 1 4.465,8.516 0.556,0.556 0 0 1 4.502,8.317 Z M 8.53,9.082 A 0.629,0.629 0 0 1 8.58,9.324 0.629,0.629 0 0 1 7.95,9.954 0.629,0.629 0 0 1 7.349,9.505 3.048,3.048 0 0 0 8.529,9.082 Z M 5.76,9.297 A 3.048,3.048 0 0 0 6.878,9.535 0.597,0.597 0 0 1 6.354,9.845 0.597,0.597 0 0 1 5.76,9.297 Z"
     id="path2"
     inkscape:connector-curvature="0"
     style="fill:#bde6fb;fill-opacity:1" />
</svg>
