<?xml version="1.0" encoding="UTF-8" standalone="no"?>
<svg
   width="48"
   height="48"
   viewBox="0 0 12.7 12.7"
   version="1.1"
   id="svg4"
   sodipodi:docname="helm_icon.svg"
   inkscape:version="0.92.5 (2060ec1f9f, 2020-04-08)"
   xmlns:inkscape="http://www.inkscape.org/namespaces/inkscape"
   xmlns:sodipodi="http://sodipodi.sourceforge.net/DTD/sodipodi-0.dtd"
   xmlns="http://www.w3.org/2000/svg"
   xmlns:svg="http://www.w3.org/2000/svg">
  <sodipodi:namedview
     id="namedview1"
     pagecolor="#505050"
     bordercolor="#eeeeee"
     borderopacity="1"
     inkscape:showpageshadow="0"
     inkscape:pageopacity="0"
     inkscape:pagecheckerboard="0"
     inkscape:deskcolor="#d1d1d1" />
  <defs
     id="defs8">
    <style
       id="current-color-scheme"
       type="text/css">&#10;      .ColorScheme-Highlight {&#10;        color:#1e3f5a;&#10;      }&#10;  </style>
  </defs>
  <path
     class="ColorScheme-Highlight"
     style="fill:#bde6fb;fill-opacity:1;stroke-width:0.264583"
     d="M 6.3499999,0 A 6.3499999,6.3499999 0 0 0 0,6.3499999 6.3499999,6.3499999 0 0 0 6.3499999,12.7 6.3499999,6.3499999 0 0 0 12.7,6.3499999 6.3499999,6.3499999 0 0 0 6.3499999,0 Z m 0,0.79374999 A 5.5562499,5.5562499 0 0 1 11.90625,6.3499999 5.5562499,5.5562499 0 0 1 6.3499999,11.90625 5.5562499,5.5562499 0 0 1 0.79374999,6.3499999 5.5562499,5.5562499 0 0 1 6.3499999,0.79374999 Z m 0,1.21698001 c -2.4841303,9e-7 -4.4979158,2.0137864 -4.4979166,4.4979165 0.00166,1.0582574 0.3764118,2.0820411 1.0583333,2.8912965 V 7.3023965 6.5086465 L 5.5562499,4.3919798 v 0.79375 1.5875 0.2645833 1.0583333 c 0.5291667,0.2645834 1.0583334,0.2645834 1.5875,0 v -1.0583333 -0.2645833 -1.5875 -0.79375 l 2.6458333,2.1166667 v 0.79375 2.1042643 C 10.472991,8.5956388 10.847833,7.5692137 10.847917,6.5086465 10.847915,4.0245164 8.8341302,2.0107309 6.3499999,2.01073 Z m -1.5875,3.8101033 -1.0583333,0.84646 v 1.4288531 0.79375 0.4568198 C 4.4723248,9.9079578 5.3986554,10.211187 6.3499999,10.212813 7.3014596,10.210908 8.227801,9.9072926 8.9958332,9.3456828 V 8.8898964 8.0961464 6.6672933 l -1.0583333,-0.84646 v 2.2753131 0.5291667 c -1.0583333,0.5291667 -2.1166666,0.5291667 -3.175,0 V 8.0961464 Z"
     id="path817" />
</svg>
