<?xml version="1.0" encoding="UTF-8" standalone="no"?>
<svg
   width="47.546486"
   height="47.546486"
   viewBox="0 0 12.580008 12.580008"
   version="1.1"
   id="svg4"
   sodipodi:docname="homebank.svg"
   inkscape:version="0.92.4 (5da689c313, 2019-01-14)"
   xmlns:inkscape="http://www.inkscape.org/namespaces/inkscape"
   xmlns:sodipodi="http://sodipodi.sourceforge.net/DTD/sodipodi-0.dtd"
   xmlns="http://www.w3.org/2000/svg"
   xmlns:svg="http://www.w3.org/2000/svg"
   xmlns:rdf="http://www.w3.org/1999/02/22-rdf-syntax-ns#"
   xmlns:cc="http://creativecommons.org/ns#"
   xmlns:dc="http://purl.org/dc/elements/1.1/">
  <metadata
     id="metadata10">
    <rdf:RDF>
      <cc:Work
         rdf:about="">
        <dc:format>image/svg+xml</dc:format>
        <dc:type
           rdf:resource="http://purl.org/dc/dcmitype/StillImage" />
        <dc:title />
      </cc:Work>
    </rdf:RDF>
  </metadata>
  <defs
     id="defs8" />
  <sodipodi:namedview
     pagecolor="#ffffff"
     bordercolor="#666666"
     borderopacity="1"
     objecttolerance="10"
     gridtolerance="10"
     guidetolerance="10"
     inkscape:pageopacity="0"
     inkscape:pageshadow="2"
     inkscape:window-width="1087"
     inkscape:window-height="480"
     id="namedview6"
     showgrid="false"
     inkscape:zoom="4.9166667"
     inkscape:cx="2.1355932"
     inkscape:cy="24"
     inkscape:window-x="0"
     inkscape:window-y="25"
     inkscape:window-maximized="0"
     inkscape:current-layer="svg4"
     inkscape:showpageshadow="0"
     inkscape:pagecheckerboard="0"
     inkscape:deskcolor="#d1d1d1" />
  <path
     d="M 6.2900079,0 A 6.29,6.29 0 0 0 7.9490244e-6,6.3 6.29,6.29 0 0 0 6.3000079,12.58 6.29,6.29 0 0 0 12.580008,6.29 6.29,6.29 0 0 0 6.2900079,0 Z m -0.01,0.94 A 5.4,5.4 0 0 1 11.680008,6.34 5.4,5.4 0 0 1 6.2800079,11.75 5.4,5.4 0 0 1 0.87000795,6.35 5.4,5.4 0 0 1 6.2700079,0.93 Z m 0,0.53 -4.94,4.93 0.96,0.96 0.8,-0.8 v 3.82 h 6.35 V 6.56 l 0.8000001,0.8 0.95,-0.96 -4.9300001,-4.93 z m 1.9,0.64 v 0.47 l 1.28,1.28 V 2.11 h -1.27 z m -2.21,2.32 h 0.68 v 0.68 h 1 v 0.68 h -1.01 v 0.67 c 0.16,0 0.33,0.03 0.5,0.1 0.15,0.07 0.3,0.19 0.39,0.35 0.1,0.17 0.13,0.36 0.13,0.58 0,0.2 -0.02,0.37 -0.1,0.53 -0.06,0.16 -0.2,0.3 -0.34,0.37 -0.2,0.1 -0.38,0.11 -0.58,0.12 v 0.68 h -0.69 V 8.51 h -1.01 V 7.83 h 1.01 V 7.15 a 1.3,1.3 0 0 1 -0.5,-0.1 0.83,0.83 0 0 1 -0.39,-0.34 c -0.08,-0.16 -0.11,-0.36 -0.11,-0.58 0,-0.17 -0.02,-0.47 0.21,-0.7 0.19,-0.2 0.44,-0.28 0.8,-0.3 v -0.7 z m 0,1.38 c -0.2,0.03 -0.3,0.08 -0.31,0.1 -0.02,0.01 -0.03,0.05 -0.03,0.22 0,0.14 0.03,0.21 0.05,0.24 0.02,0.04 0.03,0.05 0.07,0.06 0.04,0.02 0.12,0.03 0.22,0.04 z m 0.68,1.34 v 0.67 c 0.14,-0.01 0.24,-0.02 0.27,-0.04 0.03,-0.01 0.02,0 0.04,-0.04 a 0.7,0.7 0 0 0 0.03,-0.25 0.52,0.52 0 0 0 -0.04,-0.25 c -0.02,-0.03 -0.03,-0.04 -0.07,-0.05 a 0.8,0.8 0 0 0 -0.23,-0.04 z"
     id="path2"
     inkscape:connector-curvature="0"
     style="fill:#bde6fb;fill-opacity:1" />
</svg>
