<?xml version="1.0" encoding="UTF-8" standalone="no"?>
<svg
   width="48"
   height="48"
   viewBox="0 0 12.7 12.7"
   version="1.1"
   id="svg4"
   sodipodi:docname="hub.svg"
   inkscape:version="0.92.5 (2060ec1f9f, 2020-04-08)"
   xmlns:inkscape="http://www.inkscape.org/namespaces/inkscape"
   xmlns:sodipodi="http://sodipodi.sourceforge.net/DTD/sodipodi-0.dtd"
   xmlns="http://www.w3.org/2000/svg"
   xmlns:svg="http://www.w3.org/2000/svg">
  <sodipodi:namedview
     id="namedview1"
     pagecolor="#505050"
     bordercolor="#eeeeee"
     borderopacity="1"
     inkscape:showpageshadow="0"
     inkscape:pageopacity="0"
     inkscape:pagecheckerboard="0"
     inkscape:deskcolor="#d1d1d1" />
  <defs
     id="defs8">
    <style
       id="current-color-scheme"
       type="text/css">&#10;      .ColorScheme-Highlight {&#10;        color:#1e3f5a;&#10;      }&#10;  </style>
  </defs>
  <path
     class="ColorScheme-Highlight"
     style="fill:#bde6fb;fill-opacity:1;stroke-width:0.264583"
     d="M 6.3499999,0 A 6.3499999,6.3499999 0 0 0 0,6.3499999 6.3499999,6.3499999 0 0 0 6.3499999,12.7 6.3499999,6.3499999 0 0 0 12.7,6.3499999 6.3499999,6.3499999 0 0 0 6.3499999,0 Z m 0,0.79374999 A 5.5562499,5.5562499 0 0 1 11.90625,6.3499999 5.5562499,5.5562499 0 0 1 6.3499999,11.90625 5.5562499,5.5562499 0 0 1 0.79374999,6.3499999 5.5562499,5.5562499 0 0 1 6.3499999,0.79374999 Z m 0,1.05833331 A 4.4979182,4.4979182 0 0 0 1.8520833,6.3499999 4.4979182,4.4979182 0 0 0 6.3499999,10.847917 4.4979182,4.4979182 0 0 0 10.847917,6.3499999 4.4979182,4.4979182 0 0 0 6.3499999,1.8520833 Z m -2.3812499,3.175 H 4.4979166 V 6.0854166 H 5.5562499 V 5.0270833 H 6.0854166 V 7.6729166 H 5.5562499 V 6.6145833 H 4.4979166 V 7.6729166 H 3.96875 V 6.6145833 6.0854166 Z m 2.6458333,0 h 0.5291666 0.5291667 a 0.79374999,0.79374999 0 0 1 0.79375,0.79375 0.79374999,0.79374999 0 0 1 -0.2030884,0.5291666 0.79374999,0.79374999 0 0 1 0.2030884,0.5291667 0.79374999,0.79374999 0 0 1 -0.79375,0.79375 H 7.1437499 6.6145833 Z M 7.1437499,5.5562499 V 6.0854166 H 7.6729166 A 0.26458331,0.26458331 0 0 0 7.9374999,5.8208333 0.26458331,0.26458331 0 0 0 7.6729166,5.5562499 Z m 0,1.0583334 V 7.1437499 H 7.6729166 A 0.26458331,0.26458331 0 0 0 7.9374999,6.8791666 0.26458331,0.26458331 0 0 0 7.6729166,6.6145833 Z M 4.4979166,8.4666666 H 8.2020832 V 8.9958332 H 4.4979166 Z"
     id="path898" />
</svg>
