<?xml version="1.0" encoding="UTF-8" standalone="no"?>
<svg
   width="47.508694"
   height="47.546455"
   viewBox="0 0 12.570009 12.58"
   version="1.1"
   id="svg8"
   sodipodi:docname="icecat.svg"
   inkscape:version="0.92.4 (5da689c313, 2019-01-14)"
   xmlns:inkscape="http://www.inkscape.org/namespaces/inkscape"
   xmlns:sodipodi="http://sodipodi.sourceforge.net/DTD/sodipodi-0.dtd"
   xmlns="http://www.w3.org/2000/svg"
   xmlns:svg="http://www.w3.org/2000/svg"
   xmlns:rdf="http://www.w3.org/1999/02/22-rdf-syntax-ns#"
   xmlns:cc="http://creativecommons.org/ns#"
   xmlns:dc="http://purl.org/dc/elements/1.1/">
  <defs
     id="defs12" />
  <sodipodi:namedview
     pagecolor="#ffffff"
     bordercolor="#666666"
     borderopacity="1"
     objecttolerance="10"
     gridtolerance="10"
     guidetolerance="10"
     inkscape:pageopacity="0"
     inkscape:pageshadow="2"
     inkscape:window-width="1087"
     inkscape:window-height="480"
     id="namedview10"
     showgrid="false"
     inkscape:zoom="4.9166667"
     inkscape:cx="2.1355932"
     inkscape:cy="24"
     inkscape:window-x="0"
     inkscape:window-y="25"
     inkscape:window-maximized="0"
     inkscape:current-layer="svg8"
     inkscape:showpageshadow="0"
     inkscape:pagecheckerboard="0"
     inkscape:deskcolor="#d1d1d1" />
  <metadata
     id="metadata2">
    <rdf:RDF>
      <cc:Work>
        <dc:format>image/svg+xml</dc:format>
        <dc:type
           rdf:resource="http://purl.org/dc/dcmitype/StillImage" />
        <dc:title />
      </cc:Work>
    </rdf:RDF>
  </metadata>
  <path
     d="M 6.280008,0 A 6.29,6.29 0 0 0 7.9585612e-6,6.3 6.29,6.29 0 0 0 6.290008,12.58 a 6.29,6.29 0 0 0 6.28,-6.29 6.29,6.29 0 0 0 -6.29,-6.29 z m -0.01,0.94 a 5.4,5.4 0 0 1 5.4,5.4 5.4,5.4 0 0 1 -5.4,5.41 A 5.4,5.4 0 0 1 0.86000796,6.35 5.4,5.4 0 0 1 6.260008,0.93 Z"
     id="path4"
     inkscape:connector-curvature="0"
     style="fill:#bde6fb;fill-opacity:1" />
  <path
     d="m 5.140008,2.12 c -1.97,0 -2.9,1.54 -3.24,3.62 0.86,-1.32 1.35,-1.5 1.6,-1.6 0.2,-0.06 0.36,-0.09 0.5,-0.08 0.91,0.03 1.03,1.18 1.25,2.42 0.14,0.52 0.47,1.61 1.08,2.12 0.16,0.13 0.36,0.33 0.56,0.25 0.17,-0.07 0.2,-0.35 0.07,-0.65 -0.11,-0.36 -0.32,-0.68 -0.44,-1.06 -0.24,-0.8 -0.39,-1.02 -0.13,-1.78 0.14,-0.41 0.44,-0.79 0.58,-0.61 l 0.28,0.34 c 0.23,0.45 0.62,0.88 1.1,1.1 0.27,0.13 0.42,0.16 0.7,0.03 0.23,-0.15 0.08,-0.7 0.32,-1.19 0.19,-0.37 0.36,-0.58 0.35,-0.96 0.07,-0.03 0.1,-0.08 0.13,-0.17 0.01,-0.04 0.04,-0.1 0.1,-0.17 0.21,-0.17 0.34,-0.35 0.29,-0.65 l -1.26,0.32 h -0.47 l -0.18,-0.62 c -0.1,-0.13 -0.16,-0.3 -0.31,-0.33 l -0.21,0.6 c -0.7,-0.3 -1.4,-0.9 -2.67,-0.93 z m 2.86,2.89 c 0.16,0.06 0.3,0.04 0.48,0.2 a 0.83,0.83 0 0 0 0,0.28 c 0,0 0.02,-0.06 -0.48,-0.48 z m 0.74,0.96 0.27,0.02 c -0.06,0.07 -0.13,0.1 -0.2,0.11 l -0.25,-0.03 0.03,-0.03 z m -5.77,0.65 a 0.36,0.36 0 0 0 -0.18,0.06 c -0.28,0.2 -0.25,0.5 -0.23,0.85 a 4.14,4.14 0 0 0 4.13,3.58 c 1.1,-0.03 2.17,-0.51 2.27,-1.56 0.02,-0.24 0,-0.49 -0.05,-0.73 -0.34,0.75 -1.03,1.49 -2.01,1.32 -2.17,-0.36 -2.6,-1.38 -3.5,-3.18 -0.12,-0.19 -0.26,-0.34 -0.43,-0.34 z"
     id="path6"
     inkscape:connector-curvature="0"
     style="opacity:0.75;fill:#2c89a0" />
</svg>
