<?xml version="1.0" encoding="UTF-8" standalone="no"?>
<svg
   width="47.542679"
   height="47.546455"
   viewBox="0 0 12.579 12.58"
   version="1.1"
   id="svg8"
   sodipodi:docname="icq.svg"
   inkscape:version="0.92.5 (2060ec1f9f, 2020-04-08)"
   xmlns:inkscape="http://www.inkscape.org/namespaces/inkscape"
   xmlns:sodipodi="http://sodipodi.sourceforge.net/DTD/sodipodi-0.dtd"
   xmlns="http://www.w3.org/2000/svg"
   xmlns:svg="http://www.w3.org/2000/svg"
   xmlns:rdf="http://www.w3.org/1999/02/22-rdf-syntax-ns#"
   xmlns:cc="http://creativecommons.org/ns#"
   xmlns:dc="http://purl.org/dc/elements/1.1/">
  <metadata
     id="metadata14">
    <rdf:RDF>
      <cc:Work
         rdf:about="">
        <dc:format>image/svg+xml</dc:format>
        <dc:type
           rdf:resource="http://purl.org/dc/dcmitype/StillImage" />
        <dc:title />
      </cc:Work>
    </rdf:RDF>
  </metadata>
  <defs
     id="defs12" />
  <sodipodi:namedview
     pagecolor="#ffffff"
     bordercolor="#666666"
     borderopacity="1"
     objecttolerance="10"
     gridtolerance="10"
     guidetolerance="10"
     inkscape:pageopacity="0"
     inkscape:pageshadow="2"
     inkscape:window-width="1085"
     inkscape:window-height="480"
     id="namedview10"
     showgrid="false"
     inkscape:zoom="4.9166667"
     inkscape:cx="2.1355932"
     inkscape:cy="24"
     inkscape:window-x="0"
     inkscape:window-y="25"
     inkscape:window-maximized="0"
     inkscape:current-layer="svg8"
     inkscape:showpageshadow="0"
     inkscape:pagecheckerboard="0"
     inkscape:deskcolor="#d1d1d1" />
  <path
     d="M 6.285,0 A 6.295,6.295 0 0 0 0,6.285 6.295,6.295 0 0 0 6.285,12.58 6.295,6.295 0 0 0 12.579,6.285 6.295,6.295 0 0 0 6.285,0 Z M 6.274,0.94 a 5.408,5.408 0 0 1 5.397,5.387 5.407,5.407 0 0 1 -10.814,0 C 0.857,3.34 3.287,0.94 6.274,0.94 Z M 7.58,1.875 C 7.373,1.876 7.166,1.93 6.993,2.041 6.515,2.338 6.469,2.612 6.609,4.163 L 6.679,4.909 6.9,5.037 7.122,5.166 7.361,4.904 C 7.921,4.297 8.515,3.499 8.579,3.26 8.667,2.916 8.619,2.507 8.457,2.28 8.271,2.018 7.925,1.874 7.58,1.875 Z M 4.698,2.109 A 0.451,0.451 0 0 0 4.312,2.257 C 4.189,2.385 4.172,2.461 4.172,2.793 4.177,3.341 4.317,3.598 4.999,4.303 5.524,4.851 5.729,4.991 5.845,4.874 5.862,4.857 5.798,4.42 5.711,3.907 5.583,3.184 5.507,2.898 5.379,2.665 5.189,2.33 4.934,2.133 4.698,2.109 Z m 4.96,2.1 C 9.465,4.209 9.214,4.251 9.104,4.297 8.882,4.397 7.53,5.515 7.483,5.644 7.466,5.69 7.471,5.749 7.501,5.778 7.559,5.83 9.104,5.644 9.494,5.538 10.077,5.381 10.509,4.921 10.386,4.594 10.281,4.326 10.054,4.204 9.658,4.209 Z m -6.43,0.06 A 1.218,1.218 0 0 0 2.615,4.408 C 2.3,4.571 2.125,4.775 2.038,5.078 1.957,5.352 1.998,5.539 2.196,5.772 2.446,6.069 2.645,6.092 3.706,5.959 4.218,5.889 4.673,5.836 4.708,5.836 4.801,5.836 5.04,5.37 4.976,5.311 4.761,5.113 3.758,4.425 3.583,4.35 A 1.042,1.042 0 0 0 3.228,4.268 Z M 9.37,6.485 C 9.045,6.485 8.631,6.51 8.177,6.559 L 7.57,6.623 7.489,6.821 C 7.442,6.932 7.425,7.043 7.448,7.061 8.375,7.877 9.145,8.465 9.343,8.523 10.066,8.716 10.759,7.987 10.555,7.247 10.485,6.967 10.264,6.687 10.025,6.565 9.928,6.512 9.694,6.486 9.37,6.485 Z M 6.935,7.468 C 6.912,7.468 6.877,7.492 6.854,7.521 6.836,7.551 6.743,7.591 6.649,7.614 6.509,7.644 6.48,7.678 6.504,7.777 6.515,7.847 6.574,8.139 6.626,8.43 6.754,9.147 6.912,9.538 7.18,9.806 7.897,10.523 8.51,9.444 7.897,8.546 7.71,8.266 6.994,7.468 6.935,7.468 Z M 5.468,7.553 C 5.369,7.566 5.209,7.735 4.714,8.337 4.131,9.037 4.026,9.194 3.997,9.421 c -0.11,0.705 0.315,1.254 0.962,1.254 0.42,0 0.938,-0.374 1.026,-0.74 C 6.025,9.783 5.979,8.588 5.915,7.981 5.88,7.713 5.857,7.649 5.752,7.626 5.688,7.608 5.577,7.579 5.507,7.556 A 0.092,0.092 0 0 0 5.467,7.553 Z"
     id="path2"
     inkscape:connector-curvature="0"
     style="fill:#bde6fb;fill-opacity:1" />
  <path
     d="M 5.775,5.498 C 5.437,5.673 5.25,5.953 5.25,6.285 5.25,6.594 5.344,6.786 5.63,7.06 5.822,7.247 5.874,7.264 6.171,7.264 6.463,7.264 6.533,7.241 6.748,7.066 7.052,6.821 7.139,6.623 7.104,6.215 7.081,5.959 7.04,5.854 6.906,5.714 6.574,5.358 6.201,5.288 5.775,5.498 Z"
     id="path4"
     inkscape:connector-curvature="0"
     style="opacity:0.75;fill:#ffd42a" />
  <path
     d="M 3.956,6.711 C 3.35,6.839 2.884,7.072 2.703,7.346 c -0.17,0.25 -0.17,0.367 0,0.565 0.122,0.14 0.18,0.158 0.484,0.158 0.449,0 0.71,-0.134 1.27,-0.67 C 4.907,6.979 4.907,6.973 4.842,6.781 4.761,6.559 4.697,6.553 3.956,6.711 Z"
     id="path6"
     inkscape:connector-curvature="0"
     style="opacity:0.75;fill:#ff2a2a" />
</svg>
