<?xml version="1.0" encoding="UTF-8" standalone="no"?>
<svg
   width="48"
   height="48"
   viewBox="0 0 12.7 12.7"
   version="1.1"
   id="svg4"
   sodipodi:docname="idevice.svg"
   inkscape:version="0.92.5 (2060ec1f9f, 2020-04-08)"
   xmlns:inkscape="http://www.inkscape.org/namespaces/inkscape"
   xmlns:sodipodi="http://sodipodi.sourceforge.net/DTD/sodipodi-0.dtd"
   xmlns="http://www.w3.org/2000/svg"
   xmlns:svg="http://www.w3.org/2000/svg">
  <sodipodi:namedview
     id="namedview1"
     pagecolor="#505050"
     bordercolor="#eeeeee"
     borderopacity="1"
     inkscape:showpageshadow="0"
     inkscape:pageopacity="0"
     inkscape:pagecheckerboard="0"
     inkscape:deskcolor="#d1d1d1" />
  <defs
     id="defs8">
    <style
       id="current-color-scheme"
       type="text/css">&#10;      .ColorScheme-Highlight {&#10;        color:#1e3f5a;&#10;      }&#10;  </style>
  </defs>
  <path
     class="ColorScheme-Highlight"
     style="fill:#bde6fb;fill-opacity:1;stroke-width:0.264583"
     d="M 6.3499999,0 A 6.3499999,6.3499999 0 0 0 0,6.3499999 6.3499999,6.3499999 0 0 0 6.3499999,12.7 6.3499999,6.3499999 0 0 0 12.7,6.3499999 6.3499999,6.3499999 0 0 0 6.3499999,0 Z m 0,0.79374999 A 5.5562499,5.5562499 0 0 1 11.90625,6.3499999 5.5562499,5.5562499 0 0 1 6.3499999,11.90625 5.5562499,5.5562499 0 0 1 0.79374999,6.3499999 5.5562499,5.5562499 0 0 1 6.3499999,0.79374999 Z M 3.96875,2.1166666 c -0.1465792,0 -0.2645834,0.1180042 -0.2645834,0.2645834 v 7.9375 c 0,0.146579 0.1180042,0.264583 0.2645834,0.264583 h 4.7624999 c 0.1465792,0 0.2645833,-0.118004 0.2645833,-0.264583 v -7.9375 c 0,-0.1465792 -0.1180041,-0.2645834 -0.2645833,-0.2645834 z m 0,0.5291667 H 8.7312499 V 8.7312499 H 3.96875 Z M 6.3499999,3.175 5.5562499,4.2333333 h 0.5291667 v 2.5135416 l -0.79375,-0.396875 V 6.0621621 a 0.396875,0.396875 0 0 0 0.2645833,-0.3736205 0.396875,0.396875 0 0 0 -0.396875,-0.396875 0.396875,0.396875 0 0 0 -0.396875,0.396875 0.396875,0.396875 0 0 0 0.2645834,0.3736205 v 0.2878378 0.2645834 l 1.0583333,0.5291666 v 0.07183 A 0.52916663,0.52916663 0 0 0 5.8208333,7.6729166 0.52916663,0.52916663 0 0 0 6.3499999,8.2020832 0.52916663,0.52916663 0 0 0 6.8791666,7.6729166 0.52916663,0.52916663 0 0 0 6.6145833,7.2150633 V 6.8791666 L 7.6729166,6.3499999 V 6.0854166 5.8208333 5.5562499 h 0.2645833 v -0.79375 h -0.79375 v 0.79375 H 7.4083332 V 5.8208333 6.0854166 L 6.6145833,6.4822916 V 6.2177083 6.0854166 4.2333333 H 7.1437499 Z M 5.0270833,9.5249999 H 7.6729166 V 10.054167 H 5.0270833 Z"
     id="path817-3" />
</svg>
