<?xml version="1.0" encoding="UTF-8" standalone="no"?>
<svg
   width="47.546455"
   height="47.546455"
   viewBox="0 0 12.58 12.58"
   version="1.1"
   id="svg6"
   sodipodi:docname="im.vector.svg"
   inkscape:version="0.92.4 (5da689c313, 2019-01-14)"
   xmlns:inkscape="http://www.inkscape.org/namespaces/inkscape"
   xmlns:sodipodi="http://sodipodi.sourceforge.net/DTD/sodipodi-0.dtd"
   xmlns="http://www.w3.org/2000/svg"
   xmlns:svg="http://www.w3.org/2000/svg"
   xmlns:rdf="http://www.w3.org/1999/02/22-rdf-syntax-ns#"
   xmlns:cc="http://creativecommons.org/ns#"
   xmlns:dc="http://purl.org/dc/elements/1.1/">
  <metadata
     id="metadata12">
    <rdf:RDF>
      <cc:Work
         rdf:about="">
        <dc:format>image/svg+xml</dc:format>
        <dc:type
           rdf:resource="http://purl.org/dc/dcmitype/StillImage" />
        <dc:title />
      </cc:Work>
    </rdf:RDF>
  </metadata>
  <defs
     id="defs10" />
  <sodipodi:namedview
     pagecolor="#ffffff"
     bordercolor="#666666"
     borderopacity="1"
     objecttolerance="10"
     gridtolerance="10"
     guidetolerance="10"
     inkscape:pageopacity="0"
     inkscape:pageshadow="2"
     inkscape:window-width="1112"
     inkscape:window-height="480"
     id="namedview8"
     showgrid="false"
     inkscape:zoom="4.9166667"
     inkscape:cx="2.1355932"
     inkscape:cy="24"
     inkscape:window-x="0"
     inkscape:window-y="25"
     inkscape:window-maximized="0"
     inkscape:current-layer="svg6"
     inkscape:showpageshadow="0"
     inkscape:pagecheckerboard="0"
     inkscape:deskcolor="#d1d1d1" />
  <path
     d="m 6.29,0 a 6.29,6.29 0 0 0 0,12.58 A 6.29,6.29 0 0 0 6.29,0 Z M 6.27,0.93 a 5.417,5.417 0 0 1 5.41,5.41 5.4,5.4 0 0 1 -5.4,5.41 5.4,5.4 0 0 1 -5.41,-5.4 5.4,5.4 0 0 1 5.4,-5.42 z M 3.375,4.003 A 0.627,0.627 0 0 0 2.748,4.629 0.627,0.627 0 0 0 3.375,5.256 0.627,0.627 0 0 0 4.002,4.629 0.627,0.627 0 0 0 3.375,4.003 Z m 5.85,0 A 0.627,0.627 0 0 0 8.598,4.629 0.627,0.627 0 0 0 9.225,5.256 0.627,0.627 0 0 0 9.852,4.629 0.627,0.627 0 0 0 9.225,4.003 Z M 3.36,4.42 a 0.209,0.209 0 0 1 0.015,0 A 0.209,0.209 0 0 1 3.584,4.628 0.209,0.209 0 0 1 3.375,4.838 0.209,0.209 0 0 1 3.165,4.628 0.209,0.209 0 0 1 3.36,4.42 Z m 5.85,0 a 0.209,0.209 0 0 1 0.015,0 0.209,0.209 0 0 1 0.21,0.208 0.209,0.209 0 0 1 -0.21,0.21 A 0.209,0.209 0 0 1 9.016,4.628 0.209,0.209 0 0 1 9.21,4.42 Z M 4.048,5.219 a 0.887,0.887 0 0 1 -0.34,0.247 l 1.94,3.358 A 0.887,0.887 0 0 1 5.993,8.587 L 4.048,5.22 Z M 8.555,5.234 6.62,8.59 A 0.887,0.887 0 0 1 6.967,8.827 L 8.9,5.475 A 0.887,0.887 0 0 1 8.556,5.236 Z M 6.29,8.813 A 0.627,0.627 0 0 0 5.663,9.44 0.627,0.627 0 0 0 6.29,10.067 0.627,0.627 0 0 0 6.916,9.44 0.627,0.627 0 0 0 6.29,8.813 Z M 6.275,9.231 a 0.209,0.209 0 0 1 0.015,0 A 0.209,0.209 0 0 1 6.499,9.44 0.209,0.209 0 0 1 6.289,9.649 0.209,0.209 0 0 1 6.081,9.44 0.209,0.209 0 0 1 6.275,9.231 Z"
     id="path2"
     inkscape:connector-curvature="0"
     style="fill:#bde6fb;fill-opacity:1" />
  <path
     style="color:#000000;overflow:visible;opacity:0.5;isolation:auto;mix-blend-mode:normal;solid-color:#000000;solid-opacity:1;fill:#bde6fb;fill-opacity:1;marker:none"
     d="M 6.289,2.493 A 0.627,0.627 0 0 0 5.662,3.12 0.627,0.627 0 0 0 6.289,3.747 0.627,0.627 0 0 0 6.915,3.12 0.627,0.627 0 0 0 6.289,2.493 Z M 6.274,2.911 a 0.209,0.209 0 0 1 0.015,0 A 0.209,0.209 0 0 1 6.498,3.12 0.209,0.209 0 0 1 6.288,3.329 0.209,0.209 0 0 1 6.08,3.12 0.209,0.209 0 0 1 6.274,2.911 Z M 7.197,3.176 A 0.89,0.89 0 0 1 7.064,3.629 l 1.31,0.757 A 0.887,0.887 0 0 1 8.62,3.998 Z M 5.42,3.19 3.99,4.016 A 0.887,0.887 0 0 1 4.218,4.393 L 5.548,3.624 A 0.89,0.89 0 0 1 5.42,3.19 Z M 3.627,5.497 A 0.887,0.887 0 0 1 3.369,5.536 0.887,0.887 0 0 1 3.213,5.522 V 7.125 A 0.887,0.887 0 0 1 3.369,7.11 0.887,0.887 0 0 1 3.627,7.148 Z m 5.35,0.004 V 7.145 A 0.887,0.887 0 0 1 9.22,7.11 0.887,0.887 0 0 1 9.427,7.136 V 5.511 A 0.887,0.887 0 0 1 9.22,5.536 0.887,0.887 0 0 1 8.976,5.501 Z M 3.375,7.351 A 0.627,0.627 0 0 0 2.748,7.977 0.627,0.627 0 0 0 3.375,8.603 0.627,0.627 0 0 0 4.002,7.977 0.627,0.627 0 0 0 3.375,7.35 Z m 5.85,0 A 0.627,0.627 0 0 0 8.598,7.977 0.627,0.627 0 0 0 9.225,8.603 0.627,0.627 0 0 0 9.852,7.977 0.627,0.627 0 0 0 9.225,7.35 Z M 3.36,7.768 a 0.209,0.209 0 0 1 0.015,0 A 0.209,0.209 0 0 1 3.584,7.977 0.209,0.209 0 0 1 3.375,8.186 0.209,0.209 0 0 1 3.165,7.976 0.209,0.209 0 0 1 3.36,7.768 Z m 5.85,0 a 0.209,0.209 0 0 1 0.015,0 0.209,0.209 0 0 1 0.21,0.209 A 0.209,0.209 0 0 1 9.225,8.186 0.209,0.209 0 0 1 9.016,7.976 0.209,0.209 0 0 1 9.21,7.768 Z M 4.238,8.176 A 0.887,0.887 0 0 1 4.066,8.544 L 5.424,9.328 A 0.887,0.887 0 0 1 5.56,8.94 Z M 8.354,8.183 7.05,8.936 a 0.887,0.887 0 0 1 0.139,0.408 l 1.35,-0.78 A 0.887,0.887 0 0 1 8.353,8.184 Z"
     overflow="visible"
     id="path4"
     inkscape:connector-curvature="0" />
</svg>
