<?xml version="1.0" encoding="UTF-8" standalone="no"?>
<svg
   width="48"
   height="48"
   viewBox="0 0 12.7 12.7"
   version="1.1"
   id="svg4"
   sodipodi:docname="image-viewer.svg"
   inkscape:version="0.92.5 (2060ec1f9f, 2020-04-08)"
   xmlns:inkscape="http://www.inkscape.org/namespaces/inkscape"
   xmlns:sodipodi="http://sodipodi.sourceforge.net/DTD/sodipodi-0.dtd"
   xmlns="http://www.w3.org/2000/svg"
   xmlns:svg="http://www.w3.org/2000/svg">
  <sodipodi:namedview
     id="namedview1"
     pagecolor="#505050"
     bordercolor="#eeeeee"
     borderopacity="1"
     inkscape:showpageshadow="0"
     inkscape:pageopacity="0"
     inkscape:pagecheckerboard="0"
     inkscape:deskcolor="#d1d1d1" />
  <defs
     id="defs8">
    <style
       id="current-color-scheme"
       type="text/css">&#10;      .ColorScheme-Highlight {&#10;        color:#1e3f5a;&#10;      }&#10;  </style>
  </defs>
  <path
     class="ColorScheme-Highlight"
     style="fill:#bde6fb;fill-opacity:1;stroke-width:0.264583"
     d="M 6.3499999,0 A 6.3499999,6.3499999 0 0 0 0,6.3499999 6.3499999,6.3499999 0 0 0 6.3499999,12.7 6.3499999,6.3499999 0 0 0 10.274825,11.333158 l -0.209806,-0.209806 a 2.3812498,2.3812498 0 0 1 -0.2061893,0.09198 2.3812498,2.3812498 0 0 1 -0.2258261,0.07493 2.3812498,2.3812498 0 0 1 -0.2325439,0.05219 2.3812498,2.3812498 0 0 1 -0.2361612,0.02842 2.3812498,2.3812498 0 0 1 -0.1684653,0.0062 2.3812498,2.3812498 0 0 1 -0.2377117,-0.01189 2.3812498,2.3812498 0 0 1 -0.022221,-0.0036 A 5.5562499,5.5562499 0 0 1 6.3499999,11.90625 5.5562499,5.5562499 0 0 1 0.79374999,6.3499999 5.5562499,5.5562499 0 0 1 6.3499999,0.79374999 5.5562499,5.5562499 0 0 1 11.90625,6.3499999 a 5.5562499,5.5562499 0 0 1 -0.54622,2.3864176 2.3812498,2.3812498 0 0 1 0.01085,0.09095 2.3812498,2.3812498 0 0 1 0.0062,0.1684652 2.3812498,2.3812498 0 0 1 -0.01189,0.2377117 2.3812498,2.3812498 0 0 1 -0.03566,0.2351276 2.3812498,2.3812498 0 0 1 -0.05891,0.2309937 2.3812498,2.3812498 0 0 1 -0.08165,0.2232421 2.3812498,2.3812498 0 0 1 -0.0677,0.1400442 l 0.216008,0.216007 A 6.3499999,6.3499999 0 0 0 12.7,6.3499999 6.3499999,6.3499999 0 0 0 6.3499999,0 Z M 2.9104166,2.9104166 c -0.1465791,0 -0.2645833,0.1180042 -0.2645833,0.2645834 v 6.6145832 c 0,0.1465792 0.1180042,0.2645838 0.2645833,0.2645838 h 3.953247 A 2.3812498,2.3812498 0 0 1 6.7763304,9.8588297 2.3812498,2.3812498 0 0 1 6.7013997,9.6330036 2.3812498,2.3812498 0 0 1 6.6492064,9.4004597 2.3812498,2.3812498 0 0 1 6.6207846,9.1642985 2.3812498,2.3812498 0 0 1 6.6145833,8.9958332 2.3812498,2.3812498 0 0 1 6.6264689,8.7581215 2.3812498,2.3812498 0 0 1 6.630603,8.7312499 H 3.175 V 3.4395833 H 9.5249999 V 6.676595 A 2.3812498,2.3812498 0 0 1 9.6996662,6.721037 2.3812498,2.3812498 0 0 1 9.9229083,6.802686 2.3812498,2.3812498 0 0 1 10.054167,6.865731 V 3.175 c 0,-0.1465792 -0.1180046,-0.2645834 -0.2645838,-0.2645834 z m 5.159375,1.3229167 A 0.6614583,0.6614583 0 0 0 7.4083332,4.8947916 0.6614583,0.6614583 0 0 0 8.0697916,5.5562499 0.6614583,0.6614583 0 0 0 8.7312499,4.8947916 0.6614583,0.6614583 0 0 0 8.0697916,4.2333333 Z M 3.4395833,5.5562499 V 8.2020832 H 6.3499999 6.7541097 A 2.3812498,2.3812498 0 0 1 6.8026856,8.0687581 2.3812498,2.3812498 0 0 1 6.9060382,7.8543009 2.3812498,2.3812498 0 0 1 7.0305786,7.6512125 2.3812498,2.3812498 0 0 1 7.1747559,7.46156 2.3812498,2.3812498 0 0 1 7.3370198,7.2874105 2.3812498,2.3812498 0 0 1 7.5158202,7.1303141 2.3812498,2.3812498 0 0 1 7.7090901,6.9923379 2.3812498,2.3812498 0 0 1 7.9059772,6.8791666 H 6.8791666 C 6.6145833,6.0854166 6.3499999,5.5562499 5.2916666,5.5562499 Z m 5.5562499,1.5875 A 1.8520833,1.8520833 0 0 0 7.1437499,8.9958332 1.8520833,1.8520833 0 0 0 8.9958332,10.847917 1.8520833,1.8520833 0 0 0 10.105843,10.475846 l 1.348755,1.348238 c 0.103647,0.103648 0.27049,0.103648 0.374137,0 0.103647,-0.103647 0.103647,-0.27049 0,-0.374137 L 10.479464,10.101192 A 1.8520833,1.8520833 0 0 0 10.847917,8.9958332 1.8520833,1.8520833 0 0 0 8.9958332,7.1437499 Z m 0,0.5291667 A 1.3229166,1.3229166 0 0 1 10.31875,8.9958332 1.3229166,1.3229166 0 0 1 8.9958332,10.31875 1.3229166,1.3229166 0 0 1 7.6729166,8.9958332 1.3229166,1.3229166 0 0 1 8.9958332,7.6729166 Z"
     id="path822" />
</svg>
