<?xml version="1.0" encoding="UTF-8" standalone="no"?>
<svg
   width="47.546455"
   height="47.542679"
   viewBox="0 0 12.58 12.579"
   version="1.1"
   id="svg4"
   sodipodi:docname="inkscape.svg"
   inkscape:version="0.92.4 (5da689c313, 2019-01-14)"
   xmlns:inkscape="http://www.inkscape.org/namespaces/inkscape"
   xmlns:sodipodi="http://sodipodi.sourceforge.net/DTD/sodipodi-0.dtd"
   xmlns="http://www.w3.org/2000/svg"
   xmlns:svg="http://www.w3.org/2000/svg"
   xmlns:rdf="http://www.w3.org/1999/02/22-rdf-syntax-ns#"
   xmlns:cc="http://creativecommons.org/ns#"
   xmlns:dc="http://purl.org/dc/elements/1.1/">
  <metadata
     id="metadata10">
    <rdf:RDF>
      <cc:Work
         rdf:about="">
        <dc:format>image/svg+xml</dc:format>
        <dc:type
           rdf:resource="http://purl.org/dc/dcmitype/StillImage" />
        <dc:title />
      </cc:Work>
    </rdf:RDF>
  </metadata>
  <defs
     id="defs8" />
  <sodipodi:namedview
     pagecolor="#ffffff"
     bordercolor="#666666"
     borderopacity="1"
     objecttolerance="10"
     gridtolerance="10"
     guidetolerance="10"
     inkscape:pageopacity="0"
     inkscape:pageshadow="2"
     inkscape:window-width="1087"
     inkscape:window-height="480"
     id="namedview6"
     showgrid="false"
     inkscape:zoom="4.9166667"
     inkscape:cx="2.1355932"
     inkscape:cy="24"
     inkscape:window-x="0"
     inkscape:window-y="25"
     inkscape:window-maximized="0"
     inkscape:current-layer="svg4"
     inkscape:showpageshadow="0"
     inkscape:pagecheckerboard="0"
     inkscape:deskcolor="#d1d1d1" />
  <path
     d="M 6.29,9.9999565e-4 A 6.29,6.29 0 0 0 0,6.291 6.29,6.29 0 0 0 6.29,12.579 6.29,6.29 0 0 0 12.58,6.29 6.29,6.29 0 0 0 6.29,0 Z M 6.272,0.937 A 5.407,5.407 0 0 1 11.679,6.344 5.407,5.407 0 0 1 6.272,11.751 5.407,5.407 0 0 1 0.866,6.344 5.407,5.407 0 0 1 6.272,0.938 Z m 0,0.473 C 5.92,1.41 5.567,1.579 5.296,1.92 L 1.832,6.29 C 1.822,6.302 1.815,6.314 1.807,6.326 L 1.792,6.346 1.781,6.362 C 1.769,6.381 1.761,6.401 1.752,6.42 1.744,6.436 1.735,6.452 1.728,6.469 1.717,6.496 1.709,6.525 1.701,6.554 L 1.689,6.599 1.687,6.606 a 0.71,0.71 0 0 0 0.01,0.299 l 0.012,0.036 a 0.7,0.7 0 0 0 0.052,0.127 l 0.01,0.023 h 0.003 c 0.123,0.211 0.349,0.355 0.611,0.355 h 1.776 a 0.355,0.355 0 1 1 0,0.71 0.355,0.355 0 1 0 0,0.71 h 1.42 a 0.355,0.355 0 0 1 0,0.71 0.71,0.71 0 1 0 0,1.42 h 1.775 a 0.355,0.355 0 1 0 0,-0.71 0.355,0.355 0 1 1 0,-0.71 h 1.066 a 0.355,0.355 0 1 0 0,-0.71 0.355,0.355 0 1 1 0,-0.71 h 1.42 a 1.065,1.065 0 0 0 1.046,-1.26 C 10.886,6.886 10.885,6.875 10.882,6.865 A 1.065,1.065 0 0 0 10.812,6.654 L 10.792,6.607 C 10.78,6.584 10.764,6.563 10.751,6.542 10.738,6.52 10.726,6.498 10.711,6.477 L 10.697,6.454 7.261,1.939 C 6.991,1.586 6.632,1.409 6.272,1.409 Z M 6.248,1.827 c 0.067,0 0.133,0.035 0.184,0.099 L 7.828,3.668 8.424,4.413 C 8.609,4.645 8.304,4.709 8.195,4.729 7.822,4.799 7.596,3.993 7.22,3.976 6.705,3.953 6.227,4.913 5.837,4.885 5.484,4.859 5.516,3.94 5.207,3.979 4.969,4.009 5.14,4.679 4.831,4.784 4.707,4.818 3.765,4.694 4.093,4.379 L 4.138,4.322 c 0.158,-0.2 0.37,-0.45 0.533,-0.654 L 6.066,1.926 a 0.242,0.242 0 0 1 0.182,-0.1 z M 5.581,7.446 h 1.065 a 0.355,0.355 0 1 1 0,0.71 H 5.581 a 0.355,0.355 0 1 1 0,-0.71 z m 4.261,1.42 A 0.355,0.355 0 0 0 9.487,9.221 0.355,0.355 0 0 0 9.842,9.577 0.355,0.355 0 0 0 10.197,9.221 0.355,0.355 0 0 0 9.842,8.866 Z M 4.161,9.754 A 0.178,0.178 0 0 0 3.983,9.932 0.178,0.178 0 0 0 4.161,10.109 0.178,0.178 0 0 0 4.338,9.932 0.178,0.178 0 0 0 4.161,9.754 Z m 4.971,0 A 0.178,0.178 0 0 0 8.954,9.932 0.178,0.178 0 0 0 9.132,10.109 0.178,0.178 0 0 0 9.31,9.932 0.178,0.178 0 0 0 9.132,9.754 Z"
     id="path2"
     inkscape:connector-curvature="0"
     style="fill:#bde6fb;fill-opacity:1" />
</svg>
