<?xml version="1.0" encoding="UTF-8" standalone="no"?>
<svg
   width="48"
   height="48"
   viewBox="0 0 12.7 12.7"
   version="1.1"
   id="svg4"
   sodipodi:docname="ipython.svg"
   inkscape:version="0.92.5 (2060ec1f9f, 2020-04-08)"
   xmlns:inkscape="http://www.inkscape.org/namespaces/inkscape"
   xmlns:sodipodi="http://sodipodi.sourceforge.net/DTD/sodipodi-0.dtd"
   xmlns="http://www.w3.org/2000/svg"
   xmlns:svg="http://www.w3.org/2000/svg">
  <sodipodi:namedview
     id="namedview1"
     pagecolor="#505050"
     bordercolor="#eeeeee"
     borderopacity="1"
     inkscape:showpageshadow="0"
     inkscape:pageopacity="0"
     inkscape:pagecheckerboard="0"
     inkscape:deskcolor="#d1d1d1" />
  <defs
     id="defs8">
    <style
       id="current-color-scheme"
       type="Highlight/css">&#10;      .ColorScheme-Highlight {&#10;        color:#1e3f5a;&#10;      }&#10;  </style>
  </defs>
  <path
     class="ColorScheme-Highlight"
     style="fill:#bde6fb;fill-opacity:1;stroke-width:0.264583"
     d="M 6.3499999,0 A 6.3499999,6.3499999 0 0 0 0,6.3499999 6.3499999,6.3499999 0 0 0 6.3499999,12.7 6.3499999,6.3499999 0 0 0 12.7,6.3499999 6.3499999,6.3499999 0 0 0 6.3499999,0 Z m 0,0.79374999 A 5.5562499,5.5562499 0 0 1 11.90625,6.3499999 5.5562499,5.5562499 0 0 1 6.3499999,11.90625 5.5562499,5.5562499 0 0 1 2.6458333,10.483598 V 2.2174357 A 5.5562499,5.5562499 0 0 1 6.3499999,0.79374999 Z M 4.2333333,3.96875 v 0.5291666 3.96875 0.5291666 h 0.5291666 0.79375 V 8.4666666 h -0.79375 v -3.96875 h 0.79375 V 3.96875 h -0.79375 z m 3.9687499,0 v 0.5291666 h 0.79375 v 3.96875 h -0.79375 V 8.9958332 H 9.5249999 V 8.4666666 3.96875 Z m -2.6458333,1.0583333 1.3229167,2.7445353 0.0031,-5.292e-4 -0.2676842,0.6955772 H 6.0854166 v 0.5291666 h 0.79375 L 7.1437499,8.4666666 8.4666666,5.0270833 H 7.9374999 L 7.132381,7.1204954 6.0854166,5.0270833 Z m 4.4979171,0 A 0.26458333,0.26458333 0 0 0 9.7895832,5.2916666 0.26458333,0.26458333 0 0 0 10.054167,5.5562499 0.26458333,0.26458333 0 0 0 10.31875,5.2916666 0.26458333,0.26458333 0 0 0 10.054167,5.0270833 Z m 0,2.6458333 A 0.26458333,0.26458333 0 0 0 9.7895832,7.9374999 0.26458333,0.26458333 0 0 0 10.054167,8.2020832 0.26458333,0.26458333 0 0 0 10.31875,7.9374999 0.26458333,0.26458333 0 0 0 10.054167,7.6729166 Z"
     id="path817" />
</svg>
