<?xml version="1.0" encoding="UTF-8" standalone="no"?>
<svg
   width="47.542679"
   height="47.546455"
   viewBox="0 0 12.579 12.58"
   version="1.1"
   id="svg12"
   sodipodi:docname="jadx.svg"
   inkscape:version="0.92.5 (2060ec1f9f, 2020-04-08)"
   xmlns:inkscape="http://www.inkscape.org/namespaces/inkscape"
   xmlns:sodipodi="http://sodipodi.sourceforge.net/DTD/sodipodi-0.dtd"
   xmlns="http://www.w3.org/2000/svg"
   xmlns:svg="http://www.w3.org/2000/svg"
   xmlns:rdf="http://www.w3.org/1999/02/22-rdf-syntax-ns#"
   xmlns:cc="http://creativecommons.org/ns#"
   xmlns:dc="http://purl.org/dc/elements/1.1/">
  <metadata
     id="metadata18">
    <rdf:RDF>
      <cc:Work
         rdf:about="">
        <dc:format>image/svg+xml</dc:format>
        <dc:type
           rdf:resource="http://purl.org/dc/dcmitype/StillImage" />
        <dc:title />
      </cc:Work>
    </rdf:RDF>
  </metadata>
  <defs
     id="defs16" />
  <sodipodi:namedview
     pagecolor="#ffffff"
     bordercolor="#666666"
     borderopacity="1"
     objecttolerance="10"
     gridtolerance="10"
     guidetolerance="10"
     inkscape:pageopacity="0"
     inkscape:pageshadow="2"
     inkscape:window-width="1085"
     inkscape:window-height="480"
     id="namedview14"
     showgrid="false"
     inkscape:zoom="4.9166667"
     inkscape:cx="2.1355932"
     inkscape:cy="24"
     inkscape:window-x="0"
     inkscape:window-y="25"
     inkscape:window-maximized="0"
     inkscape:current-layer="svg12"
     inkscape:showpageshadow="0"
     inkscape:pagecheckerboard="0"
     inkscape:deskcolor="#d1d1d1" />
  <path
     d="M 6.285,0 A 6.295,6.295 0 0 0 0,6.285 6.295,6.295 0 0 0 6.285,12.58 6.295,6.295 0 0 0 12.579,6.285 6.295,6.295 0 0 0 6.285,0 Z m -0.01,0.94 a 5.408,5.408 0 0 1 5.396,5.387 5.407,5.407 0 1 1 -10.814,0 C 0.857,3.34 3.287,0.94 6.274,0.94 Z"
     id="path2"
     inkscape:connector-curvature="0"
     style="fill:#bde6fb;fill-opacity:1" />
  <path
     d="m 6.871,5.611 -0.445,0.5 c 0.26,0.016 0.505,0.052 0.704,0.157 0.048,0.026 0.068,0.084 0.112,0.115 z m -0.74,0.831 -0.417,0.47 v 2.162 h 0.433 c 0.216,0 0.405,-0.028 0.567,-0.083 A 1.01,1.01 0 0 0 7.119,8.741 C 7.227,8.629 7.308,8.491 7.362,8.324 7.415,8.157 7.442,7.962 7.442,7.74 7.442,7.516 7.416,7.321 7.363,7.158 A 0.961,0.961 0 0 0 6.747,6.521 1.523,1.523 0 0 0 6.237,6.442 Z m -0.818,0.92 -2.38,2.677 H 8.999 L 8.497,8.995 8.237,9.437 H 7.813 L 8.313,8.611 7.85,7.649 c 0,0.03 0.016,0.046 0.016,0.077 0,0.284 -0.037,0.532 -0.11,0.746 A 1.356,1.356 0 0 1 7.425,9.01 C 7.279,9.152 7.103,9.259 6.9,9.33 A 2.111,2.111 0 0 1 6.2,9.437 H 5.313 Z"
     id="path4"
     inkscape:connector-curvature="0"
     style="opacity:0.75;fill:#461bbc" />
  <path
     d="M 7.939,4.442 6.871,5.611 7.236,6.377 c 0.172,0.12 0.335,0.25 0.438,0.446 0.122,0.229 0.176,0.52 0.183,0.855 L 8.307,8.621 8.871,7.688 7.88,6.08 H 8.326 L 9.108,7.396 9.894,6.08 h 0.424 L 9.331,7.678 10.244,9.188 10.822,9.102 10.509,4.918 Z M 9.094,7.979 8.49,9.007 8.687,9.419 9.83,9.249 Z"
     id="path6"
     inkscape:connector-curvature="0"
     style="opacity:0.75;fill:#008275" />
  <path
     d="m 6.81,3.639 -0.454,0.235 0.63,1.61 0.732,-0.8 z M 6.012,4.052 5.498,4.319 5.261,4.945 H 6.347 Z M 4.973,4.591 3.2,5.509 V 6.325 C 3.2,6.488 3.179,6.63 3.138,6.75 A 0.72,0.72 0 0 1 2.955,7.048 0.802,0.802 0 0 1 2.67,7.223 C 2.612,7.243 2.541,7.243 2.476,7.253 L 4.092,8.735 6.675,5.831 6.475,5.325 H 5.115 L 4.707,6.375 H 4.27 Z M 2.767,5.733 1.522,6.378 2.071,6.882 c 0.015,0.002 0.028,0.006 0.043,0.009 0.057,0.01 0.118,0.014 0.182,0.014 0.08,0 0.156,-0.016 0.226,-0.048 A 0.373,0.373 0 0 0 2.7,6.691 0.684,0.684 0 0 0 2.767,6.358 Z"
     id="path8"
     inkscape:connector-curvature="0"
     style="opacity:0.75;fill:#f15a29" />
  <path
     d="M 2.683,2.363 V 5.777 L 2.767,5.733 V 2.981 H 3.2 V 5.509 L 4.973,4.59 5.499,3.251 Z M 5.799,3.409 A 4.3,4.3 0 0 1 5.65,3.918 L 5.498,4.318 6.012,4.052 5.962,3.918 A 15.682,15.682 0 0 1 5.847,3.575 2.77,2.77 0 0 0 5.799,3.409 Z m 0.4,0.063 0.157,0.402 0.423,-0.22 z m 0.64,0.202 0.879,1.01 0.22,-0.242 0.179,0.033 0.248,-0.32 z"
     id="path10"
     inkscape:connector-curvature="0"
     style="opacity:0.75;fill:#9e1f63" />
</svg>
