<?xml version="1.0" encoding="UTF-8" standalone="no"?>
<svg
   width="47.542679"
   height="47.546455"
   viewBox="0 0 12.579 12.58"
   version="1.1"
   id="svg6"
   sodipodi:docname="javasnoop.svg"
   inkscape:version="0.92.5 (2060ec1f9f, 2020-04-08)"
   xmlns:inkscape="http://www.inkscape.org/namespaces/inkscape"
   xmlns:sodipodi="http://sodipodi.sourceforge.net/DTD/sodipodi-0.dtd"
   xmlns="http://www.w3.org/2000/svg"
   xmlns:svg="http://www.w3.org/2000/svg"
   xmlns:rdf="http://www.w3.org/1999/02/22-rdf-syntax-ns#"
   xmlns:cc="http://creativecommons.org/ns#"
   xmlns:dc="http://purl.org/dc/elements/1.1/">
  <metadata
     id="metadata12">
    <rdf:RDF>
      <cc:Work
         rdf:about="">
        <dc:format>image/svg+xml</dc:format>
        <dc:type
           rdf:resource="http://purl.org/dc/dcmitype/StillImage" />
        <dc:title />
      </cc:Work>
    </rdf:RDF>
  </metadata>
  <defs
     id="defs10" />
  <sodipodi:namedview
     pagecolor="#ffffff"
     bordercolor="#666666"
     borderopacity="1"
     objecttolerance="10"
     gridtolerance="10"
     guidetolerance="10"
     inkscape:pageopacity="0"
     inkscape:pageshadow="2"
     inkscape:window-width="1085"
     inkscape:window-height="480"
     id="namedview8"
     showgrid="false"
     inkscape:zoom="4.9166667"
     inkscape:cx="2.1355932"
     inkscape:cy="24"
     inkscape:window-x="0"
     inkscape:window-y="25"
     inkscape:window-maximized="0"
     inkscape:current-layer="svg6"
     inkscape:showpageshadow="0"
     inkscape:pagecheckerboard="0"
     inkscape:deskcolor="#d1d1d1" />
  <path
     d="M 6.285,0 A 6.295,6.295 0 0 0 1.952,1.749 l 0.75,0.554 A 5.394,5.394 0 0 1 6.275,0.94 5.408,5.408 0 0 1 9.865,2.32 L 10.638,1.75 A 6.295,6.295 0 0 0 6.285,0 Z M 1.562,2.155 A 6.295,6.295 0 0 0 0,6.285 6.295,6.295 0 0 0 6.285,12.58 6.295,6.295 0 0 0 12.579,6.285 6.295,6.295 0 0 0 11.027,2.162 c -0.008,0.282 0,0.376 -0.033,0.786 -0.018,0.22 -0.056,0.427 -0.085,0.643 a 5.408,5.408 0 0 1 0.762,2.736 5.407,5.407 0 0 1 -10.814,0 C 0.857,5.291 1.164,4.334 1.671,3.515 1.646,3.323 1.611,3.143 1.596,2.948 1.563,2.535 1.57,2.438 1.562,2.156 Z"
     id="path2"
     inkscape:connector-curvature="0"
     style="fill:#bde6fb;fill-opacity:1" />
  <path
     d="m 2.326,2.762 c 0,0 0,2.41 0.425,2.834 0.087,0.087 0.176,0.157 0.267,0.216 A 3.544,3.544 0 0 0 2.751,7.156 3.544,3.544 0 0 0 6.295,10.699 3.544,3.544 0 0 0 9.839,7.156 3.544,3.544 0 0 0 9.571,5.812 C 9.662,5.754 9.751,5.683 9.839,5.596 10.264,5.171 10.264,2.762 10.264,2.762 L 8.284,4.224 A 3.544,3.544 0 0 0 6.295,3.612 3.544,3.544 0 0 0 4.307,4.226 Z M 4.311,6.163 5.87,7.297 5.161,7.723 3.601,6.589 Z m 3.968,0 0.71,0.426 L 7.429,7.723 6.72,7.297 Z"
     id="path4"
     inkscape:connector-curvature="0"
     style="opacity:0.8;fill:#b73c0d" />
</svg>
