<?xml version="1.0" encoding="UTF-8" standalone="no"?>
<svg
   width="48"
   height="48"
   viewBox="0 0 12.7 12.7"
   version="1.1"
   id="svg4"
   sodipodi:docname="jd-gui.svg"
   inkscape:version="0.92.5 (2060ec1f9f, 2020-04-08)"
   xmlns:inkscape="http://www.inkscape.org/namespaces/inkscape"
   xmlns:sodipodi="http://sodipodi.sourceforge.net/DTD/sodipodi-0.dtd"
   xmlns="http://www.w3.org/2000/svg"
   xmlns:svg="http://www.w3.org/2000/svg">
  <sodipodi:namedview
     id="namedview1"
     pagecolor="#505050"
     bordercolor="#eeeeee"
     borderopacity="1"
     inkscape:showpageshadow="0"
     inkscape:pageopacity="0"
     inkscape:pagecheckerboard="0"
     inkscape:deskcolor="#d1d1d1" />
  <defs
     id="defs8">
    <style
       id="current-color-scheme"
       type="text/css">&#10;      .ColorScheme-Highlight {&#10;        color:#1e3f5a;&#10;      }&#10;  </style>
  </defs>
  <path
     class="ColorScheme-Highlight"
     style="fill:#bde6fb;fill-opacity:1;stroke-width:0.264583"
     d="M 6.3499999,0 A 6.3499999,6.3499999 0 0 0 0,6.3499999 6.3499999,6.3499999 0 0 0 6.3499999,12.7 6.3499999,6.3499999 0 0 0 12.7,6.3499999 6.3499999,6.3499999 0 0 0 6.3499999,0 Z m 0,0.79374999 A 5.5562499,5.5562499 0 0 1 11.90625,6.3499999 5.5562499,5.5562499 0 0 1 6.3499999,11.90625 5.5562499,5.5562499 0 0 1 0.79374999,6.3499999 5.5562499,5.5562499 0 0 1 6.3499999,0.79374999 Z M 7.1437499,1.5875 C 7.9374999,2.9104166 4.4979166,3.175 6.6145833,5.8208333 5.2916666,2.9104166 8.7312499,3.175 7.1437499,1.5875 Z m 1.0583333,1.3229166 c -2.3812499,1.8520833 0,1.0583334 -1.3229166,3.175 1.8520833,-1.5875 -0.2645833,-1.3229167 1.3229166,-3.175 z m 0.1374593,0.206189 c -0.00124,7.144e-4 -0.00188,0.00135 -0.0031,0.00206 6.8e-5,-1.7e-5 0.0031,-0.00103 0.0031,-0.00103 z M 3.96875,6.3499999 v 0.2645834 a 1.5874998,1.5874998 0 0 0 -1.5875,1.5874999 1.5874998,1.5874998 0 0 0 1.5875,1.5875 1.5874998,1.5874998 0 0 0 0.4201294,-0.058394 c 0.3852278,0.5168728 0.9994842,0.8521438 1.6965372,0.8521438 h 1.5875 c 1.1726333,0 2.1166666,-0.9440328 2.1166666,-2.1166661 v -2.116667 h -2.1166666 -1.5875 z m 0,0.79375 v 1.3229167 c 0,0.2767599 0.054095,0.5399775 0.1498615,0.7818643 A 1.0583332,1.0583332 0 0 1 3.96875,9.2604166 1.0583332,1.0583332 0 0 1 2.9104166,8.2020832 1.0583332,1.0583332 0 0 1 3.96875,7.1437499 Z"
     id="path837" />
</svg>
