<?xml version="1.0" encoding="UTF-8" standalone="no"?>
<svg
   width="47.540005"
   height="47.540001"
   version="1"
   id="svg11"
   sodipodi:docname="jetbrains-toolbox.svg"
   inkscape:version="0.92.4 (5da689c313, 2019-01-14)"
   xmlns:inkscape="http://www.inkscape.org/namespaces/inkscape"
   xmlns:sodipodi="http://sodipodi.sourceforge.net/DTD/sodipodi-0.dtd"
   xmlns="http://www.w3.org/2000/svg"
   xmlns:svg="http://www.w3.org/2000/svg"
   xmlns:rdf="http://www.w3.org/1999/02/22-rdf-syntax-ns#"
   xmlns:cc="http://creativecommons.org/ns#"
   xmlns:dc="http://purl.org/dc/elements/1.1/">
  <metadata
     id="metadata15">
    <rdf:RDF>
      <cc:Work
         rdf:about="">
        <dc:format>image/svg+xml</dc:format>
        <dc:type
           rdf:resource="http://purl.org/dc/dcmitype/StillImage" />
        <dc:title />
      </cc:Work>
    </rdf:RDF>
  </metadata>
  <sodipodi:namedview
     pagecolor="#ffffff"
     bordercolor="#666666"
     borderopacity="1"
     objecttolerance="10"
     gridtolerance="10"
     guidetolerance="10"
     inkscape:pageopacity="0"
     inkscape:pageshadow="2"
     inkscape:window-width="1087"
     inkscape:window-height="480"
     id="namedview13"
     showgrid="false"
     inkscape:zoom="4.9166667"
     inkscape:cx="2.1355932"
     inkscape:cy="24"
     inkscape:window-x="0"
     inkscape:window-y="25"
     inkscape:window-maximized="0"
     inkscape:current-layer="svg11"
     inkscape:showpageshadow="0"
     inkscape:pagecheckerboard="0"
     inkscape:deskcolor="#d1d1d1" />
  <defs
     id="defs7" />
  <path
     d="M 23.770002,0 A 23.77,23.77 0 0 0 2.0968914e-6,23.78 23.77,23.77 0 0 0 23.770002,47.54 23.77,23.77 0 0 0 47.540002,23.77 23.77,23.77 0 0 0 23.770002,0 Z m -0.07,3.54 a 20.44,20.44 0 0 1 20.44,20.44 20.44,20.44 0 0 1 -20.44,20.43 A 20.44,20.44 0 0 1 3.2700021,23.98 20.44,20.44 0 0 1 23.700002,3.54 Z m 0.07,2.5 c -0.05,0 -0.09,0.02 -0.13,0.03 l -0.07,0.01 -0.02,0.01 -15.3999999,6.03 a 0.54,0.54 0 0 0 -0.33,0.63 0.54,0.54 0 0 0 -0.02,0.15 v 19.82 c 0,0.2 0.1,0.39 0.29,0.48 l 15.4199999,8.23 0.08,0.03 0.04,0.01 0.14,0.02 c 0.05,0 0.1,0 0.14,-0.02 l 0.04,-0.01 0.08,-0.03 15.42,-8.23 c 0.18,-0.1 0.3,-0.28 0.3,-0.48 V 12.9 l -0.03,-0.15 a 0.54,0.54 0 0 0 -0.33,-0.63 l -15.42,-6.05 -0.08,-0.01 z m 0,1.14 14.35,5.62 -14.35,6.63 L 9.4200021,12.8 23.770002,7.17 Z M 8.8900021,13.77 23.220002,20.4 V 40.04 L 8.8900021,32.39 V 13.76 Z M 32.240002,23.92 v 3.11 l -6.01,3.09 v -3.28 l 6,-2.92 z"
     id="path9"
     inkscape:connector-curvature="0"
     style="fill:#bde6fb;fill-opacity:1" />
</svg>
