<?xml version="1.0" encoding="UTF-8" standalone="no"?>
<svg
   width="48"
   height="48"
   viewBox="0 0 12.7 12.7"
   version="1.1"
   id="svg4"
   sodipodi:docname="jockey.svg"
   inkscape:version="0.92.5 (2060ec1f9f, 2020-04-08)"
   xmlns:inkscape="http://www.inkscape.org/namespaces/inkscape"
   xmlns:sodipodi="http://sodipodi.sourceforge.net/DTD/sodipodi-0.dtd"
   xmlns="http://www.w3.org/2000/svg"
   xmlns:svg="http://www.w3.org/2000/svg">
  <sodipodi:namedview
     id="namedview1"
     pagecolor="#505050"
     bordercolor="#eeeeee"
     borderopacity="1"
     inkscape:showpageshadow="0"
     inkscape:pageopacity="0"
     inkscape:pagecheckerboard="0"
     inkscape:deskcolor="#d1d1d1" />
  <defs
     id="defs8">
    <style
       id="current-color-scheme"
       type="text/css">&#10;      .ColorScheme-Highlight {&#10;        color:#1e3f5a;&#10;      }&#10;  </style>
  </defs>
  <path
     class="ColorScheme-Highlight"
     style="fill:#bde6fb;fill-opacity:1;stroke-width:0.264583"
     d="M 6.3499999,0 A 6.3499999,6.3499999 0 0 0 0,6.3499999 6.3499999,6.3499999 0 0 0 6.3499999,12.7 6.3499999,6.3499999 0 0 0 12.7,6.3499999 6.3499999,6.3499999 0 0 0 6.3499999,0 Z m 0,0.79374999 A 5.5562499,5.5562499 0 0 1 11.90625,6.3499999 5.5562499,5.5562499 0 0 1 6.3499999,11.90625 5.5562499,5.5562499 0 0 1 0.79374999,6.3499999 5.5562499,5.5562499 0 0 1 6.3499999,0.79374999 Z m 0,1.85208331 A 1.8520833,1.8520833 0 0 0 4.4979166,4.4979166 v 0.79375 H 3.96875 v 3.175 H 4.7857544 A 0.396875,0.396875 0 0 1 5.1593749,8.2020832 0.396875,0.396875 0 0 1 5.5562499,8.5989582 0.396875,0.396875 0 0 1 5.1593749,8.9958332 0.396875,0.396875 0 0 1 4.7857544,8.7312499 H 3.96875 V 10.054167 H 8.7312499 V 5.2916666 H 8.2020832 v -0.79375 A 1.8520833,1.8520833 0 0 0 6.3499999,2.6458333 Z m 0,0.5291667 a 1.3229166,1.3229166 0 0 1 1.3229167,1.3229166 v 0.79375 1.6107545 A 0.396875,0.396875 0 0 1 7.9374999,7.2760416 0.396875,0.396875 0 0 1 7.5406249,7.6729166 0.396875,0.396875 0 0 1 7.1437499,7.2760416 0.396875,0.396875 0 0 1 7.4083332,6.9024211 V 5.2916666 H 5.0270833 V 6.6145833 H 5.5795044 A 0.396875,0.396875 0 0 1 5.9531249,6.3499999 0.396875,0.396875 0 0 1 6.3499999,6.7468749 0.396875,0.396875 0 0 1 5.9531249,7.1437499 0.396875,0.396875 0 0 1 5.5795044,6.8791666 H 5.0270833 4.7624999 v -1.5875 h 0.2645834 v -0.79375 A 1.3229166,1.3229166 0 0 1 6.3499999,3.175 Z"
     id="path817" />
</svg>
