<?xml version="1.0" encoding="UTF-8" standalone="no"?>
<svg
   width="47.542679"
   height="47.546455"
   viewBox="0 0 12.579 12.58"
   version="1.1"
   id="svg6"
   sodipodi:docname="john.svg"
   inkscape:version="0.92.5 (2060ec1f9f, 2020-04-08)"
   xmlns:inkscape="http://www.inkscape.org/namespaces/inkscape"
   xmlns:sodipodi="http://sodipodi.sourceforge.net/DTD/sodipodi-0.dtd"
   xmlns="http://www.w3.org/2000/svg"
   xmlns:svg="http://www.w3.org/2000/svg"
   xmlns:rdf="http://www.w3.org/1999/02/22-rdf-syntax-ns#"
   xmlns:cc="http://creativecommons.org/ns#"
   xmlns:dc="http://purl.org/dc/elements/1.1/">
  <metadata
     id="metadata12">
    <rdf:RDF>
      <cc:Work
         rdf:about="">
        <dc:format>image/svg+xml</dc:format>
        <dc:type
           rdf:resource="http://purl.org/dc/dcmitype/StillImage" />
        <dc:title />
      </cc:Work>
    </rdf:RDF>
  </metadata>
  <defs
     id="defs10" />
  <sodipodi:namedview
     pagecolor="#ffffff"
     bordercolor="#666666"
     borderopacity="1"
     objecttolerance="10"
     gridtolerance="10"
     guidetolerance="10"
     inkscape:pageopacity="0"
     inkscape:pageshadow="2"
     inkscape:window-width="1085"
     inkscape:window-height="480"
     id="namedview8"
     showgrid="false"
     inkscape:zoom="4.9166667"
     inkscape:cx="2.1355932"
     inkscape:cy="24"
     inkscape:window-x="0"
     inkscape:window-y="25"
     inkscape:window-maximized="0"
     inkscape:current-layer="svg6"
     inkscape:showpageshadow="0"
     inkscape:pagecheckerboard="0"
     inkscape:deskcolor="#d1d1d1" />
  <path
     d="M 6.285,0 A 6.295,6.295 0 0 0 0,6.285 6.295,6.295 0 0 0 6.285,12.58 6.295,6.295 0 0 0 12.579,6.285 6.295,6.295 0 0 0 6.285,0 Z m -0.01,0.94 a 5.408,5.408 0 0 1 5.396,5.387 5.407,5.407 0 1 1 -10.814,0 C 0.857,3.34 3.287,0.94 6.274,0.94 Z"
     id="path2"
     inkscape:connector-curvature="0"
     style="fill:#bde6fb;fill-opacity:1" />
  <path
     d="m 1.935,7.982 a 4.586,4.586 0 0 0 0.138,0.332 4.586,4.586 0 0 0 0.216,0.404 4.586,4.586 0 0 0 0.256,0.381 4.586,4.586 0 0 0 0.293,0.353 4.586,4.586 0 0 0 0.326,0.322 4.586,4.586 0 0 0 0.356,0.288 4.586,4.586 0 0 0 0.384,0.251 4.586,4.586 0 0 0 0.407,0.211 4.586,4.586 0 0 0 0.425,0.17 4.586,4.586 0 0 0 0.441,0.126 4.586,4.586 0 0 0 0.451,0.082 4.586,4.586 0 0 0 0.457,0.036 4.586,4.586 0 0 0 0.458,-0.01 4.586,4.586 0 0 0 0.455,-0.054 4.586,4.586 0 0 0 0.448,-0.1 A 4.586,4.586 0 0 0 7.881,10.629 4.586,4.586 0 0 0 8.299,10.441 4.586,4.586 0 0 0 8.697,10.213 4.586,4.586 0 0 0 9.07,9.947 4.586,4.586 0 0 0 9.414,9.644 4.586,4.586 0 0 0 9.727,9.309 4.586,4.586 0 0 0 10,8.949 C 9.86,8.575 9.647,7.997 9.333,7.146 9.223,6.846 9.107,6.569 9.077,6.531 9.017,6.454 8.827,6.347 8.75,6.347 8.723,6.347 8.694,6.331 8.687,6.311 A 3.369,3.369 0 0 1 8.673,5.918 C 8.673,5.721 8.665,5.556 8.655,5.552 A 8.647,8.647 0 0 1 8.225,5.047 C 8.173,4.982 8.164,4.979 7.942,4.967 L 7.712,4.953 7.506,4.817 A 1.579,1.579 0 0 0 7.238,4.665 C 7.178,4.65 7.176,4.645 7.186,4.54 7.193,4.467 7.244,4.333 7.338,4.14 7.828,3.134 7.865,3.049 7.849,2.968 7.828,2.852 7.738,2.778 7.444,2.634 6.748,2.292 6.038,2.074 5.618,2.074 5.43,2.074 5.409,2.101 5.375,2.392 A 32.291,32.291 0 0 1 5.167,3.719 L 5.143,3.837 H 4.999 c -0.255,0 -0.486,0.123 -0.486,0.259 0,0.11 0.13,0.21 0.309,0.236 L 4.919,4.346 4.691,4.64 4.703,4.99 C 4.709,5.183 4.721,5.38 4.73,5.426 L 4.745,5.51 4.545,5.496 C 4.245,5.476 4.252,5.461 4.257,6.05 4.259,6.306 4.267,6.574 4.275,6.646 L 4.285,6.742 3.201,7.315 Z M 5.259,3.879 a 0.325,0.325 0 0 1 0.067,0.007 c 0.265,0.042 1.115,0.37 1.547,0.596 L 7.077,4.589 7.071,4.721 A 0.585,0.585 0 0 1 7.041,4.896 C 7.006,4.962 6.931,4.946 6.794,4.846 6.347,4.516 5.795,4.199 5.399,4.046 5.256,3.991 5.235,3.976 5.235,3.926 5.235,3.894 5.236,3.881 5.259,3.879 Z m 1.838,1.175 0.09,0.014 c 0.05,0.008 0.1,0.02 0.11,0.026 0.01,0.006 0.01,0.061 0.004,0.123 -0.013,0.107 -0.01,0.116 0.08,0.214 0.083,0.09 0.094,0.113 0.094,0.21 0,0.214 0.099,0.42 0.318,0.66 0.179,0.197 0.192,0.25 0.063,0.25 -0.084,0 -0.146,0.031 -0.178,0.09 -0.027,0.05 -0.006,0.104 0.08,0.208 a 0.99,0.99 0 0 1 0.109,0.183 c 0.09,0.19 0.309,0.853 0.309,0.935 0,0.042 -0.01,0.075 -0.022,0.075 A 0.447,0.447 0 0 1 8.043,7.922 2.03,2.03 0 0 0 7.497,7.438 C 7.141,7.244 6.932,7.088 6.874,6.977 6.841,6.913 6.842,6.912 7.101,6.613 7.445,6.215 7.445,6.189 7.103,5.981 L 6.991,5.913 7.064,5.883 C 7.104,5.865 7.142,5.836 7.149,5.818 7.156,5.8 7.126,5.704 7.081,5.605 6.991,5.404 6.984,5.362 7.036,5.304 A 0.323,0.323 0 0 0 7.085,5.158 Z m 0.549,0.163 c 0.04,0 0.1,0.053 0.1,0.09 0,0.065 -0.038,0.074 -0.078,0.018 C 7.633,5.275 7.621,5.217 7.646,5.217 Z"
     id="path4"
     inkscape:connector-curvature="0"
     style="opacity:0.8;fill:#ff2a2a" />
</svg>
