<?xml version="1.0" encoding="UTF-8" standalone="no"?>
<svg
   width="47.546455"
   height="47.542679"
   viewBox="0 0 12.58 12.579"
   version="1.1"
   id="svg6"
   sodipodi:docname="jokosher.svg"
   inkscape:version="0.92.4 (5da689c313, 2019-01-14)"
   xmlns:inkscape="http://www.inkscape.org/namespaces/inkscape"
   xmlns:sodipodi="http://sodipodi.sourceforge.net/DTD/sodipodi-0.dtd"
   xmlns="http://www.w3.org/2000/svg"
   xmlns:svg="http://www.w3.org/2000/svg"
   xmlns:rdf="http://www.w3.org/1999/02/22-rdf-syntax-ns#"
   xmlns:cc="http://creativecommons.org/ns#"
   xmlns:dc="http://purl.org/dc/elements/1.1/">
  <metadata
     id="metadata12">
    <rdf:RDF>
      <cc:Work
         rdf:about="">
        <dc:format>image/svg+xml</dc:format>
        <dc:type
           rdf:resource="http://purl.org/dc/dcmitype/StillImage" />
        <dc:title />
      </cc:Work>
    </rdf:RDF>
  </metadata>
  <defs
     id="defs10" />
  <sodipodi:namedview
     pagecolor="#ffffff"
     bordercolor="#666666"
     borderopacity="1"
     objecttolerance="10"
     gridtolerance="10"
     guidetolerance="10"
     inkscape:pageopacity="0"
     inkscape:pageshadow="2"
     inkscape:window-width="1087"
     inkscape:window-height="480"
     id="namedview8"
     showgrid="false"
     inkscape:zoom="4.9166667"
     inkscape:cx="2.1355932"
     inkscape:cy="24"
     inkscape:window-x="0"
     inkscape:window-y="25"
     inkscape:window-maximized="0"
     inkscape:current-layer="svg6"
     inkscape:showpageshadow="0"
     inkscape:pagecheckerboard="0"
     inkscape:deskcolor="#d1d1d1" />
  <path
     d="M 2.953,2.679 2.92,3.342 A 816.904,816.904 0 0 1 5.649,7.856 L 4.074,2.944 C 3.732,2.874 3.289,2.764 2.954,2.679 Z m 2.696,5.177 2.05,-4.78 C 7.316,3.131 6.891,3.183 6.459,3.194 6.231,4.529 5.953,6.147 5.649,7.856 Z m 0,0 3.976,-1.278 V 5.448 C 8.481,6.144 7.106,6.983 5.649,7.858 Z m 0,0 3.516,1.505 C 9.317,9.104 9.438,8.829 9.516,8.534 A 762.3,762.3 0 0 1 5.649,7.856 Z m 0,0 1.006,3.127 c 0.266,-0.03 0.528,-0.092 0.772,-0.18 A 766.264,766.264 0 0 1 5.649,7.856 Z m 0,0 -1.139,2.652 c 0.197,0.12 0.404,0.226 0.624,0.304 0.16,-0.924 0.331,-1.924 0.515,-2.955 z m 0,0 -2.573,0.827 C 3.139,8.884 3.218,9.077 3.318,9.26 4.053,8.815 4.838,8.342 5.648,7.856 Z m 0,0 -2.73,-1.17 v 0.687 c 0.862,0.15 1.781,0.314 2.73,0.483 z"
     id="path2"
     inkscape:connector-curvature="0"
     style="opacity:0.751;fill:#d45500;fill-rule:evenodd" />
  <path
     d="M 6.29,9.9999565e-4 A 6.29,6.29 0 0 0 0,6.291 6.29,6.29 0 0 0 6.29,12.579 6.29,6.29 0 0 0 12.58,6.29 6.29,6.29 0 0 0 6.29,0 Z M 6.272,0.937 A 5.407,5.407 0 0 1 11.679,6.344 5.407,5.407 0 0 1 6.272,11.751 5.407,5.407 0 0 1 0.866,6.344 5.407,5.407 0 0 1 6.272,0.938 Z m 3.234,1.407 c 0,0 -1.63,0.501 -3.247,0.501 -1.617,0 -3.219,-0.48 -3.219,-0.48 -0.252,0 -0.454,0.101 -0.454,0.352 v 5.006 c 0,2.01 1.651,3.641 3.686,3.641 2.035,0 3.687,-1.631 3.687,-3.64 V 2.716 c 0,-0.251 -0.2,-0.373 -0.453,-0.373 z M 8.815,3.307 c 0.198,0 0.357,0.096 0.357,0.294 v 3.937 c 0,1.58 -1.3,2.863 -2.9,2.863 -1.6,0 -2.899,-1.283 -2.899,-2.863 V 3.601 c 0,-0.198 0.158,-0.277 0.357,-0.277 0,0 1.26,0.377 2.532,0.377 1.271,0 2.553,-0.394 2.553,-0.394 z M 8.668,3.631 7.356,3.908 v 4.058 c 0,0.26 -0.07,0.458 -0.211,0.593 C 7.007,8.693 6.801,8.761 6.529,8.761 H 6.324 V 9.636 H 6.59 C 7.287,9.636 7.807,9.498 8.15,9.221 8.495,8.945 8.668,8.526 8.668,7.966 Z"
     id="path4"
     inkscape:connector-curvature="0"
     style="fill:#bde6fb;fill-opacity:1" />
</svg>
