<?xml version="1.0" encoding="UTF-8" standalone="no"?>
<svg
   width="48"
   height="48"
   viewBox="0 0 12.7 12.7"
   version="1.1"
   id="svg4"
   sodipodi:docname="jsql.svg"
   inkscape:version="0.92.5 (2060ec1f9f, 2020-04-08)"
   xmlns:inkscape="http://www.inkscape.org/namespaces/inkscape"
   xmlns:sodipodi="http://sodipodi.sourceforge.net/DTD/sodipodi-0.dtd"
   xmlns="http://www.w3.org/2000/svg"
   xmlns:svg="http://www.w3.org/2000/svg">
  <sodipodi:namedview
     id="namedview1"
     pagecolor="#505050"
     bordercolor="#eeeeee"
     borderopacity="1"
     inkscape:showpageshadow="0"
     inkscape:pageopacity="0"
     inkscape:pagecheckerboard="0"
     inkscape:deskcolor="#d1d1d1" />
  <defs
     id="defs8">
    <style
       id="current-color-scheme"
       type="text/css">&#10;      .ColorScheme-Highlight {&#10;        color:#1e3f5a;&#10;      }&#10;  </style>
  </defs>
  <path
     class="ColorScheme-Highlight"
     style="fill:#bde6fb;fill-opacity:1;stroke-width:0.264583"
     d="M 6.3499999,0 A 6.3499999,6.3499999 0 0 0 0,6.3499999 6.3499999,6.3499999 0 0 0 6.3499999,12.7 6.3499999,6.3499999 0 0 0 7.3752603,12.609049 C 7.4599884,12.666631 7.5623144,12.7 7.6729166,12.7 H 12.170833 C 12.463991,12.7 12.7,12.463992 12.7,12.170833 V 7.6729166 c 0,-0.10819 -0.03204,-0.2083396 -0.08733,-0.291972 A 6.3499999,6.3499999 0 0 0 12.7,6.3499999 6.3499999,6.3499999 0 0 0 6.3499999,0 Z m 0,0.79374999 A 5.5562499,5.5562499 0 0 1 11.90625,6.3499999 5.5562499,5.5562499 0 0 1 11.84217,7.1437499 H 7.6729166 c -0.1830801,0 -0.3443118,0.092016 -0.4392496,0.2325439 -7.46e-5,1.103e-4 7.43e-5,3.969e-4 0,5.292e-4 A 3.175,0.79374999 0 0 1 7.199561,7.379413 3.175,0.79374999 0 0 1 6.8895021,7.396984 3.175,0.79374999 0 0 1 6.5747927,7.406284 3.175,0.79374999 0 0 1 6.3500003,7.408324 3.175,0.79374999 0 0 1 6.0332233,7.4041978 3.175,0.79374999 0 0 1 5.7190306,7.3923127 3.175,0.79374999 0 0 1 5.4115559,7.3726753 3.175,0.79374999 0 0 1 5.1133829,7.3458037 3.175,0.79374999 0 0 1 4.8276123,7.3111804 3.175,0.79374999 0 0 1 4.5573444,7.2698392 3.175,0.79374999 0 0 1 4.3046467,7.2217803 3.175,0.79374999 0 0 1 4.0726195,7.1675201 3.175,0.79374999 0 0 1 3.8628132,7.108092 3.175,0.79374999 0 0 1 3.6783285,7.0434966 3.175,0.79374999 0 0 1 3.5201987,6.9747679 3.175,0.79374999 0 0 1 3.3910074,6.9024211 3.175,0.79374999 0 0 1 3.2907552,6.8269733 3.175,0.79374999 0 0 1 3.220992,6.7494588 3.175,0.79374999 0 0 1 3.1827515,6.6709107 3.175,0.79374999 0 0 1 3.175,6.6145833 v 1.0583333 a 3.175,0.79374999 0 0 0 3.1749999,0.79375 3.175,0.79374999 0 0 0 0.79375,-0.026355 V 8.969995 A 3.175,0.79374999 0 0 1 6.8895017,8.984465 3.175,0.79374999 0 0 1 6.5747923,8.993765 3.175,0.79374999 0 0 1 6.3499999,8.995835 3.175,0.79374999 0 0 1 6.0332233,8.9916978 3.175,0.79374999 0 0 1 5.7190306,8.9798127 3.175,0.79374999 0 0 1 5.4115559,8.9601753 3.175,0.79374999 0 0 1 5.1133829,8.9333037 3.175,0.79374999 0 0 1 4.8276123,8.8986803 3.175,0.79374999 0 0 1 4.5573444,8.8573392 3.175,0.79374999 0 0 1 4.3046467,8.8092803 3.175,0.79374999 0 0 1 4.0726195,8.7550201 3.175,0.79374999 0 0 1 3.8628132,8.695592 3.175,0.79374999 0 0 1 3.6783285,8.6309966 3.175,0.79374999 0 0 1 3.5201987,8.5622679 3.175,0.79374999 0 0 1 3.3910074,8.4899211 3.175,0.79374999 0 0 1 3.2907552,8.4144733 3.175,0.79374999 0 0 1 3.220992,8.3369588 3.175,0.79374999 0 0 1 3.1827515,8.2584106 3.175,0.79374999 0 0 1 3.175,8.2020832 v 1.0583334 a 3.175,0.79374999 0 0 0 3.1749999,0.7937504 3.175,0.79374999 0 0 0 0.79375,-0.02636 v 1.81591 A 5.5562499,5.5562499 0 0 1 6.3499999,11.90625 5.5562499,5.5562499 0 0 1 0.79374999,6.3499999 5.5562499,5.5562499 0 0 1 6.3499999,0.79374999 Z m 0,1.85208331 A 3.175,0.79374999 0 0 0 3.175,3.4395833 v 1.0583333 a 3.175,0.79374999 0 0 0 3.1749999,0.79375 3.175,0.79374999 0 0 0 3.175,-0.79375 V 3.4395833 a 3.175,0.79374999 0 0 0 -3.175,-0.79375 z M 3.175,5.0270833 v 1.0583333 a 3.175,0.79374999 0 0 0 3.1749999,0.79375 3.175,0.79374999 0 0 0 3.175,-0.79375 V 5.0270833 a 3.175,0.79374999 0 0 1 -0.01602,0.079065 3.175,0.79374999 0 0 1 -0.047026,0.078548 3.175,0.79374999 0 0 1 -0.078548,0.076998 3.175,0.79374999 0 0 1 -0.1090374,0.074414 3.175,0.79374999 0 0 1 -0.137976,0.071313 A 3.175,0.79374999 0 0 1 8.970511,5.4751178 3.175,0.79374999 0 0 1 8.7782745,5.53868 3.175,0.79374999 0 0 1 8.5622671,5.5965576 3.175,0.79374999 0 0 1 8.323522,5.6487506 3.175,0.79374999 0 0 1 8.0656567,5.6947429 3.175,0.79374999 0 0 1 7.7902212,5.7345336 3.175,0.79374999 0 0 1 7.5003164,5.7670898 3.175,0.79374999 0 0 1 7.1995598,5.7918945 3.175,0.79374999 0 0 1 6.8895009,5.8094654 3.175,0.79374999 0 0 1 6.5747915,5.8187682 3.175,0.79374999 0 0 1 6.3499999,5.8208333 3.175,0.79374999 0 0 1 6.0332233,5.8166978 3.175,0.79374999 0 0 1 5.7190306,5.8048127 3.175,0.79374999 0 0 1 5.4115559,5.7851754 3.175,0.79374999 0 0 1 5.1133829,5.7583038 3.175,0.79374999 0 0 1 4.8276123,5.7236804 3.175,0.79374999 0 0 1 4.5573444,5.6823392 3.175,0.79374999 0 0 1 4.3046467,5.6342803 3.175,0.79374999 0 0 1 4.0726195,5.5800201 3.175,0.79374999 0 0 1 3.8628132,5.520592 3.175,0.79374999 0 0 1 3.6783285,5.4559967 3.175,0.79374999 0 0 1 3.5201987,5.387268 3.175,0.79374999 0 0 1 3.3910074,5.3149211 3.175,0.79374999 0 0 1 3.2907552,5.2394733 3.175,0.79374999 0 0 1 3.220992,5.1619589 3.175,0.79374999 0 0 1 3.1827515,5.0834107 3.175,0.79374999 0 0 1 3.175,5.0270833 Z M 8.9958332,7.6729166 H 9.1927205 L 9.7916501,8.224304 A 0.396875,0.396875 0 0 1 9.9218749,8.202083 0.396875,0.396875 0 0 1 10.037113,8.219135 l 0.54622,-0.546219 h 0.264584 V 7.9374999 L 10.30118,8.4842365 a 0.396875,0.396875 0 0 1 0.01757,0.1147217 0.396875,0.396875 0 0 1 -0.04858,0.1901693 c 0.137581,0.045348 0.262802,0.1161783 0.372587,0.2067057 H 11.1125 L 11.641667,8.4666666 H 11.90625 V 8.7312499 L 11.377083,9.2604166 H 11.1125 10.847917 L 9.9218749,9.7234374 8.9958332,9.2604166 H 8.7312499 8.4666666 L 7.9374999,8.7312499 V 8.4666666 H 8.2020832 L 8.7312499,8.9958332 H 9.2009888 C 9.3109395,8.9051692 9.4362655,8.8339487 9.5740925,8.7886108 A 0.396875,0.396875 0 0 1 9.5249999,8.5989582 0.396875,0.396875 0 0 1 9.5420531,8.4837197 L 8.9958332,7.9374999 Z M 8.8041138,9.5611734 9.7895832,10.054167 v 2.089795 C 9.3323112,12.091261 8.953888,11.791419 8.80308,11.377083 H 8.4666666 l -0.5291667,0.79375 H 7.6729166 V 11.90625 L 8.2020832,11.1125 h 0.2645834 0.2769856 c -0.005,-0.04383 -0.012402,-0.08692 -0.012402,-0.132292 V 10.31875 l -0.79375,0.529167 H 7.6729166 v -0.264584 l 0.79375,-0.529166 H 8.7312499 V 9.9218749 c 0,-0.1281862 0.035714,-0.2451817 0.072864,-0.3607015 z m 2.2355222,0 c 0.03715,0.1155198 0.07286,0.2325153 0.07286,0.3607015 v 0.1322921 h 0.264583 l 0.79375,0.529166 v 0.264584 H 11.90625 L 11.1125,10.31875 v 0.661458 c 0,0.04537 -0.0074,0.08846 -0.0124,0.132292 h 0.276984 0.264584 l 0.529166,0.79375 v 0.264583 H 11.90625 l -0.529167,-0.79375 H 11.04067 c -0.150808,0.414336 -0.529233,0.714178 -0.986503,0.766879 v -2.089795 z"
     id="path979" />
</svg>
