<?xml version="1.0" encoding="UTF-8" standalone="no"?>
<svg
   width="47.542679"
   height="47.546455"
   viewBox="0 0 12.579 12.58"
   version="1.1"
   id="svg4"
   sodipodi:docname="kali-sniffing-spoofing-trans.svg"
   inkscape:version="0.92.5 (2060ec1f9f, 2020-04-08)"
   xmlns:inkscape="http://www.inkscape.org/namespaces/inkscape"
   xmlns:sodipodi="http://sodipodi.sourceforge.net/DTD/sodipodi-0.dtd"
   xmlns="http://www.w3.org/2000/svg"
   xmlns:svg="http://www.w3.org/2000/svg"
   xmlns:rdf="http://www.w3.org/1999/02/22-rdf-syntax-ns#"
   xmlns:cc="http://creativecommons.org/ns#"
   xmlns:dc="http://purl.org/dc/elements/1.1/">
  <metadata
     id="metadata10">
    <rdf:RDF>
      <cc:Work
         rdf:about="">
        <dc:format>image/svg+xml</dc:format>
        <dc:type
           rdf:resource="http://purl.org/dc/dcmitype/StillImage" />
        <dc:title />
      </cc:Work>
    </rdf:RDF>
  </metadata>
  <defs
     id="defs8" />
  <sodipodi:namedview
     pagecolor="#ffffff"
     bordercolor="#666666"
     borderopacity="1"
     objecttolerance="10"
     gridtolerance="10"
     guidetolerance="10"
     inkscape:pageopacity="0"
     inkscape:pageshadow="2"
     inkscape:window-width="1085"
     inkscape:window-height="480"
     id="namedview6"
     showgrid="false"
     inkscape:zoom="4.9166667"
     inkscape:cx="2.1355932"
     inkscape:cy="24"
     inkscape:window-x="0"
     inkscape:window-y="25"
     inkscape:window-maximized="0"
     inkscape:current-layer="svg4"
     inkscape:showpageshadow="0"
     inkscape:pagecheckerboard="0"
     inkscape:deskcolor="#d1d1d1" />
  <path
     d="M 6.285,0 A 6.295,6.295 0 0 0 0,6.285 6.295,6.295 0 0 0 6.285,12.58 6.295,6.295 0 0 0 12.579,6.285 6.295,6.295 0 0 0 6.285,0 Z M 6.274,0.94 a 5.408,5.408 0 0 1 5.397,5.387 5.407,5.407 0 0 1 -10.814,0 C 0.857,3.34 3.287,0.94 6.274,0.94 Z M 8.862,2.765 5.242,3.534 4.072,2.784 3.267,5.039 9.429,5.076 8.862,2.766 Z m -6.85,2.502 a 0.214,0.214 0 1 0 0,0.428 h 8.566 a 0.214,0.214 0 1 0 0,-0.428 z M 4.388,6.441 4.257,6.443 4.228,6.444 4.123,6.449 C 4.11,6.45 4.096,6.45 4.083,6.452 a 6.444,6.444 0 0 0 -0.46,0.05 L 3.566,6.512 A 8.08,8.08 0 0 0 3.454,6.53 L 3.389,6.541 A 7.338,7.338 0 0 0 3.261,6.566 L 3.209,6.576 A 9.815,9.815 0 0 0 3.015,6.618 L 3.095,7.133 3.273,7.14 A 4.75,4.75 0 0 0 3.261,7.5 c 0,0.861 0.516,1.227 1.335,1.227 0.031,0 0.062,0 0.093,-0.003 H 4.71 A 0.827,0.827 0 0 0 4.782,8.718 L 4.8,8.716 C 5.244,8.666 5.574,8.45 5.76,8.143 6.105,7.657 6.09,7.359 6.296,7.359 c 0.206,0 0.201,0.313 0.534,0.783 V 8.143 C 7.017,8.45 7.347,8.665 7.79,8.716 a 2.003,2.003 0 0 0 0.09,0.008 h 0.022 c 0.03,10e-4 0.061,0.003 0.093,0.003 0.818,0 1.334,-0.366 1.334,-1.226 A 6.934,6.934 0 0 0 9.319,7.141 L 9.497,7.133 9.577,6.618 C 9.51,6.602 9.445,6.589 9.382,6.576 A 4.225,4.225 0 0 0 9.202,6.541 L 9.137,6.53 A 7.638,7.638 0 0 0 9.025,6.511 L 8.968,6.501 A 6.623,6.623 0 0 0 8.656,6.464 L 8.62,6.461 A 5.131,5.131 0 0 0 8.509,6.451 c -0.014,0 -0.028,0 -0.041,-0.002 A 3.616,3.616 0 0 0 8.334,6.443 L 8.204,6.441 c -0.045,0 -0.088,0 -0.13,0.002 L 8.038,6.445 A 3.144,3.144 0 0 0 7.798,6.463 3.887,3.887 0 0 0 7.478,6.509 L 7.445,6.515 7.408,6.523 A 7.683,7.683 0 0 0 7.242,6.558 L 7.014,6.608 6.994,6.613 A 9.424,9.424 0 0 1 6.658,6.683 L 6.638,6.686 C 6.593,6.694 6.548,6.7 6.501,6.707 L 6.463,6.712 C 6.409,6.719 6.354,6.726 6.297,6.731 A 3.948,3.948 0 0 1 6.131,6.712 L 6.093,6.707 A 4.853,4.853 0 0 1 5.956,6.686 L 5.936,6.682 A 4.4,4.4 0 0 1 5.601,6.613 C 5.594,6.613 5.586,6.61 5.579,6.609 A 45.124,45.124 0 0 0 5.186,6.523 L 5.149,6.516 5.114,6.51 A 4.528,4.528 0 0 0 4.994,6.49 L 4.952,6.483 A 4.082,4.082 0 0 0 4.676,6.452 H 4.655 A 4.141,4.141 0 0 0 4.553,6.446 L 4.517,6.444 A 4.026,4.026 0 0 0 4.387,6.441 Z"
     id="path2"
     inkscape:connector-curvature="0"
     style="fill:#bde6fb;fill-opacity:1" />
</svg>
