<?xml version="1.0" encoding="UTF-8" standalone="no"?>
<svg
   width="47.542679"
   height="47.546455"
   viewBox="0 0 12.579 12.58"
   version="1.1"
   id="svg4"
   sodipodi:docname="kali-social-engineering-trans.svg"
   inkscape:version="0.92.5 (2060ec1f9f, 2020-04-08)"
   xmlns:inkscape="http://www.inkscape.org/namespaces/inkscape"
   xmlns:sodipodi="http://sodipodi.sourceforge.net/DTD/sodipodi-0.dtd"
   xmlns="http://www.w3.org/2000/svg"
   xmlns:svg="http://www.w3.org/2000/svg"
   xmlns:rdf="http://www.w3.org/1999/02/22-rdf-syntax-ns#"
   xmlns:cc="http://creativecommons.org/ns#"
   xmlns:dc="http://purl.org/dc/elements/1.1/">
  <metadata
     id="metadata10">
    <rdf:RDF>
      <cc:Work
         rdf:about="">
        <dc:format>image/svg+xml</dc:format>
        <dc:type
           rdf:resource="http://purl.org/dc/dcmitype/StillImage" />
        <dc:title />
      </cc:Work>
    </rdf:RDF>
  </metadata>
  <defs
     id="defs8" />
  <sodipodi:namedview
     pagecolor="#ffffff"
     bordercolor="#666666"
     borderopacity="1"
     objecttolerance="10"
     gridtolerance="10"
     guidetolerance="10"
     inkscape:pageopacity="0"
     inkscape:pageshadow="2"
     inkscape:window-width="1085"
     inkscape:window-height="480"
     id="namedview6"
     showgrid="false"
     inkscape:zoom="4.9166667"
     inkscape:cx="2.1355932"
     inkscape:cy="24"
     inkscape:window-x="0"
     inkscape:window-y="25"
     inkscape:window-maximized="0"
     inkscape:current-layer="svg4"
     inkscape:showpageshadow="0"
     inkscape:pagecheckerboard="0"
     inkscape:deskcolor="#d1d1d1" />
  <path
     d="M 6.285,0 A 6.295,6.295 0 0 0 0,6.285 6.295,6.295 0 0 0 6.285,12.58 6.295,6.295 0 0 0 12.579,6.285 6.295,6.295 0 0 0 6.285,0 Z M 6.274,0.94 a 5.408,5.408 0 0 1 5.397,5.387 5.407,5.407 0 0 1 -10.814,0 C 0.857,3.34 3.287,0.94 6.274,0.94 Z M 4.088,1.87 A 0.16,0.16 0 0 0 4.006,2.174 L 5.853,3.097 4.47,3.558 V 2.707 a 0.161,0.161 0 1 0 -0.321,0 v 0.958 l -0.871,0.29 a 0.16111875,0.16111875 0 0 0 0.101,0.306 l 0.77,-0.257 v 1.328 a 0.1605,0.1605 0 1 0 0.321,0 V 3.897 L 6.26,3.301 8.463,4.402 A 0.16054984,0.16054984 0 1 0 8.607,4.115 L 6.691,3.157 9.267,2.298 A 0.161,0.161 0 0 0 9.165,1.993 L 6.285,2.953 4.15,1.886 A 0.162,0.162 0 0 0 4.088,1.87 Z m 5.128,0.676 a 0.161,0.161 0 0 0 -0.161,0.16 v 3.365 a 0.1605,0.1605 0 1 0 0.321,0 V 2.707 A 0.161,0.161 0 0 0 9.216,2.546 Z M 6.272,3.543 A 0.16,0.16 0 0 0 6.112,3.704 V 4.58 a 0.1605,0.1605 0 1 0 0.321,0 V 3.704 A 0.16,0.16 0 0 0 6.273,3.544 Z M 3.328,4.416 a 0.16,0.16 0 0 0 -0.16,0.16 v 1.495 a 0.1605,0.1605 0 1 0 0.321,0 V 4.577 a 0.16,0.16 0 0 0 -0.16,-0.16 z m 4.907,0.13 A 0.161,0.161 0 0 0 8.074,4.707 v 1.595 c 0,0.089 0.072,0.161 0.16,0.161 0.09,0 0.162,-0.072 0.162,-0.161 V 4.707 A 0.16,0.16 0 0 0 8.235,4.547 Z M 6.272,5.094 a 0.652,0.652 0 0 0 -0.651,0.65 v 0.11 c 0,0.304 0.209,0.56 0.49,0.631 V 6.693 A 0.527,0.527 0 0 0 5.821,6.925 L 4.811,6.42 a 0.507,0.507 0 1 0 -1.004,0 L 3.106,6.771 A 0.16054984,0.16054984 0 1 0 3.25,7.058 L 3.952,6.707 a 0.505,0.505 0 0 0 0.715,0 l 1.08,0.54 V 8.752 L 4.664,9.308 a 0.505,0.505 0 0 0 -0.86,0.362 0.507,0.507 0 0 0 0.711,0.463 l 0.454,0.496 A 0.16066891,0.16066891 0 0 0 5.206,10.412 L 4.752,9.916 A 0.504,0.504 0 0 0 4.811,9.594 L 5.818,9.077 a 0.525,0.525 0 0 0 0.908,0 l 1.008,0.517 a 0.504,0.504 0 0 0 0.058,0.322 l -0.454,0.496 a 0.16103804,0.16103804 0 0 0 0.238,0.217 L 8.029,10.133 A 0.507,0.507 0 1 0 7.88,9.308 L 6.797,8.752 V 7.492 L 7.753,7.5 A 0.508,0.508 0 0 0 8.741,7.343 0.518,0.518 0 0 0 8.736,7.272 L 9.484,6.898 A 0.16099689,0.16099689 0 1 0 9.34,6.61 L 8.593,6.984 A 0.505,0.505 0 0 0 7.755,7.178 L 6.796,7.171 A 0.526,0.526 0 0 0 6.433,6.693 V 6.485 A 0.653,0.653 0 0 0 6.923,5.854 V 5.744 A 0.652,0.652 0 0 0 6.273,5.094 Z M 4.31,6.164 a 0.185,0.185 0 1 1 0,0.37 0.185,0.185 0 0 1 0,-0.37 z M 4.304,7.08 a 0.16,0.16 0 0 0 -0.16,0.16 v 1.52 a 0.16,0.16 0 1 0 0.32,0 V 7.24 A 0.16,0.16 0 0 0 4.304,7.08 Z m 3.93,0.078 A 0.185,0.185 0 1 1 8.048,7.344 L 8.05,7.342 V 7.339 A 0.185,0.185 0 0 1 8.235,7.158 Z m 0,0.86 a 0.16,0.16 0 0 0 -0.16,0.16 v 0.663 a 0.161,0.161 0 1 0 0.322,0 V 8.179 A 0.16,0.16 0 0 0 8.235,8.018 Z M 4.311,9.485 a 0.186,0.186 0 0 1 0,0.37 0.185,0.185 0 0 1 0,-0.37 z m 3.925,0 a 0.186,0.186 0 1 1 -0.001,0.37 0.186,0.186 0 0 1 0,-0.37 z"
     id="path2"
     inkscape:connector-curvature="0"
     style="fill:#bde6fb;fill-opacity:1" />
</svg>
