<?xml version="1.0" encoding="UTF-8" standalone="no"?>
<svg
   width="47.542679"
   height="47.538898"
   viewBox="0 0 12.579 12.578"
   version="1.1"
   id="svg4"
   sodipodi:docname="kali-menu.svg"
   inkscape:version="0.92.5 (2060ec1f9f, 2020-04-08)"
   xmlns:inkscape="http://www.inkscape.org/namespaces/inkscape"
   xmlns:sodipodi="http://sodipodi.sourceforge.net/DTD/sodipodi-0.dtd"
   xmlns="http://www.w3.org/2000/svg"
   xmlns:svg="http://www.w3.org/2000/svg"
   xmlns:rdf="http://www.w3.org/1999/02/22-rdf-syntax-ns#"
   xmlns:cc="http://creativecommons.org/ns#"
   xmlns:dc="http://purl.org/dc/elements/1.1/">
  <metadata
     id="metadata10">
    <rdf:RDF>
      <cc:Work
         rdf:about="">
        <dc:format>image/svg+xml</dc:format>
        <dc:type
           rdf:resource="http://purl.org/dc/dcmitype/StillImage" />
        <dc:title />
      </cc:Work>
    </rdf:RDF>
  </metadata>
  <defs
     id="defs8" />
  <sodipodi:namedview
     pagecolor="#ffffff"
     bordercolor="#666666"
     borderopacity="1"
     objecttolerance="10"
     gridtolerance="10"
     guidetolerance="10"
     inkscape:pageopacity="0"
     inkscape:pageshadow="2"
     inkscape:window-width="1085"
     inkscape:window-height="480"
     id="namedview6"
     showgrid="false"
     inkscape:zoom="4.9166667"
     inkscape:cx="2.1355932"
     inkscape:cy="24"
     inkscape:window-x="0"
     inkscape:window-y="25"
     inkscape:window-maximized="0"
     inkscape:current-layer="svg4"
     inkscape:showpageshadow="0"
     inkscape:pagecheckerboard="0"
     inkscape:deskcolor="#d1d1d1" />
  <path
     d="M 6.29,0 A 6.29,6.29 0 0 0 3.76,0.536 c 0.264,0.241 0.4,0.41 0.713,0.714 a 5.407,5.407 0 0 1 1.799,-0.314 5.407,5.407 0 0 1 5.407,5.407 5.407,5.407 0 0 1 -0.866,2.926 c 0.224,0.13 0.45,0.263 0.687,0.364 0.033,0.015 0.061,0.018 0.095,0.032 A 6.29,6.29 0 0 0 12.579,6.289 6.29,6.29 0 0 0 6.29,0 Z M 1.683,0.419 c 0.162,0.137 0.331,0.283 0.488,0.425 a 35.633,35.633 0 0 1 2.26,2.26 c 0.672,0.739 0.768,0.799 1.273,0.8 0.257,0 0.32,-0.011 0.31,-0.055 C 5.981,3.703 4.021,1.743 3.033,0.869 A 42.185,42.185 0 0 0 2.517,0.419 Z M 0.373,0.971 V 3.846 L 3.206,5.301 A 0.88,0.88 0 0 1 3.504,5.533 C 3.593,5.64 3.571,5.765 3.556,5.96 3.543,6.132 3.552,6.31 3.559,6.479 c 0.043,0.465 0.198,0.863 0.438,1.1 0.207,0.204 0.672,0.494 1.606,1.006 0.454,0.248 1.018,0.58 1.253,0.736 0.546,0.363 1.113,0.82 1.633,1.312 l 0.002,0.002 c 0.355,0.338 0.713,0.715 1.004,1.067 0.244,0.296 0.41,0.466 0.446,0.456 0.04,-0.01 0.478,-0.299 0.99,-0.647 1.264,-0.857 1.31,-0.892 1.264,-0.948 a 0.535,0.535 0 0 0 -0.182,-0.07 2.137,2.137 0 0 0 -0.12,-0.03 C 11.345,10.356 10.605,10.037 10.019,9.657 A 8.494,8.494 0 0 1 9.243,9.069 C 8.97,8.832 8.696,8.614 8.463,8.323 L 8.341,8.169 8.418,8.084 C 8.649,7.83 8.631,7.711 8.268,7.102 A 66.188,66.188 0 0 1 7.128,5.126 6.135,6.135 0 0 0 6.777,4.524 0.794,0.794 0 0 0 6.594,4.335 0.439,0.439 0 0 0 6.412,4.25 C 5.978,4.199 5.337,4.37 4.998,4.203 A 1.235,1.235 0 0 1 4.711,3.983 C 4.491,3.771 4.281,3.513 4.111,3.316 3.741,2.881 3.329,2.396 3.197,2.235 2.843,1.805 2.581,1.525 2.517,1.508 2.502,1.504 2.503,1.503 2.501,1.523 2.494,1.586 2.518,1.848 2.56,2.149 2.615,2.547 2.645,2.752 2.635,2.834 2.632,2.858 2.632,2.864 2.617,2.872 2.576,2.892 2.491,2.825 2.325,2.712 A 9.29,9.29 0 0 1 0.476,1.095 L 0.393,0.996 Z M 0.24,4.579 A 6.29,6.29 0 0 0 0,6.289 6.29,6.29 0 0 0 6.289,12.578 6.29,6.29 0 0 0 8.797,12.052 C 8.606,11.832 8.398,11.614 8.182,11.399 A 5.407,5.407 0 0 1 6.271,11.75 5.407,5.407 0 0 1 0.865,6.343 5.407,5.407 0 0 1 1.044,4.991 Z m 6.493,1.477 c 0.015,0 0.03,0.006 0.051,0.014 C 6.948,6.272 7.111,6.505 7.228,6.678 7.459,7.02 7.646,7.328 7.65,7.362 7.655,7.411 7.637,7.416 7.629,7.425 7.571,7.49 7.4,7.485 7.166,7.401 6.769,7.257 6.556,7.087 6.501,6.866 6.443,6.631 6.556,6.186 6.683,6.08 6.703,6.064 6.718,6.057 6.733,6.056 Z"
     id="path2"
     inkscape:connector-curvature="0"
     style="fill:#bde6fb;fill-opacity:1" />
</svg>
