<?xml version="1.0" encoding="UTF-8" standalone="no"?>
<svg
   width="47.546486"
   height="47.546486"
   viewBox="0 0 12.580008 12.580008"
   version="1.1"
   id="svg4"
   sodipodi:docname="kalzium.svg"
   inkscape:version="0.92.4 (5da689c313, 2019-01-14)"
   xmlns:inkscape="http://www.inkscape.org/namespaces/inkscape"
   xmlns:sodipodi="http://sodipodi.sourceforge.net/DTD/sodipodi-0.dtd"
   xmlns="http://www.w3.org/2000/svg"
   xmlns:svg="http://www.w3.org/2000/svg"
   xmlns:rdf="http://www.w3.org/1999/02/22-rdf-syntax-ns#"
   xmlns:cc="http://creativecommons.org/ns#"
   xmlns:dc="http://purl.org/dc/elements/1.1/">
  <metadata
     id="metadata10">
    <rdf:RDF>
      <cc:Work
         rdf:about="">
        <dc:format>image/svg+xml</dc:format>
        <dc:type
           rdf:resource="http://purl.org/dc/dcmitype/StillImage" />
        <dc:title />
      </cc:Work>
    </rdf:RDF>
  </metadata>
  <defs
     id="defs8" />
  <sodipodi:namedview
     pagecolor="#ffffff"
     bordercolor="#666666"
     borderopacity="1"
     objecttolerance="10"
     gridtolerance="10"
     guidetolerance="10"
     inkscape:pageopacity="0"
     inkscape:pageshadow="2"
     inkscape:window-width="1087"
     inkscape:window-height="480"
     id="namedview6"
     showgrid="false"
     inkscape:zoom="4.9166667"
     inkscape:cx="2.1355932"
     inkscape:cy="24"
     inkscape:window-x="0"
     inkscape:window-y="25"
     inkscape:window-maximized="0"
     inkscape:current-layer="svg4"
     inkscape:showpageshadow="0"
     inkscape:pagecheckerboard="0"
     inkscape:deskcolor="#d1d1d1" />
  <path
     d="M 6.2900079,0 A 6.29,6.29 0 0 0 7.9490244e-6,6.3 6.29,6.29 0 0 0 6.3000079,12.58 6.29,6.29 0 0 0 12.580008,6.29 6.29,6.29 0 0 0 6.2900079,0 Z m -0.02,0.93 0.01,0.01 A 5.4,5.4 0 0 1 11.680008,6.34 5.4,5.4 0 0 1 6.2800079,11.75 5.4,5.4 0 0 1 0.87000795,6.35 5.4,5.4 0 0 1 6.2700079,0.93 Z m 1.82,1.11 a 1.06,1.06 0 0 0 -0.47,0.14 1.06,1.06 0 0 0 -0.4,1.44 1.06,1.06 0 0 0 0.13,0.19 l -0.55,0.97 a 1.59,1.59 0 0 0 -1.29,0.12 1.59,1.59 0 0 0 -0.77,1.08 h -1.09 a 1.06,1.06 0 0 0 -0.1,-0.26 1.06,1.06 0 0 0 -1.44,-0.4 1.06,1.06 0 0 0 -0.4,1.45 1.06,1.06 0 0 0 1.45,0.4 1.06,1.06 0 0 0 0.46,-0.56 l 1.14,0.01 a 1.59,1.59 0 0 0 0.17,0.45 1.59,1.59 0 0 0 0.35,0.41 l -0.55,0.96 a 1.06,1.06 0 0 0 -0.79,0.1 1.06,1.06 0 0 0 -0.4,1.45 1.06,1.06 0 0 0 1.45,0.4 1.06,1.06 0 0 0 0.39,-1.46 1.06,1.06 0 0 0 -0.11,-0.16 l 0.56,-0.99 a 1.59,1.59 0 0 0 1.26,-0.13 1.59,1.59 0 0 0 0.75,-1 h 1.14 a 1.06,1.06 0 0 0 0.08,0.18 1.06,1.06 0 0 0 1.4400001,0.4 1.06,1.06 0 0 0 0.4,-1.45 1.06,1.06 0 0 0 -1.4500001,-0.4 1.06,1.06 0 0 0 -0.49,0.63 l -1.1,-0.01 a 1.59,1.59 0 0 0 -0.18,-0.52 1.59,1.59 0 0 0 -0.32,-0.4 l 0.55,-0.96 a 1.06,1.06 0 0 0 0.76,-0.11 1.06,1.06 0 0 0 0.4,-1.45 1.06,1.06 0 0 0 -0.98,-0.53 z"
     id="path2"
     inkscape:connector-curvature="0"
     style="fill:#bde6fb;fill-opacity:1" />
</svg>
