<?xml version="1.0" encoding="UTF-8" standalone="no"?>
<svg
   width="47.546455"
   height="47.546455"
   viewBox="0 0 12.58 12.58"
   version="1.1"
   id="svg4"
   sodipodi:docname="kanagram.svg"
   inkscape:version="0.92.4 (5da689c313, 2019-01-14)"
   xmlns:inkscape="http://www.inkscape.org/namespaces/inkscape"
   xmlns:sodipodi="http://sodipodi.sourceforge.net/DTD/sodipodi-0.dtd"
   xmlns="http://www.w3.org/2000/svg"
   xmlns:svg="http://www.w3.org/2000/svg"
   xmlns:rdf="http://www.w3.org/1999/02/22-rdf-syntax-ns#"
   xmlns:cc="http://creativecommons.org/ns#"
   xmlns:dc="http://purl.org/dc/elements/1.1/">
  <metadata
     id="metadata10">
    <rdf:RDF>
      <cc:Work
         rdf:about="">
        <dc:format>image/svg+xml</dc:format>
        <dc:type
           rdf:resource="http://purl.org/dc/dcmitype/StillImage" />
        <dc:title />
      </cc:Work>
    </rdf:RDF>
  </metadata>
  <defs
     id="defs8" />
  <sodipodi:namedview
     pagecolor="#ffffff"
     bordercolor="#666666"
     borderopacity="1"
     objecttolerance="10"
     gridtolerance="10"
     guidetolerance="10"
     inkscape:pageopacity="0"
     inkscape:pageshadow="2"
     inkscape:window-width="1112"
     inkscape:window-height="480"
     id="namedview6"
     showgrid="false"
     inkscape:zoom="4.9166667"
     inkscape:cx="2.1355932"
     inkscape:cy="24"
     inkscape:window-x="0"
     inkscape:window-y="25"
     inkscape:window-maximized="0"
     inkscape:current-layer="svg4"
     inkscape:showpageshadow="0"
     inkscape:pagecheckerboard="0"
     inkscape:deskcolor="#d1d1d1" />
  <path
     d="m 6.29,0 a 6.29,6.29 0 0 0 0,12.58 A 6.29,6.29 0 0 0 6.29,0 Z M 6.27,0.93 a 5.417,5.417 0 0 1 5.41,5.41 5.4,5.4 0 0 1 -5.4,5.41 5.4,5.4 0 0 1 -5.41,-5.4 5.4,5.4 0 0 1 5.4,-5.42 z M 4.183,4.428 v 2.117 h 0.53 V 4.428 Z M 8.946,4.692 9.607,5.751 8.946,6.809 h 0.529 l 0.397,-0.635 0.397,0.635 h 0.529 L 10.136,5.751 10.798,4.692 h -0.53 L 9.872,5.328 9.475,4.692 H 8.945 Z M 2.326,5.22 2.327,5.222 H 1.802 v 2.116 h 0.53 v -1.17 l 0.793,1.17 h 0.53 V 5.222 H 3.125 V 6.414 L 2.331,5.228 V 5.222 Z m 4.503,0.266 v 1.059 c 0,0 -0.004,0.242 0.103,0.498 0.107,0.257 0.387,0.56 0.823,0.56 0.437,0 0.717,-0.303 0.823,-0.56 C 8.685,6.787 8.681,6.545 8.681,6.545 V 5.486 H 8.152 v 1.059 c 0,0 -0.004,0.154 -0.062,0.295 C 8.031,6.98 7.98,7.074 7.755,7.074 7.53,7.074 7.479,6.98 7.421,6.84 7.362,6.699 7.358,6.545 7.358,6.545 V 5.486 H 6.83 Z M 5.242,6.016 V 8.133 H 6.565 V 7.603 H 5.77 V 6.015 H 5.24 Z"
     id="path2"
     inkscape:connector-curvature="0"
     style="fill:#bde6fb;fill-opacity:1" />
</svg>
