<?xml version="1.0" encoding="UTF-8" standalone="no"?>
<svg
   width="47.546455"
   height="47.546455"
   viewBox="0 0 12.58 12.58"
   version="1.1"
   id="svg4"
   sodipodi:docname="kapptemplate.svg"
   inkscape:version="0.92.4 (5da689c313, 2019-01-14)"
   xmlns:inkscape="http://www.inkscape.org/namespaces/inkscape"
   xmlns:sodipodi="http://sodipodi.sourceforge.net/DTD/sodipodi-0.dtd"
   xmlns="http://www.w3.org/2000/svg"
   xmlns:svg="http://www.w3.org/2000/svg"
   xmlns:rdf="http://www.w3.org/1999/02/22-rdf-syntax-ns#"
   xmlns:cc="http://creativecommons.org/ns#"
   xmlns:dc="http://purl.org/dc/elements/1.1/">
  <metadata
     id="metadata10">
    <rdf:RDF>
      <cc:Work
         rdf:about="">
        <dc:format>image/svg+xml</dc:format>
        <dc:type
           rdf:resource="http://purl.org/dc/dcmitype/StillImage" />
        <dc:title />
      </cc:Work>
    </rdf:RDF>
  </metadata>
  <defs
     id="defs8" />
  <sodipodi:namedview
     pagecolor="#ffffff"
     bordercolor="#666666"
     borderopacity="1"
     objecttolerance="10"
     gridtolerance="10"
     guidetolerance="10"
     inkscape:pageopacity="0"
     inkscape:pageshadow="2"
     inkscape:window-width="1112"
     inkscape:window-height="480"
     id="namedview6"
     showgrid="false"
     inkscape:zoom="4.9166667"
     inkscape:cx="2.1355932"
     inkscape:cy="24"
     inkscape:window-x="0"
     inkscape:window-y="25"
     inkscape:window-maximized="0"
     inkscape:current-layer="svg4"
     inkscape:showpageshadow="0"
     inkscape:pagecheckerboard="0"
     inkscape:deskcolor="#d1d1d1" />
  <path
     d="m 6.29,0 a 6.29,6.29 0 0 0 0,12.58 A 6.29,6.29 0 0 0 6.29,0 Z M 6.27,0.93 a 5.417,5.417 0 0 1 5.41,5.41 5.4,5.4 0 0 1 -5.4,5.41 5.4,5.4 0 0 1 -5.41,-5.4 5.4,5.4 0 0 1 5.4,-5.42 z m 0.035,0.576 c -0.15,0 -0.299,0.004 -0.445,0.02 L 5.583,2.952 A 3.41,3.41 0 0 0 4.923,3.163 L 3.883,2.164 C 3.624,2.325 3.382,2.51 3.159,2.717 L 3.775,4.015 V 4.016 A 3.44,3.44 0 0 0 3.565,4.274 V 4.277 A 3.44,3.44 0 0 0 3.372,4.569 L 1.947,4.376 C 1.827,4.656 1.734,4.949 1.671,5.248 l 1.253,0.681 c -0.012,0.113 -0.02,0.226 -0.02,0.34 0,0.117 0.009,0.226 0.02,0.34 L 1.671,7.289 C 1.736,7.591 1.825,7.882 1.947,8.161 L 3.372,7.968 c 0.009,0.015 0.022,0.028 0.031,0.043 0.104,0.17 0.221,0.334 0.352,0.482 0.008,0.009 0.013,0.02 0.02,0.028 L 3.16,9.82 c 0.228,0.203 0.459,0.396 0.724,0.553 l 1.04,-1 C 4.966,9.391 5.013,9.398 5.055,9.414 5.185,9.466 5.319,9.509 5.456,9.544 5.5,9.556 5.54,9.576 5.584,9.586 l 0.277,1.424 c 0.297,0.028 0.595,0.028 0.892,0 L 7.03,9.586 C 7.058,9.579 7.083,9.566 7.11,9.559 7.258,9.523 7.4,9.474 7.539,9.421 7.587,9.402 7.641,9.393 7.688,9.372 l 1.043,1 C 8.994,10.216 9.226,10.023 9.453,9.82 L 8.835,8.52 C 8.975,8.366 9.099,8.19 9.209,8.009 9.219,7.994 9.231,7.982 9.239,7.967 l 1.426,0.193 c 0.12,-0.28 0.212,-0.573 0.276,-0.872 L 9.686,6.608 C 9.699,6.494 9.708,6.385 9.708,6.268 9.708,6.151 9.698,6.041 9.686,5.927 l 1.255,-0.68 A 4.7,4.7 0 0 0 10.665,4.375 L 9.24,4.568 A 3.442,3.442 0 0 0 9.132,4.403 3.388,3.388 0 0 0 8.916,4.112 3.441,3.441 0 0 0 8.836,4.014 L 9.453,2.716 A 4.728,4.728 0 0 0 8.73,2.163 l -1.043,1 A 3.412,3.412 0 0 0 7.029,2.951 L 6.75,1.527 A 4.843,4.843 0 0 0 6.304,1.507 Z m 0,1.904 A 2.86,2.86 0 0 1 8.44,8.17 L 8.437,8.174 A 2.86,2.86 0 0 1 7.527,8.854 2.86,2.86 0 0 1 7.346,8.929 2.859,2.859 0 0 1 5.737,9.071 C 5.687,9.061 5.637,9.048 5.588,9.034 A 2.826,2.826 0 0 1 5.25,8.924 2.858,2.858 0 0 1 5.192,8.904 C 5.153,8.887 5.116,8.866 5.078,8.848 L 5.398,8.47 a 0.26,0.26 0 0 0 0.05,-0.13 c 0.09,-0.11 0.42,-0.52 1.1,-1.2 0.81,-0.8 0.95,-0.4 1.1,-0.26 0.15,0.14 0.13,0.26 0.13,0.26 0.02,0.07 0.07,0.18 0.13,0.23 l 0.24,0.2 c 0.02,0 0.43,-0.44 0.56,-0.59 0.12,-0.12 0.3,-0.38 0.3,-0.38 a 0.08,0.08 0 0 0 0,-0.1 c 0,0 -0.23,-0.25 -0.31,-0.25 C 8.458,6.23 8.348,6.21 8.228,6.03 8.108,5.85 8.108,5.71 8.048,5.6 A 3.4,3.4 0 0 0 7.108,4.77 3.87,3.87 0 0 0 5.138,4.14 l -0.76,0.05 0.4,0.4 0.11,0.03 c 0,0 0.49,0.11 0.87,0.4 0.39,0.27 0.49,0.76 0.2,1.32 -0.18,0.34 -0.29,0.45 -0.52,0.72 -0.28,0.32 -0.52,0.57 -0.63,0.68 A 0.25,0.25 0 0 0 4.688,7.8 L 4.246,8.245 C 4.249,8.249 4.251,8.258 4.255,8.262 A 2.86,2.86 0 0 1 4.155,8.147 2.846,2.846 0 0 1 3.857,7.739 2.859,2.859 0 0 1 3.757,7.566 2.86,2.86 0 0 1 3.993,4.589 L 3.994,4.587 C 4.05,4.512 4.109,4.439 4.171,4.369 V 4.368 L 4.174,4.364 A 2.86,2.86 0 0 1 6.306,3.41 Z"
     id="path2"
     inkscape:connector-curvature="0"
     style="fill:#bde6fb;fill-opacity:1" />
</svg>
