<?xml version="1.0" encoding="UTF-8" standalone="no"?>
<svg
   width="47.546486"
   height="47.546455"
   viewBox="0 0 12.580008 12.58"
   version="1.1"
   id="svg14"
   sodipodi:docname="karbon.svg"
   inkscape:version="0.92.4 (5da689c313, 2019-01-14)"
   xmlns:inkscape="http://www.inkscape.org/namespaces/inkscape"
   xmlns:sodipodi="http://sodipodi.sourceforge.net/DTD/sodipodi-0.dtd"
   xmlns:xlink="http://www.w3.org/1999/xlink"
   xmlns="http://www.w3.org/2000/svg"
   xmlns:svg="http://www.w3.org/2000/svg"
   xmlns:rdf="http://www.w3.org/1999/02/22-rdf-syntax-ns#"
   xmlns:cc="http://creativecommons.org/ns#"
   xmlns:dc="http://purl.org/dc/elements/1.1/">
  <defs
     id="defs18">
    <linearGradient
       id="swatch3"
       inkscape:swatch="solid">
      <stop
         style="stop-color:#bde6fb;stop-opacity:1;"
         offset="0"
         id="stop3" />
    </linearGradient>
    <linearGradient
       id="swatch2"
       inkscape:swatch="solid">
      <stop
         style="stop-color:#bde6fb;stop-opacity:1;"
         offset="0"
         id="stop2" />
    </linearGradient>
    <linearGradient
       id="swatch1"
       inkscape:swatch="solid">
      <stop
         style="stop-color:#bde6fb;stop-opacity:1;"
         offset="0"
         id="stop1" />
    </linearGradient>
    <linearGradient
       inkscape:collect="always"
       xlink:href="#swatch1"
       id="linearGradient1"
       x1="1.755"
       y1="2.8399999"
       x2="8.085"
       y2="2.8399999"
       gradientUnits="userSpaceOnUse"
       gradientTransform="translate(0.05999205,0.06)" />
    <linearGradient
       inkscape:collect="always"
       xlink:href="#swatch2"
       id="linearGradient2"
       x1="3.905"
       y1="5.8400002"
       x2="8.2150002"
       y2="5.8400002"
       gradientUnits="userSpaceOnUse"
       gradientTransform="translate(0.05999205,0.06)" />
    <linearGradient
       inkscape:collect="always"
       xlink:href="#swatch3"
       id="linearGradient3"
       x1="3.6400001"
       y1="8.8299999"
       x2="10.76"
       y2="8.8299999"
       gradientUnits="userSpaceOnUse"
       gradientTransform="translate(0.05999205,0.06)" />
  </defs>
  <sodipodi:namedview
     pagecolor="#ffffff"
     bordercolor="#666666"
     borderopacity="1"
     objecttolerance="10"
     gridtolerance="10"
     guidetolerance="10"
     inkscape:pageopacity="0"
     inkscape:pageshadow="2"
     inkscape:window-width="1087"
     inkscape:window-height="480"
     id="namedview16"
     showgrid="false"
     inkscape:zoom="4.9166667"
     inkscape:cx="2.1355932"
     inkscape:cy="24"
     inkscape:window-x="0"
     inkscape:window-y="25"
     inkscape:window-maximized="0"
     inkscape:current-layer="svg14"
     inkscape:showpageshadow="0"
     inkscape:pagecheckerboard="0"
     inkscape:deskcolor="#d1d1d1" />
  <metadata
     id="metadata2">
    <rdf:RDF>
      <cc:Work>
        <dc:format>image/svg+xml</dc:format>
        <dc:type
           rdf:resource="http://purl.org/dc/dcmitype/StillImage" />
        <dc:title />
      </cc:Work>
    </rdf:RDF>
  </metadata>
  <path
     d="M 6.2900079,0 A 6.29,6.29 0 0 0 7.9473853e-6,6.3 6.29,6.29 0 0 0 6.2900079,12.58 a 6.29,6.29 0 0 0 2.74,-0.64 c 0.24,0.24 0.55,0.39 0.91,0.41 a 1.46,1.46 0 0 0 1.3300001,-2.22 6.29,6.29 0 0 0 1.31,-3.84 A 6.29,6.29 0 0 0 6.2900079,0 Z m -4.3,0.16 a 0.49063734,0.49063734 0 1 0 -0.05,0.98 0.48592695,0.48592695 0 0 0 0.06,-0.97 z m 4.28,0.78 a 5.4,5.4 0 0 1 5.4000001,5.4 5.4,5.4 0 0 1 -1.07,3.22 1.45,1.45 0 0 0 -1.9800001,1.65 5.4,5.4 0 0 1 -2.35,0.54 A 5.4,5.4 0 0 1 0.87000795,6.35 5.4,5.4 0 0 1 6.2700079,0.94 Z m 1.53,3.25 a 0.73,0.73 0 1 0 -0.1,1.45 0.73,0.73 0 0 0 0.1,-1.45 z m -3.5,1.47 a 0.9718539,0.9718539 0 1 0 -0.12,1.94 0.9721754,0.9721754 0 0 0 0.13,-1.94 z"
     id="path4"
     inkscape:connector-curvature="0"
     style="fill:#bde6fb;fill-opacity:1" />
  <g
     id="g12"
     style="fill:none;stroke:#1e3f5a;stroke-linecap:round;stroke-linejoin:round"
     transform="translate(-0.05999205,-0.06)">
    <path
       d="m 4.3,6.7 5.8,4.26"
       id="path6"
       inkscape:connector-curvature="0"
       style="stroke:url(#linearGradient3);stroke-width:1.32" />
    <path
       d="m 2.02,0.7 5.8,4.28"
       id="path8"
       inkscape:connector-curvature="0"
       style="stroke:url(#linearGradient1);stroke-width:0.53" />
    <path
       d="M 4.3,6.7 7.82,4.98"
       id="path10"
       inkscape:connector-curvature="0"
       style="stroke:url(#linearGradient2);stroke-width:0.79" />
  </g>
</svg>
