<?xml version="1.0" encoding="UTF-8" standalone="no"?>
<svg
   width="47.546486"
   height="47.546486"
   viewBox="0 0 12.580008 12.580008"
   version="1.1"
   id="svg6"
   sodipodi:docname="katomic.svg"
   inkscape:version="0.92.4 (5da689c313, 2019-01-14)"
   xmlns:inkscape="http://www.inkscape.org/namespaces/inkscape"
   xmlns:sodipodi="http://sodipodi.sourceforge.net/DTD/sodipodi-0.dtd"
   xmlns="http://www.w3.org/2000/svg"
   xmlns:svg="http://www.w3.org/2000/svg"
   xmlns:rdf="http://www.w3.org/1999/02/22-rdf-syntax-ns#"
   xmlns:cc="http://creativecommons.org/ns#"
   xmlns:dc="http://purl.org/dc/elements/1.1/">
  <metadata
     id="metadata12">
    <rdf:RDF>
      <cc:Work
         rdf:about="">
        <dc:format>image/svg+xml</dc:format>
        <dc:type
           rdf:resource="http://purl.org/dc/dcmitype/StillImage" />
        <dc:title />
      </cc:Work>
    </rdf:RDF>
  </metadata>
  <defs
     id="defs10" />
  <sodipodi:namedview
     pagecolor="#ffffff"
     bordercolor="#666666"
     borderopacity="1"
     objecttolerance="10"
     gridtolerance="10"
     guidetolerance="10"
     inkscape:pageopacity="0"
     inkscape:pageshadow="2"
     inkscape:window-width="1087"
     inkscape:window-height="480"
     id="namedview8"
     showgrid="false"
     inkscape:zoom="4.9166667"
     inkscape:cx="2.1355932"
     inkscape:cy="24"
     inkscape:window-x="0"
     inkscape:window-y="25"
     inkscape:window-maximized="0"
     inkscape:current-layer="svg6"
     inkscape:showpageshadow="0"
     inkscape:pagecheckerboard="0"
     inkscape:deskcolor="#d1d1d1" />
  <path
     d="M 6.2900079,0 A 6.29,6.29 0 0 0 7.9490244e-6,6.3 6.29,6.29 0 0 0 6.3000079,12.58 6.29,6.29 0 0 0 12.580008,6.29 6.29,6.29 0 0 0 6.2900079,0 Z m -0.01,0.94 A 5.4,5.4 0 0 1 11.680008,6.34 5.4,5.4 0 0 1 6.2800079,11.75 5.4,5.4 0 0 1 0.87000795,6.35 5.4,5.4 0 0 1 6.2700079,0.93 Z m 1.87,1.88 c -1.03,0 -1.86,0.83 -1.86,1.86 0,0.42 0.16,0.78 0.39,1.1 0.07,-0.05 0.13,-0.12 0.21,-0.15 a 1.87,1.87 0 0 1 2.06,0.4 c 0.07,0.06 0.1,0.15 0.16,0.23 0.54,-0.33 0.9200001,-0.9 0.9200001,-1.58 0,-1.03 -0.8300001,-1.86 -1.8700001,-1.86 z m -3.7,3.2 a 1.86,1.86 0 1 0 0,3.72 c 0.82,0 1.5,-0.53 1.74,-1.27 -0.1,-0.13 -0.2,-0.25 -0.27,-0.4 -0.1,-0.22 -0.14,-0.47 -0.14,-0.72 0,-0.22 0.05,-0.4 0.12,-0.6 a 1.83,1.83 0 0 0 -1.45,-0.74 z"
     id="path2"
     inkscape:connector-curvature="0"
     style="fill:#bde6fb;fill-opacity:1" />
  <path
     d="m 5.1500079,3.17 a 1.865,1.865 0 1 0 0,3.73 c 0.25,0 0.5,-0.05 0.71,-0.14 v 0.02 l -0.6,0.49 0.34,1.12 0.54,0.07 a 1.8660453,1.8660453 0 1 0 2.97,-2.26 l 0.03,-0.43 -0.63,-0.4 -0.8,-0.08 -0.75,0.13 a 1.84,1.84 0 0 0 -1.81,-2.25 z"
     id="path4"
     inkscape:connector-curvature="0"
     style="opacity:0.75;fill:#bde6fb;fill-opacity:1" />
</svg>
