<?xml version="1.0" encoding="UTF-8" standalone="no"?>
<svg
   width="47.546455"
   height="47.546455"
   viewBox="0 0 12.58 12.58"
   version="1.1"
   id="svg6"
   sodipodi:docname="kblackbox.svg"
   inkscape:version="0.92.4 (5da689c313, 2019-01-14)"
   xmlns:inkscape="http://www.inkscape.org/namespaces/inkscape"
   xmlns:sodipodi="http://sodipodi.sourceforge.net/DTD/sodipodi-0.dtd"
   xmlns="http://www.w3.org/2000/svg"
   xmlns:svg="http://www.w3.org/2000/svg"
   xmlns:rdf="http://www.w3.org/1999/02/22-rdf-syntax-ns#"
   xmlns:cc="http://creativecommons.org/ns#"
   xmlns:dc="http://purl.org/dc/elements/1.1/">
  <metadata
     id="metadata12">
    <rdf:RDF>
      <cc:Work
         rdf:about="">
        <dc:format>image/svg+xml</dc:format>
        <dc:type
           rdf:resource="http://purl.org/dc/dcmitype/StillImage" />
        <dc:title />
      </cc:Work>
    </rdf:RDF>
  </metadata>
  <defs
     id="defs10" />
  <sodipodi:namedview
     pagecolor="#ffffff"
     bordercolor="#666666"
     borderopacity="1"
     objecttolerance="10"
     gridtolerance="10"
     guidetolerance="10"
     inkscape:pageopacity="0"
     inkscape:pageshadow="2"
     inkscape:window-width="1112"
     inkscape:window-height="480"
     id="namedview8"
     showgrid="false"
     inkscape:zoom="4.9166667"
     inkscape:cx="2.1355932"
     inkscape:cy="24"
     inkscape:window-x="0"
     inkscape:window-y="25"
     inkscape:window-maximized="0"
     inkscape:current-layer="svg6"
     inkscape:showpageshadow="0"
     inkscape:pagecheckerboard="0"
     inkscape:deskcolor="#d1d1d1" />
  <path
     d="m 6.29,0 a 6.29,6.29 0 1 0 0,12.58 A 6.29,6.29 0 0 0 6.29,0 Z M 6.27,0.93 a 5.417,5.417 0 0 1 5.41,5.41 5.4,5.4 0 0 1 -5.4,5.41 5.4,5.4 0 0 1 -5.41,-5.4 5.4,5.4 0 0 1 5.4,-5.42 z"
     id="path2"
     inkscape:connector-curvature="0"
     style="fill:#bde6fb;fill-opacity:1" />
  <path
     d="M 3.03,2.84 A 0.143,0.143 0 0 0 2.886,2.984 V 9.55 c 0,0.079 0.064,0.143 0.143,0.143 H 9.596 C 9.676,9.693 9.74,9.629 9.74,9.55 V 2.984 A 0.143,0.143 0 0 0 9.596,2.84 Z m 3.239,1.075 c 0.382,0 0.689,0.102 0.92,0.305 0.233,0.2 0.35,0.465 0.35,0.797 A 0.944,0.944 0 0 1 7.427,5.465 2.011,2.011 0 0 1 7.034,5.945 L 6.76,6.212 C 6.665,6.312 6.597,6.388 6.555,6.442 A 0.54,0.54 0 0 0 6.468,6.597 1.25,1.25 0 0 0 6.437,6.759 4.046,4.046 0 0 0 6.431,7.014 v 0.38 H 5.833 V 6.921 A 1.3,1.3 0 0 1 5.92,6.405 C 5.978,6.268 6.103,6.11 6.294,5.932 L 6.568,5.652 C 6.688,5.544 6.773,5.442 6.823,5.347 6.877,5.247 6.903,5.146 6.903,5.042 A 0.543,0.543 0 0 0 6.698,4.6 C 6.566,4.484 6.388,4.425 6.163,4.425 6.001,4.425 5.827,4.463 5.641,4.537 5.454,4.608 5.261,4.714 5.061,4.855 V 4.27 C 5.253,4.15 5.448,4.06 5.647,4.003 5.85,3.945 6.057,3.915 6.269,3.915 Z m -0.448,3.94 h 0.628 v 0.79 H 5.821 Z"
     id="path4"
     inkscape:connector-curvature="0"
     style="opacity:0.75;fill:#bde6fb;fill-opacity:1" />
</svg>
