<?xml version="1.0" encoding="UTF-8" standalone="no"?>
<svg
   width="47.546455"
   height="47.546455"
   viewBox="0 0 12.58 12.58"
   version="1.1"
   id="svg6"
   sodipodi:docname="kblocks.svg"
   inkscape:version="0.92.4 (5da689c313, 2019-01-14)"
   xmlns:inkscape="http://www.inkscape.org/namespaces/inkscape"
   xmlns:sodipodi="http://sodipodi.sourceforge.net/DTD/sodipodi-0.dtd"
   xmlns="http://www.w3.org/2000/svg"
   xmlns:svg="http://www.w3.org/2000/svg"
   xmlns:rdf="http://www.w3.org/1999/02/22-rdf-syntax-ns#"
   xmlns:cc="http://creativecommons.org/ns#"
   xmlns:dc="http://purl.org/dc/elements/1.1/">
  <metadata
     id="metadata12">
    <rdf:RDF>
      <cc:Work
         rdf:about="">
        <dc:format>image/svg+xml</dc:format>
        <dc:type
           rdf:resource="http://purl.org/dc/dcmitype/StillImage" />
        <dc:title />
      </cc:Work>
    </rdf:RDF>
  </metadata>
  <defs
     id="defs10" />
  <sodipodi:namedview
     pagecolor="#ffffff"
     bordercolor="#666666"
     borderopacity="1"
     objecttolerance="10"
     gridtolerance="10"
     guidetolerance="10"
     inkscape:pageopacity="0"
     inkscape:pageshadow="2"
     inkscape:window-width="1112"
     inkscape:window-height="480"
     id="namedview8"
     showgrid="false"
     inkscape:zoom="4.9166667"
     inkscape:cx="2.1355932"
     inkscape:cy="24"
     inkscape:window-x="0"
     inkscape:window-y="25"
     inkscape:window-maximized="0"
     inkscape:current-layer="svg6"
     inkscape:showpageshadow="0"
     inkscape:pagecheckerboard="0"
     inkscape:deskcolor="#d1d1d1" />
  <path
     d="m 6.29,0 a 6.29,6.29 0 0 0 0,12.58 A 6.29,6.29 0 0 0 6.29,0 Z M 6.27,0.93 a 5.417,5.417 0 0 1 5.41,5.41 5.4,5.4 0 0 1 -5.4,5.41 5.4,5.4 0 0 1 -5.41,-5.4 5.4,5.4 0 0 1 5.4,-5.42 z M 3.015,2.84 A 0.155,0.155 0 0 0 2.86,2.995 v 2.786 c 0,0.086 0.07,0.155 0.155,0.155 H 5.801 A 0.154,0.154 0 0 0 5.956,5.781 V 2.995 A 0.154,0.154 0 0 0 5.801,2.84 Z m 3.784,0 A 0.154,0.154 0 0 0 6.644,2.995 v 2.786 c 0,0.086 0.069,0.155 0.155,0.155 H 9.585 A 0.154,0.154 0 0 0 9.74,5.781 V 2.995 A 0.155,0.155 0 0 0 9.585,2.84 Z M 8.192,3.7 A 0.688,0.688 0 0 1 8.88,4.388 0.688,0.688 0 0 1 8.192,5.076 0.688,0.688 0 0 1 7.504,4.388 0.688,0.688 0 0 1 8.192,3.7 Z M 6.799,6.624 A 0.154,0.154 0 0 0 6.644,6.779 v 2.786 c 0,0.085 0.069,0.155 0.155,0.155 H 9.585 C 9.67,9.72 9.74,9.65 9.74,9.565 V 6.779 A 0.154,0.154 0 0 0 9.585,6.624 Z"
     id="path2"
     inkscape:connector-curvature="0"
     style="fill:#bde6fb;fill-opacity:1" />
  <path
     d="M 3.015,6.624 A 0.154,0.154 0 0 0 2.86,6.779 v 2.786 c 0,0.085 0.07,0.155 0.155,0.155 h 2.786 c 0.086,0 0.155,-0.07 0.155,-0.155 V 6.779 A 0.154,0.154 0 0 0 5.801,6.624 Z m 1.393,0.86 A 0.688,0.688 0 0 1 5.096,8.172 0.688,0.688 0 0 1 4.408,8.86 0.688,0.688 0 0 1 3.72,8.172 0.688,0.688 0 0 1 4.408,7.484 Z"
     id="path4"
     inkscape:connector-curvature="0"
     style="opacity:0.75;fill:#bde6fb;fill-opacity:1" />
</svg>
