<?xml version="1.0" encoding="UTF-8" standalone="no"?>
<svg
   width="47.546455"
   height="47.546459"
   viewBox="0 0 12.58 12.580001"
   version="1.1"
   id="svg4"
   sodipodi:docname="kbounce.svg"
   inkscape:version="0.92.4 (5da689c313, 2019-01-14)"
   xmlns:inkscape="http://www.inkscape.org/namespaces/inkscape"
   xmlns:sodipodi="http://sodipodi.sourceforge.net/DTD/sodipodi-0.dtd"
   xmlns="http://www.w3.org/2000/svg"
   xmlns:svg="http://www.w3.org/2000/svg"
   xmlns:rdf="http://www.w3.org/1999/02/22-rdf-syntax-ns#"
   xmlns:cc="http://creativecommons.org/ns#"
   xmlns:dc="http://purl.org/dc/elements/1.1/">
  <metadata
     id="metadata10">
    <rdf:RDF>
      <cc:Work
         rdf:about="">
        <dc:format>image/svg+xml</dc:format>
        <dc:type
           rdf:resource="http://purl.org/dc/dcmitype/StillImage" />
        <dc:title />
      </cc:Work>
    </rdf:RDF>
  </metadata>
  <defs
     id="defs8" />
  <sodipodi:namedview
     pagecolor="#ffffff"
     bordercolor="#666666"
     borderopacity="1"
     objecttolerance="10"
     gridtolerance="10"
     guidetolerance="10"
     inkscape:pageopacity="0"
     inkscape:pageshadow="2"
     inkscape:window-width="861"
     inkscape:window-height="480"
     id="namedview6"
     showgrid="false"
     inkscape:zoom="4.9166667"
     inkscape:cx="2.1355932"
     inkscape:cy="24"
     inkscape:window-x="0"
     inkscape:window-y="25"
     inkscape:window-maximized="0"
     inkscape:current-layer="svg4"
     inkscape:showpageshadow="0"
     inkscape:pagecheckerboard="0"
     inkscape:deskcolor="#d1d1d1" />
  <path
     d="M 6.289,3.1602383e-7 A 6.29,6.29 0 0 0 0,6.2900003 6.29,6.29 0 0 0 6.29,12.58 6.29,6.29 0 0 0 12.58,6.2900003 6.29,6.29 0 0 0 6.288,3.1602383e-7 Z M 6.271,0.93700032 A 5.407,5.407 0 0 1 11.679,6.3440003 5.407,5.407 0 0 1 6.271,11.752 5.407,5.407 0 0 1 0.865,6.3440003 5.407,5.407 0 0 1 6.271,0.93800032 Z M 5.233,4.0320003 a 3.175,3.175 0 0 0 -3.175,3.176 3.175,3.175 0 0 0 3.175,3.1749997 3.175,3.175 0 0 0 3.175,-3.1749997 3.175,3.175 0 0 0 -3.175,-3.175 z"
     id="path2"
     inkscape:connector-curvature="0"
     style="fill:#bde6fb;fill-opacity:1" />
</svg>
