<?xml version="1.0" encoding="UTF-8" standalone="no"?>
<svg
   width="47.546455"
   height="47.546455"
   viewBox="0 0 12.58 12.58"
   version="1.1"
   id="svg4"
   sodipodi:docname="kcachegrind.svg"
   inkscape:version="0.92.4 (5da689c313, 2019-01-14)"
   xmlns:inkscape="http://www.inkscape.org/namespaces/inkscape"
   xmlns:sodipodi="http://sodipodi.sourceforge.net/DTD/sodipodi-0.dtd"
   xmlns="http://www.w3.org/2000/svg"
   xmlns:svg="http://www.w3.org/2000/svg"
   xmlns:rdf="http://www.w3.org/1999/02/22-rdf-syntax-ns#"
   xmlns:cc="http://creativecommons.org/ns#"
   xmlns:dc="http://purl.org/dc/elements/1.1/">
  <metadata
     id="metadata10">
    <rdf:RDF>
      <cc:Work
         rdf:about="">
        <dc:format>image/svg+xml</dc:format>
        <dc:type
           rdf:resource="http://purl.org/dc/dcmitype/StillImage" />
        <dc:title />
      </cc:Work>
    </rdf:RDF>
  </metadata>
  <defs
     id="defs8" />
  <sodipodi:namedview
     pagecolor="#ffffff"
     bordercolor="#666666"
     borderopacity="1"
     objecttolerance="10"
     gridtolerance="10"
     guidetolerance="10"
     inkscape:pageopacity="0"
     inkscape:pageshadow="2"
     inkscape:window-width="1112"
     inkscape:window-height="480"
     id="namedview6"
     showgrid="false"
     inkscape:zoom="4.9166667"
     inkscape:cx="2.1355932"
     inkscape:cy="24"
     inkscape:window-x="0"
     inkscape:window-y="25"
     inkscape:window-maximized="0"
     inkscape:current-layer="svg4"
     inkscape:showpageshadow="0"
     inkscape:pagecheckerboard="0"
     inkscape:deskcolor="#d1d1d1" />
  <path
     d="m 6.29,0 a 6.29,6.29 0 0 0 0,12.58 A 6.29,6.29 0 0 0 6.29,0 Z M 6.27,0.93 a 5.417,5.417 0 0 1 5.41,5.41 5.4,5.4 0 0 1 -5.4,5.41 5.4,5.4 0 0 1 -5.41,-5.4 5.4,5.4 0 0 1 5.4,-5.42 z M 5.075,2.046 C 4.841,2.08 4.61,2.136 4.387,2.214 l 0.095,1.12 C 4.322,3.416 4.171,3.514 4.031,3.627 L 3.034,3.099 C 2.953,3.182 2.877,3.269 2.804,3.359 2.73,3.449 2.66,3.541 2.597,3.637 L 3.324,4.501 C 3.243,4.661 3.178,4.831 3.13,5.004 L 2.017,5.146 A 3.68,3.68 0 0 0 1.997,5.854 L 3.085,6.116 C 3.113,6.291 3.159,6.463 3.222,6.63 L 2.409,7.397 c 0.11,0.21 0.242,0.409 0.392,0.593 L 3.826,7.566 c 0.062,0.063 0.127,0.122 0.196,0.179 0.07,0.057 0.14,0.105 0.216,0.154 L 4.036,8.989 C 4.251,9.097 4.47,9.185 4.699,9.248 L 5.279,8.292 C 5.455,8.319 5.634,8.328 5.81,8.318 L 6.294,9.326 C 6.529,9.287 6.758,9.242 6.983,9.158 L 6.886,8.04 C 7.045,7.96 7.196,7.859 7.338,7.745 L 9.71,9.663 c 0.403,-0.106 0.705,-0.661 0.687,-0.89 L 8.044,6.87 C 8.124,6.707 8.192,6.538 8.237,6.367 L 9.352,6.226 C 9.386,5.99 9.382,5.756 9.372,5.518 L 8.283,5.256 A 2.58,2.58 0 0 0 8.147,4.741 L 8.96,3.974 A 3.66,3.66 0 0 0 8.568,3.38 L 7.542,3.806 A 2.292,2.292 0 0 0 7.348,3.627 2.58,2.58 0 0 0 7.131,3.474 L 7.333,2.382 A 3.656,3.656 0 0 0 6.671,2.123 L 6.091,3.079 A 2.678,2.678 0 0 0 5.558,3.052 L 5.075,2.045 Z M 5.584,4.074 C 6.778,4.018 7.917,5.45 6.919,6.685 5.589,8.332 3.119,6.335 4.449,4.689 4.782,4.277 5.186,4.093 5.584,4.074 Z"
     id="path2"
     inkscape:connector-curvature="0"
     style="fill:#bde6fb;fill-opacity:1" />
</svg>
