<?xml version="1.0" encoding="UTF-8" standalone="no"?>
<svg
   width="47.546486"
   height="47.546486"
   viewBox="0 0 12.580008 12.580008"
   version="1.1"
   id="svg4"
   sodipodi:docname="kdeconnect.svg"
   inkscape:version="0.92.4 (5da689c313, 2019-01-14)"
   xmlns:inkscape="http://www.inkscape.org/namespaces/inkscape"
   xmlns:sodipodi="http://sodipodi.sourceforge.net/DTD/sodipodi-0.dtd"
   xmlns="http://www.w3.org/2000/svg"
   xmlns:svg="http://www.w3.org/2000/svg"
   xmlns:rdf="http://www.w3.org/1999/02/22-rdf-syntax-ns#"
   xmlns:cc="http://creativecommons.org/ns#"
   xmlns:dc="http://purl.org/dc/elements/1.1/">
  <metadata
     id="metadata10">
    <rdf:RDF>
      <cc:Work
         rdf:about="">
        <dc:format>image/svg+xml</dc:format>
        <dc:type
           rdf:resource="http://purl.org/dc/dcmitype/StillImage" />
        <dc:title />
      </cc:Work>
    </rdf:RDF>
  </metadata>
  <defs
     id="defs8" />
  <sodipodi:namedview
     pagecolor="#ffffff"
     bordercolor="#666666"
     borderopacity="1"
     objecttolerance="10"
     gridtolerance="10"
     guidetolerance="10"
     inkscape:pageopacity="0"
     inkscape:pageshadow="2"
     inkscape:window-width="862"
     inkscape:window-height="480"
     id="namedview6"
     showgrid="false"
     inkscape:zoom="4.9166667"
     inkscape:cx="2.1355932"
     inkscape:cy="24"
     inkscape:window-x="0"
     inkscape:window-y="25"
     inkscape:window-maximized="0"
     inkscape:current-layer="svg4"
     inkscape:showpageshadow="0"
     inkscape:pagecheckerboard="0"
     inkscape:deskcolor="#d1d1d1" />
  <path
     d="M 6.2900079,0 A 6.29,6.29 0 0 0 7.9490244e-6,6.3 6.29,6.29 0 0 0 6.3000079,12.58 6.29,6.29 0 0 0 12.580008,6.29 6.29,6.29 0 0 0 6.2900079,0 Z m -0.02,0.93 0.01,0.01 a 5.4,5.4 0 0 1 2.962,0.89 h -5.952 a 5.4,5.4 0 0 1 2.98,-0.9 z m -3.01,0.921 v 8.879 h 6.09 V 1.899 A 5.4,5.4 0 0 1 11.680008,6.339 5.4,5.4 0 0 1 6.2800079,11.75 5.4,5.4 0 0 1 0.87000795,6.35 5.4,5.4 0 0 1 3.2600079,1.85 Z m 0.35,1.12 h 5.38 V 9.67 h -5.38 v -6.7 z m 2.69,0.928 c -0.075,0 -0.15,0.002 -0.223,0.01 l -0.138,0.712 a 1.705,1.705 0 0 0 -0.33,0.107 l -0.52,-0.5 a 2.364,2.364 0 0 0 -0.363,0.276 l 0.309,0.65 a 1.72,1.72 0 0 0 -0.202,0.276 l -0.712,-0.096 a 2.35,2.35 0 0 0 -0.139,0.436 l 0.628,0.34 a 1.642,1.642 0 0 0 -0.01,0.17 c 0,0.058 0.004,0.113 0.01,0.17 l -0.628,0.34 c 0.033,0.151 0.078,0.297 0.139,0.436 l 0.712,-0.096 c 0.058,0.099 0.126,0.192 0.202,0.276 l -0.309,0.65 c 0.115,0.101 0.23,0.198 0.362,0.276 l 0.521,-0.5 c 0.104,0.047 0.215,0.082 0.33,0.107 l 0.138,0.712 a 2.422,2.422 0 0 0 0.446,0 l 0.138,-0.712 c 0.114,-0.026 0.225,-0.06 0.33,-0.107 l 0.52,0.5 c 0.133,-0.078 0.248,-0.175 0.362,-0.276 l -0.308,-0.65 a 1.66,1.66 0 0 0 0.202,-0.276 l 0.712,0.096 a 2.35,2.35 0 0 0 0.139,-0.436 l -0.628,-0.34 a 1.48,1.48 0 0 0 0,-0.34 l 0.628,-0.34 a 2.35,2.35 0 0 0 -0.139,-0.436 l -0.712,0.096 a 1.72,1.72 0 0 0 -0.202,-0.277 l 0.309,-0.649 a 2.364,2.364 0 0 0 -0.362,-0.276 l -0.522,0.5 a 1.706,1.706 0 0 0 -0.329,-0.107 l -0.138,-0.712 a 2.422,2.422 0 0 0 -0.224,-0.01 z m 0,1.36 a 1.021,1.021 0 0 1 0,2.042 1.021,1.021 0 0 1 0,-2.042 z"
     id="path2"
     inkscape:connector-curvature="0"
     style="fill:#bde6fb;fill-opacity:1" />
</svg>
