<?xml version="1.0" encoding="UTF-8" standalone="no"?>
<svg
   width="47.546455"
   height="47.546455"
   viewBox="0 0 12.58 12.58"
   version="1.1"
   id="svg6"
   sodipodi:docname="kdenlive.svg"
   inkscape:version="0.92.4 (5da689c313, 2019-01-14)"
   xmlns:inkscape="http://www.inkscape.org/namespaces/inkscape"
   xmlns:sodipodi="http://sodipodi.sourceforge.net/DTD/sodipodi-0.dtd"
   xmlns="http://www.w3.org/2000/svg"
   xmlns:svg="http://www.w3.org/2000/svg"
   xmlns:rdf="http://www.w3.org/1999/02/22-rdf-syntax-ns#"
   xmlns:cc="http://creativecommons.org/ns#"
   xmlns:dc="http://purl.org/dc/elements/1.1/">
  <metadata
     id="metadata12">
    <rdf:RDF>
      <cc:Work
         rdf:about="">
        <dc:format>image/svg+xml</dc:format>
        <dc:type
           rdf:resource="http://purl.org/dc/dcmitype/StillImage" />
        <dc:title />
      </cc:Work>
    </rdf:RDF>
  </metadata>
  <defs
     id="defs10" />
  <sodipodi:namedview
     pagecolor="#ffffff"
     bordercolor="#666666"
     borderopacity="1"
     objecttolerance="10"
     gridtolerance="10"
     guidetolerance="10"
     inkscape:pageopacity="0"
     inkscape:pageshadow="2"
     inkscape:window-width="862"
     inkscape:window-height="480"
     id="namedview8"
     showgrid="false"
     inkscape:zoom="4.9166667"
     inkscape:cx="2.1355932"
     inkscape:cy="24"
     inkscape:window-x="0"
     inkscape:window-y="25"
     inkscape:window-maximized="0"
     inkscape:current-layer="svg6"
     inkscape:showpageshadow="0"
     inkscape:pagecheckerboard="0"
     inkscape:deskcolor="#d1d1d1" />
  <path
     d="m 6.29,0 a 6.29,6.29 0 1 0 0,12.58 A 6.29,6.29 0 0 0 6.29,0 Z M 6.27,0.93 a 5.417,5.417 0 0 1 5.41,5.41 5.4,5.4 0 0 1 -5.4,5.41 5.4,5.4 0 0 1 -5.41,-5.4 5.4,5.4 0 0 1 5.4,-5.42 z m 2.01,1.38 c 0,0 -3.63,0.48 -5.707,4.108 l 0.162,0.81 A 8.038,8.038 0 0 1 4.114,5.248 L 4.987,7.237 C 4.644,7.573 4.317,7.93 4.011,8.292 3.705,8.654 3.421,9.021 3.165,9.377 l 0.174,0.872 c 0,0 3.024,-4.395 7.076,-5.363 l -0.4,-0.483 A 5.607,5.607 0 0 0 9,4.63 7.345,7.345 0 0 0 7.992,5.04 L 6.752,3.35 C 7.153,3.16 7.531,3.02 7.861,2.929 8.188,2.837 8.466,2.794 8.674,2.793 L 8.671,2.786 8.278,2.312 Z m -0.128,0.171 0.2,0.23 C 8.251,2.734 8.153,2.759 8.055,2.784 L 7.857,2.554 C 7.953,2.528 8.053,2.504 8.152,2.481 Z M 7.388,2.677 7.582,2.902 C 7.487,2.931 7.394,2.962 7.302,2.992 L 7.112,2.772 C 7.203,2.74 7.294,2.707 7.388,2.677 Z m -0.657,0.24 0.178,0.22 A 8.04,8.04 0 0 0 6.646,3.243 L 6.47,3.025 C 6.555,2.988 6.643,2.952 6.731,2.916 Z M 6.166,3.203 6.327,3.423 C 6.244,3.464 6.164,3.507 6.083,3.549 L 5.921,3.329 C 6.001,3.286 6.083,3.243 6.166,3.203 Z M 6.563,3.44 7.785,5.143 C 7.322,5.386 6.867,5.677 6.427,6.003 5.987,6.328 5.564,6.688 5.162,7.069 L 4.257,5.104 A 9.014,9.014 0 0 1 6.563,3.44 Z M 5.55,3.558 5.703,3.782 A 8.02,8.02 0 0 0 5.471,3.922 L 5.318,3.698 C 5.394,3.65 5.471,3.604 5.55,3.558 Z M 4.889,3.984 5.027,4.218 A 8.777,8.777 0 0 0 4.817,4.394 L 4.677,4.159 C 4.746,4.101 4.817,4.042 4.889,3.984 Z M 4.273,4.506 4.405,4.751 A 8.41,8.41 0 0 0 4.203,4.949 L 4.07,4.702 A 8.43,8.43 0 0 1 4.273,4.506 Z m 5.66,0.04 0.198,0.227 A 8.125,8.125 0 0 0 9.845,4.857 L 9.653,4.635 C 9.746,4.604 9.839,4.573 9.933,4.545 Z M 9.197,4.774 9.387,4.992 C 9.297,5.025 9.205,5.059 9.117,5.095 L 8.93,4.88 C 9.019,4.843 9.108,4.808 9.197,4.774 Z M 3.724,5.059 3.84,5.332 A 8.525,8.525 0 0 0 3.643,5.562 L 3.525,5.285 C 3.588,5.211 3.655,5.135 3.724,5.059 Z M 8.469,5.073 8.644,5.29 C 8.559,5.329 8.474,5.368 8.391,5.408 L 8.216,5.192 Z M 7.807,5.445 7.969,5.665 C 7.889,5.709 7.809,5.752 7.729,5.798 L 7.569,5.579 Z M 3.337,5.513 3.441,5.817 C 3.371,5.907 3.306,5.997 3.245,6.083 L 3.139,5.771 C 3.201,5.687 3.268,5.601 3.337,5.513 Z M 7.123,5.866 7.275,6.089 A 12.03,12.03 0 0 0 7.047,6.236 L 6.895,6.013 C 6.97,5.963 7.046,5.915 7.123,5.866 Z m -4.2,0.209 0.093,0.349 A 8.044,8.044 0 0 0 2.821,6.747 L 2.725,6.382 C 2.785,6.285 2.85,6.182 2.923,6.075 Z m 3.4,0.332 0.14,0.235 A 14.29,14.29 0 0 0 6.249,6.814 L 6.109,6.579 Z M 5.608,6.993 5.739,7.237 5.531,7.423 5.399,7.177 C 5.467,7.116 5.538,7.055 5.609,6.993 Z M 4.848,7.694 4.963,7.962 4.757,8.169 4.642,7.901 4.849,7.694 Z M 4.279,8.277 4.379,8.568 4.17,8.798 4.07,8.505 C 4.137,8.431 4.206,8.355 4.28,8.277 Z M 3.686,8.945 3.771,9.266 3.561,9.529 3.474,9.203 C 3.537,9.125 3.607,9.039 3.686,8.945 Z"
     id="path2"
     inkscape:connector-curvature="0"
     style="fill:#bde6fb;fill-opacity:1" />
  <path
     d="M 7.838,6.45 6.22,7.696 4.223,3.836 5.576,2.899 Z"
     id="path4"
     inkscape:connector-curvature="0"
     style="opacity:0.6;fill:#ff2a2a" />
</svg>
