<?xml version="1.0" encoding="UTF-8" standalone="no"?>
<svg
   width="47.546875"
   height="47.546875"
   viewBox="0 0 12.580111 12.580111"
   version="1.1"
   id="svg6"
   sodipodi:docname="kdesvn.svg"
   inkscape:version="0.92.4 (5da689c313, 2019-01-14)"
   xmlns:inkscape="http://www.inkscape.org/namespaces/inkscape"
   xmlns:sodipodi="http://sodipodi.sourceforge.net/DTD/sodipodi-0.dtd"
   xmlns="http://www.w3.org/2000/svg"
   xmlns:svg="http://www.w3.org/2000/svg"
   xmlns:rdf="http://www.w3.org/1999/02/22-rdf-syntax-ns#"
   xmlns:cc="http://creativecommons.org/ns#"
   xmlns:dc="http://purl.org/dc/elements/1.1/">
  <metadata
     id="metadata12">
    <rdf:RDF>
      <cc:Work
         rdf:about="">
        <dc:format>image/svg+xml</dc:format>
        <dc:type
           rdf:resource="http://purl.org/dc/dcmitype/StillImage" />
        <dc:title />
      </cc:Work>
    </rdf:RDF>
  </metadata>
  <defs
     id="defs10" />
  <sodipodi:namedview
     pagecolor="#ffffff"
     bordercolor="#666666"
     borderopacity="1"
     objecttolerance="10"
     gridtolerance="10"
     guidetolerance="10"
     inkscape:pageopacity="0"
     inkscape:pageshadow="2"
     inkscape:window-width="1366"
     inkscape:window-height="717"
     id="namedview8"
     showgrid="false"
     inkscape:zoom="4.9166667"
     inkscape:cx="-42.305085"
     inkscape:cy="24"
     inkscape:window-x="0"
     inkscape:window-y="25"
     inkscape:window-maximized="1"
     inkscape:current-layer="svg6"
     inkscape:showpageshadow="0"
     inkscape:pagecheckerboard="0"
     inkscape:deskcolor="#d1d1d1" />
  <path
     style="fill:#bde6fb;fill-opacity:1;stroke-width:1"
     d="M 6.2900551,0 V 0.0010335 A 6.2899998,6.2899998 0 0 0 0,6.2910888 6.2899998,6.2899998 0 0 0 6.2900551,12.58011 6.2899998,6.2899998 0 0 0 12.580111,6.2900554 6.2899998,6.2899998 0 0 0 6.2900551,0 Z m -0.01757,0.93844399 A 5.4070001,5.4070001 0 0 1 11.679391,6.3453491 5.4070001,5.4070001 0 0 1 6.2724852,11.752254 5.4070001,5.4070001 0 0 1 0.866097,6.3453491 5.4070001,5.4070001 0 0 1 6.2724852,0.93896079 Z M 6.7670288,3.0349568 a 0.52999999,0.52999999 0 0 0 -0.52865,0.5291666 0.52999999,0.52999999 0 0 0 0.082682,0.2842205 L 5.3934693,5.7030111 A 0.52999999,0.52999999 0 0 0 4.9785074,6.0141032 H 3.0494264 A 0.52999999,0.52999999 0 0 0 2.5920898,5.7500366 0.52999999,0.52999999 0 0 0 2.0624064,6.2792032 a 0.52999999,0.52999999 0 0 0 0.5296834,0.5302001 0.52999999,0.52999999 0 0 0 0.45837,-0.2651 H 5.0394856 A 0.52999999,0.52999999 0 0 0 5.3361084,6.7401571 L 6.3184772,8.7054117 A 0.52999999,0.52999999 0 0 0 6.2900551,8.8733602 0.52999999,0.52999999 0 0 0 6.8202555,9.4030436 0.52999999,0.52999999 0 0 0 7.2434854,9.1891031 H 8.7493366 A 0.52999999,0.52999999 0 0 0 9.2061564,9.4542032 0.52999999,0.52999999 0 0 0 9.7363565,8.9240031 0.52999999,0.52999999 0 0 0 9.2061564,8.3963866 0.52999999,0.52999999 0 0 0 8.7493366,8.6604532 H 7.3044637 A 0.52999999,0.52999999 0 0 0 6.8192218,8.3441936 0.52999999,0.52999999 0 0 0 6.7391234,8.3514281 L 5.8104979,6.6254354 a 0.52999999,0.52999999 0 0 0 0.075965,-0.081132 H 7.4264199 A 0.52999999,0.52999999 0 0 0 7.8832397,6.8083699 0.52999999,0.52999999 0 0 0 8.4134398,6.2792032 0.52999999,0.52999999 0 0 0 7.8832397,5.7490031 0.52999999,0.52999999 0 0 0 7.4264199,6.0141032 H 5.9464069 A 0.52999999,0.52999999 0 0 0 5.8440878,5.8601075 L 6.729305,4.0912232 A 0.52999999,0.52999999 0 0 0 6.768062,4.0932932 0.52999999,0.52999999 0 0 0 7.2972289,3.56309 0.52999999,0.52999999 0 0 0 6.7680622,3.0349568 h -5.167e-4 z"
     id="path2"
     inkscape:connector-curvature="0" />
</svg>
