<?xml version="1.0" encoding="UTF-8" standalone="no"?>
<svg
   width="47.546452"
   height="47.546455"
   viewBox="0 0 12.579999 12.58"
   version="1.1"
   id="svg4"
   sodipodi:docname="kdesrc-build.svg"
   inkscape:version="0.92.4 (5da689c313, 2019-01-14)"
   xmlns:inkscape="http://www.inkscape.org/namespaces/inkscape"
   xmlns:sodipodi="http://sodipodi.sourceforge.net/DTD/sodipodi-0.dtd"
   xmlns="http://www.w3.org/2000/svg"
   xmlns:svg="http://www.w3.org/2000/svg"
   xmlns:rdf="http://www.w3.org/1999/02/22-rdf-syntax-ns#"
   xmlns:cc="http://creativecommons.org/ns#"
   xmlns:dc="http://purl.org/dc/elements/1.1/">
  <metadata
     id="metadata10">
    <rdf:RDF>
      <cc:Work
         rdf:about="">
        <dc:format>image/svg+xml</dc:format>
        <dc:type
           rdf:resource="http://purl.org/dc/dcmitype/StillImage" />
        <dc:title />
      </cc:Work>
    </rdf:RDF>
  </metadata>
  <defs
     id="defs8" />
  <sodipodi:namedview
     pagecolor="#ffffff"
     bordercolor="#666666"
     borderopacity="1"
     objecttolerance="10"
     gridtolerance="10"
     guidetolerance="10"
     inkscape:pageopacity="0"
     inkscape:pageshadow="2"
     inkscape:window-width="1366"
     inkscape:window-height="717"
     id="namedview6"
     showgrid="false"
     inkscape:zoom="4.9166667"
     inkscape:cx="-20.440678"
     inkscape:cy="24"
     inkscape:window-x="0"
     inkscape:window-y="25"
     inkscape:window-maximized="1"
     inkscape:current-layer="svg4"
     inkscape:showpageshadow="0"
     inkscape:pagecheckerboard="0"
     inkscape:deskcolor="#d1d1d1" />
  <path
     d="M 6.29,9.9999768e-4 A 6.29,6.29 0 0 0 0,6.291 6.29,6.29 0 0 0 6.29,12.58 6.29,6.29 0 0 0 12.58,6.29 6.29,6.29 0 0 0 6.29,0 Z M 6.272,0.938 A 5.407,5.407 0 0 1 11.679,6.345 5.407,5.407 0 0 1 6.272,11.752 5.407,5.407 0 0 1 0.86600004,6.345 5.407,5.407 0 0 1 6.272,0.939 Z m 1.12,1.5 A 0.31,0.31 0 0 0 7.099,2.63 0.31,0.31 0 0 0 7.266,3.035 0.31,0.31 0 0 0 7.671,2.867 0.31,0.31 0 0 0 7.504,2.463 0.31,0.31 0 0 0 7.392,2.439 Z M 6.34,3.258 A 0.41,0.41 0 0 0 5.993,3.523 0.424,0.424 0 0 0 6.036,3.941 L 4.12,8.554 a 1.292,1.292 0 0 0 0.697,1.684 1.275,1.275 0 0 0 1.67,-0.69 L 8.403,4.934 A 0.404,0.404 0 0 0 8.76,4.672 C 8.849,4.46 8.77,4.232 8.585,4.156 L 6.482,3.282 A 0.325,0.325 0 0 0 6.34,3.257 Z M 7.946,3.342 A 0.2,0.2 0 0 0 7.756,3.465 0.2,0.2 0 0 0 7.864,3.726 0.2,0.2 0 0 0 8.126,3.618 0.2,0.2 0 0 0 8.018,3.357 0.2,0.2 0 0 0 7.946,3.343 Z M 6.328,3.597 8.432,4.47 c 0,0 0.011,0.026 -0.004,0.063 A 0.144,0.144 0 0 1 8.395,4.585 L 8.201,4.504 6.166,9.414 A 0.93923173,0.93923173 0 1 1 4.431,8.694 L 6.469,3.785 6.312,3.72 C 6.302,3.716 6.296,3.68 6.298,3.65 6.313,3.612 6.33,3.598 6.33,3.598 Z M 6.891,5.939 A 0.14,0.14 0 0 0 6.759,6.025 0.14,0.14 0 0 0 6.834,6.208 0.14,0.14 0 0 0 7.017,6.132 0.14,0.14 0 0 0 6.941,5.95 0.14,0.14 0 0 0 6.891,5.939 Z M 6.068,6.041 a 0.243,0.243 0 0 0 -0.22,0.147 l -1.1,2.648 A 0.601,0.601 0 0 0 5.072,9.619 0.601,0.601 0 0 0 5.855,9.296 L 6.955,6.647 6.623,6.51 A 0.18,0.18 0 0 0 6.525,6.274 0.18,0.18 0 0 0 6.29,6.372 0.243,0.243 0 0 0 6.16,6.058 0.232,0.232 0 0 0 6.068,6.041 Z M 5.953,6.939 c 0.022,0 0.044,0.003 0.064,0.012 A 0.175,0.175 0 0 1 6.109,7.173 0.175,0.175 0 0 1 5.887,7.265 0.175,0.175 0 0 1 5.796,7.042 0.175,0.175 0 0 1 5.953,6.939 Z M 5.935,7.857 A 0.13,0.13 0 0 1 5.983,7.867 0.115,0.115 0 0 1 6.048,8.024 0.121,0.121 0 0 1 5.891,8.088 0.115,0.115 0 0 1 5.827,7.932 0.115,0.115 0 0 1 5.935,7.857 Z"
     id="path2"
     inkscape:connector-curvature="0"
     style="fill:#bde6fb;fill-opacity:1" />
</svg>
