<?xml version="1.0" encoding="UTF-8" standalone="no"?>
<svg
   width="47.546455"
   height="47.546455"
   viewBox="0 0 12.58 12.58"
   version="1.1"
   id="svg4"
   sodipodi:docname="kdevelop.svg"
   inkscape:version="0.92.4 (5da689c313, 2019-01-14)"
   xmlns:inkscape="http://www.inkscape.org/namespaces/inkscape"
   xmlns:sodipodi="http://sodipodi.sourceforge.net/DTD/sodipodi-0.dtd"
   xmlns="http://www.w3.org/2000/svg"
   xmlns:svg="http://www.w3.org/2000/svg"
   xmlns:rdf="http://www.w3.org/1999/02/22-rdf-syntax-ns#"
   xmlns:cc="http://creativecommons.org/ns#"
   xmlns:dc="http://purl.org/dc/elements/1.1/">
  <metadata
     id="metadata10">
    <rdf:RDF>
      <cc:Work
         rdf:about="">
        <dc:format>image/svg+xml</dc:format>
        <dc:type
           rdf:resource="http://purl.org/dc/dcmitype/StillImage" />
        <dc:title />
      </cc:Work>
    </rdf:RDF>
  </metadata>
  <defs
     id="defs8" />
  <sodipodi:namedview
     pagecolor="#ffffff"
     bordercolor="#666666"
     borderopacity="1"
     objecttolerance="10"
     gridtolerance="10"
     guidetolerance="10"
     inkscape:pageopacity="0"
     inkscape:pageshadow="2"
     inkscape:window-width="1112"
     inkscape:window-height="480"
     id="namedview6"
     showgrid="false"
     inkscape:zoom="4.9166667"
     inkscape:cx="2.1355932"
     inkscape:cy="24"
     inkscape:window-x="0"
     inkscape:window-y="25"
     inkscape:window-maximized="0"
     inkscape:current-layer="svg4"
     inkscape:showpageshadow="0"
     inkscape:pagecheckerboard="0"
     inkscape:deskcolor="#d1d1d1" />
  <path
     d="m 6.29,0 a 6.29,6.29 0 0 0 0,12.58 A 6.29,6.29 0 0 0 6.29,0 Z M 6.27,0.93 a 5.417,5.417 0 0 1 5.41,5.41 5.4,5.4 0 0 1 -5.4,5.41 5.4,5.4 0 0 1 -5.41,-5.4 5.4,5.4 0 0 1 5.4,-5.42 z m 0.035,0.84 c -0.141,0 -0.282,0.004 -0.42,0.019 L 5.624,3.135 A 3.22,3.22 0 0 0 5.001,3.336 L 4.017,2.392 A 4.466,4.466 0 0 0 3.333,2.915 L 3.916,4.141 A 3.25,3.25 0 0 0 3.535,4.663 L 2.19,4.481 A 4.44,4.44 0 0 0 1.929,5.304 l 1.184,0.644 a 3.101,3.101 0 0 0 -0.02,0.32 c 0,0.111 0.009,0.214 0.02,0.322 L 1.929,7.232 c 0.062,0.286 0.145,0.56 0.26,0.824 L 3.535,7.874 c 0.11,0.187 0.238,0.363 0.381,0.522 L 3.333,9.622 c 0.216,0.192 0.434,0.374 0.684,0.522 L 5.001,9.2 c 0.197,0.088 0.406,0.154 0.623,0.201 l 0.26,1.346 a 4.574,4.574 0 0 0 0.843,0 L 6.988,9.401 C 7.203,9.353 7.413,9.287 7.61,9.2 l 0.985,0.944 C 8.844,9.996 9.063,9.814 9.278,9.622 L 8.695,8.396 C 8.838,8.238 8.968,8.061 9.077,7.874 l 1.345,0.182 A 4.44,4.44 0 0 0 10.684,7.232 L 9.498,6.59 C 9.51,6.483 9.518,6.38 9.518,6.27 9.518,6.16 9.509,6.056 9.498,5.948 L 10.684,5.305 A 4.44,4.44 0 0 0 10.422,4.482 L 9.077,4.664 A 3.25,3.25 0 0 0 8.696,4.141 L 9.279,2.916 A 4.465,4.465 0 0 0 8.595,2.393 L 7.61,3.338 A 3.223,3.223 0 0 0 6.988,3.136 L 6.726,1.79 A 4.574,4.574 0 0 0 6.305,1.772 Z M 5.595,4.34 V 6.103 L 6.829,4.34 7.887,4.692 6.477,6.28 7.877,7.867 6.829,8.22 5.594,6.457 V 8.044 L 4.712,8.182 V 4.428 L 5.594,4.34 Z"
     id="path2"
     inkscape:connector-curvature="0"
     style="fill:#bde6fb;fill-opacity:1" />
</svg>
