<?xml version="1.0" encoding="UTF-8" standalone="no"?>
<svg
   width="47.546455"
   height="47.546455"
   viewBox="0 0 12.58 12.58"
   version="1.1"
   id="svg18"
   sodipodi:docname="kdots.svg"
   inkscape:version="0.92.4 (5da689c313, 2019-01-14)"
   xmlns:inkscape="http://www.inkscape.org/namespaces/inkscape"
   xmlns:sodipodi="http://sodipodi.sourceforge.net/DTD/sodipodi-0.dtd"
   xmlns="http://www.w3.org/2000/svg"
   xmlns:svg="http://www.w3.org/2000/svg"
   xmlns:rdf="http://www.w3.org/1999/02/22-rdf-syntax-ns#"
   xmlns:cc="http://creativecommons.org/ns#"
   xmlns:dc="http://purl.org/dc/elements/1.1/">
  <metadata
     id="metadata22">
    <rdf:RDF>
      <cc:Work
         rdf:about="">
        <dc:format>image/svg+xml</dc:format>
        <dc:type
           rdf:resource="http://purl.org/dc/dcmitype/StillImage" />
        <dc:title />
      </cc:Work>
    </rdf:RDF>
  </metadata>
  <sodipodi:namedview
     pagecolor="#ffffff"
     bordercolor="#666666"
     borderopacity="1"
     objecttolerance="10"
     gridtolerance="10"
     guidetolerance="10"
     inkscape:pageopacity="0"
     inkscape:pageshadow="2"
     inkscape:window-width="862"
     inkscape:window-height="480"
     id="namedview20"
     showgrid="false"
     inkscape:zoom="4.9166667"
     inkscape:cx="24"
     inkscape:cy="24"
     inkscape:window-x="0"
     inkscape:window-y="25"
     inkscape:window-maximized="0"
     inkscape:current-layer="svg18"
     inkscape:showpageshadow="0"
     inkscape:pagecheckerboard="0"
     inkscape:deskcolor="#d1d1d1" />
  <defs
     id="defs12" />
  <path
     d="M 6.29,9.9999768e-4 A 6.29,6.29 0 0 0 0,6.291 6.29,6.29 0 0 0 6.29,12.58 6.29,6.29 0 0 0 12.58,6.29 6.29,6.29 0 0 0 6.29,0 Z M 6.272,0.938 A 5.407,5.407 0 0 1 11.679,6.345 5.407,5.407 0 0 1 6.272,11.752 5.407,5.407 0 0 1 0.86600007,6.345 5.407,5.407 0 0 1 6.272,0.939 Z M 7.2,2.839 A 0.676,0.676 0 0 0 6.525,3.515 0.676,0.676 0 0 0 6.703,3.972 l -1.17,1.17 A 0.676,0.676 0 0 0 5.077,4.963 0.676,0.676 0 0 0 4.401,5.639 0.676,0.676 0 0 0 5.077,6.315 0.676,0.676 0 0 0 5.363,6.251 L 6.59,7.477 A 0.676,0.676 0 0 0 6.525,7.763 0.676,0.676 0 0 0 7.2,8.439 0.676,0.676 0 0 0 7.876,7.763 0.676,0.676 0 0 0 7.78,7.416 L 8.9759996,6.218 a 0.676,0.676 0 0 0 0.347,0.097 A 0.676,0.676 0 0 0 9.999,5.639 0.676,0.676 0 0 0 9.4190003,4.971 V 4.183 A 0.676,0.676 0 0 0 9.999,3.515 0.676,0.676 0 0 0 9.3229996,2.839 0.676,0.676 0 0 0 8.656,3.419 H 7.868 A 0.676,0.676 0 0 0 7.199,2.839 Z M 7.869,3.611 H 8.657 A 0.676,0.676 0 0 0 9.2279996,4.183 V 4.971 A 0.676,0.676 0 0 0 8.648,5.639 0.676,0.676 0 0 0 8.828,6.096 l -1.17,1.17 A 0.676,0.676 0 0 0 7.2,7.087 0.676,0.676 0 0 0 6.698,7.312 L 5.528,6.142 A 0.676,0.676 0 0 0 5.752,5.639 0.676,0.676 0 0 0 5.656,5.292 L 6.854,4.094 A 0.676,0.676 0 0 0 7.2,4.191 0.676,0.676 0 0 0 7.869,3.611 Z"
     id="path14"
     inkscape:connector-curvature="0"
     style="fill:#bde6fb;fill-opacity:1" />
  <path
     d="M 2.856,3.419 V 9.983 H 9.421 V 3.419 Z M 3.05,3.611 H 4.98 V 5.543 H 3.05 Z m 2.123,0 h 1.931 v 1.36 A 0.676,0.676 0 0 0 6.533,5.543 h -1.36 z m 2.124,0 H 9.228 V 5.543 H 7.868 A 0.676,0.676 0 0 0 7.297,4.971 Z M 3.05,5.735 h 1.93 v 1.36 A 0.676,0.676 0 0 0 4.409,7.667 H 3.049 V 5.735 Z m 2.123,0 h 1.36 a 0.676,0.676 0 0 0 0.571,0.572 v 1.36 H 5.744 A 0.676,0.676 0 0 0 5.174,7.095 v -1.36 z m 2.696,0 h 1.307 c 0.029,0 0.052,0.024 0.052,0.052 V 7.615 A 0.052,0.052 0 0 1 9.176,7.667 H 7.349 A 0.052,0.052 0 0 1 7.297,7.615 V 6.307 A 0.676,0.676 0 0 0 7.869,5.735 Z m -4.82,2.124 h 1.36 A 0.676,0.676 0 0 0 4.98,8.431 V 9.789 H 3.05 v -1.93 z m 2.696,0 h 1.36 v 1.93 H 5.172 V 8.432 A 0.676,0.676 0 0 0 5.746,7.859 Z m 1.552,0 h 1.931 v 1.93 H 7.297 Z"
     id="path16"
     inkscape:connector-curvature="0"
     style="opacity:0.75;fill:#aee6bb;fill-opacity:1" />
</svg>
