<?xml version="1.0" encoding="UTF-8" standalone="no"?>
<svg
   width="48"
   height="48"
   viewBox="0 0 12.7 12.7"
   version="1.1"
   id="svg4"
   sodipodi:docname="keepassxc-dark.svg"
   inkscape:version="0.92.5 (2060ec1f9f, 2020-04-08)"
   xmlns:inkscape="http://www.inkscape.org/namespaces/inkscape"
   xmlns:sodipodi="http://sodipodi.sourceforge.net/DTD/sodipodi-0.dtd"
   xmlns="http://www.w3.org/2000/svg"
   xmlns:svg="http://www.w3.org/2000/svg">
  <sodipodi:namedview
     id="namedview1"
     pagecolor="#505050"
     bordercolor="#eeeeee"
     borderopacity="1"
     inkscape:showpageshadow="0"
     inkscape:pageopacity="0"
     inkscape:pagecheckerboard="0"
     inkscape:deskcolor="#d1d1d1" />
  <defs
     id="defs8">
    <style
       id="current-color-scheme"
       type="text/css">&#10;      .ColorScheme-Highlight {&#10;        color:#1e3f5a;&#10;      }&#10;  </style>
  </defs>
  <path
     class="ColorScheme-Highlight"
     style="fill:#bde6fb;fill-opacity:1;stroke-width:0.264583"
     d="M 6.3499999,0 C 2.8429918,0 0,2.8429918 0,6.3499999 0,9.857008 2.8429918,12.7 6.3499999,12.7 9.857008,12.7 12.7,9.857008 12.7,6.3499999 12.7,2.8429918 9.857008,0 6.3499999,0 Z m 0,0.79374999 c 3.0686322,0 5.5562501,2.48761781 5.5562501,5.55624991 0,3.0686322 -2.4876179,5.5562501 -5.5562501,5.5562501 -3.0686321,0 -5.55624991,-2.4876179 -5.55624991,-5.5562501 0,-3.0686321 2.48761781,-5.55624991 5.55624991,-5.55624991 z m 0,0.79375001 A 4.7625013,4.7625013 0 0 0 1.5875,6.3499999 4.7625013,4.7625013 0 0 0 6.3499999,11.1125 4.7625013,4.7625013 0 0 0 11.1125,6.3499999 4.7625013,4.7625013 0 0 0 6.3499999,1.5875 Z m -1.5875,1.5875 c 1.0228773,0 1.8520834,0.829206 1.8520834,1.8520833 C 6.6142658,5.218477 6.5842808,5.4086648 6.5256997,5.590873 L 9.7895832,8.2020832 V 9.2604166 H 8.7312499 v -0.79375 l -0.79375,0.1586465 V 7.9374999 H 7.4083332 V 7.4083332 L 6.6145833,7.5669798 6.0859333,7.1437499 H 6.0854166 L 5.53868,6.7060505 C 5.2955404,6.8192766 5.0307096,6.8783464 4.7624999,6.8791666 3.7396226,6.8791666 2.9104166,6.0499606 2.9104166,5.0270833 2.9104166,4.004206 3.7396226,3.175 4.7624999,3.175 Z m -0.396875,0.79375 c -0.3653133,0 -0.6614583,0.2961449 -0.6614583,0.6614583 0,0.3653134 0.296145,0.6614583 0.6614583,0.6614583 0.3653134,0 0.6614584,-0.2961449 0.6614584,-0.6614583 0,-0.3653134 -0.296145,-0.6614583 -0.6614584,-0.6614583 z"
     id="path817" />
</svg>
