<?xml version="1.0" encoding="UTF-8" standalone="no"?>
<svg
   width="48"
   height="48"
   viewBox="0 0 12.7 12.7"
   version="1.1"
   id="svg4"
   sodipodi:docname="keepassxc-locked.svg"
   inkscape:version="0.92.5 (2060ec1f9f, 2020-04-08)"
   xmlns:inkscape="http://www.inkscape.org/namespaces/inkscape"
   xmlns:sodipodi="http://sodipodi.sourceforge.net/DTD/sodipodi-0.dtd"
   xmlns="http://www.w3.org/2000/svg"
   xmlns:svg="http://www.w3.org/2000/svg">
  <sodipodi:namedview
     id="namedview1"
     pagecolor="#505050"
     bordercolor="#eeeeee"
     borderopacity="1"
     inkscape:showpageshadow="0"
     inkscape:pageopacity="0"
     inkscape:pagecheckerboard="0"
     inkscape:deskcolor="#d1d1d1" />
  <defs
     id="defs8">
    <style
       id="current-color-scheme"
       type="text/css">&#10;      .ColorScheme-Highlight {&#10;        color:#1e3f5a;&#10;      }&#10;  </style>
  </defs>
  <path
     class="ColorScheme-Highlight"
     style="fill:#bde6fb;fill-opacity:1;stroke-width:0.264583"
     d="M 6.3499999,0 C 2.8429918,0 0,2.8429918 0,6.3499999 0,9.857008 2.8429918,12.7 6.3499999,12.7 9.857008,12.7 12.7,9.857008 12.7,6.3499999 12.7,2.8429918 9.857008,0 6.3499999,0 Z m 0,0.79374999 c 3.0686322,0 5.5562501,2.48761781 5.5562501,5.55624991 0,3.0686322 -2.4876179,5.5562501 -5.5562501,5.5562501 -3.0686321,0 -5.55624991,-2.4876179 -5.55624991,-5.5562501 0,-3.0686321 2.48761781,-5.55624991 5.55624991,-5.55624991 z M 4.7624999,3.175 c -1.0228773,0 -1.8520833,0.829206 -1.8520833,1.8520833 0,1.0228773 0.829206,1.8520833 1.8520833,1.8520833 0.2682097,-8.202e-4 0.5330405,-0.05989 0.7761801,-0.1731161 l 0.5467366,0.4376994 h 5.292e-4 L 6.6145833,7.5669798 7.4083332,7.4083332 v 0.5291667 h 0.5291667 v 0.6878132 l 0.79375,-0.1586465 v 0.79375 H 9.7895832 V 8.2020832 L 6.5256997,5.590873 C 6.5842805,5.4086646 6.6142644,5.218477 6.6145833,5.0270833 6.6145833,4.004206 5.7853772,3.175 4.7624999,3.175 Z m -0.396875,0.79375 c 0.3653134,0 0.6614584,0.2961449 0.6614584,0.6614583 0,0.3653134 -0.296145,0.6614583 -0.6614584,0.6614583 -0.3653133,0 -0.6614583,-0.2961449 -0.6614583,-0.6614583 0,-0.3653134 0.296145,-0.6614583 0.6614583,-0.6614583 z M 4.4979166,7.1437499 A 1.0583332,1.0583332 0 0 0 3.4395833,8.2020832 V 8.4666666 H 3.175 V 10.583333 H 5.8208333 V 8.4666666 H 5.5562499 V 8.2020832 A 1.0583332,1.0583332 0 0 0 4.4979166,7.1437499 Z m 0,0.2645833 a 0.79374999,0.79374999 0 0 1 0.79375,0.79375 v 0.2645834 h -1.5875 V 8.2020832 a 0.79374999,0.79374999 0 0 1 0.79375,-0.79375 z"
     id="path817" />
</svg>
