<?xml version="1.0" encoding="UTF-8" standalone="no"?>
<svg
   width="47.542397"
   height="47.542404"
   version="1.1"
   viewBox="0 0 12.578926 12.578928"
   id="svg4"
   sodipodi:docname="keep.svg"
   inkscape:version="0.92.4 (5da689c313, 2019-01-14)"
   xmlns:inkscape="http://www.inkscape.org/namespaces/inkscape"
   xmlns:sodipodi="http://sodipodi.sourceforge.net/DTD/sodipodi-0.dtd"
   xmlns="http://www.w3.org/2000/svg"
   xmlns:svg="http://www.w3.org/2000/svg"
   xmlns:rdf="http://www.w3.org/1999/02/22-rdf-syntax-ns#"
   xmlns:cc="http://creativecommons.org/ns#"
   xmlns:dc="http://purl.org/dc/elements/1.1/">
  <metadata
     id="metadata10">
    <rdf:RDF>
      <cc:Work
         rdf:about="">
        <dc:format>image/svg+xml</dc:format>
        <dc:type
           rdf:resource="http://purl.org/dc/dcmitype/StillImage" />
        <dc:title />
      </cc:Work>
    </rdf:RDF>
  </metadata>
  <defs
     id="defs8" />
  <sodipodi:namedview
     pagecolor="#ffffff"
     bordercolor="#666666"
     borderopacity="1"
     objecttolerance="10"
     gridtolerance="10"
     guidetolerance="10"
     inkscape:pageopacity="0"
     inkscape:pageshadow="2"
     inkscape:window-width="1136"
     inkscape:window-height="480"
     id="namedview6"
     showgrid="false"
     inkscape:zoom="4.9166667"
     inkscape:cx="2.1355932"
     inkscape:cy="24"
     inkscape:window-x="0"
     inkscape:window-y="25"
     inkscape:window-maximized="0"
     inkscape:current-layer="svg4"
     inkscape:showpageshadow="0"
     inkscape:pagecheckerboard="0"
     inkscape:deskcolor="#d1d1d1" />
  <path
     d="M 6.2843042,0 C 2.815925,0.0057469 0.00582076,2.815925 0,6.2843042 c -4.6082631e-6,3.4723479 2.8119563,6.2888018 6.2843042,6.2946228 3.4765812,0 6.2946228,-2.8180416 6.2946228,-6.2946228 C 12.573169,2.8119563 9.7566521,0 6.2843042,0 Z m -0.010335,0.93947067 c 2.9741438,0.00572 5.3855261,2.41251983 5.3969031,5.38658423 0,2.9865791 -2.4208808,5.4074861 -5.4074863,5.4074861 -2.986579,0 -5.40722149,-2.4208806 -5.40722149,-5.4074861 0,-2.986579 2.43122569,-5.38658423 5.41780469,-5.38658423 z m 0.02067,1.10173763 c -1.6119272,0 -2.9228152,1.3108616 -2.9228152,2.9228152 0,1.099912 0.6112856,2.0575593 1.5115191,2.5558958 v 2.5848137 h 0.6051209 v 0.403061 H 6.8992045 V 10.104733 H 7.705856 V 7.5199193 C 8.6060895,7.0217151 9.2173751,6.0640149 9.2173751,4.9640235 c 0,-1.6119272 -1.3108616,-2.9228152 -2.9228152,-2.9228152 z m 0,0.5332874 c 1.3069194,0 2.3620909,1.0557007 2.3620909,2.36262 0,0.9705059 -0.5821289,1.8013136 -1.4169582,2.1652169 v 0.00827 0.01912 H 5.3494801 v -0.01912 -0.00827 C 4.5146508,6.7384293 3.9325219,5.9076481 3.9325219,4.9371157 c 0,-1.3069193 1.055198,-2.36262 2.3620909,-2.36262 z M 5.3494801,7.7803718 H 7.2397719 V 8.2444187 H 5.3494801 Z m 0,1.1146491 h 1.8902918 v 0.483176 H 5.3494801 Z"
     id="path2"
     inkscape:connector-curvature="0"
     style="fill:#bde6fb;fill-opacity:1;stroke-width:1.04387" />
</svg>
