<?xml version="1.0" encoding="UTF-8" standalone="no"?>
<svg
   width="48"
   height="48"
   viewBox="0 0 12.7 12.7"
   version="1.1"
   id="svg4"
   sodipodi:docname="keymon.svg"
   inkscape:version="0.92.5 (2060ec1f9f, 2020-04-08)"
   xmlns:inkscape="http://www.inkscape.org/namespaces/inkscape"
   xmlns:sodipodi="http://sodipodi.sourceforge.net/DTD/sodipodi-0.dtd"
   xmlns="http://www.w3.org/2000/svg"
   xmlns:svg="http://www.w3.org/2000/svg">
  <sodipodi:namedview
     id="namedview1"
     pagecolor="#505050"
     bordercolor="#eeeeee"
     borderopacity="1"
     inkscape:showpageshadow="0"
     inkscape:pageopacity="0"
     inkscape:pagecheckerboard="0"
     inkscape:deskcolor="#d1d1d1" />
  <defs
     id="defs8">
    <style
       id="current-color-scheme"
       type="text/css">&#10;      .ColorScheme-Highlight {&#10;        color:#1e3f5a;&#10;      }&#10;  </style>
  </defs>
  <path
     class="ColorScheme-Highlight"
     style="fill:#bde6fb;fill-opacity:1;stroke-width:0.264583"
     d="M 6.3499999,0 A 6.3499999,6.3499999 0 0 0 0,6.3499999 6.3499999,6.3499999 0 0 0 6.3499999,12.7 6.3499999,6.3499999 0 0 0 12.7,6.3499999 6.3499999,6.3499999 0 0 0 6.3499999,0 Z m 0,0.79374999 A 5.5562499,5.5562499 0 0 1 11.90625,6.3499999 5.5562499,5.5562499 0 0 1 6.3499999,11.90625 5.5562499,5.5562499 0 0 1 0.79374999,6.3499999 5.5562499,5.5562499 0 0 1 6.3499999,0.79374999 Z M 2.38125,3.4395833 c -0.1465792,0 -0.2645834,0.1180042 -0.2645834,0.2645833 v 5.2916666 c 0,0.1465792 0.1180042,0.2645834 0.2645834,0.2645834 h 7.9375 c 0.146579,0 0.264583,-0.1180042 0.264583,-0.2645834 V 3.7041666 c 0,-0.1465791 -0.118004,-0.2645833 -0.264583,-0.2645833 z M 2.6458333,4.4979166 H 3.7041666 V 5.5562499 H 2.6458333 Z m 1.5875,0 H 5.2916666 V 5.5562499 H 4.2333333 Z m 1.5875,0 H 6.8791666 V 5.5562499 H 5.8208333 Z m 1.5874999,0 H 8.4666666 V 5.5562499 H 7.4083332 Z m 1.5875,0 H 10.054167 V 5.5562499 H 8.9958332 Z m -6.3499999,1.5875 H 3.7041666 V 7.1437499 H 2.6458333 Z m 1.5875,0 H 5.2916666 V 7.1437499 H 4.2333333 Z m 1.5875,0 H 6.8791666 V 7.1437499 H 5.8208333 Z m 1.5874999,0 H 8.4666666 V 7.1437499 H 7.4083332 Z m 1.5875,0 H 10.054167 V 7.1437499 H 8.9958332 Z M 3.96875,7.9374999 H 8.7312499 V 8.4666666 H 3.96875 Z"
     id="path841" />
  <path
     style="fill:#ff6600;stroke-width:0.264583"
     d="M 2.6458333,4.4979166 V 5.5562499 H 3.7041666 V 4.4979166 Z m 3.175,1.5875 V 7.1437499 H 6.8791666 V 6.0854166 Z m 1.5874999,0 V 7.1437499 H 8.4666666 V 6.0854166 Z"
     id="path844" />
</svg>
