<?xml version="1.0" encoding="UTF-8" standalone="no"?>
<svg
   width="47.546875"
   height="47.546875"
   viewBox="0 0 12.580111 12.580111"
   version="1.1"
   id="svg8"
   sodipodi:docname="kgoldrunner.svg"
   inkscape:version="0.92.4 (5da689c313, 2019-01-14)"
   xmlns:inkscape="http://www.inkscape.org/namespaces/inkscape"
   xmlns:sodipodi="http://sodipodi.sourceforge.net/DTD/sodipodi-0.dtd"
   xmlns="http://www.w3.org/2000/svg"
   xmlns:svg="http://www.w3.org/2000/svg"
   xmlns:rdf="http://www.w3.org/1999/02/22-rdf-syntax-ns#"
   xmlns:cc="http://creativecommons.org/ns#"
   xmlns:dc="http://purl.org/dc/elements/1.1/">
  <metadata
     id="metadata14">
    <rdf:RDF>
      <cc:Work
         rdf:about="">
        <dc:format>image/svg+xml</dc:format>
        <dc:type
           rdf:resource="http://purl.org/dc/dcmitype/StillImage" />
        <dc:title />
      </cc:Work>
    </rdf:RDF>
  </metadata>
  <defs
     id="defs12" />
  <sodipodi:namedview
     pagecolor="#ffffff"
     bordercolor="#666666"
     borderopacity="1"
     objecttolerance="10"
     gridtolerance="10"
     guidetolerance="10"
     inkscape:pageopacity="0"
     inkscape:pageshadow="2"
     inkscape:window-width="1366"
     inkscape:window-height="717"
     id="namedview10"
     showgrid="false"
     inkscape:zoom="4.9166667"
     inkscape:cx="2.1355932"
     inkscape:cy="24"
     inkscape:window-x="0"
     inkscape:window-y="25"
     inkscape:window-maximized="1"
     inkscape:current-layer="svg8"
     inkscape:showpageshadow="0"
     inkscape:pagecheckerboard="0"
     inkscape:deskcolor="#d1d1d1" />
  <path
     style="fill:#bde6fb;fill-opacity:1;stroke-width:1"
     d="M 6.2900551,0 V 0.0010335 A 6.2899998,6.2899998 0 0 0 0,6.2910888 6.2899998,6.2899998 0 0 0 6.2900551,12.58011 6.2899998,6.2899998 0 0 0 12.580111,6.2900554 6.2899998,6.2899998 0 0 0 6.2900551,0 Z m -0.01757,0.93844399 A 5.4070001,5.4070001 0 0 1 11.679391,6.3453491 5.4070001,5.4070001 0 0 1 6.2724852,11.752254 5.4070001,5.4070001 0 0 1 0.866097,6.3453491 5.4070001,5.4070001 0 0 1 6.2724852,0.93896079 Z M 2.960026,2.7590046 V 9.5580728 H 3.5263997 V 8.4242919 H 4.6591471 V 9.5570393 H 5.2260375 V 2.7590046 H 4.6591471 V 3.326412 H 3.5263997 V 2.7590046 Z M 8.0584227,2.9150675 7.8842732,3.3693033 7.4290038,3.2261598 7.6661986,3.6493896 7.2744914,3.9243081 7.74423,3.9982055 7.7090902,4.4834473 8.0584227,4.1532349 8.4072388,4.4839641 8.3731321,3.9982055 8.8433877,3.9243081 8.4501301,3.6493896 8.6873248,3.2261598 8.233089,3.3693033 Z M 3.5263997,3.8933024 H 4.6591471 V 5.5934569 H 3.5263997 Z M 5.5025065,5.8611409 V 6.7809813 H 7.3840453 V 6.3210611 H 6.4652384 V 5.8611409 Z m 2.8008627,0 V 6.3210611 H 9.2221761 V 6.7809813 H 11.060307 V 6.3210611 h -0.91984 V 5.8611409 H 8.3044027 Z M 3.5263997,6.1593139 H 4.6591471 V 7.8589517 H 3.5263997 Z"
     id="path2"
     inkscape:connector-curvature="0" />
  <path
     d="m 6.4652565,5.8592033 v 0.46 h 0.919 v 0.46 h 1.837 v -0.46 h -0.918 v -0.46 z m 3.6760005,0 v 0.46 h 0.919 v -0.46 z"
     id="path4"
     inkscape:connector-curvature="0"
     style="opacity:0.75;fill:#fffffb;fill-opacity:1" />
</svg>
