<?xml version="1.0" encoding="UTF-8" standalone="no"?>
<svg
   width="47.546486"
   height="47.546486"
   viewBox="0 0 12.580008 12.580008"
   version="1.1"
   id="svg4"
   sodipodi:docname="khangman.svg"
   inkscape:version="0.92.4 (5da689c313, 2019-01-14)"
   xmlns:inkscape="http://www.inkscape.org/namespaces/inkscape"
   xmlns:sodipodi="http://sodipodi.sourceforge.net/DTD/sodipodi-0.dtd"
   xmlns="http://www.w3.org/2000/svg"
   xmlns:svg="http://www.w3.org/2000/svg"
   xmlns:rdf="http://www.w3.org/1999/02/22-rdf-syntax-ns#"
   xmlns:cc="http://creativecommons.org/ns#"
   xmlns:dc="http://purl.org/dc/elements/1.1/">
  <metadata
     id="metadata10">
    <rdf:RDF>
      <cc:Work
         rdf:about="">
        <dc:format>image/svg+xml</dc:format>
        <dc:type
           rdf:resource="http://purl.org/dc/dcmitype/StillImage" />
        <dc:title />
      </cc:Work>
    </rdf:RDF>
  </metadata>
  <defs
     id="defs8" />
  <sodipodi:namedview
     pagecolor="#ffffff"
     bordercolor="#666666"
     borderopacity="1"
     objecttolerance="10"
     gridtolerance="10"
     guidetolerance="10"
     inkscape:pageopacity="0"
     inkscape:pageshadow="2"
     inkscape:window-width="1087"
     inkscape:window-height="480"
     id="namedview6"
     showgrid="false"
     inkscape:zoom="4.9166667"
     inkscape:cx="2.1355932"
     inkscape:cy="24"
     inkscape:window-x="0"
     inkscape:window-y="25"
     inkscape:window-maximized="0"
     inkscape:current-layer="svg4"
     inkscape:showpageshadow="0"
     inkscape:pagecheckerboard="0"
     inkscape:deskcolor="#d1d1d1" />
  <path
     d="M 6.2900079,0 A 6.29,6.29 0 0 0 7.9490244e-6,6.3 6.29,6.29 0 0 0 6.3000079,12.58 6.29,6.29 0 0 0 12.580008,6.29 6.29,6.29 0 0 0 6.2900079,0 Z m -0.37,0.94 v 0.49 l 0.38,0.19 0.38,0.19 V 0.96 A 5.4,5.4 0 0 1 11.680008,6.34 5.4,5.4 0 0 1 6.2800079,11.75 5.4,5.4 0 0 1 0.87000795,6.35 5.4,5.4 0 0 1 5.9200079,0.95 Z m -0.39,0.63 -0.1,0.01 a 0.4,0.4 0 0 0 -0.27,0.27 0.45,0.45 0 0 0 0,0.2 0.4,0.4 0 0 0 0.1,0.17 l 0.04,0.04 0.83,0.42 0.87,0.43 c 0.17,0.06 0.37,-0.03 0.45,-0.2 a 0.38,0.38 0 0 0 -0.09,-0.45 49.73,49.73 0 0 0 -1.73,-0.87 0.4,0.4 0 0 0 -0.1,-0.02 z m -0.03,1.1 -0.1,0.02 a 0.35,0.35 0 0 0 -0.15,0.1 0.35,0.35 0 0 0 -0.1,0.17 0.37,0.37 0 0 0 0.02,0.26 c 0.03,0.06 0.07,0.1 0.12,0.14 l 1.71,0.86 a 0.5,0.5 0 0 0 0.2,0 0.46,0.46 0 0 0 0.15,-0.08 c 0.05,-0.03 0.1,-0.1 0.12,-0.15 a 0.4,0.4 0 0 0 -0.03,-0.33 0.44,0.44 0 0 0 -0.16,-0.15 274.24,274.24 0 0 1 -1.67,-0.82 0.43,0.43 0 0 0 -0.11,-0.01 z m 0.04,1.08 h -0.12 a 0.39,0.39 0 0 0 -0.12,0.7 5.97,5.97 0 0 0 0.55,0.27 l -0.1,0.2 c -0.1,0.17 -0.22,0.32 -0.68,0.88 -0.6,0.72 -0.8,1 -1.01,1.34 a 2.92,2.92 0 0 0 -0.39,0.96 2.18,2.18 0 0 0 1.47,2.52 c 0.5,0.19 1.13,0.24 1.72,0.16 a 2.6,2.6 0 0 0 1.47,-0.66 c 0.37,-0.36 0.58,-0.82 0.63,-1.38 V 8.33 c -0.03,-0.4 -0.17,-0.8 -0.43,-1.23 a 8.16,8.16 0 0 0 -0.78,-1.05 l -0.48,-0.6 -0.14,-0.17 h 0.03 a 0.38,0.38 0 0 0 0.18,-0.1 0.38,0.38 0 0 0 0,-0.54 l -0.05,-0.06 -0.8,-0.4 -0.84,-0.41 a 0.49,0.49 0 0 0 -0.11,-0.02 z m 0.76,1.74 V 5.5 l 0.07,0.08 c 0.1,0.14 0.22,0.29 0.53,0.65 l 0.4,0.49 c 0.54,0.67 0.83,1.2 0.9,1.64 v 0.4 c -0.05,0.39 -0.19,0.65 -0.45,0.86 a 2,2 0 0 1 -0.91,0.38 c -0.54,0.1 -1.1,0.05 -1.56,-0.14 a 1.6,1.6 0 0 1 -0.53,-0.35 1,1 0 0 1 -0.21,-0.29 c -0.1,-0.2 -0.14,-0.4 -0.14,-0.67 0,-0.15 0,-0.2 0.04,-0.34 0.1,-0.36 0.33,-0.77 0.71,-1.29 l 0.48,-0.58 0.35,-0.42 0.3,-0.41 z"
     id="path2"
     inkscape:connector-curvature="0"
     style="fill:#bde6fb;fill-opacity:1" />
</svg>
