<?xml version="1.0" encoding="UTF-8" standalone="no"?>
<svg
   width="47.546486"
   height="47.546486"
   viewBox="0 0 12.580008 12.580008"
   version="1.1"
   id="svg16"
   sodipodi:docname="kile.svg"
   inkscape:version="0.92.4 (5da689c313, 2019-01-14)"
   xmlns:inkscape="http://www.inkscape.org/namespaces/inkscape"
   xmlns:sodipodi="http://sodipodi.sourceforge.net/DTD/sodipodi-0.dtd"
   xmlns="http://www.w3.org/2000/svg"
   xmlns:svg="http://www.w3.org/2000/svg"
   xmlns:rdf="http://www.w3.org/1999/02/22-rdf-syntax-ns#"
   xmlns:cc="http://creativecommons.org/ns#"
   xmlns:dc="http://purl.org/dc/elements/1.1/">
  <metadata
     id="metadata20">
    <rdf:RDF>
      <cc:Work
         rdf:about="">
        <dc:format>image/svg+xml</dc:format>
        <dc:type
           rdf:resource="http://purl.org/dc/dcmitype/StillImage" />
        <dc:title />
      </cc:Work>
    </rdf:RDF>
  </metadata>
  <sodipodi:namedview
     pagecolor="#ffffff"
     bordercolor="#666666"
     borderopacity="1"
     objecttolerance="10"
     gridtolerance="10"
     guidetolerance="10"
     inkscape:pageopacity="0"
     inkscape:pageshadow="2"
     inkscape:window-width="1087"
     inkscape:window-height="480"
     id="namedview18"
     showgrid="false"
     inkscape:zoom="4.9166667"
     inkscape:cx="2.1355932"
     inkscape:cy="24"
     inkscape:window-x="0"
     inkscape:window-y="25"
     inkscape:window-maximized="0"
     inkscape:current-layer="svg16"
     inkscape:showpageshadow="0"
     inkscape:pagecheckerboard="0"
     inkscape:deskcolor="#d1d1d1" />
  <defs
     id="defs12" />
  <path
     d="M 6.2900079,0 A 6.29,6.29 0 0 0 7.9490244e-6,6.3 6.29,6.29 0 0 0 6.3000079,12.58 6.29,6.29 0 0 0 12.580008,6.29 6.29,6.29 0 0 0 6.2900079,0 Z m -0.01,0.94 A 5.4,5.4 0 0 1 11.680008,6.34 5.4,5.4 0 0 1 6.2800079,11.75 5.4,5.4 0 0 1 0.87000795,6.35 5.4,5.4 0 0 1 6.2700079,0.93 Z m -4.04,2.57 v 5.54 h 1.16 V 6.87 l 1.77,2.18 h 1.45 l -2.38,-2.92 2.16,-2.62 h -1.35 l -1.65,2.02 V 3.51 Z m 6.75,0.08 c -0.36,0 -0.64,0.11 -0.85,0.32 -0.2,0.2 -0.31,0.5 -0.31,0.85 0,0.4 0.11,0.72 0.35,0.95 0.23,0.24 0.54,0.36 0.93,0.36 0.38,0 0.69,-0.13 0.9100001,-0.38 0.22,-0.25 0.34,-0.58 0.34,-1 a 2.64,2.64 0 0 0 -0.2,-1 H 9.8000079 a 2.3,2.3 0 0 1 0.2200001,0.97 1,1 0 0 1 -0.2100001,0.68 0.88,0.88 0 0 1 -0.63,0.27 V 3.59 h -0.2 z m -0.12,0.44 v 1.56 a 0.74,0.74 0 0 1 -0.52,-0.25 0.9,0.9 0 0 1 -0.19,-0.59 0.7,0.7 0 0 1 0.2,-0.51 c 0.13,-0.13 0.3,-0.2 0.51,-0.2 z m -1.92,2.97 V 7.43 H 10.290008 V 7 Z m 0,1.55 v 0.44 h 0.5 V 8.55 Z m 0.93,0 V 8.99 H 10.290008 V 8.55 H 7.8900079 Z"
     id="path14"
     inkscape:connector-curvature="0"
     style="fill:#bde6fb;fill-opacity:1" />
</svg>
