<?xml version="1.0" encoding="UTF-8" standalone="no"?>
<svg
   width="47.546455"
   height="47.546455"
   viewBox="0 0 12.58 12.58"
   version="1.1"
   id="svg4"
   sodipodi:docname="kimagemapeditor.svg"
   inkscape:version="0.92.4 (5da689c313, 2019-01-14)"
   xmlns:inkscape="http://www.inkscape.org/namespaces/inkscape"
   xmlns:sodipodi="http://sodipodi.sourceforge.net/DTD/sodipodi-0.dtd"
   xmlns="http://www.w3.org/2000/svg"
   xmlns:svg="http://www.w3.org/2000/svg"
   xmlns:rdf="http://www.w3.org/1999/02/22-rdf-syntax-ns#"
   xmlns:cc="http://creativecommons.org/ns#"
   xmlns:dc="http://purl.org/dc/elements/1.1/">
  <metadata
     id="metadata10">
    <rdf:RDF>
      <cc:Work
         rdf:about="">
        <dc:format>image/svg+xml</dc:format>
        <dc:type
           rdf:resource="http://purl.org/dc/dcmitype/StillImage" />
        <dc:title />
      </cc:Work>
    </rdf:RDF>
  </metadata>
  <defs
     id="defs8" />
  <sodipodi:namedview
     pagecolor="#ffffff"
     bordercolor="#666666"
     borderopacity="1"
     objecttolerance="10"
     gridtolerance="10"
     guidetolerance="10"
     inkscape:pageopacity="0"
     inkscape:pageshadow="2"
     inkscape:window-width="862"
     inkscape:window-height="480"
     id="namedview6"
     showgrid="false"
     inkscape:zoom="4.9166667"
     inkscape:cx="2.1355932"
     inkscape:cy="24"
     inkscape:window-x="0"
     inkscape:window-y="25"
     inkscape:window-maximized="0"
     inkscape:current-layer="svg4"
     inkscape:showpageshadow="0"
     inkscape:pagecheckerboard="0"
     inkscape:deskcolor="#d1d1d1" />
  <path
     d="M 6.29,9.9999768e-4 A 6.29,6.29 0 0 0 0,6.291 6.29,6.29 0 0 0 6.29,12.58 6.29,6.29 0 0 0 12.58,6.29 6.29,6.29 0 0 0 6.29,0 Z M 6.272,0.938 A 5.407,5.407 0 0 1 7.488,1.082 C 7.579,1.157 7.63,1.242 7.586,1.348 7.126,1.3 7.833,1.49 7.871,1.56 7.873,1.909 7.346,1.743 7.121,1.879 7.415,1.772 7.816,2.321 7.436,2.439 7.76,2.989 7.028,2.776 7.149,2.339 6.675,2.568 7.516,2.947 7.149,3.028 7.156,2.984 7.151,2.961 7.139,2.958 7.106,2.948 7.035,3.068 7.142,3.03 7.103,3.038 7.116,3.059 7.046,3.06 6.876,3.424 6.298,2.601 5.945,3.11 5.73,3.375 4.995,3.777 5.535,4.06 5.338,4.382 4.75,4.798 4.912,4.133 5.093,3.413 4.358,4.071 4.309,4.328 4.457,4.448 4.835,4.051 4.521,4.448 4.241,4.693 5.172,4.622 4.54,4.667 4.409,4.837 4.61,5.417 4.195,5.117 3.468,5.217 4.207,6.069 3.517,6.239 A 1.625,1.625 0 0 0 2.636,7.684 c 0.043,0.699 0.738,1.31 1.44,1.178 0.422,0.097 0.902,0.335 0.723,0.83 0.696,0.264 0.085,1.076 0.56,1.461 0.335,0.795 1.53,0.63 1.917,-0.034 0.32,-0.393 0.827,-0.6 0.557,-1.2 C 8.051,9.324 8.871,8.951 8.846,8.255 8.52,8.198 8.111,8.66 7.909,8.152 7.875,8.115 7.819,8.03 7.773,7.976 A 0.878,0.878 0 0 1 7.618,8.258 0.428,0.428 0 0 1 7.336,8.405 H 5.826 C 5.652,8.075 5.455,7.757 5.272,7.43 A 6.064,6.064 0 0 1 4.798,6.415 C 4.745,6.187 4.763,6.063 4.82,6.007 4.876,5.951 4.973,5.963 5.078,6.006 5.287,6.09 5.53,6.298 5.558,6.33 5.606,5.681 5.54,5.067 5.567,4.477 5.573,4.329 5.617,4.227 5.676,4.168 A 0.218,0.218 0 0 1 5.888,4.109 0.34,0.34 0 0 1 6.089,4.269 0.616,0.616 0 0 1 6.168,4.621 L 6.205,5.585 C 6.248,5.479 6.309,5.423 6.375,5.403 a 0.292,0.292 0 0 1 0.21,0.025 C 6.724,5.493 6.846,5.632 6.872,5.715 A 0.38,0.38 0 0 1 7.106,5.6 0.306,0.306 0 0 1 7.301,5.659 0.464,0.464 0 0 1 7.493,5.959 C 7.658,5.956 7.767,5.999 7.838,6.076 7.908,6.152 7.94,6.26 7.95,6.385 7.972,6.635 7.91,6.955 7.906,7.223 A 3.574,3.574 0 0 1 7.818,7.758 c 0.127,0.187 0.254,0.374 0.406,0.54 0.488,-0.279 1,-0.66 1.161,-1.214 -0.214,-0.25 -0.468,-0.332 0,-0.404 0.683,-0.347 1.11,0.469 1.393,0.873 0.617,0.174 -0.124,-0.706 0.17,-1.05 -0.035,-0.48 0.365,-0.776 0.556,-0.535 0.093,0.14 0.142,0.284 0.172,0.429 A 5.407,5.407 0 0 1 6.271,11.752 5.407,5.407 0 0 1 0.866,6.345 5.407,5.407 0 0 1 2.024,3.011 C 2.095,3.026 2.155,3.073 2.19,3.176 2.406,3.265 2.458,2.472 2.657,2.982 2.583,3.096 2.235,3.279 2.497,3.357 2.815,2.922 3.259,2.557 3.481,2.107 3.987,1.629 2.873,2.192 2.911,2.112 A 5.407,5.407 0 0 1 3.778,1.552 C 3.85,1.562 3.888,1.613 3.85,1.734 4.666,1.649 3.41,1.847 3.636,2.217 3.965,2.125 4.506,1.906 4.689,1.5 4.309,1.544 4.293,1.51 4.697,1.434 4.924,1.486 4.831,1.689 5.187,1.673 4.896,1.794 4.219,2.233 3.794,2.482 3.476,2.751 3.648,3.053 4.008,2.761 4.648,2.746 5.297,2.615 5.693,2.056 5.758,1.774 5.448,1.742 5.483,1.485 A 0.199,0.199 0 0 0 5.418,1.425 C 5.424,1.425 5.432,1.422 5.442,1.41 5.412,1.373 5.4,1.403 5.407,1.419 A 0.46,0.46 0 0 0 5.341,1.389 0.387,0.387 0 0 0 5.415,1.36 C 5.363,1.303 5.299,1.345 5.29,1.373 4.946,1.277 4.362,1.357 4.949,1.246 5.158,1.199 5.426,1.056 5.262,1.038 a 5.407,5.407 0 0 1 1.01,-0.1 z m 2.351,9.345 C 8.573,10.276 8.485,10.32 8.347,10.443 8.192,10.511 7.785,11.2 8.219,11.058 8.495,10.987 8.802,10.309 8.623,10.283 Z m 0.44,0.301 c -0.036,0.005 0.02,0.068 0.02,0.001 -0.01,-0.001 -0.016,-0.003 -0.02,0 z"
     id="path2"
     inkscape:connector-curvature="0"
     style="fill:#bde6fb;fill-opacity:1" />
</svg>
