<?xml version="1.0" encoding="UTF-8" standalone="no"?>
<svg
   width="47.542679"
   height="47.538898"
   viewBox="0 0 12.579 12.578"
   version="1.1"
   id="svg4"
   sodipodi:docname="king-phisher-icon.svg"
   inkscape:version="0.92.5 (2060ec1f9f, 2020-04-08)"
   xmlns:inkscape="http://www.inkscape.org/namespaces/inkscape"
   xmlns:sodipodi="http://sodipodi.sourceforge.net/DTD/sodipodi-0.dtd"
   xmlns="http://www.w3.org/2000/svg"
   xmlns:svg="http://www.w3.org/2000/svg"
   xmlns:rdf="http://www.w3.org/1999/02/22-rdf-syntax-ns#"
   xmlns:cc="http://creativecommons.org/ns#"
   xmlns:dc="http://purl.org/dc/elements/1.1/">
  <metadata
     id="metadata10">
    <rdf:RDF>
      <cc:Work
         rdf:about="">
        <dc:format>image/svg+xml</dc:format>
        <dc:type
           rdf:resource="http://purl.org/dc/dcmitype/StillImage" />
        <dc:title />
      </cc:Work>
    </rdf:RDF>
  </metadata>
  <defs
     id="defs8" />
  <sodipodi:namedview
     pagecolor="#ffffff"
     bordercolor="#666666"
     borderopacity="1"
     objecttolerance="10"
     gridtolerance="10"
     guidetolerance="10"
     inkscape:pageopacity="0"
     inkscape:pageshadow="2"
     inkscape:window-width="1085"
     inkscape:window-height="480"
     id="namedview6"
     showgrid="false"
     inkscape:zoom="4.9166667"
     inkscape:cx="2.1355932"
     inkscape:cy="24"
     inkscape:window-x="0"
     inkscape:window-y="25"
     inkscape:window-maximized="0"
     inkscape:current-layer="svg4"
     inkscape:showpageshadow="0"
     inkscape:pagecheckerboard="0"
     inkscape:deskcolor="#d1d1d1" />
  <path
     d="M 6.289,0 A 6.29,6.29 0 0 0 1.971,1.728 c 0.085,0.026 0.1,0.02 0.192,0.05 0.239,0.079 0.52,0.19 0.794,0.296 a 5.407,5.407 0 0 1 3.314,-1.138 5.407,5.407 0 0 1 5.407,5.407 5.407,5.407 0 0 1 -0.915,3.006 c 0.129,0.308 0.26,0.612 0.377,0.935 A 6.29,6.29 0 0 0 12.579,6.289 6.29,6.29 0 0 0 6.289,0 Z M 1.859,2.052 3.262,3.377 C 7.092,4.504 9.194,6.792 10.718,9.468 8.696,3.639 2.805,2.219 1.86,2.052 Z M 1.526,2.194 A 6.29,6.29 0 0 0 0,6.289 6.29,6.29 0 0 0 6.289,12.578 6.29,6.29 0 0 0 11.102,10.327 C 10.948,10.066 10.764,9.824 10.602,9.569 A 5.407,5.407 0 0 1 6.271,11.75 5.407,5.407 0 0 1 0.864,6.343 5.407,5.407 0 0 1 2.18,2.812 Z m 2.36,1.938 1.66,1.88 a 1.5,1.5 0 0 0 0.83,2.746 C 7.063,8.757 7.661,8.288 7.828,7.622 8.08,7.892 8.313,8.182 8.519,8.494 7.725,6.477 5.977,5.176 3.886,4.132 Z m 1.793,2 c 0.295,0.12 0.575,0.259 0.84,0.418 A 0.375,0.375 0 0 1 6.509,6.578 0.375,0.375 0 0 1 6.493,6.612 0.375,0.375 0 0 1 6.473,6.644 0.375,0.375 0 0 1 6.451,6.674 0.375,0.375 0 0 1 6.425,6.701 0.375,0.375 0 0 1 6.397,6.726 0.375,0.375 0 0 1 6.367,6.747 0.375,0.375 0 0 1 6.334,6.767 0.375,0.375 0 0 1 6.3,6.781 0.375,0.375 0 0 1 6.264,6.793 0.375,0.375 0 0 1 6.228,6.802 0.375,0.375 0 0 1 6.191,6.806 a 0.375,0.375 0 0 1 -0.027,0 0.375,0.375 0 0 1 -0.037,0 A 0.375,0.375 0 0 1 6.09,6.8 0.375,0.375 0 0 1 6.054,6.79 0.375,0.375 0 0 1 6.018,6.777 0.375,0.375 0 0 1 5.985,6.761 0.375,0.375 0 0 1 5.961,6.746 0.746,0.746 0 0 0 5.774,7.239 0.746,0.746 0 0 0 6.519,7.986 0.746,0.746 0 0 0 7.266,7.239 0.746,0.746 0 0 0 7.245,7.067 c 0.15,0.124 0.292,0.257 0.43,0.395 h 0.001 l 10e-4,0.002 0.03,0.031 A 1.275,1.275 0 1 1 5.679,6.133 Z M 6.423,6.855 A 0.154,0.154 0 0 1 6.577,7.009 0.154,0.154 0 0 1 6.423,7.162 0.154,0.154 0 0 1 6.27,7.009 0.154,0.154 0 0 1 6.423,6.855 Z"
     id="path2"
     inkscape:connector-curvature="0"
     style="fill:#bde6fb;fill-opacity:1" />
</svg>
