<?xml version="1.0" encoding="UTF-8" standalone="no"?>
<svg
   width="47.546486"
   height="47.546486"
   viewBox="0 0 12.580008 12.580008"
   version="1.1"
   id="svg4"
   sodipodi:docname="kipi-dngconverter.svg"
   inkscape:version="0.92.4 (5da689c313, 2019-01-14)"
   xmlns:inkscape="http://www.inkscape.org/namespaces/inkscape"
   xmlns:sodipodi="http://sodipodi.sourceforge.net/DTD/sodipodi-0.dtd"
   xmlns="http://www.w3.org/2000/svg"
   xmlns:svg="http://www.w3.org/2000/svg"
   xmlns:rdf="http://www.w3.org/1999/02/22-rdf-syntax-ns#"
   xmlns:cc="http://creativecommons.org/ns#"
   xmlns:dc="http://purl.org/dc/elements/1.1/">
  <metadata
     id="metadata10">
    <rdf:RDF>
      <cc:Work
         rdf:about="">
        <dc:format>image/svg+xml</dc:format>
        <dc:type
           rdf:resource="http://purl.org/dc/dcmitype/StillImage" />
        <dc:title />
      </cc:Work>
    </rdf:RDF>
  </metadata>
  <defs
     id="defs8" />
  <sodipodi:namedview
     pagecolor="#ffffff"
     bordercolor="#666666"
     borderopacity="1"
     objecttolerance="10"
     gridtolerance="10"
     guidetolerance="10"
     inkscape:pageopacity="0"
     inkscape:pageshadow="2"
     inkscape:window-width="1087"
     inkscape:window-height="480"
     id="namedview6"
     showgrid="false"
     inkscape:zoom="4.9166667"
     inkscape:cx="2.1355932"
     inkscape:cy="24"
     inkscape:window-x="0"
     inkscape:window-y="25"
     inkscape:window-maximized="0"
     inkscape:current-layer="svg4"
     inkscape:showpageshadow="0"
     inkscape:pagecheckerboard="0"
     inkscape:deskcolor="#d1d1d1" />
  <path
     d="M 6.2900079,0 A 6.29,6.29 0 0 0 7.9473853e-6,6.3 6.29,6.29 0 0 0 6.3000079,12.58 6.29,6.29 0 0 0 12.580008,6.29 6.29,6.29 0 0 0 6.2900079,0 Z m -0.02,0.94 A 5.4,5.4 0 0 1 10.250008,2.69 H 2.2900079 a 5.4,5.4 0 0 1 3.98,-1.75 z m -4.35,2.2 h 8.7000001 a 5.4,5.4 0 0 1 1.06,3.2 5.4,5.4 0 0 1 -0.98,3.1 H 1.8500079 A 5.4,5.4 0 0 1 0.87000795,6.34 5.4,5.4 0 0 1 1.9200079,3.14 Z m 0.3,0.9 h -0.45 v 4.5 h 0.45 c 1.35,0 1.8,-0.9 1.8,-2.24 0,-1.36 -0.45,-2.26 -1.8,-2.26 z m 2.7,0 v 4.5 h 0.45 V 5.17 l 1.34,3.37 h 0.45 v -4.5 h -0.45 v 3.38 l -1.33,-3.33 -0.01,-0.05 z m 5.8400001,0 c -1.3500001,0 -2.7000001,0.45 -2.7000001,2.24 0,1.8 0.9,2.26 2.2500001,2.26 h 0.45 V 6.29 H 9.8600079 V 6.74 H 10.310008 V 8.09 C 8.9600079,8.09 8.5100079,7.64 8.5100079,6.3 c 0,-1.36 0.9,-1.8 2.2500001,-1.8 z M 2.2200079,4.49 c 1.35,0 1.35,1.35 1.35,1.8 0,0.45 0,1.8 -1.35,1.8 z m -0.02,5.4 h 8.1500001 a 5.4,5.4 0 0 1 -4.0800001,1.86 5.4,5.4 0 0 1 -4.07,-1.86 z"
     id="path2"
     inkscape:connector-curvature="0"
     style="fill:#bde6fb;fill-opacity:1" />
</svg>
