<?xml version="1.0" encoding="UTF-8" standalone="no"?>
<svg
   width="47.542679"
   height="47.546455"
   viewBox="0 0 12.579 12.58"
   version="1.1"
   id="svg4"
   sodipodi:docname="kismet.svg"
   inkscape:version="0.92.5 (2060ec1f9f, 2020-04-08)"
   xmlns:inkscape="http://www.inkscape.org/namespaces/inkscape"
   xmlns:sodipodi="http://sodipodi.sourceforge.net/DTD/sodipodi-0.dtd"
   xmlns="http://www.w3.org/2000/svg"
   xmlns:svg="http://www.w3.org/2000/svg"
   xmlns:rdf="http://www.w3.org/1999/02/22-rdf-syntax-ns#"
   xmlns:cc="http://creativecommons.org/ns#"
   xmlns:dc="http://purl.org/dc/elements/1.1/">
  <metadata
     id="metadata10">
    <rdf:RDF>
      <cc:Work
         rdf:about="">
        <dc:format>image/svg+xml</dc:format>
        <dc:type
           rdf:resource="http://purl.org/dc/dcmitype/StillImage" />
        <dc:title />
      </cc:Work>
    </rdf:RDF>
  </metadata>
  <defs
     id="defs8" />
  <sodipodi:namedview
     pagecolor="#ffffff"
     bordercolor="#666666"
     borderopacity="1"
     objecttolerance="10"
     gridtolerance="10"
     guidetolerance="10"
     inkscape:pageopacity="0"
     inkscape:pageshadow="2"
     inkscape:window-width="1085"
     inkscape:window-height="480"
     id="namedview6"
     showgrid="false"
     inkscape:zoom="4.9166667"
     inkscape:cx="2.1355932"
     inkscape:cy="24"
     inkscape:window-x="0"
     inkscape:window-y="25"
     inkscape:window-maximized="0"
     inkscape:current-layer="svg4"
     inkscape:showpageshadow="0"
     inkscape:pagecheckerboard="0"
     inkscape:deskcolor="#d1d1d1" />
  <path
     d="M 6.285,0 A 6.295,6.295 0 0 0 0,6.285 6.295,6.295 0 0 0 6.285,12.58 6.295,6.295 0 0 0 12.579,6.285 6.295,6.295 0 0 0 6.285,0 Z M 6.274,0.94 a 5.408,5.408 0 0 1 5.397,5.387 5.407,5.407 0 0 1 -10.814,0 C 0.857,3.34 3.287,0.94 6.274,0.94 Z m 0.05,1.157 A 4.483,4.483 0 0 0 5.414,2.165 C 4.704,2.317 3.916,2.694 3.407,3.129 L 3.217,3.296 3.52,3.629 c 0.166,0.18 0.303,0.352 0.303,0.382 0,0.024 0.162,-0.103 0.358,-0.29 0.592,-0.562 1.248,-0.812 2.115,-0.817 0.861,0 1.62,0.294 2.207,0.867 L 8.763,4.025 8.875,3.873 C 8.934,3.795 9.071,3.633 9.179,3.516 L 9.369,3.306 9.252,3.183 C 8.899,2.806 7.974,2.341 7.27,2.185 A 5.11,5.11 0 0 0 6.323,2.097 Z M 6.238,3.041 C 6.126,3.043 6.015,3.051 5.904,3.066 A 3.071,3.071 0 0 0 4.264,3.834 C 4.103,3.981 3.971,4.133 3.971,4.167 c 0,0.034 0.078,0.225 0.17,0.42 0.265,0.559 0.358,1.004 0.358,1.67 0.005,1.12 -0.333,1.973 -1.082,2.766 -0.23,0.24 -0.23,0.25 0.23,0.577 a 4.55,4.55 0 0 0 4.176,0.587 C 8.297,10.017 8.914,9.669 9.208,9.399 L 9.374,9.243 9.149,8.993 C 8.474,8.244 8.141,7.441 8.097,6.443 8.067,5.743 8.185,5.151 8.469,4.563 L 8.664,4.167 8.356,3.864 C 7.812,3.333 7.021,3.03 6.238,3.041 Z m 0.148,1.58 c 0.185,0.012 0.367,0.048 0.497,0.104 0.118,0.05 0.299,0.186 0.406,0.294 0.28,0.289 0.465,0.885 0.28,0.885 C 7.524,5.904 7.495,5.861 7.495,5.783 7.495,5.592 7.363,5.313 7.186,5.131 6.496,4.411 5.302,4.754 5.121,5.724 5.072,5.968 4.998,5.954 4.998,5.694 4.998,5.274 5.4,4.804 5.88,4.661 6.017,4.622 6.202,4.611 6.386,4.621 Z M 6.316,6.443 C 6.335,6.443 6.643,7.05 7,7.794 7.353,8.538 7.642,9.184 7.632,9.228 7.622,9.272 7.465,9.385 7.274,9.478 6.937,9.644 6.922,9.649 6.32,9.649 5.679,9.649 5.35,9.571 5.052,9.336 4.905,9.223 4.876,9.312 5.595,7.819 5.885,7.217 6.124,6.712 6.124,6.693 c 0,-0.054 0.152,-0.25 0.191,-0.25 z"
     id="path2"
     inkscape:connector-curvature="0"
     style="fill:#bde6fb;fill-opacity:1" />
</svg>
