<?xml version="1.0" encoding="UTF-8" standalone="no"?>
<svg
   width="47.546486"
   height="47.546486"
   viewBox="0 0 12.580008 12.580008"
   version="1.1"
   id="svg4"
   sodipodi:docname="kjumpingcube.svg"
   inkscape:version="0.92.4 (5da689c313, 2019-01-14)"
   xmlns:inkscape="http://www.inkscape.org/namespaces/inkscape"
   xmlns:sodipodi="http://sodipodi.sourceforge.net/DTD/sodipodi-0.dtd"
   xmlns="http://www.w3.org/2000/svg"
   xmlns:svg="http://www.w3.org/2000/svg"
   xmlns:rdf="http://www.w3.org/1999/02/22-rdf-syntax-ns#"
   xmlns:cc="http://creativecommons.org/ns#"
   xmlns:dc="http://purl.org/dc/elements/1.1/">
  <metadata
     id="metadata10">
    <rdf:RDF>
      <cc:Work
         rdf:about="">
        <dc:format>image/svg+xml</dc:format>
        <dc:type
           rdf:resource="http://purl.org/dc/dcmitype/StillImage" />
        <dc:title />
      </cc:Work>
    </rdf:RDF>
  </metadata>
  <defs
     id="defs8" />
  <sodipodi:namedview
     pagecolor="#ffffff"
     bordercolor="#666666"
     borderopacity="1"
     objecttolerance="10"
     gridtolerance="10"
     guidetolerance="10"
     inkscape:pageopacity="0"
     inkscape:pageshadow="2"
     inkscape:window-width="1087"
     inkscape:window-height="480"
     id="namedview6"
     showgrid="false"
     inkscape:zoom="4.9166667"
     inkscape:cx="2.1355932"
     inkscape:cy="24"
     inkscape:window-x="0"
     inkscape:window-y="25"
     inkscape:window-maximized="0"
     inkscape:current-layer="svg4"
     inkscape:showpageshadow="0"
     inkscape:pagecheckerboard="0"
     inkscape:deskcolor="#d1d1d1" />
  <path
     d="M 6.2900079,0 A 6.29,6.29 0 0 0 7.9490244e-6,6.3 6.29,6.29 0 0 0 6.3000079,12.58 6.29,6.29 0 0 0 12.580008,6.29 6.29,6.29 0 0 0 6.2900079,0 Z m -0.02,0.93 0.01,0.01 A 5.4,5.4 0 0 1 11.680008,6.34 5.4,5.4 0 0 1 6.2800079,11.75 5.4,5.4 0 0 1 0.87000795,6.35 5.4,5.4 0 0 1 6.2700079,0.93 Z m -0.8,2.39 a 0.85,0.85 0 0 0 -0.18,0.02 l -3.07,0.8 a 0.84,0.84 0 0 0 -0.6,1.03 l 0.8,3.07 c 0.12,0.45 0.57,0.72 1.02,0.6 l 1.92,-0.5 a 0.92,0.92 0 0 1 0,-0.31 l 0.14,-0.7 a 0.53,0.53 0 0 1 -0.1,-0.2 0.53,0.53 0 0 1 0.24,-0.58 l 0.39,-2.03 a 0.94,0.94 0 0 1 0.14,-0.35 c 0.04,-0.06 0.1,-0.1 0.16,-0.16 l -0.01,-0.08 a 0.84,0.84 0 0 0 -0.86,-0.62 z m 1.57,0.53 c -0.4,0 -0.74,0.28 -0.81,0.68 l -0.6,3.12 c -0.09,0.46 0.21,0.9 0.67,0.99 l 3.12,0.59 c 0.46,0.09 0.9000001,-0.21 0.9800001,-0.67 l 0.6,-3.12 a 0.84,0.84 0 0 0 -0.67,-0.98 L 7.2100079,3.86 a 0.85,0.85 0 0 0 -0.17,0 z m -1.8,0.17 a 0.53,0.53 0 0 1 0.55,0.4 0.53,0.53 0 0 1 -0.38,0.64 0.53,0.53 0 0 1 -0.65,-0.38 0.53,0.53 0 0 1 0.38,-0.65 0.53,0.53 0 0 1 0.1,-0.01 z m 2.07,0.52 a 0.53,0.53 0 0 1 0.1,0 0.53,0.53 0 0 1 0.41,0.62 0.53,0.53 0 0 1 -0.61,0.42 0.53,0.53 0 0 1 -0.42,-0.61 0.53,0.53 0 0 1 0.52,-0.43 z m -4.52,0.12 a 0.53,0.53 0 0 1 0.54,0.4 0.53,0.53 0 0 1 -0.38,0.64 0.53,0.53 0 0 1 -0.64,-0.38 0.53,0.53 0 0 1 0.38,-0.65 0.53,0.53 0 0 1 0.1,-0.01 z m 7.01,0.35 a 0.53,0.53 0 0 1 0.1,0.01 0.53,0.53 0 0 1 0.4100001,0.62 0.53,0.53 0 0 1 -0.6100001,0.42 0.53,0.53 0 0 1 -0.42,-0.62 0.53,0.53 0 0 1 0.52,-0.43 z m 0.13,0.06 a 0.6,0.6 0 0 0 -0.06,0.01 0.6,0.6 0 0 1 0.06,-0.01 z m -1.6,0.95 a 0.53,0.53 0 0 1 0.08,0 0.53,0.53 0 0 1 0.42,0.63 0.53,0.53 0 0 1 -0.62,0.42 0.53,0.53 0 0 1 -0.42,-0.62 0.53,0.53 0 0 1 0.53,-0.43 z m -0.06,0.18 a 0.6,0.6 0 0 0 -0.06,0.01 0.6,0.6 0 0 1 0.06,-0.01 z m -1.43,0.83 a 0.53,0.53 0 0 1 0.09,0 0.53,0.53 0 0 1 0.42,0.63 0.53,0.53 0 0 1 -0.62,0.42 0.53,0.53 0 0 1 -0.42,-0.62 0.53,0.53 0 0 1 0.53,-0.43 z m -3.41,0.08 a 0.53,0.53 0 0 1 0.54,0.4 0.53,0.53 0 0 1 -0.38,0.64 0.53,0.53 0 0 1 -0.64,-0.38 0.53,0.53 0 0 1 0.38,-0.64 0.53,0.53 0 0 1 0.1,-0.02 z m 5.9,0.4 a 0.53,0.53 0 0 1 0.09,0 0.53,0.53 0 0 1 0.42,0.62 0.53,0.53 0 0 1 -0.62,0.42 0.53,0.53 0 0 1 -0.42,-0.62 0.53,0.53 0 0 1 0.53,-0.43 z"
     id="path2"
     inkscape:connector-curvature="0"
     style="fill:#bde6fb;fill-opacity:1" />
</svg>
