<?xml version="1.0" encoding="UTF-8" standalone="no"?>
<svg
   width="47.546455"
   height="47.542679"
   viewBox="0 0 12.58 12.579"
   version="1.1"
   id="svg12"
   sodipodi:docname="kleopatra.svg"
   inkscape:version="0.92.4 (5da689c313, 2019-01-14)"
   xmlns:inkscape="http://www.inkscape.org/namespaces/inkscape"
   xmlns:sodipodi="http://sodipodi.sourceforge.net/DTD/sodipodi-0.dtd"
   xmlns="http://www.w3.org/2000/svg"
   xmlns:svg="http://www.w3.org/2000/svg"
   xmlns:rdf="http://www.w3.org/1999/02/22-rdf-syntax-ns#"
   xmlns:cc="http://creativecommons.org/ns#"
   xmlns:dc="http://purl.org/dc/elements/1.1/">
  <metadata
     id="metadata18">
    <rdf:RDF>
      <cc:Work
         rdf:about="">
        <dc:format>image/svg+xml</dc:format>
        <dc:type
           rdf:resource="http://purl.org/dc/dcmitype/StillImage" />
        <dc:title />
      </cc:Work>
    </rdf:RDF>
  </metadata>
  <defs
     id="defs16" />
  <sodipodi:namedview
     pagecolor="#ffffff"
     bordercolor="#666666"
     borderopacity="1"
     objecttolerance="10"
     gridtolerance="10"
     guidetolerance="10"
     inkscape:pageopacity="0"
     inkscape:pageshadow="2"
     inkscape:window-width="1087"
     inkscape:window-height="480"
     id="namedview14"
     showgrid="false"
     inkscape:zoom="4.9166667"
     inkscape:cx="2.1355932"
     inkscape:cy="24"
     inkscape:window-x="0"
     inkscape:window-y="25"
     inkscape:window-maximized="0"
     inkscape:current-layer="svg12"
     inkscape:showpageshadow="0"
     inkscape:pagecheckerboard="0"
     inkscape:deskcolor="#d1d1d1" />
  <path
     d="M 6.29,9.9999565e-4 A 6.29,6.29 0 0 0 0,6.291 6.29,6.29 0 0 0 6.29,12.579 6.29,6.29 0 0 0 12.58,6.29 6.29,6.29 0 0 0 6.29,0 Z M 6.272,0.937 A 5.407,5.407 0 0 1 11.679,6.344 5.407,5.407 0 0 1 6.272,11.751 5.407,5.407 0 0 1 0.866,6.344 5.407,5.407 0 0 1 6.272,0.938 Z"
     id="path2"
     inkscape:connector-curvature="0"
     style="fill:#bde6fb;fill-opacity:1" />
  <path
     d="M 8.641,6.438 8.935,9.473 9.997,7.783 C 9.409,7.413 9.357,6.966 9.427,6.502 Z"
     id="path4"
     inkscape:connector-curvature="0"
     style="fill:#bde6fb;fill-opacity:1" />
  <path
     d="m 2.191,4.5 c 3.3,0.057 5.56,-2.525 8.173,-0.754 M 2.032,6.094 5.586,5.808 c 1.449,-1.563 3.062,-1.883 4.979,0.1 -1.45,0.177 -2.445,2.013 -4.98,-0.1"
     id="path6"
     inkscape:connector-curvature="0"
     style="fill:none;stroke:#bde6fb;stroke-width:0.661;stroke-linecap:round;stroke-opacity:1" />
  <path
     d="M 8.09,6.915 C 6.656,8.198 5.305,9.818 3.46,9.36 2.34,8.873 2.043,8.16 2.36,7.634 3.036,7.264 3.254,7.967 3.104,8.137"
     id="path8"
     inkscape:connector-curvature="0"
     style="fill:none;stroke:#bde6fb;stroke-width:0.634;stroke-linecap:round;stroke-opacity:1" />
  <ellipse
     cx="7.8710003"
     cy="5.6700001"
     rx="0.76999998"
     ry="0.76899999"
     id="ellipse10"
     style="fill:#bde6fb;fill-opacity:1" />
</svg>
