<?xml version="1.0" encoding="UTF-8" standalone="no"?>
<svg
   width="47.546455"
   height="47.546455"
   viewBox="0 0 12.58 12.58"
   version="1.1"
   id="svg4"
   sodipodi:docname="kmymoney.svg"
   inkscape:version="0.92.4 (5da689c313, 2019-01-14)"
   xmlns:inkscape="http://www.inkscape.org/namespaces/inkscape"
   xmlns:sodipodi="http://sodipodi.sourceforge.net/DTD/sodipodi-0.dtd"
   xmlns="http://www.w3.org/2000/svg"
   xmlns:svg="http://www.w3.org/2000/svg"
   xmlns:rdf="http://www.w3.org/1999/02/22-rdf-syntax-ns#"
   xmlns:cc="http://creativecommons.org/ns#"
   xmlns:dc="http://purl.org/dc/elements/1.1/">
  <metadata
     id="metadata10">
    <rdf:RDF>
      <cc:Work
         rdf:about="">
        <dc:format>image/svg+xml</dc:format>
        <dc:type
           rdf:resource="http://purl.org/dc/dcmitype/StillImage" />
        <dc:title />
      </cc:Work>
    </rdf:RDF>
  </metadata>
  <defs
     id="defs8" />
  <sodipodi:namedview
     pagecolor="#ffffff"
     bordercolor="#666666"
     borderopacity="1"
     objecttolerance="10"
     gridtolerance="10"
     guidetolerance="10"
     inkscape:pageopacity="0"
     inkscape:pageshadow="2"
     inkscape:window-width="862"
     inkscape:window-height="480"
     id="namedview6"
     showgrid="false"
     inkscape:zoom="4.9166667"
     inkscape:cx="2.1355932"
     inkscape:cy="24"
     inkscape:window-x="0"
     inkscape:window-y="25"
     inkscape:window-maximized="0"
     inkscape:current-layer="svg4"
     inkscape:showpageshadow="0"
     inkscape:pagecheckerboard="0"
     inkscape:deskcolor="#d1d1d1" />
  <path
     d="M 6.29,9.9999768e-4 A 6.29,6.29 0 0 0 0,6.291 6.29,6.29 0 0 0 6.29,12.58 6.29,6.29 0 0 0 12.58,6.29 6.29,6.29 0 0 0 6.29,0 Z M 6.272,0.938 A 5.407,5.407 0 0 1 11.679,6.345 5.407,5.407 0 0 1 6.272,11.752 5.407,5.407 0 0 1 0.866,6.345 5.407,5.407 0 0 1 6.272,0.939 Z M 3.676,3.174 V 3.56 L 4.149,3.594 C 4.214,3.6 4.26,3.624 4.289,3.664 4.321,3.706 4.338,3.748 4.338,3.791 V 8.572 A 0.203,0.203 0 0 1 4.289,8.699 C 4.26,8.739 4.214,8.763 4.149,8.769 L 3.676,8.804 V 9.189 H 5.953 V 8.804 L 5.441,8.769 A 0.212,0.212 0 0 1 5.291,8.699 0.202,0.202 0 0 1 5.244,8.572 V 6.519 H 5.87 L 7.538,8.913 V 9.189 H 9.11 V 8.804 L 8.462,8.761 6.452,5.819 8.282,3.629 C 8.297,3.627 8.336,3.622 8.4,3.617 A 12.914,12.914 0 0 1 8.89,3.559 V 3.174 H 6.99 V 3.56 l 0.46,0.043 a 0.09,0.09 0 0 1 0.062,0.04 0.1,0.1 0 0 1 0.026,0.066 c 0,0.02 -0.006,0.036 -0.018,0.048 L 5.567,6.143 H 5.243 V 3.791 c 0,-0.043 0.016,-0.085 0.048,-0.126 A 0.212,0.212 0 0 1 5.44,3.595 L 5.952,3.56 V 3.174 Z"
     id="path2"
     inkscape:connector-curvature="0"
     style="fill:#bde6fb;fill-opacity:1" />
</svg>
