<?xml version="1.0" encoding="UTF-8" standalone="no"?>
<svg
   width="47.546455"
   height="47.546455"
   viewBox="0 0 12.58 12.58"
   version="1.1"
   id="svg4"
   sodipodi:docname="knavalbattle.svg"
   inkscape:version="0.92.4 (5da689c313, 2019-01-14)"
   xmlns:inkscape="http://www.inkscape.org/namespaces/inkscape"
   xmlns:sodipodi="http://sodipodi.sourceforge.net/DTD/sodipodi-0.dtd"
   xmlns="http://www.w3.org/2000/svg"
   xmlns:svg="http://www.w3.org/2000/svg"
   xmlns:rdf="http://www.w3.org/1999/02/22-rdf-syntax-ns#"
   xmlns:cc="http://creativecommons.org/ns#"
   xmlns:dc="http://purl.org/dc/elements/1.1/">
  <metadata
     id="metadata10">
    <rdf:RDF>
      <cc:Work
         rdf:about="">
        <dc:format>image/svg+xml</dc:format>
        <dc:type
           rdf:resource="http://purl.org/dc/dcmitype/StillImage" />
        <dc:title />
      </cc:Work>
    </rdf:RDF>
  </metadata>
  <defs
     id="defs8" />
  <sodipodi:namedview
     pagecolor="#ffffff"
     bordercolor="#666666"
     borderopacity="1"
     objecttolerance="10"
     gridtolerance="10"
     guidetolerance="10"
     inkscape:pageopacity="0"
     inkscape:pageshadow="2"
     inkscape:window-width="862"
     inkscape:window-height="480"
     id="namedview6"
     showgrid="false"
     inkscape:zoom="4.9166667"
     inkscape:cx="2.1355932"
     inkscape:cy="24"
     inkscape:window-x="0"
     inkscape:window-y="25"
     inkscape:window-maximized="0"
     inkscape:current-layer="svg4"
     inkscape:showpageshadow="0"
     inkscape:pagecheckerboard="0"
     inkscape:deskcolor="#d1d1d1" />
  <path
     d="M 6.29,9.9999768e-4 A 6.29,6.29 0 0 0 0,6.291 6.29,6.29 0 0 0 6.29,12.58 6.29,6.29 0 0 0 12.58,6.29 6.29,6.29 0 0 0 6.29,0 Z M 6.272,0.938 A 5.407,5.407 0 0 1 11.679,6.345 5.407,5.407 0 0 1 10.135,10.121 2.086,2.086 0 0 1 9.669,9.768 C 9.107,10.33 8.545,10.33 8.545,10.33 c 0,0 -0.562,0 -1.125,-0.562 -0.562,0.562 -1.124,0.562 -1.124,0.562 0,0 -0.562,0 -1.124,-0.562 -0.563,0.562 -1.125,0.562 -1.125,0.562 0,0 -0.562,0 -1.124,-0.562 a 2.066,2.066 0 0 1 -0.5,0.37 A 5.407,5.407 0 0 1 0.866,6.346 5.407,5.407 0 0 1 6.272,0.939 Z M 7.619,2.31 A 0.264,0.264 0 0 0 7.354,2.575 V 3.369 H 4.391 c -0.557,0 -1.005,0.448 -1.005,1.005 V 6.313 L 2.754,6.507 C 2.304,6.62 2.304,7.07 2.641,7.294 3.26,7.688 4.047,8.362 4.047,9.15 v 0.618 h 0.056 c 0,0 0.506,0 1.125,-0.562 0.562,0.562 1.124,0.562 1.124,0.562 0,0 0.563,0 1.125,-0.562 0.562,0.562 1.068,0.562 1.068,0.562 H 8.601 V 9.15 C 8.601,8.362 9.388,7.688 10.007,7.294 10.344,7.07 10.287,6.62 9.894,6.507 L 9.206,6.311 V 4.374 C 9.206,3.817 8.758,3.369 8.201,3.369 H 8.148 V 2.575 A 0.264,0.264 0 0 0 7.883,2.31 Z M 4.444,3.899 h 3.704 c 0.293,0 0.53,0.236 0.53,0.529 V 6.154 L 8.545,6.114 6.69,5.552 a 2.13,2.13 0 0 0 -0.844,0 L 4.047,6.115 3.915,6.155 V 4.426 c 0,-0.293 0.236,-0.53 0.529,-0.53 z"
     id="path2"
     inkscape:connector-curvature="0"
     style="fill:#bde6fb;fill-opacity:1" />
</svg>
