<?xml version="1.0" encoding="UTF-8" standalone="no"?>
<svg
   width="47.357479"
   height="47.357479"
   viewBox="0 0 12.53 12.53"
   version="1.1"
   id="svg4"
   sodipodi:docname="KoboDeluxe.svg"
   inkscape:version="0.92.4 (5da689c313, 2019-01-14)"
   xmlns:inkscape="http://www.inkscape.org/namespaces/inkscape"
   xmlns:sodipodi="http://sodipodi.sourceforge.net/DTD/sodipodi-0.dtd"
   xmlns="http://www.w3.org/2000/svg"
   xmlns:svg="http://www.w3.org/2000/svg"
   xmlns:rdf="http://www.w3.org/1999/02/22-rdf-syntax-ns#"
   xmlns:cc="http://creativecommons.org/ns#"
   xmlns:dc="http://purl.org/dc/elements/1.1/">
  <metadata
     id="metadata10">
    <rdf:RDF>
      <cc:Work
         rdf:about="">
        <dc:format>image/svg+xml</dc:format>
        <dc:type
           rdf:resource="http://purl.org/dc/dcmitype/StillImage" />
        <dc:title />
      </cc:Work>
    </rdf:RDF>
  </metadata>
  <defs
     id="defs8" />
  <sodipodi:namedview
     pagecolor="#ffffff"
     bordercolor="#666666"
     borderopacity="1"
     objecttolerance="10"
     gridtolerance="10"
     guidetolerance="10"
     inkscape:pageopacity="0"
     inkscape:pageshadow="2"
     inkscape:window-width="1087"
     inkscape:window-height="480"
     id="namedview6"
     showgrid="false"
     inkscape:zoom="4.9166667"
     inkscape:cx="24"
     inkscape:cy="24"
     inkscape:window-x="0"
     inkscape:window-y="25"
     inkscape:window-maximized="0"
     inkscape:current-layer="svg4"
     inkscape:showpageshadow="0"
     inkscape:pagecheckerboard="0"
     inkscape:deskcolor="#d1d1d1" />
  <path
     d="M 6.26,0 A 6.27,6.27 0 0 0 0,6.26 6.27,6.27 0 0 0 6.26,12.53 6.27,6.27 0 0 0 12.53,6.26 6.27,6.27 0 0 0 6.26,0 Z M 6.25,0.92 A 5.39,5.39 0 0 1 11.62,6.32 5.39,5.39 0 0 1 6.24,11.71 5.39,5.39 0 0 1 0.84000003,6.31 5.39,5.39 0 0 1 6.24,0.93 Z M 6.31,1.75 H 6.28 A 0.91,0.91 0 0 0 5.78,1.91 0.76,0.76 0 0 0 5.6,2.12 L 5.29,2.63 C 5.24,2.79 5.21,2.96 5.21,3.13 V 3.34 L 4.18,4.8 C 4.12,4.47 3.92,4.22 3.68,4.22 3.4,4.22 3.18,4.56 3.18,4.99 v 1.2 l -1.43,2 c 0.47,0.37 0.95,0.7 1.43,0.95 v 0.43 c 0,0.42 0.22,0.76 0.5,0.76 0.28,0 0.5,-0.31 0.51,-0.71 0.36,0.13 0.71,0.24 1.07,0.31 0.16,0.46 0.65,0.62 1.04,0.62 0.38,0 0.87,-0.16 1.04,-0.6 a 6,6 0 0 0 1.08,-0.3 c 0.02,0.38 0.24,0.68 0.5,0.68 0.28,0 0.5000003,-0.34 0.5000003,-0.76 V 9.16 C 9.8800003,8.9 10.34,8.58 10.79,8.19 L 9.4300003,6.26 V 4.99 C 9.4300003,4.56 9.2,4.22 8.92,4.22 8.67,4.22 8.47,4.48 8.42,4.82 L 7.39,3.38 V 3.15 c 0,-0.1 0,-0.21 -0.03,-0.32 L 6.95,2.14 A 0.78,0.78 0 0 0 6.31,1.77 Z m 0,1.6 h 0.02 a 0.8,0.8 0 0 1 0.4,0.12 c 0.06,0.04 0.12,0.1 0.16,0.15 L 7.14,4 C 7.17,4.1 7.2,4.23 7.2,4.36 V 9.07 C 7.2,9.57 6.69,9.74 6.31,9.74 5.93,9.74 5.43,9.58 5.43,9.07 v -4.7 c 0,-0.08 0,-0.16 0.02,-0.23 L 5.79,3.64 C 5.89,3.47 6.09,3.37 6.31,3.36 Z m -2.63,1.4 c 0.1,0 0.17,0.07 0.17,0.17 v 4.7 a 0.175,0.175 0 1 1 -0.35,0 v -4.7 c 0,-0.1 0.08,-0.17 0.18,-0.17 z m 5.23,0 c 0.1,0 0.18,0.07 0.18,0.17 v 4.7 a 0.18,0.18 0 1 1 -0.36,0 v -4.7 c 0,-0.1 0.08,-0.17 0.18,-0.17 z M 6.31,5.23 A 0.63,0.63 0 0 0 5.68,5.86 v 2.37 a 0.635,0.635 0 1 0 1.27,0 V 5.86 A 0.63,0.63 0 0 0 6.32,5.23 Z"
     id="path2"
     inkscape:connector-curvature="0"
     style="fill:#bde6fb;fill-opacity:1" />
</svg>
