<?xml version="1.0" encoding="UTF-8" standalone="no"?>
<svg
   width="47.546875"
   height="47.546875"
   viewBox="0 0 12.580111 12.580111"
   version="1.1"
   id="svg17"
   sodipodi:docname="kollision.svg"
   inkscape:version="0.92.4 (5da689c313, 2019-01-14)"
   inkscape:export-filename="kollision.svg"
   inkscape:export-xdpi="96"
   inkscape:export-ydpi="96"
   xmlns:inkscape="http://www.inkscape.org/namespaces/inkscape"
   xmlns:sodipodi="http://sodipodi.sourceforge.net/DTD/sodipodi-0.dtd"
   xmlns="http://www.w3.org/2000/svg"
   xmlns:svg="http://www.w3.org/2000/svg"
   xmlns:rdf="http://www.w3.org/1999/02/22-rdf-syntax-ns#"
   xmlns:cc="http://creativecommons.org/ns#"
   xmlns:dc="http://purl.org/dc/elements/1.1/">
  <metadata
     id="metadata21">
    <rdf:RDF>
      <cc:Work
         rdf:about="">
        <dc:format>image/svg+xml</dc:format>
        <dc:type
           rdf:resource="http://purl.org/dc/dcmitype/StillImage" />
        <dc:title />
      </cc:Work>
    </rdf:RDF>
  </metadata>
  <sodipodi:namedview
     pagecolor="#ffffff"
     bordercolor="#666666"
     borderopacity="1"
     objecttolerance="10"
     gridtolerance="10"
     guidetolerance="10"
     inkscape:pageopacity="0"
     inkscape:pageshadow="2"
     inkscape:window-width="862"
     inkscape:window-height="480"
     id="namedview19"
     showgrid="false"
     inkscape:zoom="4.9166667"
     inkscape:cx="2.1355932"
     inkscape:cy="24"
     inkscape:window-x="0"
     inkscape:window-y="25"
     inkscape:window-maximized="0"
     inkscape:current-layer="svg17"
     inkscape:showpageshadow="0"
     inkscape:pagecheckerboard="0"
     inkscape:deskcolor="#d1d1d1" />
  <defs
     id="defs7">
    <linearGradient
       id="a"
       gradientUnits="userSpaceOnUse"
       x1="328.08301"
       y1="233.5"
       x2="328.08301"
       y2="0.667"
       gradientTransform="matrix(0.01729,0,0,0.01729,1.894,5.771)">
      <stop
         offset="0"
         stop-color="#42a5f5"
         id="stop2" />
      <stop
         offset="1"
         stop-color="#64b5f6"
         id="stop4" />
    </linearGradient>
  </defs>
  <path
     style="fill:#bde6fb;fill-opacity:1;stroke-width:1"
     d="M 6.2900551,0 V 0.0010335 A 6.2899998,6.2899998 0 0 0 0,6.2910888 6.2899998,6.2899998 0 0 0 6.2900551,12.58011 6.2899998,6.2899998 0 0 0 12.580111,6.2900554 6.2899998,6.2899998 0 0 0 6.2900551,0 Z m -0.01757,0.93844399 A 5.4070001,5.4070001 0 0 1 11.679391,6.3453491 5.4070001,5.4070001 0 0 1 6.2724852,11.752254 5.4070001,5.4070001 0 0 1 0.866097,6.3453491 5.4070001,5.4070001 0 0 1 6.2724852,0.93896079 Z M 4.9490518,2.7843262 a 2.013,2.013 0 0 0 -2.012797,2.0127971 c 0,1.0679999 0.8341564,1.9318777 1.8851562,1.9998777 A 3.4,3.4 0 0 1 5.0570556,6.6161337 c 0.094,-0.068 0.1900666,-0.1358538 0.2640666,-0.1958539 0.073,-0.06 0.1230235,-0.1122441 0.1240234,-0.1462442 0,-0.037 -0.045755,-0.095881 -0.1157552,-0.1658813 -0.07,-0.07 -0.1611474,-0.1510273 -0.2511475,-0.2320274 -0.09,-0.08 -0.1798455,-0.16096 -0.2418456,-0.2299599 -0.062,-0.068 -0.098199,-0.12513 -0.083199,-0.1581298 0.015,-0.032 0.07623,-0.033087 0.1612304,-0.018087 0.086,0.014 0.1959915,0.044481 0.3079914,0.076481 0.112,0.032 0.2247765,0.064749 0.3167767,0.084749 0.093,0.02 0.1642028,0.026168 0.1912027,0.00517 0.03,-0.022 0.046911,-0.09527 0.058911,-0.1932697 0.011,-0.098 0.017771,-0.2200645 0.023771,-0.3410646 0.007,-0.121 0.013939,-0.2397625 0.028939,-0.3317626 0.015,-0.092 0.036347,-0.1548143 0.072347,-0.1638144 0.033,-0.009 0.072722,0.037688 0.1147215,0.1136883 0.042,0.077 0.087292,0.1818712 0.1322917,0.2888713 0.045,0.1069999 0.089775,0.2172734 0.1317749,0.3012736 0.042,0.085 0.081238,0.1449621 0.1152385,0.1529623 0.035,0.01 0.1030687,-0.022931 0.1870686,-0.074931 0.084,-0.052 0.1826366,-0.1243034 0.2816365,-0.1943031 l 0.048059,-0.03204 c 0.022,-0.119 0.037207,-0.2398358 0.037207,-0.3648355 0,-1.1116527 -0.9007596,-2.0122343 -2.0122803,-2.0127971 h -5.167e-4 z"
     id="path9"
     inkscape:connector-curvature="0" />
  <path
     d="m 5.6842565,6.8902033 a 1.996,1.996 0 0 0 -0.185,0.834 2.013,2.013 0 1 0 2.013,-2.013 c -0.182,0 -0.354,0.032 -0.52,0.077 -0.01,0.033 -0.033,0.08 -0.026,0.096 0.016,0.033 0.083,0.066 0.176,0.1 0.093,0.032 0.21,0.066 0.327,0.1 0.117,0.033 0.231,0.066 0.317,0.101 0.086,0.035 0.143,0.07 0.144,0.106 0.001,0.035 -0.054,0.063 -0.137,0.087 a 3.214,3.214 0 0 1 -0.31,0.065 c -0.115,0.02 -0.231,0.04 -0.323,0.061 -0.092,0.022 -0.159,0.047 -0.175,0.078 -0.016,0.033 0,0.106 0.032,0.2 0.032,0.092 0.08,0.206 0.126,0.318 0.047,0.112 0.091,0.222 0.118,0.311 0.026,0.089 0.034,0.156 0.006,0.18 -0.026,0.022 -0.082,-0.004 -0.153,-0.054 a 3.25,3.25 0 0 1 -0.244,-0.203 c -0.087,-0.077 -0.175,-0.156 -0.25,-0.214 -0.074,-0.058 -0.136,-0.095 -0.17,-0.088 -0.036,0.007 -0.083,0.066 -0.136,0.15 -0.053,0.082 -0.111,0.19 -0.17,0.297 -0.058,0.106 -0.117,0.21 -0.17,0.286 -0.053,0.076 -0.1,0.124 -0.135,0.117 -0.034,-0.007 -0.05,-0.067 -0.054,-0.154 -0.005,-0.087 0,-0.201 0.006,-0.317 0.006,-0.116 0.013,-0.234 0.012,-0.328 -10e-4,-0.095 -0.01,-0.165 -0.037,-0.187 -0.012,-0.01 -0.057,-0.003 -0.082,-0.006 z"
     id="path13"
     style="opacity:0.75;fill:url(#a)"
     inkscape:connector-curvature="0" />
  <path
     d="m 5.8392565,7.8822033 c -0.137,-0.028 0.033,-0.899 -0.073,-0.986 -0.113,-0.095 -0.98,0.18 -1.045,0.05 -0.064,-0.123 0.721,-0.533 0.725,-0.672 0.003,-0.147 -0.752,-0.653 -0.692,-0.786 0.057,-0.127 0.867,0.232 0.977,0.148 0.118,-0.088 0.042,-0.994 0.184,-1.03 0.134,-0.035 0.359,0.823 0.494,0.857 0.142,0.036 0.803,-0.587 0.92,-0.5 0.11,0.084 -0.42,0.795 -0.363,0.92 0.06,0.134 0.96,0.263 0.964,0.409 0.004,0.138 -0.882,0.168 -0.945,0.29 -0.067,0.13 0.394,0.914 0.282,1.008 -0.106,0.09 -0.68,-0.586 -0.817,-0.558 -0.143,0.03 -0.469,0.878 -0.611,0.85 z m 0,0"
     id="path15"
     inkscape:connector-curvature="0"
     style="fill:none;stroke:#1e3f5a;stroke-width:0.055;stroke-linecap:round;stroke-linejoin:round" />
</svg>
