<?xml version="1.0" encoding="UTF-8" standalone="no"?>
<svg
   width="47.546455"
   height="47.546455"
   viewBox="0 0 12.58 12.58"
   version="1.1"
   id="svg4"
   sodipodi:docname="komodo-ide.svg"
   inkscape:version="0.92.4 (5da689c313, 2019-01-14)"
   xmlns:inkscape="http://www.inkscape.org/namespaces/inkscape"
   xmlns:sodipodi="http://sodipodi.sourceforge.net/DTD/sodipodi-0.dtd"
   xmlns="http://www.w3.org/2000/svg"
   xmlns:svg="http://www.w3.org/2000/svg"
   xmlns:rdf="http://www.w3.org/1999/02/22-rdf-syntax-ns#"
   xmlns:cc="http://creativecommons.org/ns#"
   xmlns:dc="http://purl.org/dc/elements/1.1/">
  <metadata
     id="metadata10">
    <rdf:RDF>
      <cc:Work
         rdf:about="">
        <dc:format>image/svg+xml</dc:format>
        <dc:type
           rdf:resource="http://purl.org/dc/dcmitype/StillImage" />
        <dc:title />
      </cc:Work>
    </rdf:RDF>
  </metadata>
  <defs
     id="defs8" />
  <sodipodi:namedview
     pagecolor="#ffffff"
     bordercolor="#666666"
     borderopacity="1"
     objecttolerance="10"
     gridtolerance="10"
     guidetolerance="10"
     inkscape:pageopacity="0"
     inkscape:pageshadow="2"
     inkscape:window-width="1138"
     inkscape:window-height="480"
     id="namedview6"
     showgrid="false"
     inkscape:zoom="4.9166667"
     inkscape:cx="2.1355932"
     inkscape:cy="24"
     inkscape:window-x="0"
     inkscape:window-y="25"
     inkscape:window-maximized="0"
     inkscape:current-layer="svg4"
     inkscape:showpageshadow="0"
     inkscape:pagecheckerboard="0"
     inkscape:deskcolor="#d1d1d1" />
  <path
     d="M 6.29,9.9999768e-4 A 6.29,6.29 0 0 0 0,6.291 6.29,6.29 0 0 0 6.29,12.58 6.29,6.29 0 0 0 12.58,6.29 6.29,6.29 0 0 0 6.29,0 Z M 6.272,0.938 A 5.407,5.407 0 0 1 11.679,6.345 5.407,5.407 0 0 1 6.272,11.752 5.407,5.407 0 0 1 0.866,6.345 5.407,5.407 0 0 1 6.272,0.939 Z m -0.14,1.64 C 4.76,2.514 3.524,3.341 3.015,4.816 2.819,5.383 2.785,6.245 2.939,6.743 3.072,7.176 3.199,7.379 3.424,7.523 3.522,7.587 3.597,7.671 3.59,7.71 3.583,7.749 3.42,7.844 3.229,7.921 2.853,8.073 2.592,8.283 2.592,8.432 2.592,8.787 3.098,9.106 3.59,9.062 3.75,9.047 3.931,9.018 3.994,8.999 4.178,8.941 4.134,9.099 3.893,9.362 3.666,9.608 3.669,9.611 4.006,9.524 4.066,9.509 4.079,9.546 4.067,9.694 4.051,9.898 4.122,9.943 4.208,9.782 4.281,9.646 4.36,9.654 4.36,9.798 c 0,0.065 0.015,0.133 0.034,0.152 0.018,0.018 0.04,0.033 0.047,0.033 0.007,0 0.087,-0.223 0.177,-0.496 L 4.78,8.99 4.62,8.71 C 4.368,8.27 4.515,8.31 5.006,8.812 5.787,9.609 6.27,9.846 7.114,9.845 7.518,9.844 7.7,9.818 8.027,9.712 9.046,9.384 9.74,8.626 9.944,7.619 10.067,7.013 9.994,7.003 9.655,7.579 9.351,8.097 8.801,8.629 8.421,8.773 7.864,8.985 7.258,8.899 6.727,8.535 6.351,8.277 6.049,7.744 6.205,7.615 6.287,7.546 6.403,7.702 6.455,7.952 6.499,8.166 6.562,8.208 6.861,8.222 7.256,8.24 7.269,8.235 7.16,8.115 7.066,8.011 7.066,8.008 7.162,7.938 A 0.375,0.375 0 0 1 7.3,7.867 c 0.022,0 0.04,-0.023 0.04,-0.05 C 7.34,7.789 7.258,7.767 7.157,7.767 6.981,7.767 6.976,7.761 7.005,7.614 7.034,7.472 7.028,7.464 6.907,7.494 6.783,7.525 6.779,7.52 6.812,7.348 6.867,7.052 6.859,6.822 6.79,6.738 6.694,6.624 6.407,6.557 6.009,6.556 c -0.397,0 -0.376,0.073 -0.19,-0.625 0.06,-0.22 0.107,-0.462 0.107,-0.54 0,-0.31 0.172,-0.19 0.373,0.264 C 6.412,5.911 6.452,5.95 6.775,6.119 7.166,6.324 7.267,6.347 7.218,6.22 7.2,6.174 7.215,6.116 7.25,6.093 7.3,6.06 7.296,6.039 7.227,5.998 7.133,5.943 7.105,5.8 7.189,5.8 7.217,5.8 7.239,5.766 7.239,5.725 7.239,5.667 7.184,5.653 7.001,5.662 L 6.762,5.674 6.777,5.488 C 6.795,5.27 6.725,5.123 6.526,4.956 6.256,4.729 6.362,4.643 6.909,4.641 H 7.211 L 6.943,4.37 C 6.745,4.17 6.68,4.069 6.693,3.98 6.715,3.826 6.98,3.741 7.17,3.828 7.296,3.885 7.3,3.9 7.266,4.171 L 7.23,4.454 7.55,4.736 c 0.375,0.331 1.273,1.219 1.472,1.455 0.076,0.09 0.17,0.163 0.21,0.163 C 9.334,6.354 9.6,6.074 9.72,5.841 9.81,5.664 9.815,5.611 9.765,5.367 9.577,4.467 8.717,3.537 7.525,2.951 A 3.535,3.535 0 0 0 6.131,2.579 Z M 5.997,2.886 c 0.176,0 0.355,0.017 0.534,0.053 0.45,0.088 1.45,0.543 1.977,0.898 0.577,0.39 0.946,0.934 0.989,1.457 C 9.522,5.604 9.404,5.912 9.25,5.941 9.144,5.961 7.915,4.781 7.692,4.444 7.428,4.046 7.574,3.915 7.956,4.207 c 0.17,0.129 0.24,0.222 0.264,0.35 0.033,0.177 0.105,0.233 0.3,0.234 0.06,0 0.184,0.046 0.275,0.101 0.327,0.2 0.29,0.097 -0.157,-0.44 C 8.255,3.994 7.881,3.65 7.618,3.518 7.405,3.411 6.873,3.328 6.402,3.33 5.398,3.332 4.594,3.747 4.218,4.459 4.093,4.694 4.082,4.763 4.082,5.295 4.082,6.004 4.18,6.355 4.618,7.23 4.783,7.56 4.91,7.838 4.9,7.848 4.89,7.858 4.769,7.748 4.632,7.602 3.807,6.722 3.367,5.672 3.49,4.877 3.67,3.715 4.765,2.887 5.997,2.887 Z"
     id="path2"
     inkscape:connector-curvature="0"
     style="fill:#bde6fb;fill-opacity:1" />
</svg>
