<?xml version="1.0" encoding="UTF-8" standalone="no"?>
<svg
   width="47.543434"
   height="47.543434"
   version="1.1"
   viewBox="0 0 12.5792 12.5792"
   id="svg6"
   sodipodi:docname="komorebi.svg"
   inkscape:version="0.92.4 (5da689c313, 2019-01-14)"
   xmlns:inkscape="http://www.inkscape.org/namespaces/inkscape"
   xmlns:sodipodi="http://sodipodi.sourceforge.net/DTD/sodipodi-0.dtd"
   xmlns="http://www.w3.org/2000/svg"
   xmlns:svg="http://www.w3.org/2000/svg"
   xmlns:rdf="http://www.w3.org/1999/02/22-rdf-syntax-ns#"
   xmlns:cc="http://creativecommons.org/ns#"
   xmlns:dc="http://purl.org/dc/elements/1.1/">
  <metadata
     id="metadata12">
    <rdf:RDF>
      <cc:Work
         rdf:about="">
        <dc:format>image/svg+xml</dc:format>
        <dc:type
           rdf:resource="http://purl.org/dc/dcmitype/StillImage" />
        <dc:title />
      </cc:Work>
    </rdf:RDF>
  </metadata>
  <defs
     id="defs10" />
  <sodipodi:namedview
     pagecolor="#ffffff"
     bordercolor="#666666"
     borderopacity="1"
     objecttolerance="10"
     gridtolerance="10"
     guidetolerance="10"
     inkscape:pageopacity="0"
     inkscape:pageshadow="2"
     inkscape:window-width="1136"
     inkscape:window-height="480"
     id="namedview8"
     showgrid="false"
     inkscape:zoom="4.9166667"
     inkscape:cx="2.1355932"
     inkscape:cy="24"
     inkscape:window-x="0"
     inkscape:window-y="25"
     inkscape:window-maximized="0"
     inkscape:current-layer="svg6"
     inkscape:showpageshadow="0"
     inkscape:pagecheckerboard="0"
     inkscape:deskcolor="#d1d1d1" />
  <path
     d="M 6.2844,0 C 2.816,0.0057471 0.0058,2.816 0,6.2844 c -4.6090225e-6,3.4725 2.8119,6.289 6.2844,6.2948 3.4765,0 6.2948,-2.8183 6.2948,-6.2948 C 12.5734,2.812 9.7568,0 6.2844,0 Z M 6.273961,0.93952 c 2.9743,0.00572 5.3856,2.4124 5.397,5.3866 0,2.9865 -2.421,5.4075 -5.4075,5.4075 -2.9865,0 -5.4075,-2.421 -5.4075,-5.4075 0,-2.9865 2.4314,-5.3866 5.4179,-5.3866 z"
     id="path2"
     inkscape:connector-curvature="0"
     style="fill:#bde6fb;fill-opacity:1;stroke-width:1.0439" />
  <path
     d="m 2.6896175,3.3371358 c -0.1747392,0 -0.3157497,0.1357322 -0.3157497,0.3043729 v 5.2378902 c 0,0.168638 0.1409999,0.3038437 0.3157497,0.3038437 H 7.1951504 A 1.7595893,1.7675796 0 0 1 7.1315877,9.0716216 1.7595893,1.7675796 0 0 1 7.0597595,8.9103918 1.7595893,1.7675796 0 0 1 7.003949,8.7424444 1.7595893,1.7675796 0 0 1 6.9657092,8.5703642 1.7595893,1.7675796 0 0 1 6.9445222,8.3946672 1.7595893,1.7675796 0 0 1 6.9398714,8.2696108 1.7595893,1.7675796 0 0 1 6.9486562,8.0933953 1.7595893,1.7675796 0 0 1 6.9750111,7.9187301 1.7595893,1.7675796 0 0 1 7.0184181,7.7471659 1.7595893,1.7675796 0 0 1 7.0788799,7.5812874 1.7595893,1.7675796 0 0 1 7.1553594,7.4221267 1.7595893,1.7675796 0 0 1 7.2473433,7.27175 1.7595893,1.7675796 0 0 1 7.3537944,7.1311919 1.7595893,1.7675796 0 0 1 7.4736809,7.0020028 a 1.7595893,1.7675796 0 0 1 0.13229,-0.1167883 1.7595893,1.7675796 0 0 1 0.143143,-0.1028343 1.7595893,1.7675796 0 0 1 0.1524431,-0.087849 1.7595893,1.7675796 0 0 1 0.1607112,-0.072347 1.7595893,1.7675796 0 0 1 0.166397,-0.055811 1.7595893,1.7675796 0 0 1 0.1720802,-0.03824 1.7595893,1.7675796 0 0 1 0.1741465,-0.021704 1.7595893,1.7675796 0 0 1 0.1245378,-0.00413 1.7595893,1.7675796 0 0 1 0.175697,0.00878 1.7595893,1.7675796 0 0 1 0.1741466,0.026355 1.7595893,1.7675796 0 0 1 0.1705297,0.043926 1.7595893,1.7675796 0 0 1 0.1648466,0.060462 1.7595893,1.7675796 0 0 1 0.1586448,0.076479 1.7595893,1.7675796 0 0 1 0.1498608,0.0925 1.7595893,1.7675796 0 0 1 0.1400422,0.1069697 1.7595893,1.7675796 0 0 1 0.1286736,0.1204051 1.7595893,1.7675796 0 0 1 0.116269,0.1328059 1.7595893,1.7675796 0 0 1 0.102319,0.143659 1.7595893,1.7675796 0 0 1 0.03411,0.060462 V 3.6416164 c -4e-6,-0.168638 -0.140484,-0.3043729 -0.315221,-0.3043729 H 2.68954 Z m 5.995912,3.4995997 A 1.4459032,1.4530998 0 0 0 7.2391235,8.2898618 1.4459032,1.4530998 0 0 0 8.6855295,9.7429881 1.4459032,1.4530998 0 0 0 10.131406,8.2898618 1.4459032,1.4530998 0 0 0 8.6855295,6.8367355 Z"
     id="path4"
     inkscape:connector-curvature="0"
     style="opacity:0.8;fill:#9a62da;stroke-width:0.26458" />
</svg>
