<?xml version="1.0" encoding="UTF-8" standalone="no"?>
<svg
   width="47.546875"
   height="47.539082"
   viewBox="0 0 12.580111 12.578049"
   version="1.1"
   id="svg8"
   sodipodi:docname="konquest.svg"
   inkscape:version="0.92.4 (5da689c313, 2019-01-14)"
   xmlns:inkscape="http://www.inkscape.org/namespaces/inkscape"
   xmlns:sodipodi="http://sodipodi.sourceforge.net/DTD/sodipodi-0.dtd"
   xmlns="http://www.w3.org/2000/svg"
   xmlns:svg="http://www.w3.org/2000/svg"
   xmlns:rdf="http://www.w3.org/1999/02/22-rdf-syntax-ns#"
   xmlns:cc="http://creativecommons.org/ns#"
   xmlns:dc="http://purl.org/dc/elements/1.1/">
  <metadata
     id="metadata14">
    <rdf:RDF>
      <cc:Work
         rdf:about="">
        <dc:format>image/svg+xml</dc:format>
        <dc:type
           rdf:resource="http://purl.org/dc/dcmitype/StillImage" />
        <dc:title />
      </cc:Work>
    </rdf:RDF>
  </metadata>
  <defs
     id="defs12" />
  <sodipodi:namedview
     pagecolor="#ffffff"
     bordercolor="#666666"
     borderopacity="1"
     objecttolerance="10"
     gridtolerance="10"
     guidetolerance="10"
     inkscape:pageopacity="0"
     inkscape:pageshadow="2"
     inkscape:window-width="862"
     inkscape:window-height="480"
     id="namedview10"
     showgrid="false"
     inkscape:zoom="4.9166667"
     inkscape:cx="2.1355932"
     inkscape:cy="24"
     inkscape:window-x="0"
     inkscape:window-y="25"
     inkscape:window-maximized="0"
     inkscape:current-layer="svg8"
     inkscape:showpageshadow="0"
     inkscape:pagecheckerboard="0"
     inkscape:deskcolor="#d1d1d1" />
  <path
     style="fill:#bde6fb;fill-opacity:1;stroke-width:1"
     d="M 6.2900551,5.5031068e-6 A 6.2899998,6.2899998 0 0 0 1.3854451,2.3554173 a 6.852,2.395 29.364 0 1 0.1240235,-0.018087 6.852,2.395 29.364 0 1 0.398942,-0.013953 6.852,2.395 29.364 0 1 0.2087728,0.00775 6.852,2.395 29.364 0 1 0.4640544,0.045992 6.852,2.395 29.364 0 1 0.021187,0.00413 5.4070001,5.4070001 0 0 1 3.6700602,-1.44332274 5.4070001,5.4070001 0 0 1 5.406906,5.40638834 5.4070001,5.4070001 0 0 1 -0.115238,1.0996744 6.852,2.395 29.364 0 1 0.07028,0.082166 6.852,2.395 29.364 0 1 0.264066,0.3679362 6.852,2.395 29.364 0 1 0.208773,0.3529499 6.852,2.395 29.364 0 1 0.08785,0.1943034 A 6.2899998,6.2899998 0 0 0 12.580111,6.2900553 6.2899998,6.2899998 0 0 0 6.2900549,0 Z M 6.2962551,2.3094253 V 2.309942 A 3.969,3.969 0 0 0 3.9000202,3.119195 c -0.04,0.03 -0.078789,0.058917 -0.1167887,0.089917 a 3.969,3.969 0 0 0 -1.2397175,1.7921386 4.7659998,1.785 29.307 0 0 0.089917,0.1400431 4.7659998,1.785 29.307 0 0 0.2046388,0.2697509 4.7659998,1.785 29.307 0 0 0.2423623,0.2759522 4.7659998,1.785 29.307 0 0 0.2749187,0.2800864 4.7659998,1.785 29.307 0 0 0.306958,0.280086 4.7659998,1.785 29.307 0 0 0.3327961,0.2780194 4.7659998,1.785 29.307 0 0 0.3591512,0.2728516 4.7659998,1.785 29.307 0 0 0.3798218,0.2651 4.7659998,1.785 29.307 0 0 0.3963583,0.2552817 4.7659998,1.785 29.307 0 0 0.409794,0.2418456 4.7659998,1.785 29.307 0 0 0.2961061,0.1607137 4.7659998,1.785 29.307 0 0 0.4216797,0.2139405 4.7659998,1.785 29.307 0 0 0.425297,0.1963703 4.7659998,1.785 29.307 0 0 0.4221964,0.1731161 4.7659998,1.785 29.307 0 0 0.4159951,0.1519287 4.7659998,1.785 29.307 0 0 0.4035931,0.1260904 4.7659998,1.785 29.307 0 0 0.3901569,0.1018027 4.7659998,1.785 29.307 0 0 0.3720703,0.073897 4.7659998,1.785 29.307 0 0 0.3488161,0.047026 4.7659998,1.785 29.307 0 0 0.3038573,0.01912 3.969,3.969 0 0 0 0.8841838,-2.0122803 c 0.01,-0.064 0.01829,-0.1267195 0.02429,-0.1917194 A 3.969,3.969 0 0 0 10.265007,6.2781752 3.969,3.969 0 0 0 6.2962565,2.3094253 Z M 0.39429118,4.1129327 A 6.2899998,6.2899998 0 0 0 0,6.2900608 a 6.2899998,6.2899998 0 0 0 6.2900551,6.2879882 6.2899998,6.2899998 0 0 0 4.9273489,-2.3797 6.852,2.395 29.364 0 1 -0.157097,0.0217 6.852,2.395 29.364 0 1 -0.402042,0.01189 6.852,2.395 29.364 0 1 -0.444934,-0.02894 6.852,2.395 29.364 0 1 -0.13901,-0.0186 A 5.4070001,5.4070001 0 0 1 6.2724852,11.750192 5.4070001,5.4070001 0 0 1 0.866097,6.3443211 5.4070001,5.4070001 0 0 1 1.0164754,5.1040867 6.852,2.395 29.364 0 1 0.95239661,5.0270887 6.852,2.395 29.364 0 1 0.68833007,4.6591525 6.852,2.395 29.364 0 1 0.48007405,4.3072361 6.852,2.395 29.364 0 1 0.39429118,4.1129327 Z M 2.3430094,5.9541641 A 3.969,3.969 0 0 0 2.3275065,6.2781752 3.969,3.969 0 0 0 6.2962565,10.246925 3.969,3.969 0 0 0 8.621179,9.4877983 5.9579999,2.083 29.364 0 1 8.3524616,9.4159681 5.9579999,2.083 29.364 0 1 7.8553344,9.260422 5.9579999,2.083 29.364 0 1 7.3421874,9.0743868 5.9579999,2.083 29.364 0 1 6.8192218,8.8599296 5.9579999,2.083 29.364 0 1 6.2910889,8.620151 5.9579999,2.083 29.364 0 1 5.7634724,8.3571181 5.9579999,2.083 29.364 0 1 5.2405071,8.0734144 5.9579999,2.083 29.364 0 1 4.8751545,7.8610244 5.9579999,2.083 29.364 0 1 4.3744099,7.5483818 5.9579999,2.083 29.364 0 1 3.8912353,7.2233373 5.9579999,2.083 29.364 0 1 3.4323485,6.8879572 5.9579999,2.083 29.364 0 1 3.0024006,6.5479261 5.9579999,2.083 29.364 0 1 2.6050089,6.2032444 5.9579999,2.083 29.364 0 1 2.3430094,5.9541641 Z M 8.621179,9.4877983 a 5.9579999,2.083 29.364 0 0 0.00103,5.167e-4 v -0.00103 a 3.969,3.969 0 0 1 -0.00103,5.167e-4 z"
     id="path2"
     inkscape:connector-curvature="0" />
  <path
     d="m 2.4802565,2.8381753 a 5.958,2.083 29.364 0 0 -1.37,0.506 5.958,2.083 29.364 0 0 4.13,4.73 5.958,2.083 29.364 0 0 6.2420005,1.138 5.958,2.083 29.364 0 0 -1.232,-2.608 3.945,3.945 0 0 1 -0.03,0.245 4.766,1.785 29.307 0 1 0.375,1.516 4.766,1.785 29.307 0 1 -5.0550005,-0.806 4.766,1.785 29.307 0 1 -3.244,-3.884 4.766,1.785 29.307 0 1 1.461,-0.445 c 0.067,-0.057 0.137,-0.11 0.208,-0.162 a 5.958,2.083 29.364 0 0 -1.485,-0.23 z"
     id="path6"
     inkscape:connector-curvature="0"
     style="opacity:0.75;fill:#bde6fb;fill-opacity:1" />
</svg>
