<?xml version="1.0" encoding="UTF-8" standalone="no"?>
<svg
   width="48"
   height="48"
   viewBox="0 0 12.7 12.7"
   version="1.1"
   id="svg4"
   sodipodi:docname="korganizer.svg"
   inkscape:version="0.92.5 (2060ec1f9f, 2020-04-08)"
   xmlns:inkscape="http://www.inkscape.org/namespaces/inkscape"
   xmlns:sodipodi="http://sodipodi.sourceforge.net/DTD/sodipodi-0.dtd"
   xmlns="http://www.w3.org/2000/svg"
   xmlns:svg="http://www.w3.org/2000/svg">
  <sodipodi:namedview
     id="namedview1"
     pagecolor="#505050"
     bordercolor="#eeeeee"
     borderopacity="1"
     inkscape:showpageshadow="0"
     inkscape:pageopacity="0"
     inkscape:pagecheckerboard="0"
     inkscape:deskcolor="#d1d1d1" />
  <defs
     id="defs8">
    <style
       id="current-color-scheme"
       type="text/css">&#10;      .ColorScheme-Highlight {&#10;        color:#1e3f5a;&#10;      }&#10;  </style>
  </defs>
  <path
     class="ColorScheme-Highlight"
     style="fill:#bde6fb;fill-opacity:1;stroke-width:0.264583"
     d="M 6.3499999,0 A 6.3499999,6.3499999 0 0 0 0,6.3499999 6.3499999,6.3499999 0 0 0 6.3499999,12.7 6.3499999,6.3499999 0 0 0 12.7,6.3499999 6.3499999,6.3499999 0 0 0 6.3499999,0 Z m 0,0.79374999 A 5.5562499,5.5562499 0 0 1 11.90625,6.3499999 5.5562499,5.5562499 0 0 1 6.3499999,11.90625 5.5562499,5.5562499 0 0 1 0.79374999,6.3499999 5.5562499,5.5562499 0 0 1 6.3499999,0.79374999 Z M 4.4979166,2.6458333 v 0.2645833 6.6145833 0.2645833 h 0.2645833 4.4979167 c 0.1465791,0 0.2645833,-0.1180042 0.2645833,-0.2645833 V 2.9104166 c 0,-0.1465791 -0.1180042,-0.2645833 -0.2645833,-0.2645833 H 4.7624999 Z M 3.175,3.175 V 3.7041666 H 4.2333333 V 3.175 Z m 1.8520833,0 H 8.9958332 V 9.2604166 H 5.0270833 Z m 0.5291666,0.5291666 v 0.79375 h 2.9104167 v -0.79375 z M 3.175,4.2333333 V 4.7624999 H 4.2333333 V 4.2333333 Z m 0,1.0583333 V 5.8208333 H 4.2333333 V 5.2916666 Z m 0,1.0583333 V 6.8791666 H 4.2333333 V 6.3499999 Z m 0,1.0583333 V 7.9374999 H 4.2333333 V 7.4083332 Z m 0,1.0583334 V 8.9958332 H 4.2333333 V 8.4666666 Z"
     id="path840" />
</svg>
