<?xml version="1.0" encoding="UTF-8" standalone="no"?>
<svg
   width="47.546455"
   height="47.546455"
   viewBox="0 0 12.58 12.58"
   version="1.1"
   id="svg8"
   sodipodi:docname="kreversi.svg"
   inkscape:version="0.92.4 (5da689c313, 2019-01-14)"
   xmlns:inkscape="http://www.inkscape.org/namespaces/inkscape"
   xmlns:sodipodi="http://sodipodi.sourceforge.net/DTD/sodipodi-0.dtd"
   xmlns="http://www.w3.org/2000/svg"
   xmlns:svg="http://www.w3.org/2000/svg"
   xmlns:rdf="http://www.w3.org/1999/02/22-rdf-syntax-ns#"
   xmlns:cc="http://creativecommons.org/ns#"
   xmlns:dc="http://purl.org/dc/elements/1.1/">
  <metadata
     id="metadata14">
    <rdf:RDF>
      <cc:Work
         rdf:about="">
        <dc:format>image/svg+xml</dc:format>
        <dc:type
           rdf:resource="http://purl.org/dc/dcmitype/StillImage" />
        <dc:title />
      </cc:Work>
    </rdf:RDF>
  </metadata>
  <defs
     id="defs12" />
  <sodipodi:namedview
     pagecolor="#ffffff"
     bordercolor="#666666"
     borderopacity="1"
     objecttolerance="10"
     gridtolerance="10"
     guidetolerance="10"
     inkscape:pageopacity="0"
     inkscape:pageshadow="2"
     inkscape:window-width="862"
     inkscape:window-height="480"
     id="namedview10"
     showgrid="false"
     inkscape:zoom="4.9166667"
     inkscape:cx="2.1355932"
     inkscape:cy="24"
     inkscape:window-x="0"
     inkscape:window-y="25"
     inkscape:window-maximized="0"
     inkscape:current-layer="svg8"
     inkscape:showpageshadow="0"
     inkscape:pagecheckerboard="0"
     inkscape:deskcolor="#d1d1d1" />
  <path
     d="M 6.29,9.9999768e-4 A 6.29,6.29 0 0 0 0,6.291 6.29,6.29 0 0 0 6.29,12.58 6.29,6.29 0 0 0 12.58,6.29 6.29,6.29 0 0 0 6.29,0 Z M 6.272,0.938 A 5.407,5.407 0 0 1 11.679,6.345 5.407,5.407 0 0 1 6.272,11.752 5.407,5.407 0 0 1 0.866,6.345 5.407,5.407 0 0 1 6.272,0.939 Z"
     id="path2"
     inkscape:connector-curvature="0"
     style="fill:#bde6fb;fill-opacity:1" />
  <path
     d="M 6.609,2.094 C 5.5,2.094 4.602,2.831 4.602,4 c 0,1.168 0.972,1.829 1.904,2.116 0.911,0.281 2.11,1.16 2.11,2.328 0,1.095 -0.788,1.996 -1.8,2.106 2.068,-0.118 3.712,-1.96 3.712,-4.222 0,-2.338 -1.754,-4.234 -3.919,-4.234 z m 0.11,1.059 A 0.847,0.847 0 0 1 7.566,4 0.847,0.847 0 0 1 6.719,4.846 0.847,0.847 0 0 1 5.872,4 0.847,0.847 0 0 1 6.719,3.153 Z"
     id="path4"
     inkscape:connector-curvature="0"
     style="opacity:0.75;fill:#d40000" />
  <path
     d="M 5.98,2.094 C 5.91,2.094 5.84,2.099 5.77,2.106 5.84,2.102 5.91,2.094 5.98,2.094 Z M 5.77,2.106 c -2.066,0.119 -3.709,1.96 -3.709,4.222 0,2.337 1.755,4.233 3.92,4.233 1.108,0 2.007,-0.736 2.007,-1.905 C 7.988,7.487 7.014,6.826 6.083,6.539 5.171,6.259 3.973,5.379 3.973,4.211 3.973,3.117 4.76,2.217 5.77,2.106 Z M 5.872,7.81 A 0.847,0.847 0 0 1 6.719,8.656 0.847,0.847 0 0 1 5.872,9.503 0.847,0.847 0 0 1 5.026,8.656 0.847,0.847 0 0 1 5.872,7.81 Z"
     id="path6"
     inkscape:connector-curvature="0"
     style="opacity:0.75;fill:#800080" />
</svg>
