<?xml version="1.0" encoding="UTF-8" standalone="no"?>
<svg
   width="48"
   height="48"
   viewBox="0 0 12.7 12.7"
   version="1.1"
   id="svg4"
   sodipodi:docname="krita.svg"
   inkscape:version="0.92.5 (2060ec1f9f, 2020-04-08)"
   xmlns:inkscape="http://www.inkscape.org/namespaces/inkscape"
   xmlns:sodipodi="http://sodipodi.sourceforge.net/DTD/sodipodi-0.dtd"
   xmlns="http://www.w3.org/2000/svg"
   xmlns:svg="http://www.w3.org/2000/svg">
  <sodipodi:namedview
     id="namedview1"
     pagecolor="#505050"
     bordercolor="#eeeeee"
     borderopacity="1"
     inkscape:showpageshadow="0"
     inkscape:pageopacity="0"
     inkscape:pagecheckerboard="0"
     inkscape:deskcolor="#d1d1d1" />
  <defs
     id="defs8">
    <style
       id="current-color-scheme"
       type="Highlight/css">&#10;      .ColorScheme-Highlight {&#10;        color:#1e3f5a;&#10;      }&#10;  </style>
  </defs>
  <path
     class="ColorScheme-Highlight"
     style="fill:#bde6fb;fill-opacity:1;stroke-width:0.264583"
     d="M 6.3499999,0 A 6.3499999,6.3499999 0 0 0 0,6.3499999 6.3499999,6.3499999 0 0 0 6.3499999,12.7 6.3499999,6.3499999 0 0 0 12.7,6.3499999 6.3499999,6.3499999 0 0 0 6.3499999,0 Z m 0,0.79374999 A 5.5562499,5.5562499 0 0 1 11.90625,6.3499999 5.5562499,5.5562499 0 0 1 6.3499999,11.90625 5.5562499,5.5562499 0 0 1 0.79374999,6.3499999 5.5562499,5.5562499 0 0 1 6.3499999,0.79374999 Z M 2.9104166,3.175 V 3.4395833 L 7.8568845,8.3860512 C 7.9065278,9.3563119 8.8625158,9.2925907 9.1363931,9.7714966 9.2618053,9.9911007 9.0156603,10.271881 8.7870606,10.287227 9.2410856,10.436981 9.7752835,9.573489 9.5916624,9.0810994 9.4332352,8.4666666 9.2604166,8.3095176 8.6883586,8.1488565 8.5203053,8.077202 8.2370564,8.1177319 8.0610066,8.0610066 L 7.9271647,7.9271647 7.8139932,7.8021076 7.8052082,7.8052082 3.175,3.175 Z M 3.9522135,6.682796 C 3.8360847,6.683431 3.8006858,6.8512157 3.8008014,7.0812215 3.8227619,7.5360402 4.1104465,8.8625867 5.5391967,9.8293742 6.7425217,10.643497 8.7667041,10.516657 8.7312499,10.054167 8.2470624,9.4527684 7.4189166,9.6419457 7.4083332,8.2020832 6.9373749,8.2055228 6.6257701,8.1511882 6.6445555,8.3493612 6.7236659,9.1796236 5.4072398,8.5808261 4.8968585,7.7338948 4.3844434,6.957756 4.1015218,6.6819684 3.9522135,6.682796 Z m 1.8763713,1.0242269 c -0.078052,0 -0.1406343,0.02567 -0.1705322,0.076998 C 5.5987854,7.8869438 5.6949493,8.0534205 5.8735433,8.156608 6.052137,8.2597955 6.2449934,8.2600476 6.3045247,8.1571371 6.3637916,8.0542142 6.2671113,7.8877376 6.0885172,7.7845501 5.9990881,7.7329561 5.8285848,7.7070354 5.8285848,7.7070354 Z"
     id="path817" />
</svg>
