<?xml version="1.0" encoding="UTF-8" standalone="no"?>
<svg
   width="47.546486"
   height="47.546486"
   viewBox="0 0 12.580008 12.580008"
   version="1.1"
   id="svg4"
   sodipodi:docname="kronometer.svg"
   inkscape:version="0.92.4 (5da689c313, 2019-01-14)"
   xmlns:inkscape="http://www.inkscape.org/namespaces/inkscape"
   xmlns:sodipodi="http://sodipodi.sourceforge.net/DTD/sodipodi-0.dtd"
   xmlns="http://www.w3.org/2000/svg"
   xmlns:svg="http://www.w3.org/2000/svg"
   xmlns:rdf="http://www.w3.org/1999/02/22-rdf-syntax-ns#"
   xmlns:cc="http://creativecommons.org/ns#"
   xmlns:dc="http://purl.org/dc/elements/1.1/">
  <metadata
     id="metadata10">
    <rdf:RDF>
      <cc:Work
         rdf:about="">
        <dc:format>image/svg+xml</dc:format>
        <dc:type
           rdf:resource="http://purl.org/dc/dcmitype/StillImage" />
        <dc:title />
      </cc:Work>
    </rdf:RDF>
  </metadata>
  <defs
     id="defs8" />
  <sodipodi:namedview
     pagecolor="#ffffff"
     bordercolor="#666666"
     borderopacity="1"
     objecttolerance="10"
     gridtolerance="10"
     guidetolerance="10"
     inkscape:pageopacity="0"
     inkscape:pageshadow="2"
     inkscape:window-width="1087"
     inkscape:window-height="480"
     id="namedview6"
     showgrid="false"
     inkscape:zoom="4.9166667"
     inkscape:cx="2.1355932"
     inkscape:cy="24"
     inkscape:window-x="0"
     inkscape:window-y="25"
     inkscape:window-maximized="0"
     inkscape:current-layer="svg4"
     inkscape:showpageshadow="0"
     inkscape:pagecheckerboard="0"
     inkscape:deskcolor="#d1d1d1" />
  <path
     d="M 6.2900079,0 A 6.29,6.29 0 0 0 7.9490244e-6,6.3 6.29,6.29 0 0 0 6.3000079,12.58 6.29,6.29 0 0 0 12.580008,6.29 6.29,6.29 0 0 0 6.2900079,0 Z m -0.01,0.94 A 5.4,5.4 0 0 1 11.680008,6.34 5.4,5.4 0 0 1 6.2800079,11.75 5.4,5.4 0 0 1 0.87000795,6.35 5.4,5.4 0 0 1 6.2700079,0.93 Z m -0.17,0.91 c -0.15,0 -0.29,0.01 -0.42,0.03 v 0.84 a 3.44,3.44 0 0 1 0.84,0 V 1.87 a 4.58,4.58 0 0 0 -0.42,-0.02 z m 0.74,0.08 -0.22,0.82 c 0.28,0.04 0.56,0.11 0.81,0.21 l 0.22,-0.81 c -0.26,-0.1 -0.53,-0.17 -0.81,-0.22 z m 1.12,0.34 -0.42,0.73 c 0.26,0.12 0.5,0.26 0.73,0.43 l 0.42,-0.74 c -0.23,-0.16 -0.47,-0.3 -0.73,-0.42 z m -2.48,0.2 c -0.28,0.05 -0.55,0.12 -0.81,0.22 l 0.07,0.27 c 0.26,-0.1 0.54,-0.17 0.82,-0.21 l -0.08,-0.27 z m -0.98,0.3 c -0.26,0.1 -0.5,0.25 -0.73,0.42 l 0.14,0.24 c 0.23,-0.17 0.47,-0.3 0.73,-0.42 l -0.14,-0.25 z m 4.46,0.12 -0.6,0.6 c 0.22,0.18 0.42,0.38 0.6,0.6 l 0.6,-0.6 a 4.5,4.5 0 0 0 -0.6,-0.6 z m -5.34,0.4 c -0.22,0.18 -0.42,0.38 -0.6,0.6 l 0.2,0.2 c 0.18,-0.22 0.38,-0.42 0.6,-0.6 z m 6.14,0.47 -0.74,0.42 c 0.17,0.23 0.31,0.47 0.42,0.73 L 10.190008,4.49 c -0.12,-0.26 -0.2600001,-0.5 -0.4200001,-0.73 z m -1.29,0.17 c -0.05,0 -0.1,0.02 -0.13,0.05 l -1.97,1.97 -0.08,-0.02 a 0.37,0.37 0 1 0 0.36,0.26 l 1.95,-1.95 a 0.19,0.19 0 0 0 -0.13,-0.31 z m -5.55,0.1 c -0.16,0.23 -0.3,0.47 -0.42,0.73 l 0.24,0.14 c 0.12,-0.26 0.26,-0.5 0.43,-0.73 z M 10.330008,4.78 9.5000079,5 c 0.1,0.26 0.18,0.54 0.22,0.82 L 10.540008,5.6 a 4.47,4.47 0 0 0 -0.22,-0.82 z M 2.4200079,4.93 c -0.1,0.26 -0.17,0.54 -0.2,0.82 l 0.27,0.07 c 0.04,-0.28 0.11,-0.55 0.21,-0.82 l -0.25,-0.07 z m -0.23,1 a 3.94,3.94 0 0 0 0,0.84 h 0.28 a 3.65,3.65 0 0 1 0,-0.84 z m 7.54,0 a 3.7,3.7 0 0 1 0,0.84 h 0.8400001 a 4.59,4.59 0 0 0 0,-0.84 H 9.7500079 Z m -7.24,0.95 -0.28,0.07 c 0.05,0.28 0.12,0.56 0.22,0.82 l 0.27,-0.07 c -0.1,-0.27 -0.17,-0.54 -0.21,-0.82 z m 7.22,0 c -0.04,0.28 -0.11,0.56 -0.22,0.82 l 0.8200001,0.22 c 0.1,-0.27 0.17,-0.54 0.22,-0.82 z m -6.96,0.92 -0.24,0.13 c 0.11,0.26 0.26,0.5 0.42,0.73 l 0.25,-0.14 c -0.17,-0.23 -0.31,-0.47 -0.42,-0.73 z m 6.7,0 c -0.1,0.26 -0.25,0.5 -0.42,0.73 l 0.74,0.42 c 0.16,-0.22 0.3000001,-0.47 0.4200001,-0.73 z m -6.22,0.82 -0.2,0.2 c 0.18,0.22 0.38,0.42 0.6,0.6 l 0.2,-0.2 a 3.66,3.66 0 0 1 -0.6,-0.6 z m 5.73,0 c -0.17,0.22 -0.37,0.42 -0.6,0.6 l 0.6,0.6 c 0.23,-0.18 0.43,-0.38 0.6,-0.6 z m -5.04,0.66 -0.43,0.73 c 0.23,0.17 0.48,0.31 0.73,0.43 l 0.43,-0.74 c -0.26,-0.1 -0.5,-0.25 -0.73,-0.42 z m 4.36,0 c -0.23,0.17 -0.47,0.31 -0.73,0.43 l 0.42,0.73 c 0.26,-0.12 0.5,-0.26 0.73,-0.42 z m -3.53,0.47 -0.22,0.82 c 0.26,0.1 0.53,0.17 0.82,0.21 l 0.22,-0.82 a 3.63,3.63 0 0 1 -0.82,-0.21 z m 2.7,0 c -0.26,0.1 -0.54,0.17 -0.82,0.21 l 0.22,0.82 c 0.28,-0.05 0.55,-0.12 0.81,-0.22 l -0.22,-0.81 z m -1.77,0.23 v 0.85 a 4.56,4.56 0 0 0 0.84,0 V 9.98 a 3.7,3.7 0 0 1 -0.84,0 z"
     id="path2"
     inkscape:connector-curvature="0"
     style="fill:#bde6fb;fill-opacity:1" />
</svg>
