<?xml version="1.0" encoding="UTF-8" standalone="no"?>
<svg
   width="47.372601"
   height="47.372601"
   viewBox="0 0 12.534001 12.534001"
   version="1.1"
   id="svg4"
   sodipodi:docname="kruler.svg"
   inkscape:version="0.92.4 (5da689c313, 2019-01-14)"
   xmlns:inkscape="http://www.inkscape.org/namespaces/inkscape"
   xmlns:sodipodi="http://sodipodi.sourceforge.net/DTD/sodipodi-0.dtd"
   xmlns="http://www.w3.org/2000/svg"
   xmlns:svg="http://www.w3.org/2000/svg"
   xmlns:rdf="http://www.w3.org/1999/02/22-rdf-syntax-ns#"
   xmlns:cc="http://creativecommons.org/ns#"
   xmlns:dc="http://purl.org/dc/elements/1.1/">
  <metadata
     id="metadata10">
    <rdf:RDF>
      <cc:Work
         rdf:about="">
        <dc:format>image/svg+xml</dc:format>
        <dc:type
           rdf:resource="http://purl.org/dc/dcmitype/StillImage" />
        <dc:title />
      </cc:Work>
    </rdf:RDF>
  </metadata>
  <defs
     id="defs8" />
  <sodipodi:namedview
     pagecolor="#ffffff"
     bordercolor="#666666"
     borderopacity="1"
     objecttolerance="10"
     gridtolerance="10"
     guidetolerance="10"
     inkscape:pageopacity="0"
     inkscape:pageshadow="2"
     inkscape:window-width="1087"
     inkscape:window-height="480"
     id="namedview6"
     showgrid="false"
     inkscape:zoom="4.9166667"
     inkscape:cx="2.1355932"
     inkscape:cy="24"
     inkscape:window-x="0"
     inkscape:window-y="25"
     inkscape:window-maximized="0"
     inkscape:current-layer="svg4"
     inkscape:showpageshadow="0"
     inkscape:pagecheckerboard="0"
     inkscape:deskcolor="#d1d1d1" />
  <path
     d="M 6.266,0 A 6.267,6.267 0 0 0 0,6.267 6.267,6.267 0 0 0 6.268,12.534 6.267,6.267 0 0 0 12.534,6.267 6.267,6.267 0 0 0 6.267,0 Z M 6.249,0.932 a 5.388,5.388 0 0 1 5.388,5.39 5.388,5.388 0 0 1 -0.382,1.977 V 7.709 H 10.726 V 9.314 A 5.388,5.388 0 0 1 10.197,9.977 V 7.708 h -0.53 v 2.772 a 5.388,5.388 0 0 1 -0.528,0.387 v -3.16 h -0.53 v 3.452 A 5.388,5.388 0 0 1 8.08,11.382 V 5.65 H 7.551 v 5.894 A 5.388,5.388 0 0 1 7.022,11.648 V 7.708 H 6.492 V 11.7 A 5.388,5.388 0 0 1 6.249,11.709 5.388,5.388 0 0 1 5.964,11.695 V 7.707 h -0.53 v 3.932 A 5.388,5.388 0 0 1 4.905,11.531 V 7.708 H 4.376 v 3.658 A 5.388,5.388 0 0 1 3.847,11.138 V 7.707 h -0.53 v 3.129 A 5.388,5.388 0 0 1 2.789,10.45 V 5.65 H 2.259 V 9.935 A 5.388,5.388 0 0 1 1.73,9.255 V 7.708 H 1.201 v 0.49 A 5.388,5.388 0 0 1 0.85999999,6.321 5.388,5.388 0 0 1 6.249,0.932 Z"
     id="path2"
     inkscape:connector-curvature="0"
     style="fill:#bde6fb;fill-opacity:1" />
</svg>
