<?xml version="1.0" encoding="UTF-8" standalone="no"?>
<svg
   width="47.546455"
   height="47.546455"
   viewBox="0 0 12.58 12.58"
   version="1.1"
   id="svg4"
   sodipodi:docname="ksirk.svg"
   inkscape:version="0.92.4 (5da689c313, 2019-01-14)"
   xmlns:inkscape="http://www.inkscape.org/namespaces/inkscape"
   xmlns:sodipodi="http://sodipodi.sourceforge.net/DTD/sodipodi-0.dtd"
   xmlns="http://www.w3.org/2000/svg"
   xmlns:svg="http://www.w3.org/2000/svg"
   xmlns:rdf="http://www.w3.org/1999/02/22-rdf-syntax-ns#"
   xmlns:cc="http://creativecommons.org/ns#"
   xmlns:dc="http://purl.org/dc/elements/1.1/">
  <metadata
     id="metadata10">
    <rdf:RDF>
      <cc:Work
         rdf:about="">
        <dc:format>image/svg+xml</dc:format>
        <dc:type
           rdf:resource="http://purl.org/dc/dcmitype/StillImage" />
        <dc:title />
      </cc:Work>
    </rdf:RDF>
  </metadata>
  <defs
     id="defs8" />
  <sodipodi:namedview
     pagecolor="#ffffff"
     bordercolor="#666666"
     borderopacity="1"
     objecttolerance="10"
     gridtolerance="10"
     guidetolerance="10"
     inkscape:pageopacity="0"
     inkscape:pageshadow="2"
     inkscape:window-width="862"
     inkscape:window-height="480"
     id="namedview6"
     showgrid="false"
     inkscape:zoom="4.9166667"
     inkscape:cx="2.1355932"
     inkscape:cy="24"
     inkscape:window-x="0"
     inkscape:window-y="25"
     inkscape:window-maximized="0"
     inkscape:current-layer="svg4"
     inkscape:showpageshadow="0"
     inkscape:pagecheckerboard="0"
     inkscape:deskcolor="#d1d1d1" />
  <path
     d="M 6.29,9.9999768e-4 A 6.29,6.29 0 0 0 0,6.291 6.29,6.29 0 0 0 6.29,12.58 6.29,6.29 0 0 0 12.58,6.29 6.29,6.29 0 0 0 6.29,0 Z M 6.272,0.938 A 5.407,5.407 0 0 1 11.679,6.345 5.407,5.407 0 0 1 6.272,11.752 5.407,5.407 0 0 1 0.866,6.345 5.407,5.407 0 0 1 6.272,0.939 Z m 1.87,3.028 A 0.218,0.218 0 0 0 7.924,4.184 V 4.212 L 2.264,4.59 A 0.217,0.217 0 0 0 1.831,4.619 V 5.923 A 0.217,0.217 0 0 0 2.263,5.951 L 3.938,6.063 C 3.999,5.979 4.038,5.878 4.112,5.805 A 2.002,2.002 0 0 1 5.939,5.259 1.995,1.995 0 0 1 6.955,5.805 c 0.137,0.137 0.231,0.31 0.324,0.481 l 0.645,0.043 v 0.03 a 0.218,0.218 0 0 0 0.435,0 c 0.444,0 0.807,-0.38 0.861,-0.871 h 0.226 c 0.12,0 0.217,-0.097 0.217,-0.217 A 0.216,0.216 0 0 0 9.446,5.054 H 9.221 C 9.167,4.563 8.804,4.184 8.359,4.184 A 0.217,0.217 0 0 0 8.141,3.966 Z m 0,2.61 H 7.083 a 1.676,1.676 0 0 0 -1.55,-1.03 c -0.931,0 -1.681,0.75 -1.681,1.681 0,0.931 0.75,1.68 1.68,1.68 0.858,0 1.56,-0.635 1.666,-1.462 h 0.963 c 0.652,0 1.522,1.956 2.174,1.956 0.217,0 0.217,-0.87 0,-0.87 C 9.941,8.531 9.049,6.924 8.361,6.623 8.27,6.575 8.161,6.575 8.161,6.575 H 8.141 Z M 5.45,5.887 V 6.408 C 5.4,6.46 5.365,6.599 5.365,6.765 V 6.822 L 5.325,6.782 C 5.209,6.665 5.085,6.591 5.013,6.589 L 4.644,6.219 C 4.861,6.028 5.141,5.906 5.45,5.887 Z m 0.167,0 c 0.31,0.02 0.589,0.14 0.806,0.332 l -0.37,0.37 C 5.983,6.591 5.858,6.665 5.742,6.781 L 5.702,6.822 V 6.765 C 5.702,6.599 5.666,6.46 5.617,6.408 v -0.52 z m -1.092,0.45 0.37,0.37 C 4.897,6.778 4.971,6.902 5.088,7.02 l 0.04,0.04 H 5.071 C 4.906,7.06 4.766,7.095 4.714,7.144 H 4.194 C 4.212,6.834 4.334,6.555 4.525,6.338 Z m 2.017,0 C 6.733,6.555 6.855,6.835 6.874,7.144 H 6.352 C 6.301,7.094 6.162,7.059 5.996,7.059 H 5.939 l 0.04,-0.04 C 6.096,6.902 6.17,6.779 6.172,6.707 Z M 4.193,7.311 H 4.714 C 4.766,7.36 4.906,7.395 5.071,7.395 h 0.057 l -0.04,0.04 C 4.971,7.552 4.897,7.675 4.895,7.747 l -0.37,0.37 A 1.338,1.338 0 0 1 4.193,7.311 Z m 2.16,0 h 0.52 C 6.855,7.62 6.733,7.899 6.541,8.117 L 6.172,7.747 C 6.17,7.676 6.096,7.552 5.979,7.436 l -0.04,-0.04 h 0.057 c 0.165,0 0.305,-0.036 0.356,-0.085 z M 5.365,7.633 V 7.69 c 0,0.165 0.036,0.305 0.085,0.356 V 8.567 A 1.336,1.336 0 0 1 4.644,8.235 l 0.37,-0.37 c 0.07,0 0.195,-0.075 0.311,-0.192 z m 0.336,0 0.041,0.04 c 0.116,0.117 0.24,0.191 0.312,0.192 l 0.369,0.37 A 1.336,1.336 0 0 1 5.617,8.567 V 8.047 C 5.667,7.995 5.701,7.855 5.701,7.69 Z"
     id="path2"
     inkscape:connector-curvature="0"
     style="fill:#bde6fb;fill-opacity:1" />
</svg>
