<?xml version="1.0" encoding="UTF-8" standalone="no"?>
<svg
   width="47.546455"
   height="47.546455"
   viewBox="0 0 12.58 12.58"
   version="1.1"
   id="svg4"
   sodipodi:docname="kspaceduel.svg"
   inkscape:version="0.92.4 (5da689c313, 2019-01-14)"
   xmlns:inkscape="http://www.inkscape.org/namespaces/inkscape"
   xmlns:sodipodi="http://sodipodi.sourceforge.net/DTD/sodipodi-0.dtd"
   xmlns="http://www.w3.org/2000/svg"
   xmlns:svg="http://www.w3.org/2000/svg"
   xmlns:rdf="http://www.w3.org/1999/02/22-rdf-syntax-ns#"
   xmlns:cc="http://creativecommons.org/ns#"
   xmlns:dc="http://purl.org/dc/elements/1.1/">
  <metadata
     id="metadata10">
    <rdf:RDF>
      <cc:Work
         rdf:about="">
        <dc:format>image/svg+xml</dc:format>
        <dc:type
           rdf:resource="http://purl.org/dc/dcmitype/StillImage" />
        <dc:title />
      </cc:Work>
    </rdf:RDF>
  </metadata>
  <defs
     id="defs8" />
  <sodipodi:namedview
     pagecolor="#ffffff"
     bordercolor="#666666"
     borderopacity="1"
     objecttolerance="10"
     gridtolerance="10"
     guidetolerance="10"
     inkscape:pageopacity="0"
     inkscape:pageshadow="2"
     inkscape:window-width="862"
     inkscape:window-height="480"
     id="namedview6"
     showgrid="false"
     inkscape:zoom="4.9166667"
     inkscape:cx="2.1355932"
     inkscape:cy="24"
     inkscape:window-x="0"
     inkscape:window-y="25"
     inkscape:window-maximized="0"
     inkscape:current-layer="svg4"
     inkscape:showpageshadow="0"
     inkscape:pagecheckerboard="0"
     inkscape:deskcolor="#d1d1d1" />
  <path
     d="M 6.29,9.9999768e-4 A 6.29,6.29 0 0 0 0,6.291 6.29,6.29 0 0 0 6.29,12.58 6.29,6.29 0 0 0 12.58,6.29 6.29,6.29 0 0 0 6.29,0 Z M 6.272,0.938 A 5.407,5.407 0 0 1 11.679,6.345 5.407,5.407 0 0 1 6.272,11.752 5.407,5.407 0 0 1 0.866,6.345 5.407,5.407 0 0 1 6.272,0.939 Z m 0.025,1.388 c -0.625,0 -0.521,2.288 -1.25,2.704 -1.332,0.82 -1.999,1.256 -2.342,1.653 0.017,0.202 0.054,0.356 0.054,0.584 0,0.371 -0.046,0.66 -0.088,0.95 0.528,-0.063 1.573,-0.361 2.168,-0.065 0.422,0.22 0.416,1.842 0.624,1.946 0.142,0.071 0.362,0.103 0.592,0.118 -0.01,-0.014 -0.02,-0.02 -0.03,-0.036 A 2.156,2.156 0 0 1 5.803,9.609 6.028,6.028 0 0 1 5.654,8.76 9.62,9.62 0 0 1 5.6,7.719 V 7.702 A 0.857,0.857 0 0 1 5.685,7.609 3.37,3.37 0 0 1 5.672,7.319 V 6.903 c 0,-0.804 0.28,-1.457 0.625,-1.457 0.344,0 0.623,0.653 0.623,1.457 v 0.416 c 0,0.1 -0.004,0.197 -0.012,0.29 0.03,0.029 0.059,0.059 0.085,0.093 v 0.017 c 0,0.37 -0.02,0.721 -0.055,1.041 A 6.03,6.03 0 0 1 6.79,9.609 2.16,2.16 0 0 1 6.568,10.18 c -0.01,0.016 -0.02,0.022 -0.03,0.036 0.23,-0.015 0.449,-0.047 0.59,-0.118 C 7.337,9.994 7.33,8.373 7.752,8.152 8.347,7.856 9.394,8.155 9.922,8.218 9.88,7.927 9.833,7.638 9.833,7.268 9.833,7.038 9.87,6.885 9.887,6.683 9.544,6.286 8.877,5.85 7.545,5.03 6.92,4.614 6.921,2.326 6.297,2.326 Z m 0.611,5.283 a 0.773,0.773 0 0 0 -1.223,0 l -0.013,0.23 c 0,0 0.278,2.393 0.625,2.393 0.345,0 0.623,-2.392 0.623,-2.392 L 6.908,7.61 Z M 2.343,5.867 c -0.172,0 -0.311,0.627 -0.311,1.4 0,0.774 0.139,1.4 0.31,1.4 0.173,0 0.312,-0.626 0.312,-1.4 0,-0.773 -0.14,-1.4 -0.311,-1.4 z m 7.906,0 c -0.171,0 -0.311,0.627 -0.311,1.4 0,0.774 0.14,1.4 0.311,1.4 0.172,0 0.311,-0.626 0.311,-1.4 0,-0.773 -0.139,-1.4 -0.31,-1.4 z"
     id="path2"
     inkscape:connector-curvature="0"
     style="fill:#bde6fb;fill-opacity:1" />
</svg>
