<?xml version="1.0" encoding="UTF-8" standalone="no"?>
<svg
   width="47.546486"
   height="47.546486"
   viewBox="0 0 12.580008 12.580008"
   version="1.1"
   id="svg4"
   sodipodi:docname="kstars.svg"
   inkscape:version="0.92.4 (5da689c313, 2019-01-14)"
   xmlns:inkscape="http://www.inkscape.org/namespaces/inkscape"
   xmlns:sodipodi="http://sodipodi.sourceforge.net/DTD/sodipodi-0.dtd"
   xmlns="http://www.w3.org/2000/svg"
   xmlns:svg="http://www.w3.org/2000/svg"
   xmlns:rdf="http://www.w3.org/1999/02/22-rdf-syntax-ns#"
   xmlns:cc="http://creativecommons.org/ns#"
   xmlns:dc="http://purl.org/dc/elements/1.1/">
  <metadata
     id="metadata10">
    <rdf:RDF>
      <cc:Work
         rdf:about="">
        <dc:format>image/svg+xml</dc:format>
        <dc:type
           rdf:resource="http://purl.org/dc/dcmitype/StillImage" />
        <dc:title />
      </cc:Work>
    </rdf:RDF>
  </metadata>
  <defs
     id="defs8" />
  <sodipodi:namedview
     pagecolor="#ffffff"
     bordercolor="#666666"
     borderopacity="1"
     objecttolerance="10"
     gridtolerance="10"
     guidetolerance="10"
     inkscape:pageopacity="0"
     inkscape:pageshadow="2"
     inkscape:window-width="861"
     inkscape:window-height="480"
     id="namedview6"
     showgrid="false"
     inkscape:zoom="4.9166667"
     inkscape:cx="2.1355932"
     inkscape:cy="24"
     inkscape:window-x="0"
     inkscape:window-y="25"
     inkscape:window-maximized="0"
     inkscape:current-layer="svg4"
     inkscape:showpageshadow="0"
     inkscape:pagecheckerboard="0"
     inkscape:deskcolor="#d1d1d1" />
  <path
     d="M 6.2900079,0 A 6.29,6.29 0 0 0 7.9490244e-6,6.3 6.29,6.29 0 0 0 6.3000079,12.58 6.29,6.29 0 0 0 12.580008,6.29 6.29,6.29 0 0 0 6.2900079,0 Z m -0.02,0.93 0.01,0.01 A 5.4,5.4 0 0 1 11.680008,6.34 5.4,5.4 0 0 1 6.2800079,11.75 5.4,5.4 0 0 1 0.87000795,6.35 5.4,5.4 0 0 1 6.2700079,0.93 Z m 3.586,2.136 -0.508,0.195 0.7550001,1.97 0.508,-0.195 z m -0.787,0.472 -1.805,0.82 0.552,1.452 1.897,-0.594 z m -2.153,0.923 -0.508,0.195 0.573,1.494 0.508,-0.195 z m -0.815,0.424 -1.927,0.878 0.412,1.068 1.281,-0.404 -1.536,3.873 a 0.172,0.172 0 0 0 0.098,0.233 c 0.11,0.046 0.204,-0.027 0.233,-0.098 l 1.24,-3.13 v 2.272 c 0,0.106 0.086,0.184 0.184,0.184 a 0.183,0.183 0 0 0 0.184,-0.184 V 7.305 l 1.24,3.138 c 0.035,0.09 0.14,0.132 0.233,0.098 0.091,-0.035 0.133,-0.14 0.099,-0.233 l -1.586,-4.008 0.347,-0.106 z m -2.281,0.971 -0.508,0.195 0.435,1.137 0.509,-0.194 z m -0.806,0.43 -0.786,0.36 0.313,0.821 0.828,-0.26 -0.355,-0.922 z m -1.074,0.62 -0.245,0.093 0.215,0.563 0.245,-0.094 -0.215,-0.563 z"
     id="path2"
     inkscape:connector-curvature="0"
     style="fill:#bde6fb;fill-opacity:1" />
</svg>
