<?xml version="1.0" encoding="UTF-8" standalone="no"?>
<svg
   width="47.357479"
   height="47.357479"
   viewBox="0 0 12.53 12.53"
   version="1.1"
   id="svg4"
   sodipodi:docname="kteatime.svg"
   inkscape:version="0.92.4 (5da689c313, 2019-01-14)"
   xmlns:inkscape="http://www.inkscape.org/namespaces/inkscape"
   xmlns:sodipodi="http://sodipodi.sourceforge.net/DTD/sodipodi-0.dtd"
   xmlns="http://www.w3.org/2000/svg"
   xmlns:svg="http://www.w3.org/2000/svg"
   xmlns:rdf="http://www.w3.org/1999/02/22-rdf-syntax-ns#"
   xmlns:cc="http://creativecommons.org/ns#"
   xmlns:dc="http://purl.org/dc/elements/1.1/">
  <metadata
     id="metadata10">
    <rdf:RDF>
      <cc:Work
         rdf:about="">
        <dc:format>image/svg+xml</dc:format>
        <dc:type
           rdf:resource="http://purl.org/dc/dcmitype/StillImage" />
        <dc:title />
      </cc:Work>
    </rdf:RDF>
  </metadata>
  <defs
     id="defs8" />
  <sodipodi:namedview
     pagecolor="#ffffff"
     bordercolor="#666666"
     borderopacity="1"
     objecttolerance="10"
     gridtolerance="10"
     guidetolerance="10"
     inkscape:pageopacity="0"
     inkscape:pageshadow="2"
     inkscape:window-width="862"
     inkscape:window-height="480"
     id="namedview6"
     showgrid="false"
     inkscape:zoom="4.9166667"
     inkscape:cx="2.1355932"
     inkscape:cy="24"
     inkscape:window-x="0"
     inkscape:window-y="25"
     inkscape:window-maximized="0"
     inkscape:current-layer="svg4"
     inkscape:showpageshadow="0"
     inkscape:pagecheckerboard="0"
     inkscape:deskcolor="#d1d1d1" />
  <path
     d="M 6.26,0 A 6.27,6.27 0 0 0 0,6.26 6.27,6.27 0 0 0 6.26,12.53 6.27,6.27 0 0 0 12.53,6.26 6.27,6.27 0 0 0 6.26,0 Z M 6.25,0.92 a 5.39,5.39 0 0 1 5.37,5.4 5.39,5.39 0 0 1 -5.38,5.39 5.39,5.39 0 0 1 -5.4,-5.4 5.39,5.39 0 0 1 5.4,-5.38 z m -0.63,2.6 c -2.08,0 -3.79,0.6 -3.91,1.36 H 1.7 v 0.94 c 0.03,2.43 1.77,4.39 3.92,4.39 1.28,0 2.42,-0.71 3.14,-1.8 0.8,-0.08 2.31,-0.34 2.2,-2.2 A 0.7,0.7 0 0 0 10.88,5.92 0.73,0.73 0 0 0 10.68,5.7 C 10.39,5.5 9.95,5.46 9.53,5.46 V 4.89 C 9.4,4.13 7.7,3.53 5.62,3.53 Z m 0,0.97 C 7.24,4.49 8.6,4.89 9,5.43 8.6,5.97 7.23,6.37 5.62,6.37 4,6.37 2.64,5.97 2.24,5.43 2.64,4.89 4,4.49 5.62,4.49 Z m 3.9,1.63 h 0.8 C 10.35,7.42 9.62,7.58 9.19,7.57 9.37,7.12 9.48,6.64 9.52,6.12 Z"
     id="path2"
     inkscape:connector-curvature="0"
     style="fill:#bde6fb;fill-opacity:1" />
</svg>
