<?xml version="1.0" encoding="UTF-8" standalone="no"?>
<svg
   width="47.372601"
   height="47.372601"
   viewBox="0 0 12.534001 12.534001"
   version="1.1"
   id="svg4"
   sodipodi:docname="ktorrent.svg"
   inkscape:version="0.92.4 (5da689c313, 2019-01-14)"
   xmlns:inkscape="http://www.inkscape.org/namespaces/inkscape"
   xmlns:sodipodi="http://sodipodi.sourceforge.net/DTD/sodipodi-0.dtd"
   xmlns="http://www.w3.org/2000/svg"
   xmlns:svg="http://www.w3.org/2000/svg"
   xmlns:rdf="http://www.w3.org/1999/02/22-rdf-syntax-ns#"
   xmlns:cc="http://creativecommons.org/ns#"
   xmlns:dc="http://purl.org/dc/elements/1.1/">
  <metadata
     id="metadata10">
    <rdf:RDF>
      <cc:Work
         rdf:about="">
        <dc:format>image/svg+xml</dc:format>
        <dc:type
           rdf:resource="http://purl.org/dc/dcmitype/StillImage" />
        <dc:title />
      </cc:Work>
    </rdf:RDF>
  </metadata>
  <defs
     id="defs8" />
  <sodipodi:namedview
     pagecolor="#ffffff"
     bordercolor="#666666"
     borderopacity="1"
     objecttolerance="10"
     gridtolerance="10"
     guidetolerance="10"
     inkscape:pageopacity="0"
     inkscape:pageshadow="2"
     inkscape:window-width="1087"
     inkscape:window-height="480"
     id="namedview6"
     showgrid="false"
     inkscape:zoom="4.9166667"
     inkscape:cx="2.1355932"
     inkscape:cy="24"
     inkscape:window-x="0"
     inkscape:window-y="25"
     inkscape:window-maximized="0"
     inkscape:current-layer="svg4"
     inkscape:showpageshadow="0"
     inkscape:pagecheckerboard="0"
     inkscape:deskcolor="#d1d1d1" />
  <path
     d="M 6.266,0 A 6.267,6.267 0 0 0 0,6.267 6.267,6.267 0 0 0 6.268,12.534 6.267,6.267 0 0 0 12.534,6.267 6.267,6.267 0 0 0 6.267,0 Z M 6.249,0.932 A 5.388,5.388 0 0 1 11.637,6.322 5.388,5.388 0 0 1 6.249,11.709 5.388,5.388 0 0 1 0.85899999,6.321 5.388,5.388 0 0 1 6.249,0.932 Z M 4.614,2.1 V 6.826 C 4.454,6.883 4.292,7.064 4.156,7.202 3.951,7.412 3.768,7.426 3.622,7.301 3.476,7.176 3.604,6.835 3.435,6.493 3.267,6.151 2.932,6.321 2.885,6.553 2.838,6.783 3.308,6.939 3.217,7.067 3.125,7.196 2.761,7.167 2.654,6.925 2.547,6.683 2.313,6.761 2.308,6.959 2.303,7.157 2.489,7.019 2.634,7.164 l 3.742,3.743 3.741,-3.742 C 10.557,6.725 10.054,6.914 9.95,7.013 9.846,7.112 9.526,7.192 9.488,7.083 9.45,6.975 9.847,6.793 9.96,6.671 10.073,6.548 10.184,6.199 10.001,6.071 9.818,5.944 9.559,6.174 9.446,6.344 9.333,6.514 9.431,6.946 9.28,7.078 9.13,7.21 9.046,7.13 9.018,7.017 8.989,6.904 9.344,6.745 9.195,6.463 9.046,6.182 8.772,6.309 8.645,6.441 8.517,6.573 8.721,6.777 8.768,6.984 8.815,7.192 8.333,7.186 8.144,7.111 L 8.136,7.106 V 2.1 Z M 3.724,3.772 A 0.149,0.149 0 0 0 3.682,3.784 C 3.57,3.833 3.532,3.992 3.679,4.326 3.826,4.659 4.034,4.891 4.146,4.842 4.257,4.792 4.229,4.482 4.082,4.149 3.954,3.856 3.828,3.759 3.725,3.772 Z m 5.055,0.377 a 0.22,0.22 0 1 0 0,0.44 0.22,0.22 0 0 0 0,-0.44 z m 1.326,0.72 a 0.3305,0.3305 0 1 0 0,0.661 0.33,0.33 0 0 0 0,-0.66 z M 9.115,4.914 C 8.998,4.886 8.95,5.106 8.922,5.313 8.895,5.519 8.792,5.733 8.881,5.773 9.005,5.829 9.068,5.49 9.208,5.363 9.348,5.236 9.232,4.941 9.115,4.913 Z m -6.37,0.048 a 0.33,0.33 0 1 0 0,0.66 0.33,0.33 0 0 0 0,-0.66 z M 4.018,5.344 C 3.931,5.337 3.812,5.424 3.92,5.547 4.065,5.711 4.14,6.003 4.012,6.061 3.882,6.12 3.892,5.844 3.881,5.696 3.869,5.549 3.511,5.461 3.379,5.643 3.247,5.826 3.38,6.022 3.511,6.061 c 0.13,0.04 0.15,0.19 0.229,0.346 0.077,0.155 0.456,0.116 0.549,0 A 0.4,0.4 0 0 0 4.259,5.873 C 4.079,5.673 4.133,5.488 4.085,5.385 4.073,5.36 4.047,5.347 4.018,5.345 Z m -2.044,0.72 a 0.22,0.22 0 1 0 0,0.44 0.22,0.22 0 0 0 0,-0.44 z m 8.584,0.219 a 0.22,0.22 0 1 0 0,0.44 0.22,0.22 0 0 0 0,-0.44 z"
     id="path2"
     inkscape:connector-curvature="0"
     style="fill:#bde6fb;fill-opacity:1" />
</svg>
