<?xml version="1.0" encoding="UTF-8" standalone="no"?>
<svg
   width="47.546455"
   height="47.546455"
   viewBox="0 0 12.58 12.58"
   version="1.1"
   id="svg6"
   sodipodi:docname="kturtle.svg"
   inkscape:version="0.92.4 (5da689c313, 2019-01-14)"
   inkscape:export-filename="kturtle.svg"
   inkscape:export-xdpi="96"
   inkscape:export-ydpi="96"
   xmlns:inkscape="http://www.inkscape.org/namespaces/inkscape"
   xmlns:sodipodi="http://sodipodi.sourceforge.net/DTD/sodipodi-0.dtd"
   xmlns:xlink="http://www.w3.org/1999/xlink"
   xmlns="http://www.w3.org/2000/svg"
   xmlns:svg="http://www.w3.org/2000/svg"
   xmlns:rdf="http://www.w3.org/1999/02/22-rdf-syntax-ns#"
   xmlns:cc="http://creativecommons.org/ns#"
   xmlns:dc="http://purl.org/dc/elements/1.1/">
  <metadata
     id="metadata12">
    <rdf:RDF>
      <cc:Work
         rdf:about="">
        <dc:format>image/svg+xml</dc:format>
        <dc:type
           rdf:resource="http://purl.org/dc/dcmitype/StillImage" />
        <dc:title />
      </cc:Work>
    </rdf:RDF>
  </metadata>
  <defs
     id="defs10">
    <linearGradient
       id="swatch1"
       inkscape:swatch="solid">
      <stop
         style="stop-color:#bde6fb;stop-opacity:1;"
         offset="0"
         id="stop1" />
    </linearGradient>
    <linearGradient
       inkscape:collect="always"
       xlink:href="#swatch1"
       id="linearGradient1"
       x1="3.1278741"
       y1="6.0636721"
       x2="9.5731335"
       y2="6.0636721"
       gradientUnits="userSpaceOnUse" />
  </defs>
  <sodipodi:namedview
     pagecolor="#ffffff"
     bordercolor="#666666"
     borderopacity="1"
     objecttolerance="10"
     gridtolerance="10"
     guidetolerance="10"
     inkscape:pageopacity="0"
     inkscape:pageshadow="2"
     inkscape:window-width="1112"
     inkscape:window-height="480"
     id="namedview8"
     showgrid="false"
     inkscape:zoom="4.9166667"
     inkscape:cx="2.1355932"
     inkscape:cy="24"
     inkscape:window-x="0"
     inkscape:window-y="25"
     inkscape:window-maximized="0"
     inkscape:current-layer="svg6"
     inkscape:showpageshadow="0"
     inkscape:pagecheckerboard="0"
     inkscape:deskcolor="#d1d1d1" />
  <path
     d="m 6.29,0 a 6.29,6.29 0 0 0 0,12.58 A 6.29,6.29 0 0 0 6.29,0 Z M 6.27,0.93 a 5.417,5.417 0 0 1 5.41,5.41 5.4,5.4 0 0 1 -5.4,5.41 5.4,5.4 0 0 1 -5.41,-5.4 5.4,5.4 0 0 1 5.4,-5.42 z M 6.3,3.732 c -1.308,0 -2.361,1.317 -2.361,2.952 0,1.635 1.053,2.95 2.361,2.95 1.308,0 2.361,-1.315 2.361,-2.95 C 8.661,5.049 7.608,3.732 6.3,3.732 Z"
     id="path2"
     inkscape:connector-curvature="0"
     style="fill:#bde6fb;fill-opacity:1" />
  <path
     d="m 6.3,2.158 c -0.545,0 -0.984,0.527 -0.984,1.18 V 4.006 C 5.338,3.994 5.357,3.976 5.379,3.964 A 1.929,1.929 0 0 1 6.777,3.792 c 0.154,0.04 0.302,0.097 0.444,0.172 0.022,0.011 0.04,0.03 0.063,0.042 V 3.34 C 7.284,2.686 6.845,2.16 6.3,2.16 Z M 4.12,3.93 A 0.77,0.77 0 0 0 3.575,5.246 L 4.088,5.759 C 4.107,5.687 4.101,5.603 4.124,5.534 4.244,5.18 4.416,4.862 4.629,4.596 4.701,4.506 4.783,4.432 4.863,4.354 L 4.665,4.156 A 0.769,0.769 0 0 0 4.12,3.93 Z m 4.36,0 A 0.768,0.768 0 0 0 7.935,4.156 L 7.737,4.354 C 7.817,4.432 7.899,4.506 7.971,4.596 8.184,4.862 8.357,5.18 8.476,5.534 8.499,5.603 8.493,5.687 8.512,5.759 L 9.025,5.247 A 0.77,0.77 0 0 0 8.48,3.93 Z M 4.17,7.92 3.575,8.515 a 0.77,0.77 0 0 0 0,1.09 0.77,0.77 0 0 0 1.09,0 L 5.074,9.197 C 5.043,9.173 5.008,9.157 4.978,9.132 A 2.566,2.566 0 0 1 4.629,8.772 3.077,3.077 0 0 1 4.17,7.92 Z m 4.26,0 C 8.313,8.235 8.165,8.53 7.97,8.772 A 2.566,2.566 0 0 1 7.622,9.132 C 7.592,9.157 7.557,9.173 7.526,9.197 l 0.409,0.408 a 0.77,0.77 0 0 0 1.09,0 0.77,0.77 0 0 0 0,-1.09 z"
     id="path4"
     inkscape:connector-curvature="0"
     style="fill:url(#linearGradient1);stroke:#ffffff;stroke-width:0.541;stroke-opacity:1" />
</svg>
