<?xml version="1.0" encoding="UTF-8" standalone="no"?>
<svg
   width="47.546455"
   height="47.546455"
   viewBox="0 0 12.58 12.58"
   version="1.1"
   id="svg4"
   sodipodi:docname="kubrick.svg"
   inkscape:version="0.92.4 (5da689c313, 2019-01-14)"
   xmlns:inkscape="http://www.inkscape.org/namespaces/inkscape"
   xmlns:sodipodi="http://sodipodi.sourceforge.net/DTD/sodipodi-0.dtd"
   xmlns="http://www.w3.org/2000/svg"
   xmlns:svg="http://www.w3.org/2000/svg"
   xmlns:rdf="http://www.w3.org/1999/02/22-rdf-syntax-ns#"
   xmlns:cc="http://creativecommons.org/ns#"
   xmlns:dc="http://purl.org/dc/elements/1.1/">
  <metadata
     id="metadata10">
    <rdf:RDF>
      <cc:Work
         rdf:about="">
        <dc:format>image/svg+xml</dc:format>
        <dc:type
           rdf:resource="http://purl.org/dc/dcmitype/StillImage" />
        <dc:title />
      </cc:Work>
    </rdf:RDF>
  </metadata>
  <defs
     id="defs8" />
  <sodipodi:namedview
     pagecolor="#ffffff"
     bordercolor="#666666"
     borderopacity="1"
     objecttolerance="10"
     gridtolerance="10"
     guidetolerance="10"
     inkscape:pageopacity="0"
     inkscape:pageshadow="2"
     inkscape:window-width="862"
     inkscape:window-height="480"
     id="namedview6"
     showgrid="false"
     inkscape:zoom="4.9166667"
     inkscape:cx="2.1355932"
     inkscape:cy="24"
     inkscape:window-x="0"
     inkscape:window-y="25"
     inkscape:window-maximized="0"
     inkscape:current-layer="svg4"
     inkscape:showpageshadow="0"
     inkscape:pagecheckerboard="0"
     inkscape:deskcolor="#d1d1d1" />
  <path
     d="m 6.29,0 a 6.29,6.29 0 1 0 0,12.58 A 6.29,6.29 0 0 0 6.29,0 Z M 6.27,0.93 a 5.417,5.417 0 0 1 5.41,5.41 5.4,5.4 0 0 1 -5.4,5.41 5.4,5.4 0 0 1 -5.41,-5.4 5.4,5.4 0 0 1 5.4,-5.42 z M 6.3,2.576 A 0.155,0.155 0 0 0 6.234,2.591 L 2.979,4.14 A 0.155,0.155 0 0 0 2.905,4.273 v 3.704 c 0,0.055 0.03,0.107 0.077,0.134 l 3.24,1.851 H 6.223 A 0.154,0.154 0 0 0 6.377,9.963 L 9.617,8.111 A 0.155,0.155 0 0 0 9.696,7.977 V 4.274 A 0.155,0.155 0 0 0 9.621,4.142 L 6.367,2.59 A 0.157,0.157 0 0 0 6.3,2.575 Z M 4.718,3.655 5.941,4.237 4.569,4.89 3.405,4.28 Z m 3.164,0 L 9.196,4.28 8.031,4.89 6.659,4.237 Z M 9.387,4.529 V 6.032 L 8.152,6.679 V 5.176 Z M 4.757,5.337 6.146,6.065 V 7.568 L 4.756,6.841 V 5.337 Z M 3.213,6.381 4.448,7.028 V 8.594 L 3.213,7.888 Z M 7.843,7.19 V 8.77 L 6.455,9.564 V 7.917 L 7.844,7.19 Z"
     id="path2"
     inkscape:connector-curvature="0"
     style="fill:#bde6fb;fill-opacity:1" />
</svg>
