<?xml version="1.0" encoding="UTF-8" standalone="no"?>
<svg
   width="48"
   height="48"
   viewBox="0 0 12.7 12.7"
   version="1.1"
   id="svg4"
   sodipodi:docname="kuiviewer.svg"
   inkscape:version="0.92.5 (2060ec1f9f, 2020-04-08)"
   xmlns:inkscape="http://www.inkscape.org/namespaces/inkscape"
   xmlns:sodipodi="http://sodipodi.sourceforge.net/DTD/sodipodi-0.dtd"
   xmlns="http://www.w3.org/2000/svg"
   xmlns:svg="http://www.w3.org/2000/svg">
  <sodipodi:namedview
     id="namedview1"
     pagecolor="#505050"
     bordercolor="#eeeeee"
     borderopacity="1"
     inkscape:showpageshadow="0"
     inkscape:pageopacity="0"
     inkscape:pagecheckerboard="0"
     inkscape:deskcolor="#d1d1d1" />
  <defs
     id="defs8">
    <style
       id="current-color-scheme"
       type="Highlight/css">&#10;      .ColorScheme-Highlight {&#10;        color:#1e3f5a;&#10;      }&#10;  </style>
  </defs>
  <path
     class="ColorScheme-Highlight"
     style="fill:#bde6fb;fill-opacity:1;stroke-width:0.264583"
     d="M 6.3499999,0 A 6.3499999,6.3499999 0 0 0 0,6.3499999 6.3499999,6.3499999 0 0 0 6.3499999,12.7 6.3499999,6.3499999 0 0 0 12.7,6.3499999 6.3499999,6.3499999 0 0 0 6.3499999,0 Z m 0,0.79374999 A 5.5562499,5.5562499 0 0 1 11.90625,6.3499999 5.5562499,5.5562499 0 0 1 6.3499999,11.90625 5.5562499,5.5562499 0 0 1 0.79374999,6.3499999 5.5562499,5.5562499 0 0 1 6.3499999,0.79374999 Z M 4.4979166,3.175 4.2762246,4.0617674 a 1.3229167,1.3229167 0 0 0 -0.03824,0.017052 L 3.4530191,3.6080475 3.0788819,3.9821847 3.5491372,4.7655995 a 1.3229167,1.3229167 0 0 0 -0.015502,0.039791 l -0.887802,0.2216931 v 0.5291666 l 0.8867674,0.221692 a 1.3229167,1.3229167 0 0 0 0.017052,0.03824 L 3.0788808,6.6011474 3.453018,6.9752847 4.2364329,6.5050293 a 1.3229167,1.3229167 0 0 0 0.039791,0.015502 l 0.221693,0.8878019 h 0.5291667 l 0.221692,-0.8867674 a 1.3229167,1.3229167 0 0 0 0.03824,-0.017052 L 6.0719808,6.9752857 6.446118,6.6011485 5.9758627,5.8177337 A 1.3229167,1.3229167 0 0 0 5.9913646,5.777943 L 6.8791666,5.5562499 V 5.0270833 L 5.9923991,4.8053913 A 1.3229167,1.3229167 0 0 0 5.9753467,4.7671508 L 6.4461191,3.9821858 6.0719818,3.6080485 5.288567,4.0783039 A 1.3229167,1.3229167 0 0 0 5.2487763,4.0628019 L 5.0270833,3.175 Z m 0.2645833,1.3229166 a 0.79374999,0.79374999 0 0 1 0.79375,0.79375 0.79374999,0.79374999 0 0 1 -0.79375,0.79375 0.79374999,0.79374999 0 0 1 -0.7937499,-0.79375 0.79374999,0.79374999 0 0 1 0.7937499,-0.79375 z"
     id="path817" />
  <path
     style="fill:#aa8800;stroke-width:0.264583"
     d="M 7.6729166,5.2916666 7.4512246,6.178434 a 1.3229167,1.3229167 0 0 0 -0.03824,0.017052 L 6.6280191,5.7247141 6.2538818,6.0988513 6.7241372,6.8822662 a 1.3229167,1.3229167 0 0 0 -0.015502,0.039791 l -0.8878019,0.221693 v 0.5291667 l 0.8867674,0.221692 a 1.3229167,1.3229167 0 0 0 0.017052,0.038241 L 6.2538808,8.7178141 6.628018,9.0919513 7.4114328,8.621696 a 1.3229167,1.3229167 0 0 0 0.039791,0.015502 L 7.6729169,9.525 H 8.2020832 L 8.4237752,8.6382324 A 1.3229167,1.3229167 0 0 0 8.4620157,8.62118 L 9.2469807,9.0919524 9.621118,8.7178151 9.1508626,7.9344003 a 1.3229167,1.3229167 0 0 0 0.015502,-0.039791 L 10.054167,7.6729166 V 7.1437499 L 9.1673991,6.9220579 A 1.3229167,1.3229167 0 0 0 9.1503467,6.8838174 L 9.621119,6.0988524 9.2469818,5.7247152 8.463567,6.1949705 A 1.3229167,1.3229167 0 0 0 8.4237763,6.1794686 L 8.2020832,5.2916666 Z m 0.2645833,1.3229167 a 0.79374999,0.79374999 0 0 1 0.79375,0.7937499 0.79374999,0.79374999 0 0 1 -0.79375,0.79375 0.79374999,0.79374999 0 0 1 -0.79375,-0.79375 0.79374999,0.79374999 0 0 1 0.79375,-0.7937499 z"
     id="path825" />
</svg>
