<?xml version="1.0" encoding="UTF-8" standalone="no"?>
<svg
   width="48"
   height="48"
   viewBox="0 0 12.7 12.7"
   version="1.1"
   id="svg4"
   sodipodi:docname="kwalletmanager.svg"
   inkscape:version="0.92.5 (2060ec1f9f, 2020-04-08)"
   xmlns:inkscape="http://www.inkscape.org/namespaces/inkscape"
   xmlns:sodipodi="http://sodipodi.sourceforge.net/DTD/sodipodi-0.dtd"
   xmlns="http://www.w3.org/2000/svg"
   xmlns:svg="http://www.w3.org/2000/svg">
  <sodipodi:namedview
     id="namedview1"
     pagecolor="#505050"
     bordercolor="#eeeeee"
     borderopacity="1"
     inkscape:showpageshadow="0"
     inkscape:pageopacity="0"
     inkscape:pagecheckerboard="0"
     inkscape:deskcolor="#d1d1d1" />
  <defs
     id="defs8">
    <style
       id="current-color-scheme"
       type="Highlight/css">&#10;      .ColorScheme-Highlight {&#10;        color:#1e3f5a;&#10;      }&#10;  </style>
  </defs>
  <path
     class="ColorScheme-Highlight"
     style="fill:#bde6fb;fill-opacity:1;stroke-width:0.264583"
     d="M 6.3499999,0 A 6.3499999,6.3499999 0 0 0 0,6.3499999 6.3499999,6.3499999 0 0 0 6.3499999,12.7 6.3499999,6.3499999 0 0 0 12.7,6.3499999 6.3499999,6.3499999 0 0 0 6.3499999,0 Z m 0,0.79374999 A 5.5562499,5.5562499 0 0 1 11.90625,6.3499999 5.5562499,5.5562499 0 0 1 6.3499999,11.90625 5.5562499,5.5562499 0 0 1 0.79374999,6.3499999 5.5562499,5.5562499 0 0 1 6.3499999,0.79374999 Z M 3.4395833,3.4395833 c -0.2931583,0 -0.5291667,0.2360083 -0.5291667,0.5291667 v 4.7624999 c 0,0.2931583 0.2360084,0.5291667 0.5291667,0.5291667 h 5.8208333 c 0.2931583,0 0.5291666,-0.2360084 0.5291666,-0.5291667 V 3.96875 c 0,-0.2931584 -0.2360083,-0.5291667 -0.5291666,-0.5291667 z m 3.9687499,1.8520833 h 0.79375 0.5291667 0.5291667 V 5.4528971 7.2471028 7.4083332 H 8.7312499 8.2020832 7.4083332 c -0.5863166,0 -1.0583333,-0.4720166 -1.0583333,-1.0583333 0,-0.5863166 0.4720167,-1.0583333 1.0583333,-1.0583333 z m 0,0.5291667 A 0.52916663,0.52916663 0 0 0 6.8791666,6.3499999 0.52916663,0.52916663 0 0 0 7.4083332,6.8791666 0.52916663,0.52916663 0 0 0 7.9374999,6.3499999 0.52916663,0.52916663 0 0 0 7.4083332,5.8208333 Z"
     id="rect849" />
</svg>
