<?xml version="1.0" encoding="UTF-8" standalone="no"?>
<svg
   width="47.546875"
   height="47.542969"
   viewBox="0 0 12.580111 12.579077"
   version="1.1"
   id="svg6"
   sodipodi:docname="kxstitch.svg"
   inkscape:version="0.92.4 (5da689c313, 2019-01-14)"
   xmlns:inkscape="http://www.inkscape.org/namespaces/inkscape"
   xmlns:sodipodi="http://sodipodi.sourceforge.net/DTD/sodipodi-0.dtd"
   xmlns="http://www.w3.org/2000/svg"
   xmlns:svg="http://www.w3.org/2000/svg"
   xmlns:rdf="http://www.w3.org/1999/02/22-rdf-syntax-ns#"
   xmlns:cc="http://creativecommons.org/ns#"
   xmlns:dc="http://purl.org/dc/elements/1.1/">
  <metadata
     id="metadata12">
    <rdf:RDF>
      <cc:Work
         rdf:about="">
        <dc:format>image/svg+xml</dc:format>
        <dc:type
           rdf:resource="http://purl.org/dc/dcmitype/StillImage" />
        <dc:title />
      </cc:Work>
    </rdf:RDF>
  </metadata>
  <defs
     id="defs10" />
  <sodipodi:namedview
     pagecolor="#ffffff"
     bordercolor="#666666"
     borderopacity="1"
     objecttolerance="10"
     gridtolerance="10"
     guidetolerance="10"
     inkscape:pageopacity="0"
     inkscape:pageshadow="2"
     inkscape:window-width="1138"
     inkscape:window-height="480"
     id="namedview8"
     showgrid="false"
     inkscape:zoom="2.4583333"
     inkscape:cx="2.1355932"
     inkscape:cy="24"
     inkscape:window-x="0"
     inkscape:window-y="25"
     inkscape:window-maximized="0"
     inkscape:current-layer="svg6"
     inkscape:showpageshadow="0"
     inkscape:pagecheckerboard="0"
     inkscape:deskcolor="#d1d1d1" />
  <path
     style="fill:#bde6fb;fill-opacity:1;stroke-width:1"
     d="M 6.2900551,0 V 0.0010335 A 6.2899998,6.2899998 0 0 0 0,6.2910888 6.2899998,6.2899998 0 0 0 6.2900551,12.579077 6.2899998,6.2899998 0 0 0 12.580111,6.2900553 6.2899998,6.2899998 0 0 0 6.2900551,0 Z m -0.01757,0.93741046 A 5.4070001,5.4070001 0 0 1 11.679391,6.3443156 5.4070001,5.4070001 0 0 1 6.2724852,11.751221 5.4070001,5.4070001 0 0 1 0.866097,6.3443156 5.4070001,5.4070001 0 0 1 6.2724852,0.93792726 Z M 7.3943807,2.0164144 c -0.4030001,0.024 -0.6893279,0.3469964 -0.7653282,0.8629964 -0.024,0.163 -0.022651,0.3095178 -0.00465,0.4475179 -0.094,0.1320001 -0.1592837,0.2461199 -0.1782837,0.2811198 L 2.8964641,9.2630004 c -0.028,0.043 -0.061389,0.096197 -0.027389,0.160197 l 0.034106,0.059945 h 0.068213 c 0.06,0 0.09199,-0.040065 0.12299,-0.079065 L 7.1794068,4.2782917 c 0.2599999,0.22 0.5716944,0.3876834 0.8536945,0.5296834 -0.1259999,0.3900001 -0.292926,0.8193606 -0.4909262,1.2903605 -0.544,1.2920001 -0.2900159,2.3599756 0.091984,2.6039754 A 0.11569177,0.11569177 0 1 0 7.7581828,8.5069742 C 7.4881827,8.3349741 7.250082,7.3872192 7.7550822,6.1872192 7.9490821,5.7252191 8.1153909,5.3029119 8.2423909,4.9139119 l 0.094051,0.048059 c 0.625,0.331 1.1225799,1.7600519 1.1275797,1.7740521 a 0.116,0.116 0 1 0 0.2180747,-0.074931 c -0.021,-0.062 -0.5326841,-1.5297264 -1.2386842,-1.9027264 A 11.066,11.066 0 0 0 8.3111204,4.690153 C 8.5231205,3.9781529 8.5911972,3.3829748 8.4521973,2.865975 8.3171971,2.362975 7.8523806,1.9894144 7.3943807,2.0164144 Z m 0.044958,0.2299601 c 0.3040001,0 0.6741326,0.2465451 0.7901329,0.6795451 0.125,0.462 0.063876,1.0052968 -0.1271241,1.6582966 C 7.8353477,4.4482164 7.5531006,4.2944242 7.3241008,4.0974242 7.4771006,3.8994243 7.7780289,3.4640612 7.738029,3.1460611 A 0.37399999,0.37399999 0 0 0 7.5804159,2.8794108 0.41399999,0.41399999 0 0 0 7.3401202,2.8013794 c -0.1799997,0 -0.3506104,0.1175499 -0.4966104,0.2635499 0.003,-0.05 0.00699,-0.099929 0.014986,-0.1519288 0.06,-0.407 0.2598373,-0.6495925 0.5498373,-0.6655924 z M 7.2651894,3.0602784 c 0.04,0 0.077138,0.010073 0.1121381,0.033073 0.058,0.036 0.090085,0.090647 0.095084,0.1586466 0.01,0.167 -0.1832377,0.410265 -0.3772379,0.609265 A 1.178,1.178 0 0 1 6.8781331,3.4199464 c 0.112,-0.2000001 0.2460565,-0.359668 0.3870563,-0.359668 z M 6.7355061,3.7170856 c 0.051,0.1110002 0.1167196,0.2129245 0.1917197,0.3059245 -0.087,0.08 -0.1598539,0.1430827 -0.1958539,0.1720826 h 0.00103 L 6.5045124,4.3831951 6.5944294,4.1020753 c 0.026,-0.082 0.075077,-0.2279896 0.1410767,-0.3849897 z"
     id="path2"
     inkscape:connector-curvature="0" />
</svg>
