<?xml version="1.0" encoding="UTF-8" standalone="no"?>
<svg
   width="48"
   height="48"
   viewBox="0 0 12.7 12.7"
   version="1.1"
   id="svg4"
   sodipodi:docname="labplot.svg"
   inkscape:version="0.92.5 (2060ec1f9f, 2020-04-08)"
   xmlns:inkscape="http://www.inkscape.org/namespaces/inkscape"
   xmlns:sodipodi="http://sodipodi.sourceforge.net/DTD/sodipodi-0.dtd"
   xmlns="http://www.w3.org/2000/svg"
   xmlns:svg="http://www.w3.org/2000/svg">
  <sodipodi:namedview
     id="namedview1"
     pagecolor="#505050"
     bordercolor="#eeeeee"
     borderopacity="1"
     inkscape:showpageshadow="0"
     inkscape:pageopacity="0"
     inkscape:pagecheckerboard="0"
     inkscape:deskcolor="#d1d1d1" />
  <defs
     id="defs8">
    <style
       id="current-color-scheme"
       type="Highlight/css">&#10;      .ColorScheme-Highlight {&#10;        color:#1e3f5a;&#10;      }&#10;  </style>
  </defs>
  <path
     class="ColorScheme-Highlight"
     style="fill:#bde6fb;fill-opacity:1;stroke-width:0.264583"
     d="M 6.3499999,0 A 6.3499999,6.3499999 0 0 0 0,6.3499999 6.3499999,6.3499999 0 0 0 6.3499999,12.7 6.3499999,6.3499999 0 0 0 12.7,6.3499999 6.3499999,6.3499999 0 0 0 6.3499999,0 Z m 0,0.79374999 A 5.5562499,5.5562499 0 0 1 11.90625,6.3499999 5.5562499,5.5562499 0 0 1 6.3499999,11.90625 5.5562499,5.5562499 0 0 1 0.79374999,6.3499999 5.5562499,5.5562499 0 0 1 6.3499999,0.79374999 Z M 7.1690713,3.3186605 a 2.1166667,1.5875 45 0 0 -1.0221597,0.3731038 2.1166667,1.5875 45 0 0 0.3741372,2.6194784 1.8520833,1.3229167 45 0 1 0.036174,0.038757 H 5.8208333 V 6.6145833 H 6.7794311 A 1.8520833,1.3229167 45 0 1 6.8951863,8.5560669 1.8520833,1.3229167 45 0 1 4.6503621,8.1819294 L 4.4632935,8.368998 A 2.1166667,1.5875 45 0 0 7.0822549,8.7436522 2.1166667,1.5875 45 0 0 6.7081177,6.1241738 1.8520833,1.3229167 45 0 1 6.3339802,3.8793496 1.8520833,1.3229167 45 0 1 8.5788044,4.2534871 L 8.765873,4.0664185 A 2.1166667,1.5875 45 0 0 7.1690713,3.3186605 Z M 1.0583333,6.3499999 V 6.6145833 H 2.1166666 V 6.3499999 Z m 1.5875,0 V 6.6145833 H 3.7041666 V 6.3499999 Z m 1.5875,0 V 6.6145833 H 5.2916666 V 6.3499999 Z m 3.1749999,0 V 6.6145833 H 8.4666666 V 6.3499999 Z m 1.5875,0 V 6.6145833 H 10.054167 V 6.3499999 Z m 1.5874998,0 v 0.2645834 h 1.058334 V 6.3499999 Z"
     id="path817" />
</svg>
