<?xml version="1.0" encoding="UTF-8" standalone="no"?>
<svg
   width="47.546486"
   height="47.546486"
   viewBox="0 0 12.580008 12.580008"
   version="1.1"
   id="svg6"
   sodipodi:docname="lastpass.svg"
   inkscape:version="0.92.4 (5da689c313, 2019-01-14)"
   xmlns:inkscape="http://www.inkscape.org/namespaces/inkscape"
   xmlns:sodipodi="http://sodipodi.sourceforge.net/DTD/sodipodi-0.dtd"
   xmlns="http://www.w3.org/2000/svg"
   xmlns:svg="http://www.w3.org/2000/svg"
   xmlns:rdf="http://www.w3.org/1999/02/22-rdf-syntax-ns#"
   xmlns:cc="http://creativecommons.org/ns#"
   xmlns:dc="http://purl.org/dc/elements/1.1/">
  <metadata
     id="metadata12">
    <rdf:RDF>
      <cc:Work
         rdf:about="">
        <dc:format>image/svg+xml</dc:format>
        <dc:type
           rdf:resource="http://purl.org/dc/dcmitype/StillImage" />
        <dc:title />
      </cc:Work>
    </rdf:RDF>
  </metadata>
  <defs
     id="defs10" />
  <sodipodi:namedview
     pagecolor="#ffffff"
     bordercolor="#666666"
     borderopacity="1"
     objecttolerance="10"
     gridtolerance="10"
     guidetolerance="10"
     inkscape:pageopacity="0"
     inkscape:pageshadow="2"
     inkscape:window-width="1087"
     inkscape:window-height="480"
     id="namedview8"
     showgrid="false"
     inkscape:zoom="4.9166667"
     inkscape:cx="2.1355932"
     inkscape:cy="24"
     inkscape:window-x="0"
     inkscape:window-y="25"
     inkscape:window-maximized="0"
     inkscape:current-layer="svg6"
     inkscape:showpageshadow="0"
     inkscape:pagecheckerboard="0"
     inkscape:deskcolor="#d1d1d1" />
  <path
     d="M 6.2900079,0 A 6.29,6.29 0 0 0 7.9490244e-6,6.3 6.29,6.29 0 0 0 6.3000079,12.58 6.29,6.29 0 0 0 12.580008,6.29 6.29,6.29 0 0 0 6.2900079,0 Z m -0.01,0.94 A 5.4,5.4 0 0 1 11.680008,6.34 5.4,5.4 0 0 1 6.2800079,11.75 5.4,5.4 0 0 1 0.87000795,6.35 5.4,5.4 0 0 1 6.2700079,0.93 Z"
     id="path2"
     inkscape:connector-curvature="0"
     style="fill:#bde6fb;fill-opacity:1" />
  <path
     d="m 6.3000079,1.45 a 4.9,4.9 0 1 0 0,9.8 4.9,4.9 0 0 0 0,-9.8 z m -0.9,1.82 c 0.01,0 0.22,0.38 0.48,0.88 0.25,0.48 0.47,0.87 0.49,0.88 l 0.17,-0.28 c 0.4,-0.78 0.78,-1.48 0.8,-1.48 l 0.37,0.22 a 189.4,189.4 0 0 0 0.83,0.5 c 0,0 -0.02,0.06 -0.64,1.08 l -0.38,0.65 c 0,0.02 0.02,0.02 1.08,-0.01 l 0.9,-0.02 c 0.02,0.01 0,1.4 -0.01,1.42 -0.01,0.01 -0.45,0 -0.99,-0.01 -0.54,-0.02 -0.97,-0.02 -0.98,-0.01 l 0.11,0.23 0.51,0.85 0.39,0.66 -0.33,0.22 -0.6,0.35 -0.27,0.16 c -0.01,0 0,0.03 -0.52,-0.97 -0.26,-0.49 -0.43,-0.8 -0.45,-0.8 a 13.1,13.1 0 0 1 -0.98,1.74 c -0.04,0 -1.16,-0.66 -1.17,-0.69 0,-0.01 0.13,-0.26 0.3,-0.54 l 0.5,-0.85 c 0.12,-0.18 0.2,-0.34 0.19,-0.35 0,-0.02 -0.05,-0.03 -0.22,-0.02 -0.5,0.03 -1.73,0.06 -1.75,0.04 V 5.7 h 0.22 a 69.72,69.72 0 0 1 1.77,0.04 c 0,-0.02 -0.38,-0.68 -0.96,-1.64 -0.06,-0.09 -0.06,-0.1 -0.04,-0.13 0.04,-0.04 1.15,-0.7 1.18,-0.7 z"
     id="path4"
     inkscape:connector-curvature="0"
     style="opacity:0.75;fill:#d40000;fill-rule:evenodd" />
</svg>
