<?xml version="1.0" encoding="UTF-8" standalone="no"?>
<svg
   width="47.546486"
   height="47.546486"
   viewBox="0 0 12.580008 12.580008"
   version="1.1"
   id="svg4"
   sodipodi:docname="lastfm.svg"
   inkscape:version="0.92.4 (5da689c313, 2019-01-14)"
   xmlns:inkscape="http://www.inkscape.org/namespaces/inkscape"
   xmlns:sodipodi="http://sodipodi.sourceforge.net/DTD/sodipodi-0.dtd"
   xmlns="http://www.w3.org/2000/svg"
   xmlns:svg="http://www.w3.org/2000/svg"
   xmlns:rdf="http://www.w3.org/1999/02/22-rdf-syntax-ns#"
   xmlns:cc="http://creativecommons.org/ns#"
   xmlns:dc="http://purl.org/dc/elements/1.1/">
  <metadata
     id="metadata10">
    <rdf:RDF>
      <cc:Work
         rdf:about="">
        <dc:format>image/svg+xml</dc:format>
        <dc:type
           rdf:resource="http://purl.org/dc/dcmitype/StillImage" />
        <dc:title />
      </cc:Work>
    </rdf:RDF>
  </metadata>
  <defs
     id="defs8" />
  <sodipodi:namedview
     pagecolor="#ffffff"
     bordercolor="#666666"
     borderopacity="1"
     objecttolerance="10"
     gridtolerance="10"
     guidetolerance="10"
     inkscape:pageopacity="0"
     inkscape:pageshadow="2"
     inkscape:window-width="1087"
     inkscape:window-height="480"
     id="namedview6"
     showgrid="false"
     inkscape:zoom="4.9166667"
     inkscape:cx="2.1355932"
     inkscape:cy="24"
     inkscape:window-x="0"
     inkscape:window-y="25"
     inkscape:window-maximized="0"
     inkscape:current-layer="svg4"
     inkscape:showpageshadow="0"
     inkscape:pagecheckerboard="0"
     inkscape:deskcolor="#d1d1d1" />
  <path
     d="M 6.2900079,0 A 6.29,6.29 0 0 0 7.9490244e-6,6.3 6.29,6.29 0 0 0 6.3000079,12.58 6.29,6.29 0 0 0 12.580008,6.29 6.29,6.29 0 0 0 6.2900079,0 Z m -0.01,0.94 A 5.4,5.4 0 0 1 11.680008,6.34 5.4,5.4 0 0 1 6.2800079,11.75 5.4,5.4 0 0 1 0.87000795,6.35 5.4,5.4 0 0 1 6.2700079,0.93 Z m -1.47,2.89 a 2.37,2.37 0 0 0 -2.22,1.34 2.47,2.47 0 0 0 1.75,3.52 2.3,2.3 0 0 0 1.55,-0.31 c 0.3,-0.2 0.63,-0.5 0.63,-0.58 0,-0.04 -0.07,-0.2 -0.15,-0.4 l -0.14,-0.32 -0.08,0.12 c -0.14,0.23 -0.49,0.54 -0.75,0.67 -0.22,0.1 -0.32,0.12 -0.7,0.12 -0.4,0 -0.47,-0.01 -0.72,-0.14 -0.35,-0.17 -0.66,-0.5 -0.82,-0.85 -0.1,-0.23 -0.12,-0.32 -0.12,-0.74 0,-0.44 0.01,-0.51 0.14,-0.76 0.15,-0.31 0.47,-0.65 0.76,-0.8 0.3,-0.16 0.74,-0.22 1.07,-0.15 0.64,0.14 1.02,0.48 1.32,1.2 0.73,1.71 0.95,2.18 1.17,2.43 0.33,0.37 0.6,0.48 1.19,0.48 0.41,0 0.5,-0.01 0.75,-0.13 0.5600001,-0.27 0.8300001,-0.71 0.8300001,-1.33 0,-0.72 -0.3000001,-1.03 -1.3300001,-1.38 -0.73,-0.24 -0.88,-0.37 -0.88,-0.73 0,-0.36 0.23,-0.59 0.6,-0.59 0.22,0 0.35,0.05 0.53,0.23 0.09,0.08 0.15,0.11 0.23,0.09 0.15,-0.04 0.41,-0.21 0.41,-0.27 0,-0.11 -0.45,-0.52 -0.67,-0.6 a 1.37,1.37 0 0 0 -1.43,0.3 c -0.23,0.25 -0.32,0.5 -0.32,0.86 0,0.68 0.33,1.02 1.37,1.4 0.68,0.23 0.82,0.36 0.82,0.74 0,0.45 -0.37,0.77 -0.9,0.77 -0.31,0 -0.48,-0.06 -0.66,-0.23 -0.16,-0.17 -0.26,-0.36 -0.78,-1.59 -0.49,-1.17 -0.63,-1.44 -0.96,-1.75 -0.43,-0.4 -0.96,-0.6 -1.5,-0.62 z"
     id="path2"
     inkscape:connector-curvature="0"
     style="fill:#bde6fb;fill-opacity:1" />
</svg>
