<?xml version="1.0" encoding="UTF-8" standalone="no"?>
<svg
   width="47.546455"
   height="47.546455"
   viewBox="0 0 12.58 12.58"
   version="1.1"
   id="svg4"
   sodipodi:docname="latte-dock.svg"
   inkscape:version="0.92.4 (5da689c313, 2019-01-14)"
   xmlns:inkscape="http://www.inkscape.org/namespaces/inkscape"
   xmlns:sodipodi="http://sodipodi.sourceforge.net/DTD/sodipodi-0.dtd"
   xmlns="http://www.w3.org/2000/svg"
   xmlns:svg="http://www.w3.org/2000/svg"
   xmlns:rdf="http://www.w3.org/1999/02/22-rdf-syntax-ns#"
   xmlns:cc="http://creativecommons.org/ns#"
   xmlns:dc="http://purl.org/dc/elements/1.1/">
  <metadata
     id="metadata10">
    <rdf:RDF>
      <cc:Work
         rdf:about="">
        <dc:format>image/svg+xml</dc:format>
        <dc:type
           rdf:resource="http://purl.org/dc/dcmitype/StillImage" />
        <dc:title />
      </cc:Work>
    </rdf:RDF>
  </metadata>
  <defs
     id="defs8" />
  <sodipodi:namedview
     pagecolor="#ffffff"
     bordercolor="#666666"
     borderopacity="1"
     objecttolerance="10"
     gridtolerance="10"
     guidetolerance="10"
     inkscape:pageopacity="0"
     inkscape:pageshadow="2"
     inkscape:window-width="1112"
     inkscape:window-height="480"
     id="namedview6"
     showgrid="false"
     inkscape:zoom="4.9166667"
     inkscape:cx="2.1355932"
     inkscape:cy="24"
     inkscape:window-x="0"
     inkscape:window-y="25"
     inkscape:window-maximized="0"
     inkscape:current-layer="svg4"
     inkscape:showpageshadow="0"
     inkscape:pagecheckerboard="0"
     inkscape:deskcolor="#d1d1d1" />
  <path
     d="m 6.29,0 a 6.29,6.29 0 0 0 0,12.58 A 6.29,6.29 0 0 0 6.29,0 Z M 6.27,0.93 a 5.417,5.417 0 0 1 5.41,5.41 5.4,5.4 0 0 1 -5.4,5.41 5.4,5.4 0 0 1 -5.41,-5.4 5.4,5.4 0 0 1 5.4,-5.42 z M 8.168,2.65 C 7.891,2.65 7.625,2.724 7.37,2.87 7.121,3.011 6.885,3.217 6.664,3.487 a 4.49,4.49 0 0 0 -0.59,0.98 C 5.897,4.849 5.744,5.282 5.617,5.766 A 8.757,8.757 0 0 1 5.351,6.636 3.69,3.69 0 0 1 5.077,7.226 C 4.872,7.148 4.67,7.009 4.471,6.958 A 2.136,2.136 0 0 0 3.872,6.874 1.227,1.227 0 0 0 3.1,7.136 0.99,0.99 0 0 0 2.875,7.372 0.749,0.749 0 0 0 2.8,7.682 c 0,0.119 0.056,0.217 0.167,0.296 0.11,0.079 0.277,0.118 0.499,0.118 0.587,0 1.082,-0.155 1.486,-0.464 0.255,0.112 0.516,0.22 0.782,0.32 0.271,0.096 0.57,0.144 0.897,0.144 0.37,0 0.668,-0.079 0.89,-0.236 C 7.741,7.697 7.869,7.488 8.001,7.184 8.007,7.15 8,7.127 7.977,7.116 7.961,7.099 7.941,7.099 7.919,7.116 7.824,7.307 7.755,7.429 7.611,7.531 7.467,7.631 7.257,7.682 6.981,7.682 6.648,7.682 6.343,7.646 6.066,7.572 A 9.811,9.811 0 0 1 5.286,7.311 C 5.628,6.901 5.896,6.318 6.091,5.564 6.207,5.091 6.321,4.697 6.431,4.381 6.542,4.066 6.661,3.816 6.788,3.631 6.916,3.439 7.055,3.331 7.204,3.258 7.359,3.179 7.542,3.14 7.753,3.14 A 0.77,0.77 0 0 1 8.135,3.225 C 8.24,3.275 8.317,3.343 8.367,3.427 A 0.51,0.51 0 0 1 8.45,3.681 C 8.455,3.783 8.442,3.982 8.409,4.084 8.403,4.112 8.412,4.132 8.434,4.143 A 0.071,0.071 0 0 0 8.509,4.134 C 8.564,4.039 8.616,3.819 8.666,3.672 8.716,3.52 8.741,3.388 8.741,3.276 A 0.637,0.637 0 0 0 8.583,2.836 0.519,0.519 0 0 0 8.168,2.651 Z M 3.507,7.153 c 0.238,0 0.462,0.034 0.673,0.102 0.21,0.067 0.418,0.22 0.623,0.31 A 1.002,1.002 0 0 1 4.371,7.819 C 4.216,7.859 4.039,7.878 3.839,7.878 3.612,7.878 3.435,7.841 3.307,7.768 3.186,7.695 3.124,7.528 3.124,7.415 3.124,7.241 3.252,7.153 3.507,7.153 Z M 4.815,8.84 A 0.495,0.495 0 0 0 4.32,9.335 0.495,0.495 0 0 0 4.815,9.83 0.495,0.495 0 0 0 5.31,9.335 0.495,0.495 0 0 0 4.815,8.84 Z m 2.97,0 A 0.495,0.495 0 0 0 7.29,9.335 0.495,0.495 0 0 0 7.785,9.83 0.495,0.495 0 0 0 8.28,9.335 0.495,0.495 0 0 0 7.785,8.84 Z M 6.3,9.335 A 0.495,0.495 0 0 0 5.805,9.83 0.495,0.495 0 0 0 6.3,10.325 0.495,0.495 0 0 0 6.795,9.83 0.495,0.495 0 0 0 6.3,9.335 Z"
     id="path2"
     inkscape:connector-curvature="0"
     style="fill:#bde6fb;fill-opacity:1" />
</svg>
