<?xml version="1.0" encoding="UTF-8" standalone="no"?>
<svg
   width="47.542679"
   height="47.546455"
   viewBox="0 0 12.579 12.58"
   version="1.1"
   id="svg4"
   sodipodi:docname="legion.svg"
   inkscape:version="0.92.5 (2060ec1f9f, 2020-04-08)"
   xmlns:inkscape="http://www.inkscape.org/namespaces/inkscape"
   xmlns:sodipodi="http://sodipodi.sourceforge.net/DTD/sodipodi-0.dtd"
   xmlns="http://www.w3.org/2000/svg"
   xmlns:svg="http://www.w3.org/2000/svg"
   xmlns:rdf="http://www.w3.org/1999/02/22-rdf-syntax-ns#"
   xmlns:cc="http://creativecommons.org/ns#"
   xmlns:dc="http://purl.org/dc/elements/1.1/">
  <metadata
     id="metadata10">
    <rdf:RDF>
      <cc:Work
         rdf:about="">
        <dc:format>image/svg+xml</dc:format>
        <dc:type
           rdf:resource="http://purl.org/dc/dcmitype/StillImage" />
        <dc:title />
      </cc:Work>
    </rdf:RDF>
  </metadata>
  <defs
     id="defs8" />
  <sodipodi:namedview
     pagecolor="#ffffff"
     bordercolor="#666666"
     borderopacity="1"
     objecttolerance="10"
     gridtolerance="10"
     guidetolerance="10"
     inkscape:pageopacity="0"
     inkscape:pageshadow="2"
     inkscape:window-width="1085"
     inkscape:window-height="480"
     id="namedview6"
     showgrid="false"
     inkscape:zoom="4.9166667"
     inkscape:cx="2.1355932"
     inkscape:cy="24"
     inkscape:window-x="0"
     inkscape:window-y="25"
     inkscape:window-maximized="0"
     inkscape:current-layer="svg4"
     inkscape:showpageshadow="0"
     inkscape:pagecheckerboard="0"
     inkscape:deskcolor="#d1d1d1" />
  <path
     d="M 6.285,0 A 6.295,6.295 0 0 0 0,6.285 6.295,6.295 0 0 0 6.285,12.58 6.295,6.295 0 0 0 8.064,12.32 C 8.048,12.312 8.028,12.307 8.012,12.3 A 10.797,10.797 0 0 1 6.985,11.791 C 6.927,11.758 6.904,11.729 6.848,11.696 A 5.407,5.407 0 0 1 3.223,10.79 4.205,4.205 0 0 1 2.122,10.66 C 2.316,10.575 2.474,10.447 2.634,10.32 A 5.407,5.407 0 0 1 0.857,6.327 C 0.857,3.34 3.287,0.94 6.274,0.94 a 5.408,5.408 0 0 1 5.397,5.387 5.407,5.407 0 0 1 -1.111,3.269 7.037,7.037 0 0 0 -0.009,0.321 c -0.003,0.29 0.017,0.582 0.094,0.872 0,0.005 0.005,0.01 0.006,0.013 A 6.295,6.295 0 0 0 12.579,6.285 6.295,6.295 0 0 0 6.285,0 Z M 6.538,1.782 H 6.539 V 1.783 A 7.36,7.36 0 0 0 6.057,1.799 11.508,11.508 0 0 0 5.621,1.835 0.557,0.557 0 0 0 5.588,1.84 C 5.583,1.841 5.58,1.841 5.577,1.843 c -0.002,0 -0.004,0 -0.007,0.002 -0.002,0 -0.006,0 -0.012,0.011 L 5.555,1.86 V 1.863 L 5.554,1.864 V 1.87 c -0.001,0.004 0,0.008 -0.002,0.015 0,0.012 -0.003,0.03 -0.005,0.052 L 5.53,2.107 5.513,2.277 A 5.313,5.313 0 0 1 5.453,2.156 L 5.385,2.015 5.362,1.97 5.355,1.956 5.352,1.951 c 0,0 0,-0.002 -0.005,-0.006 C 5.335,1.933 5.33,1.937 5.326,1.937 H 5.314 A 1.483,1.483 0 0 0 5.191,1.969 C 4.93,2.049 4.748,2.121 4.619,2.184 H 4.615 L 4.608,2.188 4.588,2.195 4.542,2.215 A 6.041,6.041 0 0 0 4.24,2.367 c -0.002,0 -0.004,10e-4 -0.008,0.008 A 0.025,0.025 0 0 0 4.228,2.386 H 4.225 C 4.209,2.385 4.199,2.391 4.183,2.399 A 9.147,9.147 0 0 0 3.849,2.604 L 3.772,2.653 A 0.025,0.025 0 0 0 3.765,2.689 l 0.08,0.115 0.036,0.054 A 0.524,0.524 0 0 0 3.736,2.798 L 3.702,2.793 V 2.792 L 3.698,2.787 A 0.066,0.066 0 0 0 3.665,2.777 C 3.63,2.776 3.598,2.797 3.54,2.838 A 4.595,4.595 0 0 0 2.928,3.435 L 2.868,3.51 A 0.025,0.025 0 0 0 2.845,3.537 C 2.76,3.644 2.655,3.782 2.615,3.844 2.611,3.848 2.609,3.851 2.606,3.857 c 0,0.002 -0.004,0.006 0,0.018 L 2.608,3.88 C 2.534,3.964 2.488,4.036 2.405,4.184 2.335,4.31 2.222,4.538 2.19,4.619 A 16.84,16.84 0 0 1 2.135,4.755 4.505,4.505 0 0 0 1.86,5.76 C 1.82,6 1.793,6.373 1.801,6.559 1.817,6.924 1.829,7.039 1.873,7.243 L 1.928,7.49 C 1.944,7.558 1.956,7.605 1.965,7.627 L 1.973,7.65 V 7.66 L 1.997,7.73 C 2.019,7.797 2.046,7.869 2.07,7.93 A 0.97,0.97 0 0 0 2.154,8.101 V 8.102 L 2.156,8.11 2.16,8.118 a 2.926,2.926 0 0 0 0.143,0.236 0.705,0.705 0 0 1 0.11,0.221 c 0.016,0.054 0.018,0.07 0.018,0.191 L 2.43,8.899 2.393,9.012 2.356,9.128 A 0.035,0.035 0 0 0 2.355,9.14 L 2.334,9.208 A 81.972,81.972 0 0 0 2.188,9.701 c 0,0.004 0,0.011 0.006,0.02 a 0.03,0.03 0 0 0 0.025,0.01 L 2.231,9.726 A 1.222,1.222 0 0 0 2.309,9.656 L 2.314,9.651 2.33,9.635 2.388,9.582 2.572,9.411 2.602,9.384 A 0.025,0.025 0 0 0 2.621,9.365 C 2.853,9.15 2.901,9.102 2.971,9.01 3.164,8.765 3.279,8.475 3.314,8.152 A 1.804,1.804 0 0 0 3.292,7.694 0.68,0.68 0 0 1 3.309,7.315 0.333,0.333 0 0 1 3.345,7.242 c 0.01,0 0.014,-0.005 0.018,-0.008 L 3.373,7.221 A 0.19,0.19 0 0 0 3.393,7.19 L 3.412,7.15 A 0.025,0.025 0 0 0 3.415,7.14 L 3.439,7.11 A 0.562,0.562 0 0 0 3.451,7.19 C 3.453,7.196 3.453,7.198 3.458,7.206 L 3.462,7.208 V 7.232 L 4.005,7.145 4.148,7.122 c 0.014,0.11 0.033,0.21 0.057,0.302 -0.131,-0.046 -0.22,-0.1 -0.212,-0.15 0.016,1.883 -0.497,2.772 -1.2,3.304 2.416,0 1.506,-2.106 2.812,-2.125 C 5.463,8.74 4.999,9.005 5.058,9.178 5.158,9.47 6.69,11 9.446,11.843 8.806,10.5 8.97,9.318 8.783,8.066 7.509,7.811 6.658,7.504 8.113,6.983 8.618,6.802 9.487,6.92 9.308,7.753 l 0.14,0.245 c 0.16,1.23 -0.355,2.998 0.596,3.595 -0.735,-0.97 -0.295,-1.94 -0.396,-2.91 l 0.627,0.35 -0.58,-1.759 V 3.848 A 4.55,4.55 0 0 1 8.742,5.036 2.585,2.585 0 0 0 7.84,4.514 L 7.847,4.498 7.952,4.277 8,4.184 A 17.154,17.154 0 0 0 8.155,3.878 L 8.163,3.858 8.166,3.85 C 8.167,3.848 8.168,3.847 8.168,3.84 8.168,3.829 8.164,3.823 8.161,3.82 A 0.04,0.04 0 0 0 8.151,3.81 0.103,0.103 0 0 0 8.128,3.797 L 8.125,3.795 8.133,3.782 8.173,3.721 C 8.293,3.547 8.485,3.378 8.66,3.289 L 8.697,3.27 C 8.7,3.269 8.702,3.266 8.704,3.264 L 8.714,3.26 A 1.627,1.627 0 0 1 8.972,3.169 C 9.054,3.149 9.184,3.132 9.401,3.116 L 9.533,3.106 A 0.03,0.03 0 0 0 9.547,3.1 H 9.549 L 9.602,3.099 C 9.632,3.098 9.682,3.096 9.712,3.093 L 9.766,3.088 A 0.025,0.025 0 0 0 9.778,3.042 L 9.672,2.962 A 0.024,0.024 0 0 0 9.649,2.946 L 9.61,2.918 9.361,2.734 A 6.222,6.222 0 0 0 8.802,2.37 5.982,5.982 0 0 0 8.257,2.11 5.789,5.789 0 0 0 7.784,1.953 C 7.771,1.95 7.764,1.948 7.754,1.948 c -0.003,0 -0.006,0 -0.009,0.002 L 7.661,1.925 A 0.116,0.116 0 0 0 7.638,1.915 0.394,0.394 0 0 0 7.608,1.907 H 7.6 L 7.551,1.892 H 7.549 L 7.437,1.869 A 4.433,4.433 0 0 0 6.538,1.781 Z M 6.385,2.05 v 0.001 c 0.016,0 0.026,10e-4 0.03,0.002 H 6.416 L 6.427,2.07 A 4.336,4.336 0 0 0 6.646,2.462 L 6.66,2.483 a 0.042,0.042 0 0 0 0.01,0.008 0.03,0.03 0 0 0 0.015,0.005 0.024,0.024 0 0 0 0.02,-0.01 L 6.709,2.48 A 10.222,10.222 0 0 0 6.763,2.122 L 6.77,2.062 h 0.069 c 0.085,0.001 0.293,0.025 0.432,0.05 A 0.41,0.41 0 0 0 7.339,2.12 0.098,0.098 0 0 0 7.383,2.109 l 0.022,-0.01 0.011,0.01 a 0.242,0.242 0 0 0 0.159,0.064 h 0.038 l 0.01,0.007 a 0.689,0.689 0 0 0 0.084,0.03 4.937,4.937 0 0 1 0.36,0.12 L 8.09,2.339 H 8.089 A 1.322,1.322 0 0 1 8.077,2.383 L 8.033,2.539 a 4.186,4.186 0 0 0 -0.029,0.106 0.045,0.045 0 0 0 0.001,0.03 c 0.005,0.01 0.02,0.02 0.031,0.02 0.013,0 0.016,-0.005 0.02,-0.007 L 8.063,2.68 A 0.627,0.627 0 0 0 8.111,2.605 9.094,9.094 0 0 1 8.217,2.41 L 8.228,2.392 h 0.003 l 0.036,0.015 0.118,0.054 c 0.093,0.045 0.21,0.104 0.317,0.162 A 5.264,5.264 0 0 1 9.097,2.875 L 9.043,2.885 C 8.873,2.912 8.731,2.955 8.588,3.026 L 8.543,3.049 8.528,3.057 8.524,3.059 8.519,3.062 A 0.026,0.026 0 0 0 8.512,3.072 H 8.502 C 8.494,3.075 8.49,3.078 8.483,3.082 A 0.93,0.93 0 0 0 8.392,3.138 1.47,1.47 0 0 0 8.276,3.218 1.599,1.599 0 0 0 7.994,3.511 C 7.989,3.517 7.984,3.521 7.982,3.525 L 7.978,3.53 C 7.972,3.535 7.97,3.54 7.965,3.545 L 7.949,3.569 A 1.945,1.945 0 0 0 7.907,3.637 C 7.901,3.647 7.897,3.65 7.893,3.656 A 0.315,0.315 0 0 1 7.907,3.616 C 7.927,3.568 7.96,3.506 7.996,3.45 8.07,3.334 8.248,3.141 8.386,3.025 8.441,3.003 8.456,2.974 8.5,2.939 L 8.562,2.89 8.609,2.858 A 0.214,0.214 0 0 0 8.649,2.819 C 8.653,2.815 8.66,2.809 8.655,2.792 8.649,2.774 8.637,2.77 8.626,2.765 a 0.19,0.19 0 0 0 -0.037,-0.012 0.5,0.5 0 0 0 -0.1,-0.01 0.604,0.604 0 0 0 -0.23,0.05 c -0.002,0 -0.002,0 -0.003,0.002 A 0.03,0.03 0 0 0 8.244,2.797 L 8.174,2.832 A 1.81,1.81 0 0 0 7.998,2.935 L 7.98,2.948 C 7.975,2.952 7.972,2.954 7.966,2.961 7.969,2.957 7.967,2.959 7.966,2.96 L 7.959,2.965 A 1.332,1.332 0 0 0 7.85,3.05 C 7.846,3.055 7.842,3.058 7.836,3.062 L 7.84,3.02 A 29.472,29.472 0 0 1 7.88,2.569 C 7.885,2.524 7.887,2.494 7.887,2.481 V 2.448 A 0.026,0.026 0 0 0 7.869,2.424 L 7.801,2.402 A 5.144,5.144 0 0 0 7.486,2.317 C 7.364,2.313 7.332,2.285 7.216,2.265 A 4.799,4.799 0 0 0 7.026,2.236 C 6.982,2.231 6.961,2.228 6.944,2.229 A 0.043,0.043 0 0 0 6.916,2.241 C 6.908,2.249 6.906,2.257 6.906,2.261 L 6.86,2.452 6.8,2.701 A 0.663,0.663 0 0 1 6.786,2.753 L 6.78,2.769 6.777,2.772 c -0.003,0.004 -0.01,0.01 -0.008,0.024 0,0.007 0.006,0.013 0.01,0.016 L 6.78,2.817 6.783,2.82 A 0.247,0.247 0 0 0 6.762,2.855 0.037,0.037 0 0 0 6.743,2.84 L 6.733,2.839 6.731,2.836 A 0.312,0.312 0 0 1 6.706,2.806 2.256,2.256 0 0 0 6.617,2.692 2.285,2.285 0 0 0 6.544,2.598 4.107,4.107 0 0 1 6.445,2.479 1.914,1.914 0 0 0 6.275,2.295 0.677,0.677 0 0 0 6.207,2.238 C 6.187,2.224 6.173,2.213 6.15,2.213 A 0.041,0.041 0 0 0 6.124,2.223 0.046,0.046 0 0 0 6.111,2.246 C 6.106,2.263 6.104,2.286 6.1,2.325 6.054,2.727 5.89,3.171 5.712,3.388 A 0.025,0.025 0 0 0 5.697,3.406 L 5.684,3.42 5.664,3.443 5.628,3.401 4.896,2.537 A 0.026,0.026 0 0 0 4.876,2.528 L 4.868,2.529 A 0.014,0.014 0 0 1 4.863,2.531 0.989,0.989 0 0 0 4.819,2.55 3.963,3.963 0 0 0 4.611,2.654 0.108,0.108 0 0 0 4.586,2.674 C 4.579,2.68 4.573,2.694 4.576,2.707 L 4.583,2.74 4.593,2.805 4.609,2.917 A 198.818,198.818 0 0 0 4.716,3.634 C 4.727,3.715 4.731,3.748 4.733,3.775 L 4.709,3.765 A 16.696,16.696 0 0 1 4.039,3.431 0.65,0.65 0 0 0 3.991,3.408 L 3.976,3.403 A 0.027,0.027 0 0 0 3.964,3.402 0.032,0.032 0 0 0 3.944,3.414 C 3.934,3.429 3.94,3.436 3.941,3.441 l 0.005,0.017 a 0.365,0.365 0 0 0 0.01,0.023 C 3.958,3.488 3.959,3.493 3.964,3.5 l 0.003,0.007 0.01,0.02 A 0.542,0.542 0 0 1 3.99,3.57 L 3.995,3.585 4.009,3.62 4.069,3.778 C 4.073,3.786 4.074,3.792 4.077,3.8 L 4.066,3.795 A 14.697,14.697 0 0 1 3.546,3.528 L 3.478,3.492 A 0.026,0.026 0 0 0 3.448,3.497 L 3.402,3.544 C 3.343,3.607 3.242,3.722 3.195,3.779 L 3.159,3.822 A 0.028,0.028 0 0 0 3.154,3.832 L 3.141,3.847 A 1.27,1.27 0 0 0 3.087,3.915 L 3.052,3.964 a 0.025,0.025 0 0 0 10e-4,0.03 L 3.071,4.017 A 10.774,10.774 0 0 0 3.207,4.165 L 3.363,4.331 3.438,4.41 3.606,4.59 A 37.354,37.354 0 0 0 3.239,4.48 9.892,9.892 0 0 1 2.886,4.371 C 2.857,4.361 2.833,4.354 2.809,4.366 2.785,4.376 2.773,4.399 2.756,4.43 A 7.087,7.087 0 0 0 2.646,4.645 L 2.604,4.734 2.591,4.763 2.587,4.773 A 0.024,0.024 0 0 0 2.585,4.781 V 4.783 L 2.582,4.79 2.571,4.815 A 2.757,2.757 0 0 0 2.48,5.045 L 2.475,5.058 2.473,5.062 A 0.058,0.058 0 0 0 2.471,5.119 c 0.01,0.017 0.026,0.03 0.048,0.046 l 0.165,0.12 0.088,0.063 0.042,0.031 0.057,0.043 0.015,0.012 A 6.994,6.994 0 0 0 2.637,5.49 L 2.455,5.532 A 26.23,26.23 0 0 0 2.352,5.556 C 2.341,5.558 2.339,5.563 2.337,5.566 A 0.04,0.04 0 0 0 2.333,5.572 4.448,4.448 0 0 0 2.266,5.925 L 2.255,6.017 c -10e-4,0.007 0,0.015 0.006,0.02 L 2.255,6.043 A 0.043,0.043 0 0 0 2.248,6.064 L 2.247,6.102 C 2.246,6.119 2.249,6.139 2.262,6.157 A 0.574,0.574 0 0 0 2.328,6.228 0.984,0.984 0 0 1 2.393,6.3 L 2.386,6.314 A 0.703,0.703 0 0 1 2.359,6.361 L 2.276,6.496 2.232,6.567 A 0.024,0.024 0 0 0 2.229,6.581 L 2.234,6.707 2.24,6.833 C 2.241,6.839 2.243,6.845 2.248,6.849 L 2.283,6.886 A 0.21,0.21 0 0 1 2.305,6.912 L 2.308,6.918 2.306,6.934 2.304,6.974 2.303,7.084 c 0,0.038 0,0.078 0.003,0.11 a 0.342,0.342 0 0 0 0.006,0.07 l 0.01,0.035 a 0.02,0.02 0 0 0 0,0.012 l 0.024,0.09 a 0.788,0.788 0 0 0 0.038,0.125 0.22,0.22 0 0 0 0.052,0.067 l 0.03,0.03 0.005,0.005 V 7.629 L 2.474,7.651 2.481,7.723 C 2.491,7.816 2.497,7.838 2.533,7.91 2.568,7.98 2.596,8.027 2.69,8.165 2.704,8.186 2.734,8.24 2.754,8.28 L 2.782,8.334 2.792,8.352 2.796,8.358 2.8,8.362 c 0.001,0.002 0.002,0.007 0.018,0.007 0.01,0 0.015,-0.003 0.017,-0.006 A 0.037,0.037 0 0 0 2.84,8.358 L 2.843,8.353 2.846,8.346 A 0.902,0.902 0 0 0 2.889,8.006 1.34,1.34 0 0 0 2.869,7.729 1.242,1.242 0 0 1 2.875,7.287 0.987,0.987 0 0 1 3.048,6.923 L 3.104,6.849 A 0.028,0.028 0 0 0 3.109,6.839 L 3.154,6.794 a 1.651,1.651 0 0 1 0.22,-0.17 C 3.376,6.621 3.377,6.62 3.38,6.619 L 3.385,6.685 3.39,6.763 3.393,6.79 v 0.007 c 0,0.002 0,0.002 -0.004,0.004 A 0.249,0.249 0 0 0 3.346,6.832 1.372,1.372 0 0 0 3.226,6.947 L 3.221,6.957 C 3.22,6.957 3.218,6.959 3.217,6.962 L 3.214,6.965 3.189,6.995 A 0.884,0.884 0 0 0 3.021,7.369 C 3.003,7.473 3.006,7.579 3.03,7.732 3.06,7.922 3.063,8.019 3.047,8.151 3.039,8.211 3.027,8.286 3.021,8.309 A 1.977,1.977 0 0 1 2.965,8.489 H 2.964 A 0.046,0.046 0 0 0 2.954,8.503 0.047,0.047 0 0 0 2.95,8.523 c 0,-0.006 0,0 -0.002,0.005 A 1.476,1.476 0 0 1 2.72,8.896 C 2.709,8.91 2.7,8.918 2.69,8.93 A 0.949,0.949 0 0 0 2.654,8.452 1.048,1.048 0 0 0 2.512,8.182 2.725,2.725 0 0 1 2.318,7.825 0.089,0.089 0 0 1 2.311,7.802 c 0,-10e-4 0.003,-0.008 0.013,-0.025 A 0.143,0.143 0 0 0 2.338,7.747 0.048,0.048 0 0 0 2.339,7.714 0.033,0.033 0 0 0 2.326,7.697 0.037,0.037 0 0 0 2.306,7.692 0.065,0.065 0 0 0 2.276,7.702 c -10e-4,0 0,0 0,0 L 2.27,7.692 A 1.353,1.353 0 0 1 2.232,7.584 2.304,2.304 0 0 0 2.199,7.482 L 2.197,7.476 a 0.041,0.041 0 0 0 0,-0.013 L 2.181,7.401 A 2.946,2.946 0 0 1 2.147,7.24 L 2.129,7.147 2.156,7.097 C 2.173,7.065 2.183,7.045 2.183,7.021 A 0.038,0.038 0 0 0 2.177,7.001 0.035,0.035 0 0 0 2.157,6.987 C 2.141,6.984 2.132,6.989 2.122,6.994 L 2.097,7.003 2.09,6.931 A 4.37,4.37 0 0 1 2.073,6.551 L 2.074,6.51 V 6.492 c 0,0.001 0.003,-0.006 0.017,-0.018 A 0.766,0.766 0 0 1 2.158,6.426 0.84,0.84 0 0 0 2.238,6.363 C 2.241,6.361 2.243,6.359 2.246,6.354 2.246,6.352 2.249,6.349 2.249,6.344 A 0.027,0.027 0 0 0 2.242,6.321 C 2.236,6.315 2.232,6.315 2.23,6.314 L 2.222,6.311 A 0.933,0.933 0 0 0 2.142,6.297 1.008,1.008 0 0 1 2.078,6.287 2.633,2.633 0 0 1 2.102,5.967 C 2.111,5.908 2.118,5.877 2.11,5.847 V 5.845 L 2.113,5.842 C 2.126,5.829 2.122,5.822 2.122,5.816 a 5.329,5.329 0 0 1 0.09,-0.437 c 10e-4,-0.002 0,-0.003 0.002,-0.005 h 0.002 c 0.012,0 0.032,0.003 0.06,0.007 0.057,0.008 0.149,0.023 0.288,0.046 0.074,0.012 0.117,0.02 0.144,0.022 a 0.118,0.118 0 0 0 0.032,0 C 2.745,5.448 2.75,5.447 2.757,5.441 A 0.034,0.034 0 0 0 2.768,5.419 0.042,0.042 0 0 0 2.755,5.391 0.087,0.087 0 0 0 2.729,5.378 30.63,30.63 0 0 1 2.381,5.269 L 2.253,5.229 2.285,5.128 A 4.554,4.554 0 0 1 2.676,4.254 L 2.681,4.244 2.683,4.24 2.684,4.236 2.685,4.234 2.695,4.218 A 2.011,2.011 0 0 1 2.753,4.128 V 4.126 l 0.02,0.013 0.028,0.018 0.011,0.006 a 0.037,0.037 0 0 0 0.005,0.003 l 0.004,10e-4 0.006,0.004 0.03,0.017 0.092,0.055 0.092,0.055 0.03,0.018 A 0.155,0.155 0 0 0 3.08,4.321 l 0.003,0.001 0.002,0.001 h 10e-4 v 0.002 c 0.002,0 0.005,10e-4 0.007,0.003 l 0.026,0.016 a 5.86,5.86 0 0 1 0.116,0.073 0.154,0.154 0 0 0 0.012,0.005 c 0.003,0.001 0.006,0.003 0.015,0.003 0.004,0 0.01,0 0.016,-0.003 A 0.033,0.033 0 0 0 3.296,4.402 C 3.298,4.392 3.295,4.384 3.293,4.38 A 0.067,0.067 0 0 0 3.283,4.367 0.431,0.431 0 0 0 3.218,4.312 C 3.125,4.244 3.135,4.252 2.958,4.126 L 2.847,4.046 2.817,4.023 2.82,4.019 2.87,3.95 C 2.885,3.928 2.925,3.872 2.958,3.828 L 3.015,3.754 A 0.142,0.142 0 0 0 3.038,3.711 c 0.007,0 0.01,-0.004 0.012,-0.005 L 3.058,3.699 A 0.119,0.119 0 0 0 3.071,3.682 0.32,0.32 0 0 1 3.092,3.654 L 3.132,3.609 C 3.2,3.529 3.292,3.429 3.384,3.339 l 0.08,-0.08 0.015,0.013 0.14,0.138 A 1.679,1.679 0 0 0 3.729,3.507 0.055,0.055 0 0 0 3.74,3.513 C 3.742,3.514 3.745,3.516 3.75,3.516 A 0.027,0.027 0 0 0 3.771,3.508 0.03,0.03 0 0 0 3.78,3.487 c 0,-0.006 0,-0.011 -0.002,-0.017 A 0.394,0.394 0 0 0 3.766,3.421 6.907,6.907 0 0 0 3.663,3.116 1.05,1.05 0 0 1 3.655,3.089 V 3.087 A 0.109,0.109 0 0 1 3.674,3.072 l 0.021,-0.012 0.168,0.094 0.13,0.073 0.06,0.034 0.068,0.038 0.145,0.081 0.28,0.157 c 0.028,0.017 0.05,0.029 0.066,0.036 0.009,0.003 0.016,0.009 0.032,0.003 a 0.033,0.033 0 0 0 0.02,-0.02 0.034,0.034 0 0 0 0,-0.019 C 4.659,3.517 4.646,3.5 4.626,3.468 A 6.731,6.731 0 0 0 4.452,3.218 L 4.443,3.204 4.439,3.196 4.432,3.186 4.409,3.152 A 65.426,65.426 0 0 1 4.179,2.818 L 4.128,2.742 4.149,2.728 C 4.213,2.687 4.232,2.676 4.275,2.652 4.298,2.64 4.334,2.619 4.356,2.604 L 4.396,2.58 A 0.025,0.025 0 0 0 4.406,2.552 L 4.426,2.551 A 0.085,0.085 0 0 0 4.459,2.535 c 0.002,0 0.003,0 0.005,-0.002 0.002,10e-4 0.004,0.002 0.01,0.002 A 0.032,0.032 0 0 0 4.491,2.525 C 4.493,2.523 4.496,2.523 4.498,2.523 4.508,2.517 4.512,2.511 4.519,2.503 a 0.276,0.276 0 0 0 0.054,-0.01 c 0.002,0 0.004,0 0.005,-0.002 C 4.589,2.484 4.643,2.458 4.69,2.438 A 4.537,4.537 0 0 0 4.82,2.38 L 4.829,2.378 c 0.015,0 0.025,-0.002 0.038,-0.014 -0.004,0.004 0,0.001 0.003,0 L 4.888,2.355 4.948,2.332 A 4.97,4.97 0 0 1 5.122,2.27 L 5.199,2.244 5.222,2.292 5.274,2.401 a 56.08,56.08 0 0 0 0.282,0.588 l 0.053,0.11 c 0.01,0.02 0.017,0.035 0.025,0.045 a 0.05,0.05 0 0 0 0.014,0.015 c 0.004,0.003 0.01,0.007 0.02,0.006 A 0.031,0.031 0 0 0 5.688,3.15 C 5.694,3.141 5.693,3.139 5.694,3.133 L 5.697,3.112 5.703,3.055 5.723,2.84 C 5.733,2.763 5.742,2.671 5.745,2.636 A 29.988,29.988 0 0 1 5.8,2.086 V 2.085 A 10.458,10.458 0 0 1 6.385,2.05 Z m 1.731,1.74 h 0.001 z m 0.002,0 10e-4,10e-4 z M 6.21,3.864 c 0.037,0.009 0.069,0.04 0.094,0.1 C 6.53,4.191 6.501,4.159 6.474,4.081 6.462,4.041 6.45,3.991 6.471,3.956 6.493,3.921 6.548,3.901 6.669,3.923 L 6.618,3.957 6.603,3.991 C 6.922,3.948 7.169,3.898 7.358,3.894 a 0.612,0.612 0 0 1 0.243,0.033 c 0.066,0.027 0.12,0.071 0.163,0.138 L 7.74,4.113 7.637,4.313 A 6.56,6.56 0 0 0 7.562,4.43 4.07,4.07 0 0 0 6.724,4.31 C 5.755,4.27 4.389,4.881 4.117,6.585 4.117,6.671 4.119,6.752 4.123,6.831 4.026,6.816 3.886,6.811 3.793,6.791 V 6.783 C 3.792,6.713 3.79,6.616 3.79,6.511 V 6.287 a 0.631,0.631 0 0 0 0,-0.157 C 3.927,6.24 4.026,6.278 4.095,6.263 4.163,6.248 4.2,6.181 4.213,6.079 4.239,5.874 4.167,5.532 4.051,5.199 4.12,5.286 4.155,5.303 4.172,5.285 4.19,5.267 4.19,5.212 4.192,5.157 4.195,5.101 4.198,5.044 4.222,5.019 4.246,4.994 4.29,5.001 4.372,5.075 4.316,4.948 4.322,4.909 4.365,4.904 4.409,4.898 4.49,4.924 4.585,4.929 A 0.383,0.383 0 0 0 4.886,4.819 C 4.985,4.724 5.074,4.549 5.128,4.241 5.172,4.321 5.219,4.368 5.27,4.391 5.321,4.416 5.375,4.415 5.43,4.398 5.54,4.364 5.658,4.264 5.77,4.16 5.883,4.055 5.991,3.946 6.084,3.893 6.13,3.867 6.173,3.855 6.21,3.863 Z m 3.975,1.331 c -0.01,0.01 -0.02,0.016 -0.03,0.026 A 2.643,2.643 0 0 0 9.775,5.763 C 9.761,5.79 9.757,5.822 9.744,5.849 9.857,5.608 10.007,5.39 10.184,5.195 Z M 4.132,6.956 V 6.963 L 4.114,6.965 Z"
     id="path2"
     inkscape:connector-curvature="0"
     style="fill:#bde6fb;fill-opacity:1" />
</svg>
