<?xml version="1.0" encoding="UTF-8" standalone="no"?>
<svg
   width="47.54644"
   height="47.546432"
   version="1.1"
   viewBox="0 0 12.579996 12.579994"
   id="svg4"
   sodipodi:docname="lftp.svg"
   inkscape:version="0.92.4 (5da689c313, 2019-01-14)"
   xmlns:inkscape="http://www.inkscape.org/namespaces/inkscape"
   xmlns:sodipodi="http://sodipodi.sourceforge.net/DTD/sodipodi-0.dtd"
   xmlns="http://www.w3.org/2000/svg"
   xmlns:svg="http://www.w3.org/2000/svg"
   xmlns:rdf="http://www.w3.org/1999/02/22-rdf-syntax-ns#"
   xmlns:cc="http://creativecommons.org/ns#"
   xmlns:dc="http://purl.org/dc/elements/1.1/">
  <metadata
     id="metadata10">
    <rdf:RDF>
      <cc:Work
         rdf:about="">
        <dc:format>image/svg+xml</dc:format>
        <dc:type
           rdf:resource="http://purl.org/dc/dcmitype/StillImage" />
        <dc:title />
      </cc:Work>
    </rdf:RDF>
  </metadata>
  <defs
     id="defs8" />
  <sodipodi:namedview
     pagecolor="#ffffff"
     bordercolor="#666666"
     borderopacity="1"
     objecttolerance="10"
     gridtolerance="10"
     guidetolerance="10"
     inkscape:pageopacity="0"
     inkscape:pageshadow="2"
     inkscape:window-width="1136"
     inkscape:window-height="480"
     id="namedview6"
     showgrid="false"
     inkscape:zoom="4.9166667"
     inkscape:cx="2.1355932"
     inkscape:cy="24"
     inkscape:window-x="0"
     inkscape:window-y="25"
     inkscape:window-maximized="0"
     inkscape:current-layer="svg4"
     inkscape:showpageshadow="0"
     inkscape:pagecheckerboard="0"
     inkscape:deskcolor="#d1d1d1" />
  <path
     d="M 6.2898694,0 C 2.8119653,-3.5452687e-5 -0.00581176,2.8222749 9.004251e-6,6.3004435 0.00568186,9.7741144 2.8262526,12.585541 6.2999234,12.579985 9.7698901,12.574599 12.579995,9.7600916 12.579995,6.2901249 12.580025,2.8161895 9.7638048,0 6.290134,2.6457731e-4 Z M 6.2697158,0.93015745 C 9.2520615,0.93005413 11.679848,3.3576525 11.679584,6.3400247 11.681884,7.5754281 11.264722,8.7108732 10.568559,9.621875 H 6.1746786 V 9.17746 a 0.28450287,0.27947585 0 0 0 -0.2909321,-0.2795552 0.28450287,0.27947585 0 0 1 -5.167e-4,0 0.28450287,0.27947585 0 0 0 -0.1353909,0.037724 L 4.3257214,9.7417774 a 0.28450287,0.27947585 0 0 0 0,0.4847106 l 0.7110587,0.403061 0.7110588,0.40359 a 0.28450287,0.27947585 0 0 0 0.4268469,-0.24236 V 10.346364 H 9.902618 C 8.944124,11.215826 7.6758863,11.749934 6.2797241,11.749881 3.2934096,11.755414 0.86959218,9.3360387 0.86985676,6.3498036 0.86511126,5.0571451 1.3164943,3.8703186 2.0702827,2.9380445 h 4.3552514 v 0.444415 a 0.28447642,0.27947585 0 0 0 0.4263177,0.241842 L 7.5634398,3.2212403 8.2744985,2.81765 a 0.28447642,0.27947585 0 0 0 0,-0.4842078 L 7.5634398,1.930381 6.8518518,1.5273198 A 0.28447642,0.27947585 0 0 0 6.716461,1.489596 0.28447642,0.27947585 0 0 0 6.4255288,1.7691512 v 0.444415 H 2.7793518 C 3.7208333,1.4143759 4.9379277,0.92987699 6.2699558,0.92992991 Z M 2.5954933,4.4281696 v 3.70412 h 0.52916 v -1.58748 h 1.58748 v -0.52916 h -1.58748 v -1.05832 h 1.58748 v -0.52916 h -1.58748 z m 2.6458,0 v 0.52916 h 0.79374 v 3.17496 h 0.52916 v -3.17496 h 0.79374 v -0.52916 z m 2.6458,0 v 3.70412 h 0.52916 v -1.58748 h 1.5874797 v -2.11664 H 8.4162533 Z m 0.52916,0.52916 h 1.05832 v 1.05832 h -1.05832 z"
     id="path2"
     inkscape:connector-curvature="0"
     style="fill:#bde6fb;fill-opacity:1;stroke-width:0.99998" />
</svg>
