<?xml version="1.0" encoding="UTF-8" standalone="no"?>
<svg
   width="48"
   height="48"
   viewBox="0 0 12.7 12.7"
   version="1.1"
   id="svg4"
   sodipodi:docname="libreoffice-base.svg"
   inkscape:version="0.92.5 (2060ec1f9f, 2020-04-08)"
   xmlns:inkscape="http://www.inkscape.org/namespaces/inkscape"
   xmlns:sodipodi="http://sodipodi.sourceforge.net/DTD/sodipodi-0.dtd"
   xmlns="http://www.w3.org/2000/svg"
   xmlns:svg="http://www.w3.org/2000/svg">
  <sodipodi:namedview
     id="namedview1"
     pagecolor="#505050"
     bordercolor="#eeeeee"
     borderopacity="1"
     inkscape:showpageshadow="0"
     inkscape:pageopacity="0"
     inkscape:pagecheckerboard="0"
     inkscape:deskcolor="#d1d1d1" />
  <defs
     id="defs8">
    <style
       id="current-color-scheme"
       type="text/css">&#10;      .ColorScheme-Highlight {&#10;        color:#1e3f5a;&#10;      }&#10;  </style>
  </defs>
  <path
     class="ColorScheme-Highlight"
     style="fill:#bde6fb;fill-opacity:1;stroke-width:0.264583"
     d="M 6.3499999,0 A 6.3499999,6.3499999 0 0 0 0,6.3499999 6.3499999,6.3499999 0 0 0 6.3499999,12.7 6.3499999,6.3499999 0 0 0 12.7,6.3499999 6.3499999,6.3499999 0 0 0 6.3499999,0 Z m 0,0.79374999 A 5.5562499,5.5562499 0 0 1 11.90625,6.3499999 5.5562499,5.5562499 0 0 1 6.3499999,11.90625 5.5562499,5.5562499 0 0 1 0.79374999,6.3499999 5.5562499,5.5562499 0 0 1 6.3499999,0.79374999 Z m 0,1.85208331 A 3.175,0.79374999 0 0 0 3.175,3.4395833 v 1.0583333 a 3.175,0.79374999 0 0 0 3.1749999,0.79375 3.175,0.79374999 0 0 0 3.175,-0.79375 V 3.4395833 a 3.175,0.79374999 0 0 0 -3.175,-0.79375 z M 3.175,5.0270833 v 1.0583333 a 3.175,0.79374999 0 0 0 3.1749999,0.79375 3.175,0.79374999 0 0 0 3.175,-0.79375 V 5.0270833 a 3.175,0.79374999 0 0 1 -0.01602,0.079065 3.175,0.79374999 0 0 1 -0.047026,0.078548 3.175,0.79374999 0 0 1 -0.078548,0.076998 3.175,0.79374999 0 0 1 -0.1090374,0.074414 3.175,0.79374999 0 0 1 -0.137976,0.071313 A 3.175,0.79374999 0 0 1 8.970511,5.4751178 3.175,0.79374999 0 0 1 8.7782745,5.53868 3.175,0.79374999 0 0 1 8.5622671,5.5965576 3.175,0.79374999 0 0 1 8.323522,5.6487506 3.175,0.79374999 0 0 1 8.0656567,5.6947429 3.175,0.79374999 0 0 1 7.7902212,5.7345336 3.175,0.79374999 0 0 1 7.5003164,5.7670898 3.175,0.79374999 0 0 1 7.1995598,5.7918945 3.175,0.79374999 0 0 1 6.8895009,5.8094654 3.175,0.79374999 0 0 1 6.5747915,5.8187682 3.175,0.79374999 0 0 1 6.3499999,5.8208333 3.175,0.79374999 0 0 1 6.0332233,5.8166978 3.175,0.79374999 0 0 1 5.7190306,5.8048127 3.175,0.79374999 0 0 1 5.4115559,5.7851754 3.175,0.79374999 0 0 1 5.1133829,5.7583038 3.175,0.79374999 0 0 1 4.8276123,5.7236804 3.175,0.79374999 0 0 1 4.5573444,5.6823392 3.175,0.79374999 0 0 1 4.3046467,5.6342803 3.175,0.79374999 0 0 1 4.0726195,5.5800201 3.175,0.79374999 0 0 1 3.8628132,5.520592 3.175,0.79374999 0 0 1 3.6783285,5.4559967 3.175,0.79374999 0 0 1 3.5201987,5.387268 3.175,0.79374999 0 0 1 3.3910074,5.3149211 3.175,0.79374999 0 0 1 3.2907552,5.2394733 3.175,0.79374999 0 0 1 3.220992,5.1619589 3.175,0.79374999 0 0 1 3.1827515,5.0834107 3.175,0.79374999 0 0 1 3.175,5.0270833 Z m 0,1.5875 v 1.0583333 a 3.175,0.79374999 0 0 0 3.1749999,0.79375 3.175,0.79374999 0 0 0 3.175,-0.79375 V 6.6145833 a 3.175,0.79374999 0 0 1 -0.01602,0.079065 3.175,0.79374999 0 0 1 -0.047026,0.078548 3.175,0.79374999 0 0 1 -0.078548,0.076998 3.175,0.79374999 0 0 1 -0.1090374,0.074414 3.175,0.79374999 0 0 1 -0.137976,0.071313 A 3.175,0.79374999 0 0 1 8.970511,7.0626178 3.175,0.79374999 0 0 1 8.7782745,7.12618 3.175,0.79374999 0 0 1 8.5622671,7.1840576 3.175,0.79374999 0 0 1 8.323522,7.2362506 3.175,0.79374999 0 0 1 8.0656567,7.2822429 3.175,0.79374999 0 0 1 7.7902212,7.3220336 3.175,0.79374999 0 0 1 7.5003164,7.3545898 3.175,0.79374999 0 0 1 7.1995598,7.3793944 3.175,0.79374999 0 0 1 6.8895009,7.3969654 3.175,0.79374999 0 0 1 6.5747915,7.4062682 3.175,0.79374999 0 0 1 6.3499999,7.4083332 3.175,0.79374999 0 0 1 6.0332233,7.4041978 3.175,0.79374999 0 0 1 5.7190306,7.3923127 3.175,0.79374999 0 0 1 5.4115559,7.3726753 3.175,0.79374999 0 0 1 5.1133829,7.3458037 3.175,0.79374999 0 0 1 4.8276123,7.3111804 3.175,0.79374999 0 0 1 4.5573444,7.2698392 3.175,0.79374999 0 0 1 4.3046467,7.2217803 3.175,0.79374999 0 0 1 4.0726195,7.1675201 3.175,0.79374999 0 0 1 3.8628132,7.108092 3.175,0.79374999 0 0 1 3.6783285,7.0434966 3.175,0.79374999 0 0 1 3.5201987,6.9747679 3.175,0.79374999 0 0 1 3.3910074,6.9024211 3.175,0.79374999 0 0 1 3.2907552,6.8269733 3.175,0.79374999 0 0 1 3.220992,6.7494588 3.175,0.79374999 0 0 1 3.1827515,6.6709107 3.175,0.79374999 0 0 1 3.175,6.6145833 Z m 0,1.5874999 v 1.0583334 a 3.175,0.79374999 0 0 0 3.1749999,0.7937504 3.175,0.79374999 0 0 0 3.175,-0.7937504 V 8.2020832 a 3.175,0.79374999 0 0 1 -0.01602,0.079065 3.175,0.79374999 0 0 1 -0.047026,0.078548 3.175,0.79374999 0 0 1 -0.078548,0.076998 3.175,0.79374999 0 0 1 -0.1090374,0.074414 3.175,0.79374999 0 0 1 -0.137976,0.071313 A 3.175,0.79374999 0 0 1 8.970511,8.6501178 3.175,0.79374999 0 0 1 8.7782745,8.71368 3.175,0.79374999 0 0 1 8.5622671,8.7715576 3.175,0.79374999 0 0 1 8.323522,8.8237506 3.175,0.79374999 0 0 1 8.0656567,8.8697429 3.175,0.79374999 0 0 1 7.7902212,8.9095335 3.175,0.79374999 0 0 1 7.5003164,8.9420897 3.175,0.79374999 0 0 1 7.1995598,8.9668944 3.175,0.79374999 0 0 1 6.8895009,8.9844654 3.175,0.79374999 0 0 1 6.5747915,8.9937681 3.175,0.79374999 0 0 1 6.3499999,8.9958332 3.175,0.79374999 0 0 1 6.0332233,8.9916978 3.175,0.79374999 0 0 1 5.7190306,8.9798127 3.175,0.79374999 0 0 1 5.4115559,8.9601753 3.175,0.79374999 0 0 1 5.1133829,8.9333037 3.175,0.79374999 0 0 1 4.8276123,8.8986803 3.175,0.79374999 0 0 1 4.5573444,8.8573392 3.175,0.79374999 0 0 1 4.3046467,8.8092803 3.175,0.79374999 0 0 1 4.0726195,8.7550201 3.175,0.79374999 0 0 1 3.8628132,8.695592 3.175,0.79374999 0 0 1 3.6783285,8.6309966 3.175,0.79374999 0 0 1 3.5201987,8.5622679 3.175,0.79374999 0 0 1 3.3910074,8.4899211 3.175,0.79374999 0 0 1 3.2907552,8.4144733 3.175,0.79374999 0 0 1 3.220992,8.3369588 3.175,0.79374999 0 0 1 3.1827515,8.2584106 3.175,0.79374999 0 0 1 3.175,8.2020832 Z"
     id="path817" />
</svg>
