<?xml version="1.0" encoding="UTF-8" standalone="no"?>
<svg
   width="48"
   height="48"
   viewBox="0 0 12.7 12.7"
   version="1.1"
   id="svg4"
   sodipodi:docname="libreoffice-writer.svg"
   inkscape:version="0.92.5 (2060ec1f9f, 2020-04-08)"
   xmlns:inkscape="http://www.inkscape.org/namespaces/inkscape"
   xmlns:sodipodi="http://sodipodi.sourceforge.net/DTD/sodipodi-0.dtd"
   xmlns="http://www.w3.org/2000/svg"
   xmlns:svg="http://www.w3.org/2000/svg">
  <sodipodi:namedview
     id="namedview1"
     pagecolor="#505050"
     bordercolor="#eeeeee"
     borderopacity="1"
     inkscape:showpageshadow="0"
     inkscape:pageopacity="0"
     inkscape:pagecheckerboard="0"
     inkscape:deskcolor="#d1d1d1" />
  <defs
     id="defs8">
    <style
       id="current-color-scheme"
       type="text/css">&#10;      .ColorScheme-Highlight {&#10;        color:#1e3f5a;&#10;      }&#10;  </style>
  </defs>
  <path
     class="ColorScheme-Highlight"
     style="fill:#bde6fb;fill-opacity:1;stroke-width:0.264583"
     d="M 6.3499999,0 A 6.3499999,6.3499999 0 0 0 0,6.3499999 6.3499999,6.3499999 0 0 0 6.3499999,12.7 6.3499999,6.3499999 0 0 0 12.7,6.3499999 6.3499999,6.3499999 0 0 0 6.3499999,0 Z m 0,0.79374999 A 5.5562499,5.5562499 0 0 1 11.90625,6.3499999 5.5562499,5.5562499 0 0 1 6.3499999,11.90625 5.5562499,5.5562499 0 0 1 0.79374999,6.3499999 5.5562499,5.5562499 0 0 1 6.3499999,0.79374999 Z M 3.0427083,2.6458333 c -0.2198688,0 -0.396875,0.1770062 -0.396875,0.396875 0,0.2198687 0.1770062,0.396875 0.396875,0.396875 h 3.175 c 0.2198687,0 0.396875,-0.1770063 0.396875,-0.396875 0,-0.2198688 -0.1770063,-0.396875 -0.396875,-0.396875 z M 9.8913859,4.2219644 8.9560423,5.157308 10.453108,6.6543742 11.388452,5.7190306 Z m -6.8486776,0.011369 c -0.2198688,0 -0.396875,0.1770062 -0.396875,0.396875 0,0.2198687 0.1770062,0.396875 0.396875,0.396875 h 3.175 c 0.2198687,0 0.396875,-0.1770063 0.396875,-0.396875 0,-0.2198688 -0.1770063,-0.396875 -0.396875,-0.396875 z M 8.581905,5.531962 5.4012205,8.7121295 6.898287,10.209196 10.078454,7.0285114 Z M 3.0427083,5.8208333 c -0.2198688,0 -0.396875,0.1770062 -0.396875,0.396875 0,0.2198687 0.1770062,0.396875 0.396875,0.396875 h 3.175 c 0.2198687,0 0.396875,-0.1770063 0.396875,-0.396875 0,-0.2198688 -0.1770063,-0.396875 -0.396875,-0.396875 z m 1.984375,3.2654337 v 1.497066 h 1.4970662 z"
     id="path827" />
</svg>
