<?xml version="1.0" encoding="UTF-8" standalone="no"?>
<svg
   width="48"
   height="48"
   viewBox="0 0 12.7 12.7"
   version="1.1"
   id="svg4"
   sodipodi:docname="libreoffice-draw.svg"
   inkscape:version="0.92.5 (2060ec1f9f, 2020-04-08)"
   xmlns:inkscape="http://www.inkscape.org/namespaces/inkscape"
   xmlns:sodipodi="http://sodipodi.sourceforge.net/DTD/sodipodi-0.dtd"
   xmlns="http://www.w3.org/2000/svg"
   xmlns:svg="http://www.w3.org/2000/svg">
  <sodipodi:namedview
     id="namedview1"
     pagecolor="#505050"
     bordercolor="#eeeeee"
     borderopacity="1"
     inkscape:showpageshadow="0"
     inkscape:pageopacity="0"
     inkscape:pagecheckerboard="0"
     inkscape:deskcolor="#d1d1d1" />
  <defs
     id="defs8">
    <style
       id="current-color-scheme"
       type="Highlight/css">&#10;      .ColorScheme-Highlight {&#10;        color:#1e3f5a;&#10;      }&#10;  </style>
  </defs>
  <path
     class="ColorScheme-Highlight"
     style="fill:#bde6fb;fill-opacity:1;stroke-width:0.264583"
     d="M 6.3499999,0 A 6.3499999,6.3499999 0 0 0 0,6.3499999 6.3499999,6.3499999 0 0 0 6.3499999,12.7 6.3499999,6.3499999 0 0 0 12.7,6.3499999 6.3499999,6.3499999 0 0 0 6.3499999,0 Z m 0,0.79374999 A 5.5562499,5.5562499 0 0 1 11.90625,6.3499999 5.5562499,5.5562499 0 0 1 6.3499999,11.90625 5.5562499,5.5562499 0 0 1 0.79374999,6.3499999 5.5562499,5.5562499 0 0 1 6.3499999,0.79374999 Z m 0,1.58750001 A 0.79374999,0.79374999 0 0 0 5.5562499,3.175 0.79374999,0.79374999 0 0 0 6.0854166,3.9222412 V 5.6022419 A 0.79374999,0.79374999 0 0 0 5.5562499,6.3499999 0.79374999,0.79374999 0 0 0 5.94434,7.0310954 2.9104166,2.9104166 0 0 1 3.4395833,8.4666666 V 8.2020832 h -0.79375 v 0.79375 h 0.79375 V 8.7312499 A 3.175,3.175 0 0 0 6.0854166,7.308081 V 8.7772419 A 0.79374999,0.79374999 0 0 0 5.5562499,9.5249999 0.79374999,0.79374999 0 0 0 6.3499999,10.31875 0.79374999,0.79374999 0 0 0 7.1437499,9.5249999 0.79374999,0.79374999 0 0 0 6.6145833,8.7777586 V 7.0977579 A 0.79374999,0.79374999 0 0 0 7.1437499,6.3499999 0.79374999,0.79374999 0 0 0 6.7556599,5.6689045 2.9104166,2.9104166 0 0 1 9.2604166,4.2333333 v 0.2645833 h 0.7937504 v -0.79375 H 9.2604166 V 3.96875 A 3.175,3.175 0 0 0 6.6145833,5.3919188 V 3.922758 A 0.79374999,0.79374999 0 0 0 7.1437499,3.175 0.79374999,0.79374999 0 0 0 6.3499999,2.38125 Z"
     id="path817" />
</svg>
