<?xml version="1.0" encoding="UTF-8" standalone="no"?>
<svg
   width="48"
   height="48"
   viewBox="0 0 12.7 12.7"
   version="1.1"
   id="svg4"
   sodipodi:docname="linssid48.svg"
   inkscape:version="0.92.5 (2060ec1f9f, 2020-04-08)"
   xmlns:inkscape="http://www.inkscape.org/namespaces/inkscape"
   xmlns:sodipodi="http://sodipodi.sourceforge.net/DTD/sodipodi-0.dtd"
   xmlns="http://www.w3.org/2000/svg"
   xmlns:svg="http://www.w3.org/2000/svg">
  <sodipodi:namedview
     id="namedview1"
     pagecolor="#505050"
     bordercolor="#eeeeee"
     borderopacity="1"
     inkscape:showpageshadow="0"
     inkscape:pageopacity="0"
     inkscape:pagecheckerboard="0"
     inkscape:deskcolor="#d1d1d1" />
  <defs
     id="defs8">
    <style
       id="current-color-scheme"
       type="text/css">&#10;      .ColorScheme-Highlight {&#10;        color:#1e3f5a;&#10;      }&#10;  </style>
  </defs>
  <path
     class="ColorScheme-Highlight"
     style="fill:#bde6fb;fill-opacity:1;stroke-width:0.264583"
     d="M 6.3499999,0 A 6.3499999,6.3499999 0 0 0 0,6.3499999 6.3499999,6.3499999 0 0 0 6.3499999,12.7 6.3499999,6.3499999 0 0 0 12.7,6.3499999 6.3499999,6.3499999 0 0 0 6.3499999,0 Z m 0,0.79374999 A 5.5562499,5.5562499 0 0 1 11.90625,6.3499999 5.5562499,5.5562499 0 0 1 6.3499999,11.90625 5.5562499,5.5562499 0 0 1 0.79374999,6.3499999 5.5562499,5.5562499 0 0 1 6.3499999,0.79374999 Z M 2.984314,2.984314 A 4.7625013,4.7625013 0 0 0 1.5875,6.3499999 4.7625013,4.7625013 0 0 0 2.984314,9.7156859 L 3.3584512,9.3415486 A 4.2333349,4.2333349 0 0 1 2.1166666,6.3499999 4.2333349,4.2333349 0 0 1 3.3584512,3.3584512 Z m 6.7313719,0 -0.3741373,0.3741372 A 4.2333349,4.2333349 0 0 1 10.583333,6.3499999 4.2333349,4.2333349 0 0 1 9.3415486,9.3415486 L 9.7156859,9.7156859 A 4.7625013,4.7625013 0 0 0 11.1125,6.3499999 4.7625013,4.7625013 0 0 0 9.7156859,2.984314 Z M 3.9191406,3.9191406 a 3.4395849,3.4395849 0 0 0 -1.008724,2.4308593 3.4395849,3.4395849 0 0 0 1.008724,2.4308594 L 4.2932778,8.406722 A 2.9104182,2.9104182 0 0 1 3.4395833,6.3499999 2.9104182,2.9104182 0 0 1 4.2932778,4.2932778 Z m 4.8617187,0 L 8.406722,4.2932778 A 2.9104182,2.9104182 0 0 1 9.2604166,6.3499999 2.9104182,2.9104182 0 0 1 8.406722,8.406722 L 8.7808593,8.7808593 A 3.4395849,3.4395849 0 0 0 9.7895832,6.3499999 3.4395849,3.4395849 0 0 0 8.7808593,3.9191406 Z M 4.8539672,4.8539672 A 2.1166681,2.1166681 0 0 0 4.2333333,6.3499999 2.1166681,2.1166681 0 0 0 4.8539672,7.8460326 L 5.2281047,7.4718952 A 1.5875015,1.5875015 0 0 1 4.7624999,6.3499999 1.5875015,1.5875015 0 0 1 5.2281047,5.2281047 Z m 2.9920654,0 -0.3741374,0.3741375 A 1.5875015,1.5875015 0 0 1 7.9374999,6.3499999 1.5875015,1.5875015 0 0 1 7.4718952,7.4718952 L 7.8460326,7.8460326 A 2.1166681,2.1166681 0 0 0 8.4666666,6.3499999 2.1166681,2.1166681 0 0 0 7.8460326,4.8539672 Z M 6.3499999,5.5562499 a 0.79375147,0.79375147 0 0 0 -0.79375,0.79375 0.79375147,0.79375147 0 0 0 0.5291667,0.7472413 V 11.377083 H 6.6145833 V 7.0977579 a 0.79375147,0.79375147 0 0 0 0.5291666,-0.747758 0.79375147,0.79375147 0 0 0 -0.79375,-0.79375 z"
     id="path874" />
</svg>
