<?xml version="1.0" encoding="UTF-8" standalone="no"?>
<svg
   width="48"
   height="48"
   viewBox="0 0 12.7 12.7"
   version="1.1"
   id="svg4"
   sodipodi:docname="livewallpaper-config.svg"
   inkscape:version="0.92.5 (2060ec1f9f, 2020-04-08)"
   xmlns:inkscape="http://www.inkscape.org/namespaces/inkscape"
   xmlns:sodipodi="http://sodipodi.sourceforge.net/DTD/sodipodi-0.dtd"
   xmlns="http://www.w3.org/2000/svg"
   xmlns:svg="http://www.w3.org/2000/svg">
  <sodipodi:namedview
     id="namedview1"
     pagecolor="#505050"
     bordercolor="#eeeeee"
     borderopacity="1"
     inkscape:showpageshadow="0"
     inkscape:pageopacity="0"
     inkscape:pagecheckerboard="0"
     inkscape:deskcolor="#d1d1d1" />
  <defs
     id="defs8">
    <style
       id="current-color-scheme"
       type="text/css">&#10;      .ColorScheme-Highlight {&#10;        color:#1e3f5a;&#10;      }&#10;  </style>
  </defs>
  <path
     class="ColorScheme-Highlight"
     style="fill:#bde6fb;fill-opacity:1;stroke-width:0.264583"
     d="M 6.3499999,0 A 6.3499999,6.3499999 0 0 0 0,6.3499999 6.3499999,6.3499999 0 0 0 6.3499999,12.7 6.3499999,6.3499999 0 0 0 12.7,6.3499999 6.3499999,6.3499999 0 0 0 6.3499999,0 Z m 0,0.79374999 A 5.5562499,5.5562499 0 0 1 11.90625,6.3499999 5.5562499,5.5562499 0 0 1 6.3499999,11.90625 5.5562499,5.5562499 0 0 1 0.79374999,6.3499999 5.5562499,5.5562499 0 0 1 6.3499999,0.79374999 Z M 3.175,2.9104166 c -0.2931584,0 -0.5291667,0.2360084 -0.5291667,0.5291667 v 4.7624999 c 0,0.2931584 0.2360083,0.5291667 0.5291667,0.5291667 h 1.8520833 v 1.0583333 h -1.5875 V 10.31875 H 9.2604166 V 9.7895832 h -1.5875 V 8.7312499 h 1.8520833 c 0.2931583,0 0.5291671,-0.2360083 0.5291671,-0.5291667 V 3.4395833 c 0,-0.2931583 -0.2360088,-0.5291667 -0.5291671,-0.5291667 z m 0.2645833,0.5291667 h 4.4979166 1.3229167 c 0.1465789,0 0.2645833,0.1180042 0.2645833,0.2645833 v 1.3229167 2.9104166 c 0,0.1465792 -0.1180044,0.2645833 -0.2645833,0.2645833 H 3.4395833 C 3.2930044,8.2020832 3.175,8.0840791 3.175,7.9374999 V 3.7041666 c 0,-0.1465791 0.1180044,-0.2645833 0.2645833,-0.2645833 z m 6.0854166,1.5875 -1.5875,-1.5875 v 0.79375 0.5291666 c 0,0.07329 0.029691,0.1392452 0.077515,0.1870687 0.047823,0.047823 0.1137793,0.077515 0.1870686,0.077515 H 8.6253131 Z M 5.2916666,4.2333333 5.1164836,4.7588826 4.6209066,4.5113524 4.2467691,4.8854899 4.4942992,5.3810669 3.96875,5.5562499 v 0.5291667 l 0.5255492,0.175183 -0.2475301,0.495577 0.3741375,0.3741375 0.495577,-0.2475301 0.175183,0.5255492 H 5.8208333 L 5.9960163,6.882784 6.4915933,7.1303141 6.8657308,6.7561766 6.6182006,6.2605996 7.1437499,6.0854166 V 5.5562499 L 6.6182006,5.3810669 6.8657308,4.8854899 6.4915933,4.5113524 5.9960163,4.7588826 5.8208333,4.2333333 Z M 5.5562499,5.2916666 A 0.52916663,0.52916663 0 0 1 6.0854166,5.8208333 0.52916663,0.52916663 0 0 1 5.5562499,6.3499999 0.52916663,0.52916663 0 0 1 5.0270833,5.8208333 0.52916663,0.52916663 0 0 1 5.5562499,5.2916666 Z"
     id="path818" />
</svg>
