<?xml version="1.0" encoding="UTF-8" standalone="no"?>
<svg
   width="47.546455"
   height="47.542679"
   viewBox="0 0 12.58 12.579"
   version="1.1"
   id="svg4"
   sodipodi:docname="logviewer.svg"
   inkscape:version="0.92.4 (5da689c313, 2019-01-14)"
   xmlns:inkscape="http://www.inkscape.org/namespaces/inkscape"
   xmlns:sodipodi="http://sodipodi.sourceforge.net/DTD/sodipodi-0.dtd"
   xmlns="http://www.w3.org/2000/svg"
   xmlns:svg="http://www.w3.org/2000/svg"
   xmlns:rdf="http://www.w3.org/1999/02/22-rdf-syntax-ns#"
   xmlns:cc="http://creativecommons.org/ns#"
   xmlns:dc="http://purl.org/dc/elements/1.1/">
  <metadata
     id="metadata10">
    <rdf:RDF>
      <cc:Work
         rdf:about="">
        <dc:format>image/svg+xml</dc:format>
        <dc:type
           rdf:resource="http://purl.org/dc/dcmitype/StillImage" />
        <dc:title />
      </cc:Work>
    </rdf:RDF>
  </metadata>
  <defs
     id="defs8" />
  <sodipodi:namedview
     pagecolor="#ffffff"
     bordercolor="#666666"
     borderopacity="1"
     objecttolerance="10"
     gridtolerance="10"
     guidetolerance="10"
     inkscape:pageopacity="0"
     inkscape:pageshadow="2"
     inkscape:window-width="1087"
     inkscape:window-height="480"
     id="namedview6"
     showgrid="false"
     inkscape:zoom="4.9166667"
     inkscape:cx="2.1355932"
     inkscape:cy="24"
     inkscape:window-x="0"
     inkscape:window-y="25"
     inkscape:window-maximized="0"
     inkscape:current-layer="svg4"
     inkscape:showpageshadow="0"
     inkscape:pagecheckerboard="0"
     inkscape:deskcolor="#d1d1d1" />
  <path
     d="M 6.29,9.9999565e-4 A 6.29,6.29 0 0 0 0,6.291 6.29,6.29 0 0 0 6.29,12.579 6.29,6.29 0 0 0 12.58,6.29 6.29,6.29 0 0 0 6.29,0 Z M 6.272,0.937 A 5.407,5.407 0 0 1 11.679,6.344 5.407,5.407 0 0 1 6.272,11.751 5.407,5.407 0 0 1 0.866,6.344 5.407,5.407 0 0 1 6.272,0.938 Z M 3.19,2.158 C 3.028,2.158 2.9,2.851 2.9,3.709 V 8.556 H 1.92 c 0,0.644 0.112,1.163 0.447,1.163 h 7.81 c 0.336,0 0.447,-0.519 0.447,-1.163 H 9.684 V 3.708 c 0,-0.858 -0.128,-1.55 -0.29,-1.55 H 9.067 L 9.152,2.351 H 8.764 L 8.679,2.157 H 3.899 L 3.814,2.351 H 3.426 L 3.511,2.157 H 3.191 Z M 3.335,2.74 H 3.724 L 3.687,3.128 H 3.299 Z m 5.514,0 H 9.236 L 9.279,3.128 H 8.891 Z M 6.146,2.985 A 1.763,1.763 0 0 1 7.761,5.31 C 7.642,5.659 7.423,5.946 7.146,6.15 L 7.88,7.645 A 0.32,0.32 0 1 1 7.306,7.926 L 6.572,6.432 A 1.747,1.747 0 0 1 5.529,6.405 1.763,1.763 0 0 1 4.433,4.173 1.764,1.764 0 0 1 6.146,2.985 Z m -2.86,0.53 H 3.674 V 3.902 H 3.286 V 3.514 Z m 5.622,0 H 9.296 V 3.902 H 8.908 V 3.514 Z M 6.126,3.622 A 1.113,1.113 0 0 0 5.037,4.379 1.115,1.115 0 0 0 5.736,5.8 C 6.325,6.001 6.956,5.691 7.156,5.103 A 1.114,1.114 0 0 0 6.459,3.683 1.138,1.138 0 0 0 6.126,3.623 Z M 3.286,4.29 H 3.674 V 4.678 H 3.286 Z m 5.622,0 H 9.296 V 4.678 H 8.908 Z M 3.286,5.065 H 3.674 V 5.453 H 3.286 Z m 5.622,0 H 9.296 V 5.453 H 8.908 Z M 3.286,5.841 H 3.674 V 6.228 H 3.286 Z m 5.622,0 H 9.296 V 6.228 H 8.908 Z M 3.286,6.616 H 3.674 V 7.004 H 3.286 Z m 5.622,0 H 9.296 V 7.004 H 8.908 Z M 3.286,7.392 H 3.674 V 7.779 H 3.286 Z m 5.622,0 H 9.296 V 7.779 H 8.908 Z M 3.286,8.167 H 3.674 V 8.555 H 3.286 Z m 5.622,0 H 9.296 V 8.555 H 8.908 Z M 2.366,8.942 h 0.446 c -0.006,0.2 0.019,0.311 0.056,0.389 H 2.421 C 2.381,9.258 2.373,9.139 2.366,8.942 Z m 7.365,0 h 0.446 C 10.169,9.139 10.162,9.258 10.121,9.331 H 9.686 V 9.301 A 0.853,0.853 0 0 0 9.733,8.942 Z"
     id="path2"
     inkscape:connector-curvature="0"
     style="fill:#bde6fb;fill-opacity:1" />
</svg>
