<?xml version="1.0" encoding="UTF-8" standalone="no"?>
<svg
   width="47.546486"
   height="47.546486"
   viewBox="0 0 12.580008 12.580008"
   version="1.1"
   id="svg6"
   sodipodi:docname="lollypop.svg"
   inkscape:version="0.92.4 (5da689c313, 2019-01-14)"
   xmlns:inkscape="http://www.inkscape.org/namespaces/inkscape"
   xmlns:sodipodi="http://sodipodi.sourceforge.net/DTD/sodipodi-0.dtd"
   xmlns="http://www.w3.org/2000/svg"
   xmlns:svg="http://www.w3.org/2000/svg"
   xmlns:rdf="http://www.w3.org/1999/02/22-rdf-syntax-ns#"
   xmlns:cc="http://creativecommons.org/ns#"
   xmlns:dc="http://purl.org/dc/elements/1.1/">
  <metadata
     id="metadata12">
    <rdf:RDF>
      <cc:Work
         rdf:about="">
        <dc:format>image/svg+xml</dc:format>
        <dc:type
           rdf:resource="http://purl.org/dc/dcmitype/StillImage" />
        <dc:title />
      </cc:Work>
    </rdf:RDF>
  </metadata>
  <defs
     id="defs10" />
  <sodipodi:namedview
     pagecolor="#ffffff"
     bordercolor="#666666"
     borderopacity="1"
     objecttolerance="10"
     gridtolerance="10"
     guidetolerance="10"
     inkscape:pageopacity="0"
     inkscape:pageshadow="2"
     inkscape:window-width="1087"
     inkscape:window-height="480"
     id="namedview8"
     showgrid="false"
     inkscape:zoom="4.9166667"
     inkscape:cx="2.1355932"
     inkscape:cy="24"
     inkscape:window-x="0"
     inkscape:window-y="25"
     inkscape:window-maximized="0"
     inkscape:current-layer="svg6"
     inkscape:showpageshadow="0"
     inkscape:pagecheckerboard="0"
     inkscape:deskcolor="#d1d1d1" />
  <path
     d="M 6.2900079,0 A 6.29,6.29 0 0 0 7.9490244e-6,6.3 6.29,6.29 0 0 0 6.3000079,12.58 6.29,6.29 0 0 0 12.580008,6.29 6.29,6.29 0 0 0 6.2900079,0 Z m -1.05,1 a 4.85,4.85 0 0 0 -0.69,2.89 3,3 0 0 1 1.72,-0.55 5.4,5.4 0 0 1 1.41,-2.25 5.11,5.11 0 0 1 1.2,0.47 5.48,5.48 0 0 1 1.4900001,1.2 4.85,4.85 0 0 0 -2.8400001,0.86 3,3 0 0 1 1.32,1.21 c 0.79,-0.14 1.8100001,-0.2 2.6600001,0.1 a 5.51,5.51 0 0 1 -0.05,3 l -0.06,0.16 c -0.4,-0.86 -1.3,-1.6 -2.1600001,-2.03 a 3,3 0 0 1 0.01,0.27 3,3 0 0 1 -0.4,1.5 5.4,5.4 0 0 1 1.2500001,2.34 l -0.05,0.06 a 5.56,5.56 0 0 1 -2.7500001,1.43 4.9,4.9 0 0 0 0.69,-2.89 3,3 0 0 1 -1.73,0.56 5.4,5.4 0 0 1 -1.4,2.24 5.54,5.54 0 0 1 -0.71,-0.24 5.46,5.46 0 0 1 -1.98,-1.44 c 0.95,0.08 2.03,-0.33 2.83,-0.85 a 3,3 0 0 1 -1.32,-1.21 5.4,5.4 0 0 1 -2.65,-0.1 5.43,5.43 0 0 1 0.11,-3.16 c 0.4,0.86 1.3,1.59 2.15,2.02 a 3,3 0 0 1 -0.01,-0.26 3,3 0 0 1 0.4,-1.5 5.4,5.4 0 0 1 -1.23,-2.34 3.82,3.82 0 0 1 0.9,-0.73 5.45,5.45 0 0 1 1.9,-0.76 z"
     id="path2"
     inkscape:connector-curvature="0"
     style="fill:#bde6fb;fill-opacity:1" />
  <path
     d="m 5.3500079,4.79 c -0.1,0 -0.18,0.08 -0.18,0.17 v 2.83 c 0,0.14 0.14,0.22 0.25,0.15 l 1.16,-0.7 1.16,-0.71 c 0.1,-0.07 0.1,-0.23 0,-0.3 l -1.16,-0.7 -1.16,-0.72 a 0.16,0.16 0 0 0 -0.08,-0.02 z"
     id="path4"
     inkscape:connector-curvature="0"
     style="fill:#fa4b8c" />
</svg>
