<?xml version="1.0" encoding="UTF-8" standalone="no"?>
<svg
   width="48"
   height="48"
   viewBox="0 0 12.7 12.7"
   version="1.1"
   id="svg4"
   sodipodi:docname="love.svg"
   inkscape:version="0.92.5 (2060ec1f9f, 2020-04-08)"
   inkscape:export-filename="love.png"
   inkscape:export-xdpi="96"
   inkscape:export-ydpi="96"
   xmlns:inkscape="http://www.inkscape.org/namespaces/inkscape"
   xmlns:sodipodi="http://sodipodi.sourceforge.net/DTD/sodipodi-0.dtd"
   xmlns="http://www.w3.org/2000/svg"
   xmlns:svg="http://www.w3.org/2000/svg">
  <sodipodi:namedview
     id="namedview1"
     pagecolor="#505050"
     bordercolor="#eeeeee"
     borderopacity="1"
     inkscape:showpageshadow="0"
     inkscape:pageopacity="0"
     inkscape:pagecheckerboard="0"
     inkscape:deskcolor="#d1d1d1" />
  <defs
     id="defs8">
    <style
       id="current-color-scheme"
       type="text/css">&#10;      .ColorScheme-Highlight {&#10;        color:#1e3f5a;&#10;      }&#10;  </style>
  </defs>
  <path
     class="ColorScheme-Highlight"
     style="fill:#bde6fb;fill-opacity:1;stroke-width:0.264583"
     d="M 6.3499999,0 A 6.3499999,6.3499999 0 0 0 0,6.3499999 6.3499999,6.3499999 0 0 0 6.3499999,12.7 6.3499999,6.3499999 0 0 0 12.7,6.3499999 6.3499999,6.3499999 0 0 0 6.3499999,0 Z m 0,0.79374999 A 5.5562499,5.5562499 0 0 1 11.90625,6.3499999 5.5562499,5.5562499 0 0 1 6.3499999,11.90625 5.5562499,5.5562499 0 0 1 0.79374999,6.3499999 5.5562499,5.5562499 0 0 1 6.3499999,0.79374999 Z"
     id="path817" />
  <path
     style="fill:#27aae1;stroke-width:0.264583"
     d="M 2.984314,9.7156859 A 4.7625013,4.7625013 0 0 0 6.3499999,11.1125 4.7625013,4.7625013 0 0 0 11.1125,6.3499999 4.7625013,4.7625013 0 0 0 9.7156859,2.984314 L 8.3808836,4.3191162 c 1.0314432,0.7340672 1.9226914,2.6402689 -2.0288168,4.9402669 5.557e-4,3.175e-4 0.00101,7.144e-4 0.00156,0.00103 h -0.00363 c 6.879e-4,-3.969e-4 0.00138,-6.35e-4 0.00206,-0.00103 C 5.6192078,8.832857 5.0993979,8.4260266 4.6694793,8.0305173 Z"
     id="path846" />
  <path
     style="fill:#e74a99;stroke-width:0.264583"
     d="M 2.984314,9.7156859 4.6694825,8.0305173 C 2.3100909,5.8599659 4.0150052,4.2280048 4.9268311,4.0075072 5.0616135,3.9749293 5.1872282,3.9639319 5.3045857,3.9703001 5.8216281,3.9983574 6.164595,4.3523997 6.3520668,4.6136718 6.582134,4.2931045 7.0488984,3.8314465 7.7773029,4.0075072 7.9593098,4.0515304 8.171368,4.1700061 8.3808836,4.3191162 L 9.7156859,2.984314 A 4.7625013,4.7625013 0 0 0 6.3499999,1.5875 4.7625013,4.7625013 0 0 0 1.5875,6.3499999 4.7625013,4.7625013 0 0 0 2.984314,9.7156859 Z"
     id="path840" />
</svg>
