<?xml version="1.0" encoding="UTF-8" standalone="no"?>
<svg
   width="47.546486"
   height="47.546486"
   viewBox="0 0 12.580008 12.580008"
   version="1.1"
   id="svg8"
   sodipodi:docname="lutris.svg"
   inkscape:version="0.92.4 (5da689c313, 2019-01-14)"
   xmlns:inkscape="http://www.inkscape.org/namespaces/inkscape"
   xmlns:sodipodi="http://sodipodi.sourceforge.net/DTD/sodipodi-0.dtd"
   xmlns="http://www.w3.org/2000/svg"
   xmlns:svg="http://www.w3.org/2000/svg"
   xmlns:rdf="http://www.w3.org/1999/02/22-rdf-syntax-ns#"
   xmlns:cc="http://creativecommons.org/ns#"
   xmlns:dc="http://purl.org/dc/elements/1.1/">
  <metadata
     id="metadata14">
    <rdf:RDF>
      <cc:Work
         rdf:about="">
        <dc:format>image/svg+xml</dc:format>
        <dc:type
           rdf:resource="http://purl.org/dc/dcmitype/StillImage" />
        <dc:title />
      </cc:Work>
    </rdf:RDF>
  </metadata>
  <defs
     id="defs12" />
  <sodipodi:namedview
     pagecolor="#ffffff"
     bordercolor="#666666"
     borderopacity="1"
     objecttolerance="10"
     gridtolerance="10"
     guidetolerance="10"
     inkscape:pageopacity="0"
     inkscape:pageshadow="2"
     inkscape:window-width="862"
     inkscape:window-height="480"
     id="namedview10"
     showgrid="false"
     inkscape:zoom="4.9166667"
     inkscape:cx="2.1355932"
     inkscape:cy="24"
     inkscape:window-x="0"
     inkscape:window-y="25"
     inkscape:window-maximized="0"
     inkscape:current-layer="svg8"
     inkscape:showpageshadow="0"
     inkscape:pagecheckerboard="0"
     inkscape:deskcolor="#d1d1d1" />
  <path
     d="M 6.29,0 A 6.29,6.29 0 0 0 0,6.29 6.29,6.29 0 0 0 6.3,12.58 6.29,6.29 0 0 0 12.58,6.28 6.29,6.29 0 0 0 6.29,0.01 Z M 6.27,0.93 6.28,0.94 a 5.4,5.4 0 0 1 5.4,5.4 5.4,5.4 0 0 1 -5.4,5.41 5.4,5.4 0 0 1 -5.41,-5.4 5.4,5.4 0 0 1 5.4,-5.42 z M 5.839,1.735 A 1.836,1.836 0 0 0 5.555,1.751 C 5.158,1.804 4.841,1.963 4.867,2.121 L 5.854,6.504 2.883,8.287 a 0.18,0.18 0 0 0 -0.08,0.194 v 0.81 c 0,0.239 0.132,0.424 0.37,0.504 l 2.964,0.9 c 0.688,0.21 1.138,0.184 1.64,-0.213 L 10.132,8.339 A 0.72,0.72 0 0 0 10.37,7.784 L 10.355,6.975 A 0.188,0.188 0 0 0 10.354,6.931 L 10.353,6.883 10.343,6.885 A 0.208,0.208 0 0 0 10.185,6.752 L 6.895,6.346 6.322,1.91 C 6.302,1.81 6.104,1.741 5.839,1.735 Z M 5.721,1.853 A 0.203,0.474 82.12 0 1 6.078,1.999 0.203,0.474 82.12 0 1 5.636,2.266 0.203,0.474 82.12 0 1 5.139,2.129 0.203,0.474 82.12 0 1 5.581,1.863 0.203,0.474 82.12 0 1 5.721,1.853 Z M 6.94,6.7 8.451,6.886 A 0.56,0.902 82.066 0 0 8.182,7.352 0.56,0.902 82.066 0 0 8.905,7.803 L 7.483,9.035 C 7.191,9.286 6.793,9.37 6.417,9.265 L 3.7,8.492 A 0.158,0.158 0 0 1 3.626,8.441 0.16,0.16 0 0 1 3.593,8.364 0.14,0.14 0 0 1 3.656,8.225 L 3.651,8.227 3.658,8.22 5.933,6.856 5.965,7 A 0.82,1.402 81.118 0 0 5.256,7.869 0.82,1.402 81.118 0 0 6.768,8.462 0.82,1.402 81.118 0 0 8.027,7.435 0.82,1.402 81.118 0 0 7.5,6.915 0.74,1.323 81.118 0 1 7.947,7.366 0.74,1.323 81.118 0 1 6.755,8.303 0.74,1.323 81.118 0 1 5.334,7.775 0.74,1.323 81.118 0 1 5.966,7.003 0.661,1.19 81.118 0 0 5.952,7.01 0.556,1.058 81.118 0 1 5.966,7.004 l 0.002,0.01 A 0.476,0.9 81.118 0 0 5.67,7.447 0.476,0.9 81.118 0 0 6.633,7.779 0.476,0.9 81.118 0 0 7.448,7.169 0.476,0.9 81.118 0 0 6.957,6.836 L 6.955,6.821 A 0.556,1.058 81.118 0 1 7.631,7.223 0.556,1.058 81.118 0 1 6.671,7.935 0.556,1.058 81.118 0 1 5.54,7.549 0.556,1.058 81.118 0 1 5.947,7.013 0.661,1.19 81.118 0 0 5.438,7.675 0.661,1.19 81.118 0 0 6.717,8.145 0.661,1.19 81.118 0 0 7.79,7.307 0.661,1.19 81.118 0 0 6.955,6.817 V 6.816 A 0.82,1.402 81.118 0 1 7.342,6.866 0.74,1.323 81.118 0 0 6.954,6.812 L 6.94,6.702 Z M 6.96,6.854 A 0.397,0.714 81.118 0 1 7.265,7.116 0.397,0.714 81.118 0 1 6.62,7.618 0.397,0.714 81.118 0 1 5.853,7.337 0.397,0.714 81.118 0 1 5.979,7.059 L 6.004,7.174 C 6.031,7.28 6.084,7.359 6.19,7.386 6.375,7.439 6.64,7.466 6.878,7.306 A 0.252,0.252 0 0 0 6.984,7.042 L 6.959,6.854 Z"
     id="path2"
     inkscape:connector-curvature="0"
     style="fill:#bde6fb;fill-opacity:1" />
  <ellipse
     transform="rotate(-6.921)"
     cx="8.1407995"
     cy="8.2434855"
     rx="0.63499999"
     ry="0.37"
     id="ellipse4"
     style="fill:#ea5514" />
  <ellipse
     transform="rotate(-6.921)"
     cx="8.1487989"
     cy="8.164485"
     rx="0.52899998"
     ry="0.29100001"
     id="ellipse6"
     style="fill:#f39800" />
</svg>
