<?xml version="1.0" encoding="UTF-8" standalone="no"?>
<svg
   width="47.542679"
   height="47.546455"
   viewBox="0 0 12.579 12.58"
   version="1.1"
   id="svg4"
   sodipodi:docname="magictree.svg"
   inkscape:version="0.92.5 (2060ec1f9f, 2020-04-08)"
   xmlns:inkscape="http://www.inkscape.org/namespaces/inkscape"
   xmlns:sodipodi="http://sodipodi.sourceforge.net/DTD/sodipodi-0.dtd"
   xmlns="http://www.w3.org/2000/svg"
   xmlns:svg="http://www.w3.org/2000/svg"
   xmlns:rdf="http://www.w3.org/1999/02/22-rdf-syntax-ns#"
   xmlns:cc="http://creativecommons.org/ns#"
   xmlns:dc="http://purl.org/dc/elements/1.1/">
  <metadata
     id="metadata10">
    <rdf:RDF>
      <cc:Work
         rdf:about="">
        <dc:format>image/svg+xml</dc:format>
        <dc:type
           rdf:resource="http://purl.org/dc/dcmitype/StillImage" />
        <dc:title />
      </cc:Work>
    </rdf:RDF>
  </metadata>
  <defs
     id="defs8" />
  <sodipodi:namedview
     pagecolor="#ffffff"
     bordercolor="#666666"
     borderopacity="1"
     objecttolerance="10"
     gridtolerance="10"
     guidetolerance="10"
     inkscape:pageopacity="0"
     inkscape:pageshadow="2"
     inkscape:window-width="1085"
     inkscape:window-height="480"
     id="namedview6"
     showgrid="false"
     inkscape:zoom="4.9166667"
     inkscape:cx="2.1355932"
     inkscape:cy="24"
     inkscape:window-x="0"
     inkscape:window-y="25"
     inkscape:window-maximized="0"
     inkscape:current-layer="svg4"
     inkscape:showpageshadow="0"
     inkscape:pagecheckerboard="0"
     inkscape:deskcolor="#d1d1d1" />
  <path
     d="M 6.285,0 A 6.295,6.295 0 0 0 0,6.285 6.295,6.295 0 0 0 6.285,12.58 6.295,6.295 0 0 0 12.579,6.285 6.295,6.295 0 0 0 6.285,0 Z M 6.274,0.94 a 5.408,5.408 0 0 1 5.397,5.387 5.407,5.407 0 0 1 -10.814,0 C 0.857,3.34 3.287,0.94 6.274,0.94 Z M 6.295,1.154 A 0.236,0.236 0 0 0 6.059,1.39 0.236,0.236 0 0 0 6.295,1.627 0.236,0.236 0 0 0 6.531,1.39 0.236,0.236 0 0 0 6.295,1.154 Z M 6.292,1.693 A 0.162,0.162 0 0 0 6.133,1.857 V 7.615 C 6.058,7.515 5.993,7.379 5.936,7.207 5.825,6.865 5.755,6.407 5.688,5.925 5.622,5.445 5.558,4.94 5.442,4.491 5.326,4.043 5.162,3.643 4.864,3.388 A 0.162,0.162 0 0 0 4.761,3.348 0.162,0.162 0 0 0 4.653,3.633 c 0.213,0.182 0.367,0.52 0.475,0.94 0.108,0.419 0.173,0.913 0.24,1.396 L 5.397,6.177 A 0.236,0.236 0 0 0 5.218,6.094 0.236,0.236 0 0 0 5.011,6.217 2.747,2.747 0 0 0 4.684,5.682 1.873,1.873 0 0 0 3.665,5.032 0.162,0.162 0 0 0 3.617,5.027 0.162,0.162 0 0 0 3.583,5.345 C 3.982,5.45 4.235,5.639 4.432,5.885 4.628,6.13 4.763,6.436 4.894,6.762 5.069,7.198 5.24,7.676 5.572,8.055 5.021,7.855 4.709,7.532 4.402,7.195 3.983,6.736 3.563,6.236 2.668,6.162 a 0.162,0.162 0 0 0 -0.016,0 0.162,0.162 0 0 0 -0.01,0.322 C 3.43,6.549 3.736,6.946 4.163,7.414 4.386,7.658 4.638,7.916 4.988,8.127 4.591,8.085 4.208,7.955 3.81,7.807 3.176,7.571 2.51,7.287 1.741,7.297 1.631,7.298 1.52,7.307 1.405,7.321 a 0.162,0.162 0 1 0 0.041,0.32 C 2.262,7.537 2.962,7.836 3.696,8.11 4.313,8.339 4.96,8.547 5.685,8.427 5.823,8.467 5.972,8.5 6.133,8.524 v 2.677 a 0.162,0.213 0 1 0 0.324,0 V 8.525 C 6.618,8.501 6.767,8.468 6.905,8.428 7.63,8.548 8.277,8.34 8.893,8.111 9.628,7.838 10.328,7.539 11.143,7.643 A 0.162,0.162 0 1 0 11.185,7.322 2.98,2.98 0 0 0 10.849,7.298 C 10.079,7.288 9.414,7.572 8.78,7.808 8.382,7.956 8,8.086 7.602,8.128 7.952,7.917 8.204,7.658 8.427,7.415 8.854,6.947 9.16,6.551 9.949,6.485 A 0.162,0.162 0 0 0 9.933,6.162 0.162,0.162 0 0 0 9.922,6.163 C 9.027,6.237 8.607,6.738 8.187,7.197 7.881,7.533 7.569,7.857 7.018,8.057 7.35,7.677 7.521,7.199 7.696,6.763 7.826,6.437 7.962,6.131 8.158,5.885 8.355,5.64 8.608,5.451 9.007,5.346 A 0.162,0.162 0 0 0 8.968,5.028 0.162,0.162 0 0 0 8.925,5.033 C 8.463,5.154 8.139,5.393 7.906,5.683 A 2.748,2.748 0 0 0 7.579,6.218 0.236,0.236 0 0 0 7.372,6.095 0.236,0.236 0 0 0 7.193,6.178 L 7.223,5.97 C 7.289,5.487 7.353,4.993 7.462,4.573 7.57,4.153 7.724,3.816 7.937,3.634 A 0.162,0.162 0 0 0 7.841,3.349 0.162,0.162 0 0 0 7.726,3.389 C 7.428,3.645 7.264,4.044 7.148,4.492 7.033,4.941 6.968,5.445 6.902,5.926 6.835,6.407 6.766,6.865 6.654,7.206 A 1.409,1.409 0 0 1 6.457,7.614 V 1.857 A 0.162,0.162 0 0 0 6.292,1.693 Z M 5.787,2.753 A 0.236,0.236 0 0 0 5.55,2.989 0.236,0.236 0 0 0 5.787,3.225 0.236,0.236 0 0 0 6.023,2.989 0.236,0.236 0 0 0 5.787,2.753 Z m 1.016,0 A 0.236,0.236 0 0 0 6.567,2.989 0.236,0.236 0 0 0 6.803,3.225 0.236,0.236 0 0 0 7.04,2.989 0.236,0.236 0 0 0 6.803,2.753 Z M 5.828,3.897 A 0.236,0.236 0 0 0 5.592,4.134 0.236,0.236 0 0 0 5.828,4.37 0.236,0.236 0 0 0 6.065,4.134 0.236,0.236 0 0 0 5.828,3.897 Z m 0.934,0 A 0.236,0.236 0 0 0 6.525,4.134 0.236,0.236 0 0 0 6.762,4.37 0.236,0.236 0 0 0 6.998,4.134 0.236,0.236 0 0 0 6.762,3.897 Z M 4.633,4.248 A 0.236,0.236 0 0 0 4.396,4.485 0.236,0.236 0 0 0 4.633,4.721 0.236,0.236 0 0 0 4.869,4.485 0.236,0.236 0 0 0 4.633,4.248 Z m 3.324,0 A 0.236,0.236 0 0 0 7.721,4.485 0.236,0.236 0 0 0 7.957,4.721 0.236,0.236 0 0 0 8.193,4.485 0.236,0.236 0 0 0 7.957,4.248 Z M 4.992,5.076 A 0.236,0.236 0 0 0 4.756,5.312 0.236,0.236 0 0 0 4.992,5.548 0.236,0.236 0 0 0 5.229,5.312 0.236,0.236 0 0 0 4.992,5.076 Z m 2.606,0 A 0.236,0.236 0 0 0 7.361,5.312 0.236,0.236 0 0 0 7.598,5.548 0.236,0.236 0 0 0 7.834,5.312 0.236,0.236 0 0 0 7.598,5.076 Z M 5.861,5.193 A 0.236,0.236 0 0 0 5.625,5.429 0.236,0.236 0 0 0 5.861,5.666 0.236,0.236 0 0 0 6.098,5.429 0.236,0.236 0 0 0 5.861,5.193 Z m 0.868,0 A 0.236,0.236 0 0 0 6.492,5.429 0.236,0.236 0 0 0 6.729,5.666 0.236,0.236 0 0 0 6.965,5.429 0.236,0.236 0 0 0 6.729,5.193 Z M 3.497,5.51 A 0.236,0.236 0 0 0 3.26,5.747 0.236,0.236 0 0 0 3.497,5.983 0.236,0.236 0 0 0 3.733,5.747 0.236,0.236 0 0 0 3.497,5.51 Z m 5.597,0 A 0.236,0.236 0 0 0 8.857,5.747 0.236,0.236 0 0 0 9.094,5.983 0.236,0.236 0 0 0 9.33,5.747 0.236,0.236 0 0 0 9.094,5.51 Z M 4.29,6.045 A 0.236,0.236 0 0 0 4.054,6.282 0.236,0.236 0 0 0 4.29,6.518 0.236,0.236 0 0 0 4.527,6.282 0.236,0.236 0 0 0 4.29,6.045 Z m 4.01,0 A 0.236,0.236 0 0 0 8.063,6.282 0.236,0.236 0 0 0 8.3,6.518 0.236,0.236 0 0 0 8.536,6.282 0.236,0.236 0 0 0 8.3,6.045 Z M 5.435,6.427 c 0.05,0.318 0.108,0.619 0.194,0.88 0.096,0.293 0.234,0.55 0.448,0.7 A 0.162,0.162 0 0 0 6.007,8.015 C 6.003,8.015 5.999,8.018 5.995,8.019 5.586,7.682 5.408,7.175 5.195,6.642 L 5.161,6.561 A 0.236,0.236 0 0 0 5.218,6.568 0.236,0.236 0 0 0 5.435,6.427 Z m 1.72,0 A 0.236,0.236 0 0 0 7.372,6.568 0.236,0.236 0 0 0 7.429,6.561 L 7.396,6.642 C 7.182,7.175 7.004,7.682 6.596,8.019 6.591,8.019 6.587,8.016 6.583,8.015 A 0.162,0.162 0 0 0 6.513,8.006 C 6.727,7.857 6.865,7.6 6.961,7.307 A 5.7,5.7 0 0 0 7.156,6.427 Z M 2.635,6.764 A 0.236,0.236 0 0 0 2.4,7 0.236,0.236 0 0 0 2.636,7.237 0.236,0.236 0 0 0 2.872,7 0.236,0.236 0 0 0 2.636,6.764 Z m 7.32,0 A 0.236,0.236 0 0 0 9.718,7 0.236,0.236 0 0 0 9.954,7.237 0.236,0.236 0 0 0 10.191,7 0.236,0.236 0 0 0 9.954,6.764 Z M 4.725,6.923 A 0.236,0.236 0 0 0 4.488,7.159 0.236,0.236 0 0 0 4.725,7.395 0.236,0.236 0 0 0 4.961,7.159 0.236,0.236 0 0 0 4.725,6.923 Z m 3.14,0 A 0.236,0.236 0 0 0 7.629,7.159 0.236,0.236 0 0 0 7.865,7.395 0.236,0.236 0 0 0 8.101,7.159 0.236,0.236 0 0 0 7.865,6.923 Z M 3.596,7.132 A 0.236,0.236 0 0 0 3.36,7.368 0.236,0.236 0 0 0 3.596,7.604 0.236,0.236 0 0 0 3.833,7.368 0.236,0.236 0 0 0 3.596,7.132 Z m 5.397,0 A 0.236,0.236 0 0 0 8.757,7.368 0.236,0.236 0 0 0 8.993,7.604 0.236,0.236 0 0 0 9.229,7.368 0.236,0.236 0 0 0 8.993,7.132 Z M 1.591,7.884 A 0.236,0.236 0 0 0 1.355,8.12 0.236,0.236 0 0 0 1.591,8.357 0.236,0.236 0 0 0 1.828,8.12 0.236,0.236 0 0 0 1.591,7.884 Z m 9.408,0 A 0.236,0.236 0 0 0 10.762,8.12 0.236,0.236 0 0 0 10.999,8.357 0.236,0.236 0 0 0 11.235,8.12 0.236,0.236 0 0 0 10.999,7.884 Z m -8.363,0.1 A 0.236,0.236 0 0 0 2.399,8.22 0.236,0.236 0 0 0 2.636,8.457 0.236,0.236 0 0 0 2.872,8.22 0.236,0.236 0 0 0 2.636,7.984 Z m 7.318,0 A 0.236,0.236 0 0 0 9.718,8.22 0.236,0.236 0 0 0 9.954,8.457 0.236,0.236 0 0 0 10.19,8.22 0.236,0.236 0 0 0 9.954,7.984 Z M 3.63,8.31 A 0.236,0.236 0 0 0 3.394,8.546 0.236,0.236 0 0 0 3.63,8.783 0.236,0.236 0 0 0 3.866,8.546 0.236,0.236 0 0 0 3.63,8.31 Z m 5.33,0 A 0.236,0.236 0 0 0 8.723,8.546 0.236,0.236 0 0 0 8.959,8.783 0.236,0.236 0 0 0 9.196,8.546 0.236,0.236 0 0 0 8.959,8.31 Z M 4.45,8.56 A 0.236,0.236 0 0 0 4.213,8.797 0.236,0.236 0 0 0 4.449,9.033 0.236,0.236 0 0 0 4.685,8.797 0.236,0.236 0 0 0 4.449,8.561 Z m 3.69,0 A 0.236,0.236 0 0 0 7.904,8.797 0.236,0.236 0 0 0 8.141,9.033 0.236,0.236 0 0 0 8.377,8.797 0.236,0.236 0 0 0 8.141,8.561 Z M 5.377,8.66 A 0.236,0.236 0 0 0 5.141,8.897 0.236,0.236 0 0 0 5.377,9.134 0.236,0.236 0 0 0 5.613,8.897 0.236,0.236 0 0 0 5.377,8.661 Z m 1.836,0 A 0.236,0.236 0 0 0 6.977,8.897 0.236,0.236 0 0 0 7.213,9.134 0.236,0.236 0 0 0 7.449,8.897 0.236,0.236 0 0 0 7.213,8.661 Z"
     id="path2"
     inkscape:connector-curvature="0"
     style="fill:#bde6fb;fill-opacity:1" />
</svg>
