<?xml version="1.0" encoding="UTF-8" standalone="no"?>
<svg
   width="47.546486"
   height="47.546486"
   viewBox="0 0 12.580008 12.580008"
   version="1.1"
   id="svg4"
   sodipodi:docname="maps.svg"
   inkscape:version="0.92.4 (5da689c313, 2019-01-14)"
   xmlns:inkscape="http://www.inkscape.org/namespaces/inkscape"
   xmlns:sodipodi="http://sodipodi.sourceforge.net/DTD/sodipodi-0.dtd"
   xmlns="http://www.w3.org/2000/svg"
   xmlns:svg="http://www.w3.org/2000/svg"
   xmlns:rdf="http://www.w3.org/1999/02/22-rdf-syntax-ns#"
   xmlns:cc="http://creativecommons.org/ns#"
   xmlns:dc="http://purl.org/dc/elements/1.1/">
  <metadata
     id="metadata10">
    <rdf:RDF>
      <cc:Work
         rdf:about="">
        <dc:format>image/svg+xml</dc:format>
        <dc:type
           rdf:resource="http://purl.org/dc/dcmitype/StillImage" />
        <dc:title />
      </cc:Work>
    </rdf:RDF>
  </metadata>
  <defs
     id="defs8" />
  <sodipodi:namedview
     pagecolor="#ffffff"
     bordercolor="#666666"
     borderopacity="1"
     objecttolerance="10"
     gridtolerance="10"
     guidetolerance="10"
     inkscape:pageopacity="0"
     inkscape:pageshadow="2"
     inkscape:window-width="1087"
     inkscape:window-height="480"
     id="namedview6"
     showgrid="false"
     inkscape:zoom="4.9166667"
     inkscape:cx="2.1355932"
     inkscape:cy="24"
     inkscape:window-x="0"
     inkscape:window-y="25"
     inkscape:window-maximized="0"
     inkscape:current-layer="svg4"
     inkscape:showpageshadow="0"
     inkscape:pagecheckerboard="0"
     inkscape:deskcolor="#d1d1d1" />
  <path
     d="M 6.2900079,0 A 6.29,6.29 0 0 0 7.9490244e-6,6.3 6.29,6.29 0 0 0 6.3000079,12.58 6.29,6.29 0 0 0 12.580008,6.29 6.29,6.29 0 0 0 6.2900079,0 Z m -0.01,0.94 A 5.4,5.4 0 0 1 11.680008,6.34 5.4,5.4 0 0 1 6.2800079,11.75 5.4,5.4 0 0 1 0.87000795,6.35 5.4,5.4 0 0 1 6.2700079,0.93 Z m 0,0.8 a 4.61,4.61 0 0 0 -0.33,0 4.61,4.61 0 0 0 -0.46,0.06 4.61,4.61 0 0 0 -0.45,0.1 4.61,4.61 0 0 0 -0.43,0.15 4.61,4.61 0 0 0 -0.43,0.18 4.61,4.61 0 0 0 -0.4,0.23 4.61,4.61 0 0 0 -0.37,0.27 4.61,4.61 0 0 0 -0.35,0.3 4.61,4.61 0 0 0 -0.31,0.34 4.61,4.61 0 0 0 -0.28,0.37 4.61,4.61 0 0 0 -0.24,0.4 4.61,4.61 0 0 0 -0.2,0.4 4.61,4.61 0 0 0 -0.16,0.44 4.61,4.61 0 0 0 -0.11,0.45 4.61,4.61 0 0 0 -0.07,0.46 4.61,4.61 0 0 0 -0.03,0.46 4.61,4.61 0 0 0 0.01,0.32 4.61,4.61 0 0 0 0.06,0.46 4.61,4.61 0 0 0 0.1,0.45 4.61,4.61 0 0 0 0.15,0.44 4.61,4.61 0 0 0 0.19,0.42 4.61,4.61 0 0 0 0.22,0.4 4.61,4.61 0 0 0 0.11,0.15 l 3.06,-3.06 a 4.5,4.5 0 0 1 -0.34,-1.45 2.22,2.22 0 0 1 0.67,-1.6 2.32,2.32 0 0 1 1.64,-0.66 c 0.31,0 0.62,0.06 0.9,0.17 0.15,0.07 0.27,0.18 0.4,0.28 l 0.1,-0.1 a 4.61,4.61 0 0 0 -0.05,-0.03 4.61,4.61 0 0 0 -0.4,-0.24 4.61,4.61 0 0 0 -0.4,-0.2 4.61,4.61 0 0 0 -0.45,-0.17 4.61,4.61 0 0 0 -0.45,-0.12 4.61,4.61 0 0 0 -0.45,-0.06 4.61,4.61 0 0 0 -0.46,-0.03 z m 1.25,0.87 a 1.9,1.9 0 0 0 -1.9,2.27 c 0.23,1.32 1.13,2.26 1.9,3.02 0.76,-0.76 1.66,-1.7 1.88,-3.02 a 2.36,2.36 0 0 0 0.04,-0.38 1.9,1.9 0 0 0 -1.92,-1.9 z m 2.22,0.71 -0.17,0.17 c 0.02,0.04 0.06,0.07 0.07,0.11 a 2.22,2.22 0 0 1 0.14,1.34 4.58,4.58 0 0 1 -0.88,2.07 c -0.17,0.23 -0.36,0.4 -0.54,0.6 l 1.55,1.55 a 4.61,4.61 0 0 0 0.1600001,-0.2 4.61,4.61 0 0 0 0.24,-0.4 4.61,4.61 0 0 0 0.2,-0.42 4.61,4.61 0 0 0 0.16,-0.43 4.61,4.61 0 0 0 0.12,-0.45 4.61,4.61 0 0 0 0.07,-0.45 4.61,4.61 0 0 0 0.02,-0.46 4.61,4.61 0 0 0 -0.01,-0.33 4.61,4.61 0 0 0 -0.06,-0.46 4.61,4.61 0 0 0 -0.1,-0.45 4.61,4.61 0 0 0 -0.14,-0.44 4.61,4.61 0 0 0 -0.2,-0.42 4.61,4.61 0 0 0 -0.22,-0.4 4.61,4.61 0 0 0 -0.2700001,-0.37 4.61,4.61 0 0 0 -0.14,-0.16 z m -2.22,0.41 a 0.8,0.8 0 1 1 0,1.6 0.8,0.8 0 0 1 0,-1.6 z m -1.68,3.5 -2.6,2.6 a 4.61,4.61 0 0 0 0.04,0.05 4.61,4.61 0 0 0 0.37,0.28 4.61,4.61 0 0 0 0.4,0.24 4.61,4.61 0 0 0 0.41,0.2 4.61,4.61 0 0 0 0.43,0.16 4.61,4.61 0 0 0 0.45,0.12 4.61,4.61 0 0 0 0.46,0.07 4.61,4.61 0 0 0 0.46,0.02 4.61,4.61 0 0 0 0.32,-0.01 4.61,4.61 0 0 0 0.46,-0.06 4.61,4.61 0 0 0 0.45,-0.1 4.61,4.61 0 0 0 0.44,-0.14 4.61,4.61 0 0 0 0.42,-0.2 4.61,4.61 0 0 0 0.4,-0.22 4.61,4.61 0 0 0 0.06,-0.04 l -2.97,-2.98 z"
     id="path2"
     inkscape:connector-curvature="0"
     style="fill:#bde6fb;fill-opacity:1" />
</svg>
