<?xml version="1.0" encoding="UTF-8" standalone="no"?>
<svg
   width="47.546486"
   height="47.546608"
   viewBox="0 0 12.580008 12.58004"
   version="1.1"
   id="svg6"
   sodipodi:docname="mat.svg"
   inkscape:version="0.92.4 (5da689c313, 2019-01-14)"
   xmlns:inkscape="http://www.inkscape.org/namespaces/inkscape"
   xmlns:sodipodi="http://sodipodi.sourceforge.net/DTD/sodipodi-0.dtd"
   xmlns="http://www.w3.org/2000/svg"
   xmlns:svg="http://www.w3.org/2000/svg"
   xmlns:rdf="http://www.w3.org/1999/02/22-rdf-syntax-ns#"
   xmlns:cc="http://creativecommons.org/ns#"
   xmlns:dc="http://purl.org/dc/elements/1.1/">
  <defs
     id="defs10" />
  <sodipodi:namedview
     pagecolor="#ffffff"
     bordercolor="#666666"
     borderopacity="1"
     objecttolerance="10"
     gridtolerance="10"
     guidetolerance="10"
     inkscape:pageopacity="0"
     inkscape:pageshadow="2"
     inkscape:window-width="1087"
     inkscape:window-height="480"
     id="namedview8"
     showgrid="false"
     inkscape:zoom="4.9166667"
     inkscape:cx="2.1355932"
     inkscape:cy="24"
     inkscape:window-x="0"
     inkscape:window-y="25"
     inkscape:window-maximized="0"
     inkscape:current-layer="svg6"
     inkscape:showpageshadow="0"
     inkscape:pagecheckerboard="0"
     inkscape:deskcolor="#d1d1d1" />
  <metadata
     id="metadata2">
    <rdf:RDF>
      <cc:Work>
        <dc:format>image/svg+xml</dc:format>
        <dc:type
           rdf:resource="http://purl.org/dc/dcmitype/StillImage" />
        <dc:title />
      </cc:Work>
    </rdf:RDF>
  </metadata>
  <path
     d="M 6.280008,3.1791329e-5 A 6.29,6.29 0 0 0 7.9585612e-6,6.3000318 6.29,6.29 0 0 0 6.280008,12.580032 a 6.29,6.29 0 0 0 6.3,-6.2900002 6.29,6.29 0 0 0 -6.31,-6.290000008671 z M 6.270008,0.94003179 a 5.4,5.4 0 0 1 5.4,5.40000001 5.4,5.4 0 0 1 -5.4,5.4100002 A 5.4,5.4 0 0 1 0.86000796,6.3500318 5.4,5.4 0 0 1 6.260008,0.93003179 Z m 0,1.38000001 c -1.18,0 -2.28,0.04 -2.53,0.09 -0.16,0.03 -0.29,0.1 -0.4,0.2 a 0.7,0.7 0 0 0 -0.2,0.3 c -0.07,0.15 -0.1,0.29 -0.13,0.5 -0.04,0.4 -0.05,0.6 -0.04,1.22 0,0.52 0,0.58 0.03,0.92 0.03,0.3 0.06,0.43 0.14,0.6 0.08,0.2 0.2,0.32 0.37,0.4 0.12,0.06 0.21,0.08 0.41,0.1 0.24,0.04 0.68,0.05 1.48,0.07 v 3.9400002 c 0,0.26 0.29,0.48 0.65,0.48 h 0.44 c 0.37,0 0.67,-0.22 0.67,-0.48 V 6.7700318 l -0.02,-0.04 c 0.62,-0.01 1.21,-0.03 1.49,-0.06 0.16,-0.01 0.26,-0.04 0.36,-0.08 a 0.9,0.9 0 0 0 0.3,-0.22 c 0.09,-0.11 0.17,-0.31 0.2,-0.53 0.03,-0.08 0.05,-0.31 0.07,-0.57 0.02,-0.22 0.02,-1.25 0,-1.47 a 2.97,2.97 0 0 0 -0.12,-0.8 0.83,0.83 0 0 0 -0.64,-0.58 c -0.25,-0.05 -1.35,-0.09 -2.53,-0.09 z m 1.42,0.97 h 1.16 c 0.05,0 0.09,0.03 0.12,0.08 0.04,0.06 0.04,0.13 0.03,0.2 -0.01,0.05 -0.03,0.09 -0.06,0.12 -0.03,0.03 -0.06,0.04 -0.1,0.04 l -0.34,-0.04 v 1.78 c 0,0.09 -0.02,0.16 -0.06,0.22 a 0.2,0.2 0 0 1 -0.17,0.08 0.2,0.2 0 0 1 -0.16,-0.08 0.34,0.34 0 0 1 -0.07,-0.22 v -1.78 l -0.35,0.04 c -0.03,0 -0.06,-0.01 -0.1,-0.04 a 0.2,0.2 0 0 1 -0.05,-0.11 v -0.01 a 0.28,0.28 0 0 1 0.03,-0.2 c 0.03,-0.05 0.07,-0.08 0.12,-0.08 z m -3.67,0.01 c 0.08,0 0.16,0.02 0.22,0.07 0.07,0.04 0.11,0.1 0.13,0.17 l 0.32,0.98 0.3,-0.98 a 0.33,0.33 0 0 1 0.14,-0.17 0.4,0.4 0 0 1 0.22,-0.07 h 0.01 c 0.1,0 0.19,0.03 0.26,0.1 0.06,0.06 0.1,0.13 0.1,0.21 v 1.87 a 0.3,0.3 0 0 1 -0.05,0.2 0.2,0.2 0 0 1 -0.17,0.08 c -0.06,0 -0.1,-0.03 -0.15,-0.08 a 0.31,0.31 0 0 1 -0.05,-0.2 l 0.02,-1.73 -0.32,1.04 a 0.27,0.27 0 0 1 -0.12,0.15 0.35,0.35 0 0 1 -0.2,0.06 0.33,0.33 0 0 1 -0.19,-0.06 0.29,0.29 0 0 1 -0.11,-0.15 l -0.33,-1.04 0.03,1.73 a 0.3,0.3 0 0 1 -0.06,0.2 c -0.04,0.05 -0.08,0.08 -0.14,0.08 h -0.04 c -0.06,0 -0.1,-0.03 -0.14,-0.09 a 0.31,0.31 0 0 1 -0.06,-0.19 l 0.01,-1.82 0.02,-0.11 c 0.01,-0.06 0.03,-0.11 0.08,-0.15 0.07,-0.07 0.15,-0.1 0.26,-0.1 z m 2.71,0 h 0.05 a 0.3,0.3 0 0 1 0.2,0.1 c 0.06,0.05 0.1,0.13 0.13,0.22 l 0.48,1.73 c 0.03,0.1 0.02,0.18 -0.03,0.27 -0.04,0.08 -0.1,0.12 -0.18,0.12 h -0.03 a 0.18,0.18 0 0 1 -0.13,-0.06 0.23,0.23 0 0 1 -0.08,-0.14 l -0.08,-0.49 h -0.57 l -0.07,0.48 a 0.23,0.23 0 0 1 -0.23,0.21 h -0.03 c -0.08,0 -0.14,-0.04 -0.18,-0.12 a 0.35,0.35 0 0 1 -0.04,-0.27 l 0.45,-1.72 c 0.03,-0.1 0.07,-0.18 0.14,-0.24 a 0.3,0.3 0 0 1 0.2,-0.09 z m 0.03,0.51 -0.24,0.88 h 0.49 z"
     id="path4"
     inkscape:connector-curvature="0"
     style="fill:#bde6fb;fill-opacity:0.988235" />
</svg>
