<?xml version="1.0" encoding="UTF-8" standalone="no"?>
<svg
   width="47.546436"
   height="47.546432"
   version="1.1"
   viewBox="0 0 12.579995 12.579994"
   id="svg4"
   sodipodi:docname="mate-panel-separator.svg"
   inkscape:version="0.92.4 (5da689c313, 2019-01-14)"
   xmlns:inkscape="http://www.inkscape.org/namespaces/inkscape"
   xmlns:sodipodi="http://sodipodi.sourceforge.net/DTD/sodipodi-0.dtd"
   xmlns="http://www.w3.org/2000/svg"
   xmlns:svg="http://www.w3.org/2000/svg"
   xmlns:rdf="http://www.w3.org/1999/02/22-rdf-syntax-ns#"
   xmlns:cc="http://creativecommons.org/ns#"
   xmlns:dc="http://purl.org/dc/elements/1.1/">
  <metadata
     id="metadata10">
    <rdf:RDF>
      <cc:Work
         rdf:about="">
        <dc:format>image/svg+xml</dc:format>
        <dc:type
           rdf:resource="http://purl.org/dc/dcmitype/StillImage" />
        <dc:title />
      </cc:Work>
    </rdf:RDF>
  </metadata>
  <defs
     id="defs8" />
  <sodipodi:namedview
     pagecolor="#ffffff"
     bordercolor="#666666"
     borderopacity="1"
     objecttolerance="10"
     gridtolerance="10"
     guidetolerance="10"
     inkscape:pageopacity="0"
     inkscape:pageshadow="2"
     inkscape:window-width="1136"
     inkscape:window-height="480"
     id="namedview6"
     showgrid="false"
     inkscape:zoom="4.9166667"
     inkscape:cx="24"
     inkscape:cy="24"
     inkscape:window-x="0"
     inkscape:window-y="25"
     inkscape:window-maximized="0"
     inkscape:current-layer="svg4"
     inkscape:showpageshadow="0"
     inkscape:pagecheckerboard="0"
     inkscape:deskcolor="#d1d1d1" />
  <path
     d="M 6.2898686,0 C 2.8122291,-4.4026869e-6 -0.00554798,2.8225394 8.2033135e-6,6.3004435 0.0055262,9.7743789 2.8259872,12.585541 6.2999226,12.579985 c 3.4699667,-0.0055 6.2800714,-2.820158 6.2800714,-6.2898601 0,-3.4739354 -2.81619,-6.28986032269 -6.2898608,-6.28986032269 z m -0.020154,0.93015745 c 2.9823457,0 5.4098684,2.42762735 5.4098684,5.40986725 0.0055,2.9863145 -2.4139228,5.4098673 -5.4000786,5.4098673 C 3.29319,11.755422 0.86963716,9.3359699 0.86963716,6.3498142 0.85856263,3.3597956 3.279617,0.93015745 6.2697146,0.93015745 Z M 5.8702521,1.7822903 c -0.055374,0 -0.099733,0.044359 -0.099733,0.099733 V 10.67825 c 0,0.05537 0.044359,0.09973 0.099733,0.09973 h 0.8588531 c 0.055374,0 0.099734,-0.04436 0.099734,-0.09973 V 1.8820237 c 0,-0.055374 -0.04436,-0.099733 -0.099734,-0.099733 z m -2.7455467,3.17496 -1.58748,1.3229 1.58748,1.3229 v -0.79374 h 1.8257079 c 0.01466,0 0.026355,-0.011697 0.026355,-0.026355 V 5.77734 c 0,-0.014658 -0.011695,-0.026355 -0.026355,-0.026355 H 3.1247054 v -0.79374 z m 6.34992,0 v 0.79374 H 7.6489176 c -0.014658,0 -0.026355,0.011697 -0.026355,0.026355 V 6.782961 c 0,0.014658 0.011697,0.026355 0.026355,0.026355 h 1.8257078 v 0.79374 l 1.5874806,-1.3229 -1.5874806,-1.3229 z"
     id="path2"
     inkscape:connector-curvature="0"
     style="fill:#bde6fb;fill-opacity:1;stroke-width:0.99998" />
</svg>
