<?xml version="1.0" encoding="UTF-8" standalone="no"?>
<svg
   width="47.546486"
   height="47.546486"
   viewBox="0 0 12.580008 12.580008"
   version="1.1"
   id="svg10"
   sodipodi:docname="mathematica.svg"
   inkscape:version="0.92.4 (5da689c313, 2019-01-14)"
   xmlns:inkscape="http://www.inkscape.org/namespaces/inkscape"
   xmlns:sodipodi="http://sodipodi.sourceforge.net/DTD/sodipodi-0.dtd"
   xmlns="http://www.w3.org/2000/svg"
   xmlns:svg="http://www.w3.org/2000/svg"
   xmlns:rdf="http://www.w3.org/1999/02/22-rdf-syntax-ns#"
   xmlns:cc="http://creativecommons.org/ns#"
   xmlns:dc="http://purl.org/dc/elements/1.1/">
  <metadata
     id="metadata16">
    <rdf:RDF>
      <cc:Work
         rdf:about="">
        <dc:format>image/svg+xml</dc:format>
        <dc:type
           rdf:resource="http://purl.org/dc/dcmitype/StillImage" />
        <dc:title />
      </cc:Work>
    </rdf:RDF>
  </metadata>
  <defs
     id="defs14" />
  <sodipodi:namedview
     pagecolor="#ffffff"
     bordercolor="#666666"
     borderopacity="1"
     objecttolerance="10"
     gridtolerance="10"
     guidetolerance="10"
     inkscape:pageopacity="0"
     inkscape:pageshadow="2"
     inkscape:window-width="1087"
     inkscape:window-height="480"
     id="namedview12"
     showgrid="false"
     inkscape:zoom="4.9166667"
     inkscape:cx="2.1355932"
     inkscape:cy="24"
     inkscape:window-x="0"
     inkscape:window-y="25"
     inkscape:window-maximized="0"
     inkscape:current-layer="svg10"
     inkscape:showpageshadow="0"
     inkscape:pagecheckerboard="0"
     inkscape:deskcolor="#d1d1d1" />
  <path
     d="m 6.4300079,1.52 -1.06,1.65 -1.68,1.28 -1.91,0.33 1.4,1.4 0.53,1.85 -0.34,2.13 1.94,-0.98 2.02,0.02 1.81,0.94 -0.04,-2 0.58,-1.83 1.3400001,-1.53 -1.9000001,-0.35 -1.74,-1.24 z"
     id="path2"
     inkscape:connector-curvature="0"
     style="opacity:0.5;fill:#a02c2c;fill-rule:evenodd" />
  <path
     d="M 6.2900079,0 A 6.29,6.29 0 0 0 7.9490244e-6,6.3 6.29,6.29 0 0 0 6.3000079,12.58 6.29,6.29 0 0 0 12.580008,6.29 6.29,6.29 0 0 0 6.2900079,0 Z m -0.01,0.94 A 5.4,5.4 0 0 1 11.680008,6.34 5.4,5.4 0 0 1 6.2800079,11.75 5.4,5.4 0 0 1 0.87000795,6.35 5.4,5.4 0 0 1 6.2700079,0.93 Z"
     id="path4"
     inkscape:connector-curvature="0"
     style="fill:#bde6fb;fill-opacity:1" />
  <path
     d="m 4.4900079,5.2 0.15,0.42 -0.43,0.29 -1.01,1.25 1.69,0.55 h 0.4 l 0.12,0.4 0.93,1.33 0.96,-1.35 0.14,-0.42 0.37,0.02 1.68,-0.44 -0.92,-1.17 -0.46,-0.33 0.15,-0.42 0.02,-1.77 -1.38,0.56 -0.58,0.4 -0.46,-0.36 -1.43,-0.56 z"
     id="path6"
     inkscape:connector-curvature="0"
     style="opacity:0.75;fill:#a02c2c;fill-rule:evenodd" />
  <path
     d="m 3.4800079,2.4 0.21,2.05 0.95,1.17 -0.06,-1.8 1.74,0.7 -0.95,-1.35 z m 2.84,2.11 1.81,-0.73 -0.02,1.97 1.01,-1.32 0.17,-1.97 -1.91,0.73 z m 1.79,1.24 1.14,1.44 -1.8,0.48 1.65,0.46 L 11.060008,7.9 9.6800079,6.31 Z m -0.67,1.92 -1.09,1.56 -1.06,-1.5 0.02,1.46 1.01,1.86 1.01,-1.84 z m -2.15,0.04 -1.86,-0.6 1.22,-1.49 -1.46,0.57 -1.64,1.5 2.17,0.34 z"
     id="path8"
     inkscape:connector-curvature="0"
     style="fill:#a02c2c;fill-rule:evenodd" />
</svg>
