<?xml version="1.0" encoding="UTF-8" standalone="no"?>
<svg
   width="47.546455"
   height="47.546455"
   viewBox="0 0 12.58 12.58"
   version="1.1"
   id="svg4"
   sodipodi:docname="matlab.svg"
   inkscape:version="0.92.4 (5da689c313, 2019-01-14)"
   xmlns:inkscape="http://www.inkscape.org/namespaces/inkscape"
   xmlns:sodipodi="http://sodipodi.sourceforge.net/DTD/sodipodi-0.dtd"
   xmlns="http://www.w3.org/2000/svg"
   xmlns:svg="http://www.w3.org/2000/svg"
   xmlns:rdf="http://www.w3.org/1999/02/22-rdf-syntax-ns#"
   xmlns:cc="http://creativecommons.org/ns#"
   xmlns:dc="http://purl.org/dc/elements/1.1/">
  <metadata
     id="metadata10">
    <rdf:RDF>
      <cc:Work
         rdf:about="">
        <dc:format>image/svg+xml</dc:format>
        <dc:type
           rdf:resource="http://purl.org/dc/dcmitype/StillImage" />
        <dc:title />
      </cc:Work>
    </rdf:RDF>
  </metadata>
  <defs
     id="defs8" />
  <sodipodi:namedview
     pagecolor="#ffffff"
     bordercolor="#666666"
     borderopacity="1"
     objecttolerance="10"
     gridtolerance="10"
     guidetolerance="10"
     inkscape:pageopacity="0"
     inkscape:pageshadow="2"
     inkscape:window-width="862"
     inkscape:window-height="480"
     id="namedview6"
     showgrid="false"
     inkscape:zoom="4.9166667"
     inkscape:cx="2.1355932"
     inkscape:cy="24"
     inkscape:window-x="0"
     inkscape:window-y="25"
     inkscape:window-maximized="0"
     inkscape:current-layer="svg4"
     inkscape:showpageshadow="0"
     inkscape:pagecheckerboard="0"
     inkscape:deskcolor="#d1d1d1" />
  <path
     d="M 6.29,9.9999768e-4 A 6.29,6.29 0 0 0 0,6.291 6.29,6.29 0 0 0 6.29,12.58 6.29,6.29 0 0 0 12.58,6.29 6.29,6.29 0 0 0 6.29,0 Z M 6.272,0.938 A 5.407,5.407 0 0 1 11.679,6.345 5.407,5.407 0 0 1 6.272,11.752 5.407,5.407 0 0 1 0.866,6.345 5.407,5.407 0 0 1 6.272,0.939 Z M 7.87,2.863 A 0.136,0.136 0 0 0 7.785,2.879 V 2.877 C 7.664,2.974 7.306,3.651 6.949,4.459 6.804,4.789 6.599,5.219 6.497,5.418 6.189,6.004 5.439,7.072 5.091,7.412 l -0.323,0.32 0.241,0.265 c 0.148,0.162 0.344,0.5 0.507,0.877 0.308,0.719 0.361,0.822 0.42,0.822 0.028,0 0.186,-0.089 0.363,-0.201 C 6.692,9.24 7.059,8.897 7.559,8.314 8.339,7.404 8.924,7.212 9.645,7.629 9.84,7.743 10,7.814 10,7.787 A 6.89,6.89 0 0 0 9.782,7.177 C 9.663,6.869 9.338,5.999 9.062,5.243 8.877,4.932 8.3,2.921 7.87,2.863 Z M 6.23,4.739 c -0.003,0 -0.007,0 -0.012,0.002 C 5.558,5.037 5.32,5.171 5.125,5.36 4.997,5.485 4.893,5.619 4.893,5.658 c 0,0.121 0.52,0.445 0.605,0.377 C 5.539,6.002 5.702,5.764 5.858,5.505 6.136,5.042 6.28,4.745 6.231,4.739 Z M 4.382,6.045 4.383,6.046 c -0.112,0 -1.707,0.618 -1.783,0.692 -0.022,0.021 0.002,0.06 0.053,0.089 0.051,0.03 0.343,0.23 0.652,0.444 0.308,0.215 0.576,0.39 0.595,0.39 0.02,0 0.16,-0.075 0.312,-0.169 C 4.53,7.296 5.145,6.69 5.142,6.574 5.139,6.471 4.527,6.045 4.382,6.045 Z"
     id="path2"
     inkscape:connector-curvature="0"
     style="fill:#bde6fb;fill-opacity:1" />
</svg>
