<?xml version="1.0" encoding="UTF-8" standalone="no"?>
<svg
   width="47.372601"
   height="47.372601"
   viewBox="0 0 12.534001 12.534001"
   version="1.1"
   id="svg4"
   sodipodi:docname="maxthon-browser.svg"
   inkscape:version="0.92.4 (5da689c313, 2019-01-14)"
   xmlns:inkscape="http://www.inkscape.org/namespaces/inkscape"
   xmlns:sodipodi="http://sodipodi.sourceforge.net/DTD/sodipodi-0.dtd"
   xmlns="http://www.w3.org/2000/svg"
   xmlns:svg="http://www.w3.org/2000/svg"
   xmlns:rdf="http://www.w3.org/1999/02/22-rdf-syntax-ns#"
   xmlns:cc="http://creativecommons.org/ns#"
   xmlns:dc="http://purl.org/dc/elements/1.1/">
  <metadata
     id="metadata10">
    <rdf:RDF>
      <cc:Work
         rdf:about="">
        <dc:format>image/svg+xml</dc:format>
        <dc:type
           rdf:resource="http://purl.org/dc/dcmitype/StillImage" />
        <dc:title />
      </cc:Work>
    </rdf:RDF>
  </metadata>
  <defs
     id="defs8" />
  <sodipodi:namedview
     pagecolor="#ffffff"
     bordercolor="#666666"
     borderopacity="1"
     objecttolerance="10"
     gridtolerance="10"
     guidetolerance="10"
     inkscape:pageopacity="0"
     inkscape:pageshadow="2"
     inkscape:window-width="1087"
     inkscape:window-height="480"
     id="namedview6"
     showgrid="false"
     inkscape:zoom="4.9166667"
     inkscape:cx="2.1355932"
     inkscape:cy="24"
     inkscape:window-x="0"
     inkscape:window-y="25"
     inkscape:window-maximized="0"
     inkscape:current-layer="svg4"
     inkscape:showpageshadow="0"
     inkscape:pagecheckerboard="0"
     inkscape:deskcolor="#d1d1d1" />
  <path
     d="M 6.266,0 A 6.267,6.267 0 0 0 0,6.267 6.267,6.267 0 0 0 6.268,12.534 6.267,6.267 0 0 0 12.534,6.267 6.267,6.267 0 0 0 6.267,0 Z M 6.249,0.932 A 5.388,5.388 0 0 1 11.637,6.322 5.388,5.388 0 0 1 6.249,11.709 5.388,5.388 0 0 1 0.85899999,6.321 5.388,5.388 0 0 1 6.249,0.932 Z M 2.629,3.64 v 5.387 h 2.02 V 5.66 h 3.367 v 3.368 h 2.02 V 5.323 C 10.036,3.965 8.61,3.64 8.016,3.64 H 2.628 Z m 2.673,2.786 v 2.601 h 2.02 V 6.426 Z"
     id="path2"
     inkscape:connector-curvature="0"
     style="fill:#bde6fb;fill-opacity:1" />
</svg>
