<?xml version="1.0" encoding="UTF-8" standalone="no"?>
<svg
   width="47.546459"
   height="47.550236"
   viewBox="0 0 12.580001 12.581"
   version="1.1"
   id="svg4"
   sodipodi:docname="mcedit.svg"
   inkscape:version="0.92.4 (5da689c313, 2019-01-14)"
   xmlns:inkscape="http://www.inkscape.org/namespaces/inkscape"
   xmlns:sodipodi="http://sodipodi.sourceforge.net/DTD/sodipodi-0.dtd"
   xmlns="http://www.w3.org/2000/svg"
   xmlns:svg="http://www.w3.org/2000/svg"
   xmlns:rdf="http://www.w3.org/1999/02/22-rdf-syntax-ns#"
   xmlns:cc="http://creativecommons.org/ns#"
   xmlns:dc="http://purl.org/dc/elements/1.1/">
  <metadata
     id="metadata10">
    <rdf:RDF>
      <cc:Work
         rdf:about="">
        <dc:format>image/svg+xml</dc:format>
        <dc:type
           rdf:resource="http://purl.org/dc/dcmitype/StillImage" />
        <dc:title />
      </cc:Work>
    </rdf:RDF>
  </metadata>
  <defs
     id="defs8" />
  <sodipodi:namedview
     pagecolor="#ffffff"
     bordercolor="#666666"
     borderopacity="1"
     objecttolerance="10"
     gridtolerance="10"
     guidetolerance="10"
     inkscape:pageopacity="0"
     inkscape:pageshadow="2"
     inkscape:window-width="862"
     inkscape:window-height="480"
     id="namedview6"
     showgrid="false"
     inkscape:zoom="4.9166667"
     inkscape:cx="2.1355932"
     inkscape:cy="24"
     inkscape:window-x="0"
     inkscape:window-y="25"
     inkscape:window-maximized="0"
     inkscape:current-layer="svg4"
     inkscape:showpageshadow="0"
     inkscape:pagecheckerboard="0"
     inkscape:deskcolor="#d1d1d1" />
  <path
     d="M 6.29,0 V 0.002 A 6.29,6.29 0 0 0 0,6.292 6.29,6.29 0 0 0 6.29,12.581 6.29,6.29 0 0 0 12.58,6.291 6.29,6.29 0 0 0 6.29,0 Z M 6.036,0.948 h 0.001 v 6.207 l 0.59,0.59 V 0.958 a 5.407,5.407 0 0 1 5.052,5.39 5.407,5.407 0 0 1 -2.9,4.786 C 8.573,10.897 8.156,10.466 8.156,10.466 L 6.011,8.337 C 5.787,8.115 5.67,7.924 5.61,7.774 A 0.85,0.85 0 0 0 5.53,7.147 C 5.392,6.899 5.1,6.68 4.792,6.572 A 0.062,0.062 0 0 0 4.718,6.592 0.067,0.067 0 0 0 4.711,6.668 L 5.089,7.345 C 5.123,7.405 5.105,7.484 5.05,7.564 A 0.765,0.765 0 0 1 4.786,7.788 0.782,0.782 0 0 1 4.453,7.891 C 4.355,7.897 4.278,7.867 4.243,7.807 L 3.863,7.125 A 0.067,0.067 0 0 0 3.813,7.091 C 3.791,7.086 3.769,7.098 3.755,7.113 a 0.061,0.061 0 0 0 -0.016,0.03 c -0.073,0.315 -0.04,0.677 0.1,0.925 0.19,0.34 0.585,0.501 0.972,0.433 0.158,0.053 0.367,0.17 0.616,0.417 l 1.581,1.57 1.018,0.965 a 5.407,5.407 0 0 1 -1.399,0.288 v -0.29 l -0.59,-0.59 v 0.88 A 5.407,5.407 0 0 1 0.866,6.346 5.407,5.407 0 0 1 6.036,0.948 Z M 3.103,2.576 V 3.044 H 5.348 V 2.576 Z m 4.177,0 V 3.044 H 9.524 V 2.576 Z M 2.406,4.163 V 4.63 H 5.348 V 4.162 H 2.406 Z m 4.874,0 V 4.63 h 2.94 V 4.162 H 7.28 Z M 1.789,5.75 v 0.469 h 3.56 v -0.47 h -3.56 z m 5.49,0 v 0.469 h 3.559 V 5.749 H 7.28 Z"
     id="path2"
     inkscape:connector-curvature="0"
     style="fill:#bde6fb;fill-opacity:1" />
</svg>
