<?xml version="1.0" encoding="UTF-8" standalone="no"?>
<svg
   width="47.546486"
   height="47.546486"
   viewBox="0 0 12.580008 12.580008"
   version="1.1"
   id="svg4"
   sodipodi:docname="mcomix.svg"
   inkscape:version="0.92.4 (5da689c313, 2019-01-14)"
   xmlns:inkscape="http://www.inkscape.org/namespaces/inkscape"
   xmlns:sodipodi="http://sodipodi.sourceforge.net/DTD/sodipodi-0.dtd"
   xmlns="http://www.w3.org/2000/svg"
   xmlns:svg="http://www.w3.org/2000/svg"
   xmlns:rdf="http://www.w3.org/1999/02/22-rdf-syntax-ns#"
   xmlns:cc="http://creativecommons.org/ns#"
   xmlns:dc="http://purl.org/dc/elements/1.1/">
  <metadata
     id="metadata10">
    <rdf:RDF>
      <cc:Work
         rdf:about="">
        <dc:format>image/svg+xml</dc:format>
        <dc:type
           rdf:resource="http://purl.org/dc/dcmitype/StillImage" />
        <dc:title />
      </cc:Work>
    </rdf:RDF>
  </metadata>
  <defs
     id="defs8" />
  <sodipodi:namedview
     pagecolor="#ffffff"
     bordercolor="#666666"
     borderopacity="1"
     objecttolerance="10"
     gridtolerance="10"
     guidetolerance="10"
     inkscape:pageopacity="0"
     inkscape:pageshadow="2"
     inkscape:window-width="1087"
     inkscape:window-height="480"
     id="namedview6"
     showgrid="false"
     inkscape:zoom="4.9166667"
     inkscape:cx="2.1355932"
     inkscape:cy="24"
     inkscape:window-x="0"
     inkscape:window-y="25"
     inkscape:window-maximized="0"
     inkscape:current-layer="svg4"
     inkscape:showpageshadow="0"
     inkscape:pagecheckerboard="0"
     inkscape:deskcolor="#d1d1d1" />
  <path
     d="M 6.2900079,0 A 6.29,6.29 0 0 0 7.9490244e-6,6.3 6.29,6.29 0 0 0 6.3000079,12.58 6.29,6.29 0 0 0 12.580008,6.29 6.29,6.29 0 0 0 6.2900079,0 Z m -0.01,0.94 A 5.4,5.4 0 0 1 11.680008,6.34 5.4,5.4 0 0 1 6.2800079,11.75 5.4,5.4 0 0 1 0.87000795,6.35 5.4,5.4 0 0 1 6.2700079,0.93 Z m 0.29,1.1 -0.08,0.02 a 1.68,1.68 0 0 0 -0.7,0.28 1.68,1.68 0 0 0 -0.65,1.16 c 0,0.07 -0.01,0.12 -0.02,0.12 l -0.12,0.05 a 3.58,3.58 0 0 0 -2.04,2.12 l -0.03,0.08 h -0.06 a 1.33,1.33 0 0 0 -0.76,0.3 h -0.01 l -0.02,0.03 c -0.02,0 -0.15,0.11 -0.15,0.13 h 0.02 l -0.01,0.02 -0.04,0.03 -0.03,0.03 -0.03,0.04 c -0.03,0.03 -0.1,0.17 -0.15,0.27 -0.07,0.18 -0.09,0.28 -0.09,0.5 a 1,1 0 0 0 0.03,0.31 1.35,1.35 0 0 0 1.38,1.04 h 0.12 l 0.07,0.12 a 3.57,3.57 0 0 0 4.9,1.33 3.63,3.63 0 0 0 1.3,-1.34 l 0.06,-0.11 h 0.13 a 1.3518136,1.3518136 0 0 0 0.14,-2.7 h -0.06 l -0.06,-0.14 a 3.55,3.55 0 0 0 -2.46,-2.2 2.67,2.67 0 0 1 0.52,-0.4 1.07,1.07 0 0 0 -0.33,-0.13 1.48,1.48 0 0 0 -0.97,0.07 0.93,0.93 0 0 1 -0.1,0.03 3.4,3.4 0 0 1 0.22,-0.83 c 0.03,-0.09 0.04,-0.1 0.01,-0.12 -0.02,-0.02 -0.02,-0.02 0,0 0.03,0.02 0.03,0.02 0.06,-0.03 0.03,-0.06 0.03,-0.07 0.02,-0.07 z m -1.42,2.95 a 1.75,1.75 0 0 1 1.06,0.32 l 0.1,0.06 0.02,-0.03 0.32,-0.19 c 0.12,-0.05 0.26,-0.1 0.4,-0.13 0.1,-0.02 0.16,-0.02 0.35,-0.02 0.2,0 0.23,0 0.36,0.03 a 1.8,1.8 0 0 1 1.38,2.16 1.7,1.7 0 0 1 -0.53,0.9 c -0.2,0.18 -0.43,0.32 -0.68,0.4 l -0.13,0.04 v 0.04 a 2.52,2.52 0 0 1 -0.02,0.58 1.53,1.53 0 0 1 -1.83,1.13 l -0.14,-0.03 a 1.53,1.53 0 0 1 -1.02,-1.72 c 0,-0.01 -0.05,-0.04 -0.13,-0.06 a 1.8,1.8 0 0 1 -1.24,-1.78 c 0,-0.34 0.1,-0.64 0.3,-0.92 a 1.8,1.8 0 0 1 1.43,-0.8 z m -2.39,1.65 v 0.13 a 3.93,3.93 0 0 0 0.1,1.05 l -0.07,-0.01 a 0.62,0.62 0 0 1 -0.44,-0.49 0.67,0.67 0 0 1 0.05,-0.36 0.68,0.68 0 0 1 0.36,-0.32 z m 7.06,0 0.03,0.01 0.08,0.04 c 0.1000001,0.05 0.2200001,0.18 0.2600001,0.27 0.08,0.17 0.08,0.37 0,0.53 A 0.65,0.65 0 0 1 9.7900079,7.81 c -0.06,0.01 -0.06,0.01 -0.05,-0.01 a 4.7,4.7 0 0 0 0.08,-1.15 z m -2.44,0.5 -0.1,0.01 c -0.04,0.01 -0.05,0.02 -0.05,0.03 0,0.02 0,0.02 -0.01,0 -0.04,-0.03 -0.2,0.13 -0.22,0.24 -0.02,0.07 -0.01,0.22 0.02,0.28 0.04,0.08 0.1,0.14 0.18,0.18 0.06,0.03 0.08,0.04 0.17,0.04 0.12,0 0.2,-0.03 0.28,-0.12 a 0.39,0.39 0 0 0 -0.27,-0.66 z m -2.2,0 a 0.3,0.3 0 0 0 -0.07,0.02 0.42,0.42 0 0 0 -0.26,0.25 c -0.02,0.09 -0.01,0.21 0.02,0.28 0.03,0.08 0.12,0.16 0.2,0.2 0.08,0.04 0.23,0.04 0.32,0 0.29,-0.15 0.3,-0.56 0.01,-0.7 a 0.44,0.44 0 0 0 -0.22,-0.05 z m 0.55,2.05 v 0.05 c 0.03,0.14 0.12,0.28 0.24,0.37 0.11,0.07 0.18,0.1 0.34,0.1 0.14,0 0.14,-0.01 0.23,-0.05 0.15,-0.08 0.25,-0.2 0.3,-0.35 0.04,-0.14 0.1,-0.12 -0.54,-0.12 z"
     id="path2"
     inkscape:connector-curvature="0"
     style="fill:#bde6fb;fill-opacity:1" />
</svg>
