<?xml version="1.0" encoding="UTF-8" standalone="no"?>
<svg
   width="47.546455"
   height="47.542679"
   viewBox="0 0 12.58 12.579"
   version="1.1"
   id="svg4"
   sodipodi:docname="media-player-banshee.svg"
   inkscape:version="0.92.4 (5da689c313, 2019-01-14)"
   xmlns:inkscape="http://www.inkscape.org/namespaces/inkscape"
   xmlns:sodipodi="http://sodipodi.sourceforge.net/DTD/sodipodi-0.dtd"
   xmlns="http://www.w3.org/2000/svg"
   xmlns:svg="http://www.w3.org/2000/svg"
   xmlns:rdf="http://www.w3.org/1999/02/22-rdf-syntax-ns#"
   xmlns:cc="http://creativecommons.org/ns#"
   xmlns:dc="http://purl.org/dc/elements/1.1/">
  <metadata
     id="metadata10">
    <rdf:RDF>
      <cc:Work
         rdf:about="">
        <dc:format>image/svg+xml</dc:format>
        <dc:type
           rdf:resource="http://purl.org/dc/dcmitype/StillImage" />
        <dc:title />
      </cc:Work>
    </rdf:RDF>
  </metadata>
  <defs
     id="defs8" />
  <sodipodi:namedview
     pagecolor="#ffffff"
     bordercolor="#666666"
     borderopacity="1"
     objecttolerance="10"
     gridtolerance="10"
     guidetolerance="10"
     inkscape:pageopacity="0"
     inkscape:pageshadow="2"
     inkscape:window-width="1087"
     inkscape:window-height="480"
     id="namedview6"
     showgrid="false"
     inkscape:zoom="4.9166667"
     inkscape:cx="2.1355932"
     inkscape:cy="24"
     inkscape:window-x="0"
     inkscape:window-y="25"
     inkscape:window-maximized="0"
     inkscape:current-layer="svg4"
     inkscape:showpageshadow="0"
     inkscape:pagecheckerboard="0"
     inkscape:deskcolor="#d1d1d1" />
  <path
     d="M 6.29,9.9999565e-4 A 6.29,6.29 0 0 0 0,6.291 6.29,6.29 0 0 0 6.29,12.579 6.29,6.29 0 0 0 12.58,6.29 6.29,6.29 0 0 0 6.29,0 Z M 6.272,0.937 A 5.407,5.407 0 0 1 11.679,6.344 5.407,5.407 0 0 1 6.272,11.751 5.407,5.407 0 0 1 0.866,6.344 5.407,5.407 0 0 1 6.272,0.938 Z M 5.82,1.694 C 3.354,1.747 3.55,2.868 2.27,3.652 3.886,3.588 3.75,2.807 4.812,2.834 L 4.815,5.07 A 3.537,3.304 0 0 0 3.31,7.772 3.537,3.304 0 0 0 6.847,11.077 3.537,3.304 0 0 0 10.384,7.772 3.537,3.304 0 0 0 6.846,4.468 3.537,3.304 0 0 0 5.82,4.611 Z M 6.851,4.728 A 3.239,3.026 0 0 1 10.09,7.754 3.239,3.026 0 0 1 6.851,10.78 3.239,3.026 0 0 1 3.612,7.754 3.239,3.026 0 0 1 4.816,5.403 L 4.82,9.276 C 8.132,9.634 9.234,8.452 9.234,7.581 9.234,6.727 8.682,5.795 5.822,6.701 V 4.89 a 3.239,3.026 0 0 1 1.03,-0.16 z m 0.414,2.3 c 0.432,0.014 0.787,0.157 0.787,0.57 0,0.845 -1.673,1.082 -2.23,1.045 V 7.318 C 6.032,7.208 6.711,7.012 7.265,7.029 Z"
     id="path2"
     inkscape:connector-curvature="0"
     style="fill:#bde6fb;fill-opacity:1" />
</svg>
