<?xml version="1.0" encoding="UTF-8" standalone="no"?>
<svg
   width="47.538898"
   height="47.546455"
   viewBox="0 0 12.578 12.58"
   version="1.1"
   id="svg4"
   sodipodi:docname="medusa.svg"
   inkscape:version="0.92.5 (2060ec1f9f, 2020-04-08)"
   xmlns:inkscape="http://www.inkscape.org/namespaces/inkscape"
   xmlns:sodipodi="http://sodipodi.sourceforge.net/DTD/sodipodi-0.dtd"
   xmlns="http://www.w3.org/2000/svg"
   xmlns:svg="http://www.w3.org/2000/svg"
   xmlns:rdf="http://www.w3.org/1999/02/22-rdf-syntax-ns#"
   xmlns:cc="http://creativecommons.org/ns#"
   xmlns:dc="http://purl.org/dc/elements/1.1/">
  <metadata
     id="metadata10">
    <rdf:RDF>
      <cc:Work
         rdf:about="">
        <dc:format>image/svg+xml</dc:format>
        <dc:type
           rdf:resource="http://purl.org/dc/dcmitype/StillImage" />
        <dc:title />
      </cc:Work>
    </rdf:RDF>
  </metadata>
  <defs
     id="defs8" />
  <sodipodi:namedview
     pagecolor="#ffffff"
     bordercolor="#666666"
     borderopacity="1"
     objecttolerance="10"
     gridtolerance="10"
     guidetolerance="10"
     inkscape:pageopacity="0"
     inkscape:pageshadow="2"
     inkscape:window-width="1085"
     inkscape:window-height="480"
     id="namedview6"
     showgrid="false"
     inkscape:zoom="4.9166667"
     inkscape:cx="2.1355932"
     inkscape:cy="24"
     inkscape:window-x="0"
     inkscape:window-y="25"
     inkscape:window-maximized="0"
     inkscape:current-layer="svg4"
     inkscape:showpageshadow="0"
     inkscape:pagecheckerboard="0"
     inkscape:deskcolor="#d1d1d1" />
  <path
     d="M 6.285,0 A 6.295,6.295 0 0 0 0,6.285 a 6.295,6.295 0 0 0 6.285,6.295 6.295,6.295 0 0 0 3.955,-1.405 6.295,6.295 0 0 0 0.34,-0.3 6.295,6.295 0 0 0 0.165,-0.153 6.295,6.295 0 0 0 0.056,-0.052 6.295,6.295 0 0 0 0.084,-0.096 6.295,6.295 0 0 0 0.059,-0.067 6.295,6.295 0 0 0 0.203,-0.232 6.295,6.295 0 0 0 0.829,-1.317 6.295,6.295 0 0 0 0.007,-0.016 6.295,6.295 0 0 0 0.155,-0.346 6.295,6.295 0 0 0 0.44,-2.311 A 6.295,6.295 0 0 0 6.285,0 Z M 6.274,0.94 a 5.408,5.408 0 0 1 5.397,5.387 5.407,5.407 0 0 1 -0.464,2.182 1.939,1.939 0 0 1 -0.485,-0.15 C 10.451,8.232 10.459,8.249 10.557,8.042 A 1.68,1.68 0 0 0 10.655,6.879 0.813,0.813 0 0 1 10.627,6.543 1.076,1.076 0 0 0 10.616,6.233 C 10.596,6.135 10.599,6.085 10.63,6.012 a 0.968,0.968 0 0 0 0.039,-0.29 c 0,-0.107 0.022,-0.303 0.047,-0.434 A 0.946,0.946 0 0 0 10.733,4.868 1.196,1.196 0 0 0 10.063,3.99 C 9.914,3.918 9.808,3.834 9.593,3.613 9.288,3.303 9.086,3.174 8.753,3.071 8.504,2.995 8.043,2.967 7.744,3.012 L 7.52,3.046 7.199,2.892 C 6.816,2.71 6.592,2.652 6.276,2.652 5.996,2.654 5.879,2.676 5.552,2.805 5.211,2.939 4.965,2.973 4.646,2.934 4.286,2.886 4.101,2.805 4.026,2.665 A 0.663,0.663 0 0 0 3.855,2.47 0.497,0.497 0 0 1 3.71,2.307 C 3.668,2.195 3.57,2.064 3.53,2.067 A 0.725,0.725 0 0 0 3.394,2.123 C 3.254,2.193 3.237,2.232 3.354,2.213 3.444,2.198 3.45,2.204 3.519,2.347 3.561,2.43 3.601,2.55 3.612,2.615 l 0.02,0.12 H 3.494 A 1.06,1.06 0 0 1 3.265,2.71 C 3.215,2.693 3.181,2.693 3.19,2.707 3.198,2.718 3.181,2.741 3.153,2.752 3.123,2.766 3.193,2.78 3.349,2.791 3.483,2.799 3.598,2.814 3.609,2.822 3.617,2.833 3.639,2.917 3.656,3.009 A 0.522,0.522 0 0 1 3.654,3.297 C 3.62,3.409 3.618,3.412 3.517,3.397 L 3.414,3.381 3.511,3.465 C 3.611,3.549 3.718,3.571 3.743,3.51 3.749,3.493 3.813,3.398 3.883,3.303 L 4.011,3.129 4.247,3.239 C 4.725,3.459 5.231,3.549 5.664,3.49 5.795,3.473 5.969,3.451 6.05,3.443 L 6.195,3.425 6.122,3.556 C 6.072,3.646 6.033,3.685 5.992,3.685 5.795,3.685 5.454,3.852 5.099,4.118 4.845,4.311 4.783,4.328 4.669,4.252 A 0.531,0.531 0 0 0 4.495,4.191 C 4.411,4.177 4.375,4.146 4.285,4.021 A 3.115,3.115 0 0 1 4.157,3.828 C 4.127,3.775 4.034,3.828 3.961,3.948 3.886,4.071 3.886,4.076 3.987,4.04 4.059,4.012 4.076,4.015 4.112,4.062 4.168,4.138 4.274,4.356 4.263,4.37 A 0.587,0.587 0 0 1 4.098,4.283 C 3.956,4.194 3.662,4.09 3.385,4.032 3.307,4.015 3.271,3.99 3.265,3.951 A 0.89,0.89 0 0 0 3.109,3.741 1.02,1.02 0 0 1 2.949,3.548 C 2.929,3.495 2.82,3.531 2.784,3.604 2.759,3.646 2.764,3.657 2.806,3.657 c 0.034,0 0.076,0.05 0.126,0.154 0.11,0.22 0.104,0.249 -0.045,0.229 A 0.965,0.965 0 0 1 2.725,4.006 c -0.028,-0.01 -0.044,0 -0.044,0.026 0,0.028 0.044,0.047 0.137,0.058 C 2.93,4.107 2.96,4.124 2.983,4.18 3.024,4.291 3.013,4.33 2.91,4.426 2.835,4.498 2.823,4.521 2.857,4.535 2.938,4.565 2.977,4.552 3.139,4.437 3.287,4.333 3.312,4.325 3.433,4.339 3.57,4.353 3.987,4.54 3.987,4.585 c 0,0.014 -0.028,0.017 -0.062,0.008 -0.19,-0.053 -0.179,-0.053 -0.134,0 0.03,0.04 0.033,0.054 0.008,0.062 -0.02,0.008 -0.036,0.025 -0.036,0.04 0,0.016 0.019,0.016 0.053,0 0.086,-0.048 0.352,-0.07 0.417,-0.034 l 0.058,0.03 -0.064,0.19 C 4.163,5.063 4.16,5.069 4.073,5.061 c -0.07,-0.009 -0.084,0 -0.07,0.036 0.023,0.059 0.156,0.125 0.249,0.125 0.053,0 0.095,-0.03 0.16,-0.123 L 4.498,4.974 4.585,5.041 c 0.159,0.12 0.472,0.263 0.685,0.31 0.117,0.028 0.223,0.059 0.237,0.073 0.014,0.011 0.031,0.075 0.037,0.14 0.014,0.159 0.053,0.26 0.168,0.422 0.05,0.072 0.092,0.145 0.092,0.16 A 0.54,0.54 0 0 1 5.731,6.285 C 5.661,6.388 5.661,6.4 5.701,6.461 a 0.32,0.32 0 0 0 0.128,0.103 c 0.07,0.028 0.084,0.048 0.07,0.101 -0.012,0.048 0.006,0.084 0.064,0.143 0.042,0.042 0.1,0.126 0.126,0.182 0.053,0.117 0.092,0.134 0.115,0.05 0.022,-0.09 0.06,-0.067 0.125,0.075 0.078,0.17 0.078,0.171 0.053,0.289 L 6.36,7.501 6.307,7.437 C 6.279,7.404 6.248,7.376 6.24,7.376 c -0.011,0 -0.011,0.109 -0.005,0.24 0.01,0.196 0.022,0.249 0.07,0.294 0.03,0.03 0.07,0.1 0.086,0.162 0.014,0.059 0.056,0.14 0.086,0.181 l 0.06,0.076 -0.152,0.16 A 4.92,4.92 0 0 0 6.165,8.74 L 6.095,8.832 5.762,8.67 C 5.44,8.514 5.427,8.51 5.158,8.5 L 4.881,8.488 V 8.405 A 0.594,0.594 0 0 0 4.727,8.075 0.689,0.689 0 0 1 4.624,7.926 L 4.568,7.817 4.418,7.828 C 4.272,7.84 4.191,7.876 4.255,7.898 4.372,7.94 4.392,7.985 4.405,8.253 L 4.42,8.522 4.294,8.525 c -0.126,0 -0.408,0.042 -0.341,0.05 0.02,0 0.03,0.014 0.022,0.028 C 3.967,8.617 4.059,8.623 4.191,8.614 4.456,8.598 4.507,8.623 4.465,8.763 4.451,8.807 4.425,8.916 4.405,9.009 4.372,9.169 4.372,9.171 4.291,9.154 4.199,9.137 4.182,9.176 4.263,9.221 4.394,9.288 4.473,9.257 4.669,9.053 4.839,8.877 4.87,8.858 4.968,8.858 c 0.059,0 0.168,0.02 0.24,0.044 0.16,0.056 0.54,0.291 0.54,0.339 0,0.047 -0.29,0.299 -0.445,0.38 C 5.11,9.727 4.873,9.781 4.616,9.778 4.288,9.775 4.255,9.758 4.236,9.621 A 0.406,0.406 0 0 0 4.12,9.391 0.51,0.51 0 0 1 3.997,9.179 C 3.972,9.034 3.838,8.961 3.696,9.014 3.629,9.04 3.642,9.082 3.718,9.082 c 0.036,0 0.078,0.016 0.092,0.033 0.048,0.058 0.062,0.201 0.037,0.316 A 0.42,0.42 0 0 0 3.863,9.663 C 3.888,9.73 3.9,9.791 3.892,9.8 3.886,9.809 3.835,9.8 3.785,9.786 3.645,9.744 3.405,9.719 3.455,9.752 c 0.034,0.023 0.034,0.034 0.006,0.05 -0.023,0.014 0.028,0.026 0.126,0.023 0.09,0 0.204,0.014 0.254,0.036 l 0.09,0.037 -0.053,0.09 a 0.746,0.746 0 0 0 -0.073,0.184 c -0.028,0.134 -0.093,0.232 -0.143,0.212 -0.129,-0.053 -0.134,-0.05 -0.056,0.034 0.048,0.05 0.095,0.09 0.11,0.09 0.013,0 0.1,-0.07 0.192,-0.154 A 0.884,0.884 0 0 1 4.104,10.2 c 0.02,0 0.058,-0.025 0.092,-0.056 0.056,-0.053 0.067,-0.053 0.156,-0.017 0.333,0.14 0.906,0.025 1.41,-0.28 0.15,-0.09 0.165,-0.092 0.212,-0.05 0.04,0.037 0.11,0.252 0.11,0.339 0,0.016 -0.32,-0.006 -0.42,-0.034 -0.056,-0.014 -0.05,-0.006 0.022,0.034 0.05,0.03 0.087,0.059 0.079,0.067 -0.008,0.009 0.025,0.008 0.075,0.003 0.05,-0.006 0.14,0.004 0.201,0.014 0.123,0.028 0.12,0.01 0.079,0.344 -0.02,0.16 -0.031,0.182 -0.084,0.19 -0.095,0.014 -0.078,0.053 0.028,0.07 0.103,0.017 0.137,-0.014 0.299,-0.271 0.106,-0.168 0.207,-0.23 0.52,-0.31 0.28,-0.073 0.766,-0.037 0.766,0.058 0,0.023 -0.056,0.14 -0.126,0.257 -0.079,0.137 -0.379,0.764 -0.537,1.12 A 5.407,5.407 0 0 1 0.857,6.327 C 0.857,3.34 3.287,0.94 6.274,0.94 Z M 6.126,2.77 c 0.216,-0.008 0.438,0.023 0.642,0.091 0.5,0.165 0.83,0.38 1.164,0.755 0.464,0.525 0.774,0.794 1.115,0.965 0.615,0.307 0.954,0.665 1.077,1.132 0.042,0.165 0.053,0.503 0.02,0.623 C 10.124,6.398 10.118,6.395 9.998,6.272 9.883,6.154 9.878,6.146 9.942,6.152 10.012,6.16 10.012,6.16 10.009,5.937 10.006,5.755 9.992,5.682 9.93,5.557 9.785,5.246 9.424,4.933 8.916,4.67 8.502,4.457 8.323,4.31 8.026,3.94 7.593,3.392 7.269,3.15 6.757,2.984 6.43,2.881 6.12,2.872 5.672,2.959 a 4.204,4.204 0 0 1 -0.54,0.07 L 4.895,3.043 5.141,3.001 C 5.275,2.978 5.446,2.934 5.519,2.903 5.699,2.822 5.909,2.777 6.126,2.77 Z m 1.627,0.357 h 0.285 c 0.162,0 0.371,0.02 0.483,0.044 0.263,0.062 0.543,0.18 0.744,0.313 0.16,0.112 0.425,0.375 0.484,0.49 L 9.779,4.03 9.702,3.971 A 1.447,1.447 0 0 1 9.522,3.811 C 9.394,3.677 9.078,3.481 8.849,3.395 8.474,3.255 8.041,3.165 7.951,3.213 7.912,3.236 7.881,3.227 7.825,3.185 Z M 6.17,3.753 c 0.196,0.011 0.251,0.028 0.682,0.23 0.296,0.139 0.484,0.24 0.51,0.282 C 7.386,4.301 7.4,4.335 7.395,4.34 A 1.315,1.315 0 0 1 7.16,4.222 5.698,5.698 0 0 0 6.67,3.982 C 6.413,3.87 6.397,3.867 6.098,3.867 H 5.79 L 5.471,4.044 C 5.298,4.141 5.15,4.214 5.144,4.208 5.133,4.198 5.507,3.94 5.63,3.87 A 0.961,0.961 0 0 1 6.17,3.753 Z M 8.469,3.81 c 0.022,-0.005 0.096,0.007 0.327,0.047 0.685,0.123 1.277,0.525 1.562,1.056 0.126,0.238 0.227,0.574 0.227,0.755 0,0.182 -0.04,0.271 -0.07,0.168 A 0.811,0.811 0 0 0 10.425,5.674 C 10.37,5.604 10.361,5.576 10.389,5.559 10.468,5.512 10.339,5.157 10.124,4.832 A 2.454,2.454 0 0 0 9.4579997,4.192 c -0.212,-0.126 -0.61,-0.26 -0.797,-0.268 -0.137,-0.006 -0.198,-0.037 -0.201,-0.104 0,-0.005 0.002,-0.008 0.009,-0.01 z M 5.737,4.217 c 0.02,0 0.03,0.064 0.025,0.187 A 0.804,0.804 0 0 1 5.706,4.698 C 5.658,4.796 5.65,4.798 5.466,4.818 5.256,4.841 5.091,4.821 4.929,4.754 L 4.822,4.712 4.937,4.662 C 5.001,4.634 5.124,4.552 5.217,4.482 5.362,4.368 5.653,4.22 5.737,4.217 Z M 6.67,4.392 C 6.72,4.398 6.76,4.433 6.816,4.502 6.872,4.57 6.984,4.729 7.068,4.86 7.171,5.02 7.314,5.187 7.495,5.358 7.761,5.607 7.842,5.724 7.887,5.92 7.895,5.968 7.909,6.006 7.917,6.006 7.96,6.006 8.197,5.794 8.209,5.744 8.219,5.702 8.312,5.64 8.519,5.531 A 6.45,6.45 0 0 0 8.891,5.327 C 8.93,5.302 8.963,5.291 8.963,5.305 A 0.057,0.057 0 0 1 8.935,5.349 C 8.885,5.38 8.793,5.744 8.768,6.012 8.743,6.297 8.658,6.543 8.538,6.669 8.477,6.736 8.365,6.756 8.334,6.705 8.306,6.661 8.264,6.675 8.264,6.728 A 0.133,0.133 0 0 1 8.231,6.812 C 8.208,6.834 8.209,6.854 8.236,6.887 8.267,6.924 8.256,6.963 8.166,7.142 7.962,7.542 7.56,7.941 7.143,8.159 6.883,8.293 6.733,8.313 6.583,8.224 6.494,8.171 6.489,8.162 6.494,8.02 6.5,7.888 6.497,7.877 6.464,7.922 6.43,7.969 6.424,7.966 6.394,7.877 6.371,7.801 6.372,7.754 6.405,7.645 6.481,7.396 6.469,7.262 6.346,7.021 6.271,6.867 6.209,6.784 6.139,6.741 6.086,6.705 6.025,6.663 6.005,6.647 5.955,6.605 5.977,6.524 6.036,6.527 6.061,6.529 6.084,6.521 6.084,6.507 6.084,6.479 6.069,6.477 5.904,6.471 5.751,6.465 5.709,6.392 5.809,6.3 A 0.368,0.368 0 0 0 5.902,6.14 C 5.93,6.012 5.994,5.889 6.061,5.836 6.114,5.794 6.114,5.789 6.072,5.702 6.014,5.592 6.027,5.545 6.15,5.411 6.231,5.321 6.262,5.308 6.366,5.308 6.438,5.308 6.475,5.296 6.461,5.282 6.411,5.235 6.262,5.237 6.184,5.291 6.142,5.316 6.1,5.333 6.092,5.324 6.084,5.319 6.103,5.244 6.134,5.159 A 4.2,4.2 0 0 0 6.29,4.603 C 6.302,4.547 6.344,4.511 6.453,4.458 6.556,4.408 6.619,4.386 6.67,4.392 Z m 3.255,3.46 c 0.047,0 0.137,0.067 0.302,0.232 0.235,0.238 0.472,0.395 0.83,0.557 l 0.07,0.033 A 5.407,5.407 0 0 1 10.77,9.309 c -0.042,0.019 -0.233,0.09 -0.479,0.17 -0.321,0.112 -0.433,0.157 -0.34,0.149 0.072,-0.011 0.223,-0.048 0.334,-0.087 0.11,-0.04 0.264,-0.087 0.336,-0.11 L 10.706,9.407 A 5.407,5.407 0 0 1 8.363,11.304 C 8.358,11.217 8.335,11.114 8.337,10.761 8.34,10.461 8.357,10.109 8.376,9.978 8.418,9.656 8.488,9.363 8.516,9.363 c 0.014,0 0.14,0.056 0.28,0.123 C 9.081,9.626 9.142,9.623 8.868,9.48 8.574,9.328 8.578,9.329 8.708,9.24 8.77,9.197 8.935,9.04 9.078,8.895 9.363,8.601 9.368,8.601 9.399,8.867 A 0.544,0.544 0 0 0 9.442,9.043 C 9.475,9.063 9.472,8.953 9.438,8.724 L 9.408,8.537 9.561,8.3 C 9.838,7.87 9.852,7.852 9.925,7.852 Z M 8.147,8.58 C 8.202,8.582 8.239,8.59 8.247,8.604 8.27,8.638 7.951,8.873 7.747,8.97 A 1.5,1.5 0 0 1 6.945,9.082 1.612,1.612 0 0 1 6.729,9.04 C 6.689,9.001 7.129,8.777 7.414,8.693 7.649,8.623 7.981,8.574 8.147,8.58 Z m -1.84,0.882 c 0.022,0.006 0.131,0.028 0.238,0.05 0.109,0.023 0.33,0.056 0.492,0.076 L 7.333,9.619 7.121,9.731 C 6.691,9.96 6.598,10.002 6.517,10.019 6.436,10.033 6.43,10.027 6.391,9.915 6.355,9.815 6.327,9.784 6.215,9.731 L 6.078,9.667 6.173,9.56 C 6.223,9.499 6.285,9.457 6.307,9.462 Z m 1.92,0.024 C 8.233,9.491 8.217,9.541 8.194,9.597 A 3.784,3.784 0 0 0 8.08,10.057 2.17,2.17 0 0 1 7.708,10.97 C 7.603,11.13 7.498,11.41 7.44,11.598 A 5.407,5.407 0 0 1 7.047,11.672 C 7.157,11.486 7.436,10.975 7.495,10.822 7.568,10.64 7.663,10.436 7.71,10.364 7.783,10.246 7.789,10.226 7.755,10.176 7.725,10.131 7.719,10.076 7.738,9.925 7.769,9.656 7.8,9.592 7.892,9.572 7.934,9.564 8.027,9.539 8.096,9.517 A 0.42,0.42 0 0 1 8.228,9.486 Z m -0.164,1.146 c 0.005,0.006 -0.014,0.117 -0.048,0.246 a 2.927,2.927 0 0 0 -0.09,0.588 5.407,5.407 0 0 1 -0.263,0.082 c 0.103,-0.22 0.279,-0.598 0.311,-0.698 0.042,-0.126 0.081,-0.224 0.09,-0.218 z m 0.117,0.129 c 0.014,-0.038 0.017,0.369 0.019,0.614 A 5.407,5.407 0 0 1 8.11,11.404 c 0.02,-0.218 0.061,-0.612 0.07,-0.643 z"
     id="path2"
     inkscape:connector-curvature="0"
     style="fill:#bde6fb;fill-opacity:1" />
</svg>
