<?xml version="1.0" encoding="UTF-8" standalone="no"?>
<svg
   width="48"
   height="48"
   viewBox="0 0 12.7 12.7"
   version="1.1"
   id="svg4"
   sodipodi:docname="meld.svg"
   inkscape:version="0.92.5 (2060ec1f9f, 2020-04-08)"
   xmlns:inkscape="http://www.inkscape.org/namespaces/inkscape"
   xmlns:sodipodi="http://sodipodi.sourceforge.net/DTD/sodipodi-0.dtd"
   xmlns="http://www.w3.org/2000/svg"
   xmlns:svg="http://www.w3.org/2000/svg">
  <sodipodi:namedview
     id="namedview1"
     pagecolor="#505050"
     bordercolor="#eeeeee"
     borderopacity="1"
     inkscape:showpageshadow="0"
     inkscape:pageopacity="0"
     inkscape:pagecheckerboard="0"
     inkscape:deskcolor="#d1d1d1" />
  <defs
     id="defs8">
    <style
       id="current-color-scheme"
       type="Highlight/css">&#10;      .ColorScheme-Highlight {&#10;        color:#1e3f5a;&#10;      }&#10;  </style>
  </defs>
  <path
     class="ColorScheme-Highlight"
     style="fill:#bde6fb;fill-opacity:1;stroke-width:0.264583"
     d="M 6.3499999,0 A 6.3499999,6.3499999 0 0 0 0,6.3499999 6.3499999,6.3499999 0 0 0 6.3499999,12.7 6.3499999,6.3499999 0 0 0 12.7,6.3499999 6.3499999,6.3499999 0 0 0 6.3499999,0 Z m 0,0.79374999 A 5.5562499,5.5562499 0 0 1 6.5882284,0.8056356 L 5.6993937,1.2097453 C 4.2127061,2.0763397 2.850344,3.8192389 2.9884481,5.4451456 3.1063901,6.8336842 4.257527,8.3063857 5.7324667,8.1442056 6.6058292,8.0481733 7.226279,7.232624 7.0987914,6.2895384 6.9773553,5.8836448 6.3101539,5.9291629 6.10402,6.0244383 6.1786724,5.7400433 6.6826611,5.2962849 7.2574382,5.5645182 7.9682807,5.975768 8.5467948,7.5166044 7.7349283,8.53798 6.9413209,9.5363836 5.952932,9.9448904 4.9588705,9.9595986 3.9648087,9.9743076 2.9603284,9.5999606 2.1192505,9.0361409 1.7274118,8.7734708 1.3962476,8.4579565 1.0924398,8.1256022 A 5.5562499,5.5562499 0 0 1 0.79374999,6.3499999 5.5562499,5.5562499 0 0 1 6.3499999,0.79374999 Z M 6.590812,0.8056356 A 5.5562499,5.5562499 0 0 1 7.141166,0.857312 5.5562499,5.5562499 0 0 1 10.497034,2.6628865 5.5562499,5.5562499 0 0 1 10.844816,3.0959351 5.5562499,5.5562499 0 0 1 11.141955,3.5512044 5.5562499,5.5562499 0 0 0 10.844816,3.0959351 5.5562499,5.5562499 0 0 0 10.497034,2.6628865 5.5562499,5.5562499 0 0 0 7.141166,0.85731201 5.5562499,5.5562499 0 0 0 6.590812,0.8056356 Z M 7.597469,2.552299 c 0.9940626,-0.014709 1.9985416,0.3596382 2.83962,0.9234579 0.432285,0.2897833 0.80672,0.6320779 1.132747,1.0045898 v 0.01757 h 0.0124 A 5.5562499,5.5562499 0 0 1 11.90625,6.3499999 5.5562499,5.5562499 0 0 1 6.3499999,11.90625 5.5562499,5.5562499 0 0 1 5.8668253,11.881962 C 7.6403437,11.297033 9.7328232,9.0085099 9.5678912,7.0667519 9.44995,5.6782133 8.2988128,4.2055123 6.8238729,4.3676919 5.9505106,4.4637242 5.3326442,5.2673876 5.4601318,6.2104735 5.5815679,6.6163665 6.2461859,6.6090897 6.4523193,6.5138143 6.3776671,6.7982091 5.8736785,7.2419677 5.2989014,6.9737345 4.5880567,6.5624844 4.0095445,4.9952928 4.821411,3.9739175 5.6150184,2.9755137 6.6034062,2.5670072 7.597469,2.552299 Z m 3.557405,1.0221599 a 5.5562499,5.5562499 0 0 1 0.24288,0.4702553 5.5562499,5.5562499 0 0 0 -0.24288,-0.4702553 z m 0.254765,0.4960937 A 5.5562499,5.5562499 0 0 1 11.581205,4.4958497 5.5562499,5.5562499 0 0 0 11.409639,4.0705526 Z M 1.0929565,8.1271524 a 5.5562499,5.5562499 0 0 0 4.773352,3.7548096 5.5562499,5.5562499 0 0 1 -4.773352,-3.7548096 z"
     id="path817" />
</svg>
