<?xml version="1.0" encoding="UTF-8" standalone="no"?>
<svg
   width="47.546455"
   height="47.546455"
   viewBox="0 0 12.58 12.58"
   version="1.1"
   id="svg4"
   sodipodi:docname="mendeley-desktop.svg"
   inkscape:version="0.92.4 (5da689c313, 2019-01-14)"
   xmlns:inkscape="http://www.inkscape.org/namespaces/inkscape"
   xmlns:sodipodi="http://sodipodi.sourceforge.net/DTD/sodipodi-0.dtd"
   xmlns="http://www.w3.org/2000/svg"
   xmlns:svg="http://www.w3.org/2000/svg"
   xmlns:rdf="http://www.w3.org/1999/02/22-rdf-syntax-ns#"
   xmlns:cc="http://creativecommons.org/ns#"
   xmlns:dc="http://purl.org/dc/elements/1.1/">
  <metadata
     id="metadata10">
    <rdf:RDF>
      <cc:Work
         rdf:about="">
        <dc:format>image/svg+xml</dc:format>
        <dc:type
           rdf:resource="http://purl.org/dc/dcmitype/StillImage" />
        <dc:title />
      </cc:Work>
    </rdf:RDF>
  </metadata>
  <defs
     id="defs8" />
  <sodipodi:namedview
     pagecolor="#ffffff"
     bordercolor="#666666"
     borderopacity="1"
     objecttolerance="10"
     gridtolerance="10"
     guidetolerance="10"
     inkscape:pageopacity="0"
     inkscape:pageshadow="2"
     inkscape:window-width="1138"
     inkscape:window-height="480"
     id="namedview6"
     showgrid="false"
     inkscape:zoom="4.9166667"
     inkscape:cx="2.1355932"
     inkscape:cy="24"
     inkscape:window-x="0"
     inkscape:window-y="25"
     inkscape:window-maximized="0"
     inkscape:current-layer="svg4"
     inkscape:showpageshadow="0"
     inkscape:pagecheckerboard="0"
     inkscape:deskcolor="#d1d1d1" />
  <path
     d="M 6.29,9.9999768e-4 A 6.29,6.29 0 0 0 0,6.291 6.29,6.29 0 0 0 6.29,12.58 6.29,6.29 0 0 0 12.58,6.29 6.29,6.29 0 0 0 6.29,0 Z M 6.272,0.938 A 5.407,5.407 0 0 1 11.679,6.345 5.407,5.407 0 0 1 6.272,11.752 5.407,5.407 0 0 1 0.866,6.345 5.407,5.407 0 0 1 6.272,0.939 Z M 4.052,3.369 C 3.707,3.379 3.374,3.536 3.118,3.773 A 1.5,1.5 0 0 0 2.634,4.698 c -0.019,0.177 0,0.36 0.058,0.528 0.058,0.168 0.155,0.323 0.285,0.443 0.154,0.141 0.346,0.23 0.522,0.341 0.088,0.056 0.173,0.117 0.246,0.191 a 0.7,0.7 0 0 1 0.167,0.264 c 0.03,0.088 0.037,0.184 0.024,0.277 A 0.682,0.682 0 0 1 3.84,7.003 0.832,0.832 0 0 1 3.409,7.338 C 3.207,7.41 2.985,7.413 2.79,7.503 A 0.8,0.8 0 0 0 2.426,7.85 0.858,0.858 0 0 0 2.333,8.349 0.91,0.91 0 0 0 2.592,8.882 0.956,0.956 0 0 0 3.923,8.892 0.89,0.89 0 0 0 4.177,8.08 C 4.155,7.969 4.111,7.864 4.071,7.758 A 1.215,1.215 0 0 1 3.983,7.432 0.757,0.757 0 0 1 4.171,6.882 0.942,0.942 0 0 1 4.674,6.59 0.961,0.961 0 0 1 5.052,6.577 0.798,0.798 0 0 1 5.399,6.726 0.69,0.69 0 0 1 5.626,7.029 c 0.045,0.12 0.053,0.257 0.017,0.38 a 1.058,1.058 0 0 1 -0.196,0.34 c -0.08,0.103 -0.163,0.208 -0.21,0.33 a 0.712,0.712 0 0 0 -0.022,0.43 0.86,0.86 0 0 0 0.21,0.374 c 0.11,0.116 0.25,0.203 0.401,0.25 0.152,0.048 0.306,0.056 0.465,0.056 0.158,0 0.323,-0.008 0.475,-0.055 A 0.944,0.944 0 0 0 7.166,8.884 0.86,0.86 0 0 0 7.377,8.508 0.712,0.712 0 0 0 7.355,8.079 C 7.308,7.957 7.225,7.852 7.145,7.749 A 1.058,1.058 0 0 1 6.949,7.409 0.611,0.611 0 0 1 6.966,7.029 0.69,0.69 0 0 1 7.193,6.726 0.798,0.798 0 0 1 7.54,6.576 0.961,0.961 0 0 1 7.918,6.59 0.942,0.942 0 0 1 8.421,6.882 c 0.13,0.15 0.205,0.352 0.188,0.55 C 8.599,7.545 8.562,7.653 8.521,7.758 8.481,7.864 8.437,7.968 8.415,8.079 A 0.89,0.89 0 0 0 8.669,8.891 0.954,0.954 0 0 0 10,8.881 0.91,0.91 0 0 0 10.26,8.349 0.858,0.858 0 0 0 10.166,7.85 0.8,0.8 0 0 0 9.802,7.503 C 9.607,7.413 9.385,7.41 9.183,7.338 A 0.832,0.832 0 0 1 8.753,7.003 0.682,0.682 0 0 1 8.656,6.742 0.605,0.605 0 0 1 8.68,6.465 0.7,0.7 0 0 1 8.847,6.201 C 8.92,6.127 9.005,6.066 9.093,6.011 9.269,5.9 9.461,5.811 9.615,5.669 9.745,5.549 9.842,5.394 9.9,5.226 9.958,5.057 9.977,4.876 9.958,4.698 A 1.5,1.5 0 0 0 9.474,3.773 1.468,1.468 0 0 0 8.54,3.369 1.195,1.195 0 0 0 8.033,3.463 C 7.874,3.531 7.731,3.637 7.62,3.773 A 1.93,1.93 0 0 0 7.342,4.303 C 7.269,4.491 7.201,4.682 7.091,4.849 6.909,5.125 6.623,5.388 6.296,5.388 5.969,5.388 5.683,5.125 5.501,4.849 5.391,4.682 5.323,4.491 5.251,4.303 A 1.93,1.93 0 0 0 4.971,3.773 1.087,1.087 0 0 0 4.558,3.463 1.192,1.192 0 0 0 4.052,3.369 Z m 2.244,2.557 a 0.53,0.538 0 0 1 0.53,0.539 0.53,0.538 0 0 1 -0.53,0.538 0.53,0.538 0 0 1 -0.53,-0.538 0.53,0.538 0 0 1 0.53,-0.539 z"
     id="path2"
     inkscape:connector-curvature="0"
     style="fill:#bde6fb;fill-opacity:1" />
</svg>
