<?xml version="1.0" encoding="UTF-8" standalone="no"?>
<svg
   width="48"
   height="48"
   viewBox="0 0 12.7 12.7"
   version="1.1"
   id="svg4"
   sodipodi:docname="menu-editor.svg"
   inkscape:version="0.92.5 (2060ec1f9f, 2020-04-08)"
   xmlns:inkscape="http://www.inkscape.org/namespaces/inkscape"
   xmlns:sodipodi="http://sodipodi.sourceforge.net/DTD/sodipodi-0.dtd"
   xmlns="http://www.w3.org/2000/svg"
   xmlns:svg="http://www.w3.org/2000/svg">
  <sodipodi:namedview
     id="namedview1"
     pagecolor="#505050"
     bordercolor="#eeeeee"
     borderopacity="1"
     inkscape:showpageshadow="0"
     inkscape:pageopacity="0"
     inkscape:pagecheckerboard="0"
     inkscape:deskcolor="#d1d1d1" />
  <defs
     id="defs8">
    <style
       id="current-color-scheme"
       type="text/css">&#10;      .ColorScheme-Highlight {&#10;        color:#1e3f5a;&#10;      }&#10;  </style>
  </defs>
  <path
     class="ColorScheme-Highlight"
     style="fill:#bde6fb;fill-opacity:1;stroke-width:0.264583"
     d="M 6.3499999,0 C 2.8429918,0 0,2.8429918 0,6.3499999 0,9.857008 2.8429918,12.7 6.3499999,12.7 9.857008,12.7 12.7,9.857008 12.7,6.3499999 12.7,2.8429918 9.857008,0 6.3499999,0 Z m 0,0.79374999 c 3.0686322,0 5.5562501,2.48761781 5.5562501,5.55624991 0,3.0686322 -2.4876179,5.5562501 -5.5562501,5.5562501 -3.0686321,0 -5.55624991,-2.4876179 -5.55624991,-5.5562501 0,-3.0686321 2.48761781,-5.55624991 5.55624991,-5.55624991 z M 2.9104166,2.9104166 c -0.1465791,0 -0.2645833,0.1180042 -0.2645833,0.2645834 v 6.3499999 c 0,0.1465791 0.1180042,0.2645833 0.2645833,0.2645833 h 4.7625 c 0.1465791,0 0.2645833,-0.1180042 0.2645833,-0.2645833 V 8.4666666 H 7.4083332 v 0.79375 H 3.175 V 3.4395833 h 4.2333332 v 2.38125 L 7.9374999,5.2916666 V 3.175 c 0,-0.1465792 -0.1180042,-0.2645834 -0.2645833,-0.2645834 z m 7.1437504,0.79375 -0.7937504,0.79375 1.0583334,1.0583333 0.79375,-0.79375 z M 3.7041666,4.2333333 V 4.7624999 H 4.2333333 V 4.2333333 Z m 1.0583333,0 V 4.7624999 H 6.8791666 V 4.2333333 Z M 8.9958332,4.7624999 6.8791666,6.8791666 7.9374999,7.9374999 10.054167,5.8208333 Z m -5.2916666,0.79375 V 6.0854166 H 4.2333333 V 5.5562499 Z m 1.0583333,0 V 6.0854166 H 6.8791666 V 5.5562499 Z M 3.7041666,6.8791666 V 7.4083332 H 4.2333333 V 6.8791666 Z m 1.0583333,0 V 7.4083332 H 6.0854166 V 6.8791666 Z M 6.6145833,7.1437499 6.3499999,8.4666666 7.6729166,8.2020832 Z M 3.7041666,8.2020832 V 8.7312499 H 4.2333333 V 8.2020832 Z m 1.0583333,0 V 8.7312499 H 6.0854166 V 8.2020832 Z"
     id="path843" />
</svg>
