<?xml version="1.0" encoding="UTF-8" standalone="no"?>
<svg
   width="47.542679"
   height="47.546455"
   viewBox="0 0 12.579 12.58"
   version="1.1"
   id="svg8"
   sodipodi:docname="metasploit.svg"
   inkscape:version="0.92.5 (2060ec1f9f, 2020-04-08)"
   xmlns:inkscape="http://www.inkscape.org/namespaces/inkscape"
   xmlns:sodipodi="http://sodipodi.sourceforge.net/DTD/sodipodi-0.dtd"
   xmlns="http://www.w3.org/2000/svg"
   xmlns:svg="http://www.w3.org/2000/svg"
   xmlns:rdf="http://www.w3.org/1999/02/22-rdf-syntax-ns#"
   xmlns:cc="http://creativecommons.org/ns#"
   xmlns:dc="http://purl.org/dc/elements/1.1/">
  <metadata
     id="metadata14">
    <rdf:RDF>
      <cc:Work
         rdf:about="">
        <dc:format>image/svg+xml</dc:format>
        <dc:type
           rdf:resource="http://purl.org/dc/dcmitype/StillImage" />
        <dc:title />
      </cc:Work>
    </rdf:RDF>
  </metadata>
  <defs
     id="defs12" />
  <sodipodi:namedview
     pagecolor="#ffffff"
     bordercolor="#666666"
     borderopacity="1"
     objecttolerance="10"
     gridtolerance="10"
     guidetolerance="10"
     inkscape:pageopacity="0"
     inkscape:pageshadow="2"
     inkscape:window-width="1085"
     inkscape:window-height="480"
     id="namedview10"
     showgrid="false"
     inkscape:zoom="4.9166667"
     inkscape:cx="2.1355932"
     inkscape:cy="24"
     inkscape:window-x="0"
     inkscape:window-y="25"
     inkscape:window-maximized="0"
     inkscape:current-layer="svg8"
     inkscape:showpageshadow="0"
     inkscape:pagecheckerboard="0"
     inkscape:deskcolor="#d1d1d1" />
  <path
     d="M 6.285,0 A 6.295,6.295 0 0 0 0,6.285 6.295,6.295 0 0 0 6.285,12.58 6.295,6.295 0 0 0 12.579,6.285 6.295,6.295 0 0 0 6.285,0 Z m -0.01,0.94 a 5.408,5.408 0 0 1 5.396,5.387 5.407,5.407 0 1 1 -10.814,0 C 0.857,3.34 3.287,0.94 6.274,0.94 Z"
     id="path2"
     inkscape:connector-curvature="0"
     style="fill:#bde6fb;fill-opacity:1" />
  <path
     d="M 6.308,2.274 C 5.253,2.279 4.193,2.434 3.129,2.722 v 4.67 c 0,0.667 0.66,1.59 1.336,2.043 l 1.84,1.235 1.82,-1.235 C 8.798,8.978 9.461,8.059 9.461,7.392 V 2.722 A 10.855,10.855 0 0 0 6.308,2.274 Z M 3.602,3.251 H 4.67 L 6.268,4.775 7.866,3.252 h 1.069 v 3.933 c 0,0.562 -0.772,1.367 -1.125,1.72 V 4.925 L 6.77,5.861 V 7.525 H 5.766 V 5.861 L 4.727,4.925 v 3.98 C 4.374,8.552 3.602,7.747 3.602,7.185 Z"
     id="path4"
     inkscape:connector-curvature="0"
     style="fill:#265ab1" />
  <path
     d="M 6.282,2.274 H 6.278 V 10.67 L 8.098,9.435 C 8.771,8.978 9.434,8.059 9.434,7.392 V 2.722 A 10.854,10.854 0 0 0 6.282,2.274 Z"
     id="path6"
     inkscape:connector-curvature="0"
     style="opacity:0.2" />
</svg>
