<?xml version="1.0" encoding="UTF-8" standalone="no"?>
<svg
   width="47.546455"
   height="47.546455"
   viewBox="0 0 12.58 12.58"
   version="1.1"
   id="svg4"
   sodipodi:docname="meterbridge.svg"
   inkscape:version="0.92.4 (5da689c313, 2019-01-14)"
   xmlns:inkscape="http://www.inkscape.org/namespaces/inkscape"
   xmlns:sodipodi="http://sodipodi.sourceforge.net/DTD/sodipodi-0.dtd"
   xmlns="http://www.w3.org/2000/svg"
   xmlns:svg="http://www.w3.org/2000/svg"
   xmlns:rdf="http://www.w3.org/1999/02/22-rdf-syntax-ns#"
   xmlns:cc="http://creativecommons.org/ns#"
   xmlns:dc="http://purl.org/dc/elements/1.1/">
  <metadata
     id="metadata10">
    <rdf:RDF>
      <cc:Work
         rdf:about="">
        <dc:format>image/svg+xml</dc:format>
        <dc:type
           rdf:resource="http://purl.org/dc/dcmitype/StillImage" />
        <dc:title />
      </cc:Work>
    </rdf:RDF>
  </metadata>
  <defs
     id="defs8" />
  <sodipodi:namedview
     pagecolor="#ffffff"
     bordercolor="#666666"
     borderopacity="1"
     objecttolerance="10"
     gridtolerance="10"
     guidetolerance="10"
     inkscape:pageopacity="0"
     inkscape:pageshadow="2"
     inkscape:window-width="862"
     inkscape:window-height="480"
     id="namedview6"
     showgrid="false"
     inkscape:zoom="4.9166667"
     inkscape:cx="2.1355932"
     inkscape:cy="24"
     inkscape:window-x="0"
     inkscape:window-y="25"
     inkscape:window-maximized="0"
     inkscape:current-layer="svg4"
     inkscape:showpageshadow="0"
     inkscape:pagecheckerboard="0"
     inkscape:deskcolor="#d1d1d1" />
  <path
     d="m 6.29,0 a 6.29,6.29 0 1 0 0,12.58 A 6.29,6.29 0 0 0 6.29,0 Z M 6.27,0.93 a 5.417,5.417 0 0 1 5.41,5.41 5.377,5.377 0 0 1 -0.365,1.951 H 6.23 L 4.2,4.715 A 0.299,0.299 0 0 0 4.024,4.584 0.3,0.3 0 0 0 3.696,5.002 l 1.867,3.29 H 1.236 A 5.375,5.375 0 0 1 0.87,6.35 5.4,5.4 0 0 1 6.27,0.93 Z M 6.297,2.2 A 3.636,3.636 0 0 0 5.813,2.245 L 5.816,2.564 A 4.54,4.54 0 0 1 6.788,2.551 L 6.79,2.253 6.78,2.22 A 3.838,3.838 0 0 0 6.297,2.2 Z M 5.604,2.265 a 4.52,4.52 0 0 0 -0.93,0.252 l 0.085,0.31 A 4.187,4.187 0 0 1 5.689,2.575 Z M 6.996,2.268 6.913,2.576 C 7.237,2.631 7.545,2.714 7.85,2.833 L 7.93,2.513 A 5.474,5.474 0 0 0 6.996,2.268 Z m 1.12,0.315 -0.162,0.28 c 0.298,0.134 0.58,0.295 0.845,0.485 L 8.959,3.066 A 4.877,4.877 0 0 0 8.115,2.583 Z M 4.481,2.593 C 4.186,2.733 3.898,2.895 3.64,3.083 L 3.798,3.362 C 4.068,3.17 4.345,3.011 4.643,2.882 Z M 9.116,3.203 8.892,3.43 C 9.149,3.633 9.365,3.86 9.576,4.112 L 9.811,3.882 9.8,3.885 A 3.6,3.6 0 0 0 9.116,3.203 Z M 3.486,3.22 C 3.232,3.42 3.011,3.658 2.805,3.904 l 0.23,0.235 C 3.238,3.882 3.462,3.655 3.717,3.455 L 3.703,3.447 3.487,3.22 Z M 9.94,4.049 9.662,4.208 c 0.189,0.258 0.35,0.546 0.478,0.844 L 10.415,4.882 10.426,4.88 A 5.05,5.05 0 0 0 9.94,4.049 Z M 2.657,4.063 C 2.467,4.328 2.307,4.61 2.174,4.907 l 0.28,0.162 A 4.198,4.198 0 0 1 2.939,4.224 L 2.657,4.064 Z"
     id="path2"
     inkscape:connector-curvature="0"
     style="fill:#bde6fb;fill-opacity:1" />
</svg>
