<?xml version="1.0" encoding="UTF-8" standalone="no"?>
<svg
   width="47.542679"
   height="47.546455"
   viewBox="0 0 12.579 12.58"
   version="1.1"
   id="svg4"
   sodipodi:docname="mfoc.svg"
   inkscape:version="0.92.5 (2060ec1f9f, 2020-04-08)"
   xmlns:inkscape="http://www.inkscape.org/namespaces/inkscape"
   xmlns:sodipodi="http://sodipodi.sourceforge.net/DTD/sodipodi-0.dtd"
   xmlns="http://www.w3.org/2000/svg"
   xmlns:svg="http://www.w3.org/2000/svg"
   xmlns:rdf="http://www.w3.org/1999/02/22-rdf-syntax-ns#"
   xmlns:cc="http://creativecommons.org/ns#"
   xmlns:dc="http://purl.org/dc/elements/1.1/">
  <metadata
     id="metadata10">
    <rdf:RDF>
      <cc:Work
         rdf:about="">
        <dc:format>image/svg+xml</dc:format>
        <dc:type
           rdf:resource="http://purl.org/dc/dcmitype/StillImage" />
        <dc:title />
      </cc:Work>
    </rdf:RDF>
  </metadata>
  <defs
     id="defs8" />
  <sodipodi:namedview
     pagecolor="#ffffff"
     bordercolor="#666666"
     borderopacity="1"
     objecttolerance="10"
     gridtolerance="10"
     guidetolerance="10"
     inkscape:pageopacity="0"
     inkscape:pageshadow="2"
     inkscape:window-width="1085"
     inkscape:window-height="480"
     id="namedview6"
     showgrid="false"
     inkscape:zoom="4.9166667"
     inkscape:cx="2.1355932"
     inkscape:cy="24"
     inkscape:window-x="0"
     inkscape:window-y="25"
     inkscape:window-maximized="0"
     inkscape:current-layer="svg4"
     inkscape:showpageshadow="0"
     inkscape:pagecheckerboard="0"
     inkscape:deskcolor="#d1d1d1" />
  <path
     d="M 6.285,0 A 6.295,6.295 0 0 0 0,6.285 6.295,6.295 0 0 0 6.285,12.58 6.295,6.295 0 0 0 12.579,6.285 6.295,6.295 0 0 0 6.285,0 Z M 6.274,0.94 Z M 6.557,0.955 A 5.408,5.408 0 0 1 6.827,0.97 5.408,5.408 0 0 0 6.557,0.955 Z M 5.809,0.961 Z m 1.223,0.04 A 5.408,5.408 0 0 1 7.365,1.054 5.408,5.408 0 0 0 7.032,1.001 Z M 5.008,1.089 Z M 7.505,1.09 A 5.408,5.408 0 0 1 7.891,1.192 5.408,5.408 0 0 0 7.505,1.09 Z M 7.981,1.225 A 5.408,5.408 0 0 1 8.397,1.38 5.408,5.408 0 0 0 7.981,1.225 Z M 4.232,1.338 C 4.153,1.37 4.077,1.407 4,1.442 4.077,1.407 4.153,1.37 4.232,1.338 Z M 8.49,1.425 A 5.408,5.408 0 0 1 8.882,1.617 5.408,5.408 0 0 0 8.49,1.425 Z M 3.818,1.529 Z M 8.979,1.677 A 5.408,5.408 0 0 1 9.341,1.903 5.408,5.408 0 0 0 8.979,1.677 Z M 3.445,1.738 C 3.359,1.791 3.274,1.843 3.191,1.9 h 0.005 c 1.077,0.01 2.06,0.405 2.817,1.058 A 4.77,4.77 0 0 0 4.855,4.955 h 0.409 a 4.374,4.374 0 0 1 1.032,-1.73 4.374,4.374 0 0 1 1.033,1.73 h 0.41 A 4.77,4.77 0 0 0 6.58,2.957 4.359,4.359 0 0 1 9.345,1.905 a 5.408,5.408 0 0 1 2.326,4.422 5.407,5.407 0 0 1 -2.164,4.32 c -0.023,0 -0.044,0.007 -0.067,0.007 -1.094,0 -2.093,-0.4 -2.86,-1.062 0.51,-0.526 0.9,-1.17 1.125,-1.886 H 7.292 A 4.377,4.377 0 0 1 6.295,9.325 4.376,4.376 0 0 1 5.299,7.707 H 4.886 c 0.226,0.716 0.616,1.36 1.125,1.886 a 4.363,4.363 0 0 1 -2.86,1.062 c -0.048,0 -0.094,-0.013 -0.143,-0.015 A 5.407,5.407 0 0 0 9.482,10.665 5.407,5.407 0 0 1 0.857,6.327 5.365,5.365 0 0 1 3.445,1.738 Z M 5.723,4.225 A 0.196,0.196 0 0 0 5.527,4.421 V 5.149 H 5.311 a 0.197,0.197 0 0 0 0,0.393 H 5.527 V 7.31 a 0.196,0.196 0 0 0 0,0.02 C 5.529,7.351 5.535,7.37 5.543,7.39 A 0.196,0.196 0 0 0 5.559,7.42 L 5.56,7.422 a 0.196,0.196 0 0 0 0.022,0.027 l 0.001,0.002 a 0.196,0.196 0 0 0 0.028,0.023 h 0.002 a 0.196,0.196 0 0 0 0.03,0.018 c 0.002,0 0.004,0 0.006,0.002 A 0.196,0.196 0 0 0 5.654,7.496 L 5.667,7.5 a 0.196,0.196 0 0 0 0.007,0.001 l 0.011,0.003 a 0.196,0.196 0 0 0 0.01,0.001 l 0.01,0.002 a 0.196,0.196 0 0 0 0.01,0.001 L 5.723,7.509 H 6.042 A 0.196,0.196 0 0 0 6.234,7.31 V 6.247 L 5.921,6.077 H 5.92 V 5.542 h 0.185 a 0.197,0.197 0 0 0 0,-0.393 H 5.92 V 4.618 h 0.446 a 0.1965,0.1965 0 1 0 0,-0.393 z M 3.58,5.146 A 0.196,0.196 0 0 0 3.552,5.149 H 2.448 A 0.197,0.197 0 0 0 2.251,5.346 V 7.31 A 0.196,0.196 0 0 0 2.448,7.509 H 2.767 A 0.196,0.196 0 0 0 2.959,7.31 V 6.247 L 2.646,6.077 2.645,6.076 V 5.542 h 0.742 v 1.767 c -10e-4,0.03 0.006,0.06 0.019,0.086 a 0.196,0.196 0 0 0 0.008,0.016 l 0.01,0.016 a 0.196,0.196 0 0 0 0.013,0.016 0.159,0.159 0 0 0 0.011,0.01 0.196,0.196 0 0 0 0.02,0.017 L 3.475,7.475 A 0.196,0.196 0 0 0 3.5,7.489 0.197,0.197 0 0 0 3.546,7.504 0.196,0.196 0 0 0 3.551,7.506 L 3.565,7.507 A 0.196,0.196 0 0 0 3.574,7.508 L 3.583,7.509 H 3.901 A 0.196,0.196 0 0 0 4.094,7.31 V 6.247 L 3.78,6.077 V 5.542 H 4.502 V 7.31 a 0.197,0.197 0 1 0 0.393,0 V 5.345 A 0.196,0.196 0 0 0 4.698,5.149 H 3.616 A 0.196,0.196 0 0 0 3.58,5.146 Z M 9.069,5.149 A 0.196,0.196 0 0 0 8.872,5.346 V 7.31 C 8.871,7.42 8.959,7.509 9.069,7.509 h 0.318 c 0.01,0 0.019,-0.001 0.028,-0.003 h 1.16 A 0.196,0.196 0 0 0 10.772,7.31 V 6.702 a 0.196,0.196 0 1 0 -0.392,0 V 7.113 H 9.58 V 6.247 L 9.267,6.077 H 9.265 V 5.542 h 1.074 v 0.256 a 0.1965,0.1965 0 1 0 0.393,0 V 5.345 A 0.196,0.196 0 0 0 10.536,5.149 Z M 6.982,5.162 A 0.25,0.25 0 0 0 6.735,5.409 V 7.31 C 6.733,7.42 6.822,7.509 6.931,7.509 H 7.249 A 0.195,0.195 0 0 0 7.289,7.504 H 8.372 A 0.25,0.25 0 0 0 8.62,7.257 V 5.409 A 0.25,0.25 0 0 0 8.372,5.162 Z m 0.14,0.389 h 1.11 V 7.116 H 7.442 V 6.246 L 7.129,6.077 H 7.123 V 5.551 Z"
     id="path2"
     inkscape:connector-curvature="0"
     style="fill:#bde6fb;fill-opacity:1" />
</svg>
