<?xml version="1.0" encoding="UTF-8" standalone="no"?>
<svg
   width="47.542679"
   height="47.546455"
   viewBox="0 0 12.579 12.58"
   version="1.1"
   id="svg4"
   sodipodi:docname="mfterm.svg"
   inkscape:version="0.92.5 (2060ec1f9f, 2020-04-08)"
   xmlns:inkscape="http://www.inkscape.org/namespaces/inkscape"
   xmlns:sodipodi="http://sodipodi.sourceforge.net/DTD/sodipodi-0.dtd"
   xmlns="http://www.w3.org/2000/svg"
   xmlns:svg="http://www.w3.org/2000/svg"
   xmlns:rdf="http://www.w3.org/1999/02/22-rdf-syntax-ns#"
   xmlns:cc="http://creativecommons.org/ns#"
   xmlns:dc="http://purl.org/dc/elements/1.1/">
  <metadata
     id="metadata10">
    <rdf:RDF>
      <cc:Work
         rdf:about="">
        <dc:format>image/svg+xml</dc:format>
        <dc:type
           rdf:resource="http://purl.org/dc/dcmitype/StillImage" />
        <dc:title />
      </cc:Work>
    </rdf:RDF>
  </metadata>
  <defs
     id="defs8" />
  <sodipodi:namedview
     pagecolor="#ffffff"
     bordercolor="#666666"
     borderopacity="1"
     objecttolerance="10"
     gridtolerance="10"
     guidetolerance="10"
     inkscape:pageopacity="0"
     inkscape:pageshadow="2"
     inkscape:window-width="1085"
     inkscape:window-height="480"
     id="namedview6"
     showgrid="false"
     inkscape:zoom="4.9166667"
     inkscape:cx="2.1355932"
     inkscape:cy="24"
     inkscape:window-x="0"
     inkscape:window-y="25"
     inkscape:window-maximized="0"
     inkscape:current-layer="svg4"
     inkscape:showpageshadow="0"
     inkscape:pagecheckerboard="0"
     inkscape:deskcolor="#d1d1d1" />
  <path
     d="M 6.285,0 A 6.295,6.295 0 0 0 0,6.285 6.295,6.295 0 0 0 6.285,12.58 6.295,6.295 0 0 0 12.579,6.285 6.295,6.295 0 0 0 6.285,0 Z M 6.274,0.94 a 5.408,5.408 0 0 1 5.397,5.387 5.407,5.407 0 0 1 -10.814,0 C 0.857,3.34 3.287,0.94 6.274,0.94 Z m 0.874,1.089 a 0.251,0.251 0 0 0 0,0.502 2.86,2.86 0 0 1 2.861,2.86 0.251,0.251 0 0 0 0.502,0 3.363,3.363 0 0 0 -3.363,-3.362 z m 0,1.004 a 0.251,0.251 0 0 0 0,0.502 c 1.026,0 1.857,0.831 1.857,1.857 a 0.251,0.251 0 0 0 0.502,0 2.359,2.359 0 0 0 -2.359,-2.36 z m -3.366,0.36 c -0.832,0 -1.506,0.674 -1.506,1.506 v 3.87 c 0,0.832 0.674,1.506 1.506,1.506 h 3.87 c 0.832,0 1.506,-0.674 1.506,-1.506 V 6.701 a 0.251,0.251 0 0 0 -0.501,0 v 2.068 c 0,0.555 -0.45,1.004 -1.005,1.004 h -3.87 c -0.555,0 -1.004,-0.45 -1.004,-1.004 v -3.87 c 0,-0.555 0.45,-1.004 1.004,-1.004 h 2.053 a 0.2515,0.2515 0 0 0 0,-0.503 H 3.782 Z m 3.366,0.644 a 0.251,0.251 0 0 0 0,0.502 c 0.471,0 0.853,0.382 0.853,0.853 a 0.251,0.251 0 0 0 0.502,0 C 8.503,4.644 7.896,4.037 7.148,4.037 Z M 3.695,4.31 A 0.502,0.502 0 0 0 3.193,4.812 v 4.044 c 0,0.278 0.224,0.503 0.502,0.503 H 6.457 A 0.46,0.46 0 0 0 6.812,9.212 L 8.095,7.929 A 0.459,0.459 0 0 0 8.243,7.574 V 7.085 A 0.502,0.502 0 0 0 7.74,6.583 H 6.582 V 6.308 A 0.338,0.338 0 0 0 6.244,5.97 H 5.191 A 0.339,0.339 0 0 0 4.852,6.308 v 1.053 c 0,0.186 0.152,0.338 0.339,0.338 H 6.244 A 0.338,0.338 0 0 0 6.582,7.361 V 7.085 h 1.157 v 0.49 L 6.457,8.855 H 3.695 V 4.812 h 2.14 a 0.251,0.251 0 0 0 0,-0.502 z m 3.453,0.731 a 0.35,0.35 0 0 0 -0.35,0.35 0.35,0.35 0 0 0 0.35,0.352 0.35,0.35 0 0 0 0.35,-0.351 0.35,0.35 0 0 0 -0.35,-0.351 z"
     id="path2"
     inkscape:connector-curvature="0"
     style="fill:#bde6fb;fill-opacity:1" />
</svg>
