<?xml version="1.0" encoding="UTF-8" standalone="no"?>
<svg
   width="47.542679"
   height="47.546455"
   viewBox="0 0 12.579 12.58"
   version="1.1"
   id="svg4"
   sodipodi:docname="mimikatz.svg"
   inkscape:version="0.92.5 (2060ec1f9f, 2020-04-08)"
   xmlns:inkscape="http://www.inkscape.org/namespaces/inkscape"
   xmlns:sodipodi="http://sodipodi.sourceforge.net/DTD/sodipodi-0.dtd"
   xmlns="http://www.w3.org/2000/svg"
   xmlns:svg="http://www.w3.org/2000/svg"
   xmlns:rdf="http://www.w3.org/1999/02/22-rdf-syntax-ns#"
   xmlns:cc="http://creativecommons.org/ns#"
   xmlns:dc="http://purl.org/dc/elements/1.1/">
  <metadata
     id="metadata10">
    <rdf:RDF>
      <cc:Work
         rdf:about="">
        <dc:format>image/svg+xml</dc:format>
        <dc:type
           rdf:resource="http://purl.org/dc/dcmitype/StillImage" />
        <dc:title />
      </cc:Work>
    </rdf:RDF>
  </metadata>
  <defs
     id="defs8" />
  <sodipodi:namedview
     pagecolor="#ffffff"
     bordercolor="#666666"
     borderopacity="1"
     objecttolerance="10"
     gridtolerance="10"
     guidetolerance="10"
     inkscape:pageopacity="0"
     inkscape:pageshadow="2"
     inkscape:window-width="1085"
     inkscape:window-height="480"
     id="namedview6"
     showgrid="false"
     inkscape:zoom="4.9166667"
     inkscape:cx="2.1355932"
     inkscape:cy="24"
     inkscape:window-x="0"
     inkscape:window-y="25"
     inkscape:window-maximized="0"
     inkscape:current-layer="svg4"
     inkscape:showpageshadow="0"
     inkscape:pagecheckerboard="0"
     inkscape:deskcolor="#d1d1d1" />
  <path
     d="M 6.285,0 A 6.295,6.295 0 0 0 0,6.285 6.295,6.295 0 0 0 6.285,12.58 6.295,6.295 0 0 0 12.579,6.285 6.295,6.295 0 0 0 6.285,0 Z M 6.274,0.94 a 5.408,5.408 0 0 1 5.397,5.387 5.407,5.407 0 0 1 -10.814,0 C 0.857,3.34 3.287,0.94 6.274,0.94 Z M 5.138,2.893 5.018,2.894 C 4.896,2.897 4.798,2.9 4.718,2.904 4.638,2.908 4.573,2.914 4.518,2.922 H 4.517 a 0.95,0.95 0 0 0 -0.15,0.034 1.556,1.556 0 0 0 -0.15,0.059 4.874,4.874 0 0 1 -0.6,0.196 2.867,2.867 0 0 0 -0.27,0.08 0.592,0.592 0 0 0 -0.153,0.072 C 3.152,3.401 3.131,3.411 3.117,3.396 A 0.067,0.067 0 0 1 3.104,3.372 C 3.102,3.364 3.097,3.36 3.091,3.359 c -0.02,0 -0.052,0.034 -0.09,0.098 A 0.793,0.793 0 0 1 2.779,3.679 0.331,0.331 0 0 0 2.686,3.751 C 2.673,3.77 2.678,3.784 2.698,3.796 2.718,3.808 2.717,3.826 2.693,3.852 A 0.785,0.785 0 0 1 2.548,3.958 0.765,0.765 0 0 0 2.412,4.057 c -0.019,0.02 -0.013,0.03 0.016,0.032 0.017,0 0.028,0.002 0.033,0.008 0.005,0.005 0.004,0.014 -0.003,0.026 A 0.825,0.825 0 0 1 2.326,4.253 0.846,0.846 0 0 0 2.171,4.42 C 2.165,4.431 2.163,4.44 2.166,4.443 2.18,4.457 2.146,4.535 2.092,4.617 A 0.579,0.579 0 0 0 1.991,4.865 0.426,0.426 0 0 1 1.933,5.056 V 5.057 A 0.908,0.908 0 0 0 1.845,5.253 C 1.831,5.303 1.824,5.329 1.829,5.332 1.834,5.335 1.852,5.314 1.885,5.274 L 1.89,5.269 C 1.917,5.236 1.935,5.215 1.941,5.219 L 1.942,5.22 C 1.948,5.227 1.945,5.256 1.937,5.315 A 0.936,0.936 0 0 1 1.907,5.439 L 1.905,5.445 C 1.895,5.479 1.881,5.512 1.868,5.546 L 1.862,5.563 1.847,5.605 A 0.648,0.648 0 0 0 1.796,5.737 c 0,0.012 0.018,0 0.052,-0.028 a 0.33,0.33 0 0 1 0.04,-0.03 C 1.914,5.663 1.912,5.685 1.894,5.759 1.879,5.819 1.854,5.904 1.839,5.946 1.828,5.977 1.824,5.994 1.829,5.997 1.833,6.001 1.845,5.992 1.868,5.971 L 1.877,5.964 C 1.906,5.939 1.941,5.918 1.957,5.918 2.005,5.918 1.999,6.117 1.95,6.147 1.924,6.163 1.926,6.2 1.956,6.247 1.962,6.257 1.964,6.265 1.968,6.273 L 1.976,6.289 V 6.29 C 1.987,6.329 1.975,6.364 1.935,6.421 A 0.375,0.375 0 0 0 1.866,6.562 C 1.867,6.573 1.872,6.578 1.879,6.574 A 0.091,0.091 0 0 0 1.908,6.543 C 1.924,6.518 1.934,6.508 1.94,6.512 1.946,6.517 1.948,6.537 1.948,6.574 L 1.949,6.577 V 6.59 C 1.951,6.589 1.95,6.588 1.951,6.586 c 0.004,0.045 0.024,0.077 0.05,0.071 0.033,-0.006 0.057,0.05 0.065,0.15 0.013,0.152 0.017,0.156 0.09,0.09 0.09,-0.082 0.162,-0.01 0.083,0.084 -0.04,0.047 -0.04,0.061 -10e-4,0.061 0.034,0 0.041,0.044 0.024,0.135 L 2.237,7.313 2.238,7.31 V 7.313 L 2.268,7.259 2.302,7.198 c 0.09,-0.159 0.11,-0.143 0.077,0.062 -0.002,0.015 0,0.013 -0.002,0.025 A 0.439,0.439 0 0 0 2.367,7.396 L 2.37,7.405 c 0.004,0.004 0.01,0.004 0.018,0 V 7.403 C 2.399,7.396 2.414,7.383 2.434,7.365 2.556,7.257 2.602,7.275 2.58,7.423 A 0.281,0.281 0 0 0 2.578,7.505 0.044,0.044 0 0 0 2.584,7.522 v 0.004 c 0.005,0.005 0.011,0.007 0.019,0.002 0.022,-0.014 0.065,0.025 0.095,0.087 0.044,0.092 0.059,0.1 0.072,0.04 0.024,-0.101 0.094,-0.09 0.094,0.015 0,0.125 0.12,0.371 0.251,0.517 0.082,0.09 0.12,0.188 0.14,0.353 0.016,0.126 0.04,0.299 0.053,0.384 C 3.324,9.026 3.32,9.071 3.27,9.131 V 9.132 A 0.79,0.79 0 0 1 3.203,9.2 L 3.073,9.321 H 3.075 3.074 l 0.21,-0.014 0.02,-0.002 c 0.192,-0.013 0.253,0 0.363,0.081 0.073,0.054 0.199,0.123 0.279,0.153 0.08,0.03 0.163,0.07 0.184,0.09 0.01,0.008 0.013,0.007 0.02,0.012 0.007,0.005 0.018,0.013 0.023,0.014 0.001,0 0,-0.003 0.002,-0.004 C 4.179,9.649 4.18,9.641 4.178,9.631 V 9.63 C 4.176,9.623 4.166,9.605 4.162,9.595 4.152,9.567 4.143,9.54 4.112,9.485 L 4.104,9.481 C 4.09,9.455 4.09,9.447 4.071,9.415 l -0.128,-0.218 0.2,0.115 c 0.109,0.062 0.273,0.128 0.365,0.146 0.091,0.017 0.208,0.045 0.26,0.061 0.043,0.013 0.07,0.017 0.083,0.013 H 4.852 C 4.892,9.517 4.802,9.426 4.61,9.297 A 2.358,2.358 0 0 0 4.333,9.145 2.822,2.822 0 0 0 4.024,9.017 2.53,2.53 0 0 1 3.784,8.924 C 3.721,8.896 3.68,8.871 3.677,8.858 A 2.573,2.573 0 0 1 3.64,8.618 V 8.623 L 3.638,8.613 C 3.616,8.433 3.625,8.405 3.735,8.307 a 0.773,0.773 0 0 0 0.172,-0.23 c 0.049,-0.12 0.224,-0.244 0.34,-0.244 0.032,0 0.14,0.053 0.243,0.118 0.17,0.107 0.195,0.146 0.286,0.437 l 0.1,0.32 -0.14,0.145 C 4.655,8.937 4.616,8.978 4.628,8.988 4.634,8.993 4.652,8.991 4.684,8.981 A 2.98,2.98 0 0 0 4.824,8.934 L 4.855,8.925 C 4.993,8.878 5.013,8.881 5.069,8.954 5.135,9.04 5.37,9.2 5.533,9.289 l 0.002,0.004 c 0.014,0.008 0.022,0.01 0.034,0.016 l 0.003,0.002 c 0.025,0.013 0.049,0.026 0.067,0.033 a 0.28,0.28 0 0 0 0.02,0.007 l 0.016,0.003 c 0.012,0.002 0.02,0 0.02,-0.007 A 0.576,0.576 0 0 0 5.61,9.207 L 5.604,9.203 5.591,9.183 C 5.427,8.967 5.454,8.893 5.641,9.041 a 0.388,0.388 0 0 0 0.19,0.083 c 0.046,0 0.165,0.04 0.264,0.09 C 6.146,9.24 6.195,9.259 6.233,9.27 6.271,9.28 6.297,9.283 6.306,9.275 6.337,9.245 6.274,9.169 6.158,9.078 A 2.294,2.294 0 0 0 5.948,8.935 3.196,3.196 0 0 0 5.687,8.791 L 5.304,8.604 5.166,8.238 5.131,8.136 5.12,8.102 C 5.074,7.965 5.042,7.848 5.052,7.832 5.09,7.77 5.176,7.785 5.29,7.875 5.398,7.96 5.638,7.994 5.591,7.917 5.554,7.857 5.657,7.869 5.779,7.937 5.836,7.971 5.929,7.997 5.986,7.995 6.088,7.993 6.088,7.992 5.966,7.935 5.848,7.88 5.855,7.879 6.091,7.904 6.228,7.918 6.351,7.947 6.365,7.967 6.379,7.988 6.449,7.956 6.521,7.895 6.604,7.825 6.643,7.809 6.627,7.851 6.589,7.949 6.7,7.933 6.876,7.814 6.967,7.752 7.027,7.732 7.028,7.762 7.028,7.79 7.066,7.766 7.11,7.709 7.155,7.652 7.192,7.622 7.193,7.643 c 0,0.06 0.208,-0.15 0.208,-0.212 0,-0.03 0.087,-0.095 0.192,-0.144 C 7.698,7.237 7.793,7.167 7.805,7.13 7.875,6.921 7.929,6.835 7.993,6.835 8.097,6.835 8.15,6.705 8.151,6.453 8.152,6.331 8.165,6.253 8.182,6.278 8.281,6.425 8.76,6.507 8.919,6.403 8.966,6.373 9.121,6.345 9.265,6.341 L 9.527,6.333 9.467,6.428 a 0.769,0.769 0 0 0 -0.05,0.1 C 9.411,6.54 9.409,6.551 9.404,6.563 L 9.403,6.568 C 9.395,6.588 9.385,6.61 9.381,6.627 9.377,6.641 9.377,6.649 9.38,6.652 9.386,6.659 9.417,6.615 9.461,6.533 L 9.465,6.527 c 0.131,-0.242 0.202,-0.25 0.17,-0.014 -0.002,0.02 0,0.017 -0.003,0.032 V 6.543 A 0.571,0.571 0 0 0 9.623,6.637 c 0,0.002 0.004,-0.007 0.005,-0.008 L 9.629,6.627 c 0.003,-0.002 0.006,0 0.014,-0.022 L 9.642,6.599 C 9.647,6.588 9.647,6.593 9.655,6.571 9.698,6.458 9.702,6.457 9.747,6.537 c 0.026,0.047 0.11,0.193 0.188,0.326 0.18,0.308 0.427,0.973 0.547,1.474 0.078,0.323 0.123,0.479 0.14,0.479 v 0.002 c 10e-4,0 0,0 0,0 h 10e-4 c 0.004,-0.002 0.005,-0.017 0.006,-0.035 0.002,-0.03 0,-0.077 -0.007,-0.158 C 10.62,8.603 10.613,8.569 10.61,8.545 10.567,8.175 10.42,7.509 10.228,6.827 10.138,6.51 10.065,6.242 10.065,6.231 c 0,-0.044 0.08,-0.015 0.233,0.085 L 10.459,6.42 10.339,6.309 H 10.338 V 6.308 L 10.278,6.253 C 10.176,6.16 10.104,6.075 10.116,6.063 c 0.012,-0.012 0.12,0.016 0.242,0.062 0.046,0.017 0.073,0.025 0.101,0.033 H 10.453 L 10.47,6.162 10.5,6.17 c 0.006,0 0.015,0.003 0.018,0.004 0.008,0 0.007,-0.003 0.008,-0.005 10e-4,-0.002 0.005,-10e-4 0.004,-0.003 H 10.529 A 0.584,0.584 0 0 0 10.383,6.073 h 0.002 L 10.335,6.047 H 10.334 L 10.169,5.964 10.356,5.963 c 0.104,-0.001 0.252,0.017 0.33,0.04 0.04,0.01 0.071,0.017 0.09,0.018 0.01,0 0.015,0 0.018,-0.003 0.003,-0.002 0.002,-0.005 -0.004,-0.01 A 0.302,0.302 0 0 0 10.71,5.961 1.166,1.166 0 0 0 10.313,5.878 0.406,0.406 0 0 1 10.215,5.868 C 10.205,5.867 10.196,5.865 10.189,5.861 10.185,5.859 10.18,5.857 10.177,5.854 A 0.075,0.075 0 0 1 10.157,5.831 L 10.152,5.821 A 0.29,0.29 0 0 1 10.136,5.763 C 10.123,5.7 10.127,5.644 10.144,5.638 10.154,5.634 10.16,5.605 10.164,5.566 V 5.564 A 1.646,1.646 0 0 0 10.158,5.317 V 5.315 c -0.002,-0.01 0,-0.018 -10e-4,-0.028 V 5.285 L 10.147,5.213 10.146,5.208 10.141,5.176 A 0.3,0.3 0 0 0 10.111,5.071 C 10.088,5.042 10.08,4.979 10.093,4.928 10.101,4.895 10.103,4.872 10.096,4.858 V 4.857 C 10.088,4.843 10.072,4.837 10.046,4.837 A 0.072,0.072 0 0 1 10.004,4.826 C 9.996,4.819 9.994,4.81 10,4.8 10.012,4.78 9.983,4.753 9.936,4.74 A 0.108,0.108 0 0 1 9.882,4.71 0.038,0.038 0 0 1 9.872,4.692 0.027,0.027 0 0 1 9.877,4.672 C 9.892,4.648 9.922,4.638 9.943,4.652 h 0.004 c 0.02,0.01 0.035,0.002 0.035,-0.02 0,-0.013 -0.01,-0.03 -0.025,-0.047 A 0.27,0.27 0 0 0 9.899,4.535 0.247,0.247 0 0 1 9.84,4.485 C 9.825,4.466 9.816,4.448 9.816,4.435 9.816,4.421 9.806,4.405 9.789,4.391 A 0.189,0.189 0 0 0 9.724,4.355 0.435,0.435 0 0 1 9.575,4.269 0.218,0.218 0 0 0 9.517,4.229 0.15,0.15 0 0 0 9.457,4.213 H 9.455 C 9.438,4.213 9.425,4.208 9.418,4.202 9.411,4.195 9.41,4.186 9.416,4.176 9.423,4.164 9.411,4.154 9.386,4.145 H 9.385 A 0.62,0.62 0 0 0 9.265,4.124 4.915,4.915 0 0 0 8.421,4.135 1.848,1.848 0 0 0 8.251,4.16 0.354,0.354 0 0 0 8.148,4.193 C 8.142,4.196 8.133,4.197 8.122,4.195 A 0.184,0.184 0 0 1 8.082,4.18 H 8.081 A 0.516,0.516 0 0 1 7.98,4.111 0.879,0.879 0 0 0 7.86,4.029 0.47,0.47 0 0 0 7.754,3.979 0.14,0.14 0 0 1 7.69,3.947 C 7.676,3.933 7.67,3.917 7.676,3.903 A 0.032,0.032 0 0 0 7.674,3.877 0.094,0.094 0 0 0 7.653,3.849 0.31,0.31 0 0 0 7.561,3.793 1.144,1.144 0 0 1 7.446,3.738 L 7.412,3.716 C 7.394,3.704 7.372,3.691 7.362,3.682 A 7.734,7.734 0 0 0 7.162,3.521 0.6,0.6 0 0 1 7.072,3.436 C 7.051,3.411 7.041,3.39 7.046,3.381 7.052,3.372 7.042,3.358 7.022,3.343 A 0.385,0.385 0 0 0 6.932,3.298 2.222,2.222 0 0 1 6.725,3.21 0.345,0.345 0 0 0 6.637,3.183 0.6,0.6 0 0 0 6.527,3.173 0.307,0.307 0 0 1 6.439,3.16 C 6.416,3.153 6.402,3.143 6.402,3.133 6.402,3.122 6.384,3.109 6.356,3.097 6.35,3.094 6.34,3.093 6.333,3.091 A 0.5,0.5 0 0 0 6.246,3.067 1.2,1.2 0 0 1 6.115,3.039 0.532,0.532 0 0 1 6.018,3.003 0.73,0.73 0 0 0 5.758,2.964 0.666,0.666 0 0 1 5.625,2.952 C 5.621,2.952 5.619,2.95 5.615,2.949 A 0.173,0.173 0 0 1 5.585,2.939 C 5.575,2.934 5.57,2.929 5.57,2.924 5.57,2.919 5.559,2.914 5.541,2.91 L 5.521,2.908 A 0.703,0.703 0 0 0 5.467,2.901 C 5.444,2.899 5.405,2.899 5.375,2.898 5.33,2.896 5.293,2.893 5.233,2.893 Z M 3.64,8.619 V 8.617 Z M 9.411,5.025 A 0.264,0.264 0 0 1 9.675,5.289 0.264,0.264 0 0 1 9.657,5.385 0.264,0.264 0 0 1 9.633,5.432 0.264,0.264 0 0 1 9.629,5.438 0.264,0.264 0 0 1 9.6,5.472 0.264,0.264 0 0 1 9.595,5.478 0.264,0.264 0 0 1 9.546,5.515 0.264,0.264 0 0 1 9.411,5.553 0.264,0.264 0 0 1 9.277,5.516 0.264,0.264 0 0 1 9.231,5.482 0.264,0.264 0 0 1 9.218,5.469 0.264,0.264 0 0 1 9.166,5.386 0.264,0.264 0 0 1 9.166,5.385 0.264,0.264 0 0 1 9.148,5.289 0.264,0.264 0 0 1 9.411,5.025 Z m 0,0.126 a 0.139,0.139 0 0 0 -0.134,0.103 0.139,0.139 0 0 0 0,0.003 0.139,0.139 0 0 0 -10e-4,0.003 0.139,0.139 0 0 0 -0.002,0.008 0.139,0.139 0 0 0 -10e-4,0.011 0.139,0.139 0 0 0 0,0.002 0.139,0.139 0 0 0 0,0.008 0.139,0.139 0 0 0 0.038,0.096 0.139,0.139 0 0 0 0.1,0.043 0.139,0.139 0 0 0 0.1,-0.043 A 0.139,0.139 0 0 0 9.545,5.326 0.139,0.139 0 0 0 9.55,5.289 0.139,0.139 0 0 0 9.546,5.254 0.264,0.264 0 0 0 9.545,5.254 0.139,0.139 0 0 0 9.411,5.151 Z"
     id="path2"
     inkscape:connector-curvature="0"
     style="fill:#bde6fb;fill-opacity:1" />
</svg>
