<?xml version="1.0" encoding="UTF-8" standalone="no"?>
<svg
   width="47.546455"
   height="47.546455"
   viewBox="0 0 12.58 12.58"
   version="1.1"
   id="svg8"
   sodipodi:docname="minetest.svg"
   inkscape:version="0.92.4 (5da689c313, 2019-01-14)"
   inkscape:export-filename="minetest.png"
   inkscape:export-xdpi="96"
   inkscape:export-ydpi="96"
   xmlns:inkscape="http://www.inkscape.org/namespaces/inkscape"
   xmlns:sodipodi="http://sodipodi.sourceforge.net/DTD/sodipodi-0.dtd"
   xmlns="http://www.w3.org/2000/svg"
   xmlns:svg="http://www.w3.org/2000/svg"
   xmlns:rdf="http://www.w3.org/1999/02/22-rdf-syntax-ns#"
   xmlns:cc="http://creativecommons.org/ns#"
   xmlns:dc="http://purl.org/dc/elements/1.1/">
  <metadata
     id="metadata14">
    <rdf:RDF>
      <cc:Work
         rdf:about="">
        <dc:format>image/svg+xml</dc:format>
        <dc:type
           rdf:resource="http://purl.org/dc/dcmitype/StillImage" />
        <dc:title />
      </cc:Work>
    </rdf:RDF>
  </metadata>
  <defs
     id="defs12" />
  <sodipodi:namedview
     pagecolor="#ffffff"
     bordercolor="#666666"
     borderopacity="1"
     objecttolerance="10"
     gridtolerance="10"
     guidetolerance="10"
     inkscape:pageopacity="0"
     inkscape:pageshadow="2"
     inkscape:window-width="1112"
     inkscape:window-height="480"
     id="namedview10"
     showgrid="false"
     inkscape:zoom="4.9166667"
     inkscape:cx="2.1355932"
     inkscape:cy="24"
     inkscape:window-x="0"
     inkscape:window-y="25"
     inkscape:window-maximized="0"
     inkscape:current-layer="svg8"
     inkscape:showpageshadow="0"
     inkscape:pagecheckerboard="0"
     inkscape:deskcolor="#d1d1d1" />
  <path
     d="m 6.29,0 a 6.29,6.29 0 0 0 0,12.58 A 6.29,6.29 0 0 0 6.29,0 Z M 6.27,0.93 a 5.417,5.417 0 0 1 5.41,5.41 5.4,5.4 0 0 1 -5.4,5.41 5.4,5.4 0 0 1 -5.41,-5.4 5.4,5.4 0 0 1 5.4,-5.42 z M 6.3,2.371 5.171,3.023 4.043,3.674 V 6.28 L 5.171,6.932 V 9.537 L 6.3,10.189 7.429,9.537 V 6.932 L 8.557,6.28 V 3.674 L 7.429,3.023 6.3,2.37 Z"
     id="path2"
     inkscape:connector-curvature="0"
     style="fill:#bde6fb;fill-opacity:1" />
  <path
     style="color:#000000;overflow:visible;opacity:0.4;marker:none"
     d="M 7.429,3.023 6.3,3.674 V 4.977 L 7.429,4.326 Z m 0,1.303 1.128,0.651 V 3.674 Z M 8.557,4.977 7.429,5.628 V 6.932 L 8.557,6.28 Z M 7.429,6.932 6.3,6.28 v 3.909 L 7.429,9.537 V 8.234 Z M 6.3,6.28 V 4.977 L 5.171,5.628 v 1.304 z"
     overflow="visible"
     id="path4"
     inkscape:connector-curvature="0" />
  <path
     style="color:#000000;overflow:visible;opacity:0.2;marker:none"
     d="M 5.171,3.023 V 4.326 L 6.3,4.977 V 3.674 Z M 6.3,4.977 V 6.28 L 7.429,6.932 V 5.628 Z M 5.171,4.326 4.043,3.674 V 4.977 Z M 4.043,4.977 V 6.28 L 5.171,6.932 V 5.628 Z"
     overflow="visible"
     id="path6"
     inkscape:connector-curvature="0" />
</svg>
