<?xml version="1.0" encoding="UTF-8" standalone="no"?>
<svg
   width="47.54644"
   height="47.546432"
   version="1.1"
   viewBox="0 0 12.579996 12.579994"
   id="svg4"
   sodipodi:docname="mintupload.svg"
   inkscape:version="0.92.4 (5da689c313, 2019-01-14)"
   xmlns:inkscape="http://www.inkscape.org/namespaces/inkscape"
   xmlns:sodipodi="http://sodipodi.sourceforge.net/DTD/sodipodi-0.dtd"
   xmlns="http://www.w3.org/2000/svg"
   xmlns:svg="http://www.w3.org/2000/svg"
   xmlns:rdf="http://www.w3.org/1999/02/22-rdf-syntax-ns#"
   xmlns:cc="http://creativecommons.org/ns#"
   xmlns:dc="http://purl.org/dc/elements/1.1/">
  <metadata
     id="metadata10">
    <rdf:RDF>
      <cc:Work
         rdf:about="">
        <dc:format>image/svg+xml</dc:format>
        <dc:type
           rdf:resource="http://purl.org/dc/dcmitype/StillImage" />
        <dc:title />
      </cc:Work>
    </rdf:RDF>
  </metadata>
  <defs
     id="defs8" />
  <sodipodi:namedview
     pagecolor="#ffffff"
     bordercolor="#666666"
     borderopacity="1"
     objecttolerance="10"
     gridtolerance="10"
     guidetolerance="10"
     inkscape:pageopacity="0"
     inkscape:pageshadow="2"
     inkscape:window-width="1136"
     inkscape:window-height="480"
     id="namedview6"
     showgrid="false"
     inkscape:zoom="4.9166667"
     inkscape:cx="2.1355932"
     inkscape:cy="24"
     inkscape:window-x="0"
     inkscape:window-y="25"
     inkscape:window-maximized="0"
     inkscape:current-layer="svg4"
     inkscape:showpageshadow="0"
     inkscape:pagecheckerboard="0"
     inkscape:deskcolor="#d1d1d1" />
  <path
     d="M 6.2898693,0 A 6.2898603,6.2898603 0 0 0 8.9036681e-6,6.3004435 6.2898603,6.2898603 0 0 0 6.2999233,12.579985 6.2898603,6.2898603 0 0 0 12.579995,6.2901249 6.2898603,6.2898603 0 0 0 6.2901339,2.6457731e-4 Z m -0.020154,0.93015745 0.00982,0.009818 A 5.3998132,5.3998132 0 0 1 11.679612,6.3400536 5.3998132,5.3998132 0 0 1 6.279534,11.749921 5.3998132,5.3998132 0 0 1 0.86966669,6.349843 5.3998132,5.3998132 0 0 1 6.2697445,0.93018629 Z M 4.179957,1.6701613 A 0.20999715,0.20999715 0 0 0 4.0197618,1.7502576 L 2.4095543,3.7904075 a 0.19999867,0.19999867 0 0 0 -0.049609,0.129705 v 5.7101656 c 0,0.1199976 0.099805,0.209804 0.209804,0.209804 h 7.4299354 c 0.1199983,0 0.2098043,-0.099805 0.2098043,-0.209804 V 3.9201125 a 0.19999867,0.19999867 0 0 0 -0.03979,-0.129705 L 8.5698102,1.7502576 A 0.20999715,0.20999715 0 0 0 8.3997963,1.6701613 H 4.1800099 Z M 4.27969,2.0804719 v 0.00982 h 1.7998588 v 1.63968 H 2.979465 L 4.2796375,2.0804743 Z m 2.2199854,0.00982 H 8.2995338 L 9.5997063,3.7402905 H 6.4996225 V 2.0902902 Z M 2.7899992,4.1604171 H 9.7899923 V 9.4303215 H 2.7899992 Z m 3.5099183,0.4997122 -1.9802226,2.39982 H 5.189925 V 8.960057 H 7.4197259 V 7.0599493 H 8.28014 Z"
     id="path2"
     inkscape:connector-curvature="0"
     style="fill:#bde6fb;fill-opacity:1;stroke-width:0.99998" />
</svg>
