<?xml version="1.0" encoding="UTF-8" standalone="no"?>
<svg
   width="48"
   height="48"
   viewBox="0 0 12.7 12.7"
   version="1.1"
   id="svg4"
   sodipodi:docname="mintsources-additional.svg"
   inkscape:version="0.92.5 (2060ec1f9f, 2020-04-08)"
   xmlns:inkscape="http://www.inkscape.org/namespaces/inkscape"
   xmlns:sodipodi="http://sodipodi.sourceforge.net/DTD/sodipodi-0.dtd"
   xmlns="http://www.w3.org/2000/svg"
   xmlns:svg="http://www.w3.org/2000/svg">
  <sodipodi:namedview
     id="namedview1"
     pagecolor="#505050"
     bordercolor="#eeeeee"
     borderopacity="1"
     inkscape:showpageshadow="0"
     inkscape:pageopacity="0"
     inkscape:pagecheckerboard="0"
     inkscape:deskcolor="#d1d1d1" />
  <defs
     id="defs8">
    <style
       id="current-color-scheme"
       type="text/css">&#10;      .ColorScheme-Highlight {&#10;        color:#1e3f5a;&#10;      }&#10;  </style>
  </defs>
  <path
     class="ColorScheme-Highlight"
     style="fill:#bde6fb;fill-opacity:1;stroke-width:0.264583"
     d="M 6.3499999,0 A 6.3499999,6.3499999 0 0 0 0,6.3499999 6.3499999,6.3499999 0 0 0 6.3499999,12.7 6.3499999,6.3499999 0 0 0 12.7,6.3499999 6.3499999,6.3499999 0 0 0 6.3499999,0 Z m 0,0.79374999 A 5.5562499,5.5562499 0 0 1 11.90625,6.3499999 5.5562499,5.5562499 0 0 1 6.3499999,11.90625 5.5562499,5.5562499 0 0 1 0.79374999,6.3499999 5.5562499,5.5562499 0 0 1 6.3499999,0.79374999 Z m 0,1.05833331 A 3.7041666,3.7041666 0 0 0 2.6458333,5.5562499 3.7041666,3.7041666 0 0 0 5.2916666,9.1028035 V 8.5452147 A 3.175,3.175 0 0 1 3.7759968,7.4083332 h 0.837675 A 4.7624999,4.7624999 0 0 0 5.2916666,8.5353963 V 7.5886841 A 4.2333333,4.2333333 0 0 1 5.196582,7.4083332 h 0.095085 0.79375 0.5291667 0.7937499 0.093017 a 4.2333333,4.2333333 0 0 1 -0.093017,0.168982 V 8.5410806 A 4.7624999,4.7624999 0 0 0 8.0837441,7.4083332 H 8.9255533 A 3.175,3.175 0 0 1 7.4083332,8.5457315 V 9.1043537 A 3.7041666,3.7041666 0 0 0 10.054167,5.5562499 3.7041666,3.7041666 0 0 0 6.3499999,1.8520833 Z M 6.0854166,2.490804 V 3.7041666 H 5.1986492 A 4.2333333,4.2333333 0 0 1 6.0854166,2.490804 Z M 6.6145833,2.501139 A 4.2333333,4.2333333 0 0 1 7.5034179,3.7041666 H 6.6145833 Z m 0.7828978,0.061495 a 3.175,3.175 0 0 1 1.526522,1.1415322 H 8.086328 A 4.7624999,4.7624999 0 0 0 7.3974811,2.562634 Z M 5.2963174,2.565224 A 4.7624999,4.7624999 0 0 0 4.6162557,3.7041666 H 3.7744466 A 3.175,3.175 0 0 1 5.2963174,2.5652181 Z M 3.4674886,4.2333333 H 4.4235025 A 4.7624999,4.7624999 0 0 0 4.2441854,5.2916666 H 3.1884358 A 3.175,3.175 0 0 1 3.4674886,4.2333333 Z m 1.5125692,0 H 6.0854166 V 5.2916666 H 4.7759357 A 4.2333333,4.2333333 0 0 1 4.9800578,4.2333333 Z m 1.6345255,0 h 1.1022583 a 4.2333333,4.2333333 0 0 1 0.2087727,1.0583333 h -1.311031 z m 1.6572631,0 h 0.9601481 a 3.175,3.175 0 0 1 0.280603,1.0583333 H 8.452714 A 4.7624999,4.7624999 0 0 0 8.2718464,4.2333333 Z m -5.0844441,1.5875 H 4.2472858 A 4.7624999,4.7624999 0 0 0 4.4281534,6.8791666 H 3.4680054 A 3.175,3.175 0 0 1 3.1874023,5.8208333 Z m 1.5869833,0 h 1.311031 V 6.8791666 H 4.9831582 A 4.2333333,4.2333333 0 0 1 4.7743856,5.8208333 Z m 1.8401977,0 H 7.9240641 A 4.2333333,4.2333333 0 0 1 7.719942,6.8791666 H 6.6145833 Z m 1.8412311,0 H 9.5115641 A 3.175,3.175 0 0 1 9.2325112,6.8791666 H 8.2764973 A 4.7624999,4.7624999 0 0 0 8.4558144,5.8208333 Z M 5.8208333,7.9374999 v 2.1166671 h -0.79375 l 1.3229166,1.322916 1.3229167,-1.322916 h -0.79375 V 7.9374999 Z"
     id="path817" />
</svg>
