<?xml version="1.0" encoding="UTF-8" standalone="no"?>
<svg
   width="47.546455"
   height="47.546455"
   viewBox="0 0 12.58 12.58"
   version="1.1"
   id="svg12"
   sodipodi:docname="minuet.svg"
   inkscape:version="0.92.4 (5da689c313, 2019-01-14)"
   xmlns:inkscape="http://www.inkscape.org/namespaces/inkscape"
   xmlns:sodipodi="http://sodipodi.sourceforge.net/DTD/sodipodi-0.dtd"
   xmlns="http://www.w3.org/2000/svg"
   xmlns:svg="http://www.w3.org/2000/svg"
   xmlns:rdf="http://www.w3.org/1999/02/22-rdf-syntax-ns#"
   xmlns:cc="http://creativecommons.org/ns#"
   xmlns:dc="http://purl.org/dc/elements/1.1/">
  <metadata
     id="metadata18">
    <rdf:RDF>
      <cc:Work
         rdf:about="">
        <dc:format>image/svg+xml</dc:format>
        <dc:type
           rdf:resource="http://purl.org/dc/dcmitype/StillImage" />
        <dc:title />
      </cc:Work>
    </rdf:RDF>
  </metadata>
  <defs
     id="defs16" />
  <sodipodi:namedview
     pagecolor="#ffffff"
     bordercolor="#666666"
     borderopacity="1"
     objecttolerance="10"
     gridtolerance="10"
     guidetolerance="10"
     inkscape:pageopacity="0"
     inkscape:pageshadow="2"
     inkscape:window-width="1112"
     inkscape:window-height="480"
     id="namedview14"
     showgrid="false"
     inkscape:zoom="4.9166667"
     inkscape:cx="2.1355932"
     inkscape:cy="24"
     inkscape:window-x="0"
     inkscape:window-y="25"
     inkscape:window-maximized="0"
     inkscape:current-layer="svg12"
     inkscape:showpageshadow="0"
     inkscape:pagecheckerboard="0"
     inkscape:deskcolor="#d1d1d1" />
  <path
     d="m 6.29,0 a 6.29,6.29 0 0 0 0,12.58 A 6.29,6.29 0 0 0 6.29,0 Z M 6.27,0.93 a 5.417,5.417 0 0 1 5.41,5.41 5.4,5.4 0 0 1 -5.4,5.41 5.4,5.4 0 0 1 -5.41,-5.4 5.4,5.4 0 0 1 5.4,-5.42 z"
     id="path2"
     inkscape:connector-curvature="0"
     style="fill:#bde6fb;fill-opacity:1" />
  <path
     d="m 3.964,3.188 v 0.54 H 3.97 V 5.84 c 0,0.205 0.125,0.373 0.305,0.435 V 9.424 H 3.97 A 0.932,0.932 0 0 1 3.033,8.489 V 4.123 A 0.932,0.932 0 0 1 3.964,3.188 Z"
     id="path4"
     inkscape:connector-curvature="0"
     style="opacity:0.75;fill:#00d400" />
  <path
     d="M 4.896,3.188 H 5.84 v 0.565 h 0.004 v 2.112 c 0,0.202 0.127,0.373 0.307,0.435 V 9.424 H 4.573 V 6.281 A 0.464,0.464 0 0 0 4.896,5.843 V 3.65 Z"
     id="path6"
     inkscape:connector-curvature="0"
     style="opacity:0.75;fill:#00ccff" />
  <path
     d="m 6.772,3.188 h 0.932 v 0.565 h 0.003 v 2.112 c 0,0.202 0.127,0.373 0.307,0.435 V 9.424 H 6.45 V 6.306 A 0.464,0.464 0 0 0 6.773,5.868 V 3.675 Z"
     id="path8"
     inkscape:connector-curvature="0"
     style="opacity:0.75;fill:#0055d4" />
  <path
     d="m 8.635,3.188 a 0.932,0.932 0 0 1 0.92,0.935 V 8.489 A 0.932,0.932 0 0 1 8.617,9.424 H 8.313 V 6.306 A 0.464,0.464 0 0 0 8.635,5.868 V 3.675 Z"
     id="path10"
     inkscape:connector-curvature="0"
     style="opacity:0.75;fill:#cc00ff" />
</svg>
