<?xml version="1.0" encoding="UTF-8" standalone="no"?>
<svg
   width="47.546455"
   height="47.546455"
   viewBox="0 0 12.58 12.58"
   version="1.1"
   id="svg4"
   sodipodi:docname="mixxx.svg"
   inkscape:version="0.92.4 (5da689c313, 2019-01-14)"
   xmlns:inkscape="http://www.inkscape.org/namespaces/inkscape"
   xmlns:sodipodi="http://sodipodi.sourceforge.net/DTD/sodipodi-0.dtd"
   xmlns="http://www.w3.org/2000/svg"
   xmlns:svg="http://www.w3.org/2000/svg"
   xmlns:rdf="http://www.w3.org/1999/02/22-rdf-syntax-ns#"
   xmlns:cc="http://creativecommons.org/ns#"
   xmlns:dc="http://purl.org/dc/elements/1.1/">
  <metadata
     id="metadata10">
    <rdf:RDF>
      <cc:Work
         rdf:about="">
        <dc:format>image/svg+xml</dc:format>
        <dc:type
           rdf:resource="http://purl.org/dc/dcmitype/StillImage" />
        <dc:title />
      </cc:Work>
    </rdf:RDF>
  </metadata>
  <defs
     id="defs8" />
  <sodipodi:namedview
     pagecolor="#ffffff"
     bordercolor="#666666"
     borderopacity="1"
     objecttolerance="10"
     gridtolerance="10"
     guidetolerance="10"
     inkscape:pageopacity="0"
     inkscape:pageshadow="2"
     inkscape:window-width="861"
     inkscape:window-height="480"
     id="namedview6"
     showgrid="false"
     inkscape:zoom="4.9166667"
     inkscape:cx="2.1355932"
     inkscape:cy="24"
     inkscape:window-x="0"
     inkscape:window-y="25"
     inkscape:window-maximized="0"
     inkscape:current-layer="svg4"
     inkscape:showpageshadow="0"
     inkscape:pagecheckerboard="0"
     inkscape:deskcolor="#d1d1d1" />
  <path
     d="M 6.29,9.9999768e-4 A 6.29,6.29 0 0 0 0,6.291 6.29,6.29 0 0 0 6.29,12.58 6.29,6.29 0 0 0 12.58,6.29 6.29,6.29 0 0 0 6.29,0 Z M 6.272,0.938 A 5.407,5.407 0 0 1 11.679,6.345 5.407,5.407 0 0 1 6.272,11.752 5.407,5.407 0 0 1 0.866,6.345 5.407,5.407 0 0 1 6.272,0.939 Z M 6.296,1.781 A 4.503,4.503 0 0 0 1.798,6.279 4.503,4.503 0 0 0 6.296,10.777 4.503,4.503 0 0 0 10.794,6.279 4.503,4.503 0 0 0 6.296,1.781 Z m 0,0.641 a 0.141,0.141 0 0 1 0,0.282 3.58,3.58 0 0 0 -3.575,3.575 0.141,0.141 0 0 1 -0.282,0 3.86,3.86 0 0 1 3.857,-3.857 z m 0,0.556 a 0.141,0.141 0 0 1 0,0.282 3.023,3.023 0 0 0 -3.02,3.019 0.14,0.14 0 0 1 -0.28,0 c 0,-1.82 1.48,-3.3 3.3,-3.3 z m 0,0.558 a 0.1405,0.1405 0 0 1 0,0.281 2.465,2.465 0 0 0 -2.462,2.462 0.1405,0.1405 0 0 1 -0.281,0 2.746,2.746 0 0 1 2.743,-2.743 z m 0,0.568 a 0.1405,0.1405 0 0 1 0,0.281 c -1.044,0 -1.894,0.85 -1.894,1.894 a 0.1405,0.1405 0 0 1 -0.281,0 c 0,-1.2 0.976,-2.175 2.175,-2.175 z m 0,0.775 c 0.772,0 1.4,0.628 1.4,1.4 0,0.772 -0.628,1.4 -1.4,1.4 -0.772,0 -1.4,-0.628 -1.4,-1.4 0,-0.772 0.628,-1.4 1.4,-1.4 z m 0,1.05 a 0.35,0.35 0 1 0 0,0.7 0.35,0.35 0 0 0 0,-0.7 z m 2.035,0.21 a 0.14,0.14 0 0 1 0.14,0.14 c 0,1.2 -0.976,2.175 -2.175,2.175 a 0.1405,0.1405 0 0 1 0,-0.281 c 1.044,0 1.894,-0.85 1.894,-1.894 a 0.14,0.14 0 0 1 0.14,-0.14 z m 0.567,0 a 0.14,0.14 0 0 1 0.141,0.14 2.746,2.746 0 0 1 -2.743,2.743 0.1405,0.1405 0 0 1 0,-0.281 2.465,2.465 0 0 0 2.462,-2.462 0.14,0.14 0 0 1 0.14,-0.14 z m 0.558,0 a 0.14,0.14 0 0 1 0.14,0.14 c 0,1.82 -1.48,3.3 -3.3,3.3 a 0.14,0.14 0 0 1 0,-0.28 3.023,3.023 0 0 0 3.02,-3.02 0.14,0.14 0 0 1 0.14,-0.14 z m 0.556,0 a 0.14,0.14 0 0 1 0.14,0.14 3.86,3.86 0 0 1 -3.856,3.857 0.141,0.141 0 0 1 0,-0.282 3.58,3.58 0 0 0 3.575,-3.575 0.14,0.14 0 0 1 0.141,-0.14 z"
     id="path2"
     inkscape:connector-curvature="0"
     style="fill:#bde6fb;fill-opacity:1" />
</svg>
