<?xml version="1.0" encoding="UTF-8" standalone="no"?>
<svg
   width="47.546455"
   height="47.542679"
   viewBox="0 0 12.58 12.579"
   version="1.1"
   id="svg4"
   sodipodi:docname="mkvtoolnix-gui.svg"
   inkscape:version="0.92.4 (5da689c313, 2019-01-14)"
   xmlns:inkscape="http://www.inkscape.org/namespaces/inkscape"
   xmlns:sodipodi="http://sodipodi.sourceforge.net/DTD/sodipodi-0.dtd"
   xmlns="http://www.w3.org/2000/svg"
   xmlns:svg="http://www.w3.org/2000/svg"
   xmlns:rdf="http://www.w3.org/1999/02/22-rdf-syntax-ns#"
   xmlns:cc="http://creativecommons.org/ns#"
   xmlns:dc="http://purl.org/dc/elements/1.1/">
  <metadata
     id="metadata10">
    <rdf:RDF>
      <cc:Work
         rdf:about="">
        <dc:format>image/svg+xml</dc:format>
        <dc:type
           rdf:resource="http://purl.org/dc/dcmitype/StillImage" />
        <dc:title />
      </cc:Work>
    </rdf:RDF>
  </metadata>
  <defs
     id="defs8" />
  <sodipodi:namedview
     pagecolor="#ffffff"
     bordercolor="#666666"
     borderopacity="1"
     objecttolerance="10"
     gridtolerance="10"
     guidetolerance="10"
     inkscape:pageopacity="0"
     inkscape:pageshadow="2"
     inkscape:window-width="1087"
     inkscape:window-height="480"
     id="namedview6"
     showgrid="false"
     inkscape:zoom="4.9166667"
     inkscape:cx="2.1355932"
     inkscape:cy="24"
     inkscape:window-x="0"
     inkscape:window-y="25"
     inkscape:window-maximized="0"
     inkscape:current-layer="svg4"
     inkscape:showpageshadow="0"
     inkscape:pagecheckerboard="0"
     inkscape:deskcolor="#d1d1d1" />
  <path
     d="M 6.29,9.9999565e-4 A 6.29,6.29 0 0 0 0,6.291 6.29,6.29 0 0 0 6.29,12.579 6.29,6.29 0 0 0 12.58,6.29 6.29,6.29 0 0 0 6.29,0 Z M 6.272,0.937 A 5.407,5.407 0 0 1 11.679,6.344 5.407,5.407 0 0 1 6.272,11.751 5.407,5.407 0 0 1 0.866,6.344 5.407,5.407 0 0 1 6.272,0.938 Z m -0.37,1.592 a 4.001,2.969 59 0 0 -1.74,5.278 4.001,2.969 59 0 0 0.15,0.225 C 3.832,8.139 3.391,8.204 3.026,8.213 2.549,8.225 1.886,8.123 1.696,7.685 1.528,7.296 2.152,6.509 2.162,6.497 2.151,6.507 1.297,7.327 1.364,7.842 1.458,8.557 2.356,8.672 3.065,8.662 3.418,8.659 3.96,8.567 4.592,8.409 a 4.001,2.969 59 0 0 5.2,-2.384 c 0.664,-0.552 1.099,-1.16 1.093,-1.8 C 10.88,3.543 9.806,3.405 9.538,3.413 c -0.038,0 -0.06,0.004 -0.06,0.01 0,0 1.04,0.261 1.017,0.763 -0.02,0.457 -0.345,0.927 -0.851,1.378 A 4.001,2.969 59 0 0 9.251,4.749 4.001,2.969 59 0 0 9.128,4.561 1.082,1.082 0 0 0 9.154,4.33 1.082,1.082 0 0 0 7.902,3.26 a 4.001,2.969 59 0 0 -2,-0.73 z m 0.055,0.264 a 3.719,2.76 59 0 1 1.67,0.55 1.082,1.082 0 0 0 -0.638,0.987 1.082,1.082 0 0 0 2.052,0.477 3.719,2.76 59 0 1 0.031,0.05 3.719,2.76 59 0 1 0.4,0.853 7.648,7.648 0 0 1 -0.8,0.57 A 2.17,2.17 0 0 0 8.428,5.628 1.347,1.347 0 0 1 6.746,4.556 2.164,2.164 0 0 0 4.764,7.924 L 4.53,7.98 A 3.719,2.76 59 0 1 4.343,7.7 3.719,2.76 59 0 1 5.956,2.792 Z M 6.168,5.69 c 0.711,0 1.31,0.502 1.448,1.17 -0.5,0.247 -1.029,0.466 -1.555,0.657 A 0.65,0.65 0 0 0 4.826,7.757 1.467,1.467 0 0 1 6.169,5.69 Z m 3.446,0.483 a 3.719,2.76 59 0 1 -4.8,2.178 C 4.894,8.329 4.971,8.311 5.054,8.288 A 0.65,0.65 0 0 0 5.151,8.357 2.162,2.162 0 0 0 8.718,6.771 C 9.041,6.581 9.343,6.381 9.614,6.173 Z M 2.166,6.492 2.162,6.496 Z M 7.635,7.337 A 1.483,1.483 0 0 1 6.168,8.638 C 5.902,8.638 5.654,8.566 5.438,8.442 A 0.65,0.65 0 0 0 6.102,7.953 17.312,17.312 0 0 0 7.636,7.338 Z"
     id="path2"
     inkscape:connector-curvature="0"
     style="fill:#bde6fb;fill-opacity:1" />
</svg>
