<?xml version="1.0" encoding="UTF-8" standalone="no"?>
<svg
   width="47.546455"
   height="47.546455"
   viewBox="0 0 12.58 12.58"
   version="1.1"
   id="svg4"
   sodipodi:docname="mono.svg"
   inkscape:version="0.92.4 (5da689c313, 2019-01-14)"
   xmlns:inkscape="http://www.inkscape.org/namespaces/inkscape"
   xmlns:sodipodi="http://sodipodi.sourceforge.net/DTD/sodipodi-0.dtd"
   xmlns="http://www.w3.org/2000/svg"
   xmlns:svg="http://www.w3.org/2000/svg"
   xmlns:rdf="http://www.w3.org/1999/02/22-rdf-syntax-ns#"
   xmlns:cc="http://creativecommons.org/ns#"
   xmlns:dc="http://purl.org/dc/elements/1.1/">
  <metadata
     id="metadata10">
    <rdf:RDF>
      <cc:Work
         rdf:about="">
        <dc:format>image/svg+xml</dc:format>
        <dc:type
           rdf:resource="http://purl.org/dc/dcmitype/StillImage" />
        <dc:title />
      </cc:Work>
    </rdf:RDF>
  </metadata>
  <defs
     id="defs8" />
  <sodipodi:namedview
     pagecolor="#ffffff"
     bordercolor="#666666"
     borderopacity="1"
     objecttolerance="10"
     gridtolerance="10"
     guidetolerance="10"
     inkscape:pageopacity="0"
     inkscape:pageshadow="2"
     inkscape:window-width="861"
     inkscape:window-height="480"
     id="namedview6"
     showgrid="false"
     inkscape:zoom="4.9166667"
     inkscape:cx="2.1355932"
     inkscape:cy="24"
     inkscape:window-x="0"
     inkscape:window-y="25"
     inkscape:window-maximized="0"
     inkscape:current-layer="svg4"
     inkscape:showpageshadow="0"
     inkscape:pagecheckerboard="0"
     inkscape:deskcolor="#d1d1d1" />
  <path
     d="M 6.29,9.9999768e-4 A 6.29,6.29 0 0 0 0,6.291 6.29,6.29 0 0 0 6.29,12.58 6.29,6.29 0 0 0 12.58,6.29 6.29,6.29 0 0 0 6.29,0 Z M 6.272,0.938 a 5.407,5.407 0 0 1 5.407,5.407 5.407,5.407 0 0 1 -5.407,5.407 5.407,5.407 0 0 1 -3.19,-1.05 l 2.3,-2.792 c 0.022,0.006 0.832,0.35 1.8,0.766 1.653,0.71 1.765,0.753 1.809,0.693 0.068,-0.091 0.3,-0.578 0.422,-0.887 L 9.519,8.219 9.343,8.124 C 9.093,7.988 8.728,7.684 8.499,7.422 8.289,7.182 7.911,6.607 7.911,6.527 7.911,6.5 8.031,6.62 8.179,6.796 8.59,7.286 9.538,8.057 9.598,7.948 9.668,7.818 9.716,7.436 9.712,6.991 9.709,6.449 9.638,6.026 9.452,5.444 L 9.346,5.119 8.833,4.958 C 8.549,4.868 8.264,4.779 8.201,4.758 7.977,4.688 8.118,4.691 8.443,4.765 8.833,4.853 9.229,4.925 9.473,4.955 9.692,4.982 9.739,4.94 9.762,4.701 9.792,4.394 9.594,3.545 9.393,3.125 9.313,2.956 9.277,2.919 9.117,2.847 8.719,2.661 7.686,2.487 6.896,2.444 A 6.655,6.655 0 0 0 6.525,2.432 C 6.411,2.432 6.307,2.436 6.219,2.446 5.913,2.476 5.601,2.551 5.502,2.614 5.475,2.635 5.672,2.682 6.009,2.744 6.313,2.801 6.534,2.851 6.501,2.86 6.464,2.865 5.991,2.813 5.439,2.743 4.472,2.618 4.435,2.615 4.365,2.677 A 1.723,1.723 0 0 0 3.979,3.339 c -0.04,0.18 -0.036,0.2 0.053,0.382 0.153,0.313 0.438,0.543 1.084,0.87 0.306,0.158 0.55,0.287 0.541,0.297 C 5.647,4.896 5.387,4.798 5.078,4.669 L 4.512,4.436 3.544,4.707 A 24,24 0 0 1 2.824,4.898 L 2.826,4.908 0.948,5.435 A 5.407,5.407 0 0 1 6.272,0.939 Z"
     id="path2"
     inkscape:connector-curvature="0"
     style="fill:#bde6fb;fill-opacity:1" />
</svg>
