<?xml version="1.0" encoding="UTF-8" standalone="no"?>
<svg
   width="47.546455"
   height="47.546455"
   viewBox="0 0 12.58 12.58"
   version="1.1"
   id="svg4"
   sodipodi:docname="mpd.svg"
   inkscape:version="0.92.4 (5da689c313, 2019-01-14)"
   xmlns:inkscape="http://www.inkscape.org/namespaces/inkscape"
   xmlns:sodipodi="http://sodipodi.sourceforge.net/DTD/sodipodi-0.dtd"
   xmlns="http://www.w3.org/2000/svg"
   xmlns:svg="http://www.w3.org/2000/svg"
   xmlns:rdf="http://www.w3.org/1999/02/22-rdf-syntax-ns#"
   xmlns:cc="http://creativecommons.org/ns#"
   xmlns:dc="http://purl.org/dc/elements/1.1/">
  <metadata
     id="metadata10">
    <rdf:RDF>
      <cc:Work
         rdf:about="">
        <dc:format>image/svg+xml</dc:format>
        <dc:type
           rdf:resource="http://purl.org/dc/dcmitype/StillImage" />
        <dc:title />
      </cc:Work>
    </rdf:RDF>
  </metadata>
  <defs
     id="defs8" />
  <sodipodi:namedview
     pagecolor="#ffffff"
     bordercolor="#666666"
     borderopacity="1"
     objecttolerance="10"
     gridtolerance="10"
     guidetolerance="10"
     inkscape:pageopacity="0"
     inkscape:pageshadow="2"
     inkscape:window-width="1138"
     inkscape:window-height="480"
     id="namedview6"
     showgrid="false"
     inkscape:zoom="4.9166667"
     inkscape:cx="2.1355932"
     inkscape:cy="24"
     inkscape:window-x="0"
     inkscape:window-y="25"
     inkscape:window-maximized="0"
     inkscape:current-layer="svg4"
     inkscape:showpageshadow="0"
     inkscape:pagecheckerboard="0"
     inkscape:deskcolor="#d1d1d1" />
  <path
     d="M 6.29,9.9999768e-4 A 6.29,6.29 0 0 0 0,6.291 6.29,6.29 0 0 0 6.29,12.58 6.29,6.29 0 0 0 12.58,6.29 6.29,6.29 0 0 0 6.29,0 Z M 6.272,0.938 A 5.407,5.407 0 0 1 11.679,6.345 5.407,5.407 0 0 1 6.272,11.752 5.407,5.407 0 0 1 0.866,6.345 5.407,5.407 0 0 1 6.272,0.939 Z M 5.37,2.604 A 2.39,3.695 25.18 0 0 2.305,4.933 2.39,3.695 25.18 0 0 2.73,9.393 2.39,3.695 25.18 0 0 5.046,9.017 1.635,2.124 19.07 0 0 5.151,9.075 1.635,2.124 19.07 0 0 6.111,9.126 v 0.397 c 0,0.06 0.048,0.107 0.106,0.107 h 0.172 v 0.294 c 0,0.018 0.015,0.032 0.034,0.032 H 9.546 A 0.033,0.033 0 0 0 9.58,9.924 V 9.631 9.63 H 9.762 A 0.106,0.106 0 0 0 9.868,9.523 V 8.249 h 0.398 A 0.033,0.033 0 0 0 10.3,8.217 V 7.826 h 0.269 A 0.106,0.106 0 0 0 10.674,7.719 V 3.854 A 0.106,0.106 0 0 0 10.569,3.748 H 6.849 A 2.39,3.695 25.18 0 0 6.062,2.801 2.39,3.695 25.18 0 0 5.37,2.604 Z M 4.824,3.028 a 1.886,3.138 22.303 0 1 0.14,0 1.886,3.138 22.303 0 1 0.54,0.169 A 1.886,3.138 22.303 0 1 5.768,7.012 1.886,3.138 22.303 0 1 2.792,8.836 1.886,3.138 22.303 0 1 2.527,5.021 1.886,3.138 22.303 0 1 4.824,3.028 Z m 2.122,1.007 h 3.38 c 0.025,0 0.046,0.02 0.046,0.046 v 3.275 c 0,0.026 -0.021,0.046 -0.046,0.046 H 9.867 V 6.594 A 0.106,0.106 0 0 0 9.762,6.487 H 7.639 A 1.635,2.124 19.07 0 0 7.049,5.327 2.39,3.695 25.18 0 0 6.946,4.035 Z M 5.016,4.588 A 0.8,1.61 22.203 0 0 3.959,5.451 0.8,1.61 22.203 0 0 3.596,7.103 0.81,1.63 22.203 0 0 3.77,7.545 0.81,1.63 22.203 0 0 5.126,6.819 0.81,1.63 22.203 0 0 5.329,4.766 0.81,1.63 22.203 0 0 5.305,4.743 0.8,1.61 22.203 0 0 5.299,4.735 0.8,1.61 22.203 0 0 5.016,4.588 Z m -0.125,0.2 A 0.689,1.379 22.509 0 1 4.943,4.789 0.689,1.379 22.509 0 1 5.187,4.915 0.689,1.379 22.509 0 1 5.013,6.649 0.689,1.379 22.509 0 1 3.857,7.262 0.689,1.379 22.509 0 1 4.03,5.528 0.689,1.379 22.509 0 1 4.891,4.788 Z m 1.492,1.96 h 3.183 c 0.025,0 0.045,0.02 0.045,0.045 v 2.469 c 0,0.025 -0.02,0.045 -0.045,0.045 H 6.384 A 0.045,0.045 0 0 1 6.339,9.262 V 6.793 c 0,-0.025 0.02,-0.045 0.045,-0.045 z"
     id="path2"
     inkscape:connector-curvature="0"
     style="fill:#bde6fb;fill-opacity:1" />
</svg>
