<?xml version="1.0" encoding="UTF-8" standalone="no"?>
<svg
   width="48"
   height="48"
   viewBox="0 0 12.7 12.7"
   version="1.1"
   id="svg4"
   sodipodi:docname="mps.svg"
   inkscape:version="0.92.5 (2060ec1f9f, 2020-04-08)"
   xmlns:inkscape="http://www.inkscape.org/namespaces/inkscape"
   xmlns:sodipodi="http://sodipodi.sourceforge.net/DTD/sodipodi-0.dtd"
   xmlns="http://www.w3.org/2000/svg"
   xmlns:svg="http://www.w3.org/2000/svg">
  <sodipodi:namedview
     id="namedview1"
     pagecolor="#505050"
     bordercolor="#eeeeee"
     borderopacity="1"
     inkscape:showpageshadow="0"
     inkscape:pageopacity="0"
     inkscape:pagecheckerboard="0"
     inkscape:deskcolor="#d1d1d1" />
  <defs
     id="defs8">
    <style
       id="current-color-scheme"
       type="text/css">&#10;      .ColorScheme-Highlight {&#10;        color:#1e3f5a;&#10;      }&#10;  </style>
  </defs>
  <path
     class="ColorScheme-Highlight"
     style="fill:#bde6fb;fill-opacity:1;stroke-width:0.264583"
     d="M 6.3499999,0 A 6.3499999,6.3499999 0 0 0 0,6.3499999 6.3499999,6.3499999 0 0 0 6.3499999,12.7 6.3499999,6.3499999 0 0 0 12.7,6.3499999 6.3499999,6.3499999 0 0 0 6.3499999,0 Z m 0,0.79374999 A 5.5562499,5.5562499 0 0 1 11.90625,6.3499999 5.5562499,5.5562499 0 0 1 6.3499999,11.90625 5.5562499,5.5562499 0 0 1 0.79374999,6.3499999 5.5562499,5.5562499 0 0 1 6.3499999,0.79374999 Z m 0,1.05833331 A 4.4979182,4.4979182 0 0 0 1.8520833,6.3499999 4.4979182,4.4979182 0 0 0 6.3499999,10.847917 4.4979182,4.4979182 0 0 0 10.847917,6.3499999 4.4979182,4.4979182 0 0 0 6.3499999,1.8520833 Z m 2.5858888,3.1083374 c 0.3611546,0 0.6341398,0.1014391 0.8185547,0.3043743 0.1423445,0.1566317 0.2139402,0.3392908 0.2139402,0.5472533 H 9.4376667 C 9.4252313,5.7072733 9.3943788,5.6265458 9.3451658,5.5707195 9.2567963,5.468326 9.1069831,5.4172402 8.895581,5.4172402 c -0.1254125,0 -0.2283148,0.022482 -0.3095418,0.066663 -0.1008063,0.056356 -0.1508954,0.1397828 -0.1508954,0.2501141 0,0.091017 0.031837,0.1593701 0.095602,0.2056722 0.037041,0.026988 0.098495,0.050701 0.1844847,0.07028 L 9.360152,6.1680989 c 0.2188104,0.053975 0.3797351,0.1238168 0.482658,0.2098064 0.139964,0.1153583 0.210323,0.2821987 0.210323,0.5007445 0,0.2674938 -0.088612,0.4748112 -0.2656167,0.6221842 -0.1939401,0.1619255 -0.4531,0.2428792 -0.7772135,0.2428792 -0.429948,0 -0.7399655,-0.1058912 -0.9291424,-0.3172933 C 7.9459581,7.2758725 7.8780721,7.0873606 7.8780721,6.858496 h 0.5312336 c 0,0.1082146 0.031572,0.1977962 0.095601,0.2692342 C 8.6006857,7.2332989 8.7556946,7.28586 8.9694779,7.28586 9.126905,7.28586 9.251769,7.2639 9.3451654,7.219714 9.4631699,7.1630936 9.522416,7.0712914 9.522416,6.9437622 9.522416,6.8482482 9.4782435,6.775669 9.3896076,6.7267211 9.3306057,6.6949713 9.2151024,6.6581903 9.0428587,6.6166502 L 8.7591552,6.5499876 C 8.4765802,6.4838423 8.283831,6.4152234 8.1803792,6.3443156 8.0060185,6.2241948 7.918896,6.0338932 7.9188965,5.7738078 c 0,-0.2037297 0.061453,-0.3755141 0.1844847,-0.5152141 0.1743604,-0.1987018 0.451507,-0.298173 0.8325075,-0.298173 z M 2.6458333,5.0301839 H 3.3202107 L 3.9305095,6.0590617 4.5444253,5.0301839 H 5.2115682 V 7.6729166 H 4.6953206 V 5.8616577 L 3.9294757,7.1437499 3.1693157,5.8580403 3.1620809,7.6729166 H 2.6458333 Z m 2.9104166,0 h 1.2087117 c 0.255852,0 0.457014,0.075013 0.603064,0.2258259 0.146314,0.1505479 0.219108,0.3573983 0.219108,0.6196004 0,0.1865313 -0.051325,0.3570801 -0.1545124,0.5115968 C 7.2849837,6.6078694 7.0552013,6.7184528 6.7432575,6.7184528 H 6.1091878 V 7.6729166 H 5.5562499 Z M 6.1091878,5.4870034 V 6.2611163 H 6.621818 c 0.1770063,0 0.2974541,-0.053547 0.3612182,-0.1612302 0.034397,-0.058737 0.051677,-0.1419119 0.051677,-0.2495973 0,-0.1296458 -0.038787,-0.2221799 -0.1147217,-0.2785359 -0.0762,-0.056357 -0.2003557,-0.08475 -0.3720703,-0.08475 z M 4.4979166,8.4666666 H 8.2020832 V 8.9958332 H 4.4979166 Z"
     id="path843" />
</svg>
