<?xml version="1.0" encoding="UTF-8" standalone="no"?>
<svg
   width="47.546455"
   height="47.546455"
   viewBox="0 0 12.58 12.58"
   version="1.1"
   id="svg17"
   sodipodi:docname="ms-access.svg"
   inkscape:version="0.92.4 (5da689c313, 2019-01-14)"
   xmlns:inkscape="http://www.inkscape.org/namespaces/inkscape"
   xmlns:sodipodi="http://sodipodi.sourceforge.net/DTD/sodipodi-0.dtd"
   xmlns="http://www.w3.org/2000/svg"
   xmlns:svg="http://www.w3.org/2000/svg"
   xmlns:rdf="http://www.w3.org/1999/02/22-rdf-syntax-ns#"
   xmlns:cc="http://creativecommons.org/ns#"
   xmlns:dc="http://purl.org/dc/elements/1.1/">
  <metadata
     id="metadata21">
    <rdf:RDF>
      <cc:Work
         rdf:about="">
        <dc:format>image/svg+xml</dc:format>
        <dc:type
           rdf:resource="http://purl.org/dc/dcmitype/StillImage" />
        <dc:title />
      </cc:Work>
    </rdf:RDF>
  </metadata>
  <sodipodi:namedview
     pagecolor="#ffffff"
     bordercolor="#666666"
     borderopacity="1"
     objecttolerance="10"
     gridtolerance="10"
     guidetolerance="10"
     inkscape:pageopacity="0"
     inkscape:pageshadow="2"
     inkscape:window-width="862"
     inkscape:window-height="480"
     id="namedview19"
     showgrid="false"
     inkscape:zoom="4.9166667"
     inkscape:cx="2.1355932"
     inkscape:cy="24"
     inkscape:window-x="0"
     inkscape:window-y="25"
     inkscape:window-maximized="0"
     inkscape:current-layer="svg17"
     inkscape:showpageshadow="0"
     inkscape:pagecheckerboard="0"
     inkscape:deskcolor="#d1d1d1" />
  <defs
     id="defs11" />
  <path
     d="m 6.29,0 a 6.29,6.29 0 1 0 0,12.58 A 6.29,6.29 0 0 0 6.29,0 Z M 6.27,0.93 a 5.417,5.417 0 0 1 5.41,5.41 5.4,5.4 0 0 1 -5.4,5.41 5.4,5.4 0 0 1 -5.41,-5.4 5.4,5.4 0 0 1 5.4,-5.42 z"
     id="path13"
     inkscape:connector-curvature="0"
     style="fill:#bde6fb;fill-opacity:1" />
  <path
     d="M 6.759,3.07 2.86,3.758 V 8.802 L 6.759,9.49 Z m 0.752,0.917 c -0.073,0 -0.148,0.004 -0.222,0.007 L 6.988,4.001 V 5.162 L 7.103,5.176 C 7.331,5.206 7.869,5.196 8.228,5.162 9.193,5.07 9.801,4.804 9.697,4.524 9.58,4.21 8.611,3.978 7.511,3.987 Z M 9.74,4.775 9.654,4.875 C 9.54,5.012 9.228,5.157 8.844,5.241 8.607,5.293 8.351,5.313 7.762,5.327 L 6.988,5.341 V 6.237 L 7.74,6.216 C 8.336,6.201 8.569,6.181 8.837,6.122 9.223,6.038 9.524,5.916 9.639,5.792 L 9.719,5.707 9.732,5.241 Z M 4.63,5.176 h 0.23 c 0.19,0 0.236,0.01 0.25,0.058 C 5.12,5.266 5.254,5.76 5.411,6.33 5.569,6.9 5.704,7.382 5.712,7.405 5.723,7.435 5.672,7.45 5.533,7.448 A 1.085,1.085 0 0 1 5.304,7.427 C 5.282,7.417 5.244,7.298 5.211,7.161 L 5.146,6.918 H 4.537 L 4.487,7.14 4.444,7.37 4.229,7.376 4.021,7.384 4.036,7.326 C 4.046,7.293 4.164,6.873 4.294,6.395 4.424,5.916 4.553,5.452 4.58,5.355 Z M 4.845,5.692 C 4.835,5.695 4.792,5.84 4.745,6.029 4.695,6.231 4.647,6.419 4.638,6.452 4.622,6.503 4.648,6.516 4.838,6.516 H 5.053 L 4.953,6.122 C 4.899,5.906 4.851,5.71 4.845,5.692 Z M 9.74,5.836 9.64,5.943 C 9.378,6.227 8.533,6.405 7.497,6.395 L 7.009,6.387 6.995,6.817 6.988,7.247 7.045,7.269 C 7.171,7.307 8.366,7.259 8.665,7.204 9.082,7.129 9.464,7 9.603,6.882 l 0.115,-0.1 0.014,-0.473 z m 0,1.032 -0.1,0.121 C 9.395,7.271 8.644,7.437 7.59,7.441 H 6.988 v 0.874 l 0.18,0.014 C 7.53,8.355 7.662,8.349 8.106,8.315 8.856,8.257 9.43,8.105 9.618,7.907 l 0.1,-0.108 0.014,-0.466 z"
     style="color:#000000;overflow:visible;opacity:0.75;isolation:auto;mix-blend-mode:normal;solid-color:#000000;solid-opacity:1;fill:#d40000;marker:none"
     overflow="visible"
     id="path15"
     inkscape:connector-curvature="0" />
</svg>
