<?xml version="1.0" encoding="UTF-8" standalone="no"?>
<svg
   width="47.546455"
   height="47.546455"
   viewBox="0 0 12.58 12.58"
   version="1.1"
   id="svg6"
   sodipodi:docname="ms-excel.svg"
   inkscape:version="0.92.4 (5da689c313, 2019-01-14)"
   xmlns:inkscape="http://www.inkscape.org/namespaces/inkscape"
   xmlns:sodipodi="http://sodipodi.sourceforge.net/DTD/sodipodi-0.dtd"
   xmlns="http://www.w3.org/2000/svg"
   xmlns:svg="http://www.w3.org/2000/svg"
   xmlns:rdf="http://www.w3.org/1999/02/22-rdf-syntax-ns#"
   xmlns:cc="http://creativecommons.org/ns#"
   xmlns:dc="http://purl.org/dc/elements/1.1/">
  <metadata
     id="metadata12">
    <rdf:RDF>
      <cc:Work
         rdf:about="">
        <dc:format>image/svg+xml</dc:format>
        <dc:type
           rdf:resource="http://purl.org/dc/dcmitype/StillImage" />
        <dc:title />
      </cc:Work>
    </rdf:RDF>
  </metadata>
  <defs
     id="defs10" />
  <sodipodi:namedview
     pagecolor="#ffffff"
     bordercolor="#666666"
     borderopacity="1"
     objecttolerance="10"
     gridtolerance="10"
     guidetolerance="10"
     inkscape:pageopacity="0"
     inkscape:pageshadow="2"
     inkscape:window-width="862"
     inkscape:window-height="480"
     id="namedview8"
     showgrid="false"
     inkscape:zoom="4.9166667"
     inkscape:cx="2.1355932"
     inkscape:cy="24"
     inkscape:window-x="0"
     inkscape:window-y="25"
     inkscape:window-maximized="0"
     inkscape:current-layer="svg6"
     inkscape:showpageshadow="0"
     inkscape:pagecheckerboard="0"
     inkscape:deskcolor="#d1d1d1" />
  <path
     d="m 6.29,0 a 6.29,6.29 0 1 0 0,12.58 A 6.29,6.29 0 0 0 6.29,0 Z M 6.27,0.93 a 5.417,5.417 0 0 1 5.41,5.41 5.4,5.4 0 0 1 -5.4,5.41 5.4,5.4 0 0 1 -5.41,-5.4 5.4,5.4 0 0 1 5.4,-5.42 z"
     id="path2"
     inkscape:connector-curvature="0"
     style="fill:#bde6fb;fill-opacity:1" />
  <path
     d="M 6.455,2.98 C 5.281,3.188 4.105,3.389 2.931,3.593 v 5.358 c 1.168,0.204 2.337,0.4 3.503,0.612 L 6.91,9.656 V 8.874 c 0.793,-0.001 1.587,0.003 2.38,0 C 9.418,8.869 9.61,8.865 9.64,8.706 9.687,8.486 9.662,8.259 9.666,8.036 9.666,6.708 9.664,5.38 9.668,4.051 9.662,3.921 9.671,3.777 9.593,3.664 9.48,3.586 9.338,3.596 9.208,3.59 8.442,3.594 7.676,3.593 6.91,3.593 V 2.904 Z M 6.91,3.822 H 9.436 V 8.645 H 6.91 V 8.185 H 7.522 V 7.65 H 6.91 V 7.343 H 7.522 V 6.808 H 6.91 V 6.5 H 7.522 V 5.964 H 6.91 V 5.66 H 7.522 V 5.125 H 6.91 V 4.818 H 7.522 V 4.283 H 6.91 Z m 0.918,0.46 V 4.817 H 8.9 V 4.282 Z M 5.718,4.968 C 5.514,5.386 5.309,5.805 5.101,6.222 5.311,6.651 5.527,7.076 5.738,7.505 A 44.63,44.63 0 0 1 5.185,7.47 C 5.055,7.15 4.897,6.842 4.803,6.508 4.699,6.818 4.55,7.112 4.431,7.417 4.263,7.415 4.096,7.407 3.928,7.401 4.125,7.016 4.315,6.628 4.518,6.245 4.346,5.851 4.156,5.464 3.978,5.072 L 4.484,5.043 C 4.598,5.343 4.723,5.638 4.817,5.945 4.918,5.62 5.069,5.313 5.198,4.999 5.371,4.987 5.545,4.976 5.718,4.968 Z m 2.11,0.156 V 5.659 H 8.9 V 5.124 Z m 0,0.841 V 6.501 H 8.9 V 5.965 Z m 0,0.843 V 7.343 H 8.9 V 6.808 Z m 0,0.842 V 8.185 H 8.9 V 7.65 Z"
     id="path4"
     inkscape:connector-curvature="0"
     style="opacity:0.75;fill:#217821" />
</svg>
