<?xml version="1.0" encoding="UTF-8" standalone="no"?>
<svg
   width="47.546455"
   height="47.546455"
   viewBox="0 0 12.58 12.58"
   version="1.1"
   id="svg6"
   sodipodi:docname="ms-outlook.svg"
   inkscape:version="0.92.4 (5da689c313, 2019-01-14)"
   xmlns:inkscape="http://www.inkscape.org/namespaces/inkscape"
   xmlns:sodipodi="http://sodipodi.sourceforge.net/DTD/sodipodi-0.dtd"
   xmlns="http://www.w3.org/2000/svg"
   xmlns:svg="http://www.w3.org/2000/svg"
   xmlns:rdf="http://www.w3.org/1999/02/22-rdf-syntax-ns#"
   xmlns:cc="http://creativecommons.org/ns#"
   xmlns:dc="http://purl.org/dc/elements/1.1/">
  <metadata
     id="metadata12">
    <rdf:RDF>
      <cc:Work
         rdf:about="">
        <dc:format>image/svg+xml</dc:format>
        <dc:type
           rdf:resource="http://purl.org/dc/dcmitype/StillImage" />
        <dc:title />
      </cc:Work>
    </rdf:RDF>
  </metadata>
  <defs
     id="defs10" />
  <sodipodi:namedview
     pagecolor="#ffffff"
     bordercolor="#666666"
     borderopacity="1"
     objecttolerance="10"
     gridtolerance="10"
     guidetolerance="10"
     inkscape:pageopacity="0"
     inkscape:pageshadow="2"
     inkscape:window-width="862"
     inkscape:window-height="480"
     id="namedview8"
     showgrid="false"
     inkscape:zoom="4.9166667"
     inkscape:cx="2.1355932"
     inkscape:cy="24"
     inkscape:window-x="0"
     inkscape:window-y="25"
     inkscape:window-maximized="0"
     inkscape:current-layer="svg6"
     inkscape:showpageshadow="0"
     inkscape:pagecheckerboard="0"
     inkscape:deskcolor="#d1d1d1" />
  <path
     d="m 6.29,0 a 6.29,6.29 0 1 0 0,12.58 A 6.29,6.29 0 0 0 6.29,0 Z M 6.27,0.93 a 5.417,5.417 0 0 1 5.41,5.41 5.4,5.4 0 0 1 -5.4,5.41 5.4,5.4 0 0 1 -5.41,-5.4 5.4,5.4 0 0 1 5.4,-5.42 z"
     id="path2"
     inkscape:connector-curvature="0"
     style="fill:#bde6fb;fill-opacity:1" />
  <path
     d="M 6.91,2.796 2.854,3.581 v 5.332 l 4.057,0.851 z m 0.257,1.477 v 1.363 l 0.476,0.3 c 0.013,0.004 0.04,0.004 0.053,0 l 2.05,-1.382 c 0,-0.163 -0.153,-0.28 -0.239,-0.28 z m -2.24,0.789 c 0.268,0 0.485,0.109 0.65,0.328 0.166,0.22 0.249,0.508 0.249,0.867 0,0.369 -0.086,0.667 -0.257,0.892 A 0.805,0.805 0 0 1 4.898,7.488 0.794,0.794 0 0 1 4.24,7.16 C 4.071,6.94 3.987,6.656 3.987,6.305 c 0,-0.371 0.086,-0.67 0.258,-0.9 A 0.813,0.813 0 0 1 4.928,5.062 Z m 4.82,0.043 c 0,0 -2.083,1.383 -2.01,1.338 0,0 -0.074,0.045 -0.135,0 L 7.167,6.145 v 1.853 h 2.208 c 0.196,0 0.371,-0.115 0.371,-0.388 z m -4.83,0.411 c -0.149,0 -0.267,0.07 -0.354,0.21 -0.087,0.138 -0.13,0.322 -0.13,0.551 0,0.233 0.043,0.416 0.13,0.551 0.087,0.136 0.201,0.203 0.343,0.203 A 0.395,0.395 0 0 0 5.253,6.834 C 5.338,6.702 5.381,6.52 5.381,6.287 5.381,6.044 5.34,5.854 5.257,5.719 5.174,5.584 5.06,5.516 4.917,5.516 Z"
     id="path4"
     inkscape:connector-curvature="0"
     style="opacity:0.75;fill:#37abc8" />
</svg>
