<?xml version="1.0" encoding="UTF-8" standalone="no"?>
<svg
   width="47.546455"
   height="47.546455"
   viewBox="0 0 12.58 12.58"
   version="1.1"
   id="svg6"
   sodipodi:docname="ms-onenote.svg"
   inkscape:version="0.92.4 (5da689c313, 2019-01-14)"
   xmlns:inkscape="http://www.inkscape.org/namespaces/inkscape"
   xmlns:sodipodi="http://sodipodi.sourceforge.net/DTD/sodipodi-0.dtd"
   xmlns="http://www.w3.org/2000/svg"
   xmlns:svg="http://www.w3.org/2000/svg"
   xmlns:rdf="http://www.w3.org/1999/02/22-rdf-syntax-ns#"
   xmlns:cc="http://creativecommons.org/ns#"
   xmlns:dc="http://purl.org/dc/elements/1.1/">
  <metadata
     id="metadata12">
    <rdf:RDF>
      <cc:Work
         rdf:about="">
        <dc:format>image/svg+xml</dc:format>
        <dc:type
           rdf:resource="http://purl.org/dc/dcmitype/StillImage" />
        <dc:title />
      </cc:Work>
    </rdf:RDF>
  </metadata>
  <defs
     id="defs10" />
  <sodipodi:namedview
     pagecolor="#ffffff"
     bordercolor="#666666"
     borderopacity="1"
     objecttolerance="10"
     gridtolerance="10"
     guidetolerance="10"
     inkscape:pageopacity="0"
     inkscape:pageshadow="2"
     inkscape:window-width="862"
     inkscape:window-height="480"
     id="namedview8"
     showgrid="false"
     inkscape:zoom="4.9166667"
     inkscape:cx="2.1355932"
     inkscape:cy="24"
     inkscape:window-x="0"
     inkscape:window-y="25"
     inkscape:window-maximized="0"
     inkscape:current-layer="svg6"
     inkscape:showpageshadow="0"
     inkscape:pagecheckerboard="0"
     inkscape:deskcolor="#d1d1d1" />
  <path
     d="m 6.29,0 a 6.29,6.29 0 1 0 0,12.58 A 6.29,6.29 0 0 0 6.29,0 Z M 6.27,0.93 a 5.417,5.417 0 0 1 5.41,5.41 5.4,5.4 0 0 1 -5.4,5.41 5.4,5.4 0 0 1 -5.41,-5.4 5.4,5.4 0 0 1 5.4,-5.42 z"
     id="path2"
     inkscape:connector-curvature="0"
     style="fill:#bde6fb;fill-opacity:1" />
  <path
     d="m 6.863,2.974 -3.907,0.66 v 5.292 l 3.907,0.66 z m 0.146,0.75 V 4.476 H 8.511 V 4.775 H 7.01 V 5.15 h 1.502 v 0.3 H 7.01 V 5.825 H 8.512 V 6.124 H 7.01 v 0.375 h 1.502 v 0.3 H 7.01 V 7.174 H 8.512 V 7.473 H 7.01 v 0.375 h 1.502 v 0.3 H 7.01 v 0.674 h 1.954 c 0.077,0 0.153,-0.07 0.153,-0.147 V 5.456 h 0.376 c 0.076,0 0.152,-0.07 0.152,-0.153 V 4.253 A 0.159,0.159 0 0 0 9.493,4.1 H 9.117 V 3.87 C 9.117,3.794 9.02,3.725 9.02,3.725 Z M 5.883,4.943 V 7.557 L 5.382,7.529 4.52,5.937 C 4.506,5.917 4.5,5.895 4.485,5.874 4.478,5.854 4.465,5.84 4.457,5.819 L 4.429,5.77 C 4.422,5.756 4.381,5.742 4.381,5.728 4.381,5.749 4.374,5.777 4.374,5.805 V 7.474 L 3.998,7.453 V 5.039 l 0.48,-0.02 0.835,1.508 0.02,0.042 c 0.008,0.014 0.014,0.034 0.028,0.048 0.007,0.021 0.021,0.035 0.028,0.056 0.007,0.02 0.02,0.062 0.035,0.062 h 0.007 c 0,0 -0.007,-0.034 -0.007,-0.055 0,-0.021 -0.007,-0.021 -0.007,-0.049 0,-0.028 0.007,-0.055 0.007,-0.09 0,-0.035 0.007,-0.146 0.007,-0.188 V 4.97 Z m 3.386,0.66 v 1.356 h 0.223 c 0.076,0 0.152,-0.07 0.152,-0.153 V 5.756 C 9.644,5.68 9.568,5.603 9.492,5.603 Z m 0,1.509 v 1.356 h 0.223 c 0.076,0 0.152,-0.07 0.152,-0.153 V 7.265 A 0.16,0.16 0 0 0 9.492,7.112 Z"
     id="path4"
     inkscape:connector-curvature="0"
     style="opacity:0.75;fill:#800080" />
</svg>
