<?xml version="1.0" encoding="UTF-8" standalone="no"?>
<svg
   width="47.546455"
   height="47.546455"
   viewBox="0 0 12.58 12.58"
   version="1.1"
   id="svg6"
   sodipodi:docname="ms-office.svg"
   inkscape:version="0.92.4 (5da689c313, 2019-01-14)"
   xmlns:inkscape="http://www.inkscape.org/namespaces/inkscape"
   xmlns:sodipodi="http://sodipodi.sourceforge.net/DTD/sodipodi-0.dtd"
   xmlns="http://www.w3.org/2000/svg"
   xmlns:svg="http://www.w3.org/2000/svg"
   xmlns:rdf="http://www.w3.org/1999/02/22-rdf-syntax-ns#"
   xmlns:cc="http://creativecommons.org/ns#"
   xmlns:dc="http://purl.org/dc/elements/1.1/">
  <metadata
     id="metadata12">
    <rdf:RDF>
      <cc:Work
         rdf:about="">
        <dc:format>image/svg+xml</dc:format>
        <dc:type
           rdf:resource="http://purl.org/dc/dcmitype/StillImage" />
        <dc:title />
      </cc:Work>
    </rdf:RDF>
  </metadata>
  <defs
     id="defs10" />
  <sodipodi:namedview
     pagecolor="#ffffff"
     bordercolor="#666666"
     borderopacity="1"
     objecttolerance="10"
     gridtolerance="10"
     guidetolerance="10"
     inkscape:pageopacity="0"
     inkscape:pageshadow="2"
     inkscape:window-width="862"
     inkscape:window-height="480"
     id="namedview8"
     showgrid="false"
     inkscape:zoom="4.9166667"
     inkscape:cx="2.1355932"
     inkscape:cy="24"
     inkscape:window-x="0"
     inkscape:window-y="25"
     inkscape:window-maximized="0"
     inkscape:current-layer="svg6"
     inkscape:showpageshadow="0"
     inkscape:pagecheckerboard="0"
     inkscape:deskcolor="#d1d1d1" />
  <path
     d="m 6.29,0 a 6.29,6.29 0 1 0 0,12.58 A 6.29,6.29 0 0 0 6.29,0 Z M 6.27,0.93 a 5.417,5.417 0 0 1 5.41,5.41 5.4,5.4 0 0 1 -5.4,5.41 5.4,5.4 0 0 1 -5.41,-5.4 5.4,5.4 0 0 1 5.4,-5.42 z"
     id="path2"
     inkscape:connector-curvature="0"
     style="fill:#bde6fb;fill-opacity:1" />
  <path
     d="M 5.298,9.075 A 228.99,228.99 0 0 1 3.443,8.423 C 3.439,8.419 3.438,8.413 3.441,8.411 3.444,8.408 4.281,8.503 5.301,8.622 6.708,8.786 7.031,8.836 7.037,8.826 7.049,8.808 7.048,4.002 7.037,3.984 7.025,3.965 4.615,4.517 4.594,4.544 4.584,4.558 4.58,4.904 4.58,6.194 4.58,7.487 4.577,7.829 4.566,7.837 4.545,7.853 3.38,8.384 3.364,8.383 3.353,8.383 3.35,7.963 3.353,6.295 L 3.355,4.207 4.808,3.687 6.716,3.003 7.172,2.84 8.196,3.158 c 0.563,0.175 1.03,0.322 1.038,0.327 0.011,0.007 0.014,0.582 0.014,2.817 0,2.664 0,2.81 -0.02,2.819 C 9.194,9.139 7.194,9.721 7.169,9.72 7.156,9.72 6.314,9.429 5.298,9.075 Z"
     id="path4"
     inkscape:connector-curvature="0"
     style="opacity:0.75;fill:#d45500" />
</svg>
