<?xml version="1.0" encoding="UTF-8" standalone="no"?>
<svg
   width="47.546455"
   height="47.546455"
   viewBox="0 0 12.58 12.58"
   version="1.1"
   id="svg6"
   sodipodi:docname="ms-powerpoint.svg"
   inkscape:version="0.92.4 (5da689c313, 2019-01-14)"
   xmlns:inkscape="http://www.inkscape.org/namespaces/inkscape"
   xmlns:sodipodi="http://sodipodi.sourceforge.net/DTD/sodipodi-0.dtd"
   xmlns="http://www.w3.org/2000/svg"
   xmlns:svg="http://www.w3.org/2000/svg"
   xmlns:rdf="http://www.w3.org/1999/02/22-rdf-syntax-ns#"
   xmlns:cc="http://creativecommons.org/ns#"
   xmlns:dc="http://purl.org/dc/elements/1.1/">
  <metadata
     id="metadata12">
    <rdf:RDF>
      <cc:Work
         rdf:about="">
        <dc:format>image/svg+xml</dc:format>
        <dc:type
           rdf:resource="http://purl.org/dc/dcmitype/StillImage" />
        <dc:title />
      </cc:Work>
    </rdf:RDF>
  </metadata>
  <defs
     id="defs10" />
  <sodipodi:namedview
     pagecolor="#ffffff"
     bordercolor="#666666"
     borderopacity="1"
     objecttolerance="10"
     gridtolerance="10"
     guidetolerance="10"
     inkscape:pageopacity="0"
     inkscape:pageshadow="2"
     inkscape:window-width="862"
     inkscape:window-height="480"
     id="namedview8"
     showgrid="false"
     inkscape:zoom="4.9166667"
     inkscape:cx="2.1355932"
     inkscape:cy="24"
     inkscape:window-x="0"
     inkscape:window-y="25"
     inkscape:window-maximized="0"
     inkscape:current-layer="svg6"
     inkscape:showpageshadow="0"
     inkscape:pagecheckerboard="0"
     inkscape:deskcolor="#d1d1d1" />
  <path
     d="m 6.29,0 a 6.29,6.29 0 1 0 0,12.58 A 6.29,6.29 0 0 0 6.29,0 Z M 6.27,0.93 a 5.417,5.417 0 0 1 5.41,5.41 5.4,5.4 0 0 1 -5.4,5.41 5.4,5.4 0 0 1 -5.41,-5.4 5.4,5.4 0 0 1 5.4,-5.42 z"
     id="path2"
     inkscape:connector-curvature="0"
     style="fill:#bde6fb;fill-opacity:1" />
  <path
     d="M 6.477,2.977 C 5.291,3.179 4.107,3.388 2.922,3.593 v 5.37 C 4.092,9.17 5.265,9.364 6.434,9.578 L 6.912,9.663 V 8.81 C 7.68,8.81 8.448,8.809 9.215,8.813 9.346,8.806 9.492,8.817 9.605,8.736 9.693,8.599 9.67,8.426 9.678,8.272 9.668,6.837 9.683,5.402 9.67,3.969 A 0.266,0.266 0 0 0 9.373,3.672 C 8.553,3.66 7.733,3.672 6.912,3.668 V 2.897 Z M 6.912,3.898 H 9.445 V 8.58 H 6.912 V 7.966 H 8.754 V 7.66 H 6.912 V 7.276 H 8.754 V 6.969 H 6.913 L 6.911,6.519 C 7.215,6.612 7.561,6.61 7.833,6.427 8.127,6.253 8.28,5.921 8.306,5.589 7.969,5.587 7.632,5.588 7.296,5.588 7.295,5.254 7.299,4.92 7.289,4.588 7.163,4.612 7.037,4.638 6.912,4.665 Z M 7.45,4.426 C 7.448,4.761 7.449,5.097 7.449,5.433 c 0.337,0 0.674,0.002 1.01,-0.002 A 1.08,1.08 0 0 0 7.45,4.426 Z M 4.855,4.969 c 0.207,0 0.404,0.037 0.566,0.184 0.33,0.4 0.243,1.14 -0.248,1.38 C 4.999,6.621 4.8,6.609 4.61,6.603 v 0.9 A 81.303,81.303 0 0 0 4.153,7.465 c -0.007,-0.82 -0.009,-1.64 0,-2.46 0.222,0.01 0.468,-0.036 0.702,-0.036 z M 4.758,5.414 C 4.708,5.414 4.657,5.418 4.609,5.42 4.607,5.678 4.605,5.935 4.622,6.192 4.774,6.174 4.972,6.189 5.06,6.032 A 0.557,0.557 0 0 0 5.05,5.528 C 4.98,5.43 4.87,5.413 4.758,5.414 Z"
     id="path4"
     inkscape:connector-curvature="0"
     style="opacity:0.75;fill:#d45500" />
</svg>
