<?xml version="1.0" encoding="UTF-8" standalone="no"?>
<svg
   width="47.546455"
   height="47.546455"
   viewBox="0 0 12.58 12.58"
   version="1.1"
   id="svg6"
   sodipodi:docname="ms-word.svg"
   inkscape:version="0.92.4 (5da689c313, 2019-01-14)"
   xmlns:inkscape="http://www.inkscape.org/namespaces/inkscape"
   xmlns:sodipodi="http://sodipodi.sourceforge.net/DTD/sodipodi-0.dtd"
   xmlns="http://www.w3.org/2000/svg"
   xmlns:svg="http://www.w3.org/2000/svg"
   xmlns:rdf="http://www.w3.org/1999/02/22-rdf-syntax-ns#"
   xmlns:cc="http://creativecommons.org/ns#"
   xmlns:dc="http://purl.org/dc/elements/1.1/">
  <metadata
     id="metadata12">
    <rdf:RDF>
      <cc:Work
         rdf:about="">
        <dc:format>image/svg+xml</dc:format>
        <dc:type
           rdf:resource="http://purl.org/dc/dcmitype/StillImage" />
        <dc:title />
      </cc:Work>
    </rdf:RDF>
  </metadata>
  <defs
     id="defs10" />
  <sodipodi:namedview
     pagecolor="#ffffff"
     bordercolor="#666666"
     borderopacity="1"
     objecttolerance="10"
     gridtolerance="10"
     guidetolerance="10"
     inkscape:pageopacity="0"
     inkscape:pageshadow="2"
     inkscape:window-width="862"
     inkscape:window-height="480"
     id="namedview8"
     showgrid="false"
     inkscape:zoom="4.9166667"
     inkscape:cx="2.1355932"
     inkscape:cy="24"
     inkscape:window-x="0"
     inkscape:window-y="25"
     inkscape:window-maximized="0"
     inkscape:current-layer="svg6"
     inkscape:showpageshadow="0"
     inkscape:pagecheckerboard="0"
     inkscape:deskcolor="#d1d1d1" />
  <path
     d="m 6.29,0 a 6.29,6.29 0 1 0 0,12.58 A 6.29,6.29 0 0 0 6.29,0 Z M 6.27,0.93 a 5.417,5.417 0 0 1 5.41,5.41 5.4,5.4 0 0 1 -5.4,5.41 5.4,5.4 0 0 1 -5.41,-5.4 5.4,5.4 0 0 1 5.4,-5.42 z"
     id="path2"
     inkscape:connector-curvature="0"
     style="fill:#bde6fb;fill-opacity:1" />
  <path
     d="M 6.45,3.049 C 5.298,3.254 4.145,3.45 2.993,3.652 V 8.91 c 1.146,0.2 2.293,0.392 3.436,0.601 h 0.47 V 8.91 C 7.651,8.91 8.403,8.908 9.155,8.912 9.283,8.906 9.425,8.916 9.535,8.838 9.622,8.704 9.6,8.535 9.607,8.383 9.597,6.903 9.613,5.422 9.6,3.942 A 0.259,0.259 0 0 0 9.31,3.654 C 8.506,3.642 7.703,3.654 6.9,3.65 V 3.05 Z M 6.9,3.876 h 2.479 v 4.808 h -2.48 v -0.6 H 8.853 V 7.783 H 6.899 V 7.407 h 1.954 v -0.3 H 6.899 V 6.73 H 8.853 V 6.43 H 6.899 V 6.054 H 8.853 V 5.753 H 6.899 V 5.377 h 1.954 v -0.3 H 6.899 V 4.701 h 1.954 v -0.3 H 6.899 Z M 6.004,5.116 C 5.834,5.844 5.686,6.578 5.5,7.301 5.375,7.367 5.187,7.298 5.038,7.309 4.938,6.811 4.821,6.317 4.732,5.817 4.644,6.303 4.53,6.784 4.429,7.266 A 28.576,28.576 0 0 1 3.995,7.24 C 3.87,6.578 3.724,5.921 3.607,5.259 L 3.993,5.243 C 4.071,5.722 4.159,6.198 4.226,6.677 L 4.546,5.203 4.974,5.181 c 0.1,0.508 0.202,1.014 0.31,1.519 0.085,-0.522 0.18,-1.041 0.27,-1.562 0.15,-0.005 0.3,-0.014 0.45,-0.023 z"
     id="path4"
     inkscape:connector-curvature="0"
     style="opacity:0.75;fill:#285393" />
</svg>
