<?xml version="1.0" encoding="UTF-8" standalone="no"?>
<svg
   width="47.542679"
   height="47.546455"
   viewBox="0 0 12.579 12.58"
   version="1.1"
   id="svg4"
   sodipodi:docname="msfpc.svg"
   inkscape:version="0.92.5 (2060ec1f9f, 2020-04-08)"
   xmlns:inkscape="http://www.inkscape.org/namespaces/inkscape"
   xmlns:sodipodi="http://sodipodi.sourceforge.net/DTD/sodipodi-0.dtd"
   xmlns="http://www.w3.org/2000/svg"
   xmlns:svg="http://www.w3.org/2000/svg"
   xmlns:rdf="http://www.w3.org/1999/02/22-rdf-syntax-ns#"
   xmlns:cc="http://creativecommons.org/ns#"
   xmlns:dc="http://purl.org/dc/elements/1.1/">
  <metadata
     id="metadata10">
    <rdf:RDF>
      <cc:Work
         rdf:about="">
        <dc:format>image/svg+xml</dc:format>
        <dc:type
           rdf:resource="http://purl.org/dc/dcmitype/StillImage" />
        <dc:title />
      </cc:Work>
    </rdf:RDF>
  </metadata>
  <defs
     id="defs8" />
  <sodipodi:namedview
     pagecolor="#ffffff"
     bordercolor="#666666"
     borderopacity="1"
     objecttolerance="10"
     gridtolerance="10"
     guidetolerance="10"
     inkscape:pageopacity="0"
     inkscape:pageshadow="2"
     inkscape:window-width="1085"
     inkscape:window-height="480"
     id="namedview6"
     showgrid="false"
     inkscape:zoom="4.9166667"
     inkscape:cx="2.1355932"
     inkscape:cy="24"
     inkscape:window-x="0"
     inkscape:window-y="25"
     inkscape:window-maximized="0"
     inkscape:current-layer="svg4"
     inkscape:showpageshadow="0"
     inkscape:pagecheckerboard="0"
     inkscape:deskcolor="#d1d1d1" />
  <path
     d="M 6.285,0 A 6.295,6.295 0 0 0 0,6.285 6.295,6.295 0 0 0 6.285,12.58 6.295,6.295 0 0 0 12.579,6.285 6.295,6.295 0 0 0 6.285,0 Z M 6.274,0.94 A 5.408,5.408 0 0 1 11.671,6.327 5.407,5.407 0 0 1 1.011,7.598 C 1.289,7.597 1.417,7.588 1.595,7.56 a 5.837,5.837 0 0 0 1.25,-0.34 c 0.353,-0.138 0.474,-0.096 0.56,0.193 0.027,0.09 0.03,0.182 0.032,0.762 0.001,0.362 0.008,0.807 0.016,0.988 0.01,0.232 0.007,0.426 -0.01,0.66 a 6.562,6.562 0 0 0 -0.02,0.397 0.474,0.474 0 0 1 -0.012,0.127 c -0.045,0.163 0.147,0.302 0.446,0.323 0.107,0.008 0.143,0.003 0.21,-0.026 0.066,-0.03 0.08,-0.043 0.08,-0.081 0,-0.05 -0.081,-0.17 -0.178,-0.264 C 3.848,10.183 3.801,9.956 3.839,9.677 3.869,9.444 3.953,9.142 4.163,8.5 l 0.014,-0.043 0.02,0.051 c 0.01,0.029 0.06,0.128 0.107,0.222 0.153,0.299 0.154,0.305 0.168,0.798 0.014,0.458 0.026,0.53 0.107,0.665 a 0.432,0.432 0 0 0 0.45,0.175 c 0.1,-0.022 0.197,-0.089 0.197,-0.135 A 0.563,0.563 0 0 0 5.148,10.09 1.414,1.414 0 0 1 4.94,9.623 C 4.884,9.415 4.87,9.027 4.901,8.493 4.914,8.276 4.924,8.003 4.925,7.888 c 0,-0.116 0.005,-0.21 0.01,-0.21 L 5.082,7.696 C 5.436,7.744 5.759,7.561 6.022,7.165 6.082,7.075 6.21,6.847 6.306,6.659 6.55,6.184 6.929,5.929 7.285,5.459 7.455,5.703 7.765,5.479 8.012,5.51 8.306,5.473 8.6,5.545 8.893,5.51 9.111,5.45 9.313,5.314 9.552,5.392 9.795,5.453 10.026,5.342 10.246,5.253 10.494,5.169 10.506,4.782 10.44,4.559 A 7.232,7.232 0 0 1 9.804,4.099 C 9.324,3.734 8.937,3.266 8.472,2.884 8.299,2.848 8.275,2.651 8.462,2.612 8.665,2.449 8.91,2.312 9.027,2.068 9.025,1.989 9.002,1.958 8.967,1.956 8.879,1.952 8.715,2.136 8.641,2.185 8.643,1.957 8.463,2.086 8.339,2.212 8.147,2.394 7.876,2.464 7.693,2.655 7.613,2.951 7.449,2.672 7.356,2.545 7.155,2.481 6.873,2.299 6.696,2.513 6.586,2.79 6.726,3.078 6.83,3.333 6.544,3.437 6.09,3.175 5.765,3.088 5.219,2.881 4.97,2.814 4.532,2.752 4.222,2.708 3.013,2.706 2.46,2.749 L 2.227,2.766 C 2.155,2.844 2.084,2.923 2.015,3.002 A 5.415,5.415 0 0 1 6.274,0.94 Z"
     id="path2"
     inkscape:connector-curvature="0"
     style="fill:#bde6fb;fill-opacity:1" />
</svg>
