<?xml version="1.0" encoding="UTF-8" standalone="no"?>
<svg
   width="47.546486"
   height="47.546486"
   viewBox="0 0 12.580008 12.580008"
   version="1.1"
   id="svg8"
   sodipodi:docname="musicbrainz.svg"
   inkscape:version="0.92.4 (5da689c313, 2019-01-14)"
   xmlns:inkscape="http://www.inkscape.org/namespaces/inkscape"
   xmlns:sodipodi="http://sodipodi.sourceforge.net/DTD/sodipodi-0.dtd"
   xmlns="http://www.w3.org/2000/svg"
   xmlns:svg="http://www.w3.org/2000/svg"
   xmlns:rdf="http://www.w3.org/1999/02/22-rdf-syntax-ns#"
   xmlns:cc="http://creativecommons.org/ns#"
   xmlns:dc="http://purl.org/dc/elements/1.1/">
  <metadata
     id="metadata14">
    <rdf:RDF>
      <cc:Work
         rdf:about="">
        <dc:format>image/svg+xml</dc:format>
        <dc:type
           rdf:resource="http://purl.org/dc/dcmitype/StillImage" />
        <dc:title />
      </cc:Work>
    </rdf:RDF>
  </metadata>
  <defs
     id="defs12" />
  <sodipodi:namedview
     pagecolor="#ffffff"
     bordercolor="#666666"
     borderopacity="1"
     objecttolerance="10"
     gridtolerance="10"
     guidetolerance="10"
     inkscape:pageopacity="0"
     inkscape:pageshadow="2"
     inkscape:window-width="861"
     inkscape:window-height="480"
     id="namedview10"
     showgrid="false"
     inkscape:zoom="4.9166667"
     inkscape:cx="2.1355932"
     inkscape:cy="24"
     inkscape:window-x="0"
     inkscape:window-y="25"
     inkscape:window-maximized="0"
     inkscape:current-layer="svg8"
     inkscape:showpageshadow="0"
     inkscape:pagecheckerboard="0"
     inkscape:deskcolor="#d1d1d1" />
  <path
     d="M 6.2900079,0 A 6.29,6.29 0 0 0 7.9490244e-6,6.3 6.29,6.29 0 0 0 6.3000079,12.58 6.29,6.29 0 0 0 12.580008,6.29 6.29,6.29 0 0 0 6.2900079,0 Z m -0.02,0.93 0.01,0.01 A 5.4,5.4 0 0 1 11.680008,6.34 5.4,5.4 0 0 1 6.2800079,11.75 5.4,5.4 0 0 1 0.87000795,6.35 5.4,5.4 0 0 1 6.2700079,0.93 Z m -0.693,4.05 v 1.614 a 0.675,0.675 0 0 0 -0.226,-0.04 0.675,0.675 0 0 0 -0.674,0.675 0.675,0.675 0 0 0 0.674,0.674 0.675,0.675 0 0 0 0.675,-0.674 v -1.8 h 1.35 v 0.715 a 0.675,0.675 0 0 0 -0.225,-0.04 0.675,0.675 0 0 0 -0.675,0.675 0.675,0.675 0 0 0 0.675,0.675 0.675,0.675 0 0 0 0.674,-0.675 v -1.8 z"
     id="path2"
     inkscape:connector-curvature="0"
     style="fill:#bde6fb;fill-opacity:1" />
  <path
     d="m 6.2500079,1.831 a 4.498,4.498 0 0 0 -4.496,4.499 4.498,4.498 0 0 0 4.498,4.498 v -1.35 a 3.149,3.149 0 0 1 -0.314,-0.015 3.149,3.149 0 0 1 -0.311,-0.047 3.149,3.149 0 0 1 -0.305,-0.078 3.149,3.149 0 0 1 -0.296,-0.108 3.149,3.149 0 0 1 -0.284,-0.137 3.149,3.149 0 0 1 -0.268,-0.165 3.149,3.149 0 0 1 -0.25,-0.19 3.149,3.149 0 0 1 -0.23,-0.214 3.149,3.149 0 0 1 -0.209,-0.237 3.149,3.149 0 0 1 -0.183,-0.256 3.149,3.149 0 0 1 -0.156,-0.273 3.149,3.149 0 0 1 -0.129,-0.287 3.149,3.149 0 0 1 -0.099,-0.3 3.149,3.149 0 0 1 -0.069,-0.306 3.149,3.149 0 0 1 -0.037,-0.312 3.149,3.149 0 0 1 -0.009,-0.223 3.149,3.149 0 0 1 0.016,-0.315 3.149,3.149 0 0 1 0.047,-0.31 3.149,3.149 0 0 1 0.078,-0.305 3.149,3.149 0 0 1 0.108,-0.296 3.149,3.149 0 0 1 0.137,-0.284 3.149,3.149 0 0 1 0.165,-0.268 3.149,3.149 0 0 1 0.19,-0.25 3.149,3.149 0 0 1 0.214,-0.23 3.149,3.149 0 0 1 0.237,-0.208 3.149,3.149 0 0 1 0.255,-0.184 3.149,3.149 0 0 1 0.273,-0.157 3.149,3.149 0 0 1 0.287,-0.129 3.149,3.149 0 0 1 0.3,-0.099 3.149,3.149 0 0 1 0.306,-0.07 3.149,3.149 0 0 1 0.312,-0.037 3.149,3.149 0 0 1 0.223,-0.008 z"
     id="path4"
     inkscape:connector-curvature="0"
     style="opacity:0.75;fill:#736dab" />
  <path
     d="m 6.2500079,1.831 v 1.35 a 3.149,3.149 0 0 1 0.316,0.015 3.149,3.149 0 0 1 0.31,0.047 3.149,3.149 0 0 1 0.305,0.078 3.149,3.149 0 0 1 0.296,0.108 3.149,3.149 0 0 1 0.284,0.137 3.149,3.149 0 0 1 0.268,0.164 3.149,3.149 0 0 1 0.25,0.191 3.149,3.149 0 0 1 0.23,0.214 3.149,3.149 0 0 1 0.208,0.237 3.149,3.149 0 0 1 0.183,0.256 3.149,3.149 0 0 1 0.157,0.273 3.149,3.149 0 0 1 0.129,0.287 3.149,3.149 0 0 1 0.099,0.299 3.149,3.149 0 0 1 0.07,0.307 3.149,3.149 0 0 1 0.037,0.312 3.149,3.149 0 0 1 0.008,0.223 3.149,3.149 0 0 1 -0.016,0.314 3.149,3.149 0 0 1 -0.047,0.311 3.149,3.149 0 0 1 -0.078,0.305 3.149,3.149 0 0 1 -0.108,0.296 3.149,3.149 0 0 1 -0.137,0.284 3.149,3.149 0 0 1 -0.164,0.268 3.149,3.149 0 0 1 -0.191,0.25 3.149,3.149 0 0 1 -0.214,0.23 3.149,3.149 0 0 1 -0.237,0.209 3.149,3.149 0 0 1 -0.256,0.183 3.149,3.149 0 0 1 -0.273,0.156 3.149,3.149 0 0 1 -0.287,0.129 3.149,3.149 0 0 1 -0.299,0.099 3.149,3.149 0 0 1 -0.307,0.069 3.149,3.149 0 0 1 -0.312,0.037 3.149,3.149 0 0 1 -0.223,0.009 v 1.349 c 0.306,0 0.604,-0.032 0.893,-0.09 a 4.498,4.498 0 0 0 0.002,0 4.498,4.498 0 0 0 0.043,-0.011 c 0.273,-0.058 0.538,-0.14 0.791,-0.246 a 4.498,4.498 0 0 0 0.04,-0.016 c 0.252,-0.108 0.492,-0.24 0.719,-0.39 a 4.498,4.498 0 0 0 0.036,-0.023 c 0.221,-0.15 0.426,-0.322 0.617,-0.509 a 4.498,4.498 0 0 0 0.055,-0.05 c 0.181,-0.184 0.344,-0.385 0.492,-0.598 a 4.498,4.498 0 0 0 0.059,-0.082 C 10.138008,8.602 10.257008,8.378 10.360008,8.145 a 4.498,4.498 0 0 0 0.05,-0.11 c 0.096,-0.234 0.17,-0.479 0.226,-0.73 a 4.498,4.498 0 0 0 0.026,-0.118 c 0.054,-0.278 0.087,-0.564 0.087,-0.858 0,-0.308 -0.032,-0.608 -0.09,-0.899 a 4.498,4.498 0 0 0 -0.009,-0.03 4.462,4.462 0 0 0 -0.248,-0.8 4.498,4.498 0 0 0 -0.016,-0.04 4.486,4.486 0 0 0 -0.3870001,-0.713 4.498,4.498 0 0 0 -0.027,-0.044 4.517,4.517 0 0 0 -0.507,-0.615 4.498,4.498 0 0 0 -0.051,-0.055 4.52,4.52 0 0 0 -0.596,-0.49 4.498,4.498 0 0 0 -0.086,-0.062 4.49,4.49 0 0 0 -0.665,-0.36 4.498,4.498 0 0 0 -0.11,-0.05 4.466,4.466 0 0 0 -0.731,-0.227 4.498,4.498 0 0 0 -0.117,-0.026 4.506,4.506 0 0 0 -0.858,-0.087 z"
     id="path6"
     inkscape:connector-curvature="0"
     style="opacity:0.75;fill:#ffba58" />
</svg>
