<?xml version="1.0" encoding="UTF-8" standalone="no"?>
<svg
   width="48"
   height="48"
   viewBox="0 0 12.7 12.7"
   version="1.1"
   id="svg4"
   sodipodi:docname="mx-codecs.svg"
   inkscape:version="0.92.5 (2060ec1f9f, 2020-04-08)"
   xmlns:inkscape="http://www.inkscape.org/namespaces/inkscape"
   xmlns:sodipodi="http://sodipodi.sourceforge.net/DTD/sodipodi-0.dtd"
   xmlns="http://www.w3.org/2000/svg"
   xmlns:svg="http://www.w3.org/2000/svg">
  <sodipodi:namedview
     id="namedview1"
     pagecolor="#505050"
     bordercolor="#eeeeee"
     borderopacity="1"
     inkscape:showpageshadow="0"
     inkscape:pageopacity="0"
     inkscape:pagecheckerboard="0"
     inkscape:deskcolor="#d1d1d1" />
  <defs
     id="defs8">
    <style
       id="current-color-scheme"
       type="text/css">&#10;      .ColorScheme-Highlight {&#10;        color:#1e3f5a;&#10;      }&#10;  </style>
  </defs>
  <path
     class="ColorScheme-Highlight"
     style="fill:#bde6fb;fill-opacity:1;stroke-width:0.264583"
     d="M 6.3499999,0 A 6.3499999,6.3499999 0 0 0 0,6.3499999 6.3499999,6.3499999 0 0 0 6.3499999,12.7 6.3499999,6.3499999 0 0 0 12.7,6.3499999 6.3499999,6.3499999 0 0 0 6.3499999,0 Z m 0,0.79374999 A 5.5562499,5.5562499 0 0 1 11.90625,6.3499999 5.5562499,5.5562499 0 0 1 6.3499999,11.90625 5.5562499,5.5562499 0 0 1 0.79374999,6.3499999 5.5562499,5.5562499 0 0 1 6.3499999,0.79374999 Z M 2.9104166,2.9104166 c -0.1465791,0 -0.2645833,0.1180042 -0.2645833,0.2645834 v 6.3499999 c 0,0.1465791 0.1180042,0.2645833 0.2645833,0.2645833 h 6.8791666 c 0.1465792,0 0.2645838,-0.1180042 0.2645838,-0.2645833 V 3.175 c 0,-0.1465792 -0.1180046,-0.2645834 -0.2645838,-0.2645834 z M 3.175,3.175 h 6.3499999 c 0.1465791,0 0.2645833,0.1180041 0.2645833,0.2645833 v 5.8208333 c 0,0.1465791 -0.1180042,0.2645833 -0.2645833,0.2645833 H 3.175 c -0.1465792,0 -0.2645834,-0.1180042 -0.2645834,-0.2645833 V 3.4395833 C 2.9104166,3.2930041 3.0284208,3.175 3.175,3.175 Z m 0.2645833,0.5291666 v 0.79375 h 1.0583333 v -0.79375 z m 1.5875,0 v 0.79375 h 1.0583333 v -0.79375 z m 1.5875,0 v 0.79375 h 1.0583333 v -0.79375 z m 1.5874999,0 v 0.79375 h 1.0583334 v -0.79375 z m -1.8520833,1.5875 A 1.0583332,1.0583332 0 0 0 5.2916666,6.3499999 1.0583332,1.0583332 0 0 0 6.3499999,7.4083332 1.0583332,1.0583332 0 0 0 7.4083332,6.3499999 1.0583332,1.0583332 0 0 0 6.3499999,5.2916666 Z m -0.2645833,0.5291667 0.79375,0.5291666 -0.79375,0.5291667 z M 3.4395833,8.2020832 v 0.79375 h 1.0583333 v -0.79375 z m 1.5875,0 v 0.79375 h 1.0583333 v -0.79375 z m 1.5875,0 v 0.79375 h 1.0583333 v -0.79375 z m 1.5874999,0 v 0.79375 h 1.0583334 v -0.79375 z"
     id="path844" />
</svg>
