<?xml version="1.0" encoding="UTF-8" standalone="no"?>
<svg
   width="48"
   height="48"
   viewBox="0 0 12.7 12.7"
   version="1.1"
   id="svg4"
   sodipodi:docname="mx-qsi.svg"
   inkscape:version="0.92.5 (2060ec1f9f, 2020-04-08)"
   xmlns:inkscape="http://www.inkscape.org/namespaces/inkscape"
   xmlns:sodipodi="http://sodipodi.sourceforge.net/DTD/sodipodi-0.dtd"
   xmlns="http://www.w3.org/2000/svg"
   xmlns:svg="http://www.w3.org/2000/svg">
  <sodipodi:namedview
     id="namedview1"
     pagecolor="#505050"
     bordercolor="#eeeeee"
     borderopacity="1"
     inkscape:showpageshadow="0"
     inkscape:pageopacity="0"
     inkscape:pagecheckerboard="0"
     inkscape:deskcolor="#d1d1d1" />
  <defs
     id="defs8">
    <style
       id="current-color-scheme"
       type="Highlight/css">&#10;      .ColorScheme-Highlight {&#10;        color:#1e3f5a;&#10;      }&#10;  </style>
  </defs>
  <path
     class="ColorScheme-Highlight"
     style="fill:#bde6fb;fill-opacity:1;stroke-width:0.264583"
     d="M 6.3499999,0 A 6.3499999,6.3499999 0 0 0 0,6.3499999 6.3499999,6.3499999 0 0 0 6.3499999,12.7 6.3499999,6.3499999 0 0 0 12.7,6.3499999 6.3499999,6.3499999 0 0 0 6.3499999,0 Z m 0,0.79374999 A 5.5562499,5.5562499 0 0 1 11.90625,6.3499999 5.5562499,5.5562499 0 0 1 6.3499999,11.90625 5.5562499,5.5562499 0 0 1 0.79374999,6.3499999 5.5562499,5.5562499 0 0 1 6.3499999,0.79374999 Z M 3.175,2.9104166 c -0.2931584,0 -0.5291667,0.2360084 -0.5291667,0.5291667 v 4.7624999 c 0,0.2931584 0.2360083,0.5291667 0.5291667,0.5291667 h 1.8520833 v 1.0583333 h -1.5875 V 10.31875 H 9.2604166 V 9.7895832 h -1.5875 V 8.7312499 h 1.8520833 c 0.293158,0 0.5291671,-0.2360083 0.5291671,-0.5291667 V 3.4395833 c 0,-0.2931583 -0.2360091,-0.5291667 -0.5291671,-0.5291667 z m 0.2645833,0.5291667 h 5.8208333 c 0.1465789,0 0.2645833,0.1180042 0.2645833,0.2645833 v 4.2333333 c 0,0.1465792 -0.1180044,0.2645833 -0.2645833,0.2645833 H 3.4395833 C 3.2930044,8.2020832 3.175,8.0840791 3.175,7.9374999 V 3.7041666 c 0,-0.1465791 0.1180044,-0.2645833 0.2645833,-0.2645833 z M 6.3499999,3.96875 A 1.8520833,1.8520833 0 0 0 6.2187417,3.9734 1.8520833,1.8520833 0 0 0 6.0352905,3.99562 1.8520833,1.8520833 0 0 0 5.8544229,4.036444 1.8520833,1.8520833 0 0 0 5.6787232,4.094838 1.8520833,1.8520833 0 0 0 5.5097412,4.170286 1.8520833,1.8520833 0 0 0 5.3495442,4.26227 1.8520833,1.8520833 0 0 0 5.1986492,4.3702737 1.8520833,1.8520833 0 0 0 5.0596395,4.4922302 1.8520833,1.8520833 0 0 0 4.9335488,4.6276222 1.8520833,1.8520833 0 0 0 4.821411,4.7749002 1.8520833,1.8520833 0 0 0 4.724776,4.93303 1.8520833,1.8520833 0 0 0 4.644161,5.0994283 1.8520833,1.8520833 0 0 0 4.580599,5.2735778 1.8520833,1.8520833 0 0 0 4.534607,5.4528949 1.8520833,1.8520833 0 0 0 4.507218,5.6358294 a 1.8520833,1.8520833 0 0 0 -0.0093,0.1850023 1.8520833,1.8520833 0 0 0 0.00465,0.1312582 1.8520833,1.8520833 0 0 0 0.02222,0.1834512 1.8520833,1.8520833 0 0 0 0.040824,0.1808676 1.8520833,1.8520833 0 0 0 0.058394,0.1756997 1.8520833,1.8520833 0 0 0 0.075448,0.168982 1.8520833,1.8520833 0 0 0 0.091984,0.160197 1.8520833,1.8520833 0 0 0 0.1080037,0.150895 1.8520833,1.8520833 0 0 0 0.1219565,0.1390097 1.8520833,1.8520833 0 0 0 0.1353921,0.1260907 1.8520833,1.8520833 0 0 0 0.1472779,0.1121378 1.8520833,1.8520833 0 0 0 0.1581298,0.096635 1.8520833,1.8520833 0 0 0 0.1663983,0.080615 1.8520833,1.8520833 0 0 0 0.1741496,0.063562 1.8520833,1.8520833 0 0 0 0.1793171,0.045992 1.8520833,1.8520833 0 0 0 0.1829345,0.027389 1.8520833,1.8520833 0 0 0 0.1850022,0.0093 1.8520833,1.8520833 0 0 0 0.1312582,-0.00465 1.8520833,1.8520833 0 0 0 0.1834513,-0.02222 A 1.8520833,1.8520833 0 0 0 6.8455769,7.6052211 1.8520833,1.8520833 0 0 0 7.0212767,7.5468267 1.8520833,1.8520833 0 0 0 7.1902586,7.4713789 1.8520833,1.8520833 0 0 0 7.3504556,7.379395 1.8520833,1.8520833 0 0 0 7.5013507,7.2713913 1.8520833,1.8520833 0 0 0 7.6403604,7.1494347 1.8520833,1.8520833 0 0 0 7.766451,7.0140427 1.8520833,1.8520833 0 0 0 7.8785888,6.8667648 1.8520833,1.8520833 0 0 0 7.9752237,6.708635 1.8520833,1.8520833 0 0 0 8.055839,6.5422366 1.8520833,1.8520833 0 0 0 8.1194009,6.3680871 1.8520833,1.8520833 0 0 0 8.1653929,6.18877 1.8520833,1.8520833 0 0 0 8.1927815,6.0058355 1.8520833,1.8520833 0 0 0 8.2020832,5.8208333 1.8520833,1.8520833 0 0 0 8.1974324,5.6895751 1.8520833,1.8520833 0 0 0 8.1752116,5.5061238 1.8520833,1.8520833 0 0 0 8.1343872,5.3252562 1.8520833,1.8520833 0 0 0 8.0759929,5.1495565 1.8520833,1.8520833 0 0 0 8.0005451,4.9805745 1.8520833,1.8520833 0 0 0 7.9085611,4.8203775 1.8520833,1.8520833 0 0 0 7.8005574,4.6694825 1.8520833,1.8520833 0 0 0 7.6786009,4.5304728 1.8520833,1.8520833 0 0 0 7.5432088,4.4043822 1.8520833,1.8520833 0 0 0 7.3959309,4.2922443 1.8520833,1.8520833 0 0 0 7.2378011,4.1956095 1.8520833,1.8520833 0 0 0 7.0714028,4.1149942 1.8520833,1.8520833 0 0 0 6.8972532,4.0514322 1.8520833,1.8520833 0 0 0 6.7179361,4.0054402 1.8520833,1.8520833 0 0 0 6.5350016,3.9780516 1.8520833,1.8520833 0 0 0 6.3499999,3.96875 Z m 0,0.2645833 a 1.5874999,1.5874999 0 0 1 1.5875,1.5875 1.5874999,1.5874999 0 0 1 -1.5875,1.5874999 1.5874999,1.5874999 0 0 1 -1.5875,-1.5874999 1.5874999,1.5874999 0 0 1 1.5875,-1.5875 z M 6.0854166,4.4979166 V 5.0270833 H 6.6145833 V 4.4979166 Z m 0,1.0583333 v 1.5875 h 0.5291667 v -1.5875 z"
     id="path831" />
</svg>
