<?xml version="1.0" encoding="UTF-8" standalone="no"?>
<svg
   width="47.546486"
   height="47.546486"
   viewBox="0 0 12.580008 12.580008"
   version="1.1"
   id="svg4"
   sodipodi:docname="mx-select-sound.svg"
   inkscape:version="0.92.4 (5da689c313, 2019-01-14)"
   xmlns:inkscape="http://www.inkscape.org/namespaces/inkscape"
   xmlns:sodipodi="http://sodipodi.sourceforge.net/DTD/sodipodi-0.dtd"
   xmlns="http://www.w3.org/2000/svg"
   xmlns:svg="http://www.w3.org/2000/svg"
   xmlns:rdf="http://www.w3.org/1999/02/22-rdf-syntax-ns#"
   xmlns:cc="http://creativecommons.org/ns#"
   xmlns:dc="http://purl.org/dc/elements/1.1/">
  <metadata
     id="metadata10">
    <rdf:RDF>
      <cc:Work
         rdf:about="">
        <dc:format>image/svg+xml</dc:format>
        <dc:type
           rdf:resource="http://purl.org/dc/dcmitype/StillImage" />
        <dc:title />
      </cc:Work>
    </rdf:RDF>
  </metadata>
  <defs
     id="defs8" />
  <sodipodi:namedview
     pagecolor="#ffffff"
     bordercolor="#666666"
     borderopacity="1"
     objecttolerance="10"
     gridtolerance="10"
     guidetolerance="10"
     inkscape:pageopacity="0"
     inkscape:pageshadow="2"
     inkscape:window-width="1087"
     inkscape:window-height="480"
     id="namedview6"
     showgrid="false"
     inkscape:zoom="4.9166667"
     inkscape:cx="2.1355932"
     inkscape:cy="24"
     inkscape:window-x="0"
     inkscape:window-y="25"
     inkscape:window-maximized="0"
     inkscape:current-layer="svg4"
     inkscape:showpageshadow="0"
     inkscape:pagecheckerboard="0"
     inkscape:deskcolor="#d1d1d1" />
  <path
     d="M 6.2900079,0 A 6.29,6.29 0 0 0 7.9490244e-6,6.3 6.29,6.29 0 0 0 6.3000079,12.58 6.29,6.29 0 0 0 12.580008,6.29 6.29,6.29 0 0 0 6.2900079,0 Z m -0.01,0.94 A 5.4,5.4 0 0 1 11.680008,6.34 5.4,5.4 0 0 1 6.2800079,11.75 5.4,5.4 0 0 1 0.87000795,6.35 5.4,5.4 0 0 1 6.2700079,0.93 Z m -1.56,1.63 a 0.26,0.26 0 0 0 -0.01,0 c -0.2,-0.02 -0.1,0.2 -0.12,0.32 v 4.9 c -0.03,0.16 -0.21,0.13 -0.32,0.1 -0.7,-0.07 -1.46,0.41 -1.56,1.14 -0.1,0.54 0.45,1 0.96,0.96 0.71,-0.04 1.28,-0.76 1.19,-1.47 V 4.56 c 0.02,-0.14 0.21,-0.15 0.3,-0.06 0.65,0.38 1.23,1 1.29,1.79 0.02,0.15 -0.02,0.54 -0.01,0.55 a 2.5,2.5 0 0 0 -0.66,-2.44 3.4,3.4 0 0 1 -0.96,-1.81 0.26,0.26 0 0 0 -0.1,-0.02 z m 2.51,0.02 a 0.13,0.13 0 0 0 -0.13,0.13 v 7.07 c 0,0.08 0.06,0.14 0.14,0.14 h 0.41 c 0.08,0 0.14,-0.06 0.14,-0.14 V 8.51 l 0.04,0.01 h 1.02 c 0.09,0 0.17,-0.08 0.17,-0.17 V 7.08 c 0,-0.1 -0.08,-0.17 -0.17,-0.17 h -1.06 v -1.3 l 0.04,0.02 h 1.02 c 0.09,0 0.17,-0.08 0.17,-0.18 V 4.18 c 0,-0.1 -0.08,-0.17 -0.17,-0.17 h -1.02 l -0.04,0.01 V 3.26 h 1.7 c 0.07,0 0.13,-0.06 0.13,-0.14 v -0.4 a 0.13,0.13 0 0 0 -0.13,-0.13 h -2.25 z m 0.6,1.9 h 0.73 c 0.04,0 0.07,0.03 0.07,0.07 v 0.51 c 0,0.04 -0.03,0.07 -0.07,0.07 h -0.73 a 0.07,0.07 0 0 1 -0.06,-0.07 v -0.5 c 0,-0.05 0.03,-0.08 0.06,-0.08 z m 0,2.9 h 0.73 c 0.04,0 0.07,0.03 0.07,0.07 v 0.5 c 0,0.05 -0.03,0.08 -0.07,0.08 h -0.73 a 0.07,0.07 0 0 1 -0.06,-0.07 V 7.46 c 0,-0.04 0.03,-0.07 0.06,-0.07 z"
     id="path2"
     inkscape:connector-curvature="0"
     style="fill:#bde6fb;fill-opacity:1" />
</svg>
