<?xml version="1.0" encoding="UTF-8" standalone="no"?>
<svg
   width="47.542679"
   height="47.546455"
   viewBox="0 0 12.579 12.58"
   version="1.1"
   id="svg4"
   sodipodi:docname="ncrack.svg"
   inkscape:version="0.92.5 (2060ec1f9f, 2020-04-08)"
   xmlns:inkscape="http://www.inkscape.org/namespaces/inkscape"
   xmlns:sodipodi="http://sodipodi.sourceforge.net/DTD/sodipodi-0.dtd"
   xmlns="http://www.w3.org/2000/svg"
   xmlns:svg="http://www.w3.org/2000/svg"
   xmlns:rdf="http://www.w3.org/1999/02/22-rdf-syntax-ns#"
   xmlns:cc="http://creativecommons.org/ns#"
   xmlns:dc="http://purl.org/dc/elements/1.1/">
  <metadata
     id="metadata10">
    <rdf:RDF>
      <cc:Work
         rdf:about="">
        <dc:format>image/svg+xml</dc:format>
        <dc:type
           rdf:resource="http://purl.org/dc/dcmitype/StillImage" />
        <dc:title />
      </cc:Work>
    </rdf:RDF>
  </metadata>
  <defs
     id="defs8" />
  <sodipodi:namedview
     pagecolor="#ffffff"
     bordercolor="#666666"
     borderopacity="1"
     objecttolerance="10"
     gridtolerance="10"
     guidetolerance="10"
     inkscape:pageopacity="0"
     inkscape:pageshadow="2"
     inkscape:window-width="1085"
     inkscape:window-height="480"
     id="namedview6"
     showgrid="false"
     inkscape:zoom="4.9166667"
     inkscape:cx="2.1355932"
     inkscape:cy="24"
     inkscape:window-x="0"
     inkscape:window-y="25"
     inkscape:window-maximized="0"
     inkscape:current-layer="svg4"
     inkscape:showpageshadow="0"
     inkscape:pagecheckerboard="0"
     inkscape:deskcolor="#d1d1d1" />
  <path
     d="M 6.285,0 A 6.295,6.295 0 0 0 0,6.285 6.295,6.295 0 0 0 6.285,12.58 6.295,6.295 0 0 0 12.579,6.285 6.295,6.295 0 0 0 6.285,0 Z M 6.274,0.94 a 5.408,5.408 0 0 1 5.397,5.387 5.407,5.407 0 0 1 -10.814,0 C 0.857,3.34 3.287,0.94 6.274,0.94 Z M 4.412,2.097 A 3.44,3.44 0 0 0 4.058,2.16 C 3.918,2.196 3.864,2.227 3.741,2.35 3.681,2.41 3.624,2.47 3.615,2.485 A 0.505,0.505 0 0 0 3.579,2.587 C 3.569,2.628 3.539,2.708 3.512,2.765 3.414,2.974 3.388,3.127 3.422,3.287 3.428,3.309 3.424,3.317 3.405,3.335 3.379,3.36 3.375,3.409 3.395,3.437 3.406,3.451 3.405,3.458 3.392,3.489 3.376,3.524 3.376,3.526 3.392,3.562 A 0.277,0.277 0 0 1 3.41,3.679 c 0,0.127 0.015,0.306 0.03,0.383 0.009,0.04 0.034,0.117 0.056,0.173 0.05,0.125 0.05,0.164 0.012,0.29 A 0.477,0.477 0 0 0 3.485,4.797 c 0.019,0.07 0.066,0.175 0.1,0.219 0.022,0.03 0.023,0.034 0.013,0.062 A 1.195,1.195 0 0 0 3.57,5.211 0.902,0.902 0 0 1 3.53,5.367 C 3.498,5.442 3.5,5.492 3.54,5.592 c 0.038,0.1 0.081,0.258 0.088,0.332 0.01,0.098 0.084,0.281 0.128,0.318 0.013,0.01 0.019,0.03 0.023,0.076 0.004,0.033 0.01,0.073 0.014,0.088 0.01,0.03 0.061,0.082 0.13,0.132 a 0.519,0.519 0 0 1 0.14,0.148 C 4.066,6.7 4.061,6.707 4.043,6.716 a 0.243,0.243 0 0 0 -0.05,0.04 L 3.967,6.784 3.949,6.762 A 0.077,0.077 0 0 0 3.903,6.735 0.155,0.155 0 0 1 3.858,6.723 C 3.796,6.689 3.413,6.235 3.346,6.116 3.321,6.072 3.293,6.054 3.201,6.023 A 1.136,1.136 0 0 0 2.842,5.96 H 2.733 L 2.698,5.994 C 2.679,6.014 2.629,6.083 2.588,6.15 2.494,6.3 2.485,6.318 2.473,6.374 A 0.762,0.762 0 0 1 2.441,6.475 C 2.429,6.505 2.411,6.566 2.399,6.61 L 2.379,6.69 2.33,6.715 A 0.205,0.205 0 0 0 2.28,6.747 c 0,0.004 0.018,0.016 0.042,0.028 0.025,0.011 0.053,0.03 0.064,0.041 L 2.405,6.836 2.373,6.874 C 2.355,6.895 2.34,6.92 2.34,6.929 2.34,6.939 2.333,6.957 2.323,6.971 A 0.168,0.168 0 0 0 2.299,7.026 C 2.291,7.069 2.213,7.246 2.158,7.35 L 2.11,7.44 2.02,7.469 C 1.949,7.492 1.93,7.501 1.93,7.515 1.93,7.538 1.973,7.545 2.086,7.54 2.163,7.536 2.186,7.532 2.228,7.512 A 0.757,0.757 0 0 0 2.459,7.269 L 2.509,7.176 A 0.137,0.137 0 0 0 2.527,7.124 c 0,-0.011 0.012,-0.032 0.026,-0.046 A 0.226,0.226 0 0 0 2.593,7.01 0.72,0.72 0 0 1 2.707,6.807 C 2.728,6.789 2.745,6.785 2.823,6.78 2.873,6.777 2.975,6.775 3.048,6.777 L 3.181,6.78 3.084,6.837 C 2.94,6.922 2.903,6.96 2.852,7.081 A 9.548,9.548 0 0 1 2.708,7.394 3.617,3.617 0 0 0 2.574,7.704 C 2.537,7.817 2.514,7.854 2.478,7.865 L 2.42,7.882 C 2.375,7.895 2.221,7.988 2.23,7.996 a 0.584,0.584 0 0 0 0.191,0.04 c 0.05,0 0.064,-0.003 0.094,-0.023 A 0.836,0.836 0 0 1 2.599,7.966 C 2.679,7.929 2.822,7.769 2.898,7.634 2.922,7.59 2.957,7.535 2.975,7.511 A 0.523,0.523 0 0 0 3.045,7.35 C 3.096,7.19 3.102,7.18 3.141,7.173 3.193,7.164 3.491,7.148 3.534,7.151 L 3.574,7.154 3.53,7.177 A 0.63,0.63 0 0 1 3.452,7.211 c -0.037,0.012 -0.06,0.039 -0.06,0.07 0,0.01 -0.014,0.035 -0.03,0.053 A 0.452,0.452 0 0 0 3.304,7.425 3.297,3.297 0 0 1 3.215,7.593 C 3.181,7.653 3.142,7.737 3.128,7.779 A 0.564,0.564 0 0 1 3.082,7.887 2.89,2.89 0 0 0 2.856,8.383 C 2.835,8.46 2.812,8.484 2.617,8.637 A 2.071,2.071 0 0 0 2.475,8.754 C 2.473,8.77 2.589,8.772 2.644,8.759 a 0.41,0.41 0 0 0 0.18,-0.1 C 2.899,8.598 2.934,8.579 2.975,8.57 3.015,8.563 3.032,8.543 3.093,8.428 3.15,8.32 3.219,8.215 3.271,8.158 3.313,8.11 3.314,8.108 3.308,8.061 L 3.302,8.014 3.333,8.001 C 3.36,7.99 3.37,7.975 3.413,7.887 3.44,7.832 3.467,7.767 3.473,7.742 A 0.319,0.319 0 0 1 3.502,7.667 0.316,0.316 0 0 0 3.53,7.596 C 3.536,7.574 3.546,7.553 3.553,7.549 3.56,7.546 3.621,7.526 3.69,7.505 L 3.899,7.442 C 3.992,7.414 4.048,7.41 4.09,7.43 4.106,7.437 4.157,7.48 4.205,7.523 4.337,7.646 4.347,7.647 4.362,7.549 L 4.377,7.453 4.382,7.423 4.455,7.495 c 0.09,0.089 0.148,0.132 0.186,0.14 A 0.282,0.282 0 0 1 4.76,7.698 C 4.829,7.753 4.84,7.754 4.905,7.706 4.942,7.679 4.978,7.678 5.026,7.702 5.073,7.724 5.137,7.788 5.119,7.794 A 1.141,1.141 0 0 0 4.969,7.85 0.819,0.819 0 0 1 4.732,7.916 0.275,0.275 0 0 0 4.58,7.972 0.266,0.266 0 0 0 4.528,8.054 C 4.508,8.104 4.504,8.109 4.438,8.146 4.354,8.192 4.323,8.219 4.296,8.273 A 0.87,0.87 0 0 0 4.242,8.527 C 4.235,8.603 4.245,8.63 4.308,8.71 c 0.024,0.031 0.064,0.09 0.09,0.133 0.047,0.08 0.068,0.101 0.177,0.173 0.066,0.043 0.12,0.093 0.224,0.207 0.052,0.056 0.065,0.065 0.112,0.079 0.03,0.008 0.101,0.039 0.16,0.069 0.106,0.054 0.11,0.056 0.241,0.191 0.08,0.082 0.176,0.17 0.238,0.217 0.12,0.09 0.14,0.114 0.17,0.196 0.034,0.09 0.058,0.134 0.099,0.176 0.065,0.068 0.13,0.09 0.33,0.112 0.154,0.017 0.233,0.033 0.39,0.077 0.318,0.09 0.647,0.129 0.869,0.106 0.16,-0.017 0.26,-0.057 0.462,-0.182 0.097,-0.06 0.185,-0.13 0.189,-0.15 0.002,-0.014 -0.006,-0.015 -0.06,-0.015 -0.036,0 -0.12,0.007 -0.186,0.015 -0.092,0.012 -0.19,0.015 -0.399,0.015 -0.252,0 -0.284,-10e-4 -0.366,-0.02 C 6.872,10.071 6.829,10.049 6.818,9.988 6.808,9.938 6.782,9.914 6.714,9.893 A 0.26,0.26 0 0 1 6.653,9.87 c 0,-0.003 0.019,-0.027 0.042,-0.053 A 0.214,0.214 0 0 0 6.75,9.727 L 6.764,9.674 C 6.768,9.661 6.848,9.655 7.098,9.648 A 14.04,14.04 0 0 0 8.025,9.591 C 8.35,9.567 8.363,9.564 8.363,9.524 8.363,9.459 8.223,9.399 7.668,9.226 7.106,9.051 6.96,8.992 6.598,8.794 6.218,8.584 6.182,8.572 5.935,8.572 A 0.95,0.95 0 0 0 5.672,8.592 C 5.497,8.632 5.331,8.619 5.229,8.56 L 5.191,8.537 5.251,8.489 a 0.653,0.653 0 0 1 0.1,-0.066 C 5.373,8.413 5.436,8.377 5.49,8.345 l 0.098,-0.06 h 0.13 c 0.126,0 0.132,0 0.154,-0.021 a 0.712,0.712 0 0 0 0.112,-0.22 0.48,0.48 0 0 1 0.03,-0.08 c 0.026,-0.04 0.207,-0.11 0.279,-0.11 0.021,0 0.033,-0.007 0.046,-0.026 a 0.165,0.165 0 0 1 0.048,-0.04 l 0.03,-0.017 0.058,0.03 C 6.53,7.829 6.535,7.83 6.625,7.828 L 6.718,7.825 6.824,7.875 A 0.608,0.608 0 0 0 6.934,7.922 0.243,0.243 0 0 0 6.906,7.853 0.249,0.249 0 0 1 6.876,7.769 C 6.879,7.753 6.886,7.759 6.922,7.806 6.982,7.884 6.995,7.88 6.969,7.794 6.95,7.734 6.952,7.695 6.972,7.684 6.987,7.677 6.994,7.68 7.017,7.707 A 0.235,0.235 0 0 1 7.054,7.76 C 7.059,7.773 7.069,7.782 7.081,7.782 7.1,7.782 7.101,7.779 7.094,7.692 7.089,7.619 7.09,7.604 7.1,7.604 c 0.014,0 0.07,0.05 0.07,0.063 0,0.004 0.003,0.008 0.008,0.008 0.005,0 0.006,-0.04 0.003,-0.098 C 7.175,7.461 7.171,7.463 7.275,7.507 A 0.209,0.209 0 0 0 7.395,7.53 C 7.452,7.526 7.458,7.522 7.555,7.404 7.629,7.314 7.78,7.27 8.057,7.256 8.193,7.249 8.215,7.246 8.266,7.224 8.317,7.202 8.333,7.2 8.426,7.2 c 0.163,0 0.243,0.025 0.27,0.083 a 0.32,0.32 0 0 0 0.05,0.07 c 0.03,0.031 0.041,0.037 0.073,0.037 0.02,0 0.056,0.009 0.082,0.021 a 0.83,0.83 0 0 0 0.188,0.045 c 0.079,0.013 0.181,0.034 0.228,0.046 0.104,0.028 0.55,0.174 0.64,0.21 0.08,0.031 0.105,0.054 0.23,0.206 0.1,0.121 0.135,0.154 0.182,0.167 a 0.74,0.74 0 0 1 0.108,0.053 c 0.082,0.047 0.145,0.07 0.17,0.06 0.023,-0.009 0.019,-0.07 -0.009,-0.134 A 1.29,1.29 0 0 0 10.464,7.78 0.724,0.724 0 0 1 10.306,7.483 2.448,2.448 0 0 0 10.229,7.285 C 10.203,7.231 10.192,7.218 10.16,7.202 10.12,7.182 10.048,7.132 9.891,7.019 9.674,6.863 9.556,6.826 9.236,6.813 9.096,6.808 9.088,6.809 9.049,6.828 9.012,6.848 9.009,6.848 9,6.833 8.963,6.769 8.917,6.753 8.833,6.778 8.768,6.798 8.735,6.797 8.693,6.775 A 0.749,0.749 0 0 0 8.443,6.721 C 8.298,6.708 8.263,6.698 8.233,6.667 A 0.24,0.24 0 0 0 8.189,6.63 0.956,0.956 0 0 0 7.976,6.594 0.246,0.246 0 0 0 7.83,6.664 0.417,0.417 0 0 1 7.662,6.749 2.793,2.793 0 0 0 7.496,6.816 a 0.734,0.734 0 0 1 -0.1,0.04 c -0.007,0 -0.023,0.014 -0.037,0.03 A 0.11,0.11 0 0 1 7.241,6.926 C 7.2,6.915 7.187,6.902 7.187,6.87 A 0.322,0.322 0 0 0 7.173,6.797 C 7.158,6.747 7.161,6.727 7.197,6.639 7.229,6.561 7.245,6.502 7.267,6.375 7.286,6.26 7.302,6.229 7.337,6.233 7.356,6.235 7.362,6.243 7.367,6.267 7.422,6.537 7.453,6.637 7.5,6.684 7.531,6.716 7.561,6.72 7.61,6.7 7.645,6.685 7.65,6.659 7.629,6.616 7.611,6.581 7.599,6.506 7.583,6.339 7.56,6.079 7.551,6.005 7.538,5.975 7.521,5.932 7.468,5.911 7.378,5.911 7.316,5.911 7.302,5.914 7.262,5.937 A 0.886,0.886 0 0 0 7.051,6.143 C 7.038,6.165 7.001,6.261 6.969,6.356 6.909,6.533 6.879,6.596 6.861,6.596 6.844,6.596 6.821,6.566 6.821,6.54 A 0.84,0.84 0 0 1 6.845,6.425 C 6.923,6.118 6.926,6.042 6.875,5.881 L 6.839,5.768 H 6.756 C 6.696,5.768 6.669,5.772 6.655,5.782 6.625,5.802 6.6,5.897 6.581,6.061 6.563,6.209 6.556,6.249 6.548,6.249 6.544,6.249 6.385,6.162 6.378,6.156 A 3.504,3.504 0 0 1 6.345,5.979 C 6.298,5.71 6.285,5.685 6.189,5.648 A 0.703,0.703 0 0 1 6.073,5.588 L 6.02,5.553 5.855,5.648 5.851,5.813 A 1.03,1.03 0 0 1 5.837,5.993 C 5.827,6.009 5.823,6.007 5.779,5.97 A 0.386,0.386 0 0 0 5.682,5.91 0.624,0.624 0 0 1 5.616,5.884 0.7,0.7 0 0 0 5.537,5.846 0.936,0.936 0 0 1 5.307,5.62 C 5.292,5.584 5.249,5.546 5.225,5.545 5.198,5.545 5.138,5.509 5.065,5.45 A 1.516,1.516 0 0 0 4.934,5.355 0.225,0.225 0 0 1 4.866,5.296 0.572,0.572 0 0 0 4.69,5.144 1.26,1.26 0 0 1 4.456,4.981 1.232,1.232 0 0 0 4.303,4.873 0.517,0.517 0 0 1 4.218,4.817 C 4.195,4.789 4.185,4.739 4.186,4.658 4.187,4.559 4.163,4.475 4.121,4.436 A 0.71,0.71 0 0 0 4.026,4.369 C 3.969,4.335 3.954,4.32 3.936,4.285 3.915,4.243 3.914,4.241 3.926,4.152 L 3.944,3.998 A 0.532,0.532 0 0 0 3.908,3.744 C 3.88,3.659 3.88,3.658 3.893,3.604 A 0.19,0.19 0 0 0 3.895,3.494 0.218,0.218 0 0 1 3.889,3.425 0.546,0.546 0 0 1 3.936,3.356 0.429,0.429 0 0 0 4.024,3.126 0.323,0.323 0 0 1 4.129,2.891 C 4.151,2.881 4.299,2.843 4.303,2.847 l 0.064,0.119 c 0.07,0.13 0.134,0.229 0.214,0.325 0.069,0.082 0.164,0.174 0.22,0.212 0.048,0.033 0.079,0.088 0.079,0.141 0,0.03 -0.007,0.041 -0.037,0.07 -0.114,0.111 -0.196,0.312 -0.21,0.51 a 0.647,0.647 0 0 0 0.024,0.228 c 0.011,0.041 0.026,0.044 0.026,0.004 0,-0.04 0.035,-0.106 0.063,-0.12 A 0.566,0.566 0 0 1 4.897,4.325 C 5.063,4.324 5.197,4.312 5.243,4.293 5.363,4.245 5.418,4.057 5.37,3.857 A 1.282,1.282 0 0 0 5.234,3.53 C 5.225,3.518 5.227,3.506 5.243,3.467 5.268,3.406 5.268,3.375 5.237,3.224 5.179,2.944 5.138,2.835 5.041,2.706 4.919,2.542 4.635,2.244 4.55,2.191 A 0.657,0.657 0 0 1 4.472,2.131 C 4.45,2.111 4.425,2.097 4.412,2.097 Z m 1.64,3.866 C 6.056,5.966 6.062,5.973 6.07,5.988 6.091,6.022 6.098,6.053 6.084,6.053 6.079,6.053 6.07,6.046 6.062,6.038 6.044,6.017 6.036,5.988 6.043,5.969 6.046,5.963 6.048,5.96 6.053,5.963 Z M 2.862,6.296 A 0.471,0.471 0 0 1 2.929,6.297 C 3.025,6.304 3.04,6.31 3.087,6.357 l 0.038,0.04 -0.168,0.006 c -0.092,0.003 -0.181,0.01 -0.198,0.015 -0.043,0.011 -0.045,0.01 -0.045,0 0,-0.015 0.082,-0.097 0.11,-0.113 a 0.092,0.092 0 0 1 0.038,-0.01 z"
     id="path2"
     inkscape:connector-curvature="0"
     style="fill:#bde6fb;fill-opacity:1" />
</svg>
