<?xml version="1.0" encoding="UTF-8" standalone="no"?>
<svg
   width="47.542679"
   height="47.546455"
   viewBox="0 0 12.579 12.58"
   version="1.1"
   id="svg4"
   sodipodi:docname="nessus.svg"
   inkscape:version="0.92.5 (2060ec1f9f, 2020-04-08)"
   xmlns:inkscape="http://www.inkscape.org/namespaces/inkscape"
   xmlns:sodipodi="http://sodipodi.sourceforge.net/DTD/sodipodi-0.dtd"
   xmlns="http://www.w3.org/2000/svg"
   xmlns:svg="http://www.w3.org/2000/svg"
   xmlns:rdf="http://www.w3.org/1999/02/22-rdf-syntax-ns#"
   xmlns:cc="http://creativecommons.org/ns#"
   xmlns:dc="http://purl.org/dc/elements/1.1/">
  <metadata
     id="metadata10">
    <rdf:RDF>
      <cc:Work
         rdf:about="">
        <dc:format>image/svg+xml</dc:format>
        <dc:type
           rdf:resource="http://purl.org/dc/dcmitype/StillImage" />
        <dc:title />
      </cc:Work>
    </rdf:RDF>
  </metadata>
  <defs
     id="defs8" />
  <sodipodi:namedview
     pagecolor="#ffffff"
     bordercolor="#666666"
     borderopacity="1"
     objecttolerance="10"
     gridtolerance="10"
     guidetolerance="10"
     inkscape:pageopacity="0"
     inkscape:pageshadow="2"
     inkscape:window-width="1085"
     inkscape:window-height="480"
     id="namedview6"
     showgrid="false"
     inkscape:zoom="4.9166667"
     inkscape:cx="2.1355932"
     inkscape:cy="24"
     inkscape:window-x="0"
     inkscape:window-y="25"
     inkscape:window-maximized="0"
     inkscape:current-layer="svg4"
     inkscape:showpageshadow="0"
     inkscape:pagecheckerboard="0"
     inkscape:deskcolor="#d1d1d1" />
  <path
     d="M 6.285,0 A 6.295,6.295 0 0 0 0,6.285 6.295,6.295 0 0 0 6.285,12.58 6.295,6.295 0 0 0 12.579,6.285 6.295,6.295 0 0 0 6.285,0 Z M 6.274,0.94 a 5.408,5.408 0 0 1 5.397,5.387 5.407,5.407 0 0 1 -10.814,0 C 0.857,3.34 3.287,0.94 6.274,0.94 Z M 5.119,1.512 1.758,4.81 v 0.406 l 1.175,4.56 4.538,1.262 3.361,-3.298 V 7.334 L 10.802,7.221 9.658,2.775 Z m 0.117,0.859 1.082,0.3 -1.884,0.487 z M 7.304,3.088 7.67,3.461 5.92,3.444 Z M 7.908,3.114 9.322,3.507 9.689,4.929 Z M 4.506,3.809 3.541,5.446 3.957,3.951 4.507,3.809 Z M 8.076,3.875 9.535,5.36 9.331,6.094 Z M 4.95,3.961 5.533,3.967 4.141,5.333 Z m 1.308,0.013 1.497,0.014 0.27,0.477 z M 5.748,4.259 7.858,4.846 8.362,6.8 6.842,8.291 4.732,7.704 4.228,5.75 Z M 3.272,4.297 2.635,6.589 2.292,5.259 Z M 8.035,4.483 9.026,6.238 8.638,6.897 V 6.822 L 8.623,6.763 Z M 3.952,5.653 V 5.728 L 4.555,8.065 3.563,6.31 3.952,5.652 Z M 9.955,5.96 10.297,7.29 9.317,8.253 Z M 3.26,6.455 3.273,6.479 4.513,8.674 3.056,7.189 Z M 9.049,7.105 8.633,8.599 8.083,8.74 9.049,7.104 Z M 8.449,7.217 7.639,8.588 7.057,8.583 7.699,7.953 Z M 2.901,7.621 4.682,9.435 3.267,9.041 2.901,7.62 Z M 4.565,8.085 4.997,8.205 6.331,8.575 4.835,8.562 Z M 4.92,9.089 6.669,9.105 5.286,9.462 Z M 8.156,9.392 7.353,10.179 6.271,9.878 Z"
     id="path2"
     inkscape:connector-curvature="0"
     style="fill:#bde6fb;fill-opacity:1" />
</svg>
