<?xml version="1.0" encoding="UTF-8" standalone="no"?>
<svg
   width="47.546486"
   height="47.546486"
   viewBox="0 0 12.580008 12.580008"
   version="1.1"
   id="svg16"
   sodipodi:docname="netbeans.svg"
   inkscape:version="0.92.4 (5da689c313, 2019-01-14)"
   xmlns:inkscape="http://www.inkscape.org/namespaces/inkscape"
   xmlns:sodipodi="http://sodipodi.sourceforge.net/DTD/sodipodi-0.dtd"
   xmlns="http://www.w3.org/2000/svg"
   xmlns:svg="http://www.w3.org/2000/svg"
   xmlns:rdf="http://www.w3.org/1999/02/22-rdf-syntax-ns#"
   xmlns:cc="http://creativecommons.org/ns#"
   xmlns:dc="http://purl.org/dc/elements/1.1/">
  <metadata
     id="metadata22">
    <rdf:RDF>
      <cc:Work
         rdf:about="">
        <dc:format>image/svg+xml</dc:format>
        <dc:type
           rdf:resource="http://purl.org/dc/dcmitype/StillImage" />
        <dc:title />
      </cc:Work>
    </rdf:RDF>
  </metadata>
  <defs
     id="defs20" />
  <sodipodi:namedview
     pagecolor="#ffffff"
     bordercolor="#666666"
     borderopacity="1"
     objecttolerance="10"
     gridtolerance="10"
     guidetolerance="10"
     inkscape:pageopacity="0"
     inkscape:pageshadow="2"
     inkscape:window-width="861"
     inkscape:window-height="480"
     id="namedview18"
     showgrid="false"
     inkscape:zoom="4.9166667"
     inkscape:cx="2.1355932"
     inkscape:cy="24"
     inkscape:window-x="0"
     inkscape:window-y="25"
     inkscape:window-maximized="0"
     inkscape:current-layer="svg16"
     inkscape:showpageshadow="0"
     inkscape:pagecheckerboard="0"
     inkscape:deskcolor="#d1d1d1" />
  <path
     d="M 6.2900079,0 A 6.29,6.29 0 0 0 7.9490244e-6,6.3 6.29,6.29 0 0 0 6.3000079,12.58 6.29,6.29 0 0 0 12.580008,6.29 6.29,6.29 0 0 0 6.2900079,0 Z m -0.02,0.93 0.01,0.01 A 5.4,5.4 0 0 1 11.680008,6.34 5.4,5.4 0 0 1 6.2800079,11.75 5.4,5.4 0 0 1 0.87000795,6.35 5.4,5.4 0 0 1 6.2700079,0.93 Z"
     id="path2"
     inkscape:connector-curvature="0"
     style="fill:#bde6fb;fill-opacity:1" />
  <path
     d="m 6.3000079,1.402 v 0.54 l 0.117,0.073 3.505,2.03 0.1170001,0.073 0.467,-0.277 L 6.3000079,1.4 Z m 0,1.095 v 3.505 l 3.038,-1.752 z"
     id="path4"
     inkscape:connector-curvature="0"
     style="opacity:0.8;fill:#add439" />
  <path
     d="m 6.3000079,1.402 -4.206,2.438 0.467,0.277 0.117,-0.072 3.505,-2.03 0.117,-0.074 v -0.54 z m 0,1.095 -3.038,1.753 3.038,1.752 z"
     id="path6"
     inkscape:connector-curvature="0"
     style="opacity:0.8;fill:#86b02f;fill-opacity:0.983" />
  <path
     d="m 6.0660079,6.411 -3.038,1.765 v 0.003 l 3.038,1.751 V 6.41 Z m -3.5,2.034 -0.472,0.274 4.206,2.44 v -0.541 l -0.117,-0.073 -3.505,-2.03 z"
     id="path8"
     inkscape:connector-curvature="0"
     style="opacity:0.8;fill:#eb2f6a" />
  <path
     d="m 2.0940079,3.84 v 4.88 l 0.472,-0.275 -0.005,-0.003 V 4.118 l -0.467,-0.277 z m 0.934,0.819 v 3.517 l 3.038,-1.765 -3.038,-1.751 z"
     id="path10"
     inkscape:connector-curvature="0"
     style="opacity:0.8;fill:#ac1248" />
  <path
     d="m 6.5340079,6.411 v 3.52 l 3.038,-1.751 V 8.177 Z m 3.5000001,2.034 -0.1120001,0.07 -3.505,2.03 -0.117,0.073 v 0.54 L 10.506008,8.719 Z"
     id="path12"
     inkscape:connector-curvature="0"
     style="opacity:0.8;fill:#2e90e8" />
  <path
     d="m 10.506008,3.84 -0.467,0.278 v 4.324 l -0.005,0.003 0.472,0.274 V 3.841 Z m -0.9340001,0.819 -3.038,1.751 3.038,1.765 z"
     id="path14"
     inkscape:connector-curvature="0"
     style="opacity:0.8;fill:#3471b9" />
</svg>
