<?xml version="1.0" encoding="UTF-8" standalone="no"?>
<svg
   width="47.539062"
   height="47.546875"
   viewBox="0 0 12.578044 12.580111"
   version="1.1"
   id="svg8"
   sodipodi:docname="netdiscover.svg"
   inkscape:version="0.92.5 (2060ec1f9f, 2020-04-08)"
   xmlns:inkscape="http://www.inkscape.org/namespaces/inkscape"
   xmlns:sodipodi="http://sodipodi.sourceforge.net/DTD/sodipodi-0.dtd"
   xmlns="http://www.w3.org/2000/svg"
   xmlns:svg="http://www.w3.org/2000/svg"
   xmlns:rdf="http://www.w3.org/1999/02/22-rdf-syntax-ns#"
   xmlns:cc="http://creativecommons.org/ns#"
   xmlns:dc="http://purl.org/dc/elements/1.1/">
  <metadata
     id="metadata14">
    <rdf:RDF>
      <cc:Work
         rdf:about="">
        <dc:format>image/svg+xml</dc:format>
        <dc:type
           rdf:resource="http://purl.org/dc/dcmitype/StillImage" />
        <dc:title />
      </cc:Work>
    </rdf:RDF>
  </metadata>
  <defs
     id="defs12" />
  <sodipodi:namedview
     pagecolor="#ffffff"
     bordercolor="#666666"
     borderopacity="1"
     objecttolerance="10"
     gridtolerance="10"
     guidetolerance="10"
     inkscape:pageopacity="0"
     inkscape:pageshadow="2"
     inkscape:window-width="1085"
     inkscape:window-height="480"
     id="namedview10"
     showgrid="false"
     inkscape:zoom="2.4583333"
     inkscape:cx="2.1355932"
     inkscape:cy="24"
     inkscape:window-x="0"
     inkscape:window-y="25"
     inkscape:window-maximized="0"
     inkscape:current-layer="svg8"
     inkscape:showpageshadow="0"
     inkscape:pagecheckerboard="0"
     inkscape:deskcolor="#d1d1d1" />
  <path
     style="fill:#bde6fb;fill-opacity:1;stroke-width:1"
     d="M 6.2854045,0 A 6.2949999,6.2949999 0 0 0 0,6.2848875 6.2949999,6.2949999 0 0 0 1.1983764,9.9689006 V 8.209318 A 5.4070001,5.4070001 0 0 1 0.85834553,6.3272624 c 0,-2.987 2.42869007,-5.38726811 5.41569007,-5.38726811 A 5.4079999,5.4079999 0 0 1 11.671122,6.3272624 5.4070001,5.4070001 0 0 1 11.368298,8.093046 V 9.9828531 A 6.2949999,6.2949999 0 0 0 12.578044,6.2848875 6.2949999,6.2949999 0 0 0 6.2854045,0 Z M 3.0251383,4.4648437 c -0.06,0 -0.090059,0.073272 -0.048059,0.1162719 L 3.1129882,4.7159912 2.0954793,5.7329834 a 0.068,0.068 0 0 0 0,0.096118 l 0.2335775,0.2340943 a 0.067,0.067 0 0 0 0.095085,0 L 3.4411337,5.0462036 3.5770425,5.1821127 A 0.068,0.068 0 0 0 3.6933147,5.1350869 V 4.5330567 a 0.068,0.068 0 0 0 -0.068213,-0.06718 H 3.0251383 Z m 5.9329711,0 a 0.068,0.068 0 0 0 -0.066663,0.068213 v 0.6020302 c 0,0.06 0.072722,0.090026 0.1147218,0.047026 L 9.1420776,5.0462036 10.15907,6.0631958 a 0.067,0.067 0 0 0 0.09508,0 l 0.234094,-0.2340943 a 0.068,0.068 0 0 0 0,-0.096118 L 9.4712563,4.7159912 9.6071654,4.5811156 A 0.067,0.067 0 0 0 9.5591065,4.4658771 H 8.9591429 Z M 4.0839884,5.049821 v 0.00103 A 0.067,0.067 0 0 0 4.0364464,5.071004 L 3.019454,6.0859312 2.8830282,5.9510559 a 0.067,0.067 0 0 0 -0.1136883,0.047025 v 0.6020305 c 0,0.037 0.029663,0.067179 0.066663,0.067179 h 0.5999633 c 0.06,0 0.090059,-0.073238 0.048059,-0.1152384 L 3.3491494,6.4161436 4.3651081,5.4001849 a 0.067,0.067 0 0 0 0,-0.095085 L 4.1310138,5.0699725 a 0.067,0.067 0 0 0 -0.047025,-0.020153 z m 4.4173015,0 v 0.00103 a 0.067,0.067 0 0 0 -0.048059,0.020153 l -0.204122,0.204124 -0.029972,0.029972 a 0.067,0.067 0 0 0 0,0.095085 L 9.2350951,6.4171771 9.099186,6.5530861 a 0.067,0.067 0 0 0 0.049093,0.1152385 h 0.599963 c 0.038,0 0.068213,-0.030179 0.068213,-0.067179 V 5.9991148 c 0,-0.06 -0.073238,-0.090026 -0.1152385,-0.047026 L 9.5653075,6.0869646 8.5483153,5.0699725 A 0.067,0.067 0 0 0 8.5012899,5.0498191 Z M 1.6500285,7.2419352 V 9.6779621 H 1.9662882 V 9.7838989 L 1.6464111,10.030912 v 0.61805 h 3.1889526 v -0.61805 L 4.5149697,9.7838989 V 9.6779621 H 4.8312296 V 7.2419352 H 1.651062 Z m 6.1091877,0 v 2.4360269 h 0.3162599 v 0.1059368 l -0.320394,0.2470131 v 0.61805 h 3.1879189 v -0.61805 L 10.623124,9.7838989 V 9.6779621 h 0.317293 V 7.2419352 Z M 1.8763712,7.4620767 H 4.6054035 V 9.3379312 H 1.8763712 Z m 6.1086711,0 h 0.00103 2.7279987 V 9.3379312 H 7.9850423 Z M 2.4541137,11.267013 A 6.2949999,6.2949999 0 0 0 6.2854045,12.58011 6.2949999,6.2949999 0 0 0 10.119279,11.267013 H 8.4444457 a 5.4070001,5.4070001 0 0 1 -4.3702758,0 z"
     id="path2" />
  <path
     d="m 4.747223,1.5320692 v 2.436 h 0.316 v 0.106 l -0.32,0.247 v 0.618 h 3.188 v -0.618 l -0.32,-0.247 v -0.106 h 0.316 v -2.436 z m 0.226,0.22 h 2.728 v 1.876 h -2.728 z"
     id="path6"
     inkscape:connector-curvature="0"
     style="opacity:0.75;fill:#d41919;paint-order:stroke fill markers" />
</svg>
