<?xml version="1.0" encoding="UTF-8" standalone="no"?>
<svg
   width="47.542679"
   height="47.546455"
   viewBox="0 0 12.579 12.58"
   version="1.1"
   id="svg4"
   sodipodi:docname="nethunter.svg"
   inkscape:version="0.92.5 (2060ec1f9f, 2020-04-08)"
   xmlns:inkscape="http://www.inkscape.org/namespaces/inkscape"
   xmlns:sodipodi="http://sodipodi.sourceforge.net/DTD/sodipodi-0.dtd"
   xmlns="http://www.w3.org/2000/svg"
   xmlns:svg="http://www.w3.org/2000/svg"
   xmlns:rdf="http://www.w3.org/1999/02/22-rdf-syntax-ns#"
   xmlns:cc="http://creativecommons.org/ns#"
   xmlns:dc="http://purl.org/dc/elements/1.1/">
  <metadata
     id="metadata10">
    <rdf:RDF>
      <cc:Work
         rdf:about="">
        <dc:format>image/svg+xml</dc:format>
        <dc:type
           rdf:resource="http://purl.org/dc/dcmitype/StillImage" />
        <dc:title />
      </cc:Work>
    </rdf:RDF>
  </metadata>
  <defs
     id="defs8" />
  <sodipodi:namedview
     pagecolor="#ffffff"
     bordercolor="#666666"
     borderopacity="1"
     objecttolerance="10"
     gridtolerance="10"
     guidetolerance="10"
     inkscape:pageopacity="0"
     inkscape:pageshadow="2"
     inkscape:window-width="1085"
     inkscape:window-height="480"
     id="namedview6"
     showgrid="false"
     inkscape:zoom="4.9166667"
     inkscape:cx="2.1355932"
     inkscape:cy="24"
     inkscape:window-x="0"
     inkscape:window-y="25"
     inkscape:window-maximized="0"
     inkscape:current-layer="svg4"
     inkscape:showpageshadow="0"
     inkscape:pagecheckerboard="0"
     inkscape:deskcolor="#d1d1d1" />
  <path
     d="M 6.285,0 A 6.295,6.295 0 0 0 0,6.285 6.295,6.295 0 0 0 6.285,12.58 6.295,6.295 0 0 0 12.579,6.285 6.295,6.295 0 0 0 6.285,0 Z M 6.274,0.94 a 5.408,5.408 0 0 1 5.397,5.387 5.407,5.407 0 0 1 -10.814,0 C 0.857,3.34 3.287,0.94 6.274,0.94 Z M 2.617,2.69 C 2.61,2.688 2.603,2.69 2.595,2.69 2.562,2.695 2.518,2.716 2.455,2.779 A 0.31,0.31 0 0 0 2.372,2.978 c 0,0.073 0.026,0.125 0.047,0.158 0.043,0.066 0.077,0.085 0.108,0.104 0.06,0.039 0.116,0.06 0.183,0.08 0.158,0.048 0.634,0.259 1.116,0.5 0.06,0.03 0.114,0.06 0.173,0.091 a 1.723,1.723 0 0 0 -0.3,0.593 L 3.607,4.849 C 3.478,4.859 3.355,4.879 3.247,4.917 3.107,4.967 2.955,5.012 2.884,5.229 A 0.29,0.29 0 0 0 2.871,5.377 c 0.01,0.07 0.07,0.169 0.147,0.21 0.003,0.002 0.005,0 0.008,0.002 -0.002,0 -0.004,0.005 -0.006,0.005 A 0.79,0.79 0 0 0 2.604,5.82 C 2.507,5.913 2.436,5.99 2.4,6.135 A 0.319,0.319 0 0 0 2.512,6.466 C 2.559,6.501 2.602,6.514 2.642,6.521 2.615,6.601 2.557,6.737 2.52,6.791 2.444,6.901 2.39,7.005 2.36,7.118 2.344,7.175 2.328,7.232 2.35,7.328 A 0.314,0.314 0 0 0 2.447,7.492 0.324,0.324 0 0 0 2.649,7.568 L 2.651,7.567 c 0.017,0.163 0.046,0.315 0.103,0.47 l -0.18,0.67 c -0.2,0.746 0.24,1.347 0.986,1.347 h 4.203 c 0.539,0 1.083,-0.314 1.42,-0.769 0.02,0.02 0.039,0.035 0.06,0.056 0.079,0.08 0.155,0.15 0.22,0.203 A 1,1 0 0 0 9.558,9.615 C 9.575,9.626 9.592,9.637 9.623,9.65 9.653,9.663 9.698,9.715 9.846,9.653 9.954,9.607 9.996,9.566 10.086,9.501 A 8.716,8.716 0 0 0 10.645,9.056 C 10.681,9.023 10.711,8.996 10.739,8.966 10.753,8.952 10.766,8.939 10.785,8.913 10.795,8.9 10.805,8.885 10.82,8.848 10.835,8.811 10.873,8.721 10.8,8.602 10.701,8.444 10.637,8.469 10.584,8.455 a 0.632,0.632 0 0 0 -0.163,-0.02 c 0.061,0 -0.032,-0.01 -0.12,-0.044 A 4.895,4.895 0 0 1 9.645,8.058 L 10.598,4.504 C 10.798,3.757 10.358,3.156 9.612,3.156 H 5.408 c -0.29,0 -0.58,0.092 -0.84,0.246 C 4.148,3.204 3.716,3.022 3.269,2.859 A 5.107,5.107 0 0 0 2.929,2.747 C 2.831,2.719 2.782,2.696 2.665,2.696 2.653,2.696 2.638,2.69 2.617,2.689 Z m 0.048,0.273 c 0.063,0 0.275,0.06 0.512,0.146 1.836,0.67 3.433,1.644 4.756,2.902 0.148,0.142 0.27,0.274 0.27,0.295 0,0.02 -0.072,0.046 -0.159,0.056 C 7.904,6.378 7.849,6.346 7.54,6.06 A 18.489,18.489 0 0 0 5.268,4.298 C 4.632,3.896 3.211,3.184 2.788,3.057 2.691,3.027 2.628,2.987 2.648,2.967 2.65,2.964 2.656,2.963 2.665,2.963 Z m 2.52,1.395 c 0.02,0.001 0.051,0.011 0.094,0.027 0.167,0.063 0.46,0.349 0.53,0.516 0.038,0.093 0.114,0.152 0.253,0.2 C 6.34,5.195 6.786,5.543 7.31,6.074 L 7.756,6.525 8.062,6.507 8.367,6.489 8.579,6.874 c 0.116,0.211 0.276,0.461 0.357,0.554 0.222,0.259 0.272,0.373 0.2,0.46 -0.05,0.06 -0.03,0.096 0.126,0.232 0.23,0.2 0.992,0.582 1.16,0.582 0.068,0 0.134,0.017 0.147,0.038 C 10.589,8.772 9.867,9.347 9.742,9.4 9.721,9.408 9.582,9.294 9.435,9.146 9.032,8.743 8.72,8.526 8.019,8.162 7.669,7.98 7.348,7.781 7.301,7.716 7.255,7.651 7.203,7.468 7.187,7.309 7.157,7.026 7.151,7.016 6.94,6.882 5.98,6.276 5.229,6.079 4.777,6.315 4.477,6.472 4.386,6.619 4.389,6.94 4.393,7.452 4.649,7.804 5.32,8.222 5.893,8.578 6.232,8.942 6.512,9.501 6.581,9.638 6.626,9.724 6.67,9.78 H 4.113 C 4.081,9.677 3.772,9.172 3.47,8.733 3.03,8.091 2.941,7.888 2.908,7.453 2.881,7.094 2.845,7.037 2.744,7.199 2.712,7.251 2.669,7.293 2.649,7.293 2.573,7.293 2.619,7.119 2.743,6.94 2.813,6.837 2.896,6.658 2.925,6.542 2.953,6.425 2.994,6.29 3.015,6.241 3.047,6.163 3.036,6.156 2.931,6.182 A 2.113,2.113 0 0 0 2.736,6.242 C 2.614,6.288 2.647,6.149 2.791,6.011 A 0.684,0.684 0 0 1 3.073,5.855 C 3.175,5.835 3.255,5.775 3.322,5.667 A 0.924,0.924 0 0 1 3.516,5.441 C 3.608,5.377 3.605,5.373 3.442,5.342 A 0.606,0.606 0 0 0 3.197,5.339 C 3.15,5.357 3.13,5.346 3.142,5.309 3.177,5.201 3.432,5.111 3.717,5.107 4.04,5.101 4.365,5.008 4.339,4.928 A 0.537,0.537 0 0 0 4.174,4.775 C 4.093,4.72 4.04,4.662 4.056,4.645 4.123,4.578 4.446,4.624 4.656,4.731 4.782,4.794 4.996,4.86 5.134,4.877 5.429,4.914 5.445,4.879 5.269,4.592 5.167,4.427 5.136,4.362 5.177,4.358 a 0.03,0.03 0 0 1 0.008,0 z M 8.348,7.021 8.347,7.273 8.346,7.395 c 0,0.107 0.06,0.208 0.156,0.254 l 0.019,0.01 0.06,0.028 c 0.02,0.009 0.033,0.016 0.06,0.02 A 0.095,0.095 0 0 0 8.704,7.7 0.11,0.11 0 0 0 8.756,7.638 C 8.766,7.602 8.76,7.595 8.759,7.586 8.757,7.543 8.747,7.538 8.739,7.523 A 1.505,1.505 0 0 0 8.622,7.357 Z"
     id="path2"
     inkscape:connector-curvature="0"
     style="fill:#bde6fb;fill-opacity:1" />
</svg>
