<?xml version="1.0" encoding="UTF-8" standalone="no"?>
<svg
   width="47.546455"
   height="47.546455"
   viewBox="0 0 12.58 12.58"
   version="1.1"
   id="svg4"
   sodipodi:docname="nextcloud.svg"
   inkscape:version="0.92.4 (5da689c313, 2019-01-14)"
   xmlns:inkscape="http://www.inkscape.org/namespaces/inkscape"
   xmlns:sodipodi="http://sodipodi.sourceforge.net/DTD/sodipodi-0.dtd"
   xmlns="http://www.w3.org/2000/svg"
   xmlns:svg="http://www.w3.org/2000/svg"
   xmlns:rdf="http://www.w3.org/1999/02/22-rdf-syntax-ns#"
   xmlns:cc="http://creativecommons.org/ns#"
   xmlns:dc="http://purl.org/dc/elements/1.1/">
  <metadata
     id="metadata10">
    <rdf:RDF>
      <cc:Work
         rdf:about="">
        <dc:format>image/svg+xml</dc:format>
        <dc:type
           rdf:resource="http://purl.org/dc/dcmitype/StillImage" />
        <dc:title />
      </cc:Work>
    </rdf:RDF>
  </metadata>
  <defs
     id="defs8" />
  <sodipodi:namedview
     pagecolor="#ffffff"
     bordercolor="#666666"
     borderopacity="1"
     objecttolerance="10"
     gridtolerance="10"
     guidetolerance="10"
     inkscape:pageopacity="0"
     inkscape:pageshadow="2"
     inkscape:window-width="862"
     inkscape:window-height="480"
     id="namedview6"
     showgrid="false"
     inkscape:zoom="4.9166667"
     inkscape:cx="2.1355932"
     inkscape:cy="24"
     inkscape:window-x="0"
     inkscape:window-y="25"
     inkscape:window-maximized="0"
     inkscape:current-layer="svg4"
     inkscape:showpageshadow="0"
     inkscape:pagecheckerboard="0"
     inkscape:deskcolor="#d1d1d1" />
  <path
     d="m 6.29,0 a 6.29,6.29 0 1 0 0,12.58 A 6.29,6.29 0 0 0 6.29,0 Z M 6.27,0.93 a 5.417,5.417 0 0 1 5.41,5.41 5.4,5.4 0 0 1 -5.4,5.41 5.4,5.4 0 0 1 -5.41,-5.4 5.4,5.4 0 0 1 5.4,-5.42 z M 6.3,4.692 A 1.587,1.587 0 0 0 4.762,5.892 1.323,1.323 0 0 0 3.497,4.957 1.323,1.323 0 0 0 2.174,6.28 1.323,1.323 0 0 0 3.497,7.603 1.323,1.323 0 0 0 4.762,6.664 1.587,1.587 0 0 0 6.3,7.867 1.587,1.587 0 0 0 7.838,6.667 1.323,1.323 0 0 0 9.103,7.603 1.323,1.323 0 0 0 10.426,6.28 1.323,1.323 0 0 0 9.103,4.957 1.323,1.323 0 0 0 7.838,5.896 1.587,1.587 0 0 0 6.3,4.692 Z m 0,0.794 A 0.794,0.794 0 0 1 7.094,6.28 0.794,0.794 0 0 1 6.3,7.074 0.794,0.794 0 0 1 5.506,6.28 0.794,0.794 0 0 1 6.3,5.486 Z M 3.497,5.751 A 0.53,0.53 0 0 1 4.027,6.28 0.53,0.53 0 0 1 3.497,6.81 0.53,0.53 0 0 1 2.967,6.28 0.53,0.53 0 0 1 3.497,5.75 Z m 5.606,0 A 0.53,0.53 0 0 1 9.633,6.28 0.53,0.53 0 0 1 9.103,6.81 0.53,0.53 0 0 1 8.573,6.28 0.53,0.53 0 0 1 9.103,5.75 Z"
     id="path2"
     inkscape:connector-curvature="0"
     style="fill:#bde6fb;fill-opacity:1" />
</svg>
