<?xml version="1.0" encoding="UTF-8" standalone="no"?>
<svg
   width="47.542679"
   height="47.546455"
   viewBox="0 0 12.579 12.58"
   version="1.1"
   id="svg6"
   sodipodi:docname="nikto.svg"
   inkscape:version="0.92.5 (2060ec1f9f, 2020-04-08)"
   xmlns:inkscape="http://www.inkscape.org/namespaces/inkscape"
   xmlns:sodipodi="http://sodipodi.sourceforge.net/DTD/sodipodi-0.dtd"
   xmlns="http://www.w3.org/2000/svg"
   xmlns:svg="http://www.w3.org/2000/svg"
   xmlns:rdf="http://www.w3.org/1999/02/22-rdf-syntax-ns#"
   xmlns:cc="http://creativecommons.org/ns#"
   xmlns:dc="http://purl.org/dc/elements/1.1/">
  <metadata
     id="metadata12">
    <rdf:RDF>
      <cc:Work
         rdf:about="">
        <dc:format>image/svg+xml</dc:format>
        <dc:type
           rdf:resource="http://purl.org/dc/dcmitype/StillImage" />
        <dc:title />
      </cc:Work>
    </rdf:RDF>
  </metadata>
  <defs
     id="defs10" />
  <sodipodi:namedview
     pagecolor="#ffffff"
     bordercolor="#666666"
     borderopacity="1"
     objecttolerance="10"
     gridtolerance="10"
     guidetolerance="10"
     inkscape:pageopacity="0"
     inkscape:pageshadow="2"
     inkscape:window-width="1085"
     inkscape:window-height="480"
     id="namedview8"
     showgrid="false"
     inkscape:zoom="4.9166667"
     inkscape:cx="2.1355932"
     inkscape:cy="24"
     inkscape:window-x="0"
     inkscape:window-y="25"
     inkscape:window-maximized="0"
     inkscape:current-layer="svg6"
     inkscape:showpageshadow="0"
     inkscape:pagecheckerboard="0"
     inkscape:deskcolor="#d1d1d1" />
  <path
     d="M 6.285,0 A 6.295,6.295 0 0 0 0,6.285 6.295,6.295 0 0 0 6.285,12.58 6.295,6.295 0 0 0 12.579,6.285 6.295,6.295 0 0 0 6.285,0 Z M 6.274,0.94 a 5.408,5.408 0 0 1 5.397,5.387 5.407,5.407 0 0 1 -10.814,0 C 0.857,3.34 3.287,0.94 6.274,0.94 Z"
     id="path2"
     inkscape:connector-curvature="0"
     style="fill:#bde6fb;fill-opacity:1" />
  <path
     d="m 6.295,2.042 c -1.462,0 -3.257,1.352 -3.257,3.352 0,3.967 3.223,5.114 3.257,5.114 0,0 3.257,-1.118 3.257,-5.114 0,-1.98 -1.795,-3.352 -3.257,-3.352 z m -2.557,4.28 0.27,0.01 a 1.834,1.834 0 0 1 0.5,0.092 2.232,2.232 0 0 1 0.415,0.18 2.405,2.405 0 0 1 0.195,0.121 L 5.12,6.727 c 0.335,0.23 0.613,0.549 0.72,0.932 L 5.901,7.877 H 5.892 c 0.015,0.08 0.022,0.16 0.02,0.24 L 5.766,7.889 5.676,7.897 5.588,7.903 A 2.07,2.07 0 0 1 5.095,7.87 1.558,1.558 0 0 1 4.485,7.598 1.529,1.529 0 0 1 4.321,7.453 C 4.099,7.227 3.937,6.928 3.822,6.58 Z m 5.114,0 L 8.767,6.58 C 8.635,6.981 8.44,7.318 8.161,7.552 A 1.476,1.476 0 0 1 7.495,7.869 2.005,2.005 0 0 1 6.913,7.897 L 6.823,7.889 6.677,8.117 C 6.675,8.037 6.683,7.957 6.697,7.878 L 6.687,7.877 6.749,7.659 C 6.856,7.276 7.134,6.958 7.469,6.727 L 7.472,6.725 a 2.408,2.408 0 0 1 0.33,-0.19 C 8.053,6.416 8.322,6.344 8.581,6.333 l 0.27,-0.011 z"
     id="path4"
     inkscape:connector-curvature="0"
     style="opacity:0.8;fill:#00aa88" />
</svg>
