<?xml version="1.0" encoding="UTF-8" standalone="no"?>
<svg
   width="47.542679"
   height="47.546455"
   viewBox="0 0 12.579 12.58"
   version="1.1"
   id="svg4"
   sodipodi:docname="nishang.svg"
   inkscape:version="0.92.5 (2060ec1f9f, 2020-04-08)"
   xmlns:inkscape="http://www.inkscape.org/namespaces/inkscape"
   xmlns:sodipodi="http://sodipodi.sourceforge.net/DTD/sodipodi-0.dtd"
   xmlns="http://www.w3.org/2000/svg"
   xmlns:svg="http://www.w3.org/2000/svg"
   xmlns:rdf="http://www.w3.org/1999/02/22-rdf-syntax-ns#"
   xmlns:cc="http://creativecommons.org/ns#"
   xmlns:dc="http://purl.org/dc/elements/1.1/">
  <metadata
     id="metadata10">
    <rdf:RDF>
      <cc:Work
         rdf:about="">
        <dc:format>image/svg+xml</dc:format>
        <dc:type
           rdf:resource="http://purl.org/dc/dcmitype/StillImage" />
        <dc:title />
      </cc:Work>
    </rdf:RDF>
  </metadata>
  <defs
     id="defs8" />
  <sodipodi:namedview
     pagecolor="#ffffff"
     bordercolor="#666666"
     borderopacity="1"
     objecttolerance="10"
     gridtolerance="10"
     guidetolerance="10"
     inkscape:pageopacity="0"
     inkscape:pageshadow="2"
     inkscape:window-width="1085"
     inkscape:window-height="480"
     id="namedview6"
     showgrid="false"
     inkscape:zoom="4.9166667"
     inkscape:cx="2.1355932"
     inkscape:cy="24"
     inkscape:window-x="0"
     inkscape:window-y="25"
     inkscape:window-maximized="0"
     inkscape:current-layer="svg4"
     inkscape:showpageshadow="0"
     inkscape:pagecheckerboard="0"
     inkscape:deskcolor="#d1d1d1" />
  <path
     d="M 6.285,0 A 6.295,6.295 0 0 0 0,6.285 6.295,6.295 0 0 0 6.285,12.58 6.295,6.295 0 0 0 12.579,6.285 6.295,6.295 0 0 0 6.285,0 Z M 6.274,0.94 a 5.408,5.408 0 0 1 5.397,5.387 5.407,5.407 0 0 1 -10.814,0 C 0.857,3.34 3.287,0.94 6.274,0.94 Z m -3.67,2.157 a 0.359,0.359 0 0 0 -0.358,0.36 v 5.637 c 0,0.198 0.16,0.359 0.359,0.359 h 7.38 c 0.198,0 0.359,-0.161 0.359,-0.36 V 3.457 A 0.359,0.359 0 0 0 9.985,3.098 H 2.605 Z M 6.501,4.642 H 6.868 L 7.963,7.183 H 7.596 Z M 4.218,4.717 c 0.647,0 1.02,0.316 1.138,0.964 H 4.971 C 4.885,5.268 4.651,5.05 4.173,5.05 c -0.57,0 -0.927,0.465 -0.927,1.222 0,0.737 0.372,1.207 0.96,1.207 0.493,0 0.732,-0.28 0.821,-0.838 h 0.389 c -0.09,0.781 -0.494,1.17 -1.214,1.17 -1.065,0 -1.333,-0.931 -1.333,-1.534 0,-0.616 0.272,-1.56 1.349,-1.56 z M 5.706,5.704 H 6.094 V 6.091 H 5.706 Z m 0,1.442 H 6.094 V 7.533 H 5.706 V 7.145 Z M 7.564,7.541 H 9.721 V 7.908 H 7.564 Z"
     id="path2"
     inkscape:connector-curvature="0"
     style="fill:#bde6fb;fill-opacity:1" />
</svg>
