<?xml version="1.0" encoding="UTF-8" standalone="no"?>
<svg
   width="47.546486"
   height="47.546486"
   viewBox="0 0 12.580008 12.580008"
   version="1.1"
   id="svg14"
   sodipodi:docname="nmap.svg"
   inkscape:version="0.92.4 (5da689c313, 2019-01-14)"
   xmlns:inkscape="http://www.inkscape.org/namespaces/inkscape"
   xmlns:sodipodi="http://sodipodi.sourceforge.net/DTD/sodipodi-0.dtd"
   xmlns:xlink="http://www.w3.org/1999/xlink"
   xmlns="http://www.w3.org/2000/svg"
   xmlns:svg="http://www.w3.org/2000/svg"
   xmlns:rdf="http://www.w3.org/1999/02/22-rdf-syntax-ns#"
   xmlns:cc="http://creativecommons.org/ns#"
   xmlns:dc="http://purl.org/dc/elements/1.1/">
  <metadata
     id="metadata18">
    <rdf:RDF>
      <cc:Work
         rdf:about="">
        <dc:format>image/svg+xml</dc:format>
        <dc:type
           rdf:resource="http://purl.org/dc/dcmitype/StillImage" />
        <dc:title />
      </cc:Work>
    </rdf:RDF>
  </metadata>
  <sodipodi:namedview
     pagecolor="#ffffff"
     bordercolor="#666666"
     borderopacity="1"
     objecttolerance="10"
     gridtolerance="10"
     guidetolerance="10"
     inkscape:pageopacity="0"
     inkscape:pageshadow="2"
     inkscape:window-width="1087"
     inkscape:window-height="480"
     id="namedview16"
     showgrid="false"
     inkscape:zoom="4.9166667"
     inkscape:cx="2.1355932"
     inkscape:cy="24"
     inkscape:window-x="0"
     inkscape:window-y="25"
     inkscape:window-maximized="0"
     inkscape:current-layer="svg14"
     inkscape:showpageshadow="0"
     inkscape:pagecheckerboard="0"
     inkscape:deskcolor="#d1d1d1" />
  <defs
     id="defs8">
    <linearGradient
       id="swatch1"
       inkscape:swatch="solid">
      <stop
         style="stop-color:#ffffff;stop-opacity:1;"
         offset="0"
         id="stop1" />
    </linearGradient>
    <linearGradient
       id="a">
      <stop
         offset="0"
         stop-color="#1e3f5a"
         id="stop2"
         style="stop-color:#bde6fb;stop-opacity:1;" />
      <stop
         offset="1"
         stop-color="#1e3f5a"
         stop-opacity="0"
         id="stop4" />
    </linearGradient>
    <linearGradient
       xlink:href="#a"
       id="b"
       x1="1.487"
       y1="7.1490002"
       x2="5.0619998"
       y2="4.1230001"
       gradientUnits="userSpaceOnUse"
       gradientTransform="rotate(-163.367,6.336,6.31)" />
    <linearGradient
       inkscape:collect="always"
       xlink:href="#swatch1"
       id="linearGradient1"
       x1="4.6799998"
       y1="9.147727"
       x2="12.085"
       y2="9.147727"
       gradientUnits="userSpaceOnUse" />
  </defs>
  <path
     d="m 6.2860079,6.24 -1.656,5.57 c 4.09,0.607 5.9340001,-1.503 7.4050001,-3.853 z"
     id="path10"
     style="fill:url(#b);stroke:url(#linearGradient1);stroke-width:0.29"
     inkscape:connector-curvature="0" />
  <path
     d="M 6.2900079,0 A 6.29,6.29 0 0 0 7.9490244e-6,6.3 6.29,6.29 0 0 0 6.3000079,12.58 6.29,6.29 0 0 0 12.580008,6.29 6.29,6.29 0 0 0 6.2900079,0 Z m -0.02,0.93 0.01,0.01 A 5.4,5.4 0 0 1 11.680008,6.34 5.4,5.4 0 0 1 6.2800079,11.75 5.4,5.4 0 0 1 0.87000795,6.35 5.4,5.4 0 0 1 6.2700079,0.93 Z m 0.028,1.044 a 0.306,0.306 0 0 0 -0.305,0.305 v 0.669 a 3.342,3.342 0 0 0 -3.025,3.028 h -0.669 a 0.302,0.302 0 0 0 -0.305,0.306 c 0,0.168 0.141,0.305 0.305,0.305 h 0.669 a 3.342,3.342 0 0 0 3.028,3.025 v 0.669 c 0,0.164 0.134,0.305 0.306,0.305 a 0.306,0.306 0 0 0 0.305,-0.305 V 9.612 a 3.342,3.342 0 0 0 3.025,-3.025 h 0.6690001 a 0.306,0.306 0 0 0 0.305,-0.305 0.306,0.306 0 0 0 -0.305,-0.306 H 9.6320079 a 3.342,3.342 0 0 0 -3.028,-3.024 V 2.279 a 0.306,0.306 0 0 0 -0.306,-0.305 z m -0.302,1.585 v 1.226 c 0,0.164 0.134,0.305 0.306,0.305 a 0.306,0.306 0 0 0 0.305,-0.305 V 3.563 a 2.735,2.735 0 0 1 2.414,2.413 h -1.226 a 0.306,0.306 0 0 0 -0.305,0.306 c 0,0.164 0.133,0.305 0.305,0.305 h 1.226 a 2.735,2.735 0 0 1 -2.414,2.414 V 7.78 a 0.306,0.306 0 0 0 -0.305,-0.305 0.306,0.306 0 0 0 -0.306,0.305 v 1.222 a 2.735,2.735 0 0 1 -2.416,-2.415 h 1.226 a 0.306,0.306 0 0 0 0.305,-0.305 0.31,0.31 0 0 0 -0.305,-0.306 h -1.227 a 2.735,2.735 0 0 1 2.417,-2.416 z"
     id="path12"
     inkscape:connector-curvature="0"
     style="fill:#bde6fb;fill-opacity:1;stroke-width:3.78" />
</svg>
