<?xml version="1.0" encoding="UTF-8" standalone="no"?>
<svg
   width="47.546486"
   height="47.546608"
   viewBox="0 0 12.580008 12.58004"
   version="1.1"
   id="svg6"
   sodipodi:docname="nvidia-settings.svg"
   inkscape:version="0.92.4 (5da689c313, 2019-01-14)"
   xmlns:inkscape="http://www.inkscape.org/namespaces/inkscape"
   xmlns:sodipodi="http://sodipodi.sourceforge.net/DTD/sodipodi-0.dtd"
   xmlns="http://www.w3.org/2000/svg"
   xmlns:svg="http://www.w3.org/2000/svg"
   xmlns:rdf="http://www.w3.org/1999/02/22-rdf-syntax-ns#"
   xmlns:cc="http://creativecommons.org/ns#"
   xmlns:dc="http://purl.org/dc/elements/1.1/">
  <defs
     id="defs10" />
  <sodipodi:namedview
     pagecolor="#ffffff"
     bordercolor="#666666"
     borderopacity="1"
     objecttolerance="10"
     gridtolerance="10"
     guidetolerance="10"
     inkscape:pageopacity="0"
     inkscape:pageshadow="2"
     inkscape:window-width="1087"
     inkscape:window-height="480"
     id="namedview8"
     showgrid="false"
     inkscape:zoom="4.9166667"
     inkscape:cx="2.1355932"
     inkscape:cy="24"
     inkscape:window-x="0"
     inkscape:window-y="25"
     inkscape:window-maximized="0"
     inkscape:current-layer="svg6"
     inkscape:showpageshadow="0"
     inkscape:pagecheckerboard="0"
     inkscape:deskcolor="#d1d1d1" />
  <metadata
     id="metadata2">
    <rdf:RDF>
      <cc:Work>
        <dc:format>image/svg+xml</dc:format>
        <dc:type
           rdf:resource="http://purl.org/dc/dcmitype/StillImage" />
        <dc:title />
      </cc:Work>
    </rdf:RDF>
  </metadata>
  <path
     d="M 6.280008,3.1791329e-5 A 6.29,6.29 0 0 0 7.9585612e-6,6.3000318 6.29,6.29 0 0 0 6.280008,12.580032 a 6.29,6.29 0 0 0 6.3,-6.2900002 6.29,6.29 0 0 0 -6.31,-6.290000008671 z M 6.270008,0.94003179 a 5.4,5.4 0 0 1 5.4,5.40000001 5.4,5.4 0 0 1 -5.4,5.4100002 A 5.4,5.4 0 0 1 0.86000796,6.3500318 5.4,5.4 0 0 1 6.260008,0.93003179 Z m -0.86,3.04000001 c -1.97,0.17 -3.66,1.83 -3.66,1.83 0,0 0.96,2.84 3.7,3.1 l 0.34,0.03 c 1.44,0 3.96,-0.76 5.05,-1.68 -0.16,-0.16 -0.91,-0.54 -1.1,-0.7 -1.15,1 -2.34,1.87 -3.98,1.87 l -0.32,-0.03 c -2,-0.25 -2.68,-2.47 -2.68,-2.47 0,0 0.88,-1.34 2.65,-1.49 h 0.13 c 1.62,-0.05 2.72,1.4 2.72,1.4 0,0 -1.17,1.6 -2.4,1.6 -0.17,0 -0.31,-0.05 -0.45,-0.1 -0.85,-0.28 -1.13,-1.29 -1.13,-1.29 0,0 0.4,-0.44 0.91,-0.5 h 0.22 c 0.6,0.08 0.74,0.4 1.1,1 l 0.86,-0.72 c 0,0 -0.63,-0.8 -1.67,-0.8 -0.1,0 -0.2,0.02 -0.29,0.03 -1.2,0.13 -1.92,0.95 -1.92,0.95 0,0 0.4,1.56 1.92,1.83 0.13,0.02 0.27,0.03 0.41,0.03 1.76,0 3.45,-2.05 3.45,-2.05 0,0 -1.47,-1.91 -3.73,-1.84 z m 1.76,2.35 v 0.01 h 0.04 v -0.01 z"
     id="path4"
     inkscape:connector-curvature="0"
     style="fill:#bde6fb;fill-opacity:1" />
</svg>
