<?xml version="1.0" encoding="UTF-8" standalone="no"?>
<svg
   width="47.543434"
   height="47.543434"
   version="1.1"
   viewBox="0 0 12.5792 12.5792"
   id="svg10"
   sodipodi:docname="nvim.svg"
   inkscape:version="0.92.4 (5da689c313, 2019-01-14)"
   xmlns:inkscape="http://www.inkscape.org/namespaces/inkscape"
   xmlns:sodipodi="http://sodipodi.sourceforge.net/DTD/sodipodi-0.dtd"
   xmlns="http://www.w3.org/2000/svg"
   xmlns:svg="http://www.w3.org/2000/svg"
   xmlns:rdf="http://www.w3.org/1999/02/22-rdf-syntax-ns#"
   xmlns:cc="http://creativecommons.org/ns#"
   xmlns:dc="http://purl.org/dc/elements/1.1/">
  <metadata
     id="metadata16">
    <rdf:RDF>
      <cc:Work
         rdf:about="">
        <dc:format>image/svg+xml</dc:format>
        <dc:type
           rdf:resource="http://purl.org/dc/dcmitype/StillImage" />
        <dc:title />
      </cc:Work>
    </rdf:RDF>
  </metadata>
  <defs
     id="defs14" />
  <sodipodi:namedview
     pagecolor="#ffffff"
     bordercolor="#666666"
     borderopacity="1"
     objecttolerance="10"
     gridtolerance="10"
     guidetolerance="10"
     inkscape:pageopacity="0"
     inkscape:pageshadow="2"
     inkscape:window-width="1136"
     inkscape:window-height="480"
     id="namedview12"
     showgrid="false"
     inkscape:zoom="4.9166667"
     inkscape:cx="2.1355932"
     inkscape:cy="24"
     inkscape:window-x="0"
     inkscape:window-y="25"
     inkscape:window-maximized="0"
     inkscape:current-layer="svg10"
     inkscape:showpageshadow="0"
     inkscape:pagecheckerboard="0"
     inkscape:deskcolor="#d1d1d1" />
  <path
     d="M 6.2844,0 C 2.816,0.0057471 0.0058,2.816 0,6.2844 c -4.6090225e-6,3.4725 2.8119,6.289 6.2844,6.2948 3.4765,0 6.2948,-2.8183 6.2948,-6.2948 C 12.5734,2.812 9.7568,0 6.2844,0 Z M 6.273961,0.93952 c 2.9743,0.00572 5.3856,2.4124 5.397,5.3866 0,2.9865 -2.421,5.4075 -5.4075,5.4075 -2.9865,0 -5.4075,-2.421 -5.4075,-5.4075 0,-2.9865 2.4314,-5.3866 5.4179,-5.3866 z"
     id="path2"
     inkscape:connector-curvature="0"
     style="fill:#bde6fb;fill-opacity:1;stroke-width:1.0439" />
  <path
     d="m 7.776168,6.8020755 1.49239,2.1316152 0.35967,-0.2516605 V 3.8669388 L 7.776168,2.5703909 v 4.2316926 z"
     id="path4"
     inkscape:connector-curvature="0"
     style="opacity:0.8;fill:#6ba63f;stroke-width:0.185206" />
  <path
     d="M 4.812872,5.7469305 3.3204821,3.6153153 2.9613412,3.8669758 2.9608245,8.6820672 4.8128845,9.978615 V 5.7469225 Z"
     id="path6"
     inkscape:connector-curvature="0"
     style="opacity:0.8;fill:#42afe6;stroke-width:0.185206" />
  <path
     d="m 4.8129,2.570383 4.4557,6.3636 -1.4924,1.0448 -4.4557,-6.3634 z"
     id="path8"
     inkscape:connector-curvature="0"
     style="opacity:0.8;fill:#96ca6b;stroke-width:0.18521" />
</svg>
