<?xml version="1.0" encoding="UTF-8" standalone="no"?>
<svg
   width="48"
   height="48"
   viewBox="0 0 12.7 12.7"
   version="1.1"
   id="svg4"
   sodipodi:docname="octave.svg"
   inkscape:version="0.92.5 (2060ec1f9f, 2020-04-08)"
   xmlns:inkscape="http://www.inkscape.org/namespaces/inkscape"
   xmlns:sodipodi="http://sodipodi.sourceforge.net/DTD/sodipodi-0.dtd"
   xmlns="http://www.w3.org/2000/svg"
   xmlns:svg="http://www.w3.org/2000/svg">
  <sodipodi:namedview
     id="namedview1"
     pagecolor="#505050"
     bordercolor="#eeeeee"
     borderopacity="1"
     inkscape:showpageshadow="0"
     inkscape:pageopacity="0"
     inkscape:pagecheckerboard="0"
     inkscape:deskcolor="#d1d1d1" />
  <defs
     id="defs8">
    <style
       id="current-color-scheme"
       type="text/css">&#10;      .ColorScheme-Highlight {&#10;        color:#1e3f5a;&#10;      }&#10;  </style>
  </defs>
  <path
     class="ColorScheme-Highlight"
     style="fill:#bde6fb;fill-opacity:1;stroke-width:0.264583"
     d="M 6.3499999,0 A 6.3499999,6.3499999 0 0 0 0,6.3499999 6.3499999,6.3499999 0 0 0 6.3499999,12.7 6.3499999,6.3499999 0 0 0 12.7,6.3499999 6.3499999,6.3499999 0 0 0 6.3499999,0 Z m 0,0.79374999 A 5.5562499,5.5562499 0 0 1 11.90625,6.3499999 5.5562499,5.5562499 0 0 1 6.3499999,11.90625 5.5562499,5.5562499 0 0 1 0.79374999,6.3499999 5.5562499,5.5562499 0 0 1 6.3499999,0.79374999 Z m 0,1.58750001 A 3.96875,3.96875 0 0 0 2.5295613,5.2916666 H 1.5875 V 7.4083332 H 2.5295613 A 3.96875,3.96875 0 0 0 6.3499999,10.31875 3.96875,3.96875 0 0 0 8.3162882,9.7895832 h 1.473295 V 8.3162882 A 3.96875,3.96875 0 0 0 10.31875,6.3499999 3.96875,3.96875 0 0 0 9.7895832,4.3837116 V 2.9104166 H 8.3162882 A 3.96875,3.96875 0 0 0 6.3499999,2.38125 Z m 0,0.5291666 a 3.4395833,3.4395833 0 0 1 0.3431315,0.017052 3.4395833,3.4395833 0 0 1 0.3400309,0.051677 3.4395833,3.4395833 0 0 1 0.3333131,0.084749 3.4395833,3.4395833 0 0 1 0.3229776,0.1178224 3.4395833,3.4395833 0 0 1 0.3095419,0.1498616 3.4395833,3.4395833 0 0 1 0.2030883,0.1245409 v 1.0417969 h 1.045931 a 3.4395833,3.4395833 0 0 1 0.1674318,0.2919719 3.4395833,3.4395833 0 0 1 0.1405599,0.3136758 3.4395833,3.4395833 0 0 1 0.1080037,0.3265953 3.4395833,3.4395833 0 0 1 0.075447,0.33538 3.4395833,3.4395833 0 0 1 0.041341,0.3410643 3.4395833,3.4395833 0 0 1 0.00878,0.243396 A 3.4395833,3.4395833 0 0 1 9.77253,6.6931314 3.4395833,3.4395833 0 0 1 9.7208535,7.0331623 3.4395833,3.4395833 0 0 1 9.6361042,7.3664754 3.4395833,3.4395833 0 0 1 9.5182818,7.689453 3.4395833,3.4395833 0 0 1 9.3684203,7.9989949 3.4395833,3.4395833 0 0 1 9.2438801,8.2020832 H 8.2020832 v 1.045931 A 3.4395833,3.4395833 0 0 1 7.9101113,9.415446 3.4395833,3.4395833 0 0 1 7.5964356,9.5560059 3.4395833,3.4395833 0 0 1 7.2698403,9.6640096 3.4395833,3.4395833 0 0 1 6.9344603,9.7394571 3.4395833,3.4395833 0 0 1 6.5933959,9.7807982 3.4395833,3.4395833 0 0 1 6.3499999,9.7895832 3.4395833,3.4395833 0 0 1 6.0068684,9.77253 3.4395833,3.4395833 0 0 1 5.6668376,9.7208535 3.4395833,3.4395833 0 0 1 5.3335245,9.6361042 3.4395833,3.4395833 0 0 1 5.0105468,9.5182818 3.4395833,3.4395833 0 0 1 4.701005,9.3684203 3.4395833,3.4395833 0 0 1 4.4079996,9.1885864 3.4395833,3.4395833 0 0 1 4.1341145,8.980847 3.4395833,3.4395833 0 0 1 3.8824503,8.7462362 3.4395833,3.4395833 0 0 1 3.6555907,8.4878539 3.4395833,3.4395833 0 0 1 3.455603,8.2082845 3.4395833,3.4395833 0 0 1 3.2845539,7.9101113 3.4395833,3.4395833 0 0 1 3.143994,7.5964356 3.4395833,3.4395833 0 0 1 3.0819825,7.4083332 H 3.7041666 V 5.2916666 H 3.0793986 A 3.4395833,3.4395833 0 0 1 3.181718,5.0105468 3.4395833,3.4395833 0 0 1 3.3315796,4.701005 3.4395833,3.4395833 0 0 1 3.5114134,4.4079996 3.4395833,3.4395833 0 0 1 3.7191529,4.1341145 3.4395833,3.4395833 0 0 1 3.9537637,3.8824503 3.4395833,3.4395833 0 0 1 4.212146,3.6555907 3.4395833,3.4395833 0 0 1 4.4917153,3.455603 3.4395833,3.4395833 0 0 1 4.7898885,3.2845539 3.4395833,3.4395833 0 0 1 5.1035643,3.143994 3.4395833,3.4395833 0 0 1 5.4301596,3.0359903 a 3.4395833,3.4395833 0 0 1 0.33538,-0.075448 3.4395833,3.4395833 0 0 1 0.3410643,-0.041341 3.4395833,3.4395833 0 0 1 0.243396,-0.00879 z"
     id="path817" />
</svg>
