<?xml version="1.0" encoding="UTF-8" standalone="no"?>
<svg
   width="47.538898"
   height="47.538898"
   viewBox="0 0 12.578 12.578"
   version="1.1"
   id="svg21"
   sodipodi:docname="offensive-security.svg"
   inkscape:version="0.92.5 (2060ec1f9f, 2020-04-08)"
   xmlns:inkscape="http://www.inkscape.org/namespaces/inkscape"
   xmlns:sodipodi="http://sodipodi.sourceforge.net/DTD/sodipodi-0.dtd"
   xmlns:xlink="http://www.w3.org/1999/xlink"
   xmlns="http://www.w3.org/2000/svg"
   xmlns:svg="http://www.w3.org/2000/svg"
   xmlns:rdf="http://www.w3.org/1999/02/22-rdf-syntax-ns#"
   xmlns:cc="http://creativecommons.org/ns#"
   xmlns:dc="http://purl.org/dc/elements/1.1/">
  <metadata
     id="metadata25">
    <rdf:RDF>
      <cc:Work
         rdf:about="">
        <dc:format>image/svg+xml</dc:format>
        <dc:type
           rdf:resource="http://purl.org/dc/dcmitype/StillImage" />
        <dc:title />
      </cc:Work>
    </rdf:RDF>
  </metadata>
  <sodipodi:namedview
     pagecolor="#ffffff"
     bordercolor="#666666"
     borderopacity="1"
     objecttolerance="10"
     gridtolerance="10"
     guidetolerance="10"
     inkscape:pageopacity="0"
     inkscape:pageshadow="2"
     inkscape:window-width="1087"
     inkscape:window-height="480"
     id="namedview23"
     showgrid="false"
     inkscape:zoom="4.9166667"
     inkscape:cx="2.1355932"
     inkscape:cy="24"
     inkscape:window-x="0"
     inkscape:window-y="25"
     inkscape:window-maximized="0"
     inkscape:current-layer="svg21"
     inkscape:showpageshadow="0"
     inkscape:pagecheckerboard="0"
     inkscape:deskcolor="#d1d1d1" />
  <defs
     id="defs11">
    <linearGradient
       id="a"
       x1="29.087999"
       x2="29.087999"
       y1="2.582"
       y2="64.478996"
       gradientUnits="userSpaceOnUse"
       gradientTransform="matrix(0.61733,0,0,0.61733,5.558,2.832)">
      <stop
         stop-color="#fd3535"
         offset="0"
         id="stop2" />
      <stop
         stop-color="#e43030"
         offset=".639"
         id="stop4" />
      <stop
         stop-color="#d41919"
         offset=".639"
         id="stop6" />
      <stop
         stop-color="#bf1717"
         offset="1"
         id="stop8" />
    </linearGradient>
    <linearGradient
       inkscape:collect="always"
       xlink:href="#a"
       id="linearGradient832"
       gradientUnits="userSpaceOnUse"
       gradientTransform="matrix(0.16333317,0,0,0.16333317,1.4705356,0.74929056)"
       x1="29.087999"
       y1="2.582"
       x2="29.087999"
       y2="64.478996" />
    <linearGradient
       inkscape:collect="always"
       xlink:href="#a"
       id="linearGradient834"
       gradientUnits="userSpaceOnUse"
       gradientTransform="matrix(0.16333317,0,0,0.16333317,1.4705356,0.74929056)"
       x1="29.087999"
       y1="2.582"
       x2="29.087999"
       y2="64.478996" />
    <linearGradient
       inkscape:collect="always"
       xlink:href="#a"
       id="linearGradient836"
       gradientUnits="userSpaceOnUse"
       gradientTransform="matrix(0.16333317,0,0,0.16333317,1.4705356,0.74929056)"
       x1="29.087999"
       y1="2.582"
       x2="29.087999"
       y2="64.478996" />
  </defs>
  <path
     d="M 4.4688742,1.2510522 A 5.4069569,5.4069569 0 0 1 4.8244697,1.132785 5.4069569,5.4069569 0 0 1 5.3520423,1.0142531 5.4069569,5.4069569 0 0 1 5.8883459,0.9491664 5.4069569,5.4069569 0 0 1 6.2709286,0.93593744 5.4069569,5.4069569 0 0 1 6.8106718,0.96266 5.4069569,5.4069569 0 0 1 7.3451234,1.0438861 5.4069569,5.4069569 0 0 1 7.8687272,1.1772344 5.4069569,5.4069569 0 0 1 8.1073784,1.2645458 V 0.82481384 H 4.4688742 Z"
     id="path13"
     style="clip-rule:evenodd;opacity:0.7;fill:url(#linearGradient832);fill-rule:evenodd;stroke-width:0.26458"
     inkscape:connector-curvature="0" />
  <path
     d="m 2.5504046,10.257091 a 5.4069569,5.4069569 0 0 0 0.2370637,0.221189 5.4069569,5.4069569 0 0 0 0.4304717,0.327021 5.4069569,5.4069569 0 0 0 0.4608983,0.282836 5.4069569,5.4069569 0 0 0 0.4862981,0.234947 5.4069569,5.4069569 0 0 0 0.5079936,0.185735 5.4069569,5.4069569 0 0 0 0.5233392,0.133084 5.4069569,5.4069569 0 0 0 0.5344516,0.08123 5.4069569,5.4069569 0 0 0 0.5397432,0.02699 5.4069569,5.4069569 0 0 0 0.3831119,-0.01349 5.4069569,5.4069569 0 0 0 0.5363036,-0.06509 5.4069569,5.4069569 0 0 0 0.5270434,-0.119061 5.4069569,5.4069569 0 0 0 0.5132852,-0.169861 5.4069569,5.4069569 0 0 0 0.4934417,-0.221189 5.4069569,5.4069569 0 0 0 0.4688357,-0.268813 5.4069569,5.4069569 0 0 0 0.4392028,-0.31485 5.4069569,5.4069569 0 0 0 0.3926367,-0.344483 L 8.1068492,7.5120733 8.1073784,1.2645458 A 5.4069569,5.4069569 0 0 0 7.8687272,1.1772344 5.4069569,5.4069569 0 0 0 7.3451234,1.0438861 5.4069569,5.4069569 0 0 0 6.8106718,0.96266 5.4069569,5.4069569 0 0 0 6.2709286,0.93593744 5.4069569,5.4069569 0 0 0 5.8883459,0.9491664 5.4069569,5.4069569 0 0 0 5.3520423,1.0142531 5.4069569,5.4069569 0 0 0 4.8244697,1.132785 5.4069569,5.4069569 0 0 0 4.4688742,1.2510522 V 7.5718684 L 2.5504046,10.257355 Z"
     id="path15"
     style="clip-rule:evenodd;opacity:0.7;fill:url(#linearGradient834);fill-rule:evenodd;stroke-width:0.26458"
     inkscape:connector-curvature="0" />
  <path
     d="m 2.063842,10.937061 a 6.2898603,6.2898603 0 0 0 0.3169669,0.278603 6.2898603,6.2898603 0 0 0 0.5114331,0.365385 6.2898603,6.2898603 0 0 0 0.2997691,0.171977 h 6.2004323 a 6.2898603,6.2898603 0 0 0 0.4476694,-0.274369 6.2898603,6.2898603 0 0 0 0.5005852,-0.380996 6.2898603,6.2898603 0 0 0 0.17674,-0.164568 L 10.024525,10.233279 A 5.4069569,5.4069569 0 0 1 9.6318883,10.578026 5.4069569,5.4069569 0 0 1 9.1926855,10.892877 5.4069569,5.4069569 0 0 1 8.7238498,11.161425 5.4069569,5.4069569 0 0 1 8.2304081,11.382614 5.4069569,5.4069569 0 0 1 7.7171229,11.552739 5.4069569,5.4069569 0 0 1 7.1900795,11.671536 5.4069569,5.4069569 0 0 1 6.6537759,11.736622 5.4069569,5.4069569 0 0 1 6.2709286,11.749851 5.4069569,5.4069569 0 0 1 5.7309208,11.723393 5.4069569,5.4069569 0 0 1 5.1964692,11.641903 5.4069569,5.4069569 0 0 1 4.67313,11.508819 5.4069569,5.4069569 0 0 1 4.1651364,11.323084 5.4069569,5.4069569 0 0 1 3.6788383,11.088137 5.4069569,5.4069569 0 0 1 3.21794,10.805301 5.4069569,5.4069569 0 0 1 2.7874683,10.47828 5.4069569,5.4069569 0 0 1 2.5501401,10.257091 Z"
     id="path17"
     style="clip-rule:evenodd;opacity:0.7;fill:url(#linearGradient836);fill-rule:evenodd;stroke-width:0.26458"
     inkscape:connector-curvature="0" />
  <path
     d="M 6.289,0 A 6.29,6.29 0 0 0 0,6.289 6.29,6.29 0 0 0 6.289,12.578 6.29,6.29 0 0 0 12.578,6.289 6.29,6.29 0 0 0 6.289,0 Z M 6.271,0.936 A 5.407,5.407 0 0 1 11.678,6.343 5.407,5.407 0 0 1 6.271,11.75 5.407,5.407 0 0 1 0.864,6.343 5.407,5.407 0 0 1 6.271,0.936 Z M 6.109,1.621 C 6.032,1.595 5.933,1.71 5.905,1.768 5.856,1.864 5.828,2.088 5.856,2.174 c 0.03,0.087 0.106,0.154 0.106,0.232 0,0.077 0.01,0.135 -0.077,0.232 C 5.8,2.732 5.624,2.743 5.463,2.825 A 0.078,0.078 0 0 0 5.431,2.855 C 5.369,2.955 5.368,3.28 5.356,3.488 5.352,3.545 5.362,3.606 5.363,3.663 a 1.99,1.99 0 0 1 0,0.134 c -0.004,0.08 -0.022,0.16 -0.03,0.241 a 0.389,0.389 0 0 0 0.008,0.116 l 0.055,0.243 c 0.03,0.13 0.06,0.261 0.104,0.387 0.005,0.014 0.01,0.028 0.02,0.04 0.02,0.022 0.059,0.02 0.083,0.041 a 0.17,0.17 0 0 1 0.046,0.071 c 0.02,0.054 0.016,0.113 0.034,0.167 0.048,0.145 0.212,0.792 0.26,1.062 0.025,0.14 0.05,0.449 0.076,0.728 C 6.031,7.017 6.052,7.135 6.059,7.23 6.066,7.336 6.062,7.417 6.061,7.44 6.056,7.522 6.1,7.453 6.109,7.509 6.113,7.531 6.094,7.549 6.062,7.582 5.974,7.672 5.859,7.765 5.808,7.827 5.764,7.883 5.721,7.94 5.804,7.962 A 0.068,0.068 0 0 0 5.791,8.01 C 5.796,8.054 5.822,8.067 5.855,8.088 5.9,8.118 6.011,8.17 6.022,8.208 6.027,8.225 6.004,8.211 5.984,8.226 5.978,8.23 5.95,8.301 5.941,8.316 A 2.254,2.254 0 0 0 5.823,8.512 0.874,0.874 0 0 1 5.733,8.659 C 5.611,8.812 5.497,8.974 5.371,9.123 A 0.22,0.22 0 0 1 5.246,9.19 L 5.203,9.198 A 0.2,0.2 0 0 0 5.138,9.226 C 5.132,9.23 4.908,9.458 4.82,9.532 A 0.089,0.089 0 0 0 4.79,9.59 C 4.787,9.61 4.792,9.623 4.794,9.64 A 0.362,0.362 0 0 1 4.775,9.802 C 4.768,9.822 4.755,9.841 4.748,9.86 a 0.414,0.414 0 0 0 -0.02,0.087 c -0.011,0.064 -0.025,0.126 -0.03,0.19 a 0.335,0.335 0 0 0 0.008,0.122 c 0.005,0.02 0.015,0.039 0.034,0.054 0.02,0.014 0.134,0.028 0.165,0.029 0.108,0.004 0.226,0.005 0.331,0.014 0.083,0.007 0.169,0.015 0.243,0.028 a 0.893,0.893 0 0 1 0.237,0.078 c 0.052,0.026 0.066,0.06 0.076,0.094 0.01,0.036 -0.026,0.09 -0.057,0.108 -0.022,0.012 -0.173,0.084 -0.21,0.103 a 0.376,0.376 0 0 0 -0.136,0.136 0.479,0.479 0 0 0 0.002,0.255 c 0.022,0.06 0.059,0.109 0.117,0.152 a 0.88,0.88 0 0 0 0.445,0.141 c 0.025,0 0.133,-0.006 0.186,10e-4 0.027,0.004 0.062,0.012 0.089,0.015 a 0.839,0.839 0 0 0 0.225,0.008 c 0.09,-0.012 0.19,-0.04 0.266,-0.066 a 0.829,0.829 0 0 0 0.247,-0.13 C 7.04,11.22 7.05,11.173 7.041,11.093 7.033,11.013 6.874,10.846 6.817,10.785 6.773,10.739 6.65,10.624 6.643,10.609 6.637,10.594 6.636,10.594 6.647,10.582 6.658,10.569 6.899,10.456 6.972,10.442 7.005,10.435 7.429,10.422 7.539,10.415 7.619,10.409 7.754,10.39 7.805,10.318 A 0.603,0.603 0 0 0 7.879,10.016 C 7.867,9.961 7.802,9.733 7.832,9.698 7.861,9.664 7.867,9.651 7.866,9.628 7.864,9.602 7.849,9.548 7.845,9.509 7.841,9.469 7.815,9.407 7.807,9.364 7.797,9.322 7.755,9.252 7.699,9.254 7.639,9.259 7.649,9.282 7.597,9.242 A 0.565,0.565 0 0 1 7.45,9.069 C 7.415,9.001 7.304,8.799 7.292,8.765 7.282,8.735 7.229,8.601 7.222,8.57 A 1.753,1.753 0 0 1 7.206,8.353 c 0,-0.05 -0.03,-0.09 0,-0.101 C 7.236,8.242 7.32,8.187 7.325,8.121 A 0.075,0.075 0 0 0 7.306,8.061 0.111,0.111 0 0 0 7.326,8.018 C 7.346,7.94 7.197,7.737 7.169,7.669 7.156,7.639 7.14,7.588 7.149,7.555 7.151,7.545 7.165,7.556 7.174,7.544 A 0.503,0.503 0 0 0 7.165,7.39 4.026,4.026 0 0 1 7.12,7.05 C 7.118,6.985 7.106,6.598 7.097,6.511 7.087,6.424 7.032,6.031 7.04,5.866 7.059,5.534 7.04,4.822 7.06,4.774 7.079,4.725 7.156,4.744 7.194,4.696 7.233,4.648 7.224,4.619 7.233,4.532 a 0.864,0.864 0 0 0 -0.029,-0.28 0.78,0.78 0 0 1 0,-0.261 C 7.214,3.904 7.136,3.884 7.088,3.827 7.04,3.769 7.098,3.372 7.078,3.237 L 7.071,3.187 A 6.77,6.77 0 0 0 7.023,2.931 C 7.011,2.874 7.003,2.811 6.983,2.757 6.951,2.665 6.815,2.653 6.734,2.629 A 6.392,6.392 0 0 0 6.492,2.56 C 6.453,2.55 6.338,2.454 6.328,2.406 6.318,2.357 6.511,2.077 6.501,1.903 A 0.32,0.32 0 0 0 6.369,1.678 0.294,0.294 0 0 0 6.277,1.626 C 6.232,1.613 6.196,1.649 6.153,1.64 6.137,1.637 6.123,1.626 6.109,1.621 Z m 0.3,3.715 c 0.01,0.002 0.019,0.013 0.026,0.03 0.013,0.036 0.068,0.27 0.074,0.358 0.01,0.132 0.06,0.433 0.058,0.549 -0.003,0.115 0.054,0.497 0.067,0.564 0.014,0.067 0.024,0.172 0.031,0.286 0.008,0.113 0,0.252 -0.002,0.352 0,0.04 0.032,0.027 0.021,0.055 C 6.668,7.572 6.647,7.731 6.664,7.76 A 0.268,0.268 0 0 0 6.68,7.783 0.067,0.067 0 0 0 6.655,7.829 C 6.649,7.895 6.716,8.004 6.677,8.014 6.65,8.022 6.654,8.044 6.653,8.088 a 4.66,4.66 0 0 0 0,0.3 C 6.658,8.435 6.648,8.48 6.645,8.527 6.638,8.629 6.607,8.773 6.575,8.797 A 0.147,0.147 0 0 1 6.483,8.825 0.102,0.102 0 0 1 6.411,8.786 C 6.328,8.67 6.383,8.474 6.421,8.325 6.422,8.316 6.406,8.308 6.408,8.3 6.421,8.253 6.464,8.234 6.471,8.197 6.494,8.073 6.456,8.055 6.377,8.023 6.343,8.009 6.278,8.008 6.243,7.998 A 1.34,1.34 0 0 1 6.109,7.938 c 0,0 0.093,-0.054 0.142,-0.064 C 6.299,7.864 6.397,7.825 6.445,7.81 6.519,7.786 6.516,7.747 6.524,7.672 6.531,7.603 6.473,7.528 6.467,7.465 6.464,7.43 6.504,7.454 6.501,7.423 6.495,7.361 6.526,7.218 6.514,7.113 6.496,6.953 6.443,6.773 6.434,6.654 6.431,6.602 6.404,6.344 6.394,6.071 6.391,5.981 6.401,5.889 6.401,5.803 6.399,5.563 6.358,5.373 6.371,5.358 6.385,5.341 6.398,5.334 6.408,5.336 Z"
     id="path19"
     inkscape:connector-curvature="0"
     style="clip-rule:evenodd;fill:#bde6fb;fill-opacity:1;fill-rule:evenodd" />
</svg>
