<?xml version="1.0" encoding="UTF-8" standalone="no"?>
<svg
   width="48"
   height="48"
   viewBox="0 0 12.7 12.7"
   version="1.1"
   id="svg4"
   sodipodi:docname="okteta.svg"
   inkscape:version="0.92.5 (2060ec1f9f, 2020-04-08)"
   xmlns:inkscape="http://www.inkscape.org/namespaces/inkscape"
   xmlns:sodipodi="http://sodipodi.sourceforge.net/DTD/sodipodi-0.dtd"
   xmlns="http://www.w3.org/2000/svg"
   xmlns:svg="http://www.w3.org/2000/svg">
  <sodipodi:namedview
     id="namedview1"
     pagecolor="#505050"
     bordercolor="#eeeeee"
     borderopacity="1"
     inkscape:showpageshadow="0"
     inkscape:pageopacity="0"
     inkscape:pagecheckerboard="0"
     inkscape:deskcolor="#d1d1d1" />
  <defs
     id="defs8">
    <style
       id="current-color-scheme"
       type="text/css">&#10;      .ColorScheme-Highlight {&#10;        color:#1e3f5a;&#10;      }&#10;  </style>
  </defs>
  <path
     class="ColorScheme-Highlight"
     style="fill:#bde6fb;fill-opacity:1;stroke-width:0.264583"
     d="M 6.3499999,0 A 6.3499999,6.3499999 0 0 0 0,6.3499999 6.3499999,6.3499999 0 0 0 6.3499999,12.7 6.3499999,6.3499999 0 0 0 12.7,6.3499999 6.3499999,6.3499999 0 0 0 6.3499999,0 Z m 0,0.79374999 A 5.5562499,5.5562499 0 0 1 6.6145833,0.8071858 V 2.6458333 H 7.1437499 V 0.85782877 a 5.5562499,5.5562499 0 0 1 0.79375,0.17001543 V 2.6458333 H 8.4666666 V 1.2154297 a 5.5562499,5.5562499 0 0 1 0.79375,0.4097941 V 2.6458333 H 9.7895832 V 1.9936767 A 5.5562499,5.5562499 0 0 1 11.90625,6.3499999 5.5562499,5.5562499 0 0 1 9.5249999,10.90166 V 10.583333 H 8.9958332 v 0.646472 a 5.5562499,5.5562499 0 0 1 -0.79375,0.352434 V 10.583333 H 7.6729166 v 1.157036 a 5.5562499,5.5562499 0 0 1 -0.79375,0.135392 v -0.498678 c 0,-0.439737 -0.3540125,-0.79375 -0.79375,-0.79375 -0.4397375,0 -0.79375,0.354013 -0.79375,0.79375 v 0.425297 a 5.5562499,5.5562499 0 0 1 -0.79375,-0.221175 v -0.204122 c 0,-0.439737 -0.354012,-0.79375 -0.79375,-0.79375 -0.2399009,0 -0.4376007,0.11602 -0.5829101,0.283187 A 5.5562499,5.5562499 0 0 1 1.7983398,9.5249999 h 0.3183268 v -2.38125 H 1.5875 V 9.199955 A 5.5562499,5.5562499 0 0 1 0.79374999,6.3499999 5.5562499,5.5562499 0 0 1 0.81752116,5.8766439 c 0.13869908,0.1188633 0.30757264,0.2087727 0.50539554,0.2087727 0.4397374,0 0.7937499,-0.3540125 0.7937499,-0.79375 v -0.79375 c 0,-0.3933883 -0.3008555,-0.6805623 -0.6754109,-0.7446573 a 5.5562499,5.5562499 0 0 1 0.894519,-1.2355836 c 0.1026709,0.048299 0.1886845,0.1281576 0.3100586,0.1281576 0.439738,0 0.79375,-0.3540126 0.79375,-0.79375 V 1.6221232 a 5.5562499,5.5562499 0 0 1 0.79375,-0.4041097 v 0.6340698 c 0,0.4397376 0.3540125,0.79375 0.79375,0.79375 0.4397375,0 0.79375,-0.3540124 0.79375,-0.79375 v -0.79375 c 0,-0.0873495 -0.06615,-0.14476056 -0.091984,-0.22324216 A 5.5562499,5.5562499 0 0 1 6.3499999,0.79374999 Z M 5.2317221,0.91363931 c 0.030124,0.0429666 0.059945,0.0880075 0.059945,0.14469399 v 0.79375 c 0,0.1465792 -0.1180042,0.2645833 -0.2645833,0.2645833 -0.1465792,0 -0.2645834,-0.1180041 -0.2645834,-0.2645833 v -0.79375 c 0,-0.012747 0.01143,-0.02043 0.013436,-0.032556 A 5.5562499,5.5562499 0 0 0 4.3366861,1.1715047 5.5562499,5.5562499 0 0 1 4.7759357,1.0252604 5.5562499,5.5562499 0 0 1 5.2317221,0.91363931 Z M 2.9104166,3.7041666 v 2.38125 h 0.5291667 v -2.38125 z m 1.3229167,0 v 2.38125 h 0.5291666 v -2.38125 z m 2.1166666,0 c -0.4397375,0 -0.79375,0.3540125 -0.79375,0.79375 v 0.79375 c 0,0.4397375 0.3540125,0.79375 0.79375,0.79375 0.4397375,0 0.79375,-0.3540125 0.79375,-0.79375 v -0.79375 c 0,-0.4397375 -0.3540125,-0.79375 -0.79375,-0.79375 z m 1.5875,0 v 2.38125 h 0.5291667 v -2.38125 z m 2.1166671,0 c -0.4397374,0 -0.7937504,0.3540125 -0.7937504,0.79375 v 0.79375 c 0,0.4397375 0.354013,0.79375 0.7937504,0.79375 0.439738,0 0.79375,-0.3540125 0.79375,-0.79375 v -0.79375 c 0,-0.4397375 -0.354012,-0.79375 -0.79375,-0.79375 z M 1.3229167,4.2333333 c 0.1465791,0 0.2645833,0.1180041 0.2645833,0.2645833 v 0.79375 c 0,0.1465792 -0.1180042,0.2645833 -0.2645833,0.2645833 -0.1465791,0 -0.2645834,-0.1180041 -0.2645834,-0.2645833 V 4.6627645 A 5.5562499,5.5562499 0 0 1 1.1963094,4.2860433 c 0.03961,-0.023591 0.076971,-0.05271 0.1266073,-0.05271 z m 5.0270832,0 c 0.1465792,0 0.2645834,0.1180041 0.2645834,0.2645833 v 0.79375 c 0,0.1465792 -0.1180042,0.2645833 -0.2645834,0.2645833 -0.1465791,0 -0.2645833,-0.1180041 -0.2645833,-0.2645833 v -0.79375 c 0,-0.1465792 0.1180042,-0.2645833 0.2645833,-0.2645833 z m 3.7041671,0 c 0.146579,0 0.264583,0.1180041 0.264583,0.2645833 v 0.79375 c 0,0.1465792 -0.118004,0.2645833 -0.264583,0.2645833 -0.1465796,0 -0.2645838,-0.1180041 -0.2645838,-0.2645833 v -0.79375 c 0,-0.1465792 0.1180042,-0.2645833 0.2645838,-0.2645833 z M 2.9104166,7.1437499 v 2.38125 h 0.5291667 v -2.38125 z m 2.1166667,0 c -0.439737,0 -0.79375,0.3540125 -0.79375,0.79375 v 0.79375 c 0,0.4397375 0.354013,0.79375 0.79375,0.79375 0.439738,0 0.79375,-0.3540125 0.79375,-0.79375 v -0.79375 c 0,-0.4397375 -0.354012,-0.79375 -0.79375,-0.79375 z m 2.3812499,0 c -0.4397375,0 -0.7937499,0.3540125 -0.7937499,0.79375 v 0.79375 c 0,0.4397375 0.3540124,0.79375 0.7937499,0.79375 0.4397375,0 0.79375,-0.3540125 0.79375,-0.79375 v -0.79375 c 0,-0.4397375 -0.3540125,-0.79375 -0.79375,-0.79375 z m 1.5875,0 v 2.38125 h 0.5291667 v -2.38125 z m 1.3229168,0 v 2.38125 h 0.529167 v -2.38125 z M 5.0270833,7.6729166 c 0.1465799,0 0.2645833,0.1180041 0.2645833,0.2645833 v 0.79375 c 0,0.1465792 -0.1180034,0.2645833 -0.2645833,0.2645833 -0.1465789,0 -0.2645834,-0.1180041 -0.2645834,-0.2645833 v -0.79375 c 0,-0.1465792 0.1180045,-0.2645833 0.2645834,-0.2645833 z m 2.3812499,0 c 0.1465792,0 0.2645834,0.1180041 0.2645834,0.2645833 v 0.79375 c 0,0.1465792 -0.1180042,0.2645833 -0.2645834,0.2645833 -0.1465791,0 -0.2645833,-0.1180041 -0.2645833,-0.2645833 v -0.79375 c 0,-0.1465792 0.1180042,-0.2645833 0.2645833,-0.2645833 z M 3.7041666,11.1125 c 0.1394585,0 0.2461234,0.109882 0.2568319,0.246497 A 5.5562499,5.5562499 0 0 1 3.5827271,11.162626 c 0.038483,-0.02178 0.073889,-0.05013 0.1214395,-0.05013 z m 2.38125,0 c 0.1465792,0 0.2645833,0.118004 0.2645833,0.264583 V 11.90625 A 5.5562499,5.5562499 0 0 1 5.8208333,11.87938 v -0.502295 c 0,-0.146579 0.1180041,-0.264583 0.2645833,-0.264583 z"
     id="path817" />
</svg>
