<?xml version="1.0" encoding="UTF-8" standalone="no"?>
<svg
   width="47.542679"
   height="47.546455"
   viewBox="0 0 12.579 12.58"
   version="1.1"
   id="svg4"
   sodipodi:docname="ollydbg.svg"
   inkscape:version="0.92.5 (2060ec1f9f, 2020-04-08)"
   xmlns:inkscape="http://www.inkscape.org/namespaces/inkscape"
   xmlns:sodipodi="http://sodipodi.sourceforge.net/DTD/sodipodi-0.dtd"
   xmlns="http://www.w3.org/2000/svg"
   xmlns:svg="http://www.w3.org/2000/svg"
   xmlns:rdf="http://www.w3.org/1999/02/22-rdf-syntax-ns#"
   xmlns:cc="http://creativecommons.org/ns#"
   xmlns:dc="http://purl.org/dc/elements/1.1/">
  <metadata
     id="metadata10">
    <rdf:RDF>
      <cc:Work
         rdf:about="">
        <dc:format>image/svg+xml</dc:format>
        <dc:type
           rdf:resource="http://purl.org/dc/dcmitype/StillImage" />
        <dc:title />
      </cc:Work>
    </rdf:RDF>
  </metadata>
  <defs
     id="defs8" />
  <sodipodi:namedview
     pagecolor="#ffffff"
     bordercolor="#666666"
     borderopacity="1"
     objecttolerance="10"
     gridtolerance="10"
     guidetolerance="10"
     inkscape:pageopacity="0"
     inkscape:pageshadow="2"
     inkscape:window-width="1085"
     inkscape:window-height="480"
     id="namedview6"
     showgrid="false"
     inkscape:zoom="4.9166667"
     inkscape:cx="2.1355932"
     inkscape:cy="24"
     inkscape:window-x="0"
     inkscape:window-y="25"
     inkscape:window-maximized="0"
     inkscape:current-layer="svg4"
     inkscape:showpageshadow="0"
     inkscape:pagecheckerboard="0"
     inkscape:deskcolor="#d1d1d1" />
  <path
     d="M 6.285,0 A 6.295,6.295 0 0 0 0,6.285 6.295,6.295 0 0 0 6.285,12.58 6.295,6.295 0 0 0 12.579,6.285 6.295,6.295 0 0 0 6.285,0 Z M 6.274,0.94 a 5.408,5.408 0 0 1 5.397,5.387 5.407,5.407 0 0 1 -10.814,0 C 0.857,3.34 3.287,0.94 6.274,0.94 Z M 3.262,2.669 A 0.151,0.151 0 0 0 3.215,2.677 c -0.03,0.011 -0.06,0.08 -0.074,0.172 -0.02,0.137 -0.012,0.168 0.073,0.287 0.099,0.14 0.17,0.314 0.17,0.416 a 0.093,0.093 0 0 1 -0.01,0.032 h 0.005 c 0.03,0 0.042,0.011 0.052,0.02 0.01,0.008 0.019,0.017 0.026,0.027 0.016,0.02 0.03,0.045 0.042,0.072 0.02,0.042 0.03,0.097 0.01,0.15 A 1.39,1.39 0 0 1 3.737,3.971 0.069,0.069 0 0 1 3.75,3.953 C 3.766,3.938 3.776,3.937 3.786,3.935 A 0.25,0.25 0 0 1 3.843,3.927 C 3.887,3.925 3.946,3.926 4.017,3.931 A 1.506,1.506 0 0 0 4.217,3.933 6.912,6.912 0 0 0 4.249,3.59 L 4.27,3.256 4.17,3.135 4.053,2.995 A 0.06,0.06 0 0 1 4.06,2.91 1.877,1.877 0 0 1 3.883,2.83 C 3.713,2.742 3.399,2.664 3.262,2.669 Z M 6.766,3.135 C 6.708,3.134 6.659,3.145 6.641,3.167 6.566,3.257 6.505,3.692 6.484,4.278 L 6.464,4.864 6.06,5.27 5.682,5.65 a 0.093,0.093 0 0 1 0,0.02 L 5.678,5.682 5.66,5.706 5.647,5.714 5.635,5.719 A 0.062,0.062 0 0 1 5.615,5.72 C 5.59,5.718 5.595,5.715 5.588,5.712 L 5.568,5.702 A 0.67,0.67 0 0 1 5.413,5.598 2.941,2.941 0 0 1 5.173,5.368 0.615,0.615 0 0 1 5.122,5.301 C 5.118,5.294 5.112,5.287 5.112,5.263 c 0,-0.016 0,-0.035 0.014,-0.054 L 5.128,5.206 A 0.255,0.255 0 0 1 5.09,5.172 C 5.036,5.112 4.997,5.107 4.703,5.115 4.389,5.124 4.375,5.127 4.365,5.199 4.357,5.252 4.398,5.321 4.503,5.433 l 0.149,0.16 V 6.661 L 4.542,6.744 C 4.352,6.89 4.06,7.019 3.446,7.232 a 30.159,30.159 0 0 0 -0.681,0.24 l 10e-4,0.027 c 0,0.01 0,0.02 -0.003,0.03 -0.002,0.011 -0.003,0.024 -0.017,0.04 0.01,-0.01 0.003,-0.004 0,0.006 A 1.16,1.16 0 0 0 2.723,7.746 L 2.713,7.923 A 0.06,0.06 0 0 1 2.665,7.979 0.974,0.974 0 0 1 2.7,8.182 c 0,0.125 0.012,0.15 0.094,0.192 a 0.254,0.254 0 0 1 0.043,0.03 0.06,0.06 0 0 1 0.028,-0.03 L 2.955,8.326 C 2.988,8.308 3.092,8.226 3.159,8.156 L 3.287,8.024 A 0.061,0.061 0 0 1 3.331,8.006 h 0.33 c 0.189,0 0.267,0 0.356,-0.04 0.09,-0.04 0.202,-0.13 0.435,-0.32 C 4.659,7.476 4.809,7.371 4.934,7.319 5.059,7.266 5.172,7.274 5.256,7.34 l 0.09,0.07 a 0.061,0.061 0 0 1 -0.01,0.103 c 0.035,0.02 0.08,0.058 0.154,0.123 L 5.675,7.797 5.725,8.44 5.562,8.598 5.399,8.755 v 0.243 c 0,0.21 0.012,0.258 0.082,0.35 C 5.525,9.406 5.591,9.54 5.627,9.645 5.705,9.871 5.735,9.91 5.8,9.859 A 1.054,1.054 0 0 1 5.76,9.567 C 5.76,9.471 5.758,9.419 5.778,9.368 A 0.14,0.14 0 0 1 5.828,9.305 C 5.848,9.291 5.868,9.285 5.891,9.276 A 0.53,0.53 0 0 0 5.982,9.238 0.107,0.107 0 0 0 6.025,9.194 C 6.05,9.15 6.073,9.054 6.111,8.867 6.185,8.494 6.265,8.279 6.396,8.112 6.443,8.053 6.498,8.011 6.564,8.009 6.63,8.007 6.688,8.046 6.74,8.102 c 0.031,0.033 0.053,0.05 0.063,0.092 0.006,0.02 0,0.054 -0.015,0.072 L 6.784,8.27 C 6.9,8.363 7.196,8.644 7.542,8.99 L 8.279,9.727 C 8.459,9.664 8.657,9.613 8.93,9.554 L 9.064,9.526 9.071,9.416 A 0.32,0.32 0 0 0 9.054,9.261 C 9.042,9.239 9.033,9.233 8.992,9.233 A 0.194,0.194 0 0 1 8.842,9.169 0.537,0.537 0 0 1 8.755,8.979 1.974,1.974 0 0 0 8.4,8.343 L 8.264,8.193 A 0.059,0.059 0 0 1 8.256,8.123 4.66,4.66 0 0 0 7.756,7.856 3.848,3.848 0 0 1 7.391,7.666 L 7.291,7.602 7.288,7.608 A 0.059,0.059 0 0 1 7.233,7.64 C 7.202,7.64 7.202,7.633 7.193,7.628 A 1.11,1.11 0 0 1 7.085,7.561 C 7.061,7.544 7.039,7.53 7.02,7.508 A 0.19,0.19 0 0 1 6.978,7.426 C 6.963,7.363 6.964,7.284 6.964,7.128 6.964,6.97 6.962,6.89 6.979,6.823 6.996,6.757 7.036,6.716 7.089,6.666 7.344,6.423 7.883,6.234 8.385,6.196 A 0.948,0.948 0 0 0 8.629,6.161 0.572,0.572 0 0 0 8.789,6.034 C 8.993,5.842 9.166,5.762 9.39,5.762 c 0.072,0 0.1,-0.003 0.13,-0.019 A 0.782,0.782 0 0 0 9.671,5.609 C 9.781,5.498 9.833,5.411 9.843,5.356 A 0.507,0.507 0 0 1 9.859,5.283 0.123,0.123 0 0 1 9.903,5.22 0.094,0.094 0 0 1 9.919,5.211 L 9.914,5.206 C 9.875,5.15 9.816,5.14 9.397,5.121 L 8.924,5.099 8.754,5.315 C 8.45,5.701 8.22,5.815 7.676,5.844 L 7.394,5.859 7.389,5.875 C 7.379,5.9 7.345,5.915 7.328,5.915 7.304,5.916 7.298,5.91 7.288,5.905 A 0.917,0.917 0 0 1 7.198,5.843 2.782,2.782 0 0 1 7.029,5.697 L 6.813,5.495 A 0.06,0.06 0 0 1 6.793,5.447 L 6.816,5.057 C 6.829,4.84 6.86,4.492 6.885,4.279 6.909,4.069 6.939,3.751 6.951,3.575 L 6.974,3.251 A 0.06,0.06 0 0 1 7.006,3.201 C 6.964,3.161 6.856,3.135 6.766,3.135 Z"
     id="path2"
     inkscape:connector-curvature="0"
     style="fill:#bde6fb;fill-opacity:1" />
</svg>
