<?xml version="1.0" encoding="UTF-8" standalone="no"?>
<svg
   width="47.546455"
   height="47.542679"
   viewBox="0 0 12.58 12.579"
   version="1.1"
   id="svg4"
   sodipodi:docname="onboard.svg"
   inkscape:version="0.92.4 (5da689c313, 2019-01-14)"
   xmlns:inkscape="http://www.inkscape.org/namespaces/inkscape"
   xmlns:sodipodi="http://sodipodi.sourceforge.net/DTD/sodipodi-0.dtd"
   xmlns="http://www.w3.org/2000/svg"
   xmlns:svg="http://www.w3.org/2000/svg"
   xmlns:rdf="http://www.w3.org/1999/02/22-rdf-syntax-ns#"
   xmlns:cc="http://creativecommons.org/ns#"
   xmlns:dc="http://purl.org/dc/elements/1.1/">
  <metadata
     id="metadata10">
    <rdf:RDF>
      <cc:Work
         rdf:about="">
        <dc:format>image/svg+xml</dc:format>
        <dc:type
           rdf:resource="http://purl.org/dc/dcmitype/StillImage" />
        <dc:title />
      </cc:Work>
    </rdf:RDF>
  </metadata>
  <defs
     id="defs8" />
  <sodipodi:namedview
     pagecolor="#ffffff"
     bordercolor="#666666"
     borderopacity="1"
     objecttolerance="10"
     gridtolerance="10"
     guidetolerance="10"
     inkscape:pageopacity="0"
     inkscape:pageshadow="2"
     inkscape:window-width="1087"
     inkscape:window-height="480"
     id="namedview6"
     showgrid="false"
     inkscape:zoom="4.9166667"
     inkscape:cx="2.1355932"
     inkscape:cy="24"
     inkscape:window-x="0"
     inkscape:window-y="25"
     inkscape:window-maximized="0"
     inkscape:current-layer="svg4"
     inkscape:showpageshadow="0"
     inkscape:pagecheckerboard="0"
     inkscape:deskcolor="#d1d1d1" />
  <path
     d="M 6.29,9.9999565e-4 A 6.29,6.29 0 0 0 0,6.291 6.29,6.29 0 0 0 6.29,12.579 6.29,6.29 0 0 0 12.58,6.29 6.29,6.29 0 0 0 6.29,0 Z M 6.272,0.937 A 5.407,5.407 0 0 1 11.679,6.344 5.407,5.407 0 0 1 6.272,11.751 5.407,5.407 0 0 1 0.866,6.344 5.407,5.407 0 0 1 6.272,0.938 Z m -3.2,1.462 A 0.545,0.545 0 0 0 2.526,2.945 v 6.666 c 0,0.302 0.244,0.546 0.546,0.546 H 9.52 A 0.545,0.545 0 0 0 10.066,9.611 V 2.945 A 0.545,0.545 0 0 0 9.52,2.399 Z M 4.46,2.932 c 0.397,0 0.714,0.133 0.952,0.4 0.237,0.265 0.356,0.621 0.356,1.069 0,0.446 -0.119,0.802 -0.356,1.068 C 5.174,5.735 4.857,5.867 4.46,5.867 4.063,5.867 3.744,5.735 3.505,5.469 3.268,5.204 3.149,4.848 3.149,4.401 3.149,3.953 3.268,3.597 3.505,3.331 3.745,3.065 4.063,2.932 4.46,2.932 Z m 1.854,0.004 h 2.76 c 0.26,0 0.47,0.21 0.47,0.47 V 6.26 H 6.314 V 9.62 H 3.519 c -0.26,0 -0.47,-0.21 -0.47,-0.47 V 6.26 H 6.314 Z M 4.46,3.243 a 0.802,0.802 0 0 0 -0.663,0.31 c -0.163,0.208 -0.244,0.49 -0.244,0.848 0,0.356 0.081,0.638 0.244,0.845 0.165,0.207 0.386,0.31 0.663,0.31 A 0.792,0.792 0 0 0 5.12,5.246 C 5.283,5.039 5.364,4.756 5.364,4.401 5.364,4.043 5.283,3.761 5.12,3.554 A 0.792,0.792 0 0 0 4.46,3.243 Z M 7.123,6.76 h 0.978 c 0.292,0 0.517,0.06 0.675,0.182 0.158,0.12 0.237,0.293 0.237,0.517 0,0.173 -0.041,0.31 -0.122,0.413 A 0.543,0.543 0 0 1 8.535,8.062 C 8.723,8.103 8.869,8.188 8.973,8.317 A 0.729,0.729 0 0 1 9.13,8.797 C 9.13,9.049 9.044,9.244 8.873,9.382 8.701,9.519 8.456,9.588 8.139,9.588 H 7.123 Z M 7.506,7.074 V 7.926 H 8.073 C 8.26,7.926 8.399,7.892 8.49,7.823 8.582,7.752 8.628,7.644 8.628,7.5 8.628,7.357 8.582,7.251 8.49,7.18 8.399,7.11 8.26,7.074 8.073,7.074 Z m 0,1.164 V 9.274 H 8.12 c 0.206,0 0.358,-0.042 0.457,-0.127 0.1,-0.086 0.15,-0.217 0.15,-0.392 0,-0.177 -0.05,-0.307 -0.15,-0.39 C 8.478,8.28 8.327,8.238 8.12,8.238 Z"
     id="path2"
     inkscape:connector-curvature="0"
     style="fill:#bde6fb;fill-opacity:1" />
</svg>
