<?xml version="1.0" encoding="UTF-8" standalone="no"?>
<svg
   width="47.546486"
   height="47.546486"
   viewBox="0 0 12.580008 12.580008"
   version="1.1"
   id="svg14"
   sodipodi:docname="opendesktop.svg"
   inkscape:version="0.92.4 (5da689c313, 2019-01-14)"
   xmlns:inkscape="http://www.inkscape.org/namespaces/inkscape"
   xmlns:sodipodi="http://sodipodi.sourceforge.net/DTD/sodipodi-0.dtd"
   xmlns="http://www.w3.org/2000/svg"
   xmlns:svg="http://www.w3.org/2000/svg"
   xmlns:rdf="http://www.w3.org/1999/02/22-rdf-syntax-ns#"
   xmlns:cc="http://creativecommons.org/ns#"
   xmlns:dc="http://purl.org/dc/elements/1.1/">
  <metadata
     id="metadata20">
    <rdf:RDF>
      <cc:Work
         rdf:about="">
        <dc:format>image/svg+xml</dc:format>
        <dc:type
           rdf:resource="http://purl.org/dc/dcmitype/StillImage" />
        <dc:title />
      </cc:Work>
    </rdf:RDF>
  </metadata>
  <defs
     id="defs18" />
  <sodipodi:namedview
     pagecolor="#ffffff"
     bordercolor="#666666"
     borderopacity="1"
     objecttolerance="10"
     gridtolerance="10"
     guidetolerance="10"
     inkscape:pageopacity="0"
     inkscape:pageshadow="2"
     inkscape:window-width="1087"
     inkscape:window-height="480"
     id="namedview16"
     showgrid="false"
     inkscape:zoom="4.9166667"
     inkscape:cx="2.1355932"
     inkscape:cy="24"
     inkscape:window-x="0"
     inkscape:window-y="25"
     inkscape:window-maximized="0"
     inkscape:current-layer="svg14"
     inkscape:showpageshadow="0"
     inkscape:pagecheckerboard="0"
     inkscape:deskcolor="#d1d1d1" />
  <path
     d="M 6.2900079,0 A 6.29,6.29 0 0 0 7.9490244e-6,6.3 6.29,6.29 0 0 0 6.3000079,12.58 6.29,6.29 0 0 0 12.580008,6.29 6.29,6.29 0 0 0 6.2900079,0 Z m -0.01,0.94 A 5.4,5.4 0 0 1 11.680008,6.34 5.4,5.4 0 0 1 6.2800079,11.75 5.4,5.4 0 0 1 0.87000795,6.35 5.4,5.4 0 0 1 6.2700079,0.93 Z"
     id="path2"
     inkscape:connector-curvature="0"
     style="fill:#bde6fb;fill-opacity:1" />
  <g
     id="g12"
     style="opacity:0.75"
     transform="translate(-0.04999205,-0.07)">
    <path
       d="m 6.35,1.55 c -1.28,0 -2.44,0.5 -3.3,1.3 L 4.1,3.9 A 0.51,0.51 0 0 1 4.34,3.83 H 8.38 A 0.5,0.5 0 0 1 8.62,3.9 L 9.65,2.86 A 4.78,4.78 0 0 0 6.36,1.56 Z m 0,0"
       id="path4"
       inkscape:connector-curvature="0"
       style="fill:#0000ff" />
    <path
       d="m 2.85,3.06 a 4.78,4.78 0 0 0 0,6.58 L 3.9,8.61 A 0.5,0.5 0 0 1 3.83,8.37 V 4.33 A 0.5,0.5 0 0 1 3.9,4.09 Z m 0,0"
       id="path6"
       inkscape:connector-curvature="0"
       style="fill:#ff00ff" />
    <path
       d="M 9.85,3.06 8.8,4.09 A 0.5,0.5 0 0 1 8.87,4.33 V 8.37 A 0.5,0.5 0 0 1 8.8,8.61 l 1.04,1.03 a 4.78,4.78 0 0 0 0,-6.58 z m 0,0"
       id="path8"
       inkscape:connector-curvature="0"
       style="fill:#ff6600" />
    <path
       d="M 8.61,8.81 A 0.5,0.5 0 0 1 8.37,8.88 H 5.47 L 4.17,9.99 A 0.14,0.14 0 0 1 3.93,9.89 V 8.97 L 3.06,9.85 a 4.78,4.78 0 0 0 6.58,0 z m 0,0"
       id="path10"
       inkscape:connector-curvature="0"
       style="fill:#ffff00" />
  </g>
</svg>
