<?xml version="1.0" encoding="UTF-8" standalone="no"?>
<svg
   width="48"
   height="48"
   viewBox="0 0 12.7 12.7"
   version="1.1"
   id="svg4"
   sodipodi:docname="openbox.svg"
   inkscape:version="0.92.5 (2060ec1f9f, 2020-04-08)"
   xmlns:inkscape="http://www.inkscape.org/namespaces/inkscape"
   xmlns:sodipodi="http://sodipodi.sourceforge.net/DTD/sodipodi-0.dtd"
   xmlns="http://www.w3.org/2000/svg"
   xmlns:svg="http://www.w3.org/2000/svg">
  <sodipodi:namedview
     id="namedview1"
     pagecolor="#505050"
     bordercolor="#eeeeee"
     borderopacity="1"
     inkscape:showpageshadow="0"
     inkscape:pageopacity="0"
     inkscape:pagecheckerboard="0"
     inkscape:deskcolor="#d1d1d1" />
  <defs
     id="defs8">
    <style
       id="current-color-scheme"
       type="text/css">&#10;      .ColorScheme-Highlight {&#10;        color:#1e3f5a;&#10;      }&#10;  </style>
  </defs>
  <path
     class="ColorScheme-Highlight"
     style="fill:#bde6fb;fill-opacity:1;stroke-width:0.264583"
     d="M 6.3499999,0 A 6.3499999,6.3499999 0 0 0 0,6.3499999 6.3499999,6.3499999 0 0 0 6.3499999,12.7 6.3499999,6.3499999 0 0 0 12.7,6.3499999 6.3499999,6.3499999 0 0 0 6.3499999,0 Z m 0,0.79374999 A 5.5562499,5.5562499 0 0 1 11.90625,6.3499999 5.5562499,5.5562499 0 0 1 6.3499999,11.90625 5.5562499,5.5562499 0 0 1 0.79374999,6.3499999 5.5562499,5.5562499 0 0 1 6.3499999,0.79374999 Z M 3.175,2.9104166 c -0.4397378,0 -0.79375,0.3540125 -0.79375,0.79375 v 5.2916666 c 0,0.4397375 0.3540122,0.79375 0.79375,0.79375 h 6.3499999 c 0.4397377,0 0.7937501,-0.3540125 0.7937501,-0.79375 V 3.7041666 c 0,-0.4397375 -0.3540124,-0.79375 -0.7937501,-0.79375 z M 2.9104166,4.2333333 h 6.8791666 c 0.1465792,0 0.2645838,0.1242422 0.2645838,0.2785358 V 9.246464 c 0,0.1542936 -0.1180046,0.2785359 -0.2645838,0.2785359 H 2.9104166 c -0.1465791,0 -0.2645833,-0.1242423 -0.2645833,-0.2785359 V 4.5118691 c 0,-0.1542936 0.1180042,-0.2785358 0.2645833,-0.2785358 z M 7.5240884,4.9712726 A 0.79374999,0.79374999 0 0 0 6.9277425,5.2022663 0.79374999,0.79374999 0 0 0 6.7742635,6.1071206 c -0.00351,0.00311 -0.00801,0.00439 -0.011369,0.00775 L 6.5753088,6.3024583 a 0.6614583,0.6614583 0 0 1 0.016536,0.015502 0.6614583,0.6614583 0 0 1 0.044442,0.049093 0.6614583,0.6614583 0 0 1 0.039274,0.053227 0.6614583,0.6614583 0 0 1 0.03359,0.056844 0.6614583,0.6614583 0 0 1 0.027905,0.059945 0.6614583,0.6614583 0 0 1 0.021704,0.062528 0.6614583,0.6614583 0 0 1 0.015502,0.064079 0.6614583,0.6614583 0 0 1 0.00878,0.065629 0.6614583,0.6614583 0 0 1 0.00259,0.066146 0.6614583,0.6614583 0 0 1 -0.0031,0.048059 L 7.1370382,6.4890094 c 0.00336,-0.00336 0.00463,-0.00787 0.00775,-0.011369 A 0.79374999,0.79374999 0 0 0 8.0501616,6.324678 0.79374999,0.79374999 0 0 0 8.2046743,5.4218908 L 7.6589712,5.9670769 c -0.047212,0.047212 -0.1084014,0.071314 -0.1700155,0.071314 -0.061614,0 -0.1233204,-0.024101 -0.1705324,-0.071314 l -0.03359,-0.03359 C 7.2376217,5.8862753 7.214037,5.8250862 7.214037,5.7634719 c 0,-0.061614 0.023585,-0.1233202 0.070797,-0.1705322 L 7.8300129,5.0477538 A 0.79374999,0.79374999 0 0 0 7.5240884,4.9712726 Z m -2.7093952,0.107487 c -0.1014489,0 -0.2028676,0.039054 -0.280603,0.1167889 -0.1554708,0.1554708 -0.1554708,0.4057354 0,0.5612059 L 5.843571,7.0662352 c 0.1224008,0.122401 0.3032059,0.1468112 0.4506182,0.076481 L 7.246586,8.095113 V 8.4692505 L 7.8077922,8.6563191 7.9948608,8.4692505 7.8077922,7.9080444 H 7.4336547 L 6.4812581,6.9556476 c 0.07033,-0.1474124 0.04592,-0.3282175 -0.076481,-0.4506183 L 5.095296,5.1955485 C 5.0175609,5.1178131 4.9161419,5.0787596 4.8146932,5.0787596 Z M 5.6415161,7.2362506 4.6596638,8.218103 c -0.091005,0.091005 -0.091005,0.2381734 0,0.3291789 l 0.045475,0.044958 c 0.091005,0.091005 0.2376569,0.091005 0.3286622,0 L 6.1815347,7.4445068 a 0.6614583,0.6614583 0 0 1 -0.00103,0 0.6614583,0.6614583 0 0 1 -0.066146,0.00259 0.6614583,0.6614583 0 0 1 -0.065629,-0.00414 0.6614583,0.6614583 0 0 1 -0.065629,-0.010853 0.6614583,0.6614583 0 0 1 -0.063562,-0.017571 0.6614583,0.6614583 0 0 1 -0.062012,-0.023254 0.6614583,0.6614583 0 0 1 -0.058911,-0.029972 0.6614583,0.6614583 0 0 1 -0.055811,-0.03514 0.6614583,0.6614583 0 0 1 -0.052193,-0.040824 0.6614583,0.6614583 0 0 1 -0.034106,-0.03204 0.6614583,0.6614583 0 0 1 -0.014986,-0.017052 z"
     id="path833" />
</svg>
