<?xml version="1.0" encoding="UTF-8" standalone="no"?>
<svg
   width="47.542679"
   height="47.546455"
   viewBox="0 0 12.579 12.58"
   version="1.1"
   id="svg6"
   sodipodi:docname="openra-ra.svg"
   inkscape:version="0.92.5 (2060ec1f9f, 2020-04-08)"
   xmlns:inkscape="http://www.inkscape.org/namespaces/inkscape"
   xmlns:sodipodi="http://sodipodi.sourceforge.net/DTD/sodipodi-0.dtd"
   xmlns="http://www.w3.org/2000/svg"
   xmlns:svg="http://www.w3.org/2000/svg"
   xmlns:rdf="http://www.w3.org/1999/02/22-rdf-syntax-ns#"
   xmlns:cc="http://creativecommons.org/ns#"
   xmlns:dc="http://purl.org/dc/elements/1.1/">
  <metadata
     id="metadata12">
    <rdf:RDF>
      <cc:Work
         rdf:about="">
        <dc:format>image/svg+xml</dc:format>
        <dc:type
           rdf:resource="http://purl.org/dc/dcmitype/StillImage" />
        <dc:title />
      </cc:Work>
    </rdf:RDF>
  </metadata>
  <defs
     id="defs10" />
  <sodipodi:namedview
     pagecolor="#ffffff"
     bordercolor="#666666"
     borderopacity="1"
     objecttolerance="10"
     gridtolerance="10"
     guidetolerance="10"
     inkscape:pageopacity="0"
     inkscape:pageshadow="2"
     inkscape:window-width="1085"
     inkscape:window-height="480"
     id="namedview8"
     showgrid="false"
     inkscape:zoom="4.9166667"
     inkscape:cx="2.1355932"
     inkscape:cy="24"
     inkscape:window-x="0"
     inkscape:window-y="25"
     inkscape:window-maximized="0"
     inkscape:current-layer="svg6"
     inkscape:showpageshadow="0"
     inkscape:pagecheckerboard="0"
     inkscape:deskcolor="#d1d1d1" />
  <path
     d="M 6.361,1.075 5.035,4.633 1.289,4.721 4.259,6.99 3.162,10.663 6.316,8.497 9.396,10.663 8.35,7.019 11.3,4.736 7.567,4.633 6.36,1.077 Z m 0.031,3.19 c 0.225,0.104 0.419,0.208 0.57,0.306 0.382,0.248 0.683,0.646 0.73,0.716 0.383,0.578 0.4,1.05 0.328,1.382 C 7.95,7.002 7.792,7.188 7.792,7.188 A 0.105,0.105 0 0 0 7.8,7.332 7.04,7.04 0 0 0 8.031,7.565 L 8.008,7.59 A 5.184,5.184 0 0 1 7.642,7.92 L 7.615,7.942 7.558,7.887 7.45,7.777 A 0.105,0.105 0 0 0 7.332,7.754 C 6.581,8.094 6.101,7.981 5.785,7.799 A 1.56,1.56 0 0 1 5.428,7.511 L 5.327,7.4 C 5.312,7.385 5.3,7.372 5.28,7.358 A 0.132,0.132 0 0 0 5.234,7.337 0.126,0.126 0 0 0 5.141,7.355 C 5.117,7.372 5.111,7.382 5.101,7.394 A 0.909,0.909 0 0 0 5.072,7.434 L 4.996,7.543 A 2.198,2.198 0 0 1 4.781,7.808 0.57,0.57 0 0 1 4.547,7.966 C 4.48,7.982 4.431,7.976 4.355,7.888 4.273,7.794 4.275,7.741 4.303,7.672 A 0.631,0.631 0 0 1 4.505,7.449 C 4.601,7.376 4.712,7.312 4.8,7.26 4.844,7.234 4.881,7.211 4.913,7.187 A 0.212,0.212 0 0 0 4.96,7.141 0.124,0.124 0 0 0 4.982,7.094 0.126,0.126 0 0 0 4.974,7.014 C 4.968,7.003 4.971,7.01 4.972,7.008 4.972,7.006 4.979,6.995 4.993,6.983 5.016,6.965 5.037,6.957 5.049,6.952 L 5.196,6.96 A 0.105,0.105 0 0 0 5.282,6.923 c 0,0 0.03,-0.034 0.06,-0.053 A 0.083,0.083 0 0 1 5.368,6.859 c 0.17,0.186 0.3,0.314 0.435,0.401 a 0.922,0.922 0 0 0 0.43,0.148 C 6.569,7.442 6.862,7.268 6.862,7.268 A 0.105,0.105 0 0 0 6.887,7.106 L 5.882,6.024 A 0.105,0.105 0 0 0 5.734,6.018 L 5.54,6.195 C 5.49,6.239 5.441,6.285 5.403,6.317 L 5.391,6.327 5.361,6.302 A 3.852,3.852 0 0 1 5.006,5.934 0.327,0.327 0 0 1 4.978,5.898 C 4.999,5.874 5.028,5.844 5.064,5.808 5.144,5.731 5.25,5.633 5.358,5.534 L 5.662,5.259 5.805,5.131 H 5.821 C 5.852,5.129 5.899,5.13 5.951,5.13 6.057,5.13 6.189,5.132 6.306,5.128 6.442,5.123 6.499,5.104 6.536,5.094 6.547,5.102 6.564,5.113 6.57,5.12 L 6.594,5.149 6.587,5.156 A 3.589,3.589 0 0 1 6.451,5.308 C 6.347,5.418 6.239,5.524 6.239,5.524 A 0.105,0.105 0 0 0 6.236,5.67 C 6.709,6.182 7.23,6.742 7.23,6.742 A 0.105,0.105 0 0 0 7.396,6.726 C 7.599,6.401 7.646,5.788 7.166,5.146 7.036,4.972 6.846,4.715 6.632,4.499 6.537,4.403 6.473,4.343 6.392,4.265 Z"
     id="path2"
     inkscape:connector-curvature="0"
     style="opacity:0.8;fill:#d9112b" />
  <path
     d="M 6.285,0 A 6.295,6.295 0 0 0 0,6.285 6.295,6.295 0 0 0 6.285,12.58 6.295,6.295 0 0 0 12.579,6.285 6.295,6.295 0 0 0 6.285,0 Z M 6.274,0.94 a 5.408,5.408 0 0 1 5.397,5.387 5.407,5.407 0 0 1 -10.814,0 C 0.857,3.34 3.287,0.94 6.274,0.94 Z"
     id="path4"
     inkscape:connector-curvature="0"
     style="fill:#bde6fb;fill-opacity:1" />
</svg>
