<?xml version="1.0" encoding="UTF-8" standalone="no"?>
<svg
   width="47.372601"
   height="47.372601"
   viewBox="0 0 12.534001 12.534001"
   version="1.1"
   id="svg6"
   sodipodi:docname="opera.svg"
   inkscape:version="0.92.4 (5da689c313, 2019-01-14)"
   xmlns:inkscape="http://www.inkscape.org/namespaces/inkscape"
   xmlns:sodipodi="http://sodipodi.sourceforge.net/DTD/sodipodi-0.dtd"
   xmlns="http://www.w3.org/2000/svg"
   xmlns:svg="http://www.w3.org/2000/svg"
   xmlns:rdf="http://www.w3.org/1999/02/22-rdf-syntax-ns#"
   xmlns:cc="http://creativecommons.org/ns#"
   xmlns:dc="http://purl.org/dc/elements/1.1/">
  <metadata
     id="metadata12">
    <rdf:RDF>
      <cc:Work
         rdf:about="">
        <dc:format>image/svg+xml</dc:format>
        <dc:type
           rdf:resource="http://purl.org/dc/dcmitype/StillImage" />
        <dc:title />
      </cc:Work>
    </rdf:RDF>
  </metadata>
  <defs
     id="defs10" />
  <sodipodi:namedview
     pagecolor="#ffffff"
     bordercolor="#666666"
     borderopacity="1"
     objecttolerance="10"
     gridtolerance="10"
     guidetolerance="10"
     inkscape:pageopacity="0"
     inkscape:pageshadow="2"
     inkscape:window-width="1087"
     inkscape:window-height="480"
     id="namedview8"
     showgrid="false"
     inkscape:zoom="4.9166667"
     inkscape:cx="2.1355932"
     inkscape:cy="24"
     inkscape:window-x="0"
     inkscape:window-y="25"
     inkscape:window-maximized="0"
     inkscape:current-layer="svg6"
     inkscape:showpageshadow="0"
     inkscape:pagecheckerboard="0"
     inkscape:deskcolor="#d1d1d1" />
  <path
     d="M 6.266,0 A 6.267,6.267 0 0 0 0,6.267 6.267,6.267 0 0 0 6.268,12.534 6.267,6.267 0 0 0 12.534,6.267 6.267,6.267 0 0 0 6.267,0 Z M 6.249,0.932 A 5.388,5.388 0 0 1 11.637,6.322 5.388,5.388 0 0 1 6.249,11.709 5.388,5.388 0 0 1 0.85899999,6.321 5.388,5.388 0 0 1 6.249,0.932 Z"
     id="path2"
     inkscape:connector-curvature="0"
     style="fill:#bde6fb;fill-opacity:1" />
  <path
     d="m 6.251,9.509 c 1.32,0 1.44,-2 1.44,-3.346 0,-1.549 -0.232,-3.239 -1.44,-3.239 -1.207,0 -1.41,1.797 -1.41,3.24 0,1.333 0.108,3.345 1.41,3.345 z m 0,-7.235 c 2.162,0 3.78,1.563 3.78,3.956 0,2.113 -1.533,4.03 -3.78,4.03 -2.225,0 -3.75,-1.918 -3.75,-4.03 0,-2.374 1.568,-3.956 3.75,-3.956 z"
     id="path4"
     inkscape:connector-curvature="0"
     style="clip-rule:evenodd;opacity:0.752;fill:#ff0000;fill-rule:evenodd" />
</svg>
