<?xml version="1.0" encoding="UTF-8" standalone="no"?>
<svg
   width="47.542679"
   height="47.546455"
   viewBox="0 0 12.579 12.58"
   version="1.1"
   id="svg4"
   sodipodi:docname="ophcrack.svg"
   inkscape:version="0.92.5 (2060ec1f9f, 2020-04-08)"
   xmlns:inkscape="http://www.inkscape.org/namespaces/inkscape"
   xmlns:sodipodi="http://sodipodi.sourceforge.net/DTD/sodipodi-0.dtd"
   xmlns="http://www.w3.org/2000/svg"
   xmlns:svg="http://www.w3.org/2000/svg"
   xmlns:rdf="http://www.w3.org/1999/02/22-rdf-syntax-ns#"
   xmlns:cc="http://creativecommons.org/ns#"
   xmlns:dc="http://purl.org/dc/elements/1.1/">
  <metadata
     id="metadata10">
    <rdf:RDF>
      <cc:Work
         rdf:about="">
        <dc:format>image/svg+xml</dc:format>
        <dc:type
           rdf:resource="http://purl.org/dc/dcmitype/StillImage" />
        <dc:title />
      </cc:Work>
    </rdf:RDF>
  </metadata>
  <defs
     id="defs8" />
  <sodipodi:namedview
     pagecolor="#ffffff"
     bordercolor="#666666"
     borderopacity="1"
     objecttolerance="10"
     gridtolerance="10"
     guidetolerance="10"
     inkscape:pageopacity="0"
     inkscape:pageshadow="2"
     inkscape:window-width="1085"
     inkscape:window-height="480"
     id="namedview6"
     showgrid="false"
     inkscape:zoom="4.9166667"
     inkscape:cx="2.1355932"
     inkscape:cy="24"
     inkscape:window-x="0"
     inkscape:window-y="25"
     inkscape:window-maximized="0"
     inkscape:current-layer="svg4"
     inkscape:showpageshadow="0"
     inkscape:pagecheckerboard="0"
     inkscape:deskcolor="#d1d1d1" />
  <path
     d="M 6.285,0 A 6.295,6.295 0 0 0 0,6.285 6.295,6.295 0 0 0 6.285,12.58 6.295,6.295 0 0 0 12.579,6.285 6.295,6.295 0 0 0 6.285,0 Z M 6.274,0.94 a 5.408,5.408 0 0 1 5.397,5.387 5.407,5.407 0 0 1 -10.814,0 C 0.857,3.34 3.287,0.94 6.274,0.94 Z m 0.003,1.296 c -0.706,0 -1.413,0.01 -1.655,0.031 A 3.58,3.58 0 0 0 3.413,2.569 c -1.076,0.514 -1.528,1.61 -1.528,3.703 0,2.723 0.778,3.84 2.796,4.007 0.527,0.045 2.719,0.045 3.246,0 0.86,-0.072 1.45,-0.3 1.885,-0.732 0.366,-0.37 0.561,-0.74 0.722,-1.37 0.13,-0.518 0.172,-0.963 0.172,-1.905 0,-0.942 -0.042,-1.387 -0.172,-1.904 -0.161,-0.634 -0.356,-1 -0.73,-1.374 C 9.374,2.562 8.791,2.336 7.927,2.264 A 31.888,31.888 0 0 0 6.277,2.236 Z m 2.716,2.61 c 0.091,-0.002 0.191,-0.001 0.301,0 0.476,0.014 0.518,0.018 0.703,0.11 0.246,0.124 0.349,0.302 0.349,0.603 v 0.2 H 9.633 L 9.61,5.655 C 9.579,5.512 9.503,5.484 9.157,5.484 c -0.38,0 -0.455,0.041 -0.455,0.254 0,0.092 0.02,0.164 0.054,0.191 0.031,0.028 0.257,0.065 0.538,0.09 1.031,0.095 1.137,0.177 1.137,0.87 0,0.318 -0.013,0.417 -0.064,0.523 C 10.216,7.721 9.849,7.827 9.01,7.806 8.51,7.796 8.428,7.786 8.301,7.717 8.071,7.597 7.962,7.388 7.941,7.042 l -0.01,-0.17 h 0.72 L 8.661,6.96 C 8.681,7.131 8.777,7.18 9.143,7.19 9.585,7.203 9.64,7.173 9.654,6.916 9.661,6.758 9.654,6.714 9.602,6.69 9.568,6.673 9.315,6.638 9.037,6.618 8.277,6.556 8.127,6.494 7.997,6.186 c -0.08,-0.188 -0.08,-0.702 0,-0.89 0.14,-0.33 0.354,-0.44 0.996,-0.45 z M 6.047,4.848 C 6.367,4.841 6.785,4.871 6.955,4.922 7.212,4.997 7.379,5.124 7.492,5.33 7.588,5.501 7.589,5.501 7.599,6.265 7.609,6.909 7.602,7.056 7.551,7.204 A 0.83,0.83 0 0 1 7.064,7.717 C 6.886,7.789 6.814,7.796 6.27,7.796 5.619,7.796 5.506,7.776 5.252,7.604 A 0.78,0.78 0 0 1 5.012,7.31 C 4.92,7.114 4.917,7.098 4.906,6.44 4.893,5.68 4.934,5.422 5.098,5.21 5.218,5.056 5.509,4.912 5.773,4.867 5.845,4.857 5.941,4.85 6.047,4.847 Z m 0.246,0.68 C 6.102,5.522 5.913,5.536 5.876,5.556 5.736,5.625 5.708,5.72 5.695,6.193 5.677,6.741 5.701,6.929 5.805,7.049 5.876,7.131 5.91,7.142 6.174,7.156 6.534,7.173 6.694,7.128 6.77,6.985 6.811,6.902 6.821,6.772 6.81,6.289 6.797,5.525 6.807,5.539 6.293,5.529 Z"
     id="path2"
     inkscape:connector-curvature="0"
     style="fill:#bde6fb;fill-opacity:1" />
</svg>
