<?xml version="1.0" encoding="UTF-8" standalone="no"?>
<svg
   width="47.546455"
   height="47.542679"
   viewBox="0 0 12.58 12.579"
   version="1.1"
   id="svg4"
   sodipodi:docname="orca.svg"
   inkscape:version="0.92.4 (5da689c313, 2019-01-14)"
   xmlns:inkscape="http://www.inkscape.org/namespaces/inkscape"
   xmlns:sodipodi="http://sodipodi.sourceforge.net/DTD/sodipodi-0.dtd"
   xmlns="http://www.w3.org/2000/svg"
   xmlns:svg="http://www.w3.org/2000/svg"
   xmlns:rdf="http://www.w3.org/1999/02/22-rdf-syntax-ns#"
   xmlns:cc="http://creativecommons.org/ns#"
   xmlns:dc="http://purl.org/dc/elements/1.1/">
  <metadata
     id="metadata10">
    <rdf:RDF>
      <cc:Work
         rdf:about="">
        <dc:format>image/svg+xml</dc:format>
        <dc:type
           rdf:resource="http://purl.org/dc/dcmitype/StillImage" />
        <dc:title />
      </cc:Work>
    </rdf:RDF>
  </metadata>
  <defs
     id="defs8" />
  <sodipodi:namedview
     pagecolor="#ffffff"
     bordercolor="#666666"
     borderopacity="1"
     objecttolerance="10"
     gridtolerance="10"
     guidetolerance="10"
     inkscape:pageopacity="0"
     inkscape:pageshadow="2"
     inkscape:window-width="1087"
     inkscape:window-height="480"
     id="namedview6"
     showgrid="false"
     inkscape:zoom="4.9166667"
     inkscape:cx="2.1355932"
     inkscape:cy="24"
     inkscape:window-x="0"
     inkscape:window-y="25"
     inkscape:window-maximized="0"
     inkscape:current-layer="svg4"
     inkscape:showpageshadow="0"
     inkscape:pagecheckerboard="0"
     inkscape:deskcolor="#d1d1d1" />
  <path
     d="M 6.29,9.9999565e-4 A 6.29,6.29 0 0 0 0,6.291 6.29,6.29 0 0 0 6.29,12.579 6.29,6.29 0 0 0 12.58,6.29 6.29,6.29 0 0 0 6.29,0 Z M 6.272,0.937 A 5.407,5.407 0 0 1 11.679,6.344 5.407,5.407 0 0 1 6.272,11.751 5.407,5.407 0 0 1 0.866,6.344 5.407,5.407 0 0 1 6.272,0.938 Z m 2.91,1.236 C 8.492,2.165 7.805,2.381 7.132,2.745 6.782,2.935 6.472,3.208 6.254,3.31 4.277,2.918 2.098,4.55 1.878,7.413 1.86,7.643 1.864,8.2 1.978,8.271 3.1,8.609 4.676,8.236 5.596,7.848 5.852,7.93 6.185,7.99 6.641,8.007 6.901,7.939 6.812,7.705 6.591,7.433 7.721,7.158 8.232,8.007 8.417,8.133 8.754,8.421 7.723,9.21 7.788,9.853 7.825,10.209 7.97,10.383 7.97,10.383 8.254,9.578 9.153,9.909 9.102,9.071 9.784,9.456 9.93,8.843 10.722,8.965 10.61,8.795 10.465,8.541 10.155,8.408 9.824,8.284 9.265,8.301 9.119,7.878 9.093,7.401 9.1,4.854 7.948,4.075 7.779,3.735 7.96,3.252 8.288,2.922 8.585,2.623 9.03,2.348 9.182,2.172 Z M 3.912,6.191 A 0.151,0.151 0 0 1 3.96,6.207 C 4.1,6.41 3.51,7.161 3.22,6.923 3.096,6.748 3.654,6.155 3.912,6.191 Z m 3.85,0.017 C 8.008,6.217 8.209,6.262 8.252,6.371 8.35,6.623 6.489,6.629 7.956,7.318 8.321,7.552 8.321,7.908 8.287,7.862 8.022,7.608 7.521,7.073 6.511,7.337 A 5.654,5.654 0 0 0 5.871,6.743 C 6.075,6.6 6.323,6.443 6.679,6.321 6.815,6.274 7.351,6.192 7.762,6.208 Z M 4.253,7.103 C 4.397,7.107 4.55,7.125 4.711,7.133 4.839,7.333 4.979,7.59 5.404,7.777 4.634,8.087 3.64,8.386 2.659,8.279 2.533,8.266 2.671,8.433 3.477,7.427 3.707,7.139 3.964,7.094 4.253,7.103 Z"
     id="path2"
     inkscape:connector-curvature="0"
     style="fill:#bde6fb;fill-opacity:1" />
</svg>
