<?xml version="1.0" encoding="UTF-8" standalone="no"?>
<svg
   width="48"
   height="48"
   viewBox="0 0 12.7 12.7"
   version="1.1"
   id="svg4"
   sodipodi:docname="org.kde.plasma.multimediacontrols.svg"
   inkscape:version="0.92.5 (2060ec1f9f, 2020-04-08)"
   xmlns:inkscape="http://www.inkscape.org/namespaces/inkscape"
   xmlns:sodipodi="http://sodipodi.sourceforge.net/DTD/sodipodi-0.dtd"
   xmlns="http://www.w3.org/2000/svg"
   xmlns:svg="http://www.w3.org/2000/svg">
  <sodipodi:namedview
     id="namedview1"
     pagecolor="#505050"
     bordercolor="#eeeeee"
     borderopacity="1"
     inkscape:showpageshadow="0"
     inkscape:pageopacity="0"
     inkscape:pagecheckerboard="0"
     inkscape:deskcolor="#d1d1d1" />
  <defs
     id="defs8">
    <style
       id="current-color-scheme"
       type="text/css">&#10;      .ColorScheme-Highlight {&#10;        color:#1e3f5a;&#10;      }&#10;  </style>
  </defs>
  <path
     class="ColorScheme-Highlight"
     style="fill:#bde6fb;fill-opacity:1;stroke-width:0.264583"
     d="M 6.3499999,0 A 6.3499999,6.3499999 0 0 0 0,6.3499999 6.3499999,6.3499999 0 0 0 6.3499999,12.7 6.3499999,6.3499999 0 0 0 12.7,6.3499999 6.3499999,6.3499999 0 0 0 6.3499999,0 Z m 0,0.79374999 A 5.5562499,5.5562499 0 0 1 11.90625,6.3499999 5.5562499,5.5562499 0 0 1 6.3499999,11.90625 5.5562499,5.5562499 0 0 1 0.79374999,6.3499999 5.5562499,5.5562499 0 0 1 6.3499999,0.79374999 Z M 2.9104166,2.6458333 c -0.1465791,0 -0.2645833,0.1180042 -0.2645833,0.2645833 v 5.2916666 c 0,0.1465792 0.1180042,0.2645834 0.2645833,0.2645834 h 2.38125 1.0583333 V 7.9374999 h -1.0583333 -1.5875 V 3.175 h 3.7041666 v 2.1166666 h 0.2645834 0.5291666 0.2645834 v -2.38125 c 0,-0.1465791 -0.1180042,-0.2645833 -0.2645834,-0.2645833 z m 0,0.5291667 H 3.4395833 V 3.7041666 H 2.9104166 Z m 4.7625,0 H 8.2020832 V 3.7041666 H 7.6729166 Z m -4.7625,1.0583333 H 3.4395833 V 4.7624999 H 2.9104166 Z m 4.7625,0 H 8.2020832 V 4.7624999 H 7.6729166 Z m -4.7625,1.0583333 H 3.4395833 V 5.8208333 H 2.9104166 Z m 3.96875,0.5291667 V 6.3499999 8.8025633 A 0.52916663,0.52916663 0 0 0 6.6145833,8.7312499 0.52916663,0.52916663 0 0 0 6.0854166,9.2604166 0.52916663,0.52916663 0 0 0 6.6145833,9.7895832 0.52916663,0.52916663 0 0 0 7.1437499,9.2604166 V 6.3499999 H 8.4666666 V 9.8608966 A 0.52916663,0.52916663 0 0 0 8.2020832,9.7895832 0.52916663,0.52916663 0 0 0 7.6729166,10.31875 0.52916663,0.52916663 0 0 0 8.2020832,10.847917 0.52916663,0.52916663 0 0 0 8.7312499,10.31875 V 6.3499999 H 10.054167 V 7.74423 A 0.52916663,0.52916663 0 0 0 9.7895832,7.6729166 0.52916663,0.52916663 0 0 0 9.2604166,8.2020832 0.52916663,0.52916663 0 0 0 9.7895832,8.7312499 0.52916663,0.52916663 0 0 0 10.31875,8.2020832 V 6.3499999 5.8208333 H 10.054167 8.7312499 8.4666666 7.1437499 Z m -3.96875,0.5291666 H 3.4395833 V 6.8791666 H 2.9104166 Z m 0,1.0583333 H 3.4395833 V 7.9374999 H 2.9104166 Z"
     id="path834" />
</svg>
