<?xml version="1.0" encoding="UTF-8" standalone="no"?>
<svg
   width="47.376377"
   height="47.372601"
   viewBox="0 0 12.535 12.534001"
   version="1.1"
   id="svg6"
   sodipodi:docname="org.gnome.SystemMonitor.Devel.svg"
   inkscape:version="0.92.5 (2060ec1f9f, 2020-04-08)"
   xmlns:inkscape="http://www.inkscape.org/namespaces/inkscape"
   xmlns:sodipodi="http://sodipodi.sourceforge.net/DTD/sodipodi-0.dtd"
   xmlns="http://www.w3.org/2000/svg"
   xmlns:svg="http://www.w3.org/2000/svg"
   xmlns:rdf="http://www.w3.org/1999/02/22-rdf-syntax-ns#"
   xmlns:cc="http://creativecommons.org/ns#"
   xmlns:dc="http://purl.org/dc/elements/1.1/">
  <metadata
     id="metadata12">
    <rdf:RDF>
      <cc:Work
         rdf:about="">
        <dc:format>image/svg+xml</dc:format>
        <dc:type
           rdf:resource="http://purl.org/dc/dcmitype/StillImage" />
        <dc:title />
      </cc:Work>
    </rdf:RDF>
  </metadata>
  <defs
     id="defs10" />
  <sodipodi:namedview
     pagecolor="#ffffff"
     bordercolor="#666666"
     borderopacity="1"
     objecttolerance="10"
     gridtolerance="10"
     guidetolerance="10"
     inkscape:pageopacity="0"
     inkscape:pageshadow="2"
     inkscape:window-width="1087"
     inkscape:window-height="480"
     id="namedview8"
     showgrid="false"
     inkscape:zoom="4.9166667"
     inkscape:cx="2.1355932"
     inkscape:cy="24"
     inkscape:window-x="0"
     inkscape:window-y="25"
     inkscape:window-maximized="0"
     inkscape:current-layer="svg6"
     inkscape:showpageshadow="0"
     inkscape:pagecheckerboard="0"
     inkscape:deskcolor="#d1d1d1" />
  <path
     d="M 6.2660001,3.2353401e-7 A 6.267,6.267 0 0 0 7.5638294e-8,6.2660003 6.267,6.267 0 0 0 6.2680001,12.534 6.267,6.267 0 0 0 12.535,6.2660003 6.267,6.267 0 0 0 6.2660001,3.2353401e-7 Z M 6.2490001,0.93200032 A 5.388,5.388 0 0 1 11.637,6.3220003 a 5.388,5.388 0 0 1 -0.4,2.024 h -0.925 l 0.624,0.624 A 5.388,5.388 0 0 1 10.166,10.01 L 8.5040001,8.3460003 h -1.81 l 2.491,2.4899997 a 5.388,5.388 0 0 1 -1.223,0.586 l -3.077,-3.0749997 h -1.81 l 3.357,3.3559997 a 5.388,5.388 0 0 1 -0.183,0.007 5.388,5.388 0 0 1 -2.013,-0.394 l -2.969,-2.9699997 h -0.008 a 5.388,5.388 0 0 1 -0.40000002,-2.025 5.388,5.388 0 0 1 5.39000002,-5.38999998 z"
     id="path2"
     inkscape:connector-curvature="0"
     style="fill:#bde6fb;fill-opacity:1" />
  <path
     d="M 0.72000008,6.0210003 H 2.8540001 l 0.65,-3.248 1.299,4.872 0.974,-2.923 0.974,1.948 0.975,-0.65 H 11.812"
     id="path4"
     inkscape:connector-curvature="0"
     style="fill:none;stroke:#bde6fb;stroke-width:0.325;stroke-linecap:round;stroke-linejoin:round;stroke-opacity:1" />
</svg>
