<?xml version="1.0" encoding="UTF-8" standalone="no"?>
<svg
   width="48"
   height="48"
   viewBox="0 0 12.7 12.7"
   version="1.1"
   id="svg4"
   sodipodi:docname="org.gnome.Podcasts.svg"
   inkscape:version="0.92.5 (2060ec1f9f, 2020-04-08)"
   xmlns:inkscape="http://www.inkscape.org/namespaces/inkscape"
   xmlns:sodipodi="http://sodipodi.sourceforge.net/DTD/sodipodi-0.dtd"
   xmlns="http://www.w3.org/2000/svg"
   xmlns:svg="http://www.w3.org/2000/svg">
  <sodipodi:namedview
     id="namedview1"
     pagecolor="#505050"
     bordercolor="#eeeeee"
     borderopacity="1"
     inkscape:showpageshadow="0"
     inkscape:pageopacity="0"
     inkscape:pagecheckerboard="0"
     inkscape:deskcolor="#d1d1d1" />
  <defs
     id="defs8">
    <style
       id="current-color-scheme"
       type="text/css">&#10;      .ColorScheme-Highlight {&#10;        color:#1e3f5a;&#10;      }&#10;  </style>
  </defs>
  <path
     class="ColorScheme-Highlight"
     style="fill:#bde6fb;fill-opacity:1;stroke-width:0.264583"
     d="M 6.3499999,0 A 6.3499999,6.3499999 0 0 0 0,6.3499999 6.3499999,6.3499999 0 0 0 6.3499999,12.7 6.3499999,6.3499999 0 0 0 12.7,6.3499999 6.3499999,6.3499999 0 0 0 6.3499999,0 Z m 0,0.79374999 A 5.5562499,5.5562499 0 0 1 11.90625,6.3499999 5.5562499,5.5562499 0 0 1 6.3499999,11.90625 5.5562499,5.5562499 0 0 1 0.79374999,6.3499999 5.5562499,5.5562499 0 0 1 6.3499999,0.79374999 Z"
     id="path827" />
  <path
     style="fill:#ff5555;stroke-width:0.264583"
     d="m 2.38125,3.4395833 c -0.1465792,0 -0.2645834,0.1180042 -0.2645834,0.2645833 v 5.2916666 c 0,0.1465792 0.1180042,0.2645834 0.2645834,0.2645834 h 0.5291666 l 0.79375,-1.5875 h 5.2916666 l 0.79375,1.5875 H 10.31875 c 0.146579,0 0.264583,-0.1180042 0.264583,-0.2645834 V 3.7041666 c 0,-0.1465791 -0.118004,-0.2645833 -0.264583,-0.2645833 z m 1.8520833,1.3229166 h 4.2333333 c 0.5863164,0 1.0583333,0.472017 1.0583333,1.0583334 0,0.5863164 -0.4720169,1.0583333 -1.0583333,1.0583333 H 4.2333333 C 3.6470169,6.8791666 3.175,6.4071497 3.175,5.8208333 3.175,5.2345169 3.6470169,4.7624999 4.2333333,4.7624999 Z m 0,0.5291667 A 0.52916663,0.52916663 0 0 0 3.7041666,5.8208333 0.52916663,0.52916663 0 0 0 4.2333333,6.3499999 0.52916663,0.52916663 0 0 0 4.7624999,5.8208333 0.52916663,0.52916663 0 0 0 4.2333333,5.2916666 Z m 4.2333333,0 A 0.52916663,0.52916663 0 0 0 7.9374999,5.8208333 0.52916663,0.52916663 0 0 0 8.4666666,6.3499999 0.52916663,0.52916663 0 0 0 8.9958332,5.8208333 0.52916663,0.52916663 0 0 0 8.4666666,5.2916666 Z M 3.96875,8.2020832 3.4395833,9.2604166 H 9.2604166 L 8.7312499,8.2020832 Z"
     id="path823" />
</svg>
