<?xml version="1.0" encoding="UTF-8" standalone="no"?>
<svg
   width="47.546486"
   height="47.546486"
   viewBox="0 0 12.580008 12.580008"
   version="1.1"
   id="svg4"
   sodipodi:docname="org.kde.plasma.activitypager.svg"
   inkscape:version="0.92.4 (5da689c313, 2019-01-14)"
   xmlns:inkscape="http://www.inkscape.org/namespaces/inkscape"
   xmlns:sodipodi="http://sodipodi.sourceforge.net/DTD/sodipodi-0.dtd"
   xmlns="http://www.w3.org/2000/svg"
   xmlns:svg="http://www.w3.org/2000/svg"
   xmlns:rdf="http://www.w3.org/1999/02/22-rdf-syntax-ns#"
   xmlns:cc="http://creativecommons.org/ns#"
   xmlns:dc="http://purl.org/dc/elements/1.1/">
  <metadata
     id="metadata10">
    <rdf:RDF>
      <cc:Work
         rdf:about="">
        <dc:format>image/svg+xml</dc:format>
        <dc:type
           rdf:resource="http://purl.org/dc/dcmitype/StillImage" />
        <dc:title />
      </cc:Work>
    </rdf:RDF>
  </metadata>
  <defs
     id="defs8" />
  <sodipodi:namedview
     pagecolor="#ffffff"
     bordercolor="#666666"
     borderopacity="1"
     objecttolerance="10"
     gridtolerance="10"
     guidetolerance="10"
     inkscape:pageopacity="0"
     inkscape:pageshadow="2"
     inkscape:window-width="1087"
     inkscape:window-height="480"
     id="namedview6"
     showgrid="false"
     inkscape:zoom="4.9166667"
     inkscape:cx="2.1355932"
     inkscape:cy="24"
     inkscape:window-x="0"
     inkscape:window-y="25"
     inkscape:window-maximized="0"
     inkscape:current-layer="svg4"
     inkscape:showpageshadow="0"
     inkscape:pagecheckerboard="0"
     inkscape:deskcolor="#d1d1d1" />
  <path
     d="M 6.2900079,0 A 6.29,6.29 0 0 0 7.9490244e-6,6.3 6.29,6.29 0 0 0 6.3000079,12.58 6.29,6.29 0 0 0 12.580008,6.29 6.29,6.29 0 0 0 6.2900079,0 Z m -0.02,0.93 0.01,0.01 A 5.4,5.4 0 0 1 11.680008,6.34 5.4,5.4 0 0 1 6.2800079,11.75 5.4,5.4 0 0 1 0.87000795,6.35 5.4,5.4 0 0 1 6.2700079,0.93 Z m -2.308,1.784 a 0.233,0.233 0 0 0 -0.19,0.107 c -0.238,0.356 -0.487,0.834 -0.726,1.27 l -0.272,-0.544 a 0.233222,0.233222 0 0 0 -0.417,0.209 l 0.466,0.933 a 0.233,0.233 0 0 0 0.412,0.013 c 0.303,-0.525 0.647,-1.205 0.925,-1.621 a 0.233,0.233 0 0 0 -0.198,-0.367 z m 0.703,0.937 a 0.467,0.467 0 1 0 0,0.934 h 5.136 a 0.467,0.467 0 1 0 0,-0.934 z m -1.634,2.101 a 0.467,0.467 0 0 0 -0.467,0.467 0.467,0.467 0 0 0 0.467,0.467 0.467,0.467 0 0 0 0.467,-0.467 0.467,0.467 0 0 0 -0.467,-0.467 z m 1.634,0 a 0.467,0.467 0 1 0 0,0.934 h 5.136 a 0.467,0.467 0 1 0 0,-0.934 z m -1.634,2.102 a 0.467,0.467 0 0 0 -0.467,0.466 0.467,0.467 0 0 0 0.467,0.467 0.467,0.467 0 0 0 0.467,-0.467 0.467,0.467 0 0 0 -0.467,-0.466 z m 1.634,0 a 0.4665,0.4665 0 1 0 0,0.933 h 5.136 a 0.4665,0.4665 0 1 0 0,-0.933 z"
     id="path2"
     inkscape:connector-curvature="0"
     style="fill:#bde6fb;fill-opacity:1;stroke-width:3.78" />
</svg>
