<?xml version="1.0" encoding="UTF-8" standalone="no"?>
<svg
   width="48"
   height="48"
   viewBox="0 0 12.7 12.7"
   version="1.1"
   id="svg4"
   sodipodi:docname="org.gnome.eog.Devel.svg"
   inkscape:version="0.92.5 (2060ec1f9f, 2020-04-08)"
   xmlns:inkscape="http://www.inkscape.org/namespaces/inkscape"
   xmlns:sodipodi="http://sodipodi.sourceforge.net/DTD/sodipodi-0.dtd"
   xmlns="http://www.w3.org/2000/svg"
   xmlns:svg="http://www.w3.org/2000/svg">
  <sodipodi:namedview
     id="namedview1"
     pagecolor="#505050"
     bordercolor="#eeeeee"
     borderopacity="1"
     inkscape:showpageshadow="0"
     inkscape:pageopacity="0"
     inkscape:pagecheckerboard="0"
     inkscape:deskcolor="#d1d1d1" />
  <defs
     id="defs8">
    <style
       id="current-color-scheme"
       type="text/css">&#10;      .ColorScheme-Highlight {&#10;        color:#1e3f5a;&#10;      }&#10;  </style>
  </defs>
  <path
     class="ColorScheme-Highlight"
     style="fill:#bde6fb;fill-opacity:1;stroke-width:0.264583"
     d="M 6.3499999,0 A 6.3499999,6.3499999 0 0 0 0,6.3499999 6.3499999,6.3499999 0 0 0 6.3499999,12.7 6.3499999,6.3499999 0 0 0 12.7,6.3499999 6.3499999,6.3499999 0 0 0 6.3499999,0 Z m 0,0.79374999 A 5.5562499,5.5562499 0 0 1 11.90625,6.3499999 5.5562499,5.5562499 0 0 1 11.172444,9.1012533 L 10.583333,8.4666666 H 8.9958332 L 10.47688,10.061401 A 5.5562499,5.5562499 0 0 1 9.7709798,10.72596 L 7.6729166,8.4666666 h -1.5875 l 2.677356,2.8830284 A 5.5562499,5.5562499 0 0 1 7.7798868,11.716081 L 4.7624999,8.4666666 H 3.175 L 6.3680866,11.905733 A 5.5562499,5.5562499 0 0 1 6.3499999,11.90625 5.5562499,5.5562499 0 0 1 4.8493163,11.694377 L 1.8520833,8.4666666 H 1.2180135 A 5.5562499,5.5562499 0 0 1 0.79374999,6.3499999 5.5562499,5.5562499 0 0 1 6.3499999,0.79374999 Z M 2.9104166,2.6458333 c -0.1465791,0 -0.2645833,0.1180042 -0.2645833,0.2645833 v 4.7625 H 3.175 V 3.175 h 6.3499999 v 4.4979166 h 0.5291671 v -4.7625 c 0,-0.1465791 -0.1180046,-0.2645833 -0.2645838,-0.2645833 z M 8.0697916,3.96875 A 0.6614583,0.6614583 0 0 0 7.4083332,4.6302083 0.6614583,0.6614583 0 0 0 8.0697916,5.2916666 0.6614583,0.6614583 0 0 0 8.7312499,4.6302083 0.6614583,0.6614583 0 0 0 8.0697916,3.96875 Z M 3.4395833,5.2916666 v 2.38125 H 9.2604166 V 6.6145833 h -2.38125 C 6.6145833,5.8208333 6.3499999,5.2916666 5.2916666,5.2916666 Z"
     id="path817" />
</svg>
