<?xml version="1.0" encoding="UTF-8" standalone="no"?>
<svg
   width="48"
   height="48"
   viewBox="0 0 12.7 12.7"
   version="1.1"
   id="svg4"
   sodipodi:docname="org.gnome.Extensions.Devel.svg"
   inkscape:version="0.92.5 (2060ec1f9f, 2020-04-08)"
   xmlns:inkscape="http://www.inkscape.org/namespaces/inkscape"
   xmlns:sodipodi="http://sodipodi.sourceforge.net/DTD/sodipodi-0.dtd"
   xmlns="http://www.w3.org/2000/svg"
   xmlns:svg="http://www.w3.org/2000/svg">
  <sodipodi:namedview
     id="namedview1"
     pagecolor="#505050"
     bordercolor="#eeeeee"
     borderopacity="1"
     inkscape:showpageshadow="0"
     inkscape:pageopacity="0"
     inkscape:pagecheckerboard="0"
     inkscape:deskcolor="#d1d1d1" />
  <defs
     id="defs8">
    <style
       id="current-color-scheme"
       type="text/css">&#10;      .ColorScheme-Highlight {&#10;        color:#1e3f5a;&#10;      }&#10;  </style>
  </defs>
  <path
     class="ColorScheme-Highlight"
     style="fill:#bde6fb;fill-opacity:1;stroke-width:0.264583"
     d="M 6.3499999,0 A 6.3499999,6.3499999 0 0 0 0,6.3499999 6.3499999,6.3499999 0 0 0 6.3499999,12.7 6.3499999,6.3499999 0 0 0 12.7,6.3499999 6.3499999,6.3499999 0 0 0 6.3499999,0 Z m 0,0.79374999 A 5.5562499,5.5562499 0 0 1 11.90625,6.3499999 5.5562499,5.5562499 0 0 1 11.172444,9.1012533 L 10.583333,8.4666666 H 8.9958332 L 10.47688,10.061401 A 5.5562499,5.5562499 0 0 1 9.7709798,10.72596 L 7.6729166,8.4666666 h -1.5875 l 2.677356,2.8830284 A 5.5562499,5.5562499 0 0 1 7.7798868,11.716081 L 4.7624999,8.4666666 H 3.175 L 6.3680866,11.905733 A 5.5562499,5.5562499 0 0 1 6.3499999,11.90625 5.5562499,5.5562499 0 0 1 4.8493163,11.694377 L 1.8520833,8.4666666 H 1.2180135 A 5.5562499,5.5562499 0 0 1 0.79374999,6.3499999 5.5562499,5.5562499 0 0 1 6.3499999,0.79374999 Z M 5.4239583,1.8520833 A 1.1906249,1.1906249 0 0 0 4.2333333,3.0427083 1.1906249,1.1906249 0 0 0 4.6772337,3.96875 H 2.9104166 c -0.439738,0 -0.79375,0.3540124 -0.79375,0.7937499 v 1.7657837 a 1.1906249,1.1906249 0 0 1 0.07183,-0.081649 1.1906249,1.1906249 0 0 1 0.087333,-0.081132 1.1906249,1.1906249 0 0 1 0.094568,-0.072347 1.1906249,1.1906249 0 0 1 0.1012858,-0.062012 1.1906249,1.1906249 0 0 1 0.107487,-0.051676 1.1906249,1.1906249 0 0 1 0.1116211,-0.040825 1.1906249,1.1906249 0 0 1 0.1152385,-0.029456 1.1906249,1.1906249 0 0 1 0.1178221,-0.017571 1.1906249,1.1906249 0 0 1 0.1188559,-0.0062 1.1906249,1.1906249 0 0 1 0.084232,0.0031 1.1906249,1.1906249 0 0 1 0.1183391,0.01447 1.1906249,1.1906249 0 0 1 0.1157552,0.025839 1.1906249,1.1906249 0 0 1 0.1131713,0.037724 1.1906249,1.1906249 0 0 1 0.1085207,0.048576 1.1906249,1.1906249 0 0 1 0.1033529,0.058911 1.1906249,1.1906249 0 0 1 0.096635,0.069246 1.1906249,1.1906249 0 0 1 0.0894,0.078548 1.1906249,1.1906249 0 0 1 0.081132,0.087333 1.1906249,1.1906249 0 0 1 0.072347,0.094568 1.1906249,1.1906249 0 0 1 0.062012,0.101286 1.1906249,1.1906249 0 0 1 0.051676,0.1074869 1.1906249,1.1906249 0 0 1 0.040824,0.1116211 1.1906249,1.1906249 0 0 1 0.029456,0.1152385 1.1906249,1.1906249 0 0 1 0.017571,0.1178221 1.1906249,1.1906249 0 0 1 0.0062,0.1188538 1.1906249,1.1906249 0 0 1 -0.0031,0.084232 1.1906249,1.1906249 0 0 1 -0.01447,0.1183391 1.1906249,1.1906249 0 0 1 -0.025839,0.1157552 1.1906249,1.1906249 0 0 1 -0.026353,0.078548 H 10.778153 A 1.1906249,1.1906249 0 0 0 10.847917,7.2760416 1.1906249,1.1906249 0 0 0 9.6572915,6.0854166 1.1906249,1.1906249 0 0 0 8.7312499,6.529317 V 4.7624999 c 0,-0.4397375 -0.354013,-0.7937499 -0.79375,-0.7937499 H 6.1717163 a 1.1906249,1.1906249 0 0 0 0.442867,-0.9260417 1.1906249,1.1906249 0 0 0 -1.190625,-1.190625 z"
     id="path817" />
</svg>
