<?xml version="1.0" encoding="UTF-8" standalone="no"?>
<svg
   width="47.546486"
   height="47.546486"
   viewBox="0 0 12.580008 12.580008"
   version="1.1"
   id="svg4"
   sodipodi:docname="org.kde.plasma.fuzzyclock.svg"
   inkscape:version="0.92.4 (5da689c313, 2019-01-14)"
   xmlns:inkscape="http://www.inkscape.org/namespaces/inkscape"
   xmlns:sodipodi="http://sodipodi.sourceforge.net/DTD/sodipodi-0.dtd"
   xmlns="http://www.w3.org/2000/svg"
   xmlns:svg="http://www.w3.org/2000/svg"
   xmlns:rdf="http://www.w3.org/1999/02/22-rdf-syntax-ns#"
   xmlns:cc="http://creativecommons.org/ns#"
   xmlns:dc="http://purl.org/dc/elements/1.1/">
  <metadata
     id="metadata10">
    <rdf:RDF>
      <cc:Work
         rdf:about="">
        <dc:format>image/svg+xml</dc:format>
        <dc:type
           rdf:resource="http://purl.org/dc/dcmitype/StillImage" />
        <dc:title />
      </cc:Work>
    </rdf:RDF>
  </metadata>
  <defs
     id="defs8" />
  <sodipodi:namedview
     pagecolor="#ffffff"
     bordercolor="#666666"
     borderopacity="1"
     objecttolerance="10"
     gridtolerance="10"
     guidetolerance="10"
     inkscape:pageopacity="0"
     inkscape:pageshadow="2"
     inkscape:window-width="1087"
     inkscape:window-height="480"
     id="namedview6"
     showgrid="false"
     inkscape:zoom="4.9166667"
     inkscape:cx="2.1355932"
     inkscape:cy="24"
     inkscape:window-x="0"
     inkscape:window-y="25"
     inkscape:window-maximized="0"
     inkscape:current-layer="svg4"
     inkscape:showpageshadow="0"
     inkscape:pagecheckerboard="0"
     inkscape:deskcolor="#d1d1d1" />
  <path
     d="M 6.2900079,0 A 6.29,6.29 0 0 0 7.9490244e-6,6.3 6.29,6.29 0 0 0 6.3000079,12.58 6.29,6.29 0 0 0 12.580008,6.29 6.29,6.29 0 0 0 6.2900079,0 Z m -0.02,0.93 0.01,0.01 A 5.4,5.4 0 0 1 11.680008,6.34 5.4,5.4 0 0 1 6.2800079,11.75 5.4,5.4 0 0 1 0.87000795,6.35 5.4,5.4 0 0 1 6.2700079,0.93 Z m -3.96,2.54 v 2.031 h 0.25 v -0.93 h 0.823 V 4.393 h -0.823 V 3.658 h 0.884 l 0.014,-0.187 h -1.147 z m 1.596,0 a 0.152,0.152 0 0 0 -0.11,0.042 0.14,0.14 0 0 0 -0.042,0.106 c 0,0.044 0.014,0.08 0.042,0.107 a 0.152,0.152 0 0 0 0.11,0.042 0.15,0.15 0 0 0 0.108,-0.042 0.142,0.142 0 0 0 0.043,-0.107 0.138,0.138 0 0 0 -0.043,-0.106 0.147,0.147 0 0 0 -0.108,-0.041 z m 4.488,0.156 -0.185,0.014 -0.038,0.39 -0.227,0.015 -0.005,0.13 h 0.227 V 5.06 c 0,0.09 0.008,0.163 0.023,0.219 a 0.283,0.283 0 0 0 0.085,0.137 0.352,0.352 0 0 0 0.161,0.075 1.3,1.3 0 0 0 0.26,0.021 h 0.095 l 0.011,-0.158 -0.117,-0.006 c -0.123,-0.004 -0.202,-0.024 -0.237,-0.058 -0.036,-0.035 -0.053,-0.112 -0.053,-0.23 V 4.176 h 0.39 V 4.03 h -0.39 z M 6.5400079,4 a 0.62,0.62 0 0 0 -0.48,0.21 c -0.127,0.14 -0.19,0.328 -0.19,0.564 0,0.232 0.064,0.417 0.193,0.553 a 0.663,0.663 0 0 0 0.504,0.203 0.956,0.956 0 0 0 0.496,-0.129 l -0.048,-0.163 a 1.41,1.41 0 0 1 -0.212,0.088 0.712,0.712 0 0 1 -0.21,0.029 0.46,0.46 0 0 1 -0.345,-0.135 c -0.088,-0.09 -0.135,-0.23 -0.143,-0.417 h 0.994 l 0.009,-0.117 c 0,-0.215 -0.05,-0.383 -0.147,-0.504 -0.096,-0.121 -0.236,-0.182 -0.42,-0.182 z m 3.166,0 c -0.217,0 -0.386,0.07 -0.51,0.211 -0.122,0.14 -0.183,0.326 -0.183,0.557 0,0.225 0.062,0.409 0.187,0.55 a 0.64,0.64 0 0 0 0.506,0.212 0.643,0.643 0 0 0 0.5030001,-0.213 0.796,0.796 0 0 0 0.19,-0.55 c 0,-0.23 -0.06,-0.416 -0.183,-0.556 C 10.094008,4.071 9.9230079,4 9.7060079,4 Z m -5.916,0.03 v 1.471 h 0.227 V 4.03 Z m 0.533,0 0.57,1.471 h 0.231 l 0.559,-1.471 h -0.235 a 160.192,160.192 0 0 0 -0.438,1.215 96.445,96.445 0 0 1 -0.449,-1.215 h -0.237 z m 2.223,0.146 c 0.234,0 0.356,0.159 0.367,0.476 h -0.801 a 0.575,0.575 0 0 1 0.136,-0.348 0.388,0.388 0 0 1 0.298,-0.128 z m 3.16,0 c 0.15,0 0.265,0.054 0.3420001,0.163 a 0.726,0.726 0 0 1 0.115,0.43 0.879,0.879 0 0 1 -0.047,0.302 0.439,0.439 0 0 1 -0.1530001,0.206 0.423,0.423 0 0 1 -0.257,0.077 0.394,0.394 0 0 1 -0.34,-0.162 0.706,0.706 0 0 1 -0.117,-0.424 c 0,-0.178 0.04,-0.322 0.117,-0.43 a 0.392,0.392 0 0 1 0.34,-0.162 z m -5.696,2.838 -0.228,0.017 v 1.61 c 0,0.087 0.01,0.16 0.03,0.219 0.021,0.057 0.053,0.101 0.095,0.132 0.043,0.03 0.091,0.052 0.145,0.064 0.055,0.011 0.123,0.017 0.203,0.017 h 0.11 l 0.012,-0.16 -0.062,-0.003 c -0.04,-0.002 -0.071,-0.005 -0.093,-0.007 a 1.087,1.087 0 0 1 -0.073,-0.01 0.205,0.205 0 0 1 -0.057,-0.02 0.338,0.338 0 0 1 -0.037,-0.03 0.1,0.1 0 0 1 -0.028,-0.047 0.73,0.73 0 0 1 -0.013,-0.064 0.779,0.779 0 0 1 -0.004,-0.087 v -1.63 z m -1.14,0.546 a 0.619,0.619 0 0 0 -0.481,0.21 c -0.126,0.14 -0.19,0.327 -0.19,0.563 0,0.232 0.065,0.417 0.194,0.553 a 0.663,0.663 0 0 0 0.503,0.203 0.956,0.956 0 0 0 0.497,-0.13 l -0.049,-0.162 a 1.415,1.415 0 0 1 -0.211,0.088 0.713,0.713 0 0 1 -0.21,0.029 0.46,0.46 0 0 1 -0.345,-0.135 c -0.088,-0.09 -0.136,-0.23 -0.143,-0.417 h 0.994 l 0.008,-0.117 c 0,-0.215 -0.048,-0.383 -0.146,-0.504 -0.096,-0.121 -0.237,-0.181 -0.421,-0.181 z m 2.37,0 a 0.619,0.619 0 0 0 -0.482,0.21 c -0.126,0.14 -0.189,0.327 -0.189,0.563 0,0.232 0.065,0.417 0.194,0.553 a 0.663,0.663 0 0 0 0.503,0.203 0.956,0.956 0 0 0 0.497,-0.13 l -0.049,-0.162 a 1.415,1.415 0 0 1 -0.211,0.088 0.713,0.713 0 0 1 -0.21,0.029 0.46,0.46 0 0 1 -0.345,-0.135 c -0.088,-0.09 -0.136,-0.23 -0.144,-0.417 h 0.995 l 0.008,-0.117 c 0,-0.215 -0.049,-0.383 -0.146,-0.504 -0.097,-0.121 -0.237,-0.181 -0.421,-0.181 z m 2.987,0 a 0.619,0.619 0 0 0 -0.481,0.21 c -0.126,0.14 -0.19,0.327 -0.19,0.563 0,0.232 0.065,0.417 0.194,0.553 a 0.663,0.663 0 0 0 0.503,0.203 0.956,0.956 0 0 0 0.497,-0.13 l -0.05,-0.162 a 1.415,1.415 0 0 1 -0.21,0.088 0.71,0.71 0 0 1 -0.21,0.029 0.46,0.46 0 0 1 -0.345,-0.135 c -0.088,-0.09 -0.136,-0.23 -0.144,-0.417 h 0.995 l 0.008,-0.117 c 0,-0.215 -0.048,-0.383 -0.146,-0.504 -0.096,-0.121 -0.236,-0.181 -0.421,-0.181 z m 1.606,0 c -0.221,0 -0.388,0.077 -0.5,0.233 l -0.023,-0.203 h -0.2 v 1.472 h 0.23 v -0.82 c 0,-0.337 0.152,-0.506 0.454,-0.506 0.112,0 0.19,0.034 0.2350001,0.102 a 0.544,0.544 0 0 1 0.067,0.299 v 0.925 h 0.23 v -0.9 c 0,-0.203 -0.04,-0.353 -0.12,-0.452 -0.08,-0.1 -0.204,-0.15 -0.3720001,-0.15 z m -3.823,0.03 0.57,1.472 h 0.231 l 0.559,-1.472 h -0.235 a 159.097,159.097 0 0 0 -0.438,1.215 96.527,96.527 0 0 1 -0.45,-1.215 z m -3.135,0.146 c 0.234,0 0.356,0.159 0.367,0.476 h -0.8 a 0.575,0.575 0 0 1 0.136,-0.348 0.388,0.388 0 0 1 0.297,-0.128 z m 2.37,0 c 0.234,0 0.356,0.159 0.367,0.476 h -0.8 a 0.575,0.575 0 0 1 0.136,-0.348 0.388,0.388 0 0 1 0.297,-0.128 z m 2.988,0 c 0.233,0 0.355,0.159 0.367,0.476 h -0.801 a 0.575,0.575 0 0 1 0.136,-0.348 0.388,0.388 0 0 1 0.298,-0.128 z"
     id="path2"
     inkscape:connector-curvature="0"
     style="fill:#bde6fb;fill-opacity:1" />
</svg>
