<?xml version="1.0" encoding="UTF-8" standalone="no"?>
<svg
   width="47.546486"
   height="47.546486"
   viewBox="0 0 12.580008 12.580008"
   version="1.1"
   id="svg4"
   sodipodi:docname="org.kde.plasma.digitalclock.svg"
   inkscape:version="0.92.4 (5da689c313, 2019-01-14)"
   xmlns:inkscape="http://www.inkscape.org/namespaces/inkscape"
   xmlns:sodipodi="http://sodipodi.sourceforge.net/DTD/sodipodi-0.dtd"
   xmlns="http://www.w3.org/2000/svg"
   xmlns:svg="http://www.w3.org/2000/svg"
   xmlns:rdf="http://www.w3.org/1999/02/22-rdf-syntax-ns#"
   xmlns:cc="http://creativecommons.org/ns#"
   xmlns:dc="http://purl.org/dc/elements/1.1/">
  <metadata
     id="metadata10">
    <rdf:RDF>
      <cc:Work
         rdf:about="">
        <dc:format>image/svg+xml</dc:format>
        <dc:type
           rdf:resource="http://purl.org/dc/dcmitype/StillImage" />
        <dc:title />
      </cc:Work>
    </rdf:RDF>
  </metadata>
  <defs
     id="defs8" />
  <sodipodi:namedview
     pagecolor="#ffffff"
     bordercolor="#666666"
     borderopacity="1"
     objecttolerance="10"
     gridtolerance="10"
     guidetolerance="10"
     inkscape:pageopacity="0"
     inkscape:pageshadow="2"
     inkscape:window-width="1087"
     inkscape:window-height="480"
     id="namedview6"
     showgrid="false"
     inkscape:zoom="4.9166667"
     inkscape:cx="2.1355932"
     inkscape:cy="24"
     inkscape:window-x="0"
     inkscape:window-y="25"
     inkscape:window-maximized="0"
     inkscape:current-layer="svg4"
     inkscape:showpageshadow="0"
     inkscape:pagecheckerboard="0"
     inkscape:deskcolor="#d1d1d1" />
  <path
     d="M 6.2900079,0 A 6.29,6.29 0 0 0 7.9490244e-6,6.3 6.29,6.29 0 0 0 6.3000079,12.58 6.29,6.29 0 0 0 12.580008,6.29 6.29,6.29 0 0 0 6.2900079,0 Z m -0.02,0.93 0.01,0.01 A 5.4,5.4 0 0 1 11.680008,6.34 5.4,5.4 0 0 1 6.2800079,11.75 5.4,5.4 0 0 1 0.87000795,6.35 5.4,5.4 0 0 1 6.2700079,0.93 Z m -3.386,2.577 a 0.668,0.668 0 0 0 -0.45,0.16 0.942,0.942 0 0 0 -0.278,0.441 c -0.06,0.187 -0.09,0.41 -0.09,0.668 0,0.186 0.017,0.356 0.049,0.509 0.033,0.151 0.081,0.285 0.145,0.4 0.066,0.115 0.15,0.204 0.256,0.268 a 0.71,0.71 0 0 0 0.368,0.094 0.687,0.687 0 0 0 0.363,-0.094 0.688,0.688 0 0 0 0.25,-0.27 1.43,1.43 0 0 0 0.141,-0.4 c 0.031,-0.151 0.047,-0.32 0.047,-0.507 0,-0.194 -0.017,-0.368 -0.05,-0.522 a 1.338,1.338 0 0 0 -0.148,-0.399 0.677,0.677 0 0 0 -0.603,-0.348 z m 6.87,0 a 0.814,0.814 0 0 0 -0.529,0.165 0.545,0.545 0 0 0 -0.204,0.446 c 0,0.144 0.042,0.268 0.126,0.372 0.085,0.104 0.196,0.18 0.33,0.224 a 0.8,0.8 0 0 0 -0.376,0.256 0.656,0.656 0 0 0 -0.13,0.415 c 0,0.137 0.035,0.256 0.107,0.356 0.073,0.1 0.167,0.173 0.283,0.22 0.116,0.047 0.247,0.071 0.392,0.071 0.224,0 0.4100001,-0.057 0.5580001,-0.17 a 0.566,0.566 0 0 0 0.222,-0.477 0.682,0.682 0 0 0 -0.136,-0.417 0.716,0.716 0 0 0 -0.364,-0.257 0.723,0.723 0 0 0 0.326,-0.226 0.57,0.57 0 0 0 0.121,-0.367 0.543,0.543 0 0 0 -0.202,-0.446 C 10.144008,3.562 9.9700079,3.507 9.7540079,3.507 Z m -4.882,0.034 c -0.058,0.04 -0.144,0.081 -0.259,0.123 -0.114,0.04 -0.212,0.069 -0.295,0.085 v 0.223 c 0.074,-0.01 0.163,-0.032 0.268,-0.066 0.107,-0.034 0.194,-0.07 0.264,-0.11 v 2 h -0.583 v 0.202 h 1.379 V 5.796 h -0.52 V 3.541 Z m 2.884,0 c -0.057,0.04 -0.143,0.081 -0.258,0.123 -0.114,0.04 -0.212,0.069 -0.295,0.085 v 0.223 c 0.074,-0.01 0.164,-0.032 0.269,-0.066 0.106,-0.034 0.193,-0.07 0.263,-0.11 v 2 h -0.584 v 0.202 h 1.38 V 5.796 h -0.521 V 3.541 Z m 1.997,0.173 c 0.14,0 0.2520001,0.037 0.3360001,0.11 a 0.36,0.36 0 0 1 0.126,0.288 0.48,0.48 0 0 1 -0.116,0.33 0.626,0.626 0 0 1 -0.3460001,0.181 0.658,0.658 0 0 1 -0.349,-0.182 0.475,0.475 0 0 1 -0.117,-0.33 0.36,0.36 0 0 1 0.128,-0.287 0.505,0.505 0 0 1 0.338,-0.11 z m -6.869,0.02 c 0.352,0 0.527,0.345 0.527,1.032 0,0.347 -0.045,0.61 -0.137,0.788 -0.09,0.177 -0.22,0.266 -0.39,0.266 -0.171,0 -0.305,-0.09 -0.401,-0.268 -0.095,-0.18 -0.143,-0.44 -0.143,-0.784 0,-0.329 0.047,-0.583 0.144,-0.763 0.097,-0.18 0.231,-0.27 0.4,-0.27 z m 3.432,0.484 a 0.194,0.194 0 0 0 -0.15,0.057 0.191,0.191 0 0 0 0,0.266 0.198,0.198 0 0 0 0.15,0.055 c 0.065,0 0.115,-0.018 0.149,-0.055 a 0.191,0.191 0 0 0 0,-0.266 c -0.034,-0.038 -0.084,-0.057 -0.15,-0.057 z m 3.437,0.602 a 0.742,0.742 0 0 1 0.3760001,0.192 c 0.096,0.094 0.144,0.21 0.144,0.347 0,0.305 -0.173,0.457 -0.5200001,0.457 -0.17,0 -0.301,-0.04 -0.392,-0.119 a 0.428,0.428 0 0 1 -0.134,-0.337 c 0,-0.141 0.048,-0.258 0.144,-0.35 a 0.78,0.78 0 0 1 0.382,-0.19 z m -3.437,0.82 a 0.198,0.198 0 0 0 -0.15,0.056 0.186,0.186 0 0 0 -0.054,0.132 c 0,0.05 0.018,0.095 0.053,0.133 a 0.198,0.198 0 0 0 0.15,0.056 c 0.066,0 0.116,-0.019 0.15,-0.056 a 0.19,0.19 0 0 0 0.053,-0.133 0.186,0.186 0 0 0 -0.053,-0.132 c -0.034,-0.037 -0.084,-0.056 -0.15,-0.056 z m -2.422,1.889 a 0.42,0.42 0 0 0 -0.28,0.096 0.564,0.564 0 0 0 -0.17,0.264 1.29,1.29 0 0 0 -0.056,0.401 c 0,0.112 0.01,0.214 0.03,0.306 0.02,0.09 0.05,0.17 0.09,0.24 0.04,0.069 0.093,0.122 0.158,0.16 a 0.45,0.45 0 0 0 0.228,0.057 0.417,0.417 0 0 0 0.38,-0.218 0.841,0.841 0 0 0 0.087,-0.24 c 0.019,-0.091 0.029,-0.193 0.029,-0.305 0,-0.116 -0.011,-0.22 -0.031,-0.313 a 0.787,0.787 0 0 0 -0.091,-0.24 0.413,0.413 0 0 0 -0.374,-0.208 z m 1.736,0 a 0.42,0.42 0 0 0 -0.279,0.096 0.564,0.564 0 0 0 -0.171,0.264 1.29,1.29 0 0 0 -0.056,0.401 c 0,0.112 0.01,0.214 0.03,0.306 0.02,0.09 0.05,0.17 0.09,0.24 0.04,0.069 0.093,0.122 0.158,0.16 a 0.45,0.45 0 0 0 0.228,0.057 0.417,0.417 0 0 0 0.38,-0.218 0.841,0.841 0 0 0 0.087,-0.24 c 0.02,-0.091 0.029,-0.193 0.029,-0.305 0,-0.116 -0.01,-0.22 -0.03,-0.313 a 0.787,0.787 0 0 0 -0.092,-0.24 0.413,0.413 0 0 0 -0.374,-0.208 z m 1.25,0 c -0.096,0 -0.181,0.02 -0.255,0.063 a 0.427,0.427 0 0 0 -0.17,0.165 0.464,0.464 0 0 0 0.078,0.55 0.47,0.47 0 0 0 0.314,0.12 c 0.07,0 0.137,-0.016 0.2,-0.05 l -0.104,0.133 -0.389,0.514 h 0.201 l 0.367,-0.493 0.096,-0.135 c 0.022,-0.033 0.047,-0.073 0.072,-0.12 a 0.569,0.569 0 0 0 0.038,-0.458 0.424,0.424 0 0 0 -0.243,-0.25 0.53,0.53 0 0 0 -0.206,-0.039 z m -4.227,0.02 a 0.717,0.717 0 0 1 -0.16,0.074 c -0.07,0.024 -0.132,0.041 -0.183,0.051 v 0.134 c 0.046,-0.006 0.101,-0.02 0.166,-0.04 a 0.893,0.893 0 0 0 0.164,-0.065 v 1.2 h -0.361 v 0.12 h 0.853 v -0.12 h -0.322 V 7.549 Z m 5.945,0 a 0.718,0.718 0 0 1 -0.16,0.074 c -0.071,0.024 -0.132,0.041 -0.184,0.051 v 0.134 c 0.046,-0.006 0.102,-0.02 0.167,-0.04 a 0.893,0.893 0 0 0 0.163,-0.065 v 1.2 h -0.361 v 0.12 h 0.854 v -0.12 h -0.322 V 7.549 Z m 0.872,0 -0.03,0.78 0.138,0.017 a 0.388,0.388 0 0 1 0.267,-0.108 0.31,0.31 0 0 1 0.1740001,0.045 0.25,0.25 0 0 1 0.1,0.115 c 0.02,0.047 0.03,0.1 0.03,0.16 0,0.109 -0.032,0.194 -0.093,0.255 a 0.335,0.335 0 0 1 -0.2460001,0.09 0.77,0.77 0 0 1 -0.37,-0.11 l -0.059,0.13 a 0.91,0.91 0 0 0 0.44,0.122 c 0.071,0 0.137,-0.01 0.1970001,-0.031 a 0.467,0.467 0 0 0 0.158,-0.091 0.404,0.404 0 0 0 0.107,-0.155 0.558,0.558 0 0 0 -0.013,-0.437 0.388,0.388 0 0 0 -0.154,-0.163 0.464,0.464 0 0 0 -0.2440001,-0.062 0.483,0.483 0 0 0 -0.274,0.08 l 0.017,-0.504 h 0.6300001 l 0.013,-0.133 z m -2.586,0.112 c 0.1,0 0.177,0.031 0.231,0.092 a 0.328,0.328 0 0 1 0.083,0.227 0.351,0.351 0 0 1 -0.022,0.126 0.266,0.266 0 0 1 -0.13,0.15 0.35,0.35 0 0 1 -0.17,0.041 0.305,0.305 0 0 1 -0.23,-0.085 0.313,0.313 0 0 1 -0.083,-0.226 0.33,0.33 0 0 1 0.085,-0.23 0.303,0.303 0 0 1 0.236,-0.095 z m -2.99,0.004 c 0.218,0 0.326,0.207 0.326,0.62 0,0.208 -0.028,0.365 -0.085,0.472 -0.056,0.106 -0.136,0.16 -0.241,0.16 -0.106,0 -0.19,-0.054 -0.249,-0.161 -0.058,-0.108 -0.088,-0.264 -0.088,-0.47 0,-0.198 0.03,-0.35 0.09,-0.458 0.06,-0.109 0.142,-0.163 0.247,-0.163 z m 1.736,0 c 0.218,0 0.327,0.207 0.327,0.62 0,0.208 -0.029,0.365 -0.085,0.472 -0.057,0.106 -0.137,0.16 -0.242,0.16 -0.106,0 -0.188,-0.054 -0.248,-0.161 -0.059,-0.108 -0.088,-0.264 -0.088,-0.47 0,-0.198 0.029,-0.35 0.089,-0.458 0.06,-0.109 0.143,-0.163 0.247,-0.163 z m -0.86,1.15 c -0.037,0 -0.065,0.01 -0.084,0.032 a 0.114,0.114 0 0 0 -0.029,0.078 0.108,0.108 0 0 0 0.112,0.11 c 0.036,0 0.063,-0.011 0.081,-0.033 a 0.112,0.112 0 0 0 0.029,-0.077 c 0,-0.03 -0.01,-0.057 -0.029,-0.078 -0.018,-0.022 -0.045,-0.032 -0.08,-0.032 z m 2.971,0 c -0.036,0 -0.064,0.01 -0.083,0.032 a 0.113,0.113 0 0 0 -0.028,0.078 c 0,0.03 0.009,0.055 0.028,0.077 0.02,0.022 0.048,0.033 0.083,0.033 0.036,0 0.063,-0.011 0.081,-0.033 a 0.113,0.113 0 0 0 0.03,-0.077 c 0,-0.03 -0.01,-0.057 -0.03,-0.078 -0.018,-0.022 -0.045,-0.032 -0.08,-0.032 z"
     id="path2"
     inkscape:connector-curvature="0"
     style="fill:#bde6fb;fill-opacity:1" />
</svg>
