<?xml version="1.0" encoding="UTF-8" standalone="no"?>
<svg
   width="47.546486"
   height="47.546486"
   viewBox="0 0 12.580008 12.580008"
   version="1.1"
   id="svg4"
   sodipodi:docname="org.kde.mcwsremote.svg"
   inkscape:version="0.92.4 (5da689c313, 2019-01-14)"
   xmlns:inkscape="http://www.inkscape.org/namespaces/inkscape"
   xmlns:sodipodi="http://sodipodi.sourceforge.net/DTD/sodipodi-0.dtd"
   xmlns="http://www.w3.org/2000/svg"
   xmlns:svg="http://www.w3.org/2000/svg"
   xmlns:rdf="http://www.w3.org/1999/02/22-rdf-syntax-ns#"
   xmlns:cc="http://creativecommons.org/ns#"
   xmlns:dc="http://purl.org/dc/elements/1.1/">
  <metadata
     id="metadata10">
    <rdf:RDF>
      <cc:Work
         rdf:about="">
        <dc:format>image/svg+xml</dc:format>
        <dc:type
           rdf:resource="http://purl.org/dc/dcmitype/StillImage" />
        <dc:title />
      </cc:Work>
    </rdf:RDF>
  </metadata>
  <defs
     id="defs8" />
  <sodipodi:namedview
     pagecolor="#ffffff"
     bordercolor="#666666"
     borderopacity="1"
     objecttolerance="10"
     gridtolerance="10"
     guidetolerance="10"
     inkscape:pageopacity="0"
     inkscape:pageshadow="2"
     inkscape:window-width="1087"
     inkscape:window-height="480"
     id="namedview6"
     showgrid="false"
     inkscape:zoom="4.9166667"
     inkscape:cx="2.1355932"
     inkscape:cy="24"
     inkscape:window-x="0"
     inkscape:window-y="25"
     inkscape:window-maximized="0"
     inkscape:current-layer="svg4"
     inkscape:showpageshadow="0"
     inkscape:pagecheckerboard="0"
     inkscape:deskcolor="#d1d1d1" />
  <path
     d="M 6.2900079,0 A 6.29,6.29 0 0 0 7.9490244e-6,6.3 6.29,6.29 0 0 0 6.3000079,12.58 6.29,6.29 0 0 0 12.580008,6.29 6.29,6.29 0 0 0 6.2900079,0 Z m -0.02,0.93 0.01,0.01 a 5.4,5.4 0 0 1 3.692,1.468 l -1.93,1.93 a 2.646,2.646 0 0 0 -1.766,-0.68 2.646,2.646 0 0 0 -1.767,0.68 l -1.937,-1.937 a 5.4,5.4 0 0 1 3.698,-1.471 z m -0.764,0.632 V 3.15 h 0.596 V 1.562 Z m 0.992,0 V 3.15 h 0.596 V 1.562 Z m -4.125,1.04 1.936,1.936 a 2.646,2.646 0 0 0 -0.68,1.766 2.646,2.646 0 0 0 0.68,1.767 2.646,2.646 0 0 0 0.098,0.103 2.646,2.646 0 0 1 -0.03,-0.026 2.646,2.646 0 0 1 -0.068,-0.077 l -1.973,1.973 A 5.4,5.4 0 0 1 0.87000795,6.35 5.4,5.4 0 0 1 2.3730079,2.6 Z m 7.8030001,0.002 a 5.4,5.4 0 0 1 1.504,3.736 5.4,5.4 0 0 1 -1.468,3.701 L 8.2420079,8.071 a 2.646,2.646 0 0 0 0.68,-1.767 2.646,2.646 0 0 0 -0.68,-1.766 z M 6.2760079,3.951 a 2.353,2.353 0 0 1 2.353,2.353 2.353,2.353 0 0 1 -2.353,2.354 2.353,2.353 0 0 1 -2.354,-2.354 2.353,2.353 0 0 1 2.354,-2.353 z m -1.777,0.397 a 2.646,2.646 0 0 0 -0.093,0.087 2.646,2.646 0 0 1 0.026,-0.029 2.646,2.646 0 0 1 0.067,-0.058 z m 3.646,0.086 a 2.646,2.646 0 0 1 0.029,0.027 2.646,2.646 0 0 1 0.058,0.066 2.646,2.646 0 0 0 -0.087,-0.093 z m -3.032,0.39 v 2.911 l 2.91,-1.455 -2.91,-1.455 z m -2.601,0.594 -1.222,0.862 1.222,0.862 V 6.603 l 0.763,0.539 V 5.418 l -0.763,0.539 z m 6.765,0 V 7.142 L 10.040008,6.603 v 0.539 l 1.22,-0.862 -1.22,-0.862 v 0.539 z m -1.131,2.755 a 2.646,2.646 0 0 1 -0.027,0.03 2.646,2.646 0 0 1 -0.066,0.057 2.646,2.646 0 0 0 0.093,-0.087 z m -3.637,0.098 a 2.646,2.646 0 0 0 1.767,0.68 2.646,2.646 0 0 0 1.766,-0.68 l 1.9750001,1.975 a 5.4,5.4 0 0 1 -3.7370001,1.504 5.4,5.4 0 0 1 -3.744,-1.506 l 1.974,-1.974 z m 0.997,1.205 v 1.587 h 1.588 V 9.476 Z"
     id="path2"
     inkscape:connector-curvature="0"
     style="fill:#bde6fb;fill-opacity:1" />
</svg>
