<?xml version="1.0" encoding="UTF-8" standalone="no"?>
<svg
   width="47.372601"
   height="47.372601"
   viewBox="0 0 12.534001 12.534001"
   version="1.1"
   id="svg4"
   sodipodi:docname="org.gnome.Calendar.Devel.svg"
   inkscape:version="0.92.5 (2060ec1f9f, 2020-04-08)"
   xmlns:inkscape="http://www.inkscape.org/namespaces/inkscape"
   xmlns:sodipodi="http://sodipodi.sourceforge.net/DTD/sodipodi-0.dtd"
   xmlns="http://www.w3.org/2000/svg"
   xmlns:svg="http://www.w3.org/2000/svg"
   xmlns:rdf="http://www.w3.org/1999/02/22-rdf-syntax-ns#"
   xmlns:cc="http://creativecommons.org/ns#"
   xmlns:dc="http://purl.org/dc/elements/1.1/">
  <metadata
     id="metadata10">
    <rdf:RDF>
      <cc:Work
         rdf:about="">
        <dc:format>image/svg+xml</dc:format>
        <dc:type
           rdf:resource="http://purl.org/dc/dcmitype/StillImage" />
        <dc:title />
      </cc:Work>
    </rdf:RDF>
  </metadata>
  <defs
     id="defs8" />
  <sodipodi:namedview
     pagecolor="#ffffff"
     bordercolor="#666666"
     borderopacity="1"
     objecttolerance="10"
     gridtolerance="10"
     guidetolerance="10"
     inkscape:pageopacity="0"
     inkscape:pageshadow="2"
     inkscape:window-width="1087"
     inkscape:window-height="480"
     id="namedview6"
     showgrid="false"
     inkscape:zoom="4.9166667"
     inkscape:cx="2.1355932"
     inkscape:cy="24"
     inkscape:window-x="0"
     inkscape:window-y="25"
     inkscape:window-maximized="0"
     inkscape:current-layer="svg4"
     inkscape:showpageshadow="0"
     inkscape:pagecheckerboard="0"
     inkscape:deskcolor="#d1d1d1" />
  <path
     d="M 6.2670001,0 A 6.267,6.267 0 0 0 7.7664852e-8,6.266 6.267,6.267 0 0 0 6.2670001,12.534 6.267,6.267 0 0 0 12.534,6.266 6.267,6.267 0 0 0 6.2670001,0 Z m -0.018,0.932 h 0.001 a 5.388,5.388 0 0 1 5.3879999,5.39 5.388,5.388 0 0 1 -0.4,2.024 l -0.925,10e-4 0.624,0.624 a 5.388,5.388 0 0 1 -0.77,1.04 L 8.5050001,8.347 h -1.81 l 2.491,2.49 a 5.388,5.388 0 0 1 -1.223,0.586 l -3.077,-3.077 h -1.81 l 3.357,3.356 a 5.388,5.388 0 0 1 -0.184,0.007 5.388,5.388 0 0 1 -2.012,-0.394 l -2.969,-2.969 h -0.008 A 5.388,5.388 0 0 1 0.86000008,6.321 5.388,5.388 0 0 1 6.2500001,0.931 Z m -2.118,0.863 a 0.504,0.504 0 0 0 -0.505,0.506 v 0.807 h 1.01 V 2.301 a 0.504,0.504 0 0 0 -0.505,-0.506 z m 4.267,0 a 0.504,0.504 0 0 0 -0.505,0.506 v 0.807 h 1.01 V 2.301 a 0.504,0.504 0 0 0 -0.505,-0.506 z m -6.16,1.54 v 1.38 h 0.01 v 2.893 h 0.73 V 4.716 h 6.586 V 7.607 H 10.295 V 4.136 H 10.29 v -0.8 H 2.2380001 Z m 2.796,2.118 a 1.55,1.55 0 0 0 -0.355,0.046 c -0.13,0.03 -0.27,0.075 -0.418,0.135 V 6.01 c 0.147,-0.082 0.284,-0.144 0.413,-0.184 0.13,-0.04 0.253,-0.06 0.369,-0.06 a 0.57,0.57 0 0 1 0.398,0.137 0.456,0.456 0 0 1 0.154,0.357 c 0,0.089 -0.023,0.18 -0.071,0.273 a 1.75,1.75 0 0 1 -0.248,0.337 c -0.063,0.07 -0.216,0.23 -0.459,0.475 l -0.258,0.263 h 0.443 c 0.13,-0.132 0.29,-0.295 0.379,-0.388 0.164,-0.17 0.262,-0.273 0.292,-0.309 a 1.51,1.51 0 0 0 0.23,-0.356 0.817,0.817 0 0 0 0.064,-0.32 0.705,0.705 0 0 0 -0.253,-0.57 c -0.17,-0.141 -0.395,-0.212 -0.678,-0.212 z m 2.395,0.05 -0.655,0.131 v 0.337 l 0.659,-0.13 v 1.766 h 0.367 V 5.503 h -0.37 z"
     id="path2"
     inkscape:connector-curvature="0"
     style="fill:#bde6fb;fill-opacity:1" />
</svg>
