<?xml version="1.0" encoding="UTF-8" standalone="no"?>
<svg
   width="47.546455"
   height="47.546455"
   viewBox="0 0 12.58 12.58"
   version="1.1"
   id="svg4"
   sodipodi:docname="org.kde.windowtitle.svg"
   inkscape:version="0.92.4 (5da689c313, 2019-01-14)"
   xmlns:inkscape="http://www.inkscape.org/namespaces/inkscape"
   xmlns:sodipodi="http://sodipodi.sourceforge.net/DTD/sodipodi-0.dtd"
   xmlns="http://www.w3.org/2000/svg"
   xmlns:svg="http://www.w3.org/2000/svg"
   xmlns:rdf="http://www.w3.org/1999/02/22-rdf-syntax-ns#"
   xmlns:cc="http://creativecommons.org/ns#"
   xmlns:dc="http://purl.org/dc/elements/1.1/">
  <metadata
     id="metadata10">
    <rdf:RDF>
      <cc:Work
         rdf:about="">
        <dc:format>image/svg+xml</dc:format>
        <dc:type
           rdf:resource="http://purl.org/dc/dcmitype/StillImage" />
        <dc:title />
      </cc:Work>
    </rdf:RDF>
  </metadata>
  <defs
     id="defs8" />
  <sodipodi:namedview
     pagecolor="#ffffff"
     bordercolor="#666666"
     borderopacity="1"
     objecttolerance="10"
     gridtolerance="10"
     guidetolerance="10"
     inkscape:pageopacity="0"
     inkscape:pageshadow="2"
     inkscape:window-width="862"
     inkscape:window-height="480"
     id="namedview6"
     showgrid="false"
     inkscape:zoom="4.9166667"
     inkscape:cx="2.1355932"
     inkscape:cy="24"
     inkscape:window-x="0"
     inkscape:window-y="25"
     inkscape:window-maximized="0"
     inkscape:current-layer="svg4"
     inkscape:showpageshadow="0"
     inkscape:pagecheckerboard="0"
     inkscape:deskcolor="#d1d1d1" />
  <path
     d="M 6.29,9.9999768e-4 A 6.29,6.29 0 0 0 0,6.291 6.29,6.29 0 0 0 6.29,12.58 6.29,6.29 0 0 0 12.58,6.29 6.29,6.29 0 0 0 6.29,0 Z M 6.272,0.938 a 5.407,5.407 0 0 1 5.407,5.407 5.407,5.407 0 0 1 -1.675,3.91 v -4.29 c 0,-0.484 -0.3,-0.876 -0.67,-0.876 h -5.98 0.002 c -0.37,0 -0.67,0.392 -0.67,0.878 v 4.417 A 5.407,5.407 0 0 1 0.866,6.345 5.407,5.407 0 0 1 6.272,0.939 Z M 3.786,6.182 H 4.741 V 6.324 H 4.349 v 1.11 H 4.179 V 6.324 H 3.786 Z m 1.163,0 H 5.644 V 6.324 H 5.381 V 7.292 H 5.644 V 7.434 H 4.949 V 7.292 H 5.211 V 6.324 H 4.949 Z m 0.905,0 H 6.809 V 6.324 H 6.416 v 1.11 H 6.246 V 6.324 H 5.853 V 6.182 Z m 1.175,0 h 0.17 v 1.11 H 7.803 V 7.434 H 7.029 Z m 1.019,0 H 8.79 V 6.324 H 8.217 v 0.372 h 0.549 v 0.142 h -0.55 v 0.454 h 0.59 V 7.434 H 8.048 Z M 3.346,7.949 h 6.036 v 2.81 a 5.407,5.407 0 0 1 -3.11,0.993 5.407,5.407 0 0 1 -2.926,-0.867 z"
     id="path2"
     inkscape:connector-curvature="0"
     style="fill:#bde6fb;fill-opacity:1" />
</svg>
