<?xml version="1.0" encoding="UTF-8" standalone="no"?>
<svg
   width="47.546486"
   height="47.546486"
   viewBox="0 0 12.580008 12.580008"
   version="1.1"
   id="svg4"
   sodipodi:docname="org.kde.plasma.digitalclock-ng.svg"
   inkscape:version="0.92.4 (5da689c313, 2019-01-14)"
   xmlns:inkscape="http://www.inkscape.org/namespaces/inkscape"
   xmlns:sodipodi="http://sodipodi.sourceforge.net/DTD/sodipodi-0.dtd"
   xmlns="http://www.w3.org/2000/svg"
   xmlns:svg="http://www.w3.org/2000/svg"
   xmlns:rdf="http://www.w3.org/1999/02/22-rdf-syntax-ns#"
   xmlns:cc="http://creativecommons.org/ns#"
   xmlns:dc="http://purl.org/dc/elements/1.1/">
  <metadata
     id="metadata10">
    <rdf:RDF>
      <cc:Work
         rdf:about="">
        <dc:format>image/svg+xml</dc:format>
        <dc:type
           rdf:resource="http://purl.org/dc/dcmitype/StillImage" />
        <dc:title />
      </cc:Work>
    </rdf:RDF>
  </metadata>
  <defs
     id="defs8" />
  <sodipodi:namedview
     pagecolor="#ffffff"
     bordercolor="#666666"
     borderopacity="1"
     objecttolerance="10"
     gridtolerance="10"
     guidetolerance="10"
     inkscape:pageopacity="0"
     inkscape:pageshadow="2"
     inkscape:window-width="1087"
     inkscape:window-height="480"
     id="namedview6"
     showgrid="false"
     inkscape:zoom="4.9166667"
     inkscape:cx="2.1355932"
     inkscape:cy="24"
     inkscape:window-x="0"
     inkscape:window-y="25"
     inkscape:window-maximized="0"
     inkscape:current-layer="svg4"
     inkscape:showpageshadow="0"
     inkscape:pagecheckerboard="0"
     inkscape:deskcolor="#d1d1d1" />
  <path
     d="M 6.2900079,0 A 6.29,6.29 0 0 0 7.9490244e-6,6.3 6.29,6.29 0 0 0 6.3000079,12.58 6.29,6.29 0 0 0 12.580008,6.29 6.29,6.29 0 0 0 6.2900079,0 Z m -0.02,0.93 0.01,0.01 A 5.4,5.4 0 0 1 11.680008,6.34 5.4,5.4 0 0 1 6.2800079,11.75 5.4,5.4 0 0 1 0.87000795,6.35 5.4,5.4 0 0 1 6.2700079,0.93 Z m 0.088,0.638 A 4.748,4.748 0 0 0 4.3100079,2 c -0.458,0.142 -0.71,0.599 -0.46,1.053 0.198,0.342 0.635,0.46 0.977,0.263 l 0.01,0.017 a 3.334,3.334 0 0 1 0.084,-0.043 3.334,3.334 0 0 1 0.31,-0.122 3.334,3.334 0 0 1 0.321,-0.09 3.334,3.334 0 0 1 0.329,-0.057 3.334,3.334 0 0 1 0.332,-0.025 3.334,3.334 0 0 1 0.333,0.009 3.334,3.334 0 0 1 0.33,0.042 3.334,3.334 0 0 1 0.325,0.075 3.334,3.334 0 0 1 0.316,0.107 3.334,3.334 0 0 1 0.303,0.137 3.334,3.334 0 0 1 0.288,0.167 3.334,3.334 0 0 1 0.27,0.196 3.334,3.334 0 0 1 0.25,0.221 3.334,3.334 0 0 1 0.225,0.245 3.334,3.334 0 0 1 0.2,0.267 3.334,3.334 0 0 1 0.125,0.2 3.334,3.334 0 0 1 0.153,0.297 3.334,3.334 0 0 1 0.12,0.31 3.334,3.334 0 0 1 0.091,0.32 3.334,3.334 0 0 1 0.058,0.328 3.334,3.334 0 0 1 0.024,0.333 3.334,3.334 0 0 1 -0.009,0.333 3.334,3.334 0 0 1 -0.042,0.33 3.334,3.334 0 0 1 -0.075,0.325 3.334,3.334 0 0 1 -0.107,0.316 3.334,3.334 0 0 1 -0.137,0.303 3.334,3.334 0 0 1 -0.168,0.289 3.334,3.334 0 0 1 -0.195,0.27 3.334,3.334 0 0 1 -0.221,0.249 3.334,3.334 0 0 1 -0.246,0.225 3.334,3.334 0 0 1 -0.266,0.2 3.334,3.334 0 0 1 -0.2,0.126 3.334,3.334 0 0 1 -0.296,0.152 3.334,3.334 0 0 1 -0.31,0.121 3.334,3.334 0 0 1 -0.321,0.09 3.334,3.334 0 0 1 -0.328,0.058 3.334,3.334 0 0 1 -0.333,0.024 3.334,3.334 0 0 1 -0.333,-0.009 3.334,3.334 0 0 1 -0.33,-0.041 3.334,3.334 0 0 1 -0.325,-0.075 3.334,3.334 0 0 1 -0.316,-0.107 3.334,3.334 0 0 1 -0.303,-0.138 3.334,3.334 0 0 1 -0.288,-0.167 3.334,3.334 0 0 1 -0.27,-0.196 3.334,3.334 0 0 1 -0.249,-0.22 3.334,3.334 0 0 1 -0.226,-0.246 3.334,3.334 0 0 1 -0.2,-0.266 3.334,3.334 0 0 1 -0.125,-0.2 3.334,3.334 0 0 1 -0.002,-0.005 h -10e-4 a 0.714,0.714 0 1 0 -1.205,0.766 4.765,4.765 0 0 0 6.475,1.696 4.764,4.764 0 0 0 1.7410001,-6.51 4.768,4.768 0 0 0 -4.0550001,-2.375 z m 0.243,3.424 a 0.848,0.848 0 0 0 -0.531,0.176 l 0.104,0.144 c 0.064,-0.041 0.128,-0.076 0.194,-0.103 a 0.615,0.615 0 0 1 0.236,-0.04 c 0.095,0 0.171,0.023 0.227,0.07 a 0.229,0.229 0 0 1 0.083,0.19 0.287,0.287 0 0 1 -0.11,0.234 c -0.071,0.059 -0.177,0.088 -0.317,0.088 h -0.167 V 5.93 h 0.164 a 0.71,0.71 0 0 1 0.351,0.071 c 0.085,0.046 0.127,0.122 0.127,0.229 a 0.313,0.313 0 0 1 -0.102,0.247 c -0.067,0.06 -0.178,0.09 -0.33,0.09 a 1.058,1.058 0 0 1 -0.47,-0.113 V 6.65 a 0.77,0.77 0 0 0 0.219,0.072 c 0.076,0.014 0.16,0.02 0.248,0.02 a 0.906,0.906 0 0 0 0.37,-0.064 0.458,0.458 0 0 0 0.215,-0.178 0.503,0.503 0 0 0 0.07,-0.265 0.377,0.377 0 0 0 -0.103,-0.275 0.483,0.483 0 0 0 -0.303,-0.129 V 5.822 a 0.477,0.477 0 0 0 0.255,-0.134 0.38,0.38 0 0 0 0.098,-0.275 0.392,0.392 0 0 0 -0.131,-0.303 c -0.086,-0.08 -0.219,-0.119 -0.397,-0.119 z m 1.63,0 a 0.798,0.798 0 0 0 -0.395,0.086 0.631,0.631 0 0 0 -0.239,0.232 0.998,0.998 0 0 0 -0.116,0.322 2.07,2.07 0 0 0 -0.032,0.36 c 0,0.17 0.026,0.311 0.077,0.423 a 0.564,0.564 0 0 0 0.21,0.248 c 0.088,0.054 0.185,0.08 0.294,0.08 0.165,0 0.296,-0.05 0.393,-0.151 a 0.58,0.58 0 0 0 0.148,-0.421 c 0,-0.166 -0.045,-0.293 -0.136,-0.382 a 0.483,0.483 0 0 0 -0.357,-0.136 0.477,0.477 0 0 0 -0.251,0.06 0.453,0.453 0 0 0 -0.153,0.14 h -0.015 c 0.005,-0.093 0.017,-0.181 0.036,-0.264 a 0.68,0.68 0 0 1 0.09,-0.22 0.449,0.449 0 0 1 0.175,-0.15 0.611,0.611 0 0 1 0.275,-0.055 c 0.035,0 0.07,0.002 0.107,0.007 0.037,0.004 0.07,0.012 0.098,0.022 v -0.18 a 0.467,0.467 0 0 0 -0.1,-0.016 1.384,1.384 0 0 0 -0.11,-0.005 z m -4.8,0.024 -0.46,0.358 0.109,0.14 0.181,-0.147 0.077,-0.067 a 0.806,0.806 0 0 0 0.072,-0.064 3.857,3.857 0 0 0 -0.01,0.293 V 6.72 h 0.206 V 5.016 h -0.176 z m 1.19,0 -0.46,0.358 0.11,0.14 0.18,-0.147 0.077,-0.067 a 0.805,0.805 0 0 0 0.07,-0.064 3.901,3.901 0 0 0 -0.006,0.128 c -0.002,0.042 -0.002,0.097 -0.002,0.165 V 6.72 h 0.205 V 5.016 Z m 1.01,0.391 a 0.155,0.155 0 0 0 -0.103,0.036 c -0.028,0.024 -0.042,0.066 -0.042,0.126 0,0.058 0.014,0.099 0.042,0.124 a 0.149,0.149 0 0 0 0.103,0.039 0.16,0.16 0 0 0 0.105,-0.039 c 0.03,-0.025 0.045,-0.066 0.045,-0.124 0,-0.06 -0.015,-0.102 -0.045,-0.126 a 0.166,0.166 0 0 0 -0.105,-0.036 z m 2.403,0.411 c 0.11,0 0.192,0.032 0.246,0.096 0.056,0.063 0.084,0.149 0.084,0.257 0,0.135 -0.031,0.236 -0.093,0.301 a 0.327,0.327 0 0 1 -0.244,0.095 0.314,0.314 0 0 1 -0.203,-0.064 0.414,0.414 0 0 1 -0.122,-0.167 0.554,0.554 0 0 1 -0.04,-0.205 0.27,0.27 0 0 1 0.046,-0.146 0.386,0.386 0 0 1 0.327,-0.167 z m -2.403,0.613 a 0.154,0.154 0 0 0 -0.103,0.036 c -0.028,0.023 -0.042,0.066 -0.042,0.125 0,0.057 0.014,0.098 0.042,0.123 a 0.149,0.149 0 0 0 0.103,0.038 0.16,0.16 0 0 0 0.105,-0.038 c 0.03,-0.025 0.045,-0.066 0.045,-0.123 0,-0.06 -0.015,-0.102 -0.045,-0.125 a 0.165,0.165 0 0 0 -0.105,-0.036 z"
     id="path2"
     inkscape:connector-curvature="0"
     style="fill:#bde6fb;fill-opacity:1" />
</svg>
