<?xml version="1.0" encoding="UTF-8" standalone="no"?>
<svg
   width="48"
   height="48"
   viewBox="0 0 12.7 12.7"
   version="1.1"
   id="svg4"
   sodipodi:docname="org.gnome.ArchiveManager.Devel.svg"
   inkscape:version="0.92.5 (2060ec1f9f, 2020-04-08)"
   xmlns:inkscape="http://www.inkscape.org/namespaces/inkscape"
   xmlns:sodipodi="http://sodipodi.sourceforge.net/DTD/sodipodi-0.dtd"
   xmlns="http://www.w3.org/2000/svg"
   xmlns:svg="http://www.w3.org/2000/svg">
  <sodipodi:namedview
     id="namedview1"
     pagecolor="#505050"
     bordercolor="#eeeeee"
     borderopacity="1"
     inkscape:showpageshadow="0"
     inkscape:pageopacity="0"
     inkscape:pagecheckerboard="0"
     inkscape:deskcolor="#d1d1d1" />
  <defs
     id="defs8">
    <style
       id="current-color-scheme"
       type="text/css">&#10;      .ColorScheme-Highlight {&#10;        color:#1e3f5a;&#10;      }&#10;  </style>
  </defs>
  <path
     class="ColorScheme-Highlight"
     style="fill:#bde6fb;fill-opacity:1;stroke-width:0.264583"
     d="M 6.3499999,0 A 6.3499999,6.3499999 0 0 0 0,6.3499999 6.3499999,6.3499999 0 0 0 6.3499999,12.7 6.3499999,6.3499999 0 0 0 12.7,6.3499999 6.3499999,6.3499999 0 0 0 6.3499999,0 Z m 0,0.79374999 V 1.8520833 h 1.5875 V 1.0278442 a 5.5562499,5.5562499 0 0 1 0.00103,5.16e-4 5.5562499,5.5562499 0 0 1 0.3989422,0.1410766 l -0.00103,-0.00155 A 5.5562499,5.5562499 0 0 1 11.90625,6.3499999 5.5562499,5.5562499 0 0 1 11.172444,9.1012533 L 10.583333,8.4666666 H 8.9958332 L 10.47688,10.061401 A 5.5562499,5.5562499 0 0 1 9.7709798,10.72596 L 7.6729166,8.4666666 h -1.5875 l 2.677356,2.8830284 A 5.5562499,5.5562499 0 0 1 7.7798868,11.716081 L 4.7624999,8.4666666 H 3.175 L 6.3680866,11.905733 A 5.5562499,5.5562499 0 0 1 6.3499999,11.90625 5.5562499,5.5562499 0 0 1 4.8493163,11.694377 L 1.8520833,8.4666666 H 1.2180135 A 5.5562499,5.5562499 0 0 1 0.79374999,6.3499999 5.5562499,5.5562499 0 0 1 5.7862102,0.82837321 5.5562499,5.5562499 0 0 1 6.3282959,0.79426675 5.5562499,5.5562499 0 0 1 6.3499999,0.79374999 Z m 0,1.05833331 h -1.5875 v 1.0583333 h 1.5875 z m -1.0583333,1.5875 V 5.5562499 H 5.8208333 V 7.4083332 H 6.8791666 V 5.5562499 H 7.4083332 V 3.4395833 Z M 5.8208333,3.96875 H 6.8791666 V 5.0270833 H 5.8208333 Z"
     id="path831" />
</svg>
