<?xml version="1.0" encoding="UTF-8" standalone="no"?>
<svg
   width="47.542679"
   height="47.546455"
   viewBox="0 0 12.579 12.58"
   version="1.1"
   id="svg6"
   sodipodi:docname="oscanner.svg"
   inkscape:version="0.92.5 (2060ec1f9f, 2020-04-08)"
   xmlns:inkscape="http://www.inkscape.org/namespaces/inkscape"
   xmlns:sodipodi="http://sodipodi.sourceforge.net/DTD/sodipodi-0.dtd"
   xmlns="http://www.w3.org/2000/svg"
   xmlns:svg="http://www.w3.org/2000/svg"
   xmlns:rdf="http://www.w3.org/1999/02/22-rdf-syntax-ns#"
   xmlns:cc="http://creativecommons.org/ns#"
   xmlns:dc="http://purl.org/dc/elements/1.1/">
  <metadata
     id="metadata12">
    <rdf:RDF>
      <cc:Work
         rdf:about="">
        <dc:format>image/svg+xml</dc:format>
        <dc:type
           rdf:resource="http://purl.org/dc/dcmitype/StillImage" />
        <dc:title />
      </cc:Work>
    </rdf:RDF>
  </metadata>
  <defs
     id="defs10" />
  <sodipodi:namedview
     pagecolor="#ffffff"
     bordercolor="#666666"
     borderopacity="1"
     objecttolerance="10"
     gridtolerance="10"
     guidetolerance="10"
     inkscape:pageopacity="0"
     inkscape:pageshadow="2"
     inkscape:window-width="1085"
     inkscape:window-height="480"
     id="namedview8"
     showgrid="false"
     inkscape:zoom="4.9166667"
     inkscape:cx="2.1355932"
     inkscape:cy="24"
     inkscape:window-x="0"
     inkscape:window-y="25"
     inkscape:window-maximized="0"
     inkscape:current-layer="svg6"
     inkscape:showpageshadow="0"
     inkscape:pagecheckerboard="0"
     inkscape:deskcolor="#d1d1d1" />
  <path
     d="M 6.285,0 A 6.295,6.295 0 0 0 0,6.285 6.295,6.295 0 0 0 6.285,12.58 6.295,6.295 0 0 0 12.579,6.285 6.295,6.295 0 0 0 6.285,0 Z M 6.274,0.94 a 5.408,5.408 0 0 1 5.397,5.387 5.407,5.407 0 0 1 -10.814,0 C 0.857,3.34 3.287,0.94 6.274,0.94 Z M 7.419,2.055 C 6.8,2.055 6.208,2.295 5.679,2.662 5.274,2.994 4.827,3.363 4.405,3.785 L 3.807,4.384 C 3.759,4.462 3.687,4.531 3.653,4.614 A 1.437,1.437 0 0 0 3.546,5.146 C 3.543,5.327 3.569,5.509 3.614,5.689 3.639,5.791 3.655,5.894 3.691,5.993 3.703,5.979 3.707,5.962 3.72,5.948 L 5.97,3.699 c 0.81,-0.81 2.09,-0.81 2.9,0 0.195,0.194 0.336,0.418 0.437,0.653 0.323,0.32 0.705,0.655 0.921,1.022 0.059,0.072 0.089,0.156 0.14,0.231 0.017,0.025 0.026,0.053 0.043,0.078 C 10.581,4.721 10.351,3.701 9.609,2.96 A 3.087,3.087 0 0 0 7.419,2.055 Z M 8.9,6.555 C 8.887,6.569 8.884,6.587 8.87,6.6 L 6.622,8.85 c -0.81,0.81 -2.091,0.81 -2.901,0 A 2.072,2.072 0 0 1 3.284,8.197 C 2.961,7.877 2.579,7.542 2.364,7.176 2.304,7.103 2.276,7.019 2.224,6.944 2.207,6.919 2.198,6.891 2.181,6.865 2.011,7.828 2.241,8.847 2.982,9.589 4.056,10.663 5.706,10.725 6.912,9.886 7.416,9.517 7.765,9.184 8.188,8.762 L 8.783,8.166 C 8.831,8.088 8.903,8.019 8.937,7.936 9.009,7.763 9.042,7.584 9.045,7.403 A 2.11,2.11 0 0 0 8.977,6.861 C 8.952,6.759 8.937,6.656 8.901,6.557 Z"
     id="path2"
     inkscape:connector-curvature="0"
     style="fill:#bde6fb;fill-opacity:1" />
  <path
     style="color:#000000;font-variant-ligatures:normal;font-variant-position:normal;font-variant-caps:normal;font-variant-numeric:normal;font-variant-alternates:normal;font-feature-settings:normal;text-indent:0;text-decoration:none;text-decoration-line:none;text-decoration-style:solid;text-decoration-color:#000000;text-transform:none;text-orientation:mixed;white-space:normal;shape-padding:0;opacity:0.8;isolation:auto;mix-blend-mode:normal;solid-color:#000000;fill:#d41919;paint-order:stroke fill markers"
     d="M 5.245,2.108 C 4.426,2.076 3.605,2.337 2.981,2.961 2.268,3.674 2.029,4.645 2.159,5.575 2.224,6.039 2.409,6.471 2.681,6.868 2.98,7.341 3.428,7.785 3.789,8.148 L 4.422,8.78 C 4.496,8.824 4.56,8.893 4.639,8.925 a 1.771,1.771 0 0 0 1.345,0 C 6.002,8.918 6.016,8.901 6.033,8.893 6.013,8.875 5.988,8.869 5.969,8.85 L 3.72,6.6 C 3.7,6.582 3.695,6.556 3.677,6.536 A 2.173,2.173 0 0 1 3.327,6.013 C 3.067,5.499 3.091,4.822 3.269,4.373 A 2.078,2.078 0 0 1 4.395,3.248 L 5.098,2.546 C 5.253,2.391 5.422,2.258 5.596,2.139 A 3.511,3.511 0 0 0 5.246,2.108 Z M 7.279,3.492 C 7.05,3.492 6.822,3.536 6.606,3.625 6.588,3.632 6.575,3.649 6.558,3.657 6.577,3.675 6.602,3.681 6.621,3.699 l 2.249,2.25 c 0.02,0.02 0.026,0.045 0.043,0.065 A 2.095,2.095 0 0 1 9.32,8.178 2.077,2.077 0 0 1 8.198,9.3 l -0.705,0.704 a 3.47,3.47 0 0 1 -0.498,0.407 c 0.93,0.13 1.9,-0.109 2.614,-0.822 0.713,-0.713 0.952,-1.684 0.822,-2.614 A 3.03,3.03 0 0 0 9.909,5.682 C 9.617,5.202 9.162,4.764 8.803,4.404 L 8.167,3.769 C 8.093,3.725 8.03,3.657 7.952,3.625 A 1.771,1.771 0 0 0 7.279,3.492 Z"
     id="path4"
     inkscape:connector-curvature="0" />
</svg>
