<?xml version="1.0" encoding="UTF-8" standalone="no"?>
<svg
   width="47.395275"
   height="47.395275"
   viewBox="0 0 12.54 12.54"
   version="1.1"
   id="svg6"
   sodipodi:docname="otter-browser.svg"
   inkscape:version="0.92.4 (5da689c313, 2019-01-14)"
   xmlns:inkscape="http://www.inkscape.org/namespaces/inkscape"
   xmlns:sodipodi="http://sodipodi.sourceforge.net/DTD/sodipodi-0.dtd"
   xmlns="http://www.w3.org/2000/svg"
   xmlns:svg="http://www.w3.org/2000/svg"
   xmlns:rdf="http://www.w3.org/1999/02/22-rdf-syntax-ns#"
   xmlns:cc="http://creativecommons.org/ns#"
   xmlns:dc="http://purl.org/dc/elements/1.1/">
  <metadata
     id="metadata12">
    <rdf:RDF>
      <cc:Work
         rdf:about="">
        <dc:format>image/svg+xml</dc:format>
        <dc:type
           rdf:resource="http://purl.org/dc/dcmitype/StillImage" />
        <dc:title />
      </cc:Work>
    </rdf:RDF>
  </metadata>
  <defs
     id="defs10" />
  <sodipodi:namedview
     pagecolor="#ffffff"
     bordercolor="#666666"
     borderopacity="1"
     objecttolerance="10"
     gridtolerance="10"
     guidetolerance="10"
     inkscape:pageopacity="0"
     inkscape:pageshadow="2"
     inkscape:window-width="1087"
     inkscape:window-height="480"
     id="namedview8"
     showgrid="false"
     inkscape:zoom="4.9166667"
     inkscape:cx="2.1355932"
     inkscape:cy="24"
     inkscape:window-x="0"
     inkscape:window-y="25"
     inkscape:window-maximized="0"
     inkscape:current-layer="svg6"
     inkscape:showpageshadow="0"
     inkscape:pagecheckerboard="0"
     inkscape:deskcolor="#d1d1d1" />
  <path
     d="M 6.27,0 A 6.27,6.27 0 0 0 0,6.27 6.27,6.27 0 0 0 6.27,12.54 6.27,6.27 0 0 0 12.54,6.27 6.27,6.27 0 0 0 6.27,0 Z M 6.25,0.94 a 5.39,5.39 0 0 1 5.4,5.38 5.39,5.39 0 0 1 -5.4,5.4 5.39,5.39 0 0 1 -5.39,-5.4 5.39,5.39 0 0 1 5.4,-5.39 z"
     id="path2"
     inkscape:connector-curvature="0"
     style="fill:#bde6fb;fill-opacity:1" />
  <path
     d="m 6.25,9.52 c 1.32,0 1.44,-2 1.44,-3.35 C 7.7,4.62 7.46,2.92 6.27,2.92 c -1.22,0 -1.42,1.8 -1.42,3.25 0,1.33 0.1,3.34 1.4,3.34 z m 0,-7.24 c 2.17,0 3.78,1.56 3.78,3.95 0,2.12 -1.53,4.03 -3.77,4.03 -2.23,0 -3.75,-1.91 -3.75,-4.03 0,-2.37 1.56,-3.95 3.75,-3.95 z"
     id="path4"
     inkscape:connector-curvature="0"
     style="clip-rule:evenodd;opacity:0.75;fill:#0044aa;fill-rule:evenodd" />
</svg>
