<?xml version="1.0" encoding="UTF-8" standalone="no"?>
<svg
   width="47.546486"
   height="47.546486"
   viewBox="0 0 12.580008 12.580008"
   version="1.1"
   id="svg6"
   sodipodi:docname="palemoon.svg"
   inkscape:version="0.92.4 (5da689c313, 2019-01-14)"
   xmlns:inkscape="http://www.inkscape.org/namespaces/inkscape"
   xmlns:sodipodi="http://sodipodi.sourceforge.net/DTD/sodipodi-0.dtd"
   xmlns="http://www.w3.org/2000/svg"
   xmlns:svg="http://www.w3.org/2000/svg"
   xmlns:rdf="http://www.w3.org/1999/02/22-rdf-syntax-ns#"
   xmlns:cc="http://creativecommons.org/ns#"
   xmlns:dc="http://purl.org/dc/elements/1.1/">
  <metadata
     id="metadata12">
    <rdf:RDF>
      <cc:Work
         rdf:about="">
        <dc:format>image/svg+xml</dc:format>
        <dc:type
           rdf:resource="http://purl.org/dc/dcmitype/StillImage" />
        <dc:title />
      </cc:Work>
    </rdf:RDF>
  </metadata>
  <defs
     id="defs10" />
  <sodipodi:namedview
     pagecolor="#ffffff"
     bordercolor="#666666"
     borderopacity="1"
     objecttolerance="10"
     gridtolerance="10"
     guidetolerance="10"
     inkscape:pageopacity="0"
     inkscape:pageshadow="2"
     inkscape:window-width="1087"
     inkscape:window-height="480"
     id="namedview8"
     showgrid="false"
     inkscape:zoom="4.9166667"
     inkscape:cx="2.1355932"
     inkscape:cy="24"
     inkscape:window-x="0"
     inkscape:window-y="25"
     inkscape:window-maximized="0"
     inkscape:current-layer="svg6"
     inkscape:showpageshadow="0"
     inkscape:pagecheckerboard="0"
     inkscape:deskcolor="#d1d1d1" />
  <path
     d="m 5.7770079,0.77 a 5.58,5.58 0 0 0 -2.02,0.586 c 0.029,0.089 -0.004,0.19 -0.107,0.279 -0.07,0.06 -0.126,0.153 -0.126,0.208 0,0.168 0.151,0.424 0.272,0.462 0.16,0.05 0.106,0.22 -0.1,0.315 a 0.626,0.626 0 0 0 -0.26,0.28 c -0.049,0.11 -0.12,0.22 -0.158,0.242 -0.038,0.023 -0.07,0.11 -0.07,0.192 0,0.116 0.053,0.172 0.227,0.242 0.124,0.05 0.273,0.086 0.331,0.08 0.332,-0.031 0.356,0.162 0.065,0.54 -0.154,0.202 -0.229,0.252 -0.334,0.227 -0.098,-0.024 -0.151,0.004 -0.196,0.101 -0.047,0.103 -0.124,0.138 -0.33,0.152 -0.204,0.014 -0.295,0.056 -0.371,0.167 -0.056,0.081 -0.136,0.147 -0.179,0.147 -0.043,0 -0.143,0.055 -0.223,0.121 -0.163,0.136 -0.227,0.15 -0.284,0.06 -0.076,-0.117 -0.239,-0.057 -0.481,0.175 -0.215,0.205 -0.24,0.26 -0.208,0.439 0.057,0.317 0.23,0.598 0.426,0.696 0.171,0.086 0.174,0.095 0.07,0.205 a 0.64,0.64 0 0 1 -0.227,0.151 c -0.19,0.058 -0.083,0.13 0.254,0.172 0.345,0.044 0.452,0.17 0.291,0.34 -0.09,0.095 -0.085,0.113 0.06,0.203 0.281,0.177 0.506,0.069 0.241,-0.116 -0.17,-0.119 -0.051,-0.168 0.198,-0.081 0.2,0.069 0.239,0.065 0.356,-0.037 0.241,-0.21 0.504,0.1 0.283,0.333 -0.14,0.149 -0.098,0.328 0.084,0.353 0.08,0.01 0.247,0.085 0.371,0.166 0.124,0.08 0.259,0.146 0.3,0.146 0.04,0 0.155,0.082 0.255,0.182 0.203,0.202 0.315,0.228 0.372,0.086 0.07,-0.172 0.042,-0.26 -0.143,-0.462 -0.148,-0.16 -0.387,-0.588 -0.387,-0.69 0,-0.063 0.243,-0.01 0.38,0.083 0.085,0.059 0.223,0.134 0.306,0.168 0.089,0.036 0.18,0.149 0.223,0.272 0.065,0.194 0.091,0.21 0.323,0.21 h 0.253 l 0.038,0.454 c 0.046,0.545 0.09,0.656 0.277,0.7 0.137,0.034 0.285,0.247 0.285,0.414 0,0.045 -0.1,0.153 -0.22,0.242 -0.15,0.11 -0.215,0.202 -0.205,0.294 0.012,0.114 -0.014,0.132 -0.175,0.12 a 0.987,0.987 0 0 0 -0.401,0.08 0.728,0.728 0 0 1 -0.427,0.058 c -0.16,-0.03 -0.215,-0.018 -0.215,0.045 0,0.046 -0.056,0.133 -0.125,0.192 -0.17,0.147 -0.1,0.225 0.161,0.178 0.162,-0.029 0.225,-0.016 0.253,0.054 0.06,0.148 -0.091,0.36 -0.231,0.325 -0.089,-0.022 -0.131,0.009 -0.159,0.113 a 0.263,0.263 0 0 1 -0.048,0.095 5.58,5.58 0 0 0 0.883,0.261 0.369,0.369 0 0 0 -0.09,-0.123 c -0.144,-0.102 -0.048,-0.366 0.15,-0.414 0.202,-0.048 0.17,-0.179 -0.05,-0.204 -0.191,-0.022 -0.396,-0.216 -0.332,-0.316 0.043,-0.067 0.227,-0.057 0.599,0.031 0.168,0.04 0.283,-0.04 0.672,-0.466 0.225,-0.246 0.398,-0.349 0.588,-0.349 0.073,0 0.331,-0.067 0.575,-0.148 0.46,-0.154 0.64,-0.149 0.624,0.02 -0.036,0.35 0.19,0.338 0.557,-0.029 0.152,-0.153 0.292,-0.263 0.31,-0.246 0.07,0.067 -0.056,0.395 -0.203,0.527 -0.187,0.168 -0.196,0.274 -0.032,0.358 0.09,0.046 0.128,0.14 0.142,0.35 l 0.02,0.287 h 0.233 c 0.082,0 0.15,0.01 0.204,0.032 A 5.58,5.58 0 0 0 11.875008,6.495 c -0.085,-0.183 -0.079,-0.293 0,-0.417 a 5.58,5.58 0 0 0 -0.025,-0.313 1.775,1.775 0 0 0 -0.162,-0.002 c -0.281,0.012 -0.522,-0.1 -0.522,-0.24 0,-0.03 -0.1,-0.153 -0.222,-0.273 -0.138,-0.137 -0.21,-0.257 -0.188,-0.32 0.018,-0.057 -0.022,-0.148 -0.094,-0.21 -0.07,-0.061 -0.128,-0.159 -0.128,-0.217 0,-0.094 -0.06,-0.106 -0.489,-0.095 l -0.4900001,0.012 0.009,0.482 c 0.014,0.845 0.14,1.064 0.5280001,0.923 0.178,-0.065 0.615,-0.016 0.739,0.082 0.045,0.036 0.11,0.165 0.144,0.288 0.035,0.123 0.163,0.335 0.285,0.471 0.247,0.277 0.266,0.385 0.124,0.71 -0.123,0.283 -0.256,0.25 -0.23,-0.057 l 0.02,-0.229 -0.21,0.04 a 0.613,0.613 0 0 0 -0.326,0.191 c -0.092,0.12 -0.136,0.138 -0.205,0.083 a 0.262,0.262 0 0 1 -0.088,-0.18 c 0,-0.06 -0.06,-0.127 -0.132,-0.149 -0.073,-0.022 -0.172,-0.132 -0.2210001,-0.244 -0.079,-0.18 -0.077,-0.235 0.014,-0.453 0.093,-0.221 0.094,-0.258 0.009,-0.34 -0.079,-0.074 -0.1190001,-0.077 -0.2220001,-0.015 -0.103,0.062 -0.152,0.057 -0.274,-0.025 a 0.675,0.675 0 0 0 -0.318,-0.1 c -0.188,0 -0.245,-0.092 -0.245,-0.395 0,-0.28 -0.167,-0.381 -0.564,-0.345 -0.276,0.025 -0.337,0.007 -0.56,-0.164 a 2.57,2.57 0 0 1 -0.482,-0.566 16.193,16.193 0 0 0 -0.307,-0.478 c -0.058,-0.082 -0.044,-0.161 0.07,-0.385 l 0.143,-0.282 -0.303,0.04 c -0.539,0.074 -0.648,0.144 -0.416,0.268 0.09,0.048 0.094,0.073 0.024,0.154 -0.045,0.052 -0.067,0.135 -0.047,0.185 0.02,0.05 -0.005,0.165 -0.056,0.258 a 0.804,0.804 0 0 0 -0.094,0.288 c -0.005,0.208 -0.361,0.374 -0.758,0.352 -0.6,-0.033 -0.65,-0.024 -0.863,0.174 -0.267,0.248 -0.301,0.363 -0.177,0.593 0.12,0.223 0.334,0.312 0.704,0.294 0.33,-0.017 0.368,0.013 0.293,0.231 -0.065,0.186 -0.28,0.258 -0.427,0.141 -0.113,-0.09 -0.501,-0.02 -0.62,0.111 -0.05,0.055 -0.125,0.199 -0.165,0.32 -0.07,0.208 -0.09,0.22 -0.403,0.25 -0.312,0.03 -0.342,0.02 -0.566,-0.186 -0.25,-0.23 -0.293,-0.407 -0.172,-0.71 0.053,-0.135 0.093,-0.157 0.236,-0.13 0.283,0.051 0.394,-0.047 0.394,-0.35 0,-0.146 -0.028,-0.283 -0.063,-0.303 -0.035,-0.021 -0.063,-0.099 -0.063,-0.173 a 0.339,0.339 0 0 0 -0.08,-0.213 c -0.063,-0.061 -0.053,-0.094 0.048,-0.165 a 0.429,0.429 0 0 1 0.252,-0.074 c 0.07,0.009 0.262,-0.022 0.428,-0.066 0.239,-0.065 0.309,-0.114 0.341,-0.24 0.062,-0.238 0.211,-0.43 0.337,-0.43 0.198,0 0.203,-0.467 0.01,-1.145 -0.029,-0.1 -0.107,-0.164 -0.246,-0.198 -0.112,-0.028 -0.234,-0.105 -0.27,-0.17 -0.037,-0.066 -0.104,-0.12 -0.15,-0.12 -0.045,0 -0.134,-0.054 -0.197,-0.12 a 0.458,0.458 0 0 0 -0.294,-0.122 c -0.236,0 -0.24,-0.162 -0.006,-0.248 0.247,-0.09 0.631,0.029 0.724,0.224 0.126,0.265 0.266,0.154 0.31,-0.246 0.057,-0.495 0.227,-0.637 0.765,-0.637 h 0.387 l -0.17,-0.17 a 0.675,0.675 0 0 1 -0.126,-0.18 z m 2.006,0.175 c -0.01,0.01 -0.021,0.018 -0.032,0.03 -0.13,0.131 -0.19,0.15 -0.39,0.12 -0.35,-0.054 -0.305,0.087 0.082,0.257 0.209,0.092 0.343,0.196 0.389,0.302 0.22,0.511 0.372,0.786 0.448,0.814 0.155,0.057 0.246,-0.057 0.28,-0.347 0.04,-0.334 0.153,-0.404 0.355,-0.222 0.079,0.07 0.189,0.128 0.244,0.128 0.173,0 0.302,0.07 0.302,0.164 0,0.05 0.058,0.169 0.13,0.265 0.106,0.142 0.177,0.176 0.375,0.176 0.2420001,0 0.3910001,0.046 0.6950001,0.213 l 0.014,0.006 A 5.58,5.58 0 0 0 7.7840079,0.945 Z m -7.05699995,5.35 a 5.58,5.58 0 0 0 -0.001,0.024 5.58,5.58 0 0 0 0.109,1.072 C 1.0360079,7.474 1.0920079,7.441 1.1130079,7.253 c 0.01,-0.097 0.061,-0.208 0.113,-0.246 0.08,-0.059 0.065,-0.089 -0.098,-0.2 -0.106,-0.072 -0.20999995,-0.199 -0.23199995,-0.28 a 0.504,0.504 0 0 0 -0.17,-0.232 z M 2.4820079,8.14 c -0.052,-0.005 -0.115,0.023 -0.185,0.09 -0.147,0.14 -0.125,0.424 0.042,0.537 0.192,0.128 0.266,0.09 0.29,-0.146 0.03,-0.293 -0.033,-0.469 -0.147,-0.481 z m 0.947,0.843 c -0.057,0.002 -0.12,0.043 -0.183,0.13 -0.066,0.09 -0.084,0.208 -0.059,0.386 0.031,0.22 0.018,0.266 -0.097,0.325 -0.147,0.075 -0.179,0.3 -0.058,0.415 0.12,0.115 0.234,0.085 0.275,-0.072 0.06,-0.225 0.387,-0.251 0.612,-0.05 0.095,0.086 0.174,0.13 0.174,0.097 0,-0.033 -0.1,-0.153 -0.222,-0.265 -0.186,-0.173 -0.22,-0.247 -0.22,-0.47 0,-0.314 -0.097,-0.5 -0.222,-0.496 z m -1.555,0.72 a 5.58,5.58 0 0 0 0.129,0.164 1.013,1.013 0 0 0 -0.13,-0.163 z m 1.88,0.857 c -0.028,0.01 -0.04,0.046 -0.04,0.108 0,0.063 -0.04,0.129 -0.09,0.147 -0.065,0.024 -0.08,0.1 -0.054,0.28 0.004,0.034 0.006,0.06 0.007,0.089 a 5.58,5.58 0 0 0 0.232,0.12 0.945,0.945 0 0 1 0.065,-0.353 c 0.085,-0.242 0.088,-0.303 0.019,-0.345 -0.066,-0.04 -0.11,-0.055 -0.139,-0.046 z"
     id="path2"
     inkscape:connector-curvature="0"
     style="opacity:0.5;fill:#bde6fb;fill-opacity:1" />
  <path
     d="M 6.2900079,0 A 6.29,6.29 0 0 0 7.9490244e-6,6.3 6.29,6.29 0 0 0 6.3000079,12.58 6.29,6.29 0 0 0 12.580008,6.29 6.29,6.29 0 0 0 6.2900079,0 Z m -0.02,0.93 0.01,0.01 A 5.4,5.4 0 0 1 11.680008,6.34 5.4,5.4 0 0 1 6.2800079,11.75 5.4,5.4 0 0 1 0.87000795,6.35 5.4,5.4 0 0 1 6.2700079,0.93 Z"
     id="path4"
     inkscape:connector-curvature="0"
     style="fill:#bde6fb;fill-opacity:1" />
</svg>
