<?xml version="1.0" encoding="UTF-8" standalone="no"?>
<svg
   width="47.546455"
   height="47.546455"
   viewBox="0 0 12.58 12.58"
   version="1.1"
   id="svg4"
   sodipodi:docname="parley.svg"
   inkscape:version="0.92.4 (5da689c313, 2019-01-14)"
   xmlns:inkscape="http://www.inkscape.org/namespaces/inkscape"
   xmlns:sodipodi="http://sodipodi.sourceforge.net/DTD/sodipodi-0.dtd"
   xmlns="http://www.w3.org/2000/svg"
   xmlns:svg="http://www.w3.org/2000/svg"
   xmlns:rdf="http://www.w3.org/1999/02/22-rdf-syntax-ns#"
   xmlns:cc="http://creativecommons.org/ns#"
   xmlns:dc="http://purl.org/dc/elements/1.1/">
  <metadata
     id="metadata10">
    <rdf:RDF>
      <cc:Work
         rdf:about="">
        <dc:format>image/svg+xml</dc:format>
        <dc:type
           rdf:resource="http://purl.org/dc/dcmitype/StillImage" />
        <dc:title />
      </cc:Work>
    </rdf:RDF>
  </metadata>
  <defs
     id="defs8" />
  <sodipodi:namedview
     pagecolor="#ffffff"
     bordercolor="#666666"
     borderopacity="1"
     objecttolerance="10"
     gridtolerance="10"
     guidetolerance="10"
     inkscape:pageopacity="0"
     inkscape:pageshadow="2"
     inkscape:window-width="1138"
     inkscape:window-height="480"
     id="namedview6"
     showgrid="false"
     inkscape:zoom="4.9166667"
     inkscape:cx="2.1355932"
     inkscape:cy="24"
     inkscape:window-x="0"
     inkscape:window-y="25"
     inkscape:window-maximized="0"
     inkscape:current-layer="svg4"
     inkscape:showpageshadow="0"
     inkscape:pagecheckerboard="0"
     inkscape:deskcolor="#d1d1d1" />
  <path
     d="M 6.29,9.9999768e-4 A 6.29,6.29 0 0 0 0,6.291 6.29,6.29 0 0 0 6.29,12.58 6.29,6.29 0 0 0 12.58,6.29 6.29,6.29 0 0 0 6.29,0 Z M 6.272,0.938 A 5.407,5.407 0 0 1 11.679,6.345 5.407,5.407 0 0 1 6.272,11.752 5.407,5.407 0 0 1 0.866,6.345 5.407,5.407 0 0 1 6.272,0.939 Z M 4.596,2.932 C 4.083,2.903 3.635,2.993 3.252,3.202 2.917,3.387 2.729,3.613 2.685,3.881 a 1.113,1.113 0 0 0 -0.024,0.24 c 0,0.253 0.04,0.5 0.122,0.738 C 2.88,5.141 3.006,5.345 3.163,5.472 3.19,5.511 3.217,5.53 3.244,5.53 L 3.26,5.515 C 3.26,5.495 3.247,5.467 3.22,5.428 2.977,5.102 2.855,4.681 2.855,4.165 2.855,4.073 2.863,3.978 2.88,3.881 2.988,3.326 3.465,3.049 4.313,3.049 c 0.388,0 0.777,0.042 1.165,0.124 0.394,0.083 0.8,0.21 1.215,0.38 0.378,0.155 0.736,0.34 1.076,0.554 0.34,0.21 0.664,0.443 0.972,0.7 0.567,0.492 0.85,1.01 0.85,1.555 0,0.443 -0.213,0.761 -0.64,0.956 A 2.742,2.742 0 0 1 8.321,7.522 3.8,3.8 0 0 1 7.543,7.595 C 7.235,7.595 6.995,7.556 6.823,7.478 6.73,7.454 6.673,7.413 6.653,7.354 6.539,7.408 6.482,7.454 6.482,7.493 c 0,0.03 0.027,0.056 0.081,0.08 0.054,0.025 0.124,0.047 0.21,0.066 A 4.16,4.16 0 0 0 7.429,7.69 C 8.034,7.69 8.552,7.61 8.984,7.45 9.615,7.226 9.931,6.846 9.931,6.311 9.931,5.718 9.586,5.151 8.895,4.611 A 6.507,6.507 0 0 0 8.077,4.034 8.22,8.22 0 0 0 7.162,3.553 7.76,7.76 0 0 0 5.883,3.123 6.36,6.36 0 0 0 4.596,2.933 Z m 2.817,1.825 c 0.006,0 -0.002,0.01 -0.024,0.029 C 7.103,5.559 6.625,6.469 5.956,7.516 5.222,8.663 4.666,9.3 4.288,9.426 4.18,9.451 4.083,9.466 3.997,9.471 A 0.463,0.463 0 0 1 3.778,9.449 0.923,0.923 0 0 1 3.406,9.208 C 3.357,9.164 3.322,9.142 3.3,9.142 c -0.027,0 -0.04,0.015 -0.04,0.044 0,0.029 0.016,0.066 0.049,0.11 a 0.929,0.929 0 0 0 0.38,0.299 0.74,0.74 0 0 0 0.243,0.036 c 0.102,0 0.2,-0.01 0.291,-0.03 A 0.949,0.949 0 0 0 4.49,9.507 C 5.084,9.22 5.716,8.485 6.385,7.303 A 16.94,16.94 0 0 0 7.445,5.078 C 7.462,5.043 7.465,4.98 7.454,4.888 7.443,4.8 7.429,4.757 7.414,4.757 Z"
     id="path2"
     inkscape:connector-curvature="0"
     style="fill:#bde6fb;fill-opacity:1" />
</svg>
