<?xml version="1.0" encoding="UTF-8" standalone="no"?>
<svg
   width="47.542679"
   height="47.546455"
   viewBox="0 0 12.579 12.58"
   version="1.1"
   id="svg4"
   sodipodi:docname="paros.svg"
   inkscape:version="0.92.5 (2060ec1f9f, 2020-04-08)"
   xmlns:inkscape="http://www.inkscape.org/namespaces/inkscape"
   xmlns:sodipodi="http://sodipodi.sourceforge.net/DTD/sodipodi-0.dtd"
   xmlns="http://www.w3.org/2000/svg"
   xmlns:svg="http://www.w3.org/2000/svg"
   xmlns:rdf="http://www.w3.org/1999/02/22-rdf-syntax-ns#"
   xmlns:cc="http://creativecommons.org/ns#"
   xmlns:dc="http://purl.org/dc/elements/1.1/">
  <metadata
     id="metadata10">
    <rdf:RDF>
      <cc:Work
         rdf:about="">
        <dc:format>image/svg+xml</dc:format>
        <dc:type
           rdf:resource="http://purl.org/dc/dcmitype/StillImage" />
        <dc:title />
      </cc:Work>
    </rdf:RDF>
  </metadata>
  <defs
     id="defs8" />
  <sodipodi:namedview
     pagecolor="#ffffff"
     bordercolor="#666666"
     borderopacity="1"
     objecttolerance="10"
     gridtolerance="10"
     guidetolerance="10"
     inkscape:pageopacity="0"
     inkscape:pageshadow="2"
     inkscape:window-width="1085"
     inkscape:window-height="480"
     id="namedview6"
     showgrid="false"
     inkscape:zoom="4.9166667"
     inkscape:cx="2.1355932"
     inkscape:cy="24"
     inkscape:window-x="0"
     inkscape:window-y="25"
     inkscape:window-maximized="0"
     inkscape:current-layer="svg4"
     inkscape:showpageshadow="0"
     inkscape:pagecheckerboard="0"
     inkscape:deskcolor="#d1d1d1" />
  <path
     d="M 6.285,0 A 6.295,6.295 0 0 0 0,6.285 6.295,6.295 0 0 0 6.285,12.58 6.295,6.295 0 0 0 12.579,6.285 6.295,6.295 0 0 0 6.285,0 Z M 6.274,0.94 a 5.408,5.408 0 0 1 5.397,5.387 5.407,5.407 0 0 1 -10.814,0 C 0.857,3.34 3.287,0.94 6.274,0.94 Z M 4.198,2.454 C 3.825,2.634 3.468,2.945 3.309,3.277 3.214,3.481 3.214,3.519 3.214,6.215 v 2.73 c 0.175,0.392 0.54,0.858 0.911,0.982 0.4,0.124 0.364,0.27 0.364,-1.493 V 6.869 L 5.956,6.855 C 7.376,6.842 7.429,6.838 7.646,6.739 8.038,6.559 8.318,6.226 8.448,5.789 L 8.43,3.405 C 8.2,2.873 7.957,2.701 7.511,2.454 Z M 7.221,3.64 V 5.565 H 4.489 C 4.489,5.125 4.46,4.403 4.555,4.137 4.649,3.871 5.006,3.715 5.104,3.687 5.201,3.661 7.221,3.64 7.221,3.64 Z M 6.235,7.723 A 0.91,0.91 0 0 0 6.141,7.729 C 5.349,7.823 4.885,8.459 5.091,9.167 5.286,9.834 6.136,10.17 6.853,9.86 6.959,9.815 7.105,9.735 7.178,9.683 7.325,9.578 7.32,9.551 7.09,9.287 L 6.959,9.137 6.832,9.227 C 6.63,9.37 6.356,9.427 6.144,9.37 A 0.54,0.54 0 0 1 6.18,8.314 C 6.568,8.241 6.84,8.41 7.414,9.084 8.018,9.793 8.312,9.964 8.925,9.969 9.651,9.975 10.19,9.414 10.119,8.726 10.089,8.442 10.01,8.275 9.814,8.083 9.556,7.831 9.306,7.739 8.877,7.738 8.537,7.738 8.468,7.753 8.229,7.878 7.855,8.073 7.841,8.111 8.051,8.352 l 0.175,0.2 0.166,-0.109 C 8.837,8.149 9.398,8.337 9.445,8.797 9.483,9.173 9.16,9.458 8.768,9.396 8.481,9.35 8.243,9.18 7.902,8.778 7.522,8.33 7.152,7.974 6.972,7.883 A 1.8,1.8 0 0 0 6.235,7.723 Z"
     id="path2"
     inkscape:connector-curvature="0"
     style="fill:#bde6fb;fill-opacity:1" />
</svg>
