<?xml version="1.0" encoding="UTF-8" standalone="no"?>
<svg
   width="47.542679"
   height="47.546455"
   viewBox="0 0 12.579 12.58"
   version="1.1"
   id="svg6"
   sodipodi:docname="phishing-frenzy.svg"
   inkscape:version="0.92.5 (2060ec1f9f, 2020-04-08)"
   xmlns:inkscape="http://www.inkscape.org/namespaces/inkscape"
   xmlns:sodipodi="http://sodipodi.sourceforge.net/DTD/sodipodi-0.dtd"
   xmlns="http://www.w3.org/2000/svg"
   xmlns:svg="http://www.w3.org/2000/svg"
   xmlns:rdf="http://www.w3.org/1999/02/22-rdf-syntax-ns#"
   xmlns:cc="http://creativecommons.org/ns#"
   xmlns:dc="http://purl.org/dc/elements/1.1/">
  <metadata
     id="metadata12">
    <rdf:RDF>
      <cc:Work
         rdf:about="">
        <dc:format>image/svg+xml</dc:format>
        <dc:type
           rdf:resource="http://purl.org/dc/dcmitype/StillImage" />
        <dc:title />
      </cc:Work>
    </rdf:RDF>
  </metadata>
  <defs
     id="defs10" />
  <sodipodi:namedview
     pagecolor="#ffffff"
     bordercolor="#666666"
     borderopacity="1"
     objecttolerance="10"
     gridtolerance="10"
     guidetolerance="10"
     inkscape:pageopacity="0"
     inkscape:pageshadow="2"
     inkscape:window-width="1085"
     inkscape:window-height="480"
     id="namedview8"
     showgrid="false"
     inkscape:zoom="4.9166667"
     inkscape:cx="2.1355932"
     inkscape:cy="24"
     inkscape:window-x="0"
     inkscape:window-y="25"
     inkscape:window-maximized="0"
     inkscape:current-layer="svg6"
     inkscape:showpageshadow="0"
     inkscape:pagecheckerboard="0"
     inkscape:deskcolor="#d1d1d1" />
  <path
     d="M 6.285,0 A 6.295,6.295 0 0 0 3.551,0.638 c 0.02,0.037 0.054,0.064 0.07,0.103 0.063,0.148 0.098,0.311 0.098,0.482 0,0.151 -0.037,0.292 -0.086,0.426 a 5.39,5.39 0 0 1 2.64,-0.71 h 0.002 a 5.408,5.408 0 0 1 5.396,5.388 5.407,5.407 0 0 1 -10.814,0 A 5.31,5.31 0 0 1 1.86,3.221 V 2.273 C 1.772,2.221 1.68,2.175 1.608,2.103 A 6.295,6.295 0 0 0 0,6.285 6.295,6.295 0 0 0 6.285,12.58 6.295,6.295 0 0 0 12.579,6.285 6.295,6.295 0 0 0 6.285,0 Z M 2.515,0.374 A 0.85,0.85 0 0 0 2.313,2.048 v 3.385 c 0,0.885 0.648,1.59 1.487,1.753 C 3.822,7.053 3.878,6.933 3.917,6.806 3.243,6.698 2.717,6.138 2.717,5.433 V 2.048 A 0.85,0.85 0 0 0 2.513,0.374 Z m 0,0.403 a 0.44650028,0.44650028 0 1 1 -0.001,0.893 0.4465,0.4465 0 0 1 0,-0.893 z M 5.771,4.585 A 0.202,0.202 0 0 0 5.609,4.644 L 5.037,5.216 4.962,5.291 V 5.293 A 0.201,0.201 0 0 0 5.247,5.576 L 5.55,5.272 V 5.434 C 5.55,5.47 5.532,5.5 5.53,5.535 A 1.39,1.39 0 0 1 4.444,6.788 2.732,2.732 0 0 0 4.311,7.218 C 5.227,7.124 5.953,6.374 5.953,5.434 V 4.785 C 5.953,4.77 5.933,4.765 5.93,4.751 5.916,4.688 5.89,4.624 5.829,4.599 A 0.2,0.2 0 0 0 5.771,4.584 Z"
     id="path2"
     inkscape:connector-curvature="0"
     style="fill:#bde6fb;fill-opacity:1" />
  <path
     d="M 6.902,4.552 C 6.785,4.552 6.667,4.559 6.547,4.572 6.329,4.597 6.133,4.683 5.93,4.751 5.933,4.765 5.953,4.77 5.953,4.785 v 0.49 A 2.617,2.617 0 0 1 6.988,5.082 C 8.431,5.125 9.556,6.355 9.556,7.798 V 7.992 A 0.53,0.53 0 0 1 8.974,8.518 0.545,0.545 0 0 1 8.497,7.968 V 6.801 A 0.132,0.132 0 0 0 8.365,6.669 H 8.101 A 0.131,0.131 0 0 0 7.981,6.746 1.451,1.451 0 0 0 6.91,6.272 a 1.456,1.456 0 0 0 0,2.91 c 0.505,0 0.951,-0.259 1.212,-0.651 0.197,0.328 0.562,0.544 0.977,0.516 0.562,-0.037 0.986,-0.53 0.986,-1.093 V 7.727 A 3.178,3.178 0 0 0 6.902,4.552 Z M 5.037,5.215 C 4.505,5.613 4.117,6.159 3.917,6.806 3.877,6.933 3.821,7.053 3.799,7.186 3.792,7.226 3.769,7.258 3.763,7.298 a 3.179,3.179 0 0 0 3.393,3.595 c 0.738,-0.056 1.428,-0.386 1.97,-0.89 L 9.172,9.96 A 0.132,0.132 0 0 0 9.178,9.772 L 8.998,9.579 A 0.132,0.132 0 0 0 8.811,9.572 L 8.714,9.662 A 2.645,2.645 0 0 1 4.272,7.936 C 4.222,7.372 4.342,7.046 4.444,6.787 4.65,6.251 5.051,5.837 5.53,5.533 5.533,5.498 5.55,5.468 5.55,5.433 V 5.271 L 5.247,5.575 A 0.202,0.202 0 0 1 4.962,5.29 Z M 6.91,6.801 a 0.927,0.927 0 0 1 0,1.852 0.927,0.927 0 0 1 0,-1.852 z"
     id="path4"
     inkscape:connector-curvature="0"
     style="opacity:0.8;fill:#84e6fb;fill-opacity:1" />
</svg>
