<?xml version="1.0" encoding="UTF-8" standalone="no"?>
<svg
   width="48"
   height="48"
   viewBox="0 0 12.7 12.7"
   version="1.1"
   id="svg4"
   sodipodi:docname="phpstorm.svg"
   inkscape:version="0.92.5 (2060ec1f9f, 2020-04-08)"
   xmlns:inkscape="http://www.inkscape.org/namespaces/inkscape"
   xmlns:sodipodi="http://sodipodi.sourceforge.net/DTD/sodipodi-0.dtd"
   xmlns="http://www.w3.org/2000/svg"
   xmlns:svg="http://www.w3.org/2000/svg">
  <sodipodi:namedview
     id="namedview1"
     pagecolor="#505050"
     bordercolor="#eeeeee"
     borderopacity="1"
     inkscape:showpageshadow="0"
     inkscape:pageopacity="0"
     inkscape:pagecheckerboard="0"
     inkscape:deskcolor="#d1d1d1" />
  <defs
     id="defs8">
    <style
       id="current-color-scheme"
       type="text/css">&#10;      .ColorScheme-Highlight {&#10;        color:#1e3f5a;&#10;      }&#10;  </style>
  </defs>
  <path
     class="ColorScheme-Highlight"
     style="fill:#bde6fb;fill-opacity:1;stroke-width:0.264583"
     d="M 6.3499999,0 A 6.3499999,6.3499999 0 0 0 0,6.3499999 6.3499999,6.3499999 0 0 0 6.3499999,12.7 6.3499999,6.3499999 0 0 0 12.7,6.3499999 6.3499999,6.3499999 0 0 0 6.3499999,0 Z m 0,0.79374999 A 5.5562499,5.5562499 0 0 1 11.90625,6.3499999 5.5562499,5.5562499 0 0 1 6.3499999,11.90625 5.5562499,5.5562499 0 0 1 0.79374999,6.3499999 5.5562499,5.5562499 0 0 1 6.3499999,0.79374999 Z m 0,1.05833331 A 4.4979182,4.4979182 0 0 0 1.8520833,6.3499999 4.4979182,4.4979182 0 0 0 6.3499999,10.847917 4.4979182,4.4979182 0 0 0 10.847917,6.3499999 4.4979182,4.4979182 0 0 0 6.3499999,1.8520833 Z M 7.612972,4.9604207 c 0.3611555,0 0.6341399,0.1014389 0.8185547,0.3043743 0.1423453,0.1566325 0.2139402,0.3392908 0.2139402,0.5472533 H 8.1147501 C 8.1023147,5.7072733 8.0714616,5.626546 8.0222491,5.5707195 7.9338791,5.4683257 7.7840664,5.4172402 7.5726644,5.4172402 c -0.1254125,0 -0.2283148,0.022479 -0.3095419,0.066663 -0.1008062,0.056356 -0.1508953,0.1397828 -0.1508953,0.2501141 0,0.091017 0.031836,0.1593701 0.095602,0.2056722 0.037041,0.026988 0.098495,0.050701 0.1844847,0.07028 l 0.6449219,0.1581298 c 0.2188104,0.053975 0.379735,0.1238168 0.4826579,0.2098064 0.1399646,0.1153583 0.2103231,0.2821987 0.2103231,0.5007445 0,0.2674938 -0.088611,0.4748112 -0.2656168,0.6221842 C 8.2706598,7.662759 8.0115002,7.7437132 7.6873861,7.7437132 7.2574382,7.7437132 6.9474206,7.637822 6.7582438,7.4264199 6.6230412,7.2758725 6.5551555,7.0873606 6.5551555,6.858496 H 7.086389 c 0,0.1082146 0.031573,0.1977967 0.095601,0.2692342 C 7.277769,7.2332989 7.432778,7.28586 7.6465613,7.28586 7.8039884,7.28586 7.9288516,7.2639 8.0222487,7.219714 8.1402531,7.163093 8.1994989,7.0712912 8.1994989,6.943762 8.1994989,6.848248 8.1553269,6.7756688 8.0666905,6.7267209 8.0076891,6.6949713 7.8921858,6.6581898 7.719942,6.6166502 L 7.4362386,6.5499876 C 7.1536636,6.483842 6.9609146,6.4152237 6.8574625,6.3443156 6.6831021,6.2241948 6.5959796,6.0338932 6.5959799,5.7738078 c 0,-0.2037294 0.061453,-0.3755141 0.1844847,-0.5152141 C 6.954825,5.0598916 7.2319718,4.9604207 7.612972,4.9604207 Z m -3.3796387,0.069763 h 1.2087116 c 0.2558521,0 0.457014,0.075013 0.603064,0.2258259 0.1463146,0.1505479 0.2191081,0.3573983 0.2191081,0.6196004 0,0.1865313 -0.051325,0.3570801 -0.1545125,0.5115968 C 5.962067,6.6078694 5.7322846,6.7184528 5.4203409,6.7184528 H 4.7862712 V 7.6729166 H 4.2333333 Z m 0.5529379,0.4568195 v 0.7741129 h 0.5126302 c 0.1770062,0 0.2974535,-0.053546 0.3612181,-0.1612302 0.034396,-0.058737 0.051677,-0.1419119 0.051677,-0.2495973 0,-0.1296458 -0.038787,-0.2221796 -0.1147218,-0.2785359 -0.0762,-0.056356 -0.2003557,-0.08475 -0.3720703,-0.08475 z M 4.4979166,8.4666666 H 8.2020832 V 8.9958332 H 4.4979166 Z"
     id="path843" />
</svg>
