<?xml version="1.0" encoding="UTF-8" standalone="no"?>
<svg
   width="47.546455"
   height="47.546455"
   viewBox="0 0 12.58 12.58"
   version="1.1"
   id="svg11"
   sodipodi:docname="picmi.svg"
   inkscape:version="0.92.4 (5da689c313, 2019-01-14)"
   xmlns:inkscape="http://www.inkscape.org/namespaces/inkscape"
   xmlns:sodipodi="http://sodipodi.sourceforge.net/DTD/sodipodi-0.dtd"
   xmlns="http://www.w3.org/2000/svg"
   xmlns:svg="http://www.w3.org/2000/svg"
   xmlns:rdf="http://www.w3.org/1999/02/22-rdf-syntax-ns#"
   xmlns:cc="http://creativecommons.org/ns#"
   xmlns:dc="http://purl.org/dc/elements/1.1/">
  <metadata
     id="metadata15">
    <rdf:RDF>
      <cc:Work
         rdf:about="">
        <dc:format>image/svg+xml</dc:format>
        <dc:type
           rdf:resource="http://purl.org/dc/dcmitype/StillImage" />
        <dc:title />
      </cc:Work>
    </rdf:RDF>
  </metadata>
  <sodipodi:namedview
     pagecolor="#ffffff"
     bordercolor="#666666"
     borderopacity="1"
     objecttolerance="10"
     gridtolerance="10"
     guidetolerance="10"
     inkscape:pageopacity="0"
     inkscape:pageshadow="2"
     inkscape:window-width="1138"
     inkscape:window-height="480"
     id="namedview13"
     showgrid="false"
     inkscape:zoom="4.9166667"
     inkscape:cx="2.1355932"
     inkscape:cy="24"
     inkscape:window-x="0"
     inkscape:window-y="25"
     inkscape:window-maximized="0"
     inkscape:current-layer="svg11"
     inkscape:showpageshadow="0"
     inkscape:pagecheckerboard="0"
     inkscape:deskcolor="#d1d1d1" />
  <defs
     id="defs7" />
  <path
     d="M 6.29,9.9999768e-4 A 6.29,6.29 0 0 0 0,6.291 6.29,6.29 0 0 0 6.29,12.58 6.29,6.29 0 0 0 12.58,6.29 6.29,6.29 0 0 0 6.29,0 Z M 6.272,0.938 A 5.407,5.407 0 0 1 7.966,1.215 V 3.774 A 0.277,0.277 0 0 1 7.688,4.052 H 4.904 A 0.277,0.277 0 0 1 4.626,3.774 V 1.203 A 5.407,5.407 0 0 1 6.272,0.939 Z M 4.069,1.416 V 3.774 A 0.277,0.277 0 0 1 3.791,4.052 H 1.384 A 5.407,5.407 0 0 1 4.069,1.416 Z m 4.454,0.019 a 5.407,5.407 0 0 1 2.64,2.617 H 8.8 A 0.277,0.277 0 0 1 8.522,3.774 V 1.434 Z M 5.76,1.555 5.386,1.929 5.947,2.49 5.386,3.051 5.76,3.425 6.321,2.865 6.883,3.425 7.257,3.051 6.695,2.491 7.257,1.929 6.883,1.554 6.321,2.116 5.761,1.554 Z M 1.158,4.609 H 3.791 A 0.277,0.277 0 0 1 4.069,4.887 V 7.671 A 0.277,0.277 0 0 1 3.791,7.949 H 1.115 A 5.407,5.407 0 0 1 0.865,6.345 5.407,5.407 0 0 1 1.158,4.609 Z m 3.746,0 H 7.688 A 0.277,0.277 0 0 1 7.966,4.887 V 7.671 A 0.277,0.277 0 0 1 7.688,7.949 H 4.904 A 0.277,0.277 0 0 1 4.626,7.671 V 4.887 A 0.277,0.277 0 0 1 4.904,4.609 Z m 3.897,0 h 2.585 a 5.407,5.407 0 0 1 0.293,1.736 5.407,5.407 0 0 1 -0.244,1.604 H 8.801 A 0.277,0.277 0 0 1 8.523,7.671 V 4.887 A 0.277,0.277 0 0 1 8.801,4.609 Z M 1.958,5.356 1.584,5.73 2.145,6.291 1.585,6.853 1.958,7.227 2.519,6.666 3.081,7.227 3.455,6.853 2.894,6.291 3.454,5.731 3.081,5.356 2.519,5.917 1.959,5.357 Z m -0.634,3.15 h 2.467 a 0.277,0.277 0 0 1 0.278,0.278 v 2.494 A 5.407,5.407 0 0 1 1.324,8.506 Z m 3.58,0 h 2.784 a 0.277,0.277 0 0 1 0.278,0.278 v 2.688 a 5.407,5.407 0 0 1 -1.694,0.28 5.407,5.407 0 0 1 -1.646,-0.26 V 8.785 A 0.277,0.277 0 0 1 4.904,8.507 Z m 3.897,0 h 2.424 A 5.407,5.407 0 0 1 8.523,11.254 V 8.784 A 0.277,0.277 0 0 1 8.801,8.506 Z M 5.415,9.035 A 0.176,0.176 0 0 0 5.239,9.211 v 1.764 c 0,0.098 0.078,0.177 0.176,0.177 H 7.179 A 0.176,0.176 0 0 0 7.355,10.975 V 9.211 A 0.176,0.176 0 0 0 7.179,9.035 Z"
     id="path9"
     inkscape:connector-curvature="0"
     style="fill:#bde6fb;fill-opacity:1" />
</svg>
