<?xml version="1.0" encoding="UTF-8" standalone="no"?>
<svg
   width="47.546455"
   height="47.542679"
   viewBox="0 0 12.58 12.579"
   version="1.1"
   id="svg4"
   sodipodi:docname="pitivi.svg"
   inkscape:version="0.92.4 (5da689c313, 2019-01-14)"
   xmlns:inkscape="http://www.inkscape.org/namespaces/inkscape"
   xmlns:sodipodi="http://sodipodi.sourceforge.net/DTD/sodipodi-0.dtd"
   xmlns="http://www.w3.org/2000/svg"
   xmlns:svg="http://www.w3.org/2000/svg"
   xmlns:rdf="http://www.w3.org/1999/02/22-rdf-syntax-ns#"
   xmlns:cc="http://creativecommons.org/ns#"
   xmlns:dc="http://purl.org/dc/elements/1.1/">
  <metadata
     id="metadata10">
    <rdf:RDF>
      <cc:Work
         rdf:about="">
        <dc:format>image/svg+xml</dc:format>
        <dc:type
           rdf:resource="http://purl.org/dc/dcmitype/StillImage" />
        <dc:title />
      </cc:Work>
    </rdf:RDF>
  </metadata>
  <defs
     id="defs8" />
  <sodipodi:namedview
     pagecolor="#ffffff"
     bordercolor="#666666"
     borderopacity="1"
     objecttolerance="10"
     gridtolerance="10"
     guidetolerance="10"
     inkscape:pageopacity="0"
     inkscape:pageshadow="2"
     inkscape:window-width="1087"
     inkscape:window-height="480"
     id="namedview6"
     showgrid="false"
     inkscape:zoom="4.9166667"
     inkscape:cx="2.1355932"
     inkscape:cy="24"
     inkscape:window-x="0"
     inkscape:window-y="25"
     inkscape:window-maximized="0"
     inkscape:current-layer="svg4"
     inkscape:showpageshadow="0"
     inkscape:pagecheckerboard="0"
     inkscape:deskcolor="#d1d1d1" />
  <path
     d="M 6.29,9.9999565e-4 A 6.29,6.29 0 0 0 0,6.291 6.29,6.29 0 0 0 6.29,12.579 6.29,6.29 0 0 0 12.58,6.29 6.29,6.29 0 0 0 6.29,0 Z M 6.272,0.937 A 5.407,5.407 0 0 1 11.679,6.344 5.407,5.407 0 0 1 6.272,11.751 5.407,5.407 0 0 1 0.866,6.344 5.407,5.407 0 0 1 6.272,0.938 Z m 2.925,1.362 a 0.257,0.257 0 0 0 -0.1,0.012 L 2.761,4.428 a 0.253,0.253 0 0 0 -0.16,0.32 l 0.15,0.45 a 0.758,0.758 0 0 0 0.146,1.22 v 3.587 c 0,0.14 0.113,0.254 0.253,0.254 h 6.68 c 0.14,0 0.253,-0.114 0.253,-0.254 V 5.665 H 4.023 A 0.755,0.755 0 0 0 3.899,5.333 L 9.723,3.388 9.418,2.472 A 0.254,0.254 0 0 0 9.197,2.299 Z M 8.506,2.808 8.32,3.558 7.55,3.815 7.735,3.065 8.505,2.808 Z M 6.601,3.444 6.415,4.194 5.645,4.451 5.829,3.701 Z M 4.696,4.08 4.511,4.83 3.74,5.087 3.925,4.337 Z M 3.268,5.367 a 0.3875,0.3875 0 1 1 0,0.775 0.3875,0.3875 0 0 1 0,-0.775 z M 4.283,5.869 H 5.096 L 4.682,6.521 H 3.869 Z m 2.008,0 H 7.104 L 6.69,6.521 H 5.878 Z m 2.008,0 H 9.112 L 8.699,6.521 H 7.886 Z M 6.091,7.301 7.462,8.161 6.092,9.022 V 7.301 Z"
     id="path2"
     inkscape:connector-curvature="0"
     style="fill:#bde6fb;fill-opacity:1" />
</svg>
