<?xml version="1.0" encoding="UTF-8" standalone="no"?>
<svg
   width="47.542679"
   height="47.546455"
   viewBox="0 0 12.579 12.58"
   version="1.1"
   id="svg4"
   sodipodi:docname="pixiewps.svg"
   inkscape:version="0.92.5 (2060ec1f9f, 2020-04-08)"
   xmlns:inkscape="http://www.inkscape.org/namespaces/inkscape"
   xmlns:sodipodi="http://sodipodi.sourceforge.net/DTD/sodipodi-0.dtd"
   xmlns="http://www.w3.org/2000/svg"
   xmlns:svg="http://www.w3.org/2000/svg"
   xmlns:rdf="http://www.w3.org/1999/02/22-rdf-syntax-ns#"
   xmlns:cc="http://creativecommons.org/ns#"
   xmlns:dc="http://purl.org/dc/elements/1.1/">
  <metadata
     id="metadata10">
    <rdf:RDF>
      <cc:Work
         rdf:about="">
        <dc:format>image/svg+xml</dc:format>
        <dc:type
           rdf:resource="http://purl.org/dc/dcmitype/StillImage" />
        <dc:title />
      </cc:Work>
    </rdf:RDF>
  </metadata>
  <defs
     id="defs8" />
  <sodipodi:namedview
     pagecolor="#ffffff"
     bordercolor="#666666"
     borderopacity="1"
     objecttolerance="10"
     gridtolerance="10"
     guidetolerance="10"
     inkscape:pageopacity="0"
     inkscape:pageshadow="2"
     inkscape:window-width="1085"
     inkscape:window-height="480"
     id="namedview6"
     showgrid="false"
     inkscape:zoom="4.9166667"
     inkscape:cx="2.1355932"
     inkscape:cy="24"
     inkscape:window-x="0"
     inkscape:window-y="25"
     inkscape:window-maximized="0"
     inkscape:current-layer="svg4"
     inkscape:showpageshadow="0"
     inkscape:pagecheckerboard="0"
     inkscape:deskcolor="#d1d1d1" />
  <path
     d="M 6.285,0 A 6.295,6.295 0 0 0 0,6.285 6.295,6.295 0 0 0 6.285,12.58 6.295,6.295 0 0 0 12.579,6.285 6.295,6.295 0 0 0 6.285,0 Z M 6.274,0.94 a 5.408,5.408 0 0 1 5.397,5.387 5.407,5.407 0 0 1 -10.814,0 C 0.857,3.34 3.287,0.94 6.274,0.94 Z M 4.309,1.777 A 0.127,0.127 0 0 0 4.249,1.793 C 4.12,1.861 4.087,2.099 4.108,2.786 l 0.003,0.222 c 0,0.064 0.047,0.212 0.105,0.328 0.13,0.26 0.119,0.499 -0.027,0.566 C 4.106,3.939 3.999,3.907 3.632,3.736 3.048,3.463 2.51,3.281 2.453,3.336 2.427,3.363 2.432,3.451 2.465,3.562 c 0.03,0.1 0.055,0.227 0.055,0.28 0,0.055 0.06,0.168 0.133,0.252 0.074,0.085 0.18,0.243 0.235,0.353 0.056,0.11 0.17,0.244 0.253,0.299 0.083,0.055 0.195,0.167 0.249,0.25 0.084,0.129 0.09,0.161 0.035,0.236 -0.084,0.115 -0.08,0.234 0.016,0.452 0.06,0.135 0.104,0.178 0.174,0.168 0.052,-0.008 0.144,0.037 0.205,0.098 0.1,0.1 0.139,0.108 0.386,0.083 0.466,-0.05 0.427,0.152 -0.049,0.246 -0.28,0.055 -0.44,0.156 -0.408,0.255 0.01,0.03 0.06,0.06 0.114,0.067 0.053,0.008 0.107,0.052 0.119,0.098 0.022,0.086 0.344,0.155 0.748,0.161 0.138,0.002 0.175,0.021 0.175,0.088 0,0.047 0.032,0.098 0.072,0.114 0.055,0.02 0.026,0.075 -0.13,0.243 C 4.474,7.706 4.373,7.865 4.437,7.944 4.504,8.024 4.651,8.037 4.695,7.967 4.71,7.941 4.786,7.92 4.863,7.92 A 0.98,0.98 0 0 0 5.171,7.85 C 5.391,7.757 5.418,7.789 5.223,7.913 L 5.069,8.012 h 0.142 c 0.181,0.002 0.33,-0.103 0.37,-0.26 0.022,-0.091 0.05,-0.113 0.11,-0.088 a 1.6,1.6 0 0 0 0.15,0.052 C 5.937,7.743 6.261,7.432 6.261,7.313 6.261,7.255 6.309,7.195 6.379,7.163 6.497,7.109 6.513,7.076 6.499,6.926 6.493,6.88 6.522,6.844 6.563,6.844 c 0.05,0 0.073,-0.044 0.073,-0.14 0,-0.077 0.02,-0.14 0.043,-0.14 0.062,0 0.079,0.167 0.047,0.462 -0.02,0.193 -0.053,0.273 -0.14,0.34 -0.332,0.26 -0.81,0.74 -0.899,0.905 -0.075,0.14 -0.1,0.271 -0.102,0.53 -0.001,0.329 0.005,0.348 0.15,0.478 0.084,0.075 0.153,0.155 0.153,0.177 0,0.022 -0.08,0.063 -0.176,0.092 A 1.15,1.15 0 0 0 5.376,9.735 l -0.16,0.135 0.207,0.292 0.876,0.015 c 0.481,0.008 0.99,0.04 1.132,0.07 0.142,0.03 0.336,0.068 0.433,0.083 0.161,0.024 0.176,0.039 0.176,0.179 0,0.159 0.069,0.264 0.173,0.264 0.033,0 0.06,-0.05 0.06,-0.114 0,-0.16 0.165,-0.26 0.429,-0.26 0.3,0 0.672,-0.084 0.79,-0.18 C 9.549,10.172 9.599,10.063 9.615,9.946 9.641,9.752 9.642,9.75 9.752,9.823 9.894,9.916 9.892,9.884 9.742,9.664 9.625,9.493 9.622,9.472 9.652,9.009 9.689,8.467 9.711,8.521 9.206,7.897 A 11.73,11.73 0 0 1 8.654,7.131 C 8.392,6.733 8.367,6.671 8.367,6.443 8.367,6.211 8.35,6.173 8.15,5.949 A 3.051,3.051 0 0 1 7.773,5.374 C 7.641,5.102 7.617,5.008 7.638,4.843 7.682,4.5 7.848,4.183 8.047,4.056 8.229,3.941 8.265,3.88 8.18,3.827 8.154,3.811 8.133,3.76 8.133,3.713 A 0.215,0.215 0 0 0 8.062,3.569 0.142,0.142 0 0 1 8.018,3.422 C 8.041,3.352 8.021,3.336 7.908,3.336 7.805,3.336 7.716,3.28 7.557,3.116 7.357,2.911 7.327,2.896 7.057,2.876 6.879,2.864 6.749,2.876 6.717,2.909 6.687,2.938 6.596,2.962 6.513,2.962 A 0.484,0.484 0 0 0 6.23,3.072 1.72,1.72 0 0 1 5.993,3.237 C 5.935,3.267 5.887,3.32 5.887,3.354 A 0.443,0.443 0 0 1 5.792,3.539 L 5.696,3.661 5.359,3.169 C 5.173,2.899 4.922,2.515 4.799,2.317 4.565,1.937 4.423,1.777 4.309,1.777 Z M 4.64,2.795 C 4.823,2.785 5.202,3.13 5.479,3.57 5.649,3.838 5.852,4.356 5.907,4.657 5.945,4.864 5.906,4.875 5.63,4.73 5.376,4.597 4.977,4.283 4.697,3.996 4.476,3.769 4.465,3.744 4.447,3.458 4.426,3.13 4.495,2.845 4.607,2.802 A 0.117,0.117 0 0 1 4.64,2.795 Z M 3.368,3.858 C 3.515,3.861 3.722,3.922 3.94,4.034 4.36,4.25 5.37,4.851 5.372,4.885 5.373,4.922 4.72,5.021 4.517,5.015 A 2.01,2.01 0 0 1 4.191,4.969 C 3.756,4.866 3.321,4.53 3.194,4.199 3.128,4.024 3.126,3.979 3.178,3.916 3.213,3.874 3.279,3.856 3.368,3.858 Z m 2.774,0.523 c 0.024,-0.002 0.1,0.02 0.181,0.053 0.094,0.04 0.24,0.071 0.326,0.071 0.086,0 0.197,0.03 0.247,0.067 C 6.984,4.637 6.982,4.644 6.838,4.794 6.755,4.88 6.647,5.044 6.597,5.16 6.537,5.296 6.497,5.346 6.481,5.3 6.321,4.848 6.249,4.663 6.188,4.544 6.148,4.466 6.123,4.394 6.134,4.384 6.136,4.382 6.138,4.381 6.142,4.381 Z M 4.541,5.166 C 4.794,5.167 5.098,5.214 5.425,5.302 L 5.629,5.357 5.465,5.441 C 5.162,5.597 4.741,5.648 4.285,5.584 3.889,5.529 3.804,5.304 4.143,5.21 4.254,5.179 4.388,5.164 4.541,5.166 Z m 1.266,0.42 C 5.857,5.579 5.571,6.134 5.425,6.326 5.301,6.488 4.912,6.703 4.739,6.703 A 0.356,0.356 0 0 1 4.559,6.643 0.183,0.183 0 0 1 4.491,6.468 C 4.504,6.378 4.639,6.274 5.139,5.971 5.486,5.761 5.787,5.587 5.807,5.585 Z m 0.364,0.136 c 0.024,0 0.044,0.173 0.043,0.385 0,0.443 -0.103,0.717 -0.391,1.049 -0.286,0.327 -0.824,0.52 -0.824,0.294 0,-0.053 0.076,-0.216 0.17,-0.363 0.3,-0.47 0.957,-1.365 1.002,-1.365 z m 1.733,1.663 0.123,0.161 c 0.068,0.09 0.365,0.409 0.66,0.71 0.535,0.547 0.536,0.547 0.47,0.68 L 9.092,9.071 8.765,8.918 A 7.244,7.244 0 0 0 8.133,8.663 4.62,4.62 0 0 1 7.65,8.471 C 7.485,8.388 7.474,8.371 7.503,8.232 7.52,8.15 7.594,7.988 7.667,7.872 7.74,7.757 7.823,7.599 7.852,7.523 Z"
     id="path2"
     inkscape:connector-curvature="0"
     style="fill:#bde6fb;fill-opacity:1" />
</svg>
