<?xml version="1.0" encoding="UTF-8" standalone="no"?>
<svg
   width="47.244095"
   height="47.244095"
   viewBox="0 0 12.5 12.5"
   version="1.1"
   id="svg4"
   sodipodi:docname="planetkde.svg"
   inkscape:version="0.92.4 (5da689c313, 2019-01-14)"
   xmlns:inkscape="http://www.inkscape.org/namespaces/inkscape"
   xmlns:sodipodi="http://sodipodi.sourceforge.net/DTD/sodipodi-0.dtd"
   xmlns="http://www.w3.org/2000/svg"
   xmlns:svg="http://www.w3.org/2000/svg"
   xmlns:rdf="http://www.w3.org/1999/02/22-rdf-syntax-ns#"
   xmlns:cc="http://creativecommons.org/ns#"
   xmlns:dc="http://purl.org/dc/elements/1.1/">
  <metadata
     id="metadata10">
    <rdf:RDF>
      <cc:Work
         rdf:about="">
        <dc:format>image/svg+xml</dc:format>
        <dc:type
           rdf:resource="http://purl.org/dc/dcmitype/StillImage" />
        <dc:title />
      </cc:Work>
    </rdf:RDF>
  </metadata>
  <defs
     id="defs8" />
  <sodipodi:namedview
     pagecolor="#ffffff"
     bordercolor="#666666"
     borderopacity="1"
     objecttolerance="10"
     gridtolerance="10"
     guidetolerance="10"
     inkscape:pageopacity="0"
     inkscape:pageshadow="2"
     inkscape:window-width="1087"
     inkscape:window-height="480"
     id="namedview6"
     showgrid="false"
     inkscape:zoom="4.9166667"
     inkscape:cx="2.1355932"
     inkscape:cy="24"
     inkscape:window-x="0"
     inkscape:window-y="25"
     inkscape:window-maximized="0"
     inkscape:current-layer="svg4"
     inkscape:showpageshadow="0"
     inkscape:pagecheckerboard="0"
     inkscape:deskcolor="#d1d1d1" />
  <path
     style="color:#000000;font-weight:400;line-height:normal;font-family:'Andale Mono';text-indent:0;text-align:start;text-decoration:none;text-decoration-line:none;text-transform:none;overflow:visible;fill:#bde6fb;fill-opacity:1;marker:none"
     d="M 5.84,0 V 0.03 A 6.25,6.25 0 0 0 0.01,5.83 H 0 v 0.83 h 0.01 a 6.25,6.25 0 0 0 5.83,5.82 V 12.5 H 6.67 V 12.48 A 6.25,6.25 0 0 0 12.49,6.66 H 12.5 V 5.83 H 12.49 A 6.25,6.25 0 0 0 6.67,0.02 V 0 Z m 0,0.89 V 3.22 L 6.67,3.12 V 0.89 c 0.85,0.23 1.6,1.15 2.04,2.45 H 8.44 l 1,0.26 -0.5,0.63 c 0.11,0.5 0.19,1.04 0.21,1.6 H 8.36 a 2.27,2.16 0 0 1 0.06,0.21 l 0.54,0.63 h 0.2 A 9.24,9.24 0 0 1 9.13,6.87 L 9.38,7.15 9.1,7.25 A 9.24,9.24 0 0 1 8.94,8.34 H 8.52 L 8.05,8.85 7.3,8.4 A 2.27,2.16 0 0 1 7.12,8.48 2.27,2.16 0 0 1 6.91,8.56 L 6.85,9.17 h 1.86 c -0.45,1.3 -1.19,2.22 -2.04,2.45 V 9.37 L 5.84,9.36 v 2.26 C 4.98,11.39 4.24,10.47 3.79,9.17 H 5.64 L 5.54,8.57 A 2.27,2.16 0 0 1 5.51,8.56 2.27,2.16 0 0 1 5.31,8.48 2.27,2.16 0 0 1 5.11,8.38 L 4.35,8.84 3.99,8.34 H 3.56 A 9.32,9.32 0 0 1 3.36,6.97 H 3.3 L 3.34,5.83 A 9.32,9.32 0 0 1 3.56,4.16 h 0.93 l 0.1,-0.08 0.13,0.08 h 0.7 L 5.39,3.33 H 3.79 C 4.24,2.03 4.98,1.12 5.84,0.89 Z M 3.91,1.37 C 3.51,1.9 3.18,2.57 2.93,3.34 H 1.68 A 5.45,5.45 0 0 1 3.91,1.37 Z m 4.68,0 a 5.45,5.45 0 0 1 2.23,1.97 H 9.57 A 6.59,6.59 0 0 0 8.59,1.37 Z M 6.74,3.53 5.77,3.63 V 7.38 L 6.73,7.25 v -1.6 l 1.28,1.77 1,-0.3 L 7.71,5.42 9.04,3.78 8.01,3.56 6.74,5.19 Z M 1.24,4.17 H 2.7 A 9.9,9.9 0 0 0 2.5,5.84 H 0.84 a 5.37,5.37 0 0 1 0.4,-1.67 z m 8.54,0 h 1.47 c 0.21,0.52 0.35,1.08 0.4,1.67 H 9.99 A 9.9,9.9 0 0 0 9.78,4.17 Z M 4.55,4.45 4.52,4.46 4.14,4.82 c -0.01,0.02 -0.02,0.05 0,0.07 L 4.57,5.57 C 4.49,5.7 4.43,5.83 4.39,5.97 L 3.57,6.14 c -0.02,0 -0.04,0.02 -0.04,0.04 v 0.5 c 0,0.03 0.02,0.05 0.04,0.05 l 0.8,0.19 c 0.04,0.16 0.1,0.32 0.19,0.46 L 4.1,8.04 V 8.1 L 4.48,8.45 C 4.5,8.47 4.53,8.47 4.55,8.46 L 5.26,8.05 c 0.14,0.08 0.3,0.14 0.45,0.18 l 0.17,0.76 c 0,0.02 0.02,0.04 0.05,0.04 h 0.53 c 0.02,0 0.05,-0.02 0.06,-0.04 L 6.71,8.23 a 2,2 0 0 0 0.47,-0.2 l 0.7,0.45 c 0.02,0.01 0.05,0 0.07,0 L 8.32,8.12 C 8.34,8.1 8.34,8.08 8.33,8.06 L 8.08,7.66 7.99,7.68 H 7.96 L 7.58,7.15 C 7.34,7.62 6.82,7.93 6.24,7.93 5.39,7.93 4.7,7.28 4.7,6.48 4.7,5.89 5.07,5.38 5.6,5.16 V 4.78 L 5.33,4.9 H 5.32 L 4.6,4.45 H 4.57 Z M 0.84,6.67 H 2.5 C 2.52,7.25 2.6,7.81 2.7,8.34 H 1.25 A 5.37,5.37 0 0 1 0.85,6.67 Z m 9.14,0 h 1.66 a 5.35,5.35 0 0 1 -0.4,1.67 H 9.8 A 9.9,9.9 0 0 0 10,6.67 Z m -8.3,2.5 H 2.92 C 3.17,9.94 3.5,10.61 3.9,11.14 A 5.45,5.45 0 0 1 1.67,9.17 Z m 7.88,0 h 1.25 a 5.45,5.45 0 0 1 -2.23,1.97 c 0.4,-0.53 0.74,-1.2 0.98,-1.97 z"
     font-weight="400"
     overflow="visible"
     id="path2"
     inkscape:connector-curvature="0" />
</svg>
