<?xml version="1.0" encoding="UTF-8" standalone="no"?>
<svg
   width="47.546455"
   height="47.542679"
   viewBox="0 0 12.58 12.579"
   version="1.1"
   id="svg4"
   sodipodi:docname="plank.svg"
   inkscape:version="0.92.4 (5da689c313, 2019-01-14)"
   xmlns:inkscape="http://www.inkscape.org/namespaces/inkscape"
   xmlns:sodipodi="http://sodipodi.sourceforge.net/DTD/sodipodi-0.dtd"
   xmlns="http://www.w3.org/2000/svg"
   xmlns:svg="http://www.w3.org/2000/svg"
   xmlns:rdf="http://www.w3.org/1999/02/22-rdf-syntax-ns#"
   xmlns:cc="http://creativecommons.org/ns#"
   xmlns:dc="http://purl.org/dc/elements/1.1/">
  <metadata
     id="metadata10">
    <rdf:RDF>
      <cc:Work
         rdf:about="">
        <dc:format>image/svg+xml</dc:format>
        <dc:type
           rdf:resource="http://purl.org/dc/dcmitype/StillImage" />
        <dc:title />
      </cc:Work>
    </rdf:RDF>
  </metadata>
  <defs
     id="defs8" />
  <sodipodi:namedview
     pagecolor="#ffffff"
     bordercolor="#666666"
     borderopacity="1"
     objecttolerance="10"
     gridtolerance="10"
     guidetolerance="10"
     inkscape:pageopacity="0"
     inkscape:pageshadow="2"
     inkscape:window-width="1087"
     inkscape:window-height="480"
     id="namedview6"
     showgrid="false"
     inkscape:zoom="4.9166667"
     inkscape:cx="2.1355932"
     inkscape:cy="24"
     inkscape:window-x="0"
     inkscape:window-y="25"
     inkscape:window-maximized="0"
     inkscape:current-layer="svg4"
     inkscape:showpageshadow="0"
     inkscape:pagecheckerboard="0"
     inkscape:deskcolor="#d1d1d1" />
  <path
     d="M 6.29,9.9999565e-4 A 6.29,6.29 0 0 0 0,6.291 6.29,6.29 0 0 0 6.29,12.579 6.29,6.29 0 0 0 12.58,6.29 6.29,6.29 0 0 0 6.29,0 Z M 6.272,0.937 A 5.407,5.407 0 0 1 11.679,6.344 5.407,5.407 0 0 1 6.272,11.751 5.407,5.407 0 0 1 0.866,6.344 5.407,5.407 0 0 1 6.272,0.938 Z m 0.024,0.314 c -0.618,0 -1.117,0.5 -1.117,1.117 0,0.465 0.292,0.85 0.698,1.017 v 0.38 H 4.202 a 0.14,0.14 0 0 0 -0.14,0.139 v 0.42 c 0,0.078 0.06,0.139 0.14,0.139 H 5.876 V 9.63 c 0,0.143 -0.24,0.146 -0.375,0.161 C 5.301,9.789 5.181,9.739 4.991,9.687 A 6.49,6.49 0 0 1 3.755,9.176 C 3.589,9.084 3.427,8.994 3.28,8.875 3.216,8.821 3.142,8.742 3.148,8.652 3.157,8.584 3.191,8.512 3.266,8.5 3.334,8.49 3.394,8.525 3.454,8.548 3.505,8.57 3.541,8.508 3.532,8.465 A 0.709,0.709 0 0 0 3.428,8.151 C 3.307,7.951 3.12,7.803 2.926,7.675 2.719,7.543 2.499,7.398 2.368,7.186 2.342,7.147 2.312,7.083 2.254,7.104 2.173,7.13 2.128,7.21 2.088,7.278 1.976,7.491 1.92,7.721 1.87,7.955 A 1.96,1.96 0 0 0 1.835,8.526 c 0.015,0.19 0.028,0.382 0.105,0.56 0.048,0.115 0.133,0.21 0.218,0.3 C 2.212,9.329 2.268,9.268 2.324,9.212 2.395,9.14 2.484,9.092 2.59,9.107 2.733,9.125 2.862,9.212 2.974,9.294 3.132,9.417 3.28,9.546 3.441,9.665 a 4.6,4.6 0 0 0 0.825,0.476 c 0.24,0.112 0.487,0.224 0.737,0.315 0.045,0.02 0.095,0.018 0.14,0.035 0.45,0.187 0.828,0.404 1.14,0.794 v 0.022 c 0.003,-0.01 0.008,-0.01 0.012,-0.013 0.004,0.01 0.01,0.01 0.013,0.013 0.002,-0.011 -0.002,-0.024 0,-0.036 0.31,-0.385 0.692,-0.595 1.139,-0.78 0.045,-0.017 0.095,-0.016 0.14,-0.036 0.25,-0.09 0.497,-0.202 0.737,-0.314 C 8.614,10.003 8.894,9.86 9.149,9.665 9.31,9.545 9.458,9.417 9.616,9.295 9.728,9.212 9.857,9.125 10,9.107 c 0.105,-0.014 0.195,0.033 0.266,0.104 0.056,0.056 0.112,0.118 0.166,0.175 0.085,-0.091 0.17,-0.185 0.218,-0.301 0.077,-0.177 0.09,-0.37 0.105,-0.56 C 10.77,8.336 10.762,8.14 10.72,7.955 10.67,7.721 10.614,7.491 10.502,7.278 10.462,7.209 10.417,7.13 10.336,7.103 10.278,7.083 10.248,7.148 10.222,7.186 10.092,7.398 9.871,7.543 9.664,7.675 9.47,7.802 9.284,7.951 9.162,8.151 A 0.709,0.709 0 0 0 9.058,8.465 C 9.049,8.508 9.085,8.57 9.136,8.548 9.196,8.525 9.256,8.489 9.324,8.499 9.399,8.511 9.433,8.584 9.442,8.652 9.448,8.742 9.374,8.82 9.31,8.875 9.163,8.995 9,9.083 8.835,9.175 8.441,9.386 8.03,9.561 7.6,9.687 7.41,9.739 7.288,9.79 7.09,9.791 6.918,9.821 6.714,9.729 6.714,9.63 V 4.463 H 8.39 c 0.065,0 0.14,-0.056 0.14,-0.14 V 3.904 A 0.139,0.139 0 0 0 8.39,3.764 H 6.715 V 3.384 C 7.121,3.217 7.413,2.833 7.413,2.368 7.413,1.751 6.913,1.251 6.296,1.251 Z M 6.274,1.796 c 0.3,0 0.546,0.238 0.545,0.537 a 0.5475,0.5475 0 0 1 -1.095,0 c 0,-0.3 0.25,-0.537 0.55,-0.537 z"
     id="path2"
     inkscape:connector-curvature="0"
     style="fill:#bde6fb;fill-opacity:1" />
</svg>
