<?xml version="1.0" encoding="UTF-8" standalone="no"?>
<svg
   width="47.546486"
   height="47.546486"
   viewBox="0 0 12.580008 12.580008"
   version="1.1"
   id="svg4"
   sodipodi:docname="plasma-mobile-phone.svg"
   inkscape:version="0.92.4 (5da689c313, 2019-01-14)"
   xmlns:inkscape="http://www.inkscape.org/namespaces/inkscape"
   xmlns:sodipodi="http://sodipodi.sourceforge.net/DTD/sodipodi-0.dtd"
   xmlns="http://www.w3.org/2000/svg"
   xmlns:svg="http://www.w3.org/2000/svg"
   xmlns:rdf="http://www.w3.org/1999/02/22-rdf-syntax-ns#"
   xmlns:cc="http://creativecommons.org/ns#"
   xmlns:dc="http://purl.org/dc/elements/1.1/">
  <metadata
     id="metadata10">
    <rdf:RDF>
      <cc:Work
         rdf:about="">
        <dc:format>image/svg+xml</dc:format>
        <dc:type
           rdf:resource="http://purl.org/dc/dcmitype/StillImage" />
        <dc:title />
      </cc:Work>
    </rdf:RDF>
  </metadata>
  <defs
     id="defs8" />
  <sodipodi:namedview
     pagecolor="#ffffff"
     bordercolor="#666666"
     borderopacity="1"
     objecttolerance="10"
     gridtolerance="10"
     guidetolerance="10"
     inkscape:pageopacity="0"
     inkscape:pageshadow="2"
     inkscape:window-width="1087"
     inkscape:window-height="480"
     id="namedview6"
     showgrid="false"
     inkscape:zoom="4.9166667"
     inkscape:cx="2.1355932"
     inkscape:cy="24"
     inkscape:window-x="0"
     inkscape:window-y="25"
     inkscape:window-maximized="0"
     inkscape:current-layer="svg4"
     inkscape:showpageshadow="0"
     inkscape:pagecheckerboard="0"
     inkscape:deskcolor="#d1d1d1" />
  <path
     d="M 6.2900079,0 A 6.29,6.29 0 0 0 7.9473853e-6,6.3 6.29,6.29 0 0 0 6.3000079,12.58 6.29,6.29 0 0 0 12.580008,6.29 6.29,6.29 0 0 0 6.2900079,0 Z m -0.02,0.94 A 5.4,5.4 0 0 1 11.670008,6.34 5.4,5.4 0 0 1 6.2700079,11.75 5.4,5.4 0 0 1 0.87000795,6.35 5.4,5.4 0 0 1 6.2700079,0.94 Z m 0.02,2.48 c -1.66,0 -3.08,0.24 -3.75,0.58 -0.46,0.12 -0.8,0.5 -0.8,0.95 0,0.24 0.1,0.76 0.26,0.93 0.2,0.22 0.51,0.13 0.86,0.06 0.6,-0.13 1.12,-0.44 1.12,-1 a 0.9,0.9 0 0 0 -0.1,-0.39 c 0.65,-0.36 0.7,-0.25 2.41,-0.25 1.71,0 1.75,-0.1 2.4,0.25 a 0.9,0.9 0 0 0 -0.09,0.4 c 0,0.55 0.52,0.86 1.12,1 0.3500001,0.06 0.6500001,0.15 0.8600001,-0.07 0.16,-0.17 0.26,-0.69 0.26,-0.93 0,-0.45 -0.34,-0.83 -0.8,-0.95 C 9.3700079,3.66 7.9400079,3.42 6.2900079,3.42 Z m 0,1.13 c -1.2,0 -2.14,0.3 -2.14,0.3 0,0 -0.36,1.09 -0.49,2.89 V 7.67 c -0.03,0.36 -0.04,0.74 -0.04,1.15 0,0 -0.03,0.33 0.33,0.33 h 4.68 c 0.35,0 0.33,-0.33 0.33,-0.33 a 17.5,17.5 0 0 0 -0.04,-1.08 c -0.13,-1.8 -0.49,-2.9 -0.49,-2.9 0,0 -0.94,-0.3 -2.14,-0.3 z m 0,0.61 c 0.83,0 1.56,0.46 1.64,1.08 0.06,0.41 -0.18,0.8 -0.6,1.04 l -0.46,-0.6 -0.1,0.02 0.13,0.76 c -0.18,0.05 -0.4,0.08 -0.61,0.08 -1,0 -1.74,-0.61 -1.64,-1.3 0.08,-0.62 0.81,-1.08 1.64,-1.08 z m 0,0.48 a 0.75,0.58 0 0 0 -0.74,0.58 0.75,0.58 0 0 0 0.75,0.58 0.75,0.58 0 0 0 0.74,-0.58 0.75,0.58 0 0 0 -0.74,-0.58 z m 2.56,1.24 z m -5.12,0 z m 5.14,0.16 z"
     id="path2"
     inkscape:connector-curvature="0"
     style="fill:#bde6fb;fill-opacity:1" />
</svg>
