<?xml version="1.0" encoding="UTF-8" standalone="no"?>
<svg
   width="48"
   height="48"
   viewBox="0 0 12.7 12.7"
   version="1.1"
   id="svg4"
   sodipodi:docname="playonlinux.svg"
   inkscape:version="0.92.5 (2060ec1f9f, 2020-04-08)"
   xmlns:inkscape="http://www.inkscape.org/namespaces/inkscape"
   xmlns:sodipodi="http://sodipodi.sourceforge.net/DTD/sodipodi-0.dtd"
   xmlns="http://www.w3.org/2000/svg"
   xmlns:svg="http://www.w3.org/2000/svg">
  <sodipodi:namedview
     id="namedview1"
     pagecolor="#505050"
     bordercolor="#eeeeee"
     borderopacity="1"
     inkscape:showpageshadow="0"
     inkscape:pageopacity="0"
     inkscape:pagecheckerboard="0"
     inkscape:deskcolor="#d1d1d1" />
  <defs
     id="defs8">
    <style
       id="current-color-scheme"
       type="text/css">&#10;      .ColorScheme-Highlight {&#10;        color:#1e3f5a;&#10;      }&#10;  </style>
  </defs>
  <path
     class="ColorScheme-Highlight"
     style="fill:#bde6fb;fill-opacity:1;stroke-width:0.264583"
     d="M 6.3499999,0 A 6.3499999,6.3499999 0 0 0 0,6.3499999 6.3499999,6.3499999 0 0 0 6.3499999,12.7 6.3499999,6.3499999 0 0 0 12.7,6.3499999 6.3499999,6.3499999 0 0 0 6.3499999,0 Z m 0,0.79374999 A 5.5562499,5.5562499 0 0 1 11.90625,6.3499999 5.5562499,5.5562499 0 0 1 6.3499999,11.90625 5.5562499,5.5562499 0 0 1 0.79374999,6.3499999 5.5562499,5.5562499 0 0 1 6.3499999,0.79374999 Z"
     id="path817" />
  <path
     style="fill:#c83737;stroke-width:0.264583"
     d="M 6.3499999,6.3499999 H 1.8520833 a 4.4979166,4.4979166 0 0 0 4.4979166,4.4979171 z"
     id="path832" />
  <path
     style="fill:#0088aa;stroke-width:0.264583"
     d="M 10.847917,6.3499999 H 6.3499999 V 10.847917 A 4.4979166,4.4979166 0 0 0 10.847917,6.3499999 Z"
     id="path835" />
  <path
     style="fill:#ffdd55;stroke-width:0.264583"
     d="M 6.3499999,1.8520833 V 6.3499999 H 10.847917 A 4.4979166,4.4979166 0 0 0 6.3499999,1.8520833 Z"
     id="path820" />
  <path
     style="fill:#5aa02c"
     d="M 6.35,1.8520833 A 4.4979166,4.4979166 0 0 0 1.8520833,6.3499999 H 6.35 Z"
     id="path825"
     inkscape:connector-curvature="0" />
</svg>
