<?xml version="1.0" encoding="UTF-8" standalone="no"?>
<svg
   width="48"
   height="48"
   viewBox="0 0 12.7 12.7"
   version="1.1"
   id="svg4"
   sodipodi:docname="pling-store.svg"
   inkscape:version="0.92.5 (2060ec1f9f, 2020-04-08)"
   xmlns:inkscape="http://www.inkscape.org/namespaces/inkscape"
   xmlns:sodipodi="http://sodipodi.sourceforge.net/DTD/sodipodi-0.dtd"
   xmlns="http://www.w3.org/2000/svg"
   xmlns:svg="http://www.w3.org/2000/svg">
  <sodipodi:namedview
     id="namedview1"
     pagecolor="#505050"
     bordercolor="#eeeeee"
     borderopacity="1"
     inkscape:showpageshadow="0"
     inkscape:pageopacity="0"
     inkscape:pagecheckerboard="0"
     inkscape:deskcolor="#d1d1d1" />
  <defs
     id="defs8">
    <style
       id="current-color-scheme"
       type="Highlight/css">&#10;      .ColorScheme-Highlight {&#10;        color:#1e3f5a;&#10;      }&#10;  </style>
  </defs>
  <path
     class="ColorScheme-Highlight"
     style="fill:#bde6fb;fill-opacity:1;stroke-width:0.264583"
     d="M 6.3499999,0 A 6.3499999,6.3499999 0 0 0 0,6.3499999 6.3499999,6.3499999 0 0 0 6.3499999,12.7 6.3499999,6.3499999 0 0 0 12.7,6.3499999 6.3499999,6.3499999 0 0 0 6.3499999,0 Z m 0,0.79374999 A 5.5562499,5.5562499 0 0 1 11.90625,6.3499999 5.5562499,5.5562499 0 0 1 6.3499999,11.90625 5.5562499,5.5562499 0 0 1 0.79374999,6.3499999 5.5562499,5.5562499 0 0 1 6.3499999,0.79374999 Z"
     id="path817" />
  <path
     style="fill:#ffa123;stroke-width:0.264583"
     d="M 6.3499999,1.3229167 A 1.8520832,1.8520832 0 0 0 4.4979166,3.175 V 3.7041666 H 3.4395833 c -0.2931583,0 -0.5291667,0.2360084 -0.5291667,0.5291667 v 5.5562499 c 0,0.2931588 0.2360084,0.5291668 0.5291667,0.5291668 h 5.8208333 c 0.2931583,0 0.5291666,-0.236008 0.5291666,-0.5291668 V 4.2333333 c 0,-0.2931583 -0.2360083,-0.5291667 -0.5291666,-0.5291667 H 8.2020832 V 3.175 A 1.8520832,1.8520832 0 0 0 6.3499999,1.3229167 Z m 0,0.5291666 A 1.3229165,1.3229165 0 0 1 7.6729166,3.175 V 3.7041666 H 5.0270833 V 3.175 A 1.3229165,1.3229165 0 0 1 6.3499999,1.8520833 Z m -1.5875,2.38125 A 0.52916663,0.52916663 0 0 1 5.2916666,4.7624999 0.52916663,0.52916663 0 0 1 4.7624999,5.2916666 0.52916663,0.52916663 0 0 1 4.2333333,4.7624999 0.52916663,0.52916663 0 0 1 4.7624999,4.2333333 Z m 3.175,0 A 0.52916663,0.52916663 0 0 1 8.4666666,4.7624999 0.52916663,0.52916663 0 0 1 7.9374999,5.2916666 0.52916663,0.52916663 0 0 1 7.4083332,4.7624999 0.52916663,0.52916663 0 0 1 7.9374999,4.2333333 Z M 6.5680745,5.5567667 C 7.0746902,5.5426406 7.5303488,5.9003379 7.646045,6.4404337 7.7798016,7.0678997 7.4052143,7.7048042 6.8094034,7.8625691 6.7027422,7.8840797 6.5778631,7.9146277 6.4662719,7.9468016 L 6.7060505,9.0692138 C 6.7462029,9.2576554 6.6086767,9.4542066 6.3980591,9.5100136 6.1874415,9.5658211 5.985525,9.4591935 5.9453734,9.2707517 L 5.295284,6.2202922 C 5.261996,6.0350955 5.4560062,5.8088003 5.652368,5.7660563 5.8676357,5.7083525 6.1099077,5.6427065 6.3484497,5.5862222 6.422064,5.5684554 6.4957004,5.5587767 6.5680745,5.5567667 Z m -0.00672,0.7214031 A 0.41958627,0.48500066 73.65209 0 0 6.4182129,6.2941903 L 6.142261,6.3618866 6.3303631,7.1799245 6.5985638,7.1137787 a 0.41958627,0.48500066 73.65209 0 0 0.00775,-0.00103 A 0.41958627,0.48500066 73.65209 0 0 6.983554,6.5877145 0.41958627,0.48500066 73.65209 0 0 6.5613576,6.2781727 Z"
     id="rect825" />
</svg>
