<?xml version="1.0" encoding="UTF-8" standalone="no"?>
<svg
   width="48"
   height="48"
   viewBox="0 0 12.7 12.7"
   version="1.1"
   id="svg4"
   sodipodi:docname="podcasts-app.svg"
   inkscape:version="0.92.5 (2060ec1f9f, 2020-04-08)"
   xmlns:inkscape="http://www.inkscape.org/namespaces/inkscape"
   xmlns:sodipodi="http://sodipodi.sourceforge.net/DTD/sodipodi-0.dtd"
   xmlns="http://www.w3.org/2000/svg"
   xmlns:svg="http://www.w3.org/2000/svg">
  <sodipodi:namedview
     id="namedview1"
     pagecolor="#505050"
     bordercolor="#eeeeee"
     borderopacity="1"
     inkscape:showpageshadow="0"
     inkscape:pageopacity="0"
     inkscape:pagecheckerboard="0"
     inkscape:deskcolor="#d1d1d1" />
  <defs
     id="defs8">
    <style
       id="current-color-scheme"
       type="text/css">&#10;      .ColorScheme-Highlight {&#10;        color:#1e3f5a;&#10;      }&#10;  </style>
  </defs>
  <path
     class="ColorScheme-Highlight"
     style="fill:#bde6fb;fill-opacity:1;stroke-width:0.264583"
     d="M 6.3499999,0 A 6.3499999,6.3499999 0 0 0 0,6.3499999 6.3499999,6.3499999 0 0 0 6.3499999,12.7 6.3499999,6.3499999 0 0 0 12.7,6.3499999 6.3499999,6.3499999 0 0 0 6.3499999,0 Z m 0,0.79374999 A 5.5562499,5.5562499 0 0 1 11.90625,6.3499999 5.5562499,5.5562499 0 0 1 6.3499999,11.90625 5.5562499,5.5562499 0 0 1 0.79374999,6.3499999 5.5562499,5.5562499 0 0 1 6.3499999,0.79374999 Z m 0,2.64583331 a 1.5875,1.5875 0 0 0 -1.5875,1.5875 H 6.0854166 V 5.5562499 H 4.7624999 V 6.0854166 H 6.0854166 V 6.6145833 H 4.7624999 a 1.5875,1.5875 0 0 0 1.5875,1.5874999 1.5875,1.5875 0 0 0 1.5875,-1.5874999 H 6.6145833 V 6.0854166 H 7.9374999 V 5.5562499 H 6.6145833 V 5.0270833 h 1.3229166 a 1.5875,1.5875 0 0 0 -1.5875,-1.5875 z m -2.1166666,3.175 A 2.1166667,2.1166667 0 0 0 5.9216022,8.6847412 L 5.2916666,9.5249999 H 7.4083332 L 6.7794311,8.6868081 A 2.1166667,2.1166667 0 0 0 8.4666666,6.6145833 H 8.2020832 A 1.8520833,1.8520833 0 0 1 6.3499999,8.4666666 1.8520833,1.8520833 0 0 1 4.4979166,6.6145833 Z"
     id="path817" />
</svg>
