<?xml version="1.0" encoding="UTF-8" standalone="no"?>
<svg
   width="47.546455"
   height="47.546455"
   viewBox="0 0 12.58 12.58"
   version="1.1"
   id="svg4"
   sodipodi:docname="popcorn-time.svg"
   inkscape:version="0.92.4 (5da689c313, 2019-01-14)"
   xmlns:inkscape="http://www.inkscape.org/namespaces/inkscape"
   xmlns:sodipodi="http://sodipodi.sourceforge.net/DTD/sodipodi-0.dtd"
   xmlns="http://www.w3.org/2000/svg"
   xmlns:svg="http://www.w3.org/2000/svg"
   xmlns:rdf="http://www.w3.org/1999/02/22-rdf-syntax-ns#"
   xmlns:cc="http://creativecommons.org/ns#"
   xmlns:dc="http://purl.org/dc/elements/1.1/">
  <metadata
     id="metadata10">
    <rdf:RDF>
      <cc:Work
         rdf:about="">
        <dc:format>image/svg+xml</dc:format>
        <dc:type
           rdf:resource="http://purl.org/dc/dcmitype/StillImage" />
        <dc:title />
      </cc:Work>
    </rdf:RDF>
  </metadata>
  <defs
     id="defs8" />
  <sodipodi:namedview
     pagecolor="#ffffff"
     bordercolor="#666666"
     borderopacity="1"
     objecttolerance="10"
     gridtolerance="10"
     guidetolerance="10"
     inkscape:pageopacity="0"
     inkscape:pageshadow="2"
     inkscape:window-width="862"
     inkscape:window-height="480"
     id="namedview6"
     showgrid="false"
     inkscape:zoom="4.9166667"
     inkscape:cx="2.1355932"
     inkscape:cy="24"
     inkscape:window-x="0"
     inkscape:window-y="25"
     inkscape:window-maximized="0"
     inkscape:current-layer="svg4"
     inkscape:showpageshadow="0"
     inkscape:pagecheckerboard="0"
     inkscape:deskcolor="#d1d1d1" />
  <path
     d="m 6.29,0 a 6.29,6.29 0 1 0 0,12.58 A 6.29,6.29 0 0 0 6.29,0 Z M 6.27,0.93 a 5.417,5.417 0 0 1 5.41,5.41 5.4,5.4 0 0 1 -5.4,5.41 5.4,5.4 0 0 1 -5.41,-5.4 5.4,5.4 0 0 1 5.4,-5.42 z M 6.992,2.047 C 6.772,2.047 6.73,2.051 6.594,2.087 6.014,2.241 5.612,2.587 5.273,3.224 5.23,3.304 5.193,3.37 5.19,3.37 5.187,3.37 5.122,3.308 5.045,3.232 4.83,3.019 4.643,2.925 4.405,2.91 A 0.733,0.733 0 0 0 3.982,3 0.935,0.935 0 0 0 3.513,3.604 C 3.448,3.881 3.531,4.195 3.736,4.443 L 3.794,4.513 3.751,4.542 A 1.161,1.161 0 0 0 3.447,4.888 0.633,0.633 0 0 0 3.512,5.533 C 3.587,5.635 3.696,5.713 3.78,5.727 3.811,5.732 3.84,5.741 3.842,5.746 A 0.549,0.549 0 0 1 3.833,5.856 C 3.816,5.984 3.838,6.141 3.945,6.203 4.311,6.414 5.602,6.534 6.992,6.487 7.869,6.457 8.492,6.32 8.786,6.177 A 0.054,0.054 0 0 0 8.776,6.191 C 8.7,6.334 8.484,6.441 7.691,6.511 7.331,6.543 6.143,6.556 5.691,6.533 4.741,6.485 4.13,6.386 3.906,6.244 3.866,6.219 3.831,6.203 3.826,6.208 3.821,6.213 3.912,7 4.029,7.956 L 4.242,9.694 4.297,9.752 C 4.367,9.825 4.586,9.972 4.74,10.049 5.643,10.608 7.353,10.764 8.416,9.94 8.424,9.925 8.541,8.925 8.656,7.994 8.873,6.244 8.879,6.173 8.819,6.161 8.906,6.115 8.959,6.069 8.975,6.026 8.988,5.989 8.985,5.979 8.945,5.946 L 8.901,5.907 8.938,5.884 C 8.958,5.87 9.008,5.83 9.048,5.793 9.312,5.549 9.251,5.108 8.925,4.899 8.881,4.871 8.849,4.84 8.853,4.83 8.999,4.494 9.029,4.37 9.038,4.058 9.047,3.788 9.029,3.65 8.96,3.438 8.766,2.844 8.24,2.336 7.612,2.138 A 1.688,1.688 0 0 0 6.992,2.047 Z M 6.895,2.385 c 0.227,0 0.328,0.014 0.533,0.079 0.54,0.17 0.992,0.606 1.159,1.117 0.06,0.182 0.074,0.3 0.067,0.533 C 8.646,4.382 8.621,4.489 8.495,4.778 8.491,4.787 8.52,4.813 8.557,4.838 8.837,5.017 8.889,5.396 8.662,5.606 A 0.99,0.99 0 0 1 8.568,5.684 L 8.536,5.704 8.574,5.737 C 8.608,5.766 8.611,5.774 8.6,5.806 8.043,6.298 4.42,6.108 4.275,5.862 4.183,5.809 4.165,5.77 4.18,5.659 A 0.463,0.463 0 0 0 4.187,5.565 C 4.184,5.56 4.16,5.554 4.133,5.549 4.061,5.538 3.967,5.469 3.903,5.382 A 0.544,0.544 0 0 1 3.847,4.827 0.997,0.997 0 0 1 4.108,4.53 L 4.145,4.504 4.096,4.445 A 0.848,0.848 0 0 1 3.904,3.723 0.803,0.803 0 0 1 4.307,3.204 0.631,0.631 0 0 1 4.671,3.127 c 0.204,0.013 0.366,0.093 0.55,0.276 0.067,0.066 0.122,0.12 0.125,0.12 0.002,0 0.034,-0.057 0.07,-0.126 C 5.709,2.849 6.054,2.552 6.553,2.42 6.669,2.389 6.706,2.385 6.895,2.385 Z M 7.82,4.204 A 0.353,0.353 0 0 0 7.507,4.408 0.366,0.366 0 0 0 7.711,4.911 C 7.811,4.945 7.85,4.946 7.941,4.919 8.257,4.824 8.297,4.388 8.002,4.244 A 0.389,0.389 0 0 0 7.82,4.204 Z M 5.304,4.207 A 0.454,0.454 0 0 0 5.175,4.224 0.446,0.446 0 0 0 4.947,4.456 0.366,0.366 0 0 0 5.145,4.904 0.373,0.373 0 0 0 5.295,4.94 0.39,0.39 0 0 0 5.644,4.688 0.36,0.36 0 0 0 5.542,4.307 0.35,0.35 0 0 0 5.304,4.207 Z m 0.101,0.091 c 0.064,0 0.127,0.052 0.127,0.137 0,0.032 -0.013,0.057 -0.041,0.081 C 5.378,4.613 5.224,4.486 5.301,4.361 A 0.123,0.123 0 0 1 5.405,4.298 Z m 2.553,0.006 c 0.02,0 0.04,0.009 0.063,0.022 0.084,0.052 0.084,0.159 0,0.21 C 7.968,4.569 7.958,4.57 7.911,4.551 A 0.127,0.127 0 0 1 7.864,4.351 C 7.894,4.318 7.924,4.302 7.958,4.304 Z M 6.531,4.962 c -0.41,0 -0.528,0.005 -0.544,0.02 -0.013,0.014 -0.02,0.072 -0.02,0.201 0,0.171 0.004,0.189 0.043,0.266 A 0.59,0.59 0 0 0 6.354,5.742 0.663,0.663 0 0 0 6.559,5.757 0.534,0.534 0 0 0 7.054,5.452 C 7.083,5.392 7.09,5.351 7.094,5.202 7.099,5.059 7.094,5.016 7.077,4.992 7.056,4.963 7.037,4.962 6.531,4.962 Z M 8.277,6.55 C 8.284,6.55 8.289,6.551 8.29,6.552 8.303,6.565 8.101,9.941 8.085,9.98 8.071,10.016 7.862,10.1 7.645,10.159 7.501,10.197 7.462,10.203 7.452,10.184 7.444,10.17 7.544,6.634 7.552,6.625 A 3.15,3.15 0 0 1 7.802,6.598 C 7.937,6.587 8.1,6.569 8.164,6.56 A 0.797,0.797 0 0 1 8.277,6.55 Z m -3.646,0 h 0.015 c 0.036,0.001 0.108,0.008 0.187,0.018 0.106,0.013 0.258,0.027 0.339,0.033 0.08,0.005 0.15,0.017 0.155,0.025 0.013,0.02 0.246,3.555 0.236,3.572 C 5.553,10.212 5.539,10.212 5.459,10.193 5.326,10.163 4.92,10.027 4.912,10.011 L 4.758,8.283 C 4.644,6.991 4.61,6.556 4.624,6.551 h 0.007 z m 1.434,0.1 0.363,0.005 0.363,0.004 0.013,1.806 a 61.978,61.978 0 0 1 0,1.82 C 6.788,10.3 6.445,10.313 6.3,10.305 6.24,10.3 6.196,10.292 6.192,10.281 6.185,10.261 6.065,6.921 6.065,6.751 v -0.1 z"
     id="path2"
     inkscape:connector-curvature="0"
     style="fill:#bde6fb;fill-opacity:1" />
</svg>
