<?xml version="1.0" encoding="UTF-8" standalone="no"?>
<svg
   width="48"
   height="48"
   viewBox="0 0 12.7 12.7"
   version="1.1"
   id="svg4"
   sodipodi:docname="postscript-viewer.svg"
   inkscape:version="0.92.5 (2060ec1f9f, 2020-04-08)"
   xmlns:inkscape="http://www.inkscape.org/namespaces/inkscape"
   xmlns:sodipodi="http://sodipodi.sourceforge.net/DTD/sodipodi-0.dtd"
   xmlns="http://www.w3.org/2000/svg"
   xmlns:svg="http://www.w3.org/2000/svg">
  <sodipodi:namedview
     id="namedview1"
     pagecolor="#505050"
     bordercolor="#eeeeee"
     borderopacity="1"
     inkscape:showpageshadow="0"
     inkscape:pageopacity="0"
     inkscape:pagecheckerboard="0"
     inkscape:deskcolor="#d1d1d1" />
  <defs
     id="defs8">
    <style
       id="current-color-scheme"
       type="text/css">&#10;      .ColorScheme-Highlight {&#10;        color:#1e3f5a;&#10;      }&#10;  </style>
  </defs>
  <path
     class="ColorScheme-Highlight"
     style="fill:#bde6fb;fill-opacity:1;stroke-width:0.264583"
     d="M 6.3499999,0 A 6.3499999,6.3499999 0 0 0 0,6.3499999 6.3499999,6.3499999 0 0 0 6.3499999,12.7 6.3499999,6.3499999 0 0 0 12.7,6.3499999 6.3499999,6.3499999 0 0 0 6.3499999,0 Z m 0,0.79374999 A 5.5562499,5.5562499 0 0 1 11.90625,6.3499999 5.5562499,5.5562499 0 0 1 6.3499999,11.90625 5.5562499,5.5562499 0 0 1 0.79374999,6.3499999 5.5562499,5.5562499 0 0 1 6.3499999,0.79374999 Z M 4.4922323,2.8602905 c -0.096044,0.00344 -0.198632,0.029613 -0.311609,0.078031 -1.0086957,0.4309377 -0.2643476,1.4211858 1.0200928,2.326473 l 5.291e-4,0.00156 C 5.159667,6.1897743 4.9885015,7.231708 4.7552776,8.0977078 l -0.00517,0.00878 C 3.7687263,8.7176995 3.1546749,9.3512327 3.4835211,9.7699562 3.5628961,9.8712916 3.6262389,9.944329 3.6995285,9.9678769 L 3.8183843,9.8702086 C 3.1701472,9.4877278 4.2028186,8.9334487 4.5325524,8.7674335 l 0.011369,0.011369 c -0.1311879,0.3638782 -0.4816695,1.1150647 -0.725537,1.0914062 0,0 -0.045843,0.03786 -0.1183391,0.098185 C 4.08131,10.18747 4.582836,9.5027646 4.895838,8.5447083 5.7139466,8.0541907 7.1754319,7.3219788 8.3002815,6.8223328 h 0.0031 C 8.8456049,6.9802491 9.7186947,7.162816 10.139446,7.0838157 10.230726,7.0695282 10.480287,7.0001621 10.489812,6.7990785 10.535824,6.5558172 10.355024,6.3389705 10.008705,6.265261 9.5838403,6.1701446 8.8923684,6.3523436 8.3927827,6.5081401 7.4139567,6.122472 6.3254723,5.4898567 5.4203544,4.8984193 h 0.00103 C 5.3946633,3.7945777 5.152731,2.929233 4.5878456,2.8654684 c -0.030163,-0.00344 -0.063586,-0.00519 -0.095601,-0.00414 z m -0.073381,0.1803509 c 0.4592053,-0.0075 0.78052,0.656282 0.7921995,1.7172077 v 5.292e-4 C 4.1138242,4.0074908 3.6863692,3.2620767 4.2142129,3.0861288 4.2849559,3.0568593 4.3532395,3.0417248 4.4188517,3.0406538 Z M 5.4198242,5.41569 C 6.159673,5.9086326 7.0432686,6.3627158 7.8723875,6.6745278 6.9341528,6.9872531 5.9065604,7.4377975 5.0710083,7.9178628 l -0.00259,5.292e-4 c 8.996e-4,-5.028e-4 0.00169,-0.00103 0.00259,-0.00156 C 5.264604,7.1361008 5.393029,6.2385347 5.4198242,5.4156916 Z m 4.3418537,1.0247437 c 0.2542391,2.646e-4 0.6178551,0.060526 0.6878131,0.381372 -0.423143,0.245364 -1.3876868,0.11088 -1.7642331,-0.1565796 0.026337,-0.017754 0.055464,-0.034863 0.092501,-0.05116 0.00287,-0.00119 0.00645,-0.00294 0.0093,-0.00414 0.1210765,-0.051197 0.3597084,-0.1000001 0.8035684,-0.1591636 0.045228,-0.0049 0.097642,-0.010417 0.1710489,-0.010335 z m -0.824239,0.1038696 -5.292e-4,0.00103 c -3.439e-4,-1.111e-4 -0.00119,1.082e-4 -0.00156,0 6.085e-4,-2.498e-4 0.00146,-7.938e-4 0.00206,-0.00103 z"
     id="path817" />
</svg>
