<?xml version="1.0" encoding="UTF-8" standalone="no"?>
<svg
   width="48"
   height="48"
   viewBox="0 0 12.7 12.7"
   version="1.1"
   id="svg4"
   sodipodi:docname="postman.svg"
   inkscape:version="0.92.5 (2060ec1f9f, 2020-04-08)"
   xmlns:inkscape="http://www.inkscape.org/namespaces/inkscape"
   xmlns:sodipodi="http://sodipodi.sourceforge.net/DTD/sodipodi-0.dtd"
   xmlns="http://www.w3.org/2000/svg"
   xmlns:svg="http://www.w3.org/2000/svg">
  <sodipodi:namedview
     id="namedview1"
     pagecolor="#505050"
     bordercolor="#eeeeee"
     borderopacity="1"
     inkscape:showpageshadow="0"
     inkscape:pageopacity="0"
     inkscape:pagecheckerboard="0"
     inkscape:deskcolor="#d1d1d1" />
  <defs
     id="defs8">
    <style
       id="current-color-scheme"
       type="text/css">&#10;      .ColorScheme-Highlight {&#10;        color:#1e3f5a;&#10;      }&#10;  </style>
  </defs>
  <path
     class="ColorScheme-Highlight"
     style="fill:#bde6fb;fill-opacity:1;stroke-width:0.264583"
     d="M 6.3499999,0 A 6.3499999,6.3499999 0 0 0 0,6.3499999 6.3499999,6.3499999 0 0 0 1.3668416,10.274825 L 1.9311482,9.7105183 A 5.5562499,5.5562499 0 0 1 0.79374999,6.3499999 5.5562499,5.5562499 0 0 1 6.3499999,0.79374999 5.5562499,5.5562499 0 0 1 11.90625,6.3499999 5.5562499,5.5562499 0 0 1 6.3499999,11.90625 5.5562499,5.5562499 0 0 1 3.3806722,11.038603 l 0.304891,1.067118 A 6.3499999,6.3499999 0 0 0 6.3499999,12.7 6.3499999,6.3499999 0 0 0 12.7,6.3499999 6.3499999,6.3499999 0 0 0 6.3499999,0 Z m 2.4768514,2.7956949 a 1.3229166,1.3229166 0 0 0 -0.9157063,0.3870566 1.3229166,1.3229166 0 0 0 0,1.8706867 1.3229166,1.3229166 0 0 0 1.8706867,0 1.3229166,1.3229166 0 0 0 0,-1.8706867 1.3229166,1.3229166 0 0 0 -0.9549804,-0.3870566 z m 0.7679118,0.5741252 a 1.0583332,1.0583332 0 0 1 0,1.4965494 1.0583332,1.0583332 0 0 1 -0.2118733,0.162264 L 8.6594197,4.3051634 Z m -2.806547,1.1079427 c -0.3381627,0 -0.6762256,0.1294889 -0.9353434,0.3886067 L 4.7304605,5.9892985 3.7951171,6.9246418 4.7304605,7.8599852 1.7368449,10.853601 2.1109822,11.227738 3.0468424,12.163082 2.701127,10.779704 6.15673,8.1535073 C 6.3183595,8.08874 6.4698316,7.9913011 6.6011474,7.8599852 l 1.1229287,-1.122412 c 0.5182357,-0.5182356 0.5182357,-1.352968 0,-1.8712037 C 7.4649586,4.6072517 7.1263787,4.4777628 6.7882161,4.4777628 Z"
     id="path817" />
  <path
     style="fill:#ff6600"
     d="M 3.9820458,7.1116505 3.2336911,8.2341826 4.7304005,7.8600052 Z M 1.7369819,10.853424 0.61444992,11.975956 H 2.8595139 Z"
     id="path863"
     inkscape:connector-curvature="0" />
</svg>
