<?xml version="1.0" encoding="UTF-8" standalone="no"?>
<svg
   width="47.546486"
   height="47.546486"
   viewBox="0 0 12.580008 12.580008"
   version="1.1"
   id="svg4"
   sodipodi:docname="pragha.svg"
   inkscape:version="0.92.4 (5da689c313, 2019-01-14)"
   xmlns:inkscape="http://www.inkscape.org/namespaces/inkscape"
   xmlns:sodipodi="http://sodipodi.sourceforge.net/DTD/sodipodi-0.dtd"
   xmlns="http://www.w3.org/2000/svg"
   xmlns:svg="http://www.w3.org/2000/svg"
   xmlns:rdf="http://www.w3.org/1999/02/22-rdf-syntax-ns#"
   xmlns:cc="http://creativecommons.org/ns#"
   xmlns:dc="http://purl.org/dc/elements/1.1/">
  <metadata
     id="metadata10">
    <rdf:RDF>
      <cc:Work
         rdf:about="">
        <dc:format>image/svg+xml</dc:format>
        <dc:type
           rdf:resource="http://purl.org/dc/dcmitype/StillImage" />
        <dc:title />
      </cc:Work>
    </rdf:RDF>
  </metadata>
  <defs
     id="defs8" />
  <sodipodi:namedview
     pagecolor="#ffffff"
     bordercolor="#666666"
     borderopacity="1"
     objecttolerance="10"
     gridtolerance="10"
     guidetolerance="10"
     inkscape:pageopacity="0"
     inkscape:pageshadow="2"
     inkscape:window-width="1087"
     inkscape:window-height="480"
     id="namedview6"
     showgrid="false"
     inkscape:zoom="4.9166667"
     inkscape:cx="2.1355932"
     inkscape:cy="24"
     inkscape:window-x="0"
     inkscape:window-y="25"
     inkscape:window-maximized="0"
     inkscape:current-layer="svg4"
     inkscape:showpageshadow="0"
     inkscape:pagecheckerboard="0"
     inkscape:deskcolor="#d1d1d1" />
  <path
     d="M 6.2900079,0 A 6.29,6.29 0 0 0 7.9490244e-6,6.3 6.29,6.29 0 0 0 6.3000079,12.58 6.29,6.29 0 0 0 12.580008,6.29 6.29,6.29 0 0 0 6.2900079,0 Z m -0.02,0.93 0.01,0.01 A 5.4,5.4 0 0 1 11.680008,6.34 5.4,5.4 0 0 1 6.2800079,11.75 5.4,5.4 0 0 1 0.87000795,6.35 5.4,5.4 0 0 1 6.2700079,0.93 Z m 1.7,1.65 a 0.8,0.8 0 0 0 -0.23,0.07 c -0.14,0.06 -0.47,0.11 -0.73,0.11 -0.91,0.02 -1.64,0.33 -2.24,0.91 -0.8,0.8 -1.05,1.8 -0.69,2.72 0.09,0.22 0.14,0.43 0.12,0.49 -0.02,0.05 -0.18,0.2 -0.35,0.32 -0.36,0.27 -0.6,0.7 -0.67,1.17 -0.04,0.28 -0.01,0.42 0.15,0.75 0.34,0.72 1.12,1.03 1.94,0.78 0.48,-0.15 0.96,-0.68 1.35,-1.47 0.33,-0.69 0.34,-0.7 0.7,-0.83 0.6,-0.2 0.98,-0.44 1.35,-0.82 0.67,-0.69 0.91,-1.57 0.68,-2.42 -0.11,-0.38 -0.2,-0.51 -0.69,-1 a 4.55,4.55 0 0 1 -0.68,-0.78 z m -1.42,0.57 c 0.3,0 0.54,0.08 0.6,0.26 0.02,0.06 -0.07,0.33 -0.2,0.6 -0.33,0.7 -0.44,1.09 -0.64,2.32 -0.26,1.54 -0.53,2.2 -1.08,2.6 -0.35,0.25 -0.78,0.27 -1,0.05 a 0.61,0.61 0 0 1 -0.17,-0.69 c 0.08,-0.2 0.15,-0.23 0.68,-0.3 0.36,-0.05 0.7,-0.3 0.7,-0.62 0,-0.2 -0.16,-0.31 -0.45,-0.6 a 1.9,1.9 0 0 1 -0.64,-1.42 c 0,-0.85 0.44,-1.57 1.18,-1.95 0.34,-0.17 0.71,-0.26 1.02,-0.25 z m 0.88,0.57 c 0.1,-0.02 0.22,0.09 0.4,0.3 0.68,0.84 0.6,2.11 -0.17,2.85 -0.33,0.3 -0.4,0.33 -0.63,0.16 -0.14,-0.1 -0.16,-0.19 -0.16,-0.54 0,-0.55 0.18,-1.88 0.32,-2.39 0.07,-0.24 0.14,-0.37 0.24,-0.38 z"
     id="path2"
     inkscape:connector-curvature="0"
     style="fill:#bde6fb;fill-opacity:1" />
</svg>
