<?xml version="1.0" encoding="UTF-8" standalone="no"?>
<svg
   width="48"
   height="48"
   viewBox="0 0 12.7 12.7"
   version="1.1"
   id="svg4"
   sodipodi:docname="preferences-desktop-locale.svg"
   inkscape:version="0.92.5 (2060ec1f9f, 2020-04-08)"
   xmlns:inkscape="http://www.inkscape.org/namespaces/inkscape"
   xmlns:sodipodi="http://sodipodi.sourceforge.net/DTD/sodipodi-0.dtd"
   xmlns="http://www.w3.org/2000/svg"
   xmlns:svg="http://www.w3.org/2000/svg">
  <sodipodi:namedview
     id="namedview1"
     pagecolor="#505050"
     bordercolor="#eeeeee"
     borderopacity="1"
     inkscape:showpageshadow="0"
     inkscape:pageopacity="0"
     inkscape:pagecheckerboard="0"
     inkscape:deskcolor="#d1d1d1" />
  <defs
     id="defs8">
    <style
       id="current-color-scheme"
       type="text/css">&#10;      .ColorScheme-Highlight {&#10;        color:#1e3f5a;&#10;      }&#10;  </style>
  </defs>
  <path
     class="ColorScheme-Highlight"
     style="fill:#bde6fb;fill-opacity:1;stroke-width:0.264583"
     d="M 6.3499999,0 A 6.3499999,6.3499999 0 0 0 0,6.3499999 6.3499999,6.3499999 0 0 0 6.3499999,12.7 6.3499999,6.3499999 0 0 0 12.7,6.3499999 6.3499999,6.3499999 0 0 0 6.3499999,0 Z m 0,0.79374999 A 5.5562499,5.5562499 0 0 1 11.90625,6.3499999 5.5562499,5.5562499 0 0 1 6.3499999,11.90625 5.5562499,5.5562499 0 0 1 0.79374999,6.3499999 5.5562499,5.5562499 0 0 1 6.3499999,0.79374999 Z m 0,0.79375001 A 4.7624997,4.7624997 0 0 0 5.8156657,1.6231567 L 5.6198118,2.9930989 A 3.4395833,3.4395833 0 0 0 4.4891316,3.4576699 L 3.3853231,2.6298136 A 4.7624997,4.7624997 0 0 0 2.9822468,2.9822468 4.7624997,4.7624997 0 0 0 2.6277465,3.3827391 L 3.4597371,4.4922323 A 3.4395833,3.4395833 0 0 0 2.991032,5.6203288 L 1.6231567,5.8156657 A 4.7624997,4.7624997 0 0 0 1.5875,6.3499999 4.7624997,4.7624997 0 0 0 1.6200561,6.8838174 L 2.9930989,7.080188 a 3.4395833,3.4395833 0 0 0 0.464571,1.1306802 L 2.6298136,9.3146768 A 4.7624997,4.7624997 0 0 0 2.9822468,9.7177531 4.7624997,4.7624997 0 0 0 3.3827391,10.072253 L 4.4922323,9.2402627 a 3.4395833,3.4395833 0 0 0 1.1280965,0.4687051 l 0.1953369,1.3678752 a 4.7624997,4.7624997 0 0 0 0.5343342,0.03566 4.7624997,4.7624997 0 0 0 0.5338175,-0.03256 L 7.080188,9.7069009 A 3.4395833,3.4395833 0 0 0 8.2108682,9.2428466 L 9.3172607,10.072253 A 4.7624997,4.7624997 0 0 0 9.7177531,9.7177531 4.7624997,4.7624997 0 0 0 10.070186,9.3146768 L 9.2402627,8.2077675 A 3.4395833,3.4395833 0 0 0 9.7089678,7.079671 L 11.079944,6.8838174 A 4.7624997,4.7624997 0 0 0 11.1125,6.3499999 4.7624997,4.7624997 0 0 0 11.076843,5.8156657 L 9.7069009,5.6198118 A 3.4395833,3.4395833 0 0 0 9.2428466,4.4891316 L 10.072253,3.3827391 A 4.7624997,4.7624997 0 0 0 9.7177531,2.9822468 4.7624997,4.7624997 0 0 0 9.3146768,2.6298136 L 8.2077675,3.4597371 A 3.4395833,3.4395833 0 0 0 7.079671,2.991032 L 6.8838174,1.6200561 A 4.7624997,4.7624997 0 0 0 6.3499999,1.5875 Z m 0,2.1166666 A 2.6458332,2.6458332 0 0 1 8.9958332,6.3499999 2.6458332,2.6458332 0 0 1 6.3499999,8.9958332 2.6458332,2.6458332 0 0 1 3.7041666,6.3499999 2.6458332,2.6458332 0 0 1 6.3499999,3.7041666 Z m 0,0.5291667 A 2.1166664,2.1166664 0 0 0 4.5201374,5.2916666 h -0.022221 v 0.038757 A 2.1166664,2.1166664 0 0 0 4.2333333,6.3499999 2.1166664,2.1166664 0 0 0 6.3499999,8.4666666 2.1166664,2.1166664 0 0 0 7.3742269,8.2020832 h 0.034106 V 8.1808954 A 2.1166664,2.1166664 0 0 0 8.4666666,6.3499999 2.1166664,2.1166664 0 0 0 8.2020832,5.325773 V 5.2916666 H 8.1808954 A 2.1166664,2.1166664 0 0 0 7.4083332,4.5201374 V 4.4979166 H 7.369576 A 2.1166664,2.1166664 0 0 0 6.3499999,4.2333333 Z m 0,0.2645833 a 1.8520833,1.8520833 0 0 1 0.79375,0.1813843 v 0.6123657 h -0.79375 z m -0.2645833,0.020672 v 0.7730781 h -0.79375 V 4.8327799 a 1.8520833,1.8520833 0 0 1 0.79375,-0.3141927 z M 7.4083332,4.830714 A 1.8520833,1.8520833 0 0 1 7.86722,5.2916666 H 7.4083332 Z M 5.0270833,5.0565401 V 5.2916666 H 4.8307127 A 1.8520833,1.8520833 0 0 1 5.0270833,5.0565388 Z M 4.6793009,5.5562499 h 0.3477824 v 0.79375 H 4.4979166 a 1.8520833,1.8520833 0 0 1 0.1813843,-0.79375 z m 0.6123657,0 h 0.79375 v 0.79375 h -0.79375 z m 1.0583333,0 h 0.79375 v 0.79375 h -0.79375 z m 1.0583333,0 h 0.6128825 a 1.8520833,1.8520833 0 0 1 0.1808675,0.79375 h -0.79375 z M 4.5185872,6.6145833 H 5.0270833 V 7.4083332 H 4.8327799 A 1.8520833,1.8520833 0 0 1 4.5185872,6.6145833 Z m 0.7730794,0 h 0.79375 v 0.7937499 h -0.79375 z m 1.0583333,0 h 0.79375 v 0.7937499 h -0.79375 z m 1.0583333,0 H 8.1808959 A 1.8520833,1.8520833 0 0 1 7.8692871,7.4083332 H 7.4083332 Z M 5.2916666,7.6729166 h 0.79375 v 0.5079793 a 1.8520833,1.8520833 0 0 1 -0.79375,-0.3116088 z m 1.0583333,0 h 0.79375 v 0.3482991 a 1.8520833,1.8520833 0 0 1 -0.79375,0.1808675 z m 1.0583333,0 H 7.645528 A 1.8520833,1.8520833 0 0 1 7.4083332,7.86722 Z"
     id="path820" />
</svg>
