<?xml version="1.0" encoding="UTF-8" standalone="no"?>
<svg
   width="48"
   height="48"
   viewBox="0 0 12.7 12.7"
   version="1.1"
   id="svg4"
   sodipodi:docname="preferences-desktop-filter.svg"
   inkscape:version="0.92.5 (2060ec1f9f, 2020-04-08)"
   xmlns:inkscape="http://www.inkscape.org/namespaces/inkscape"
   xmlns:sodipodi="http://sodipodi.sourceforge.net/DTD/sodipodi-0.dtd"
   xmlns="http://www.w3.org/2000/svg"
   xmlns:svg="http://www.w3.org/2000/svg">
  <sodipodi:namedview
     id="namedview1"
     pagecolor="#505050"
     bordercolor="#eeeeee"
     borderopacity="1"
     inkscape:showpageshadow="0"
     inkscape:pageopacity="0"
     inkscape:pagecheckerboard="0"
     inkscape:deskcolor="#d1d1d1" />
  <defs
     id="defs8">
    <style
       id="current-color-scheme"
       type="text/css">&#10;      .ColorScheme-Highlight {&#10;        color:#1e3f5a;&#10;      }&#10;  </style>
  </defs>
  <path
     class="ColorScheme-Highlight"
     style="fill:#bde6fb;fill-opacity:1;stroke-width:0.264583"
     d="M 6.3499999,0 C 2.8429918,0 0,2.8429918 0,6.3499999 0,9.857008 2.8429918,12.7 6.3499999,12.7 9.857008,12.7 12.7,9.857008 12.7,6.3499999 12.7,2.8429918 9.857008,0 6.3499999,0 Z m 0,0.79374999 c 3.0686322,0 5.5562501,2.48761781 5.5562501,5.55624991 0,3.0686322 -2.4876179,5.5562501 -5.5562501,5.5562501 -3.0686321,0 -5.55624991,-2.4876179 -5.55624991,-5.5562501 0,-3.0686321 2.48761781,-5.55624991 5.55624991,-5.55624991 z m 0,1.85208331 c -2.0457548,0 -3.7041667,0.7107481 -3.7041666,1.5875 0.00153,0.5061085 0.5660689,0.9815713 1.519804,1.2800253 l 1.655196,1.8949746 V 10.583333 L 6.8791666,10.054167 V 7.4083332 L 8.5343626,5.5128419 C 9.4877553,5.2144953 10.052242,4.7392595 10.054167,4.2333333 c 0,-0.8767519 -1.6584122,-1.5875 -3.7041671,-1.5875 z m 0,0.5291667 c 1.3151281,0 2.38125,0.4146028 2.38125,0.9260416 0,0.5114388 -1.0661219,0.9260417 -2.38125,0.9260417 C 5.0348718,5.0270833 3.96875,4.6124804 3.96875,4.1010416 3.96875,3.5896028 5.0348718,3.175 6.3499999,3.175 Z"
     id="path826"
     inkscape:connector-curvature="0"
     sodipodi:nodetypes="sssssssssssccccccccssssss" />
</svg>
