<?xml version="1.0" encoding="UTF-8" standalone="no"?>
<svg
   width="48"
   height="48"
   viewBox="0 0 12.7 12.7"
   version="1.1"
   id="svg4"
   sodipodi:docname="preferences-devices-tree.svg"
   inkscape:version="0.92.5 (2060ec1f9f, 2020-04-08)"
   xmlns:inkscape="http://www.inkscape.org/namespaces/inkscape"
   xmlns:sodipodi="http://sodipodi.sourceforge.net/DTD/sodipodi-0.dtd"
   xmlns="http://www.w3.org/2000/svg"
   xmlns:svg="http://www.w3.org/2000/svg">
  <sodipodi:namedview
     id="namedview1"
     pagecolor="#505050"
     bordercolor="#eeeeee"
     borderopacity="1"
     inkscape:showpageshadow="0"
     inkscape:pageopacity="0"
     inkscape:pagecheckerboard="0"
     inkscape:deskcolor="#d1d1d1" />
  <defs
     id="defs8">
    <style
       id="current-color-scheme"
       type="text/css">&#10;      .ColorScheme-Highlight {&#10;        color:#1e3f5a;&#10;      }&#10;  </style>
  </defs>
  <path
     class="ColorScheme-Highlight"
     style="fill:#bde6fb;fill-opacity:1;stroke-width:0.264583"
     d="M 6.3499999,0 A 6.3499999,6.3499999 0 0 0 0,6.3499999 6.3499999,6.3499999 0 0 0 6.3499999,12.7 6.3499999,6.3499999 0 0 0 12.7,6.3499999 6.3499999,6.3499999 0 0 0 6.3499999,0 Z m 0,0.79374999 A 5.5562499,5.5562499 0 0 1 11.90625,6.3499999 5.5562499,5.5562499 0 0 1 6.3499999,11.90625 5.5562499,5.5562499 0 0 1 0.79374999,6.3499999 5.5562499,5.5562499 0 0 1 6.3499999,0.79374999 Z M 3.4395833,3.4395833 c -0.2931583,0 -0.5291667,0.2360083 -0.5291667,0.5291667 v 1.8520833 c 0,0.2931583 0.2360084,0.5291666 0.5291667,0.5291666 h 0.79375 v 1.984375 c 0,0.07329 0.059002,0.1322917 0.1322916,0.1322917 h 1.984375 v 0.79375 c 0,0.2931583 0.2360084,0.5291666 0.5291667,0.5291666 h 1.8520833 c 0.2931583,0 0.5291667,-0.2360083 0.5291667,-0.5291666 V 7.4083332 c 0,-0.2931583 -0.2360084,-0.5291666 -0.5291667,-0.5291666 H 6.8791666 c -0.2931583,0 -0.5291667,0.2360083 -0.5291667,0.5291666 v 0.79375 H 4.4979166 V 6.3499999 h 0.79375 c 0.2931583,0 0.5291667,-0.2360083 0.5291667,-0.5291666 v -0.79375 h 0.5291666 v 0.79375 c 0,0.2931583 0.2360084,0.5291666 0.5291667,0.5291666 h 1.8520833 c 0.2931583,0 0.5291667,-0.2360083 0.5291667,-0.5291666 V 3.96875 c 0,-0.2931584 -0.2360084,-0.5291667 -0.5291667,-0.5291667 H 6.8791666 c -0.2931583,0 -0.5291667,0.2360083 -0.5291667,0.5291667 V 4.7624999 H 5.8208333 V 3.96875 c 0,-0.2931584 -0.2360084,-0.5291667 -0.5291667,-0.5291667 z M 3.7041666,3.96875 h 1.3229167 c 0.1465791,0 0.2645833,0.1180041 0.2645833,0.2645833 v 1.3229166 c 0,0.1465792 -0.1180042,0.2645834 -0.2645833,0.2645834 H 3.7041666 c -0.1465791,0 -0.2645833,-0.1180042 -0.2645833,-0.2645834 V 4.2333333 c 0,-0.1465792 0.1180042,-0.2645833 0.2645833,-0.2645833 z m 3.4395833,0 h 1.3229167 c 0.1465791,0 0.2645833,0.1180041 0.2645833,0.2645833 v 1.3229166 c 0,0.1465792 -0.1180042,0.2645834 -0.2645833,0.2645834 H 7.1437499 c -0.1465792,0 -0.2645833,-0.1180042 -0.2645833,-0.2645834 V 4.2333333 c 0,-0.1465792 0.1180041,-0.2645833 0.2645833,-0.2645833 z m 0,3.4395832 h 1.3229167 c 0.1465791,0 0.2645833,0.1180042 0.2645833,0.2645834 v 1.3229166 c 0,0.1465792 -0.1180042,0.2645834 -0.2645833,0.2645834 H 7.1437499 c -0.1465792,0 -0.2645833,-0.1180042 -0.2645833,-0.2645834 V 7.6729166 c 0,-0.1465792 0.1180041,-0.2645834 0.2645833,-0.2645834 z"
     id="path831" />
</svg>
