<?xml version="1.0" encoding="UTF-8" standalone="no"?>
<svg
   width="48"
   height="48"
   viewBox="0 0 12.7 12.7"
   version="1.1"
   id="svg4"
   sodipodi:docname="preferences-system-network-server-web.svg"
   inkscape:version="0.92.5 (2060ec1f9f, 2020-04-08)"
   xmlns:inkscape="http://www.inkscape.org/namespaces/inkscape"
   xmlns:sodipodi="http://sodipodi.sourceforge.net/DTD/sodipodi-0.dtd"
   xmlns="http://www.w3.org/2000/svg"
   xmlns:svg="http://www.w3.org/2000/svg">
  <defs
     id="defs1" />
  <sodipodi:namedview
     id="namedview1"
     pagecolor="#505050"
     bordercolor="#eeeeee"
     borderopacity="1"
     inkscape:showpageshadow="0"
     inkscape:pageopacity="0"
     inkscape:pagecheckerboard="0"
     inkscape:deskcolor="#d1d1d1" />
  <style
     id="current-color-scheme"
     type="text/css">&#10;      .ColorScheme-Highlight {&#10;        color:#1e3f5a;&#10;      }&#10;  </style>
  <path
     class="ColorScheme-Highlight"
     style="fill:#bde6fb;fill-opacity:1;stroke-width:0.264583"
     d="M 6.3499999,0 A 6.3499999,6.3499999 0 0 0 0,6.3499999 6.3499999,6.3499999 0 0 0 6.3499999,12.7 6.3499999,6.3499999 0 0 0 7.6729166,12.55789 V 11.744503 A 5.5562499,5.5562499 0 0 1 6.3499999,11.90625 5.5562499,5.5562499 0 0 1 2.2174357,10.054167 h 2.8096476 v 0.79375 H 7.6729166 V 10.054167 9.5249999 8.9958332 h -0.79375 V 8.4666666 h 0.79375 V 7.941634 c 0,-0.00159 0.00153,-0.00254 0.00156,-0.00414 h -3.17656 V 2.6458333 H 8.2020832 V 7.6729166 H 8.7312499 V 2.38125 c 0,-0.1465792 -0.1180042,-0.2645834 -0.2645833,-0.2645834 H 4.2333333 C 4.0867541,2.1166666 3.96875,2.2346708 3.96875,2.38125 v 5.8208332 c 0,0.1465792 0.1180041,0.2645834 0.2645833,0.2645834 h 1.5875 v 0.5291666 h -0.79375 V 9.5249999 H 1.7983398 A 5.5562499,5.5562499 0 0 1 0.79374999,6.3499999 5.5562499,5.5562499 0 0 1 6.3499999,0.79374999 5.5562499,5.5562499 0 0 1 11.90625,6.3499999 5.5562499,5.5562499 0 0 1 11.738818,7.6729166 h 0.813904 A 6.3499999,6.3499999 0 0 0 12.7,6.3499999 6.3499999,6.3499999 0 0 0 6.3499999,0 Z m -1.5875,2.9104166 V 3.96875 h 3.175 V 2.9104166 Z m 0,1.8520833 v 1.0583334 h 3.175 V 4.7624999 Z m 0,1.8520834 v 1.0583333 h 3.175 V 6.6145833 Z m 3.7041667,1.5874999 c -0.1465792,0 -0.2645834,0.1180042 -0.2645834,0.2645834 v 3.9687504 c 0,0.146579 0.1180042,0.264583 0.2645834,0.264583 H 12.435417 C 12.581996,12.7 12.7,12.581996 12.7,12.435417 V 8.4666666 c 0,-0.1465792 -0.118004,-0.2645834 -0.264583,-0.2645834 z m 1.9843754,0.5291667 a 1.7197915,1.7197915 0 0 1 0.926041,0.2713014 v -0.00672 l 0.0078,0.011369 A 1.7197915,1.7197915 0 0 1 12.170881,10.45104 1.7197915,1.7197915 0 0 1 10.45109,12.170831 1.7197915,1.7197915 0 0 1 9.0072501,11.382765 l -0.011369,-0.0057 v -0.01292 A 1.7197915,1.7197915 0 0 1 8.7312499,10.451042 1.7197915,1.7197915 0 0 1 10.451042,8.7312499 Z m 0,0.2645833 a 1.4552082,1.4552082 0 0 0 -1.4552088,1.4552088 1.4552082,1.4552082 0 0 0 0.055811,0.396875 h 0.7379393 l 0.2645835,0.529166 -0.4743899,0.237195 A 1.4552082,1.4552082 0 0 0 10.451042,11.90625 1.4552082,1.4552082 0 0 0 11.1125,11.747087 V 11.1125 l -0.264583,-0.529167 h 1.051615 a 1.4552082,1.4552082 0 0 0 0.0067,-0.132291 1.4552082,1.4552082 0 0 0 -0.0083,-0.14056 L 11.641667,10.054167 11.1125,9.7895832 10.583333,9.9311766 v -0.67076 h 0.7028 A 1.4552082,1.4552082 0 0 0 10.451042,8.9958332 Z"
     id="path870" />
</svg>
