<?xml version="1.0" encoding="UTF-8" standalone="no"?>
<svg
   width="48"
   height="48"
   viewBox="0 0 12.7 12.7"
   version="1.1"
   id="svg4"
   sodipodi:docname="preferences-desktop-launch-feedback.svg"
   inkscape:version="0.92.5 (2060ec1f9f, 2020-04-08)"
   xmlns:inkscape="http://www.inkscape.org/namespaces/inkscape"
   xmlns:sodipodi="http://sodipodi.sourceforge.net/DTD/sodipodi-0.dtd"
   xmlns="http://www.w3.org/2000/svg"
   xmlns:svg="http://www.w3.org/2000/svg">
  <sodipodi:namedview
     id="namedview1"
     pagecolor="#505050"
     bordercolor="#eeeeee"
     borderopacity="1"
     inkscape:showpageshadow="0"
     inkscape:pageopacity="0"
     inkscape:pagecheckerboard="0"
     inkscape:deskcolor="#d1d1d1" />
  <defs
     id="defs8">
    <style
       id="current-color-scheme"
       type="text/css">&#10;      .ColorScheme-Highlight {&#10;        color:#1e3f5a;&#10;      }&#10;  </style>
  </defs>
  <path
     class="ColorScheme-Highlight"
     style="fill:#bde6fb;fill-opacity:1;stroke-width:0.264583"
     d="M 6.3499999,0 A 6.3499999,6.3499999 0 0 0 0,6.3499999 6.3499999,6.3499999 0 0 0 6.3499999,12.7 6.3499999,6.3499999 0 0 0 12.7,6.3499999 6.3499999,6.3499999 0 0 0 6.3499999,0 Z m 0,0.79374999 A 5.5562499,5.5562499 0 0 1 11.90625,6.3499999 5.5562499,5.5562499 0 0 1 6.3499999,11.90625 5.5562499,5.5562499 0 0 1 0.79374999,6.3499999 5.5562499,5.5562499 0 0 1 6.3499999,0.79374999 Z M 9.7497923,2.9104166 C 9.4197923,2.9204179 9.0494905,3.070266 8.7694904,3.2602662 8.0294905,3.750266 7.2093724,4.5306606 6.4693725,5.2606606 A 8.3200001,8.3200001 0 0 0 2.3094197,7.3204834 l -0.00982,0.020153 v 0.039791 c 0,0.06 0.100197,0.1302247 0.160197,0.1302247 h 0.019637 C 3.1494353,7.2906521 3.9793289,7.0704397 4.6493288,7.1804397 4.5493287,7.3204395 4.4396333,7.4903046 4.3196331,7.7003046 4.219633,7.8703047 4.1394916,8.0205603 4.0994916,8.17056 3.7994914,8.2705603 3.3895248,8.4705231 3.1295249,8.7705236 2.7995246,9.1405233 2.7093954,9.5604662 2.7093954,10.140466 A 2.07,2.07 0 0 0 4.6296917,8.5705356 5.2999999,5.2999999 0 0 0 5.5293785,8.0604893 c 0.1,0.66 -0.1200312,1.4898936 -0.3400311,2.1698937 v 0.02015 c 0,0.07 0.080043,0.14968 0.1400431,0.15968 h 0.020153 l 0.039791,-0.0098 A 8.3200001,8.3200001 0 0 0 7.4393389,6.230626 C 8.179339,5.5006258 8.9597331,4.6803267 9.4397333,3.9403266 9.6397338,3.640328 9.7995834,3.2504165 9.7895832,2.9104166 Z m -5.6704547,5.3097533 0.010335,0.010335 a 0.39999999,0.39999999 0 0 0 0,0.059945 0.54,0.54 0 0 0 -0.1198893,0.099736 C 3.8397828,8.5401845 3.669752,8.7804833 3.629752,9.0004833 c 0.2500001,-0.02 0.5698527,-0.1402678 0.7198527,-0.2702677 a 0.5,0.5 0 0 0 0.099735,-0.1095541 c 0.05,0 0.1000432,-0.020307 0.1400431,-0.040308 A 1,1 0 0 1 4.2793247,9.1002188 C 4.0193248,9.3202187 3.5794965,9.5704466 3.1594964,9.6004466 A 2,2 0 0 1 3.5796259,8.5204093 c 0.1300001,-0.15 0.3297111,-0.2402404 0.4997117,-0.3002394 z"
     id="path831" />
  <path
     d="m 8.7895833,3.2304184 c -0.26,0.18 -0.5,0.36 -0.74,0.5599999 l 0.4,0.4399999 0.68,-0.6599999 z m -0.34,0.9999998 -0.74,0.7500001 0.45,0.5000001 c 0.25,-0.26 0.5,-0.5199999 0.72,-0.8 z m -1.19,0.2600003 c -0.28,0.25 -0.54,0.5199999 -0.78,0.7699999 0.08,-0.03 0.17,0.02 0.15,0.18 l 0.3,0.3099999 0.78,-0.77 z m -0.33,1.2599998 -0.83,0.8400002 0.43,0.47 c 0.3,-0.2700002 0.59,-0.6400001 0.87,-0.8100002 z m -1.1,0.5500002 -0.41,0.4199998 c -0.17,0.1600002 -0.4,0.33 -0.64,0.3900001 l -0.05,0.07 0.38,0.3799999 0.98,-0.9699998 z m -0.72,1.2599998 -0.5599999,0.5600001 0.3399999,0.3200001 c 0.22,-0.1300001 0.44,-0.2400001 0.64,-0.4 l -0.04,-0.1000001 z"
     id="path4"
     inkscape:connector-curvature="0"
     style="opacity:0.75;fill:#ffffff" />
</svg>
