<?xml version="1.0" encoding="UTF-8" standalone="no"?>
<svg
   width="48"
   height="48"
   viewBox="0 0 12.7 12.7"
   version="1.1"
   id="svg4"
   sodipodi:docname="preferences-desktop-theme.svg"
   inkscape:version="0.92.5 (2060ec1f9f, 2020-04-08)"
   xmlns:inkscape="http://www.inkscape.org/namespaces/inkscape"
   xmlns:sodipodi="http://sodipodi.sourceforge.net/DTD/sodipodi-0.dtd"
   xmlns="http://www.w3.org/2000/svg"
   xmlns:svg="http://www.w3.org/2000/svg">
  <sodipodi:namedview
     id="namedview1"
     pagecolor="#505050"
     bordercolor="#eeeeee"
     borderopacity="1"
     inkscape:showpageshadow="0"
     inkscape:pageopacity="0"
     inkscape:pagecheckerboard="0"
     inkscape:deskcolor="#d1d1d1" />
  <defs
     id="defs8">
    <style
       id="current-color-scheme"
       type="text/css">&#10;      .ColorScheme-Highlight {&#10;        color:#1e3f5a;&#10;      }&#10;  </style>
  </defs>
  <path
     class="ColorScheme-Highlight"
     style="fill:#bde6fb;fill-opacity:1;stroke-width:0.264583"
     d="M 6.3499999,0 A 6.3499999,6.3499999 0 0 0 0,6.3499999 6.3499999,6.3499999 0 0 0 6.3499999,12.7 6.3499999,6.3499999 0 0 0 12.7,6.3499999 6.3499999,6.3499999 0 0 0 6.3499999,0 Z m 0,0.79374999 A 5.5562499,5.5562499 0 0 1 11.90625,6.3499999 5.5562499,5.5562499 0 0 1 6.3499999,11.90625 5.5562499,5.5562499 0 0 1 0.79374999,6.3499999 5.5562499,5.5562499 0 0 1 6.3499999,0.79374999 Z M 3.8690145,2.9434895 A 1.5875,1.5875 0 0 0 3.4835084,2.997233 l 0.9332761,0.9337932 c 0.1140119,0.1140119 0.1710492,0.2625526 0.1710492,0.4113443 0,0.1487916 -0.057037,0.2973326 -0.1710492,0.4113445 L 4.1170613,5.0534382 C 4.0030495,5.16745 3.8545084,5.2244873 3.7057168,5.2244873 c -0.1487916,0 -0.2973324,-0.057037 -0.4113442,-0.1710491 L 2.3610962,4.120162 A 1.5875,1.5875 0 0 0 2.7703735,5.6518513 1.5875,1.5875 0 0 0 4.2824259,6.0662962 L 5.2312051,7.0155924 6.354134,5.8926634 5.4203409,4.9593872 A 1.5875,1.5875 0 0 0 5.0157144,3.4070271 1.5875,1.5875 0 0 0 3.8690145,2.9434895 Z M 9.7895832,3.4395833 C 8.9877383,3.4929783 8.5820445,3.6381682 8.3235227,3.8178549 A 0.79374999,0.79374999 0 0 0 8.1405882,3.96875 0.79374999,0.79374999 0 0 0 7.9374999,4.4979166 a 0.79374999,0.79374999 0 0 0 0.79375,0.79375 0.79374999,0.79374999 0 0 0 0.79375,-0.79375 0.79374999,0.79374999 0 0 0 -0.029456,-0.2134238 C 9.4586752,3.8463214 9.6067963,3.6229014 9.7895832,3.4395833 Z m -2.0556884,1.4391886 -4.471045,4.471045 c -0.2072941,0.2072939 -0.2072941,0.5414973 0,0.7487911 0.2072947,0.207295 0.5414973,0.207295 0.7487915,0 L 8.5638184,5.5464315 a 1.0205357,1.0205357 0 0 1 -0.043925,-0.00517 1.0205357,1.0205357 0 0 1 -0.099219,-0.02222 1.0205357,1.0205357 0 0 1 -0.097152,-0.032039 1.0205357,1.0205357 0 0 1 -0.093017,-0.041858 1.0205357,1.0205357 0 0 1 -0.088367,-0.050643 1.0205357,1.0205357 0 0 1 -0.083199,-0.059428 1.0205357,1.0205357 0 0 1 -0.076481,-0.067179 1.0205357,1.0205357 0 0 1 -0.069763,-0.074931 1.0205357,1.0205357 0 0 1 -0.061495,-0.081132 1.0205357,1.0205357 0 0 1 -0.053227,-0.086816 1.0205357,1.0205357 0 0 1 -0.044442,-0.091984 1.0205357,1.0205357 0 0 1 -0.019637,-0.05426 z m -0.2651,2.1285522 -1.122929,1.122929 1.9683553,1.9683549 c 0.3109415,0.310942 0.8119877,0.310942 1.1229289,0 0.3109413,-0.3109409 0.3109413,-0.8119871 0,-1.1229286 z m 1.4143839,2.0009115 a 0.52916663,0.52916663 0 0 1 0.3669027,0.1545124 0.52916663,0.52916663 0 0 1 0,0.7487917 0.52916663,0.52916663 0 0 1 -0.7487917,0 0.52916663,0.52916663 0 0 1 0,-0.7487917 0.52916663,0.52916663 0 0 1 0.381889,-0.1545124 z"
     id="path831" />
</svg>
