<?xml version="1.0" encoding="UTF-8" standalone="no"?>
<svg
   width="48"
   height="48"
   viewBox="0 0 12.7 12.7"
   version="1.1"
   id="svg4"
   sodipodi:docname="preferences-system-brightness-lock.svg"
   inkscape:version="0.92.5 (2060ec1f9f, 2020-04-08)"
   xmlns:inkscape="http://www.inkscape.org/namespaces/inkscape"
   xmlns:sodipodi="http://sodipodi.sourceforge.net/DTD/sodipodi-0.dtd"
   xmlns="http://www.w3.org/2000/svg"
   xmlns:svg="http://www.w3.org/2000/svg">
  <sodipodi:namedview
     id="namedview1"
     pagecolor="#505050"
     bordercolor="#eeeeee"
     borderopacity="1"
     inkscape:showpageshadow="0"
     inkscape:pageopacity="0"
     inkscape:pagecheckerboard="0"
     inkscape:deskcolor="#d1d1d1" />
  <defs
     id="defs8">
    <style
       id="current-color-scheme"
       type="text/css">&#10;      .ColorScheme-Highlight {&#10;        color:#1e3f5a;&#10;      }&#10;  </style>
  </defs>
  <path
     class="ColorScheme-Highlight"
     style="fill:#bde6fb;fill-opacity:1;stroke-width:0.264583"
     d="M 6.3499999,0 A 6.3499999,6.3499999 0 0 0 0,6.3499999 6.3499999,6.3499999 0 0 0 6.3499999,12.7 6.3499999,6.3499999 0 0 0 12.7,6.3499999 6.3499999,6.3499999 0 0 0 6.3499999,0 Z m 0,0.79374999 A 5.5562499,5.5562499 0 0 1 11.90625,6.3499999 5.5562499,5.5562499 0 0 1 6.3499999,11.90625 5.5562499,5.5562499 0 0 1 0.79374999,6.3499999 5.5562499,5.5562499 0 0 1 6.3499999,0.79374999 Z M 6.0854166,1.8520833 V 3.175 H 6.6145833 V 1.8520833 Z M 3.3563843,2.9822468 2.9822468,3.3563843 3.9175904,4.2922443 4.2922443,3.9175904 Z m 5.9872313,0 -0.9358601,0.9353436 0.374654,0.3746539 0.9353436,-0.93586 z M 6.3499999,4.2333333 A 2.1166665,2.1166665 0 0 0 4.2333333,6.3499999 2.1166665,2.1166665 0 0 0 6.3499999,8.4666666 2.1166665,2.1166665 0 0 0 8.4666666,6.3499999 2.1166665,2.1166665 0 0 0 6.3499999,4.2333333 Z m 0,0.5291666 a 1.5875,1.5875 0 0 1 1.5875,1.5875 1.5875,1.5875 0 0 1 -1.5875,1.5875 z M 1.8520833,6.0854166 V 6.6145833 H 3.175 V 6.0854166 Z m 7.6729166,0 V 6.6145833 H 10.847917 V 6.0854166 Z M 3.9175904,8.4077555 2.9822468,9.3436156 3.3563843,9.7177531 4.2922443,8.7824095 Z m 4.8648191,0 -0.374654,0.374654 0.9358601,0.9353436 0.3741375,-0.3741375 z M 6.0854166,9.5249999 V 10.847917 H 6.6145833 V 9.5249999 Z"
     id="path831" />
</svg>
