<?xml version="1.0" encoding="UTF-8" standalone="no"?>
<svg
   width="48"
   height="48"
   viewBox="0 0 12.7 12.7"
   version="1.1"
   id="svg4"
   sodipodi:docname="preferences-activities.svg"
   inkscape:version="0.92.5 (2060ec1f9f, 2020-04-08)"
   xmlns:inkscape="http://www.inkscape.org/namespaces/inkscape"
   xmlns:sodipodi="http://sodipodi.sourceforge.net/DTD/sodipodi-0.dtd"
   xmlns="http://www.w3.org/2000/svg"
   xmlns:svg="http://www.w3.org/2000/svg">
  <sodipodi:namedview
     id="namedview1"
     pagecolor="#505050"
     bordercolor="#eeeeee"
     borderopacity="1"
     inkscape:showpageshadow="0"
     inkscape:pageopacity="0"
     inkscape:pagecheckerboard="0"
     inkscape:deskcolor="#d1d1d1" />
  <defs
     id="defs8">
    <style
       id="current-color-scheme"
       type="text/css">&#10;      .ColorScheme-Highlight {&#10;        color:#1e3f5a;&#10;      }&#10;  </style>
  </defs>
  <path
     class="ColorScheme-Highlight"
     style="fill:#bde6fb;fill-opacity:1;stroke-width:0.264583"
     d="M 6.3499999,0 A 6.3499999,6.3499999 0 0 0 0,6.3499999 6.3499999,6.3499999 0 0 0 6.3499999,12.7 6.3499999,6.3499999 0 0 0 12.7,6.3499999 6.3499999,6.3499999 0 0 0 6.3499999,0 Z m 0,0.79374999 A 5.5562499,5.5562499 0 0 1 11.90625,6.3499999 5.5562499,5.5562499 0 0 1 6.3499999,11.90625 5.5562499,5.5562499 0 0 1 0.79374999,6.3499999 5.5562499,5.5562499 0 0 1 6.3499999,0.79374999 Z m 0,0.79375001 A 4.7624997,4.7624997 0 0 0 5.8156657,1.6231567 L 5.6198118,2.9930989 A 3.4395833,3.4395833 0 0 0 4.4891316,3.4576699 L 3.3853231,2.6298136 A 4.7624997,4.7624997 0 0 0 2.9822468,2.9822468 4.7624997,4.7624997 0 0 0 2.6277465,3.3827391 L 3.4597371,4.4922323 A 3.4395833,3.4395833 0 0 0 2.991032,5.6203288 L 1.6231567,5.8156657 A 4.7624997,4.7624997 0 0 0 1.5875,6.3499999 4.7624997,4.7624997 0 0 0 1.6200561,6.8838174 L 2.9930989,7.080188 a 3.4395833,3.4395833 0 0 0 0.464571,1.1306802 L 2.6298136,9.3146768 A 4.7624997,4.7624997 0 0 0 2.9822468,9.7177531 4.7624997,4.7624997 0 0 0 3.3827391,10.072253 L 4.4922323,9.2402627 a 3.4395833,3.4395833 0 0 0 1.1280965,0.4687051 l 0.1953369,1.3678752 a 4.7624997,4.7624997 0 0 0 0.5343342,0.03566 4.7624997,4.7624997 0 0 0 0.5338175,-0.03256 L 7.080188,9.7069009 A 3.4395833,3.4395833 0 0 0 8.2108682,9.2428466 L 9.3172607,10.072253 A 4.7624997,4.7624997 0 0 0 9.7177531,9.7177531 4.7624997,4.7624997 0 0 0 10.070186,9.3146768 L 9.2402627,8.2077675 A 3.4395833,3.4395833 0 0 0 9.7089678,7.079671 L 11.079944,6.8838174 A 4.7624997,4.7624997 0 0 0 11.1125,6.3499999 4.7624997,4.7624997 0 0 0 11.076843,5.8156657 L 9.7069009,5.6198118 A 3.4395833,3.4395833 0 0 0 9.2428466,4.4891316 L 10.072253,3.3827391 A 4.7624997,4.7624997 0 0 0 9.7177531,2.9822468 4.7624997,4.7624997 0 0 0 9.3146768,2.6298136 L 8.2077675,3.4597371 A 3.4395833,3.4395833 0 0 0 7.079671,2.991032 L 6.8838174,1.6200561 A 4.7624997,4.7624997 0 0 0 6.3499999,1.5875 Z m 0,2.6458333 A 2.1166665,2.1166665 0 0 1 8.4666666,6.3499999 2.1166665,2.1166665 0 0 1 6.3499999,8.4666666 2.1166665,2.1166665 0 0 1 4.2333333,6.3499999 2.1166665,2.1166665 0 0 1 6.3499999,4.2333333 Z"
     id="path868" />
</svg>
