<?xml version="1.0" encoding="UTF-8" standalone="no"?>
<svg
   width="48"
   height="48"
   viewBox="0 0 12.7 12.7"
   version="1.1"
   id="svg4"
   sodipodi:docname="preferences-virtualization-vm-install.svg"
   inkscape:version="0.92.5 (2060ec1f9f, 2020-04-08)"
   xmlns:inkscape="http://www.inkscape.org/namespaces/inkscape"
   xmlns:sodipodi="http://sodipodi.sourceforge.net/DTD/sodipodi-0.dtd"
   xmlns="http://www.w3.org/2000/svg"
   xmlns:svg="http://www.w3.org/2000/svg">
  <sodipodi:namedview
     id="namedview1"
     pagecolor="#505050"
     bordercolor="#eeeeee"
     borderopacity="1"
     inkscape:showpageshadow="0"
     inkscape:pageopacity="0"
     inkscape:pagecheckerboard="0"
     inkscape:deskcolor="#d1d1d1" />
  <defs
     id="defs8">
    <style
       id="current-color-scheme"
       type="text/css">&#10;      .ColorScheme-Highlight {&#10;        color:#1e3f5a;&#10;      }&#10;  </style>
  </defs>
  <path
     class="ColorScheme-Highlight"
     style="fill:#bde6fb;fill-opacity:1;stroke-width:0.264583"
     d="M 6.3499999,0 A 6.3499999,6.3499999 0 0 0 0,6.3499999 6.3499999,6.3499999 0 0 0 6.3499999,12.7 6.3499999,6.3499999 0 0 0 8.5043903,12.31501 2.5135416,2.5135416 0 0 1 8.3834675,12.202356 2.5135416,2.5135416 0 0 1 8.2175862,12.013737 2.5135416,2.5135416 0 0 1 8.0713418,11.809098 2.5135416,2.5135416 0 0 1 7.9829752,11.655102 5.5562499,5.5562499 0 0 1 6.3499999,11.90625 5.5562499,5.5562499 0 0 1 0.79374999,6.3499999 5.5562499,5.5562499 0 0 1 6.3499999,0.79374999 5.5562499,5.5562499 0 0 1 11.90625,6.3499999 5.5562499,5.5562499 0 0 1 11.533663,8.332308 a 2.5135416,2.5135416 0 0 1 0.07183,0.044442 2.5135416,2.5135416 0 0 1 0.199988,0.1519288 2.5135416,2.5135416 0 0 1 0.183968,0.1710489 2.5135416,2.5135416 0 0 1 0.165881,0.188619 2.5135416,2.5135416 0 0 1 0.0041,0.0062 A 6.3499999,6.3499999 0 0 0 12.7,6.3499999 6.3499999,6.3499999 0 0 0 6.3499999,0 Z M 1.5875,4.4979166 2.9104166,8.2020832 H 3.96875 L 5.2916666,4.4979166 h -0.79375 L 3.4395833,7.1437499 2.38125,4.4979166 Z m 4.4979166,0 -1.3229167,3.7041666 h 0.79375 L 6.6145833,5.5562499 7.6729166,8.2020832 H 8.2020832 L 8.3416097,7.8527507 9.2604166,5.5562499 10.31875,8.2020832 H 11.1125 L 9.7895832,4.4979166 H 8.7312499 l -0.79375,2.2231202 -0.79375,-2.2231202 z m 4.1010414,3.96875 a 1.984375,1.984375 0 0 0 -1.9843748,1.9843754 1.984375,1.984375 0 0 0 1.9843748,1.984375 1.984375,1.984375 0 0 0 1.984375,-1.984375 1.984375,1.984375 0 0 0 -1.984375,-1.9843754 z m -0.132291,1.0583333 h 0.2651 v 1.6102381 l 0.606681,-0.606165 0.187069,0.187069 -0.727605,0.727087 -0.198437,0.198954 -0.1989543,-0.198954 -0.7270874,-0.727087 0.1870686,-0.187069 0.6061651,0.606165 V 9.5260333 Z"
     id="path831" />
</svg>
