<?xml version="1.0" encoding="UTF-8" standalone="no"?>
<svg
   width="48"
   height="48"
   viewBox="0 0 12.7 12.7"
   version="1.1"
   id="svg4"
   sodipodi:docname="preferences-desktop-remote-desktop.svg"
   inkscape:version="0.92.5 (2060ec1f9f, 2020-04-08)"
   xmlns:inkscape="http://www.inkscape.org/namespaces/inkscape"
   xmlns:sodipodi="http://sodipodi.sourceforge.net/DTD/sodipodi-0.dtd"
   xmlns="http://www.w3.org/2000/svg"
   xmlns:svg="http://www.w3.org/2000/svg">
  <sodipodi:namedview
     id="namedview1"
     pagecolor="#505050"
     bordercolor="#eeeeee"
     borderopacity="1"
     inkscape:showpageshadow="0"
     inkscape:pageopacity="0"
     inkscape:pagecheckerboard="0"
     inkscape:deskcolor="#d1d1d1" />
  <defs
     id="defs8">
    <style
       id="current-color-scheme"
       type="text/css">&#10;      .ColorScheme-Highlight {&#10;        color:#1e3f5a;&#10;      }&#10;  </style>
  </defs>
  <path
     class="ColorScheme-Highlight"
     style="fill:#bde6fb;fill-opacity:1;stroke-width:0.264583"
     d="M 6.3499999,0 A 6.3499999,6.3499999 0 0 0 0,6.3499999 6.3499999,6.3499999 0 0 0 6.3499999,12.7 6.3499999,6.3499999 0 0 0 12.7,6.3499999 6.3499999,6.3499999 0 0 0 6.3499999,0 Z m 0,0.79374999 A 5.5562499,5.5562499 0 0 1 11.90625,6.3499999 5.5562499,5.5562499 0 0 1 10.706323,9.7895832 h -0.652156 -1.0583338 -0.79375 c 0,-0.1465794 -0.1180039,-0.2645833 -0.2645833,-0.2645833 H 7.6729166 V 8.9958332 h 1.8520833 c 0.2931583,0 0.5291671,-0.3540125 0.5291671,-0.79375 V 3.96875 C 10.054167,3.5290125 9.8181582,3.175 9.5249999,3.175 H 3.175 c -0.2931584,0 -0.5291667,0.3540125 -0.5291667,0.79375 v 4.2333332 c 0,0.4397375 0.2360083,0.79375 0.5291667,0.79375 H 5.089095 V 9.5249999 H 4.7624999 c -0.1465794,0 -0.2645833,0.1180039 -0.2645833,0.2645833 h -0.79375 -1.716691 A 5.5562499,5.5562499 0 0 1 0.79374999,6.3499999 5.5562499,5.5562499 0 0 1 6.3499999,0.79374999 Z M 3.4395833,3.7041666 h 5.8208333 c 0.1465789,0 0.2645833,0.1180042 0.2645833,0.2645834 v 4.2333332 c 0,0.1465792 -0.1180044,0.2645834 -0.2645833,0.2645834 H 3.4395833 C 3.2930044,8.4666666 3.175,8.3486624 3.175,8.2020832 V 3.96875 c 0,-0.1465792 0.1180044,-0.2645834 0.2645833,-0.2645834 z m 3.7041666,1.0583333 c -0.1465789,0 -0.2645833,0.1180042 -0.2645833,0.2645834 v 0.79375 c 0,0.1465791 0.1180044,0.2645833 0.2645833,0.2645833 h 1.3229167 c 0.1465789,0 0.2645833,-0.1180042 0.2645833,-0.2645833 v -0.79375 c 0,-0.1465792 -0.1180044,-0.2645834 -0.2645833,-0.2645834 z m -2.6458333,0.79375 c -0.1465789,0 -0.2645833,0.1180042 -0.2645833,0.2645834 v 1.3229166 c 0,0.1465792 0.1180044,0.2645833 0.2645833,0.2645833 h 1.3229167 c 0.1465789,0 0.2645833,-0.1180041 0.2645833,-0.2645833 V 5.8208333 c 0,-0.1465792 -0.1180044,-0.2645834 -0.2645833,-0.2645834 z M 2.4690999,10.31875 h 1.2350667 0.79375 v 0.264583 c 0,0.14658 0.1180039,0.264584 0.2645833,0.264584 h 3.175 c 0.1465794,0 0.2645833,-0.118004 0.2645833,-0.264584 V 10.31875 h 0.79375 0.5291667 0.7121011 a 5.5562499,5.5562499 0 0 1 -3.8871011,1.5875 5.5562499,5.5562499 0 0 1 -3.8809,-1.5875 z"
     id="path822" />
</svg>
