<?xml version="1.0" encoding="UTF-8" standalone="no"?>
<svg
   width="48"
   height="48"
   viewBox="0 0 12.7 12.7"
   version="1.1"
   id="svg4"
   sodipodi:docname="preferences-web-browser-cookies.svg"
   inkscape:version="0.92.5 (2060ec1f9f, 2020-04-08)"
   xmlns:inkscape="http://www.inkscape.org/namespaces/inkscape"
   xmlns:sodipodi="http://sodipodi.sourceforge.net/DTD/sodipodi-0.dtd"
   xmlns="http://www.w3.org/2000/svg"
   xmlns:svg="http://www.w3.org/2000/svg">
  <sodipodi:namedview
     id="namedview1"
     pagecolor="#505050"
     bordercolor="#eeeeee"
     borderopacity="1"
     inkscape:showpageshadow="0"
     inkscape:pageopacity="0"
     inkscape:pagecheckerboard="0"
     inkscape:deskcolor="#d1d1d1" />
  <defs
     id="defs8">
    <style
       id="current-color-scheme"
       type="text/css">&#10;      .ColorScheme-Highlight {&#10;        color:#1e3f5a;&#10;      }&#10;  </style>
  </defs>
  <path
     class="ColorScheme-Highlight"
     style="fill:#bde6fb;fill-opacity:1;stroke-width:0.264583"
     d="M 6.3499999,0 A 6.3499999,6.3499999 0 0 0 0,6.3499999 6.3499999,6.3499999 0 0 0 6.3499999,12.7 6.3499999,6.3499999 0 0 0 12.7,6.3499999 6.3499999,6.3499999 0 0 0 6.3499999,0 Z m 0,0.79374999 A 5.5562499,5.5562499 0 0 1 11.90625,6.3499999 5.5562499,5.5562499 0 0 1 6.3499999,11.90625 5.5562499,5.5562499 0 0 1 0.79374999,6.3499999 5.5562499,5.5562499 0 0 1 6.3499999,0.79374999 Z M 9.1916868,2.8675253 a 1.4552082,1.4552082 0 0 1 0.00362,0.00982 1.4552082,1.4552082 0 0 1 0.036174,0.1410766 1.4552082,1.4552082 0 0 1 0.021704,0.1436605 1.4552082,1.4552082 0 0 1 0.00724,0.1452105 1.4552082,1.4552082 0 0 1 -0.00362,0.1028362 1.4552082,1.4552082 0 0 1 -0.017571,0.144694 1.4552082,1.4552082 0 0 1 -0.032039,0.1415933 1.4552082,1.4552082 0 0 1 -0.045475,0.1379763 1.4552082,1.4552082 0 0 1 -0.059428,0.1328084 1.4552082,1.4552082 0 0 1 -0.072347,0.1260903 1.4552082,1.4552082 0 0 1 -0.084749,0.1183391 1.4552082,1.4552082 0 0 1 -0.096118,0.1095539 1.4552082,1.4552082 0 0 1 -0.1064533,0.099219 1.4552082,1.4552082 0 0 1 -0.1157552,0.08785 1.4552082,1.4552082 0 0 1 -0.1240234,0.075964 1.4552082,1.4552082 0 0 1 -0.1307415,0.063562 1.4552082,1.4552082 0 0 1 -0.1369425,0.049609 1.4552082,1.4552082 0 0 1 -0.1410766,0.036174 1.4552082,1.4552082 0 0 1 -0.1436606,0.021704 1.4552082,1.4552082 0 0 1 -0.1452102,0.00723 1.4552082,1.4552082 0 0 1 -0.018087,0 1.4552082,1.4552082 0 0 1 -0.145211,-0.0093 A 1.4552082,1.4552082 0 0 1 7.4987668,4.729427 1.4552082,1.4552082 0 0 1 7.3582069,4.6917033 1.4552082,1.4552082 0 0 1 7.2222978,4.6400267 1.4552082,1.4552082 0 0 1 7.0920733,4.5749146 2.2489583,2.2489583 0 0 1 7.0889724,4.5888661 2.2489583,2.2489583 0 0 1 7.0290276,4.8053902 2.2489583,2.2489583 0 0 1 6.9478958,5.0151966 2.2489583,2.2489583 0 0 1 6.8460931,5.2157013 2.2489583,2.2489583 0 0 1 6.7251704,5.4048368 2.2489583,2.2489583 0 0 1 6.5856439,5.5810536 2.2489583,2.2489583 0 0 1 6.4290643,5.7428008 2.2489583,2.2489583 0 0 1 6.2574987,5.8880115 2.2489583,2.2489583 0 0 1 6.0719803,6.0151356 2.2489583,2.2489583 0 0 1 5.875093,6.1231393 2.2489583,2.2489583 0 0 1 5.6678705,6.2109892 2.2489583,2.2489583 0 0 1 5.4534133,6.2776517 2.6458332,2.6458332 0 0 1 5.3748651,6.5127795 2.6458332,2.6458332 0 0 1 5.2668614,6.7541086 2.6458332,2.6458332 0 0 1 5.1356032,6.9835518 2.6458332,2.6458332 0 0 1 4.9821242,7.1990425 2.6458332,2.6458332 0 0 1 4.8074579,7.397997 2.6458332,2.6458332 0 0 1 4.614188,7.5783476 2.6458332,2.6458332 0 0 1 4.4038649,7.7385446 2.6458332,2.6458332 0 0 1 4.1785558,7.8770373 2.6458332,2.6458332 0 0 1 3.9403274,7.9922758 2.6458332,2.6458332 0 0 1 3.6922805,8.0832263 2.6458332,2.6458332 0 0 1 3.4359654,8.1488554 2.6458332,2.6458332 0 0 1 3.1744827,8.1886464 2.6458332,2.6458332 0 0 1 2.9104166,8.2020832 2.6458332,2.6458332 0 0 1 2.723348,8.1953652 2.6458332,2.6458332 0 0 1 2.4608317,8.1638427 2.6458332,2.6458332 0 0 1 2.2153686,8.1085488 4.4979166,4.4979166 0 0 0 6.3499999,10.847917 4.4979166,4.4979166 0 0 0 10.847917,6.3499999 4.4979166,4.4979166 0 0 0 9.1916868,2.8675253 Z m 0.4656047,2.4241413 a 0.396875,0.396875 0 0 1 0.3968755,0.396875 0.396875,0.396875 0 0 1 -0.3968755,0.396875 0.396875,0.396875 0 0 1 -0.3968749,-0.396875 0.396875,0.396875 0 0 1 0.3968749,-0.396875 z m -1.8520833,1.5875 a 0.396875,0.396875 0 0 1 0.396875,0.396875 0.396875,0.396875 0 0 1 -0.396875,0.396875 0.396875,0.396875 0 0 1 -0.396875,-0.396875 0.396875,0.396875 0 0 1 0.396875,-0.396875 z M 6.0854166,7.1437499 A 0.26458332,0.26458332 0 0 1 6.3499999,7.4083332 0.26458332,0.26458332 0 0 1 6.0854166,7.6729166 0.26458332,0.26458332 0 0 1 5.8208333,7.4083332 0.26458332,0.26458332 0 0 1 6.0854166,7.1437499 Z m 3.7041666,0 A 0.26458332,0.26458332 0 0 1 10.054167,7.4083332 0.26458332,0.26458332 0 0 1 9.7895832,7.6729166 0.26458332,0.26458332 0 0 1 9.5249999,7.4083332 0.26458332,0.26458332 0 0 1 9.7895832,7.1437499 Z M 5.1593749,8.4666666 a 0.396875,0.396875 0 0 1 0.396875,0.396875 0.396875,0.396875 0 0 1 -0.396875,0.396875 0.396875,0.396875 0 0 1 -0.396875,-0.396875 0.396875,0.396875 0 0 1 0.396875,-0.396875 z m 2.38125,0.79375 A 0.396875,0.396875 0 0 1 7.9374999,9.6572915 0.396875,0.396875 0 0 1 7.5406249,10.054167 0.396875,0.396875 0 0 1 7.1437499,9.6572915 0.396875,0.396875 0 0 1 7.5406249,9.2604166 Z M 5.5562499,9.7895832 A 0.26458332,0.26458332 0 0 1 5.8208333,10.054167 0.26458332,0.26458332 0 0 1 5.5562499,10.31875 0.26458332,0.26458332 0 0 1 5.2916666,10.054167 0.26458332,0.26458332 0 0 1 5.5562499,9.7895832 Z"
     id="path831" />
</svg>
