<?xml version="1.0" encoding="UTF-8" standalone="no"?>
<svg
   width="48"
   height="48"
   viewBox="0 0 12.7 12.7"
   version="1.1"
   id="svg4"
   sodipodi:docname="preferences-desktop-keyboard.svg"
   inkscape:version="0.92.5 (2060ec1f9f, 2020-04-08)"
   xmlns:inkscape="http://www.inkscape.org/namespaces/inkscape"
   xmlns:sodipodi="http://sodipodi.sourceforge.net/DTD/sodipodi-0.dtd"
   xmlns="http://www.w3.org/2000/svg"
   xmlns:svg="http://www.w3.org/2000/svg">
  <sodipodi:namedview
     id="namedview1"
     pagecolor="#505050"
     bordercolor="#eeeeee"
     borderopacity="1"
     inkscape:showpageshadow="0"
     inkscape:pageopacity="0"
     inkscape:pagecheckerboard="0"
     inkscape:deskcolor="#d1d1d1" />
  <defs
     id="defs8">
    <style
       id="current-color-scheme"
       type="text/css">&#10;      .ColorScheme-Highlight {&#10;        color:#1e3f5a;&#10;      }&#10;  </style>
  </defs>
  <path
     class="ColorScheme-Highlight"
     style="fill:#bde6fb;fill-opacity:1;stroke-width:0.264583"
     d="M 6.3499999,0 A 6.3499999,6.3499999 0 0 0 0,6.3499999 6.3499999,6.3499999 0 0 0 6.3499999,12.7 6.3499999,6.3499999 0 0 0 12.7,6.3499999 6.3499999,6.3499999 0 0 0 6.3499999,0 Z m 0,0.79374999 A 5.5562499,5.5562499 0 0 1 11.90625,6.3499999 5.5562499,5.5562499 0 0 1 6.3499999,11.90625 5.5562499,5.5562499 0 0 1 0.79374999,6.3499999 5.5562499,5.5562499 0 0 1 6.3499999,0.79374999 Z M 3.7041666,2.6458333 c -0.4397375,0 -0.79375,0.3540125 -0.79375,0.79375 v 5.2916666 c 0,0.4397375 0.3540125,0.79375 0.79375,0.79375 h 5.2916666 c 0.4397375,0 0.79375,-0.3540125 0.79375,-0.79375 V 3.4395833 c 0,-0.4397375 -0.3540125,-0.79375 -0.79375,-0.79375 z m 0,0.5291667 h 5.2916666 c 0.1465789,0 0.2645834,0.1180041 0.2645834,0.2645833 v 4.7624999 c 0,0.1465792 -0.1180045,0.2645834 -0.2645834,0.2645834 H 3.7041666 c -0.1465789,0 -0.2645833,-0.1180042 -0.2645833,-0.2645834 V 3.4395833 C 3.4395833,3.2930041 3.5575877,3.175 3.7041666,3.175 Z m 3.372404,1.8334799 c -0.3799999,0 -0.7598283,0.1200031 -1.1198283,0.3700031 L 6.1469116,5.7986125 C 6.2969092,5.6986124 6.4466789,5.6186524 6.5866779,5.5686523 c 0.1500002,-0.06 0.2799503,-0.080098 0.4299479,-0.080098 0.2200011,0 0.4002286,0.050015 0.5002279,0.1700154 0.1300004,0.11 0.2201415,0.2697385 0.2201418,0.4697386 V 6.2781698 A 2.25,2.25 0 0 0 7.3566569,6.1882527 1.97,1.97 0 0 0 6.9768351,6.1582805 c -0.1799987,0 -0.330074,0.019944 -0.480074,0.059945 A 1.27,1.27 0 0 0 6.1169393,6.4083943 0.81999999,0.81999999 0 0 0 5.8869791,6.6781452 0.89000001,0.89000001 0 0 0 5.8668258,7.4383055 c 0.050001,0.1000001 0.099834,0.2002679 0.1798341,0.2702679 0.099999,0.08 0.2000607,0.1396524 0.3100586,0.1896523 A 1.33,1.33 0 0 0 7.3266844,7.8382812 C 7.5066831,7.7382811 7.6666057,7.6186407 7.7866049,7.4486409 l 0.010335,0.1694987 a 0.35999999,0.35999999 0 0 0 0.1100714,0.2201416 c 0.059999,0.05 0.149932,0.079917 0.2599325,0.089917 h 0.1400429 c 0.049998,0 0.09968,3.704e-4 0.1596803,-0.019637 v -0.500228 c -0.069998,0 -0.1498357,-0.020127 -0.1798342,-0.050126 A 0.24,0.24 0 0 1 8.2268879,7.2083455 v -1.050065 c 0,-0.3700003 -0.039931,-0.6497421 -0.2599325,-0.8397423 C 7.7669569,5.1185386 7.4665691,5.0084799 7.0765706,5.0084799 Z m -0.039791,1.5001666 c 0.099999,0 0.2997962,0.02961 0.409794,0.049609 L 7.7468138,6.658508 v 0.359668 c 0,0.07 -0.070042,0.1501415 -0.1400432,0.2201415 -0.2099998,0.1899999 -0.4700333,0.2099601 -0.7100342,0.22996 -0.1600015,0 -0.3599209,-9.87e-5 -0.4599202,-0.080098 A 0.46,0.46 0 0 1 6.2668009,7.0383299 c 0,-0.15 0.1500883,-0.2800033 0.2800863,-0.3700032 A 0.81999999,0.81999999 0 0 1 7.0367797,6.5184652 Z"
     id="rect820" />
</svg>
