<?xml version="1.0" encoding="UTF-8" standalone="no"?>
<svg
   width="48"
   height="48"
   viewBox="0 0 12.7 12.7"
   version="1.1"
   id="svg4"
   sodipodi:docname="preferences-system-network-server.svg"
   inkscape:version="0.92.5 (2060ec1f9f, 2020-04-08)"
   xmlns:inkscape="http://www.inkscape.org/namespaces/inkscape"
   xmlns:sodipodi="http://sodipodi.sourceforge.net/DTD/sodipodi-0.dtd"
   xmlns="http://www.w3.org/2000/svg"
   xmlns:svg="http://www.w3.org/2000/svg">
  <sodipodi:namedview
     id="namedview1"
     pagecolor="#505050"
     bordercolor="#eeeeee"
     borderopacity="1"
     inkscape:showpageshadow="0"
     inkscape:pageopacity="0"
     inkscape:pagecheckerboard="0"
     inkscape:deskcolor="#d1d1d1" />
  <defs
     id="defs8">
    <style
       id="current-color-scheme"
       type="text/css">&#10;      .ColorScheme-Highlight {&#10;        color:#1e3f5a;&#10;      }&#10;  </style>
  </defs>
  <path
     class="ColorScheme-Highlight"
     style="fill:#bde6fb;fill-opacity:1;stroke-width:0.264583"
     d="M 6.3499999,0 A 6.3499999,6.3499999 0 0 0 0,6.3499999 6.3499999,6.3499999 0 0 0 6.3499999,12.7 6.3499999,6.3499999 0 0 0 12.7,6.3499999 6.3499999,6.3499999 0 0 0 6.3499999,0 Z m 0,0.79374999 a 5.5562499,5.5562499 0 0 1 5.5562501,5.55624991 5.5562499,5.5562499 0 0 1 -0.998906,3.175 H 7.6729166 V 8.9958332 h -0.79375 V 8.4666666 h 1.5875 c 0.1465791,0 0.2645833,-0.1180042 0.2645833,-0.2645834 V 2.38125 c 0,-0.1465792 -0.1180042,-0.2645834 -0.2645833,-0.2645834 H 4.2333333 C 4.0867541,2.1166666 3.96875,2.2346708 3.96875,2.38125 v 5.8208332 c 0,0.1465792 0.1180041,0.2645834 0.2645833,0.2645834 h 1.5875 v 0.5291666 h -0.79375 V 9.5249999 H 1.7983398 A 5.5562499,5.5562499 0 0 1 0.79374999,6.3499999 5.5562499,5.5562499 0 0 1 6.3499999,0.79374999 Z M 4.4979166,2.6458333 H 8.2020832 V 7.9374999 H 4.4979166 Z M 4.7624999,2.9104166 V 3.96875 h 3.175 V 2.9104166 Z m 0,1.8520833 v 1.0583334 h 3.175 V 4.7624999 Z m 0,1.8520834 v 1.0583333 h 3.175 V 6.6145833 Z M 2.2174357,10.054167 h 2.8096476 v 0.79375 h 2.6458333 v -0.79375 H 10.483598 A 5.5562499,5.5562499 0 0 1 6.3499999,11.90625 5.5562499,5.5562499 0 0 1 2.2174357,10.054167 Z"
     id="path831" />
</svg>
