<?xml version="1.0" encoding="UTF-8" standalone="no"?>
<svg
   width="48"
   height="48"
   viewBox="0 0 12.7 12.7"
   version="1.1"
   id="svg4"
   sodipodi:docname="preferences-system-network-server-dns.svg"
   inkscape:version="0.92.5 (2060ec1f9f, 2020-04-08)"
   xmlns:inkscape="http://www.inkscape.org/namespaces/inkscape"
   xmlns:sodipodi="http://sodipodi.sourceforge.net/DTD/sodipodi-0.dtd"
   xmlns="http://www.w3.org/2000/svg"
   xmlns:svg="http://www.w3.org/2000/svg">
  <sodipodi:namedview
     id="namedview1"
     pagecolor="#505050"
     bordercolor="#eeeeee"
     borderopacity="1"
     inkscape:showpageshadow="0"
     inkscape:pageopacity="0"
     inkscape:pagecheckerboard="0"
     inkscape:deskcolor="#d1d1d1" />
  <defs
     id="defs8">
    <style
       id="current-color-scheme"
       type="text/css">&#10;      .ColorScheme-Highlight {&#10;        color:#1e3f5a;&#10;      }&#10;  </style>
  </defs>
  <path
     class="ColorScheme-Highlight"
     style="fill:#bde6fb;fill-opacity:1;stroke-width:0.264583"
     d="M 6.3499999,0 A 6.3499999,6.3499999 0 0 0 0,6.3499999 6.3499999,6.3499999 0 0 0 6.3499999,12.7 6.3499999,6.3499999 0 0 0 7.6729166,12.55789 V 11.744503 A 5.5562499,5.5562499 0 0 1 6.3499999,11.90625 5.5562499,5.5562499 0 0 1 2.2174357,10.054167 h 2.8096476 v 0.79375 H 7.6729166 V 10.054167 9.5249999 8.9958332 h -0.79375 V 8.4666666 h 0.79375 V 7.941634 c 0,-0.00159 0.00153,-0.00254 0.00156,-0.00414 h -3.17656 V 2.6458333 H 8.2020832 V 7.6729166 H 8.7312499 V 2.38125 c 0,-0.1465792 -0.1180042,-0.2645834 -0.2645833,-0.2645834 H 4.2333333 C 4.0867541,2.1166666 3.96875,2.2346708 3.96875,2.38125 v 5.8208332 c 0,0.1465792 0.1180041,0.2645834 0.2645833,0.2645834 h 1.5875 v 0.5291666 h -0.79375 V 9.5249999 H 1.7983398 A 5.5562499,5.5562499 0 0 1 0.79374999,6.3499999 5.5562499,5.5562499 0 0 1 6.3499999,0.79374999 5.5562499,5.5562499 0 0 1 11.90625,6.3499999 5.5562499,5.5562499 0 0 1 11.738818,7.6729166 h 0.813904 A 6.3499999,6.3499999 0 0 0 12.7,6.3499999 6.3499999,6.3499999 0 0 0 6.3499999,0 Z m -1.5875,2.9104166 V 3.96875 h 3.175 V 2.9104166 Z m 0,1.8520833 v 1.0583334 h 3.175 V 4.7624999 Z m 0,1.8520834 v 1.0583333 h 3.175 V 6.6145833 Z m 3.7041667,1.5874999 c -0.1465792,0 -0.2645834,0.1180042 -0.2645834,0.2645834 v 3.9687504 c 0,0.146579 0.1180042,0.264583 0.2645834,0.264583 H 12.435417 C 12.581996,12.7 12.7,12.581996 12.7,12.435417 V 8.4666666 c 0,-0.1465792 -0.118004,-0.2645834 -0.264583,-0.2645834 z m 2.0577554,0.4676717 c 0.292144,0 0.563618,0.060634 0.814421,0.181901 0.250802,0.1185114 0.461642,0.2880101 0.632519,0.5084961 0.101975,0.1350479 0.179145,0.2824978 0.231511,0.4423503 0.05512,0.1570963 0.08268,0.3197047 0.08268,0.4878257 0,0.363802 -0.108865,0.650434 -0.326595,0.859896 -0.21773,0.209462 -0.519521,0.318326 -0.905371,0.326595 v -0.318327 c -0.08268,0.104731 -0.177767,0.183279 -0.285254,0.235644 -0.107487,0.04961 -0.232889,0.07441 -0.376205,0.07441 -0.237022,0 -0.4299474,-0.08544 -0.5787756,-0.256315 -0.1460722,-0.173632 -0.219108,-0.398253 -0.219108,-0.67386 0,-0.275608 0.074414,-0.49885 0.2232421,-0.6697269 C 9.9663167,9.6977715 10.157864,9.612333 10.39213,9.612333 c 0.143316,0 0.268718,0.026183 0.376205,0.078548 0.107487,0.049609 0.202572,0.1267796 0.285254,0.2315104 V 9.6536742 h 0.293522 v 1.5213538 c 0.201193,-0.03307 0.35829,-0.125401 0.471289,-0.276985 0.112999,-0.154341 0.169499,-0.354156 0.169499,-0.599447 0,-0.146072 -0.02205,-0.283876 -0.06615,-0.4134114 -0.04134,-0.1295355 -0.106105,-0.2494248 -0.1943,-0.359668 C 11.584133,9.3463717 11.409123,9.2085677 11.202417,9.1121052 10.998467,9.0156426 10.775225,8.9674111 10.53269,8.9674111 c -0.170877,0 -0.334863,0.022048 -0.491959,0.066146 C 9.8863903,9.0776543 9.7430745,9.1438001 9.6107828,9.2319945 9.3930527,9.3753105 9.223554,9.5613457 9.1022867,9.7900999 8.9810192,10.016098 8.9203857,10.262767 8.9203857,10.530106 c 0,0.217731 0.039963,0.423058 0.1198893,0.615984 0.079926,0.190169 0.1943034,0.35829 0.3431315,0.504361 0.1433158,0.143317 0.3100586,0.252181 0.5002279,0.326596 0.1901696,0.07717 0.3941186,0.115755 0.6118486,0.115755 0.179145,0 0.354156,-0.03032 0.525033,-0.09095 0.170877,-0.06063 0.327973,-0.146072 0.471289,-0.256315 l 0.186035,0.227376 c -0.173633,0.135048 -0.362424,0.237023 -0.566374,0.305925 -0.201193,0.07166 -0.406521,0.107487 -0.615983,0.107487 -0.256315,0 -0.4974716,-0.04547 -0.7234697,-0.136426 C 9.5460149,12.161704 9.3448213,12.03079 9.1684326,11.857157 8.9920436,11.683524 8.858374,11.483709 8.7674235,11.257711 8.6764729,11.031713 8.6309977,10.789178 8.6309977,10.530106 c 0,-0.253558 0.046853,-0.493337 0.1405599,-0.7193355 C 8.865264,9.5847724 8.9975557,9.3849567 9.1684326,9.2113239 9.3475774,9.0376911 9.5529052,8.9040215 9.7844156,8.8103148 10.018682,8.7166081 10.265351,8.6697549 10.524422,8.6697549 Z m -0.05374,1.2402344 c -0.168121,0 -0.301791,0.0565 -0.401009,0.1694987 -0.096463,0.112999 -0.1446945,0.265961 -0.1446945,0.458887 0,0.198437 0.048231,0.354156 0.1446945,0.467155 0.09922,0.112999 0.234266,0.169498 0.405143,0.169498 0.170876,0 0.304546,-0.0565 0.401009,-0.169498 0.09646,-0.112999 0.144694,-0.268718 0.144694,-0.467155 0,-0.192926 -0.04961,-0.345888 -0.148828,-0.458887 -0.09922,-0.1129991 -0.232889,-0.1694987 -0.401009,-0.1694987 z"
     id="path870" />
</svg>
