<?xml version="1.0" encoding="UTF-8" standalone="no"?>
<svg
   width="48"
   height="48"
   viewBox="0 0 12.7 12.7"
   version="1.1"
   id="svg4"
   sodipodi:docname="preferences-desktop-sound.svg"
   inkscape:version="0.92.5 (2060ec1f9f, 2020-04-08)"
   xmlns:inkscape="http://www.inkscape.org/namespaces/inkscape"
   xmlns:sodipodi="http://sodipodi.sourceforge.net/DTD/sodipodi-0.dtd"
   xmlns="http://www.w3.org/2000/svg"
   xmlns:svg="http://www.w3.org/2000/svg">
  <sodipodi:namedview
     id="namedview1"
     pagecolor="#505050"
     bordercolor="#eeeeee"
     borderopacity="1"
     inkscape:showpageshadow="0"
     inkscape:pageopacity="0"
     inkscape:pagecheckerboard="0"
     inkscape:deskcolor="#d1d1d1" />
  <defs
     id="defs8">
    <style
       id="current-color-scheme"
       type="text/css">&#10;      .ColorScheme-Highlight {&#10;        color:#1e3f5a;&#10;      }&#10;  </style>
  </defs>
  <path
     class="ColorScheme-Highlight"
     style="fill:#bde6fb;fill-opacity:1;stroke-width:0.264583"
     d="M 6.3499999,0 A 6.3499999,6.3499999 0 0 0 0,6.3499999 6.3499999,6.3499999 0 0 0 6.3499999,12.7 6.3499999,6.3499999 0 0 0 12.7,6.3499999 6.3499999,6.3499999 0 0 0 6.3499999,0 Z m 0,0.79374999 A 5.5562499,5.5562499 0 0 1 11.90625,6.3499999 5.5562499,5.5562499 0 0 1 6.3499999,11.90625 5.5562499,5.5562499 0 0 1 0.79374999,6.3499999 5.5562499,5.5562499 0 0 1 6.3499999,0.79374999 Z m 0,1.32291661 A 4.233333,4.233333 0 0 0 2.1166666,6.3499999 4.233333,4.233333 0 0 0 6.3499999,10.583333 Z m 0.79375,0.1147217 V 2.7770915 A 3.5718747,3.7041666 0 0 1 9.7895832,6.3499999 3.5718747,3.7041666 0 0 1 7.1437499,9.926009 v 0.543636 A 4.1010416,4.233333 0 0 0 10.31875,6.3499999 4.1010416,4.233333 0 0 0 7.1437499,2.2313883 Z m 0,1.0981241 v 0.5632733 a 2.5135416,2.6458332 0 0 1 1.5875,2.4572142 2.5135416,2.6458332 0 0 1 -1.5875,2.4587647 V 9.3730711 A 3.0427083,3.175 0 0 0 9.2604166,6.3499999 3.0427083,3.175 0 0 0 7.1437499,3.3295124 Z m 0,1.1498008 V 5.126302 A 1.4552082,1.5874999 0 0 1 7.6729166,6.3499999 1.4552082,1.5874999 0 0 1 7.1437499,7.5726644 V 8.2206866 A 1.9843749,2.1166665 0 0 0 8.2020832,6.3499999 1.9843749,2.1166665 0 0 0 7.1437499,4.4793132 Z"
     id="path831" />
</svg>
