<?xml version="1.0" encoding="UTF-8" standalone="no"?>
<svg
   width="48"
   height="48"
   viewBox="0 0 12.7 12.7"
   version="1.1"
   id="svg4"
   sodipodi:docname="preferences-plugin.svg"
   inkscape:version="0.92.5 (2060ec1f9f, 2020-04-08)"
   xmlns:inkscape="http://www.inkscape.org/namespaces/inkscape"
   xmlns:sodipodi="http://sodipodi.sourceforge.net/DTD/sodipodi-0.dtd"
   xmlns="http://www.w3.org/2000/svg"
   xmlns:svg="http://www.w3.org/2000/svg">
  <sodipodi:namedview
     id="namedview1"
     pagecolor="#505050"
     bordercolor="#eeeeee"
     borderopacity="1"
     inkscape:showpageshadow="0"
     inkscape:pageopacity="0"
     inkscape:pagecheckerboard="0"
     inkscape:deskcolor="#d1d1d1" />
  <defs
     id="defs8">
    <style
       id="current-color-scheme"
       type="text/css">&#10;      .ColorScheme-Highlight {&#10;        color:#1e3f5a;&#10;      }&#10;  </style>
  </defs>
  <path
     class="ColorScheme-Highlight"
     style="fill:#bde6fb;fill-opacity:1;stroke-width:0.264583"
     d="M 6.3499999,0 A 6.3499999,6.3499999 0 0 0 0,6.3499999 6.3499999,6.3499999 0 0 0 6.3499999,12.7 6.3499999,6.3499999 0 0 0 12.7,6.3499999 6.3499999,6.3499999 0 0 0 6.3499999,0 Z m 0,0.79374999 A 5.5562499,5.5562499 0 0 1 11.90625,6.3499999 5.5562499,5.5562499 0 0 1 6.3499999,11.90625 5.5562499,5.5562499 0 0 1 0.79374999,6.3499999 5.5562499,5.5562499 0 0 1 6.3499999,0.79374999 Z M 5.9531249,1.3229167 A 1.1906249,1.1906249 0 0 0 4.7624999,2.5135416 1.1906249,1.1906249 0 0 0 5.2064004,3.4395833 H 3.4395833 c -0.439738,0 -0.79375,0.3540125 -0.79375,0.79375 v 1.7657836 a 1.1906249,1.1906249 0 0 1 0.07183,-0.081649 1.1906249,1.1906249 0 0 1 0.087333,-0.081132 1.1906249,1.1906249 0 0 1 0.094568,-0.072347 1.1906249,1.1906249 0 0 1 0.1012859,-0.062012 1.1906249,1.1906249 0 0 1 0.107487,-0.051676 1.1906249,1.1906249 0 0 1 0.1116211,-0.040824 1.1906249,1.1906249 0 0 1 0.1152385,-0.029456 1.1906249,1.1906249 0 0 1 0.1178221,-0.017571 1.1906249,1.1906249 0 0 1 0.1188559,-0.0062 1.1906249,1.1906249 0 0 1 0.084232,0.0031 1.1906249,1.1906249 0 0 1 0.1183392,0.01447 1.1906249,1.1906249 0 0 1 0.1157552,0.025839 1.1906249,1.1906249 0 0 1 0.1131713,0.037724 1.1906249,1.1906249 0 0 1 0.1085207,0.048576 1.1906249,1.1906249 0 0 1 0.1033528,0.058911 1.1906249,1.1906249 0 0 1 0.096635,0.069246 1.1906249,1.1906249 0 0 1 0.0894,0.078548 1.1906249,1.1906249 0 0 1 0.081132,0.087333 1.1906249,1.1906249 0 0 1 0.072347,0.094568 1.1906249,1.1906249 0 0 1 0.062012,0.1012859 1.1906249,1.1906249 0 0 1 0.051676,0.107487 1.1906249,1.1906249 0 0 1 0.040824,0.1116211 1.1906249,1.1906249 0 0 1 0.029456,0.1152384 1.1906249,1.1906249 0 0 1 0.017571,0.1178222 1.1906249,1.1906249 0 0 1 0.0062,0.1188537 1.1906249,1.1906249 0 0 1 -0.0031,0.084232 A 1.1906249,1.1906249 0 0 1 4.744929,6.9494443 1.1906249,1.1906249 0 0 1 4.71909,7.0651995 1.1906249,1.1906249 0 0 1 4.681366,7.1783708 1.1906249,1.1906249 0 0 1 4.63279,7.2868915 1.1906249,1.1906249 0 0 1 4.573879,7.3902444 a 1.1906249,1.1906249 0 0 1 -0.069246,0.096635 1.1906249,1.1906249 0 0 1 -0.078548,0.0894 1.1906249,1.1906249 0 0 1 -0.087333,0.081132 1.1906249,1.1906249 0 0 1 -0.094568,0.072347 1.1906249,1.1906249 0 0 1 -0.1012859,0.062012 1.1906249,1.1906249 0 0 1 -0.107487,0.051676 1.1906249,1.1906249 0 0 1 -0.1116211,0.040824 1.1906249,1.1906249 0 0 1 -0.1152385,0.029456 1.1906249,1.1906249 0 0 1 -0.1178221,0.017571 1.1906249,1.1906249 0 0 1 -0.1188537,0.0062 1.1906249,1.1906249 0 0 1 -0.084232,-0.0031 A 1.1906249,1.1906249 0 0 1 3.3693033,7.9199289 1.1906249,1.1906249 0 0 1 3.2535481,7.8940897 1.1906249,1.1906249 0 0 1 3.1403769,7.8563657 1.1906249,1.1906249 0 0 1 3.0318561,7.80779 1.1906249,1.1906249 0 0 1 2.9285033,7.7488787 a 1.1906249,1.1906249 0 0 1 -0.096635,-0.069246 1.1906249,1.1906249 0 0 1 -0.0894,-0.078548 1.1906249,1.1906249 0 0 1 -0.081132,-0.087333 1.1906249,1.1906249 0 0 1 -0.015503,-0.020152 v 1.7668171 c 0,0.4397374 0.354012,0.7937502 0.79375,0.7937502 h 1.7657836 a 1.1906249,1.1906249 0 0 1 -0.081649,-0.071831 1.1906249,1.1906249 0 0 1 -0.081132,-0.087333 1.1906249,1.1906249 0 0 1 -0.072347,-0.094568 1.1906249,1.1906249 0 0 1 -0.062012,-0.101286 1.1906249,1.1906249 0 0 1 -0.051676,-0.107487 1.1906249,1.1906249 0 0 1 -0.040824,-0.111621 1.1906249,1.1906249 0 0 1 -0.029456,-0.1152385 1.1906249,1.1906249 0 0 1 -0.017571,-0.1178222 1.1906249,1.1906249 0 0 1 -0.0062,-0.1188558 1.1906249,1.1906249 0 0 1 0.0031,-0.084232 1.1906249,1.1906249 0 0 1 0.01447,-0.1183391 1.1906249,1.1906249 0 0 1 0.025839,-0.1157552 1.1906249,1.1906249 0 0 1 0.037724,-0.1131713 1.1906249,1.1906249 0 0 1 0.048576,-0.1085207 1.1906249,1.1906249 0 0 1 0.058911,-0.1033529 1.1906249,1.1906249 0 0 1 0.069246,-0.096635 1.1906249,1.1906249 0 0 1 0.078548,-0.0894 1.1906249,1.1906249 0 0 1 0.087333,-0.081132 1.1906249,1.1906249 0 0 1 0.094568,-0.072347 1.1906249,1.1906249 0 0 1 0.1012859,-0.062012 1.1906249,1.1906249 0 0 1 0.107487,-0.051676 1.1906249,1.1906249 0 0 1 0.1116211,-0.040824 1.1906249,1.1906249 0 0 1 0.1152385,-0.029456 1.1906249,1.1906249 0 0 1 0.1178221,-0.017571 1.1906249,1.1906249 0 0 1 0.1188537,-0.0062 1.1906249,1.1906249 0 0 1 0.084233,0.0031 1.1906249,1.1906249 0 0 1 0.1183391,0.01447 1.1906249,1.1906249 0 0 1 0.1157552,0.025839 1.1906249,1.1906249 0 0 1 0.1131713,0.037724 1.1906249,1.1906249 0 0 1 0.1085207,0.048576 1.1906249,1.1906249 0 0 1 0.1033529,0.058911 1.1906249,1.1906249 0 0 1 0.096635,0.069246 1.1906249,1.1906249 0 0 1 0.0894,0.078548 1.1906249,1.1906249 0 0 1 0.081132,0.087333 1.1906249,1.1906249 0 0 1 0.072347,0.094568 1.1906249,1.1906249 0 0 1 0.062012,0.101286 1.1906249,1.1906249 0 0 1 0.051676,0.1074869 1.1906249,1.1906249 0 0 1 0.040824,0.1116211 1.1906249,1.1906249 0 0 1 0.029456,0.1152385 1.1906249,1.1906249 0 0 1 0.017571,0.1178221 1.1906249,1.1906249 0 0 1 0.0062,0.1188538 1.1906249,1.1906249 0 0 1 -0.0031,0.084233 1.1906249,1.1906249 0 0 1 -0.01447,0.1183391 1.1906249,1.1906249 0 0 1 -0.025839,0.1157552 1.1906249,1.1906249 0 0 1 -0.037724,0.1131713 1.1906249,1.1906249 0 0 1 -0.048576,0.1085207 1.1906249,1.1906249 0 0 1 -0.058911,0.1033529 1.1906249,1.1906249 0 0 1 -0.069246,0.096635 1.1906249,1.1906249 0 0 1 -0.078548,0.0894 1.1906249,1.1906249 0 0 1 -0.087333,0.081132 1.1906249,1.1906249 0 0 1 -0.020152,0.0155 h 1.7668171 c 0.4397369,0 0.79375,-0.3540129 0.79375,-0.7937503 V 7.4946329 a 1.1906249,1.1906249 0 0 0 0.9260415,0.442867 1.1906249,1.1906249 0 0 0 1.190625,-1.190625 1.1906249,1.1906249 0 0 0 -1.190625,-1.190625 1.1906249,1.1906249 0 0 0 -0.9260415,0.4439005 V 4.2333333 c 0,-0.4397375 -0.3540131,-0.79375 -0.79375,-0.79375 H 6.7008829 A 1.1906249,1.1906249 0 0 0 7.1437499,2.5135416 1.1906249,1.1906249 0 0 0 5.9531249,1.3229167 Z"
     id="path831" />
</svg>
