<?xml version="1.0" encoding="UTF-8" standalone="no"?>
<svg
   width="48"
   height="48"
   viewBox="0 0 12.7 12.7"
   version="1.1"
   id="svg4"
   sodipodi:docname="preferences-system.svg"
   inkscape:version="0.92.5 (2060ec1f9f, 2020-04-08)"
   xmlns:inkscape="http://www.inkscape.org/namespaces/inkscape"
   xmlns:sodipodi="http://sodipodi.sourceforge.net/DTD/sodipodi-0.dtd"
   xmlns="http://www.w3.org/2000/svg"
   xmlns:svg="http://www.w3.org/2000/svg">
  <sodipodi:namedview
     id="namedview1"
     pagecolor="#505050"
     bordercolor="#eeeeee"
     borderopacity="1"
     inkscape:showpageshadow="0"
     inkscape:pageopacity="0"
     inkscape:pagecheckerboard="0"
     inkscape:deskcolor="#d1d1d1" />
  <defs
     id="defs8">
    <style
       id="current-color-scheme"
       type="text/css">&#10;      .ColorScheme-Highlight {&#10;        color:#1e3f5a;&#10;      }&#10;  </style>
  </defs>
  <path
     class="ColorScheme-Highlight"
     style="fill:#bde6fb;fill-opacity:1;stroke-width:0.264583"
     d="M 6.3499999,0 A 6.3499999,6.3499999 0 0 0 0,6.3499999 6.3499999,6.3499999 0 0 0 6.3499999,12.7 6.3499999,6.3499999 0 0 0 12.7,6.3499999 6.3499999,6.3499999 0 0 0 6.3499999,0 Z m 0,0.79374999 A 5.5562499,5.5562499 0 0 1 11.90625,6.3499999 5.5562499,5.5562499 0 0 1 6.3499999,11.90625 5.5562499,5.5562499 0 0 1 0.79374999,6.3499999 5.5562499,5.5562499 0 0 1 6.3499999,0.79374999 Z M 8.7560546,2.4143229 A 1.5874999,1.5874999 0 0 0 7.6098714,2.8778604 1.5874999,1.5874999 0 0 0 7.2052449,4.4302206 L 6.6207846,5.0146809 6.7882161,5.1821127 c 0.1554707,0.15547 0.2776582,0.3294811 0.3648355,0.5110797 0.087178,0.1815989 0.1396714,0.3705657 0.1565796,0.5565553 0.011314,0.1244645 -0.017349,0.2413617 -0.03824,0.359668 l 0.12299,-0.12299 0.9487792,-0.9492961 A 1.5874999,1.5874999 0 0 0 9.8552123,5.1226846 1.5874999,1.5874999 0 0 0 10.26449,3.5909953 L 9.3312132,4.5242715 C 9.2172022,4.6382836 9.0686608,4.6953206 8.919869,4.6953206 c -0.1487911,0 -0.2973324,-0.057037 -0.4113446,-0.1710491 L 8.2088013,4.2245483 C 8.094792,4.1105365 8.0377521,3.9619954 8.0377521,3.8132038 c 0,-0.1487916 0.057038,-0.2973324 0.1710492,-0.4113443 L 9.1420774,2.4680664 a 1.5874999,1.5874999 0 0 0 -0.3855061,-0.053743 1.5874999,1.5874999 0 0 1 -5.292e-4,0 z M 3.7305215,3.2008381 c -0.2028976,0 -0.4057354,0.07759 -0.5612058,0.2330609 -0.3109416,0.3109412 -0.3109416,0.8119874 0,1.1229287 L 5.4146566,6.8016519 C 5.659571,7.0465666 6.020995,7.0955161 6.3158935,6.9546141 l 2.091862,2.0923787 V 9.4211303 L 9.3436156,9.9823364 9.7177531,9.6081989 9.156547,8.6723388 H 8.7824095 L 6.6900308,6.5804769 C 6.8309328,6.2855784 6.7819833,5.9241544 6.5370685,5.6792399 L 4.2922443,3.433899 C 4.1367736,3.2784282 3.9334193,3.2008381 3.7305215,3.2008381 Z M 4.7500976,6.8853679 3.1884358,8.4465127 c -0.3109413,0.3109415 -0.3109413,0.811988 0,1.122929 0.3109412,0.310942 0.8119874,0.310942 1.1229289,0 L 6.27972,7.6010864 6.3448323,7.5359741 C 6.226526,7.5568656 6.1096289,7.5855295 5.9851644,7.5742146 5.7991747,7.557305 5.610208,7.5048125 5.4286091,7.4176349 5.2470105,7.3304576 5.0729993,7.2082701 4.9175294,7.0527994 Z m -1.0076905,1.593701 a 0.52916663,0.52916663 0 0 1 0.381889,0.1545124 0.52916663,0.52916663 0 0 1 0,0.7487918 0.52916663,0.52916663 0 0 1 -0.7487917,0 0.52916663,0.52916663 0 0 1 0,-0.7487918 0.52916663,0.52916663 0 0 1 0.3669027,-0.1545124 z"
     id="path842" />
</svg>
