<?xml version="1.0" encoding="UTF-8" standalone="no"?>
<svg
   width="48"
   height="48"
   viewBox="0 0 12.7 12.7"
   version="1.1"
   id="svg4"
   sodipodi:docname="preferences-desktop-peripherals.svg"
   inkscape:version="0.92.5 (2060ec1f9f, 2020-04-08)"
   xmlns:inkscape="http://www.inkscape.org/namespaces/inkscape"
   xmlns:sodipodi="http://sodipodi.sourceforge.net/DTD/sodipodi-0.dtd"
   xmlns="http://www.w3.org/2000/svg"
   xmlns:svg="http://www.w3.org/2000/svg">
  <sodipodi:namedview
     id="namedview1"
     pagecolor="#505050"
     bordercolor="#eeeeee"
     borderopacity="1"
     inkscape:showpageshadow="0"
     inkscape:pageopacity="0"
     inkscape:pagecheckerboard="0"
     inkscape:deskcolor="#d1d1d1" />
  <defs
     id="defs8">
    <style
       id="current-color-scheme"
       type="text/css">&#10;      .ColorScheme-Highlight {&#10;        color:#1e3f5a;&#10;      }&#10;  </style>
  </defs>
  <path
     class="ColorScheme-Highlight"
     style="fill:#bde6fb;fill-opacity:1;stroke-width:0.264583"
     d="M 6.3499999,0 A 6.3499999,6.3499999 0 0 0 0,6.3499999 6.3499999,6.3499999 0 0 0 6.3499999,12.7 6.3499999,6.3499999 0 0 0 12.7,6.3499999 6.3499999,6.3499999 0 0 0 6.3499999,0 Z m 0,0.79374999 a 5.5562499,5.5562499 0 0 1 0.5544881,0.0279053 5.5562499,5.5562499 0 0 1 0.5493205,0.0826823 5.5562499,5.5562499 0 0 1 0.5379516,0.13745931 5.5562499,5.5562499 0 0 1 0.5219319,0.190686 5.5562499,5.5562499 0 0 1 0.5002279,0.2413289 5.5562499,5.5562499 0 0 1 0.4733562,0.2904216 5.5562499,5.5562499 0 0 1 0.4423503,0.3358968 5.5562499,5.5562499 0 0 1 0.4061766,0.3787882 5.5562499,5.5562499 0 0 1 0.366386,0.4170287 5.5562499,5.5562499 0 0 1 0.322978,0.4521689 5.5562499,5.5562499 0 0 1 0.276469,0.4816242 5.5562499,5.5562499 0 0 1 0.226859,0.5069459 5.5562499,5.5562499 0 0 1 0.175183,0.5270995 5.5562499,5.5562499 0 0 1 0.121956,0.542086 5.5562499,5.5562499 0 0 1 0.06666,0.5508707 5.5562499,5.5562499 0 0 1 0.01395,0.3932576 5.5562499,5.5562499 0 0 1 -0.02791,0.5544881 5.5562499,5.5562499 0 0 1 -0.08268,0.5493205 A 5.5562499,5.5562499 0 0 1 11.658203,7.9917601 5.5562499,5.5562499 0 0 1 11.467517,8.513692 5.5562499,5.5562499 0 0 1 11.226188,9.0139199 5.5562499,5.5562499 0 0 1 10.935766,9.4872761 5.5562499,5.5562499 0 0 1 10.59987,9.9296264 5.5562499,5.5562499 0 0 1 10.221081,10.335803 5.5562499,5.5562499 0 0 1 9.8040527,10.702189 5.5562499,5.5562499 0 0 1 9.3518838,11.025167 5.5562499,5.5562499 0 0 1 8.8702596,11.301636 5.5562499,5.5562499 0 0 1 8.3633137,11.528495 5.5562499,5.5562499 0 0 1 7.8362142,11.703678 5.5562499,5.5562499 0 0 1 7.2941282,11.825634 5.5562499,5.5562499 0 0 1 6.7432575,11.892297 5.5562499,5.5562499 0 0 1 6.3499999,11.90625 5.5562499,5.5562499 0 0 1 5.7955118,11.878345 5.5562499,5.5562499 0 0 1 5.2461913,11.795662 5.5562499,5.5562499 0 0 1 4.7082397,11.658203 5.5562499,5.5562499 0 0 1 4.1863078,11.467517 5.5562499,5.5562499 0 0 1 3.68608,11.226188 5.5562499,5.5562499 0 0 1 3.2127237,10.935766 5.5562499,5.5562499 0 0 1 2.7703735,10.59987 5.5562499,5.5562499 0 0 1 2.3641968,10.221081 5.5562499,5.5562499 0 0 1 1.9978108,9.8040527 5.5562499,5.5562499 0 0 1 1.6748331,9.3518838 5.5562499,5.5562499 0 0 1 1.3983642,8.8702596 5.5562499,5.5562499 0 0 1 1.1715047,8.3633137 5.5562499,5.5562499 0 0 1 0.9963216,7.8362142 5.5562499,5.5562499 0 0 1 0.87436522,7.2941282 5.5562499,5.5562499 0 0 1 0.80770263,6.7432575 5.5562499,5.5562499 0 0 1 0.79374999,6.3499999 5.5562499,5.5562499 0 0 1 0.82165528,5.7955118 5.5562499,5.5562499 0 0 1 0.90433757,5.2461913 5.5562499,5.5562499 0 0 1 1.0417969,4.7082397 5.5562499,5.5562499 0 0 1 1.2324829,4.1863078 5.5562499,5.5562499 0 0 1 1.4738118,3.68608 5.5562499,5.5562499 0 0 1 1.7642334,3.2127237 5.5562499,5.5562499 0 0 1 2.1001302,2.7703735 5.5562499,5.5562499 0 0 1 2.4789184,2.3641968 5.5562499,5.5562499 0 0 1 2.8959471,1.9978108 5.5562499,5.5562499 0 0 1 3.348116,1.6748331 5.5562499,5.5562499 0 0 1 3.8297402,1.3983642 5.5562499,5.5562499 0 0 1 4.3366861,1.1715047 5.5562499,5.5562499 0 0 1 4.8637856,0.9963216 5.5562499,5.5562499 0 0 1 5.4058716,0.87436522 5.5562499,5.5562499 0 0 1 5.9567423,0.80770263 5.5562499,5.5562499 0 0 1 6.3499999,0.79374999 Z M 3.175,3.175 c -0.4397375,0 -0.79375,0.3540125 -0.79375,0.79375 v 4.7624999 c 0,0.4397375 0.3540125,0.79375 0.79375,0.79375 h 2.9104166 0.661975 C 7.1087815,10.006757 7.683112,10.31875 8.3343749,10.31875 c 1.099344,0 1.9843751,-0.8850311 1.9843751,-1.9843751 V 7.4083332 h -2.3812501 -1.5875 v 0.9260417 c 0,0.2326172 0.041825,0.4543861 0.1147218,0.6614583 H 3.175 c -0.07329,0 -0.1392455,-0.029691 -0.1870687,-0.077515 -0.047823,-0.047823 -0.077515,-0.113779 -0.077515,-0.1870686 V 3.96875 c 0,-0.07329 0.029691,-0.1392452 0.077515,-0.1870687 C 3.0357543,3.7338574 3.1017104,3.7041666 3.175,3.7041666 h 5.8208332 c 0.07329,0 0.1392455,0.029691 0.1870686,0.077515 0.047823,0.047823 0.077515,0.1137791 0.077515,0.1870687 V 4.5025675 C 9.0958357,4.4174304 8.9186101,4.352073 8.7312499,4.3129149 v 2.3016684 h 1.5146361 0.07286 v -0.396875 c 0,-0.5184013 -0.202113,-0.9770841 -0.5291668,-1.319816 V 3.96875 c 0,-0.4397375 -0.3540125,-0.79375 -0.79375,-0.79375 z m 4.7624999,1.1379149 c -0.9008258,0.1882712 -1.5875,0.9464326 -1.5875,1.9047934 v 0.396875 H 6.4228639 7.9375 V 4.4979166 Z"
     id="path816" />
</svg>
