<?xml version="1.0" encoding="UTF-8" standalone="no"?>
<svg
   width="48"
   height="48"
   viewBox="0 0 12.7 12.7"
   version="1.1"
   id="svg4"
   sodipodi:docname="preferences-system-parental-controls.svg"
   inkscape:version="0.92.5 (2060ec1f9f, 2020-04-08)"
   xmlns:inkscape="http://www.inkscape.org/namespaces/inkscape"
   xmlns:sodipodi="http://sodipodi.sourceforge.net/DTD/sodipodi-0.dtd"
   xmlns="http://www.w3.org/2000/svg"
   xmlns:svg="http://www.w3.org/2000/svg">
  <sodipodi:namedview
     id="namedview1"
     pagecolor="#505050"
     bordercolor="#eeeeee"
     borderopacity="1"
     inkscape:showpageshadow="0"
     inkscape:pageopacity="0"
     inkscape:pagecheckerboard="0"
     inkscape:deskcolor="#d1d1d1" />
  <defs
     id="defs8">
    <style
       id="current-color-scheme"
       type="text/css">&#10;      .ColorScheme-Highlight {&#10;        color:#1e3f5a;&#10;      }&#10;  </style>
  </defs>
  <path
     class="ColorScheme-Highlight"
     style="fill:#bde6fb;fill-opacity:1;stroke-width:0.264583"
     d="M 6.3499999,0 A 6.3499999,6.3499999 0 0 0 0,6.3499999 6.3499999,6.3499999 0 0 0 6.3499999,12.7 6.3499999,6.3499999 0 0 0 12.7,6.3499999 6.3499999,6.3499999 0 0 0 6.3499999,0 Z m 0,0.79374999 A 5.5562499,5.5562499 0 0 1 11.90625,6.3499999 5.5562499,5.5562499 0 0 1 6.3499999,11.90625 5.5562499,5.5562499 0 0 1 0.79374999,6.3499999 5.5562499,5.5562499 0 0 1 6.3499999,0.79374999 Z M 4.8947916,2.1166666 a 1.1906249,1.1906249 0 0 0 -1.190625,1.190625 1.1906249,1.1906249 0 0 0 1.190625,1.190625 1.1906249,1.1906249 0 0 0 1.190625,-1.190625 1.1906249,1.1906249 0 0 0 -1.190625,-1.190625 z M 3.96875,4.7624999 c -0.063584,0 -0.1193176,0.025419 -0.1648479,0.062528 C 3.7145629,4.8669495 3.6327844,4.938047 3.5760091,5.036385 L 2.3254394,7.202661 C 2.195517,7.4276933 2.2440647,7.6973408 2.4344767,7.8072752 2.6248887,7.9172098 2.8828134,7.8245683 3.012736,7.599536 L 3.7041666,6.4016762 v 1.5358237 c 0,0.017055 0.00677,0.03192 0.00982,0.048059 -0.00587,0.027235 -0.00982,0.055192 -0.00982,0.084233 v 2.1166661 c 0,0.219869 0.1770063,0.396875 0.396875,0.396875 0.2198688,0 0.396875,-0.177006 0.396875,-0.396875 V 8.2020832 h 0.79375 v 1.9120278 0.07235 c 0,0.219869 0.1770062,0.396875 0.396875,0.396875 0.2198687,0 0.396875,-0.177006 0.396875,-0.396875 V 8.0697916 7.9374999 6.4016762 L 6.7768472,7.599536 c 0.042682,0.073927 0.099924,0.1323181 0.1632976,0.1751832 -0.036131,0.045227 -0.060978,0.1001316 -0.060978,0.1627807 0,0.1465792 0.1180041,0.2645833 0.2645833,0.2645833 h 0.79375 v 0.79375 1.3229168 c 0,0.146579 0.1180042,0.264583 0.2645833,0.264583 0.1465792,0 0.2645834,-0.118004 0.2645834,-0.264583 V 9.2604166 H 8.9958332 V 10.31875 c 0,0.146579 0.1180042,0.264583 0.2645834,0.264583 0.1465791,0 0.2645833,-0.118004 0.2645833,-0.264583 V 8.9958332 8.4666666 l 0.5932451,0.5932455 c 0.103648,0.1036471 0.270491,0.1036471 0.374138,0 0.103647,-0.1036473 0.103647,-0.2704904 0,-0.3741375 L 9.5570393,7.7504313 C 9.4906355,7.6840275 9.399217,7.6650865 9.31416,7.6837687 9.296261,7.6799738 9.279479,7.6729166 9.2604166,7.6729166 H 8.4666666 7.4837808 C 7.557032,7.541479 7.5558292,7.3614647 7.4641434,7.202661 L 6.2135736,5.036385 C 6.1567988,4.938047 6.0750203,4.8669495 5.9856811,4.8250284 5.9401508,4.7879187 5.8844169,4.7624999 5.8208333,4.7624999 Z m 4.7624999,1.0583334 a 0.79374999,0.79374999 0 0 0 -0.79375,0.79375 0.79374999,0.79374999 0 0 0 0.79375,0.7937499 0.79374999,0.79374999 0 0 0 0.79375,-0.7937499 0.79374999,0.79374999 0 0 0 -0.79375,-0.79375 z"
     id="path831" />
</svg>
