<?xml version="1.0" encoding="UTF-8" standalone="no"?>
<svg
   width="48"
   height="48"
   viewBox="0 0 12.7 12.7"
   version="1.1"
   id="svg4"
   sodipodi:docname="preferences-web-browser-adblock.svg"
   inkscape:version="0.92.5 (2060ec1f9f, 2020-04-08)"
   xmlns:inkscape="http://www.inkscape.org/namespaces/inkscape"
   xmlns:sodipodi="http://sodipodi.sourceforge.net/DTD/sodipodi-0.dtd"
   xmlns="http://www.w3.org/2000/svg"
   xmlns:svg="http://www.w3.org/2000/svg">
  <sodipodi:namedview
     id="namedview1"
     pagecolor="#505050"
     bordercolor="#eeeeee"
     borderopacity="1"
     inkscape:showpageshadow="0"
     inkscape:pageopacity="0"
     inkscape:pagecheckerboard="0"
     inkscape:deskcolor="#d1d1d1" />
  <defs
     id="defs8">
    <style
       id="current-color-scheme"
       type="text/css">&#10;      .ColorScheme-Highlight {&#10;        color:#1e3f5a;&#10;      }&#10;  </style>
  </defs>
  <path
     class="ColorScheme-Highlight"
     style="fill:#bde6fb;fill-opacity:1;stroke-width:0.264583"
     d="M 6.3499999,0 A 6.3499999,6.3499999 0 0 0 0,6.3499999 6.3499999,6.3499999 0 0 0 6.3499999,12.7 6.3499999,6.3499999 0 0 0 12.7,6.3499999 6.3499999,6.3499999 0 0 0 6.3499999,0 Z m 0,0.79374999 A 5.5562499,5.5562499 0 0 1 11.90625,6.3499999 5.5562499,5.5562499 0 0 1 6.3499999,11.90625 5.5562499,5.5562499 0 0 1 0.79374999,6.3499999 5.5562499,5.5562499 0 0 1 6.3499999,0.79374999 Z m 0,1.85208331 A 3.7041666,3.7041666 0 0 0 2.6458333,6.3499999 3.7041666,3.7041666 0 0 0 6.3499999,10.054167 3.7041666,3.7041666 0 0 0 10.054167,6.3499999 3.7041666,3.7041666 0 0 0 6.3499999,2.6458333 Z m 0,0.5291667 a 3.175,3.175 0 0 1 3.175,3.1749999 3.175,3.175 0 0 1 -0.7508587,2.0494874 L 4.3025798,3.9279255 A 3.175,3.175 0 0 1 6.3499999,3.175 Z M 3.9258586,4.3005126 8.3974201,8.7720743 A 3.175,3.175 0 0 1 6.3499999,9.5249999 3.175,3.175 0 0 1 3.175,6.3499999 3.175,3.175 0 0 1 3.9258586,4.3005126 Z"
     id="path831" />
</svg>
