<?xml version="1.0" encoding="UTF-8" standalone="no"?>
<svg
   width="48"
   height="48"
   viewBox="0 0 12.7 12.7"
   version="1.1"
   id="svg4"
   sodipodi:docname="preferences-system-network-server-share.svg"
   inkscape:version="0.92.5 (2060ec1f9f, 2020-04-08)"
   xmlns:inkscape="http://www.inkscape.org/namespaces/inkscape"
   xmlns:sodipodi="http://sodipodi.sourceforge.net/DTD/sodipodi-0.dtd"
   xmlns="http://www.w3.org/2000/svg"
   xmlns:svg="http://www.w3.org/2000/svg">
  <defs
     id="defs1" />
  <sodipodi:namedview
     id="namedview1"
     pagecolor="#505050"
     bordercolor="#eeeeee"
     borderopacity="1"
     inkscape:showpageshadow="0"
     inkscape:pageopacity="0"
     inkscape:pagecheckerboard="0"
     inkscape:deskcolor="#d1d1d1" />
  <style
     id="current-color-scheme"
     type="text/css">&#10;      .ColorScheme-Highlight {&#10;        color:#1e3f5a;&#10;      }&#10;  </style>
  <path
     class="ColorScheme-Highlight"
     style="fill:#bde6fb;fill-opacity:1;stroke-width:0.264583"
     d="M 6.3499999,0 A 6.3499999,6.3499999 0 0 0 0,6.3499999 6.3499999,6.3499999 0 0 0 6.3499999,12.7 6.3499999,6.3499999 0 0 0 7.6729166,12.55789 V 11.744503 A 5.5562499,5.5562499 0 0 1 6.3499999,11.90625 5.5562499,5.5562499 0 0 1 2.2174357,10.054167 h 2.8096476 v 0.79375 H 7.6729166 V 10.054167 9.5249999 8.9958332 h -0.79375 V 8.4666666 h 0.79375 V 7.941634 c 0,-0.00159 0.00153,-0.00254 0.00156,-0.00414 h -3.17656 V 2.6458333 H 8.2020832 V 7.6729166 H 8.7312499 V 2.38125 c 0,-0.1465792 -0.1180042,-0.2645834 -0.2645833,-0.2645834 H 4.2333333 C 4.0867541,2.1166666 3.96875,2.2346708 3.96875,2.38125 v 5.8208332 c 0,0.1465792 0.1180041,0.2645834 0.2645833,0.2645834 h 1.5875 v 0.5291666 h -0.79375 V 9.5249999 H 1.7983398 A 5.5562499,5.5562499 0 0 1 0.79374999,6.3499999 5.5562499,5.5562499 0 0 1 6.3499999,0.79374999 5.5562499,5.5562499 0 0 1 11.90625,6.3499999 5.5562499,5.5562499 0 0 1 11.738818,7.6729166 h 0.813904 A 6.3499999,6.3499999 0 0 0 12.7,6.3499999 6.3499999,6.3499999 0 0 0 6.3499999,0 Z m -1.5875,2.9104166 V 3.96875 h 3.175 V 2.9104166 Z m 0,1.8520833 v 1.0583334 h 3.175 V 4.7624999 Z m 0,1.8520834 v 1.0583333 h 3.175 V 6.6145833 Z m 3.7041667,1.5874999 c -0.1465792,0 -0.2645834,0.1180042 -0.2645834,0.2645834 v 3.9687504 c 0,0.146579 0.1180042,0.264583 0.2645834,0.264583 H 12.435417 C 12.581996,12.7 12.7,12.581996 12.7,12.435417 V 8.4666666 C 12.7,8.3200874 12.581996,8.2020832 12.435417,8.2020832 Z M 11.377083,8.7312499 A 0.52916663,0.52916663 0 0 1 11.90625,9.2604166 0.52916663,0.52916663 0 0 1 11.377083,9.7895832 0.52916663,0.52916663 0 0 1 10.847917,9.2604166 0.52916663,0.52916663 0 0 1 11.377083,8.7312499 Z m -1.058333,0.79375 A 0.26458332,0.26458332 0 0 1 10.583333,9.7895832 0.26458332,0.26458332 0 0 1 10.31875,10.054167 0.26458332,0.26458332 0 0 1 10.054167,9.7895832 0.26458332,0.26458332 0 0 1 10.31875,9.5249999 Z M 9.2604166,10.054167 A 0.52916663,0.52916663 0 0 1 9.7895832,10.583333 0.52916663,0.52916663 0 0 1 9.2604166,11.1125 0.52916663,0.52916663 0 0 1 8.7312499,10.583333 0.52916663,0.52916663 0 0 1 9.2604166,10.054167 Z m 1.0583334,0.79375 A 0.26458332,0.26458332 0 0 1 10.583333,11.1125 0.26458332,0.26458332 0 0 1 10.31875,11.377083 0.26458332,0.26458332 0 0 1 10.054167,11.1125 0.26458332,0.26458332 0 0 1 10.31875,10.847917 Z m 1.058333,0.264583 a 0.52916663,0.52916663 0 0 1 0.529167,0.529167 0.52916663,0.52916663 0 0 1 -0.529167,0.529166 0.52916663,0.52916663 0 0 1 -0.529166,-0.529166 0.52916663,0.52916663 0 0 1 0.529166,-0.529167 z"
     id="path870" />
</svg>
