<?xml version="1.0" encoding="UTF-8" standalone="no"?>
<svg
   width="48"
   height="48"
   viewBox="0 0 12.7 12.7"
   version="1.1"
   id="svg4"
   sodipodi:docname="preferences-system-windows.svg"
   inkscape:version="0.92.5 (2060ec1f9f, 2020-04-08)"
   xmlns:inkscape="http://www.inkscape.org/namespaces/inkscape"
   xmlns:sodipodi="http://sodipodi.sourceforge.net/DTD/sodipodi-0.dtd"
   xmlns="http://www.w3.org/2000/svg"
   xmlns:svg="http://www.w3.org/2000/svg">
  <sodipodi:namedview
     id="namedview1"
     pagecolor="#505050"
     bordercolor="#eeeeee"
     borderopacity="1"
     inkscape:showpageshadow="0"
     inkscape:pageopacity="0"
     inkscape:pagecheckerboard="0"
     inkscape:deskcolor="#d1d1d1" />
  <defs
     id="defs8">
    <style
       id="current-color-scheme"
       type="text/css">&#10;      .ColorScheme-Highlight {&#10;        color:#1e3f5a;&#10;      }&#10;  </style>
  </defs>
  <path
     class="ColorScheme-Highlight"
     style="fill:#bde6fb;fill-opacity:1;stroke-width:0.264583"
     d="M 6.3499999,0 A 6.3499999,6.3499999 0 0 0 0,6.3499999 6.3499999,6.3499999 0 0 0 6.3499999,12.7 6.3499999,6.3499999 0 0 0 12.7,6.3499999 6.3499999,6.3499999 0 0 0 6.3499999,0 Z m 0,0.79374999 A 5.5562499,5.5562499 0 0 1 11.90625,6.3499999 5.5562499,5.5562499 0 0 1 6.3499999,11.90625 5.5562499,5.5562499 0 0 1 0.79374999,6.3499999 5.5562499,5.5562499 0 0 1 6.3499999,0.79374999 Z M 5.0270833,2.6458333 c -0.2931584,0 -0.5291667,0.2360083 -0.5291667,0.5291667 v 2.1166666 h -1.5875 c -0.2931583,0 -0.5291666,0.2360083 -0.5291666,0.5291667 v 3.7041666 c 0,0.2931583 0.2360083,0.5291671 0.5291666,0.5291671 h 4.4979166 c 0.2931584,0 0.5291667,-0.2360088 0.5291667,-0.5291671 V 7.4083332 h 1.5875 c 0.2931583,0 0.5291671,-0.2360083 0.5291671,-0.5291666 V 3.175 c 0,-0.2931584 -0.2360088,-0.5291667 -0.5291671,-0.5291667 z m -0.042891,1.0583333 h 4.540808 c 0.1228034,0 0.221692,0.1180042 0.221692,0.2645834 v 2.880961 c 0,0.1465792 -0.098889,0.2645834 -0.221692,0.2645834 h -1.5875 V 5.8208333 c 0,-0.2931584 -0.2360083,-0.5291667 -0.5291667,-0.5291667 H 4.7624999 V 3.96875 c 0,-0.1465792 0.098889,-0.2645834 0.2216924,-0.2645834 z m -2.116667,2.6458333 h 4.5408079 c 0.1228035,0 0.221692,0.1180042 0.221692,0.2645834 v 2.880961 c 0,0.1465792 -0.098889,0.2645834 -0.221692,0.2645834 H 2.8675253 c -0.1228035,0 -0.221692,-0.1180042 -0.221692,-0.2645834 v -2.880961 c 0,-0.1465792 0.098889,-0.2645834 0.221692,-0.2645834 z"
     id="rect856" />
</svg>
