<?xml version="1.0" encoding="UTF-8" standalone="no"?>
<svg
   width="48"
   height="48"
   viewBox="0 0 12.7 12.7"
   version="1.1"
   id="svg4"
   sodipodi:docname="preferences-desktop-display.svg"
   inkscape:version="0.92.5 (2060ec1f9f, 2020-04-08)"
   xmlns:inkscape="http://www.inkscape.org/namespaces/inkscape"
   xmlns:sodipodi="http://sodipodi.sourceforge.net/DTD/sodipodi-0.dtd"
   xmlns="http://www.w3.org/2000/svg"
   xmlns:svg="http://www.w3.org/2000/svg">
  <sodipodi:namedview
     id="namedview1"
     pagecolor="#505050"
     bordercolor="#eeeeee"
     borderopacity="1"
     inkscape:showpageshadow="0"
     inkscape:pageopacity="0"
     inkscape:pagecheckerboard="0"
     inkscape:deskcolor="#d1d1d1" />
  <defs
     id="defs8">
    <style
       id="current-color-scheme"
       type="text/css">&#10;      .ColorScheme-Highlight {&#10;        color:#1e3f5a;&#10;      }&#10;  </style>
  </defs>
  <path
     class="ColorScheme-Highlight"
     style="fill:#bde6fb;fill-opacity:1;stroke-width:0.264583"
     d="M 6.3499999,0 A 6.3499999,6.3499999 0 0 0 0,6.3499999 6.3499999,6.3499999 0 0 0 6.3499999,12.7 6.3499999,6.3499999 0 0 0 12.7,6.3499999 6.3499999,6.3499999 0 0 0 6.3499999,0 Z m 0,0.79374999 A 5.5562499,5.5562499 0 0 1 11.90625,6.3499999 5.5562499,5.5562499 0 0 1 6.3499999,11.90625 5.5562499,5.5562499 0 0 1 0.79374999,6.3499999 5.5562499,5.5562499 0 0 1 6.3499999,0.79374999 Z M 3.4395833,2.9104166 c -0.4397375,0 -0.79375,0.3540125 -0.79375,0.79375 v 5.55625 c 0,0.4397374 0.3540125,0.7937504 0.79375,0.7937504 h 5.8208333 c 0.4397374,0 0.7937504,-0.354013 0.7937504,-0.7937504 v -5.55625 c 0,-0.4397375 -0.354013,-0.79375 -0.7937504,-0.79375 z m 0,0.5291667 h 5.8208333 c 0.1465789,0 0.2645833,0.1180042 0.2645833,0.2645833 v 5.55625 c 0,0.1465791 -0.1180044,0.2645833 -0.2645833,0.2645833 H 3.4395833 C 3.2930044,9.5249999 3.175,9.4069957 3.175,9.2604166 v -5.55625 c 0,-0.1465791 0.1180044,-0.2645833 0.2645833,-0.2645833 z m 2.38125,0.5291667 -0.79375,1.0583333 H 5.5562499 V 6.3499999 H 4.4979166 V 5.8208333 l -1.0583333,0.79375 1.0583333,0.7937499 V 6.8791666 H 5.5562499 V 7.9374999 H 5.0270833 l 0.79375,1.0583333 0.79375,-1.0583333 H 6.0854166 V 6.8791666 H 7.9374999 V 7.4083332 L 8.9958332,6.6145833 7.9374999,5.8208333 V 6.3499999 H 6.0854166 V 5.0270833 h 0.5291667 z"
     id="path823" />
</svg>
