<?xml version="1.0" encoding="UTF-8" standalone="no"?>
<svg
   width="48"
   height="48"
   viewBox="0 0 12.7 12.7"
   version="1.1"
   id="svg4"
   sodipodi:docname="preferences-virtualization-container.svg"
   inkscape:version="0.92.5 (2060ec1f9f, 2020-04-08)"
   xmlns:inkscape="http://www.inkscape.org/namespaces/inkscape"
   xmlns:sodipodi="http://sodipodi.sourceforge.net/DTD/sodipodi-0.dtd"
   xmlns="http://www.w3.org/2000/svg"
   xmlns:svg="http://www.w3.org/2000/svg">
  <sodipodi:namedview
     id="namedview1"
     pagecolor="#505050"
     bordercolor="#eeeeee"
     borderopacity="1"
     inkscape:showpageshadow="0"
     inkscape:pageopacity="0"
     inkscape:pagecheckerboard="0"
     inkscape:deskcolor="#d1d1d1" />
  <defs
     id="defs8">
    <style
       id="current-color-scheme"
       type="text/css">&#10;      .ColorScheme-Highlight {&#10;        color:#1e3f5a;&#10;      }&#10;  </style>
  </defs>
  <path
     class="ColorScheme-Highlight"
     style="fill:#bde6fb;fill-opacity:1;stroke-width:0.264583"
     d="M 6.3499999,0 A 6.3499999,6.3499999 0 0 0 0,6.3499999 6.3499999,6.3499999 0 0 0 6.3499999,12.7 6.3499999,6.3499999 0 0 0 12.7,6.3499999 6.3499999,6.3499999 0 0 0 6.3499999,0 Z m 0,0.79374999 A 5.5562499,5.5562499 0 0 1 11.90625,6.3499999 5.5562499,5.5562499 0 0 1 6.3499999,11.90625 5.5562499,5.5562499 0 0 1 0.79374999,6.3499999 5.5562499,5.5562499 0 0 1 6.3499999,0.79374999 Z M 3.4395833,2.6458333 C 3.2930041,2.6458333 3.175,2.7638375 3.175,2.9104166 V 3.175 c -0.1465792,0 -0.2645834,0.1180041 -0.2645834,0.2645833 v 5.8208333 c 0,0.1465791 0.1180042,0.2645833 0.2645834,0.2645833 v 0.2645833 c 0,0.1465792 0.1180041,0.2645838 0.2645833,0.2645838 h 5.8208333 c 0.1465791,0 0.2645833,-0.1180046 0.2645833,-0.2645838 V 9.5249999 c 0.1465791,0 0.2645833,-0.1180042 0.2645833,-0.2645833 V 3.4395833 C 9.7895832,3.2930041 9.671579,3.175 9.5249999,3.175 V 2.9104166 c 0,-0.1465791 -0.1180042,-0.2645833 -0.2645833,-0.2645833 z m 0,1.0583333 H 4.4979166 V 8.9958332 H 3.4395833 Z m 1.3229166,0 H 5.2916666 V 8.9958332 H 4.7624999 Z m 0.79375,0 H 6.0854166 V 8.9958332 H 5.5562499 Z m 1.0583334,0 H 7.1437499 V 8.9958332 H 6.6145833 Z m 0.7937499,0 H 7.9374999 V 8.9958332 H 7.4083332 Z m 0.79375,0 H 9.2604166 V 8.9958332 H 8.2020832 Z"
     id="rect817" />
</svg>
