<?xml version="1.0" encoding="UTF-8" standalone="no"?>
<svg
   width="48"
   height="48"
   viewBox="0 0 12.7 12.7"
   version="1.1"
   id="svg4"
   sodipodi:docname="preferences-desktop-screensaver.svg"
   inkscape:version="0.92.5 (2060ec1f9f, 2020-04-08)"
   xmlns:inkscape="http://www.inkscape.org/namespaces/inkscape"
   xmlns:sodipodi="http://sodipodi.sourceforge.net/DTD/sodipodi-0.dtd"
   xmlns="http://www.w3.org/2000/svg"
   xmlns:svg="http://www.w3.org/2000/svg">
  <sodipodi:namedview
     id="namedview1"
     pagecolor="#505050"
     bordercolor="#eeeeee"
     borderopacity="1"
     inkscape:showpageshadow="0"
     inkscape:pageopacity="0"
     inkscape:pagecheckerboard="0"
     inkscape:deskcolor="#d1d1d1" />
  <defs
     id="defs8">
    <style
       id="current-color-scheme"
       type="text/css">&#10;      .ColorScheme-Highlight {&#10;        color:#1e3f5a;&#10;      }&#10;  </style>
  </defs>
  <path
     class="ColorScheme-Highlight"
     style="fill:#bde6fb;fill-opacity:1;stroke-width:0.264583"
     d="M 6.3499999,0 A 6.3499999,6.3499999 0 0 0 0,6.3499999 6.3499999,6.3499999 0 0 0 6.3499999,12.7 6.3499999,6.3499999 0 0 0 12.7,6.3499999 6.3499999,6.3499999 0 0 0 6.3499999,0 Z m 0,0.79374999 A 5.5562499,5.5562499 0 0 1 11.90625,6.3499999 5.5562499,5.5562499 0 0 1 6.3499999,11.90625 5.5562499,5.5562499 0 0 1 0.79374999,6.3499999 5.5562499,5.5562499 0 0 1 6.3499999,0.79374999 Z M 3.175,2.9104166 c -0.2931584,0 -0.5291667,0.2360084 -0.5291667,0.5291667 v 4.7624999 c 0,0.2931584 0.2360083,0.5291667 0.5291667,0.5291667 h 1.8520833 v 1.0583333 h -1.5875 V 10.31875 H 9.2604166 V 9.7895832 h -1.5875 V 8.7312499 h 1.8520833 c 0.2931583,0 0.5291671,-0.2360083 0.5291671,-0.5291667 V 3.4395833 c 0,-0.2931583 -0.2360088,-0.5291667 -0.5291671,-0.5291667 z m 0.2645833,0.5291667 h 5.8208333 c 0.1465789,0 0.2645833,0.1180042 0.2645833,0.2645833 v 4.2333333 c 0,0.1465792 -0.1180044,0.2645833 -0.2645833,0.2645833 H 3.4395833 C 3.2930044,8.2020832 3.175,8.0840791 3.175,7.9374999 V 3.7041666 c 0,-0.1465791 0.1180044,-0.2645833 0.2645833,-0.2645833 z M 4.4979166,4.2333333 4.3656249,4.6364096 3.96875,4.7624999 4.3594236,4.8761882 4.4979166,5.2916666 4.6426106,4.8947916 5.0270833,4.7624999 4.6426106,4.624007 Z m 2.38125,0.2645833 -0.1322917,0.4030763 -0.396875,0.1260904 0.3906737,0.1136883 0.138493,0.4154783 0.144694,-0.396875 0.3844726,-0.1322916 -0.3844726,-0.138493 z m 1.4236856,0.6888469 a 1.3229165,1.3229165 0 0 1 0.019637,0.034106 1.3229165,1.3229165 0 0 1 0.05426,0.1204061 1.3229165,1.3229165 0 0 1 0.041858,0.1255736 1.3229165,1.3229165 0 0 1 0.028939,0.1291913 1.3229165,1.3229165 0 0 1 0.016021,0.1312579 1.3229165,1.3229165 0 0 1 0.0031,0.093535 1.3229165,1.3229165 0 0 1 -0.00672,0.1322916 1.3229165,1.3229165 0 0 1 -0.019637,0.1307415 1.3229165,1.3229165 0 0 1 -0.032556,0.1281575 1.3229165,1.3229165 0 0 1 -0.045475,0.1240235 1.3229165,1.3229165 0 0 1 -0.057361,0.1188556 1.3229165,1.3229165 0 0 1 -0.069247,0.1126548 1.3229165,1.3229165 0 0 1 -0.080098,0.1054198 1.3229165,1.3229165 0 0 1 -0.089917,0.096635 1.3229165,1.3229165 0 0 1 -0.099736,0.087333 1.3229165,1.3229165 0 0 1 -0.107487,0.076998 1.3229165,1.3229165 0 0 1 -0.1147217,0.065629 1.3229165,1.3229165 0 0 1 -0.1204061,0.05426 1.3229165,1.3229165 0 0 1 -0.1255736,0.041858 1.3229165,1.3229165 0 0 1 -0.1291913,0.028939 1.3229165,1.3229165 0 0 1 -0.1312579,0.016021 1.3229165,1.3229165 0 0 1 -0.093534,0.0031 A 1.3229165,1.3229165 0 0 1 7.0114582,7.1370319 1.3229165,1.3229165 0 0 1 6.8807168,7.117395 1.3229165,1.3229165 0 0 1 6.7525592,7.0848388 1.3229165,1.3229165 0 0 1 6.6285358,7.0393636 1.3229165,1.3229165 0 0 1 6.5138143,6.9840696 1.3229165,1.3229165 0 0 0 7.6729166,7.6729166 1.3229165,1.3229165 0 0 0 8.9958332,6.3499999 1.3229165,1.3229165 0 0 0 8.3028522,5.1867635 Z M 5.2916666,5.2916666 5.1593749,5.6947429 4.7624999,5.8208333 5.1531736,5.9345215 5.2916666,6.3499999 5.4363606,5.9531249 5.8208333,5.8208333 5.4363606,5.6823403 Z M 4.2333333,6.3499999 4.1010416,6.7530762 3.7041666,6.8791666 4.0948403,6.9928549 4.2333333,7.4083332 4.3780273,7.0114582 4.7624999,6.8791666 4.3780273,6.7406736 Z"
     id="path826" />
</svg>
