<?xml version="1.0" encoding="UTF-8" standalone="no"?>
<svg
   width="48"
   height="48"
   viewBox="0 0 12.7 12.7"
   version="1.1"
   id="svg4"
   sodipodi:docname="preferences-desktop-theme-applications.svg"
   inkscape:version="0.92.5 (2060ec1f9f, 2020-04-08)"
   xmlns:inkscape="http://www.inkscape.org/namespaces/inkscape"
   xmlns:sodipodi="http://sodipodi.sourceforge.net/DTD/sodipodi-0.dtd"
   xmlns="http://www.w3.org/2000/svg"
   xmlns:svg="http://www.w3.org/2000/svg">
  <sodipodi:namedview
     id="namedview1"
     pagecolor="#505050"
     bordercolor="#eeeeee"
     borderopacity="1"
     inkscape:showpageshadow="0"
     inkscape:pageopacity="0"
     inkscape:pagecheckerboard="0"
     inkscape:deskcolor="#d1d1d1" />
  <defs
     id="defs8" />
  <defs
     id="defs5">
    <style
       id="current-color-scheme"
       type="text/css">&#10;      .ColorScheme-Highlight {&#10;        color:#1e3f5a;&#10;      }&#10;  </style>
  </defs>
  <path
     class="ColorScheme-Highlight"
     style="fill:#bde6fb;fill-opacity:1;stroke-width:0.264583"
     d="M 6.3499999,0 C 2.8429918,0 0,2.8429918 0,6.3499999 0,9.857008 2.8429918,12.7 6.3499999,12.7 9.857008,12.7 12.7,9.857008 12.7,6.3499999 12.7,2.8429918 9.857008,0 6.3499999,0 Z m 0,0.79374999 c 3.0686322,0 5.5562501,2.48761781 5.5562501,5.55624991 0,3.0686322 -2.4876179,5.5562501 -5.5562501,5.5562501 -3.0686321,0 -5.55624991,-2.4876179 -5.55624991,-5.5562501 0,-3.0686321 2.48761781,-5.55624991 5.55624991,-5.55624991 z M 3.4395833,2.9104166 c -0.2931583,0 -0.5291667,0.2360084 -0.5291667,0.5291667 V 3.96875 c 0,0.2931583 0.2360084,0.5291666 0.5291667,0.5291666 h 5.8208333 c 0.2931583,0 0.5291666,-0.2360083 0.5291666,-0.5291666 V 3.4395833 c 0,-0.2931583 -0.2360083,-0.5291667 -0.5291666,-0.5291667 z m 0,0.2645834 H 7.1437499 V 4.2333333 H 3.4395833 C 3.2930041,4.2333333 3.175,4.1153291 3.175,3.96875 V 3.4395833 C 3.175,3.2930041 3.2930041,3.175 3.4395833,3.175 Z M 7.9374999,3.4395833 H 8.9958332 L 8.4666666,4.0679687 Z M 3.7041666,5.2916666 C 3.4110083,5.2916666 3.175,5.5276749 3.175,5.8208333 v 1.0583333 c 0,0.2931583 0.2360083,0.5291666 0.5291666,0.5291666 h 1.0583333 c 0.2931584,0 0.5291667,-0.2360083 0.5291667,-0.5291666 V 5.8208333 c 0,-0.2931584 -0.2360083,-0.5291667 -0.5291667,-0.5291667 z m 4.7625,0 c -0.5845014,0 -1.0583334,0.473832 -1.0583334,1.0583333 0,0.5845014 0.473832,1.0583333 1.0583334,1.0583333 0.5845013,0 1.0583333,-0.4738319 1.0583333,-1.0583333 0,-0.5845013 -0.473832,-1.0583333 -1.0583333,-1.0583333 z M 4.701005,5.9371052 4.8880736,6.1241738 4.3268677,6.6853799 4.1397988,6.8724485 3.9527302,6.6853799 3.578593,6.3112427 3.7656616,6.1241738 4.1397988,6.4983113 Z m 4.2333332,0 L 9.1214068,6.1241738 8.560201,6.6853799 8.3731321,6.8724485 8.1860635,6.6853799 7.8119263,6.3112427 7.9989949,6.1241738 8.3731321,6.4983113 Z M 3.7041666,7.9374999 C 3.4110083,7.9374999 3.175,8.1735082 3.175,8.4666666 v 1.0583333 c 0,0.2931583 0.2360083,0.5291671 0.5291666,0.5291671 h 1.0583333 c 0.2931584,0 0.5291667,-0.2360088 0.5291667,-0.5291671 V 8.4666666 c 0,-0.2931584 -0.2360083,-0.5291667 -0.5291667,-0.5291667 z m 4.7625,0 c -0.5845014,0 -1.0583334,0.473832 -1.0583334,1.0583333 0,0.5845014 0.473832,1.0583338 1.0583334,1.0583338 0.5845013,0 1.0583333,-0.4738324 1.0583333,-1.0583338 0,-0.5845013 -0.473832,-1.0583333 -1.0583333,-1.0583333 z m -4.7625,0.2645833 h 1.0583333 c 0.1465789,0 0.2645834,0.1180045 0.2645834,0.2645834 v 1.0583333 c 0,0.1465789 -0.1180045,0.2645833 -0.2645834,0.2645833 H 3.7041666 c -0.1465789,0 -0.2645833,-0.1180044 -0.2645833,-0.2645833 V 8.4666666 c 0,-0.1465789 0.1180044,-0.2645834 0.2645833,-0.2645834 z m 4.7625,0 c 0.4383759,0 0.79375,0.3553741 0.79375,0.79375 0,0.438376 -0.3553741,0.79375 -0.79375,0.79375 -0.438376,0 -0.79375,-0.355374 -0.79375,-0.79375 0,-0.4383759 0.355374,-0.79375 0.79375,-0.79375 z"
     id="path838" />
</svg>
