<?xml version="1.0" encoding="UTF-8" standalone="no"?>
<svg
   width="48"
   height="48"
   viewBox="0 0 12.7 12.7"
   version="1.1"
   id="svg4"
   sodipodi:docname="preferences-desktop-icons.svg"
   inkscape:version="0.92.5 (2060ec1f9f, 2020-04-08)"
   xmlns:inkscape="http://www.inkscape.org/namespaces/inkscape"
   xmlns:sodipodi="http://sodipodi.sourceforge.net/DTD/sodipodi-0.dtd"
   xmlns="http://www.w3.org/2000/svg"
   xmlns:svg="http://www.w3.org/2000/svg">
  <sodipodi:namedview
     id="namedview1"
     pagecolor="#505050"
     bordercolor="#eeeeee"
     borderopacity="1"
     inkscape:showpageshadow="0"
     inkscape:pageopacity="0"
     inkscape:pagecheckerboard="0"
     inkscape:deskcolor="#d1d1d1" />
  <defs
     id="defs8">
    <style
       id="current-color-scheme"
       type="text/css">&#10;      .ColorScheme-Highlight {&#10;        color:#1e3f5a;&#10;      }&#10;  </style>
  </defs>
  <path
     class="ColorScheme-Highlight"
     style="fill:#bde6fb;fill-opacity:1;stroke-width:0.264583"
     d="M 6.3499999,0 A 6.3499999,6.3499999 0 0 0 0,6.3499999 6.3499999,6.3499999 0 0 0 6.3499999,12.7 6.3499999,6.3499999 0 0 0 12.7,6.3499999 6.3499999,6.3499999 0 0 0 6.3499999,0 Z m 0,0.79374999 A 5.5562499,5.5562499 0 0 1 11.90625,6.3499999 5.5562499,5.5562499 0 0 1 6.3499999,11.90625 5.5562499,5.5562499 0 0 1 0.79374999,6.3499999 5.5562499,5.5562499 0 0 1 6.3499999,0.79374999 Z m 0,0.52916671 A 5.0270833,5.0270833 0 0 0 5.0270833,1.5017171 V 4.2333333 H 7.6729166 V 1.5058512 A 5.0270833,5.0270833 0 0 0 6.3499999,1.3229167 Z M 4.2333333,1.7962728 A 5.0270833,5.0270833 0 0 0 1.7967895,4.2333333 h 2.4365438 z m 4.2333333,5.159e-4 V 4.2333333 H 10.903727 A 5.0270833,5.0270833 0 0 0 8.4666666,1.7967887 Z M 1.5058512,5.0270833 A 5.0270833,5.0270833 0 0 0 1.3229167,6.3499999 5.0270833,5.0270833 0 0 0 1.5017171,7.6729166 H 4.2333333 V 5.0270833 Z m 3.5212321,0 V 7.6729166 H 7.6729166 V 5.0270833 Z m 3.4395833,0 v 2.6458333 h 2.7274824 a 5.0270833,5.0270833 0 0 0 0.182934,-1.3229167 5.0270833,5.0270833 0 0 0 -0.1788,-1.3229166 z M 1.7962728,8.4666666 A 5.0270833,5.0270833 0 0 0 4.2333333,10.90321 V 8.4666666 Z m 3.2308105,0 v 2.7274824 a 5.0270833,5.0270833 0 0 0 1.3229166,0.182934 5.0270833,5.0270833 0 0 0 1.3229167,-0.1788 V 8.4666666 Z m 3.4395833,0 V 10.903727 A 5.0270833,5.0270833 0 0 0 10.90321,8.4666666 Z"
     id="path854" />
</svg>
