<?xml version="1.0" encoding="UTF-8" standalone="no"?>
<svg
   width="48"
   height="48"
   viewBox="0 0 12.7 12.7"
   version="1.1"
   id="svg4"
   sodipodi:docname="preferences-web-browser-stylesheets.svg"
   inkscape:version="0.92.5 (2060ec1f9f, 2020-04-08)"
   xmlns:inkscape="http://www.inkscape.org/namespaces/inkscape"
   xmlns:sodipodi="http://sodipodi.sourceforge.net/DTD/sodipodi-0.dtd"
   xmlns="http://www.w3.org/2000/svg"
   xmlns:svg="http://www.w3.org/2000/svg">
  <sodipodi:namedview
     id="namedview1"
     pagecolor="#505050"
     bordercolor="#eeeeee"
     borderopacity="1"
     inkscape:showpageshadow="0"
     inkscape:pageopacity="0"
     inkscape:pagecheckerboard="0"
     inkscape:deskcolor="#d1d1d1" />
  <defs
     id="defs8">
    <style
       id="current-color-scheme"
       type="text/css">&#10;      .ColorScheme-Highlight {&#10;        color:#1e3f5a;&#10;      }&#10;  </style>
  </defs>
  <path
     class="ColorScheme-Highlight"
     style="fill:#bde6fb;fill-opacity:1;stroke-width:0.264583"
     d="M 6.3499999,0 A 6.3499999,6.3499999 0 0 0 0,6.3499999 6.3499999,6.3499999 0 0 0 6.3499999,12.7 6.3499999,6.3499999 0 0 0 12.7,6.3499999 6.3499999,6.3499999 0 0 0 6.3499999,0 Z m 0,0.79374999 A 5.5562499,5.5562499 0 0 1 11.90625,6.3499999 5.5562499,5.5562499 0 0 1 6.3499999,11.90625 5.5562499,5.5562499 0 0 1 0.79374999,6.3499999 5.5562499,5.5562499 0 0 1 6.3499999,0.79374999 Z M 5.7148965,2.6654704 c -0.327959,0 -0.6410897,0.027556 -0.9389608,0.082682 C 4.4810735,2.8003772 4.2581996,2.9034052 4.1077597,3.0571778 3.9332492,3.2370625 3.8264801,3.441369 3.7873656,3.670577 3.7482512,3.8968836 3.7289713,4.1347109 3.7289713,4.3842283 V 4.845699 c 0,0.3597695 -0.034667,0.6340998 -0.1038696,0.8226888 -0.066194,0.1856874 -0.1955268,0.3132896 -0.38809,0.3829224 -0.1895544,0.066731 -0.4696598,0.099736 -0.839742,0.099736 v 0.4004924 c 0.3700822,0 0.6501876,0.034753 0.839742,0.1043863 0.1925632,0.066731 0.3218963,0.1943335 0.38809,0.3829225 0.069202,0.1856874 0.1038696,0.4587848 0.1038696,0.8185546 v 0.4609537 c 0,0.2466162 0.01928,0.4849603 0.058394,0.7141683 0.039114,0.229208 0.1458836,0.4335145 0.3203941,0.6133992 0.1504399,0.1537726 0.3733138,0.2568006 0.668176,0.3090251 0.2978711,0.055126 0.6110018,0.082682 0.9389608,0.082682 V 9.6722778 c -0.05115,0 -0.1386388,-0.00596 -0.2619994,-0.017571 C 5.332545,9.6431022 5.2076212,9.6185274 5.0782428,9.5808098 4.9518733,9.5430918 4.8495137,9.4832476 4.7712849,9.4020091 4.6689859,9.2975598 4.6057028,9.1573129 4.5816324,8.9803294 4.5605715,8.8033459 4.5501099,8.6158998 4.5501099,8.4186066 V 8.0837433 c 0,-0.3278545 -0.028616,-0.6063998 -0.085783,-0.8356079 C 4.4071598,7.016026 4.2899295,6.8255975 4.1124105,6.6776276 3.9348912,6.5296578 3.6657637,6.4194327 3.3047077,6.3468985 3.6657637,6.2714629 3.9348912,6.1629874 4.1124105,6.0208202 4.2899295,5.8757518 4.4071598,5.6883056 4.464327,5.4590973 4.521494,5.2298893 4.55011,4.9501115 4.55011,4.6193553 v -0.33538 c 0,-0.1972929 0.010462,-0.3842226 0.031523,-0.5612061 C 4.6057042,3.545786 4.6689859,3.4050221 4.7712849,3.3005728 4.8495137,3.2193346 4.9518733,3.1600071 5.0782428,3.1222891 5.2076212,3.0845715 5.332545,3.0599975 5.4528971,3.0483918 5.5762577,3.0367872 5.663747,3.0308208 5.7148965,3.0308208 Z m 1.2722738,0 v 0.3653523 c 0.054158,0 0.1416476,0.00596 0.2619997,0.017571 0.1203518,0.011605 0.2452756,0.03618 0.3746539,0.073897 0.1293784,0.037718 0.231738,0.097045 0.306958,0.1782836 0.09929,0.1015479 0.1609312,0.2380967 0.1850017,0.4092774 0.027079,0.1711809 0.040308,0.3538953 0.040308,0.548287 0,0.060929 -0.00114,0.1220057 -0.00414,0.1829345 v 0.1782837 c 0,0.3307561 0.028616,0.6122836 0.085783,0.8443931 C 8.2979106,5.692958 8.4167827,5.8786547 8.594302,6.0208217 8.771821,6.1629889 9.0409488,6.2714644 9.4020045,6.3469 9.0439615,6.4194345 8.7748339,6.5296597 8.5943061,6.6776295 8.4167868,6.8226979 8.2979145,7.011377 8.2377387,7.2434864 8.1805715,7.4726945 8.1519558,7.7529893 8.1519558,8.0837452 v 0.1782836 c 0.00301,0.060929 0.00414,0.122006 0.00414,0.1829348 0,0.1943915 -0.013229,0.3771061 -0.040308,0.5482868 C 8.0917118,9.1644313 8.0300723,9.3004631 7.9307819,9.402011 7.8555619,9.4832494 7.7532023,9.5430937 7.6238239,9.5808116 7.4944456,9.6185293 7.3695218,9.6431033 7.24917,9.6547087 7.1288179,9.6663133 7.0413286,9.6722797 6.9871703,9.6722797 V 10.03763 c 0.3309678,0 0.6440985,-0.02756 0.9389607,-0.082682 C 8.2209933,9.9027233 8.4449927,9.7996953 8.5984415,9.6459227 8.7759605,9.466038 8.8827297,9.2617315 8.9188352,9.0325235 8.9579496,8.8033155 8.9777466,8.5649714 8.9777466,8.3183552 V 7.8310464 c 0,-0.3568682 0.034667,-0.6264667 0.1038696,-0.809253 0.072211,-0.1856875 0.2031865,-0.310824 0.3927408,-0.374654 0.192563,-0.06383 0.4705096,-0.095601 0.834574,-0.095601 V 6.1510457 c -0.3640644,0 -0.642011,-0.031771 -0.834574,-0.095601 C 9.2848027,5.9887127 9.1538273,5.8640932 9.0816162,5.6813068 9.0124136,5.4985208 8.9777466,5.2284055 8.9777466,4.8715371 V 4.3842283 c 0,-0.2495174 -0.019796,-0.4873447 -0.058911,-0.7136513 C 8.8827297,3.441369 8.7759605,3.2370625 8.5984415,3.0571778 8.4449927,2.9034052 8.2209933,2.8003772 7.926131,2.7481527 7.6312688,2.6930268 7.3181381,2.6654704 6.9871703,2.6654704 Z"
     id="path841" />
</svg>
