<?xml version="1.0" encoding="UTF-8" standalone="no"?>
<svg
   width="48"
   height="48"
   viewBox="0 0 12.7 12.7"
   version="1.1"
   id="svg4"
   sodipodi:docname="preferences-system-splash.svg"
   inkscape:version="0.92.5 (2060ec1f9f, 2020-04-08)"
   xmlns:inkscape="http://www.inkscape.org/namespaces/inkscape"
   xmlns:sodipodi="http://sodipodi.sourceforge.net/DTD/sodipodi-0.dtd"
   xmlns="http://www.w3.org/2000/svg"
   xmlns:svg="http://www.w3.org/2000/svg">
  <sodipodi:namedview
     id="namedview1"
     pagecolor="#505050"
     bordercolor="#eeeeee"
     borderopacity="1"
     inkscape:showpageshadow="0"
     inkscape:pageopacity="0"
     inkscape:pagecheckerboard="0"
     inkscape:deskcolor="#d1d1d1" />
  <defs
     id="defs8">
    <style
       id="current-color-scheme"
       type="text/css">&#10;      .ColorScheme-Highlight {&#10;        color:#1e3f5a;&#10;      }&#10;  </style>
  </defs>
  <path
     class="ColorScheme-Highlight"
     style="fill:#bde6fb;fill-opacity:1;stroke-width:0.264583"
     d="M 6.3499999,0 A 6.3499999,6.3499999 0 0 0 0,6.3499999 6.3499999,6.3499999 0 0 0 6.3499999,12.7 6.3499999,6.3499999 0 0 0 12.7,6.3499999 6.3499999,6.3499999 0 0 0 6.3499999,0 Z m 0,0.79374999 A 5.5562499,5.5562499 0 0 1 11.90625,6.3499999 5.5562499,5.5562499 0 0 1 6.3499999,11.90625 5.5562499,5.5562499 0 0 1 0.79374999,6.3499999 5.5562499,5.5562499 0 0 1 6.3499999,0.79374999 Z m 0,8.46666661 a 0.79374999,0.79374999 0 0 0 -0.79375,0.7937504 0.79374999,0.79374999 0 0 0 0.79375,0.79375 0.79374999,0.79374999 0 0 0 0.79375,-0.79375 0.79374999,0.79374999 0 0 0 -0.79375,-0.7937504 z"
     id="path831" />
  <path
     class="ColorScheme-Highlight"
     style="opacity:0.6;fill:#bde6fb;fill-opacity:1;stroke-width:0.264583"
     d="m 6.3499999,1.8520833 a 0.79374999,0.79374999 0 0 0 -0.79375,0.79375 0.79374999,0.79374999 0 0 0 0.79375,0.79375 0.79374999,0.79374999 0 0 0 0.79375,-0.79375 0.79374999,0.79374999 0 0 0 -0.79375,-0.79375 z"
     id="path1005" />
  <path
     class="ColorScheme-Highlight"
     style="opacity:0.8;fill:#bde6fb;fill-opacity:1;stroke-width:0.264583"
     d="m 2.6458333,5.5562499 a 0.79374999,0.79374999 0 0 0 -0.79375,0.79375 0.79374999,0.79374999 0 0 0 0.79375,0.79375 0.79374999,0.79374999 0 0 0 0.79375,-0.79375 0.79374999,0.79374999 0 0 0 -0.79375,-0.79375 z"
     id="path1003" />
  <path
     class="ColorScheme-Highlight"
     style="opacity:0.4;fill:#bde6fb;fill-opacity:1;stroke-width:0.264583"
     d="m 10.054167,5.5562499 a 0.79374999,0.79374999 0 0 0 -0.7937504,0.79375 0.79374999,0.79374999 0 0 0 0.7937504,0.79375 0.79374999,0.79374999 0 0 0 0.79375,-0.79375 0.79374999,0.79374999 0 0 0 -0.79375,-0.79375 z"
     id="path1001" />
  <path
     class="ColorScheme-Highlight"
     style="opacity:0.7;fill:#bde6fb;fill-opacity:1"
     d="m 3.1694926,3.1694926 a 0.79374999,0.79374999 0 0 0 0,1.122532 0.79374999,0.79374999 0 0 0 1.122532,0 0.79374999,0.79374999 0 0 0 0,-1.122532 0.79374999,0.79374999 0 0 0 -1.122532,0 z"
     id="path997" />
  <path
     class="ColorScheme-Highlight"
     style="opacity:0.9;fill:#bde6fb;fill-opacity:1"
     d="m 3.1694926,8.4079753 a 0.79374999,0.79374999 0 0 0 0,1.122532 0.79374999,0.79374999 0 0 0 1.122532,0 0.79374999,0.79374999 0 0 0 0,-1.122532 0.79374999,0.79374999 0 0 0 -1.122532,0 z"
     id="path995" />
  <path
     class="ColorScheme-Highlight"
     style="opacity:0.5;fill:#bde6fb;fill-opacity:1"
     d="m 8.4079753,3.1694926 a 0.79374999,0.79374999 0 0 0 0,1.122532 0.79374999,0.79374999 0 0 0 1.122532,0 0.79374999,0.79374999 0 0 0 0,-1.122532 0.79374999,0.79374999 0 0 0 -1.122532,0 z"
     id="path993" />
  <path
     class="ColorScheme-Highlight"
     style="opacity:0.3;fill:#bde6fb;fill-opacity:1"
     d="m 8.4079753,8.4079753 a 0.79374999,0.79374999 0 0 0 0,1.122532 0.79374999,0.79374999 0 0 0 1.122532,0 0.79374999,0.79374999 0 0 0 0,-1.122532 0.79374999,0.79374999 0 0 0 -1.122532,0 z"
     id="path989" />
</svg>
