<?xml version="1.0" encoding="UTF-8" standalone="no"?>
<svg
   width="47.542679"
   height="47.550236"
   viewBox="0 0 12.579 12.581"
   version="1.1"
   id="svg4"
   sodipodi:docname="proxychains.svg"
   inkscape:version="0.92.5 (2060ec1f9f, 2020-04-08)"
   xmlns:inkscape="http://www.inkscape.org/namespaces/inkscape"
   xmlns:sodipodi="http://sodipodi.sourceforge.net/DTD/sodipodi-0.dtd"
   xmlns="http://www.w3.org/2000/svg"
   xmlns:svg="http://www.w3.org/2000/svg"
   xmlns:rdf="http://www.w3.org/1999/02/22-rdf-syntax-ns#"
   xmlns:cc="http://creativecommons.org/ns#"
   xmlns:dc="http://purl.org/dc/elements/1.1/">
  <metadata
     id="metadata10">
    <rdf:RDF>
      <cc:Work
         rdf:about="">
        <dc:format>image/svg+xml</dc:format>
        <dc:type
           rdf:resource="http://purl.org/dc/dcmitype/StillImage" />
        <dc:title />
      </cc:Work>
    </rdf:RDF>
  </metadata>
  <defs
     id="defs8" />
  <sodipodi:namedview
     pagecolor="#ffffff"
     bordercolor="#666666"
     borderopacity="1"
     objecttolerance="10"
     gridtolerance="10"
     guidetolerance="10"
     inkscape:pageopacity="0"
     inkscape:pageshadow="2"
     inkscape:window-width="1085"
     inkscape:window-height="480"
     id="namedview6"
     showgrid="false"
     inkscape:zoom="4.9166667"
     inkscape:cx="2.1355932"
     inkscape:cy="24"
     inkscape:window-x="0"
     inkscape:window-y="25"
     inkscape:window-maximized="0"
     inkscape:current-layer="svg4"
     inkscape:showpageshadow="0"
     inkscape:pagecheckerboard="0"
     inkscape:deskcolor="#d1d1d1" />
  <path
     d="M 6.285,9.9999905e-4 A 6.295,6.295 0 0 0 0,6.286 a 6.295,6.295 0 0 0 1.287,3.802 6.295,6.295 0 0 0 0.193,0.253 6.295,6.295 0 0 0 0.307,0.33 6.295,6.295 0 0 0 4.498,1.91 A 6.295,6.295 0 0 0 12.579,6.286 6.295,6.295 0 0 0 11.334,2.551 6.295,6.295 0 0 0 11.092,2.233 6.295,6.295 0 0 0 10.673,1.784 6.295,6.295 0 0 0 10.663,1.774 6.295,6.295 0 0 0 6.285,0 Z M 6.274,0.941 A 5.408,5.408 0 0 1 9.415,1.96 L 8.806,2.569 A 1.003,1.003 0 0 0 7.972,2.848 L 6.63,4.189 C 6.403,4.417 6.32,4.72 6.352,5.023 l -1.31,1.31 A 1.002,1.002 0 0 0 4.208,6.611 L 2.866,7.953 C 2.638,8.181 2.555,8.484 2.588,8.787 L 1.883,9.492 A 5.407,5.407 0 0 1 0.857,6.328 c 0,-2.987 2.43,-5.387 5.417,-5.387 z m 3.73,1.512 a 5.408,5.408 0 0 1 0.176,0.17 L 9.716,3.087 C 9.682,3.044 9.649,3 9.61,2.961 9.59,2.941 9.569,2.927 9.549,2.909 Z m 0.661,0.766 a 5.408,5.408 0 0 1 1.006,3.11 5.407,5.407 0 0 1 -8.526,4.41 L 3.898,9.986 A 0.984,0.984 0 0 0 4.618,9.703 L 5.96,8.362 a 0.983,0.983 0 0 0 0.281,-0.72 l 1.42,-1.42 H 7.663 A 0.983,0.983 0 0 0 8.382,5.94 L 9.724,4.598 a 0.983,0.983 0 0 0 0.281,-0.72 l 0.66,-0.66 z M 8.347,3.428 C 8.325,3.652 8.374,3.896 8.554,4.076 A 0.762,0.762 0 0 0 9.079,4.289 L 8.071,5.296 A 0.763,0.763 0 0 0 7.859,4.77 C 7.679,4.59 7.435,4.541 7.211,4.562 L 8.347,3.427 Z M 9.125,3.431 9.133,3.438 C 9.156,3.461 9.174,3.485 9.193,3.508 9.183,3.512 9.168,3.52 9.158,3.522 9.125,3.529 9.111,3.529 9.102,3.528 9.102,3.518 9.101,3.505 9.108,3.472 9.11,3.461 9.121,3.444 9.125,3.432 Z M 7.311,5.318 c 0,0.01 0.001,0.024 -0.006,0.057 C 7.303,5.385 7.295,5.399 7.291,5.41 7.267,5.391 7.244,5.373 7.221,5.35 L 7.214,5.342 C 7.227,5.337 7.244,5.328 7.254,5.325 A 0.21,0.21 0 0 1 7.311,5.318 Z M 6.692,5.765 c 0.018,0.02 0.033,0.043 0.052,0.062 0.04,0.04 0.083,0.072 0.126,0.106 L 5.952,6.851 C 5.918,6.808 5.885,6.764 5.846,6.725 5.826,6.705 5.805,6.691 5.784,6.673 Z M 4.582,7.191 C 4.561,7.416 4.61,7.661 4.79,7.841 A 0.763,0.763 0 0 0 5.315,8.053 L 4.308,9.06 A 0.763,0.763 0 0 0 4.095,8.535 C 3.915,8.355 3.671,8.306 3.447,8.328 Z M 5.361,7.195 5.369,7.202 C 5.392,7.225 5.41,7.248 5.429,7.272 5.419,7.275 5.403,7.284 5.394,7.286 5.36,7.294 5.347,7.293 5.337,7.292 c 0,-0.01 0,-0.022 0.007,-0.056 C 5.346,7.225 5.356,7.208 5.361,7.195 Z M 3.547,9.083 c 0,0.01 10e-4,0.022 -0.006,0.056 C 3.539,9.149 3.53,9.163 3.527,9.173 3.503,9.155 3.48,9.136 3.457,9.113 L 3.45,9.105 C 3.463,9.101 3.48,9.091 3.491,9.089 3.524,9.082 3.538,9.082 3.547,9.083 Z M 2.928,9.53 C 2.946,9.55 2.961,9.572 2.98,9.591 3.02,9.631 3.063,9.663 3.106,9.697 L 2.552,10.251 A 5.407,5.407 0 0 1 2.378,10.08 Z"
     id="path2"
     inkscape:connector-curvature="0"
     style="fill:#bde6fb;fill-opacity:1" />
</svg>
