<?xml version="1.0" encoding="UTF-8" standalone="no"?>
<svg
   width="48"
   height="48"
   viewBox="0 0 12.7 12.7"
   version="1.1"
   id="svg4"
   sodipodi:docname="pycharm.svg"
   inkscape:version="0.92.5 (2060ec1f9f, 2020-04-08)"
   xmlns:inkscape="http://www.inkscape.org/namespaces/inkscape"
   xmlns:sodipodi="http://sodipodi.sourceforge.net/DTD/sodipodi-0.dtd"
   xmlns="http://www.w3.org/2000/svg"
   xmlns:svg="http://www.w3.org/2000/svg">
  <sodipodi:namedview
     id="namedview1"
     pagecolor="#505050"
     bordercolor="#eeeeee"
     borderopacity="1"
     inkscape:showpageshadow="0"
     inkscape:pageopacity="0"
     inkscape:pagecheckerboard="0"
     inkscape:deskcolor="#d1d1d1" />
  <defs
     id="defs8">
    <style
       id="current-color-scheme"
       type="text/css">&#10;      .ColorScheme-Highlight {&#10;        color:#1e3f5a;&#10;      }&#10;  </style>
  </defs>
  <path
     class="ColorScheme-Highlight"
     style="fill:#bde6fb;fill-opacity:1;stroke-width:0.264583"
     d="M 6.3499999,0 A 6.3499999,6.3499999 0 0 0 0,6.3499999 6.3499999,6.3499999 0 0 0 6.3499999,12.7 6.3499999,6.3499999 0 0 0 12.7,6.3499999 6.3499999,6.3499999 0 0 0 6.3499999,0 Z m 0,0.79374999 A 5.5562499,5.5562499 0 0 1 11.90625,6.3499999 5.5562499,5.5562499 0 0 1 6.3499999,11.90625 5.5562499,5.5562499 0 0 1 0.79374999,6.3499999 5.5562499,5.5562499 0 0 1 6.3499999,0.79374999 Z m 0,1.05833331 A 4.4979182,4.4979182 0 0 0 1.8520833,6.3499999 4.4979182,4.4979182 0 0 0 6.3499999,10.847917 4.4979182,4.4979182 0 0 0 10.847917,6.3499999 4.4979182,4.4979182 0 0 0 6.3499999,1.8520833 Z m 1.5875,3.175 c 0.368564,0 0.7010498,0.1506222 0.9410279,0.3937743 l -0.373104,0.375171 C 8.3614899,5.6481268 8.1602788,5.5557332 7.9374999,5.5557332 c -0.4384151,0 -0.79375,0.3553354 -0.79375,0.79375 0,0.4384146 0.3553349,0.79375 0.79375,0.79375 0.2156349,0 0.4108312,-0.086643 0.5539713,-0.2263429 L 8.8661255,7.2905111 C 8.6272073,7.5265189 8.2997139,7.6729166 7.9374999,7.6729166 7.2069848,7.6729163 6.6145833,7.0805142 6.6145833,6.3499999 c 0,-0.7305151 0.5924015,-1.3229166 1.3229166,-1.3229166 z m -3.7041666,0.0031 h 1.2087116 c 0.2558521,0 0.457014,0.075013 0.603064,0.2258258 0.1463146,0.1505479 0.2191081,0.3573984 0.2191081,0.6196005 0,0.1865312 -0.051325,0.3570801 -0.1545125,0.5115967 C 5.962067,6.6078697 5.7322846,6.7184531 5.4203409,6.7184531 H 4.7862712 V 7.6729166 H 4.2333333 Z m 0.5529379,0.4568195 v 0.7741129 h 0.5126302 c 0.1770062,0 0.2974535,-0.053546 0.3612181,-0.1612302 0.034396,-0.058737 0.051677,-0.1419119 0.051677,-0.2495973 0,-0.1296459 -0.038787,-0.2221797 -0.1147218,-0.2785359 -0.0762,-0.056356 -0.2003557,-0.08475 -0.3720703,-0.08475 z M 4.4979166,8.4666666 H 8.2020832 V 8.9958332 H 4.4979166 Z"
     id="path843" />
</svg>
