<?xml version="1.0" encoding="UTF-8" standalone="no"?>
<svg
   width="47.546455"
   height="47.542679"
   viewBox="0 0 12.58 12.579"
   version="1.1"
   id="svg4"
   sodipodi:docname="pyrenamer.svg"
   inkscape:version="0.92.4 (5da689c313, 2019-01-14)"
   xmlns:inkscape="http://www.inkscape.org/namespaces/inkscape"
   xmlns:sodipodi="http://sodipodi.sourceforge.net/DTD/sodipodi-0.dtd"
   xmlns="http://www.w3.org/2000/svg"
   xmlns:svg="http://www.w3.org/2000/svg"
   xmlns:rdf="http://www.w3.org/1999/02/22-rdf-syntax-ns#"
   xmlns:cc="http://creativecommons.org/ns#"
   xmlns:dc="http://purl.org/dc/elements/1.1/">
  <metadata
     id="metadata10">
    <rdf:RDF>
      <cc:Work
         rdf:about="">
        <dc:format>image/svg+xml</dc:format>
        <dc:type
           rdf:resource="http://purl.org/dc/dcmitype/StillImage" />
        <dc:title />
      </cc:Work>
    </rdf:RDF>
  </metadata>
  <defs
     id="defs8" />
  <sodipodi:namedview
     pagecolor="#ffffff"
     bordercolor="#666666"
     borderopacity="1"
     objecttolerance="10"
     gridtolerance="10"
     guidetolerance="10"
     inkscape:pageopacity="0"
     inkscape:pageshadow="2"
     inkscape:window-width="1087"
     inkscape:window-height="480"
     id="namedview6"
     showgrid="false"
     inkscape:zoom="4.9166667"
     inkscape:cx="2.1355932"
     inkscape:cy="24"
     inkscape:window-x="0"
     inkscape:window-y="25"
     inkscape:window-maximized="0"
     inkscape:current-layer="svg4"
     inkscape:showpageshadow="0"
     inkscape:pagecheckerboard="0"
     inkscape:deskcolor="#d1d1d1" />
  <path
     d="M 6.29,9.9999565e-4 A 6.29,6.29 0 0 0 0,6.291 6.29,6.29 0 0 0 6.29,12.579 6.29,6.29 0 0 0 12.58,6.29 6.29,6.29 0 0 0 6.29,0 Z M 6.272,0.937 A 5.407,5.407 0 0 1 11.679,6.344 5.407,5.407 0 0 1 6.272,11.751 5.407,5.407 0 0 1 0.866,6.344 5.407,5.407 0 0 1 6.272,0.938 Z M 9.606,2.436 8.391,3.65 C 5.933,1.145 1.466,2.708 2.622,6.71 2.893,7.647 3.827,7.249 3.702,6.6 3.27,4.332 5.106,3.854 6.584,5.457 L 5.27,6.771 9.91,6.973 Z m -1.62,5.027 v 2.639 h 1.13 c 0.35,0 0.612,-0.063 0.784,-0.188 0.172,-0.125 0.258,-0.315 0.258,-0.569 a 0.714,0.714 0 0 0 -0.12,-0.42 0.606,0.606 0 0 0 -0.34,-0.236 0.534,0.534 0 0 0 0.262,-0.2 c 0.06,-0.09 0.09,-0.2 0.09,-0.328 C 10.05,7.917 9.968,7.74 9.803,7.629 9.639,7.518 9.373,7.463 9.007,7.463 H 7.987 Z M 3.493,7.482 2.516,10.12 H 3.2 L 3.367,9.639 H 4.432 L 4.597,10.12 H 5.281 L 4.304,7.482 h -0.81 z m 5.174,0.443 h 0.376 c 0.107,0 0.189,0.024 0.244,0.073 C 9.342,8.045 9.37,8.114 9.37,8.204 9.37,8.296 9.342,8.366 9.287,8.413 9.232,8.46 9.15,8.483 9.043,8.483 H 8.666 V 7.925 Z M 3.9,8.1 4.26,9.15 H 3.536 L 3.899,8.1 Z m 4.767,0.847 h 0.4 c 0.137,0 0.24,0.029 0.308,0.086 0.068,0.057 0.103,0.142 0.103,0.257 0,0.116 -0.035,0.203 -0.105,0.261 -0.068,0.058 -0.17,0.086 -0.307,0.086 h -0.4 v -0.69 z"
     id="path2"
     inkscape:connector-curvature="0"
     style="fill:#bde6fb;fill-opacity:1" />
</svg>
