<?xml version="1.0" encoding="UTF-8" standalone="no"?>
<svg
   width="47.542679"
   height="47.546455"
   viewBox="0 0 12.579 12.58"
   version="1.1"
   id="svg4"
   sodipodi:docname="pyrit.svg"
   inkscape:version="0.92.5 (2060ec1f9f, 2020-04-08)"
   xmlns:inkscape="http://www.inkscape.org/namespaces/inkscape"
   xmlns:sodipodi="http://sodipodi.sourceforge.net/DTD/sodipodi-0.dtd"
   xmlns="http://www.w3.org/2000/svg"
   xmlns:svg="http://www.w3.org/2000/svg"
   xmlns:rdf="http://www.w3.org/1999/02/22-rdf-syntax-ns#"
   xmlns:cc="http://creativecommons.org/ns#"
   xmlns:dc="http://purl.org/dc/elements/1.1/">
  <metadata
     id="metadata10">
    <rdf:RDF>
      <cc:Work
         rdf:about="">
        <dc:format>image/svg+xml</dc:format>
        <dc:type
           rdf:resource="http://purl.org/dc/dcmitype/StillImage" />
        <dc:title />
      </cc:Work>
    </rdf:RDF>
  </metadata>
  <defs
     id="defs8" />
  <sodipodi:namedview
     pagecolor="#ffffff"
     bordercolor="#666666"
     borderopacity="1"
     objecttolerance="10"
     gridtolerance="10"
     guidetolerance="10"
     inkscape:pageopacity="0"
     inkscape:pageshadow="2"
     inkscape:window-width="1085"
     inkscape:window-height="480"
     id="namedview6"
     showgrid="false"
     inkscape:zoom="4.9166667"
     inkscape:cx="2.1355932"
     inkscape:cy="24"
     inkscape:window-x="0"
     inkscape:window-y="25"
     inkscape:window-maximized="0"
     inkscape:current-layer="svg4"
     inkscape:showpageshadow="0"
     inkscape:pagecheckerboard="0"
     inkscape:deskcolor="#d1d1d1" />
  <path
     d="M 6.285,0 A 6.295,6.295 0 0 0 0,6.285 a 6.295,6.295 0 0 0 1.819,4.419 6.295,6.295 0 0 0 0.208,0.2 6.295,6.295 0 0 0 0.375,0.326 6.295,6.295 0 0 0 0.492,0.352 6.295,6.295 0 0 0 0.31,0.178 6.295,6.295 0 0 0 3.081,0.82 A 6.295,6.295 0 0 0 12.579,6.285 6.295,6.295 0 0 0 6.285,0 Z M 6.274,0.94 A 5.408,5.408 0 0 1 11.671,6.327 5.407,5.407 0 0 1 10.882,9.126 2.35,2.35 0 0 1 10.533,9.195 0.636,0.636 0 0 1 10.389,9.172 0.915,0.915 0 0 0 10.109,9.144 0.804,0.804 0 0 0 9.649,9.257 L 9.578,9.295 9.31,9.29 V 9.283 C 9.312,9.263 9.322,9.212 9.345,9.138 9.369,9.064 9.405,8.966 9.452,8.844 A 1.27,1.27 0 0 1 9.616,8.524 C 9.704,8.405 9.761,8.282 9.811,8.104 9.842,7.996 9.86,7.934 9.872,7.899 9.883,7.868 9.885,7.869 9.887,7.867 a 2.549,2.549 0 0 1 0.21,-0.016 C 10.345,7.842 10.372,7.834 10.56,7.704 10.835,7.514 10.963,7.246 11.004,6.79 11.023,6.575 11.033,6.496 11.063,6.335 V 5.651 a 0.047,0.047 0 0 0 -0.015,0 c -0.022,0.003 -0.031,0.015 -0.035,0.02 -0.01,0.013 -0.008,0.016 -0.01,0.02 -0.004,0.014 -0.005,0.023 -0.008,0.04 C 10.994,5.744 10.991,5.749 10.989,5.762 10.986,5.743 10.984,5.737 10.982,5.715 L 10.968,5.625 A 0.326,0.326 0 0 0 10.953,5.56 1.664,1.664 0 0 1 10.923,5.452 1.47,1.47 0 0 0 10.756,5.072 0.974,0.974 0 0 0 10.47,4.805 1.154,1.154 0 0 0 10.247,4.718 L 10.144,4.69 10.104,4.572 A 1.758,1.758 0 0 0 9.978,4.285 0.5,0.5 0 0 0 9.838,4.106 C 9.841,4.103 9.846,4.09 9.87,4.061 9.965,3.947 9.994,3.866 9.987,3.738 A 0.46,0.46 0 0 0 9.932,3.524 C 9.831,3.325 9.635,3.178 9.366,3.089 9.236,3.046 9.216,3.043 8.99,3.046 A 1.219,1.219 0 0 1 8.775,3.041 C 8.742,3.034 8.725,3.021 8.667,2.98 A 3.415,3.415 0 0 0 8.209,2.731 2.595,2.595 0 0 0 7.229,2.531 V 2.528 2.529 H 7.169 A 3.046,3.046 0 0 0 5.988,2.795 C 5.95,2.815 5.931,2.815 5.932,2.816 A 0.109,0.109 0 0 1 5.922,2.793 0.308,0.308 0 0 0 5.867,2.696 C 5.844,2.67 5.814,2.648 5.775,2.648 5.755,2.648 5.748,2.653 5.738,2.657 A 1.04,1.04 0 0 0 5.62,2.718 L 5.488,2.798 C 5.472,2.808 5.463,2.808 5.447,2.832 A 0.053,0.053 0 0 0 5.437,2.864 C 5.437,2.88 5.449,2.901 5.46,2.909 5.483,2.926 5.492,2.921 5.5,2.921 5.534,2.92 5.566,2.909 5.623,2.891 a 0.393,0.393 0 0 1 0.12,-0.024 c 0.022,0 0.03,0.005 0.05,0.022 0.003,0.003 0.008,0.02 0.01,0.022 C 5.802,2.915 5.798,2.924 5.789,2.937 A 0.465,0.465 0 0 1 5.719,3.005 1.77,1.77 0 0 1 5.447,3.182 0.432,0.432 0 0 1 5.347,3.228 C 5.332,3.23 5.323,3.228 5.291,3.215 A 0.464,0.464 0 0 0 5.118,3.191 C 5.098,3.191 5.101,3.19 5.087,3.188 L 5.116,3.165 C 5.134,3.149 5.185,3.113 5.221,3.09 A 0.69,0.69 0 0 0 5.29,3.04 L 5.3,3.028 C 5.304,3.022 5.315,3.01 5.306,2.982 A 0.06,0.06 0 0 0 5.278,2.949 0.054,0.054 0 0 0 5.255,2.943 c -0.01,0 -0.015,0.002 -0.019,0.003 A 0.641,0.641 0 0 0 5.16,2.984 C 5.125,3.005 5.049,3.05 4.99,3.083 4.932,3.117 4.874,3.151 4.85,3.168 L 4.758,3.234 4.847,3.296 C 4.853,3.301 4.851,3.297 4.851,3.299 A 0.09,0.09 0 0 1 4.837,3.336 1.3,1.3 0 0 1 4.646,3.557 C 4.518,3.685 4.459,3.753 4.426,3.82 4.398,3.88 4.38,3.935 4.396,3.99 4.414,4.047 4.454,4.09 4.517,4.15 a 0.544,0.544 0 0 1 0.1,0.116 C 4.634,4.296 4.64,4.32 4.64,4.356 A 0.976,0.976 0 0 1 4.575,4.598 L 4.535,4.605 A 4.083,4.083 0 0 1 4.11,4.651 C 4.092,4.654 4.082,4.651 4.057,4.667 4.028,4.685 4.014,4.73 4.028,4.76 c 0.013,0.03 0.044,0.046 0.076,0.046 -0.01,0 -0.005,-0.001 0.003,0.005 a 0.492,0.492 0 0 1 0.106,0.14 c 0.013,0.027 0.026,0.05 0.038,0.068 a 0.12,0.12 0 0 0 0.021,0.025 0.076,0.076 0 0 0 0.02,0.01 L 4.268,5.059 4.266,5.083 A 0.074,0.074 0 0 0 4.256,5.11 c -0.001,0.015 0,0.028 0,0.047 V 5.194 C 4.257,5.205 4.254,5.216 4.269,5.237 L 4.265,5.246 a 3.32,3.32 0 0 0 0.022,0.373 c 0.002,0.005 0,0.007 0.01,0.022 a 0.07,0.07 0 0 0 0.04,0.032 C 4.332,5.677 4.327,5.679 4.317,5.688 4.313,5.693 4.304,5.701 4.301,5.721 4.298,5.741 4.313,5.766 4.324,5.773 4.346,5.788 4.351,5.783 4.359,5.785 h 0.024 c 0.005,0 0.013,0.004 0.02,0.007 C 4.4,5.797 4.399,5.8 4.393,5.806 4.373,5.829 4.341,5.861 4.294,5.903 A 0.511,0.511 0 0 1 4.066,6.039 1.508,1.508 0 0 1 3.684,6.126 C 3.659,6.13 3.642,6.14 3.619,6.151 A 0.594,0.594 0 0 0 3.549,6.194 C 3.506,6.224 3.459,6.254 3.419,6.274 3.38,6.294 3.34,6.302 3.346,6.302 A 0.118,0.118 0 0 0 3.304,6.31 0.066,0.066 0 0 0 3.262,6.346 C 3.252,6.37 3.263,6.403 3.277,6.416 A 0.087,0.087 0 0 0 3.318,6.438 C 3.343,6.445 3.36,6.444 3.392,6.446 L 3.501,6.448 A 0.458,0.458 0 0 0 3.747,6.403 0.372,0.372 0 0 1 3.831,6.371 c 10e-4,0 0.005,0.004 0.011,0.013 0.012,0.014 0.015,0.024 0.015,0.036 A 0.094,0.094 0 0 1 3.84,6.47 C 3.827,6.492 3.822,6.498 3.775,6.504 A 1.504,1.504 0 0 1 3.505,6.496 1.83,1.83 0 0 0 3.406,6.49 H 3.375 c -0.004,0 -0.008,0 -0.017,0.003 -0.004,10e-4 -0.01,0 -0.025,0.015 a 0.059,0.059 0 0 0 -0.016,0.04 c 10e-4,0.017 0.01,0.028 0.015,0.034 0.015,0.017 0.018,0.013 0.022,0.014 l 0.008,0.003 0.017,0.004 0.05,0.009 0.153,0.023 a 27.274,27.274 0 0 1 0.419,0.06 L 3.999,6.701 A 0.146,0.146 0 0 1 3.942,6.759 C 3.91,6.775 3.902,6.778 3.885,6.777 A 0.48,0.48 0 0 1 3.778,6.749 0.638,0.638 0 0 0 3.578,6.713 c -0.07,0 -0.144,-0.006 -0.387,-0.03 A 0.084,0.084 0 0 0 3.15,6.687 0.084,0.084 0 0 0 3.11,6.723 C 3.094,6.749 3.09,6.774 3.079,6.82 3.036,7.003 2.893,7.255 2.725,7.437 A 2.274,2.274 0 0 0 2.608,7.575 L 2.598,7.59 c -0.004,0.006 -0.01,0.006 -0.01,0.033 0,0.019 0.016,0.05 0.037,0.06 0.022,0.011 0.039,0.01 0.055,0.008 A 0.692,0.692 0 0 0 2.811,7.656 0.567,0.567 0 0 1 2.891,7.635 c 0.014,-0.002 0.014,-10e-4 0.016,0 H 2.905 c 0,0.008 -0.01,0.032 -0.034,0.059 A 0.327,0.327 0 0 0 2.805,7.824 C 2.785,7.888 2.762,7.99 2.72,8.178 A 1.749,1.749 0 0 1 2.672,8.345 C 2.631,8.429 2.625,8.52 2.647,8.67 2.682,8.917 2.76,9.197 2.841,9.346 2.871,9.403 2.893,9.467 2.921,9.601 2.948,9.731 2.959,9.817 2.957,9.873 2.955,9.928 2.944,9.953 2.917,9.983 2.904,9.996 2.89,9.999 2.885,10.035 a 0.073,0.073 0 0 0 0.021,0.055 c 0.011,0.01 0.019,0.011 0.025,0.014 0.007,0.003 0.015,0 0.022,0.002 v 0.035 a 0.394,0.394 0 0 0 -0.029,0.006 c -0.038,0.007 -0.07,0.01 -0.096,0.045 a 0.085,0.085 0 0 0 -0.014,0.062 c 0.003,0.017 0.009,0.031 0.017,0.045 0.004,0.008 0.009,0.02 0.027,0.031 0.018,0.011 0.046,0.01 0.06,0.004 0.028,-0.012 0.04,-0.027 0.067,-0.051 l 0.021,-0.02 0.053,0.052 v -0.082 a 0.129,0.129 0 0 0 0.022,-0.004 l 0.027,-0.01 A 1.32,1.32 0 0 0 3.236,10.158 L 3.256,10.145 3.293,10.14 3.283,10.093 A 0.055,0.055 0 0 0 3.27,10.058 C 3.253,10.041 3.24,10.043 3.235,10.042 H 3.223 v 10e-4 L 3.166,10.05 3.168,10.06 A 2.088,2.088 0 0 0 3.05,10.109 L 3.026,10.12 3.019,10.126 2.997,10.104 c 0.01,-0.003 0.022,-0.005 0.031,-0.011 A 0.24,0.24 0 0 0 3.093,10.013 0.252,0.252 0 0 0 3.131,9.915 C 3.136,9.876 3.136,9.829 3.135,9.739 3.135,9.607 3.125,9.503 3.105,9.399 A 7.43,7.43 0 0 1 3.062,9.157 1.223,1.223 0 0 0 3.02,8.976 1.378,1.378 0 0 1 2.974,8.603 C 2.973,8.463 2.991,8.323 3.013,8.276 3.08,8.129 3.125,7.909 3.142,7.67 A 1.7,1.7 0 0 1 3.182,7.351 C 3.189,7.33 3.194,7.324 3.194,7.325 l 0.01,0.002 C 3.219,7.331 3.211,7.323 3.215,7.337 A 0.41,0.41 0 0 1 3.211,7.457 C 3.202,7.523 3.187,7.661 3.176,7.767 3.166,7.873 3.151,8.01 3.143,8.071 3.134,8.14 3.127,8.301 3.126,8.441 3.125,8.564 3.124,8.627 3.128,8.673 A 0.333,0.333 0 0 0 3.408,8.948 0.251,0.251 0 0 0 3.658,8.828 0.992,0.992 0 0 0 3.742,8.6 C 3.769,8.5 3.795,8.378 3.818,8.245 3.838,8.127 3.87,7.987 3.882,7.952 A 0.26,0.26 0 0 1 3.925,7.871 C 3.938,7.856 3.946,7.853 3.948,7.853 3.95,7.855 3.97,7.861 3.985,7.871 3.995,7.877 4.003,7.884 4.008,7.889 4.01,7.892 4.009,7.889 4.01,7.89 A 0.957,0.957 0 0 1 3.98,8.009 C 3.956,8.082 3.924,8.21 3.905,8.302 A 4.571,4.571 0 0 1 3.881,8.42 L 3.871,8.457 3.869,8.467 3.872,8.461 C 3.864,8.474 3.865,8.475 3.864,8.48 L 3.86,8.494 A 30.881,30.881 0 0 0 3.669,9.474 0.151,0.151 0 0 0 3.665,9.418 C 3.66,9.402 3.657,9.387 3.648,9.37 A 0.102,0.102 0 0 0 3.605,9.329 C 3.567,9.311 3.535,9.315 3.485,9.319 3.441,9.322 3.422,9.321 3.422,9.321 L 3.407,9.302 A 0.431,0.431 0 0 1 3.366,9.213 1.469,1.469 0 0 1 3.321,9.053 0.28,0.28 0 0 0 3.251,8.925 C 3.244,8.919 3.237,8.912 3.227,8.907 L 3.221,8.899 H 3.195 A 0.062,0.062 0 0 0 3.152,8.916 0.1,0.1 0 0 0 3.133,8.937 0.35,0.35 0 0 0 3.09,9.097 1.174,1.174 0 0 0 3.19,9.427 C 3.226,9.498 3.3,9.563 3.378,9.601 3.45,9.637 3.528,9.634 3.588,9.6 A 0.166,0.166 0 0 0 3.666,9.495 L 3.655,9.558 A 6.23,6.23 0 0 1 3.615,9.775 3.68,3.68 0 0 0 3.58,9.963 1.126,1.126 0 0 1 3.56,10.061 v 10e-4 a 1.031,1.031 0 0 1 -0.11,0.057 1.803,1.803 0 0 0 -0.302,0.16 1.134,1.134 0 0 0 -0.136,0.116 0.177,0.177 0 0 0 -0.014,0.017 c -0.004,0.006 -0.013,0.009 -0.013,0.038 0,0.023 0.013,0.037 0.021,0.043 0.008,0.007 0.014,0.009 0.018,0.01 0.01,0.005 0.018,0.006 0.027,0.007 a 0.382,0.382 0 0 0 0.059,0.005 c 0.037,0 0.067,0.004 0.085,0.01 0.005,0 0.005,0.002 0.008,0.003 L 3.201,10.535 A 0.946,0.946 0 0 1 3.168,10.62 c -0.01,0.024 -0.035,0.073 -0.049,0.103 A 5.407,5.407 0 0 1 2.483,10.182 c 0.006,10e-4 0.013,0.009 0.02,0.01 0.011,0 0.025,0.002 0.042,-0.007 A 0.071,0.071 0 0 0 2.58,10.135 C 2.584,10.101 2.57,10.087 2.558,10.067 2.522,10.012 2.497,9.882 2.455,9.371 2.411,8.819 2.442,7.827 2.512,7.471 L 2.54,7.328 a 0.27,0.27 0 0 1 0.063,-0.1 C 2.643,7.184 2.693,7.118 2.721,7.076 A 4.172,4.172 0 0 0 3.019,6.464 0.753,0.753 0 0 0 3.055,6.37 C 3.057,6.362 3.081,6.295 3.103,6.24 L 3.129,6.178 C 3.135,6.167 3.137,6.167 3.139,6.165 A 0.648,0.648 0 0 1 3.259,6.152 1.02,1.02 0 0 0 3.531,6.091 C 3.624,6.059 3.711,6.027 3.778,6.001 A 0.937,0.937 0 0 0 3.92,5.939 L 3.939,5.925 C 3.943,5.921 3.952,5.918 3.957,5.893 A 0.062,0.062 0 0 0 3.944,5.848 C 3.942,5.845 3.94,5.845 3.938,5.844 3.966,5.832 4.004,5.821 4.026,5.81 4.061,5.793 4.085,5.784 4.106,5.759 4.127,5.734 4.131,5.703 4.132,5.677 4.134,5.645 4.128,5.614 4.119,5.567 A 3.165,3.165 0 0 0 4.029,5.22 0.152,0.152 0 0 0 4.019,5.2 C 4.017,5.196 4.013,5.189 4.004,5.182 L 3.996,5.174 3.986,5.171 A 0.065,0.065 0 0 0 3.936,5.177 0.058,0.058 0 0 0 3.916,5.199 C 3.909,5.211 3.907,5.221 3.904,5.231 a 0.528,0.528 0 0 0 -0.01,0.08 0.78,0.78 0 0 1 -0.01,0.072 L 3.881,5.402 A 0.176,0.176 0 0 0 3.851,5.363 0.086,0.086 0 0 0 3.831,5.348 0.058,0.058 0 0 0 3.782,5.343 C 3.767,5.348 3.765,5.352 3.762,5.355 A 0.112,0.112 0 0 0 3.752,5.363 L 3.735,5.383 A 4.316,4.316 0 0 0 3.57,5.612 3.823,3.823 0 0 1 3.423,5.782 L 3.337,5.876 3.31,5.906 a 0.403,0.403 0 0 0 -0.009,0.01 c 0,0.003 -0.002,0.004 -0.004,0.007 A 0.047,0.047 0 0 0 3.294,5.929 C 3.292,5.932 3.288,5.934 3.288,5.953 3.288,5.968 3.299,5.99 3.312,5.999 3.315,6.001 3.317,6 3.319,6.002 A 0.88,0.88 0 0 1 3.159,6.006 C 3.103,6.001 3.076,5.996 3.045,6.002 A 0.084,0.084 0 0 0 2.996,6.031 C 2.985,6.046 2.983,6.058 2.981,6.066 a 0.303,0.303 0 0 0 -0.01,0.075 c 0,-0.007 -0.005,0.023 -0.014,0.055 A 2.506,2.506 0 0 1 2.824,6.544 C 2.774,6.642 2.628,6.888 2.594,6.933 A 24.95,24.95 0 0 1 2.484,7.077 0.717,0.717 0 0 0 2.359,7.309 2.37,2.37 0 0 0 2.285,7.692 C 2.25,7.949 2.249,7.984 2.249,8.56 A 44.012,44.012 0 0 0 2.258,9.608 C 2.248,9.613 2.236,9.616 2.227,9.623 A 0.361,0.361 0 0 0 2.179,9.66 C 2.153,9.685 2.077,9.677 2.041,9.694 A 5.407,5.407 0 0 1 0.857,6.327 C 0.857,3.34 3.287,0.94 6.274,0.94 Z m 0.971,1.801 c 0.289,0.003 0.588,0.059 0.84,0.163 0.248,0.102 0.44,0.218 0.674,0.409 0.073,0.059 0.109,0.093 0.16,0.106 A 0.11,0.11 0 0 0 8.997,3.408 C 9.017,3.395 9.031,3.38 9.046,3.363 9.106,3.294 9.141,3.257 9.16,3.242 9.178,3.226 9.17,3.23 9.189,3.23 c 0.015,0 0.012,10e-4 0.012,10e-4 0,0 0.008,0.007 0.02,0.027 a 0.27,0.27 0 0 0 0.083,0.089 0.62,0.62 0 0 0 0.143,0.06 c 0.055,0.017 0.123,0.044 0.132,0.049 0.046,0.023 0.16,0.123 0.208,0.188 0.04,0.054 0.049,0.079 0.041,0.113 A 0.5,0.5 0 0 1 9.708,3.93 1.865,1.865 0 0 1 9.582,4.06 0.063,0.063 0 0 0 9.58,4.03 0.106,0.106 0 0 0 9.568,4.004 0.375,0.375 0 0 0 9.53,3.954 1.677,1.677 0 0 0 9.406,3.828 4.151,4.151 0 0 0 9.04,3.525 2.958,2.958 0 0 0 8.169,3.113 3.22,3.22 0 0 0 6.659,3.093 C 6.483,3.135 6.161,3.233 6.054,3.281 L 5.855,3.369 A 4.482,4.482 0 0 0 5.51,3.538 L 5.49,3.546 A 0.079,0.079 0 0 0 5.466,3.506 0.089,0.089 0 0 0 5.42,3.486 C 5.392,3.482 5.364,3.491 5.328,3.511 5.292,3.531 5.24,3.564 5.152,3.621 L 4.959,3.748 5.122,3.768 A 10.028,10.028 0 0 0 4.747,4.022 0.303,0.303 0 0 1 4.71,4.045 L 4.701,4.048 A 0.034,0.034 0 0 1 4.695,4.034 0.117,0.117 0 0 1 4.705,3.958 C 4.715,3.938 4.79,3.861 4.921,3.762 4.975,3.722 5.052,3.662 5.094,3.628 5.201,3.542 5.209,3.536 5.304,3.508 A 0.399,0.399 0 0 0 5.427,3.454 0.155,0.155 0 0 0 5.483,3.36 c 0.004,-0.017 0,-0.009 0.004,-0.012 A 0.48,0.48 0 0 1 5.561,3.313 C 5.589,3.302 5.617,3.29 5.64,3.279 L 5.67,3.265 5.694,3.25 A 4.295,4.295 0 0 1 6.349,2.915 C 6.442,2.879 6.649,2.819 6.789,2.787 A 2,2 0 0 1 7.188,2.742 h 0.057 z m 0.01,0.052 A 3.416,3.416 0 0 0 6.509,2.901 0.194,0.194 0 0 0 6.482,2.913 C 6.472,2.918 6.462,2.923 6.452,2.94 6.445,2.951 6.439,2.98 6.452,3 6.465,3.02 6.481,3.024 6.49,3.026 6.509,3.03 6.52,3.027 6.532,3.025 6.542,3.022 6.604,3.013 6.658,3.005 L 6.891,2.972 A 3.588,3.588 0 0 1 7.909,3.01 l 0.04,0.005 a 0.07,0.07 0 0 0 0.013,0 C 7.967,3.016 7.968,3.02 7.99,3.011 7.995,3.008 8.003,3.004 8.01,2.995 A 0.06,0.06 0 0 0 8.021,2.955 C 8.018,2.93 8.008,2.925 8.003,2.921 7.995,2.913 7.991,2.913 7.987,2.911 A 0.428,0.428 0 0 0 7.962,2.898 1.375,1.375 0 0 0 7.646,2.827 2.897,2.897 0 0 0 7.256,2.793 Z m 0.191,0.57 h 0.09 l 0.023,0.033 c 0.09,0.13 0.3,0.5 0.39,0.685 l 0.13,0.27 0.043,-0.196 C 8.127,4.133 8.127,4.11 8.128,4.08 c 0,-0.03 0,-0.064 -0.003,-0.096 V 3.982 L 8.139,3.997 8.183,4.045 C 8.194,4.057 8.2,4.065 8.216,4.075 A 0.056,0.056 0 0 0 8.265,4.08 0.06,0.06 0 0 0 8.302,4.042 C 8.308,4.022 8.306,4.015 8.306,4.005 A 0.992,0.992 0 0 0 8.252,3.745 0.938,0.938 0 0 0 8.133,3.474 C 8.131,3.462 8.128,3.458 8.125,3.453 A 0.174,0.174 0 0 0 8.114,3.433 L 8.106,3.423 8.129,3.436 A 0.987,0.987 0 0 1 8.26,3.537 c 0.15,0.144 0.219,0.311 0.219,0.54 a 0.762,0.762 0 0 0 0.009,0.124 c 0,0.005 0.002,0.01 0.004,0.017 0.003,0.006 0.002,0.016 0.025,0.03 0.017,0.01 0.037,0.01 0.05,0.006 C 8.579,4.25 8.587,4.244 8.593,4.239 A 0.17,0.17 0 0 0 8.625,4.205 0.48,0.48 0 0 0 8.678,4.108 V 4.107 A 0.468,0.468 0 0 1 8.77,4.241 L 8.777,4.259 8.757,4.261 A 0.316,0.316 0 0 0 8.707,4.267 C 8.691,4.27 8.679,4.272 8.661,4.287 A 0.062,0.062 0 0 0 8.639,4.33 C 8.638,4.35 8.649,4.367 8.657,4.375 8.673,4.392 8.687,4.395 8.702,4.4 8.697,4.398 8.732,4.417 8.75,4.431 8.775,4.452 8.78,4.474 8.763,4.504 A 0.103,0.103 0 0 0 8.751,4.538 C 8.75,4.545 8.748,4.554 8.753,4.57 8.755,4.575 8.763,4.581 8.768,4.587 L 8.715,4.625 A 0.34,0.34 0 0 1 8.669,4.655 L 8.661,4.659 8.655,4.653 A 0.349,0.349 0 0 1 8.62,4.609 C 8.616,4.602 8.617,4.596 8.594,4.583 A 0.055,0.055 0 0 0 8.566,4.576 0.061,0.061 0 0 0 8.531,4.59 C 8.514,4.604 8.514,4.615 8.512,4.622 c -0.006,0.028 -0.002,0.041 0,0.076 0.004,0.04 0.002,0.051 0.002,0.057 -0.012,0 -0.023,0 -0.034,0.004 A 0.073,0.073 0 0 0 8.457,4.769 0.056,0.056 0 0 0 8.429,4.819 C 8.43,4.836 8.433,4.838 8.435,4.843 L 8.442,4.86 8.467,4.906 C 8.488,4.945 8.519,4.999 8.562,5.072 8.61,5.154 8.825,5.576 8.86,5.656 a 1.86,1.86 0 0 1 0.132,0.42 L 9,6.103 C 9,6.107 9.002,6.11 9.003,6.114 9.004,6.118 8.999,6.119 9.017,6.136 A 0.06,0.06 0 0 0 9.09,6.144 0.098,0.098 0 0 0 9.118,6.12 C 9.142,6.09 9.14,6.063 9.138,6.032 A 0.695,0.695 0 0 0 9.122,5.916 4.458,4.458 0 0 0 9.035,5.604 C 9.038,5.606 9.04,5.61 9.044,5.612 9.06,5.623 9.093,5.671 9.116,5.745 9.139,5.82 9.157,5.92 9.164,6.032 L 9.172,6.162 9.138,6.195 A 0.807,0.807 0 0 0 9.032,6.32 10.668,10.668 0 0 0 8.562,7.104 L 8.339,7.5 A 0.173,0.173 0 0 0 8.322,7.545 0.076,0.076 0 0 0 8.319,7.573 C 8.32,7.579 8.322,7.587 8.327,7.597 A 0.06,0.06 0 0 0 8.357,7.622 0.066,0.066 0 0 0 8.394,7.626 0.824,0.824 0 0 0 8.272,7.732 0.17,0.17 0 0 0 8.239,7.782 0.078,0.078 0 0 0 8.232,7.817 c 0.001,0.014 0.008,0.032 0.02,0.044 0.018,0.019 0.033,0.017 0.041,0.017 0.009,0 0.015,0 0.021,-0.002 L 8.329,7.871 A 0.25,0.25 0 0 0 8.323,7.886 0.103,0.103 0 0 0 8.315,7.921 c 0,0.008 0,0.017 0.006,0.032 a 0.068,0.068 0 0 0 0.051,0.032 c 0.024,0 0.023,-0.004 0.027,-0.006 A 0.132,0.132 0 0 0 8.408,7.974 L 8.425,7.961 8.47,7.927 c 0.024,-0.02 0.037,-0.026 0.042,-0.029 0.013,0.011 0.03,0.021 0.046,0.02 0.022,0 0.033,-0.01 0.045,-0.017 A 0.762,0.762 0 0 0 8.693,7.825 0.476,0.476 0 0 0 8.849,7.604 C 8.876,7.534 8.896,7.464 8.906,7.406 A 0.434,0.434 0 0 0 8.914,7.327 0.134,0.134 0 0 0 8.903,7.275 C 8.905,7.272 8.904,7.272 8.913,7.263 A 0.297,0.297 0 0 0 8.973,7.167 C 8.993,7.122 9.013,7.057 9.051,6.942 9.058,6.919 9.065,6.899 9.073,6.88 A 0.448,0.448 0 0 1 9.066,7.023 8.74,8.74 0 0 0 8.979,7.635 7.82,7.82 0 0 1 8.934,7.963 4.491,4.491 0 0 0 8.889,8.291 L 8.881,8.323 8.874,8.333 8.837,8.38 8.684,8.566 A 298.685,298.685 0 0 1 7.618,9.846 L 7.603,9.859 A 0.682,0.682 0 0 1 7.497,9.896 C 7.437,9.912 7.357,9.93 7.265,9.948 a 8.24,8.24 0 0 1 -0.636,0.096 c -0.168,0.018 -0.352,0.04 -0.412,0.047 A 0.585,0.585 0 0 1 6.048,10.099 C 6.042,10.096 6.04,10.095 6.032,10.082 A 0.503,0.503 0 0 1 6.003,10.012 1.346,1.346 0 0 0 5.966,9.925 C 5.963,9.919 5.962,9.915 5.954,9.905 c 0.008,0.01 0.001,0 -0.003,-0.007 A 1.643,1.643 0 0 1 5.895,9.771 22.214,22.214 0 0 0 5.721,9.372 8.341,8.341 0 0 1 5.535,8.925 2.383,2.383 0 0 0 4.998,8.071 0.162,0.162 0 0 1 4.95,8.003 L 4.949,7.981 4.948,7.923 4.946,7.723 V 7.097 L 4.95,6.241 5.007,6.119 A 7.73,7.73 0 0 0 5.347,5.055 C 5.357,5.01 5.375,4.943 5.386,4.912 a 0.484,0.484 0 0 0 0.02,-0.079 c 0.002,-0.01 0.003,-0.02 0,-0.036 A 0.056,0.056 0 0 0 5.389,4.767 0.065,0.065 0 0 0 5.343,4.751 C 5.316,4.754 5.31,4.764 5.302,4.771 A 0.858,0.858 0 0 0 5.229,4.874 l -0.06,0.1 -0.038,10e-4 C 5.085,4.978 5.081,4.977 5.051,4.957 5.028,4.942 5.028,4.937 5.027,4.932 5.027,4.927 5.031,4.907 5.053,4.872 A 0.304,0.304 0 0 1 5.242,4.746 0.223,0.223 0 0 0 5.386,4.669 C 5.469,4.576 5.493,4.511 5.492,4.375 A 0.448,0.448 0 0 0 5.474,4.217 C 5.457,4.169 5.427,4.124 5.375,4.043 A 0.516,0.516 0 0 1 5.335,3.972 L 5.332,3.968 C 5.334,3.966 5.34,3.958 5.35,3.949 A 0.76,0.76 0 0 1 5.423,3.897 3.3,3.3 0 0 1 5.691,3.747 c 0.191,-0.098 0.255,-0.12 0.324,-0.12 0.03,0 0.02,-0.006 0.05,0.016 0.03,0.022 0.084,0.075 0.193,0.178 A 12.571,12.571 0 0 1 6.726,4.29 L 6.738,4.3 c 0.004,0.003 10e-4,0.004 0.018,0.012 a 0.063,0.063 0 0 0 0.049,0 A 0.065,0.065 0 0 0 6.831,4.29 C 6.838,4.28 6.839,4.27 6.841,4.261 6.853,4.262 6.864,4.262 6.877,4.258 A 0.059,0.059 0 0 0 6.917,4.203 C 6.917,4.182 6.912,4.18 6.909,4.175 L 6.902,4.162 A 1.966,1.966 0 0 0 6.707,3.92 L 6.658,3.874 6.592,3.923 6.542,3.878 A 6.855,6.855 0 0 0 6.296,3.651 L 6.181,3.553 C 6.191,3.547 6.198,3.541 6.233,3.529 A 1.353,1.353 0 0 1 6.337,3.497 c 0.004,0.002 0.014,0.006 0.028,0.015 a 0.902,0.902 0 0 1 0.09,0.078 c 0.073,0.072 0.173,0.18 0.296,0.323 0.077,0.09 0.175,0.21 0.214,0.26 a 0.82,0.82 0 0 0 0.077,0.09 c 0.01,0.01 0.015,0.02 0.044,0.026 C 7.1,4.292 7.13,4.285 7.143,4.269 7.156,4.251 7.155,4.239 7.155,4.229 7.155,4.203 7.148,4.183 7.14,4.151 A 2.169,2.169 0 0 0 7.025,3.825 0.925,0.925 0 0 0 6.733,3.463 0.492,0.492 0 0 1 6.675,3.416 c 0,0 -0.004,0 0.007,-0.003 a 0.486,0.486 0 0 1 0.12,-0.02 C 6.907,3.385 6.882,3.38 6.982,3.431 7.129,3.507 7.259,3.621 7.415,3.816 L 7.433,3.838 C 7.439,3.844 7.437,3.854 7.47,3.862 A 0.07,0.07 0 0 0 7.527,3.841 C 7.534,3.831 7.534,3.825 7.535,3.821 7.545,3.825 7.549,3.825 7.563,3.839 A 0.43,0.43 0 0 0 7.599,3.87 L 7.616,3.882 C 7.624,3.886 7.633,3.892 7.653,3.89 7.673,3.888 7.697,3.865 7.702,3.85 7.706,3.835 7.704,3.827 7.704,3.82 A 0.206,0.206 0 0 0 7.693,3.779 C 7.659,3.68 7.574,3.571 7.449,3.449 A 1.697,1.697 0 0 1 7.37,3.366 C 7.39,3.364 7.405,3.363 7.447,3.363 Z M 9.187,3.378 H 9.175 L 9.167,3.379 9.161,3.382 A 0.088,0.088 0 0 0 9.116,3.414 0.06,0.06 0 0 0 9.112,3.468 c 0.005,0.011 0.01,0.017 0.014,0.023 a 1.096,1.096 0 0 0 0.13,0.102 c 0.076,0.05 0.162,0.1 0.225,0.12 0.03,0.011 0.052,0.02 0.086,0.013 A 0.078,0.078 0 0 0 9.614,3.692 0.083,0.083 0 0 0 9.624,3.648 C 9.624,3.617 9.609,3.605 9.598,3.595 A 0.271,0.271 0 0 0 9.558,3.564 2.541,2.541 0 0 0 9.268,3.404 C 9.236,3.389 9.215,3.379 9.188,3.378 Z M 5.931,3.849 5.906,3.858 A 0.063,0.063 0 0 0 5.871,3.895 c -0.005,0.016 -0.001,0.026 0,0.032 0.005,0.013 0.01,0.017 0.013,0.021 a 0.901,0.901 0 0 0 0.09,0.08 H 5.975 L 5.953,4.019 A 5.853,5.853 0 0 1 5.833,3.964 2.937,2.937 0 0 0 5.643,3.882 C 5.637,3.881 5.634,3.879 5.621,3.879 A 0.299,0.299 0 0 0 5.512,3.905 0.331,0.331 0 0 0 5.465,3.927 0.104,0.104 0 0 0 5.443,3.943 0.058,0.058 0 0 0 5.426,4.004 c 0.006,0.02 0.01,0.02 0.013,0.022 L 5.447,4.033 5.462,4.046 5.509,4.08 5.657,4.178 a 6.262,6.262 0 0 1 0.318,0.218 l 0.02,0.013 A 0.2,0.2 0 0 0 6.004,4.414 C 6.007,4.416 6.006,4.419 6.026,4.421 A 0.057,0.057 0 0 0 6.076,4.397 C 6.081,4.388 6.082,4.384 6.083,4.38 A 0.337,0.337 0 0 0 6.088,4.333 L 6.085,4.243 A 0.622,0.622 0 0 0 6.069,4.111 L 6.064,4.1 6.159,4.177 6.244,4.25 6.271,4.274 6.277,4.281 c 0.006,0.008 0.007,0.007 0.01,0.01 A 0.584,0.584 0 0 0 6.295,4.298 L 6.32,4.323 A 7.041,7.041 0 0 0 6.474,4.46 0.54,0.54 0 0 0 6.514,4.49 L 6.527,4.494 C 6.53,4.495 6.535,4.497 6.543,4.496 A 0.055,0.055 0 0 0 6.596,4.444 L 6.595,4.426 A 0.532,0.532 0 0 0 6.56,4.345 1.087,1.087 0 0 0 6.478,4.215 2.742,2.742 0 0 0 6.252,3.957 C 6.231,3.937 6.222,3.923 6.196,3.91 A 0.085,0.085 0 0 0 6.136,3.9 0.072,0.072 0 0 0 6.098,3.922 C 6.091,3.919 6.08,3.915 6.047,3.899 A 0.885,0.885 0 0 0 5.977,3.869 L 5.949,3.859 5.943,3.858 Z M 4.781,4.203 4.8,4.205 c 0.037,0.006 0.048,0.013 0.047,0.01 L 4.846,4.233 C 4.842,4.254 4.823,4.333 4.805,4.393 4.785,4.458 4.762,4.549 4.753,4.605 4.75,4.625 4.746,4.637 4.743,4.648 L 4.732,4.643 C 4.725,4.64 4.724,4.638 4.722,4.637 A 1.32,1.32 0 0 0 4.767,4.335 0.723,0.723 0 0 1 4.781,4.203 Z M 9.657,4.278 9.663,4.282 C 9.673,4.291 9.686,4.307 9.7,4.327 a 1.08,1.08 0 0 1 0.135,0.32 C 9.838,4.664 9.838,4.675 9.838,4.682 A 0.393,0.393 0 0 1 9.723,4.685 V 4.679 L 9.711,4.622 A 0.791,0.791 0 0 0 9.653,4.454 0.96,0.96 0 0 0 9.595,4.344 L 9.582,4.332 V 4.331 a 0.214,0.214 0 0 1 0.066,-0.05 l 0.01,-0.003 z m -0.18,0.264 0.01,0.01 0.005,0.005 -0.009,0.015 A 1.567,1.567 0 0 1 9.318,4.807 C 9.293,4.834 9.281,4.84 9.271,4.847 9.271,4.842 9.27,4.83 9.287,4.796 a 0.987,0.987 0 0 1 0.19,-0.254 z m 1.194,0.231 -0.003,0.001 c -0.007,0 -0.017,0 -0.032,0.012 -0.016,0.012 -0.023,0.043 -0.02,0.057 0.007,0.028 0.016,0.03 0.025,0.038 a 0.72,0.72 0 0 0 0.073,0.059 c 0.146,0.105 0.265,0.295 0.278,0.423 0.003,0.02 0.004,0.039 0.007,0.053 l 0.004,0.02 0.004,0.012 0.008,0.012 a 0.05,0.05 0 0 0 0.043,0.02 h 0.004 V 5.012 L 11.014,4.964 A 0.71,0.71 0 0 0 10.719,4.782 C 10.702,4.777 10.692,4.772 10.672,4.773 Z M 4.543,4.814 4.559,4.815 a 0.055,0.055 0 0 1 0.037,0.017 c 0.012,0.01 0.014,0.012 0.019,0.02 A 0.245,0.245 0 0 1 4.634,4.913 C 4.648,4.983 4.666,5.117 4.7,5.375 L 4.74,5.677 4.746,5.744 4.648,5.604 4.607,5.784 A 0.557,0.557 0 0 1 4.576,5.874 0.592,0.592 0 0 1 4.412,6.031 C 4.402,6.036 4.39,6.041 4.377,6.053 A 0.092,0.092 0 0 0 4.351,6.103 C 4.346,6.137 4.354,6.164 4.363,6.218 a 17.009,17.009 0 0 1 0.023,0.503 c 0.007,0.247 0.012,0.382 0.027,0.476 a 0.406,0.406 0 0 0 0.093,0.206 c 0.033,0.04 0.05,0.068 0.056,0.082 0.006,0.014 0.005,0.011 10e-4,0.022 A 0.016,0.016 0 0 0 4.562,7.512 0.485,0.485 0 0 1 4.482,7.528 L 4.444,7.532 4.394,7.479 C 4.361,7.443 4.344,7.423 4.317,7.407 A 0.093,0.093 0 0 0 4.269,7.395 C 4.253,7.395 4.241,7.4 4.231,7.405 A 0.511,0.511 0 0 1 3.967,7.392 0.565,0.565 0 0 1 3.916,7.367 C 3.901,7.36 3.887,7.349 3.89,7.352 3.888,7.35 3.884,7.343 3.885,7.335 3.885,7.327 3.889,7.321 3.891,7.32 L 3.91,7.306 C 3.916,7.3 3.93,7.296 3.934,7.264 A 0.062,0.062 0 0 0 3.92,7.221 C 3.912,7.211 3.906,7.209 3.9,7.206 3.891,7.201 3.886,7.2 3.88,7.198 3.817,7.178 3.784,7.159 3.767,7.138 3.749,7.118 3.737,7.088 3.731,7.029 3.727,6.995 3.727,6.979 3.727,6.978 L 3.73,6.976 c 0,0.001 0.036,-0.012 0.068,-0.012 0.068,0 0.11,-0.008 0.232,-0.044 L 4.05,6.914 C 4.054,6.923 4.057,6.93 4.056,6.939 A 0.071,0.071 0 0 1 4.031,6.979 0.379,0.379 0 0 0 3.999,7.012 L 3.986,7.028 C 3.984,7.032 3.981,7.036 3.978,7.047 a 0.057,0.057 0 0 0 0,0.023 C 3.98,7.08 3.988,7.096 4,7.104 l 0.012,0.007 0.014,0.006 0.037,0.018 c 0.012,0.005 0.05,0.037 0.063,0.057 a 0.547,0.547 0 0 0 0.043,0.056 c 0.003,0.003 0.005,0.006 0.013,0.01 0.004,0.002 0.009,0.005 0.02,0.007 A 0.06,0.06 0 0 0 4.247,7.25 C 4.259,7.238 4.26,7.23 4.261,7.225 L 4.263,7.216 V 7.207 7.194 L 4.258,7.161 A 2.864,2.864 0 0 0 4.241,7.06 C 4.171,6.674 4.157,6.507 4.173,6.372 A 0.43,0.43 0 0 1 4.218,6.202 0.936,0.936 0 0 1 4.371,6.022 2.32,2.32 0 0 0 4.516,5.86 C 4.526,5.846 4.533,5.843 4.54,5.817 4.554,5.76 4.52,5.711 4.481,5.684 A 0.16,0.16 0 0 0 4.418,5.66 C 4.43,5.648 4.44,5.634 4.44,5.617 4.44,5.606 4.439,5.604 4.438,5.6 L 4.435,5.585 A 0.884,0.884 0 0 0 4.425,5.547 L 4.423,5.537 A 0.117,0.117 0 0 1 4.449,5.534 c 0.057,0 0.073,0.007 0.1,0.04 L 4.564,5.59 4.573,5.598 C 4.576,5.6 4.58,5.605 4.596,5.609 A 0.055,0.055 0 0 0 4.66,5.574 C 4.666,5.556 4.663,5.551 4.662,5.546 4.661,5.536 4.659,5.533 4.657,5.526 A 0.907,0.907 0 0 1 4.642,5.456 0.363,0.363 0 0 0 4.62,5.369 0.093,0.093 0 0 0 4.61,5.351 V 5.347 5.32 C 4.608,5.311 4.608,5.3 4.6,5.284 A 0.082,0.082 0 0 0 4.556,5.246 C 4.547,5.243 4.54,5.243 4.532,5.243 L 4.595,5.247 4.583,5.147 C 4.582,5.139 4.581,5.129 4.575,5.114 A 0.083,0.083 0 0 0 4.534,5.074 C 4.501,5.062 4.482,5.067 4.442,5.069 4.422,5.069 4.4,5.069 4.384,5.067 4.367,5.066 4.35,5.059 4.36,5.064 4.353,5.061 4.346,5.057 4.334,5.054 A 0.062,0.062 0 0 0 4.359,5.034 C 4.352,5.044 4.347,5.048 4.344,5.05 L 4.355,5.048 A 0.561,0.561 0 0 1 4.422,5.044 c 0.048,0 0.07,0.003 0.1,-0.006 A 0.076,0.076 0 0 0 4.567,4.997 C 4.574,4.976 4.571,4.964 4.57,4.955 A 0.08,0.08 0 0 0 4.555,4.915 0.082,0.082 0 0 0 4.511,4.888 C 4.483,4.88 4.457,4.881 4.408,4.88 H 4.35 C 4.35,4.868 4.351,4.863 4.363,4.854 A 0.235,0.235 0 0 1 4.461,4.822 0.54,0.54 0 0 1 4.543,4.814 Z m 5.596,0.133 a 0.366,0.366 0 0 1 0.129,0.045 0.55,0.55 0 0 1 0.138,0.105 c 0.036,0.04 0.062,0.077 0.074,0.102 l 0.003,0.01 a 0.221,0.221 0 0 1 -0.03,0.007 l -0.16,0.02 0.14,0.152 a 0.924,0.924 0 0 1 0.112,0.167 c 0.044,0.09 0.046,0.095 0.05,0.202 l 0.008,0.174 0.08,-0.004 -0.002,0.039 -0.004,0.162 0.102,-0.02 h 0.003 a 0.246,0.246 0 0 1 0.006,0.072 c -0.003,0.1 -0.034,0.282 -0.076,0.425 A 3.137,3.137 0 0 1 10.585,6.98 0.301,0.301 0 0 1 10.545,7.05 L 10.544,7.051 A 0.128,0.128 0 0 1 10.532,6.995 c 0,-0.014 0.002,-0.025 -0.009,-0.048 a 0.064,0.064 0 0 0 -0.04,-0.032 0.06,0.06 0 0 0 -0.045,0.008 c -0.01,0.006 -0.015,0.013 -0.021,0.02 V 6.937 L 10.422,6.822 A 12.625,12.625 0 0 0 10.42,6.07 C 10.419,6.056 10.419,6.045 10.417,6.035 c 0,-0.005 0,-0.01 -0.002,-0.015 A 0.018,0.018 0 0 1 10.412,6.014 l 0.003,-0.029 -0.04,-0.012 h -10e-4 a 0.062,0.062 0 0 0 -0.05,0.008 c -0.01,0.007 -0.013,0.014 -0.016,0.02 a 0.104,0.104 0 0 0 -0.012,0.025 0.552,0.552 0 0 0 -0.015,0.068 c -0.01,0.055 -0.019,0.132 -0.027,0.226 -0.007,0.078 -0.022,0.228 -0.034,0.333 -0.011,0.1 -0.017,0.163 -0.015,0.215 a 0.38,0.38 0 0 0 0.031,0.134 0.182,0.182 0 0 0 0.028,0.048 c 0.008,0.01 0.02,0.018 0.034,0.024 -0.01,0.009 -0.018,0.022 -0.027,0.03 a 0.19,0.19 0 0 1 -0.065,0.032 c 0.003,0 -0.026,-0.01 -0.031,-0.015 C 10.16,7.108 10.153,7.095 10.122,7.088 a 0.072,0.072 0 0 0 -0.05,0.01 c -0.013,0.01 -0.018,0.017 -0.022,0.024 a 0.14,0.14 0 0 0 0.008,0.16 c 0.02,0.026 0.047,0.036 0.074,0.042 a 0.315,0.315 0 0 0 0.087,0.005 0.685,0.685 0 0 0 0.206,-0.05 c 0.125,-0.05 0.158,-0.074 0.222,-0.152 -0.01,0.021 -0.02,0.043 -0.035,0.068 A 1.225,1.225 0 0 1 10.456,7.406 1.045,1.045 0 0 1 10.198,7.584 0.351,0.351 0 0 1 10.003,7.637 C 9.949,7.64 9.919,7.64 9.888,7.652 A 0.162,0.162 0 0 0 9.818,7.712 4.07,4.07 0 0 0 9.685,7.936 L 9.632,8.025 C 9.632,8.015 9.63,8.012 9.629,7.999 9.628,7.994 9.629,7.989 9.623,7.978 9.62,7.972 9.616,7.961 9.6,7.952 A 0.064,0.064 0 0 0 9.548,7.951 C 9.525,7.963 9.527,7.971 9.524,7.976 A 0.512,0.512 0 0 0 9.502,8.05 3.005,3.005 0 0 0 9.466,8.254 2.431,2.431 0 0 1 9.338,8.63 L 9.263,8.796 C 9.243,8.842 9.206,8.918 9.183,8.962 L 9.167,8.992 9.158,8.972 A 0.805,0.805 0 0 0 9.101,8.849 0.4,0.4 0 0 1 9.081,8.809 H 9.08 c 0,-0.002 0,-0.003 0.002,-0.004 A 0.524,0.524 0 0 1 9.124,8.761 0.655,0.655 0 0 0 9.218,8.659 0.483,0.483 0 0 0 9.273,8.455 C 9.285,8.359 9.293,8.231 9.297,8.065 L 9.306,7.791 9.642,7.784 9.668,7.702 A 0.53,0.53 0 0 1 9.735,7.605 0.675,0.675 0 0 0 9.928,7.205 5.454,5.454 0 0 0 10.061,6.2 71.107,71.107 0 0 1 10.139,4.96 Z M 3.762,5.1 a 0.06,0.06 0 0 0 -0.009,0 L 3.726,5.103 3.72,5.113 C 3.717,5.116 3.713,5.116 3.71,5.118 a 0.164,0.164 0 0 0 -0.034,0.031 3.1,3.1 0 0 1 -0.1,0.11 C 3.518,5.32 3.288,5.569 3.114,5.757 A 0.226,0.226 0 0 0 3.056,5.865 c -0.004,0.02 -0.01,0.033 -10e-4,0.06 a 0.073,0.073 0 0 0 0.032,0.039 0.07,0.07 0 0 0 0.035,0.007 c 0.03,0 0.04,-0.01 0.053,-0.02 A 0.428,0.428 0 0 0 3.219,5.916 C 3.25,5.887 3.289,5.848 3.331,5.802 3.416,5.71 3.517,5.588 3.607,5.467 L 3.797,5.212 C 3.807,5.199 3.818,5.189 3.819,5.16 A 0.064,0.064 0 0 0 3.795,5.112 0.056,0.056 0 0 0 3.762,5.101 Z M 5.058,5.147 C 5.053,5.161 5.051,5.167 5.036,5.196 A 0.435,0.435 0 0 0 4.974,5.391 0.535,0.535 0 0 0 5.028,5.603 C 5.035,5.619 5.034,5.618 5.033,5.627 A 0.484,0.484 0 0 1 5.009,5.704 l -0.073,0.2 A 0.767,0.767 0 0 1 4.906,5.976 V 5.969 A 1.418,1.418 0 0 1 4.961,5.653 L 4.998,5.545 4.964,5.446 A 0.58,0.58 0 0 1 4.941,5.227 C 4.943,5.22 4.944,5.217 4.961,5.201 A 0.243,0.243 0 0 1 4.987,5.177 L 4.992,5.174 5.001,5.172 A 0.468,0.468 0 0 0 5.059,5.147 Z M 9.47,5.152 v 0.002 c 0,0.012 0.002,0.022 0.002,0.053 0,0.056 -0.006,0.145 -0.012,0.187 C 9.442,5.519 9.41,5.866 9.393,6.114 9.385,6.225 9.37,6.419 9.358,6.542 9.346,6.672 9.336,6.912 9.335,7.097 V 7.433 L 9.382,7.534 A 0.453,0.453 0 0 1 9.418,7.625 V 7.627 L 9.413,7.632 C 9.404,7.64 9.398,7.641 9.379,7.632 A 0.139,0.139 0 0 1 9.319,7.569 C 9.308,7.549 9.304,7.54 9.299,7.479 A 8.568,8.568 0 0 1 9.286,7.118 16.838,16.838 0 0 0 9.272,6.721 L 9.27,6.693 a 0.043,0.043 0 0 1 -0.002,-0.011 0.013,0.013 0 0 1 0,-0.007 L 9.266,6.674 V 6.611 a 6.41,6.41 0 0 1 0.04,-0.52 L 9.339,5.846 C 9.346,5.792 9.362,5.69 9.373,5.622 9.385,5.552 9.399,5.448 9.406,5.388 9.424,5.246 9.445,5.185 9.47,5.154 Z M 4.412,5.234 c 0.01,0 0.021,0 0.036,0.002 l 0.05,0.004 a 3.053,3.053 0 0 1 -0.121,0 L 4.376,5.239 C 4.379,5.238 4.382,5.236 4.389,5.235 H 4.412 Z M 9.847,5.239 9.843,5.292 h 0.004 a 0.396,0.396 0 0 1 0.016,0.063 c 0.003,0.016 0.003,0.011 0,0.012 A 0.706,0.706 0 0 1 9.665,5.373 L 9.671,5.37 A 0.27,0.27 0 0 0 9.707,5.34 0.268,0.268 0 0 1 9.842,5.291 Z M 4.415,5.391 a 0.09,0.09 0 0 1 0.01,0 L 4.459,5.394 C 4.448,5.398 4.447,5.399 4.431,5.403 4.397,5.411 4.389,5.408 4.39,5.409 V 5.392 Z m 5.349,0.146 a 0.14,0.14 0 0 1 0.045,0.007 v 0 c 0,0.01 -0.003,0.025 -0.006,0.042 A 2.149,2.149 0 0 1 9.78,5.708 L 9.75,5.841 9.722,5.848 C 9.686,5.858 9.658,5.863 9.634,5.867 A 0.19,0.19 0 0 0 9.649,5.828 1.03,1.03 0 0 0 9.675,5.707 C 9.681,5.667 9.689,5.629 9.695,5.599 l 0.011,-0.05 c 0.001,0 0.003,-0.003 0.009,-0.005 A 0.156,0.156 0 0 1 9.764,5.537 Z M 8.181,5.565 8.16,5.566 C 8.036,5.567 7.924,5.576 7.851,5.599 A 0.942,0.942 0 0 0 7.629,5.702 1.911,1.911 0 0 1 7.379,5.817 C 7.269,5.859 7.154,5.897 7.107,5.906 A 0.363,0.363 0 0 0 7.04,5.925 C 7.02,5.933 7.003,5.937 6.984,5.963 6.935,6.029 6.912,6.136 6.891,6.283 6.871,6.432 6.859,6.615 6.859,6.812 c 0,0.128 0,0.202 0.016,0.263 0.016,0.062 0.05,0.105 0.097,0.156 0.016,0.017 0.03,0.033 0.042,0.044 L 7.029,7.29 7.037,7.296 c 0.001,10e-4 0.002,0.003 0.006,0.005 0.003,0.002 0.004,0.008 0.028,0.008 0.003,0 0.006,-0.004 0.01,-0.005 L 7.031,7.357 7.105,7.361 C 7.11,7.368 7.113,7.377 7.119,7.385 7.128,7.396 7.129,7.4 7.133,7.408 A 0.27,0.27 0 0 1 7.072,7.396 C 7.034,7.386 7.015,7.377 6.985,7.379 A 0.09,0.09 0 0 0 6.941,7.394 C 6.935,7.398 6.933,7.402 6.929,7.405 L 6.924,7.395 A 0.367,0.367 0 0 0 6.88,7.318 C 6.873,7.311 6.868,7.295 6.833,7.295 c -0.03,0 -0.03,0.008 -0.037,0.012 A 0.592,0.592 0 0 0 6.726,7.365 C 6.678,7.412 6.69,7.407 6.629,7.412 A 0.446,0.446 0 0 0 6.579,7.419 C 6.564,7.422 6.552,7.423 6.535,7.434 A 0.06,0.06 0 0 0 6.509,7.468 0.065,0.065 0 0 0 6.519,7.52 c 0.016,0.022 0.029,0.024 0.043,0.029 0.014,0.006 0.02,0.005 0.03,0.006 a 1.472,1.472 0 0 0 0.12,0.005 c 0.026,0 0.03,0.003 0.046,0.004 C 6.748,7.571 6.738,7.578 6.726,7.584 6.666,7.62 6.646,7.626 6.609,7.626 A 0.16,0.16 0 0 1 6.534,7.615 0.376,0.376 0 0 1 6.451,7.549 C 6.405,7.507 6.366,7.478 6.318,7.469 6.271,7.459 6.222,7.483 6.19,7.517 6.188,7.52 6.174,7.526 6.164,7.532 A 0.09,0.09 0 0 0 6.178,7.512 0.214,0.214 0 0 0 6.191,7.462 0.363,0.363 0 0 1 6.221,7.38 0.2,0.2 0 0 0 6.241,7.338 C 6.242,7.331 6.246,7.324 6.245,7.309 A 0.054,0.054 0 0 0 6.234,7.278 0.063,0.063 0 0 0 6.189,7.255 c -0.036,0 -0.037,0.013 -0.043,0.019 A 0.392,0.392 0 0 0 6.06,7.437 C 6.054,7.469 6.05,7.506 6.082,7.537 A 0.064,0.064 0 0 0 6.12,7.552 c -0.006,0 -0.015,0.003 -0.016,0.003 A 0.084,0.084 0 0 1 6.077,7.542 0.5,0.5 0 0 1 5.999,7.469 0.36,0.36 0 0 0 5.959,7.427 C 5.95,7.421 5.945,7.415 5.935,7.411 A 0.059,0.059 0 0 0 5.865,7.419 C 5.843,7.442 5.85,7.449 5.85,7.456 V 7.472 L 5.853,7.504 C 5.857,7.528 5.863,7.559 5.871,7.592 5.88,7.628 5.88,7.637 5.884,7.657 5.87,7.641 5.858,7.628 5.84,7.602 A 0.956,0.956 0 0 0 5.787,7.528 C 5.781,7.522 5.781,7.518 5.766,7.508 5.753,7.501 5.722,7.497 5.703,7.509 5.684,7.521 5.68,7.535 5.678,7.544 5.672,7.562 5.672,7.576 5.672,7.594 c 0,0.036 0.005,0.086 0.014,0.151 0,0.007 0,0.012 0.002,0.018 C 5.673,7.751 5.665,7.745 5.644,7.726 A 0.996,0.996 0 0 0 5.59,7.676 C 5.575,7.663 5.566,7.654 5.546,7.646 A 0.058,0.058 0 0 0 5.484,7.656 0.057,0.057 0 0 0 5.467,7.694 c -10e-4,0.009 0,0.015 0.001,0.02 0.005,0.02 0.012,0.031 0.022,0.049 L 5.566,7.897 C 5.619,7.993 5.68,8.088 5.738,8.162 A 0.216,0.216 0 0 0 5.792,8.21 C 5.801,8.214 5.812,8.222 5.838,8.215 5.866,8.208 5.868,8.195 5.874,8.187 A 0.121,0.121 0 0 0 5.885,8.165 0.275,0.275 0 0 0 5.9,8.115 C 5.905,8.088 5.915,8.076 5.92,8.073 A 0.12,0.12 0 0 0 5.966,8.019 0.196,0.196 0 0 0 5.976,7.944 c 0,-0.01 0.002,-0.015 0.003,-0.022 L 6.097,7.999 6.077,7.8 C 6.072,7.757 6.077,7.737 6.075,7.735 A 0.282,0.282 0 0 1 6.119,7.732 c 0.056,0 0.1,-0.006 0.135,-0.036 0.007,-0.007 0.02,-0.013 0.053,-0.008 0.033,0.004 0.08,0.02 0.139,0.05 0.161,0.082 0.23,0.1 0.366,0.1 0.055,0 0.086,0 0.116,-0.006 A 0.152,0.152 0 0 0 7,7.79 0.157,0.157 0 0 0 7.046,7.691 l 0.077,0.001 c 0.064,0.003 0.112,0 0.154,-0.017 A 0.154,0.154 0 0 0 7.365,7.581 0.247,0.247 0 0 0 7.24,7.291 L 7.266,7.264 7.151,7.257 A 0.07,0.07 0 0 0 7.122,7.263 C 7.123,7.258 7.124,7.253 7.123,7.25 c 0,-0.008 0,-0.012 -0.002,-0.017 A 1.59,1.59 0 0 1 7.069,6.991 c 0.01,0.007 0.023,0.014 0.04,0.012 A 0.057,0.057 0 0 0 7.146,6.981 L 7.148,6.978 h 0.091 l 0.02,-0.21 C 7.268,6.678 7.275,6.58 7.275,6.539 c 0,-0.017 0.003,-0.022 0.005,-0.03 0.002,0 0.002,0.002 0.005,0.002 A 0.06,0.06 0 0 0 7.321,6.496 C 7.325,6.493 7.325,6.489 7.327,6.486 7.35,6.501 7.379,6.525 7.406,6.546 l 0.101,0.073 0.018,0.008 c 0.005,0.001 0.01,0.003 0.019,0.003 0.009,0 0.025,0 0.04,-0.016 A 0.052,0.052 0 0 0 7.601,6.574 0.082,0.082 0 0 0 7.598,6.558 L 7.592,6.542 A 1.22,1.22 0 0 0 7.457,6.364 L 7.445,6.355 A 0.057,0.057 0 0 0 7.43,6.347 L 7.42,6.339 A 0.82,0.82 0 0 1 7.38,6.303 C 7.343,6.268 7.34,6.257 7.34,6.25 c 0,0 0.004,-0.012 0.032,-0.028 A 0.335,0.335 0 0 1 7.498,6.188 C 7.54,6.184 7.565,6.184 7.594,6.17 A 0.1,0.1 0 0 0 7.63,6.139 C 7.639,6.126 7.643,6.115 7.647,6.104 A 0.121,0.121 0 0 1 7.661,6.081 C 7.666,6.074 7.673,6.071 7.665,6.075 A 0.094,0.094 0 0 0 7.687,6.059 L 7.693,6.047 7.696,6.097 7.705,6.17 7.81,6.171 7.818,6.105 A 0.372,0.372 0 0 0 7.822,6.046 L 7.819,6.02 C 7.818,6.012 7.817,6.003 7.805,5.988 V 5.961 L 7.755,5.958 A 0.063,0.063 0 0 0 7.714,5.972 C 7.708,5.978 7.706,5.982 7.704,5.988 A 0.122,0.122 0 0 0 7.691,5.962 0.064,0.064 0 0 1 7.695,5.921 0.155,0.155 0 0 1 7.745,5.856 0.22,0.22 0 0 1 7.855,5.808 C 7.906,5.798 7.99,5.792 8.138,5.786 8.275,5.78 8.402,5.771 8.495,5.761 A 1.455,1.455 0 0 0 8.645,5.736 0.078,0.078 0 0 0 8.665,5.727 C 8.673,5.722 8.692,5.71 8.692,5.68 8.692,5.655 8.679,5.644 8.674,5.64 A 0.056,0.056 0 0 0 8.662,5.63 L 8.647,5.624 A 1.485,1.485 0 0 0 8.52,5.594 1.93,1.93 0 0 0 8.184,5.568 L 8.183,5.567 Z M 5.607,5.656 c -0.018,0 -0.033,0 -0.048,0.003 C 5.552,5.66 5.545,5.661 5.534,5.666 A 0.06,0.06 0 0 0 5.514,5.68 0.06,0.06 0 0 0 5.5,5.718 c 0,0.038 0.03,0.068 0.067,0.068 H 5.56 a 1.228,1.228 0 0 1 0.044,0.017 c 0.03,0.011 0.069,0.028 0.11,0.047 0.09,0.04 0.167,0.08 0.219,0.114 0.018,0.012 0.03,0.022 0.041,0.031 L 5.842,6.017 A 3.432,3.432 0 0 0 5.392,6.129 0.405,0.405 0 0 0 5.331,6.157 C 5.324,6.162 5.315,6.167 5.307,6.188 a 0.062,0.062 0 0 0 0.022,0.066 c 0.01,0.009 0.019,0.013 0.029,0.018 0.02,0.01 0.043,0.018 0.07,0.026 a 0.59,0.59 0 0 0 0.16,0.03 c 0.027,0 0.044,0.005 0.074,-0.011 A 0.079,0.079 0 0 0 5.695,6.276 C 5.699,6.262 5.698,6.252 5.698,6.243 a 0.26,0.26 0 0 1 0.01,-0.047 h 0.015 l 0.014,0.001 0.001,0.012 c 0,0.036 0.011,0.058 0.038,0.08 0.006,0.005 0.012,0.01 0.023,0.015 A 0.07,0.07 0 0 0 5.844,6.306 C 5.876,6.296 5.882,6.276 5.889,6.263 A 0.168,0.168 0 0 0 5.91,6.179 V 6.178 A 0.563,0.563 0 0 1 6.015,6.158 0.305,0.305 0 0 1 6.129,6.156 0.317,0.317 0 0 1 6.225,6.22 c 0.02,0.015 0.043,0.03 0.07,0.035 a 0.424,0.424 0 0 0 0.096,0.008 c 0.067,0 0.113,0.003 0.138,0.008 L 6.542,6.275 V 6.281 L 6.541,6.335 A 6.515,6.515 0 0 1 6.499,6.871 0.916,0.916 0 0 1 6.455,7.097 0.049,0.049 0 0 1 6.431,7.121 0.344,0.344 0 0 1 6.368,7.144 0.732,0.732 0 0 0 6.309,7.164 C 6.291,7.171 6.279,7.175 6.262,7.188 A 0.203,0.203 0 0 0 6.25,7.198 L 6.242,7.205 A 0.056,0.056 0 0 0 6.234,7.217 0.05,0.05 0 0 0 6.23,7.254 0.06,0.06 0 0 0 6.264,7.291 c 0.01,0.004 0.015,0.004 0.02,0.004 0.007,0 0.01,-0.002 0.013,-0.002 A 0.16,0.16 0 0 0 6.312,7.288 C 6.306,7.29 6.326,7.286 6.347,7.283 L 6.418,7.274 C 6.465,7.27 6.495,7.268 6.528,7.252 6.559,7.235 6.577,7.21 6.606,7.175 a 0.362,0.362 0 0 0 0.08,-0.16 C 6.702,6.946 6.709,6.855 6.717,6.695 6.731,6.435 6.737,6.294 6.732,6.212 6.729,6.172 6.729,6.142 6.696,6.112 A 0.079,0.079 0 0 0 6.637,6.097 0.114,0.114 0 0 0 6.598,6.111 0.21,0.21 0 0 1 6.53,6.116 0.249,0.249 0 0 1 6.443,6.094 L 6.308,6.019 A 0.688,0.688 0 0 1 6.2,5.947 h 0.062 a 2.158,2.158 0 0 1 0.14,0.013 c 0.009,0.001 0.017,0.004 0.008,0 0.013,0.006 0.027,0.01 0.048,0.006 a 0.063,0.063 0 0 0 0.034,-0.02 0.063,0.063 0 0 0 0,-0.08 A 0.122,0.122 0 0 0 6.472,5.846 0.68,0.68 0 0 0 6.296,5.751 2.087,2.087 0 0 0 5.962,5.687 3.214,3.214 0 0 0 5.607,5.657 Z M 9.626,6.092 9.667,6.093 9.729,6.095 9.728,6.113 A 0.29,0.29 0 0 1 9.723,6.159 L 9.72,6.164 9.707,6.17 A 0.504,0.504 0 0 1 9.575,6.18 C 9.57,6.18 9.574,6.182 9.572,6.181 9.571,6.174 9.571,6.159 9.574,6.137 9.577,6.111 9.581,6.099 9.582,6.095 9.586,6.094 9.598,6.092 9.626,6.092 Z m -5.03,0.252 c 0.001,0.01 0.004,0.02 0.005,0.043 a 13.778,13.778 0 0 1 0.01,0.614 V 7.022 C 4.604,6.998 4.596,6.974 4.591,6.943 A 3.716,3.716 0 0 1 4.557,6.382 C 4.56,6.368 4.562,6.366 4.565,6.362 a 0.168,0.168 0 0 1 0.03,-0.018 z m 5,0.053 0.033,10e-4 C 9.666,6.4 9.682,6.403 9.683,6.403 L 9.687,6.41 A 0.383,0.383 0 0 1 9.702,6.494 L 9.703,6.509 9.642,6.511 a 0.644,0.644 0 0 1 -0.086,0 L 9.554,6.503 A 0.295,0.295 0 0 1 9.561,6.401 0.35,0.35 0 0 1 9.597,6.398 Z M 9.714,6.744 A 0.046,0.046 0 0 1 9.721,6.759 0.09,0.09 0 0 1 9.718,6.815 0.85,0.85 0 0 1 9.617,6.819 C 9.553,6.819 9.53,6.813 9.527,6.815 L 9.53,6.795 9.533,6.783 A 0.57,0.57 0 0 1 9.616,6.765 C 9.654,6.758 9.69,6.751 9.714,6.745 Z M 3.491,6.977 c 0.023,0 0.037,0.002 0.04,0.003 h 10e-4 a 0.76,0.76 0 0 1 0.023,0.154 0.82,0.82 0 0 0 0.058,0.281 0.72,0.72 0 0 0 0.075,0.14 C 3.714,7.592 3.741,7.622 3.783,7.632 3.8,7.636 3.805,7.635 3.816,7.635 L 3.855,7.633 3.964,7.624 A 0.675,0.675 0 0 0 3.86,7.648 0.255,0.255 0 0 0 3.813,7.668 0.088,0.088 0 0 0 3.773,7.708 C 3.763,7.724 3.761,7.736 3.756,7.756 L 3.741,7.821 C 3.691,8.058 3.577,8.37 3.501,8.492 A 0.447,0.447 0 0 1 3.431,8.579 C 3.414,8.594 3.397,8.601 3.393,8.604 3.391,8.604 3.383,8.602 3.373,8.593 A 0.128,0.128 0 0 1 3.341,8.548 1.071,1.071 0 0 1 3.312,8.244 C 3.314,8.1 3.328,7.927 3.353,7.764 3.361,7.714 3.376,7.586 3.388,7.473 A 5.138,5.138 0 0 1 3.455,7.029 C 3.462,7 3.468,6.984 3.469,6.979 A 0.103,0.103 0 0 1 3.491,6.978 Z M 7.368,7.173 A 0.11,0.11 0 0 0 7.354,7.176 L 7.34,7.182 c 0,0 -0.008,0.006 -0.01,0.01 A 0.05,0.05 0 0 0 7.32,7.209 C 7.31,7.235 7.317,7.233 7.317,7.238 L 7.32,7.252 7.328,7.29 7.358,7.404 C 7.384,7.493 7.416,7.602 7.444,7.689 7.48,7.799 7.521,7.905 7.561,7.992 7.601,8.079 7.637,8.146 7.675,8.188 7.691,8.205 7.7,8.218 7.723,8.229 A 0.06,0.06 0 0 0 7.813,8.183 C 7.818,8.159 7.814,8.142 7.81,8.115 A 1.935,1.935 0 0 0 7.789,8.012 C 7.767,7.91 7.725,7.813 7.589,7.536 A 13.162,13.162 0 0 0 7.419,7.202 L 7.411,7.192 C 7.408,7.189 7.407,7.186 7.394,7.179 a 0.05,0.05 0 0 0 -0.015,-0.005 0.048,0.048 0 0 0 -0.011,0 z M 4.262,7.589 4.268,7.599 A 0.945,0.945 0 0 1 4.294,7.837 C 4.279,7.952 4.281,8.093 4.302,8.196 4.331,8.336 4.357,8.384 4.448,8.467 a 0.249,0.249 0 0 1 0.08,0.113 c 0.013,0.04 0.017,0.096 0.01,0.182 A 0.94,0.94 0 0 0 4.574,9.099 C 4.586,9.152 4.596,9.201 4.602,9.236 L 4.604,9.252 4.535,9.266 C 4.471,9.278 4.386,9.29 4.301,9.301 4.217,9.311 4.121,9.325 4.086,9.33 L 4.062,9.332 C 4.062,9.331 4.05,9.306 4.035,9.247 4.008,9.143 4.011,8.985 4.055,8.725 L 4.085,8.553 4.096,8.498 C 4.099,8.484 4.104,8.468 4.1,8.479 4.105,8.467 4.106,8.461 4.11,8.446 L 4.124,8.388 A 19.289,19.289 0 0 0 4.234,7.888 0.743,0.743 0 0 0 4.254,7.732 0.14,0.14 0 0 0 4.242,7.676 0.099,0.099 0 0 0 4.202,7.633 0.215,0.215 0 0 0 4.097,7.613 C 4.067,7.613 4.033,7.616 4.001,7.62 4.081,7.612 4.169,7.602 4.245,7.591 Z M 7.771,7.678 A 0.05,0.05 0 0 0 7.749,7.681 0.058,0.058 0 0 0 7.718,7.707 c -0.01,0.018 -0.006,0.025 -0.006,0.031 0,0.013 0.002,0.02 0.006,0.031 l 0.016,0.06 A 0.94,0.94 0 0 0 7.798,7.98 C 7.802,7.988 7.807,7.995 7.813,8.002 7.82,8.008 7.823,8.024 7.859,8.024 A 0.064,0.064 0 0 0 7.903,8.004 0.06,0.06 0 0 0 7.918,7.972 0.079,0.079 0 0 0 7.912,7.928 L 7.871,7.819 A 0.815,0.815 0 0 0 7.836,7.739 C 7.83,7.729 7.826,7.719 7.82,7.712 A 0.13,0.13 0 0 0 7.81,7.699 C 7.807,7.695 7.805,7.689 7.787,7.682 A 0.055,0.055 0 0 0 7.771,7.678 Z M 8.361,7.822 8.36,7.823 Z M 4.459,7.879 H 4.463 V 7.882 A 1.635,1.635 0 0 1 4.477,8.047 C 4.479,8.063 4.478,8.077 4.478,8.093 4.474,8.069 4.469,8.047 4.466,8.023 A 1.037,1.037 0 0 1 4.459,7.879 Z M 6.696,7.896 H 6.675 A 0.154,0.154 0 0 0 6.625,7.911 0.125,0.125 0 0 0 6.559,7.971 0.105,0.105 0 0 0 6.565,8.062 C 6.56,8.052 6.566,8.068 6.568,8.085 a 0.504,0.504 0 0 1 0.004,0.058 c 0,0.025 0.002,0.05 0.005,0.071 0.002,0.022 0.002,0.037 0.015,0.06 0.02,0.038 0.053,0.05 0.083,0.053 C 6.705,8.331 6.745,8.328 6.77,8.289 6.782,8.271 6.78,8.265 6.781,8.256 A 1.371,1.371 0 0 0 6.787,7.992 0.126,0.126 0 0 0 6.76,7.929 0.093,0.093 0 0 0 6.733,7.909 L 6.73,7.899 Z M 4.703,8.244 4.796,8.437 c 0.083,0.172 0.128,0.268 0.148,0.32 A 0.209,0.209 0 0 1 4.956,8.795 L 4.954,8.798 4.947,8.808 4.934,8.835 4.899,8.914 C 4.872,8.974 4.842,9.046 4.821,9.099 A 0.93,0.93 0 0 1 4.777,9.195 L 4.771,9.18 A 1.562,1.562 0 0 1 4.721,8.875 0.82,0.82 0 0 0 4.673,8.597 0.465,0.465 0 0 1 4.641,8.488 c 0,-0.015 0.004,-0.025 0.025,-0.063 A 0.37,0.37 0 0 0 4.703,8.244 Z M 6.809,8.258 6.792,8.275 6.722,8.35 A 0.737,0.737 0 0 1 6.672,8.397 0.6,0.6 0 0 1 6.63,8.358 0.58,0.58 0 0 0 6.57,8.305 C 6.55,8.29 6.54,8.278 6.51,8.271 6.473,8.261 6.448,8.274 6.411,8.29 A 1.93,1.93 0 0 0 6.258,8.37 L 6.014,8.505 A 0.471,0.471 0 0 0 5.944,8.553 0.072,0.072 0 0 0 5.934,8.565 C 5.93,8.57 5.924,8.577 5.924,8.597 A 0.058,0.058 0 0 0 5.967,8.653 0.296,0.296 0 0 0 6.052,8.655 3.944,3.944 0 0 0 6.418,8.565 C 6.456,8.553 6.48,8.546 6.503,8.535 6.522,8.525 6.552,8.523 6.594,8.543 6.617,8.554 6.637,8.567 6.67,8.563 6.702,8.557 6.718,8.54 6.738,8.523 6.788,8.481 6.9,8.472 7.071,8.53 7.185,8.569 7.354,8.593 7.487,8.6 A 0.778,0.778 0 0 0 7.651,8.597 0.138,0.138 0 0 0 7.681,8.589 C 7.691,8.585 7.705,8.579 7.717,8.56 7.728,8.54 7.724,8.51 7.714,8.495 A 0.085,0.085 0 0 0 7.686,8.468 C 7.667,8.457 7.648,8.45 7.619,8.438 A 3.814,3.814 0 0 0 7.382,8.348 L 7.368,8.344 C 7.364,8.343 7.362,8.341 7.349,8.341 c 0.011,0 0.003,0 -0.004,-10e-4 A 1.2,1.2 0 0 0 6.973,8.267 L 6.809,8.257 Z M 6.912,8.732 H 6.863 C 6.668,8.734 6.618,8.739 6.505,8.77 6.395,8.8 6.33,8.82 6.285,8.84 A 0.17,0.17 0 0 0 6.229,8.88 0.115,0.115 0 0 0 6.202,8.936 c -0.001,0 0.003,-10e-4 -0.01,-10e-4 A 0.167,0.167 0 0 0 6.144,8.945 0.073,0.073 0 0 0 6.119,8.959 0.058,0.058 0 0 0 6.101,9.021 C 6.109,9.047 6.113,9.043 6.117,9.046 6.121,9.05 6.124,9.054 6.129,9.057 l 0.032,0.025 c 0.026,0.02 0.06,0.043 0.097,0.068 0.059,0.04 0.091,0.068 0.105,0.083 A 0.055,0.055 0 0 0 6.359,9.282 C 6.368,9.304 6.384,9.31 6.392,9.313 6.4,9.316 6.404,9.316 6.409,9.317 6.426,9.318 6.439,9.316 6.459,9.314 6.485,9.31 6.49,9.31 6.499,9.313 A 0.35,0.35 0 0 1 6.562,9.351 C 6.606,9.381 6.64,9.404 6.692,9.408 6.744,9.412 6.805,9.402 6.93,9.384 7.03,9.37 7.067,9.354 7.138,9.293 A 0.43,0.43 0 0 1 7.194,9.251 c 0.015,-0.009 0.027,-0.01 0.017,-0.01 0.017,0 0.037,0.004 0.061,-0.018 A 0.07,0.07 0 0 0 7.292,9.18 C 7.294,9.173 7.292,9.169 7.291,9.164 L 7.293,9.161 A 0.368,0.368 0 0 1 7.338,9.114 L 7.475,8.986 7.639,8.832 H 7.449 A 0.741,0.741 0 0 1 7.314,8.802 0.924,0.924 0 0 0 6.938,8.732 Z m 1.83,0.381 0.011,0.01 a 0.76,0.76 0 0 1 0.07,0.095 C 8.849,9.259 8.888,9.315 8.912,9.347 8.948,9.394 8.962,9.418 8.963,9.425 8.965,9.432 8.964,9.44 8.949,9.477 8.919,9.553 8.844,9.756 8.809,9.86 l -0.07,0.192 -0.092,0.258 a 3.493,3.493 0 0 1 -0.198,0.492 l -0.07,0.125 -0.228,0.393 -0.05,0.087 c -0.001,0 0,0 0,0 A 5.407,5.407 0 0 1 7.703,11.539 L 7.686,11.501 7.524,11.093 A 2.519,2.519 0 0 0 7.463,10.952 C 7.458,10.942 7.457,10.936 7.446,10.923 7.427,10.901 7.41,10.897 7.392,10.893 A 0.239,0.239 0 0 0 7.334,10.885 0.1,0.1 0 0 1 7.301,10.881 C 7.303,10.879 7.306,10.869 7.315,10.857 A 1.84,1.84 0 0 1 7.4,10.747 C 7.486,10.644 7.632,10.476 7.873,10.201 8.14,9.897 8.243,9.777 8.313,9.694 8.355,9.644 8.425,9.564 8.468,9.517 A 6.305,6.305 0 0 0 8.653,9.309 H 8.665 L 8.659,9.302 A 0.382,0.382 0 0 0 8.711,9.23 0.169,0.169 0 0 0 8.73,9.153 C 8.73,9.138 8.735,9.123 8.74,9.116 8.743,9.113 8.741,9.115 8.741,9.113 Z M 5.196,9.246 c 0.01,0.012 0.02,0.023 0.03,0.039 0.164,0.245 0.306,0.451 0.472,0.684 l 0.076,0.111 a 0.625,0.625 0 0 0 0.112,0.137 0.365,0.365 0 0 0 0.135,0.068 l 0.03,0.01 H 6.049 l -0.02,0.009 c -0.006,0.003 -0.014,0.005 -0.026,0.023 -0.012,0.02 -0.008,0.033 -0.007,0.04 a 0.062,0.062 0 0 0 0.005,0.016 0.732,0.732 0 0 0 0.044,0.067 c 0.027,0.037 0.066,0.084 0.108,0.135 0.085,0.102 0.186,0.217 0.255,0.284 a 0.22,0.22 0 0 1 0.04,0.045 0.163,0.163 0 0 1 0.005,0.053 c 0,0.033 -0.02,0.122 -0.055,0.23 -0.036,0.11 -0.087,0.241 -0.148,0.378 L 6.19,11.711 6.182,11.73 A 5.407,5.407 0 0 1 5.993,11.723 L 5.969,11.693 5.916,11.619 C 5.531,11.087 5.3,10.662 5.24,10.396 A 0.801,0.801 0 0 0 5.19,10.229 0.184,0.184 0 0 0 5.106,10.14 C 5.049,10.113 5.005,10.05 4.981,9.94 A 12.127,12.127 0 0 0 4.923,9.681 L 4.919,9.661 4.924,9.655 A 0.378,0.378 0 0 1 4.967,9.616 0.33,0.33 0 0 0 5.06,9.516 C 5.09,9.468 5.127,9.391 5.196,9.246 Z m 5.551,0.1 a 5.407,5.407 0 0 1 -0.01,0.016 h -0.049 l 0.06,-0.017 z m -0.148,0.04 0.046,0.06 0.015,0.02 a 5.407,5.407 0 0 1 -0.177,0.233 l 0.013,-0.078 c 0.012,-0.078 0.022,-0.134 0.03,-0.17 0.006,-0.024 0.014,-0.038 0.015,-0.041 10e-4,0 0.007,-0.005 0.02,-0.01 A 0.563,0.563 0 0 1 10.599,9.386 Z M 9.549,9.521 C 9.55,9.559 9.55,9.627 9.547,9.742 9.539,10.033 9.523,10.129 9.457,10.269 a 0.494,0.494 0 0 0 -0.043,0.125 c -0.01,0.053 -0.021,0.13 -0.042,0.284 l -0.006,0.069 a 5.407,5.407 0 0 1 -0.8,0.466 c 0.079,-0.18 0.181,-0.388 0.22,-0.54 A 0.971,0.971 0 0 1 8.869,10.515 C 8.952,10.387 9.152,10.022 9.3,9.725 9.338,9.649 9.362,9.605 9.378,9.581 L 9.391,9.564 A 1.25,1.25 0 0 0 9.506,9.532 0.45,0.45 0 0 1 9.549,9.521 Z M 8.198,9.576 V 9.577 C 7.85,9.919 7.72,10.042 7.681,10.069 A 0.436,0.436 0 0 0 7.504,10.285 C 7.458,10.388 7.413,10.453 7.261,10.631 A 11.021,11.021 0 0 0 7.105,10.815 0.061,0.061 0 0 0 7.091,10.795 0.072,0.072 0 0 0 7.036,10.779 0.116,0.116 0 0 0 6.963,10.821 L 6.962,10.823 6.955,10.817 c -0.024,-0.028 -0.06,-0.052 -0.103,-0.042 0,-0.001 0,-0.003 0.002,-0.005 a 3.289,3.289 0 0 1 0.11,-0.175 c 0.067,-0.1 0.151,-0.216 0.209,-0.288 a 0.325,0.325 0 0 1 0.07,-0.068 0.061,0.061 0 0 0 0.026,0.015 c 0.019,0.005 0.035,0 0.046,-0.005 0.022,-0.01 0.034,-0.022 0.052,-0.04 0.01,-0.01 0.012,-0.01 0.019,-0.014 0,0.004 0.003,0.007 0.004,0.01 0.003,0.01 0.011,0.025 0.024,0.033 a 0.058,0.058 0 0 0 0.035,0.007 C 7.467,10.243 7.474,10.238 7.482,10.233 A 0.323,0.323 0 0 0 7.53,10.196 4.23,4.23 0 0 0 7.706,10.026 C 7.833,9.897 8.011,9.735 8.172,9.598 Z M 4.487,9.655 c 0.1,0.002 0.152,0.01 0.164,0.016 0.006,0.002 0.005,0.002 0.008,0.009 a 0.26,0.26 0 0 1 0.012,0.05 c 0.007,0.039 0.025,0.107 0.042,0.163 0.016,0.05 0.033,0.135 0.037,0.175 0.005,0.055 0.026,0.168 0.047,0.265 0.022,0.094 0.057,0.252 0.078,0.35 a 15.576,15.576 0 0 1 0.084,0.387 l 0.003,0.01 a 0.045,0.045 0 0 0 0.003,0.008 v 0.001 l 0.002,0.01 0.01,0.038 0.025,0.123 c 0.008,0.045 0.02,0.095 0.032,0.15 l -0.1,0.047 c -0.012,0.006 -0.016,0.014 -0.02,0.02 L 4.911,11.481 4.909,11.482 4.908,11.485 4.87,11.545 A 5.407,5.407 0 0 1 4.577,11.461 C 4.572,11.411 4.57,11.346 4.563,11.31 4.549,11.237 4.535,11.186 4.495,11.152 a 0.24,0.24 0 0 0 -0.07,-0.041 l 0.001,-0.009 -0.05,-0.006 a 0.056,0.056 0 0 0 -0.012,0 V 11.095 H 4.349 a 0.058,0.058 0 0 0 -0.033,0.02 c -0.013,0.013 -0.014,0.02 -0.015,0.026 l -0.002,0.011 v 0.016 l 0.003,0.035 0.014,0.104 0.012,0.062 A 5.407,5.407 0 0 1 3.316,10.852 c 0.029,-0.06 0.066,-0.12 0.078,-0.155 a 0.556,0.556 0 0 1 0.06,-0.132 c 0.013,-0.013 0.018,-0.014 0.06,-0.019 0.132,-0.015 0.225,-0.05 0.29,-0.118 a 0.397,0.397 0 0 0 0.043,-0.051 c 0.012,-0.018 0.021,-0.03 0.026,-0.056 a 10.646,10.646 0 0 1 0.1,-0.544 L 3.987,9.721 C 3.992,9.71 3.983,9.715 4.009,9.706 A 1.648,1.648 0 0 1 4.486,9.654 Z M 4.438,9.795 A 0.633,0.633 0 0 0 4.304,9.815 C 4.241,9.827 4.154,9.848 4.037,9.876 L 4.02,9.881 c -0.005,10e-4 -0.01,0 -0.022,0.01 -0.006,0.005 -0.022,0.015 -0.023,0.043 0,0.014 0.006,0.029 0.013,0.036 a 0.05,0.05 0 0 0 0.016,0.013 c 0.016,0.01 0.02,0.007 0.026,0.008 0.025,0.003 0.059,0.003 0.125,0.003 0.074,10e-4 0.117,0 0.154,-0.006 A 0.473,0.473 0 0 0 4.488,9.903 0.064,0.064 0 0 0 4.499,9.89 C 4.503,9.884 4.511,9.875 4.509,9.854 A 0.07,0.07 0 0 0 4.474,9.802 C 4.46,9.796 4.449,9.796 4.438,9.795 Z M 2.269,9.838 C 2.285,9.839 2.293,9.843 2.294,9.843 V 9.85 L 2.29,9.855 C 2.283,9.863 2.245,9.897 2.224,9.917 A 5.407,5.407 0 0 1 2.179,9.862 C 2.211,9.853 2.251,9.837 2.269,9.838 Z m 4.6,0.462 c 0.004,0.005 0.005,0.008 0.013,0.015 a 0.08,0.08 0 0 0 0.063,0.012 0.095,0.095 0 0 0 0.034,-0.02 4.184,4.184 0 0 1 -0.262,0.384 l -0.01,0.008 v -10e-4 c 0.003,-0.01 0.004,-0.017 0.005,-0.028 0,-0.01 0.002,-0.029 -0.015,-0.048 a 0.065,0.065 0 0 0 -0.05,-0.021 c -0.012,0 -0.02,0.002 -0.028,0.003 L 6.617,10.605 C 6.592,10.572 6.558,10.562 6.522,10.561 v -0.007 c 10e-4,-0.005 0.005,-0.009 0,-0.002 0.009,-0.011 0.017,-0.02 0.022,-0.041 A 0.06,0.06 0 0 0 6.537,10.467 0.062,0.062 0 0 0 6.497,10.44 c -0.025,-0.005 -0.036,0.002 -0.048,0.008 -0.01,0.004 -0.018,0.01 -0.027,0.016 0.002,-0.009 0.002,-0.016 0.008,-0.029 a 0.155,0.155 0 0 1 0.04,-0.05 c 0.016,-0.013 0.033,-0.017 0.033,-0.017 l 0.01,0.005 a 0.043,0.043 0 0 1 0.013,0.015 c 0.004,0.011 0.014,0.027 0.032,0.036 a 0.065,0.065 0 0 0 0.047,0.003 c 0.022,-0.008 0.032,-0.018 0.045,-0.03 a 0.067,0.067 0 0 1 0.032,-0.015 c 0.01,-10e-4 0.012,0.002 0.006,-0.003 0.016,0.016 0.043,0.02 0.058,0.017 0.015,-0.003 0.024,-0.01 0.033,-0.015 a 0.326,0.326 0 0 0 0.055,-0.05 c 0.023,-0.023 0.03,-0.027 0.036,-0.03 z m -1.686,0.538 0.052,0.073 c 0.063,0.095 0.135,0.206 0.171,0.27 l 0.108,0.182 c 0.037,0.061 0.084,0.142 0.103,0.176 0.02,0.038 0.059,0.106 0.088,0.154 l 0.004,0.008 A 5.407,5.407 0 0 1 5.367,11.653 L 5.334,11.516 A 18.05,18.05 0 0 1 5.24,11.092 8.675,8.675 0 0 0 5.183,10.838 Z m 2.118,0.034 z m -2.335,0.216 z m 0.08,0.375 0.025,0.115 0.004,0.022 A 5.407,5.407 0 0 1 5.047,11.595 L 5.039,11.553 a 0.365,0.365 0 0 0 -0.017,-0.05 z"
     id="path2"
     inkscape:connector-curvature="0"
     style="fill:#bde6fb;fill-opacity:1" />
</svg>
