<?xml version="1.0" encoding="UTF-8" standalone="no"?>
<svg
   width="47.546486"
   height="47.546486"
   viewBox="0 0 12.580008 12.580008"
   version="1.1"
   id="svg4"
   sodipodi:docname="qbittorrent.svg"
   inkscape:version="0.92.4 (5da689c313, 2019-01-14)"
   xmlns:inkscape="http://www.inkscape.org/namespaces/inkscape"
   xmlns:sodipodi="http://sodipodi.sourceforge.net/DTD/sodipodi-0.dtd"
   xmlns="http://www.w3.org/2000/svg"
   xmlns:svg="http://www.w3.org/2000/svg"
   xmlns:rdf="http://www.w3.org/1999/02/22-rdf-syntax-ns#"
   xmlns:cc="http://creativecommons.org/ns#"
   xmlns:dc="http://purl.org/dc/elements/1.1/">
  <metadata
     id="metadata10">
    <rdf:RDF>
      <cc:Work
         rdf:about="">
        <dc:format>image/svg+xml</dc:format>
        <dc:type
           rdf:resource="http://purl.org/dc/dcmitype/StillImage" />
        <dc:title />
      </cc:Work>
    </rdf:RDF>
  </metadata>
  <defs
     id="defs8" />
  <sodipodi:namedview
     pagecolor="#ffffff"
     bordercolor="#666666"
     borderopacity="1"
     objecttolerance="10"
     gridtolerance="10"
     guidetolerance="10"
     inkscape:pageopacity="0"
     inkscape:pageshadow="2"
     inkscape:window-width="1087"
     inkscape:window-height="480"
     id="namedview6"
     showgrid="false"
     inkscape:zoom="4.9166667"
     inkscape:cx="2.1355932"
     inkscape:cy="24"
     inkscape:window-x="0"
     inkscape:window-y="25"
     inkscape:window-maximized="0"
     inkscape:current-layer="svg4"
     inkscape:showpageshadow="0"
     inkscape:pagecheckerboard="0"
     inkscape:deskcolor="#d1d1d1" />
  <path
     d="M 6.2900079,0 A 6.29,6.29 0 0 0 7.9473853e-6,6.3 6.29,6.29 0 0 0 6.3000079,12.58 6.29,6.29 0 0 0 12.580008,6.29 6.29,6.29 0 0 0 6.2900079,0 Z m -0.02,0.94 A 5.4,5.4 0 0 1 11.670008,6.34 5.4,5.4 0 0 1 6.2700079,11.75 5.4,5.4 0 0 1 0.87000795,6.35 5.4,5.4 0 0 1 6.2700079,0.94 Z m 0.78,0.32 -0.98,1.1 h 0.66 v 6.12 h 0.65 V 7.8 c 0.31,0.42 0.75,0.63 1.31,0.63 0.55,0 0.98,-0.2 1.29,-0.58 0.3000001,-0.39 0.4600001,-0.93 0.4600001,-1.62 0,-0.69 -0.15,-1.22 -0.4500001,-1.6 -0.31,-0.39 -0.74,-0.58 -1.28,-0.58 -0.6,0 -1.03,0.21 -1.33,0.63 V 2.36 h 0.66 z m -1.85,2.84 v 0.68 a 1.54,1.54 0 0 0 -1.31,-0.63 c -0.55,0 -0.98,0.2 -1.29,0.58 -0.3,0.39 -0.46,0.93 -0.46,1.62 0,0.69 0.15,1.22 0.45,1.6 0.31,0.39 0.74,0.58 1.28,0.58 0.6,0 1.03,-0.21 1.33,-0.63 v 2.32 h -0.66 l 0.99,1.1 0.98,-1.1 h -0.67 V 4.1 h -0.65 z m 3.41,0.48 a 1,1 0 0 1 0.88,0.42 c 0.2,0.28 0.29,0.68 0.29,1.22 0,0.53 -0.1,0.94 -0.3,1.23 -0.2,0.3 -0.49,0.44 -0.86,0.44 -0.44,0 -0.75,-0.13 -0.95,-0.4 -0.15,-0.19 -0.25,-0.47 -0.29,-0.85 V 5.89 c 0.03,-0.44 0.13,-0.77 0.3,-0.97 0.2,-0.22 0.5,-0.34 0.93,-0.34 z m -4.65,0.11 c 0.44,0 0.75,0.13 0.95,0.4 0.15,0.19 0.25,0.47 0.29,0.85 v 0.75 c -0.03,0.44 -0.13,0.77 -0.3,0.97 -0.2,0.22 -0.5,0.34 -0.93,0.34 a 1,1 0 0 1 -0.88,-0.42 c -0.2,-0.28 -0.29,-0.68 -0.29,-1.22 0,-0.53 0.1,-0.94 0.3,-1.23 0.2,-0.3 0.49,-0.44 0.86,-0.44 z"
     id="path2"
     inkscape:connector-curvature="0"
     style="fill:#bde6fb;fill-opacity:1" />
</svg>
