<?xml version="1.0" encoding="UTF-8" standalone="no"?>
<svg
   width="47.546486"
   height="47.546486"
   viewBox="0 0 12.580008 12.580008"
   version="1.1"
   id="svg4"
   sodipodi:docname="qelectrotech.svg"
   inkscape:version="0.92.4 (5da689c313, 2019-01-14)"
   xmlns:inkscape="http://www.inkscape.org/namespaces/inkscape"
   xmlns:sodipodi="http://sodipodi.sourceforge.net/DTD/sodipodi-0.dtd"
   xmlns="http://www.w3.org/2000/svg"
   xmlns:svg="http://www.w3.org/2000/svg"
   xmlns:rdf="http://www.w3.org/1999/02/22-rdf-syntax-ns#"
   xmlns:cc="http://creativecommons.org/ns#"
   xmlns:dc="http://purl.org/dc/elements/1.1/">
  <metadata
     id="metadata10">
    <rdf:RDF>
      <cc:Work
         rdf:about="">
        <dc:format>image/svg+xml</dc:format>
        <dc:type
           rdf:resource="http://purl.org/dc/dcmitype/StillImage" />
        <dc:title />
      </cc:Work>
    </rdf:RDF>
  </metadata>
  <defs
     id="defs8" />
  <sodipodi:namedview
     pagecolor="#ffffff"
     bordercolor="#666666"
     borderopacity="1"
     objecttolerance="10"
     gridtolerance="10"
     guidetolerance="10"
     inkscape:pageopacity="0"
     inkscape:pageshadow="2"
     inkscape:window-width="1087"
     inkscape:window-height="480"
     id="namedview6"
     showgrid="false"
     inkscape:zoom="4.9166667"
     inkscape:cx="2.1355932"
     inkscape:cy="24"
     inkscape:window-x="0"
     inkscape:window-y="25"
     inkscape:window-maximized="0"
     inkscape:current-layer="svg4"
     inkscape:showpageshadow="0"
     inkscape:pagecheckerboard="0"
     inkscape:deskcolor="#d1d1d1" />
  <path
     d="M 6.2900079,0 A 6.29,6.29 0 0 0 7.9490244e-6,6.3 6.29,6.29 0 0 0 6.3000079,12.58 6.29,6.29 0 0 0 12.580008,6.29 6.29,6.29 0 0 0 6.2900079,0 Z m -0.01,0.94 A 5.4,5.4 0 0 1 11.680008,6.34 5.4,5.4 0 0 1 6.2800079,11.75 5.4,5.4 0 0 1 0.87000795,6.35 5.4,5.4 0 0 1 6.2700079,0.93 Z m -0.05,1.18 c -0.66,0 -1.22,0.5 -1.3,1.14 h -2.3 v 3.02 h -0.75 v 0.38 h 1.89 V 6.28 h -0.76 V 3.63 h 1.9 a 1.32,1.32 0 0 0 2.62,0 h 2.04 v 1.13 h -0.76 v 3.4 h 0.76 v 1.52 h -1.3 a 0.57,0.57 0 1 0 0,0.38 h 1.68 V 8.16 H 10.700008 V 4.76 H 9.9500079 v -1.5 h -2.41 a 1.32,1.32 0 0 0 -1.3,-1.14 z m 0,0.38 c 0.2,0 0.37,0.06 0.52,0.15 l -0.52,0.52 -0.52,-0.52 c 0.15,-0.1 0.33,-0.15 0.52,-0.15 z m -0.78,0.43 0.52,0.52 -0.52,0.52 a 0.95,0.95 0 0 1 0,-1.04 z m 1.58,0 a 0.96,0.96 0 0 1 0,1.04 l -0.52,-0.52 z m -0.79,0.79 0.52,0.52 a 0.95,0.95 0 0 1 -1.04,0 z m -2.84,3.31 h -1.15 v 0.38 h 0.38 v 2.65 h 1.55 c 0.08,0.22 0.28,0.38 0.53,0.38 a 0.57,0.57 0 0 0 0.56,-0.69 l 2,-1.16 -0.19,-0.33 -2.01,1.17 a 0.56,0.56 0 0 0 -0.89,0.25 h -1.15 V 7.41 h 0.38 V 7.03 Z m 1.32,2.65 a 0.19,0.19 0 1 1 0,0.38 0.19,0.19 0 0 1 0,-0.38 z m 3.02,0 a 0.19,0.19 0 0 1 0,0.38 0.19,0.19 0 1 1 0,-0.38 z"
     id="path2"
     inkscape:connector-curvature="0"
     style="fill:#bde6fb;fill-opacity:1" />
</svg>
