<?xml version="1.0" encoding="UTF-8" standalone="no"?>
<svg
   width="47.546486"
   height="47.546486"
   viewBox="0 0 12.580008 12.580008"
   version="1.1"
   id="svg4"
   sodipodi:docname="qemu.svg"
   inkscape:version="0.92.4 (5da689c313, 2019-01-14)"
   xmlns:inkscape="http://www.inkscape.org/namespaces/inkscape"
   xmlns:sodipodi="http://sodipodi.sourceforge.net/DTD/sodipodi-0.dtd"
   xmlns="http://www.w3.org/2000/svg"
   xmlns:svg="http://www.w3.org/2000/svg"
   xmlns:rdf="http://www.w3.org/1999/02/22-rdf-syntax-ns#"
   xmlns:cc="http://creativecommons.org/ns#"
   xmlns:dc="http://purl.org/dc/elements/1.1/">
  <metadata
     id="metadata10">
    <rdf:RDF>
      <cc:Work
         rdf:about="">
        <dc:format>image/svg+xml</dc:format>
        <dc:type
           rdf:resource="http://purl.org/dc/dcmitype/StillImage" />
        <dc:title />
      </cc:Work>
    </rdf:RDF>
  </metadata>
  <defs
     id="defs8" />
  <sodipodi:namedview
     pagecolor="#ffffff"
     bordercolor="#666666"
     borderopacity="1"
     objecttolerance="10"
     gridtolerance="10"
     guidetolerance="10"
     inkscape:pageopacity="0"
     inkscape:pageshadow="2"
     inkscape:window-width="861"
     inkscape:window-height="480"
     id="namedview6"
     showgrid="false"
     inkscape:zoom="4.9166667"
     inkscape:cx="2.1355932"
     inkscape:cy="24"
     inkscape:window-x="0"
     inkscape:window-y="25"
     inkscape:window-maximized="0"
     inkscape:current-layer="svg4"
     inkscape:showpageshadow="0"
     inkscape:pagecheckerboard="0"
     inkscape:deskcolor="#d1d1d1" />
  <path
     d="M 6.2900079,0 A 6.29,6.29 0 0 0 7.9490244e-6,6.3 6.29,6.29 0 0 0 6.3000079,12.58 6.29,6.29 0 0 0 12.580008,6.29 6.29,6.29 0 0 0 6.2900079,0 Z m -0.02,0.93 0.01,0.01 a 5.4,5.4 0 0 1 5.4000001,5.4 5.4,5.4 0 0 1 -5.4000001,5.41 5.4,5.4 0 0 1 -0.453,-0.022 4.469,4.469 0 0 1 -0.057,-0.43 c -0.303,-1.548 -1.1,-2.366 -1.172,-4.095 -0.016,-0.427 0.445,-1.291 0.961,-1.745 0.778,-0.684 1.519,-0.511 2.512,-0.364 l 0.018,0.003 c 0.032,0.006 0.068,0.011 0.1,0.018 0.266,0.023 0.8,0.127 0.896,-0.056 -0.366,-0.312 -0.893,-0.352 -1.34,-0.475 a 2.9,2.9 0 0 0 -0.244,-0.035 l -0.437,-0.098 -0.109,-0.028 v 0.003 l -1.562,-0.306 a 0.756,0.756 0 0 0 -0.077,-0.062 l 1.524,0.19 V 4.24 c 0.054,0.012 0.107,0.021 0.161,0.028 v 0.003 l 1.077,0.2 c 0.186,0.069 0.384,0.121 0.57,0.133 0.307,0.044 0.697,0.502 0.798,0.524 -0.05,-0.482 -0.531,-0.698 -0.93,-0.84 -0.467,-0.226 -1.165,-0.218 -1.239,-0.846 -0.02,-0.043 -0.039,-0.087 -0.063,-0.129 l -0.181,-0.241 0.006,-0.004 a 1.796,1.796 0 0 0 -0.968,-0.587 c -0.369,-0.127 -0.782,-0.254 -1.171,-0.305 -0.133,0.39 -0.28,-0.308 -0.599,-0.1 -0.278,0.032 -0.24,0.106 -0.447,-0.07 -0.007,0.244 -0.433,0.03 -0.451,0.31 -0.473,-0.21 0.036,0.322 -0.011,0.371 h -0.003 l -0.036,-0.004 a 0.543,0.543 0 0 1 -0.104,-0.052 0.88,0.88 0 0 0 -0.23,0.301 4.762,4.762 0 0 0 -0.715,1.77 c -0.165,0.825 -0.436,1.732 -0.42,2.545 -0.063,0.778 0.118,1.892 0.305,2.629 A 5.4,5.4 0 0 1 0.87000795,6.35 5.4,5.4 0 0 1 6.2700079,0.93 Z m -0.361,2.042 a 0.91,0.91 0 0 1 0.362,0.072 c 0.337,0.136 0.557,0.423 0.492,0.642 -0.065,0.219 -0.391,0.283 -0.729,0.147 -0.337,-0.136 -0.556,-0.419 -0.492,-0.638 0.04,-0.137 0.183,-0.217 0.367,-0.223 z"
     id="path2"
     inkscape:connector-curvature="0"
     style="fill:#bde6fb;fill-opacity:1" />
</svg>
