<?xml version="1.0" encoding="UTF-8" standalone="no"?>
<svg
   width="47.376377"
   height="47.372604"
   viewBox="0 0 12.535 12.534002"
   version="1.1"
   id="svg4"
   sodipodi:docname="qjackctl.svg"
   inkscape:version="0.92.4 (5da689c313, 2019-01-14)"
   xmlns:inkscape="http://www.inkscape.org/namespaces/inkscape"
   xmlns:sodipodi="http://sodipodi.sourceforge.net/DTD/sodipodi-0.dtd"
   xmlns="http://www.w3.org/2000/svg"
   xmlns:svg="http://www.w3.org/2000/svg"
   xmlns:rdf="http://www.w3.org/1999/02/22-rdf-syntax-ns#"
   xmlns:cc="http://creativecommons.org/ns#"
   xmlns:dc="http://purl.org/dc/elements/1.1/">
  <metadata
     id="metadata10">
    <rdf:RDF>
      <cc:Work
         rdf:about="">
        <dc:format>image/svg+xml</dc:format>
        <dc:type
           rdf:resource="http://purl.org/dc/dcmitype/StillImage" />
        <dc:title />
      </cc:Work>
    </rdf:RDF>
  </metadata>
  <defs
     id="defs8" />
  <sodipodi:namedview
     pagecolor="#ffffff"
     bordercolor="#666666"
     borderopacity="1"
     objecttolerance="10"
     gridtolerance="10"
     guidetolerance="10"
     inkscape:pageopacity="0"
     inkscape:pageshadow="2"
     inkscape:window-width="1087"
     inkscape:window-height="480"
     id="namedview6"
     showgrid="false"
     inkscape:zoom="4.9166667"
     inkscape:cx="2.1355932"
     inkscape:cy="24"
     inkscape:window-x="0"
     inkscape:window-y="25"
     inkscape:window-maximized="0"
     inkscape:current-layer="svg4"
     inkscape:showpageshadow="0"
     inkscape:pagecheckerboard="0"
     inkscape:deskcolor="#d1d1d1" />
  <path
     d="M 6.268,8.2373619e-8 A 6.267,6.267 0 0 0 0,6.2670001 6.267,6.267 0 0 0 6.268,12.534 6.267,6.267 0 0 0 12.535,6.2670001 6.267,6.267 0 0 0 6.268,8.2373619e-8 Z M 6.25,0.93200008 A 5.388,5.388 0 0 1 11.638,6.3220001 5.388,5.388 0 0 1 6.25,11.709 5.388,5.388 0 0 1 0.861,6.3210001 5.388,5.388 0 0 1 6.251,0.93200008 Z m 3.024,1.80500002 -0.233,0.469 0.321,0.32 0.468,-0.232 -0.056,-0.5 z m -0.42,0.488 -0.115,0.114 0.49,0.49 0.115,-0.114 z m -0.193,0.191 -0.678,0.679 0.49,0.49 0.679,-0.678 -0.49,-0.49 z m -0.737,0.738 -0.915,0.914 -0.454,-0.453 -2.183,2.184 -0.409,0.875 -0.59,0.59 0.215,0.216 -0.973,0.98 0.452,0.452 0.974,-0.98 0.212,0.213 0.583,-0.583 0.008,0.007 0.885,-0.413 2.184,-2.183 -0.414,-0.413 0.915,-0.914 -0.49,-0.493 z"
     id="path2"
     inkscape:connector-curvature="0"
     style="fill:#bde6fb;fill-opacity:1" />
</svg>
