<?xml version="1.0" encoding="UTF-8" standalone="no"?>
<svg
   width="47.546486"
   height="47.546486"
   viewBox="0 0 12.580008 12.580008"
   version="1.1"
   id="svg4"
   sodipodi:docname="QOwnNotes.svg"
   inkscape:version="0.92.4 (5da689c313, 2019-01-14)"
   xmlns:inkscape="http://www.inkscape.org/namespaces/inkscape"
   xmlns:sodipodi="http://sodipodi.sourceforge.net/DTD/sodipodi-0.dtd"
   xmlns="http://www.w3.org/2000/svg"
   xmlns:svg="http://www.w3.org/2000/svg"
   xmlns:rdf="http://www.w3.org/1999/02/22-rdf-syntax-ns#"
   xmlns:cc="http://creativecommons.org/ns#"
   xmlns:dc="http://purl.org/dc/elements/1.1/">
  <metadata
     id="metadata10">
    <rdf:RDF>
      <cc:Work
         rdf:about="">
        <dc:format>image/svg+xml</dc:format>
        <dc:type
           rdf:resource="http://purl.org/dc/dcmitype/StillImage" />
        <dc:title />
      </cc:Work>
    </rdf:RDF>
  </metadata>
  <defs
     id="defs8" />
  <sodipodi:namedview
     pagecolor="#ffffff"
     bordercolor="#666666"
     borderopacity="1"
     objecttolerance="10"
     gridtolerance="10"
     guidetolerance="10"
     inkscape:pageopacity="0"
     inkscape:pageshadow="2"
     inkscape:window-width="1087"
     inkscape:window-height="480"
     id="namedview6"
     showgrid="false"
     inkscape:zoom="4.9166667"
     inkscape:cx="2.1355932"
     inkscape:cy="24"
     inkscape:window-x="0"
     inkscape:window-y="25"
     inkscape:window-maximized="0"
     inkscape:current-layer="svg4"
     inkscape:showpageshadow="0"
     inkscape:pagecheckerboard="0"
     inkscape:deskcolor="#d1d1d1" />
  <path
     d="M 6.2900079,0 A 6.29,6.29 0 0 0 7.9490244e-6,6.3 6.29,6.29 0 0 0 6.3000079,12.58 6.29,6.29 0 0 0 12.580008,6.29 6.29,6.29 0 0 0 6.2900079,0 Z m -0.02,0.93 0.01,0.01 A 5.4,5.4 0 0 1 11.680008,6.34 5.4,5.4 0 0 1 6.2800079,11.75 5.4,5.4 0 0 1 0.87000795,6.35 5.4,5.4 0 0 1 6.2700079,0.93 Z m 0.03,1.65 a 2.65,2.65 0 0 0 -0.23,0 2.47,2.47 0 0 0 -0.05,0.01 2.65,2.65 0 0 0 -2.37,2.64 2.65,2.65 0 0 0 0,0.02 1.85,1.85 0 0 0 -1.58,1.83 1.85,1.85 0 0 0 0,0.05 1.76,1.76 0 0 0 0,0.04 1.76,1.76 0 0 0 1.76,1.76 h 4.59 A 2.12,2.12 0 0 0 10.530008,6.81 2.12,2.12 0 0 0 8.9000079,4.75 a 2.65,2.65 0 0 0 -2.24,-2.15 2.47,2.47 0 0 0 -0.03,0 2.65,2.65 0 0 0 -0.17,-0.02 2.47,2.47 0 0 0 -0.16,0 z m 0,0.79 h 0.1 a 0.8,0.8 0 0 0 0.02,0 l 0.1,0.02 h 0.01 a 0.8,0.8 0 0 0 0.02,0 c 0.8,0.11 1.43,0.71 1.57,1.5 a 0.8,0.8 0 0 0 0.6,0.64 c 0.6,0.14 1.02,0.66 1.02,1.28 0,0.74 -0.58,1.32 -1.32,1.32 h -4.59 a 0.96,0.96 0 0 1 -0.97,-0.97 V 7.15 a 0.8,0.8 0 0 0 0,-0.06 V 7.07 c 0,-0.53 0.38,-0.97 0.9,-1.04 a 0.8,0.8 0 0 0 0.69,-0.8 c 0,-0.96 0.7,-1.75 1.65,-1.85 a 0.8,0.8 0 0 0 0.02,0 1.07,1.07 0 0 1 0.17,-0.01 z"
     id="path2"
     inkscape:connector-curvature="0"
     style="fill:#bde6fb;fill-opacity:1" />
</svg>
