<?xml version="1.0" encoding="UTF-8" standalone="no"?>
<svg
   width="47.546486"
   height="47.546486"
   viewBox="0 0 12.580008 12.580008"
   version="1.1"
   id="svg4"
   sodipodi:docname="qreator.svg"
   inkscape:version="0.92.4 (5da689c313, 2019-01-14)"
   xmlns:inkscape="http://www.inkscape.org/namespaces/inkscape"
   xmlns:sodipodi="http://sodipodi.sourceforge.net/DTD/sodipodi-0.dtd"
   xmlns="http://www.w3.org/2000/svg"
   xmlns:svg="http://www.w3.org/2000/svg"
   xmlns:rdf="http://www.w3.org/1999/02/22-rdf-syntax-ns#"
   xmlns:cc="http://creativecommons.org/ns#"
   xmlns:dc="http://purl.org/dc/elements/1.1/">
  <metadata
     id="metadata10">
    <rdf:RDF>
      <cc:Work
         rdf:about="">
        <dc:format>image/svg+xml</dc:format>
        <dc:type
           rdf:resource="http://purl.org/dc/dcmitype/StillImage" />
        <dc:title />
      </cc:Work>
    </rdf:RDF>
  </metadata>
  <defs
     id="defs8" />
  <sodipodi:namedview
     pagecolor="#ffffff"
     bordercolor="#666666"
     borderopacity="1"
     objecttolerance="10"
     gridtolerance="10"
     guidetolerance="10"
     inkscape:pageopacity="0"
     inkscape:pageshadow="2"
     inkscape:window-width="1087"
     inkscape:window-height="480"
     id="namedview6"
     showgrid="false"
     inkscape:zoom="4.9166667"
     inkscape:cx="2.1355932"
     inkscape:cy="24"
     inkscape:window-x="0"
     inkscape:window-y="25"
     inkscape:window-maximized="0"
     inkscape:current-layer="svg4"
     inkscape:showpageshadow="0"
     inkscape:pagecheckerboard="0"
     inkscape:deskcolor="#d1d1d1" />
  <path
     d="M 6.2900079,0 A 6.29,6.29 0 0 0 7.9490244e-6,6.3 6.29,6.29 0 0 0 6.3000079,12.58 6.29,6.29 0 0 0 12.580008,6.29 6.29,6.29 0 0 0 6.2900079,0 Z m -0.02,0.93 0.01,0.01 A 5.4,5.4 0 0 1 11.680008,6.34 5.4,5.4 0 0 1 6.2800079,11.75 5.4,5.4 0 0 1 0.87000795,6.35 5.4,5.4 0 0 1 6.2700079,0.93 Z m -3.41,1.91 v 2.58 h 2.58 V 2.84 Z m 3.01,0 v 0.43 h 0.43 V 2.84 Z m 0.43,0.43 V 3.7 h -0.43 v 0.86 h 0.43 V 4.13 h 0.43 V 3.27 Z m 0,1.29 v 0.86 h 0.43 V 4.56 Z m 0,0.86 h -0.43 v 0.43 h 0.43 z m 0,0.43 v 0.43 h 0.43 V 5.85 Z m 0.43,0.43 v 0.43 h 0.86 V 5.85 h -0.43 v 0.43 z m 0.86,0.43 v 0.43 h 0.43 v 0.43 h 0.43 V 6.71 Z m 0,0.43 h -0.43 v 0.43 h 0.43 z m -0.43,0.43 h -0.43 V 8 h 0.43 z m 0,0.43 v 0.43 h 0.43 V 8 Z m 0.43,0.43 v 0.43 h 0.43 V 8.43 Z m 0.43,0 h 0.86 V 8 h -0.86 z m 0.86,0 v 1.29 h 0.43 V 9.29 h 0.43 V 8.86 h -0.43 V 8.43 Z m -0.86,0.43 v 0.86 h 0.43 V 8.86 Z m -0.43,0 h -0.86 v 0.86 h 0.86 z m -0.86,0 V 8 h -0.86 v 0.43 h 0.43 v 0.43 z m -0.43,0 h -0.43 v 0.86 h 0.43 z m 0.43,-1.29 V 6.71 h -0.86 v 0.43 h 0.43 v 0.43 z m -0.86,-0.86 V 5.85 h -0.43 v 0.43 h -0.43 v 0.43 z m -0.86,-0.43 V 5.85 h -0.86 v 0.43 z m -0.86,0 h -0.43 V 5.85 h -0.86 v 0.86 h 1.29 z m 3.01,-3.44 v 2.58 h 2.58 V 2.84 Z m -3.87,0.43 h 1.72 v 1.72 h -1.72 z m 4.3,0 h 1.72 v 1.72 h -1.72 z m -3.87,0.43 v 0.86 h 0.86 V 3.7 Z m 4.3,0 v 0.86 h 0.86 V 3.7 Z m 0,2.15 v 0.43 h 0.86 v 0.43 h 0.86 V 6.28 h -0.43 V 5.85 Z m -5.16,1.29 v 2.58 h 2.58 V 7.14 Z m 6.02,0 v 0.43 h 0.43 V 8 h 0.43 V 7.14 Z m -5.59,0.43 h 1.72 v 1.72 h -1.72 z m 0.43,0.43 v 0.86 h 0.86 V 8 Z"
     id="path2"
     inkscape:connector-curvature="0"
     style="fill:#bde6fb;fill-opacity:1" />
</svg>
