<?xml version="1.0" encoding="UTF-8" standalone="no"?>
<svg
   width="47.546486"
   height="47.546486"
   viewBox="0 0 12.580008 12.580008"
   version="1.1"
   id="svg4"
   sodipodi:docname="qt.svg"
   inkscape:version="0.92.4 (5da689c313, 2019-01-14)"
   xmlns:inkscape="http://www.inkscape.org/namespaces/inkscape"
   xmlns:sodipodi="http://sodipodi.sourceforge.net/DTD/sodipodi-0.dtd"
   xmlns="http://www.w3.org/2000/svg"
   xmlns:svg="http://www.w3.org/2000/svg"
   xmlns:rdf="http://www.w3.org/1999/02/22-rdf-syntax-ns#"
   xmlns:cc="http://creativecommons.org/ns#"
   xmlns:dc="http://purl.org/dc/elements/1.1/">
  <metadata
     id="metadata10">
    <rdf:RDF>
      <cc:Work
         rdf:about="">
        <dc:format>image/svg+xml</dc:format>
        <dc:type
           rdf:resource="http://purl.org/dc/dcmitype/StillImage" />
        <dc:title />
      </cc:Work>
    </rdf:RDF>
  </metadata>
  <defs
     id="defs8" />
  <sodipodi:namedview
     pagecolor="#ffffff"
     bordercolor="#666666"
     borderopacity="1"
     objecttolerance="10"
     gridtolerance="10"
     guidetolerance="10"
     inkscape:pageopacity="0"
     inkscape:pageshadow="2"
     inkscape:window-width="1087"
     inkscape:window-height="480"
     id="namedview6"
     showgrid="false"
     inkscape:zoom="4.9166667"
     inkscape:cx="2.1355932"
     inkscape:cy="24"
     inkscape:window-x="0"
     inkscape:window-y="25"
     inkscape:window-maximized="0"
     inkscape:current-layer="svg4"
     inkscape:showpageshadow="0"
     inkscape:pagecheckerboard="0"
     inkscape:deskcolor="#d1d1d1" />
  <path
     d="M 6.2900079,0 A 6.29,6.29 0 0 0 7.9490244e-6,6.3 6.29,6.29 0 0 0 6.3000079,12.58 6.29,6.29 0 0 0 12.580008,6.29 6.29,6.29 0 0 0 6.2900079,0 Z m -0.01,0.94 A 5.4,5.4 0 0 1 11.680008,6.34 5.4,5.4 0 0 1 6.2800079,11.75 5.4,5.4 0 0 1 0.87000795,6.35 5.4,5.4 0 0 1 6.2700079,0.93 Z m -1.44,1.57 c -0.45,0 -0.84,0.07 -1.17,0.21 a 2.17,2.17 0 0 0 -1.32,1.48 4.21,4.21 0 0 0 -0.04,2.24 c 0.1,0.31 0.22,0.6 0.4,0.84 a 2.19,2.19 0 0 0 1.56,0.92 c 0.03,0.33 0.1,0.61 0.22,0.84 a 1.81,1.81 0 0 0 1.08,0.9 c 0.23,0.07 0.45,0.1 0.69,0.1 h 0.56 V 9.59 h -0.12 c -0.13,0 -0.26,-0.02 -0.39,-0.06 a 0.84,0.84 0 0 1 -0.34,-0.22 c -0.1,-0.1 -0.19,-0.25 -0.26,-0.43 a 2.55,2.55 0 0 1 -0.14,-0.71 2.29,2.29 0 0 0 1.41,-0.96 c 0.16,-0.24 0.28,-0.51 0.36,-0.82 a 3.86,3.86 0 0 0 -0.05,-2.19 2.46,2.46 0 0 0 -0.5,-0.9 c -0.23,-0.25 -0.5,-0.44 -0.83,-0.58 -0.33,-0.14 -0.7,-0.2 -1.12,-0.2 z m 0,0.51 c 0.24,0 0.45,0.06 0.61,0.16 0.17,0.1 0.3,0.26 0.41,0.46 0.1,0.2 0.18,0.45 0.23,0.74 a 6.18,6.18 0 0 1 0,2 c -0.05,0.29 -0.12,0.54 -0.23,0.74 -0.1,0.2 -0.24,0.35 -0.41,0.46 -0.17,0.1 -0.37,0.16 -0.62,0.16 -0.24,0 -0.44,-0.06 -0.61,-0.16 a 1.2,1.2 0 0 1 -0.42,-0.46 c -0.1,-0.2 -0.18,-0.45 -0.23,-0.74 a 6.18,6.18 0 0 1 0,-2 c 0.05,-0.3 0.12,-0.54 0.23,-0.74 0.1,-0.2 0.25,-0.35 0.42,-0.46 0.17,-0.1 0.37,-0.16 0.62,-0.16 z m 3.85,0 c -0.07,0.35 -0.19,0.6 -0.35,0.77 a 1,1 0 0 1 -0.77,0.33 v 0.4 h 0.59 v 2.5 c 0,0.23 0.02,0.42 0.08,0.58 0.05,0.15 0.13,0.27 0.23,0.37 0.1,0.1 0.22,0.17 0.36,0.21 0.14,0.04 0.3,0.07 0.47,0.07 A 3.6,3.6 0 0 0 10.240008,8.12 l 0.17,-0.07 v -0.5 l -0.26,0.05 c -0.09,0.02 -0.1900001,0.02 -0.3000001,0.02 -0.17,0 -0.3,-0.05 -0.39,-0.16 -0.08,-0.11 -0.11,-0.29 -0.11,-0.52 V 4.53 H 10.340008 V 3.99 H 9.3400079 V 3.02 Z m 0.76,3.61 z"
     id="path2"
     inkscape:connector-curvature="0"
     style="fill:#bde6fb;fill-opacity:1" />
</svg>
