<?xml version="1.0" encoding="UTF-8" standalone="no"?>
<svg
   width="47.546486"
   height="47.546494"
   viewBox="0 0 12.580008 12.58001"
   version="1.1"
   id="svg6"
   sodipodi:docname="qtcreator.svg"
   inkscape:version="0.92.4 (5da689c313, 2019-01-14)"
   xmlns:inkscape="http://www.inkscape.org/namespaces/inkscape"
   xmlns:sodipodi="http://sodipodi.sourceforge.net/DTD/sodipodi-0.dtd"
   xmlns="http://www.w3.org/2000/svg"
   xmlns:svg="http://www.w3.org/2000/svg"
   xmlns:rdf="http://www.w3.org/1999/02/22-rdf-syntax-ns#"
   xmlns:cc="http://creativecommons.org/ns#"
   xmlns:dc="http://purl.org/dc/elements/1.1/">
  <metadata
     id="metadata12">
    <rdf:RDF>
      <cc:Work
         rdf:about="">
        <dc:format>image/svg+xml</dc:format>
        <dc:type
           rdf:resource="http://purl.org/dc/dcmitype/StillImage" />
        <dc:title />
      </cc:Work>
    </rdf:RDF>
  </metadata>
  <defs
     id="defs10" />
  <sodipodi:namedview
     pagecolor="#ffffff"
     bordercolor="#666666"
     borderopacity="1"
     objecttolerance="10"
     gridtolerance="10"
     guidetolerance="10"
     inkscape:pageopacity="0"
     inkscape:pageshadow="2"
     inkscape:window-width="1087"
     inkscape:window-height="480"
     id="namedview8"
     showgrid="false"
     inkscape:zoom="4.9166667"
     inkscape:cx="2.1355932"
     inkscape:cy="24"
     inkscape:window-x="0"
     inkscape:window-y="25"
     inkscape:window-maximized="0"
     inkscape:current-layer="svg6"
     inkscape:showpageshadow="0"
     inkscape:pagecheckerboard="0"
     inkscape:deskcolor="#d1d1d1" />
  <path
     d="M 6.2900079,5.4359436e-7 A 6.29,6.29 0 0 0 7.9490244e-6,6.3000005 6.29,6.29 0 0 0 6.3000079,12.580001 6.29,6.29 0 0 0 12.580008,6.2900005 a 6.29,6.29 0 0 0 -0.32,-1.96 c -0.04,0.15 -0.06,0.27 -0.13,0.45 l -0.1,0.3 -0.1,0.3 -0.26,0.6 a 5.4,5.4 0 0 1 0.01,0.37 5.4,5.4 0 0 1 -4.7000001,5.3500005 c -0.02,0.08 -0.06,0.15 -0.1,0.23 -0.23,0.32 -0.38,0.49 -0.47,0.55 -0.04,0.04 -0.06,0.04 -0.08,0.03 -0.02,-0.01 -0.02,-0.04 -0.02,-0.09 0.01,-0.17 0.14,-0.54 0.13,-0.67 a 5.4,5.4 0 0 1 -0.16,0 A 5.4,5.4 0 0 1 0.87000795,6.3500005 5.4,5.4 0 0 1 6.2700079,0.93000054 5.4,5.4 0 0 1 10.810008,3.3900005 l 0.4,-0.33 c 0.18,-0.11 0.31,-0.15 0.4,-0.13 A 6.29,6.29 0 0 0 6.2900079,5.4359436e-7 Z M 4.3300079,2.4000005 c -0.42,0 -0.78,0.07 -1.1,0.2 a 2.03,2.03 0 0 0 -1.22,1.38 3.94,3.94 0 0 0 -0.03,2.1 c 0.07,0.3 0.2,0.56 0.36,0.79 a 2.05,2.05 0 0 0 1.46,0.86 c 0.02,0.3 0.1,0.57 0.2,0.78 a 1.7,1.7 0 0 0 1.02,0.85 c 0.2,0.06 0.42,0.1 0.64,0.1 h 0.52 v -0.43 h -0.11 c -0.12,0 -0.24,-0.02 -0.36,-0.06 a 0.78,0.78 0 0 1 -0.32,-0.2 c -0.1,-0.1 -0.18,-0.24 -0.24,-0.41 -0.07,-0.17 -0.11,-0.4 -0.13,-0.66 a 2.14,2.14 0 0 0 1.32,-0.9 c 0.15,-0.22 0.26,-0.48 0.33,-0.77 a 3.61,3.61 0 0 0 -0.04,-2.04 2.3,2.3 0 0 0 -0.47,-0.85 c -0.21,-0.23 -0.47,-0.41 -0.78,-0.54 -0.3,-0.13 -0.65,-0.2 -1.05,-0.2 z m 0,0.48 a 1.05,1.05 0 0 1 0.96,0.58 c 0.1,0.2 0.17,0.42 0.21,0.7 a 5.78,5.78 0 0 1 0,1.86 c -0.04,0.28 -0.11,0.5 -0.21,0.7 a 1.05,1.05 0 0 1 -0.96,0.58 c -0.23,0 -0.42,-0.05 -0.58,-0.15 -0.16,-0.1 -0.29,-0.24 -0.39,-0.43 a 2.3,2.3 0 0 1 -0.21,-0.7 5.79,5.79 0 0 1 0,-1.87 c 0.04,-0.27 0.11,-0.5 0.21,-0.69 0.1,-0.19 0.23,-0.33 0.39,-0.42 0.16,-0.1 0.35,-0.16 0.58,-0.16 z m 3.61,0 c -0.07,0.33 -0.18,0.57 -0.33,0.73 a 0.93,0.93 0 0 1 -0.72,0.3 v 0.38 h 0.55 v 2.33 c 0,0.16 0.03,0.28 0.05,0.4 l 0.06,-0.05 c 0.19,-0.25 0.6,-0.74 1,-1.22 v -1.46 h 0.93 v -0.5 h -0.93 v -0.9 h -0.6 z m 3.6600001,0.3 c -0.08,0 -0.2,0.06 -0.34,0.15 -0.2,0.12 -0.43,0.31 -0.7,0.55 -0.26,0.24 -0.6900001,0.74 -1.0000001,1.06 0.5000001,2.1 -0.11,0.16 -0.17,0.14 a 66,66 0 0 0 -1.56,1.9 c -0.07,0.1 -0.28,0.25 -0.35,0.34 -0.07,0.1 0.4,1.44 0.32,1.54 -0.06,0.08 -0.48,-1.28 -0.58,-1.13 l -0.24,0.35 c -0.14,0.3 -0.54,1.11 -0.34,1.9500005 0.18,0.76 0.12,0.77 0.2,1.05 l -0.32,0.77 c 0,0.15 -0.28,0.8 0.2,0.11 0.35,-0.9 0.77,-1.76 1.23,-2.5900005 0.3,-0.47 0.78,-1.24 1.95,-3.23 l 1.0000001,-1.6 -0.04,-0.02 c 0.07,-0.06 1.36,-1.08 0.8,-1.33 a 0.15,0.15 0 0 0 -0.06,0 z"
     id="path2"
     inkscape:connector-curvature="0"
     style="fill:#bde6fb;fill-opacity:1" />
  <path
     d="m 11.160008,4.0300005 c 0,0 0.82,-0.65 0.88,-0.61 0.06,0.04 0.07,0.18 0.03,0.4 a 5.73,5.73 0 0 1 -0.32,1.07 c -0.04,0.09 -0.92,0.13 -0.96,0.23 -0.04,0.1 0.91,-0.05 0.87,0.05 l -0.26,0.58 c -0.17,0.4 -0.26,0.7 -0.47,1.14 l -0.16,0.33 c -0.05,0.1 -1.4600001,0.23 -1.5100001,0.34 -0.06,0.1 1.4900001,-0.2 1.4300001,-0.1 -0.05,0.11 -0.36,0.62 -0.41,0.73 a 37.24,37.24 0 0 1 -1.0100001,1.74 c -0.06,0.090001 -1.54,0.1400005 -1.59,0.2200005 -0.05,0.08 1.53,-0.07 1.48,0 l -0.36,0.46 c -0.2,0.25 -0.08,0.13 -0.33,0.38 -0.25,0.24 -1.58,0.26 -1.43,0.02 1.08,-2.4700005 2.68,-4.5900005 4.1200001,-7.0000005 z"
     id="path4"
     inkscape:connector-curvature="0"
     style="color:#000000;opacity:0.75;fill:#bde6fb;fill-opacity:1" />
</svg>
