<?xml version="1.0" encoding="UTF-8" standalone="no"?>
<svg
   width="47.546486"
   height="47.546486"
   viewBox="0 0 12.580008 12.580008"
   version="1.1"
   id="svg4"
   sodipodi:docname="qtdesigner.svg"
   inkscape:version="0.92.4 (5da689c313, 2019-01-14)"
   xmlns:inkscape="http://www.inkscape.org/namespaces/inkscape"
   xmlns:sodipodi="http://sodipodi.sourceforge.net/DTD/sodipodi-0.dtd"
   xmlns="http://www.w3.org/2000/svg"
   xmlns:svg="http://www.w3.org/2000/svg"
   xmlns:rdf="http://www.w3.org/1999/02/22-rdf-syntax-ns#"
   xmlns:cc="http://creativecommons.org/ns#"
   xmlns:dc="http://purl.org/dc/elements/1.1/">
  <metadata
     id="metadata10">
    <rdf:RDF>
      <cc:Work
         rdf:about="">
        <dc:format>image/svg+xml</dc:format>
        <dc:type
           rdf:resource="http://purl.org/dc/dcmitype/StillImage" />
        <dc:title />
      </cc:Work>
    </rdf:RDF>
  </metadata>
  <defs
     id="defs8" />
  <sodipodi:namedview
     pagecolor="#ffffff"
     bordercolor="#666666"
     borderopacity="1"
     objecttolerance="10"
     gridtolerance="10"
     guidetolerance="10"
     inkscape:pageopacity="0"
     inkscape:pageshadow="2"
     inkscape:window-width="1087"
     inkscape:window-height="480"
     id="namedview6"
     showgrid="false"
     inkscape:zoom="4.9166667"
     inkscape:cx="2.1355932"
     inkscape:cy="24"
     inkscape:window-x="0"
     inkscape:window-y="25"
     inkscape:window-maximized="0"
     inkscape:current-layer="svg4"
     inkscape:showpageshadow="0"
     inkscape:pagecheckerboard="0"
     inkscape:deskcolor="#d1d1d1" />
  <path
     d="M 6.2900079,0 A 6.29,6.29 0 0 0 7.9490244e-6,6.3 6.29,6.29 0 0 0 6.3000079,12.58 6.29,6.29 0 0 0 12.580008,6.29 6.29,6.29 0 0 0 6.2900079,0 Z m -0.01,0.94 A 5.4,5.4 0 0 1 11.680008,6.34 5.4,5.4 0 0 1 6.2800079,11.75 5.4,5.4 0 0 1 0.87000795,6.35 5.4,5.4 0 0 1 6.2700079,0.93 Z m -1.95,1.47 c -0.42,0 -0.78,0.06 -1.1,0.2 a 2.03,2.03 0 0 0 -1.22,1.37 3.94,3.94 0 0 0 -0.03,2.1 c 0.07,0.3 0.2,0.56 0.36,0.79 a 2.05,2.05 0 0 0 1.46,0.86 c 0.02,0.3 0.1,0.57 0.2,0.78 a 1.7,1.7 0 0 0 1.02,0.85 c 0.2,0.06 0.42,0.1 0.64,0.1 h 0.52 V 9.03 h -0.11 c -0.12,0 -0.24,-0.02 -0.36,-0.06 a 0.78,0.78 0 0 1 -0.32,-0.2 c -0.1,-0.1 -0.18,-0.24 -0.24,-0.41 -0.07,-0.17 -0.11,-0.4 -0.13,-0.66 a 2.14,2.14 0 0 0 1.32,-0.9 c 0.15,-0.22 0.26,-0.48 0.33,-0.77 a 3.61,3.61 0 0 0 -0.04,-2.04 2.3,2.3 0 0 0 -0.47,-0.85 c -0.21,-0.23 -0.47,-0.41 -0.78,-0.54 -0.3,-0.13 -0.65,-0.2 -1.05,-0.2 z m 0,0.47 a 1.05,1.05 0 0 1 0.96,0.58 c 0.1,0.2 0.17,0.42 0.21,0.7 a 5.79,5.79 0 0 1 0,1.86 c -0.04,0.28 -0.11,0.5 -0.21,0.7 a 1.05,1.05 0 0 1 -0.96,0.58 c -0.23,0 -0.42,-0.05 -0.58,-0.15 -0.16,-0.1 -0.29,-0.24 -0.39,-0.43 a 2.3,2.3 0 0 1 -0.21,-0.7 5.79,5.79 0 0 1 0,-1.87 c 0.04,-0.27 0.11,-0.5 0.21,-0.69 0.1,-0.19 0.23,-0.33 0.39,-0.42 0.16,-0.1 0.35,-0.16 0.58,-0.16 z m 3.61,0 c -0.07,0.33 -0.18,0.57 -0.33,0.73 a 0.93,0.93 0 0 1 -0.72,0.3 v 0.38 h 0.55 v 2.33 c 0,0.22 0.02,0.4 0.07,0.54 a 0.9,0.9 0 0 0 0.22,0.36 c 0.08,0.07 0.18,0.12 0.28,0.16 l 0.65,-0.65 c -0.08,-0.1 -0.1,-0.26 -0.1,-0.48 V 4.29 h 0.92 v -0.5 h -0.93 v -0.9 h -0.6 z m 2.5300001,2.87 a 0.35,0.35 0 0 0 -0.25,0.1 l -0.5300001,0.53 1.1600001,1.17 0.53,-0.53 a 0.35,0.35 0 0 0 0,-0.5 l -0.66,-0.66 a 0.35,0.35 0 0 0 -0.25,-0.1 z M 9.4400079,6.63 Z m 0,0 -3.19,3.2 1.16,1.16 3.2000001,-3.2 -1.1600001,-1.16 z m -3.45,3.45 -0.25,1.4 1.41,-0.24 z"
     id="path2"
     inkscape:connector-curvature="0"
     style="fill:#bde6fb;fill-opacity:1" />
</svg>
