<?xml version="1.0" encoding="UTF-8" standalone="no"?>
<svg
   width="47.546486"
   height="47.546486"
   viewBox="0 0 12.580008 12.580008"
   version="1.1"
   id="svg4"
   sodipodi:docname="qtractor.svg"
   inkscape:version="0.92.4 (5da689c313, 2019-01-14)"
   xmlns:inkscape="http://www.inkscape.org/namespaces/inkscape"
   xmlns:sodipodi="http://sodipodi.sourceforge.net/DTD/sodipodi-0.dtd"
   xmlns="http://www.w3.org/2000/svg"
   xmlns:svg="http://www.w3.org/2000/svg"
   xmlns:rdf="http://www.w3.org/1999/02/22-rdf-syntax-ns#"
   xmlns:cc="http://creativecommons.org/ns#"
   xmlns:dc="http://purl.org/dc/elements/1.1/">
  <metadata
     id="metadata10">
    <rdf:RDF>
      <cc:Work
         rdf:about="">
        <dc:format>image/svg+xml</dc:format>
        <dc:type
           rdf:resource="http://purl.org/dc/dcmitype/StillImage" />
        <dc:title />
      </cc:Work>
    </rdf:RDF>
  </metadata>
  <defs
     id="defs8" />
  <sodipodi:namedview
     pagecolor="#ffffff"
     bordercolor="#666666"
     borderopacity="1"
     objecttolerance="10"
     gridtolerance="10"
     guidetolerance="10"
     inkscape:pageopacity="0"
     inkscape:pageshadow="2"
     inkscape:window-width="1087"
     inkscape:window-height="480"
     id="namedview6"
     showgrid="false"
     inkscape:zoom="4.9166667"
     inkscape:cx="2.1355932"
     inkscape:cy="24"
     inkscape:window-x="0"
     inkscape:window-y="25"
     inkscape:window-maximized="0"
     inkscape:current-layer="svg4"
     inkscape:showpageshadow="0"
     inkscape:pagecheckerboard="0"
     inkscape:deskcolor="#d1d1d1" />
  <path
     d="M 6.2900079,0 A 6.29,6.29 0 0 0 7.9490244e-6,6.3 6.29,6.29 0 0 0 6.3000079,12.58 6.29,6.29 0 0 0 12.580008,6.29 6.29,6.29 0 0 0 6.2900079,0 Z m -0.02,0.93 0.01,0.01 A 5.4,5.4 0 0 1 11.680008,6.34 5.4,5.4 0 0 1 6.2800079,11.75 5.4,5.4 0 0 1 0.87000795,6.35 5.4,5.4 0 0 1 6.2700079,0.93 Z m 1.767,1.334 c -0.127,0 -0.252,0.017 -0.373,0.05 -0.683,0.185 -1.175,0.857 -1.273,1.738 -0.514,0.296 -1.41,0.995 -1.847,1.641 -0.068,0.1 -0.123,0.23 -0.171,0.37 l -0.065,0.42 h 0.831 c 0.148,-0.155 0.304,-0.305 0.529,-0.42 0.374,-0.138 0.676,-0.17 1.09,-0.18 0.503,0.921 1.381,1.404 2.173,1.192 1.004,-0.271 1.5340001,-1.557 1.1840001,-2.871 C 9.8140079,3.071 8.9450079,2.261 8.0370079,2.264 Z m 0.17,0.345 a 2.09,1.522 73.864 0 1 1.743,1.63 2.09,1.522 73.864 0 1 -0.882,2.43 2.09,1.522 73.864 0 1 -2.042,-1.585 2.09,1.522 73.864 0 1 0.88,-2.43 2.09,1.522 73.864 0 1 0.302,-0.045 z m -4.532,4.295 a 0.211,0.211 0 1 0 0,0.422 h 2.11 a 0.211,0.211 0 1 0 0,-0.422 z m -0.633,0.844 a 0.42,0.42 0 0 0 -0.421,0.422 v 1.265 a 0.42,0.42 0 0 0 0.421,0.422 h 3.375 a 0.42,0.42 0 0 0 0.422,-0.422 V 8.17 a 0.42,0.42 0 0 0 -0.422,-0.422 z"
     id="path2"
     inkscape:connector-curvature="0"
     style="fill:#bde6fb;fill-opacity:1" />
</svg>
