<?xml version="1.0" encoding="UTF-8" standalone="no"?>
<svg
   width="47.546486"
   height="47.546486"
   viewBox="0 0 12.580008 12.580008"
   version="1.1"
   id="svg4"
   sodipodi:docname="quassel.svg"
   inkscape:version="0.92.4 (5da689c313, 2019-01-14)"
   xmlns:inkscape="http://www.inkscape.org/namespaces/inkscape"
   xmlns:sodipodi="http://sodipodi.sourceforge.net/DTD/sodipodi-0.dtd"
   xmlns="http://www.w3.org/2000/svg"
   xmlns:svg="http://www.w3.org/2000/svg"
   xmlns:rdf="http://www.w3.org/1999/02/22-rdf-syntax-ns#"
   xmlns:cc="http://creativecommons.org/ns#"
   xmlns:dc="http://purl.org/dc/elements/1.1/">
  <metadata
     id="metadata10">
    <rdf:RDF>
      <cc:Work
         rdf:about="">
        <dc:format>image/svg+xml</dc:format>
        <dc:type
           rdf:resource="http://purl.org/dc/dcmitype/StillImage" />
        <dc:title />
      </cc:Work>
    </rdf:RDF>
  </metadata>
  <defs
     id="defs8" />
  <sodipodi:namedview
     pagecolor="#ffffff"
     bordercolor="#666666"
     borderopacity="1"
     objecttolerance="10"
     gridtolerance="10"
     guidetolerance="10"
     inkscape:pageopacity="0"
     inkscape:pageshadow="2"
     inkscape:window-width="1087"
     inkscape:window-height="480"
     id="namedview6"
     showgrid="false"
     inkscape:zoom="4.9166667"
     inkscape:cx="2.1355932"
     inkscape:cy="24"
     inkscape:window-x="0"
     inkscape:window-y="25"
     inkscape:window-maximized="0"
     inkscape:current-layer="svg4"
     inkscape:showpageshadow="0"
     inkscape:pagecheckerboard="0"
     inkscape:deskcolor="#d1d1d1" />
  <path
     d="M 6.2900079,0 A 6.29,6.29 0 0 0 7.9473853e-6,6.3 6.29,6.29 0 0 0 6.3000079,12.58 6.29,6.29 0 0 0 12.580008,6.29 6.29,6.29 0 0 0 6.2900079,0 Z m -0.02,0.94 A 5.4,5.4 0 0 1 11.670008,6.34 5.4,5.4 0 0 1 6.2700079,11.75 5.4,5.4 0 0 1 0.87000795,6.35 5.4,5.4 0 0 1 6.2700079,0.94 Z m 0.02,0.65 a 4.76,4.76 0 1 0 0,9.52 4.76,4.76 0 0 0 0,-9.52 z m 0,1 a 3.77,3.77 0 1 1 0,7.53 3.77,3.77 0 0 1 0,-7.54 z m 1.39,3.35 a 1.79,1.79 0 1 0 0,3.58 1.79,1.79 0 0 0 0,-3.58 z m 0.02,0.44 0.15,0.06 c 0,0.03 -0.04,0.08 -0.05,0.12 -0.04,0.08 0,0.05 0.04,0.05 0.06,0.02 -0.02,0.08 -0.05,0.07 -0.03,-0.06 -0.04,-0.06 -0.11,-0.02 -0.07,0.03 -0.16,0.03 -0.19,0.1 -0.02,0.05 -0.07,0.1 -0.08,0.03 -0.02,-0.04 -0.08,-0.1 -0.02,-0.13 0.04,-0.03 0.02,-0.1 -0.03,-0.1 -0.03,-0.04 -0.11,-0.05 -0.05,-0.09 l -0.14,0.05 c -0.08,0 0.05,0.02 0.07,0.01 0.03,0.04 0.05,0.08 0.1,0.09 -0.05,0.09 -0.11,0 -0.18,-0.03 -0.04,-0.03 -0.09,0 -0.12,0.04 l 0.04,-0.01 c 0.03,0 0.05,0.01 0.06,0.04 0,0.06 -0.07,0.01 -0.1,-0.02 l -0.02,0.04 c -0.05,0.04 -0.08,0 -0.04,-0.05 0.04,-0.03 0.06,-0.06 0.05,-0.12 0.02,-0.05 0.04,0.1 0.05,0 0.06,-0.01 0.1,-0.06 0.15,-0.06 0.05,0 0.07,-0.06 0.12,-0.05 0.09,0 -0.06,0.08 0.03,0.05 0.1,-0.04 0.21,-0.06 0.32,-0.07 z m 0.63,0.23 c 0.04,0.02 0.07,0.04 0.11,0.04 0.06,0 0.1,0.02 0.03,0.04 -0.08,-0.01 -0.02,0.03 0.02,0.07 0.04,0 0.06,-0.13 0.1,-0.05 0.24,0.22 0.4,0.5 0.45,0.83 -0.05,0.1 -0.08,-0.07 -0.16,-0.03 -0.04,-0.01 -0.08,-0.1 -0.07,0 0,0.04 0.06,0.06 0.08,0.09 0.04,-0.09 0.08,0.01 0.07,0.07 -0.02,0.05 -0.07,0.08 -0.12,0.11 -0.06,0.05 -0.1,0.1 0.02,0.06 0,0.07 -0.04,0.13 -0.06,0.2 a 0.38,0.38 0 0 0 -0.1,0.16 c 0,0.07 -0.02,0.15 0,0.22 0,0.05 -0.08,0.07 -0.1,0.1 -0.09,0.03 0.05,0.07 0,0.1 -0.07,0.03 -0.02,0.08 -0.07,0.11 -0.03,0.03 -0.06,0.1 -0.1,0.1 -0.06,-0.02 -0.08,0.04 -0.14,0.03 a 0.58,0.58 0 0 0 -0.05,-0.24 0.31,0.31 0 0 1 0,-0.26 c 0,-0.05 -0.05,-0.09 -0.03,-0.13 0.02,-0.06 -0.04,-0.08 -0.05,-0.12 0.02,-0.04 0.03,-0.1 -0.02,-0.13 -0.05,0.03 -0.08,-0.02 -0.11,0 -0.05,0.07 -0.07,-0.03 -0.1,0.02 -0.08,0.07 -0.15,-0.1 -0.2,-0.15 0,-0.04 -0.05,-0.09 0,-0.13 0.05,-0.04 -0.04,-0.07 0,-0.11 0.04,-0.11 0.13,-0.18 0.2,-0.26 0.08,-0.03 0.17,-0.06 0.25,-0.02 l 0.1,0.09 c 0.02,-0.05 0.08,-0.04 0.12,-0.02 0.04,0 0.1,0.03 0.13,0 0.05,-0.03 0.08,-0.08 0.01,-0.1 -0.09,0.04 -0.11,-0.1 -0.17,-0.07 0,0.06 -0.02,0.1 -0.06,0.03 0,-0.05 -0.02,-0.1 -0.07,-0.11 -0.04,0 0.08,0.06 0.02,0.1 -0.05,0.05 -0.02,0 -0.03,-0.03 -0.05,-0.01 -0.07,-0.09 -0.12,-0.06 -0.05,0 -0.05,0.05 -0.1,0.06 0,0.05 -0.04,0.09 -0.09,0.1 -0.03,-0.04 -0.08,-0.02 -0.06,-0.1 -0.02,-0.05 0.05,-0.07 0.1,-0.08 0.06,0.01 -0.02,-0.07 -0.03,-0.08 0.04,0 0.1,-0.02 0.11,-0.06 0,-0.07 0.11,-0.02 0.08,-0.08 0.01,-0.06 0.03,-0.01 0.05,0.01 0.05,0.03 0.09,0 0.12,-0.04 0,-0.03 0.1,-0.08 0.07,-0.08 -0.08,0.04 -0.05,-0.07 -0.02,-0.1 -0.05,-0.01 -0.08,0.04 -0.1,0.07 0,0.03 0,0.1 -0.03,0.11 -0.04,0 -0.06,-0.08 -0.1,-0.03 -0.04,0.05 -0.04,-0.07 -0.03,-0.08 0.03,-0.04 0.1,-0.04 0.08,-0.1 0.05,-0.04 0.11,-0.05 0.17,-0.07 z m -1.46,0.03 c 0.04,0 0.09,0.04 0.06,0.09 -0.03,0.06 -0.13,0.09 -0.19,0.13 0,0.06 0.06,0.06 0.1,0.08 0.04,0.03 0.03,0.12 0.06,0.03 0.01,-0.05 0.08,-0.04 0.07,-0.1 0.02,-0.03 0.03,-0.11 0.08,-0.06 0.06,0.01 0,0.1 0.07,0.05 0.06,-0.01 0.02,0.1 0.06,0.09 0.06,0.01 0.01,0.07 0.07,0.09 -0.03,0.07 -0.04,0.04 -0.05,-0.02 a 0.27,0.27 0 0 1 -0.13,0.02 c -0.04,0.02 -0.14,0.05 -0.05,0.05 0.05,0 0.13,-0.02 0.06,0.04 -0.02,0.06 -0.1,0 -0.12,0.07 -0.01,0.05 -0.1,0.03 -0.1,0.08 -0.02,0.06 -0.06,0.1 -0.1,0.12 -0.05,0.03 -0.02,0.09 -0.04,0.14 -0.03,-0.04 -0.05,-0.08 -0.1,-0.08 -0.04,0 -0.06,0.04 -0.11,0.03 -0.04,0.03 -0.09,0.06 -0.08,0.12 -0.01,0.04 0.01,0.1 0.06,0.1 0.05,-0.03 0.13,-0.13 0.1,0 -0.06,0.1 0.08,0 0.05,0.1 -0.01,0.06 0.09,0.13 0.12,0.07 0.04,-0.03 0.07,-0.1 0.11,-0.04 0.04,0.04 0.09,0.04 0.14,0.03 0.04,0 0.04,0.07 0.06,0.1 0.05,0 0.1,0.03 0.1,0.08 0.07,0.07 0.18,0.1 0.26,0.15 0,0.04 0,0.1 -0.04,0.13 -0.05,0.04 -0.02,0.1 -0.01,0.16 -0.03,0.03 -0.03,0.1 -0.09,0.1 -0.04,0 -0.08,0.06 -0.05,0.1 l -0.06,0.12 c -0.06,0 -0.07,0.05 -0.1,0.09 -0.01,0.1 -0.14,0 -0.2,-0.04 l 0.02,-0.14 a 0.2,0.2 0 0 1 -0.02,-0.14 c 0.02,-0.06 -0.03,-0.1 -0.08,-0.14 -0.06,-0.04 -0.07,-0.1 -0.1,-0.16 -0.05,-0.05 -0.04,-0.1 -0.02,-0.14 -0.02,-0.04 0.03,-0.07 0.04,-0.11 0,-0.04 0.05,-0.1 -0.01,-0.1 -0.05,0.02 -0.08,-0.03 -0.12,-0.06 -0.03,-0.06 -0.1,-0.05 -0.16,-0.08 -0.06,-0.03 -0.11,-0.07 -0.13,-0.14 0.03,-0.3 0.16,-0.6 0.37,-0.83 0.05,-0.1 0.18,-0.08 0.2,-0.18 z m 1.06,0.12 c 0.03,0 0.03,0.05 0.05,0.08 0.03,0.04 0.07,0.07 0,0.1 -0.07,0.04 -0.07,0 -0.05,-0.05 0.01,-0.05 -0.03,-0.08 -0.02,-0.13 z m -0.08,0.08 c 0.02,0.03 0.05,0.06 0,0.07 -0.04,0.03 -0.05,-0.07 0,-0.07 z m 0.72,0.64 c -0.03,0.02 0,0.05 0,0.07 0.03,0.08 0.1,0.14 0.1,0.22 -0.01,0.07 0.13,0.11 0.07,0.05 -0.03,-0.04 0.03,-0.08 -0.03,-0.1 -0.04,-0.08 -0.07,-0.18 -0.14,-0.24 z"
     id="path2"
     inkscape:connector-curvature="0"
     style="fill:#bde6fb;fill-opacity:1" />
</svg>
