<?xml version="1.0" encoding="UTF-8" standalone="no"?>
<svg
   width="47.542408"
   height="47.542801"
   version="1.1"
   viewBox="0 0 12.578929 12.579033"
   id="svg4"
   sodipodi:docname="quimup.svg"
   inkscape:version="0.92.4 (5da689c313, 2019-01-14)"
   xmlns:inkscape="http://www.inkscape.org/namespaces/inkscape"
   xmlns:sodipodi="http://sodipodi.sourceforge.net/DTD/sodipodi-0.dtd"
   xmlns="http://www.w3.org/2000/svg"
   xmlns:svg="http://www.w3.org/2000/svg"
   xmlns:rdf="http://www.w3.org/1999/02/22-rdf-syntax-ns#"
   xmlns:cc="http://creativecommons.org/ns#"
   xmlns:dc="http://purl.org/dc/elements/1.1/">
  <metadata
     id="metadata10">
    <rdf:RDF>
      <cc:Work
         rdf:about="">
        <dc:format>image/svg+xml</dc:format>
        <dc:type
           rdf:resource="http://purl.org/dc/dcmitype/StillImage" />
        <dc:title />
      </cc:Work>
    </rdf:RDF>
  </metadata>
  <defs
     id="defs8" />
  <sodipodi:namedview
     pagecolor="#ffffff"
     bordercolor="#666666"
     borderopacity="1"
     objecttolerance="10"
     gridtolerance="10"
     guidetolerance="10"
     inkscape:pageopacity="0"
     inkscape:pageshadow="2"
     inkscape:window-width="1136"
     inkscape:window-height="480"
     id="namedview6"
     showgrid="false"
     inkscape:zoom="4.9166667"
     inkscape:cx="2.1355932"
     inkscape:cy="24"
     inkscape:window-x="0"
     inkscape:window-y="25"
     inkscape:window-maximized="0"
     inkscape:current-layer="svg4"
     inkscape:showpageshadow="0"
     inkscape:pagecheckerboard="0"
     inkscape:deskcolor="#d1d1d1" />
  <path
     d="M 6.2843042,0 C 2.815925,0.00574694 0.00582076,2.815925 0,6.2843042 -2.6182631e-6,8.2599495 0.92859643,10.001653 2.3528042,11.155751 L 2.8452669,10.484485 C 1.6403167,9.4927336 0.85626026,8.0085985 0.85626026,6.3260814 c 0,-2.9865791 2.43122564,-5.38658423 5.41780474,-5.38658423 0.7807226,0.0015 1.5180277,0.17621823 2.1879443,0.47542383 L 9.4696887,0.89351312 C 8.5322288,0.33929739 7.4521339,2.6456138e-5 6.28441,2.6456138e-5 Z M 10.870534,0.71828179 1.39222,5.6206846 5.9681311,6.9280802 2.3724889,11.830483 11.197291,5.9478113 6.6213791,4.9670133 10.870799,0.71812304 Z M 10.632309,1.7580018 9.9667308,2.4235793 c 1.0394832,0.9813272 1.6983662,2.3610855 1.7042662,3.902555 0,2.986579 -2.4208806,5.4074857 -5.4074861,5.4074857 -0.7585773,0 -1.4790022,-0.158798 -2.1342081,-0.44079 l -0.7828923,0.521407 c 0.8802577,0.470609 1.8700515,0.763023 2.9378964,0.764795 3.4765812,0 6.2946231,-2.8180408 6.2946231,-6.294622 -0.003,-1.7825284 -0.753762,-3.3829199 -1.946621,-4.52617 z"
     id="path2"
     inkscape:connector-curvature="0"
     style="fill:#bde6fb;fill-opacity:1;stroke-width:1.04387" />
</svg>
