<?xml version="1.0" encoding="UTF-8" standalone="no"?>
<svg
   width="47.546486"
   height="47.546486"
   viewBox="0 0 12.580008 12.580008"
   version="1.1"
   id="svg8"
   sodipodi:docname="qupzilla.svg"
   inkscape:version="0.92.4 (5da689c313, 2019-01-14)"
   xmlns:inkscape="http://www.inkscape.org/namespaces/inkscape"
   xmlns:sodipodi="http://sodipodi.sourceforge.net/DTD/sodipodi-0.dtd"
   xmlns="http://www.w3.org/2000/svg"
   xmlns:svg="http://www.w3.org/2000/svg"
   xmlns:rdf="http://www.w3.org/1999/02/22-rdf-syntax-ns#"
   xmlns:cc="http://creativecommons.org/ns#"
   xmlns:dc="http://purl.org/dc/elements/1.1/">
  <metadata
     id="metadata14">
    <rdf:RDF>
      <cc:Work
         rdf:about="">
        <dc:format>image/svg+xml</dc:format>
        <dc:type
           rdf:resource="http://purl.org/dc/dcmitype/StillImage" />
        <dc:title />
      </cc:Work>
    </rdf:RDF>
  </metadata>
  <defs
     id="defs12" />
  <sodipodi:namedview
     pagecolor="#ffffff"
     bordercolor="#666666"
     borderopacity="1"
     objecttolerance="10"
     gridtolerance="10"
     guidetolerance="10"
     inkscape:pageopacity="0"
     inkscape:pageshadow="2"
     inkscape:window-width="1087"
     inkscape:window-height="480"
     id="namedview10"
     showgrid="false"
     inkscape:zoom="4.9166667"
     inkscape:cx="2.1355932"
     inkscape:cy="24"
     inkscape:window-x="0"
     inkscape:window-y="25"
     inkscape:window-maximized="0"
     inkscape:current-layer="svg8"
     inkscape:showpageshadow="0"
     inkscape:pagecheckerboard="0"
     inkscape:deskcolor="#d1d1d1" />
  <path
     d="M 6.2900079,0 A 6.29,6.29 0 0 0 7.9490244e-6,6.3 6.29,6.29 0 0 0 6.3000079,12.58 6.29,6.29 0 0 0 11.270008,10.13 c -0.05,0.02 -0.1,0.06 -0.16,0.07 a 2.3,2.3 0 0 1 -0.78,-0.02 c -0.07,0 -0.13,-0.04 -0.2,-0.05 A 5.4,5.4 0 0 1 6.2800079,11.75 5.4,5.4 0 0 1 0.87000795,6.35 5.4,5.4 0 0 1 6.2700079,0.93 a 5.4,5.4 0 0 1 5.4100001,5.4 5.4,5.4 0 0 1 -0.54,2.34 c 0.24,0.17 0.48,0.31 0.72,0.4 h 0.06 a 6.29,6.29 0 0 0 0.66,-2.79 A 6.29,6.29 0 0 0 6.2900079,0 Z"
     id="path2"
     inkscape:connector-curvature="0"
     style="fill:#bde6fb;fill-opacity:1" />
  <path
     d="m 4.2000079,6.18 -2.85,0.37 -0.1,2.98 c 4.92,-3.15 8.1,1.94 11.3000001,-0.1 -2.5600001,0 -4.7000001,-3.87 -7.8400001,-2.88 z"
     id="path4"
     inkscape:connector-curvature="0"
     style="opacity:0.75;fill:#bde6fb;fill-opacity:1;fill-rule:evenodd" />
  <path
     d="m 1.7300079,3.2 a 5.22,5.22 0 0 0 -0.41,6.03 c 4.03,-5 6.15,-1.46 9.3800001,-4.18 C 7.8000079,5.63 6.9500079,2.03 1.7300079,3.2"
     id="path6"
     inkscape:connector-curvature="0"
     style="fill:#bde6fb;fill-opacity:1;fill-rule:evenodd" />
</svg>
