<?xml version="1.0" encoding="UTF-8" standalone="no"?>
<svg
   width="48"
   height="48"
   viewBox="0 0 12.7 12.7"
   version="1.1"
   id="svg4"
   sodipodi:docname="r.svg"
   inkscape:version="0.92.5 (2060ec1f9f, 2020-04-08)"
   xmlns:inkscape="http://www.inkscape.org/namespaces/inkscape"
   xmlns:sodipodi="http://sodipodi.sourceforge.net/DTD/sodipodi-0.dtd"
   xmlns="http://www.w3.org/2000/svg"
   xmlns:svg="http://www.w3.org/2000/svg">
  <sodipodi:namedview
     id="namedview1"
     pagecolor="#505050"
     bordercolor="#eeeeee"
     borderopacity="1"
     inkscape:showpageshadow="0"
     inkscape:pageopacity="0"
     inkscape:pagecheckerboard="0"
     inkscape:deskcolor="#d1d1d1" />
  <defs
     id="defs8">
    <style
       id="current-color-scheme"
       type="text/css">&#10;      .ColorScheme-Highlight {&#10;        color:#1e3f5a;&#10;      }&#10;  </style>
  </defs>
  <path
     class="ColorScheme-Highlight"
     style="opacity:0.6;fill:#bde6fb;fill-opacity:1;stroke-width:0.264583"
     d="M 6.0854166,2.38125 A 4.4979166,3.5718747 0 0 0 1.5875,5.9531249 4.4979166,3.5718747 0 0 0 6.0854166,9.5249999 4.4979166,3.5718747 0 0 0 10.583333,5.9531249 4.4979166,3.5718747 0 0 0 6.0854166,2.38125 Z m 0.6614583,1.5875 A 3.3072914,2.3812499 0 0 1 10.054167,6.3499999 3.3072914,2.3812499 0 0 1 6.7468749,8.7312499 3.3072914,2.3812499 0 0 1 3.4395833,6.3499999 3.3072914,2.3812499 0 0 1 6.7468749,3.96875 Z"
     id="path837" />
  <path
     class="ColorScheme-Highlight"
     style="fill:#bde6fb;fill-opacity:1;stroke-width:0.264583"
     d="M 6.3499999,0 A 6.3499999,6.3499999 0 0 0 0,6.3499999 6.3499999,6.3499999 0 0 0 6.3499999,12.7 6.3499999,6.3499999 0 0 0 12.7,6.3499999 6.3499999,6.3499999 0 0 0 6.3499999,0 Z m 0,0.79374999 A 5.5562499,5.5562499 0 0 1 11.90625,6.3499999 5.5562499,5.5562499 0 0 1 6.3499999,11.90625 5.5562499,5.5562499 0 0 1 0.79374999,6.3499999 5.5562499,5.5562499 0 0 1 6.3499999,0.79374999 Z M 5.0270833,4.7624999 V 10.054167 H 6.3499999 V 7.9374999 h 0.2056723 l 1.646411,2.1166671 H 9.5249999 L 7.8682534,7.9240641 a 1.5875,1.5875 0 0 0 1.3921632,-1.5740642 1.5875,1.5875 0 0 0 -1.5875,-1.5875 H 6.3499999 Z M 6.3499999,5.8208333 H 7.6729166 A 0.52916666,0.52916666 0 0 1 8.2020832,6.3499999 0.52916666,0.52916666 0 0 1 7.6729166,6.8791666 H 6.3499999 Z"
     id="path817" />
</svg>
