<?xml version="1.0" encoding="UTF-8" standalone="no"?>
<svg
   width="47.542679"
   height="47.546455"
   viewBox="0 0 12.579 12.58"
   version="1.1"
   id="svg4"
   sodipodi:docname="radare2.svg"
   inkscape:version="0.92.5 (2060ec1f9f, 2020-04-08)"
   xmlns:inkscape="http://www.inkscape.org/namespaces/inkscape"
   xmlns:sodipodi="http://sodipodi.sourceforge.net/DTD/sodipodi-0.dtd"
   xmlns="http://www.w3.org/2000/svg"
   xmlns:svg="http://www.w3.org/2000/svg"
   xmlns:rdf="http://www.w3.org/1999/02/22-rdf-syntax-ns#"
   xmlns:cc="http://creativecommons.org/ns#"
   xmlns:dc="http://purl.org/dc/elements/1.1/">
  <metadata
     id="metadata10">
    <rdf:RDF>
      <cc:Work
         rdf:about="">
        <dc:format>image/svg+xml</dc:format>
        <dc:type
           rdf:resource="http://purl.org/dc/dcmitype/StillImage" />
        <dc:title />
      </cc:Work>
    </rdf:RDF>
  </metadata>
  <defs
     id="defs8" />
  <sodipodi:namedview
     pagecolor="#ffffff"
     bordercolor="#666666"
     borderopacity="1"
     objecttolerance="10"
     gridtolerance="10"
     guidetolerance="10"
     inkscape:pageopacity="0"
     inkscape:pageshadow="2"
     inkscape:window-width="1085"
     inkscape:window-height="480"
     id="namedview6"
     showgrid="false"
     inkscape:zoom="4.9166667"
     inkscape:cx="2.1355932"
     inkscape:cy="24"
     inkscape:window-x="0"
     inkscape:window-y="25"
     inkscape:window-maximized="0"
     inkscape:current-layer="svg4"
     inkscape:showpageshadow="0"
     inkscape:pagecheckerboard="0"
     inkscape:deskcolor="#d1d1d1" />
  <path
     d="M 6.285,0 A 6.295,6.295 0 0 0 0,6.285 6.295,6.295 0 0 0 6.285,12.58 6.295,6.295 0 0 0 12.579,6.285 6.295,6.295 0 0 0 6.285,0 Z M 6.274,0.94 a 5.408,5.408 0 0 1 5.397,5.387 5.407,5.407 0 0 1 -10.814,0 C 0.857,3.34 3.287,0.94 6.274,0.94 Z M 10.895,4.789 9.999,5.252 C 9.506,5.507 8.854,5.841 8.549,5.993 L 7.996,6.271 9.413,6.969 c 0.779,0.384 1.43,0.7 1.45,0.7 0.017,0.002 0.032,-0.645 0.032,-1.438 z M 2.439,4.801 C 2.184,4.788 1.955,4.904 1.787,5.151 1.652,5.35 1.667,5.684 1.822,5.901 1.964,6.101 2.262,6.228 2.495,6.189 2.88,6.124 3.177,5.686 3.07,5.339 3.043,5.25 3.028,5.169 3.037,5.159 3.086,5.111 3.257,5.269 3.33,5.43 3.405,5.594 3.414,5.73 3.415,6.643 l 10e-4,1.03 H 3.195 c -0.121,0 -0.22,0.02 -0.22,0.044 0,0.028 0.398,0.044 1.106,0.044 0.954,0 1.106,-0.01 1.106,-0.066 0,-0.047 -0.046,-0.067 -0.154,-0.067 H 4.875 V 4.973 H 5.031 C 5.116,4.973 5.185,4.956 5.185,4.936 5.185,4.901 4.269,4.84 3.74,4.84 H 3.503 V 5.48 L 3.248,5.225 C 2.975,4.956 2.694,4.814 2.438,4.801 Z M 7.863,4.807 4.993,6.242 7.863,7.71 7.876,6.983 c 0.006,-0.4 0.006,-1.053 0,-1.452 z"
     id="path2"
     inkscape:connector-curvature="0"
     style="fill:#bde6fb;fill-opacity:1" />
</svg>
