<?xml version="1.0" encoding="UTF-8" standalone="no"?>
<svg
   width="47.542679"
   height="47.546455"
   viewBox="0 0 12.579 12.58"
   version="1.1"
   id="svg4"
   sodipodi:docname="rambox.svg"
   inkscape:version="0.92.5 (2060ec1f9f, 2020-04-08)"
   xmlns:inkscape="http://www.inkscape.org/namespaces/inkscape"
   xmlns:sodipodi="http://sodipodi.sourceforge.net/DTD/sodipodi-0.dtd"
   xmlns="http://www.w3.org/2000/svg"
   xmlns:svg="http://www.w3.org/2000/svg"
   xmlns:rdf="http://www.w3.org/1999/02/22-rdf-syntax-ns#"
   xmlns:cc="http://creativecommons.org/ns#"
   xmlns:dc="http://purl.org/dc/elements/1.1/">
  <metadata
     id="metadata10">
    <rdf:RDF>
      <cc:Work
         rdf:about="">
        <dc:format>image/svg+xml</dc:format>
        <dc:type
           rdf:resource="http://purl.org/dc/dcmitype/StillImage" />
        <dc:title />
      </cc:Work>
    </rdf:RDF>
  </metadata>
  <defs
     id="defs8" />
  <sodipodi:namedview
     pagecolor="#ffffff"
     bordercolor="#666666"
     borderopacity="1"
     objecttolerance="10"
     gridtolerance="10"
     guidetolerance="10"
     inkscape:pageopacity="0"
     inkscape:pageshadow="2"
     inkscape:window-width="1085"
     inkscape:window-height="480"
     id="namedview6"
     showgrid="false"
     inkscape:zoom="4.9166667"
     inkscape:cx="2.1355932"
     inkscape:cy="24"
     inkscape:window-x="0"
     inkscape:window-y="25"
     inkscape:window-maximized="0"
     inkscape:current-layer="svg4"
     inkscape:showpageshadow="0"
     inkscape:pagecheckerboard="0"
     inkscape:deskcolor="#d1d1d1" />
  <path
     d="M 6.285,0 A 6.295,6.295 0 0 0 0,6.285 6.295,6.295 0 0 0 6.285,12.58 6.295,6.295 0 0 0 12.579,6.285 6.295,6.295 0 0 0 6.285,0 Z M 6.274,0.94 a 5.408,5.408 0 0 1 5.397,5.387 5.407,5.407 0 0 1 -4.846,5.372 2.817,2.817 0 0 0 0.105,-1.48 C 6.861,9.946 6.683,9.458 6.694,9.439 c 0.012,-0.02 0.303,0.01 0.55,0.01 0.293,0 0.507,0.01 0.662,-0.036 0.13,-0.04 0.287,-0.104 0.38,-0.1 C 8.699,9.334 9.221,9.146 9.359,8.778 9.402,8.663 9.583,8.516 9.63,8.45 9.708,8.343 9.748,8.255 9.698,8.086 9.628,7.847 9.34,7.706 9.036,7.428 8.806,7.218 8.69,7.195 8.679,6.97 8.67,6.804 8.714,6.688 8.625,6.603 8.523,6.507 8.265,6.569 8.248,6.567 8.141,6.442 8.04,6.312 8.236,6.132 8.386,5.996 8.472,5.935 8.472,5.786 8.472,5.64 8.385,5.597 8.256,5.484 8.171,5.409 8.08,5.348 8.053,5.348 8.026,5.348 7.889,5.238 7.749,5.105 7.478,4.846 7.286,4.883 7.075,4.883 6.905,4.883 6.819,4.717 6.819,4.469 7.046,3.644 7.718,3.003 8.059,2.813 7.195,2.69 6.565,3.12 5.992,3.641 5.965,3.338 6.373,2.595 6.406,2.399 5.793,2.721 5.443,3.509 5.166,4.055 4.99,3.817 5.028,3.316 4.96,3.02 4.418,3.734 4.18,4.962 3.962,5.677 3.653,6.692 3.26,7.315 2.699,7.677 2.365,7.893 2.067,8.004 1.42,8.15 1.337,8.175 1.273,8.188 1.197,8.206 A 5.407,5.407 0 0 1 0.857,6.327 C 0.857,3.34 3.287,0.94 6.274,0.94 Z"
     id="path2"
     inkscape:connector-curvature="0"
     style="fill:#bde6fb;fill-opacity:1" />
</svg>
