<?xml version="1.0" encoding="UTF-8" standalone="no"?>
<svg
   width="47.542679"
   height="47.546455"
   viewBox="0 0 12.579 12.58"
   version="1.1"
   id="svg16"
   sodipodi:docname="rcracki-mt.svg"
   inkscape:version="0.92.5 (2060ec1f9f, 2020-04-08)"
   xmlns:inkscape="http://www.inkscape.org/namespaces/inkscape"
   xmlns:sodipodi="http://sodipodi.sourceforge.net/DTD/sodipodi-0.dtd"
   xmlns="http://www.w3.org/2000/svg"
   xmlns:svg="http://www.w3.org/2000/svg"
   xmlns:rdf="http://www.w3.org/1999/02/22-rdf-syntax-ns#"
   xmlns:cc="http://creativecommons.org/ns#"
   xmlns:dc="http://purl.org/dc/elements/1.1/">
  <metadata
     id="metadata22">
    <rdf:RDF>
      <cc:Work
         rdf:about="">
        <dc:format>image/svg+xml</dc:format>
        <dc:type
           rdf:resource="http://purl.org/dc/dcmitype/StillImage" />
        <dc:title />
      </cc:Work>
    </rdf:RDF>
  </metadata>
  <defs
     id="defs20" />
  <sodipodi:namedview
     pagecolor="#ffffff"
     bordercolor="#666666"
     borderopacity="1"
     objecttolerance="10"
     gridtolerance="10"
     guidetolerance="10"
     inkscape:pageopacity="0"
     inkscape:pageshadow="2"
     inkscape:window-width="1085"
     inkscape:window-height="480"
     id="namedview18"
     showgrid="false"
     inkscape:zoom="4.9166667"
     inkscape:cx="2.1355932"
     inkscape:cy="24"
     inkscape:window-x="0"
     inkscape:window-y="25"
     inkscape:window-maximized="0"
     inkscape:current-layer="svg16"
     inkscape:showpageshadow="0"
     inkscape:pagecheckerboard="0"
     inkscape:deskcolor="#d1d1d1" />
  <path
     d="M 6.285,0 A 6.295,6.295 0 0 0 0,6.285 6.295,6.295 0 0 0 6.285,12.58 6.295,6.295 0 0 0 12.579,6.285 6.295,6.295 0 0 0 6.285,0 Z m -0.01,0.94 a 5.408,5.408 0 0 1 5.396,5.387 5.407,5.407 0 1 1 -10.814,0 C 0.857,3.34 3.287,0.94 6.274,0.94 Z"
     id="path2"
     inkscape:connector-curvature="0"
     style="fill:#bde6fb;fill-opacity:1" />
  <circle
     r="1.512"
     cy="3.0249999"
     cx="6.0300002"
     id="circle4"
     style="opacity:0.8;fill:#367bf0;paint-order:stroke fill markers" />
  <circle
     cx="8.9829998"
     cy="4.5100002"
     r="1.544"
     id="circle6"
     style="opacity:0.8;fill:#0ca15e;paint-order:stroke fill markers" />
  <circle
     cx="3.615"
     cy="8.0650005"
     r="1.544"
     id="circle8"
     style="opacity:0.8;fill:#d41919;paint-order:stroke fill markers" />
  <circle
     cx="6.506"
     cy="9.493"
     r="1.544"
     id="circle10"
     style="opacity:0.8;fill:#fd7d00;paint-order:stroke fill markers" />
  <circle
     cx="9.1309996"
     cy="7.6950002"
     r="1.544"
     id="circle12"
     style="opacity:0.8;fill:#f8de68;paint-order:stroke fill markers" />
  <circle
     cx="3.4589999"
     cy="4.8600001"
     r="1.544"
     id="circle14"
     style="opacity:0.8;fill:#8c42ab;paint-order:stroke fill markers" />
</svg>
