<?xml version="1.0" encoding="UTF-8" standalone="no"?>
<svg
   width="48"
   height="48"
   viewBox="0 0 12.7 12.7"
   version="1.1"
   id="svg4"
   sodipodi:docname="reaver.svg"
   inkscape:version="0.92.5 (2060ec1f9f, 2020-04-08)"
   xmlns:inkscape="http://www.inkscape.org/namespaces/inkscape"
   xmlns:sodipodi="http://sodipodi.sourceforge.net/DTD/sodipodi-0.dtd"
   xmlns="http://www.w3.org/2000/svg"
   xmlns:svg="http://www.w3.org/2000/svg">
  <sodipodi:namedview
     id="namedview1"
     pagecolor="#505050"
     bordercolor="#eeeeee"
     borderopacity="1"
     inkscape:showpageshadow="0"
     inkscape:pageopacity="0"
     inkscape:pagecheckerboard="0"
     inkscape:deskcolor="#d1d1d1" />
  <defs
     id="defs8">
    <style
       id="current-color-scheme"
       type="text/css">&#10;      .ColorScheme-Highlight {&#10;        color:#1e3f5a;&#10;      }&#10;  </style>
  </defs>
  <path
     class="ColorScheme-Highlight"
     style="fill:#bde6fb;fill-opacity:1;stroke-width:0.264583"
     d="M 6.3499999,0 A 6.3499999,6.3499999 0 0 0 0,6.3499999 6.3499999,6.3499999 0 0 0 6.3499999,12.7 6.3499999,6.3499999 0 0 0 12.7,6.3499999 6.3499999,6.3499999 0 0 0 6.3499999,0 Z m 0,0.79374999 A 5.5562499,5.5562499 0 0 1 11.90625,6.3499999 5.5562499,5.5562499 0 0 1 6.3499999,11.90625 5.5562499,5.5562499 0 0 1 0.79374999,6.3499999 5.5562499,5.5562499 0 0 1 6.3499999,0.79374999 Z"
     id="path833" />
  <path
     style="fill:#ff5555;stroke-width:0.264583"
     d="M 6.3499999,1.8520833 A 4.4979182,4.4979182 0 0 0 1.8520833,6.3499999 4.4979182,4.4979182 0 0 0 6.0854166,10.834997 V 10.31875 6.5680745 a 0.79375147,0.79375147 0 0 1 -0.5291667,-0.7472412 0.79375147,0.79375147 0 0 1 0.79375,-0.79375 0.79375147,0.79375147 0 0 1 0.79375,0.79375 0.79375147,0.79375147 0 0 1 -0.5291666,0.747758 V 10.31875 10.838615 A 4.4979182,4.4979182 0 0 0 10.847917,6.3499999 4.4979182,4.4979182 0 0 0 6.3499999,1.8520833 Z M 3.9191406,3.3899739 4.2932778,3.7641111 A 2.9104182,2.9104182 0 0 0 3.4395833,5.8208333 2.9104182,2.9104182 0 0 0 4.2932778,7.8775554 L 3.9191406,8.2516926 A 3.4395849,3.4395849 0 0 1 2.9104166,5.8208333 3.4395849,3.4395849 0 0 1 3.9191406,3.3899739 Z m 4.8617187,0 A 3.4395849,3.4395849 0 0 1 9.7895832,5.8208333 3.4395849,3.4395849 0 0 1 8.7808593,8.2516926 L 8.406722,7.8775554 A 2.9104182,2.9104182 0 0 0 9.2604166,5.8208333 2.9104182,2.9104182 0 0 0 8.406722,3.7641111 Z M 4.8539672,4.3248005 5.2281047,4.698938 A 1.5875014,1.5875014 0 0 0 4.7624999,5.8208333 1.5875014,1.5875014 0 0 0 5.2281047,6.9427285 L 4.8539672,7.316866 A 2.116668,2.116668 0 0 1 4.2333333,5.8208333 2.116668,2.116668 0 0 1 4.8539672,4.3248005 Z m 2.9920654,0 A 2.116668,2.116668 0 0 1 8.4666666,5.8208333 2.116668,2.116668 0 0 1 7.8460326,7.316866 L 7.4718952,6.9427285 A 1.5875014,1.5875014 0 0 0 7.9374999,5.8208333 1.5875014,1.5875014 0 0 0 7.4718952,4.698938 Z"
     id="path860" />
</svg>
