<?xml version="1.0" encoding="UTF-8" standalone="no"?>
<svg
   width="47.542679"
   height="47.546455"
   viewBox="0 0 12.579 12.58"
   version="1.1"
   id="svg4"
   sodipodi:docname="recon-ng.svg"
   inkscape:version="0.92.5 (2060ec1f9f, 2020-04-08)"
   xmlns:inkscape="http://www.inkscape.org/namespaces/inkscape"
   xmlns:sodipodi="http://sodipodi.sourceforge.net/DTD/sodipodi-0.dtd"
   xmlns="http://www.w3.org/2000/svg"
   xmlns:svg="http://www.w3.org/2000/svg"
   xmlns:rdf="http://www.w3.org/1999/02/22-rdf-syntax-ns#"
   xmlns:cc="http://creativecommons.org/ns#"
   xmlns:dc="http://purl.org/dc/elements/1.1/">
  <metadata
     id="metadata10">
    <rdf:RDF>
      <cc:Work
         rdf:about="">
        <dc:format>image/svg+xml</dc:format>
        <dc:type
           rdf:resource="http://purl.org/dc/dcmitype/StillImage" />
        <dc:title />
      </cc:Work>
    </rdf:RDF>
  </metadata>
  <defs
     id="defs8" />
  <sodipodi:namedview
     pagecolor="#ffffff"
     bordercolor="#666666"
     borderopacity="1"
     objecttolerance="10"
     gridtolerance="10"
     guidetolerance="10"
     inkscape:pageopacity="0"
     inkscape:pageshadow="2"
     inkscape:window-width="1085"
     inkscape:window-height="480"
     id="namedview6"
     showgrid="false"
     inkscape:zoom="4.9166667"
     inkscape:cx="2.1355932"
     inkscape:cy="24"
     inkscape:window-x="0"
     inkscape:window-y="25"
     inkscape:window-maximized="0"
     inkscape:current-layer="svg4"
     inkscape:showpageshadow="0"
     inkscape:pagecheckerboard="0"
     inkscape:deskcolor="#d1d1d1" />
  <path
     d="M 6.285,0 A 6.295,6.295 0 0 0 0,6.285 6.295,6.295 0 0 0 6.285,12.58 6.295,6.295 0 0 0 12.579,6.285 6.295,6.295 0 0 0 6.285,0 Z M 6.274,0.94 a 5.408,5.408 0 0 1 5.397,5.387 5.407,5.407 0 0 1 -10.814,0 C 0.857,3.34 3.287,0.94 6.274,0.94 Z M 7.462,2.618 6.147,2.643 5.995,3.096 5.843,3.549 H 7.176 L 7.319,3.119 7.462,2.689 Z M 4.127,2.62 3.84,3.48 V 3.55 L 5.156,3.525 5.459,2.62 Z m 4.05,0 L 8.046,3.027 7.914,3.433 7.892,3.491 7.87,3.549 H 9.207 L 9.339,3.142 9.471,2.736 9.493,2.678 9.515,2.62 H 8.178 Z M 3.664,4.013 3.41,4.779 3.39,4.837 3.367,4.895 h 1.337 l 0.29,-0.882 z m 5.617,0 L 8.984,4.898 10.31,4.872 10.6,4.013 H 9.279 Z M 8.578,5.357 7.262,5.383 7.111,5.835 6.959,6.288 H 8.291 L 8.434,5.858 8.578,5.429 Z M 3.211,5.359 2.945,6.172 2.923,6.23 2.901,6.288 H 4.238 L 4.502,5.476 4.546,5.359 H 3.21 Z m 2.031,0 -0.143,0.43 -0.143,0.43 V 6.291 L 6.271,6.265 6.575,5.359 H 5.241 Z M 2.747,6.752 2.602,7.193 2.456,7.635 h 1.33 L 4.04,6.868 4.083,6.752 Z M 9.656,6.842 8.33,6.868 8.178,7.321 8.026,7.774 h 1.32 L 9.479,7.367 9.611,6.961 Z M 2.282,8.145 2.137,8.586 1.992,9.027 h 1.33 L 3.449,8.644 3.576,8.261 3.597,8.203 3.619,8.145 Z M 9.191,8.235 7.865,8.261 7.601,9.046 V 9.12 H 8.895 L 9.149,8.354 9.17,8.294 9.192,8.236 Z"
     id="path2"
     inkscape:connector-curvature="0"
     style="fill:#bde6fb;fill-opacity:1" />
</svg>
