<?xml version="1.0" encoding="UTF-8" standalone="no"?>
<svg
   width="47.546455"
   height="47.546455"
   viewBox="0 0 12.58 12.58"
   version="1.1"
   id="svg4"
   sodipodi:docname="reddit.svg"
   inkscape:version="0.92.4 (5da689c313, 2019-01-14)"
   xmlns:inkscape="http://www.inkscape.org/namespaces/inkscape"
   xmlns:sodipodi="http://sodipodi.sourceforge.net/DTD/sodipodi-0.dtd"
   xmlns="http://www.w3.org/2000/svg"
   xmlns:svg="http://www.w3.org/2000/svg"
   xmlns:rdf="http://www.w3.org/1999/02/22-rdf-syntax-ns#"
   xmlns:cc="http://creativecommons.org/ns#"
   xmlns:dc="http://purl.org/dc/elements/1.1/">
  <metadata
     id="metadata10">
    <rdf:RDF>
      <cc:Work
         rdf:about="">
        <dc:format>image/svg+xml</dc:format>
        <dc:type
           rdf:resource="http://purl.org/dc/dcmitype/StillImage" />
        <dc:title />
      </cc:Work>
    </rdf:RDF>
  </metadata>
  <defs
     id="defs8" />
  <sodipodi:namedview
     pagecolor="#ffffff"
     bordercolor="#666666"
     borderopacity="1"
     objecttolerance="10"
     gridtolerance="10"
     guidetolerance="10"
     inkscape:pageopacity="0"
     inkscape:pageshadow="2"
     inkscape:window-width="861"
     inkscape:window-height="480"
     id="namedview6"
     showgrid="false"
     inkscape:zoom="4.9166667"
     inkscape:cx="2.1355932"
     inkscape:cy="24"
     inkscape:window-x="0"
     inkscape:window-y="25"
     inkscape:window-maximized="0"
     inkscape:current-layer="svg4"
     inkscape:showpageshadow="0"
     inkscape:pagecheckerboard="0"
     inkscape:deskcolor="#d1d1d1" />
  <path
     d="M 6.29,9.9999768e-4 A 6.29,6.29 0 0 0 0,6.291 6.29,6.29 0 0 0 6.29,12.58 6.29,6.29 0 0 0 12.58,6.29 6.29,6.29 0 0 0 6.29,0 Z M 6.272,0.938 A 5.407,5.407 0 0 1 11.679,6.345 5.407,5.407 0 0 1 6.272,11.752 5.407,5.407 0 0 1 0.866,6.345 5.407,5.407 0 0 1 6.272,0.939 Z M 6.56,2.713 A 0.305,0.305 0 0 0 6.273,2.982 L 6.001,5.166 A 3.358,2.442 0 0 0 3.955,5.834 0.916,0.916 0 0 0 3.219,5.461 0.916,0.916 0 0 0 2.303,6.377 0.916,0.916 0 0 0 2.951,7.252 3.358,2.442 0 0 0 2.913,7.599 3.358,2.442 0 0 0 6.272,10.041 3.358,2.442 0 0 0 9.63,7.599 3.358,2.442 0 0 0 9.592,7.253 0.916,0.916 0 0 0 10.24,6.377 0.916,0.916 0 0 0 9.324,5.461 0.916,0.916 0 0 0 8.589,5.833 3.358,2.442 0 0 0 6.615,5.173 L 6.841,3.364 8.148,3.551 A 0.61,0.61 0 0 0 8.714,3.935 0.61,0.61 0 0 0 9.324,3.325 0.61,0.61 0 0 0 8.714,2.714 0.61,0.61 0 0 0 8.234,2.948 L 6.621,2.718 A 0.305,0.305 0 0 0 6.56,2.713 Z M 5.05,6.377 A 0.61,0.61 0 0 1 5.66,6.988 0.61,0.61 0 0 1 5.05,7.598 0.61,0.61 0 0 1 4.44,6.988 0.61,0.61 0 0 1 5.05,6.378 Z m 2.443,0 a 0.61,0.61 0 0 1 0.61,0.611 0.61,0.61 0 0 1 -0.61,0.61 0.61,0.61 0 0 1 -0.611,-0.61 0.61,0.61 0 0 1 0.61,-0.61 z M 7.792,8.2 a 0.306,0.306 0 0 1 0.28,0.451 c 0,0 -0.13,0.235 -0.41,0.422 C 7.38,9.261 6.932,9.429 6.271,9.429 5.609,9.429 5.161,9.261 4.881,9.073 A 1.337,1.337 0 0 1 4.472,8.651 0.305,0.305 0 0 1 4.718,8.205 a 0.305,0.305 0 0 1 0.031,0 0.305,0.305 0 0 1 0.269,0.172 c 0,0 0.024,0.071 0.2,0.19 0.177,0.117 0.493,0.254 1.053,0.254 0.56,0 0.875,-0.137 1.052,-0.255 C 7.5,8.448 7.524,8.376 7.524,8.376 A 0.306,0.306 0 0 1 7.792,8.2 Z"
     id="path2"
     inkscape:connector-curvature="0"
     style="fill:#bde6fb;fill-opacity:1" />
</svg>
