<?xml version="1.0" encoding="UTF-8" standalone="no"?>
<svg
   width="47.546455"
   height="47.542679"
   viewBox="0 0 12.58 12.579"
   version="1.1"
   id="svg12"
   sodipodi:docname="redshift-status-off.svg"
   inkscape:version="0.92.4 (5da689c313, 2019-01-14)"
   xmlns:inkscape="http://www.inkscape.org/namespaces/inkscape"
   xmlns:sodipodi="http://sodipodi.sourceforge.net/DTD/sodipodi-0.dtd"
   xmlns="http://www.w3.org/2000/svg"
   xmlns:svg="http://www.w3.org/2000/svg"
   xmlns:rdf="http://www.w3.org/1999/02/22-rdf-syntax-ns#"
   xmlns:cc="http://creativecommons.org/ns#"
   xmlns:dc="http://purl.org/dc/elements/1.1/">
  <metadata
     id="metadata18">
    <rdf:RDF>
      <cc:Work
         rdf:about="">
        <dc:format>image/svg+xml</dc:format>
        <dc:type
           rdf:resource="http://purl.org/dc/dcmitype/StillImage" />
        <dc:title />
      </cc:Work>
    </rdf:RDF>
  </metadata>
  <defs
     id="defs16" />
  <sodipodi:namedview
     pagecolor="#ffffff"
     bordercolor="#666666"
     borderopacity="1"
     objecttolerance="10"
     gridtolerance="10"
     guidetolerance="10"
     inkscape:pageopacity="0"
     inkscape:pageshadow="2"
     inkscape:window-width="1087"
     inkscape:window-height="480"
     id="namedview14"
     showgrid="false"
     inkscape:zoom="4.9166667"
     inkscape:cx="2.1355932"
     inkscape:cy="24"
     inkscape:window-x="0"
     inkscape:window-y="25"
     inkscape:window-maximized="0"
     inkscape:current-layer="svg12"
     inkscape:showpageshadow="0"
     inkscape:pagecheckerboard="0"
     inkscape:deskcolor="#d1d1d1" />
  <path
     d="M 6.29,9.9999565e-4 A 6.29,6.29 0 0 0 0,6.291 6.29,6.29 0 0 0 6.29,12.579 6.29,6.29 0 0 0 12.58,6.29 6.29,6.29 0 0 0 6.29,0 Z M 6.272,0.937 A 5.407,5.407 0 0 1 11.679,6.344 5.407,5.407 0 0 1 6.272,11.751 5.407,5.407 0 0 1 0.866,6.344 5.407,5.407 0 0 1 6.272,0.938 Z"
     id="path2"
     inkscape:connector-curvature="0"
     style="fill:#bde6fb;fill-opacity:1" />
  <path
     d="m 4.992,8.13 c -0.02,10e-4 -0.03,0.012 -0.029,0.038 -0.11,0.045 -0.076,0.136 -0.058,0.37 0.01,0.123 0.14,0.198 0.316,0.253 -0.2,0.142 -0.327,0.29 -0.316,0.428 0.01,0.121 0.137,0.204 0.31,0.26 -0.196,0.14 -0.321,0.292 -0.31,0.427 0.013,0.148 0.246,0.306 0.724,0.377 v 0.235 c 0,0.308 0.314,0.581 0.667,0.581 0.353,0 0.667,-0.273 0.667,-0.58 V 10.265 C 7.361,10.203 7.653,10.088 7.686,9.906 7.705,9.801 7.619,9.702 7.486,9.615 7.586,9.514 7.656,9.412 7.647,9.317 7.637,9.195 7.512,9.113 7.337,9.057 7.533,8.917 7.659,8.765 7.647,8.629 7.637,8.519 7.689,8.389 7.571,8.324 7.552,8.334 7.536,8.334 7.529,8.305 L 7.525,8.295 C 7.512,8.143 7.087,8.607 6.38,8.558 5.744,8.66 5.13,8.127 4.992,8.13 Z m 2.537,0.175 a 0.2,0.2 0 0 1 0.042,0.02 C 7.617,8.298 7.663,8.21 7.529,8.305 Z"
     id="path4"
     inkscape:connector-curvature="0"
     style="fill:#1e3f5a" />
  <path
     d="m 6.296,1.758 c -1.66,0 -3.008,1.315 -3.008,2.935 0,1.66 1.218,1.844 1.218,2.456 0,0.719 0.715,1.534 1.89,1.505 1.249,-0.031 1.765,-0.74 1.765,-1.505 0,-0.654 1.143,-0.671 1.143,-2.456 0,-1.62 -1.348,-2.935 -3.008,-2.935 z"
     id="path6"
     inkscape:connector-curvature="0"
     style="opacity:0.75;fill:#008080;stroke:#1e3f5a;stroke-width:0.22" />
  <path
     d="M 7.478,6.391 A 0.123,0.123 0 0 0 7.394,6.446 C 6.987,6.836 6.447,6.836 5.988,6.734 5.528,6.631 5.173,6.424 5.173,6.424 A 0.124,0.124 0 0 0 5.088,6.406 0.118,0.118 0 0 0 5.016,6.452 C 4.982,6.482 4.965,6.526 4.98,6.571 L 5.784,8.957 C 5.806,9.021 5.871,9.064 5.937,9.043 6.002,9.021 6.045,8.957 6.023,8.893 L 5.303,6.756 c 0.159,0.07 0.38,0.153 0.633,0.21 0.4,0.09 0.888,0.107 1.316,-0.124 L 6.57,8.867 C 6.548,8.931 6.591,8.995 6.656,9.017 6.722,9.038 6.786,8.995 6.809,8.931 L 7.613,6.546 C 7.635,6.481 7.591,6.416 7.526,6.395 A 0.114,0.114 0 0 0 7.478,6.391 Z"
     id="path8"
     inkscape:connector-curvature="0"
     style="opacity:0.75;fill:#1e3f5a" />
  <path
     d="m 6.296,1.758 c -1.66,0 -3.008,1.315 -3.008,2.935 0,1.66 1.218,1.844 1.218,2.456 0,0.719 0.715,1.534 1.89,1.505 1.249,-0.031 1.765,-0.74 1.765,-1.505 0,-0.654 1.143,-0.671 1.143,-2.456 0,-1.62 -1.348,-2.935 -3.008,-2.935 z"
     id="path10"
     inkscape:connector-curvature="0"
     style="fill:none;stroke:#1e3f5a;stroke-width:0.22" />
</svg>
