<?xml version="1.0" encoding="UTF-8" standalone="no"?>
<svg
   width="47.546455"
   height="47.542679"
   viewBox="0 0 12.58 12.579"
   version="1.1"
   id="svg4"
   sodipodi:docname="referencer.svg"
   inkscape:version="0.92.4 (5da689c313, 2019-01-14)"
   xmlns:inkscape="http://www.inkscape.org/namespaces/inkscape"
   xmlns:sodipodi="http://sodipodi.sourceforge.net/DTD/sodipodi-0.dtd"
   xmlns="http://www.w3.org/2000/svg"
   xmlns:svg="http://www.w3.org/2000/svg"
   xmlns:rdf="http://www.w3.org/1999/02/22-rdf-syntax-ns#"
   xmlns:cc="http://creativecommons.org/ns#"
   xmlns:dc="http://purl.org/dc/elements/1.1/">
  <metadata
     id="metadata10">
    <rdf:RDF>
      <cc:Work
         rdf:about="">
        <dc:format>image/svg+xml</dc:format>
        <dc:type
           rdf:resource="http://purl.org/dc/dcmitype/StillImage" />
        <dc:title />
      </cc:Work>
    </rdf:RDF>
  </metadata>
  <defs
     id="defs8" />
  <sodipodi:namedview
     pagecolor="#ffffff"
     bordercolor="#666666"
     borderopacity="1"
     objecttolerance="10"
     gridtolerance="10"
     guidetolerance="10"
     inkscape:pageopacity="0"
     inkscape:pageshadow="2"
     inkscape:window-width="1087"
     inkscape:window-height="480"
     id="namedview6"
     showgrid="false"
     inkscape:zoom="4.9166667"
     inkscape:cx="2.1355932"
     inkscape:cy="24"
     inkscape:window-x="0"
     inkscape:window-y="25"
     inkscape:window-maximized="0"
     inkscape:current-layer="svg4"
     inkscape:showpageshadow="0"
     inkscape:pagecheckerboard="0"
     inkscape:deskcolor="#d1d1d1" />
  <path
     d="M 6.29,9.9999565e-4 A 6.29,6.29 0 0 0 0,6.291 6.29,6.29 0 0 0 6.29,12.579 6.29,6.29 0 0 0 12.58,6.29 6.29,6.29 0 0 0 6.29,0 Z M 6.272,0.937 A 5.407,5.407 0 0 1 11.679,6.344 5.407,5.407 0 0 1 6.272,11.751 5.407,5.407 0 0 1 0.866,6.344 5.407,5.407 0 0 1 6.272,0.938 Z m 0.033,0.64 a 2.294,2.294 0 1 0 0,4.588 2.2945,2.2945 0 0 0 0,-4.589 z m 0,0.124 A 2.17,2.17 0 0 1 8.469,3.878 2.17,2.17 0 0 1 6.305,6.055 2.17,2.17 0 0 1 4.141,3.878 2.17,2.17 0 0 1 6.306,1.701 Z M 6.331,2.096 6.09,2.123 5.843,2.191 5.897,2.171 5.865,2.116 5.761,2.131 5.712,2.181 5.632,2.191 5.56,2.226 5.524,2.242 5.516,2.253 5.466,2.266 5.434,2.33 5.394,2.248 5.378,2.284 5.386,2.375 5.321,2.43 5.281,2.53 h 0.08 L 5.402,2.439 5.506,2.366 5.586,2.393 5.747,2.503 5.827,2.43 5.739,2.393 5.699,2.312 5.547,2.293 5.544,2.278 5.608,2.289 5.648,2.252 5.728,2.234 C 5.746,2.225 5.766,2.22 5.784,2.214 L 5.737,2.26 5.922,2.387 V 2.46 L 5.85,2.532 5.946,2.723 6.01,2.687 6.09,2.559 A 2.76,2.76 0 0 0 6.42,2.434 L 6.412,2.482 6.469,2.519 6.565,2.455 6.517,2.4 6.453,2.437 6.428,2.43 6.443,2.424 6.54,2.179 Z M 5.196,2.242 5.158,2.332 5.079,2.347 a 2.021,2.021 0 0 0 -0.722,1.31 1.1,1.1 0 0 0 0.07,0.116 l 0.159,0.09 0.158,0.04 0.067,0.08 0.106,0.073 0.06,-0.008 0.045,0.02 V 4.08 L 4.962,4.234 4.917,4.299 4.932,4.331 4.895,4.453 5.03,4.688 5.166,4.801 5.226,4.882 5.219,5.052 5.264,5.149 5.219,5.336 c 0,0 -0.004,-0.001 0.002,0.018 0.005,0.018 0.24,0.142 0.256,0.132 L 5.505,5.466 5.49,5.425 5.55,5.368 5.573,5.312 5.671,5.279 5.746,5.101 5.723,5.052 5.776,4.979 5.889,4.955 5.949,4.825 5.934,4.664 6.024,4.542 6.04,4.421 A 23.71,23.71 0 0 1 5.67,4.243 L 5.61,4.129 5.497,4.105 5.437,3.952 5.287,3.968 5.158,3.878 5.023,3.992 V 4.01 C 4.982,3.999 4.931,3.997 4.895,3.976 L 4.864,3.895 V 3.805 L 4.774,3.813 4.796,3.643 H 4.744 L 4.691,3.708 4.638,3.732 4.563,3.692 4.556,3.602 4.571,3.506 4.684,3.425 h 0.09 L 4.789,3.376 4.902,3.401 4.985,3.498 5,3.336 5.144,3.222 5.196,3.101 5.302,3.061 5.362,2.979 5.498,2.955 5.566,2.858 H 5.362 L 5.49,2.801 H 5.58 L 5.708,2.761 5.723,2.712 5.678,2.672 5.625,2.655 5.641,2.607 5.603,2.534 5.513,2.566 5.523,2.519 H 5.537 V 2.455 L 5.457,2.418 5.392,2.464 5.405,2.473 5.339,2.583 5.347,2.631 5.264,2.663 5.211,2.768 5.188,2.671 5.045,2.614 5.022,2.541 5.211,2.436 5.294,2.364 5.301,2.274 5.256,2.25 Z m 2.025,0.04 -0.14,0.034 -0.089,0.059 v 0.05 L 6.852,2.516 6.882,2.65 6.963,2.592 7.015,2.65 7.074,2.683 7.111,2.583 7.089,2.525 7.111,2.483 7.192,2.408 H 7.229 L 7.192,2.492 V 2.567 C 7.226,2.557 7.26,2.554 7.295,2.55 L 7.199,2.617 7.192,2.659 7.082,2.751 6.971,2.725 V 2.659 L 6.919,2.692 6.941,2.751 H 6.86 L 6.816,2.825 6.761,2.888 6.661,2.909 6.72,2.968 6.735,3.026 H 6.661 l -0.096,0.05 v 0.15 H 6.609 L 6.65,3.272 6.742,3.226 6.779,3.135 6.845,3.093 6.86,3.059 6.97,3.034 7.03,3.101 7.096,3.135 7.059,3.209 7.119,3.193 7.148,3.117 7.074,3.034 h 0.03 L 7.177,3.093 7.192,3.176 7.258,3.251 7.273,3.143 7.31,3.126 C 7.346,3.164 7.375,3.209 7.405,3.251 L 7.517,3.259 7.583,3.301 7.553,3.342 7.487,3.401 H 7.391 L 7.265,3.359 7.199,3.368 7.151,3.422 7.015,3.284 6.919,3.259 6.779,3.276 6.653,3.309 c -0.07,0.08 -0.14,0.16 -0.206,0.242 L 6.366,3.743 6.402,3.785 6.336,3.885 6.41,4.06 6.598,4.273 6.69,4.193 6.73,4.24 6.83,4.177 6.863,4.215 h 0.1 l 0.058,0.064 -0.036,0.115 0.07,0.08 -0.003,0.137 0.052,0.1 -0.038,0.084 A 3.064,3.064 0 0 0 7.059,4.978 l 0.089,0.25 0.022,0.134 v 0.067 h 0.052 l 0.08,-0.05 H 7.398 L 7.542,5.216 7.524,5.162 7.62,5.079 7.55,4.999 7.634,4.929 7.716,4.879 7.753,4.836 7.731,4.745 V 4.511 L 7.797,4.369 7.877,4.277 7.967,4.06 V 4.002 C 7.924,4.007 7.883,4.008 7.841,4.012 L 7.926,3.927 8.047,3.843 8.114,3.768 V 3.685 L 8.07,3.601 8.01,3.668 7.967,3.618 7.9,3.568 V 3.458 L 7.978,3.546 8.062,3.533 c 0.039,0.036 0.077,0.07 0.11,0.109 L 8.228,3.579 C 8.228,3.513 8.153,3.186 7.991,2.909 7.829,2.632 7.546,2.379 7.546,2.379 L 7.524,2.415 7.45,2.498 7.354,2.398 H 7.45 L 7.494,2.348 7.317,2.315 Z m -0.6,0.346 V 2.682 L 6.654,2.719 V 2.8 L 6.638,2.91 6.726,2.891 6.79,2.828 6.734,2.773 A 1.619,1.619 0 0 0 6.67,2.628 H 6.622 Z M 6.548,2.737 6.492,2.755 6.508,2.855 6.58,2.818 Z M 5.626,2.963 5.651,3.09 5.699,3.017 Z M 7.56,3.501 7.645,3.598 7.745,3.81 7.803,3.877 7.773,3.952 7.828,4.013 C 7.803,4.015 7.778,4.019 7.752,4.019 A 2.884,2.884 0 0 1 7.634,3.719 L 7.571,3.647 7.538,3.527 Z M 4.909,6.379 C 4.475,6.382 4.052,6.575 3.731,6.756 3.544,6.871 3.529,6.919 3.526,7.149 l -0.014,3.115 c 0.002,0.105 0.034,0.223 0.144,0.163 0.034,-0.024 0.068,-0.046 0.102,-0.067 1.141,-0.7 2.1,-0.202 2.43,0.62 L 6.148,7.142 C 5.788,6.563 5.343,6.376 4.909,6.379 Z m 2.773,0 C 7.249,6.376 6.805,6.563 6.443,7.142 L 6.405,10.98 c 0.33,-0.822 1.288,-1.32 2.429,-0.62 l 0.103,0.067 c 0.11,0.06 0.14,-0.058 0.142,-0.163 L 9.066,7.148 C 9.063,6.918 9.049,6.87 8.861,6.755 8.541,6.574 8.117,6.381 7.683,6.378 Z"
     id="path2"
     inkscape:connector-curvature="0"
     style="fill:#bde6fb;fill-opacity:1" />
</svg>
