<?xml version="1.0" encoding="UTF-8" standalone="no"?>
<svg
   width="47.542679"
   height="47.546455"
   viewBox="0 0 12.579 12.58"
   version="1.1"
   id="svg4"
   sodipodi:docname="responder.svg"
   inkscape:version="0.92.5 (2060ec1f9f, 2020-04-08)"
   xmlns:inkscape="http://www.inkscape.org/namespaces/inkscape"
   xmlns:sodipodi="http://sodipodi.sourceforge.net/DTD/sodipodi-0.dtd"
   xmlns="http://www.w3.org/2000/svg"
   xmlns:svg="http://www.w3.org/2000/svg"
   xmlns:rdf="http://www.w3.org/1999/02/22-rdf-syntax-ns#"
   xmlns:cc="http://creativecommons.org/ns#"
   xmlns:dc="http://purl.org/dc/elements/1.1/">
  <metadata
     id="metadata10">
    <rdf:RDF>
      <cc:Work
         rdf:about="">
        <dc:format>image/svg+xml</dc:format>
        <dc:type
           rdf:resource="http://purl.org/dc/dcmitype/StillImage" />
        <dc:title />
      </cc:Work>
    </rdf:RDF>
  </metadata>
  <defs
     id="defs8" />
  <sodipodi:namedview
     pagecolor="#ffffff"
     bordercolor="#666666"
     borderopacity="1"
     objecttolerance="10"
     gridtolerance="10"
     guidetolerance="10"
     inkscape:pageopacity="0"
     inkscape:pageshadow="2"
     inkscape:window-width="1085"
     inkscape:window-height="480"
     id="namedview6"
     showgrid="false"
     inkscape:zoom="4.9166667"
     inkscape:cx="2.1355932"
     inkscape:cy="24"
     inkscape:window-x="0"
     inkscape:window-y="25"
     inkscape:window-maximized="0"
     inkscape:current-layer="svg4"
     inkscape:showpageshadow="0"
     inkscape:pagecheckerboard="0"
     inkscape:deskcolor="#d1d1d1" />
  <path
     d="M 6.285,0 A 6.295,6.295 0 0 0 0,6.285 6.295,6.295 0 0 0 6.285,12.58 6.295,6.295 0 0 0 12.579,6.285 6.295,6.295 0 0 0 6.285,0 Z M 6.274,0.94 a 5.408,5.408 0 0 1 5.397,5.387 5.407,5.407 0 0 1 -10.814,0 C 0.857,3.34 3.287,0.94 6.274,0.94 Z M 6.273,1.732 c -0.032,0 -0.062,0.009 -0.093,0.01 a 4.638,4.638 0 0 0 -0.992,0.13 c 0.087,0.054 0.121,0.084 0.27,0.163 0.533,0.286 1.037,0.584 1.507,0.893 0.47,0.309 0.906,0.627 1.304,0.953 0.397,0.325 0.757,0.658 1.074,0.993 0.317,0.335 0.592,0.674 0.82,1.012 0.215,0.318 0.498,0.872 0.592,1.157 0.016,0.05 0.03,0.058 0.046,0.092 V 7.136 A 4.613,4.613 0 0 0 10.854,6.789 4.613,4.613 0 0 0 10.861,6.659 4.613,4.613 0 0 0 10.877,6.329 4.614,4.614 0 0 0 10.867,6.037 4.614,4.614 0 0 0 6.417,1.74 4.614,4.614 0 0 0 6.273,1.732 Z M 3.879,2.427 C 3.444,2.689 3.059,3.017 2.733,3.403 2.695,3.448 2.656,3.492 2.62,3.538 2.392,3.832 2.224,4.168 2.071,4.513 1.824,5.074 1.651,5.673 1.651,6.329 a 4.613,4.613 0 0 0 0.422,1.917 4.613,4.613 0 0 0 0.08,0.166 4.613,4.613 0 0 0 0.116,0.216 4.613,4.613 0 0 0 0.082,0.133 C 2.414,8.736 2.405,8.761 2.528,8.7 2.861,8.534 3.292,8.253 3.789,7.881 A 26.1,26.1 0 0 0 5.442,6.52 C 6.177,5.868 7.576,4.498 7.576,4.43 7.576,4.33 7.011,3.815 6.592,3.533 A 6.828,6.828 0 0 0 5.342,2.887 C 4.882,2.702 4.385,2.548 3.879,2.427 Z M 8.043,4.881 C 7.96,4.881 6.616,6.239 6.196,6.747 5.476,7.62 4.956,8.36 4.418,9.281 4.165,9.712 4.053,9.988 3.919,10.285 a 4.613,4.613 0 0 0 1.29,0.517 4.613,4.613 0 0 0 2.01,0.022 A 4.613,4.613 0 0 0 10.169,8.76 8.788,8.788 0 0 0 9.649,7.178 7.197,7.197 0 0 0 8.829,5.761 C 8.517,5.345 8.103,4.881 8.043,4.881 Z"
     id="path2"
     inkscape:connector-curvature="0"
     style="fill:#bde6fb;fill-opacity:1" />
</svg>
