<?xml version="1.0" encoding="UTF-8" standalone="no"?>
<svg
   width="48"
   height="48"
   viewBox="0 0 12.7 12.7"
   version="1.1"
   id="svg4"
   sodipodi:docname="rhythmbox.svg"
   inkscape:version="0.92.5 (2060ec1f9f, 2020-04-08)"
   xmlns:inkscape="http://www.inkscape.org/namespaces/inkscape"
   xmlns:sodipodi="http://sodipodi.sourceforge.net/DTD/sodipodi-0.dtd"
   xmlns="http://www.w3.org/2000/svg"
   xmlns:svg="http://www.w3.org/2000/svg">
  <sodipodi:namedview
     id="namedview1"
     pagecolor="#505050"
     bordercolor="#eeeeee"
     borderopacity="1"
     inkscape:showpageshadow="0"
     inkscape:pageopacity="0"
     inkscape:pagecheckerboard="0"
     inkscape:deskcolor="#d1d1d1" />
  <defs
     id="defs8">
    <style
       id="current-color-scheme"
       type="text/css">&#10;      .ColorScheme-Highlight {&#10;        color:#1e3f5a;&#10;      }&#10;  </style>
  </defs>
  <path
     class="ColorScheme-Highlight"
     style="fill:#bde6fb;fill-opacity:1;stroke-width:0.264583"
     d="M 6.3499999,0 A 6.3499999,6.3499999 0 0 0 0,6.3499999 6.3499999,6.3499999 0 0 0 6.3499999,12.7 6.3499999,6.3499999 0 0 0 12.7,6.3499999 6.3499999,6.3499999 0 0 0 6.3499999,0 Z m 0,0.79374999 A 5.5562499,5.5562499 0 0 1 11.90625,6.3499999 5.5562499,5.5562499 0 0 1 6.3499999,11.90625 5.5562499,5.5562499 0 0 1 0.79374999,6.3499999 5.5562499,5.5562499 0 0 1 6.3499999,0.79374999 Z M 3.7041666,2.1166666 C 3.4110083,2.1166666 3.175,2.3526749 3.175,2.6458333 v 7.4083337 c 0,0.293158 0.2360083,0.529166 0.5291666,0.529166 h 5.2916666 c 0.2931583,0 0.5291667,-0.236008 0.5291667,-0.529166 V 2.6458333 c 0,-0.2931584 -0.2360084,-0.5291667 -0.5291667,-0.5291667 z M 4.3656249,2.6458333 A 0.6614583,0.6614583 0 0 1 5.0270833,3.3072916 0.6614583,0.6614583 0 0 1 4.3656249,3.96875 0.6614583,0.6614583 0 0 1 3.7041666,3.3072916 0.6614583,0.6614583 0 0 1 4.3656249,2.6458333 Z m 3.96875,0 a 0.6614583,0.6614583 0 0 1 0.655774,0.5834269 c 0.00189,-0.018105 0.00568,-0.035666 0.00568,-0.05426 a 0.52916663,0.52916663 0 0 1 -0.00413,0.064079 0.6614583,0.6614583 0 0 1 0.00413,0.068213 A 0.6614583,0.6614583 0 0 1 8.3343749,3.96875 0.6614583,0.6614583 0 0 1 7.6729166,3.3072916 0.6614583,0.6614583 0 0 1 8.3343749,2.6458333 Z m 0.6573242,0.5932456 a 0.6614583,0.6614583 0 0 0 -0.00156,-0.00982 c -0.00183,0.017576 -0.00172,0.035711 -0.00517,0.05271 a 0.52916663,0.52916663 0 0 0 0.00672,-0.042891 z m -0.00672,0.043408 c -0.0064,0.031291 -0.016274,0.060934 -0.027905,0.089917 a 0.52916663,0.52916663 0 0 0 0.027905,-0.089917 z m -0.03514,0.1069703 c -0.010694,0.024135 -0.023172,0.047192 -0.037207,0.069247 a 0.52916663,0.52916663 0 0 0 0.037207,-0.069247 z m -0.051677,0.090951 c -0.014158,0.019987 -0.029771,0.039056 -0.046509,0.056844 a 0.52916663,0.52916663 0 0 0 0.046509,-0.056844 z m -0.063045,0.074414 c -0.019013,0.018444 -0.039872,0.035211 -0.061495,0.050643 a 0.52916663,0.52916663 0 0 0 0.061495,-0.050643 z m -0.079065,0.063045 c -0.022384,0.014634 -0.046209,0.027083 -0.070797,0.03824 a 0.52916663,0.52916663 0 0 0 0.070797,-0.03824 z m -0.092501,0.047543 c -0.02668,0.010679 -0.054034,0.019571 -0.082682,0.025839 a 0.52916663,0.52916663 0 0 0 0.082682,-0.025839 z m -0.095602,0.028422 c -0.032801,0.00632 -0.066586,0.010335 -0.1012859,0.010335 A 0.52916663,0.52916663 0 0 0 8.5679522,3.693832 Z M 6.3499999,5.0270833 a 2.3812498,2.3812498 0 0 1 2.38125,2.3812499 2.3812498,2.3812498 0 0 1 -2.38125,2.38125 A 2.3812498,2.3812498 0 0 1 3.96875,7.4083332 2.3812498,2.3812498 0 0 1 6.3499999,5.0270833 Z m 0,1.3229166 A 1.0583332,1.0583332 0 0 0 5.2916666,7.4083332 1.0583332,1.0583332 0 0 0 6.3499999,8.4666666 1.0583332,1.0583332 0 0 0 7.4083332,7.4083332 1.0583332,1.0583332 0 0 0 6.3499999,6.3499999 Z"
     id="path817" />
</svg>
