<?xml version="1.0" encoding="UTF-8" standalone="no"?>
<svg
   width="47.508694"
   height="47.546455"
   viewBox="0 0 12.570009 12.58"
   version="1.1"
   id="svg12"
   sodipodi:docname="ring.svg"
   inkscape:version="0.92.4 (5da689c313, 2019-01-14)"
   xmlns:inkscape="http://www.inkscape.org/namespaces/inkscape"
   xmlns:sodipodi="http://sodipodi.sourceforge.net/DTD/sodipodi-0.dtd"
   xmlns="http://www.w3.org/2000/svg"
   xmlns:svg="http://www.w3.org/2000/svg"
   xmlns:rdf="http://www.w3.org/1999/02/22-rdf-syntax-ns#"
   xmlns:cc="http://creativecommons.org/ns#"
   xmlns:dc="http://purl.org/dc/elements/1.1/">
  <defs
     id="defs16" />
  <sodipodi:namedview
     pagecolor="#ffffff"
     bordercolor="#666666"
     borderopacity="1"
     objecttolerance="10"
     gridtolerance="10"
     guidetolerance="10"
     inkscape:pageopacity="0"
     inkscape:pageshadow="2"
     inkscape:window-width="1087"
     inkscape:window-height="480"
     id="namedview14"
     showgrid="false"
     inkscape:zoom="4.9166667"
     inkscape:cx="2.1355932"
     inkscape:cy="24"
     inkscape:window-x="0"
     inkscape:window-y="25"
     inkscape:window-maximized="0"
     inkscape:current-layer="svg12"
     inkscape:showpageshadow="0"
     inkscape:pagecheckerboard="0"
     inkscape:deskcolor="#d1d1d1" />
  <metadata
     id="metadata2">
    <rdf:RDF>
      <cc:Work>
        <dc:format>image/svg+xml</dc:format>
        <dc:type
           rdf:resource="http://purl.org/dc/dcmitype/StillImage" />
        <dc:title />
      </cc:Work>
    </rdf:RDF>
  </metadata>
  <path
     d="M 6.280008,0 A 6.29,6.29 0 0 0 7.9585612e-6,6.3 6.29,6.29 0 0 0 6.290008,12.58 a 6.29,6.29 0 0 0 6.28,-6.29 6.29,6.29 0 0 0 -6.29,-6.29 z m -0.01,0.94 a 5.4,5.4 0 0 1 5.4,5.4 5.4,5.4 0 0 1 -5.4,5.41 A 5.4,5.4 0 0 1 0.86000796,6.35 5.4,5.4 0 0 1 6.260008,0.93 Z"
     id="path4"
     inkscape:connector-curvature="0"
     style="fill:#bde6fb;fill-opacity:0.988235" />
  <rect
     width="2.47"
     height="9.0500002"
     x="1.0030453"
     y="4.0493822"
     rx="0.81999999"
     ry="0.89999998"
     transform="rotate(-30)"
     id="rect6"
     style="fill:#005f6d" />
  <rect
     width="2.47"
     height="9.0500002"
     x="-9.7830448"
     y="-2.1806259"
     rx="0.81999999"
     ry="0.89999998"
     transform="matrix(-0.8660254,-0.5,-0.5,0.8660254,0,0)"
     id="rect8"
     style="fill:#2c808d" />
  <rect
     width="2.47"
     height="9.0500002"
     x="-7.54"
     y="-10.760008"
     rx="0.81999999"
     ry="0.89999998"
     transform="matrix(0,-1,-1,0,0,0)"
     id="rect10"
     style="fill:#2e96a5" />
</svg>
