<?xml version="1.0" encoding="UTF-8" standalone="no"?>
<svg
   width="47.546455"
   height="47.546459"
   viewBox="0 0 12.58 12.580001"
   version="1.1"
   id="svg4"
   sodipodi:docname="roccat.svg"
   inkscape:version="0.92.4 (5da689c313, 2019-01-14)"
   xmlns:inkscape="http://www.inkscape.org/namespaces/inkscape"
   xmlns:sodipodi="http://sodipodi.sourceforge.net/DTD/sodipodi-0.dtd"
   xmlns="http://www.w3.org/2000/svg"
   xmlns:svg="http://www.w3.org/2000/svg"
   xmlns:rdf="http://www.w3.org/1999/02/22-rdf-syntax-ns#"
   xmlns:cc="http://creativecommons.org/ns#"
   xmlns:dc="http://purl.org/dc/elements/1.1/">
  <metadata
     id="metadata10">
    <rdf:RDF>
      <cc:Work
         rdf:about="">
        <dc:format>image/svg+xml</dc:format>
        <dc:type
           rdf:resource="http://purl.org/dc/dcmitype/StillImage" />
        <dc:title />
      </cc:Work>
    </rdf:RDF>
  </metadata>
  <defs
     id="defs8" />
  <sodipodi:namedview
     pagecolor="#ffffff"
     bordercolor="#666666"
     borderopacity="1"
     objecttolerance="10"
     gridtolerance="10"
     guidetolerance="10"
     inkscape:pageopacity="0"
     inkscape:pageshadow="2"
     inkscape:window-width="861"
     inkscape:window-height="480"
     id="namedview6"
     showgrid="false"
     inkscape:zoom="4.9166667"
     inkscape:cx="2.1355932"
     inkscape:cy="24"
     inkscape:window-x="0"
     inkscape:window-y="25"
     inkscape:window-maximized="0"
     inkscape:current-layer="svg4"
     inkscape:showpageshadow="0"
     inkscape:pagecheckerboard="0"
     inkscape:deskcolor="#d1d1d1" />
  <path
     d="M 6.289,3.1602383e-7 A 6.29,6.29 0 0 0 0,6.2900003 6.29,6.29 0 0 0 6.29,12.58 6.29,6.29 0 0 0 12.58,6.2900003 6.29,6.29 0 0 0 6.288,3.1602383e-7 Z M 5.766,0.96500032 C 6.547,1.1090003 7.32,1.4040003 7.943,1.8360003 c 0.548,0.386 1.003,1.124 1.301,1.71 0.166,0.326 0.021,0.327 -0.666,0.082 -0.53,-0.19 -1.131,-0.382 -1.172,-0.336 -0.017,0.018 -0.063,0.13 -0.1,0.247 -0.073,0.222 -0.258,0.456 -0.29,0.424 -0.01,-0.01 0.01,-0.15 0.044,-0.313 0.075,-0.353 0.079,-0.54 0.018,-0.821 -0.065,-0.306 -0.104,-0.325 -0.456,-0.22 -0.163,0.048 -0.514,0.136 -0.78,0.194 -0.795,0.175 -1.239,0.388 -1.732,0.685 -0.29,0.174 -0.353,0.182 -0.317,0.037 0.046,-0.184 -0.083,-0.125 -0.416,0.192 -0.314,0.298 -0.41,0.353 -0.41,0.234 0,-0.14 -0.083,-0.049 -0.244,0.266 a 7.438,7.438 0 0 0 -0.29,0.648 c -0.096,0.258 -0.182,0.39 -0.453,0.693 -0.525,0.586 -0.545,0.71 -0.116,0.71 0.318,0 0.327,0.082 0.016,0.149 l -0.21,0.045 0.004,0.258 c 0.005,0.351 0.114,0.566 0.34,0.672 0.109,0.05 0.206,0.136 0.254,0.226 0.078,0.146 0.29,0.352 0.36,0.352 0.021,0 0.026,-0.093 0.013,-0.206 -0.027,-0.23 0.066,-0.489 0.202,-0.562 0.062,-0.033 0.098,-0.013 0.188,0.105 0.111,0.145 0.311,0.302 0.344,0.27 0.01,-0.01 -0.03,-0.14 -0.089,-0.289 -0.16,-0.408 -0.146,-0.47 0.074,-0.662 0.25,-0.217 0.515,-0.33 0.693,-0.297 0.274,0.051 0.824,0.49 0.883,0.728 0.036,0.142 -0.05,0.337 -0.207,0.469 -0.162,0.137 -0.458,0.316 -0.563,0.316 -0.044,0 -0.17,-0.079 -0.28,-0.175 -0.11,-0.097 -0.21,-0.165 -0.222,-0.153 -0.013,0.012 -0.001,0.096 0.023,0.186 0.025,0.09 0.046,0.187 0.046,0.217 0,0.093 -0.238,0.057 -0.489,-0.075 a 2.943,2.943 0 0 0 -0.26,-0.128 c -0.077,0 0.212,0.993 0.347,1.173 0.1,0.134 0.202,0.205 0.33,0.214 0.17,0.01 0.389,-0.09 0.715,-0.308 0.541,-0.363 0.93,-0.693 1.473,-0.78 0.297,-0.05 0.45,0.01 0.666,0.26 C 6.812,8.6180003 7.491,10.266 7.422,10.447 6.682,10.923 5.869,11.037 5.053,11.044 4.332,11.064 3.762,10.931 3.156,10.76 A 5.407,5.407 0 0 1 0.864,6.3440003 5.407,5.407 0 0 1 5.765,0.96500032 Z M 3.441,4.6540003 c 0.022,0 0.038,0.006 0.048,0.015 0.096,0.088 -0.211,0.439 -0.435,0.496 -0.39,0.1 -0.478,0.032 -0.275,-0.207 0.118,-0.138 0.514,-0.311 0.662,-0.304 z m 6.36,0.833 c 0.644,0.037 1.248,0.164 1.841,0.285 a 5.407,5.407 0 0 1 0.037,0.572 5.407,5.407 0 0 1 -0.017,0.332 10.017,10.017 0 0 0 -0.545,-0.215 c -0.791,-0.287 -1.925,-0.447 -2.942,-0.505 -0.434,-0.025 -0.596,-0.112 -0.489,-0.157 0.68,-0.126 0.821,-0.312 2.115,-0.312 z m -1.33,1.309 c 0.478,-0.02 2.039,0.14 2.885,0.306 0.027,0.006 0.153,0.028 0.255,0.047 a 5.407,5.407 0 0 1 -0.179,0.807 c -0.07,-0.037 -0.154,-0.08 -0.193,-0.102 -0.577,-0.312 -1.446,-0.627 -2.275,-0.826 -0.739,-0.177 -0.708,-0.166 -0.627,-0.212 a 0.377,0.377 0 0 1 0.134,-0.02 z m 0.45,1.024 c 0.362,0 1.633,0.23 2.265,0.42 l 0.127,0.042 a 5.407,5.407 0 0 1 -0.251,0.561 c -0.559,-0.28 -1.4,-0.66 -1.94,-0.853 -0.194,-0.069 -0.317,-0.135 -0.295,-0.157 0.01,-0.01 0.043,-0.014 0.095,-0.013 z"
     id="path2"
     inkscape:connector-curvature="0"
     style="fill:#bde6fb;fill-opacity:1" />
</svg>
