<?xml version="1.0" encoding="UTF-8" standalone="no"?>
<svg
   width="47.546455"
   height="47.546455"
   viewBox="0 0 12.58 12.58"
   version="1.1"
   id="svg4"
   sodipodi:docname="rocketchat.svg"
   inkscape:version="0.92.4 (5da689c313, 2019-01-14)"
   xmlns:inkscape="http://www.inkscape.org/namespaces/inkscape"
   xmlns:sodipodi="http://sodipodi.sourceforge.net/DTD/sodipodi-0.dtd"
   xmlns="http://www.w3.org/2000/svg"
   xmlns:svg="http://www.w3.org/2000/svg"
   xmlns:rdf="http://www.w3.org/1999/02/22-rdf-syntax-ns#"
   xmlns:cc="http://creativecommons.org/ns#"
   xmlns:dc="http://purl.org/dc/elements/1.1/">
  <metadata
     id="metadata10">
    <rdf:RDF>
      <cc:Work
         rdf:about="">
        <dc:format>image/svg+xml</dc:format>
        <dc:type
           rdf:resource="http://purl.org/dc/dcmitype/StillImage" />
        <dc:title />
      </cc:Work>
    </rdf:RDF>
  </metadata>
  <defs
     id="defs8" />
  <sodipodi:namedview
     pagecolor="#ffffff"
     bordercolor="#666666"
     borderopacity="1"
     objecttolerance="10"
     gridtolerance="10"
     guidetolerance="10"
     inkscape:pageopacity="0"
     inkscape:pageshadow="2"
     inkscape:window-width="861"
     inkscape:window-height="480"
     id="namedview6"
     showgrid="false"
     inkscape:zoom="4.9166667"
     inkscape:cx="2.1355932"
     inkscape:cy="24"
     inkscape:window-x="0"
     inkscape:window-y="25"
     inkscape:window-maximized="0"
     inkscape:current-layer="svg4"
     inkscape:showpageshadow="0"
     inkscape:pagecheckerboard="0"
     inkscape:deskcolor="#d1d1d1" />
  <path
     d="M 6.29,9.9999768e-4 A 6.29,6.29 0 0 0 0,6.291 6.29,6.29 0 0 0 6.29,12.58 6.29,6.29 0 0 0 12.58,6.29 6.29,6.29 0 0 0 6.29,0 Z M 6.272,0.938 A 5.407,5.407 0 0 1 11.679,6.345 5.407,5.407 0 0 1 6.272,11.752 5.407,5.407 0 0 1 0.866,6.345 5.407,5.407 0 0 1 6.272,0.939 Z M 2.991,2.589 c 0.32,0.448 0.551,1.312 0.676,2.305 A 3.969,2.646 0 0 0 2.991,6.368 3.969,2.646 0 0 0 3.704,7.876 C 3.6,8.856 3.371,9.706 2.991,10.148 A 3.766,3.766 0 0 0 5.794,8.898 3.969,2.646 0 0 0 6.96,9.014 3.969,2.646 0 0 0 10.928,6.368 3.969,2.646 0 0 0 6.96,3.723 3.969,2.646 0 0 0 5.796,3.841 3.766,3.766 0 0 0 2.991,2.589 Z m 3.969,1.7 c 0.993,0 1.884,0.275 2.492,0.68 0.607,0.405 0.91,0.899 0.91,1.4 0,0.5 -0.303,0.994 -0.91,1.399 C 8.844,8.173 7.953,8.448 6.96,8.448 A 5.26,5.26 0 0 1 5.908,8.342 0.567,0.567 0 0 0 5.374,8.518 C 5.004,8.927 4.528,9.224 3.996,9.402 A 8,8 0 0 0 4.267,7.936 0.567,0.567 0 0 0 4.096,7.466 C 3.722,7.109 3.56,6.733 3.558,6.367 3.558,5.867 3.861,5.374 4.468,4.969 5.075,4.564 5.966,4.289 6.96,4.289 Z M 5.448,5.8 A 0.567,0.567 0 0 0 4.881,6.367 0.567,0.567 0 0 0 5.448,6.934 0.567,0.567 0 0 0 6.015,6.367 0.567,0.567 0 0 0 5.448,5.8 Z m 1.512,0 A 0.567,0.567 0 0 0 6.393,6.367 0.567,0.567 0 0 0 6.96,6.934 0.567,0.567 0 0 0 7.527,6.367 0.567,0.567 0 0 0 6.96,5.8 Z m 1.512,0 A 0.567,0.567 0 0 0 7.905,6.367 0.567,0.567 0 0 0 8.472,6.934 0.567,0.567 0 0 0 9.038,6.367 0.567,0.567 0 0 0 8.472,5.8 Z"
     id="path2"
     inkscape:connector-curvature="0"
     style="fill:#bde6fb;fill-opacity:1" />
</svg>
