<?xml version="1.0" encoding="UTF-8" standalone="no"?>
<svg
   width="47.546455"
   height="47.546455"
   viewBox="0 0 12.58 12.58"
   version="1.1"
   id="svg4"
   sodipodi:docname="rocs.svg"
   inkscape:version="0.92.4 (5da689c313, 2019-01-14)"
   xmlns:inkscape="http://www.inkscape.org/namespaces/inkscape"
   xmlns:sodipodi="http://sodipodi.sourceforge.net/DTD/sodipodi-0.dtd"
   xmlns="http://www.w3.org/2000/svg"
   xmlns:svg="http://www.w3.org/2000/svg"
   xmlns:rdf="http://www.w3.org/1999/02/22-rdf-syntax-ns#"
   xmlns:cc="http://creativecommons.org/ns#"
   xmlns:dc="http://purl.org/dc/elements/1.1/">
  <metadata
     id="metadata10">
    <rdf:RDF>
      <cc:Work
         rdf:about="">
        <dc:format>image/svg+xml</dc:format>
        <dc:type
           rdf:resource="http://purl.org/dc/dcmitype/StillImage" />
        <dc:title />
      </cc:Work>
    </rdf:RDF>
  </metadata>
  <defs
     id="defs8" />
  <sodipodi:namedview
     pagecolor="#ffffff"
     bordercolor="#666666"
     borderopacity="1"
     objecttolerance="10"
     gridtolerance="10"
     guidetolerance="10"
     inkscape:pageopacity="0"
     inkscape:pageshadow="2"
     inkscape:window-width="1138"
     inkscape:window-height="480"
     id="namedview6"
     showgrid="false"
     inkscape:zoom="4.9166667"
     inkscape:cx="2.1355932"
     inkscape:cy="24"
     inkscape:window-x="0"
     inkscape:window-y="25"
     inkscape:window-maximized="0"
     inkscape:current-layer="svg4"
     inkscape:showpageshadow="0"
     inkscape:pagecheckerboard="0"
     inkscape:deskcolor="#d1d1d1" />
  <path
     d="M 6.29,9.9999768e-4 A 6.29,6.29 0 0 0 0,6.291 6.29,6.29 0 0 0 6.29,12.58 6.29,6.29 0 0 0 12.58,6.29 6.29,6.29 0 0 0 6.29,0 Z M 6.272,0.938 A 5.407,5.407 0 0 1 11.679,6.345 5.407,5.407 0 0 1 6.272,11.752 5.407,5.407 0 0 1 0.866,6.345 5.407,5.407 0 0 1 6.272,0.939 Z M 6.23,2.244 A 0.397,0.397 0 0 0 5.833,2.64 0.397,0.397 0 0 0 5.953,2.925 l -0.48,1.04 A 0.397,0.397 0 0 0 5.436,3.963 0.397,0.397 0 0 0 5.129,4.11 L 4.007,3.71 a 0.397,0.397 0 0 0 -0.116,-0.265 0.397,0.397 0 0 0 -0.56,0 0.397,0.397 0 0 0 0,0.561 0.397,0.397 0 0 0 0.264,0.116 l 0.4,1.121 A 0.397,0.397 0 0 0 3.849,5.551 H 3.584 L 3.287,5.587 2.261,5.71 V 6.98 L 3.286,7.103 A 3.043,3.043 0 0 0 3.612,7.89 L 2.975,8.703 3.872,9.6 4.685,8.963 a 3.043,3.043 0 0 0 0.787,0.325 l 0.123,1.026 h 1.27 L 6.988,9.289 A 3.043,3.043 0 0 0 7.775,8.963 L 8.587,9.6 9.485,8.703 8.847,7.89 8.662,7.655 8.459,7.451 A 0.397,0.397 0 0 0 8.611,7.138 0.397,0.397 0 0 0 8.609,7.102 l 1.04,-0.48 A 0.397,0.397 0 0 0 9.934,6.742 0.397,0.397 0 0 0 10.331,6.345 0.397,0.397 0 0 0 9.934,5.948 0.397,0.397 0 0 0 9.65,6.068 L 8.609,5.588 A 0.397,0.397 0 0 0 8.611,5.551 0.397,0.397 0 0 0 8.465,5.243 l 0.4,-1.121 a 0.397,0.397 0 0 0 0.264,-0.116 0.397,0.397 0 0 0 0,-0.56 0.397,0.397 0 0 0 -0.56,0 0.397,0.397 0 0 0 -0.117,0.264 l -1.12,0.4 A 0.397,0.397 0 0 0 7.024,3.964 0.397,0.397 0 0 0 6.987,3.966 L 6.507,2.926 A 0.397,0.397 0 0 0 6.627,2.641 0.397,0.397 0 0 0 6.23,2.244 Z m 0.037,0.792 0.48,1.04 A 0.397,0.397 0 0 0 6.65,4.228 H 5.81 A 0.397,0.397 0 0 0 5.713,4.076 l 0.48,-1.04 A 0.397,0.397 0 0 0 6.23,3.038 0.397,0.397 0 0 0 6.267,3.036 Z m -2.338,0.926 1.11,0.397 a 0.397,0.397 0 0 0 0,0.001 0.397,0.397 0 0 0 0.04,0.17 L 4.416,5.193 a 0.397,0.397 0 0 0 -0.17,-0.039 0.397,0.397 0 0 0 -0.002,0 L 3.848,4.044 A 0.397,0.397 0 0 0 3.891,4.006 0.397,0.397 0 0 0 3.929,3.962 Z m 4.602,0 A 0.397,0.397 0 0 0 8.568,4.006 0.397,0.397 0 0 0 8.612,4.044 L 8.215,5.154 A 0.397,0.397 0 0 0 8.044,5.194 L 7.381,4.531 a 0.397,0.397 0 0 0 0.04,-0.17 0.397,0.397 0 0 0 0,-10e-4 z M 5.81,4.492 h 0.84 a 0.397,0.397 0 0 0 0.374,0.265 0.397,0.397 0 0 0 0.17,-0.039 l 0.663,0.663 a 0.397,0.397 0 0 0 -0.04,0.17 0.397,0.397 0 0 0 0.265,0.375 v 0.84 A 0.397,0.397 0 0 0 7.817,7.139 0.397,0.397 0 0 0 7.911,7.394 1.984,1.984 0 0 1 6.23,8.33 1.984,1.984 0 0 1 4.245,6.345 1.984,1.984 0 0 1 4.287,5.945 0.397,0.397 0 0 0 4.642,5.551 0.397,0.397 0 0 0 4.603,5.381 L 5.265,4.718 A 0.397,0.397 0 0 0 5.436,4.758 0.397,0.397 0 0 0 5.81,4.493 Z m 2.688,1.335 1.041,0.48 A 0.397,0.397 0 0 0 9.537,6.345 0.397,0.397 0 0 0 9.539,6.381 l -1.04,0.48 A 0.397,0.397 0 0 0 8.347,6.765 v -0.84 a 0.397,0.397 0 0 0 0.15,-0.098 z"
     id="path2"
     inkscape:connector-curvature="0"
     style="fill:#bde6fb;fill-opacity:1" />
</svg>
