<?xml version="1.0" encoding="UTF-8" standalone="no"?>
<svg
   width="47.546455"
   height="47.546455"
   viewBox="0 0 12.58 12.58"
   version="1.1"
   id="svg4"
   sodipodi:docname="rosegarden.svg"
   inkscape:version="0.92.4 (5da689c313, 2019-01-14)"
   xmlns:inkscape="http://www.inkscape.org/namespaces/inkscape"
   xmlns:sodipodi="http://sodipodi.sourceforge.net/DTD/sodipodi-0.dtd"
   xmlns="http://www.w3.org/2000/svg"
   xmlns:svg="http://www.w3.org/2000/svg"
   xmlns:rdf="http://www.w3.org/1999/02/22-rdf-syntax-ns#"
   xmlns:cc="http://creativecommons.org/ns#"
   xmlns:dc="http://purl.org/dc/elements/1.1/">
  <metadata
     id="metadata10">
    <rdf:RDF>
      <cc:Work
         rdf:about="">
        <dc:format>image/svg+xml</dc:format>
        <dc:type
           rdf:resource="http://purl.org/dc/dcmitype/StillImage" />
        <dc:title />
      </cc:Work>
    </rdf:RDF>
  </metadata>
  <defs
     id="defs8" />
  <sodipodi:namedview
     pagecolor="#ffffff"
     bordercolor="#666666"
     borderopacity="1"
     objecttolerance="10"
     gridtolerance="10"
     guidetolerance="10"
     inkscape:pageopacity="0"
     inkscape:pageshadow="2"
     inkscape:window-width="1112"
     inkscape:window-height="480"
     id="namedview6"
     showgrid="false"
     inkscape:zoom="4.9166667"
     inkscape:cx="2.1355932"
     inkscape:cy="24"
     inkscape:window-x="0"
     inkscape:window-y="25"
     inkscape:window-maximized="0"
     inkscape:current-layer="svg4"
     inkscape:showpageshadow="0"
     inkscape:pagecheckerboard="0"
     inkscape:deskcolor="#d1d1d1" />
  <path
     d="m 6.29,0 a 6.29,6.29 0 0 0 0,12.58 A 6.29,6.29 0 0 0 6.29,0 Z M 6.27,0.93 a 5.417,5.417 0 0 1 5.41,5.41 5.4,5.4 0 0 1 -5.4,5.41 5.4,5.4 0 0 1 -5.41,-5.4 5.4,5.4 0 0 1 5.4,-5.42 z M 6.3,1.782 5.54,2.493 C 5.813,2.657 6.068,2.853 6.3,3.08 6.53,2.855 6.785,2.659 7.06,2.494 Z M 8.77,2.496 A 3.53,3.53 0 0 0 6.676,3.5 c 0.558,0.717 0.861,1.594 0.861,2.517 0,0.102 -0.013,0.201 -0.036,0.296 a 2.11,2.11 0 0 0 0.907,-1.73 c 0,-0.792 0.138,-1.416 0.362,-2.087 z m -4.94,0 V 2.497 C 4.049,3.154 4.192,3.774 4.192,4.583 A 2.11,2.11 0 0 0 6.322,6.692 0.676,0.676 0 0 0 6.975,6.017 3.548,3.548 0 0 0 3.83,2.497 Z M 6.019,7.05 v 3.448 a 0.281,0.281 0 1 0 0.562,0 V 7.184 A 1.261,1.261 0 0 1 6.268,7.216 0.281,0.281 0 0 1 6.018,7.049 Z M 2.932,7.125 A 2.59,2.59 0 0 0 5.504,9.43 h 0.5 A 2.59,2.59 0 0 0 3.432,7.125 Z M 9.168,7.603 A 2.59,2.59 0 0 0 6.596,9.908 h 0.5 A 2.59,2.59 0 0 0 9.668,7.603 Z"
     id="path2"
     inkscape:connector-curvature="0"
     style="fill:#bde6fb;fill-opacity:1" />
</svg>
