<?xml version="1.0" encoding="UTF-8" standalone="no"?>
<svg
   width="48"
   height="48"
   viewBox="0 0 12.7 12.7"
   version="1.1"
   id="svg4"
   sodipodi:docname="rubymine.svg"
   inkscape:version="0.92.5 (2060ec1f9f, 2020-04-08)"
   xmlns:inkscape="http://www.inkscape.org/namespaces/inkscape"
   xmlns:sodipodi="http://sodipodi.sourceforge.net/DTD/sodipodi-0.dtd"
   xmlns="http://www.w3.org/2000/svg"
   xmlns:svg="http://www.w3.org/2000/svg">
  <sodipodi:namedview
     id="namedview1"
     pagecolor="#505050"
     bordercolor="#eeeeee"
     borderopacity="1"
     inkscape:showpageshadow="0"
     inkscape:pageopacity="0"
     inkscape:pagecheckerboard="0"
     inkscape:deskcolor="#d1d1d1" />
  <defs
     id="defs8">
    <style
       id="current-color-scheme"
       type="text/css">&#10;      .ColorScheme-Highlight {&#10;        color:#1e3f5a;&#10;      }&#10;  </style>
  </defs>
  <path
     class="ColorScheme-Highlight"
     style="fill:#bde6fb;fill-opacity:1;stroke-width:0.264583"
     d="M 6.3499999,0 A 6.3499999,6.3499999 0 0 0 0,6.3499999 6.3499999,6.3499999 0 0 0 6.3499999,12.7 6.3499999,6.3499999 0 0 0 12.7,6.3499999 6.3499999,6.3499999 0 0 0 6.3499999,0 Z m 0,0.79374999 A 5.5562499,5.5562499 0 0 1 11.90625,6.3499999 5.5562499,5.5562499 0 0 1 6.3499999,11.90625 5.5562499,5.5562499 0 0 1 0.79374999,6.3499999 5.5562499,5.5562499 0 0 1 6.3499999,0.79374999 Z m 0,1.05833331 A 4.4979182,4.4979182 0 0 0 1.8520833,6.3499999 4.4979182,4.4979182 0 0 0 6.3499999,10.847917 4.4979182,4.4979182 0 0 0 10.847917,6.3499999 4.4979182,4.4979182 0 0 0 6.3499999,1.8520833 Z M 3.7041666,5.0301839 h 1.3384197 c 0.2407708,0 0.4310599,0.057506 0.5710245,0.1725991 0.1743604,0.1420815 0.2614827,0.4008107 0.2614827,0.640788 0,0.3439613 -0.1919883,0.6141019 -0.5818767,0.7307046 L 5.9582925,7.6832517 H 5.3671141 L 4.7397622,6.637321 H 4.2462524 V 7.6729166 H 3.7041666 Z m 2.6458333,0 H 7.0243773 L 7.6346761,6.0590617 8.248592,5.0301839 H 8.9157349 V 7.6729166 H 8.3994873 V 5.8616577 l -0.765845,1.2820922 -0.76016,-1.2857096 -0.00723,1.8148763 H 6.3499999 Z M 4.2462524,5.4870034 v 0.70435 h 0.6485392 c 0.1476375,0 0.2554721,-0.027649 0.3245279,-0.082682 0.068792,-0.055033 0.1033528,-0.1473401 0.1033531,-0.2769857 0,-0.090488 -0.023712,-0.1650214 -0.07028,-0.2237592 C 5.185983,5.5272291 5.0806077,5.4870034 4.935616,5.4870034 Z M 4.4979166,8.4666666 H 8.2020832 V 8.9958332 H 4.4979166 Z"
     id="path843" />
</svg>
