<?xml version="1.0" encoding="UTF-8" standalone="no"?>
<svg
   width="47.546455"
   height="47.546455"
   viewBox="0 0 12.58 12.58"
   version="1.1"
   id="svg4"
   sodipodi:docname="sage-notebook.svg"
   inkscape:version="0.92.4 (5da689c313, 2019-01-14)"
   xmlns:inkscape="http://www.inkscape.org/namespaces/inkscape"
   xmlns:sodipodi="http://sodipodi.sourceforge.net/DTD/sodipodi-0.dtd"
   xmlns="http://www.w3.org/2000/svg"
   xmlns:svg="http://www.w3.org/2000/svg"
   xmlns:rdf="http://www.w3.org/1999/02/22-rdf-syntax-ns#"
   xmlns:cc="http://creativecommons.org/ns#"
   xmlns:dc="http://purl.org/dc/elements/1.1/">
  <metadata
     id="metadata10">
    <rdf:RDF>
      <cc:Work
         rdf:about="">
        <dc:format>image/svg+xml</dc:format>
        <dc:type
           rdf:resource="http://purl.org/dc/dcmitype/StillImage" />
        <dc:title />
      </cc:Work>
    </rdf:RDF>
  </metadata>
  <defs
     id="defs8" />
  <sodipodi:namedview
     pagecolor="#ffffff"
     bordercolor="#666666"
     borderopacity="1"
     objecttolerance="10"
     gridtolerance="10"
     guidetolerance="10"
     inkscape:pageopacity="0"
     inkscape:pageshadow="2"
     inkscape:window-width="1138"
     inkscape:window-height="480"
     id="namedview6"
     showgrid="false"
     inkscape:zoom="4.9166667"
     inkscape:cx="2.1355932"
     inkscape:cy="24"
     inkscape:window-x="0"
     inkscape:window-y="25"
     inkscape:window-maximized="0"
     inkscape:current-layer="svg4"
     inkscape:showpageshadow="0"
     inkscape:pagecheckerboard="0"
     inkscape:deskcolor="#d1d1d1" />
  <path
     d="M 6.29,9.9999768e-4 A 6.29,6.29 0 0 0 0,6.291 6.29,6.29 0 0 0 6.29,12.58 6.29,6.29 0 0 0 12.58,6.29 6.29,6.29 0 0 0 6.29,0 Z M 6.272,0.938 A 5.407,5.407 0 0 1 11.679,6.345 5.407,5.407 0 0 1 6.272,11.752 5.407,5.407 0 0 1 0.866,6.345 5.407,5.407 0 0 1 6.272,0.939 Z M 5.086,2.575 a 0.279,0.279 0 0 0 -0.28,0.277 c 0,0.06 0.024,0.116 0.056,0.161 L 4.165,3.809 C 4.137,3.802 4.111,3.792 4.081,3.792 a 0.345,0.345 0 0 0 -0.345,0.34 c 0,0.007 0.01,0.01 0.01,0.017 L 3.132,4.552 A 0.28,0.28 0 0 0 2.973,4.499 0.278,0.278 0 0 0 2.694,4.776 c 0,0.093 0.05,0.173 0.121,0.223 L 2.703,7.075 A 0.22,0.22 0 0 0 2.815,7.486 H 2.834 L 4.36,9.035 v 0.009 c 0,0.12 0.093,0.223 0.214,0.223 A 0.236,0.236 0 0 0 4.695,9.232 L 5.533,9.67 c -0.002,0.012 -0.01,0.023 -0.01,0.036 0,0.153 0.125,0.277 0.28,0.277 a 0.273,0.273 0 0 0 0.27,-0.25 L 8.306,9.079 a 0.29,0.29 0 0 0 0.233,0.117 c 0.154,0 0.28,-0.124 0.28,-0.277 A 0.275,0.275 0 0 0 8.753,8.749 L 9.721,6.628 c 0.155,0 0.28,-0.124 0.28,-0.277 A 0.274,0.274 0 0 0 9.777,6.082 L 9.469,5.072 A 0.21,0.21 0 0 0 9.554,4.91 0.22,0.22 0 0 0 9.33,4.695 c -0.01,0 -0.018,0.008 -0.028,0.01 L 7.897,3.005 C 7.899,2.993 7.907,2.981 7.907,2.969 A 0.22,0.22 0 0 0 7.682,2.754 0.205,0.205 0 0 0 7.515,2.843 L 5.347,2.763 A 0.277,0.277 0 0 0 5.087,2.575 Z m 0.26,0.376 2.132,0.08 A 0.21,0.21 0 0 0 7.562,3.147 L 7.506,3.389 A 0.333,0.333 0 0 0 7.283,3.569 L 4.9,3.854 5.058,3.121 c 0.01,0 0.017,0.008 0.028,0.008 a 0.28,0.28 0 0 0 0.26,-0.178 z m 2.43,0.214 1.368,1.656 C 9.13,4.85 9.116,4.876 9.116,4.911 c 0,0.06 0.025,0.112 0.065,0.151 L 9.069,5.375 7.879,3.872 A 0.34,0.34 0 0 0 7.925,3.712 0.332,0.332 0 0 0 7.702,3.398 L 7.748,3.174 C 7.758,3.171 7.768,3.17 7.776,3.165 Z M 4.946,3.21 4.797,3.863 4.342,3.917 4.332,3.908 4.947,3.21 Z M 7.292,3.953 6.603,6.619 C 6.581,6.624 6.558,6.629 6.538,6.637 L 4.769,4.642 5.598,4.552 A 0.227,0.227 0 0 0 5.793,4.668 0.22,0.22 0 0 0 6.008,4.445 C 6.008,4.428 6.002,4.415 5.998,4.4 L 7.189,3.962 7.292,3.952 Z M 6.78,4.006 5.952,4.311 A 0.202,0.202 0 0 0 5.793,4.23 0.22,0.22 0 0 0 5.57,4.445 V 4.454 L 4.75,4.552 4.816,4.23 Z M 7.664,4.051 8.958,5.699 8.688,6.45 7.068,6.826 A 0.39,0.39 0 0 0 6.976,6.718 L 7.664,4.052 Z M 4.704,4.248 4.649,4.508 4.444,4.275 Z M 3.82,4.338 c 0.017,0.02 0.035,0.038 0.056,0.053 L 3.829,4.651 3.243,4.722 V 4.713 Z M 4.063,4.463 H 4.1 L 4.23,4.606 4.035,4.633 Z M 4.313,4.695 4.556,4.964 4.444,5.456 A 0.212,0.212 0 0 0 4.239,5.671 c 0,0.068 0.035,0.12 0.084,0.16 L 3.588,6.941 4.016,4.731 4.314,4.695 Z M 3.811,4.749 3.346,7.156 A 0.275,0.275 0 0 0 3.16,7.299 L 3.029,7.272 A 0.222,0.222 0 0 0 2.899,7.067 L 3.01,5.044 A 0.269,0.269 0 0 0 3.243,4.812 Z M 4.63,5.062 6.287,6.914 6.277,6.95 3.597,7.237 A 0.268,0.268 0 0 0 3.541,7.192 L 4.397,5.876 A 0.22,0.22 0 0 0 4.677,5.67 0.226,0.226 0 0 0 4.547,5.474 Z m 4.635,0.054 c 0.006,0.001 0.012,-0.002 0.018,0 L 9.535,5.975 9.144,5.465 9.264,5.115 Z M 9.023,5.787 9.413,6.279 8.8,6.422 Z M 9.442,6.557 8.556,8.479 8.575,7.28 A 0.205,0.205 0 0 0 8.743,7.083 C 8.743,7.003 8.689,6.938 8.621,6.904 L 8.687,6.734 9.441,6.556 Z M 8.585,6.762 8.539,6.878 A 0.206,0.206 0 0 0 8.483,7.281 L 8.455,8.65 A 0.287,0.287 0 0 0 8.297,8.784 L 7.077,8.516 A 0.22,0.22 0 0 0 6.855,8.301 0.22,0.22 0 0 0 6.631,8.507 L 6.333,8.579 6.705,7.451 A 0.43,0.43 0 0 0 7.115,7.102 Z M 6.324,7.227 A 0.445,0.445 0 0 0 6.426,7.353 L 5.998,8.659 5.105,8.882 3.662,7.532 C 3.664,7.526 3.67,7.519 3.672,7.514 Z M 3.094,7.46 3.132,7.47 c 0.002,0.01 -0.003,0.024 0,0.035 L 3.095,7.46 Z M 3.318,7.684 C 3.344,7.692 3.372,7.702 3.402,7.702 H 3.42 L 4.64,8.838 A 0.204,0.204 0 0 0 4.463,8.865 Z m 3.331,0.912 a 0.214,0.214 0 0 0 0.206,0.135 c 0.09,0 0.171,-0.047 0.204,-0.126 L 8.12,8.838 6.054,9.438 6.305,8.677 6.649,8.597 Z M 5.97,8.766 5.747,9.437 A 0.26,0.26 0 0 0 5.709,9.447 L 5.179,8.954 Z M 4.853,9.035 4.993,9.169 4.797,9.062 V 9.044 l 0.056,-0.01 z"
     id="path2"
     inkscape:connector-curvature="0"
     style="fill:#bde6fb;fill-opacity:1" />
</svg>
