<?xml version="1.0" encoding="UTF-8" standalone="no"?>
<svg
   width="47.546455"
   height="47.546455"
   viewBox="0 0 12.58 12.58"
   version="1.1"
   id="svg4"
   sodipodi:docname="scim-setup.svg"
   inkscape:version="0.92.4 (5da689c313, 2019-01-14)"
   xmlns:inkscape="http://www.inkscape.org/namespaces/inkscape"
   xmlns:sodipodi="http://sodipodi.sourceforge.net/DTD/sodipodi-0.dtd"
   xmlns="http://www.w3.org/2000/svg"
   xmlns:svg="http://www.w3.org/2000/svg"
   xmlns:rdf="http://www.w3.org/1999/02/22-rdf-syntax-ns#"
   xmlns:cc="http://creativecommons.org/ns#"
   xmlns:dc="http://purl.org/dc/elements/1.1/">
  <metadata
     id="metadata10">
    <rdf:RDF>
      <cc:Work
         rdf:about="">
        <dc:format>image/svg+xml</dc:format>
        <dc:type
           rdf:resource="http://purl.org/dc/dcmitype/StillImage" />
        <dc:title />
      </cc:Work>
    </rdf:RDF>
  </metadata>
  <defs
     id="defs8" />
  <sodipodi:namedview
     pagecolor="#ffffff"
     bordercolor="#666666"
     borderopacity="1"
     objecttolerance="10"
     gridtolerance="10"
     guidetolerance="10"
     inkscape:pageopacity="0"
     inkscape:pageshadow="2"
     inkscape:window-width="1087"
     inkscape:window-height="480"
     id="namedview6"
     showgrid="false"
     inkscape:zoom="4.9166667"
     inkscape:cx="2.1355932"
     inkscape:cy="24"
     inkscape:window-x="0"
     inkscape:window-y="25"
     inkscape:window-maximized="0"
     inkscape:current-layer="svg4"
     inkscape:showpageshadow="0"
     inkscape:pagecheckerboard="0"
     inkscape:deskcolor="#d1d1d1" />
  <path
     d="M 6.29,9.9999768e-4 A 6.29,6.29 0 0 0 0,6.291 6.29,6.29 0 0 0 6.29,12.58 6.29,6.29 0 0 0 12.58,6.29 6.29,6.29 0 0 0 6.29,0 Z M 6.272,0.938 A 5.407,5.407 0 0 1 11.679,6.345 5.407,5.407 0 0 1 6.272,11.752 5.407,5.407 0 0 1 0.866,6.345 5.407,5.407 0 0 1 6.272,0.939 Z M 4.957,2.575 V 3.617 H 3.161 v 0.637 h 1.795 v 1.19 C 4.149,5.716 3.382,6.252 3.029,7.049 2.757,7.697 2.718,8.527 3.176,9.101 3.669,9.66 4.521,9.638 5.169,9.404 6.372,8.937 7.257,7.884 7.785,6.736 7.96,6.5 7.952,5.836 8.335,6.203 8.939,6.542 9.145,7.329 8.945,7.963 8.691,8.753 7.873,9.18 7.103,9.313 l 0.19,0.67 A 3.743,3.743 0 0 0 8.59,9.507 C 9.314,9.081 9.808,8.269 9.76,7.419 A 2.059,2.059 0 0 0 8.756,5.649 C 7.839,5.092 6.706,5.109 5.678,5.253 v -1 H 9.43 V 3.617 H 5.68 V 2.575 Z M 6.527,5.84 H 6.528 C 6.814,5.83 7.1,5.843 7.381,5.88 7.041,6.832 6.495,7.74 5.68,8.357 V 5.945 C 5.959,5.886 6.242,5.851 6.527,5.84 Z M 4.957,6.178 V 8.772 C 4.703,8.864 4.424,8.924 4.155,8.864 3.73,8.79 3.555,8.327 3.575,7.942 3.565,7.117 4.245,6.48 4.957,6.178 Z"
     id="path2"
     inkscape:connector-curvature="0"
     style="fill:#bde6fb;fill-opacity:1" />
</svg>
