<?xml version="1.0" encoding="UTF-8" standalone="no"?>
<svg
   width="47.546455"
   height="47.542679"
   viewBox="0 0 12.58 12.579"
   version="1.1"
   id="svg6"
   sodipodi:docname="scratch.svg"
   inkscape:version="0.92.4 (5da689c313, 2019-01-14)"
   xmlns:inkscape="http://www.inkscape.org/namespaces/inkscape"
   xmlns:sodipodi="http://sodipodi.sourceforge.net/DTD/sodipodi-0.dtd"
   xmlns="http://www.w3.org/2000/svg"
   xmlns:svg="http://www.w3.org/2000/svg"
   xmlns:rdf="http://www.w3.org/1999/02/22-rdf-syntax-ns#"
   xmlns:cc="http://creativecommons.org/ns#"
   xmlns:dc="http://purl.org/dc/elements/1.1/">
  <metadata
     id="metadata12">
    <rdf:RDF>
      <cc:Work
         rdf:about="">
        <dc:format>image/svg+xml</dc:format>
        <dc:type
           rdf:resource="http://purl.org/dc/dcmitype/StillImage" />
        <dc:title />
      </cc:Work>
    </rdf:RDF>
  </metadata>
  <defs
     id="defs10" />
  <sodipodi:namedview
     pagecolor="#ffffff"
     bordercolor="#666666"
     borderopacity="1"
     objecttolerance="10"
     gridtolerance="10"
     guidetolerance="10"
     inkscape:pageopacity="0"
     inkscape:pageshadow="2"
     inkscape:window-width="1138"
     inkscape:window-height="480"
     id="namedview8"
     showgrid="false"
     inkscape:zoom="4.9166667"
     inkscape:cx="2.1355932"
     inkscape:cy="24"
     inkscape:window-x="0"
     inkscape:window-y="25"
     inkscape:window-maximized="0"
     inkscape:current-layer="svg6"
     inkscape:showpageshadow="0"
     inkscape:pagecheckerboard="0"
     inkscape:deskcolor="#d1d1d1" />
  <path
     d="M 6.29,9.9999565e-4 A 6.29,6.29 0 0 0 0,6.291 6.29,6.29 0 0 0 6.29,12.579 6.29,6.29 0 0 0 12.58,6.29 6.29,6.29 0 0 0 6.29,0 Z M 6.272,0.937 A 5.407,5.407 0 0 1 11.679,6.344 5.407,5.407 0 0 1 6.272,11.751 5.407,5.407 0 0 1 0.866,6.344 5.407,5.407 0 0 1 6.272,0.938 Z"
     id="path2"
     inkscape:connector-curvature="0"
     style="fill:#bde6fb;fill-opacity:1" />
  <path
     d="M 7.516,2.215 A 0.792,0.792 0 0 0 6.853,2.573 C 6.803,2.643 6.795,2.684 6.77,2.743 A 1.521,1.521 0 0 0 5.97,2.483 1.634,1.634 0 0 0 4.62,3.141 C 4.31,3.549 4.143,4.077 4.06,4.703 V 4.709 A 0.296,0.296 0 0 0 4.057,4.731 V 4.737 C 3.961,5.828 3.98,6.257 4.022,6.53 4.008,6.553 4.01,6.546 3.987,6.586 3.682,7.109 3.681,7.73 3.673,8.258 c -0.004,0.27 0.004,0.519 0.012,0.71 0.008,0.234 -0.017,0.573 0.234,0.863 0.088,0.1 0.188,0.181 0.292,0.25 0.203,0.134 0.479,0.262 0.812,0.26 A 0.77,0.77 0 0 0 5.752,9.837 C 5.784,9.754 5.798,9.679 5.808,9.608 6.033,9.661 6.285,9.701 6.599,9.697 a 2.509,2.509 0 0 0 1.52,-0.56 C 8.567,8.777 8.92,8.22 8.92,7.545 V 7.538 7.522 C 8.905,7.106 8.886,6.824 8.841,6.589 8.796,6.344 8.706,6.111 8.525,5.933 A 1.232,1.232 0 0 0 8.293,5.757 C 8.295,5.75 8.298,5.747 8.3,5.739 8.373,5.479 8.411,5.197 8.44,4.914 8.47,4.63 8.49,4.346 8.506,4.116 A 9.048,9.048 0 0 1 8.545,3.722 c 0.002,-0.023 0.015,-0.07 0,-0.01 0.09,-0.36 0.01,-0.71 -0.156,-0.977 A 1.084,1.084 0 0 0 7.602,2.23 0.314,0.314 0 0 0 7.516,2.215 Z m -0.2,0.996 C 7.451,3.208 7.584,3.229 7.666,3.335 7.749,3.44 7.748,3.584 7.702,3.765 7.687,3.825 7.672,3.995 7.662,4.195 7.65,4.395 7.639,4.633 7.619,4.863 7.599,5.094 7.572,5.316 7.521,5.492 A 0.767,0.767 0 0 1 7.422,5.722 0.276,0.276 0 0 1 7.221,5.849 0.321,0.321 0 0 1 6.939,5.736 0.482,0.482 0 0 1 6.858,5.477 C 6.842,5.296 6.858,5.093 6.818,4.955 6.768,4.779 6.713,4.535 6.618,4.342 A 0.706,0.706 0 0 0 6.451,4.112 0.325,0.325 0 0 0 6.225,4.029 C 6.002,4.031 5.9,4.079 5.829,4.155 5.758,4.23 5.712,4.355 5.659,4.523 A 3.47,3.47 0 0 0 5.534,5.01 C 5.51,5.167 5.511,5.321 5.557,5.476 5.605,5.638 5.65,5.714 5.765,5.783 c 0.114,0.069 0.315,0.124 0.65,0.181 0.174,0.03 0.36,0.074 0.54,0.14 0.18,0.066 0.355,0.154 0.51,0.267 0.156,0.114 0.29,0.257 0.387,0.431 0.096,0.174 0.154,0.378 0.154,0.612 0,0.233 -0.048,0.435 -0.13,0.608 A 1.184,1.184 0 0 1 7.53,8.448 C 7.387,8.558 7.222,8.638 7.045,8.691 A 2.311,2.311 0 0 1 5.722,8.657 2.201,2.201 0 0 1 5.242,8.428 2.19,2.19 0 0 0 5.212,8.91 C 5.215,9.026 5.217,9.135 5.192,9.234 A 0.298,0.298 0 0 1 5.116,9.374 0.241,0.241 0 0 1 4.953,9.44 0.4,0.4 0 0 1 4.587,9.242 0.607,0.607 0 0 1 4.529,8.951 L 4.516,7.978 A 93.81,93.81 0 0 1 4.509,7.138 C 4.509,7.083 4.507,7.063 4.513,7.023 4.528,6.918 4.592,6.859 4.673,6.796 A 0.516,0.516 0 0 1 4.986,6.681 c 0.086,0 0.158,0.051 0.203,0.109 A 0.645,0.645 0 0 1 5.285,6.986 C 5.332,7.128 5.355,7.29 5.37,7.403 5.38,7.471 5.466,7.658 5.628,7.807 a 1.027,1.027 0 0 0 0.703,0.272 c 0.33,0 0.603,-0.045 0.773,-0.14 A 0.442,0.442 0 0 0 7.289,7.764 0.505,0.505 0 0 0 7.333,7.481 0.78,0.78 0 0 0 7.232,7.151 0.949,0.949 0 0 0 6.987,6.876 C 6.779,6.713 6.477,6.596 6.109,6.551 A 2.057,2.057 0 0 1 5.562,6.416 1.115,1.115 0 0 1 5.147,6.126 1.068,1.068 0 0 1 4.914,5.651 1.976,1.976 0 0 1 4.893,4.984 V 4.983 a 3.52,3.52 0 0 1 0.16,-0.71 C 5.123,4.071 5.213,3.903 5.322,3.768 A 1.025,1.025 0 0 1 6.188,3.381 c 0.18,0.006 0.319,0.068 0.427,0.153 0.108,0.084 0.186,0.189 0.243,0.28 0.058,0.09 0.104,0.17 0.133,0.201 0.011,0.011 0.018,0.014 0.02,0.015 A 0.104,0.104 0 0 0 7.025,4.023 C 7.06,4.003 7.079,3.969 7.093,3.905 7.106,3.841 7.105,3.754 7.103,3.665 7.1,3.578 7.094,3.49 7.11,3.405 A 0.258,0.258 0 0 1 7.168,3.278 0.213,0.213 0 0 1 7.317,3.211 Z"
     id="path4"
     inkscape:connector-curvature="0"
     style="clip-rule:evenodd;opacity:0.75;fill:#bdcbfb;fill-opacity:1" />
</svg>
