<?xml version="1.0" encoding="UTF-8" standalone="no"?>
<svg
   width="47.542679"
   height="47.546455"
   viewBox="0 0 12.579 12.58"
   version="1.1"
   id="svg6"
   sodipodi:docname="scummvm.svg"
   inkscape:version="0.92.5 (2060ec1f9f, 2020-04-08)"
   xmlns:inkscape="http://www.inkscape.org/namespaces/inkscape"
   xmlns:sodipodi="http://sodipodi.sourceforge.net/DTD/sodipodi-0.dtd"
   xmlns="http://www.w3.org/2000/svg"
   xmlns:svg="http://www.w3.org/2000/svg"
   xmlns:rdf="http://www.w3.org/1999/02/22-rdf-syntax-ns#"
   xmlns:cc="http://creativecommons.org/ns#"
   xmlns:dc="http://purl.org/dc/elements/1.1/">
  <metadata
     id="metadata12">
    <rdf:RDF>
      <cc:Work
         rdf:about="">
        <dc:format>image/svg+xml</dc:format>
        <dc:type
           rdf:resource="http://purl.org/dc/dcmitype/StillImage" />
        <dc:title />
      </cc:Work>
    </rdf:RDF>
  </metadata>
  <defs
     id="defs10" />
  <sodipodi:namedview
     pagecolor="#ffffff"
     bordercolor="#666666"
     borderopacity="1"
     objecttolerance="10"
     gridtolerance="10"
     guidetolerance="10"
     inkscape:pageopacity="0"
     inkscape:pageshadow="2"
     inkscape:window-width="1085"
     inkscape:window-height="480"
     id="namedview8"
     showgrid="false"
     inkscape:zoom="4.9166667"
     inkscape:cx="2.1355932"
     inkscape:cy="24"
     inkscape:window-x="0"
     inkscape:window-y="25"
     inkscape:window-maximized="0"
     inkscape:current-layer="svg6"
     inkscape:showpageshadow="0"
     inkscape:pagecheckerboard="0"
     inkscape:deskcolor="#d1d1d1" />
  <path
     d="M 6.285,0 A 6.295,6.295 0 0 0 0,6.285 6.295,6.295 0 0 0 6.285,12.58 6.295,6.295 0 0 0 12.579,6.285 6.295,6.295 0 0 0 6.285,0 Z m -0.01,0.94 a 5.408,5.408 0 0 1 5.396,5.387 5.407,5.407 0 1 1 -10.814,0 C 0.857,3.34 3.287,0.94 6.274,0.94 Z m -0.115,1 C 4.517,2.014 3.232,3.207 3.232,4.567 c 0,0.428 0.13,0.83 0.355,1.188 L 3.923,6.292 A 0.624,0.624 0 0 1 3.839,7.06 L 3.081,7.84 a 0.622,0.622 0 0 0 -0.13,0.684 c 0.48,1.095 1.776,1.88 3.3,1.88 1.934,0 3.503,-1.263 3.503,-2.821 C 9.754,7.016 9.544,6.489 9.186,6.047 9.191,6.042 9.086,5.93 9.086,5.93 A 0.624,0.624 0 0 1 8.973,5.124 L 9.517,4.273 C 9.627,4.102 9.683,3.873 9.572,3.703 9.022,2.867 7.962,2.011 6.492,1.941 a 3.607,3.607 0 0 0 -0.332,0 z m 0.103,0.562 c 1.16,0.02 2.168,0.862 2.498,1.175 A 0.206,0.206 0 0 1 8.793,3.939 L 8.386,4.577 A 0.222,0.222 0 0 1 8.065,4.632 C 6.707,3.581 6.325,4.055 6.325,4.055 5.815,4.611 6.491,4.888 6.491,4.888 7.442,5.34 8.096,5.815 8.096,5.815 9.604,6.77 8.881,8.232 8.881,8.232 7.976,10.144 5.683,9.652 5.683,9.652 A 3.336,3.336 0 0 1 3.725,8.47 0.207,0.207 0 0 1 3.735,8.199 L 4.357,7.519 C 4.435,7.435 4.563,7.432 4.659,7.496 5.481,8.044 5.856,8.239 6.387,8.252 7.137,8.152 6.974,7.516 6.552,7.341 5.708,6.991 4.705,6.171 4.705,6.171 3.1,4.886 4.391,3.339 4.391,3.339 5.006,2.705 5.655,2.49 6.262,2.501 Z"
     id="path2"
     inkscape:connector-curvature="0"
     style="fill:#bde6fb;fill-opacity:1" />
  <path
     d="M 8.386,4.577 8.793,3.939 A 0.207,0.207 0 0 0 8.761,3.677 C 8.259,3.2 6.181,1.494 4.392,3.341 c 0,0 -1.291,1.545 0.314,2.831 0,0 1.003,0.82 1.847,1.17 C 6.975,7.516 7.139,8.153 6.388,8.252 5.858,8.24 5.482,8.045 4.66,7.497 4.563,7.433 4.436,7.435 4.358,7.52 L 3.736,8.2 a 0.207,0.207 0 0 0 -0.01,0.27 c 0.24,0.3 0.889,0.983 1.958,1.182 0,0 2.293,0.493 3.198,-1.42 0,0 0.723,-1.46 -0.784,-2.416 0,0 -0.655,-0.475 -1.606,-0.927 0,0 -0.676,-0.277 -0.166,-0.833 0,0 0.38,-0.476 1.739,0.575 A 0.222,0.222 0 0 0 8.386,4.577 Z"
     id="path4"
     inkscape:connector-curvature="0"
     style="opacity:0.8;fill:#bdffff;fill-opacity:1" />
</svg>
