<?xml version="1.0" encoding="UTF-8" standalone="no"?>
<svg
   width="47.546486"
   height="47.546455"
   viewBox="0 0 12.580008 12.58"
   version="1.1"
   id="svg6"
   sodipodi:docname="seamonkey.svg"
   inkscape:version="0.92.4 (5da689c313, 2019-01-14)"
   xmlns:inkscape="http://www.inkscape.org/namespaces/inkscape"
   xmlns:sodipodi="http://sodipodi.sourceforge.net/DTD/sodipodi-0.dtd"
   xmlns="http://www.w3.org/2000/svg"
   xmlns:svg="http://www.w3.org/2000/svg"
   xmlns:rdf="http://www.w3.org/1999/02/22-rdf-syntax-ns#"
   xmlns:cc="http://creativecommons.org/ns#"
   xmlns:dc="http://purl.org/dc/elements/1.1/">
  <metadata
     id="metadata12">
    <rdf:RDF>
      <cc:Work
         rdf:about="">
        <dc:format>image/svg+xml</dc:format>
        <dc:type
           rdf:resource="http://purl.org/dc/dcmitype/StillImage" />
        <dc:title />
      </cc:Work>
    </rdf:RDF>
  </metadata>
  <defs
     id="defs10" />
  <sodipodi:namedview
     pagecolor="#ffffff"
     bordercolor="#666666"
     borderopacity="1"
     objecttolerance="10"
     gridtolerance="10"
     guidetolerance="10"
     inkscape:pageopacity="0"
     inkscape:pageshadow="2"
     inkscape:window-width="861"
     inkscape:window-height="480"
     id="namedview8"
     showgrid="false"
     inkscape:zoom="4.9166667"
     inkscape:cx="2.1355932"
     inkscape:cy="24"
     inkscape:window-x="0"
     inkscape:window-y="25"
     inkscape:window-maximized="0"
     inkscape:current-layer="svg6"
     inkscape:showpageshadow="0"
     inkscape:pagecheckerboard="0"
     inkscape:deskcolor="#d1d1d1" />
  <path
     d="m 2.2120079,4.815 c -0.532,0.003 -1.098,0.127 -1.71199995,0.422 l -0.001,0.001 a 5.822,5.822 0 0 0 0.01,1.042 c 0.367,-0.167 0.83199995,-0.332 1.14799995,-0.315 0.77,0.043 2.802,1.296 4.119,1.703 1.317,0.406 2.943,-0.9 4.5820001,-1.293 0.957,-0.229 1.448,-0.002 1.694,0.178 l 0.01,-0.074 a 5.82,5.82 0 0 0 0.059,-0.785 c -0.002,-0.137 -0.009,-0.129 -0.02,-0.266 a 2.257,2.257 0 0 0 -0.916,0.106 c -0.589,0.196 -2.4940001,0.692 -3.9240001,0.653 -1.834,-0.12 -3.267,-1.378 -5.05,-1.366 z"
     id="path2"
     inkscape:connector-curvature="0"
     style="opacity:0.3;fill:#bde6fb;fill-opacity:1" />
  <path
     d="M 6.2900079,0 A 6.29,6.29 0 0 0 7.9490244e-6,6.3 6.29,6.29 0 0 0 1.0920079,9.83 a 6.29,6.29 0 0 0 0.308,0.407 c 0.24,-0.11 0.481,-0.22 0.722,-0.436 A 5.4,5.4 0 0 1 1.6250079,9.092 5.4,5.4 0 0 1 0.87000795,6.35 5.4,5.4 0 0 1 6.2700079,0.93 l 0.01,0.01 a 5.4,5.4 0 0 1 5.4000001,5.4 5.4,5.4 0 0 1 -5.4000001,5.41 5.4,5.4 0 0 1 -1.465,-0.206 5.4,5.4 0 0 1 -1.863,-0.945 c -0.25,0.176 -0.505,0.34 -0.785,0.427 a 6.29,6.29 0 0 0 2.261,1.267 6.29,6.29 0 0 0 1.872,0.287 A 6.29,6.29 0 0 0 12.580008,6.29 6.29,6.29 0 0 0 6.2900079,0 Z m 1.907,2.447 c -0.48,0.022 -0.933,0.21 -1.216,0.6 -0.387,0.54 -0.59,1.173 -0.759,1.79 a 8.363,8.363 0 0 1 -1.123,2.431 c -1.029,1.542 -2.414,2.884 -4.15199995,3.562 -0.04,0.02 -0.066,0.056 -0.1,0.084 -0.066,0.062 -0.014,0.173 0.076,0.163 1.21799995,-0.144 2.16799995,-1.008 3.06699995,-1.728 0.723,-0.07 1.435,-0.212 2.134,-0.398 0.982,-0.277 2.123,-0.66 2.793,-1.487 0.668,-0.819 0.776,-1.826 0.532,-2.813 -0.083,-0.395 -0.522,-0.8 -0.953,-0.885 -0.011,-0.04 0.004,-0.219 -0.008,-0.26 0.094,-0.102 0.289,-0.18 0.381,-0.314 0.103,-0.15 0.19,-0.255 0.137,-0.46 a 0.095,0.095 0 0 0 -0.014,-0.03 c -0.114,-0.163 -0.4,-0.254 -0.587,-0.254 a 2.165,2.165 0 0 0 -0.208,0 z"
     id="path4"
     inkscape:connector-curvature="0"
     style="fill:#bde6fb;fill-opacity:1" />
</svg>
