<?xml version="1.0" encoding="UTF-8" standalone="no"?>
<svg
   width="47.542397"
   height="47.542404"
   version="1.1"
   viewBox="0 0 12.578926 12.578928"
   id="svg4"
   sodipodi:docname="selinux.svg"
   inkscape:version="0.92.4 (5da689c313, 2019-01-14)"
   xmlns:inkscape="http://www.inkscape.org/namespaces/inkscape"
   xmlns:sodipodi="http://sodipodi.sourceforge.net/DTD/sodipodi-0.dtd"
   xmlns="http://www.w3.org/2000/svg"
   xmlns:svg="http://www.w3.org/2000/svg"
   xmlns:rdf="http://www.w3.org/1999/02/22-rdf-syntax-ns#"
   xmlns:cc="http://creativecommons.org/ns#"
   xmlns:dc="http://purl.org/dc/elements/1.1/">
  <metadata
     id="metadata10">
    <rdf:RDF>
      <cc:Work
         rdf:about="">
        <dc:format>image/svg+xml</dc:format>
        <dc:type
           rdf:resource="http://purl.org/dc/dcmitype/StillImage" />
        <dc:title />
      </cc:Work>
    </rdf:RDF>
  </metadata>
  <defs
     id="defs8" />
  <sodipodi:namedview
     pagecolor="#ffffff"
     bordercolor="#666666"
     borderopacity="1"
     objecttolerance="10"
     gridtolerance="10"
     guidetolerance="10"
     inkscape:pageopacity="0"
     inkscape:pageshadow="2"
     inkscape:window-width="1136"
     inkscape:window-height="480"
     id="namedview6"
     showgrid="false"
     inkscape:zoom="4.9166667"
     inkscape:cx="2.1355932"
     inkscape:cy="24"
     inkscape:window-x="0"
     inkscape:window-y="25"
     inkscape:window-maximized="0"
     inkscape:current-layer="svg4"
     inkscape:showpageshadow="0"
     inkscape:pagecheckerboard="0"
     inkscape:deskcolor="#d1d1d1" />
  <path
     d="M 6.2843042,0 C 2.815925,0.0057469 0.00582076,2.815925 0,6.2843042 c -4.6082631e-6,3.4723479 2.8119563,6.2888018 6.2843042,6.2946228 3.4765812,0 6.2946228,-2.8180416 6.2946228,-6.2946228 C 12.573169,2.8119563 9.7566521,0 6.2843042,0 Z m -0.010335,0.93947067 c 2.9741438,0.00572 5.3855261,2.41251983 5.3969031,5.38658423 0,2.9865791 -2.4208808,5.4074861 -5.4074863,5.4074861 -2.986579,0 -5.40722149,-2.4208806 -5.40722149,-5.4074861 0,-2.986579 2.43122569,-5.38658423 5.41780469,-5.38658423 z M 4.4425726,3.4963983 V 4.113928 h 0.92603 V 4.7309286 H 3.8250429 V 6.2744883 H 3.2080423 v -0.92603 H 2.5905126 V 7.818048 h 0.6175297 v -0.92603 h 0.6170006 v 0.92603 l 1.2350594,1.2345303 h 2.77809 l 0.6170006,-0.6175297 0.6175297,0.00517 V 8.7440597 H 9.6902523 L 9.9987528,8.4355595 V 5.9659697 L 9.6902523,5.6574695 H 9.0727226 V 5.9659697 H 8.8412151 L 7.6066848,4.7314395 H 5.9861323 V 4.1139097 h 0.92603 V 3.49638 H 4.4425726 Z m 0,1.85206 h 2.77809 l 1.2345303,1.2345303 h 0.92603 V 7.818048 H 8.1466926 L 7.5291629,8.4350486 H 5.4455954 L 4.4425726,7.4320258 Z"
     id="path2"
     inkscape:connector-curvature="0"
     style="fill:#bde6fb;fill-opacity:1;stroke-width:1.04387" />
</svg>
