<?xml version="1.0" encoding="UTF-8" standalone="no"?>
<svg
   width="48"
   height="48"
   viewBox="0 0 12.7 12.7"
   version="1.1"
   id="svg4"
   sodipodi:docname="shares.svg"
   inkscape:version="0.92.5 (2060ec1f9f, 2020-04-08)"
   xmlns:inkscape="http://www.inkscape.org/namespaces/inkscape"
   xmlns:sodipodi="http://sodipodi.sourceforge.net/DTD/sodipodi-0.dtd"
   xmlns="http://www.w3.org/2000/svg"
   xmlns:svg="http://www.w3.org/2000/svg">
  <sodipodi:namedview
     id="namedview1"
     pagecolor="#505050"
     bordercolor="#eeeeee"
     borderopacity="1"
     inkscape:showpageshadow="0"
     inkscape:pageopacity="0"
     inkscape:pagecheckerboard="0"
     inkscape:deskcolor="#d1d1d1" />
  <defs
     id="defs8">
    <style
       id="current-color-scheme"
       type="text/css">&#10;      .ColorScheme-Highlight {&#10;        color:#1e3f5a;&#10;      }&#10;  </style>
  </defs>
  <path
     class="ColorScheme-Highlight"
     style="fill:#bde6fb;fill-opacity:1;stroke-width:0.264583"
     d="M 6.3499999,0 A 6.3499999,6.3499999 0 0 0 0,6.3499999 6.3499999,6.3499999 0 0 0 6.3499999,12.7 6.3499999,6.3499999 0 0 0 12.7,6.3499999 6.3499999,6.3499999 0 0 0 6.3499999,0 Z m 0,0.79374999 A 5.5562499,5.5562499 0 0 1 11.90625,6.3499999 5.5562499,5.5562499 0 0 1 6.3499999,11.90625 5.5562499,5.5562499 0 0 1 0.79374999,6.3499999 5.5562499,5.5562499 0 0 1 6.3499999,0.79374999 Z m 1.984375,1.85208331 a 1.1906249,1.1906249 0 0 0 -1.190625,1.190625 1.1906249,1.1906249 0 0 0 0.010853,0.1488281 L 7.1437499,3.96875 4.1547851,5.4632325 A 1.3229166,1.3229166 0 0 0 3.175,5.0270833 1.3229166,1.3229166 0 0 0 1.8520833,6.3499999 1.3229166,1.3229166 0 0 0 3.175,7.6729166 1.3229166,1.3229166 0 0 0 3.9713339,7.4047159 l -0.00258,0.00362 3.1749999,1.5875 A 1.3229166,1.3229166 0 0 0 8.4666666,10.31875 1.3229166,1.3229166 0 0 0 9.7895832,8.9958332 1.3229166,1.3229166 0 0 0 8.4666666,7.6729166 1.3229166,1.3229166 0 0 0 7.4868814,8.1090658 L 4.4979166,6.6145833 4.4545085,6.6791789 a 1.3229166,1.3229166 0 0 0 0.043408,-0.329179 L 7.6212403,4.7883381 a 1.1906249,1.1906249 0 0 0 0.7131346,0.2387452 1.1906249,1.1906249 0 0 0 1.190625,-1.190625 1.1906249,1.1906249 0 0 0 -1.190625,-1.190625 z"
     id="path817" />
</svg>
