<?xml version="1.0" encoding="UTF-8" standalone="no"?>
<svg
   width="47.542679"
   height="47.546455"
   viewBox="0 0 12.579 12.58"
   version="1.1"
   id="svg4"
   sodipodi:docname="shellter.svg"
   inkscape:version="0.92.5 (2060ec1f9f, 2020-04-08)"
   xmlns:inkscape="http://www.inkscape.org/namespaces/inkscape"
   xmlns:sodipodi="http://sodipodi.sourceforge.net/DTD/sodipodi-0.dtd"
   xmlns="http://www.w3.org/2000/svg"
   xmlns:svg="http://www.w3.org/2000/svg"
   xmlns:rdf="http://www.w3.org/1999/02/22-rdf-syntax-ns#"
   xmlns:cc="http://creativecommons.org/ns#"
   xmlns:dc="http://purl.org/dc/elements/1.1/">
  <metadata
     id="metadata10">
    <rdf:RDF>
      <cc:Work
         rdf:about="">
        <dc:format>image/svg+xml</dc:format>
        <dc:type
           rdf:resource="http://purl.org/dc/dcmitype/StillImage" />
        <dc:title />
      </cc:Work>
    </rdf:RDF>
  </metadata>
  <defs
     id="defs8" />
  <sodipodi:namedview
     pagecolor="#ffffff"
     bordercolor="#666666"
     borderopacity="1"
     objecttolerance="10"
     gridtolerance="10"
     guidetolerance="10"
     inkscape:pageopacity="0"
     inkscape:pageshadow="2"
     inkscape:window-width="1085"
     inkscape:window-height="480"
     id="namedview6"
     showgrid="false"
     inkscape:zoom="4.9166667"
     inkscape:cx="2.1355932"
     inkscape:cy="24"
     inkscape:window-x="0"
     inkscape:window-y="25"
     inkscape:window-maximized="0"
     inkscape:current-layer="svg4"
     inkscape:showpageshadow="0"
     inkscape:pagecheckerboard="0"
     inkscape:deskcolor="#d1d1d1" />
  <path
     d="M 6.285,0 A 6.295,6.295 0 0 0 0,6.285 6.295,6.295 0 0 0 6.285,12.58 6.295,6.295 0 0 0 12.579,6.285 6.295,6.295 0 0 0 6.285,0 Z M 6.274,0.94 a 5.408,5.408 0 0 1 0.984,0.096 c -0.004,0.251 0,0.578 0.013,0.677 0.04,0.314 0.117,0.477 0.34,0.73 0.136,0.15 0.17,0.2 0.25,0.348 0.114,0.21 0.173,0.422 0.2,0.712 0.015,0.156 0.007,0.362 -0.014,0.375 A 3.793,3.793 0 0 1 7.709,3.833 98.824,98.824 0 0 1 7.164,3.748 L 6.945,3.715 6.828,3.764 a 0.47,0.47 0 0 0 -0.13,0.07 C 6.692,3.844 6.683,3.984 6.678,4.141 L 6.669,4.429 6.706,4.436 6.934,4.476 C 7.038,4.495 7.126,4.511 7.13,4.514 7.154,4.539 6.956,4.797 6.786,4.965 6.649,5.1 6.48,5.18 6.33,5.182 6.272,5.182 6.272,5.182 6.097,5.001 5.907,4.806 5.849,4.721 5.839,4.625 5.831,4.563 5.872,4.273 5.949,3.847 5.994,3.594 5.995,3.571 5.959,3.559 5.925,3.548 5.909,3.565 5.855,3.668 5.817,3.74 5.776,3.784 5.533,4.004 5.379,4.142 5.186,4.318 5.103,4.394 A 1.218,1.218 0 0 1 4.936,4.532 c -0.03,0 -0.06,-0.061 -0.06,-0.118 0,-0.041 0.016,-0.087 0.073,-0.193 C 4.99,4.144 5.039,4.059 5.057,4.031 L 5.163,3.846 C 5.205,3.772 5.278,3.656 5.325,3.586 5.409,3.461 5.44,3.41 5.44,3.395 5.44,3.381 5.373,3.361 5.349,3.369 5.321,3.378 5.139,3.599 4.974,3.821 4.815,4.036 4.752,4.136 4.707,4.236 4.671,4.322 4.66,4.33 4.639,4.292 4.596,4.213 4.624,4.061 4.779,3.517 4.851,3.261 4.856,3.227 4.811,3.215 4.794,3.211 4.774,3.211 4.766,3.215 A 0.988,0.988 0 0 0 4.7,3.392 C 4.671,3.485 4.608,3.677 4.56,3.821 A 14.83,14.83 0 0 0 4.461,4.132 0.352,0.352 0 0 1 4.431,4.208 C 4.413,4.231 4.411,4.231 4.357,4.199 A 0.462,0.462 0 0 1 4.27,4.133 C 4.242,4.103 4.241,4.097 4.25,3.996 4.258,3.898 4.321,3.52 4.366,3.299 A 0.778,0.778 0 0 1 4.413,3.147 C 4.438,3.092 4.59,2.92 4.879,2.619 5.369,2.106 5.546,1.906 5.581,1.829 5.591,1.811 5.582,1.683 5.554,1.429 5.514,1.045 5.514,1.073 5.504,0.995 5.754,0.96 6.011,0.94 6.273,0.94 Z M 5.291,1.03 5.321,1.183 C 5.381,1.491 5.384,1.53 5.363,1.656 A 1.54,1.54 0 0 1 5.145,2.104 C 5.025,2.27 4.782,2.495 4.449,2.745 4.199,2.934 4.144,3.008 4.089,3.229 4.058,3.359 4.087,3.351 3.761,3.307 3.306,3.244 3.267,3.24 3.24,3.268 A 8.385,8.385 0 0 0 3.013,3.547 c -0.128,0.158 -0.2,0.259 -0.192,0.266 0.006,0.006 0.11,0.028 0.23,0.048 0.47,0.078 0.97,0.165 0.979,0.17 0.005,0.004 0.013,0.025 0.017,0.05 a 0.684,0.684 0 0 0 0.047,0.12 c 0.045,0.093 0.109,0.141 0.24,0.186 0.12,0.04 0.445,0.253 0.445,0.29 0,0.01 -0.139,0.143 -0.308,0.297 -0.544,0.495 -0.678,0.622 -0.678,0.64 0,0.014 0.092,0.038 0.376,0.098 0.206,0.043 0.388,0.08 0.403,0.08 0.028,0 0.36,-0.285 0.885,-0.76 0.154,-0.14 0.19,-0.167 0.21,-0.157 0.011,0.008 0.064,0.05 0.116,0.095 0.164,0.143 0.411,0.345 0.476,0.39 0.052,0.038 0.072,0.044 0.128,0.042 A 0.916,0.916 0 0 0 6.566,5.364 C 6.748,5.31 6.744,5.31 6.776,5.371 c 0.039,0.078 0.14,0.18 0.179,0.18 0.038,0 0.214,-0.1 0.393,-0.224 l 0.28,-0.19 a 22.2,22.2 0 0 0 0.373,-0.27 c 0.16,-0.12 0.238,-0.17 0.262,-0.17 l 0.204,0.03 0.172,0.028 0.004,1.67 c 0.002,1.66 0.002,1.67 0.028,1.67 0.025,0 0.025,-0.01 0.025,-1.667 V 4.761 l 0.03,0.007 c 0.015,0.004 0.119,0.02 0.23,0.038 L 9.16,4.838 9.192,4.801 C 9.224,4.763 9.567,4.201 9.581,4.162 9.586,4.15 9.581,4.139 9.569,4.135 9.559,4.131 9.365,4.098 9.139,4.062 A 20.912,20.912 0 0 1 8.713,3.992 C 8.7,3.989 8.696,3.811 8.696,3.162 8.696,2.487 8.693,2.332 8.679,2.322 8.669,2.314 8.659,2.311 8.655,2.316 8.649,2.32 8.645,2.695 8.645,3.149 V 3.973 H 8.617 c -0.048,0 -0.32,-0.05 -0.33,-0.06 A 15.546,15.546 0 0 1 8.104,2.856 L 8.094,2.764 8.404,2.452 C 8.602,2.255 8.71,2.138 8.703,2.131 A 4.322,4.322 0 0 0 8.368,2.001 C 8.134,1.918 8.04,1.891 8.025,1.899 A 2.846,2.846 0 0 0 7.875,2.013 0.92,0.92 0 0 1 7.735,2.116 C 7.693,2.116 7.611,1.885 7.588,1.702 a 7.339,7.339 0 0 1 -0.01,-0.593 5.408,5.408 0 0 1 4.093,5.218 5.407,5.407 0 0 1 -10.814,0 C 0.857,3.676 2.772,1.488 5.291,1.03 Z M 2.867,3.919 c -0.005,0.003 -0.008,1.08 -0.008,2.39 0,2.374 0,2.382 0.025,2.382 C 2.909,8.691 2.91,8.682 2.91,6.314 2.91,4.342 2.907,3.936 2.893,3.924 2.883,3.916 2.871,3.914 2.867,3.919 Z m 4.47,0.634 a 0.184,0.184 0 0 1 0.047,0 C 7.429,4.557 7.507,4.57 7.66,4.595 7.825,4.623 7.863,4.634 7.867,4.651 7.878,4.709 7.6,5.028 7.519,5.049 7.502,5.053 7.469,5.04 7.428,5.012 7.32,4.94 7.213,4.937 7.078,5.004 A 0.478,0.478 0 0 1 6.992,5.041 C 6.968,5.041 6.979,4.999 7.025,4.915 7.093,4.789 7.251,4.596 7.31,4.563 A 0.085,0.085 0 0 1 7.337,4.553 Z M 9.271,4.752 C 9.264,4.748 9.259,4.75 9.251,4.758 9.247,4.762 9.243,5.828 9.243,7.124 V 9.482 L 9.273,9.477 9.3,9.474 9.304,7.148 C 9.307,5.311 9.303,4.813 9.291,4.785 9.283,4.766 9.277,4.755 9.271,4.752 Z m -3.6,0.193 C 5.668,4.945 5.666,4.948 5.663,4.955 5.659,4.964 5.655,5.588 5.654,6.342 L 5.651,7.712 H 5.707 V 6.345 C 5.707,5.145 5.705,4.975 5.689,4.959 5.681,4.95 5.676,4.946 5.672,4.946 Z m 1.44,0.15 C 7.189,5.085 7.273,5.107 7.314,5.154 7.336,5.178 7.335,5.18 7.282,5.222 7.199,5.288 7.042,5.385 7.016,5.385 c -0.027,0 -0.05,-0.067 -0.05,-0.149 0,-0.075 0.01,-0.093 0.069,-0.12 A 0.27,0.27 0 0 1 7.11,5.096 Z M 6.995,5.602 C 6.989,5.601 6.982,5.604 6.975,5.61 6.97,5.614 6.966,6.261 6.966,7.047 V 8.476 H 7.043 V 7.051 C 7.043,5.793 7.04,5.627 7.023,5.627 7.013,5.627 7.005,5.62 7.005,5.614 7.005,5.607 7,5.602 6.995,5.602 Z M 4.458,5.832 C 4.453,5.832 4.448,5.838 4.443,5.85 4.439,5.862 4.435,6.657 4.435,7.618 V 9.366 H 4.499 V 7.62 C 4.498,6.189 4.495,5.87 4.481,5.852 4.471,5.838 4.464,5.832 4.458,5.832 Z m 1.2,1.905 c -0.071,0 -0.075,0.003 -0.09,0.039 A 0.534,0.534 0 0 1 5.372,7.956 L 5.313,7.984 v 0.081 c 0,0.056 0.005,0.08 0.017,0.08 A 0.498,0.498 0 0 0 5.49,8.063 0.223,0.223 0 0 1 5.545,8.03 c 0.005,0 0.01,0.154 0.01,0.344 v 0.343 h 0.178 v -0.98 z m 3.001,0.37 C 8.592,8.107 8.585,8.109 8.577,8.136 8.567,8.179 8.45,8.29 8.379,8.324 L 8.316,8.354 8.315,8.44 V 8.525 L 8.375,8.5 a 0.834,0.834 0 0 0 0.12,-0.07 l 0.06,-0.044 v 0.7 h 0.18 V 8.106 H 8.659 Z M 7.001,8.527 A 0.361,0.361 0 0 0 6.877,8.547 C 6.788,8.585 6.73,8.671 6.699,8.807 6.677,8.905 6.689,9.222 6.717,9.312 6.782,9.513 7.049,9.587 7.199,9.445 7.275,9.372 7.321,9.217 7.321,9.028 7.323,8.773 7.251,8.598 7.123,8.544 A 0.343,0.343 0 0 0 7.001,8.528 Z M 7.003,8.68 A 0.085,0.085 0 0 1 7.067,8.703 C 7.11,8.746 7.122,8.823 7.117,9.055 7.113,9.255 7.11,9.278 7.087,9.311 7.051,9.358 7.004,9.375 6.961,9.356 6.905,9.331 6.886,9.266 6.88,9.066 6.874,8.858 6.89,8.754 6.936,8.709 A 0.1,0.1 0 0 1 7.003,8.679 Z M 2.871,8.717 c -0.073,0 -0.075,0 -0.095,0.044 A 0.5,0.5 0 0 1 2.58,8.939 L 2.515,8.971 v 0.084 c 0,0.08 0.002,0.083 0.03,0.074 A 0.512,0.512 0 0 0 2.703,9.042 0.194,0.194 0 0 1 2.749,9.009 c 0.004,0 0.008,0.154 0.008,0.344 V 9.696 H 2.948 V 8.717 Z M 4.416,9.409 A 0.397,0.397 0 0 1 4.368,9.422 C 4.309,9.436 4.223,9.525 4.193,9.605 4.169,9.665 4.163,9.71 4.158,9.868 c -0.007,0.274 0.02,0.378 0.126,0.468 a 0.285,0.285 0 0 0 0.252,0.06 0.267,0.267 0 0 0 0.193,-0.159 C 4.809,10.077 4.811,9.751 4.734,9.586 4.694,9.496 4.674,9.472 4.609,9.439 A 0.408,0.408 0 0 0 4.416,9.409 Z m 4.86,0.11 A 0.302,0.302 0 0 0 9.159,9.543 0.348,0.348 0 0 0 8.995,9.738 c -0.028,0.087 -0.04,0.34 -0.02,0.465 0.018,0.121 0.067,0.212 0.138,0.263 0.047,0.032 0.07,0.038 0.15,0.042 0.22,0.011 0.32,-0.12 0.334,-0.438 C 9.608,9.77 9.544,9.601 9.393,9.539 A 0.302,0.302 0 0 0 9.276,9.519 Z M 4.469,9.562 c 0.047,0 0.087,0.038 0.106,0.106 0.017,0.062 0.017,0.415 0,0.477 -0.019,0.066 -0.053,0.098 -0.107,0.098 -0.097,0 -0.128,-0.096 -0.12,-0.38 C 4.355,9.659 4.37,9.603 4.422,9.576 A 0.099,0.099 0 0 1 4.469,9.562 Z m 4.823,0.112 c 0.015,0.003 0.028,0.01 0.044,0.022 0.054,0.042 0.066,0.102 0.066,0.312 0,0.271 -0.028,0.35 -0.125,0.35 -0.093,0 -0.132,-0.133 -0.12,-0.404 C 9.164,9.789 9.193,9.691 9.241,9.679 A 0.124,0.124 0 0 1 9.292,9.674 Z"
     id="path2"
     inkscape:connector-curvature="0"
     style="fill:#bde6fb;fill-opacity:1" />
</svg>
