<?xml version="1.0" encoding="UTF-8" standalone="no"?>
<svg
   width="47.546486"
   height="47.546486"
   viewBox="0 0 12.580008 12.580008"
   version="1.1"
   id="svg4"
   sodipodi:docname="showtime.svg"
   inkscape:version="0.92.4 (5da689c313, 2019-01-14)"
   xmlns:inkscape="http://www.inkscape.org/namespaces/inkscape"
   xmlns:sodipodi="http://sodipodi.sourceforge.net/DTD/sodipodi-0.dtd"
   xmlns="http://www.w3.org/2000/svg"
   xmlns:svg="http://www.w3.org/2000/svg"
   xmlns:rdf="http://www.w3.org/1999/02/22-rdf-syntax-ns#"
   xmlns:cc="http://creativecommons.org/ns#"
   xmlns:dc="http://purl.org/dc/elements/1.1/">
  <metadata
     id="metadata10">
    <rdf:RDF>
      <cc:Work
         rdf:about="">
        <dc:format>image/svg+xml</dc:format>
        <dc:type
           rdf:resource="http://purl.org/dc/dcmitype/StillImage" />
        <dc:title />
      </cc:Work>
    </rdf:RDF>
  </metadata>
  <defs
     id="defs8" />
  <sodipodi:namedview
     pagecolor="#ffffff"
     bordercolor="#666666"
     borderopacity="1"
     objecttolerance="10"
     gridtolerance="10"
     guidetolerance="10"
     inkscape:pageopacity="0"
     inkscape:pageshadow="2"
     inkscape:window-width="1087"
     inkscape:window-height="480"
     id="namedview6"
     showgrid="false"
     inkscape:zoom="4.9166667"
     inkscape:cx="2.1355932"
     inkscape:cy="24"
     inkscape:window-x="0"
     inkscape:window-y="25"
     inkscape:window-maximized="0"
     inkscape:current-layer="svg4"
     inkscape:showpageshadow="0"
     inkscape:pagecheckerboard="0"
     inkscape:deskcolor="#d1d1d1" />
  <path
     d="M 6.2900079,0 A 6.29,6.29 0 0 0 7.9490244e-6,6.3 6.29,6.29 0 0 0 6.3000079,12.58 6.29,6.29 0 0 0 12.580008,6.29 6.29,6.29 0 0 0 6.2900079,0 Z m -0.02,0.93 0.01,0.01 a 5.4,5.4 0 0 1 5.3900001,5.05 0.8,0.72 0 0 0 -0.3,-0.26 l -3.7500001,-1.92 -3.77,-1.93 a 0.8,0.72 0 0 0 -0.38,-0.1 0.8,0.72 0 0 0 -0.12,0 5.4,5.4 0 0 1 2.92,-0.85 z m -3.6,1.39 a 0.8,0.72 0 0 0 -0.03,0.18 v 7.7 a 0.8,0.72 0 0 0 0.01,0.15 5.4,5.4 0 0 1 -1.77999995,-4 5.4,5.4 0 0 1 1.79999995,-4.03 z m 4.4,1.98 a 0.36,0.32 0 0 1 0.37,0.32 v 3.47 a 0.36,0.32 0 0 1 -0.55,0.28 l -1.69,-0.87 -1.7,-0.87 a 0.36,0.32 0 0 1 0,-0.56 l 1.7,-0.86 1.7,-0.87 a 0.36,0.32 0 0 1 0.16,-0.04 z m 4.6000001,2.43 a 5.4,5.4 0 0 1 -5.3900001,5.02 5.4,5.4 0 0 1 -2.87,-0.83 0.8,0.72 0 0 0 0.44,-0.09 l 3.76,-1.93 3.7700001,-1.92 a 0.8,0.72 0 0 0 0.28,-0.25 z"
     id="path2"
     inkscape:connector-curvature="0"
     style="fill:#bde6fb;fill-opacity:1" />
</svg>
