<?xml version="1.0" encoding="UTF-8" standalone="no"?>
<svg
   width="47.546455"
   height="47.546455"
   viewBox="0 0 12.58 12.58"
   version="1.1"
   id="svg6"
   sodipodi:docname="shutter.svg"
   inkscape:version="0.92.4 (5da689c313, 2019-01-14)"
   xmlns:inkscape="http://www.inkscape.org/namespaces/inkscape"
   xmlns:sodipodi="http://sodipodi.sourceforge.net/DTD/sodipodi-0.dtd"
   xmlns="http://www.w3.org/2000/svg"
   xmlns:svg="http://www.w3.org/2000/svg"
   xmlns:rdf="http://www.w3.org/1999/02/22-rdf-syntax-ns#"
   xmlns:cc="http://creativecommons.org/ns#"
   xmlns:dc="http://purl.org/dc/elements/1.1/">
  <metadata
     id="metadata12">
    <rdf:RDF>
      <cc:Work
         rdf:about="">
        <dc:format>image/svg+xml</dc:format>
        <dc:type
           rdf:resource="http://purl.org/dc/dcmitype/StillImage" />
        <dc:title />
      </cc:Work>
    </rdf:RDF>
  </metadata>
  <defs
     id="defs10" />
  <sodipodi:namedview
     pagecolor="#ffffff"
     bordercolor="#666666"
     borderopacity="1"
     objecttolerance="10"
     gridtolerance="10"
     guidetolerance="10"
     inkscape:pageopacity="0"
     inkscape:pageshadow="2"
     inkscape:window-width="1138"
     inkscape:window-height="480"
     id="namedview8"
     showgrid="false"
     inkscape:zoom="4.9166667"
     inkscape:cx="2.1355932"
     inkscape:cy="24"
     inkscape:window-x="0"
     inkscape:window-y="25"
     inkscape:window-maximized="0"
     inkscape:current-layer="svg6"
     inkscape:showpageshadow="0"
     inkscape:pagecheckerboard="0"
     inkscape:deskcolor="#d1d1d1" />
  <path
     d="M 6.29,9.9999768e-4 A 6.29,6.29 0 0 0 0,6.291 6.29,6.29 0 0 0 6.29,12.58 6.29,6.29 0 0 0 12.58,6.29 6.29,6.29 0 0 0 6.29,0 Z M 6.272,0.938 A 5.407,5.407 0 0 1 11.679,6.345 5.407,5.407 0 0 1 6.272,11.752 5.407,5.407 0 0 1 0.866,6.345 5.407,5.407 0 0 1 6.272,0.939 Z M 8.868,2.839 C 7.75,2.852 6.025,3.163 5.486,3.806 H 5.485 C 5.055,4.431 5,6.879 5.112,6.728 6.027,5.485 8.222,3.951 9.532,3.334 10.24,2.999 9.738,2.829 8.868,2.839 Z M 7.788,4.867 C 7.032,4.921 5.701,6.21 5.888,6.203 7.435,6.149 8.402,6.237 9.609,6.613 9.789,6.668 9.417,4.993 7.789,4.867 Z M 6.97,6.208 C 6.93,6.21 6.914,6.22 6.927,6.24 7.811,7.51 8.261,8.37 8.601,9.589 8.651,9.769 9.857,8.547 9.079,7.112 8.679,6.581 7.249,6.194 6.969,6.208 Z M 7.43,7.226 C 7.422,7.224 7.416,7.228 7.413,7.24 7.021,8.738 6.659,9.64 5.955,10.69 5.85,10.845 7.562,10.968 8.148,9.443 8.301,8.747 7.561,7.261 7.43,7.226 Z M 7,8.184 C 6.997,8.183 6.993,8.184 6.987,8.186 5.59,8.854 4.668,9.16 3.41,9.298 3.224,9.32 4.234,10.707 5.777,10.171 H 5.779 C 6.429,9.829 7.111,8.211 7,8.184 Z"
     id="path2"
     inkscape:connector-curvature="0"
     style="fill:#bde6fb;fill-opacity:1" />
  <path
     d="M 4.692,4.238 C 4.409,4.286 3.276,5.068 3.537,6.472 3.785,7.19 5.373,8.144 5.317,7.965 4.867,6.484 4.704,5.525 4.754,4.263 4.755,4.239 4.732,4.231 4.692,4.238 Z M 2.872,6.45 C 2.726,6.43 2.385,8.02 3.744,8.829 4.448,9.115 6.211,8.551 6.04,8.473 4.628,7.836 3.801,7.327 2.884,6.457 A 0.023,0.023 0 0 0 2.871,6.45 Z"
     id="path4"
     inkscape:connector-curvature="0"
     style="opacity:0.75;fill:#bde6fb;fill-opacity:1" />
</svg>
