<?xml version="1.0" encoding="UTF-8" standalone="no"?>
<svg
   width="47.542679"
   height="47.546455"
   viewBox="0 0 12.579 12.58"
   version="1.1"
   id="svg6"
   sodipodi:docname="sidguesser.svg"
   inkscape:version="0.92.5 (2060ec1f9f, 2020-04-08)"
   xmlns:inkscape="http://www.inkscape.org/namespaces/inkscape"
   xmlns:sodipodi="http://sodipodi.sourceforge.net/DTD/sodipodi-0.dtd"
   xmlns="http://www.w3.org/2000/svg"
   xmlns:svg="http://www.w3.org/2000/svg"
   xmlns:rdf="http://www.w3.org/1999/02/22-rdf-syntax-ns#"
   xmlns:cc="http://creativecommons.org/ns#"
   xmlns:dc="http://purl.org/dc/elements/1.1/">
  <metadata
     id="metadata12">
    <rdf:RDF>
      <cc:Work
         rdf:about="">
        <dc:format>image/svg+xml</dc:format>
        <dc:type
           rdf:resource="http://purl.org/dc/dcmitype/StillImage" />
        <dc:title />
      </cc:Work>
    </rdf:RDF>
  </metadata>
  <defs
     id="defs10" />
  <sodipodi:namedview
     pagecolor="#ffffff"
     bordercolor="#666666"
     borderopacity="1"
     objecttolerance="10"
     gridtolerance="10"
     guidetolerance="10"
     inkscape:pageopacity="0"
     inkscape:pageshadow="2"
     inkscape:window-width="1085"
     inkscape:window-height="480"
     id="namedview8"
     showgrid="false"
     inkscape:zoom="4.9166667"
     inkscape:cx="2.1355932"
     inkscape:cy="24"
     inkscape:window-x="0"
     inkscape:window-y="25"
     inkscape:window-maximized="0"
     inkscape:current-layer="svg6"
     inkscape:showpageshadow="0"
     inkscape:pagecheckerboard="0"
     inkscape:deskcolor="#d1d1d1" />
  <path
     style="font-variant-ligatures:normal;font-variant-position:normal;font-variant-caps:normal;font-variant-numeric:normal;font-variant-alternates:normal;font-feature-settings:normal;text-indent:0;text-decoration:none;text-decoration-line:none;text-decoration-style:solid;text-decoration-color:#000000;text-transform:none;text-orientation:mixed;white-space:normal;shape-padding:0;opacity:0.8;isolation:auto;mix-blend-mode:normal;fill:#bdb9fb;fill-opacity:1;paint-order:stroke fill markers"
     d="M 4.675,3.385 C 4.204,3.385 3.756,3.48 3.355,3.65 H 3.354 L 3.337,3.657 A 3.33,3.33 0 0 0 3.27,3.687 L 3.248,3.697 A 3.302,3.302 0 0 0 3.166,3.737 L 3.136,3.751 3.078,3.781 3.05,3.797 2.972,3.842 2.95,3.855 2.89,3.892 C 2.88,3.897 2.872,3.903 2.863,3.909 L 2.789,3.957 2.767,3.973 A 3.211,3.211 0 0 0 2.619,4.083 L 2.602,4.096 A 3.086,3.086 0 0 0 2.466,4.211 L 2.448,4.227 2.444,4.23 2.384,4.287 2.36,4.311 A 3.177,3.177 0 0 0 2.318,4.353 L 2.294,4.378 A 3.012,3.012 0 0 0 2.177,4.508 L 2.154,4.536 A 2.885,2.885 0 0 0 2.102,4.601 L 2.082,4.627 A 2.71,2.71 0 0 0 2.047,4.674 L 2.026,4.704 A 2.87,2.87 0 0 0 1.979,4.772 L 1.963,4.795 A 3.046,3.046 0 0 0 1.929,4.849 L 1.911,4.879 A 2.737,2.737 0 0 0 1.868,4.952 L 1.858,4.969 1.826,5.029 1.809,5.063 A 2.458,2.458 0 0 0 1.736,5.22 L 1.723,5.25 1.699,5.311 1.689,5.336 C 1.679,5.363 1.67,5.389 1.662,5.416 1.658,5.426 1.654,5.436 1.651,5.448 a 2.36,2.36 0 0 0 -0.02,0.06 L 1.624,5.535 A 2.51,2.51 0 0 0 1.602,5.619 L 1.595,5.647 1.58,5.711 1.574,5.741 A 2.695,2.695 0 0 0 1.54,5.958 L 1.538,5.973 A 2.18,2.18 0 0 0 1.532,6.03 V 6.04 A 2.29,2.29 0 0 0 1.527,6.106 L 1.526,6.122 1.524,6.174 A 0.16,0.16 0 0 0 1.523,6.192 L 1.522,6.259 v 0.066 l 0.002,0.017 c 0,0.018 0,0.035 0.002,0.053 V 6.41 l 0.006,0.066 v 0.01 L 1.538,6.544 1.54,6.558 1.548,6.621 v 0.004 a 2.474,2.474 0 0 0 0.026,0.151 l 0.007,0.03 0.014,0.065 0.007,0.027 A 2.6,2.6 0 0 0 1.69,7.181 L 1.7,7.207 a 2.79,2.79 0 0 0 0.158,0.34 L 1.868,7.566 1.87,7.568 1.912,7.64 a 2.834,2.834 0 0 0 0.051,0.081 l 0.016,0.025 c 0.015,0.023 0.03,0.046 0.047,0.069 l 0.02,0.027 0.036,0.049 0.02,0.026 0.052,0.065 0.02,0.025 a 2.87,2.87 0 0 0 0.12,0.133 l 0.021,0.022 0.045,0.046 0.024,0.023 0.06,0.056 0.003,0.003 0.019,0.017 0.051,0.045 0.025,0.02 0.06,0.05 0.016,0.013 0.068,0.052 0.023,0.017 0.062,0.044 0.017,0.011 c 0.025,0.018 0.05,0.034 0.075,0.05 l 0.026,0.017 0.06,0.037 0.022,0.013 0.08,0.045 0.025,0.014 0.06,0.032 0.03,0.014 c 0.026,0.014 0.054,0.027 0.081,0.04 l 0.023,0.01 0.065,0.03 0.019,0.007 c 0.402,0.17 0.85,0.265 1.32,0.265 h 3.24 c 0.345,0 0.679,-0.052 0.99,-0.146 A 3.668,3.668 0 0 0 8.994,8.958 H 8.996 A 3.304,3.304 0 0 0 9.546,8.716 V 8.715 L 9.547,8.714 C 9.611,8.678 9.674,8.64 9.736,8.6 L 9.737,8.599 9.797,8.559 9.798,8.557 C 9.858,8.517 9.917,8.473 9.974,8.428 L 9.975,8.427 a 2.84,2.84 0 0 0 0.051,-0.041 l 0.01,-0.008 a 3.21,3.21 0 0 0 0.048,-0.04 l 0.002,-0.004 h 10e-4 A 3.801,3.801 0 0 0 10.192,8.238 L 10.195,8.235 10.24,8.191 10.248,8.182 a 2.932,2.932 0 0 0 0.14,-0.15 l 0.01,-0.01 0.035,-0.043 0.008,-0.01 0.038,-0.047 c 0,-0.002 0.003,-0.004 0.004,-0.006 a 2.99,2.99 0 0 0 0.082,-0.11 3.2,3.2 0 0 0 0.037,-0.054 l 0.01,-0.015 0.03,-0.047 0.005,-0.007 a 3.075,3.075 0 0 0 0.07,-0.117 l 0.006,-0.012 0.024,-0.045 0.01,-0.018 a 1.96,1.96 0 0 0 0.086,-0.178 l 0.006,-0.016 0.02,-0.047 a 0.12,0.12 0 0 0 0.006,-0.015 l 0.02,-0.05 c 0,-0.004 0.002,-0.008 0.004,-0.012 a 2.227,2.227 0 0 0 0.043,-0.127 l 0.005,-0.015 0.015,-0.05 c 0,-0.005 0.002,-0.01 0.004,-0.016 L 10.98,6.913 c 0,-0.004 0.003,-0.01 0.004,-0.014 L 10.999,6.834 H 11 l 10e-4,-0.002 c 0.005,-0.021 0.01,-0.042 0.013,-0.063 l 0.003,-0.017 0.01,-0.05 0.003,-0.02 0.007,-0.048 0.003,-0.019 0.008,-0.066 0.006,-0.067 10e-4,-0.017 0.004,-0.053 V 6.395 l 0.003,-0.051 0.001,-0.02 10e-4,-0.067 V 6.188 C 11.062,6.182 11.062,6.176 11.062,6.169 c 0,-0.017 0,-0.033 -0.002,-0.05 L 11.059,6.098 11.056,6.05 V 6.03 A 3.089,3.089 0 0 1 11.049,5.963 L 11.041,5.897 11.038,5.878 11.031,5.83 11.027,5.81 11.018,5.76 11.016,5.743 11.002,5.68 V 5.678 H 11.001 L 10.985,5.613 c 0,-0.005 -0.003,-0.01 -0.004,-0.016 l -0.014,-0.05 c 0,-0.005 -0.002,-0.01 -0.004,-0.016 L 10.948,5.48 10.943,5.467 A 2.531,2.531 0 0 0 10.9,5.339 L 10.895,5.327 10.876,5.278 10.869,5.26 10.849,5.215 10.843,5.199 A 2.605,2.605 0 0 0 10.787,5.077 L 10.782,5.069 A 1.817,1.817 0 0 0 10.757,5.019 L 10.749,5.004 A 1.78,1.78 0 0 0 10.724,4.958 L 10.717,4.945 A 2.847,2.847 0 0 0 10.647,4.829 L 10.643,4.822 A 3.176,3.176 0 0 0 10.612,4.775 L 10.602,4.759 A 2.41,2.41 0 0 0 10.572,4.716 L 10.565,4.706 A 3.764,3.764 0 0 0 10.485,4.597 L 10.476,4.587 A 3.948,3.948 0 0 0 10.397,4.491 L 10.388,4.48 A 2.936,2.936 0 0 0 10.295,4.377 L 10.293,4.375 A 2.663,2.663 0 0 0 10.249,4.329 L 10.239,4.32 A 3.1,3.1 0 0 0 10.197,4.279 L 10.191,4.272 A 3.197,3.197 0 0 0 10.086,4.177 3.164,3.164 0 0 0 10.034,4.133 L 10.025,4.125 A 3.698,3.698 0 0 0 9.855,3.995 2.919,2.919 0 0 0 9.798,3.955 L 9.791,3.95 A 3.1,3.1 0 0 0 9.738,3.915 L 9.731,3.91 A 3.358,3.358 0 0 0 9.544,3.798 H 9.543 L 9.542,3.796 A 3.359,3.359 0 0 0 8.903,3.526 3.426,3.426 0 0 0 7.912,3.381 Z m 0,0.97 h 3.238 c 0.529,0 1.007,0.172 1.372,0.46 0.063,0.05 0.123,0.102 0.179,0.159 h 10e-4 a 2,2 0 0 1 0.184,0.214 v 0.001 a 1.857,1.857 0 0 1 0.125,0.195 l 0.004,0.005 a 2.118,2.118 0 0 1 0.08,0.163 v 0.004 h 10e-4 l 0.016,0.037 c 0,0.004 0.002,0.007 0.004,0.01 L 9.893,5.64 9.896,5.65 9.909,5.687 C 9.91,5.69 9.91,5.693 9.912,5.695 9.921,5.723 9.93,5.751 9.937,5.779 l 0.01,0.035 c 0,0.005 0.002,0.011 0.004,0.017 l 0.007,0.031 0.005,0.021 0.006,0.03 0.005,0.022 0.005,0.031 0.004,0.024 c 0,0.008 0.002,0.016 0.004,0.024 l 0.002,0.027 c 10e-4,0.01 0.003,0.018 0.003,0.028 l 0.003,0.025 0.002,0.03 0.002,0.025 v 0.033 c 0.002,0.007 0.002,0.014 0.002,0.022 v 0.11 L 10,6.336 9.999,6.369 9.997,6.393 c 0,0.01 0,0.02 -0.002,0.031 L 9.992,6.45 9.989,6.477 9.987,6.504 9.979,6.552 c 0,0.01 -0.003,0.02 -0.005,0.03 0,0.007 -0.002,0.015 -0.004,0.023 L 9.964,6.635 9.959,6.655 C 9.956,6.666 9.955,6.677 9.951,6.688 c 0,0.005 -0.002,0.01 -0.004,0.016 L 9.937,6.739 C 9.93,6.769 9.921,6.797 9.911,6.826 V 6.83 H 9.909 L 9.896,6.868 c 0,0.004 -0.002,0.007 -0.004,0.01 L 9.879,6.914 9.874,6.925 9.86,6.961 9.856,6.969 A 1.885,1.885 0 0 1 9.798,7.09 L 9.777,7.13 9.776,7.131 9.775,7.133 A 2.22,2.22 0 0 1 9.753,7.173 H 9.751 A 1.85,1.85 0 0 1 9.649,7.329 H 9.648 L 9.647,7.331 A 1.495,1.495 0 0 1 9.619,7.367 L 9.618,7.369 A 1.913,1.913 0 0 1 9.462,7.545 L 9.461,7.546 V 7.547 C 9.405,7.603 9.345,7.657 9.282,7.706 8.918,7.994 8.439,8.166 7.911,8.166 H 4.674 A 2.268,2.268 0 0 1 3.502,7.845 L 3.5,7.844 A 2.305,2.305 0 0 1 3.231,7.647 L 3.226,7.643 A 1.976,1.976 0 0 1 3.12,7.543 L 3.093,7.516 3.085,7.507 A 1.935,1.935 0 0 1 3.032,7.448 L 3.027,7.442 A 2.005,2.005 0 0 1 3.001,7.412 L 2.992,7.401 A 1.883,1.883 0 0 1 2.888,7.258 L 2.878,7.242 A 1.842,1.842 0 0 1 2.846,7.192 L 2.834,7.172 A 2.063,2.063 0 0 1 2.805,7.122 L 2.79,7.094 A 1.588,1.588 0 0 1 2.768,7.05 L 2.756,7.025 A 1.157,1.157 0 0 1 2.732,6.971 L 2.72,6.943 A 1.706,1.706 0 0 1 2.692,6.872 L 2.684,6.847 A 1.72,1.72 0 0 1 2.65,6.74 L 2.645,6.72 A 1.547,1.547 0 0 1 2.621,6.616 L 2.617,6.595 A 1.664,1.664 0 0 1 2.608,6.545 C 2.608,6.538 2.606,6.532 2.605,6.525 A 2.159,2.159 0 0 1 2.6,6.483 L 2.597,6.463 A 1.747,1.747 0 0 1 2.592,6.406 L 2.591,6.389 2.588,6.343 a 0.14,0.14 0 0 1 0,-0.019 C 2.586,6.304 2.586,6.284 2.586,6.264 V 6.263 6.261 L 2.587,6.201 2.588,6.181 2.591,6.136 V 6.119 L 2.597,6.062 2.6,6.042 2.605,6 2.608,5.98 2.618,5.929 2.621,5.911 2.631,5.866 c 0,-0.008 0.003,-0.015 0.004,-0.023 A 1.745,1.745 0 0 1 2.665,5.734 L 2.673,5.711 A 1.798,1.798 0 0 1 2.719,5.583 L 2.732,5.553 A 2.42,2.42 0 0 1 2.744,5.527 L 2.757,5.499 2.768,5.474 A 1.9,1.9 0 0 1 2.79,5.431 L 2.806,5.402 A 1.12,1.12 0 0 1 2.833,5.353 L 2.846,5.332 2.876,5.285 2.888,5.265 2.908,5.237 C 2.911,5.231 2.916,5.226 2.92,5.22 A 1.882,1.882 0 0 1 3.086,5.017 L 3.092,5.01 3.122,4.98 3.13,4.972 C 3.16,4.942 3.192,4.912 3.226,4.882 L 3.231,4.878 A 2.122,2.122 0 0 1 3.501,4.68 2.24,2.24 0 0 1 4.674,4.358 Z"
     id="path2"
     inkscape:connector-curvature="0" />
  <path
     d="M 6.285,0 A 6.295,6.295 0 0 0 0,6.285 6.295,6.295 0 0 0 6.285,12.58 6.295,6.295 0 0 0 12.579,6.285 6.295,6.295 0 0 0 6.285,0 Z M 6.274,0.94 a 5.408,5.408 0 0 1 5.397,5.387 5.407,5.407 0 0 1 -10.814,0 C 0.857,3.34 3.287,0.94 6.274,0.94 Z M 6.295,2.57 A 2.117,2.117 0 0 0 4.178,4.687 h 1.059 c 0,-0.582 0.476,-1.058 1.058,-1.058 a 1.058,1.058 0 0 1 1.058,1.058 c 0,0.292 -0.116,0.556 -0.312,0.747 L 6.385,6.1 a 2.133,2.133 0 0 0 -0.62,1.498 v 0.264 h 1.06 c 0,-0.793 0.237,-1.11 0.618,-1.497 L 7.92,5.878 C 8.221,5.576 8.412,5.153 8.412,4.688 A 2.117,2.117 0 0 0 6.295,2.57 Z m -0.53,6.35 v 1.06 h 1.06 V 8.92 Z"
     id="path4"
     inkscape:connector-curvature="0"
     style="fill:#bde6fb;fill-opacity:1" />
</svg>
