<?xml version="1.0" encoding="UTF-8" standalone="no"?>
<svg
   width="47.546455"
   height="47.546455"
   viewBox="0 0 12.58 12.58"
   version="1.1"
   id="svg4"
   sodipodi:docname="signal-desktop.svg"
   inkscape:version="0.92.4 (5da689c313, 2019-01-14)"
   xmlns:inkscape="http://www.inkscape.org/namespaces/inkscape"
   xmlns:sodipodi="http://sodipodi.sourceforge.net/DTD/sodipodi-0.dtd"
   xmlns="http://www.w3.org/2000/svg"
   xmlns:svg="http://www.w3.org/2000/svg"
   xmlns:rdf="http://www.w3.org/1999/02/22-rdf-syntax-ns#"
   xmlns:cc="http://creativecommons.org/ns#"
   xmlns:dc="http://purl.org/dc/elements/1.1/">
  <metadata
     id="metadata10">
    <rdf:RDF>
      <cc:Work
         rdf:about="">
        <dc:format>image/svg+xml</dc:format>
        <dc:type
           rdf:resource="http://purl.org/dc/dcmitype/StillImage" />
        <dc:title />
      </cc:Work>
    </rdf:RDF>
  </metadata>
  <defs
     id="defs8" />
  <sodipodi:namedview
     pagecolor="#ffffff"
     bordercolor="#666666"
     borderopacity="1"
     objecttolerance="10"
     gridtolerance="10"
     guidetolerance="10"
     inkscape:pageopacity="0"
     inkscape:pageshadow="2"
     inkscape:window-width="1112"
     inkscape:window-height="480"
     id="namedview6"
     showgrid="false"
     inkscape:zoom="4.9166667"
     inkscape:cx="2.1355932"
     inkscape:cy="24"
     inkscape:window-x="0"
     inkscape:window-y="25"
     inkscape:window-maximized="0"
     inkscape:current-layer="svg4"
     inkscape:showpageshadow="0"
     inkscape:pagecheckerboard="0"
     inkscape:deskcolor="#d1d1d1" />
  <path
     d="m 6.29,0 a 6.29,6.29 0 0 0 0,12.58 A 6.29,6.29 0 0 0 6.29,0 Z M 6.27,0.93 a 5.417,5.417 0 0 1 5.41,5.41 5.4,5.4 0 0 1 -5.4,5.41 5.4,5.4 0 0 1 -5.41,-5.4 5.4,5.4 0 0 1 5.4,-5.42 z M 6.035,2.06 A 4.4,4.4 0 0 0 4.409,2.477 L 4.673,2.935 A 3.878,3.878 0 0 1 6.035,2.589 Z m 0.53,0 V 2.59 C 7.049,2.622 7.509,2.742 7.927,2.935 L 8.191,2.477 A 4.4,4.4 0 0 0 6.565,2.06 Z M 3.945,2.73 A 4.154,4.154 0 0 0 2.725,3.912 L 3.183,4.176 C 3.452,3.785 3.8,3.448 4.208,3.186 L 3.944,2.73 Z m 4.71,0 -0.263,0.456 a 3.61,3.61 0 0 1 1.025,0.99 L 9.874,3.912 A 4.154,4.154 0 0 0 8.656,2.73 Z M 6.3,3.106 a 3.175,2.93 0 0 0 -3.175,2.93 3.175,2.93 0 0 0 1.058,2.18 v 1.12 A 0.122,0.122 0 0 0 4.366,9.442 L 4.916,9.125 5.396,8.847 A 3.175,2.93 0 0 0 6.3,8.97 3.175,2.93 0 0 0 9.475,6.039 3.175,2.93 0 0 0 6.3,3.109 Z M 2.46,4.37 A 3.755,3.755 0 0 0 2.068,6.017 H 2.597 C 2.6,5.523 2.715,5.057 2.917,4.634 L 2.459,4.37 Z m 7.68,0 -0.457,0.264 c 0.202,0.422 0.317,0.89 0.32,1.383 h 0.53 A 3.755,3.755 0 0 0 10.141,4.37 Z M 2.109,6.547 c 0.079,0.542 0.276,1.058 0.573,1.52 L 3.139,7.802 A 3.286,3.286 0 0 1 2.644,6.547 Z m 7.851,0 C 9.888,7.004 9.72,7.431 9.477,7.81 l 0.457,0.264 c 0.29,-0.456 0.487,-0.972 0.563,-1.527 z M 3.462,8.227 3.001,8.493 c 0.042,0.05 0.081,0.1 0.125,0.148 v 0.694 c 0,0.406 0.232,0.752 0.553,0.959 L 3.938,9.846 A 0.629,0.629 0 0 1 3.655,9.335 V 8.43 A 3.71,3.71 0 0 1 3.462,8.226 Z m 5.696,0.01 C 8.884,8.546 8.552,8.807 8.182,9.012 L 8.445,9.467 A 4.22,4.22 0 0 0 9.619,8.503 Z M 7.7,9.238 C 7.345,9.375 6.962,9.458 6.564,9.485 v 0.53 A 4.41,4.41 0 0 0 7.967,9.699 L 7.7,9.239 Z M 5.51,9.39 5.18,9.582 4.63,9.899 a 0.53,0.53 0 0 0 -0.001,0 0.586,0.586 0 0 1 -0.146,0.058 l -0.305,0.528 c 0.24,0.036 0.49,0.002 0.714,-0.127 a 1.058,1.058 0 0 0 10e-4,0 l 0.55,-0.317 A 1.058,1.058 0 0 0 5.445,10.04 l 0.18,-0.104 c 0.137,0.02 0.273,0.049 0.41,0.068 V 9.48 A 5.858,5.858 0 0 1 5.511,9.39 Z"
     id="path2"
     inkscape:connector-curvature="0"
     style="fill:#bde6fb;fill-opacity:1" />
</svg>
