<?xml version="1.0" encoding="UTF-8" standalone="no"?>
<svg
   width="48"
   height="48"
   viewBox="0 0 12.7 12.7"
   version="1.1"
   id="svg4"
   sodipodi:docname="simple-scan.svg"
   inkscape:version="0.92.5 (2060ec1f9f, 2020-04-08)"
   xmlns:inkscape="http://www.inkscape.org/namespaces/inkscape"
   xmlns:sodipodi="http://sodipodi.sourceforge.net/DTD/sodipodi-0.dtd"
   xmlns="http://www.w3.org/2000/svg"
   xmlns:svg="http://www.w3.org/2000/svg">
  <sodipodi:namedview
     id="namedview1"
     pagecolor="#505050"
     bordercolor="#eeeeee"
     borderopacity="1"
     inkscape:showpageshadow="0"
     inkscape:pageopacity="0"
     inkscape:pagecheckerboard="0"
     inkscape:deskcolor="#d1d1d1" />
  <defs
     id="defs8">
    <style
       id="current-color-scheme"
       type="text/css">&#10;      .ColorScheme-Highlight {&#10;        color:#1e3f5a;&#10;      }&#10;  </style>
  </defs>
  <path
     class="ColorScheme-Highlight"
     style="fill:#bde6fb;fill-opacity:1;stroke-width:0.264583"
     d="M 6.3499999,0 A 6.3499999,6.3499999 0 0 0 0,6.3499999 6.3499999,6.3499999 0 0 0 6.3499999,12.7 6.3499999,6.3499999 0 0 0 12.7,6.3499999 6.3499999,6.3499999 0 0 0 6.3499999,0 Z m 0,0.79374999 A 5.5562499,5.5562499 0 0 1 11.90625,6.3499999 5.5562499,5.5562499 0 0 1 6.3499999,11.90625 5.5562499,5.5562499 0 0 1 0.79374999,6.3499999 5.5562499,5.5562499 0 0 1 6.3499999,0.79374999 Z M 3.4395833,2.38125 C 3.2930041,2.38125 3.175,2.4992541 3.175,2.6458333 V 4.4979166 H 2.38125 V 5.0270833 H 3.175 V 10.31875 c 0,0.146579 0.1180041,0.264583 0.2645833,0.264583 h 5.8208333 c 0.1465791,0 0.2645833,-0.118004 0.2645833,-0.264583 V 5.0270833 H 10.31875 V 4.4979166 H 9.5249999 V 2.6458333 C 9.5249999,2.4992541 9.4069957,2.38125 9.2604166,2.38125 Z m 0.2645833,0.5291666 h 5.2916666 v 1.5875 H 3.7041666 Z m 0,2.1166667 H 8.9958332 V 8.9958332 H 3.7041666 Z m 3.571875,4.2333333 a 0.396875,0.396875 0 0 1 0.396875,0.3968749 0.396875,0.396875 0 0 1 -0.396875,0.3968755 0.396875,0.396875 0 0 1 -0.396875,-0.3968755 0.396875,0.396875 0 0 1 0.396875,-0.3968749 z m 1.3229166,0 a 0.396875,0.396875 0 0 1 0.396875,0.3968749 0.396875,0.396875 0 0 1 -0.396875,0.3968755 0.396875,0.396875 0 0 1 -0.396875,-0.3968755 0.396875,0.396875 0 0 1 0.396875,-0.3968749 z"
     id="path817" />
</svg>
