<?xml version="1.0" encoding="UTF-8" standalone="no"?>
<svg
   width="47.542679"
   height="47.546455"
   viewBox="0 0 12.579 12.58"
   version="1.1"
   id="svg4"
   sodipodi:docname="skipfish.svg"
   inkscape:version="0.92.5 (2060ec1f9f, 2020-04-08)"
   xmlns:inkscape="http://www.inkscape.org/namespaces/inkscape"
   xmlns:sodipodi="http://sodipodi.sourceforge.net/DTD/sodipodi-0.dtd"
   xmlns="http://www.w3.org/2000/svg"
   xmlns:svg="http://www.w3.org/2000/svg"
   xmlns:rdf="http://www.w3.org/1999/02/22-rdf-syntax-ns#"
   xmlns:cc="http://creativecommons.org/ns#"
   xmlns:dc="http://purl.org/dc/elements/1.1/">
  <metadata
     id="metadata10">
    <rdf:RDF>
      <cc:Work
         rdf:about="">
        <dc:format>image/svg+xml</dc:format>
        <dc:type
           rdf:resource="http://purl.org/dc/dcmitype/StillImage" />
        <dc:title />
      </cc:Work>
    </rdf:RDF>
  </metadata>
  <defs
     id="defs8" />
  <sodipodi:namedview
     pagecolor="#ffffff"
     bordercolor="#666666"
     borderopacity="1"
     objecttolerance="10"
     gridtolerance="10"
     guidetolerance="10"
     inkscape:pageopacity="0"
     inkscape:pageshadow="2"
     inkscape:window-width="1085"
     inkscape:window-height="480"
     id="namedview6"
     showgrid="false"
     inkscape:zoom="4.9166667"
     inkscape:cx="2.1355932"
     inkscape:cy="24"
     inkscape:window-x="0"
     inkscape:window-y="25"
     inkscape:window-maximized="0"
     inkscape:current-layer="svg4"
     inkscape:showpageshadow="0"
     inkscape:pagecheckerboard="0"
     inkscape:deskcolor="#d1d1d1" />
  <path
     d="M 6.285,0 A 6.295,6.295 0 0 0 0,6.285 6.295,6.295 0 0 0 6.285,12.58 6.295,6.295 0 0 0 12.579,6.285 6.295,6.295 0 0 0 6.285,0 Z M 6.274,0.94 a 5.408,5.408 0 0 1 5.397,5.387 5.407,5.407 0 0 1 -10.814,0 C 0.857,3.34 3.287,0.94 6.274,0.94 Z m 0.791,1.392 c -0.252,0 -0.422,0.17 -0.422,0.426 A 0.4,0.4 0 0 0 7.065,3.181 0.4,0.4 0 0 0 7.487,2.758 C 7.487,2.502 7.317,2.332 7.065,2.332 Z M 4.274,2.404 V 5.557 H 4.998 V 4.528 L 5.592,5.557 H 6.53 L 5.796,4.401 6.462,3.466 H 5.612 L 4.999,4.401 V 2.404 Z M 3.137,3.425 c -0.649,0 -0.998,0.247 -0.998,0.704 0,0.806 1.092,0.524 1.092,0.78 0,0.081 -0.116,0.137 -0.3,0.137 -0.183,0 -0.447,-0.051 -0.665,-0.128 L 2.109,5.442 C 2.348,5.541 2.667,5.6 2.97,5.6 3.601,5.6 3.96,5.34 3.96,4.888 3.96,4.09 2.842,4.333 2.842,4.094 c 0,-0.072 0.103,-0.115 0.307,-0.115 0.167,0 0.371,0.03 0.58,0.081 L 3.87,3.527 A 2.63,2.63 0 0 0 3.137,3.425 Z m 5.975,0 A 0.763,0.763 0 0 0 8.498,3.711 L 8.396,3.467 H 7.906 V 9.635 H 8.609 V 8.282 a 0.375,0.375 0 0 1 0.29,-0.124 c 0.213,0 0.303,0.111 0.303,0.346 v 1.13 H 9.94 V 8.38 C 9.94,7.838 9.654,7.518 9.176,7.518 A 0.789,0.789 0 0 0 8.609,7.736 V 5.45 C 8.738,5.548 8.895,5.6 9.074,5.6 9.624,5.6 10.038,5.126 10.038,4.486 10.038,3.868 9.65,3.424 9.112,3.424 Z M 6.694,3.467 v 2.09 H 7.431 V 3.467 H 6.695 Z m 2.205,0.572 c 0.24,0 0.389,0.18 0.389,0.486 0,0.29 -0.137,0.46 -0.371,0.46 A 0.408,0.408 0 0 1 8.61,4.854 V 4.158 A 0.392,0.392 0 0 1 8.9,4.038 Z M 5.011,6.409 C 4.76,6.409 4.589,6.58 4.589,6.836 A 0.4,0.4 0 0 0 5.011,7.258 0.4,0.4 0 0 0 5.434,6.836 C 5.434,6.58 5.263,6.409 5.011,6.409 Z m -0.96,0.03 c -0.554,0 -0.925,0.376 -0.925,0.943 V 7.544 H 2.793 V 8.12 h 0.333 v 1.514 h 0.7 V 8.12 H 4.38 V 7.544 H 3.826 V 7.331 c 0,-0.18 0.119,-0.286 0.332,-0.286 0.103,0 0.222,0.025 0.278,0.055 L 4.581,6.576 A 1.014,1.014 0 0 0 4.051,6.439 Z m 2.696,1.062 c -0.648,0 -0.998,0.248 -0.998,0.704 0,0.806 1.092,0.525 1.092,0.78 0,0.082 -0.115,0.137 -0.298,0.137 -0.184,0 -0.449,-0.051 -0.666,-0.128 L 5.719,9.519 c 0.24,0.098 0.559,0.157 0.862,0.157 0.631,0 0.99,-0.26 0.99,-0.712 0,-0.797 -1.118,-0.554 -1.118,-0.793 0,-0.073 0.102,-0.115 0.307,-0.115 0.166,0 0.37,0.03 0.58,0.08 L 7.481,7.604 A 2.63,2.63 0 0 0 6.747,7.501 Z M 4.64,7.544 v 2.09 h 0.738 v -2.09 z"
     id="path2"
     inkscape:connector-curvature="0"
     style="fill:#bde6fb;fill-opacity:1" />
</svg>
