<?xml version="1.0" encoding="UTF-8" standalone="no"?>
<svg
   width="48"
   height="48"
   viewBox="0 0 12.7 12.7"
   version="1.1"
   id="svg4"
   sodipodi:docname="skrooge.svg"
   inkscape:version="0.92.5 (2060ec1f9f, 2020-04-08)"
   xmlns:inkscape="http://www.inkscape.org/namespaces/inkscape"
   xmlns:sodipodi="http://sodipodi.sourceforge.net/DTD/sodipodi-0.dtd"
   xmlns="http://www.w3.org/2000/svg"
   xmlns:svg="http://www.w3.org/2000/svg">
  <sodipodi:namedview
     id="namedview1"
     pagecolor="#505050"
     bordercolor="#eeeeee"
     borderopacity="1"
     inkscape:showpageshadow="0"
     inkscape:pageopacity="0"
     inkscape:pagecheckerboard="0"
     inkscape:deskcolor="#d1d1d1" />
  <defs
     id="defs8">
    <style
       id="current-color-scheme"
       type="Highlight/css">&#10;      .ColorScheme-Highlight {&#10;        color:#1e3f5a;&#10;      }&#10;  </style>
  </defs>
  <path
     class="ColorScheme-Highlight"
     style="fill:#bde6fb;fill-opacity:1;stroke-width:0.264583"
     d="M 6.3499999,0 A 6.3499999,6.3499999 0 0 0 0,6.3499999 6.3499999,6.3499999 0 0 0 6.3499999,12.7 6.3499999,6.3499999 0 0 0 12.7,6.3499999 6.3499999,6.3499999 0 0 0 6.3499999,0 Z m 0,0.79374999 A 5.5562499,5.5562499 0 0 1 11.90625,6.3499999 5.5562499,5.5562499 0 0 1 6.3499999,11.90625 5.5562499,5.5562499 0 0 1 0.79374999,6.3499999 5.5562499,5.5562499 0 0 1 6.3499999,0.79374999 Z M 6.6145833,3.175 A 3.175,3.175 0 0 0 3.6251017,5.2916666 H 2.9104166 L 2.38125,5.8208333 h 1.1032918 a 3.175,3.175 0 0 0 -0.044959,0.5291666 3.175,3.175 0 0 0 0.048059,0.5291667 H 3.4395833 L 2.9104166,7.4083332 h 0.7146851 a 3.175,3.175 0 0 0 2.9894816,2.1166667 3.175,3.175 0 0 0 2.745052,-1.5875 H 8.7271158 a 2.6458333,2.6458333 0 0 1 -2.1125325,1.0583333 2.6458333,2.6458333 0 0 1 -2.4215577,-1.5875 h 2.686141 L 7.4083332,6.8791666 H 4.0250774 A 2.6458333,2.6458333 0 0 1 3.96875,6.3499999 2.6458333,2.6458333 0 0 1 4.0224934,5.8208333 H 7.6729166 L 8.2020832,5.2916666 H 4.1909587 a 2.6458333,2.6458333 0 0 1 2.4236246,-1.5875 2.6458333,2.6458333 0 0 1 1.8846394,0.79375 H 9.1844523 A 3.175,3.175 0 0 0 6.6145833,3.175 Z"
     id="path817" />
</svg>
