<?xml version="1.0" encoding="UTF-8" standalone="no"?>
<svg
   width="47.546455"
   height="47.542679"
   viewBox="0 0 12.58 12.579"
   version="1.1"
   id="svg4"
   sodipodi:docname="skype.svg"
   inkscape:version="0.92.4 (5da689c313, 2019-01-14)"
   xmlns:inkscape="http://www.inkscape.org/namespaces/inkscape"
   xmlns:sodipodi="http://sodipodi.sourceforge.net/DTD/sodipodi-0.dtd"
   xmlns="http://www.w3.org/2000/svg"
   xmlns:svg="http://www.w3.org/2000/svg"
   xmlns:rdf="http://www.w3.org/1999/02/22-rdf-syntax-ns#"
   xmlns:cc="http://creativecommons.org/ns#"
   xmlns:dc="http://purl.org/dc/elements/1.1/">
  <metadata
     id="metadata10">
    <rdf:RDF>
      <cc:Work
         rdf:about="">
        <dc:format>image/svg+xml</dc:format>
        <dc:type
           rdf:resource="http://purl.org/dc/dcmitype/StillImage" />
        <dc:title />
      </cc:Work>
    </rdf:RDF>
  </metadata>
  <defs
     id="defs8" />
  <sodipodi:namedview
     pagecolor="#ffffff"
     bordercolor="#666666"
     borderopacity="1"
     objecttolerance="10"
     gridtolerance="10"
     guidetolerance="10"
     inkscape:pageopacity="0"
     inkscape:pageshadow="2"
     inkscape:window-width="1087"
     inkscape:window-height="480"
     id="namedview6"
     showgrid="false"
     inkscape:zoom="4.9166667"
     inkscape:cx="2.1355932"
     inkscape:cy="24"
     inkscape:window-x="0"
     inkscape:window-y="25"
     inkscape:window-maximized="0"
     inkscape:current-layer="svg4"
     inkscape:showpageshadow="0"
     inkscape:pagecheckerboard="0"
     inkscape:deskcolor="#d1d1d1" />
  <path
     d="M 6.29,9.9999565e-4 A 6.29,6.29 0 0 0 0,6.291 6.29,6.29 0 0 0 6.29,12.579 6.29,6.29 0 0 0 12.58,6.29 6.29,6.29 0 0 0 6.29,0 Z M 6.272,0.937 A 5.407,5.407 0 0 1 11.679,6.344 5.407,5.407 0 0 1 6.272,11.751 5.407,5.407 0 0 1 0.866,6.344 5.407,5.407 0 0 1 6.272,0.938 Z M 4.359,2.035 A 2.307,2.307 0 0 0 2.324,5.431 4.08,4.08 0 0 0 2.237,6.278 4.06,4.06 0 0 0 6.296,10.337 c 0.29,0 0.574,-0.029 0.847,-0.087 A 2.307,2.307 0 0 0 10.268,7.125 4.08,4.08 0 0 0 10.355,6.278 4.06,4.06 0 0 0 6.296,2.22 c -0.29,0 -0.574,0.034 -0.847,0.092 A 2.304,2.304 0 0 0 4.359,2.035 Z m 1.862,1.68 c 1.268,0 1.92,0.67 1.92,1.061 0,0.392 -0.19,0.456 -0.502,0.456 -0.604,0 -0.353,-0.727 -1.487,-0.727 -0.376,0 -0.842,0.169 -0.842,0.606 0,0.351 0.408,0.479 1.142,0.657 1.102,0.295 1.937,0.594 1.937,1.603 0,0.98 -0.808,1.47 -2.076,1.47 -1.268,0 -2.075,-0.756 -2.075,-1.148 0,-0.392 0.15,-0.495 0.461,-0.495 0.604,0 0.52,0.824 1.655,0.824 0.375,0 0.928,-0.168 0.928,-0.606 C 7.282,7.066 7.255,6.94 6.452,6.725 5.592,6.608 4.203,6.333 4.203,5.267 c 0,-0.98 0.75,-1.552 2.018,-1.552 z"
     id="path2"
     inkscape:connector-curvature="0"
     style="fill:#bde6fb;fill-opacity:1" />
</svg>
