<?xml version="1.0" encoding="UTF-8" standalone="no"?>
<svg
   width="47.546486"
   height="47.546486"
   viewBox="0 0 12.580008 12.580008"
   version="1.1"
   id="svg4"
   sodipodi:docname="software-properties.svg"
   inkscape:version="0.92.4 (5da689c313, 2019-01-14)"
   xmlns:inkscape="http://www.inkscape.org/namespaces/inkscape"
   xmlns:sodipodi="http://sodipodi.sourceforge.net/DTD/sodipodi-0.dtd"
   xmlns="http://www.w3.org/2000/svg"
   xmlns:svg="http://www.w3.org/2000/svg"
   xmlns:rdf="http://www.w3.org/1999/02/22-rdf-syntax-ns#"
   xmlns:cc="http://creativecommons.org/ns#"
   xmlns:dc="http://purl.org/dc/elements/1.1/">
  <metadata
     id="metadata10">
    <rdf:RDF>
      <cc:Work
         rdf:about="">
        <dc:format>image/svg+xml</dc:format>
        <dc:type
           rdf:resource="http://purl.org/dc/dcmitype/StillImage" />
        <dc:title />
      </cc:Work>
    </rdf:RDF>
  </metadata>
  <defs
     id="defs8" />
  <sodipodi:namedview
     pagecolor="#ffffff"
     bordercolor="#666666"
     borderopacity="1"
     objecttolerance="10"
     gridtolerance="10"
     guidetolerance="10"
     inkscape:pageopacity="0"
     inkscape:pageshadow="2"
     inkscape:window-width="1087"
     inkscape:window-height="480"
     id="namedview6"
     showgrid="false"
     inkscape:zoom="4.9166667"
     inkscape:cx="2.1355932"
     inkscape:cy="24"
     inkscape:window-x="0"
     inkscape:window-y="25"
     inkscape:window-maximized="0"
     inkscape:current-layer="svg4"
     inkscape:showpageshadow="0"
     inkscape:pagecheckerboard="0"
     inkscape:deskcolor="#d1d1d1" />
  <path
     d="M 6.2900079,0 A 6.29,6.29 0 0 0 7.9490244e-6,6.3 6.29,6.29 0 0 0 6.3000079,12.58 6.29,6.29 0 0 0 12.580008,6.29 6.29,6.29 0 0 0 6.2900079,0 Z m -0.01,0.94 A 5.4,5.4 0 0 1 11.680008,6.34 5.4,5.4 0 0 1 6.2800079,11.75 5.4,5.4 0 0 1 0.87000795,6.35 5.4,5.4 0 0 1 6.2700079,0.93 Z m -2.1,0.73 a 0.21,0.21 0 0 0 -0.16,0.08 l -1.61,2.04 a 0.2,0.2 0 0 0 -0.05,0.13 v 5.71 c 0,0.12 0.1,0.21 0.21,0.21 h 7.4300001 c 0.12,0 0.21,-0.1 0.21,-0.21 V 3.92 a 0.2,0.2 0 0 0 -0.04,-0.13 L 8.5700079,1.75 a 0.21,0.21 0 0 0 -0.17,-0.08 z m 0.1,0.42 h 1.8 v 1.64 h -3.1 l 1.3,-1.65 z m 2.22,0 h 1.8 l 1.3,1.65 h -3.1 z m -3.71,2.07 h 7 v 5.27 h -7 z m 3.52,0.16 c -1.05,0 -1.95,0.65 -2.31,1.57 l -0.06,0.15 v 0.03 c -0.08,0.24 -0.13,0.5 -0.13,0.76 a 2.48,2.48 0 0 0 2.48,2.47 c 1.04,0 1.93,-0.64 2.3,-1.55 a 2.45,2.45 0 0 0 0.2,-0.96 2.48,2.48 0 0 0 -2.48,-2.46 z m -0.18,0.39 v 0.83 a 4.59,4.59 0 0 1 -0.67,-0.08 l 0.1,-0.2 c 0.16,-0.3 0.36,-0.49 0.57,-0.55 z m 0.35,0 0.06,0.02 c 0.18,0.08 0.36,0.26 0.52,0.53 l 0.1,0.2 c -0.21,0.04 -0.44,0.07 -0.68,0.08 V 4.72 Z m -1.1,0.18 a 2.02,2.02 0 0 0 -0.27,0.5 2.85,2.85 0 0 1 -0.3,-0.11 c 0.17,-0.16 0.36,-0.29 0.56,-0.39 z m 1.9,0.05 0.24,0.11 c 0.1,0.07 0.19,0.14 0.27,0.22 a 2.8,2.8 0 0 1 -0.29,0.1 2.11,2.11 0 0 0 -0.22,-0.43 z m 0.74,0.6 c 0.23,0.3 0.37,0.67 0.4,1.07 h -0.66 a 3.91,3.91 0 0 0 -0.14,-0.9 c 0.14,-0.04 0.27,-0.1 0.4,-0.15 z m -3.45,0.02 0.42,0.16 a 3.9,3.9 0 0 0 -0.14,0.9 h -0.66 c 0.03,-0.4 0.17,-0.76 0.38,-1.06 z m 2.7,0.24 c 0.07,0.24 0.12,0.52 0.13,0.82 h -0.92 V 5.89 a 4.79,4.79 0 0 0 0.8,-0.1 z m -1.93,0 c 0.24,0.05 0.5,0.08 0.79,0.09 v 0.72 h -0.92 c 0.01,-0.29 0.06,-0.56 0.13,-0.81 z m -1.15,1.17 h 0.66 c 0.02,0.33 0.07,0.64 0.15,0.92 a 3.14,3.14 0 0 0 -0.4,0.15 2.1,2.1 0 0 1 -0.41,-1.07 z m 1.02,0 h 0.92 v 0.75 c -0.28,0 -0.54,0.03 -0.79,0.08 a 3.58,3.58 0 0 1 -0.13,-0.83 z m 1.27,0 h 0.92 a 3.58,3.58 0 0 1 -0.13,0.84 4.8,4.8 0 0 0 -0.79,-0.1 z m 1.28,0 h 0.67 a 2.1,2.1 0 0 1 -0.41,1.08 3.08,3.08 0 0 0 -0.4,-0.15 c 0.07,-0.29 0.12,-0.6 0.14,-0.93 z m -1.63,1.1 v 0.8 c -0.2,-0.06 -0.4,-0.25 -0.57,-0.54 a 2.2,2.2 0 0 1 -0.1,-0.19 c 0.21,-0.04 0.44,-0.06 0.67,-0.07 z m 0.35,0 c 0.24,0.01 0.46,0.04 0.66,0.07 a 2.2,2.2 0 0 1 -0.09,0.19 c -0.16,0.3 -0.36,0.48 -0.57,0.55 z m -1.37,0.15 a 2.03,2.03 0 0 0 0.26,0.47 2.12,2.12 0 0 1 -0.53,-0.37 3,3 0 0 1 0.27,-0.1 z m 2.38,0.01 c 0.1,0.03 0.2,0.06 0.28,0.1 a 2.12,2.12 0 0 1 -0.53,0.36 2.1,2.1 0 0 0 0.25,-0.46 z"
     id="path2"
     inkscape:connector-curvature="0"
     style="fill:#bde6fb;fill-opacity:1" />
</svg>
