<?xml version="1.0" encoding="UTF-8" standalone="no"?>
<svg
   width="47.546455"
   height="47.546455"
   viewBox="0 0 12.58 12.58"
   version="1.1"
   id="svg4"
   sodipodi:docname="solfege.svg"
   inkscape:version="0.92.4 (5da689c313, 2019-01-14)"
   xmlns:inkscape="http://www.inkscape.org/namespaces/inkscape"
   xmlns:sodipodi="http://sodipodi.sourceforge.net/DTD/sodipodi-0.dtd"
   xmlns="http://www.w3.org/2000/svg"
   xmlns:svg="http://www.w3.org/2000/svg"
   xmlns:rdf="http://www.w3.org/1999/02/22-rdf-syntax-ns#"
   xmlns:cc="http://creativecommons.org/ns#"
   xmlns:dc="http://purl.org/dc/elements/1.1/">
  <metadata
     id="metadata10">
    <rdf:RDF>
      <cc:Work
         rdf:about="">
        <dc:format>image/svg+xml</dc:format>
        <dc:type
           rdf:resource="http://purl.org/dc/dcmitype/StillImage" />
        <dc:title />
      </cc:Work>
    </rdf:RDF>
  </metadata>
  <defs
     id="defs8" />
  <sodipodi:namedview
     pagecolor="#ffffff"
     bordercolor="#666666"
     borderopacity="1"
     objecttolerance="10"
     gridtolerance="10"
     guidetolerance="10"
     inkscape:pageopacity="0"
     inkscape:pageshadow="2"
     inkscape:window-width="1112"
     inkscape:window-height="480"
     id="namedview6"
     showgrid="false"
     inkscape:zoom="4.9166667"
     inkscape:cx="2.1355932"
     inkscape:cy="24"
     inkscape:window-x="0"
     inkscape:window-y="25"
     inkscape:window-maximized="0"
     inkscape:current-layer="svg4"
     inkscape:showpageshadow="0"
     inkscape:pagecheckerboard="0"
     inkscape:deskcolor="#d1d1d1" />
  <path
     d="m 6.29,0 a 6.29,6.29 0 0 0 0,12.58 A 6.29,6.29 0 0 0 6.29,0 Z M 6.27,0.93 a 5.417,5.417 0 0 1 5.41,5.41 5.4,5.4 0 0 1 -5.4,5.41 5.4,5.4 0 0 1 -5.41,-5.4 5.4,5.4 0 0 1 5.4,-5.42 z M 6.707,2.226 6.675,6.29 C 5.854,5.578 4.463,5.658 3.754,6.492 3.002,7.31 2.973,8.695 3.716,9.526 c 0.588,0.71 1.65,1.023 2.508,0.646 C 7.066,9.823 7.626,8.904 7.551,7.995 7.533,7.242 7.535,6.488 7.535,5.735 7.531,4.922 7.525,4.11 7.524,3.298 7.948,3.843 8.413,4.415 8.514,5.12 8.544,5.509 8.359,5.686 8.224,5.942 8.11,6.157 8.284,6.462 8.544,6.499 9.026,6.565 9.48,6.204 9.607,5.754 A 2.1,2.1 0 0 0 9.297,4.01 C 8.937,3.552 8.389,3.31 7.906,3.009 A 13.374,13.374 0 0 1 6.707,2.226 Z m -0.62,4.18 A 1.085,0.756 84.913 0 1 6.86,7.423 1.085,0.756 84.913 0 1 6.205,8.571 1.085,0.756 84.913 0 1 5.355,7.557 a 1.085,0.756 84.913 0 1 0.657,-1.15 1.085,0.756 84.913 0 1 0.075,0 z M 4.305,6.723 A 1.046,0.732 84.913 0 1 5.055,7.701 1.046,0.732 84.913 0 1 4.417,8.807 1.046,0.732 84.913 0 1 3.593,7.829 1.046,0.732 84.913 0 1 4.231,6.726 1.046,0.732 84.913 0 1 4.305,6.723 Z m 1.61,0.13 a 0.463,0.35 84.913 0 0 -0.308,0.492 0.463,0.35 84.913 0 0 0.39,0.429 0.463,0.35 84.913 0 0 0.307,-0.49 0.463,0.35 84.913 0 0 -0.354,-0.43 0.463,0.35 84.913 0 0 -0.034,0 z M 4.133,7.13 A 0.384,0.305 84.913 0 0 3.866,7.54 0.384,0.305 84.913 0 0 4.203,7.896 0.384,0.305 84.913 0 0 4.473,7.485 0.384,0.305 84.913 0 0 4.165,7.13 a 0.384,0.305 84.913 0 0 -0.03,0 z m 2.42,1.745 c -0.507,1.32 -1.86,1.384 -2.207,0.273 0.65,0.176 1.553,0.017 2.207,-0.273 z"
     id="path2"
     inkscape:connector-curvature="0"
     style="fill:#bde6fb;fill-opacity:1" />
</svg>
