<?xml version="1.0" encoding="UTF-8" standalone="no"?>
<svg
   width="48"
   height="48"
   viewBox="0 0 12.7 12.7"
   version="1.1"
   id="svg4"
   sodipodi:docname="sound-juicer.svg"
   inkscape:version="0.92.5 (2060ec1f9f, 2020-04-08)"
   xmlns:inkscape="http://www.inkscape.org/namespaces/inkscape"
   xmlns:sodipodi="http://sodipodi.sourceforge.net/DTD/sodipodi-0.dtd"
   xmlns="http://www.w3.org/2000/svg"
   xmlns:svg="http://www.w3.org/2000/svg">
  <sodipodi:namedview
     id="namedview1"
     pagecolor="#505050"
     bordercolor="#eeeeee"
     borderopacity="1"
     inkscape:showpageshadow="0"
     inkscape:pageopacity="0"
     inkscape:pagecheckerboard="0"
     inkscape:deskcolor="#d1d1d1" />
  <defs
     id="defs8">
    <style
       id="current-color-scheme"
       type="text/css">&#10;      .ColorScheme-Highlight {&#10;        color:#1e3f5a;&#10;      }&#10;  </style>
  </defs>
  <path
     class="ColorScheme-Highlight"
     style="fill:#bde6fb;fill-opacity:1;stroke-width:0.264583"
     d="M 6.3499999,0 A 6.3499999,6.3499999 0 0 0 0,6.3499999 6.3499999,6.3499999 0 0 0 6.3499999,12.7 6.3499999,6.3499999 0 0 0 8.3529783,12.370304 C 8.1307439,12.135566 7.9392308,11.869457 7.8114095,11.567252 7.6737146,11.241705 7.597469,10.88359 7.597469,10.507886 c 0,-0.187853 0.037584,-0.39782 0.1033529,-0.621668 C 7.7665904,9.66237 7.8609589,9.4247014 7.9752237,9.1818684 8.1088308,8.8979295 8.3011541,8.6180098 8.4754515,8.3333414 A 2.9104166,2.9104166 0 0 1 6.3499999,9.2604166 2.9104166,2.9104166 0 0 1 3.4395833,6.3499999 2.9104166,2.9104166 0 0 1 6.3499999,3.4395833 2.9104166,2.9104166 0 0 1 9.2604166,6.3499999 2.9104166,2.9104166 0 0 1 9.0356242,7.4698282 C 9.28446,7.131627 9.5396618,6.7919059 9.750309,6.5608398 10.021356,6.2635203 10.233716,6.0813285 10.31875,6.0823159 c 0.08503,9.79e-4 0.297394,0.1839344 0.568441,0.4816245 0.271046,0.2976901 0.600962,0.7103943 0.91984,1.1694377 0.182813,0.2631699 0.327602,0.5497489 0.49041,0.830957 A 6.3499999,6.3499999 0 0 0 12.7,6.3499999 6.3499999,6.3499999 0 0 0 6.3499999,0 Z m 0,4.4979166 A 1.8520833,1.8520833 0 0 0 4.4979166,6.3499999 1.8520833,1.8520833 0 0 0 6.3499999,8.2020832 1.8520833,1.8520833 0 0 0 8.2020832,6.3499999 1.8520833,1.8520833 0 0 0 6.3499999,4.4979166 Z m 0,0.79375 A 1.0583332,1.0583332 0 0 1 7.4083332,6.3499999 1.0583332,1.0583332 0 0 1 6.3499999,7.4083332 1.0583332,1.0583332 0 0 1 5.2916666,6.3499999 1.0583332,1.0583332 0 0 1 6.3499999,5.2916666 Z M 10.31875,7.1406493 C 10.054167,7.1375692 8.202083,9.4143305 8.2020832,10.583333 8.2020835,11.752336 9.1497474,12.7 10.31875,12.7 c 1.169003,0 2.116667,-0.947664 2.116667,-2.116667 0,-1.1690025 -1.852084,-3.4396069 -2.116667,-3.4426837 z"
     id="path830" />
</svg>
