<?xml version="1.0" encoding="UTF-8" standalone="no"?>
<svg
   width="47.542679"
   height="47.546455"
   viewBox="0 0 12.579 12.58"
   version="1.1"
   id="svg4"
   sodipodi:docname="sparta.svg"
   inkscape:version="0.92.5 (2060ec1f9f, 2020-04-08)"
   xmlns:inkscape="http://www.inkscape.org/namespaces/inkscape"
   xmlns:sodipodi="http://sodipodi.sourceforge.net/DTD/sodipodi-0.dtd"
   xmlns="http://www.w3.org/2000/svg"
   xmlns:svg="http://www.w3.org/2000/svg"
   xmlns:rdf="http://www.w3.org/1999/02/22-rdf-syntax-ns#"
   xmlns:cc="http://creativecommons.org/ns#"
   xmlns:dc="http://purl.org/dc/elements/1.1/">
  <metadata
     id="metadata10">
    <rdf:RDF>
      <cc:Work
         rdf:about="">
        <dc:format>image/svg+xml</dc:format>
        <dc:type
           rdf:resource="http://purl.org/dc/dcmitype/StillImage" />
        <dc:title />
      </cc:Work>
    </rdf:RDF>
  </metadata>
  <defs
     id="defs8" />
  <sodipodi:namedview
     pagecolor="#ffffff"
     bordercolor="#666666"
     borderopacity="1"
     objecttolerance="10"
     gridtolerance="10"
     guidetolerance="10"
     inkscape:pageopacity="0"
     inkscape:pageshadow="2"
     inkscape:window-width="1085"
     inkscape:window-height="480"
     id="namedview6"
     showgrid="false"
     inkscape:zoom="4.9166667"
     inkscape:cx="2.1355932"
     inkscape:cy="24"
     inkscape:window-x="0"
     inkscape:window-y="25"
     inkscape:window-maximized="0"
     inkscape:current-layer="svg4"
     inkscape:showpageshadow="0"
     inkscape:pagecheckerboard="0"
     inkscape:deskcolor="#d1d1d1" />
  <path
     d="M 6.285,0 A 6.295,6.295 0 0 0 0,6.285 6.295,6.295 0 0 0 2.93,11.595 C 3.062,11.377 3.194,11.159 3.25,10.942 3.262,10.9 3.255,10.858 3.264,10.816 A 5.407,5.407 0 0 1 0.857,6.327 C 0.857,3.34 3.287,0.94 6.274,0.94 a 5.408,5.408 0 0 1 5.397,5.387 5.407,5.407 0 0 1 -0.833,2.87 5.407,5.407 0 0 1 -0.052,0.087 5.407,5.407 0 0 1 -3.592,2.369 c -0.12,0.065 -0.199,0.13 -0.327,0.195 -0.47,0.235 -1.036,0.444 -1.616,0.644 A 6.295,6.295 0 0 0 6.285,12.58 6.295,6.295 0 0 0 12.579,6.285 6.295,6.295 0 0 0 6.285,0 Z M 6.301,1.647 C 5.586,1.647 5.005,1.73 4.607,1.928 5.224,2.132 5.682,2.531 6.041,3.05 v 0.757 a 2.91,2.91 0 0 0 -1.086,0.86 4.969,4.969 0 0 1 -0.94,-1.21 v 3.76 L 3.378,9.148 4.065,8.764 C 3.955,9.829 4.438,10.894 3.631,11.958 4.675,11.304 4.11,9.362 4.284,8.011 L 4.439,7.743 C 4.243,6.829 5.196,6.699 5.751,6.898 7.348,7.47 6.413,7.806 5.015,8.087 4.81,9.461 4.99,10.758 4.287,12.232 7.312,11.307 8.993,9.628 9.103,9.307 9.168,9.117 8.659,8.827 8.503,8.512 c 0.612,-0.076 1.2,0.07 1.77,0.373 V 7.23 c -0.007,0.05 -0.099,0.106 -0.231,0.152 a 3.79,3.79 0 0 0 0.094,-0.921 c 0,-0.233 -0.027,-0.46 -0.078,-0.678 C 10.098,4.74 9.91,2.793 7.61,1.802 7.622,1.802 8.15,2.489 7.507,2.555 6.799,2.627 6.894,1.693 7.06,1.675 6.793,1.658 6.54,1.648 6.302,1.647 Z"
     id="path2"
     inkscape:connector-curvature="0"
     style="fill:#bde6fb;fill-opacity:1" />
</svg>
