<?xml version="1.0" encoding="UTF-8" standalone="no"?>
<svg
   width="47.546455"
   height="47.542679"
   viewBox="0 0 12.58 12.579"
   version="1.1"
   id="svg6"
   sodipodi:docname="spotify-client.svg"
   inkscape:version="0.92.4 (5da689c313, 2019-01-14)"
   xmlns:inkscape="http://www.inkscape.org/namespaces/inkscape"
   xmlns:sodipodi="http://sodipodi.sourceforge.net/DTD/sodipodi-0.dtd"
   xmlns="http://www.w3.org/2000/svg"
   xmlns:svg="http://www.w3.org/2000/svg"
   xmlns:rdf="http://www.w3.org/1999/02/22-rdf-syntax-ns#"
   xmlns:cc="http://creativecommons.org/ns#"
   xmlns:dc="http://purl.org/dc/elements/1.1/">
  <metadata
     id="metadata12">
    <rdf:RDF>
      <cc:Work
         rdf:about="">
        <dc:format>image/svg+xml</dc:format>
        <dc:type
           rdf:resource="http://purl.org/dc/dcmitype/StillImage" />
        <dc:title />
      </cc:Work>
    </rdf:RDF>
  </metadata>
  <defs
     id="defs10" />
  <sodipodi:namedview
     pagecolor="#ffffff"
     bordercolor="#666666"
     borderopacity="1"
     objecttolerance="10"
     gridtolerance="10"
     guidetolerance="10"
     inkscape:pageopacity="0"
     inkscape:pageshadow="2"
     inkscape:window-width="1087"
     inkscape:window-height="480"
     id="namedview8"
     showgrid="false"
     inkscape:zoom="4.9166667"
     inkscape:cx="2.1355932"
     inkscape:cy="24"
     inkscape:window-x="0"
     inkscape:window-y="25"
     inkscape:window-maximized="0"
     inkscape:current-layer="svg6"
     inkscape:showpageshadow="0"
     inkscape:pagecheckerboard="0"
     inkscape:deskcolor="#d1d1d1" />
  <path
     d="M 6.296,1.773 A 4.498,4.481 0 0 0 1.798,6.254 4.498,4.481 0 0 0 6.296,10.736 4.498,4.481 0 0 0 10.794,6.254 4.498,4.481 0 0 0 6.296,1.774 Z m -0.81,2.008 v 0.006 c 0.707,0 1.438,0.072 2.114,0.217 A 6.818,6.818 0 0 1 9.162,4.532 C 9.443,4.669 9.549,4.746 9.6,4.855 A 0.5,0.5 0 0 1 9.607,5.197 0.453,0.453 0 0 1 9.118,5.447 3.017,3.017 0 0 1 8.749,5.285 C 8.094,4.966 7.416,4.785 6.467,4.676 6.117,4.636 5.02,4.63 4.673,4.665 A 7.795,7.795 0 0 0 3.667,4.837 C 3.395,4.907 3.315,4.909 3.191,4.842 A 0.395,0.395 0 0 1 2.958,4.468 C 2.958,4.332 3.002,4.238 3.104,4.152 3.188,4.082 3.21,4.072 3.51,3.998 A 8.367,8.367 0 0 1 5.485,3.781 Z m -0.16,1.675 v 0.002 h 0.413 c 0.286,0.005 0.57,0.02 0.71,0.04 0.817,0.12 1.504,0.345 2.13,0.694 0.379,0.21 0.46,0.291 0.493,0.483 0.038,0.22 -0.154,0.449 -0.374,0.45 A 0.905,0.905 0 0 1 8.465,7.015 C 7.726,6.581 7.085,6.367 6.214,6.267 A 5.044,5.044 0 0 0 5.473,6.244 C 4.93,6.257 4.632,6.294 4.187,6.418 A 2.622,2.622 0 0 1 3.853,6.495 C 3.77,6.495 3.625,6.408 3.576,6.329 3.449,6.123 3.522,5.844 3.729,5.744 3.925,5.649 4.543,5.518 5.019,5.47 5.092,5.46 5.2,5.457 5.326,5.456 Z m 0.194,1.67 v 10e-4 c 0.1,-10e-4 0.216,0 0.33,0.001 a 4.3,4.3 0 0 1 0.569,0.04 c 0.653,0.12 1.203,0.344 1.704,0.693 0.302,0.21 0.367,0.291 0.394,0.483 0.03,0.22 -0.123,0.45 -0.299,0.45 A 0.664,0.664 0 0 1 8.031,8.685 C 7.44,8.25 6.927,8.036 6.23,7.935 A 3.239,3.239 0 0 0 5.637,7.914 C 5.202,7.926 4.965,7.964 4.609,8.087 A 1.774,1.774 0 0 1 4.341,8.165 C 4.275,8.165 4.159,8.078 4.12,7.999 4.018,7.793 4.076,7.514 4.241,7.414 4.398,7.319 4.893,7.188 5.274,7.14 5.333,7.13 5.419,7.127 5.52,7.126 Z"
     id="path2"
     inkscape:connector-curvature="0"
     style="opacity:0.75;fill:#008000" />
  <path
     d="M 6.29,9.9999565e-4 A 6.29,6.29 0 0 0 0,6.291 6.29,6.29 0 0 0 6.29,12.579 6.29,6.29 0 0 0 12.58,6.29 6.29,6.29 0 0 0 6.29,0 Z M 6.272,0.937 A 5.407,5.407 0 0 1 11.679,6.344 5.407,5.407 0 0 1 6.272,11.751 5.407,5.407 0 0 1 0.866,6.344 5.407,5.407 0 0 1 6.272,0.938 Z"
     id="path4"
     inkscape:connector-curvature="0"
     style="fill:#bde6fb;fill-opacity:1" />
</svg>
