<?xml version="1.0" encoding="UTF-8" standalone="no"?>
<svg
   width="47.546486"
   height="47.546486"
   viewBox="0 0 12.580008 12.580008"
   version="1.1"
   id="svg4"
   sodipodi:docname="sqldict.svg"
   inkscape:version="0.92.5 (2060ec1f9f, 2020-04-08)"
   xmlns:inkscape="http://www.inkscape.org/namespaces/inkscape"
   xmlns:sodipodi="http://sodipodi.sourceforge.net/DTD/sodipodi-0.dtd"
   xmlns="http://www.w3.org/2000/svg"
   xmlns:svg="http://www.w3.org/2000/svg"
   xmlns:rdf="http://www.w3.org/1999/02/22-rdf-syntax-ns#"
   xmlns:cc="http://creativecommons.org/ns#"
   xmlns:dc="http://purl.org/dc/elements/1.1/">
  <metadata
     id="metadata10">
    <rdf:RDF>
      <cc:Work
         rdf:about="">
        <dc:format>image/svg+xml</dc:format>
        <dc:type
           rdf:resource="http://purl.org/dc/dcmitype/StillImage" />
        <dc:title />
      </cc:Work>
    </rdf:RDF>
  </metadata>
  <defs
     id="defs8" />
  <sodipodi:namedview
     pagecolor="#ffffff"
     bordercolor="#666666"
     borderopacity="1"
     objecttolerance="10"
     gridtolerance="10"
     guidetolerance="10"
     inkscape:pageopacity="0"
     inkscape:pageshadow="2"
     inkscape:window-width="1085"
     inkscape:window-height="480"
     id="namedview6"
     showgrid="false"
     inkscape:zoom="4.9166667"
     inkscape:cx="2.1355932"
     inkscape:cy="24"
     inkscape:window-x="0"
     inkscape:window-y="25"
     inkscape:window-maximized="0"
     inkscape:current-layer="svg4"
     inkscape:showpageshadow="0"
     inkscape:pagecheckerboard="0"
     inkscape:deskcolor="#d1d1d1" />
  <path
     d="M 6.2900079,0 A 6.29,6.29 0 0 0 7.9490244e-6,6.3 6.29,6.29 0 0 0 6.3000079,12.58 6.29,6.29 0 0 0 12.580008,6.29 6.29,6.29 0 0 0 6.2900079,0 Z m -0.02,0.93 0.01,0.01 a 5.4,5.4 0 0 1 5.4000001,5.4 5.4,5.4 0 0 1 -0.02,0.42 H 9.5100079 v -4 a 0.4,0.4 0 0 0 -0.4,-0.4 h -5.63 a 0.4,0.4 0 0 0 -0.4,0.4 v 4 H 0.88600795 a 5.4,5.4 0 0 1 -0.016,-0.41 5.4,5.4 0 0 1 5.39999995,-5.42 z m -1.73,1.99 h 2.59 v 2.74 l 0.5,-0.3 0.5,0.3 V 2.93 h 0.46 c 0.18,0 0.33,0.16 0.33,0.35 v 3.48 h -4.38 z m -0.5,4.409 c 0.253,0 0.527,0.053 0.733,0.145 l -0.17,0.491 a 1.906,1.906 0 0 0 -0.594,-0.096 c -0.242,0 -0.38,0.067 -0.38,0.192 0,0.366 1.219,0.093 1.219,1 0,0.493 -0.363,0.806 -1.017,0.806 -0.306,0 -0.633,-0.082 -0.885,-0.195 l 0.17,-0.505 c 0.246,0.103 0.516,0.145 0.74,0.145 0.238,0 0.344,-0.064 0.344,-0.177 0,-0.38 -1.211,-0.143 -1.211,-0.982 0,-0.497 0.426,-0.824 1.052,-0.824 z m 2.315,0 c 0.746,0 1.244,0.501 1.244,1.255 0,0.323 -0.088,0.6 -0.248,0.814 l 0.312,0.298 -0.384,0.36 -0.337,-0.324 a 1.409,1.409 0 0 1 -0.626,0.135 c -0.74,0 -1.234,-0.497 -1.234,-1.248 0,-0.775 0.508,-1.29 1.273,-1.29 z m 1.664,0.035 h 0.615 v 1.924 h 1.02 V 9.83 h -1.634 V 7.364 Z m -1.703,0.498 c -0.377,0 -0.601,0.267 -0.601,0.722 0,0.473 0.238,0.75 0.64,0.75 a 0.755,0.755 0 0 0 0.156,-0.018 l -0.373,-0.356 0.37,-0.366 0.398,0.38 c 0.04,-0.1 0.06,-0.22 0.06,-0.355 0,-0.476 -0.241,-0.757 -0.65,-0.757 z m 5.8170001,2.566 -0.028,0.073 h 0.028 z m -9.3150001,0.073 h 6.91 a 5.4,5.4 0 0 1 -3.448,1.249 5.4,5.4 0 0 1 -3.462,-1.25 z"
     id="path2"
     inkscape:connector-curvature="0"
     style="fill:#bde6fb;fill-opacity:1" />
</svg>
