<?xml version="1.0" encoding="UTF-8" standalone="no"?>
<svg
   width="47.542679"
   height="47.546455"
   viewBox="0 0 12.579 12.58"
   version="1.1"
   id="svg4"
   sodipodi:docname="sqlmap.svg"
   inkscape:version="0.92.5 (2060ec1f9f, 2020-04-08)"
   xmlns:inkscape="http://www.inkscape.org/namespaces/inkscape"
   xmlns:sodipodi="http://sodipodi.sourceforge.net/DTD/sodipodi-0.dtd"
   xmlns="http://www.w3.org/2000/svg"
   xmlns:svg="http://www.w3.org/2000/svg"
   xmlns:rdf="http://www.w3.org/1999/02/22-rdf-syntax-ns#"
   xmlns:cc="http://creativecommons.org/ns#"
   xmlns:dc="http://purl.org/dc/elements/1.1/">
  <metadata
     id="metadata10">
    <rdf:RDF>
      <cc:Work
         rdf:about="">
        <dc:format>image/svg+xml</dc:format>
        <dc:type
           rdf:resource="http://purl.org/dc/dcmitype/StillImage" />
        <dc:title />
      </cc:Work>
    </rdf:RDF>
  </metadata>
  <defs
     id="defs8" />
  <sodipodi:namedview
     pagecolor="#ffffff"
     bordercolor="#666666"
     borderopacity="1"
     objecttolerance="10"
     gridtolerance="10"
     guidetolerance="10"
     inkscape:pageopacity="0"
     inkscape:pageshadow="2"
     inkscape:window-width="1085"
     inkscape:window-height="480"
     id="namedview6"
     showgrid="false"
     inkscape:zoom="4.9166667"
     inkscape:cx="2.1355932"
     inkscape:cy="24"
     inkscape:window-x="0"
     inkscape:window-y="25"
     inkscape:window-maximized="0"
     inkscape:current-layer="svg4"
     inkscape:showpageshadow="0"
     inkscape:pagecheckerboard="0"
     inkscape:deskcolor="#d1d1d1" />
  <path
     d="M 6.285,0 A 6.295,6.295 0 0 0 0,6.285 6.295,6.295 0 0 0 6.285,12.58 6.295,6.295 0 0 0 12.579,6.285 6.295,6.295 0 0 0 6.285,0 Z M 6.274,0.94 a 5.408,5.408 0 0 1 5.397,5.387 5.407,5.407 0 0 1 -10.814,0 C 0.857,3.34 3.287,0.94 6.274,0.94 Z m 2.528,1.827 v 0.26 h 0.78 v -0.26 z m -0.52,0.52 v 1.04 h 0.26 v -1.04 z m 1.56,0 v 1.04 h 0.26 v -1.04 z m -7.277,1.04 v 0.26 h 2.338 v -0.26 z m 3.118,0 v 0.26 H 8.022 V 4.327 H 5.682 Z M 2.045,4.845 v 1.04 h 0.26 v -1.04 z m 3.118,0 v 1.04 h 0.26 v -1.04 z m 3.118,0 v 1.04 h 0.26 v -1.04 z m 1.56,0 v 1.04 h 0.26 v -1.04 z m -5.717,0.52 v 0.26 h 0.779 v -0.26 h -0.78 z m 2.598,0.26 v 0.26 h -0.26 v 0.26 h 0.26 v 0.259 h 0.26 v -0.26 h 0.26 V 5.884 H 6.982 V 5.625 Z m -4.157,0.26 v 0.26 h 0.78 v -0.26 z m -0.52,0.519 v 1.04 h 0.26 V 6.405 h -0.26 z m 3.118,0 v 1.04 h 0.26 V 6.405 h -0.26 z m 3.118,0 v 1.04 h 0.26 V 6.405 h -0.26 z m 1.559,0 v 1.04 H 10.1 V 6.405 H 9.84 Z m -7.275,1.3 v 0.26 h 2.338 v -0.26 z m 3.118,0 v 0.26 h 0.779 v -0.26 h -0.78 z m 3.118,0 v 0.26 h 0.78 v -0.26 z m -2.08,0.519 v 1.04 h 0.26 v -1.04 z m 1.56,0 v 1.04 h 0.26 v -1.04 z m -1.04,1.3 v 0.259 h 0.78 v -0.26 h -0.78 z"
     id="path2"
     inkscape:connector-curvature="0"
     style="fill:#bde6fb;fill-opacity:1" />
</svg>
