<?xml version="1.0" encoding="UTF-8" standalone="no"?>
<svg
   width="47.542679"
   height="47.546455"
   viewBox="0 0 12.579 12.58"
   version="1.1"
   id="svg4"
   sodipodi:docname="sqlninja.svg"
   inkscape:version="0.92.5 (2060ec1f9f, 2020-04-08)"
   xmlns:inkscape="http://www.inkscape.org/namespaces/inkscape"
   xmlns:sodipodi="http://sodipodi.sourceforge.net/DTD/sodipodi-0.dtd"
   xmlns="http://www.w3.org/2000/svg"
   xmlns:svg="http://www.w3.org/2000/svg"
   xmlns:rdf="http://www.w3.org/1999/02/22-rdf-syntax-ns#"
   xmlns:cc="http://creativecommons.org/ns#"
   xmlns:dc="http://purl.org/dc/elements/1.1/">
  <metadata
     id="metadata10">
    <rdf:RDF>
      <cc:Work
         rdf:about="">
        <dc:format>image/svg+xml</dc:format>
        <dc:type
           rdf:resource="http://purl.org/dc/dcmitype/StillImage" />
        <dc:title />
      </cc:Work>
    </rdf:RDF>
  </metadata>
  <defs
     id="defs8" />
  <sodipodi:namedview
     pagecolor="#ffffff"
     bordercolor="#666666"
     borderopacity="1"
     objecttolerance="10"
     gridtolerance="10"
     guidetolerance="10"
     inkscape:pageopacity="0"
     inkscape:pageshadow="2"
     inkscape:window-width="1085"
     inkscape:window-height="480"
     id="namedview6"
     showgrid="false"
     inkscape:zoom="4.9166667"
     inkscape:cx="2.1355932"
     inkscape:cy="24"
     inkscape:window-x="0"
     inkscape:window-y="25"
     inkscape:window-maximized="0"
     inkscape:current-layer="svg4"
     inkscape:showpageshadow="0"
     inkscape:pagecheckerboard="0"
     inkscape:deskcolor="#d1d1d1" />
  <path
     d="M 6.285,0 A 6.295,6.295 0 0 0 0,6.285 6.295,6.295 0 0 0 6.285,12.58 6.295,6.295 0 0 0 12.579,6.285 6.295,6.295 0 0 0 6.285,0 Z M 6.274,0.94 a 5.408,5.408 0 0 1 5.397,5.387 5.407,5.407 0 0 1 -10.814,0 C 0.857,3.34 3.287,0.94 6.274,0.94 Z M 7.373,4.165 7.021,4.19 C 6.228,4.247 6.116,4.263 6.197,4.31 6.265,4.351 6.247,4.368 6.025,4.48 5.374,4.81 5.035,5.494 5.152,6.247 5.249,6.807 5.784,7.4 6.429,7.679 L 6.004,7.931 C 6.334,7.909 6.754,7.871 7.119,7.737 L 7.32,8.383 C 7.597,8.279 7.796,8.208 8.051,8.1 8.079,8.057 7.709,7.557 7.626,7.452 8.105,6.973 8.283,6.712 8.273,6.028 8.265,5.394 7.818,4.578 7.033,4.35 Z M 2.138,4.247 C 2.038,4.259 1.858,4.701 1.755,4.784 1.475,5.107 1.511,5.566 1.833,5.789 2.513,6.235 3.763,5.775 3.911,6.689 3.899,7.353 2.059,7.302 1.602,7.37 2.062,8.503 4.586,7.888 5.107,7.136 5.121,7.114 5.084,7.046 5.026,6.986 4.95,6.906 4.927,6.852 4.946,6.793 A 0.862,0.862 0 0 0 4.926,6.491 C 4.862,6.181 4.643,5.965 4.277,5.851 4.051,5.782 3.917,5.82 3.423,5.775 L 2.816,5.72 C 2.743,5.635 2.701,5.635 2.659,5.536 2.659,5.515 2.835,5.499 3.061,5.499 3.567,5.496 4.581,5.241 4.945,4.679 4.333,4.686 3.775,4.976 3.069,4.733 3.293,4.643 3.567,4.589 3.813,4.52 3.84,4.328 2.243,4.564 2.138,4.247 Z m 7.473,0 C 9.569,4.247 8.372,4.673 8.336,4.701 8.537,5.527 9.03,6.099 8.768,7.094 8.723,7.334 8.65,7.438 8.351,7.631 8.611,7.652 8.65,7.581 8.581,7.919 8.558,8 8.563,8.007 8.629,7.971 9.206,7.625 9.868,7.46 10.769,7.924 c 0.034,0 0.09,-0.166 0.17,-0.505 0.14,-0.603 0.195,-0.55 -0.563,-0.55 -0.252,0 -0.602,0.024 -0.936,0.142 C 9.637,6.154 9.905,5.392 9.68,4.374 9.668,4.304 9.636,4.247 9.61,4.247 Z M 6.677,4.622 C 7,5.062 7.183,5.306 7.264,5.91 A 1.86,1.86 0 0 1 7.101,6.856 C 7.008,7.058 7.006,7.059 6.877,7.022 6.714,6.978 6.537,6.987 6.368,6.985 6.525,7.109 6.645,7.196 6.782,7.33 6.786,7.452 6.66,7.525 6.56,7.369 6.286,7.004 6.142,6.536 6.141,6.004 6.145,5.574 6.33,5.022 6.677,4.622 Z"
     id="path2"
     inkscape:connector-curvature="0"
     style="fill:#bde6fb;fill-opacity:1" />
</svg>
