<?xml version="1.0" encoding="UTF-8" standalone="no"?>
<svg
   width="48"
   height="48"
   viewBox="0 0 12.7 12.7"
   version="1.1"
   id="svg4"
   sodipodi:docname="sqlsus.svg"
   inkscape:version="0.92.5 (2060ec1f9f, 2020-04-08)"
   xmlns:inkscape="http://www.inkscape.org/namespaces/inkscape"
   xmlns:sodipodi="http://sodipodi.sourceforge.net/DTD/sodipodi-0.dtd"
   xmlns="http://www.w3.org/2000/svg"
   xmlns:svg="http://www.w3.org/2000/svg">
  <sodipodi:namedview
     id="namedview1"
     pagecolor="#505050"
     bordercolor="#eeeeee"
     borderopacity="1"
     inkscape:showpageshadow="0"
     inkscape:pageopacity="0"
     inkscape:pagecheckerboard="0"
     inkscape:deskcolor="#d1d1d1" />
  <defs
     id="defs8">
    <style
       id="current-color-scheme"
       type="text/css">&#10;      .ColorScheme-Highlight {&#10;        color:#1e3f5a;&#10;      }&#10;  </style>
  </defs>
  <path
     class="ColorScheme-Highlight"
     style="fill:#bde6fb;fill-opacity:1;stroke-width:0.264583"
     d="M 6.3499999,0 A 6.3499999,6.3499999 0 0 0 0,6.3499999 6.3499999,6.3499999 0 0 0 6.3499999,12.7 6.3499999,6.3499999 0 0 0 9.6717611,11.752771 L 9.092985,11.173995 A 5.5562499,5.5562499 0 0 1 6.3499999,11.90625 5.5562499,5.5562499 0 0 1 0.79374999,6.3499999 5.5562499,5.5562499 0 0 1 6.3499999,0.79374999 5.5562499,5.5562499 0 0 1 11.90625,6.3499999 5.5562499,5.5562499 0 0 1 10.866003,9.5792601 l 0.566891,0.5663739 A 6.3499999,6.3499999 0 0 0 12.7,6.3499999 6.3499999,6.3499999 0 0 0 6.3499999,0 Z m 0,2.6458333 A 3.175,0.79374999 0 0 0 3.175,3.4395833 v 1.0583333 a 3.175,0.79374999 0 0 0 3.1749999,0.79375 3.175,0.79374999 0 0 0 3.175,-0.79375 V 3.4395833 a 3.175,0.79374999 0 0 0 -3.175,-0.79375 z M 3.175,5.0270833 V 6.0854166 A 3.175,0.79374999 0 0 0 5.446696,6.8455769 L 6.4724732,5.8197998 A 3.175,0.79374999 0 0 1 6.3499999,5.8208333 3.175,0.79374999 0 0 1 6.0332233,5.8166978 3.175,0.79374999 0 0 1 5.7190306,5.8048127 3.175,0.79374999 0 0 1 5.4115559,5.7851754 3.175,0.79374999 0 0 1 5.1133829,5.7583038 3.175,0.79374999 0 0 1 4.8276123,5.7236804 3.175,0.79374999 0 0 1 4.5573444,5.6823392 3.175,0.79374999 0 0 1 4.3046467,5.6342803 3.175,0.79374999 0 0 1 4.0726195,5.5800201 3.175,0.79374999 0 0 1 3.8628132,5.520592 3.175,0.79374999 0 0 1 3.6783285,5.4559967 3.175,0.79374999 0 0 1 3.5201987,5.387268 3.175,0.79374999 0 0 1 3.3910074,5.3149211 3.175,0.79374999 0 0 1 3.2907552,5.2394733 3.175,0.79374999 0 0 1 3.220992,5.1619589 3.175,0.79374999 0 0 1 3.1827515,5.0834107 3.175,0.79374999 0 0 1 3.175,5.0270833 Z m 6.3499999,0 a 3.175,0.79374999 0 0 1 -0.01602,0.079065 3.175,0.79374999 0 0 1 -0.047026,0.078548 3.175,0.79374999 0 0 1 -0.078548,0.076998 3.175,0.79374999 0 0 1 -0.1090374,0.074414 3.175,0.79374999 0 0 1 -0.137976,0.071313 A 3.175,0.79374999 0 0 1 8.970511,5.4751178 3.175,0.79374999 0 0 1 8.7782745,5.53868 3.175,0.79374999 0 0 1 8.5622671,5.5965576 3.175,0.79374999 0 0 1 8.323522,5.6487506 3.175,0.79374999 0 0 1 8.0656567,5.6947429 3.175,0.79374999 0 0 1 7.7902212,5.7345336 3.175,0.79374999 0 0 1 7.5003164,5.7670898 3.175,0.79374999 0 0 1 7.1995598,5.7918945 3.175,0.79374999 0 0 1 7.0858715,5.7986122 L 7.7251091,6.4378495 7.5380402,6.6249181 7.7142569,6.8011349 a 3.175,0.79374999 0 0 0 0.024806,-0.0031 L 8.2863157,6.2507812 8.6635539,6.6280191 A 3.175,0.79374999 0 0 0 9.5249999,6.0854166 Z M 6.7897663,6.2507812 5.8539062,7.1866412 6.0409748,7.3737101 6.2280434,7.1866412 7.1639038,8.1219849 6.6021809,8.6831907 6.7897663,8.8702596 7.1639038,8.4961221 10.157003,11.489221 10.53114,11.115084 11.923303,12.342399 10.718209,10.928015 11.092346,10.553878 8.0992471,7.5607787 8.4733846,7.1866412 8.2863157,6.9990559 7.7251099,7.5607787 6.7897663,6.6249184 6.9768351,6.4378498 Z M 3.175,6.6145833 V 7.6729166 A 3.175,0.79374999 0 0 0 6.0740477,8.4630492 L 6.4151123,8.1219849 6.2280434,7.934916 6.0409748,8.1219849 5.279781,7.3607908 A 3.175,0.79374999 0 0 1 5.1133829,7.3458048 3.175,0.79374999 0 0 1 4.8276123,7.3111814 3.175,0.79374999 0 0 1 4.5573444,7.2698403 3.175,0.79374999 0 0 1 4.3046467,7.2217814 3.175,0.79374999 0 0 1 4.0726195,7.1675211 3.175,0.79374999 0 0 1 3.8628132,7.1080931 3.175,0.79374999 0 0 1 3.6783285,7.0434977 3.175,0.79374999 0 0 1 3.5201987,6.9747679 3.175,0.79374999 0 0 1 3.3910074,6.9024211 3.175,0.79374999 0 0 1 3.2907552,6.8269733 3.175,0.79374999 0 0 1 3.220992,6.7494588 3.175,0.79374999 0 0 1 3.1827515,6.6709107 3.175,0.79374999 0 0 1 3.175,6.6145833 Z m 6.3499999,0 a 3.175,0.79374999 0 0 1 -0.01602,0.079065 3.175,0.79374999 0 0 1 -0.047026,0.078548 3.175,0.79374999 0 0 1 -0.078548,0.076998 3.175,0.79374999 0 0 1 -0.1090374,0.074414 3.175,0.79374999 0 0 1 -0.137976,0.071313 3.175,0.79374999 0 0 1 -0.075448,0.030489 L 9.2392285,7.2036944 8.865091,7.5783487 9.2697174,7.9829752 A 3.175,0.79374999 0 0 0 9.5249999,7.6729166 Z M 3.175,8.2020832 V 9.2604166 A 3.175,0.79374999 0 0 0 6.3499999,10.054167 3.175,0.79374999 0 0 0 7.8760049,9.956498 L 7.1814737,9.2619667 6.8068194,9.6361042 6.1639648,8.9932493 A 3.175,0.79374999 0 0 1 6.0332233,8.9916883 3.175,0.79374999 0 0 1 5.7190306,8.9798032 3.175,0.79374999 0 0 1 5.4115559,8.9601658 3.175,0.79374999 0 0 1 5.1133829,8.9332942 3.175,0.79374999 0 0 1 4.8276123,8.8986708 3.175,0.79374999 0 0 1 4.5573444,8.8573297 3.175,0.79374999 0 0 1 4.3046467,8.8092708 3.175,0.79374999 0 0 1 4.0726195,8.7550105 3.175,0.79374999 0 0 1 3.8628132,8.6955825 3.175,0.79374999 0 0 1 3.6783285,8.6309871 3.175,0.79374999 0 0 1 3.5201987,8.5622679 3.175,0.79374999 0 0 1 3.3910074,8.4899211 3.175,0.79374999 0 0 1 3.2907552,8.4144733 3.175,0.79374999 0 0 1 3.220992,8.3369588 3.175,0.79374999 0 0 1 3.1827515,8.2584106 3.175,0.79374999 0 0 1 3.175,8.2020832 Z m 6.3499999,0 a 3.175,0.79374999 0 0 1 -0.0062,0.029972 l 0.0062,0.0062 z"
     id="path901" />
</svg>
