<?xml version="1.0" encoding="UTF-8" standalone="no"?>
<svg
   width="47.546486"
   height="47.546486"
   viewBox="0 0 12.580008 12.580008"
   version="1.1"
   id="svg4"
   sodipodi:docname="stacer.svg"
   inkscape:version="0.92.4 (5da689c313, 2019-01-14)"
   xmlns:inkscape="http://www.inkscape.org/namespaces/inkscape"
   xmlns:sodipodi="http://sodipodi.sourceforge.net/DTD/sodipodi-0.dtd"
   xmlns="http://www.w3.org/2000/svg"
   xmlns:svg="http://www.w3.org/2000/svg"
   xmlns:rdf="http://www.w3.org/1999/02/22-rdf-syntax-ns#"
   xmlns:cc="http://creativecommons.org/ns#"
   xmlns:dc="http://purl.org/dc/elements/1.1/">
  <metadata
     id="metadata10">
    <rdf:RDF>
      <cc:Work
         rdf:about="">
        <dc:format>image/svg+xml</dc:format>
        <dc:type
           rdf:resource="http://purl.org/dc/dcmitype/StillImage" />
        <dc:title />
      </cc:Work>
    </rdf:RDF>
  </metadata>
  <defs
     id="defs8" />
  <sodipodi:namedview
     pagecolor="#ffffff"
     bordercolor="#666666"
     borderopacity="1"
     objecttolerance="10"
     gridtolerance="10"
     guidetolerance="10"
     inkscape:pageopacity="0"
     inkscape:pageshadow="2"
     inkscape:window-width="1087"
     inkscape:window-height="480"
     id="namedview6"
     showgrid="false"
     inkscape:zoom="4.9166667"
     inkscape:cx="2.1355932"
     inkscape:cy="24"
     inkscape:window-x="0"
     inkscape:window-y="25"
     inkscape:window-maximized="0"
     inkscape:current-layer="svg4"
     inkscape:showpageshadow="0"
     inkscape:pagecheckerboard="0"
     inkscape:deskcolor="#d1d1d1" />
  <path
     d="M 6.2900079,0 A 6.29,6.29 0 0 0 7.9490244e-6,6.3 6.29,6.29 0 0 0 6.3000079,12.58 6.29,6.29 0 0 0 12.580008,6.29 6.29,6.29 0 0 0 6.2900079,0 Z m -0.02,0.93 0.01,0.01 A 5.4,5.4 0 0 1 11.680008,6.34 5.4,5.4 0 0 1 6.2800079,11.75 5.4,5.4 0 0 1 0.87000795,6.35 5.4,5.4 0 0 1 6.2700079,0.93 Z m 0.03,0.86 c -2.49,0 -4.49,2 -4.49,4.5 0,1.54 0.78,2.9 1.95,3.7 l 0.4,-0.57 a 3.8,3.8 0 0 1 -1.64,-2.83 h 1.03 V 5.97 h -1.03 c 0.06,-0.8 0.37,-1.54 0.86,-2.12 l 0.77,0.77 0.43,-0.44 -0.77,-0.77 c 0.6,-0.52 1.36,-0.86 2.2,-0.92 v 1.08 h 0.62 V 2.49 c 0.84,0.08 1.6,0.42 2.2,0.95 l -0.75,0.74 0.43,0.44 0.74,-0.74 c 0.47,0.58 0.7700001,1.3 0.8300001,2.1 H 9.0000079 v 0.6 H 10.080008 A 3.8,3.8 0 0 1 8.4500079,9.43 l 0.4,0.58 a 4.49,4.49 0 0 0 -2.54,-8.21 z m 0,3.8 a 0.7,0.7 0 1 0 0.4,1.25 l 1.8,1.52 a 0.17,0.17 0 0 0 0.24,-0.02 0.17,0.17 0 0 0 -0.02,-0.24 l -1.8,-1.52 a 0.69,0.69 0 0 0 -0.62,-0.99 z"
     id="path2"
     inkscape:connector-curvature="0"
     style="fill:#bde6fb;fill-opacity:1" />
</svg>
