<?xml version="1.0" encoding="UTF-8" standalone="no"?>
<svg
   width="47.546455"
   height="47.542679"
   viewBox="0 0 12.58 12.579"
   version="1.1"
   id="svg4"
   sodipodi:docname="steam.svg"
   inkscape:version="0.92.4 (5da689c313, 2019-01-14)"
   xmlns:inkscape="http://www.inkscape.org/namespaces/inkscape"
   xmlns:sodipodi="http://sodipodi.sourceforge.net/DTD/sodipodi-0.dtd"
   xmlns="http://www.w3.org/2000/svg"
   xmlns:svg="http://www.w3.org/2000/svg"
   xmlns:rdf="http://www.w3.org/1999/02/22-rdf-syntax-ns#"
   xmlns:cc="http://creativecommons.org/ns#"
   xmlns:dc="http://purl.org/dc/elements/1.1/">
  <metadata
     id="metadata10">
    <rdf:RDF>
      <cc:Work
         rdf:about="">
        <dc:format>image/svg+xml</dc:format>
        <dc:type
           rdf:resource="http://purl.org/dc/dcmitype/StillImage" />
        <dc:title />
      </cc:Work>
    </rdf:RDF>
  </metadata>
  <defs
     id="defs8" />
  <sodipodi:namedview
     pagecolor="#ffffff"
     bordercolor="#666666"
     borderopacity="1"
     objecttolerance="10"
     gridtolerance="10"
     guidetolerance="10"
     inkscape:pageopacity="0"
     inkscape:pageshadow="2"
     inkscape:window-width="1087"
     inkscape:window-height="480"
     id="namedview6"
     showgrid="false"
     inkscape:zoom="4.9166667"
     inkscape:cx="2.1355932"
     inkscape:cy="24"
     inkscape:window-x="0"
     inkscape:window-y="25"
     inkscape:window-maximized="0"
     inkscape:current-layer="svg4"
     inkscape:showpageshadow="0"
     inkscape:pagecheckerboard="0"
     inkscape:deskcolor="#d1d1d1" />
  <path
     d="M 6.29,9.9999565e-4 A 6.29,6.29 0 0 0 0,6.291 6.29,6.29 0 0 0 6.29,12.579 6.29,6.29 0 0 0 12.58,6.29 6.29,6.29 0 0 0 6.29,0 Z M 6.272,0.937 A 5.407,5.407 0 0 1 11.679,6.344 5.407,5.407 0 0 1 6.272,11.751 5.407,5.407 0 0 1 0.866,6.344 5.407,5.407 0 0 1 6.272,0.938 Z M 6.296,1.299 A 5.027,5.027 0 0 0 1.269,6.326 5.027,5.027 0 0 0 6.296,11.353 5.027,5.027 0 0 0 11.323,6.326 5.027,5.027 0 0 0 6.296,1.299 Z M 7.93,3.057 V 3.058 A 1.885,1.885 0 1 1 7.777,6.821 L 6.294,8.105 A 1.508,1.508 0 0 1 3.296,8.297 L 1.714,7.66 A 4.776,4.776 0 0 1 1.52,6.325 4.776,4.776 0 0 1 1.539,5.964 L 3.863,6.899 C 4.117,6.701 4.431,6.582 4.767,6.578 4.844,6.488 5.727,5.49 6.052,5.094 A 1.885,1.885 0 0 1 7.93,3.058 Z m 0,0.756 a 1.1305,1.1305 0 1 0 0,2.261 1.1305,1.1305 0 0 0 0,-2.261 z m 0,0.25 A 0.88,0.88 0 0 1 8.81,4.943 0.88,0.88 0 0 1 7.93,5.823 0.88,0.88 0 0 1 7.05,4.943 0.88,0.88 0 0 1 7.93,4.063 Z M 4.8,7.08 C 4.68,7.08 4.564,7.1 4.455,7.139 l 0.614,0.247 a 0.754,0.754 0 0 1 0.418,0.98 0.754,0.754 0 0 1 -0.98,0.419 L 3.895,8.539 c 0.106,0.21 0.282,0.384 0.517,0.479 A 1.005,1.005 0 1 0 4.799,7.08 Z"
     id="path2"
     inkscape:connector-curvature="0"
     style="fill:#bde6fb;fill-opacity:1" />
</svg>
