<?xml version="1.0" encoding="UTF-8" standalone="no"?>
<svg
   width="47.546486"
   height="47.546486"
   viewBox="0 0 12.580008 12.580008"
   version="1.1"
   id="svg16"
   sodipodi:docname="step.svg"
   inkscape:version="0.92.4 (5da689c313, 2019-01-14)"
   xmlns:inkscape="http://www.inkscape.org/namespaces/inkscape"
   xmlns:sodipodi="http://sodipodi.sourceforge.net/DTD/sodipodi-0.dtd"
   xmlns="http://www.w3.org/2000/svg"
   xmlns:svg="http://www.w3.org/2000/svg"
   xmlns:rdf="http://www.w3.org/1999/02/22-rdf-syntax-ns#"
   xmlns:cc="http://creativecommons.org/ns#"
   xmlns:dc="http://purl.org/dc/elements/1.1/">
  <metadata
     id="metadata20">
    <rdf:RDF>
      <cc:Work
         rdf:about="">
        <dc:format>image/svg+xml</dc:format>
        <dc:type
           rdf:resource="http://purl.org/dc/dcmitype/StillImage" />
        <dc:title />
      </cc:Work>
    </rdf:RDF>
  </metadata>
  <sodipodi:namedview
     pagecolor="#ffffff"
     bordercolor="#666666"
     borderopacity="1"
     objecttolerance="10"
     gridtolerance="10"
     guidetolerance="10"
     inkscape:pageopacity="0"
     inkscape:pageshadow="2"
     inkscape:window-width="1087"
     inkscape:window-height="480"
     id="namedview18"
     showgrid="false"
     inkscape:zoom="4.9166667"
     inkscape:cx="2.1355932"
     inkscape:cy="24"
     inkscape:window-x="0"
     inkscape:window-y="25"
     inkscape:window-maximized="0"
     inkscape:current-layer="svg16"
     inkscape:showpageshadow="0"
     inkscape:pagecheckerboard="0"
     inkscape:deskcolor="#d1d1d1" />
  <defs
     id="defs12" />
  <path
     d="M 6.2900079,0 A 6.29,6.29 0 0 0 7.9490244e-6,6.3 6.29,6.29 0 0 0 6.3000079,12.58 6.29,6.29 0 0 0 12.580008,6.29 6.29,6.29 0 0 0 6.2900079,0 Z m -0.1,0.94 v 5.77 a 0.95,0.95 0 0 0 -0.8,0.94 0.95,0.95 0 0 0 0.95,0.96 0.95,0.95 0 0 0 0.95,-0.96 0.95,0.95 0 0 0 -0.77,-0.93 V 0.95 a 5.4,5.4 0 0 1 1.53,0.3 l 1.58,5.17 a 0.95,0.95 0 0 0 -0.46,0.55 0.95,0.95 0 0 0 0.61,1.2 0.95,0.95 0 0 0 1.2000001,-0.61 0.95,0.95 0 0 0 -0.6,-1.2 0.95,0.95 0 0 0 -0.4400001,-0.04 l -1.49,-4.93 A 5.4,5.4 0 0 1 11.690008,6.35 5.4,5.4 0 0 1 6.2900079,11.75 5.4,5.4 0 0 1 0.88000795,6.35 5.4,5.4 0 0 1 2.3900079,2.6 v 4.1 a 0.95,0.95 0 0 0 -0.81,0.95 0.95,0.95 0 0 0 0.95,0.96 0.95,0.95 0 0 0 0.96,-0.96 0.95,0.95 0 0 0 -0.78,-0.93 V 2.3 a 5.4,5.4 0 0 1 1.59,-0.98 v 5.39 a 0.95,0.95 0 0 0 -0.81,0.94 0.95,0.95 0 0 0 0.95,0.96 0.95,0.95 0 0 0 0.95,-0.96 0.95,0.95 0 0 0 -0.77,-0.93 v -5.5 a 5.4,5.4 0 0 1 1.58,-0.29 z"
     id="path14"
     inkscape:connector-curvature="0"
     style="fill:#bde6fb;fill-opacity:1" />
</svg>
