<?xml version="1.0" encoding="UTF-8" standalone="no"?>
<svg
   width="48"
   height="48"
   viewBox="0 0 12.7 12.7"
   version="1.1"
   id="svg4"
   sodipodi:docname="stock_xfburn-burn-cd.svg"
   inkscape:version="0.92.5 (2060ec1f9f, 2020-04-08)"
   xmlns:inkscape="http://www.inkscape.org/namespaces/inkscape"
   xmlns:sodipodi="http://sodipodi.sourceforge.net/DTD/sodipodi-0.dtd"
   xmlns="http://www.w3.org/2000/svg"
   xmlns:svg="http://www.w3.org/2000/svg">
  <sodipodi:namedview
     id="namedview1"
     pagecolor="#505050"
     bordercolor="#eeeeee"
     borderopacity="1"
     inkscape:showpageshadow="0"
     inkscape:pageopacity="0"
     inkscape:pagecheckerboard="0"
     inkscape:deskcolor="#d1d1d1" />
  <defs
     id="defs8">
    <style
       id="current-color-scheme"
       type="text/css">&#10;      .ColorScheme-Highlight {&#10;        color:#1e3f5a;&#10;      }&#10;  </style>
  </defs>
  <path
     class="ColorScheme-Highlight"
     style="fill:#bde6fb;fill-opacity:1;stroke-width:0.264583"
     d="M 6.3499999,0 A 6.3499999,6.3499999 0 0 0 0,6.3499999 6.3499999,6.3499999 0 0 0 6.3499999,12.7 6.3499999,6.3499999 0 0 0 7.4574259,12.596647 3.7041666,3.7041666 0 0 1 7.4336547,12.582178 3.7041666,3.7041666 0 0 1 7.1385823,12.357902 3.7041666,3.7041666 0 0 1 6.8677977,12.105721 3.7041666,3.7041666 0 0 1 6.6233682,11.827702 3.7041666,3.7041666 0 0 1 6.4078775,11.526428 3.7041666,3.7041666 0 0 1 6.2239096,11.205001 3.7041666,3.7041666 0 0 1 6.0724975,10.867037 3.7041666,3.7041666 0 0 1 5.9557088,10.515637 3.7041666,3.7041666 0 0 1 5.8745767,10.154419 3.7041666,3.7041666 0 0 1 5.830135,9.7869993 3.7041666,3.7041666 0 0 1 5.8208333,9.5249999 3.7041666,3.7041666 0 0 1 5.8363363,9.2123574 2.9104166,2.9104166 0 0 1 3.4395833,6.3499999 2.9104166,2.9104166 0 0 1 6.3499999,3.4395833 a 2.9104166,2.9104166 0 0 1 2.8639079,2.396753 3.7041666,3.7041666 0 0 1 0.049093,-0.0062 3.7041666,3.7041666 0 0 1 0.2619994,-0.0093 3.7041666,3.7041666 0 0 1 0.3700034,0.018603 3.7041666,3.7041666 0 0 1 0.3658684,0.055294 3.7041666,3.7041666 0 0 1 0.358635,0.091467 3.7041666,3.7041666 0 0 1 0.347782,0.1271241 3.7041666,3.7041666 0 0 1 0.33383,0.1607137 3.7041666,3.7041666 0 0 1 0.315226,0.1937864 3.7041666,3.7041666 0 0 1 0.295072,0.2242759 3.7041666,3.7041666 0 0 1 0.270785,0.252181 3.7041666,3.7041666 0 0 1 0.24443,0.2780192 3.7041666,3.7041666 0 0 1 0.173116,0.2418458 A 6.3499999,6.3499999 0 0 0 12.7,6.3499999 6.3499999,6.3499999 0 0 0 6.3499999,0 Z m 0,4.4979166 A 1.8520831,1.8520831 0 0 0 4.4979166,6.3499999 1.8520831,1.8520831 0 0 0 6.0776651,8.1803792 3.7041666,3.7041666 0 0 1 6.1133219,8.0827106 3.7041666,3.7041666 0 0 1 6.2740357,7.7488808 3.7041666,3.7041666 0 0 1 6.4678221,7.4336547 3.7041666,3.7041666 0 0 1 6.4957274,7.3969644 1.0583331,1.0583331 0 0 1 6.3499999,7.4083332 1.0583331,1.0583331 0 0 1 5.2916666,6.3499999 1.0583331,1.0583331 0 0 1 6.3499999,5.2916666 1.0583331,1.0583331 0 0 1 7.4083332,6.3499999 1.0583331,1.0583331 0 0 1 7.3964482,6.498828 3.7041666,3.7041666 0 0 1 7.5235722,6.4078775 3.7041666,3.7041666 0 0 1 7.8449997,6.2239096 3.7041666,3.7041666 0 0 1 8.179346,6.0740477 1.8520831,1.8520831 0 0 0 6.3499999,4.4979166 Z m 3.175,1.8520833 a 3.175,3.175 0 0 0 -3.175,3.175 A 3.175,3.175 0 0 0 9.5249999,12.7 3.175,3.175 0 0 0 12.7,9.5249999 3.175,3.175 0 0 0 9.5249999,6.3499999 Z M 10.847917,7.4083332 11.90625,8.4666666 11.377083,8.9958332 10.31875,7.9374999 Z m -0.79375,0.79375 L 11.1125,9.2604166 9.2604166,11.1125 8.2020832,10.054167 Z M 7.9374999,10.31875 8.9958332,11.377083 7.6729166,11.641667 Z"
     id="path836" />
</svg>
