<?xml version="1.0" encoding="UTF-8" standalone="no"?>
<svg
   width="47.546486"
   height="47.546486"
   viewBox="0 0 12.580008 12.580008"
   version="1.1"
   id="svg6"
   sodipodi:docname="supertuxkart.svg"
   inkscape:version="0.92.4 (5da689c313, 2019-01-14)"
   xmlns:inkscape="http://www.inkscape.org/namespaces/inkscape"
   xmlns:sodipodi="http://sodipodi.sourceforge.net/DTD/sodipodi-0.dtd"
   xmlns="http://www.w3.org/2000/svg"
   xmlns:svg="http://www.w3.org/2000/svg"
   xmlns:rdf="http://www.w3.org/1999/02/22-rdf-syntax-ns#"
   xmlns:cc="http://creativecommons.org/ns#"
   xmlns:dc="http://purl.org/dc/elements/1.1/">
  <metadata
     id="metadata12">
    <rdf:RDF>
      <cc:Work
         rdf:about="">
        <dc:format>image/svg+xml</dc:format>
        <dc:type
           rdf:resource="http://purl.org/dc/dcmitype/StillImage" />
        <dc:title />
      </cc:Work>
    </rdf:RDF>
  </metadata>
  <defs
     id="defs10" />
  <sodipodi:namedview
     pagecolor="#ffffff"
     bordercolor="#666666"
     borderopacity="1"
     objecttolerance="10"
     gridtolerance="10"
     guidetolerance="10"
     inkscape:pageopacity="0"
     inkscape:pageshadow="2"
     inkscape:window-width="1087"
     inkscape:window-height="480"
     id="namedview8"
     showgrid="false"
     inkscape:zoom="4.9166667"
     inkscape:cx="2.1355932"
     inkscape:cy="24"
     inkscape:window-x="0"
     inkscape:window-y="25"
     inkscape:window-maximized="0"
     inkscape:current-layer="svg6"
     inkscape:showpageshadow="0"
     inkscape:pagecheckerboard="0"
     inkscape:deskcolor="#d1d1d1" />
  <path
     d="M 6.2900079,0 A 6.29,6.29 0 0 0 7.9490244e-6,6.3 6.29,6.29 0 0 0 6.3000079,12.58 6.29,6.29 0 0 0 12.580008,6.29 6.29,6.29 0 0 0 6.2900079,0 Z m -0.02,0.93 0.01,0.01 A 5.4,5.4 0 0 1 11.680008,6.34 5.4,5.4 0 0 1 6.2800079,11.75 5.4,5.4 0 0 1 0.87000795,6.35 5.4,5.4 0 0 1 6.2700079,0.93 Z"
     id="path2"
     inkscape:connector-curvature="0"
     style="fill:#bde6fb;fill-opacity:1" />
  <path
     d="m 6.4000079,2.11 h -0.15 c -1.47,0.12 -1.08,1.68 -1.1,2.2 -0.03,0.38 -0.11,0.68 -0.37,1.05 -0.31,0.37 -0.74,0.96 -0.95,1.58 -0.05,0.16 -0.08,0.33 -0.1,0.5 a 2.98,1.49 0 0 0 -0.4,0.73 V 7.54 c 0,-0.23 -0.2,-0.42 -0.43,-0.42 h -0.42 a 0.43,0.43 0 0 0 -0.43,0.42 v 1.7 c 0,0.24 0.2,0.43 0.43,0.43 h 0.42 c 0.24,0 0.43,-0.19 0.43,-0.43 h 0.9 a 2.98,1.49 0 0 0 2.08,0.43 2.98,1.49 0 0 0 2.08,-0.43 h 0.9 c 0,0.24 0.2,0.43 0.43,0.43 h 0.4200001 c 0.24,0 0.43,-0.19 0.43,-0.43 v -1.7 c 0,-0.23 -0.2,-0.42 -0.43,-0.42 H 9.7200079 a 0.43,0.43 0 0 0 -0.43,0.42 v 1.07 h -0.14 a 2.98,1.49 0 0 0 0.13,-0.43 2.98,1.49 0 0 0 -0.21,-0.55 c 0.05,-0.34 -0.01,-0.68 -0.13,-1 -0.18,-0.49 -0.5,-0.92 -0.76,-1.21 -0.27,-0.35 -0.55,-0.68 -0.54,-1.17 0,-0.75 0.08,-2.14 -1.24,-2.14 z m 0.18,1.15 c 0.08,0 0.14,0.02 0.2,0.07 0.07,0.05 0.12,0.11 0.16,0.2 0.04,0.08 0.06,0.16 0.06,0.25 v 0.01 a 0.63,0.63 0 0 1 -0.13,0.4 2.46,2.46 0 0 0 -0.13,-0.05 l -0.07,-0.04 c 0.01,-0.02 0.05,-0.04 0.06,-0.07 a 0.4,0.4 0 0 0 0.01,-0.3 0.26,0.26 0 0 0 -0.07,-0.1 0.13,0.13 0 0 0 -0.09,-0.05 0.14,0.14 0 0 0 -0.1,0.04 0.26,0.26 0 0 0 -0.07,0.1 0.43,0.43 0 0 0 -0.02,0.23 1.06,1.06 0 0 0 -0.21,-0.06 V 3.8 c -0.01,-0.1 0,-0.18 0.04,-0.27 a 0.47,0.47 0 0 1 0.15,-0.2 0.33,0.33 0 0 1 0.21,-0.07 z m -1.02,0.08 c 0.05,0 0.1,0.02 0.14,0.06 a 0.4,0.4 0 0 1 0.12,0.16 c 0.03,0.07 0.05,0.14 0.05,0.23 v 0.1 a 0.6,0.6 0 0 0 -0.16,0.07 V 3.87 a 0.4,0.4 0 0 0 -0.03,-0.12 0.22,0.22 0 0 0 -0.06,-0.08 0.1,0.1 0 0 0 -0.07,-0.03 c -0.03,0 -0.05,0.02 -0.07,0.04 a 0.22,0.22 0 0 0 -0.04,0.1 V 3.9 c 0,0.05 0,0.08 0.02,0.12 a 0.22,0.22 0 0 0 0.07,0.1 l -0.06,0.04 -0.05,0.03 a 0.42,0.42 0 0 1 -0.1,-0.14 0.64,0.64 0 0 1 -0.04,-0.23 c 0,-0.08 0,-0.16 0.02,-0.23 a 0.4,0.4 0 0 1 0.1,-0.18 c 0.05,-0.04 0.1,-0.06 0.15,-0.07 z m 0.47,0.59 c 0.11,0 0.25,0.04 0.42,0.14 0.1,0.07 0.18,0.08 0.37,0.16 0.09,0.03 0.14,0.08 0.16,0.13 a 0.2,0.2 0 0 1 0,0.16 c -0.03,0.12 -0.17,0.24 -0.36,0.3 -0.1,0.03 -0.18,0.1 -0.27,0.15 a 0.6,0.6 0 0 1 -0.36,0.09 0.46,0.46 0 0 1 -0.26,-0.1 c -0.07,-0.06 -0.13,-0.13 -0.22,-0.18 -0.14,-0.08 -0.21,-0.17 -0.24,-0.25 -0.02,-0.08 0,-0.14 0.07,-0.2 l 0.17,-0.12 0.06,-0.05 c 0.06,-0.05 0.15,-0.15 0.3,-0.2 a 0.5,0.5 0 0 1 0.15,-0.03 z m -0.14,0.13 -0.06,0.01 c -0.02,0.01 -0.06,0.03 -0.06,0.05 0,0.02 0.03,0.03 0.05,0.03 0.02,0 0.03,-0.02 0.05,-0.03 0.02,-0.01 0.05,0 0.06,-0.03 l -0.01,-0.02 h -0.03 z m 0.27,0 -0.03,0.01 v 0.02 c 0,0.02 0.03,0.02 0.05,0.03 l 0.05,0.03 c 0.01,0 0.04,-0.01 0.04,-0.03 0,-0.02 -0.03,-0.04 -0.05,-0.05 a 0.14,0.14 0 0 0 -0.06,0 z m 0.62,0.3 c -0.04,0 -0.04,0.05 -0.09,0.09 l -0.22,0.16 c -0.12,0.07 -0.32,0.17 -0.5,0.17 a 0.65,0.65 0 0 1 -0.4,-0.16 l -0.12,-0.12 c -0.03,-0.02 -0.03,-0.07 -0.07,-0.08 -0.03,0 -0.03,0.07 0.02,0.11 l 0.13,0.12 c 0.11,0.08 0.26,0.17 0.45,0.17 0.19,0 0.37,-0.1 0.52,-0.18 0.08,-0.04 0.18,-0.11 0.24,-0.17 0.06,-0.05 0.1,-0.1 0.05,-0.1 z m 0.22,0.27 c 0.13,0.5 0.42,1.21 0.6,1.56 0.08,0.14 0.21,0.4 0.31,0.74 a 2.98,1.49 0 0 0 -0.55,-0.14 1.06,1.06 0 0 0 0,-0.1 1.06,1.06 0 0 0 -1.06,-1.06 1.06,1.06 0 0 0 -1.06,1.06 1.06,1.06 0 0 0 0,0.1 2.98,1.49 0 0 0 -0.6,0.16 c 0.02,-0.12 0.05,-0.23 0.1,-0.35 0.2,-0.44 0.6,-1.21 0.64,-1.83 l 0.1,0.07 c 0.08,0.04 0.13,0.1 0.2,0.16 a 0.5,0.5 0 0 0 0.35,0.12 c 0.14,0 0.26,-0.04 0.35,-0.1 0.1,-0.05 0.18,-0.12 0.26,-0.14 a 0.7,0.7 0 0 0 0.36,-0.25 z m 0.75,1.15 a 2,2 0 0 1 0.57,0.96 c 0.03,0.12 0.04,0.24 0.03,0.36 a 2.98,1.49 0 0 0 -0.13,-0.05 c 0.07,-0.52 -0.27,-1.02 -0.43,-1.17 -0.08,-0.07 -0.08,-0.1 -0.04,-0.1 z m -3.05,0.15 c 0.04,-0.03 0.01,0.05 -0.14,0.33 a 1.7,1.7 0 0 0 -0.2,0.8 2.98,1.49 0 0 0 -0.13,0.05 c 0,-0.07 0,-0.15 0.03,-0.22 0.08,-0.37 0.3,-0.74 0.44,-0.96 z m 1.6,0.12 a 0.64,0.64 0 0 1 0.41,0.16 l -0.41,0.23 -0.41,-0.23 a 0.64,0.64 0 0 1 0.4,-0.16 z m -0.63,0.52 0.23,0.14 a 2.98,1.49 0 0 0 -0.24,0.02 0.64,0.64 0 0 1 0,-0.04 0.64,0.64 0 0 1 0.01,-0.12 z m 1.26,0 a 0.64,0.64 0 0 1 0,0.12 0.64,0.64 0 0 1 0,0.04 2.98,1.49 0 0 0 -0.23,-0.02 z m -0.74,0.76 c 0.06,0 0.11,0.14 0.11,0.32 v 0.64 c 0,0.17 -0.05,0.32 -0.1,0.32 -0.07,0 -0.11,-0.15 -0.11,-0.32 V 7.65 c 0,-0.18 0.04,-0.32 0.1,-0.32 z m 0.43,0 c 0.06,0 0.1,0.14 0.1,0.32 v 0.64 c 0,0.17 -0.04,0.32 -0.1,0.32 -0.06,0 -0.1,-0.15 -0.1,-0.32 V 7.65 c 0,-0.18 0.04,-0.32 0.1,-0.32 z m -2.02,0.21 a 0.43,0.43 0 0 1 0.42,0.43 0.43,0.43 0 0 1 -0.42,0.42 0.43,0.43 0 0 1 -0.43,-0.42 0.43,0.43 0 0 1 0.43,-0.43 z m 1.17,0 c 0.06,0 0.1,0.1 0.1,0.22 v 0.42 c 0,0.12 -0.04,0.21 -0.1,0.21 -0.06,0 -0.1,-0.1 -0.1,-0.2 V 7.76 c 0,-0.12 0.04,-0.22 0.1,-0.22 z m 1.28,0 c 0.05,0 0.1,0.1 0.1,0.22 v 0.42 c 0,0.12 -0.05,0.21 -0.1,0.21 -0.06,0 -0.11,-0.1 -0.11,-0.2 V 7.76 c 0,-0.12 0.05,-0.22 0.1,-0.22 z m 0.95,0 a 0.43,0.43 0 0 1 0.43,0.43 0.43,0.43 0 0 1 -0.43,0.42 0.43,0.43 0 0 1 -0.42,-0.42 0.43,0.43 0 0 1 0.42,-0.43 z m -4.68,0.64 a 2.98,1.49 0 0 0 0.13,0.43 h -0.13 z"
     id="path4"
     inkscape:connector-curvature="0"
     style="fill:#bde6fb;fill-opacity:1" />
</svg>
