<?xml version="1.0" encoding="UTF-8" standalone="no"?>
<svg
   width="47.546486"
   height="47.546486"
   viewBox="0 0 12.580008 12.580008"
   version="1.1"
   id="svg6"
   sodipodi:docname="svgcleaner.svg"
   inkscape:version="0.92.4 (5da689c313, 2019-01-14)"
   xmlns:inkscape="http://www.inkscape.org/namespaces/inkscape"
   xmlns:sodipodi="http://sodipodi.sourceforge.net/DTD/sodipodi-0.dtd"
   xmlns="http://www.w3.org/2000/svg"
   xmlns:svg="http://www.w3.org/2000/svg"
   xmlns:rdf="http://www.w3.org/1999/02/22-rdf-syntax-ns#"
   xmlns:cc="http://creativecommons.org/ns#"
   xmlns:dc="http://purl.org/dc/elements/1.1/">
  <metadata
     id="metadata12">
    <rdf:RDF>
      <cc:Work
         rdf:about="">
        <dc:format>image/svg+xml</dc:format>
        <dc:type
           rdf:resource="http://purl.org/dc/dcmitype/StillImage" />
        <dc:title />
      </cc:Work>
    </rdf:RDF>
  </metadata>
  <defs
     id="defs10" />
  <sodipodi:namedview
     pagecolor="#ffffff"
     bordercolor="#666666"
     borderopacity="1"
     objecttolerance="10"
     gridtolerance="10"
     guidetolerance="10"
     inkscape:pageopacity="0"
     inkscape:pageshadow="2"
     inkscape:window-width="1087"
     inkscape:window-height="480"
     id="namedview8"
     showgrid="false"
     inkscape:zoom="4.9166667"
     inkscape:cx="2.1355932"
     inkscape:cy="24"
     inkscape:window-x="0"
     inkscape:window-y="25"
     inkscape:window-maximized="0"
     inkscape:current-layer="svg6"
     inkscape:showpageshadow="0"
     inkscape:pagecheckerboard="0"
     inkscape:deskcolor="#d1d1d1" />
  <path
     d="m 8.8500079,1.59 a 5.4,5.4 0 0 0 -0.48,-0.23 5.4,5.4 0 0 0 -0.5,-0.19 5.4,5.4 0 0 0 -0.53,-0.13 5.4,5.4 0 0 0 -0.53,-0.08 5.4,5.4 0 0 0 -0.54,-0.03 l -0.01,-0.01 a 5.4,5.4 0 0 0 -0.4,0.02 5.4,5.4 0 0 0 -0.54,0.06 5.4,5.4 0 0 0 -0.52,0.12 5.4,5.4 0 0 0 -0.52,0.17 5.4,5.4 0 0 0 -0.49,0.23 5.4,5.4 0 0 0 -0.46,0.27 5.4,5.4 0 0 0 -0.44,0.31 5.4,5.4 0 0 0 -0.4,0.36 5.4,5.4 0 0 0 -0.37,0.4 5.4,5.4 0 0 0 -0.29,0.37 l 1.93,3.34 0.43,0.19 1.23,-1 0.85,-0.46 3.4,-1.88 0.07,-0.3 z"
     id="path2"
     inkscape:connector-curvature="0"
     style="opacity:0.2;fill:#bde6fb;fill-opacity:1" />
  <path
     d="M 6.2900079,0 A 6.29,6.29 0 0 0 7.9490244e-6,6.3 6.29,6.29 0 0 0 6.3000079,12.58 a 6.29,6.29 0 0 0 3.2,-0.89 l -0.42,-0.73 a 5.4,5.4 0 0 1 -2.8,0.79 A 5.4,5.4 0 0 1 0.87000795,6.35 5.4,5.4 0 0 1 6.2700079,0.93 l 0.01,0.01 a 5.4,5.4 0 0 1 5.4000001,5.4 5.4,5.4 0 0 1 -1.05,3.2 l 0.46,0.8 a 6.29,6.29 0 0 0 1.49,-4.05 A 6.29,6.29 0 0 0 6.2900079,0 Z m 3.06,2.88 a 0.5,0.5 0 0 0 -0.3,0.05 l -5.1,2.97 a 0.5,0.5 0 1 0 0.5,0.85 l 5.1,-2.96 a 0.5,0.5 0 0 0 -0.21,-0.91 z m -0.7,1.5 -0.09,0.01 a 0.32,0.32 0 0 0 -0.1,0.04 l -2.93,1.69 c -0.13,0.08 -0.19,0.23 -0.12,0.35 0.07,0.12 0.23,0.15 0.37,0.08 l 1.03,-0.6 3.17,5.5 a 0.50606324,0.50606324 0 0 0 0.8800001,-0.5 l -3.1800001,-5.5 1.03,-0.6 a 0.27,0.27 0 0 0 0.12,-0.35 0.24,0.24 0 0 0 -0.19,-0.11 z m -5,4.14 a 0.55,0.55 0 0 0 -0.22,0.04 0.34,0.34 0 0 0 -0.14,0.11 0.3,0.3 0 0 0 -0.06,0.18 c 0,0.1 0.03,0.18 0.09,0.24 a 0.6,0.6 0 0 0 0.25,0.15 l 0.19,0.08 c 0.04,0.03 0.08,0.05 0.1,0.08 a 0.2,0.2 0 0 1 0.02,0.11 c 0,0.07 -0.02,0.12 -0.07,0.16 a 0.36,0.36 0 0 1 -0.22,0.05 0.87,0.87 0 0 1 -0.37,-0.07 V 9.8 l 0.15,0.05 0.2,0.02 c 0.15,0 0.27,-0.04 0.35,-0.1 a 0.32,0.32 0 0 0 0.13,-0.27 0.32,0.32 0 0 0 -0.05,-0.17 0.34,0.34 0 0 0 -0.12,-0.12 1.04,1.04 0 0 0 -0.2,-0.1 1.18,1.18 0 0 1 -0.16,-0.07 0.26,0.26 0 0 1 -0.1,-0.08 0.2,0.2 0 0 1 -0.02,-0.1 c 0,-0.06 0.02,-0.11 0.06,-0.14 0.05,-0.04 0.1,-0.06 0.19,-0.06 0.06,0 0.11,0 0.16,0.02 l 0.15,0.05 0.06,-0.14 a 0.9,0.9 0 0 0 -0.37,-0.07 z m 2.36,0 a 0.75,0.75 0 0 0 -0.37,0.08 0.56,0.56 0 0 0 -0.23,0.24 0.75,0.75 0 0 0 -0.08,0.35 c 0,0.14 0.02,0.26 0.07,0.36 0.05,0.1 0.12,0.18 0.21,0.23 0.1,0.06 0.21,0.09 0.35,0.09 a 1.64,1.64 0 0 0 0.46,-0.07 V 9.13 h -0.46 v 0.15 h 0.3 v 0.4 a 1.1,1.1 0 0 1 -0.26,0.02 0.54,0.54 0 0 1 -0.29,-0.06 0.4,0.4 0 0 1 -0.16,-0.2 0.73,0.73 0 0 1 -0.05,-0.27 c 0,-0.16 0.05,-0.3 0.13,-0.38 0.09,-0.1 0.21,-0.15 0.37,-0.15 l 0.18,0.03 0.16,0.05 0.06,-0.15 a 0.92,0.92 0 0 0 -0.4,-0.07 z m -1.88,0.01 0.47,1.32 h 0.17 l 0.47,-1.32 h -0.18 l -0.3,0.84 a 2.44,2.44 0 0 0 -0.08,0.3 2.41,2.41 0 0 0 -0.08,-0.3 l -0.3,-0.84 z"
     id="path4"
     inkscape:connector-curvature="0"
     style="fill:#bde6fb;fill-opacity:1" />
</svg>
