<?xml version="1.0" encoding="UTF-8" standalone="no"?>
<svg
   width="48"
   height="48"
   viewBox="0 0 12.7 12.7"
   version="1.1"
   id="svg4"
   sodipodi:docname="synaptic.svg"
   inkscape:version="0.92.5 (2060ec1f9f, 2020-04-08)"
   xmlns:inkscape="http://www.inkscape.org/namespaces/inkscape"
   xmlns:sodipodi="http://sodipodi.sourceforge.net/DTD/sodipodi-0.dtd"
   xmlns="http://www.w3.org/2000/svg"
   xmlns:svg="http://www.w3.org/2000/svg">
  <sodipodi:namedview
     id="namedview1"
     pagecolor="#505050"
     bordercolor="#eeeeee"
     borderopacity="1"
     inkscape:showpageshadow="0"
     inkscape:pageopacity="0"
     inkscape:pagecheckerboard="0"
     inkscape:deskcolor="#d1d1d1" />
  <defs
     id="defs8">
    <style
       id="current-color-scheme"
       type="Highlight/css">&#10;      .ColorScheme-Highlight {&#10;        color:#1e3f5a;&#10;      }&#10;  </style>
  </defs>
  <path
     class="ColorScheme-Highlight"
     style="fill:#bde6fb;fill-opacity:1;stroke-width:0.264583"
     d="M 6.3499999,0 A 6.3499999,6.3499999 0 0 0 0,6.3499999 6.3499999,6.3499999 0 0 0 6.3499999,12.7 6.3499999,6.3499999 0 0 0 12.7,6.3499999 6.3499999,6.3499999 0 0 0 6.3499999,0 Z m 0,0.79374999 A 5.5562499,5.5562499 0 0 1 11.90625,6.3499999 5.5562499,5.5562499 0 0 1 6.3499999,11.90625 5.5562499,5.5562499 0 0 1 0.79374999,6.3499999 5.5562499,5.5562499 0 0 1 6.3499999,0.79374999 Z m 0,0.52916671 A 1.8520831,1.8520831 0 0 0 4.4979166,3.175 V 3.7041666 H 3.4395833 2.9104166 V 4.2333333 9.7895832 10.31875 H 3.4395833 9.2604166 9.7895832 V 9.7895832 4.2333333 3.7041666 H 9.2604166 8.2020832 V 3.175 A 1.8520831,1.8520831 0 0 0 6.3499999,1.3229167 Z m 0,0.5291666 A 1.3229164,1.3229164 0 0 1 7.6729166,3.175 V 3.7041666 H 5.0270833 V 3.175 A 1.3229164,1.3229164 0 0 1 6.3499999,1.8520833 Z m -1.5875,2.38125 A 0.52916663,0.52916663 0 0 1 5.2916666,4.7624999 0.52916663,0.52916663 0 0 1 4.7624999,5.2916666 0.52916663,0.52916663 0 0 1 4.2333333,4.7624999 0.52916663,0.52916663 0 0 1 4.7624999,4.2333333 Z m 3.175,0 A 0.52916663,0.52916663 0 0 1 8.4666666,4.7624999 0.52916663,0.52916663 0 0 1 7.9374999,5.2916666 0.52916663,0.52916663 0 0 1 7.4083332,4.7624999 0.52916663,0.52916663 0 0 1 7.9374999,4.2333333 Z m -2.38125,1.8520833 h 1.5875 v 1.5875 h 0.79375 l -1.5875,1.8520833 -1.5875,-1.8520833 h 0.79375 z"
     id="path834" />
</svg>
