<?xml version="1.0" encoding="UTF-8" standalone="no"?>
<svg
   width="47.546486"
   height="47.546486"
   viewBox="0 0 12.580008 12.580008"
   version="1.1"
   id="svg4"
   sodipodi:docname="synapse.svg"
   inkscape:version="0.92.4 (5da689c313, 2019-01-14)"
   xmlns:inkscape="http://www.inkscape.org/namespaces/inkscape"
   xmlns:sodipodi="http://sodipodi.sourceforge.net/DTD/sodipodi-0.dtd"
   xmlns="http://www.w3.org/2000/svg"
   xmlns:svg="http://www.w3.org/2000/svg"
   xmlns:rdf="http://www.w3.org/1999/02/22-rdf-syntax-ns#"
   xmlns:cc="http://creativecommons.org/ns#"
   xmlns:dc="http://purl.org/dc/elements/1.1/">
  <metadata
     id="metadata10">
    <rdf:RDF>
      <cc:Work
         rdf:about="">
        <dc:format>image/svg+xml</dc:format>
        <dc:type
           rdf:resource="http://purl.org/dc/dcmitype/StillImage" />
        <dc:title />
      </cc:Work>
    </rdf:RDF>
  </metadata>
  <defs
     id="defs8" />
  <sodipodi:namedview
     pagecolor="#ffffff"
     bordercolor="#666666"
     borderopacity="1"
     objecttolerance="10"
     gridtolerance="10"
     guidetolerance="10"
     inkscape:pageopacity="0"
     inkscape:pageshadow="2"
     inkscape:window-width="1087"
     inkscape:window-height="480"
     id="namedview6"
     showgrid="false"
     inkscape:zoom="4.9166667"
     inkscape:cx="2.1355932"
     inkscape:cy="24"
     inkscape:window-x="0"
     inkscape:window-y="25"
     inkscape:window-maximized="0"
     inkscape:current-layer="svg4"
     inkscape:showpageshadow="0"
     inkscape:pagecheckerboard="0"
     inkscape:deskcolor="#d1d1d1" />
  <path
     d="M 6.2900079,0 A 6.29,6.29 0 0 0 7.9490244e-6,6.3 6.29,6.29 0 0 0 6.3000079,12.58 6.29,6.29 0 0 0 12.580008,6.29 6.29,6.29 0 0 0 6.2900079,0 Z m -0.42,0.94 v 1.09 a 4.27,4.27 0 0 0 -3.75,3.4 h 0.87 a 3.42,3.42 0 0 1 3.31,-2.57 3.42,3.42 0 0 1 3.3,2.57 H 10.490008 A 4.27,4.27 0 0 0 6.7300079,2.03 V 0.96 a 5.4,5.4 0 0 1 4.9500001,5.38 5.4,5.4 0 0 1 -4.9500001,5.39 v -1.2 A 4.27,4.27 0 0 0 10.480008,7.13 H 9.6100079 a 3.42,3.42 0 0 1 -3.31,2.57 3.42,3.42 0 0 1 -3.3,-2.57 h -0.89 a 4.27,4.27 0 0 0 3.76,3.4 v 1.2 A 5.4,5.4 0 0 1 0.87000795,6.35 5.4,5.4 0 0 1 5.8700079,0.95 Z m 0.43,2.78 a 2.56,2.56 0 0 0 -2.56,2.56 2.56,2.56 0 0 0 0.03,0.43 h 4.18 a 1.71,1.71 0 0 1 -1.65,1.28 1.71,1.71 0 0 1 -1.13,-0.43 h -1.09 a 2.56,2.56 0 0 0 2.22,1.28 2.56,2.56 0 0 0 2.56,-2.56 2.56,2.56 0 0 0 -0.03,-0.43 h -4.18 a 1.71,1.71 0 0 1 1.65,-1.28 1.71,1.71 0 0 1 1.13,0.43 h 1.09 a 2.56,2.56 0 0 0 -2.22,-1.28 z"
     id="path2"
     inkscape:connector-curvature="0"
     style="fill:#bde6fb;fill-opacity:1" />
</svg>
