<?xml version="1.0" encoding="UTF-8" standalone="no"?>
<svg
   width="47.546455"
   height="47.542679"
   viewBox="0 0 12.58 12.579"
   version="1.1"
   id="svg16"
   sodipodi:docname="synfigstudio.svg"
   inkscape:version="0.92.4 (5da689c313, 2019-01-14)"
   xmlns:inkscape="http://www.inkscape.org/namespaces/inkscape"
   xmlns:sodipodi="http://sodipodi.sourceforge.net/DTD/sodipodi-0.dtd"
   xmlns:xlink="http://www.w3.org/1999/xlink"
   xmlns="http://www.w3.org/2000/svg"
   xmlns:svg="http://www.w3.org/2000/svg"
   xmlns:rdf="http://www.w3.org/1999/02/22-rdf-syntax-ns#"
   xmlns:cc="http://creativecommons.org/ns#"
   xmlns:dc="http://purl.org/dc/elements/1.1/">
  <metadata
     id="metadata20">
    <rdf:RDF>
      <cc:Work
         rdf:about="">
        <dc:format>image/svg+xml</dc:format>
        <dc:type
           rdf:resource="http://purl.org/dc/dcmitype/StillImage" />
        <dc:title />
      </cc:Work>
    </rdf:RDF>
  </metadata>
  <sodipodi:namedview
     pagecolor="#ffffff"
     bordercolor="#666666"
     borderopacity="1"
     objecttolerance="10"
     gridtolerance="10"
     guidetolerance="10"
     inkscape:pageopacity="0"
     inkscape:pageshadow="2"
     inkscape:window-width="1138"
     inkscape:window-height="480"
     id="namedview18"
     showgrid="false"
     inkscape:zoom="4.9166667"
     inkscape:cx="2.1355932"
     inkscape:cy="24"
     inkscape:window-x="0"
     inkscape:window-y="25"
     inkscape:window-maximized="0"
     inkscape:current-layer="svg16"
     inkscape:showpageshadow="0"
     inkscape:pagecheckerboard="0"
     inkscape:deskcolor="#d1d1d1" />
  <defs
     id="defs8">
    <radialGradient
       id="b"
       cx="377.23999"
       cy="603.78998"
       r="329.17999"
       gradientTransform="matrix(0,-0.0168,0.00875,0,1.07,13.906)"
       gradientUnits="userSpaceOnUse"
       xlink:href="#a" />
    <linearGradient
       id="a">
      <stop
         stop-color="#a3fbff"
         offset="0"
         id="stop3" />
      <stop
         stop-color="#25f8ff"
         stop-opacity="0"
         offset="1"
         id="stop5" />
    </linearGradient>
  </defs>
  <path
     d="M 6.29,9.9999565e-4 A 6.29,6.29 0 0 0 0,6.291 6.29,6.29 0 0 0 6.29,12.579 6.29,6.29 0 0 0 12.58,6.29 6.29,6.29 0 0 0 6.29,0 Z M 6.272,0.937 A 5.407,5.407 0 0 1 11.679,6.344 5.407,5.407 0 0 1 6.272,11.751 5.407,5.407 0 0 1 0.866,6.344 5.407,5.407 0 0 1 6.272,0.938 Z"
     id="path10"
     inkscape:connector-curvature="0"
     style="fill:#bde6fb;fill-opacity:1" />
  <path
     d="M 6.307,1.983 A 0.098,0.098 0 0 0 6.234,2.013 C 5.957,2.301 5.677,2.625 5.424,2.933 H 5.422 C 4.797,3.713 4.322,4.514 3.978,5.373 3.657,6.171 3.47,6.862 3.298,7.869 a 16.132,16.132 0 0 0 -0.13,0.974 1.402,1.402 0 0 0 -0.003,0.12 c 0,0.006 0,0.012 0.004,0.023 0.003,0.011 0,0.033 0.044,0.06 0.023,0.015 0.027,0.012 0.032,0.013 l 0.016,0.004 0.03,0.004 0.083,0.006 C 3.614,9.086 3.967,9.147 4.202,9.215 4.36,9.262 4.464,9.3 4.618,9.369 l 0.093,0.04 0.03,0.013 0.01,0.004 0.005,0.003 H 4.755 4.756 L 4.762,9.431 4.765,9.432 H 4.761 l 0.026,0.015 0.102,0.056 c 0.378,0.212 0.66,0.432 1.112,0.864 a 9.071,9.071 0 0 0 0.21,0.194 l 0.018,0.015 0.012,0.008 0.011,0.007 c 0.006,0.003 0.012,0.008 0.039,0.01 0.032,10e-4 0.039,-0.006 0.045,-0.009 A 0.498,0.498 0 0 0 6.381,10.56 9.694,9.694 0 0 0 6.609,10.351 C 6.984,9.997 7.164,9.847 7.425,9.675 7.993,9.298 8.499,9.13 9.276,9.065 L 9.339,9.06 A 0.098,0.098 0 0 0 9.429,8.962 V 8.925 C 9.429,8.848 9.41,8.688 9.386,8.491 A 15.586,15.586 0 0 0 9.3,7.897 C 9.13,6.881 8.936,6.166 8.611,5.357 A 9.508,9.508 0 0 0 7.398,3.225 L 7.395,3.221 C 7.058,2.821 6.732,2.403 6.376,2.015 A 0.098,0.098 0 0 0 6.307,1.983 Z M 4.856,3.956 c 0,-0.009 0.332,0.17 0.457,0.242 0.219,0.125 0.653,0.387 0.865,0.565 A 0.91,0.91 0 0 0 6.298,4.854 0.981,0.981 0 0 0 6.422,4.759 C 6.656,4.563 7.042,4.264 7.289,4.13 7.375,4.083 7.687,3.958 7.687,3.965 7.687,3.967 7.42,4.104 7.352,4.149 7.205,4.248 6.875,4.501 6.73,4.619 6.6,4.726 6.391,4.926 6.391,4.945 c 0,0.007 0.017,0.033 0.039,0.057 0.34,0.384 0.72,0.89 0.862,1.167 0.072,0.14 0.152,0.25 0.144,0.25 A 0.938,0.938 0 0 1 7.363,6.323 C 7.282,6.208 6.993,5.767 6.896,5.653 6.708,5.43 6.322,5.031 6.296,5.031 A 7.21,7.21 0 0 0 5.818,5.517 C 5.672,5.681 5.341,6.16 5.241,6.302 5.201,6.36 5.165,6.407 5.162,6.407 A 0.28,0.28 0 0 1 5.192,6.344 C 5.357,6.048 5.761,5.458 6.166,5.002 A 0.174,0.174 0 0 0 6.204,4.945 C 6.204,4.922 5.969,4.702 5.804,4.57 5.627,4.43 5.317,4.251 5.155,4.143 5.092,4.101 4.855,3.959 4.855,3.956 Z M 3.91,5.882 C 3.94,5.872 4.625,6.202 4.865,6.338 5.32,6.595 5.862,6.97 6.21,7.268 A 0.74,0.74 0 0 0 6.298,7.337 0.74,0.74 0 0 0 6.386,7.267 9.386,9.386 0 0 1 7.73,6.338 C 7.975,6.2 8.57,5.923 8.62,5.923 8.63,5.923 8.398,6.039 8.313,6.085 A 7.67,7.67 0 0 0 6.833,7.143 4.205,4.205 0 0 0 6.466,7.501 c 0,0.006 0.054,0.074 0.12,0.152 0.224,0.26 0.46,0.563 0.665,0.85 0.229,0.32 0.558,0.8 0.545,0.814 A 1.75,1.75 0 0 1 7.661,9.163 12.271,12.271 0 0 0 7.004,8.373 C 6.824,8.173 6.32,7.673 6.299,7.673 6.277,7.673 5.93,8.01 5.713,8.243 5.433,8.543 5.124,8.891 4.919,9.161 4.768,9.359 4.762,9.352 4.897,9.135 A 13.73,13.73 0 0 1 6.031,7.628 C 6.085,7.565 6.13,7.508 6.13,7.502 6.13,7.489 5.926,7.29 5.763,7.144 5.258,6.692 4.528,6.191 4.021,5.951 A 0.355,0.355 0 0 1 3.911,5.883 Z m 3.623,0.764 c 0,-0.011 0.17,0.242 0.226,0.342 0.03,0.054 0.116,0.23 0.19,0.377 0.16,0.311 0.125,0.287 0.315,0.22 C 8.448,7.521 8.858,7.418 9.008,7.399 9.091,7.389 8.921,7.432 8.74,7.49 8.473,7.576 8.162,7.718 8.15,7.751 8.146,7.759 8.173,7.855 8.21,7.964 8.336,8.345 8.516,8.995 8.503,9.028 8.501,9.035 8.498,9.033 8.494,9.025 8.491,9.017 8.406,8.739 8.371,8.634 8.271,8.335 8.069,7.838 8.038,7.813 8.014,7.793 7.53,8.093 7.328,8.239 7.199,8.333 7.194,8.333 7.286,8.243 7.407,8.125 7.774,7.837 7.968,7.709 L 7.991,7.694 7.955,7.597 A 13.244,13.244 0 0 0 7.695,6.957 C 7.663,6.883 7.533,6.65 7.533,6.647 Z M 5.043,6.657 C 5.04,6.672 4.993,6.77 4.924,6.931 4.855,7.091 4.624,7.627 4.613,7.676 4.608,7.694 4.617,7.703 4.676,7.742 4.856,7.861 5.302,8.209 5.396,8.309 5.442,8.357 5.362,8.299 5.239,8.211 5.033,8.064 4.582,7.792 4.557,7.813 4.527,7.838 4.326,8.333 4.225,8.632 4.161,8.821 4.105,9.026 4.104,8.998 4.103,8.945 4.283,8.275 4.381,7.978 A 1.61,1.61 0 0 0 4.446,7.751 C 4.434,7.721 4.102,7.578 3.862,7.501 3.686,7.444 3.486,7.402 3.492,7.397 A 4.342,4.342 0 0 1 4.419,7.614 C 4.489,7.641 4.496,7.642 4.509,7.627 4.516,7.619 4.569,7.518 4.626,7.404 4.746,7.165 4.983,6.739 5.03,6.671 5.04,6.657 5.043,6.652 5.042,6.657 Z m 1.985,1.81 c 0.006,0 -0.004,0.01 -0.022,0.025 C 6.831,8.629 6.363,9.046 6.363,9.07 A 0.4,0.4 0 0 0 6.427,9.16 C 6.577,9.338 6.847,9.635 6.916,9.762 6.954,9.832 6.939,9.817 6.84,9.687 6.697,9.5 6.327,9.138 6.296,9.138 6.268,9.138 5.914,9.568 5.763,9.763 5.685,9.865 5.673,9.878 5.681,9.855 5.704,9.79 5.997,9.367 6.15,9.183 A 0.64,0.64 0 0 0 6.233,9.07 C 6.233,9.051 5.925,8.782 5.764,8.649 5.696,8.592 5.538,8.492 5.542,8.492 c 0.025,0 0.492,0.312 0.649,0.44 0.05,0.041 0.1,0.075 0.107,0.075 A 0.909,0.909 0 0 0 6.433,8.909 C 6.555,8.81 7.007,8.466 7.028,8.466 Z"
     id="path12"
     inkscape:connector-curvature="0"
     style="opacity:0.75;fill:#0278dc" />
  <path
     d="M 6.298,7.498 7.029,2.743 6.327,1.956 5.564,2.804 6.298,7.497 4.618,4.221 4.058,5.261 6.298,7.497 3.71,6.15 3.484,7.044 6.298,7.497 3.286,7.976 3.194,9.074 6.298,7.497 4.502,9.289 l 0.71,0.37 1.086,-2.161 -0.436,2.7 0.436,0.4 L 6.743,10.205 6.298,7.498 7.41,9.667 8.08,9.287 6.299,7.498 9.34,9.06 9.289,7.973 6.299,7.498 9.105,7.093 8.871,6.175 6.298,7.498 8.558,5.28 8.006,4.134 Z"
     id="path14"
     style="opacity:0.5;fill:url(#b);fill-rule:evenodd"
     inkscape:connector-curvature="0" />
</svg>
