<?xml version="1.0" encoding="UTF-8" standalone="no"?>
<svg
   width="48"
   height="48"
   viewBox="0 0 12.7 12.7"
   version="1.1"
   id="svg4"
   sodipodi:docname="system-users.svg"
   inkscape:version="0.92.5 (2060ec1f9f, 2020-04-08)"
   xmlns:inkscape="http://www.inkscape.org/namespaces/inkscape"
   xmlns:sodipodi="http://sodipodi.sourceforge.net/DTD/sodipodi-0.dtd"
   xmlns="http://www.w3.org/2000/svg"
   xmlns:svg="http://www.w3.org/2000/svg">
  <sodipodi:namedview
     id="namedview1"
     pagecolor="#505050"
     bordercolor="#eeeeee"
     borderopacity="1"
     inkscape:showpageshadow="0"
     inkscape:pageopacity="0"
     inkscape:pagecheckerboard="0"
     inkscape:deskcolor="#d1d1d1" />
  <defs
     id="defs8">
    <style
       id="current-color-scheme"
       type="text/css">&#10;      .ColorScheme-Highlight {&#10;        color:#1e3f5a;&#10;      }&#10;  </style>
  </defs>
  <path
     class="ColorScheme-Highlight"
     style="fill:#bde6fb;fill-opacity:1;stroke-width:0.264583"
     d="M 6.3499999,0 A 6.3499999,6.3499999 0 0 0 0,6.3499999 6.3499999,6.3499999 0 0 0 6.3499999,12.7 6.3499999,6.3499999 0 0 0 12.7,6.3499999 6.3499999,6.3499999 0 0 0 6.3499999,0 Z m 0,0.79374999 A 5.5562499,5.5562499 0 0 1 11.90625,6.3499999 5.5562499,5.5562499 0 0 1 6.3499999,11.90625 5.5562499,5.5562499 0 0 1 0.79374999,6.3499999 5.5562499,5.5562499 0 0 1 6.3499999,0.79374999 Z m 1.5875,2.11666661 A 1.8520833,1.8520833 0 0 0 6.0854166,4.7624999 1.8520833,1.8520833 0 0 0 7.9374999,6.6145833 1.8520833,1.8520833 0 0 0 9.7895832,4.7624999 1.8520833,1.8520833 0 0 0 7.9374999,2.9104166 Z M 4.1010416,3.4395833 A 1.4552083,1.4552083 0 0 0 2.6458333,4.8947916 1.4552083,1.4552083 0 0 0 4.1010416,6.3499999 1.4552083,1.4552083 0 0 0 5.5562499,4.8947916 1.4552083,1.4552083 0 0 0 4.1010416,3.4395833 Z M 3.175,7.1437499 c -0.4397375,0 -0.79375,0.3540125 -0.79375,0.79375 H 2.352311 v 0.824756 h 3.2039387 v 0.762744 H 10.31875 V 8.4666666 c 0,-0.5863167 -0.4720168,-1.0583334 -1.0583334,-1.0583334 H 6.6145833 c -0.3271462,0 -0.6148994,0.1501236 -0.8087363,0.3818888 C 5.736958,7.4216061 5.4162777,7.1437499 5.0270833,7.1437499 Z"
     id="path823" />
</svg>
