<?xml version="1.0" encoding="UTF-8" standalone="no"?>
<svg
   width="48"
   height="48"
   viewBox="0 0 12.7 12.7"
   version="1.1"
   id="svg4"
   sodipodi:docname="system-file-manager.svg"
   inkscape:version="0.92.5 (2060ec1f9f, 2020-04-08)"
   xmlns:inkscape="http://www.inkscape.org/namespaces/inkscape"
   xmlns:sodipodi="http://sodipodi.sourceforge.net/DTD/sodipodi-0.dtd"
   xmlns="http://www.w3.org/2000/svg"
   xmlns:svg="http://www.w3.org/2000/svg">
  <sodipodi:namedview
     id="namedview1"
     pagecolor="#505050"
     bordercolor="#eeeeee"
     borderopacity="1"
     inkscape:showpageshadow="0"
     inkscape:pageopacity="0"
     inkscape:pagecheckerboard="0"
     inkscape:deskcolor="#d1d1d1" />
  <defs
     id="defs8">
    <style
       id="current-color-scheme"
       type="text/css">&#10;      .ColorScheme-Highlight {&#10;        color:#1e3f5a;&#10;      }&#10;  </style>
  </defs>
  <path
     class="ColorScheme-Highlight"
     style="fill:#bde6fb;fill-opacity:1;stroke-width:0.264583"
     d="M 6.3499999,0 A 6.3499999,6.3499999 0 0 0 0,6.3499999 6.3499999,6.3499999 0 0 0 6.3499999,12.7 6.3499999,6.3499999 0 0 0 12.7,6.3499999 6.3499999,6.3499999 0 0 0 6.3499999,0 Z m 0,0.79374999 A 5.5562499,5.5562499 0 0 1 11.90625,6.3499999 5.5562499,5.5562499 0 0 1 6.3499999,11.90625 5.5562499,5.5562499 0 0 1 0.79374999,6.3499999 5.5562499,5.5562499 0 0 1 6.3499999,0.79374999 Z M 3.96875,2.6458333 c -0.1465792,0 -0.2645834,0.1180042 -0.2645834,0.2645833 V 3.175 H 8.7312499 V 2.9104166 c 0,-0.1465791 -0.1180042,-0.2645833 -0.2645833,-0.2645833 z m -0.5291667,0.79375 C 3.2930041,3.4395833 3.175,3.5575875 3.175,3.7041666 V 4.2333333 H 9.2604166 V 3.7041666 c 0,-0.1465791 -0.1180042,-0.2645833 -0.2645834,-0.2645833 z M 2.9104166,4.4979166 c -0.1465791,0 -0.2645833,0.1180042 -0.2645833,0.2645833 v 4.7625 c 0,0.1465791 0.1180042,0.2645833 0.2645833,0.2645833 h 6.8791666 c 0.1465792,0 0.2645838,-0.1180042 0.2645838,-0.2645833 v -4.7625 c 0,-0.1465791 -0.1180046,-0.2645833 -0.2645838,-0.2645833 z m 1.8520833,1.3229167 h 3.175 v 0.79375 h -3.175 z"
     id="path817" />
</svg>
