<?xml version="1.0" encoding="UTF-8" standalone="no"?>
<svg
   width="42"
   height="42"
   version="1.1"
   id="svg4"
   sodipodi:docname="system-suspend.svg"
   inkscape:version="0.92.5 (2060ec1f9f, 2020-04-08)"
   xmlns:inkscape="http://www.inkscape.org/namespaces/inkscape"
   xmlns:sodipodi="http://sodipodi.sourceforge.net/DTD/sodipodi-0.dtd"
   xmlns="http://www.w3.org/2000/svg"
   xmlns:svg="http://www.w3.org/2000/svg">
  <sodipodi:namedview
     id="namedview1"
     pagecolor="#505050"
     bordercolor="#eeeeee"
     borderopacity="1"
     inkscape:showpageshadow="0"
     inkscape:pageopacity="0"
     inkscape:pagecheckerboard="0"
     inkscape:deskcolor="#d1d1d1" />
  <defs
     id="defs8">
    <style
       id="current-color-scheme"
       type="text/css">&#10;      .ColorScheme-Highlight {&#10;        color:#1e3f5a;&#10;      }&#10;  </style>
  </defs>
  <path
     class="ColorScheme-Highlight"
     style="fill:#bde6fb;fill-opacity:1"
     d="M 21,0 A 21,21 0 0 0 0,21 21,21 0 0 0 21,42 21,21 0 0 0 42,21 21,21 0 0 0 21,0 Z m 0,4 A 17,17 0 0 1 38,21 17,17 0 0 1 21,38 17,17 0 0 1 4,21 17,17 0 0 1 21,4 Z m 0,3 A 14,14 0 0 0 7.341797,18 h 4.121094 A 10,10 0 0 1 21,11 a 10,10 0 0 1 9.527344,7 h 4.136718 A 14,14 0 0 0 21,7 Z M 7,21 A 14,14 0 0 0 21,35 14,14 0 0 0 35,21 Z"
     id="path835" />
</svg>
