<?xml version="1.0" encoding="UTF-8" standalone="no"?>
<svg
   width="48"
   height="48"
   viewBox="0 0 12.7 12.7"
   version="1.1"
   id="svg4"
   sodipodi:docname="teamcity.svg"
   inkscape:version="0.92.5 (2060ec1f9f, 2020-04-08)"
   xmlns:inkscape="http://www.inkscape.org/namespaces/inkscape"
   xmlns:sodipodi="http://sodipodi.sourceforge.net/DTD/sodipodi-0.dtd"
   xmlns="http://www.w3.org/2000/svg"
   xmlns:svg="http://www.w3.org/2000/svg">
  <sodipodi:namedview
     id="namedview1"
     pagecolor="#505050"
     bordercolor="#eeeeee"
     borderopacity="1"
     inkscape:showpageshadow="0"
     inkscape:pageopacity="0"
     inkscape:pagecheckerboard="0"
     inkscape:deskcolor="#d1d1d1" />
  <defs
     id="defs8">
    <style
       id="current-color-scheme"
       type="text/css">&#10;      .ColorScheme-Highlight {&#10;        color:#1e3f5a;&#10;      }&#10;  </style>
  </defs>
  <path
     class="ColorScheme-Highlight"
     style="fill:#bde6fb;fill-opacity:1;stroke-width:0.264583"
     d="M 6.3499999,0 A 6.3499999,6.3499999 0 0 0 0,6.3499999 6.3499999,6.3499999 0 0 0 6.3499999,12.7 6.3499999,6.3499999 0 0 0 12.7,6.3499999 6.3499999,6.3499999 0 0 0 6.3499999,0 Z m 0,0.79374999 A 5.5562499,5.5562499 0 0 1 11.90625,6.3499999 5.5562499,5.5562499 0 0 1 6.3499999,11.90625 5.5562499,5.5562499 0 0 1 0.79374999,6.3499999 5.5562499,5.5562499 0 0 1 6.3499999,0.79374999 Z m 0,1.05833331 A 4.4979182,4.4979182 0 0 0 1.8520833,6.3499999 4.4979182,4.4979182 0 0 0 6.3499999,10.847917 4.4979182,4.4979182 0 0 0 10.847917,6.3499999 4.4979182,4.4979182 0 0 0 6.3499999,1.8520833 Z m -2.3812499,3.175 h 2.1166666 v 0.5291666 h -0.79375 V 7.6729166 H 4.7624999 V 5.5562499 H 3.96875 Z m 3.7041666,0 c 0.3685645,0 0.7010505,0.1506222 0.9410279,0.3937743 l -0.373104,0.375171 C 8.0969071,5.6481268 7.8956957,5.5557332 7.6729166,5.5557332 c -0.4384146,0 -0.79375,0.3553354 -0.79375,0.79375 0,0.4384146 0.3553354,0.79375 0.79375,0.79375 0.2156354,0 0.4108317,-0.086643 0.5539713,-0.2263429 L 8.6015421,7.2905111 C 8.3626237,7.5265186 8.0351311,7.6729166 7.6729166,7.6729166 6.942402,7.6729163 6.3499999,7.0805142 6.3499999,6.3499999 c 0,-0.7305151 0.5924021,-1.3229166 1.3229167,-1.3229166 z m -3.175,3.4395833 H 8.2020832 V 8.9958332 H 4.4979166 Z"
     id="path837" />
</svg>
