<?xml version="1.0" encoding="UTF-8" standalone="no"?>
<svg
   width="47.376377"
   height="47.372604"
   viewBox="0 0 12.535 12.534002"
   version="1.1"
   id="svg6"
   sodipodi:docname="teams-for-linux.svg"
   inkscape:version="0.92.5 (2060ec1f9f, 2020-04-08)"
   xmlns:inkscape="http://www.inkscape.org/namespaces/inkscape"
   xmlns:sodipodi="http://sodipodi.sourceforge.net/DTD/sodipodi-0.dtd"
   xmlns="http://www.w3.org/2000/svg"
   xmlns:svg="http://www.w3.org/2000/svg"
   xmlns:rdf="http://www.w3.org/1999/02/22-rdf-syntax-ns#"
   xmlns:cc="http://creativecommons.org/ns#"
   xmlns:dc="http://purl.org/dc/elements/1.1/">
  <metadata
     id="metadata12">
    <rdf:RDF>
      <cc:Work
         rdf:about="">
        <dc:format>image/svg+xml</dc:format>
        <dc:type
           rdf:resource="http://purl.org/dc/dcmitype/StillImage" />
        <dc:title />
      </cc:Work>
    </rdf:RDF>
  </metadata>
  <defs
     id="defs10" />
  <sodipodi:namedview
     pagecolor="#ffffff"
     bordercolor="#666666"
     borderopacity="1"
     objecttolerance="10"
     gridtolerance="10"
     guidetolerance="10"
     inkscape:pageopacity="0"
     inkscape:pageshadow="2"
     inkscape:window-width="1087"
     inkscape:window-height="480"
     id="namedview8"
     showgrid="false"
     inkscape:zoom="4.9166667"
     inkscape:cx="2.1355932"
     inkscape:cy="24"
     inkscape:window-x="0"
     inkscape:window-y="25"
     inkscape:window-maximized="0"
     inkscape:current-layer="svg6"
     inkscape:showpageshadow="0"
     inkscape:pagecheckerboard="0"
     inkscape:deskcolor="#d1d1d1" />
  <path
     d="M 6.268,8.2373619e-8 A 6.267,6.267 0 0 0 0,6.2670001 6.267,6.267 0 0 0 6.268,12.534 6.267,6.267 0 0 0 12.535,6.2670001 6.267,6.267 0 0 0 6.268,8.2373619e-8 Z M 6.25,0.93200008 A 5.388,5.388 0 0 1 11.638,6.3220001 5.388,5.388 0 0 1 6.25,11.709 5.388,5.388 0 0 1 0.86,6.3210001 5.388,5.388 0 0 1 6.25,0.93200008 Z M 9.012,3.0020001 a 0.962,0.962 0 0 0 -0.962,0.962 0.962,0.962 0 0 0 0.962,0.962 0.962,0.962 0 0 0 0.963,-0.962 0.962,0.962 0 0 0 -0.963,-0.962 z m -6.83,1.347 a 0.288,0.288 0 0 0 -0.29,0.288 v 3.657 c 0,0.16 0.13,0.288 0.29,0.288 h 3.655 c 0.16,0 0.29,-0.129 0.29,-0.288 v -3.657 a 0.288,0.288 0 0 0 -0.29,-0.288 H 2.181 Z m 0.673,0.77 h 2.309 v 0.769 h -0.77 v 1.924 h -0.77 v -1.924 h -0.77 v -0.77 z m 5.099,0.192 a 0.48,0.48 0 0 1 0.481,0.48 v 2.407 a 2.117,2.117 0 0 1 -0.005,0.15 2.117,2.117 0 0 1 -0.026,0.21 2.117,2.117 0 0 1 -0.046,0.207 2.117,2.117 0 0 1 -0.009,0.026 1.347,1.347 0 0 0 0.663,0.177 1.347,1.347 0 0 0 1.348,-1.347 v -2.02 a 0.288,0.288 0 0 0 -0.29,-0.29 z"
     id="path2"
     inkscape:connector-curvature="0"
     style="fill:#bde6fb;fill-opacity:1" />
  <path
     d="m 6.318,2.2320001 a 1.347,1.347 0 0 0 -1.347,1.347 1.347,1.347 0 0 0 0.243,0.77 h 0.623 a 0.288,0.288 0 0 1 0.29,0.288 v 0.274 a 1.347,1.347 0 0 0 0.191,0.015 1.347,1.347 0 0 0 1.348,-1.347 1.347,1.347 0 0 0 -1.348,-1.346 z m -0.192,3.079 v 2.982 a 0.288,0.288 0 0 1 -0.289,0.288 H 4.238 A 2.117,2.117 0 0 0 6.318,10.313 2.117,2.117 0 0 0 8.435,8.1960001 v -2.403 a 0.48,0.48 0 0 0 -0.481,-0.481 z"
     id="path4"
     inkscape:connector-curvature="0"
     style="opacity:0.75;fill:#bde6fb;fill-opacity:1" />
</svg>
