<?xml version="1.0" encoding="UTF-8" standalone="no"?>
<svg
   width="47.542679"
   height="47.546455"
   viewBox="0 0 12.579 12.58"
   version="1.1"
   id="svg6"
   sodipodi:docname="termineter.svg"
   inkscape:version="0.92.5 (2060ec1f9f, 2020-04-08)"
   xmlns:inkscape="http://www.inkscape.org/namespaces/inkscape"
   xmlns:sodipodi="http://sodipodi.sourceforge.net/DTD/sodipodi-0.dtd"
   xmlns="http://www.w3.org/2000/svg"
   xmlns:svg="http://www.w3.org/2000/svg"
   xmlns:rdf="http://www.w3.org/1999/02/22-rdf-syntax-ns#"
   xmlns:cc="http://creativecommons.org/ns#"
   xmlns:dc="http://purl.org/dc/elements/1.1/">
  <metadata
     id="metadata12">
    <rdf:RDF>
      <cc:Work
         rdf:about="">
        <dc:format>image/svg+xml</dc:format>
        <dc:type
           rdf:resource="http://purl.org/dc/dcmitype/StillImage" />
        <dc:title />
      </cc:Work>
    </rdf:RDF>
  </metadata>
  <defs
     id="defs10" />
  <sodipodi:namedview
     pagecolor="#ffffff"
     bordercolor="#666666"
     borderopacity="1"
     objecttolerance="10"
     gridtolerance="10"
     guidetolerance="10"
     inkscape:pageopacity="0"
     inkscape:pageshadow="2"
     inkscape:window-width="1085"
     inkscape:window-height="480"
     id="namedview8"
     showgrid="false"
     inkscape:zoom="4.9166667"
     inkscape:cx="2.1355932"
     inkscape:cy="24"
     inkscape:window-x="0"
     inkscape:window-y="25"
     inkscape:window-maximized="0"
     inkscape:current-layer="svg6"
     inkscape:showpageshadow="0"
     inkscape:pagecheckerboard="0"
     inkscape:deskcolor="#d1d1d1" />
  <ellipse
     cx="9.802"
     cy="5.3270001"
     rx="0.75099999"
     ry="0.77100003"
     id="ellipse2"
     style="opacity:0.8;fill:#a398fb;fill-opacity:1;paint-order:stroke fill markers" />
  <path
     d="M 6.285,0 A 6.295,6.295 0 0 0 0,6.285 a 6.295,6.295 0 0 0 6.285,6.295 6.295,6.295 0 0 0 3.092,-0.817 6.295,6.295 0 0 0 0.18,-0.11 6.295,6.295 0 0 0 2,-1.933 6.295,6.295 0 0 0 0.024,-0.035 6.295,6.295 0 0 0 0.422,-0.787 6.295,6.295 0 0 0 0.046,-0.104 6.295,6.295 0 0 0 0.53,-2.51 A 6.295,6.295 0 0 0 10.07,1.274 6.295,6.295 0 0 0 10.02,1.238 6.295,6.295 0 0 0 9.665,0.986 6.295,6.295 0 0 0 9.452,0.864 6.295,6.295 0 0 0 6.285,0 Z M 6.274,0.94 A 5.408,5.408 0 0 1 8.618,1.487 C 7.962,2.121 7.645,2.853 7.563,3.987 a 4.2,4.2 0 0 0 0.014,0.914 c 0.05,0.526 0.158,1.136 0.255,1.452 L 7.898,6.571 7.81,6.696 C 7.693,6.856 7.693,6.981 7.815,7.269 7.998,7.704 8.084,7.834 8.222,7.875 8.258,7.886 8.292,7.933 8.311,8 8.358,8.15 8.352,8.18 8.269,8.335 L 8.192,8.476 8.277,8.554 c 0.05,0.044 0.109,0.092 0.134,0.105 0.083,0.047 0.177,1.03 0.127,1.366 -0.017,0.113 -0.036,0.282 -0.047,0.373 l -0.017,0.164 0.155,0.141 0.155,0.139 -0.025,0.124 c -0.01,0.052 0.013,0.097 0.023,0.142 A 5.407,5.407 0 0 1 0.857,6.328 C 0.857,3.34 3.287,0.94 6.274,0.94 Z M 8.86,1.604 A 5.408,5.408 0 0 1 9.18,1.8 C 9.004,1.986 8.837,2.182 8.743,2.414 8.715,2.489 8.682,2.547 8.673,2.547 A 0.36,0.36 0 0 1 8.596,2.461 C 8.532,2.378 8.383,2.271 8.327,2.271 8.311,2.271 8.344,2.32 8.399,2.378 8.543,2.53 8.577,2.685 8.557,3.126 8.541,3.525 8.499,3.669 8.283,4.126 8.123,4.464 8.114,4.541 8.217,4.846 L 8.283,5.053 8.286,4.771 C 8.288,4.494 8.291,4.483 8.383,4.356 8.433,4.281 8.515,4.146 8.563,4.048 8.637,3.898 8.676,3.858 8.845,3.746 8.953,3.677 9.119,3.591 9.211,3.552 9.305,3.513 9.388,3.478 9.396,3.469 9.429,3.436 8.956,3.566 8.776,3.641 8.729,3.661 8.726,3.655 8.743,3.591 8.751,3.552 8.77,3.373 8.787,3.193 8.801,3.013 8.84,2.766 8.87,2.644 8.946,2.344 9.091,2.084 9.273,1.858 A 5.408,5.408 0 0 1 11.25,4.27 C 11.14,4.324 11.066,4.377 10.964,4.566 L 10.872,4.741 10.726,4.499 C 10.46,4.059 10.172,3.739 9.931,3.616 A 0.332,0.332 0 0 0 9.823,3.573 c -0.01,0.002 0.007,0.02 0.058,0.052 0.105,0.063 0.283,0.265 0.371,0.42 0.059,0.105 0.058,0.114 0.014,0.095 A 1.574,1.574 0 0 0 9.936,4.104 C 9.433,4.084 9.045,4.225 8.729,4.538 8.582,4.685 8.535,4.754 8.496,4.878 l -0.05,0.159 0.078,0.171 c 0.072,0.161 0.075,0.186 0.053,0.383 -0.059,0.498 0.002,0.78 0.185,0.878 0.227,0.116 0.964,-0.028 1.507,-0.294 0.368,-0.18 0.556,-0.349 0.675,-0.606 0.114,-0.247 0.144,-0.54 0.075,-0.704 -0.041,-0.102 -0.041,-0.11 0.017,-0.188 0.033,-0.045 0.072,-0.08 0.083,-0.08 0.05,0 0.08,0.16 0.072,0.376 -0.006,0.125 0,0.222 0.011,0.216 0.064,-0.038 0.094,-0.584 0.039,-0.706 -0.012,-0.028 0.044,-0.037 0.076,-0.055 a 5.408,5.408 0 0 1 0.291,1.129 c -0.003,0.007 -0.003,0.017 -0.007,0.022 -0.036,0.05 -0.047,0.045 -0.177,-0.096 -0.075,-0.08 -0.119,-0.117 -0.14,-0.12 -0.007,0 -0.01,0.002 -0.013,0.01 -0.008,0.021 -0.033,0.16 -0.058,0.304 -0.028,0.144 -0.116,0.518 -0.202,0.83 -0.122,0.444 -0.158,0.615 -0.158,0.776 -0.002,0.326 0.066,0.443 0.269,0.443 0.157,0 0.265,-0.052 0.285,-0.133 0.024,-0.122 0.057,-0.153 0.149,-0.163 a 5.407,5.407 0 0 1 -0.487,1.365 l -0.017,0.011 a 2.74,2.74 0 0 1 0,-0.285 C 11.058,8.366 11.05,8.208 11.033,8.169 L 11.005,8.099 V 8.183 C 11.003,8.316 10.911,8.751 10.886,8.751 A 0.024,0.024 0 0 1 10.864,8.729 0.195,0.195 0 0 0 10.825,8.651 c -0.038,-0.05 -0.044,-0.05 -0.146,0.052 l -0.108,0.103 -0.12,-0.06 C 10.338,8.684 10.335,8.678 10.349,8.57 10.385,8.33 10.399,7.812 10.377,7.657 L 10.355,7.49 10.335,7.795 A 4.505,4.505 0 0 1 10.147,8.759 C 10.119,8.826 10.111,8.831 10.061,8.8 10.011,8.767 10.006,8.734 10.003,8.46 10,8.147 9.961,7.864 9.953,8.1 A 3.98,3.98 0 0 1 9.898,8.51 C 9.862,8.728 9.834,8.817 9.795,8.847 9.767,8.87 9.732,8.884 9.721,8.881 9.707,8.878 9.657,8.751 9.607,8.598 A 4.117,4.117 0 0 0 9.474,8.238 C 9.344,7.992 8.934,7.762 8.494,7.684 A 1.394,1.394 0 0 1 8.264,7.632 C 8.225,7.607 8.101,7.358 8.001,7.109 L 7.926,6.919 7.984,6.815 8.044,6.71 8.192,6.856 C 8.416,7.083 8.621,7.094 8.931,6.898 9.028,6.837 9.183,6.765 9.275,6.743 L 9.438,6.701 9.272,6.712 C 9.169,6.72 9.031,6.757 8.906,6.809 8.585,6.948 8.436,6.917 8.306,6.69 8.208,6.524 8.197,6.433 8.25,6.217 8.303,5.984 8.311,5.541 8.264,5.38 8.222,5.228 8.174,5.2 8.208,5.344 8.241,5.494 8.192,5.851 8.089,6.175 8.059,6.269 8.059,6.269 8.034,6.203 7.92,5.895 7.79,4.896 7.79,4.325 7.793,3.215 8.064,2.387 8.632,1.78 8.693,1.715 8.792,1.668 8.86,1.604 Z M 2.6,2.972 v 0.177 h 0.567 v 1.42 H 3.395 V 3.149 H 3.959 V 2.972 h -1.36 z m 1.634,0 V 4.569 H 5.248 V 4.392 H 4.462 v -0.57 h 0.74 V 3.648 H 4.462 V 3.149 H 5.248 V 2.972 Z m 1.413,0 v 1.597 h 0.228 v -0.66 h 0.362 l 0.439,0.66 H 6.943 L 6.445,3.853 A 0.797,0.797 0 0 0 6.617,3.775 0.421,0.421 0 0 0 6.755,3.638 0.392,0.392 0 0 0 6.808,3.426 C 6.808,3.274 6.754,3.161 6.645,3.086 6.539,3.011 6.373,2.972 6.148,2.972 Z m 0.228,0.175 h 0.26 c 0.149,0 0.259,0.023 0.33,0.067 0.071,0.043 0.107,0.117 0.107,0.221 0,0.1 -0.034,0.176 -0.102,0.228 C 6.402,3.713 6.295,3.739 6.148,3.739 H 5.875 Z m 4.05,1.157 c 0.12,0.004 0.235,0.018 0.259,0.028 0.219,0.02 0.274,0.164 0.361,0.283 l 0.116,0.19 0.128,0.159 c 0,0 0.017,0.298 -0.072,0.492 -0.094,0.202 -0.241,0.335 -0.53,0.477 C 9.759,6.142 9.18,6.255 9.001,6.163 8.858,6.088 8.81,5.865 8.856,5.473 8.873,5.319 8.871,5.299 8.814,5.173 L 8.754,5.038 8.793,4.913 C 8.823,4.815 8.86,4.761 8.975,4.646 9.224,4.4 9.528,4.289 9.925,4.304 Z M 1.651,5.576 V 7.172 H 1.837 V 6.205 A 6.332,6.332 0 0 0 1.821,5.774 h 0.01 l 0.524,1.4 H 2.521 L 3.053,5.776 H 3.061 L 3.051,5.961 A 5.886,5.886 0 0 0 3.046,6.191 V 7.173 H 3.245 V 5.576 H 2.949 l -0.5,1.308 H 2.439 L 1.949,5.576 Z m 1.9,0 V 5.692 L 3.738,5.737 V 7.013 L 3.55,7.056 V 7.172 H 4.127 V 7.056 L 3.94,7.013 V 5.737 L 4.127,5.692 V 5.576 H 3.55 Z m 0.885,0 V 7.172 H 4.621 V 6.28 A 4.15,4.15 0 0 0 4.614,6.04 C 4.609,5.963 4.606,5.899 4.604,5.847 H 4.612 L 5.466,7.172 H 5.7 V 5.576 H 5.513 V 6.477 A 5.901,5.901 0 0 0 5.521,6.79 L 5.528,6.897 H 5.519 L 4.668,5.577 H 4.435 Z m 1.697,0 V 7.172 H 7.025 V 6.995 h -0.69 v -0.57 h 0.65 V 6.251 H 6.335 V 5.753 h 0.69 V 5.575 H 6.133 Z m 3.773,1.17 A 0.5,0.5 0 0 0 9.765,6.759 C 9.695,6.779 9.668,6.806 9.651,6.875 9.629,6.961 9.626,6.965 9.435,6.981 A 1.25,1.25 0 0 0 9.114,7.053 C 8.992,7.109 8.69,7.361 8.715,7.386 A 0.475,0.475 0 0 0 8.859,7.311 C 9.086,7.167 9.327,7.108 9.64,7.122 9.859,7.13 9.94,7.147 10.075,7.208 L 10.241,7.286 10.158,7.2 A 0.905,0.905 0 0 0 9.934,7.048 C 9.748,6.958 9.698,6.904 9.764,6.854 a 0.659,0.659 0 0 1 0.369,-0.056 c 0.06,0.011 0.066,0.008 0.025,-0.008 A 0.743,0.743 0 0 0 9.906,6.746 Z M 2.6,8.18 V 8.356 H 3.167 V 9.775 H 3.395 V 8.356 H 3.959 V 8.18 h -1.36 z m 1.634,0 V 9.775 H 5.248 V 9.598 H 4.462 v -0.57 h 0.74 V 8.855 h -0.74 v -0.5 H 5.248 V 8.179 H 4.234 Z m 1.413,0 V 9.775 H 5.875 V 9.116 H 6.237 L 6.676,9.775 H 6.943 L 6.445,9.06 A 0.797,0.797 0 0 0 6.617,8.981 0.42,0.42 0 0 0 6.755,8.845 0.392,0.392 0 0 0 6.808,8.633 C 6.808,8.481 6.754,8.367 6.645,8.293 6.539,8.217 6.373,8.18 6.148,8.18 Z m 0.228,0.174 h 0.26 c 0.149,0 0.259,0.022 0.33,0.067 0.071,0.043 0.107,0.117 0.107,0.221 0,0.1 -0.034,0.176 -0.102,0.228 C 6.402,8.92 6.295,8.946 6.148,8.946 H 5.875 Z m 3.182,0.16 c 0.004,0 0.01,0 0.018,0.004 0.025,0.009 0.045,0.025 0.045,0.036 0,0.116 0.152,1.028 0.193,1.152 a 4.8,4.8 0 0 1 0.086,0.33 c 0.03,0.138 0.05,0.174 0.144,0.24 0.068,0.05 0.105,0.164 0.15,0.226 a 5.407,5.407 0 0 1 -0.675,0.47 C 9.021,10.918 9.014,10.879 9.036,10.781 9.084,10.571 9.1,10.384 9.111,9.966 9.125,9.484 9.089,8.686 9.047,8.551 9.039,8.524 9.042,8.513 9.057,8.514 Z m 1.31,0.325 0.004,10e-4 c 0.022,0.008 0.056,0.125 0.083,0.274 0.064,0.371 0.064,0.515 -0.003,0.551 -0.113,0.059 -0.16,0.036 -0.193,-0.094 -0.05,-0.197 -0.037,-0.484 0.024,-0.62 0.029,-0.065 0.065,-0.11 0.085,-0.111 z m 0.411,0.022 c 0.014,0 0.05,0.045 0.084,0.1 0.02,0.032 0.014,0.123 0.022,0.162 a 5.407,5.407 0 0 1 -0.213,0.33 c -0.023,-0.23 0.023,-0.592 0.107,-0.592 z"
     id="path4"
     inkscape:connector-curvature="0"
     style="fill:#bde6fb;fill-opacity:1" />
</svg>
