<?xml version="1.0" encoding="UTF-8" standalone="no"?>
<svg
   width="47.542679"
   height="47.546455"
   viewBox="0 0 12.579 12.58"
   version="1.1"
   id="svg4"
   sodipodi:docname="theharvester.svg"
   inkscape:version="0.92.5 (2060ec1f9f, 2020-04-08)"
   xmlns:inkscape="http://www.inkscape.org/namespaces/inkscape"
   xmlns:sodipodi="http://sodipodi.sourceforge.net/DTD/sodipodi-0.dtd"
   xmlns="http://www.w3.org/2000/svg"
   xmlns:svg="http://www.w3.org/2000/svg"
   xmlns:rdf="http://www.w3.org/1999/02/22-rdf-syntax-ns#"
   xmlns:cc="http://creativecommons.org/ns#"
   xmlns:dc="http://purl.org/dc/elements/1.1/">
  <metadata
     id="metadata10">
    <rdf:RDF>
      <cc:Work
         rdf:about="">
        <dc:format>image/svg+xml</dc:format>
        <dc:type
           rdf:resource="http://purl.org/dc/dcmitype/StillImage" />
        <dc:title />
      </cc:Work>
    </rdf:RDF>
  </metadata>
  <defs
     id="defs8" />
  <sodipodi:namedview
     pagecolor="#ffffff"
     bordercolor="#666666"
     borderopacity="1"
     objecttolerance="10"
     gridtolerance="10"
     guidetolerance="10"
     inkscape:pageopacity="0"
     inkscape:pageshadow="2"
     inkscape:window-width="1085"
     inkscape:window-height="480"
     id="namedview6"
     showgrid="false"
     inkscape:zoom="4.9166667"
     inkscape:cx="2.1355932"
     inkscape:cy="24"
     inkscape:window-x="0"
     inkscape:window-y="25"
     inkscape:window-maximized="0"
     inkscape:current-layer="svg4"
     inkscape:showpageshadow="0"
     inkscape:pagecheckerboard="0"
     inkscape:deskcolor="#d1d1d1" />
  <path
     d="M 6.285,0 A 6.295,6.295 0 0 0 0,6.285 6.295,6.295 0 0 0 6.285,12.58 6.295,6.295 0 0 0 12.579,6.285 6.295,6.295 0 0 0 6.285,0 Z M 6.274,0.94 a 5.408,5.408 0 0 1 5.397,5.387 5.407,5.407 0 0 1 -10.814,0 C 0.857,3.34 3.287,0.94 6.274,0.94 Z M 6.302,1.73 A 0.284,0.284 0 0 0 6.152,1.767 L 2.462,3.898 A 0.284,0.284 0 0 0 2.32,4.144 v 4.261 a 0.284,0.284 0 0 0 0.142,0.246 l 3.69,2.13 a 0.284,0.284 0 0 0 0.286,0 l 3.69,-2.13 A 0.284,0.284 0 0 0 10.27,8.405 V 4.145 A 0.284,0.284 0 0 0 10.128,3.899 L 6.438,1.769 A 0.284,0.284 0 0 0 6.302,1.731 Z M 6.295,2.34 9.702,4.308 9.701,8.242 6.294,10.209 2.888,8.242 V 4.309 L 6.295,2.341 Z m 0.01,0.861 A 0.284,0.284 0 0 0 6.025,3.489 V 6.18 L 3.691,7.529 a 0.284,0.284 0 1 0 0.283,0.49 l 2.324,-1.34 2.323,1.34 a 0.284,0.284 0 0 0 0.02,0.012 0.284,0.284 0 0 0 0.015,0.007 l 0.011,0.005 a 0.284,0.284 0 0 0 0.01,0.003 L 8.7,8.054 c 0.037,0.01 0.075,0.012 0.111,0.006 a 0.284,0.284 0 0 0 0.004,0 L 8.834,8.056 A 0.284,0.284 0 0 0 8.844,8.053 L 8.85,8.052 A 0.284,0.284 0 0 0 8.993,7.957 V 7.956 A 0.284,0.284 0 0 0 9.004,7.942 0.258,0.258 0 0 0 9.017,7.923 0.284,0.284 0 0 0 9.017,7.921 0.273,0.273 0 0 0 9.053,7.816 V 7.815 c 0,-0.01 0.002,-0.018 0.003,-0.027 a 0.284,0.284 0 0 0 0,-0.002 V 7.762 A 0.284,0.284 0 0 0 9.054,7.745 0.011,0.011 0 0 1 9.053,7.74 0.284,0.284 0 0 0 9.049,7.72 V 7.718 A 0.284,0.284 0 0 0 8.905,7.528 L 6.593,6.194 V 3.489 A 0.284,0.284 0 0 0 6.305,3.201 Z M 3.834,4.565 A 0.291,0.291 0 0 0 3.543,4.855 0.291,0.291 0 0 0 3.833,5.146 0.291,0.291 0 0 0 4.125,4.856 0.291,0.291 0 0 0 3.834,4.565 Z M 8.776,4.657 A 0.291,0.291 0 0 0 8.521,4.809 0.291,0.291 0 0 0 8.639,5.204 0.291,0.291 0 0 0 9.033,5.086 0.291,0.291 0 0 0 8.916,4.692 0.291,0.291 0 0 0 8.776,4.657 Z m -3.72,0.66 A 0.291,0.291 0 0 0 4.766,5.607 0.291,0.291 0 0 0 5.056,5.899 0.291,0.291 0 0 0 5.348,5.608 0.291,0.291 0 0 0 5.057,5.317 Z M 7.532,5.374 A 0.291,0.291 0 0 0 7.277,5.527 0.291,0.291 0 0 0 7.394,5.921 0.291,0.291 0 0 0 7.788,5.804 0.291,0.291 0 0 0 7.671,5.409 0.291,0.291 0 0 0 7.531,5.374 Z M 6.27,7.525 a 0.291,0.291 0 0 0 -0.158,0.043 0.291,0.291 0 0 0 -0.096,0.4 0.291,0.291 0 0 0 0.4,0.097 0.291,0.291 0 0 0 0.096,-0.4 A 0.291,0.291 0 0 0 6.27,7.525 Z M 6.269,8.962 a 0.291,0.291 0 0 0 -0.158,0.043 0.291,0.291 0 0 0 -0.096,0.4 0.291,0.291 0 0 0 0.4,0.096 0.291,0.291 0 0 0 0.095,-0.4 0.291,0.291 0 0 0 -0.241,-0.139 z"
     id="path2"
     inkscape:connector-curvature="0"
     style="fill:#bde6fb;fill-opacity:1" />
</svg>
