<?xml version="1.0" encoding="UTF-8" standalone="no"?>
<svg
   width="47.546486"
   height="47.546486"
   viewBox="0 0 12.580008 12.580008"
   version="1.1"
   id="svg8"
   sodipodi:docname="thermal-monitor.svg"
   inkscape:version="0.92.4 (5da689c313, 2019-01-14)"
   xmlns:inkscape="http://www.inkscape.org/namespaces/inkscape"
   xmlns:sodipodi="http://sodipodi.sourceforge.net/DTD/sodipodi-0.dtd"
   xmlns="http://www.w3.org/2000/svg"
   xmlns:svg="http://www.w3.org/2000/svg"
   xmlns:rdf="http://www.w3.org/1999/02/22-rdf-syntax-ns#"
   xmlns:cc="http://creativecommons.org/ns#"
   xmlns:dc="http://purl.org/dc/elements/1.1/">
  <metadata
     id="metadata14">
    <rdf:RDF>
      <cc:Work
         rdf:about="">
        <dc:format>image/svg+xml</dc:format>
        <dc:type
           rdf:resource="http://purl.org/dc/dcmitype/StillImage" />
        <dc:title />
      </cc:Work>
    </rdf:RDF>
  </metadata>
  <defs
     id="defs12" />
  <sodipodi:namedview
     pagecolor="#ffffff"
     bordercolor="#666666"
     borderopacity="1"
     objecttolerance="10"
     gridtolerance="10"
     guidetolerance="10"
     inkscape:pageopacity="0"
     inkscape:pageshadow="2"
     inkscape:window-width="1087"
     inkscape:window-height="480"
     id="namedview10"
     showgrid="false"
     inkscape:zoom="4.9166667"
     inkscape:cx="2.1355932"
     inkscape:cy="24"
     inkscape:window-x="0"
     inkscape:window-y="25"
     inkscape:window-maximized="0"
     inkscape:current-layer="svg8"
     inkscape:showpageshadow="0"
     inkscape:pagecheckerboard="0"
     inkscape:deskcolor="#d1d1d1" />
  <path
     d="M 6.2900079,0 A 6.29,6.29 0 0 0 7.9490244e-6,6.3 6.29,6.29 0 0 0 6.3000079,12.58 6.29,6.29 0 0 0 12.580008,6.29 6.29,6.29 0 0 0 6.2900079,0 Z m -0.02,0.93 0.01,0.01 A 5.4,5.4 0 0 1 11.680008,6.34 5.4,5.4 0 0 1 6.2800079,11.75 5.4,5.4 0 0 1 0.87000795,6.35 5.4,5.4 0 0 1 6.2700079,0.93 Z m -3.12,1.65 V 3 a 0.37,0.37 0 0 0 -0.14,0.13 h -0.41 V 3.5 h 0.37 v 0.37 h -0.37 v 0.37 h 0.37 v 0.37 h -0.37 v 0.37 h 0.37 v 0.37 h -0.37 v 0.37 h 0.37 v 0.37 h -0.37 v 0.38 h 0.37 v 0.37 h -0.37 v 0.37 h 0.37 v 0.37 h -0.37 v 0.37 h 0.37 v 0.37 h -0.37 v 0.37 h 0.37 v 0.37 h -0.37 v 0.37 h 0.41 c 0.03,0.05 0.08,0.1 0.14,0.13 v 0.42 h 0.37 V 9.61 h 0.37 v 0.37 h 0.37 V 9.61 h 0.37 v 0.37 h 0.37 V 9.61 h 0.37 v 0.37 h 0.37 V 9.61 h 0.37 v 0.37 h 0.38 V 9.61 h 0.37 v 0.37 h 0.37 V 9.61 h 0.37 v 0.37 h 0.37 V 9.61 h 0.37 v 0.37 h 0.37 V 9.61 h 0.37 v 0.37 h 0.37 V 9.56 c 0.06,-0.03 0.1,-0.08 0.14,-0.13 H 10.000008 V 9.06 H 9.6300079 V 8.69 H 10.000008 V 8.32 H 9.6300079 V 7.95 H 10.000008 V 7.58 H 9.6300079 V 7.21 H 10.000008 V 6.83 H 9.6300079 V 6.46 H 10.000008 V 6.08 H 9.6300079 V 5.73 H 10.000008 V 5.36 H 9.6300079 V 4.99 H 10.000008 V 4.62 H 9.6300079 V 4.25 H 10.000008 V 3.88 H 9.6300079 V 3.51 H 10.000008 V 3.13 H 9.5900079 A 0.37,0.37 0 0 0 9.4500079,3 V 2.58 h -0.37 v 0.37 h -0.37 V 2.58 h -0.37 v 0.37 h -0.37 V 2.58 h -0.37 v 0.37 h -0.37 V 2.58 h -0.38 v 0.37 h -0.37 V 2.58 h -0.38 v 0.37 h -0.35 V 2.58 h -0.37 v 0.37 h -0.37 V 2.58 h -0.37 v 0.37 h -0.37 V 2.58 h -0.37 v 0.37 h -0.37 V 2.58 Z m 0.56,0.74 h 5.18 c 0.2,0 0.37,0.13 0.37,0.3 v 5.33 c 0,0.16 -0.16,0.3 -0.37,0.3 h -5.18 c -0.2,0 -0.37,-0.14 -0.37,-0.3 V 3.61 c 0,-0.16 0.16,-0.3 0.37,-0.3 z m 2.59,0.5 a 0.82,0.82 0 0 0 -0.82,0.82 v 1.95 a 1.23,1.23 0 1 0 1.64,0 V 4.64 a 0.82,0.82 0 0 0 -0.82,-0.82 z"
     id="path2"
     inkscape:connector-curvature="0"
     style="fill:#bde6fb;fill-opacity:1" />
  <path
     d="m 6.1000079,5.46 h 0.4 v 1.47 a 0.62,0.62 0 0 1 0.42,0.58 0.62,0.62 0 0 1 -0.62,0.61 0.62,0.62 0 0 1 -0.61,-0.61 0.62,0.62 0 0 1 0.4,-0.58 z"
     id="path4"
     inkscape:connector-curvature="0" />
  <path
     d="m 6.1000079,5.46 v 1.47 a 0.62,0.62 0 0 0 -0.41,0.58 0.62,0.62 0 0 0 0.61,0.61 0.62,0.62 0 0 0 0.62,-0.61 0.62,0.62 0 0 0 -0.42,-0.58 V 5.46 Z"
     id="path6"
     inkscape:connector-curvature="0"
     style="opacity:0.75;fill:#ff2a2a" />
</svg>
