<?xml version="1.0" encoding="UTF-8" standalone="no"?>
<svg
   width="48"
   height="48"
   viewBox="0 0 12.7 12.7"
   version="1.1"
   id="svg4"
   sodipodi:docname="thunar-volman-settings.svg"
   inkscape:version="0.92.5 (2060ec1f9f, 2020-04-08)"
   xmlns:inkscape="http://www.inkscape.org/namespaces/inkscape"
   xmlns:sodipodi="http://sodipodi.sourceforge.net/DTD/sodipodi-0.dtd"
   xmlns="http://www.w3.org/2000/svg"
   xmlns:svg="http://www.w3.org/2000/svg">
  <sodipodi:namedview
     id="namedview1"
     pagecolor="#505050"
     bordercolor="#eeeeee"
     borderopacity="1"
     inkscape:showpageshadow="0"
     inkscape:pageopacity="0"
     inkscape:pagecheckerboard="0"
     inkscape:deskcolor="#d1d1d1" />
  <defs
     id="defs8">
    <style
       id="current-color-scheme"
       type="text/css">&#10;      .ColorScheme-Highlight {&#10;        color:#1e3f5a;&#10;      }&#10;  </style>
  </defs>
  <path
     class="ColorScheme-Highlight"
     style="fill:#bde6fb;fill-opacity:1;stroke-width:0.264583"
     d="M 6.3499999,0 A 6.3499999,6.3499999 0 0 0 0,6.3499999 6.3499999,6.3499999 0 0 0 6.3499999,12.7 6.3499999,6.3499999 0 0 0 12.7,6.3499999 6.3499999,6.3499999 0 0 0 6.3499999,0 Z m 0,0.79374999 A 5.5562499,5.5562499 0 0 1 11.90625,6.3499999 5.5562499,5.5562499 0 0 1 6.3499999,11.90625 5.5562499,5.5562499 0 0 1 0.79374999,6.3499999 5.5562499,5.5562499 0 0 1 6.3499999,0.79374999 Z M 3.96875,2.6458333 c -0.1465792,0 -0.2645834,0.1180042 -0.2645834,0.2645833 V 3.175 H 8.7312499 V 2.9104166 c 0,-0.1465791 -0.1180042,-0.2645833 -0.2645833,-0.2645833 z m -0.5291667,0.79375 C 3.2930041,3.4395833 3.175,3.5575875 3.175,3.7041666 V 4.2333333 H 9.2604166 V 3.7041666 c 0,-0.1465791 -0.1180042,-0.2645833 -0.2645834,-0.2645833 z M 2.9104166,4.4979166 c -0.1465791,0 -0.2645833,0.1180042 -0.2645833,0.2645833 v 4.7625 c 0,0.1465791 0.1180042,0.2645833 0.2645833,0.2645833 H 7.6811848 A 2.2489583,2.2489583 0 0 1 7.6310587,9.7322223 2.2489583,2.2489583 0 0 1 7.5003172,9.5492878 2.2489583,2.2489583 0 0 1 7.3881794,9.3544677 2.2489583,2.2489583 0 0 1 7.2967121,9.1493122 2.2489583,2.2489583 0 0 1 7.2259155,8.9358887 2.2489583,2.2489583 0 0 1 7.1763061,8.7167804 2.2489583,2.2489583 0 0 1 7.1494342,8.4935382 2.2489583,2.2489583 0 0 1 7.1437499,8.3343749 2.2489583,2.2489583 0 0 1 7.1551191,8.1100992 2.2489583,2.2489583 0 0 1 7.1887087,7.8873738 2.2489583,2.2489583 0 0 1 7.2440024,7.6698159 2.2489583,2.2489583 0 0 1 7.3215171,7.4584593 2.2489583,2.2489583 0 0 1 7.4191857,7.2564045 2.2489583,2.2489583 0 0 1 7.5364911,7.064685 2.2489583,2.2489583 0 0 1 7.6724001,6.8853679 2.2489583,2.2489583 0 0 1 7.8258791,6.7210368 2.2489583,2.2489583 0 0 1 7.994861,6.5727254 2.2489583,2.2489583 0 0 1 8.1777955,6.4419839 2.2489583,2.2489583 0 0 1 8.3726157,6.3298461 2.2489583,2.2489583 0 0 1 8.5777712,6.2383788 2.2489583,2.2489583 0 0 1 8.7911947,6.1675821 2.2489583,2.2489583 0 0 1 9.010303,6.1179728 a 2.2489583,2.2489583 0 0 1 0.2232422,-0.026872 2.2489583,2.2489583 0 0 1 0.159163,-0.00568 2.2489583,2.2489583 0 0 1 0.2242757,0.011369 2.2489583,2.2489583 0 0 1 0.2227254,0.03359 2.2489583,2.2489583 0 0 1 0.2144577,0.05426 V 4.7624999 c 0,-0.1465791 -0.1180046,-0.2645833 -0.2645838,-0.2645833 z m 1.8520833,1.3229167 h 3.175 v 0.79375 h -3.175 z m 4.6302083,0.79375 A 1.7197916,1.7197916 0 0 0 7.6729166,8.3343749 1.7197916,1.7197916 0 0 0 9.3927082,10.054167 1.7197916,1.7197916 0 0 0 11.1125,8.3343749 1.7197916,1.7197916 0 0 0 9.3927082,6.6145833 Z M 9.2604166,6.8791666 h 0.2645833 l 0.1968873,0.5906616 a 0.92604166,0.92604166 0 0 1 0.050126,0.020153 L 10.328052,7.2119621 10.51512,7.399031 10.236584,7.9561028 a 0.92604166,0.92604166 0 0 1 0.02119,0.049093 l 0.590145,0.1968878 v 0.264583 L 10.257255,8.6635539 A 0.92604166,0.92604166 0 0 1 10.237102,8.71368 L 10.515121,9.2697182 10.328052,9.4567871 9.7709804,9.178251 A 0.92604166,0.92604166 0 0 1 9.7218874,9.199439 L 9.5249999,9.7895832 H 9.2604166 L 9.0635292,9.1989216 A 0.92604166,0.92604166 0 0 1 9.0134031,9.1787683 L 8.4573649,9.4567877 8.270296,9.2697188 8.5488321,8.712647 A 0.92604166,0.92604166 0 0 1 8.5276443,8.6635544 L 7.9374999,8.4666666 V 8.2020832 L 8.5281615,8.0051959 a 0.92604166,0.92604166 0 0 1 0.020153,-0.050126 L 8.2702955,7.3990315 8.4573643,7.2119627 9.0144361,7.4904988 a 0.92604166,0.92604166 0 0 1 0.049093,-0.021188 z m 0.1322916,0.79375 A 0.6614583,0.6614583 0 0 0 8.7312499,8.3343749 0.6614583,0.6614583 0 0 0 9.3927082,8.9958332 0.6614583,0.6614583 0 0 0 10.054167,8.3343749 0.6614583,0.6614583 0 0 0 9.3927082,7.6729166 Z"
     id="path836" />
</svg>
