<?xml version="1.0" encoding="UTF-8" standalone="no"?>
<svg
   width="47.546455"
   height="47.542679"
   viewBox="0 0 12.58 12.579"
   version="1.1"
   id="svg4"
   sodipodi:docname="thunderbird.svg"
   inkscape:version="0.92.4 (5da689c313, 2019-01-14)"
   xmlns:inkscape="http://www.inkscape.org/namespaces/inkscape"
   xmlns:sodipodi="http://sodipodi.sourceforge.net/DTD/sodipodi-0.dtd"
   xmlns="http://www.w3.org/2000/svg"
   xmlns:svg="http://www.w3.org/2000/svg"
   xmlns:rdf="http://www.w3.org/1999/02/22-rdf-syntax-ns#"
   xmlns:cc="http://creativecommons.org/ns#"
   xmlns:dc="http://purl.org/dc/elements/1.1/">
  <metadata
     id="metadata10">
    <rdf:RDF>
      <cc:Work
         rdf:about="">
        <dc:format>image/svg+xml</dc:format>
        <dc:type
           rdf:resource="http://purl.org/dc/dcmitype/StillImage" />
        <dc:title />
      </cc:Work>
    </rdf:RDF>
  </metadata>
  <defs
     id="defs8" />
  <sodipodi:namedview
     pagecolor="#ffffff"
     bordercolor="#666666"
     borderopacity="1"
     objecttolerance="10"
     gridtolerance="10"
     guidetolerance="10"
     inkscape:pageopacity="0"
     inkscape:pageshadow="2"
     inkscape:window-width="1087"
     inkscape:window-height="480"
     id="namedview6"
     showgrid="false"
     inkscape:zoom="4.9166667"
     inkscape:cx="2.1355932"
     inkscape:cy="24"
     inkscape:window-x="0"
     inkscape:window-y="25"
     inkscape:window-maximized="0"
     inkscape:current-layer="svg4"
     inkscape:showpageshadow="0"
     inkscape:pagecheckerboard="0"
     inkscape:deskcolor="#d1d1d1" />
  <path
     d="M 6.29,9.9999565e-4 A 6.29,6.29 0 0 0 0,6.291 6.29,6.29 0 0 0 6.29,12.579 6.29,6.29 0 0 0 12.58,6.29 6.29,6.29 0 0 0 6.29,0 Z M 6.272,0.937 A 5.407,5.407 0 0 1 11.679,6.344 5.407,5.407 0 0 1 6.272,11.751 5.407,5.407 0 0 1 0.866,6.344 5.407,5.407 0 0 1 6.272,0.938 Z M 5.612,1.453 C 5.38,1.436 4.733,1.585 4.168,2.206 2.431,2.929 1.391,4.526 1.391,6.264 c 0,1.923 1.074,3.046 1.852,3.555 l 0.005,0.004 c 0.118,0.084 0.246,0.156 0.383,0.215 0.14,0.066 0.256,0.105 0.325,0.113 C 3.982,10.159 3.61,9.571 3.446,8.862 3.766,9.188 4.148,9.446 4.576,9.491 4.62,9.497 4.425,9.254 4.209,8.935 l 3.468,1.154 C 7.361,10.412 6.941,10.723 6.37,11 c 0,0 1.286,-0.105 1.924,-0.822 -0.26,0.596 -0.971,0.918 -0.971,0.918 0.523,-0.077 1.899,-0.483 2.775,-1.578 0.991,-1.24 1.29,-2.404 0.991,-3.963 C 10.787,3.975 9.425,2.53 8.219,2.241 A 3.698,3.698 0 0 0 6.927,1.795 C 6.359,1.722 5.884,1.735 5.48,1.814 5.607,1.692 5.753,1.632 5.753,1.632 5.563,1.649 5.325,1.773 5.121,1.905 5.101,1.911 5.083,1.92 5.062,1.927 4.992,1.942 4.927,1.963 4.858,1.981 4.908,1.917 4.962,1.851 5.016,1.8 5.256,1.572 5.612,1.453 5.612,1.453 Z m 0.162,1.22 C 5.653,2.733 5.53,2.813 5.409,2.908 A 3.47,3.47 0 0 0 5.227,3.06 C 4.927,3.329 4.641,3.668 4.404,3.977 A 0.222,0.222 0 0 1 4.424,4.061 0.308,0.308 0 0 1 4.418,4.155 L 4.409,4.196 A 0.565,0.565 0 0 1 4.382,4.27 L 4.38,4.277 A 0.553,0.553 0 0 1 4.319,4.384 0.408,0.408 0 0 1 4.01,4.525 c -0.12,0.18 -0.194,0.3 -0.194,0.3 A 1.945,1.945 0 0 1 3.742,4.175 C 3.744,4.148 3.749,4.12 3.752,4.092 A 1.158,1.158 0 0 1 3.783,3.938 0.86,0.86 0 0 1 3.819,3.839 C 3.828,3.817 3.836,3.794 3.848,3.773 L 3.858,3.755 A 0.62,0.62 0 0 1 3.934,3.648 C 4.487,3.038 5.86,2.63 5.774,2.674 Z M 2.916,4.042 3.066,4.07 3.236,4.097 C 3.245,4.159 3.255,4.221 3.269,4.287 3.303,4.441 3.309,4.686 3.276,4.844 3.269,4.876 3.183,4.958 3.16,5.179 v 0.02 C 2.928,4.856 2.63,4.416 2.576,4.343 a 1.44,1.44 0 0 1 0.34,-0.301 z m 1.221,0.1 A 0.14,0.14 0 0 0 4.013,4.21 0.045,0.045 0 0 1 4.041,4.2 0.045,0.045 0 0 1 4.086,4.246 0.045,0.045 0 0 1 4.041,4.29 0.045,0.045 0 0 1 3.996,4.249 C 3.994,4.259 3.989,4.269 3.989,4.279 A 0.143,0.143 0 0 0 4.127,4.426 0.143,0.143 0 0 0 4.276,4.289 0.144,0.144 0 0 0 4.137,4.142 Z M 4.01,4.213 a 0.045,0.045 0 0 0 -0.014,0.033 0.045,0.045 0 0 0 0,0.002 A 0.137,0.137 0 0 1 4.01,4.213 Z M 2.488,4.457 c 0.335,0.477 2.026,3.021 2.13,3.021 H 4.62 C 4.627,7.475 4.635,7.471 4.643,7.469 V 7.473 C 5.377,7.212 7.341,6.536 8.503,6.137 8.484,6.697 8.303,7.193 8.029,7.447 8.272,7.391 8.536,7.094 8.779,6.627 8.749,6.823 8.724,7.063 8.689,7.331 8.607,7.931 8.658,9.006 7.769,9.989 L 2.133,8.114 C 1.968,7.602 1.895,7.004 1.937,6.304 2.034,6.491 2.334,6.644 2.521,6.648 2.296,6.436 1.828,5.392 2.489,4.456 Z M 5.063,4.493 8.319,5.035 C 8.426,5.32 8.484,5.613 8.499,5.898 7.115,6.422 5.37,7.071 4.642,7.264 L 4.639,7.266 C 4.582,7.281 3.959,6.376 3.379,5.521 3.644,5.184 3.884,5.111 3.884,5.111 4.294,4.943 4.466,4.763 4.904,4.539 A 0.538,0.538 0 0 1 5.063,4.493 Z"
     id="path2"
     inkscape:connector-curvature="0"
     style="fill:#bde6fb;fill-opacity:1" />
</svg>
