<?xml version="1.0" encoding="UTF-8" standalone="no"?>
<svg
   width="47.546486"
   height="47.546486"
   viewBox="0 0 12.580008 12.580008"
   version="1.1"
   id="svg4"
   sodipodi:docname="tilix.svg"
   inkscape:version="0.92.4 (5da689c313, 2019-01-14)"
   xmlns:inkscape="http://www.inkscape.org/namespaces/inkscape"
   xmlns:sodipodi="http://sodipodi.sourceforge.net/DTD/sodipodi-0.dtd"
   xmlns="http://www.w3.org/2000/svg"
   xmlns:svg="http://www.w3.org/2000/svg"
   xmlns:rdf="http://www.w3.org/1999/02/22-rdf-syntax-ns#"
   xmlns:cc="http://creativecommons.org/ns#"
   xmlns:dc="http://purl.org/dc/elements/1.1/">
  <metadata
     id="metadata10">
    <rdf:RDF>
      <cc:Work
         rdf:about="">
        <dc:format>image/svg+xml</dc:format>
        <dc:type
           rdf:resource="http://purl.org/dc/dcmitype/StillImage" />
        <dc:title />
      </cc:Work>
    </rdf:RDF>
  </metadata>
  <defs
     id="defs8" />
  <sodipodi:namedview
     pagecolor="#ffffff"
     bordercolor="#666666"
     borderopacity="1"
     objecttolerance="10"
     gridtolerance="10"
     guidetolerance="10"
     inkscape:pageopacity="0"
     inkscape:pageshadow="2"
     inkscape:window-width="1087"
     inkscape:window-height="480"
     id="namedview6"
     showgrid="false"
     inkscape:zoom="4.9166667"
     inkscape:cx="2.1355932"
     inkscape:cy="24"
     inkscape:window-x="0"
     inkscape:window-y="25"
     inkscape:window-maximized="0"
     inkscape:current-layer="svg4"
     inkscape:showpageshadow="0"
     inkscape:pagecheckerboard="0"
     inkscape:deskcolor="#d1d1d1" />
  <path
     d="M 6.2900079,0 A 6.29,6.29 0 0 0 7.9490244e-6,6.3 6.29,6.29 0 0 0 6.3000079,12.58 6.29,6.29 0 0 0 12.580008,6.29 6.29,6.29 0 0 0 6.2900079,0 Z m -0.25,0.95 v 10.8 A 5.4,5.4 0 0 1 0.87000795,6.35 5.4,5.4 0 0 1 6.0400079,0.95 Z m 0.6,0 a 5.4,5.4 0 0 1 5.0400001,5.4 5.4,5.4 0 0 1 -5.0500001,5.4 V 0.94 Z m -4.39,2.65 a 0.21,0.33 45 0 0 -0.35,0.51 l 1.11,1.12 -1.1,1.1 a 0.33,0.21 45 1 0 0.46,0.46 l 1.38,-1.36 a 0.33,0.21 45 0 0 0.03,-0.05 0.11,0.2 0 0 0 0.04,-0.16 0.11,0.2 0 0 0 -0.04,-0.16 0.21,0.33 45 0 0 -0.03,-0.04 l -1.38,-1.39 a 0.21,0.33 45 0 0 -0.1,-0.04 z m 5.3,0 a 0.21,0.33 45 0 0 -0.36,0.51 l 1.12,1.12 -1.11,1.1 a 0.33,0.21 45 1 0 0.47,0.46 l 1.37,-1.36 a 0.33,0.21 45 0 0 0.04,-0.05 0.11,0.2 0 0 0 0.04,-0.16 0.11,0.2 0 0 0 -0.05,-0.16 0.21,0.33 45 0 0 -0.03,-0.04 l -1.37,-1.39 a 0.21,0.33 45 0 0 -0.12,-0.04 z m -3.98,2.46 a 0.21,0.33 0 1 0 0,0.66 h 1.95 a 0.21,0.33 0 0 0 0,-0.66 h -1.93 z m 5.3,0 a 0.21,0.33 0 1 0 0,0.66 h 1.9400001 a 0.21,0.33 0 0 0 0,-0.66 H 8.8800079 Z"
     id="path2"
     inkscape:connector-curvature="0"
     style="fill:#bde6fb;fill-opacity:1" />
</svg>
