<?xml version="1.0" encoding="UTF-8" standalone="no"?>
<svg
   width="48"
   height="48"
   viewBox="0 0 12.7 12.7"
   version="1.1"
   id="svg4"
   sodipodi:docname="time-admin.svg"
   inkscape:version="0.92.5 (2060ec1f9f, 2020-04-08)"
   xmlns:inkscape="http://www.inkscape.org/namespaces/inkscape"
   xmlns:sodipodi="http://sodipodi.sourceforge.net/DTD/sodipodi-0.dtd"
   xmlns="http://www.w3.org/2000/svg"
   xmlns:svg="http://www.w3.org/2000/svg">
  <sodipodi:namedview
     id="namedview1"
     pagecolor="#505050"
     bordercolor="#eeeeee"
     borderopacity="1"
     inkscape:showpageshadow="0"
     inkscape:pageopacity="0"
     inkscape:pagecheckerboard="0"
     inkscape:deskcolor="#d1d1d1" />
  <defs
     id="defs8">
    <style
       id="current-color-scheme"
       type="text/css">&#10;      .ColorScheme-Highlight {&#10;        color:#1e3f5a;&#10;      }&#10;  </style>
  </defs>
  <path
     class="ColorScheme-Highlight"
     style="fill:#bde6fb;fill-opacity:1;stroke-width:0.264583"
     d="M 6.3499999,0 A 6.3499999,6.3499999 0 0 0 0,6.3499999 6.3499999,6.3499999 0 0 0 6.3499999,12.7 6.3499999,6.3499999 0 0 0 12.7,6.3499999 6.3499999,6.3499999 0 0 0 6.3499999,0 Z m 0,0.79374999 A 5.5562499,5.5562499 0 0 1 11.90625,6.3499999 5.5562499,5.5562499 0 0 1 6.3499999,11.90625 5.5562499,5.5562499 0 0 1 0.79374999,6.3499999 5.5562499,5.5562499 0 0 1 6.3499999,0.79374999 Z M 5.0270833,2.38125 c -0.2931584,0 -0.5291667,0.2360083 -0.5291667,0.5291666 V 3.175 3.7041666 H 5.0270833 5.5479817 V 3.2566488 c 0.00414,-0.026774 0.00827,-0.053679 0.00827,-0.081649 V 2.9104166 C 5.5562499,2.6172583 5.3202416,2.38125 5.0270833,2.38125 Z m 3.9687499,0 c -0.2931583,0 -0.5291666,0.2360083 -0.5291666,0.5291666 V 3.175 3.7041666 h 1.0583333 v -0.79375 C 9.5249999,2.6172583 9.2889915,2.38125 8.9958332,2.38125 Z M 3.175,3.96875 v 1.5874999 1.0583334 0.2857706 a 2.1166664,2.1166664 0 0 0 -1.0583334,1.830896 2.1166664,2.1166664 0 0 0 2.1166667,2.1166671 2.1166664,2.1166664 0 0 0 1.6520956,-0.79375 h 3.3749877 c 0.8794754,0 1.5875004,-0.7080255 1.5875004,-1.5875004 V 6.6145833 5.5562499 3.96875 H 9.2604166 4.7624999 Z M 3.7408569,5.2916666 H 10.28206 c 0.02183,0.084931 0.03669,0.1726539 0.03669,0.2645833 v 2.9104167 c 0,0.5863166 -0.4720168,1.0583333 -1.0583334,1.0583333 H 6.1944538 a 2.1166664,2.1166664 0 0 0 0.1555461,-0.79375 H 6.8791666 V 8.4666666 H 6.3313965 A 2.1166664,2.1166664 0 0 0 6.1639648,7.8677367 L 6.646106,7.439856 C 6.7950333,7.2912347 6.8788607,7.0895651 6.8791666,6.8791666 c 0,-0.438376 -0.3553741,-0.79375 -0.79375,-0.79375 -0.438376,0 -0.79375,0.355374 -0.79375,0.79375 h 0.2645833 c 0,-0.2922508 0.2369159,-0.5291667 0.5291667,-0.5291667 0.2922508,0 0.5291667,0.2369159 0.5291667,0.5291667 0,0.3239386 -0.2918831,0.5438709 -0.559139,0.7792804 A 2.1166664,2.1166664 0 0 0 4.2333333,6.6145833 2.1166664,2.1166664 0 0 0 3.7041666,6.6848632 V 5.5562499 c 0,-0.091929 0.014862,-0.1796523 0.03669,-0.2645833 z m 4.4612263,0.79375 -0.79375,0.2645833 v 0.2645834 l 0.79375,-0.2645834 V 8.4666666 H 7.6729166 V 8.7312499 H 8.9958332 V 8.4666666 H 8.4666666 v -2.38125 z M 4.2333333,7.1437499 a 1.5874998,1.5874998 0 0 1 1.5875,1.5875 1.5874998,1.5874998 0 0 1 -1.5875,1.5875001 1.5874998,1.5874998 0 0 1 -1.5875,-1.5875001 1.5874998,1.5874998 0 0 1 1.5875,-1.5875 z M 3.96875,7.4083332 v 1.5875 h 0.2645833 0.79375 V 8.7312499 h -0.79375 V 7.4083332 Z"
     id="path818" />
</svg>
