<?xml version="1.0" encoding="UTF-8" standalone="no"?>
<svg
   width="47.542679"
   height="47.546455"
   viewBox="0 0 12.579 12.58"
   version="1.1"
   id="svg8"
   sodipodi:docname="tnscmd10g.svg"
   inkscape:version="0.92.5 (2060ec1f9f, 2020-04-08)"
   xmlns:inkscape="http://www.inkscape.org/namespaces/inkscape"
   xmlns:sodipodi="http://sodipodi.sourceforge.net/DTD/sodipodi-0.dtd"
   xmlns="http://www.w3.org/2000/svg"
   xmlns:svg="http://www.w3.org/2000/svg"
   xmlns:rdf="http://www.w3.org/1999/02/22-rdf-syntax-ns#"
   xmlns:cc="http://creativecommons.org/ns#"
   xmlns:dc="http://purl.org/dc/elements/1.1/">
  <metadata
     id="metadata14">
    <rdf:RDF>
      <cc:Work
         rdf:about="">
        <dc:format>image/svg+xml</dc:format>
        <dc:type
           rdf:resource="http://purl.org/dc/dcmitype/StillImage" />
        <dc:title />
      </cc:Work>
    </rdf:RDF>
  </metadata>
  <defs
     id="defs12" />
  <sodipodi:namedview
     pagecolor="#ffffff"
     bordercolor="#666666"
     borderopacity="1"
     objecttolerance="10"
     gridtolerance="10"
     guidetolerance="10"
     inkscape:pageopacity="0"
     inkscape:pageshadow="2"
     inkscape:window-width="1085"
     inkscape:window-height="480"
     id="namedview10"
     showgrid="false"
     inkscape:zoom="4.9166667"
     inkscape:cx="2.1355932"
     inkscape:cy="24"
     inkscape:window-x="0"
     inkscape:window-y="25"
     inkscape:window-maximized="0"
     inkscape:current-layer="svg8"
     inkscape:showpageshadow="0"
     inkscape:pagecheckerboard="0"
     inkscape:deskcolor="#d1d1d1" />
  <path
     style="color:#000000;font-variant-ligatures:normal;font-variant-position:normal;font-variant-caps:normal;font-variant-numeric:normal;font-variant-alternates:normal;font-feature-settings:normal;text-indent:0;text-decoration:none;text-decoration-line:none;text-decoration-style:solid;text-decoration-color:#000000;text-transform:none;text-orientation:mixed;white-space:normal;shape-padding:0;opacity:0.75;isolation:auto;mix-blend-mode:normal;solid-color:#000000;fill:#bde6c7;fill-opacity:1;paint-order:stroke fill markers"
     d="M 4.941,3.585 H 4.679 C 4.208,3.585 3.762,3.683 3.36,3.853 V 3.85 C 3.308,3.872 3.258,3.896 3.208,3.92 3.197,3.926 3.184,3.93 3.173,3.937 A 3.22,3.22 0 0 0 2.945,4.062 L 2.873,4.108 a 3.163,3.163 0 0 0 -0.6,0.5 L 2.221,4.668 C 2.18,4.714 2.14,4.762 2.102,4.812 L 2.057,4.87 C 2.007,4.938 1.96,5.008 1.917,5.08 L 1.895,5.118 A 2.755,2.755 0 0 0 1.685,5.573 L 1.67,5.612 C 1.643,5.692 1.62,5.773 1.6,5.856 L 1.589,5.925 A 2.621,2.621 0 0 0 1.556,6.118 L 1.547,6.19 A 2.624,2.624 0 0 0 1.532,6.454 c 0,0.09 0.007,0.177 0.015,0.264 l 0.01,0.072 c 0.008,0.065 0.019,0.13 0.032,0.194 0.005,0.023 0.008,0.046 0.014,0.07 0.02,0.082 0.042,0.163 0.069,0.243 l 0.015,0.04 a 2.687,2.687 0 0 0 0.215,0.462 l 0.015,0.027 c 0.044,0.073 0.092,0.144 0.142,0.213 0.014,0.02 0.029,0.037 0.043,0.056 a 2.93,2.93 0 0 0 0.34,0.373 l 0.017,0.017 c 0.063,0.057 0.13,0.112 0.198,0.164 0.019,0.015 0.039,0.028 0.058,0.042 0.056,0.041 0.113,0.08 0.171,0.118 L 2.941,8.843 C 3.017,8.889 3.093,8.933 3.173,8.973 3.186,8.979 3.2,8.984 3.213,8.991 3.261,9.014 3.31,9.038 3.36,9.059 L 3.361,9.056 c 0.402,0.17 0.848,0.268 1.319,0.268 h 3.232 c 0.347,0 0.68,-0.054 0.992,-0.149 L 8.902,9.178 A 3.318,3.318 0 0 0 9.387,8.987 L 9.459,8.95 A 3.22,3.22 0 0 0 9.875,8.693 L 9.926,8.656 C 10.069,8.547 10.2,8.426 10.32,8.297 l 0.055,-0.062 a 2.923,2.923 0 0 0 0.272,-0.368 l 0.042,-0.066 c 0.044,-0.075 0.085,-0.152 0.122,-0.23 V 7.57 l 0.004,-0.008 c 0.034,-0.075 0.065,-0.152 0.092,-0.23 0.01,-0.028 0.018,-0.058 0.027,-0.086 a 2.634,2.634 0 0 0 0.099,-0.44 l 0.012,-0.084 a 2.634,2.634 0 0 0 0,-0.535 C 11.042,6.157 11.037,6.129 11.033,6.101 A 2.594,2.594 0 0 0 10.935,5.664 C 10.925,5.634 10.917,5.604 10.907,5.576 A 2.7,2.7 0 0 0 10.811,5.339 V 5.337 A 2.75,2.75 0 0 0 10.691,5.11 L 10.643,5.034 A 2.84,2.84 0 0 0 10.545,4.889 L 10.538,4.879 9.766,5.576 9.777,5.599 c 0.026,0.046 0.05,0.093 0.07,0.141 l 0.03,0.072 A 1.776,1.776 0 0 1 9.97,6.156 C 9.974,6.182 9.98,6.208 9.983,6.235 9.992,6.306 9.997,6.378 9.997,6.452 V 6.456 C 9.997,6.53 9.992,6.602 9.983,6.673 9.98,6.7 9.974,6.726 9.97,6.753 A 1.786,1.786 0 0 1 9.876,7.096 L 9.848,7.168 A 1.801,1.801 0 0 1 9.778,7.309 C 9.768,7.325 9.761,7.342 9.752,7.359 A 1.85,1.85 0 0 1 9.637,7.531 l -0.04,0.05 A 1.92,1.92 0 0 1 9.5,7.694 L 9.44,7.754 A 1.97,1.97 0 0 1 9.161,7.981 2.22,2.22 0 0 1 7.912,8.356 H 4.678 A 2.264,2.264 0 0 1 3.493,8.025 L 3.439,7.989 A 2.036,2.036 0 0 1 3.079,7.684 L 3.065,7.669 3.063,7.667 A 1.895,1.895 0 0 1 2.791,7.268 L 2.767,7.223 A 1.79,1.79 0 0 1 2.68,7.003 L 2.666,6.952 A 1.773,1.773 0 0 1 2.623,6.767 L 2.612,6.701 A 1.794,1.794 0 0 1 2.593,6.456 V 6.454 A 1.8,1.8 0 0 1 2.612,6.21 L 2.623,6.142 C 2.634,6.079 2.648,6.019 2.666,5.959 L 2.68,5.907 A 1.79,1.79 0 0 1 2.767,5.687 L 2.791,5.642 A 1.824,1.824 0 0 1 3.063,5.244 L 3.065,5.241 3.067,5.239 3.079,5.228 C 3.128,5.174 3.18,5.124 3.236,5.076 L 3.293,5.029 C 3.34,4.991 3.389,4.955 3.439,4.922 L 3.493,4.885 A 2.11,2.11 0 0 1 4.346,4.58 C 4.374,4.576 4.402,4.571 4.431,4.568 4.5,4.561 4.57,4.556 4.641,4.555 L 4.678,4.554 H 5.165 L 4.941,3.691 Z"
     id="path2"
     inkscape:connector-curvature="0" />
  <path
     d="M 3.529,3.901 3.806,5.256 Z M 2.019,4.95 3.174,5.712 Z M 3.177,6.415 1.821,6.693 Z M 5.885,7.593 7.118,8.221 Z M 4.671,8.106 4.043,9.338 Z M 5.45,8.144 5.877,9.46 Z"
     id="path4"
     inkscape:connector-curvature="0"
     style="fill:#1e3f5a;stroke:#1e3f5a;stroke-width:0.318;stroke-linecap:round" />
  <path
     d="M 6.285,0 A 6.295,6.295 0 0 0 0,6.285 6.295,6.295 0 0 0 6.285,12.58 6.295,6.295 0 0 0 12.579,6.285 6.295,6.295 0 0 0 6.285,0 Z M 6.274,0.94 a 5.408,5.408 0 0 1 5.397,5.387 5.407,5.407 0 0 1 -10.814,0 C 0.857,3.34 3.287,0.94 6.274,0.94 Z M 8.693,2.415 A 0.5,0.5 0 0 0 8.363,2.561 L 7.735,3.189 C 7.615,3.303 7.345,3.343 6.922,3.258 6.5,3.172 6.012,2.981 5.609,2.844 A 0.5,0.5 0 0 0 5.179,2.896 C 4.979,3.024 4.811,3.196 4.713,3.42 A 0.976,0.976 0 0 0 4.703,4.162 C 4.802,4.406 4.978,4.594 5.213,4.74 L 4.226,5.662 4.219,5.669 a 1.007,1.007 0 0 0 -0.01,1.422 c 0.39,0.39 1.039,0.386 1.423,-0.009 L 5.989,6.726 A 0.997,0.997 0 0 0 6.162,6.843 C 6.295,7.097 6.534,7.282 6.81,7.353 6.88,7.433 6.95,7.477 7.001,7.508 7.136,7.59 7.18,7.614 7.176,7.61 7.19,7.624 7.206,7.637 7.221,7.65 7.545,7.904 7.953,7.878 8.231,7.773 8.507,7.669 8.714,7.525 8.869,7.271 9.242,6.658 9.319,6.446 10.003,5.671 L 10.624,5.049 A 0.5,0.5 0 0 0 10.648,4.367 L 9.093,2.586 A 0.5,0.5 0 0 0 8.693,2.415 Z M 5.449,3.317 c 0.76,0.258 2.027,0.812 2.632,0.232 L 9.636,5.331 C 8.924,6.137 8.806,6.412 8.443,7.011 8.313,7.224 7.841,7.501 7.53,7.257 7.362,7.089 7.108,7.084 7.153,6.876 A 0.5,0.5 0 0 1 6.554,6.459 0.5,0.5 0 0 1 6.134,5.874 l -0.86,0.86 A 0.5,0.5 0 1 1 4.568,6.027 L 6.138,4.559 C 4.998,4.311 4.914,3.659 5.448,3.317 Z m 4.562,1.177 A 0.226,0.226 0 0 1 10.237,4.72 0.226,0.226 0 0 1 10.011,4.946 0.226,0.226 0 0 1 9.785,4.72 0.226,0.226 0 0 1 10.011,4.494 Z M 7.835,6.862 C 7.852,6.876 7.866,6.887 7.882,6.903 L 7.838,6.863 Z"
     id="path6"
     inkscape:connector-curvature="0"
     style="fill:#bde6fb;fill-opacity:1" />
</svg>
