<?xml version="1.0" encoding="UTF-8" standalone="no"?>
<svg
   width="47.546486"
   height="47.546486"
   viewBox="0 0 12.580008 12.580008"
   version="1.1"
   id="svg6"
   sodipodi:docname="tomato.svg"
   inkscape:version="0.92.4 (5da689c313, 2019-01-14)"
   inkscape:export-filename="tomato.svg"
   inkscape:export-xdpi="96"
   inkscape:export-ydpi="96"
   xmlns:inkscape="http://www.inkscape.org/namespaces/inkscape"
   xmlns:sodipodi="http://sodipodi.sourceforge.net/DTD/sodipodi-0.dtd"
   xmlns="http://www.w3.org/2000/svg"
   xmlns:svg="http://www.w3.org/2000/svg"
   xmlns:rdf="http://www.w3.org/1999/02/22-rdf-syntax-ns#"
   xmlns:cc="http://creativecommons.org/ns#"
   xmlns:dc="http://purl.org/dc/elements/1.1/">
  <metadata
     id="metadata12">
    <rdf:RDF>
      <cc:Work
         rdf:about="">
        <dc:format>image/svg+xml</dc:format>
        <dc:type
           rdf:resource="http://purl.org/dc/dcmitype/StillImage" />
        <dc:title />
      </cc:Work>
    </rdf:RDF>
  </metadata>
  <defs
     id="defs10" />
  <sodipodi:namedview
     pagecolor="#ffffff"
     bordercolor="#666666"
     borderopacity="1"
     objecttolerance="10"
     gridtolerance="10"
     guidetolerance="10"
     inkscape:pageopacity="0"
     inkscape:pageshadow="2"
     inkscape:window-width="1087"
     inkscape:window-height="480"
     id="namedview8"
     showgrid="false"
     inkscape:zoom="4.9166667"
     inkscape:cx="2.1355932"
     inkscape:cy="24"
     inkscape:window-x="0"
     inkscape:window-y="25"
     inkscape:window-maximized="0"
     inkscape:current-layer="svg6"
     inkscape:showpageshadow="0"
     inkscape:pagecheckerboard="0"
     inkscape:deskcolor="#d1d1d1" />
  <path
     d="m 8.7600079,3.33 c -0.53,-0.01 -0.87,0.04 -1.07,0.09 a 0.12,0.12 0 0 0 -0.03,0.22 c 0.63,0.37 0.8,0.85 0.85,1.17 0.01,0.12 -0.13,0.19 -0.21,0.1 a 2.17,2.17 0 0 0 -1.43,-0.58 0.12,0.12 0 0 0 -0.12,0.13 3.38,3.38 0 0 1 -0.59,2.04 0.12,0.12 0 0 1 -0.2,0 c -0.3,-0.47 -0.3,-1.7 -0.3,-2.07 a 0.12,0.12 0 0 0 -0.11,-0.12 c -0.54,-0.07 -1.18,0.36 -1.57,0.68 -0.1,0.08 -0.24,-0.02 -0.19,-0.14 0.3,-0.7 0.77,-1.07 1.02,-1.23 a 0.12,0.12 0 0 0 -0.03,-0.22 1.18,1.18 0 0 0 -0.26,-0.06 10.48,10.48 0 0 0 -1.35,0.29 4.07,4.07 0 0 0 -1.52,3.13 c 0,2.34 2.08,4.24 4.65,4.24 2.57,0 4.6500001,-1.9 4.6500001,-4.24 A 4.12,4.12 0 0 0 9.0500079,3.36 l -0.21,-0.02 z m -6.21,2.09 h 0.07 c 0.1,0.04 0.14,0.15 0.1,0.24 -0.06,0.2 -0.1,0.4 -0.12,0.6 0,0.1 -0.09,0.17 -0.18,0.17 h -0.01 c -0.1,0 -0.18,-0.1 -0.17,-0.2 0.01,-0.23 0.06,-0.47 0.14,-0.7 0.03,-0.06 0.1,-0.1 0.17,-0.11 z m -0.18,1.41 c 0.1,-0.01 0.2,0.06 0.2,0.16 0.04,0.22 0.11,0.43 0.22,0.62 a 0.18,0.18 0 1 1 -0.3,0.19 2.07,2.07 0 0 1 -0.28,-0.76 c -0.01,-0.1 0.06,-0.2 0.16,-0.2 z"
     id="path2"
     inkscape:connector-curvature="0"
     style="opacity:0.75;fill:#9989fb;fill-opacity:1" />
  <path
     d="M 6.2900079,0 A 6.29,6.29 0 0 0 7.9490244e-6,6.3 6.29,6.29 0 0 0 6.3000079,12.58 6.29,6.29 0 0 0 12.580008,6.29 6.29,6.29 0 0 0 6.2900079,0 Z m -0.02,0.93 0.01,0.01 A 5.4,5.4 0 0 1 11.680008,6.34 5.4,5.4 0 0 1 6.2800079,11.75 5.4,5.4 0 0 1 0.87000795,6.35 5.4,5.4 0 0 1 6.2700079,0.93 Z m -0.37,0.48 c -0.16,0 -0.3,0.16 -0.3,0.36 v 0.91 c 0,0.09 -0.08,0.15 -0.16,0.14 a 3.3,3.3 0 0 0 -2.32,0.36 c -0.13,0.08 -0.05,0.28 0.1,0.25 a 2.86,2.86 0 0 1 1.4,0.02 c 0.11,0.04 0.12,0.18 0.03,0.24 -0.28,0.18 -0.79,0.6 -1.12,1.37 -0.06,0.13 0.1,0.25 0.2,0.16 0.44,-0.36 1.14,-0.84 1.74,-0.76 0.07,0.01 0.13,0.07 0.13,0.14 0,0.4 0,1.77 0.33,2.28 0.05,0.09 0.17,0.09 0.23,0.01 0.2,-0.29 0.67,-1.06 0.65,-2.26 0,-0.08 0.06,-0.15 0.14,-0.15 0.3,0.01 1.01,0.1 1.58,0.65 0.1,0.1 0.25,0.01 0.23,-0.11 -0.04,-0.36 -0.24,-0.89 -0.94,-1.3 -0.1,-0.06 -0.09,-0.22 0.03,-0.25 a 5.1,5.1 0 0 1 1.35,-0.1 c 0.14,0 0.2,-0.17 0.08,-0.25 -0.52,-0.33 -1.5,-0.8 -2.43,-0.37 a 0.14,0.14 0 0 1 -0.2,-0.12 V 1.77 c 0,-0.2 -0.13,-0.36 -0.3,-0.36 z"
     id="path4"
     inkscape:connector-curvature="0"
     style="fill:#bde6fb;fill-opacity:1" />
</svg>
