<?xml version="1.0" encoding="UTF-8" standalone="no"?>
<svg
   width="47.50803"
   height="47.545998"
   version="1"
   id="svg8"
   sodipodi:docname="tor-browser-nightly.svg"
   inkscape:version="0.92.4 (5da689c313, 2019-01-14)"
   xmlns:inkscape="http://www.inkscape.org/namespaces/inkscape"
   xmlns:sodipodi="http://sodipodi.sourceforge.net/DTD/sodipodi-0.dtd"
   xmlns="http://www.w3.org/2000/svg"
   xmlns:svg="http://www.w3.org/2000/svg"
   xmlns:rdf="http://www.w3.org/1999/02/22-rdf-syntax-ns#"
   xmlns:cc="http://creativecommons.org/ns#"
   xmlns:dc="http://purl.org/dc/elements/1.1/">
  <metadata
     id="metadata14">
    <rdf:RDF>
      <cc:Work
         rdf:about="">
        <dc:format>image/svg+xml</dc:format>
        <dc:type
           rdf:resource="http://purl.org/dc/dcmitype/StillImage" />
        <dc:title />
      </cc:Work>
    </rdf:RDF>
  </metadata>
  <defs
     id="defs12" />
  <sodipodi:namedview
     pagecolor="#ffffff"
     bordercolor="#666666"
     borderopacity="1"
     objecttolerance="10"
     gridtolerance="10"
     guidetolerance="10"
     inkscape:pageopacity="0"
     inkscape:pageshadow="2"
     inkscape:window-width="862"
     inkscape:window-height="480"
     id="namedview10"
     showgrid="false"
     inkscape:zoom="4.9166667"
     inkscape:cx="2.1355932"
     inkscape:cy="24"
     inkscape:window-x="0"
     inkscape:window-y="25"
     inkscape:window-maximized="0"
     inkscape:current-layer="svg8"
     inkscape:showpageshadow="0"
     inkscape:pagecheckerboard="0"
     inkscape:deskcolor="#d1d1d1" />
  <path
     d="M 23.735029,0 A 23.773,23.773 0 0 0 2.8841853e-5,23.81 23.773,23.773 0 0 0 23.773029,47.546 23.773,23.773 0 0 0 47.508029,23.773 23.773,23.773 0 0 0 23.735029,0 Z m -0.038,3.553 a 20.41,20.41 0 0 1 20.41,20.409 20.41,20.41 0 0 1 -20.41,20.447 A 20.41,20.41 0 0 1 3.2500288,23.999 20.41,20.41 0 0 1 23.660029,3.515 Z"
     id="path2"
     inkscape:connector-curvature="0"
     style="fill:#bde6fb;fill-opacity:1" />
  <rect
     width="36.094002"
     height="36.094002"
     x="-41.876999"
     y="-41.726028"
     rx="18.066"
     ry="18.066"
     transform="matrix(0,-1,-1,0,0,0)"
     id="rect4"
     style="fill:#1c7df4" />
  <path
     d="m 23.773029,6.69 -2.079,0.226 -2.608,0.718 -0.491,0.492 1.625,1.096 v 0.605 l -1.058,0.642 1.247,1.663 0.567,-0.302 0.718,-1.134 a 20.71,20.71 0 0 0 3.024,-1.134 l 0.756,-2.154 z m -4.951,0.15 -0.907,0.152 -0.416,0.378 -0.718,0.113 -0.605,0.303 -0.302,0.15 -0.19,0.265 0.908,0.152 0.34,-0.34 0.68,-0.152 c 0.492,-0.227 0.983,-0.378 1.512,-0.529 z m -4.12,1.89 -0.151,0.34 0.075,0.757 -0.566,0.49 -0.34,0.87 h 0.717 l 0.34,-0.756 0.908,-0.68 0.68,0.265 1.398,0.944 0.719,-0.642 -0.756,-0.302 -0.378,-0.756 -1.323,-0.114 -0.076,-0.378 -0.604,0.114 -0.303,0.567 z m 17.877,0.643 -1.323,0.302 -0.869,0.567 v 0.454 l -1.323,0.87 0.303,1.284 0.756,-0.567 0.49,0.567 0.568,0.303 0.34,-0.945 -0.227,-0.53 0.227,-0.377 0.756,-1.02 h 0.378 l -0.378,1.057 v 0.718 l 0.983,-0.15 -0.908,0.642 -0.075,0.378 -1.02,0.869 -1.059,-0.227 v -0.642 l -0.491,0.302 0.227,0.756 h -0.756 l -0.454,0.53 -0.529,0.566 -0.945,0.227 0.567,0.529 0.151,0.567 h -0.718 l -0.87,0.453 v 1.437 h 0.379 l 0.378,0.415 0.907,-0.415 0.34,-0.87 0.642,-0.378 0.114,-0.34 1.058,-0.226 0.567,0.642 0.605,0.302 -0.34,0.719 0.567,-0.152 0.264,-0.756 -0.68,-0.755 h 0.264 l 0.718,0.529 0.114,0.793 0.642,0.756 0.152,-1.058 0.34,-0.151 0.907,1.171 1.02,0.076 0.643,0.378 -0.265,0.416 -0.642,0.567 h -0.907 l -1.172,-0.378 -0.643,0.038 -0.453,0.529 -1.285,-1.285 -0.907,-0.265 -1.323,0.151 -1.21,0.34 -1.851,2.268 -0.756,1.814 0.378,0.378 -0.643,0.983 0.68,1.663 c 0.605,0.642 1.096,1.323 1.701,2.003 l 0.87,-0.756 0.377,0.454 0.945,-0.605 0.303,0.378 h 0.945 l 0.529,0.605 -0.303,1.058 0.643,0.756 v 1.323 l 0.453,0.945 -0.529,0.755 v 1.739 c 0.265,0.794 0.378,1.587 0.68,2.381 l 0.227,1.247 v 0.643 h 0.756 l 0.756,-0.454 h 0.643 l 0.756,-0.567 0.869,-0.982 -0.19,-0.53 0.908,-0.755 -0.643,-0.756 0.794,-0.68 0.68,-0.492 0.378,-0.378 -0.226,-0.87 v -2.229 l 0.718,-1.323 0.756,-0.87 0.831,-2.04 v -0.567 l -1.21,0.113 0.832,-0.831 1.134,-0.756 0.643,-0.756 v -0.756 l -0.416,-0.794 -0.567,0.643 -0.416,-0.491 -0.642,-0.454 v -1.058 l 0.756,0.831 0.793,-0.113 c 0.378,0.34 0.756,0.642 1.058,1.02 l 0.076,-0.075 c -0.378,-4.158 -2.192,-7.937 -4.913,-10.81 -0.19,-0.15 -0.378,-0.302 -0.454,-0.453 l -0.642,-0.567 -0.227,0.302 -0.68,0.794 -0.945,-1.096 h 0.907 l 0.378,-0.265 -1.625,-0.34 z m -19.729,0 -0.302,0.265 0.113,0.604 -0.983,0.114 A 17.99,17.99 0 0 0 5.6310288,23.811 l 0.265,0.491 1.512,0.87 1.436,0.377 0.642,0.756 0.9450002,0.756 0.567,-0.075 0.416,0.189 v 0.113 l -0.567,1.512 -0.378,0.604 0.113,0.34 -0.453,1.172 1.36,2.268 0.908,1.134 0.529,0.756 -0.038,1.7 0.756,0.945 -0.227,0.983 c 0.794,0.567 1.663,1.02 2.57,1.474 l 0.302,-0.378 0.227,-0.529 0.907,-0.302 0.832,-1.739 -0.378,-0.453 0.529,-0.983 1.02,-0.265 0.643,-0.982 -0.189,-1.588 0.983,-1.171 0.15,-1.172 c -1.133,-0.567 -2.456,-1.134 -3.59,-1.739 l -0.567,-1.133 -1.058,-0.227 -0.529,-1.02 -1.398,0.15 -1.21,-1.02 -1.247,0.794 v 0.189 c -0.378,-0.114 -0.832,-0.152 -1.172,-0.378 L 9.9400288,25.474 v -0.87 l -0.832,0.076 0.227,-1.663 h -0.491 l -0.492,0.643 -0.49,0.226 -0.681,-0.378 -0.076,-0.869 0.151,-0.945 1.02,-0.793 h 0.832 l 0.152,-0.492 1.0580002,0.265 0.68,0.945 0.113,-1.588 1.437,-1.134 0.491,-1.133 0.945,-0.076 0.567,-0.756 1.247,-0.265 0.643,-0.944 h -1.89 l 1.21,-0.53 h 0.83 l 1.172,-0.755 0.152,-0.492 -0.416,-0.378 -0.491,-0.189 0.15,-0.453 -0.377,-0.718 -0.832,0.302 0.151,-0.605 -0.982,-0.567 -0.756,1.361 0.075,0.454 -0.755,0.34 -0.53,1.02 -0.189,-0.945 -1.322,-0.567 -0.227,-0.718 1.738,-1.02 0.756,-0.718 0.076,-0.87 -0.378,-0.226 z m 13.228,0.831 -0.982,0.34 -0.454,-0.075 -0.075,0.454 0.68,0.302 1.285,-0.53 -0.416,-0.49 z m -9.637,0.378 -0.567,0.378 0.718,0.454 h 0.567 v -0.53 z m 11.036,1.777 v 0.491 l 0.264,0.303 v 0.718 l -0.15,0.945 0.755,-0.152 0.567,-0.567 -0.491,-0.453 -0.53,-1.285 z m -0.303,0.945 -0.49,0.189 0.15,0.869 0.643,-0.34 z m -9.6,1.436 0.19,1.134 0.415,-0.68 z m 18.18,6.16 0.832,0.908 0.944,2.003 0.53,0.642 -0.265,0.718 0.53,0.567 -0.757,0.038 a 27.213,27.213 0 0 1 -1.096,-2.834 l -0.756,-0.68 -0.34,-1.135 z"
     id="path6"
     inkscape:connector-curvature="0"
     style="opacity:0.3" />
</svg>
