<?xml version="1.0" encoding="UTF-8" standalone="no"?>
<svg
   width="47.508694"
   height="47.546455"
   viewBox="0 0 12.570009 12.58"
   version="1.1"
   id="svg10"
   sodipodi:docname="tor.svg"
   inkscape:version="0.92.4 (5da689c313, 2019-01-14)"
   xmlns:inkscape="http://www.inkscape.org/namespaces/inkscape"
   xmlns:sodipodi="http://sodipodi.sourceforge.net/DTD/sodipodi-0.dtd"
   xmlns="http://www.w3.org/2000/svg"
   xmlns:svg="http://www.w3.org/2000/svg"
   xmlns:rdf="http://www.w3.org/1999/02/22-rdf-syntax-ns#"
   xmlns:cc="http://creativecommons.org/ns#"
   xmlns:dc="http://purl.org/dc/elements/1.1/">
  <defs
     id="defs14" />
  <sodipodi:namedview
     pagecolor="#ffffff"
     bordercolor="#666666"
     borderopacity="1"
     objecttolerance="10"
     gridtolerance="10"
     guidetolerance="10"
     inkscape:pageopacity="0"
     inkscape:pageshadow="2"
     inkscape:window-width="1087"
     inkscape:window-height="480"
     id="namedview12"
     showgrid="false"
     inkscape:zoom="4.9166667"
     inkscape:cx="2.1355932"
     inkscape:cy="24"
     inkscape:window-x="0"
     inkscape:window-y="25"
     inkscape:window-maximized="0"
     inkscape:current-layer="svg10"
     inkscape:showpageshadow="0"
     inkscape:pagecheckerboard="0"
     inkscape:deskcolor="#d1d1d1" />
  <metadata
     id="metadata2">
    <rdf:RDF>
      <cc:Work>
        <dc:format>image/svg+xml</dc:format>
        <dc:type
           rdf:resource="http://purl.org/dc/dcmitype/StillImage" />
        <dc:title />
      </cc:Work>
    </rdf:RDF>
  </metadata>
  <path
     d="M 6.280008,0 A 6.29,6.29 0 0 0 7.9585612e-6,6.3 6.29,6.29 0 0 0 6.290008,12.58 a 6.29,6.29 0 0 0 6.28,-6.29 6.29,6.29 0 0 0 -6.29,-6.29 z m -0.01,0.94 a 5.4,5.4 0 0 1 5.4,5.4 5.4,5.4 0 0 1 -5.4,5.41 A 5.4,5.4 0 0 1 0.86000796,6.35 5.4,5.4 0 0 1 6.260008,0.93 Z"
     id="path4"
     inkscape:connector-curvature="0"
     style="fill:#bde6fb;fill-opacity:0.988235" />
  <rect
     width="9.5500002"
     height="9.5500002"
     x="-11.08"
     y="-11.040009"
     rx="4.7800002"
     ry="4.7800002"
     transform="matrix(0,-1,-1,0,0,0)"
     id="rect6"
     style="fill:#7535a0" />
  <path
     d="m 6.290008,1.77 -0.55,0.06 -0.69,0.19 -0.13,0.13 0.43,0.29 V 2.6 l -0.28,0.17 0.33,0.44 0.15,-0.08 0.19,-0.3 c 0.28,-0.08 0.54,-0.18 0.8,-0.3 l 0.2,-0.57 z m -1.31,0.04 -0.24,0.04 -0.11,0.1 -0.19,0.03 -0.16,0.08 -0.08,0.04 -0.05,0.07 0.24,0.04 0.09,-0.09 0.18,-0.04 c 0.13,-0.06 0.26,-0.1 0.4,-0.14 z m -1.09,0.5 -0.04,0.09 0.02,0.2 -0.15,0.13 -0.09,0.23 h 0.19 l 0.09,-0.2 0.24,-0.18 0.18,0.07 0.37,0.25 0.19,-0.17 -0.2,-0.08 -0.1,-0.2 -0.35,-0.03 -0.02,-0.1 -0.16,0.03 -0.08,0.15 z m 4.73,0.17 -0.35,0.08 -0.23,0.15 v 0.12 l -0.35,0.23 0.08,0.34 0.2,-0.15 0.13,0.15 0.15,0.08 0.09,-0.25 -0.06,-0.14 0.06,-0.1 0.2,-0.27 h 0.1 l -0.1,0.28 v 0.19 l 0.26,-0.04 -0.24,0.17 -0.02,0.1 -0.27,0.23 -0.28,-0.06 V 3.42 l -0.13,0.08 0.06,0.2 h -0.2 l -0.12,0.14 -0.14,0.15 -0.25,0.06 0.15,0.14 0.04,0.15 h -0.19 l -0.23,0.12 v 0.38 h 0.1 l 0.1,0.11 0.24,-0.11 0.09,-0.23 0.17,-0.1 0.03,-0.09 0.28,-0.06 0.15,0.17 0.16,0.08 -0.09,0.19 0.15,-0.04 0.07,-0.2 -0.18,-0.2 h 0.07 l 0.19,0.14 0.03,0.21 0.17,0.2 0.04,-0.28 0.09,-0.04 0.24,0.31 0.27,0.02 0.17,0.1 -0.07,0.11 -0.17,0.15 h -0.24 l -0.31,-0.1 -0.17,0.01 -0.12,0.14 -0.34,-0.34 -0.24,-0.07 -0.35,0.04 -0.32,0.09 -0.49,0.6 -0.2,0.48 0.1,0.1 -0.17,0.26 0.18,0.44 c 0.16,0.17 0.29,0.35 0.45,0.53 l 0.23,-0.2 0.1,0.12 0.25,-0.16 0.08,0.1 h 0.25 l 0.14,0.16 -0.08,0.28 0.17,0.2 v 0.35 l 0.12,0.25 -0.14,0.2 v 0.46 c 0.07,0.21 0.1,0.42 0.18,0.63 l 0.06,0.33 v 0.17 h 0.2 l 0.2,-0.12 h 0.17 l 0.2,-0.15 0.23,-0.26 -0.05,-0.14 0.24,-0.2 -0.17,-0.2 0.21,-0.18 0.18,-0.13 0.1,-0.1 -0.06,-0.23 V 8.05 l 0.19,-0.35 0.2,-0.23 0.22,-0.54 V 6.78 l -0.32,0.03 0.22,-0.22 0.3,-0.2 0.17,-0.2 v -0.2 l -0.11,-0.21 -0.15,0.17 -0.11,-0.13 -0.17,-0.12 V 5.42 l 0.2,0.22 0.21,-0.03 c 0.1,0.09 0.2,0.17 0.28,0.27 l 0.02,-0.02 c -0.1,-1.1 -0.58,-2.1 -1.3,-2.86 -0.05,-0.04 -0.1,-0.08 -0.12,-0.12 l -0.17,-0.15 -0.06,0.08 -0.18,0.21 -0.25,-0.29 h 0.24 l 0.1,-0.07 -0.43,-0.09 z m -5.22,0 -0.08,0.07 0.03,0.16 -0.26,0.03 a 4.76,4.76 0 0 0 -1.6,3.56 l 0.07,0.13 0.4,0.23 0.38,0.1 0.17,0.2 0.25,0.2 0.15,-0.02 0.11,0.05 v 0.03 l -0.15,0.4 -0.1,0.16 0.03,0.09 -0.12,0.31 0.36,0.6 0.24,0.3 0.14,0.2 -0.01,0.45 0.2,0.25 -0.06,0.26 c 0.21,0.15 0.44,0.27 0.68,0.39 l 0.08,-0.1 0.06,-0.14 0.24,-0.08 0.22,-0.46 -0.1,-0.12 0.14,-0.26 0.27,-0.07 0.17,-0.26 -0.05,-0.42 0.26,-0.31 0.04,-0.31 c -0.3,-0.15 -0.65,-0.3 -0.95,-0.46 l -0.15,-0.3 -0.28,-0.06 -0.14,-0.27 -0.37,0.04 -0.32,-0.27 -0.33,0.21 v 0.05 c -0.1,-0.03 -0.22,-0.04 -0.31,-0.1 l -0.08,-0.2 V 6.51 l -0.22,0.02 0.06,-0.44 h -0.13 l -0.13,0.17 -0.13,0.06 -0.18,-0.1 -0.02,-0.23 0.04,-0.25 0.27,-0.21 h 0.22 l 0.04,-0.13 0.28,0.07 0.18,0.25 0.03,-0.42 0.38,-0.3 0.13,-0.3 0.25,-0.02 0.15,-0.2 0.33,-0.07 0.17,-0.25 h -0.5 l 0.32,-0.14 h 0.22 l 0.31,-0.2 0.04,-0.13 -0.11,-0.1 -0.13,-0.05 0.04,-0.12 -0.1,-0.19 -0.22,0.08 0.04,-0.16 -0.26,-0.15 -0.2,0.36 0.02,0.12 -0.2,0.09 -0.14,0.27 -0.05,-0.25 -0.35,-0.15 -0.06,-0.19 0.46,-0.27 0.2,-0.19 0.02,-0.23 -0.1,-0.06 z m 3.5,0.22 -0.26,0.09 -0.12,-0.02 -0.02,0.12 0.18,0.08 0.34,-0.14 -0.11,-0.13 z m -2.55,0.1 -0.15,0.1 0.19,0.12 h 0.15 V 2.88 Z m 2.92,0.47 V 3.4 l 0.07,0.08 v 0.19 l -0.04,0.25 0.2,-0.04 0.15,-0.15 -0.13,-0.12 -0.14,-0.34 z m -0.08,0.25 -0.13,0.05 0.04,0.23 0.17,-0.09 z m -2.54,0.38 0.05,0.3 0.11,-0.18 z m 4.81,1.63 0.22,0.24 0.25,0.53 0.14,0.17 -0.07,0.19 0.14,0.15 -0.2,0.01 a 7.2,7.2 0 0 1 -0.29,-0.75 l -0.2,-0.18 -0.09,-0.3 z"
     id="path8"
     inkscape:connector-curvature="0"
     style="opacity:0.3" />
</svg>
