<?xml version="1.0" encoding="UTF-8" standalone="no"?>
<svg
   width="47.546455"
   height="47.546459"
   viewBox="0 0 12.58 12.580001"
   version="1.1"
   id="svg8"
   sodipodi:docname="tormessenger.svg"
   inkscape:version="0.92.4 (5da689c313, 2019-01-14)"
   xmlns:inkscape="http://www.inkscape.org/namespaces/inkscape"
   xmlns:sodipodi="http://sodipodi.sourceforge.net/DTD/sodipodi-0.dtd"
   xmlns="http://www.w3.org/2000/svg"
   xmlns:svg="http://www.w3.org/2000/svg"
   xmlns:rdf="http://www.w3.org/1999/02/22-rdf-syntax-ns#"
   xmlns:cc="http://creativecommons.org/ns#"
   xmlns:dc="http://purl.org/dc/elements/1.1/">
  <metadata
     id="metadata14">
    <rdf:RDF>
      <cc:Work
         rdf:about="">
        <dc:format>image/svg+xml</dc:format>
        <dc:type
           rdf:resource="http://purl.org/dc/dcmitype/StillImage" />
        <dc:title />
      </cc:Work>
    </rdf:RDF>
  </metadata>
  <defs
     id="defs12" />
  <sodipodi:namedview
     pagecolor="#ffffff"
     bordercolor="#666666"
     borderopacity="1"
     objecttolerance="10"
     gridtolerance="10"
     guidetolerance="10"
     inkscape:pageopacity="0"
     inkscape:pageshadow="2"
     inkscape:window-width="861"
     inkscape:window-height="480"
     id="namedview10"
     showgrid="false"
     inkscape:zoom="4.9166667"
     inkscape:cx="2.1355932"
     inkscape:cy="24"
     inkscape:window-x="0"
     inkscape:window-y="25"
     inkscape:window-maximized="0"
     inkscape:current-layer="svg8"
     inkscape:showpageshadow="0"
     inkscape:pagecheckerboard="0"
     inkscape:deskcolor="#d1d1d1" />
  <path
     d="M 6.289,7.7605248e-8 A 6.29,6.29 0 0 0 0,6.2900001 6.29,6.29 0 0 0 6.29,12.58 6.29,6.29 0 0 0 12.58,6.2900001 6.29,6.29 0 0 0 6.289,7.7605248e-8 Z M 6.271,0.93700008 A 5.407,5.407 0 0 1 11.679,6.3440001 5.407,5.407 0 0 1 6.271,11.752 5.407,5.407 0 0 1 0.865,6.3440001 5.407,5.407 0 0 1 6.271,0.93800008 Z"
     id="path2"
     inkscape:connector-curvature="0"
     style="fill:#bde6fb;fill-opacity:1" />
  <path
     d="m 6.294,1.7800001 a 4.728,4.728 0 0 0 -0.658,0.05 4.73,4.73 0 0 0 -0.55,0.108 c -1.9,0.495 -3.289,2.12 -3.289,4.047 l 0.001,0.042 v 0.026 c 0,1.325 0.693,2.566 1.797,3.375 V 10.777 l 1.193,-0.702 c 0.483,0.165 0.993,0.25 1.506,0.252 2.393,-0.002 4.364,-1.7839999 4.487,-4.0549999 0.003,-0.05 0.006,-0.1 0.007,-0.15 l 0.004,-0.068 -10e-4,-0.028 v -0.04 c 0,-2.177 -1.77,-3.973 -4.048,-4.183 a 4.698,4.698 0 0 0 -0.374,-0.018 c -0.026,0 -0.05,-0.004 -0.076,-0.004 z m 0.001,2.699 a 1.574,1.574 0 0 1 1.574,1.574 1.574,1.574 0 0 1 -1.574,1.575 1.574,1.574 0 0 1 -0.675,-0.154 v 1.652 a 3.149,3.149 0 0 1 -0.9,-0.35 v -2.723 a 1.574,1.574 0 0 1 1.575,-1.574 z"
     id="path4"
     inkscape:connector-curvature="0"
     style="fill:#bad632" />
  <path
     d="m 6.295,2.9050001 a 3.149,3.149 0 0 0 -3.149,3.148 3.149,3.149 0 0 0 1.575,2.722 v -2.722 a 1.574,1.574 0 0 1 1.574,-1.574 1.574,1.574 0 0 1 1.574,1.574 1.574,1.574 0 0 1 -1.574,1.575 1.574,1.574 0 0 1 -0.675,-0.154 v 1.652 a 3.149,3.149 0 0 0 0.675,0.077 3.149,3.149 0 0 0 0.225,-0.009 V 10.317 c 0.309,-0.015 0.61,-0.06 0.9,-0.13 V 8.9920001 a 3.149,3.149 0 0 0 2.024,-2.94 3.149,3.149 0 0 0 -3.149,-3.147 z m -1.574,5.87 a 3.149,3.149 0 0 0 0.274,0.142 3.149,3.149 0 0 1 -0.274,-0.142 z m 0.274,0.142 a 3.149,3.149 0 0 0 0.012,0.005 3.149,3.149 0 0 1 -0.012,-0.005 z m 0.012,0.005 a 3.149,3.149 0 0 0 0.282,0.11 3.149,3.149 0 0 1 -0.282,-0.11 z m 0.292,0.114 a 3.149,3.149 0 0 0 0.293,0.082 3.149,3.149 0 0 1 -0.293,-0.082 z"
     id="path6"
     inkscape:connector-curvature="0"
     style="fill:#578418" />
</svg>
