<?xml version="1.0" encoding="UTF-8" standalone="no"?>
<svg
   width="47.546486"
   height="47.546486"
   viewBox="0 0 12.580008 12.580008"
   version="1.1"
   id="svg4"
   sodipodi:docname="trackma.svg"
   inkscape:version="0.92.4 (5da689c313, 2019-01-14)"
   xmlns:inkscape="http://www.inkscape.org/namespaces/inkscape"
   xmlns:sodipodi="http://sodipodi.sourceforge.net/DTD/sodipodi-0.dtd"
   xmlns="http://www.w3.org/2000/svg"
   xmlns:svg="http://www.w3.org/2000/svg"
   xmlns:rdf="http://www.w3.org/1999/02/22-rdf-syntax-ns#"
   xmlns:cc="http://creativecommons.org/ns#"
   xmlns:dc="http://purl.org/dc/elements/1.1/">
  <metadata
     id="metadata10">
    <rdf:RDF>
      <cc:Work
         rdf:about="">
        <dc:format>image/svg+xml</dc:format>
        <dc:type
           rdf:resource="http://purl.org/dc/dcmitype/StillImage" />
        <dc:title />
      </cc:Work>
    </rdf:RDF>
  </metadata>
  <defs
     id="defs8" />
  <sodipodi:namedview
     pagecolor="#ffffff"
     bordercolor="#666666"
     borderopacity="1"
     objecttolerance="10"
     gridtolerance="10"
     guidetolerance="10"
     inkscape:pageopacity="0"
     inkscape:pageshadow="2"
     inkscape:window-width="1087"
     inkscape:window-height="480"
     id="namedview6"
     showgrid="false"
     inkscape:zoom="4.9166667"
     inkscape:cx="2.1355932"
     inkscape:cy="24"
     inkscape:window-x="0"
     inkscape:window-y="25"
     inkscape:window-maximized="0"
     inkscape:current-layer="svg4"
     inkscape:showpageshadow="0"
     inkscape:pagecheckerboard="0"
     inkscape:deskcolor="#d1d1d1" />
  <path
     d="M 6.2900079,0 A 6.29,6.29 0 0 0 7.9490244e-6,6.3 6.29,6.29 0 0 0 6.3000079,12.58 6.29,6.29 0 0 0 12.580008,6.29 6.29,6.29 0 0 0 6.2900079,0 Z m -0.01,0.94 A 5.4,5.4 0 0 1 11.680008,6.34 5.4,5.4 0 0 1 6.2800079,11.75 5.4,5.4 0 0 1 0.87000795,6.35 5.4,5.4 0 0 1 6.2700079,0.93 Z m -3.73,2.21 -0.02,0.14 -0.01,0.29 -0.03,0.59 -0.02,0.63 a 56.6,56.6 0 0 0 -0.05,1.22 c -0.04,0.8 -0.05,1.77 -0.03,2 0.03,0.18 0.1,0.47 0.16,0.64 0.38,0.95 1.37,1.57 2.83,1.76 a 9.2,9.2 0 0 0 1.82,0 c 0.6,-0.07 1.1,-0.22 1.56,-0.44 0.69,-0.34 1.12,-0.8 1.3300001,-1.44 0.12,-0.36 0.14,-0.53 0.13,-1.17 l -0.03,-0.77 -0.02,-0.62 -0.02,-0.73 -0.03,-0.6 -0.04,-1.24 c 0,-0.13 -0.02,-0.25 -0.02,-0.25 a 169.23,169.23 0 0 1 -1.5300001,0.9 l -0.53,0.32 h -3.45 l -0.2,-0.15 -0.34,-0.2 -0.22,-0.14 -0.22,-0.14 -0.34,-0.2 -0.43,-0.28 a 1.68,1.68 0 0 0 -0.24,-0.13 z m 5.7,3.07 a 0.5,0.5 0 0 1 0.24,0.08 c 0.23,0.14 0.27,0.53 0.07,0.72 a 0.62,0.62 0 0 1 -0.37,0.14 0.48,0.48 0 0 1 -0.43,-0.54 0.46,0.46 0 0 1 0.5,-0.4 z m -3.84,0 0.17,0.05 c 0.3,0.15 0.35,0.56 0.1,0.77 -0.1,0.09 -0.17,0.11 -0.32,0.11 -0.3,0 -0.52,-0.3 -0.43,-0.6 0.03,-0.12 0.17,-0.27 0.27,-0.3 a 0.6,0.6 0 0 1 0.2,-0.02 z m 1.91,1.54 h 0.26 l 0.07,0.08 c 0.1,0.1 0.1,0.23 0,0.33 -0.04,0.04 -0.08,0.08 -0.08,0.1 0,0.05 0.16,0.2 0.24,0.2 0.15,0.04 0.33,-0.03 0.4,-0.16 0.02,-0.04 0.04,-0.11 0.04,-0.17 0.02,-0.19 0.15,-0.28 0.32,-0.23 0.13,0.04 0.18,0.13 0.17,0.3 a 0.84,0.84 0 0 1 -1.32,0.62 l -0.12,-0.08 -0.12,0.07 a 0.78,0.78 0 0 1 -0.53,0.15 0.82,0.82 0 0 1 -0.7,-0.46 c -0.14,-0.27 -0.12,-0.52 0.04,-0.59 0.12,-0.05 0.18,-0.04 0.26,0.03 0.06,0.06 0.08,0.1 0.1,0.21 0.02,0.12 0.04,0.16 0.1,0.23 0.15,0.14 0.39,0.13 0.51,-0.02 0.06,-0.07 0.08,-0.16 0.04,-0.16 -0.04,0 -0.12,-0.14 -0.12,-0.2 0,-0.08 0.06,-0.18 0.13,-0.22 a 0.91,0.91 0 0 1 0.31,-0.03 z"
     id="path2"
     inkscape:connector-curvature="0"
     style="fill:#bde6fb;fill-opacity:1" />
</svg>
