<?xml version="1.0" encoding="UTF-8" standalone="no"?>
<svg
   width="76.989006"
   height="47.546486"
   viewBox="0 0 20.370008 12.580008"
   version="1.1"
   id="svg10"
   sodipodi:docname="tuxguitar.svg"
   inkscape:version="0.92.4 (5da689c313, 2019-01-14)"
   xmlns:inkscape="http://www.inkscape.org/namespaces/inkscape"
   xmlns:sodipodi="http://sodipodi.sourceforge.net/DTD/sodipodi-0.dtd"
   xmlns="http://www.w3.org/2000/svg"
   xmlns:svg="http://www.w3.org/2000/svg"
   xmlns:rdf="http://www.w3.org/1999/02/22-rdf-syntax-ns#"
   xmlns:cc="http://creativecommons.org/ns#"
   xmlns:dc="http://purl.org/dc/elements/1.1/">
  <metadata
     id="metadata16">
    <rdf:RDF>
      <cc:Work
         rdf:about="">
        <dc:format>image/svg+xml</dc:format>
        <dc:type
           rdf:resource="http://purl.org/dc/dcmitype/StillImage" />
        <dc:title />
      </cc:Work>
    </rdf:RDF>
  </metadata>
  <defs
     id="defs14" />
  <sodipodi:namedview
     pagecolor="#ffffff"
     bordercolor="#666666"
     borderopacity="1"
     objecttolerance="10"
     gridtolerance="10"
     guidetolerance="10"
     inkscape:pageopacity="0"
     inkscape:pageshadow="2"
     inkscape:window-width="1087"
     inkscape:window-height="480"
     id="namedview12"
     showgrid="false"
     inkscape:zoom="4.9166667"
     inkscape:cx="2.1355932"
     inkscape:cy="24"
     inkscape:window-x="0"
     inkscape:window-y="25"
     inkscape:window-maximized="0"
     inkscape:current-layer="svg10"
     inkscape:showpageshadow="0"
     inkscape:pagecheckerboard="0"
     inkscape:deskcolor="#d1d1d1" />
  <path
     d="M 6.2900079,0 A 6.29,6.29 0 0 0 7.9490244e-6,6.3 6.29,6.29 0 0 0 6.3000079,12.58 6.29,6.29 0 0 0 12.580008,6.29 6.29,6.29 0 0 0 6.2900079,0 Z m -0.02,0.93 0.01,0.01 A 5.4,5.4 0 0 1 11.680008,6.34 5.4,5.4 0 0 1 6.2800079,11.75 5.4,5.4 0 0 1 0.87000795,6.35 5.4,5.4 0 0 1 6.2700079,0.93 Z"
     id="path2"
     inkscape:connector-curvature="0"
     style="fill:#bde6fb;fill-opacity:1" />
  <path
     style="font-weight:400;font-size:12.62px;line-height:1.25;font-family:'Electric Guitar Icons';-inkscape-font-specification:'Electric Guitar Icons';letter-spacing:0;word-spacing:0"
     d="m 17.550008,6.49 0.03,0.02 -0.01,0.02 -0.03,-0.03 z m 0.18,0 0.04,0.03 h -0.01 l -0.04,-0.02 V 6.49 Z m -0.34,0 h 0.01 l -0.01,0.03 -0.02,-0.01 z m 0.26,-0.01 0.03,0.03 v 0.01 l -0.04,0.02 c -0.02,-0.01 -0.02,-0.03 0,-0.05 z m 1.1,-0.55 h 0.01 l -0.02,0.03 V 5.95 l 0.01,-0.03 z m 0.9,-0.46 0.04,0.03 -0.02,0.02 -0.02,-0.04 z m -0.16,-0.03 0.04,0.03 -0.01,0.02 -0.04,0.01 V 5.44 Z m -0.44,0.01 -0.02,-0.01 -0.02,0.02 0.02,0.01 z"
     font-weight="400"
     font-size="12.62"
     letter-spacing="0"
     word-spacing="0"
     id="path4"
     inkscape:connector-curvature="0" />
  <path
     style="font-weight:400;font-size:12.62px;line-height:1.25;font-family:'Electric Guitar Icons';-inkscape-font-specification:'Electric Guitar Icons';letter-spacing:0;word-spacing:0"
     d="m 19.060008,5.43 -0.01,0.02 h 0.01 l 0.02,-0.02 z m 0.83,-0.12 0.02,0.01 v 0.01 l -0.03,-0.01 V 5.31 Z m -0.56,-0.03 -0.02,0.02 v 0.01 l 0.03,-0.02 z m 1.02,-0.47 0.02,0.02 -0.02,0.02 c -0.01,0 -0.02,-0.02 0,-0.04 z m -1.86,0.94 0.01,0.01 0.02,-0.02 -0.01,-0.01 z m -0.54,0.31 0.06,-0.01 -0.01,-0.02 -0.04,0.03 z"
     font-weight="400"
     font-size="12.62"
     letter-spacing="0"
     word-spacing="0"
     id="path6"
     inkscape:connector-curvature="0" />
  <path
     d="m 5.8900079,1.96 h -0.17 c -1.47,0.12 -1.08,1.68 -1.1,2.2 -0.03,0.38 -0.1,0.69 -0.37,1.06 -0.27,0.33 -0.65,0.84 -0.87,1.38 a 0.98,0.98 0 0 0 -0.46,0.29 c -0.13,0.17 -0.16,0.43 -0.09,0.8 l 0.12,0.28 -0.02,0.02 c -0.07,0.07 -0.17,0.1 -0.27,0.14 a 0.5,0.5 0 0 0 -0.3,0.24 0.42,0.42 0 0 0 -0.05,0.2 c 0,0.06 0,0.13 0.02,0.2 0.02,0.12 0.04,0.25 0.01,0.33 -0.09,0.24 -0.1,0.4 -0.04,0.52 0.06,0.12 0.19,0.17 0.33,0.2 0.28,0.06 0.67,0.04 0.97,0.2 0.32,0.17 0.65,0.23 0.91,0.17 a 0.6,0.6 0 0 0 0.42,-0.33 c 0.2,0 0.43,-0.09 0.8,-0.1 0.24,-0.02 0.54,0.08 0.9,0.06 0,0.04 0.01,0.08 0.03,0.11 0.14,0.27 0.4,0.4 0.66,0.38 0.27,-0.02 0.55,-0.18 0.79,-0.46 l -0.06,-0.02 0.05,0.03 c 0.22,-0.27 0.58,-0.38 0.83,-0.52 0.12,-0.08 0.22,-0.17 0.22,-0.3 0.01,-0.13 -0.07,-0.28 -0.25,-0.48 -0.06,-0.07 -0.08,-0.2 -0.11,-0.33 -0.03,-0.13 -0.07,-0.27 -0.18,-0.36 a 0.44,0.44 0 0 0 -0.13,-0.08 c 0.15,-0.45 0.1,-0.9 -0.06,-1.3 -0.1,-0.25 -0.24,-0.5 -0.38,-0.71 a 0.52,0.52 0 0 0 0.1,-0.06 V 5.67 c 0.04,0.02 0.12,0 0.24,-0.1 0,0 0,-0.02 -0.03,-0.03 V 5.52 c 0.06,0.04 0.14,0.02 0.25,-0.08 V 5.41 l 0.02,-0.02 v 0.03 c 0.01,0 0.1,-0.03 0.24,-0.13 0,-0.01 0,-0.02 -0.02,-0.03 l 0.01,-0.01 h 0.01 l 0.02,0.04 c 0,-0.02 0.08,-0.06 0.22,-0.14 0.01,-0.01 0.02,-0.03 0.01,-0.07 l 0.03,0.02 c 0.02,0.02 0.1,-0.03 0.26,-0.13 -0.01,-0.05 -0.06,-0.16 -0.16,-0.32 h -0.06 c -0.16,0.1 -0.27,0.16 -0.33,0.17 h 0.01 c -0.02,0.04 -0.04,0.04 -0.06,0.03 v 0.02 l -0.12,0.05 c -0.01,0.04 -0.04,0.04 -0.06,0.02 v 0.03 c -0.02,0.03 -0.05,0.03 -0.07,0.01 v 0.03 l -0.05,0.04 -0.01,-0.04 -0.06,0.08 0.02,0.02 -0.04,-0.02 -0.02,-0.03 -0.04,0.02 v 0.04 l -0.02,0.01 -0.01,-0.03 -0.04,0.03 -0.01,0.03 a 0.13,0.13 0 0 0 -0.04,0.02 l -0.01,-0.02 -0.02,0.04 a 0.16,0.16 0 0 0 -0.07,0.04 l -0.02,-0.03 -0.01,0.04 a 0.13,0.13 0 0 0 -0.04,0.03 l -0.02,-0.03 -0.01,0.05 -0.07,0.03 v 0.03 c -0.03,-0.02 -0.06,-0.01 -0.08,0.02 l -0.01,-0.03 -0.05,0.02 v 0.04 l -0.01,0.01 -0.01,-0.03 -0.02,0.04 -0.12,-0.15 c -0.28,-0.35 -0.55,-0.68 -0.54,-1.17 0,-0.75 0.08,-2.14 -1.24,-2.14 z m 0.18,1.15 c 0.07,0 0.14,0.03 0.2,0.07 0.07,0.05 0.12,0.11 0.16,0.2 a 0.63,0.63 0 0 1 -0.07,0.66 2.46,2.46 0 0 0 -0.13,-0.05 l -0.08,-0.04 c 0.02,-0.02 0.05,-0.04 0.06,-0.07 a 0.4,0.4 0 0 0 0.01,-0.3 0.26,0.26 0 0 0 -0.06,-0.1 0.13,0.13 0 0 0 -0.1,-0.05 0.14,0.14 0 0 0 -0.09,0.04 0.26,0.26 0 0 0 -0.07,0.1 0.43,0.43 0 0 0 -0.02,0.24 1.06,1.06 0 0 0 -0.22,-0.07 V 3.66 c 0,-0.1 0.01,-0.2 0.05,-0.28 a 0.47,0.47 0 0 1 0.15,-0.2 0.33,0.33 0 0 1 0.2,-0.07 z m -1.03,0.08 c 0.05,0 0.1,0.02 0.14,0.06 a 0.4,0.4 0 0 1 0.12,0.16 0.67,0.67 0 0 1 0.05,0.33 0.62,0.62 0 0 0 -0.16,0.08 v -0.1 a 0.4,0.4 0 0 0 -0.03,-0.11 0.22,0.22 0 0 0 -0.05,-0.09 0.1,0.1 0 0 0 -0.08,-0.02 l -0.06,0.03 a 0.22,0.22 0 0 0 -0.04,0.1 c -0.01,0.04 -0.02,0.08 -0.01,0.12 0,0.05 0.01,0.08 0.03,0.12 a 0.22,0.22 0 0 0 0.07,0.1 l -0.07,0.03 -0.05,0.03 a 0.42,0.42 0 0 1 -0.1,-0.14 0.64,0.64 0 0 1 -0.05,-0.23 c 0,-0.08 0,-0.15 0.03,-0.23 a 0.4,0.4 0 0 1 0.1,-0.17 c 0.04,-0.05 0.09,-0.07 0.14,-0.07 h 0.01 z m 0.47,0.6 c 0.12,0 0.25,0.03 0.42,0.14 0.1,0.06 0.19,0.07 0.37,0.15 0.1,0.04 0.14,0.08 0.17,0.13 a 0.2,0.2 0 0 1 0,0.17 c -0.04,0.11 -0.18,0.23 -0.37,0.29 -0.1,0.03 -0.17,0.1 -0.27,0.15 a 0.6,0.6 0 0 1 -0.35,0.1 0.46,0.46 0 0 1 -0.27,-0.11 l -0.21,-0.18 c -0.14,-0.07 -0.22,-0.17 -0.24,-0.25 -0.03,-0.07 0,-0.14 0.06,-0.2 l 0.17,-0.12 c 0.04,-0.02 0.05,-0.03 0.06,-0.05 0.06,-0.05 0.16,-0.15 0.3,-0.2 a 0.5,0.5 0 0 1 0.16,-0.03 z m 5.0700001,0.1 a 0.1,0.1 0 0 0 -0.06,0.02 l -0.03,0.03 0.01,0.06 0.07,0.04 c -0.01,0.02 0,0.03 0.02,0.05 l -0.01,0.02 c -0.09,0.02 -0.13,0.03 -0.14,0.02 l -0.03,-0.06 h 0.02 c 0.03,-0.04 0.04,-0.08 0.02,-0.1 -0.05,-0.05 -0.1,-0.04 -0.15,0.01 l 0.01,0.07 0.04,0.03 h 0.03 c 0.01,0.04 0.01,0.06 0,0.07 -0.06,0.01 -0.1,0.02 -0.12,0.04 l -0.03,-0.02 -0.01,-0.06 0.03,-0.01 0.02,-0.02 V 4.01 c -0.06,-0.04 -0.11,-0.04 -0.16,0.02 v 0.06 l 0.04,0.03 0.04,0.01 0.02,0.05 -0.15,0.04 a 0.13,0.13 0 0 0 -0.03,-0.04 l 0.05,-0.06 V 4.05 l -0.03,-0.02 c -0.07,0 -0.1000001,0 -0.1200001,0.02 l -0.01,0.02 v 0.07 l 0.04,0.03 h 0.04 v 0.06 c -0.08,0.03 -0.1400001,0.04 -0.1500001,0.03 l -0.01,-0.01 c 0.05,-0.08 0.05,-0.14 0.02,-0.16 -0.06,-0.01 -0.1,-0.01 -0.13,0.01 -0.02,0.05 -0.02,0.08 0,0.1 l 0.02,0.01 c 0.01,0.02 0.03,0.01 0.04,0 l 0.02,0.05 c -0.03,0.03 -0.08,0.05 -0.15,0.04 l -0.01,-0.01 c 0.04,-0.08 0.05,-0.12 0.03,-0.13 -0.06,-0.05 -0.1,-0.05 -0.15,0 l -0.01,0.07 0.08,0.04 c 0.02,0.02 0.02,0.03 0,0.04 l -0.19,0.05 v 0.01 c 0,0.05 -0.02,0.09 -0.04,0.12 l -0.05,0.07 -0.03,0.01 c 0,0.04 0.05,0.15 0.17,0.35 0.2,-0.1 0.37,-0.1 0.48,0 0.03,0.01 0.2200001,-0.14 0.5800001,-0.47 l 0.05,0.04 c 0.1,0.09 0.22,0.07 0.34,-0.04 0.08,-0.1 0.08,-0.2 0,-0.32 -0.07,-0.05 -0.16,-0.06 -0.28,-0.04 l -0.01,-0.01 c -0.02,-0.01 0,-0.07 0.02,-0.16 a 0.12,0.12 0 0 0 -0.06,-0.03 z M 5.3700079,3.93 h -0.06 c -0.02,0.02 -0.05,0.03 -0.05,0.05 0,0.02 0.03,0.03 0.05,0.03 0.02,0 0.03,-0.02 0.05,-0.03 0.01,-0.01 0.05,0 0.05,-0.03 V 3.93 l -0.04,-0.01 z m 0.28,0 h -0.03 l -0.01,0.02 c 0,0.02 0.03,0.02 0.05,0.03 0.02,0 0.03,0.03 0.05,0.03 0.02,0 0.05,0 0.05,-0.03 0,-0.02 -0.03,-0.03 -0.05,-0.04 a 0.14,0.14 0 0 0 -0.06,-0.01 z m 4.9400001,0.21 0.05,0.04 -0.04,0.05 h -0.01 c -0.01,-0.04 -0.02,-0.06 0,-0.07 z m -0.2,0.06 h 0.03 l 0.02,0.02 v 0.03 a 0.14,0.14 0 0 0 -0.03,0.03 l -0.01,-0.02 -0.02,-0.05 h 0.02 z M 6.2700079,4.23 c -0.04,0 -0.04,0.04 -0.1,0.08 l -0.22,0.15 c -0.12,0.07 -0.32,0.17 -0.49,0.17 a 0.65,0.65 0 0 1 -0.4,-0.16 l -0.13,-0.11 c -0.02,-0.03 -0.03,-0.08 -0.07,-0.08 -0.02,0 -0.03,0.06 0.03,0.1 0.03,0.03 0.07,0.08 0.13,0.12 0.1,0.08 0.26,0.17 0.44,0.17 0.2,0 0.37,-0.1 0.52,-0.17 0.08,-0.04 0.18,-0.12 0.24,-0.17 0.07,-0.06 0.1,-0.1 0.06,-0.11 h -0.01 z m 3.9500001,0.01 0.03,0.02 v 0.05 h -0.04 c -0.02,-0.01 -0.02,-0.02 0,-0.04 z m -0.2,0.05 0.03,0.02 c 0.02,0.01 0.02,0.02 0,0.04 0,0.02 -0.02,0.02 -0.03,0 -0.02,0 -0.02,-0.02 -0.01,-0.04 z m -0.1800001,0.05 0.03,0.01 V 4.4 l -0.02,0.02 -0.05,-0.04 0.02,-0.02 z m -0.2,0.05 h 0.03 c 0.02,0.02 0.02,0.03 0,0.05 l -0.01,0.02 -0.05,-0.04 0.02,-0.02 z m -3.15,0.1 c 0.1,0.43 0.33,1 0.51,1.39 h -0.04 l 0.02,-0.02 c -0.01,-0.03 -0.03,-0.03 -0.03,-0.01 l -0.03,0.04 h 0.01 l 0.02,-0.02 0.02,0.01 -0.02,0.02 a 0.1,0.1 0 0 0 -0.04,0.02 l 0.01,-0.03 -0.07,0.02 v 0.06 c -0.02,-0.02 -0.04,0.01 -0.06,0.01 l -0.01,0.01 a 0.1,0.1 0 0 0 -0.04,0.03 l -0.02,-0.01 0.01,-0.01 c 0,0 -0.02,-0.02 -0.04,0 l 0.03,0.07 c -0.04,-0.02 -0.06,-0.02 -0.08,0 h -0.02 l 0.02,-0.03 c -0.01,-0.01 -0.04,0 -0.07,0.02 l -0.02,0.02 c 0.02,0.02 0.03,0.01 0.05,-0.01 h 0.01 v 0.02 a 0.52,0.52 0 0 0 -0.12,0.07 l -0.01,-0.01 0.01,-0.01 0.03,-0.02 0.02,-0.03 c -0.02,0 -0.1,0.04 -0.27,0.15 l 0.03,0.04 c -0.05,0 -0.08,0.01 -0.09,0.03 V 6.29 l 0.03,-0.02 0.01,-0.01 -0.02,-0.02 -0.06,0.05 -0.01,0.01 0.03,0.02 -0.02,0.02 h -0.04 l 0.02,-0.02 c -0.12,0.03 -0.2,0.07 -0.23,0.11 l 0.01,0.01 a 0.36,0.36 0 0 1 -0.06,0.06 h -0.02 l 0.01,-0.02 0.03,-0.01 0.01,-0.01 -0.07,-0.04 c -0.16,-0.17 -0.18,-0.34 -0.06,-0.49 l 0.05,-0.05 c 0.01,-0.03 0.12,-0.1 0.3,-0.22 0.04,-0.05 0.03,-0.1 -0.05,-0.17 -0.15,-0.11 -0.4,-0.05 -0.76,0.2 -0.34,0.43 -0.65,0.68 -0.94,0.75 h -0.13 c 0.2,-0.44 0.6,-1.2 0.63,-1.82 l 0.1,0.07 c 0.08,0.04 0.14,0.1 0.21,0.17 a 0.5,0.5 0 0 0 0.35,0.12 c 0.14,0 0.25,-0.05 0.34,-0.1 l 0.26,-0.15 a 0.7,0.7 0 0 0 0.37,-0.24 z m 2.23,0.5 h 0.02 V 5 c -0.02,0.02 -0.04,0.02 -0.05,0.01 l 0.01,-0.01 z m -0.05,0.02 0.01,0.01 -0.02,0.03 z m 0.07,0.02 h 0.01 c 0,0.03 0.02,0.04 0.03,0.05 l -0.01,0.01 -0.02,-0.01 a 0.13,0.13 0 0 0 -0.02,-0.04 z m -0.27,0.1 h 0.03 c -0.02,0.03 -0.02,0.05 0.02,0.08 l -0.02,0.02 a 0.16,0.16 0 0 0 -0.06,-0.08 l 0.02,-0.01 z m 0.32,0 0.03,0.02 -0.01,0.01 -0.03,-0.01 z m -0.14,0.03 0.03,0.02 -0.02,0.02 -0.03,-0.02 z m 0.17,0.02 0.02,0.01 V 5.2 l -0.03,-0.02 z m -0.47,0.02 h 0.01 v 0.01 a 0.13,0.13 0 0 0 -0.05,0.03 V 5.22 a 0.14,0.14 0 0 0 0.04,-0.02 z m -0.14,0.04 0.04,0.06 h -0.02 c -0.02,-0.03 -0.03,-0.04 -0.02,-0.06 z m 0.06,0.08 0.01,0.01 c 0,0.03 0.02,0.05 0.03,0.07 h -0.02 c -0.03,-0.04 -0.03,-0.07 -0.02,-0.08 z m -0.28,0.06 0.04,0.05 -0.01,0.01 -0.05,-0.03 z m 0.05,0.08 0.01,0.01 -0.02,0.02 h -0.01 z m 0.04,0.07 0.01,0.01 -0.01,0.02 h -0.01 z m 0.05,0.1 0.02,0.02 -0.03,-0.01 z m -0.9,0.01 0.04,0.05 -0.01,0.01 0.01,0.01 0.02,-0.01 -0.03,0.03 c -0.05,-0.06 -0.06,-0.09 -0.03,-0.09 z m -3.05,0.15 c 0.04,-0.03 0.02,0.05 -0.14,0.34 l -0.15,0.36 -0.07,0.01 c 0.1,-0.28 0.25,-0.53 0.36,-0.71 z m 2.85,0.14 h 0.02 a 0.13,0.13 0 0 0 -0.03,0.03 l -0.02,-0.01 0.01,-0.02 0.03,-0.01 z m 0.47,0.02 0.02,0.02 c -0.02,0 -0.02,-0.01 -0.02,-0.02 z m -0.43,0.06 0.01,0.02 z m -0.2,0 0.02,0.02 v 0.01 l -0.04,-0.01 z m 0.7,0.03 c 0.1,0.17 0.19,0.35 0.24,0.55 0.04,0.2 0.05,0.4 0,0.59 0.03,0 0.05,0.02 0.08,0.03 0.36,0.17 0.49,0.33 0.42,0.54 h -0.06 c 0.05,-0.17 -0.07,-0.3 -0.37,-0.43 -0.32,-0.14 -0.58,-0.13 -0.62,0.16 v 0.04 a 0.49,0.49 0 0 0 -0.08,0.04 c -0.15,0.08 -0.23,0.23 -0.28,0.4 -0.04,0.2 -0.06,0.41 -0.07,0.66 0,0.13 -0.06,0.3 -0.11,0.47 -0.52,0.38 -1.25,0.54 -1.87,0.12 a 2.75,2.75 0 0 0 -0.14,-0.2 l -0.02,-0.03 c 0.1,-0.07 0.2,-0.15 0.3,-0.27 l 0.22,-0.33 0.08,-0.1 c 0.1,-0.12 0.24,-0.21 0.4,-0.26 0.42,-0.03 0.68,-0.11 0.78,-0.23 l 0.04,-0.05 c 0.08,-0.14 0.1,-0.22 0.06,-0.26 l -0.04,-0.03 -0.07,-0.03 c -0.25,0.1 -0.42,0.12 -0.52,0.04 -0.06,-0.05 -0.11,-0.17 -0.16,-0.37 0.04,-0.01 0.1,-0.03 0.16,-0.07 0.01,-0.02 0,-0.07 -0.06,-0.15 V 6.86 h 0.02 l 0.05,0.11 c 0.03,0.02 0.06,0.01 0.1,-0.02 V 6.9 l 0.02,0.03 h 0.01 l 0.17,-0.11 0.01,-0.01 -0.02,-0.02 V 6.77 l 0.02,0.02 c 0.03,0.02 0.07,0 0.11,-0.05 l -0.02,-0.02 0.01,-0.01 h 0.01 l 0.02,0.04 c 0.14,-0.08 0.22,-0.13 0.23,-0.15 l -0.03,-0.02 0.03,-0.03 0.01,0.04 h 0.01 l 0.11,-0.06 V 6.49 c 0.04,0.03 0.14,-0.02 0.3,-0.15 l -0.03,-0.03 0.01,-0.01 0.02,0.01 v 0.03 l 0.15,-0.08 c 0.1,0.2 0.22,0.5 0.28,0.84 0.05,0 0.11,0 0.18,0.02 0.14,-0.37 0.02,-0.77 -0.14,-1.05 0.02,0 0.03,-0.02 0.05,-0.03 z m -0.46,0.04 0.01,0.02 h -0.02 z m -0.2,0 0.03,0.02 -0.01,0.02 -0.03,-0.02 z m -0.1,0 0.04,0.03 -0.02,0.03 -0.03,-0.03 z m -0.08,0.01 0.01,0.02 -0.02,0.02 -0.01,-0.01 z m -0.17,0.07 0.01,0.01 0.06,0.08 -0.01,0.02 -0.02,-0.02 a 0.23,0.23 0 0 0 -0.05,-0.08 z m -0.15,0 0.02,0.01 -0.02,0.05 -0.04,-0.02 z m 0.56,0.03 0.02,0.02 v 0.01 l -0.04,-0.02 z m -0.63,0.02 h 0.02 v 0.02 a 0.15,0.15 0 0 0 -0.05,0.02 h -0.01 V 6.23 a 0.13,0.13 0 0 0 0.04,-0.02 z m 0.57,0.03 0.02,0.02 -0.02,0.02 -0.02,-0.02 z m 0.1,0 v 0.03 h -0.02 z m -0.21,0 0.03,0.03 -0.01,0.01 -0.03,-0.02 z m -0.35,0.01 c 0.01,0.01 0.02,0.03 0,0.04 l -0.02,-0.02 z m 0.02,0.07 0.04,0.03 -0.03,0.03 V 6.37 c -0.02,-0.01 -0.02,-0.03 -0.01,-0.05 z m 0.37,0 0.04,0.03 v 0.01 l -0.05,-0.03 z m -0.74,0.03 v 0.01 a 0.24,0.24 0 0 0 -0.06,0.07 l -0.03,-0.02 z m -0.55,0.02 c 0.02,0.02 0.04,0.09 0.05,0.2 l 0.02,0.03 h 0.04 l -0.02,0.03 h -0.03 l -0.02,-0.02 c -0.01,-0.01 -0.08,0.02 -0.2,0.1 0.02,0.04 0.1,0.2 0.27,0.46 0,0.16 0.05,0.28 0.13,0.34 0.17,0.14 0.38,0.14 0.6,0.01 l 0.04,0.02 -0.04,0.07 c -0.08,0.1 -0.2,0.18 -0.4,0.26 -0.4,0.03 -0.65,0.1 -0.74,0.21 l -0.29,0.37 c -0.16,0.2 -0.28,0.32 -0.38,0.39 l -0.21,-0.32 c 0,-0.04 0,-0.09 0.02,-0.17 a 0.4,0.4 0 0 0 0.18,-0.1 c 0.02,-0.02 -0.1,-0.23 -0.33,-0.62 l -0.02,0.03 -0.02,-0.02 c 0.03,-0.03 0.03,-0.05 0,-0.07 l -0.04,-0.02 c 0.02,-0.02 0.01,-0.05 0,-0.08 h -0.05 c 0.02,-0.03 -0.03,-0.13 -0.15,-0.31 h -0.01 l -0.03,-0.02 0.07,-0.1 a 0.93,0.93 0 0 1 0.35,-0.18 c 0.46,-0.07 0.72,-0.13 0.79,-0.19 0.25,-0.22 0.38,-0.32 0.42,-0.3 z m 0.4,0.06 h 0.02 l -0.02,0.03 z m 0.12,0.04 h 0.02 l -0.02,0.03 h -0.02 l 0.02,-0.02 0.02,-0.01 z m 0.15,0 0.02,0.02 v 0.04 l -0.04,-0.03 z m -0.43,0.02 0.02,0.01 c 0.02,0.02 0.02,0.03 0,0.05 0,-0.02 -0.03,-0.01 -0.04,0 a 0.12,0.12 0 0 0 0.02,-0.06 z m 0.77,0 c 0.02,0.02 0.02,0.03 0.01,0.05 l -0.02,-0.02 z m -0.6,0.03 0.02,0.02 -0.01,0.02 h -0.04 z m 0.14,0.02 0.02,0.02 -0.02,0.02 V 6.53 Z m 0.09,0.01 0.02,0.02 -0.02,0.02 -0.02,-0.02 z m -0.5,0 0.03,0.02 -0.02,0.03 V 6.53 Z m 0.14,0 0.03,0.03 c 0.02,0.02 0.02,0.03 0.01,0.05 l -0.04,-0.02 -0.01,-0.04 z m 0.44,0.01 0.02,0.01 -0.02,0.02 h -0.01 z m 0.16,0 0.01,0.02 0.03,0.04 h -0.02 a 0.13,0.13 0 0 0 -0.03,-0.04 z m -0.43,0.06 h 0.01 l 0.03,0.04 -0.01,0.02 -0.02,-0.01 c 0,-0.03 -0.01,-0.04 -0.02,-0.04 z m -0.25,0.01 0.01,0.01 c 0.02,0.02 0.02,0.03 0,0.05 V 6.68 c -0.02,-0.01 -0.02,-0.03 -0.01,-0.05 z m -0.18,0.01 v 0.01 a 0.17,0.17 0 0 0 -0.02,0.06 l -0.04,-0.03 z m 0.32,0.02 0.03,0.03 V 6.7 l -0.05,-0.03 z m 0.08,0.01 0.03,0.02 -0.03,0.03 -0.02,-0.02 z m -0.3,0.02 c 0.02,0.05 0.04,0.09 0.07,0.11 l -0.01,0.01 -0.03,-0.02 -0.03,-0.06 h -0.02 z m 0.37,0 0.02,0.02 h -0.03 z m -0.58,0.01 0.01,0.01 v 0.01 a 0.1,0.1 0 0 0 -0.05,0.03 V 6.73 a 0.14,0.14 0 0 0 0.04,-0.03 z m 0.48,0.05 c 0.02,0.02 0.03,0.03 0.01,0.05 V 6.79 c -0.02,-0.01 -0.02,-0.03 -0.01,-0.04 z m -0.37,0 h 0.03 l -0.02,0.02 -0.02,-0.01 z m 0.51,0 0.03,0.03 -0.03,0.02 V 6.76 Z m -0.3,0.02 v 0.01 l 0.02,0.03 c -0.01,0.02 -0.03,0.02 -0.04,0.01 l -0.01,-0.01 z m -0.63,0.02 c -0.01,-0.01 -0.07,0.01 -0.17,0.07 -0.01,0.04 -0.01,0.06 0,0.07 l 0.04,0.03 0.04,-0.03 0.02,-0.04 h 0.08 a 0.13,0.13 0 0 0 -0.03,0.05 c -0.05,0 -0.08,0 -0.09,0.02 v 0.01 c 0,0.05 0.09,0.21 0.25,0.5 0.02,0 0.07,-0.01 0.16,-0.07 0.02,-0.02 -0.04,-0.17 -0.18,-0.42 a 0.1,0.1 0 0 0 -0.05,-0.02 c 0.02,-0.02 0.02,-0.04 0,-0.06 l -0.02,-0.02 h -0.03 c 0.02,-0.03 0.01,-0.06 -0.02,-0.09 z m 0.7,0.02 -0.01,0.03 z m 0.14,0.02 c 0.02,0 0.02,0.02 0,0.04 l -0.02,-0.02 z m 0.13,0 0.03,0.02 v 0.01 l -0.04,-0.02 z m -0.36,0.02 0.02,0.02 -0.02,0.02 c -0.02,0 -0.02,-0.02 0,-0.04 z m -0.1,0.05 0.02,0.02 h -0.03 z m 0.12,0.01 0.02,0.01 0.03,0.05 -0.01,0.02 V 6.98 l -0.05,-0.05 z m -0.62,0.05 0.04,0.02 -0.05,0.06 a 0.1,0.1 0 0 0 -0.04,-0.01 z m 0.58,0.08 0.02,0.02 -0.03,-0.01 z m -0.52,0.02 0.01,0.05 h -0.04 l -0.02,-0.02 0.02,-0.02 z m 0.03,0.08 0.03,0.03 -0.03,0.04 -0.04,-0.02 z m -0.84,0.08 c -0.02,-0.02 -0.08,0 -0.18,0.07 -0.01,0.02 0.1,0.22 0.33,0.6 0.02,0.01 0.08,-0.02 0.17,-0.09 l -0.22,-0.4 -0.04,-0.02 -0.05,-0.16 z m 0.88,0 0.03,0.01 v 0.04 l -0.02,0.03 -0.02,-0.02 c -0.02,0 -0.02,-0.02 0,-0.04 l 0.01,-0.01 z m -0.9,0.08 h 0.02 a 0.12,0.12 0 0 0 -0.02,0.06 c -0.01,0.02 -0.03,0.02 -0.04,0 l -0.03,-0.01 0.03,-0.04 z m 0.95,0 0.04,0.02 v 0.04 l -0.03,0.02 -0.04,-0.04 z m -1.04,0.05 h 0.01 l -0.02,0.03 z m 0.13,0.04 h 0.03 l -0.02,0.05 c 0,0.02 -0.03,0.01 -0.08,0 l 0.03,-0.04 h 0.04 z m -0.4,0.04 0.02,0.01 -0.03,0.04 a 0.1,0.1 0 0 0 -0.05,-0.01 z m 0.43,0.04 0.02,0.02 c 0.02,0.01 0.02,0.03 0,0.05 h -0.03 l -0.02,-0.02 z m -0.41,0.08 0.03,0.01 -0.03,0.04 -0.03,-0.02 V 7.57 Z m 0.46,0.02 h 0.02 c 0.02,0.02 0.02,0.03 0.01,0.05 h -0.04 l -0.03,-0.02 0.02,-0.02 z m -0.39,0.03 h 0.02 v 0.04 l -0.04,0.04 h -0.02 V 7.63 a 0.17,0.17 0 0 0 0.04,-0.04 z m 0.41,0.05 h 0.03 l 0.02,0.02 0.01,0.03 h -0.06 l 0.01,-0.05 z m 2.7,0 c 0.02,0.22 0.13,0.44 0.32,0.48 0.2,0.06 0.5,-0.12 0.62,-0.26 h 0.08 c 0.1,0 0.2,0 0.3,0.08 0.06,0.06 0.1,0.18 0.13,0.3 0.03,0.14 0.05,0.28 0.14,0.38 0.17,0.2 0.23,0.32 0.22,0.4 0,0.08 -0.06,0.15 -0.17,0.21 -0.22,0.13 -0.6,0.25 -0.86,0.55 -0.21,0.26 -0.48,0.4 -0.7,0.42 a 0.53,0.53 0 0 1 -0.56,-0.32 c -0.07,-0.14 -0.04,-0.36 0.02,-0.59 0.06,-0.23 0.15,-0.47 0.16,-0.66 0.01,-0.25 0.03,-0.47 0.07,-0.63 0.04,-0.17 0.1,-0.28 0.22,-0.35 h 0.02 z m -3.76,0.02 h 0.05 l 0.1,0.03 0.1,0.06 0.08,0.07 0.08,0.1 0.32,0.59 c 0.09,0.17 0.26,0.37 0.42,0.57 0.15,0.2 0.26,0.4 0.25,0.55 -0.02,0.26 -0.17,0.4 -0.4,0.45 -0.22,0.06 -0.52,0 -0.83,-0.16 -0.34,-0.17 -0.74,-0.16 -1,-0.21 -0.12,-0.03 -0.2,-0.07 -0.25,-0.14 -0.04,-0.08 -0.04,-0.2 0.05,-0.43 0.04,-0.13 0,-0.27 -0.01,-0.4 -0.02,-0.12 -0.03,-0.24 0.01,-0.32 0.06,-0.11 0.14,-0.15 0.24,-0.19 0.1,-0.03 0.23,-0.06 0.32,-0.16 0.1,-0.1 0.16,-0.2 0.24,-0.3 0.06,-0.06 0.13,-0.1 0.23,-0.11 z m 0.7,0.02 0.02,0.02 0.01,0.03 c -0.03,0 -0.05,0.02 -0.06,0.03 l -0.02,-0.04 a 0.17,0.17 0 0 0 0.05,-0.04 z m 0.42,0.04 h 0.03 l 0.03,0.03 -0.04,0.05 -0.03,-0.02 V 7.73 Z m -0.38,0.08 0.03,0.02 -0.02,0.01 -0.02,-0.02 z m 0.06,0.07 h 0.01 l -0.02,0.05 -0.03,-0.01 a 0.1,0.1 0 0 0 0.05,-0.04 z m 0.04,0.1 c 0.02,0 0.04,0.03 0.06,0.07 a 0.13,0.13 0 0 0 -0.04,0.03 l -0.03,-0.02 h 0.03 V 8.02 l -0.03,0.02 V 8.03 a 0.1,0.1 0 0 0 0.01,-0.06 z"
     id="path8"
     inkscape:connector-curvature="0"
     style="fill:#bde6fb;fill-opacity:1" />
</svg>
