<?xml version="1.0" encoding="UTF-8" standalone="no"?>
<svg
   width="47.50803"
   height="47.545998"
   version="1"
   id="svg6"
   sodipodi:docname="tweetdeck.svg"
   inkscape:version="0.92.4 (5da689c313, 2019-01-14)"
   xmlns:inkscape="http://www.inkscape.org/namespaces/inkscape"
   xmlns:sodipodi="http://sodipodi.sourceforge.net/DTD/sodipodi-0.dtd"
   xmlns="http://www.w3.org/2000/svg"
   xmlns:svg="http://www.w3.org/2000/svg"
   xmlns:rdf="http://www.w3.org/1999/02/22-rdf-syntax-ns#"
   xmlns:cc="http://creativecommons.org/ns#"
   xmlns:dc="http://purl.org/dc/elements/1.1/">
  <metadata
     id="metadata12">
    <rdf:RDF>
      <cc:Work
         rdf:about="">
        <dc:format>image/svg+xml</dc:format>
        <dc:type
           rdf:resource="http://purl.org/dc/dcmitype/StillImage" />
        <dc:title />
      </cc:Work>
    </rdf:RDF>
  </metadata>
  <defs
     id="defs10" />
  <sodipodi:namedview
     pagecolor="#ffffff"
     bordercolor="#666666"
     borderopacity="1"
     objecttolerance="10"
     gridtolerance="10"
     guidetolerance="10"
     inkscape:pageopacity="0"
     inkscape:pageshadow="2"
     inkscape:window-width="862"
     inkscape:window-height="480"
     id="namedview8"
     showgrid="false"
     inkscape:zoom="4.9166667"
     inkscape:cx="2.1355932"
     inkscape:cy="24"
     inkscape:window-x="0"
     inkscape:window-y="25"
     inkscape:window-maximized="0"
     inkscape:current-layer="svg6"
     inkscape:showpageshadow="0"
     inkscape:pagecheckerboard="0"
     inkscape:deskcolor="#d1d1d1" />
  <path
     d="M 23.735029,0 A 23.773,23.773 0 0 0 2.8841853e-5,23.81 23.773,23.773 0 0 0 23.773029,47.546 23.773,23.773 0 0 0 47.508029,23.773 23.773,23.773 0 0 0 23.735029,0 Z m -0.038,3.553 a 20.41,20.41 0 0 1 20.41,20.409 20.41,20.41 0 0 1 -20.41,20.447 A 20.41,20.41 0 0 1 3.2500288,23.999 20.41,20.41 0 0 1 23.660029,3.515 Z"
     id="path2"
     inkscape:connector-curvature="0"
     style="fill:#bde6fb;fill-opacity:0.988235" />
  <path
     d="m 11.309029,11.328 c -0.862,0 -1.5550002,0.695 -1.5550002,1.556 V 31.55 c 0,0.862 0.6930002,1.557 1.5550002,1.557 h 9.334 l 3.111,3.111 3.111,-3.111 h 9.334 c 0.862,0 1.555,-0.695 1.555,-1.557 V 12.884 c 0,-0.861 -0.693,-1.556 -1.555,-1.556 z m 15.437,3.888 c 0.918,0 1.748,0.406 2.33,1.055 a 6.217,6.217 0 0 0 2.026,-0.81 3.326,3.326 0 0 1 -1.403,1.847 c 0.646,-0.08 1.26,-0.26 1.832,-0.525 a 6.655,6.655 0 0 1 -1.593,1.728 c 0.006,0.143 0.01,0.287 0.01,0.432 0,4.411 -3.21,9.498 -9.08,9.498 a 8.735,8.735 0 0 1 -4.891,-1.502 6.225,6.225 0 0 0 4.725,-1.38 c -1.397,-0.028 -2.575,-0.993 -2.981,-2.32 a 3.045,3.045 0 0 0 1.44,-0.058 c -1.46,-0.306 -2.56,-1.654 -2.56,-3.271 v -0.043 c 0.43,0.25 0.923,0.4 1.446,0.418 a 3.381,3.381 0 0 1 -1.42,-2.78 c 0,-0.611 0.157,-1.184 0.432,-1.677 1.574,2.02 3.925,3.349 6.578,3.488 a 3.508,3.508 0 0 1 -0.082,-0.762 c 0,-1.843 1.429,-3.338 3.191,-3.338 z"
     id="path4"
     inkscape:connector-curvature="0"
     style="opacity:0.75;fill:#2b97e9" />
</svg>
