<?xml version="1.0" encoding="UTF-8" standalone="no"?>
<svg
   width="47.546486"
   height="47.546486"
   viewBox="0 0 12.580008 12.580008"
   version="1.1"
   id="svg11"
   sodipodi:docname="umbrello.svg"
   inkscape:version="0.92.4 (5da689c313, 2019-01-14)"
   xmlns:inkscape="http://www.inkscape.org/namespaces/inkscape"
   xmlns:sodipodi="http://sodipodi.sourceforge.net/DTD/sodipodi-0.dtd"
   xmlns="http://www.w3.org/2000/svg"
   xmlns:svg="http://www.w3.org/2000/svg"
   xmlns:rdf="http://www.w3.org/1999/02/22-rdf-syntax-ns#"
   xmlns:cc="http://creativecommons.org/ns#"
   xmlns:dc="http://purl.org/dc/elements/1.1/">
  <metadata
     id="metadata15">
    <rdf:RDF>
      <cc:Work
         rdf:about="">
        <dc:format>image/svg+xml</dc:format>
        <dc:type
           rdf:resource="http://purl.org/dc/dcmitype/StillImage" />
        <dc:title />
      </cc:Work>
    </rdf:RDF>
  </metadata>
  <sodipodi:namedview
     pagecolor="#ffffff"
     bordercolor="#666666"
     borderopacity="1"
     objecttolerance="10"
     gridtolerance="10"
     guidetolerance="10"
     inkscape:pageopacity="0"
     inkscape:pageshadow="2"
     inkscape:window-width="1087"
     inkscape:window-height="480"
     id="namedview13"
     showgrid="false"
     inkscape:zoom="4.9166667"
     inkscape:cx="2.1355932"
     inkscape:cy="24"
     inkscape:window-x="0"
     inkscape:window-y="25"
     inkscape:window-maximized="0"
     inkscape:current-layer="svg11"
     inkscape:showpageshadow="0"
     inkscape:pagecheckerboard="0"
     inkscape:deskcolor="#d1d1d1" />
  <defs
     id="defs7" />
  <path
     d="M 6.2900079,0 A 6.29,6.29 0 0 0 7.9490244e-6,6.3 6.29,6.29 0 0 0 6.3000079,12.58 6.29,6.29 0 0 0 12.580008,6.29 6.29,6.29 0 0 0 6.2900079,0 Z m -0.01,0.94 A 5.4,5.4 0 0 1 11.680008,6.34 5.4,5.4 0 0 1 6.2800079,11.75 5.4,5.4 0 0 1 0.87000795,6.35 5.4,5.4 0 0 1 6.2700079,0.93 Z m 0.01,0.95 c -0.16,0 -0.31,0.11 -0.32,0.32 v 0.3 c -0.8,0.05 -1.55,0.24 -2.24,0.62 -1.16,0.62 -1.95,2.43 -2,3.68 0.01,0.11 -0.02,0.24 0.03,0.35 0.11,0.14 0.38,0.18 0.5,0.02 0.3,-0.34 0.76,-0.59 1.25,-0.56 0.46,-0.03 0.88,0.22 1.15,0.55 0.1,0.13 0.3,0.16 0.42,0.06 0.16,-0.14 0.29,-0.3 0.48,-0.42 0.13,-0.08 0.28,-0.14 0.43,-0.17 0.03,1.1 0,1.58 0,2.67 0.02,0.18 -0.03,0.36 -0.16,0.5 a 0.85,0.85 0 0 1 -1,0.23 0.78,0.78 0 0 1 -0.47,-0.67 c -0.01,-0.13 -0.1,-0.27 -0.27,-0.28 -0.17,-0.02 -0.33,0.13 -0.3,0.3 -0.02,0.6 0.49,1.14 1.11,1.25 0.67,0.14 1.4,-0.25 1.61,-0.85 0.12,-0.33 0.06,-0.68 0.08,-1.02 0,-0.91 -0.02,-1.21 0.01,-2.13 0.37,0.07 0.66,0.31 0.89,0.58 0.13,0.11 0.35,0.09 0.45,-0.05 0.22,-0.27 0.52,-0.48 0.88,-0.53 0.45,-0.09 0.92,0.08 1.2700001,0.35 0.13,0.09 0.23,0.23 0.39,0.29 0.2,0.06 0.43,-0.11 0.38,-0.31 0,-1.17 -0.62,-2.92 -1.6200001,-3.6 a 5.09,5.09 0 0 0 -2.4,-0.84 l -0.24,-0.03 V 2.21 c 0,-0.21 -0.15,-0.32 -0.3,-0.32 z"
     id="path9"
     inkscape:connector-curvature="0"
     style="fill:#bde6fb;fill-opacity:1" />
</svg>
