<?xml version="1.0" encoding="UTF-8" standalone="no"?>
<svg
   width="47.542679"
   height="47.546455"
   viewBox="0 0 12.579 12.58"
   version="1.1"
   id="svg4"
   sodipodi:docname="unix-privesc-check.svg"
   inkscape:version="0.92.5 (2060ec1f9f, 2020-04-08)"
   xmlns:inkscape="http://www.inkscape.org/namespaces/inkscape"
   xmlns:sodipodi="http://sodipodi.sourceforge.net/DTD/sodipodi-0.dtd"
   xmlns="http://www.w3.org/2000/svg"
   xmlns:svg="http://www.w3.org/2000/svg"
   xmlns:rdf="http://www.w3.org/1999/02/22-rdf-syntax-ns#"
   xmlns:cc="http://creativecommons.org/ns#"
   xmlns:dc="http://purl.org/dc/elements/1.1/">
  <metadata
     id="metadata10">
    <rdf:RDF>
      <cc:Work
         rdf:about="">
        <dc:format>image/svg+xml</dc:format>
        <dc:type
           rdf:resource="http://purl.org/dc/dcmitype/StillImage" />
        <dc:title />
      </cc:Work>
    </rdf:RDF>
  </metadata>
  <defs
     id="defs8" />
  <sodipodi:namedview
     pagecolor="#ffffff"
     bordercolor="#666666"
     borderopacity="1"
     objecttolerance="10"
     gridtolerance="10"
     guidetolerance="10"
     inkscape:pageopacity="0"
     inkscape:pageshadow="2"
     inkscape:window-width="1085"
     inkscape:window-height="480"
     id="namedview6"
     showgrid="false"
     inkscape:zoom="4.9166667"
     inkscape:cx="2.1355932"
     inkscape:cy="24"
     inkscape:window-x="0"
     inkscape:window-y="25"
     inkscape:window-maximized="0"
     inkscape:current-layer="svg4"
     inkscape:showpageshadow="0"
     inkscape:pagecheckerboard="0"
     inkscape:deskcolor="#d1d1d1" />
  <path
     d="M 6.285,0 A 6.295,6.295 0 0 0 0,6.285 6.295,6.295 0 0 0 6.285,12.58 6.295,6.295 0 0 0 12.579,6.285 6.295,6.295 0 0 0 6.285,0 Z M 6.274,0.94 a 5.408,5.408 0 0 1 5.397,5.387 5.407,5.407 0 0 1 -10.814,0 C 0.857,3.34 3.287,0.94 6.274,0.94 Z M 6.638,2.057 H 6.393 C 5.7,2.06 5.539,2.073 5.254,2.151 4.698,2.301 4.261,2.541 3.929,2.879 3.586,3.227 3.425,3.531 3.337,4.001 L 3.274,4.333 H 2.929 A 1.438,1.438 0 0 0 2.706,4.313 1.438,1.438 0 0 0 1.268,5.751 1.438,1.438 0 0 0 2.613,7.184 L 2.649,7.19 2.882,7.219 2.852,7.451 c -0.016,0.128 -0.028,0.4 -0.027,0.606 0.007,1.413 1.194,2.535 2.908,2.75 0.788,0.099 1.783,-0.04 2.36,-0.33 1.2,-0.6 1.951,-1.814 1.785,-2.884 C 9.851,7.423 9.838,7.269 9.849,7.251 9.86,7.234 9.977,7.198 10.109,7.172 c 0.006,0 0.012,-0.003 0.018,-0.004 a 1.438,1.438 0 0 0 0.01,-0.003 L 10.169,7.158 A 1.438,1.438 0 0 0 11.322,5.75 1.438,1.438 0 0 0 9.883,4.313 1.438,1.438 0 0 0 9.7,4.326 C 9.45,4.321 9.432,4.307 9.408,4.223 9.175,3.401 8.983,3.039 8.613,2.714 8.341,2.477 7.943,2.269 7.53,2.15 7.27,2.075 7.15,2.058 6.638,2.057 Z M 5.1,3.905 H 5.158 C 5.297,3.909 5.437,3.927 5.565,3.952 5.885,3.995 6.136,4.206 6.324,4.454 6.516,4.266 6.715,4.068 6.984,3.999 7.354,3.915 7.804,3.862 8.119,4.123 8.453,4.452 8.539,4.96 8.512,5.411 8.531,5.726 8.314,6.076 8.404,6.359 8.739,6.506 9.135,6.638 9.304,6.993 9.567,7.579 9.393,8.273 9.041,8.784 8.651,9.317 8.081,9.75 7.431,9.899 A 1.156,0.81 0 0 0 6.279,9.159 1.156,0.81 0 0 0 5.129,9.889 2.745,2.745 0 0 1 3.731,9.076 C 3.291,8.558 3.067,7.783 3.357,7.141 3.543,6.835 3.805,6.545 4.141,6.408 4.544,6.31 4.13,5.829 4.171,5.553 4.136,5.113 4.078,4.609 4.356,4.231 4.533,3.986 4.813,3.908 5.1,3.905 Z m 0.292,0.898 c -0.134,0 -0.155,0.012 -0.155,0.094 0,0.122 -0.073,0.195 -0.195,0.195 -0.082,0 -0.095,0.02 -0.094,0.155 0,0.16 0.083,0.297 0.227,0.376 A 0.57,0.57 0 0 0 5.396,5.67 C 5.586,5.672 5.816,5.446 5.816,5.259 5.816,4.995 5.64,4.805 5.392,4.803 Z m 1.78,0 c -0.134,0 -0.155,0.012 -0.155,0.094 0,0.122 -0.073,0.195 -0.194,0.195 -0.083,0 -0.096,0.02 -0.095,0.155 0.001,0.16 0.084,0.297 0.227,0.376 A 0.57,0.57 0 0 0 7.177,5.67 C 7.366,5.672 7.597,5.446 7.597,5.259 7.597,4.995 7.42,4.805 7.172,4.803 Z M 2.882,4.88 a 0.917,0.917 0 0 1 0.456,0.122 c 0.025,0.34 0.072,0.74 0.14,1.207 0.024,0.17 0.021,0.203 -0.125,0.374 A 0.917,0.917 0 0 1 2.883,6.714 0.917,0.917 0 0 1 1.966,5.797 0.917,0.917 0 0 1 2.883,4.88 Z M 9.707,4.916 A 0.917,0.917 0 0 1 10.624,5.834 0.917,0.917 0 0 1 9.707,6.751 0.917,0.917 0 0 1 9.467,6.719 1.725,1.725 0 0 0 9.373,6.613 L 9.192,6.428 9.267,6.02 C 9.349,5.574 9.397,5.245 9.417,4.965 A 0.917,0.917 0 0 1 9.707,4.916 Z M 5.735,6.085 C 5.599,6.089 5.444,6.174 5.444,6.282 c 0,0.042 0.029,0.053 0.093,0.038 A 5.82,5.82 0 0 1 5.785,6.27 C 5.951,6.24 5.97,6.214 5.891,6.135 5.854,6.098 5.796,6.083 5.735,6.085 Z m 1.064,0 V 6.086 C 6.737,6.087 6.679,6.106 6.644,6.148 6.578,6.228 6.584,6.234 6.81,6.284 7.068,6.341 7.1,6.34 7.1,6.284 7.1,6.169 6.937,6.084 6.8,6.086 Z M 8.397,7.55 A 0.614,0.614 0 0 0 8.247,7.595 C 8.12,7.648 7.807,7.658 6.279,7.658 5.049,7.658 4.419,7.643 4.329,7.612 4.257,7.586 4.186,7.577 4.172,7.592 c -0.043,0.042 0.12,0.19 0.254,0.229 0.185,0.053 3.528,0.054 3.72,0 C 8.286,7.783 8.466,7.603 8.416,7.553 8.414,7.55 8.406,7.549 8.396,7.55 Z"
     id="path2"
     inkscape:connector-curvature="0"
     style="fill:#bde6fb;fill-opacity:1" />
</svg>
