<?xml version="1.0" encoding="UTF-8" standalone="no"?>
<svg
   width="48"
   height="48"
   viewBox="0 0 12.7 12.7"
   version="1.1"
   id="svg4"
   sodipodi:docname="upsource.svg"
   inkscape:version="0.92.5 (2060ec1f9f, 2020-04-08)"
   xmlns:inkscape="http://www.inkscape.org/namespaces/inkscape"
   xmlns:sodipodi="http://sodipodi.sourceforge.net/DTD/sodipodi-0.dtd"
   xmlns="http://www.w3.org/2000/svg"
   xmlns:svg="http://www.w3.org/2000/svg">
  <sodipodi:namedview
     id="namedview1"
     pagecolor="#505050"
     bordercolor="#eeeeee"
     borderopacity="1"
     inkscape:showpageshadow="0"
     inkscape:pageopacity="0"
     inkscape:pagecheckerboard="0"
     inkscape:deskcolor="#d1d1d1" />
  <defs
     id="defs8">
    <style
       id="current-color-scheme"
       type="text/css">&#10;      .ColorScheme-Highlight {&#10;        color:#1e3f5a;&#10;      }&#10;  </style>
  </defs>
  <path
     class="ColorScheme-Highlight"
     style="fill:#bde6fb;fill-opacity:1;stroke-width:0.264583"
     d="M 6.3499999,0 A 6.3499999,6.3499999 0 0 0 0,6.3499999 6.3499999,6.3499999 0 0 0 6.3499999,12.7 6.3499999,6.3499999 0 0 0 12.7,6.3499999 6.3499999,6.3499999 0 0 0 6.3499999,0 Z m 0,0.79374999 A 5.5562499,5.5562499 0 0 1 11.90625,6.3499999 5.5562499,5.5562499 0 0 1 6.3499999,11.90625 5.5562499,5.5562499 0 0 1 0.79374999,6.3499999 5.5562499,5.5562499 0 0 1 6.3499999,0.79374999 Z m 0,1.05833331 A 4.4979182,4.4979182 0 0 0 1.8520833,6.3499999 4.4979182,4.4979182 0 0 0 6.3499999,10.847917 4.4979182,4.4979182 0 0 0 10.847917,6.3499999 4.4979182,4.4979182 0 0 0 6.3499999,1.8520833 Z m -2.3812499,3.175 h 0.5291666 v 1.3229166 0.2645834 c 0,0.2931583 0.2360083,0.5291666 0.5291667,0.5291666 0.2931583,0 0.5291666,-0.2360083 0.5291666,-0.5291666 V 6.3499999 5.0270833 h 0.5291667 v 1.3229166 0.2645834 c 0,0.5863166 -0.4720167,1.0583333 -1.0583333,1.0583333 -0.5863167,0 -1.0583333,-0.4720167 -1.0583333,-1.0583333 V 6.3499999 Z m 2.6458333,0.0031 h 1.2087116 c 0.2558518,0 0.457014,0.075013 0.603064,0.2258258 0.1463177,0.1505479 0.219108,0.3573984 0.219108,0.6196005 0,0.1865312 -0.051325,0.3570801 -0.1545124,0.5115967 C 8.3433165,6.6078697 8.1135349,6.7184531 7.8015909,6.7184531 H 7.1675211 V 7.6729166 H 6.6145833 Z m 0.5529378,0.4568195 v 0.7741129 h 0.5126302 c 0.1770071,0 0.2974483,-0.053547 0.3612182,-0.1612302 0.0344,-0.058737 0.051677,-0.1419119 0.051677,-0.2495973 0,-0.1296459 -0.038792,-0.2221799 -0.1147218,-0.2785359 -0.0762,-0.056357 -0.2003552,-0.08475 -0.3720703,-0.08475 z M 4.4979166,8.4666666 H 8.2020832 V 8.9958332 H 4.4979166 Z"
     id="path835" />
</svg>
