<?xml version="1.0" encoding="UTF-8" standalone="no"?>
<svg
   width="47.542969"
   height="47.542969"
   version="1.1"
   viewBox="0 0 12.579077 12.579077"
   id="svg6"
   sodipodi:docname="urbanterror.svg"
   inkscape:version="0.92.4 (5da689c313, 2019-01-14)"
   xmlns:inkscape="http://www.inkscape.org/namespaces/inkscape"
   xmlns:sodipodi="http://sodipodi.sourceforge.net/DTD/sodipodi-0.dtd"
   xmlns="http://www.w3.org/2000/svg"
   xmlns:svg="http://www.w3.org/2000/svg"
   xmlns:rdf="http://www.w3.org/1999/02/22-rdf-syntax-ns#"
   xmlns:cc="http://creativecommons.org/ns#"
   xmlns:dc="http://purl.org/dc/elements/1.1/">
  <metadata
     id="metadata12">
    <rdf:RDF>
      <cc:Work
         rdf:about="">
        <dc:format>image/svg+xml</dc:format>
        <dc:type
           rdf:resource="http://purl.org/dc/dcmitype/StillImage" />
        <dc:title />
      </cc:Work>
    </rdf:RDF>
  </metadata>
  <defs
     id="defs10" />
  <sodipodi:namedview
     pagecolor="#ffffff"
     bordercolor="#666666"
     borderopacity="1"
     objecttolerance="10"
     gridtolerance="10"
     guidetolerance="10"
     inkscape:pageopacity="0"
     inkscape:pageshadow="2"
     inkscape:window-width="1136"
     inkscape:window-height="480"
     id="namedview8"
     showgrid="false"
     inkscape:zoom="4.9166667"
     inkscape:cx="2.1355932"
     inkscape:cy="24"
     inkscape:window-x="0"
     inkscape:window-y="25"
     inkscape:window-maximized="0"
     inkscape:current-layer="svg6"
     inkscape:showpageshadow="0"
     inkscape:pagecheckerboard="0"
     inkscape:deskcolor="#d1d1d1" />
  <path
     style="fill:#bde6fb;fill-opacity:1;stroke-width:1.0439"
     d="M 6.284371,0 C 2.8159709,0.0057471 0.00579999,2.8159709 0,6.2843707 c -4.6209961e-6,3.4725001 2.8118709,6.2889063 6.284371,6.2947063 3.4764998,0 6.294706,-2.8182062 6.294706,-6.2947063 C 12.573318,2.8119709 9.7567708,0 6.284371,0 Z m -0.010335,0.93947751 c 2.9743,0.00572 5.3856864,2.41255139 5.3970864,5.38675109 0,2.9865002 -2.4209216,5.4074214 -5.4074218,5.4074214 -2.9865,0 -5.40742173,-2.4209212 -5.40742173,-5.4074214 0,-2.9864999 2.43125713,-5.38675109 5.41775713,-5.38675109 z M 6.6977825,2.6029419 A 0.21771,0.21771 0 0 0 6.4952106,2.7657225 l -0.9627317,3.594096 a 0.21738,0.21738 0 0 0 0.153479,0.2676837 l 0.84646,0.2263429 A 0.21738,0.21738 0 0 0 6.8001016,6.6998494 L 7.7628335,3.1057537 A 0.21936,0.21936 0 0 0 7.6078044,2.8365192 L 6.7623778,2.6106934 a 0.21771,0.21771 0 0 0 -0.064595,-0.00775 z M 3.3987591,3.4659384 a 0.2187,0.2187 0 0 0 -0.059428,0.00775 l -0.844393,0.226344 A 0.21837,0.21837 0 0 0 2.3399088,3.9677164 L 3.3026407,7.5618121 A 0.21903,0.21903 0 0 0 3.5713581,7.7168416 L 4.4167847,7.4910155 A 0.22036,0.22036 0 0 0 4.5718139,7.2217813 L 3.6090819,3.6276856 A 0.2187,0.2187 0 0 0 3.3987591,3.4659384 Z M 9.2847044,4.332552 A 0.21837,0.21837 0 0 0 9.090401,4.4421061 L 7.229016,7.6641315 a 0.21903,0.21903 0 0 0 0.080098,0.298173 l 0.7591269,0.4382162 a 0.21804,0.21804 0 0 0 0.298173,-0.080098 L 10.227799,5.0983969 a 0.21837,0.21837 0 0 0 -0.0801,-0.29869 L 9.3890907,4.3620075 A 0.21837,0.21837 0 0 0 9.2847044,4.332552 Z M 5.4513468,7.2543375 A 0.21936,0.21936 0 0 0 5.2477417,7.4171181 L 5.0787597,8.0506714 A 0.21936,0.21936 0 0 0 5.2337889,8.3193888 L 6.0786987,8.5452147 A 0.21771,0.21771 0 0 0 6.3463825,8.3901855 L 6.5169149,7.7571492 A 0.21903,0.21903 0 0 0 6.3618854,7.4884318 L 5.5164592,7.262089 A 0.21936,0.21936 0 0 0 5.4513472,7.254339 Z M 4.644161,8.1163005 a 0.22036,0.22036 0 0 0 -0.057878,0.00775 L 3.7408568,8.351428 A 0.21837,0.21837 0 0 0 3.5863444,8.619112 L 3.7563598,9.2536987 A 0.21837,0.21837 0 0 0 4.0245605,9.4087279 L 4.8705038,9.1813516 A 0.21672,0.21672 0 0 0 5.0244995,8.9136676 L 4.8555176,8.2790811 A 0.22036,0.22036 0 0 0 4.644161,8.1163005 Z M 6.8760661,8.5023233 A 0.21936,0.21936 0 0 0 6.6822795,8.6113605 L 6.354134,9.1798014 A 0.21936,0.21936 0 0 0 6.434233,9.4800413 L 7.1928425,9.9167072 A 0.21705,0.21705 0 0 0 7.4915324,9.8366089 L 7.8196777,9.2676512 A 0.21837,0.21837 0 0 0 7.7395793,8.9694783 L 6.9809692,8.5312621 A 0.21936,0.21936 0 0 0 6.8760661,8.5023233 Z"
     id="path2"
     inkscape:connector-curvature="0" />
</svg>
