<?xml version="1.0" encoding="UTF-8" standalone="no"?>
<svg
   width="47.546455"
   height="47.542679"
   viewBox="0 0 12.58 12.579"
   version="1.1"
   id="svg4"
   sodipodi:docname="usb-creator.svg"
   inkscape:version="0.92.4 (5da689c313, 2019-01-14)"
   xmlns:inkscape="http://www.inkscape.org/namespaces/inkscape"
   xmlns:sodipodi="http://sodipodi.sourceforge.net/DTD/sodipodi-0.dtd"
   xmlns="http://www.w3.org/2000/svg"
   xmlns:svg="http://www.w3.org/2000/svg"
   xmlns:rdf="http://www.w3.org/1999/02/22-rdf-syntax-ns#"
   xmlns:cc="http://creativecommons.org/ns#"
   xmlns:dc="http://purl.org/dc/elements/1.1/">
  <metadata
     id="metadata10">
    <rdf:RDF>
      <cc:Work
         rdf:about="">
        <dc:format>image/svg+xml</dc:format>
        <dc:type
           rdf:resource="http://purl.org/dc/dcmitype/StillImage" />
        <dc:title />
      </cc:Work>
    </rdf:RDF>
  </metadata>
  <defs
     id="defs8" />
  <sodipodi:namedview
     pagecolor="#ffffff"
     bordercolor="#666666"
     borderopacity="1"
     objecttolerance="10"
     gridtolerance="10"
     guidetolerance="10"
     inkscape:pageopacity="0"
     inkscape:pageshadow="2"
     inkscape:window-width="1087"
     inkscape:window-height="480"
     id="namedview6"
     showgrid="false"
     inkscape:zoom="4.9166667"
     inkscape:cx="2.1355932"
     inkscape:cy="24"
     inkscape:window-x="0"
     inkscape:window-y="25"
     inkscape:window-maximized="0"
     inkscape:current-layer="svg4"
     inkscape:showpageshadow="0"
     inkscape:pagecheckerboard="0"
     inkscape:deskcolor="#d1d1d1" />
  <path
     d="M 6.29,9.9999565e-4 A 6.29,6.29 0 0 0 0,6.291 6.29,6.29 0 0 0 6.29,12.579 6.29,6.29 0 0 0 12.58,6.29 6.29,6.29 0 0 0 6.29,0 Z M 6.272,0.937 A 5.407,5.407 0 0 1 11.679,6.344 5.407,5.407 0 0 1 6.272,11.751 5.407,5.407 0 0 1 0.866,6.344 5.407,5.407 0 0 1 6.272,0.938 Z M 9.798,2.811 A 0.184,0.184 0 0 0 9.746,2.821 L 8.449,3.252 A 0.19,0.19 0 0 0 8.375,3.569 L 8.564,3.757 5.482,6.839 A 0.302,0.302 0 0 0 5.445,6.873 L 5.441,6.877 C 5.438,6.88 5.435,6.886 5.431,6.889 L 5.222,7.098 5.282,5.85 5.756,5.376 A 0.801,0.801 0 1 0 5.27,4.89 L 4.702,5.458 a 0.343,0.343 0 0 0 -0.1,0.227 L 4.5,7.821 4.15,8.171 A 1.103,1.103 0 0 0 2.866,8.375 c -0.21,0.209 -0.325,0.487 -0.325,0.783 0,0.296 0.116,0.574 0.325,0.783 a 1.102,1.102 0 0 0 1.566,0 C 4.776,9.596 4.852,9.079 4.636,8.657 l 0.41,-0.411 a 0.34,0.34 0 0 0 0.06,-0.06 L 5.85,7.443 7.984,7.34 a 0.343,0.343 0 0 0 0.229,-0.1 l 0.62,-0.62 0.136,0.134 a 0.19,0.19 0 0 0 0.27,0 L 9.996,5.998 a 0.19,0.19 0 0 0 0,-0.27 L 9.238,4.972 a 0.189,0.189 0 0 0 -0.27,0 L 8.213,5.728 a 0.191,0.191 0 0 0 0,0.27 L 8.348,6.133 7.821,6.659 6.574,6.719 9.05,4.242 9.238,4.432 A 0.191,0.191 0 0 0 9.555,4.357 L 9.987,3.061 A 0.19,0.19 0 0 0 9.85,2.815 V 2.816 A 0.178,0.178 0 0 0 9.798,2.811 Z"
     id="path2"
     inkscape:connector-curvature="0"
     style="fill:#bde6fb;fill-opacity:1" />
</svg>
