<?xml version="1.0" encoding="UTF-8" standalone="no"?>
<svg
   width="47.542679"
   height="47.546455"
   viewBox="0 0 12.579 12.58"
   version="1.1"
   id="svg4"
   sodipodi:docname="vega.svg"
   inkscape:version="0.92.5 (2060ec1f9f, 2020-04-08)"
   xmlns:inkscape="http://www.inkscape.org/namespaces/inkscape"
   xmlns:sodipodi="http://sodipodi.sourceforge.net/DTD/sodipodi-0.dtd"
   xmlns="http://www.w3.org/2000/svg"
   xmlns:svg="http://www.w3.org/2000/svg"
   xmlns:rdf="http://www.w3.org/1999/02/22-rdf-syntax-ns#"
   xmlns:cc="http://creativecommons.org/ns#"
   xmlns:dc="http://purl.org/dc/elements/1.1/">
  <metadata
     id="metadata10">
    <rdf:RDF>
      <cc:Work
         rdf:about="">
        <dc:format>image/svg+xml</dc:format>
        <dc:type
           rdf:resource="http://purl.org/dc/dcmitype/StillImage" />
        <dc:title />
      </cc:Work>
    </rdf:RDF>
  </metadata>
  <defs
     id="defs8" />
  <sodipodi:namedview
     pagecolor="#ffffff"
     bordercolor="#666666"
     borderopacity="1"
     objecttolerance="10"
     gridtolerance="10"
     guidetolerance="10"
     inkscape:pageopacity="0"
     inkscape:pageshadow="2"
     inkscape:window-width="1085"
     inkscape:window-height="480"
     id="namedview6"
     showgrid="false"
     inkscape:zoom="4.9166667"
     inkscape:cx="2.1355932"
     inkscape:cy="24"
     inkscape:window-x="0"
     inkscape:window-y="25"
     inkscape:window-maximized="0"
     inkscape:current-layer="svg4"
     inkscape:showpageshadow="0"
     inkscape:pagecheckerboard="0"
     inkscape:deskcolor="#d1d1d1" />
  <path
     d="M 6.285,0 A 6.295,6.295 0 0 0 0,6.285 6.295,6.295 0 0 0 6.285,12.58 6.295,6.295 0 0 0 12.579,6.285 6.295,6.295 0 0 0 6.285,0 Z M 6.274,0.94 a 5.408,5.408 0 0 1 5.397,5.387 5.407,5.407 0 0 1 -10.814,0 C 0.857,3.34 3.287,0.94 6.274,0.94 Z m 0.021,0.648 a 4.76,4.76 0 0 0 -4.76,4.76 4.76,4.76 0 0 0 4.76,4.762 4.76,4.76 0 0 0 4.76,-4.761 4.76,4.76 0 0 0 -4.76,-4.761 z M 6.044,1.932 H 6.593 L 6.688,2.038 6.784,2.143 H 5.852 L 5.948,2.038 Z M 4.969,2.458 4.967,2.499 4.965,2.54 4.741,2.858 4.516,3.175 3.885,3.196 3.79,3.157 3.694,3.119 3.974,2.82 4.255,2.522 4.612,2.49 Z M 7.7,2.516 8.063,2.55 8.425,2.584 8.68,2.853 8.935,3.123 V 3.188 L 8.936,3.255 H 8.151 L 7.906,2.905 7.662,2.555 7.681,2.535 7.701,2.516 Z M 5.988,3.519 H 6.71 L 6.889,3.823 7.068,4.127 6.984,4.245 6.9,4.362 5.818,4.365 5.641,4.095 5.763,3.873 5.885,3.651 5.935,3.585 Z m 4.01,0.168 0.203,0.272 0.204,0.274 0.035,0.198 0.036,0.199 -0.296,-0.001 -0.4009997,-0.707 0.015,-0.104 0.016,-0.105 0.094,-0.013 z M 2.696,3.73 H 2.959 L 2.956,3.85 2.953,3.969 2.756,4.286 2.56,4.603 2.442,4.62 2.324,4.637 2.327,4.233 2.511,3.982 Z M 4.8,4.524 4.858,4.691 4.916,4.857 v 0.149 l -0.27,0.42 -0.269,0.42 H 4.02 l -0.214,-0.29 -0.215,-0.29 0.2,-0.37 0.2,-0.37 0.404,-10e-4 z M 7.877,4.63 H 8.612 L 8.952,5.223 8.775,5.588 8.599,5.952 H 8.211 L 7.934,5.517 7.657,5.083 7.767,4.856 Z M 2.269,5.51 2.651,6.335 2.501,6.725 2.353,7.115 H 2.215 L 2.169,6.997 2.122,6.878 2.017,6.613 1.912,6.349 2.181,5.609 2.224,5.559 2.268,5.509 Z m 8.06,0.017 0.021,0.022 0.022,0.022 0.152,0.408 0.153,0.41 -0.137,0.35 -0.138,0.35 L 10.315,7.188 10.13,6.782 9.945,6.377 10.137,5.952 10.328,5.527 Z M 5.875,5.635 H 6.813 L 7.031,6.032 7.251,6.428 7.031,6.825 6.813,7.222 H 5.875 L 5.657,6.825 5.438,6.428 5.658,6.032 5.876,5.635 Z M 4.021,6.851 H 4.377 L 4.652,7.28 4.927,7.708 4.838,7.941 4.749,8.174 H 4.37 L 3.99,8.172 3.791,7.802 3.591,7.432 3.806,7.142 4.021,6.852 Z m 4.238,0 h 0.36 L 8.988,7.586 8.818,7.88 8.65,8.174 H 7.893 L 7.713,7.703 7.986,7.277 Z m -5.802,1.215 0.396,0.7 V 8.967 H 2.598 L 2.414,8.717 2.23,8.465 2.211,8.28 2.192,8.095 2.325,8.08 Z m 7.723,0 0.265,0.029 -0.019,0.158 -0.019,0.159 -0.055,0.106 -0.056,0.106 -0.13,0.171 -0.13,0.172 H 9.783 v -0.2 l 0.199,-0.35 z m -3.32,0.37 0.077,0.12 0.078,0.12 -0.178,0.305 -0.18,0.304 H 5.931 L 5.761,9.008 5.591,8.732 5.666,8.598 5.741,8.465 6.301,8.45 6.859,8.435 Z M 3.745,9.432 4.13,9.477 4.515,9.522 4.74,9.839 l 0.225,0.317 0.002,0.04 0.001,0.04 L 4.836,10.218 4.413,10.181 4.297,10.155 4.181,10.13 3.934,9.81 3.688,9.49 3.716,9.46 3.746,9.432 Z m 5.148,0.003 0.03,0.028 0.028,0.03 -0.228,0.294 -0.227,0.295 -0.084,0.043 -0.085,0.043 -0.66,0.058 V 10.188 L 7.904,9.848 8.141,9.508 8.517,9.472 Z M 5.921,10.553 H 6.783 L 6.688,10.659 6.592,10.765 H 6.048 L 5.921,10.638 v -0.083 z"
     id="path2"
     inkscape:connector-curvature="0"
     style="fill:#bde6fb;fill-opacity:1" />
</svg>
