<?xml version="1.0" encoding="UTF-8" standalone="no"?>
<svg
   width="47.542679"
   height="47.546455"
   viewBox="0 0 12.579 12.58"
   version="1.1"
   id="svg8"
   sodipodi:docname="veil.svg"
   inkscape:version="0.92.5 (2060ec1f9f, 2020-04-08)"
   xmlns:inkscape="http://www.inkscape.org/namespaces/inkscape"
   xmlns:sodipodi="http://sodipodi.sourceforge.net/DTD/sodipodi-0.dtd"
   xmlns="http://www.w3.org/2000/svg"
   xmlns:svg="http://www.w3.org/2000/svg"
   xmlns:rdf="http://www.w3.org/1999/02/22-rdf-syntax-ns#"
   xmlns:cc="http://creativecommons.org/ns#"
   xmlns:dc="http://purl.org/dc/elements/1.1/">
  <metadata
     id="metadata14">
    <rdf:RDF>
      <cc:Work
         rdf:about="">
        <dc:format>image/svg+xml</dc:format>
        <dc:type
           rdf:resource="http://purl.org/dc/dcmitype/StillImage" />
        <dc:title />
      </cc:Work>
    </rdf:RDF>
  </metadata>
  <defs
     id="defs12" />
  <sodipodi:namedview
     pagecolor="#ffffff"
     bordercolor="#666666"
     borderopacity="1"
     objecttolerance="10"
     gridtolerance="10"
     guidetolerance="10"
     inkscape:pageopacity="0"
     inkscape:pageshadow="2"
     inkscape:window-width="1085"
     inkscape:window-height="480"
     id="namedview10"
     showgrid="false"
     inkscape:zoom="4.9166667"
     inkscape:cx="2.1355932"
     inkscape:cy="24"
     inkscape:window-x="0"
     inkscape:window-y="25"
     inkscape:window-maximized="0"
     inkscape:current-layer="svg8"
     inkscape:showpageshadow="0"
     inkscape:pagecheckerboard="0"
     inkscape:deskcolor="#d1d1d1" />
  <path
     d="m 10.229,3.292 c -0.048,0 -0.104,0.05 -0.191,0.155 A 2.012,2.012 0 0 1 9.887,3.607 0.856,0.856 0 0 0 9.743,3.797 C 9.68,3.915 9.665,3.925 9.469,3.964 9.431,3.971 9.379,4.014 9.322,4.081 A 1.851,1.851 0 0 0 9.146,4.341 C 9.062,4.492 9.041,4.511 8.761,4.705 A 0.67,0.67 0 0 0 8.676,4.771 C 8.636,4.809 8.629,4.839 8.652,4.869 8.664,4.884 8.683,4.899 8.71,4.915 8.795,4.968 8.808,4.996 8.766,5.04 A 0.841,0.841 0 0 0 8.681,5.17 C 8.614,5.29 8.549,5.331 8.423,5.33 8.371,5.33 8.345,5.36 8.366,5.397 8.399,5.454 8.393,5.472 8.343,5.462 a 0.108,0.108 0 0 0 -0.039,0 A 0.06,0.06 0 0 0 8.275,5.475 0.068,0.068 0 0 1 8.221,5.491 0.189,0.189 0 0 0 8.137,5.508 C 8.087,5.528 8.087,5.532 8.121,5.556 8.152,5.577 8.154,5.593 8.134,5.599 A 0.256,0.256 0 0 1 8.017,5.589 C 7.963,5.574 7.918,5.569 7.919,5.576 c 0,0.008 0.01,0.015 0.02,0.017 0.01,0.002 0.017,0.008 0.02,0.016 A 0.042,0.042 0 0 1 7.958,5.637 0.12,0.12 0 0 1 7.905,5.699 0.715,0.715 0 0 1 7.533,5.793 C 7.355,5.799 7.196,5.843 6.898,5.972 6.844,5.995 6.81,5.992 6.764,6.008 L 6.768,6.021 C 6.846,6.327 6.898,6.463 6.966,6.761 7.048,7.12 7.108,7.411 7.113,7.489 7.117,7.568 7.065,7.432 6.922,6.937 6.882,6.797 6.856,6.73 6.842,6.723 6.83,6.715 6.829,6.767 6.837,6.86 6.853,7.048 6.903,7.407 6.961,7.81 6.995,8.041 6.992,8.126 7.026,8.362 7.086,8.374 7.181,8.377 7.138,8.411 7.119,8.425 7.126,8.427 7.168,8.421 a 0.415,0.415 0 0 1 0.119,0.004 c 0.054,0.01 0.071,0.023 0.101,0.076 0.011,0.019 0.02,0.049 0.029,0.088 l 0.004,0.022 c 0.039,0.201 0.053,0.598 0.035,0.887 -0.008,0.12 -0.02,0.22 -0.04,0.28 -0.031,0.1 -0.04,0.159 -0.028,0.206 0.008,0.03 0.021,0.055 0.048,0.081 0.044,0.045 0.12,0.174 0.15,0.246 l -0.581,0.62 0.228,0.039 0.764,-0.66 A 0.668,0.668 0 0 1 7.975,10.135 3.798,3.798 0 0 1 7.978,9.841 6.443,6.443 0 0 1 8.048,9.151 C 8.067,9.034 8.081,8.889 8.078,8.828 8.072,8.708 8.102,8.676 8.163,8.741 8.192,8.771 8.199,8.773 8.239,8.756 8.279,8.739 8.283,8.74 8.301,8.782 l 0.02,0.045 0.01,-0.037 c 0.007,-0.02 0.02,-0.035 0.03,-0.033 0.036,0.007 0.076,0.114 0.112,0.295 0.018,0.09 0.036,0.2 0.052,0.325 0.016,0.125 0.031,0.265 0.044,0.418 0.022,0.25 0.046,0.476 0.055,0.503 l 0.005,0.013 -1.144,0.662 0.208,0.103 1.301,-0.764 C 8.982,9.982 8.956,9.649 9.041,9.309 9.079,9.189 9.154,9.047 9.364,8.699 9.441,8.569 9.509,8.438 9.514,8.407 A 0.116,0.116 0 0 1 9.526,8.367 C 9.542,8.339 9.571,8.338 9.604,8.369 9.629,8.392 9.633,8.385 9.63,8.319 9.628,8.276 9.634,8.232 9.644,8.219 9.66,8.199 9.666,8.201 9.691,8.234 9.719,8.27 9.72,8.27 9.738,8.243 9.783,8.173 9.788,8.169 9.82,8.198 9.832,8.209 9.84,8.214 9.847,8.21 9.854,8.206 9.861,8.193 9.868,8.168 9.885,8.119 9.916,8.084 9.932,8.088 c 0.005,0.003 0.01,0.009 0.01,0.02 0,0.016 0.01,0.03 0.018,0.033 0.033,0.006 0.057,-0.037 0.082,-0.144 0.033,-0.14 0.048,-0.163 0.114,-0.172 a 0.29,0.29 0 0 0 0.127,-0.08 c 0.069,-0.071 0.081,-0.07 0.078,0.01 0,0.03 0.006,0.03 0.047,-0.007 0.035,-0.03 0.043,-0.053 0.032,-0.088 a 0.563,0.563 0 0 1 0.003,-0.202 c 0.003,-0.017 0.008,-0.027 0.013,-0.026 0.008,10e-4 0.027,0.03 0.042,0.062 0.016,0.033 0.034,0.053 0.043,0.046 0.01,-0.007 0.015,-0.142 0.012,-0.3 a 2.403,2.403 0 0 1 0.003,-0.255 l 0.002,-0.01 A 0.207,0.207 0 0 1 10.593,6.882 C 10.637,6.814 10.637,6.812 10.6,6.726 10.573,6.662 10.567,6.645 10.581,6.631 a 0.121,0.121 0 0 1 0.022,-0.015 c 0.022,-0.013 0.05,-0.021 0.063,-0.019 0.03,0.006 0.014,-0.201 -0.018,-0.235 -0.034,-0.036 -0.03,-0.067 0.012,-0.1 0.034,-0.026 0.035,-0.033 0.008,-0.064 -0.05,-0.06 -0.06,-0.114 -0.033,-0.176 0.022,-0.05 0.034,-0.057 0.075,-0.042 0.015,0.005 0.026,0.01 0.033,0.01 0.007,10e-4 0.011,-0.001 0.01,-0.006 A 0.34,0.34 0 0 0 10.705,5.896 0.391,0.391 0 0 1 10.653,5.776 V 5.774 C 10.646,5.741 10.65,5.719 10.667,5.723 c 0.007,0 0.01,-10e-4 0.01,-0.007 A 0.081,0.081 0 0 0 10.665,5.688 c -0.032,-0.057 -0.029,-0.094 0.008,-0.087 0.027,0.006 0.025,0 -0.011,-0.042 A 0.363,0.363 0 0 1 10.569,5.332 C 10.565,5.262 10.576,5.102 10.592,4.946 10.608,4.79 10.629,4.64 10.645,4.592 A 0.329,0.329 0 0 0 10.66,4.411 C 10.645,4.336 10.651,4.307 10.699,4.213 A 0.616,0.616 0 0 0 10.753,4.072 V 4.071 A 0.234,0.234 0 0 0 10.739,3.908 0.241,0.241 0 0 0 10.612,3.802 C 10.57,3.785 10.549,3.775 10.538,3.762 10.527,3.747 10.525,3.728 10.523,3.69 10.52,3.629 10.506,3.598 10.453,3.537 A 1.872,1.872 0 0 1 10.338,3.381 0.299,0.299 0 0 0 10.283,3.315 0.083,0.083 0 0 0 10.229,3.292 Z M 5.325,5.955 a 0.733,0.733 0 0 0 -0.33,0.08 C 4.819,6.111 4.684,6.143 4.495,6.155 L 4.483,6.158 c 0.168,0.591 0.335,1.173 0.422,1.598 0.116,0.57 0.169,1.04 0.186,1.543 0.02,0.586 0.002,1.032 -0.04,0.99 C 5.019,10.257 4.903,9.776 4.795,9.316 A 0.515,0.515 0 0 1 4.711,9.375 0.14,0.14 0 0 0 4.661,9.412 C 4.639,9.44 4.635,9.478 4.646,9.532 v 0.007 c 0.007,0.03 0.018,0.063 0.034,0.104 a 0.803,0.803 0 0 1 0.055,0.243 c 0.006,0.13 -0.01,0.34 -0.029,0.426 l 0.406,0.43 0.381,0.087 -0.337,-0.518 A 0.794,0.794 0 0 1 5.143,9.961 0.513,0.513 0 0 1 5.213,9.778 0.68,0.68 0 0 1 5.524,9.562 C 5.641,9.53 5.754,9.476 5.838,9.432 5.808,9.025 5.764,8.407 5.611,7.776 5.486,7.259 5.336,6.781 5.255,6.502 5.214,6.362 5.19,6.272 5.195,6.25 5.2,6.229 5.235,6.276 5.308,6.412 5.372,6.528 5.411,6.577 5.432,6.577 5.453,6.576 5.456,6.525 5.444,6.44 5.431,6.336 5.371,6.133 5.325,5.955 Z m 0.299,0.042 c 0.02,0.097 0.08,0.248 0.092,0.33 0.027,0.184 0.026,0.69 0.027,1.048 0,0.178 0.002,0.32 0.007,0.367 0.006,0.046 0.016,-0.003 0.034,-0.206 0.021,-0.23 0.117,0.27 0.192,0.883 0.04,0.324 0.022,0.53 0.035,0.825 C 6.136,9.11 6.263,8.959 6.385,8.669 6.428,8.567 6.481,8.453 6.502,8.414 A 0.462,0.462 0 0 1 6.756,8.213 L 6.754,8.2 C 6.711,7.965 6.712,7.991 6.656,7.68 6.731,7.874 6.775,7.945 6.796,7.925 6.816,7.905 6.812,7.795 6.791,7.626 A 18.214,18.214 0 0 0 6.519,6.173 C 6.512,6.14 6.506,6.127 6.499,6.095 L 6.496,6.084 C 6.327,6.102 6.132,6.086 5.766,6.018 5.691,6.004 5.679,6.008 5.624,5.998 Z M 4.038,6.243 C 3.942,6.278 3.838,6.306 3.778,6.296 3.751,6.291 3.736,6.29 3.732,6.293 3.728,6.295 3.735,6.302 3.75,6.314 A 0.26,0.26 0 0 0 3.848,6.355 C 3.908,6.367 3.911,6.37 3.893,6.401 A 0.155,0.155 0 0 1 3.816,6.451 0.597,0.597 0 0 0 3.712,6.497 C 3.672,6.521 3.668,6.53 3.691,6.558 3.713,6.586 3.71,6.591 3.663,6.591 3.568,6.592 3.562,6.595 3.564,6.641 3.566,6.671 3.54,6.705 3.486,6.744 3.442,6.776 3.366,6.843 3.318,6.891 3.092,7.121 2.758,7.24 2.388,7.219 a 1.844,1.844 0 0 0 -0.255,0 A 0.494,0.494 0 0 1 1.931,7.205 1.276,1.276 0 0 1 1.673,7.088 2.297,2.297 0 0 0 1.322,6.92 C 1.299,6.913 1.284,6.91 1.277,6.914 1.267,6.917 1.261,6.942 1.262,6.968 a 0.46,0.46 0 0 1 -0.015,0.114 0.15,0.15 0 0 0 -0.006,0.05 0.06,0.06 0 0 0 0.016,0.037 0.14,0.14 0 0 0 0.046,0.03 c 0.02,0.01 0.047,0.02 0.08,0.03 C 1.459,7.253 1.506,7.281 1.522,7.305 1.529,7.317 1.529,7.328 1.521,7.338 1.511,7.348 1.495,7.355 1.468,7.36 L 1.408,7.372 1.476,7.397 C 1.526,7.415 1.556,7.43 1.572,7.445 1.589,7.461 1.592,7.477 1.587,7.499 1.58,7.531 1.589,7.543 1.64,7.569 A 0.625,0.625 0 0 0 1.775,7.614 C 1.817,7.623 1.84,7.631 1.846,7.641 1.849,7.647 1.848,7.652 1.843,7.659 A 0.124,0.124 0 0 1 1.815,7.683 C 1.783,7.704 1.77,7.722 1.779,7.739 1.795,7.768 1.873,7.795 2.032,7.833 2.204,7.875 2.27,7.893 2.293,7.914 a 0.03,0.03 0 0 1 0.011,0.022 0.03,0.03 0 0 0 0.007,0.02 c 0.014,0.015 0.046,0.018 0.096,0.01 0.04,-0.006 0.053,0 0.08,0.042 0.019,0.027 0.041,0.05 0.05,0.052 0.01,0.002 0.06,-0.016 0.114,-0.039 A 0.448,0.448 0 0 1 2.765,7.982 C 2.775,7.984 2.784,8.009 2.785,8.039 2.789,8.117 2.831,8.115 2.988,8.032 3.052,7.999 3.092,7.987 3.111,7.997 3.129,8.007 3.126,8.04 3.101,8.094 A 0.424,0.424 0 0 0 3.077,8.159 C 3.078,8.179 3.121,8.167 3.189,8.126 3.232,8.101 3.287,8.084 3.312,8.089 3.344,8.095 3.403,8.063 3.508,7.982 L 3.657,7.867 3.687,7.933 C 3.711,7.984 3.722,7.994 3.734,7.977 A 0.155,0.155 0 0 0 3.747,7.899 C 3.744,7.832 3.784,7.796 3.837,7.818 a 0.043,0.043 0 0 0 0.038,0 0.124,0.124 0 0 0 0.04,-0.039 C 3.938,7.749 3.963,7.726 3.971,7.727 3.977,7.728 3.981,7.733 3.984,7.741 4.001,7.797 3.946,8.003 3.868,8.155 3.794,8.3 3.715,8.368 3.528,8.449 3.418,8.497 3.372,8.53 3.348,8.577 A 0.9,0.9 0 0 0 3.291,8.939 C 3.302,9.147 3.14,9.625 3.01,9.769 A 0.324,0.324 0 0 0 2.958,9.84 0.124,0.124 0 0 0 2.944,9.903 C 2.945,9.926 2.943,9.941 2.935,9.952 2.927,9.962 2.914,9.97 2.891,9.976 c -0.036,0.01 -0.056,0.03 -0.055,0.056 0.002,0.045 -0.005,0.186 -0.012,0.28 l 1.981,0.62 0.306,0.01 -1.763,-0.63 c 0,-0.05 0.003,-0.112 0.01,-0.148 0.017,-0.082 0.454,-0.89 0.538,-0.993 A 0.49,0.49 0 0 1 4.09,9.029 C 4.134,9.01 4.185,8.993 4.244,8.977 A 2.76,2.76 0 0 1 4.451,8.929 C 4.519,8.916 4.573,8.898 4.634,8.881 A 3.865,3.865 0 0 0 4.377,8.398 C 4.239,8.186 4.143,8.05 4.273,8.198 4.501,8.455 4.621,8.526 4.671,8.481 4.721,8.436 4.7,8.277 4.647,8.072 4.54,7.664 4.301,7.077 4.229,6.882 4.219,6.717 4.112,6.472 4.039,6.248 Z"
     id="path2"
     inkscape:connector-curvature="0"
     style="opacity:0.4;fill:#bdd2fb;fill-opacity:1" />
  <path
     d="M 6.285,0 A 6.295,6.295 0 0 0 0,6.285 6.295,6.295 0 0 0 6.285,12.58 6.295,6.295 0 0 0 12.579,6.285 6.295,6.295 0 0 0 6.285,0 Z M 6.274,0.94 a 5.408,5.408 0 0 1 5.397,5.387 5.407,5.407 0 0 1 -10.814,0 C 0.857,3.34 3.287,0.94 6.274,0.94 Z M 7.537,6.697 C 7.439,6.685 7.433,6.811 7.583,7.032 7.678,7.172 7.692,7.222 7.65,7.28 7.622,7.32 7.58,7.393 7.558,7.442 7.536,7.492 7.455,7.599 7.378,7.68 7.272,7.79 7.198,7.827 7.081,7.827 7.028,7.827 7.001,7.843 6.966,7.855 7.081,8.649 7.224,9.598 7.186,9.73 7.161,9.82 7.143,9.895 7.124,9.916 7.105,9.936 7.085,9.905 7.054,9.783 6.998,9.569 6.879,8.903 6.704,7.937 6.674,7.947 6.634,7.95 6.624,7.965 6.608,7.992 6.567,8.003 6.533,7.99 6.499,7.977 6.461,7.983 6.448,8.003 6.423,8.043 6.116,7.986 5.873,7.943 5.911,8.112 5.936,8.088 5.976,8.418 6.031,8.865 6.03,9.23 6.025,9.558 6.14,9.605 6.227,9.617 6.661,9.63 6.876,9.636 6.878,9.637 6.868,9.783 a 0.541,0.541 0 0 0 0.044,0.245 c 0.049,0.091 0.01,0.49 -0.058,0.602 -0.013,0.02 -0.002,0.097 0.024,0.172 0.035,0.1 0.085,0.143 0.188,0.164 0.077,0.015 0.147,0.02 0.156,0.012 C 7.23,10.969 7.214,10.897 7.186,10.816 7.148,10.706 7.149,10.604 7.194,10.396 7.246,10.15 7.258,10.13 7.312,10.204 c 0.035,0.048 0.06,0.202 0.06,0.37 0,0.245 0.017,0.304 0.112,0.398 0.06,0.061 0.142,0.111 0.18,0.111 0.094,0 0.091,-0.176 -0.005,-0.313 C 7.592,10.675 7.59,10.624 7.639,10.335 7.669,10.155 7.681,9.893 7.665,9.752 7.64,9.521 7.649,9.483 7.747,9.385 7.844,9.288 7.91,9.059 7.985,8.55 8.027,8.266 8.066,8.189 8.165,8.189 c 0.056,0 0.156,0.028 0.223,0.063 0.066,0.034 0.16,0.052 0.209,0.04 C 8.679,8.27 8.682,8.237 8.656,7.742 8.64,7.452 8.606,7.191 8.583,7.16 8.558,7.13 8.551,7.056 8.566,6.997 8.606,6.837 8.556,6.824 8.374,6.947 8.14,7.107 8.011,7.09 7.802,6.877 7.689,6.761 7.596,6.704 7.537,6.697 Z M 4.908,7.783 C 5.02,8.339 5.074,8.803 5.091,9.298 5.104,9.684 5.081,9.786 5.065,9.951 5.069,9.947 5.073,9.907 5.076,9.907 c 0.021,0 0.034,0.184 0.029,0.408 -0.005,0.223 0.002,0.418 0.015,0.432 a 0.676,0.676 0 0 0 0.199,0.052 L 5.493,10.827 5.415,10.708 C 5.292,10.521 5.328,9.855 5.475,9.58 A 0.375,0.375 0 0 0 5.518,9.433 c 0,-0.1 0.124,-0.083 0.183,0.026 C 5.73,9.513 5.779,9.542 5.816,9.528 5.823,9.525 5.842,9.534 5.852,9.533 A 11.897,11.897 0 0 0 5.631,7.919 C 5.361,7.807 5.248,7.784 5.038,7.803 4.989,7.807 4.951,7.783 4.908,7.783 Z M 4.556,8.733 C 4.55,8.914 4.548,9.057 4.589,9.119 c 0.048,0.073 0.072,0.302 0.09,0.84 0.033,0.99 0.033,0.99 0.254,0.99 0.098,0 0.178,-0.01 0.178,-0.023 a 0.994,0.994 0 0 0 -0.09,-0.17 0.68,0.68 0 0 1 -0.09,-0.294 c 0,-0.106 0.046,-0.194 0.083,-0.317 C 4.957,10.008 4.848,9.617 4.726,9.053 4.71,8.977 4.619,8.847 4.556,8.733 Z"
     id="path4"
     inkscape:connector-curvature="0"
     style="fill:#bde6fb;fill-opacity:1" />
  <path
     d="M 4.066,2.259 C 4.096,2.257 4.273,2.515 4.472,2.846 4.936,3.621 5.584,5.434 5.716,6.326 5.77,6.696 5.711,8.346 5.785,7.536 5.826,7.076 6.168,9.533 6.042,9.978 5.975,10.216 5.949,10.173 5.874,9.697 5.854,9.352 5.788,8.507 5.611,7.775 5.361,6.74 5.011,5.867 5.308,6.411 5.814,7.337 4.817,4.022 4.806,4.713 4.802,4.983 4.656,4.208 4.581,3.98 4.277,3.053 4.045,2.279 4.064,2.26 Z m 1.04,0.03 c 0.027,0.003 0.1,0.088 0.213,0.217 0.168,0.193 0.673,1.2 0.544,0.843 C 5.299,1.793 6.263,4.195 6.32,4.477 6.365,4.693 6.441,4.921 6.49,4.983 6.612,5.138 7.493,8.918 6.922,6.937 6.597,5.811 7.263,9.459 7.187,9.73 7.085,10.091 7.111,10.194 6.655,7.68 7.258,9.227 5.873,2.925 6.108,5.241 6.176,5.908 5.726,3.995 5.494,3.405 5.165,2.57 5.052,2.282 5.105,2.289 Z m -1.8,0.4 c 0.116,0.009 0.542,1.17 0.66,0.85 C 4.08,3.229 4.131,4.43 4.131,4.589 4.13,4.765 4.224,5.227 4.34,5.615 4.88,7.418 5.057,8.291 5.09,9.298 5.11,9.885 5.093,10.33 5.052,10.288 5.011,10.248 4.864,9.691 4.726,9.053 4.659,8.741 4.012,7.901 4.274,8.197 5.184,9.225 4.374,7.272 4.229,6.88 4.189,6.223 3.439,4.746 3.679,5.104 4.217,5.909 3.248,2.732 3.281,2.699 A 0.03,0.03 0 0 1 3.305,2.69 Z"
     id="path6"
     inkscape:connector-curvature="0"
     style="opacity:0.8;fill:#a6aafb;fill-opacity:1" />
</svg>
