<?xml version="1.0" encoding="UTF-8" standalone="no"?>
<svg
   width="47.542679"
   height="47.546455"
   viewBox="0 0 12.579 12.58"
   version="1.1"
   id="svg4"
   sodipodi:docname="vfeed.svg"
   inkscape:version="0.92.5 (2060ec1f9f, 2020-04-08)"
   xmlns:inkscape="http://www.inkscape.org/namespaces/inkscape"
   xmlns:sodipodi="http://sodipodi.sourceforge.net/DTD/sodipodi-0.dtd"
   xmlns="http://www.w3.org/2000/svg"
   xmlns:svg="http://www.w3.org/2000/svg"
   xmlns:rdf="http://www.w3.org/1999/02/22-rdf-syntax-ns#"
   xmlns:cc="http://creativecommons.org/ns#"
   xmlns:dc="http://purl.org/dc/elements/1.1/">
  <metadata
     id="metadata10">
    <rdf:RDF>
      <cc:Work
         rdf:about="">
        <dc:format>image/svg+xml</dc:format>
        <dc:type
           rdf:resource="http://purl.org/dc/dcmitype/StillImage" />
        <dc:title />
      </cc:Work>
    </rdf:RDF>
  </metadata>
  <defs
     id="defs8" />
  <sodipodi:namedview
     pagecolor="#ffffff"
     bordercolor="#666666"
     borderopacity="1"
     objecttolerance="10"
     gridtolerance="10"
     guidetolerance="10"
     inkscape:pageopacity="0"
     inkscape:pageshadow="2"
     inkscape:window-width="1085"
     inkscape:window-height="480"
     id="namedview6"
     showgrid="false"
     inkscape:zoom="4.9166667"
     inkscape:cx="2.1355932"
     inkscape:cy="24"
     inkscape:window-x="0"
     inkscape:window-y="25"
     inkscape:window-maximized="0"
     inkscape:current-layer="svg4"
     inkscape:showpageshadow="0"
     inkscape:pagecheckerboard="0"
     inkscape:deskcolor="#d1d1d1" />
  <path
     d="M 6.285,0 A 6.295,6.295 0 0 0 0,6.285 6.295,6.295 0 0 0 6.285,12.58 6.295,6.295 0 0 0 12.579,6.285 6.295,6.295 0 0 0 6.285,0 Z M 6.274,0.94 a 5.408,5.408 0 0 1 5.397,5.387 5.407,5.407 0 0 1 -10.814,0 C 0.857,3.34 3.287,0.94 6.274,0.94 Z m 0.03,2.469 C 6.169,3.409 6.034,3.423 5.899,3.451 5.401,3.553 5.113,3.709 4.751,4.071 4.197,4.625 4.074,5.011 4.074,6.199 4.074,6.972 4.069,7.015 3.978,7.112 3.789,7.314 3.528,7.221 3.454,6.926 3.399,6.707 3.282,6.599 3.101,6.599 2.965,6.599 2.8,6.777 2.801,6.924 2.802,7.454 3.405,7.957 3.908,7.849 4.417,7.739 4.679,7.409 4.72,6.824 4.749,6.406 4.813,6.292 5.02,6.292 c 0.25,0 0.328,0.117 0.328,0.497 0,0.558 -0.161,0.942 -0.544,1.294 C 4.481,8.38 4.259,8.461 3.766,8.463 3.404,8.465 3.316,8.45 3.099,8.348 2.597,8.113 2.256,7.628 2.184,7.047 2.157,6.827 2.124,6.735 2.052,6.677 1.908,6.56 1.726,6.577 1.613,6.72 1.53,6.825 1.521,6.875 1.545,7.11 a 2.246,2.246 0 0 0 1.85,1.99 c 0.12,0.02 0.267,0.038 0.328,0.04 0.249,0.011 0.7,-0.094 0.988,-0.231 0.785,-0.373 1.22,-1.067 1.281,-2.046 0.03,-0.475 0.08,-0.571 0.305,-0.571 0.24,0 0.324,0.132 0.324,0.51 0,0.634 0.19,1.151 0.583,1.58 C 7.89,9.134 8.918,9.34 9.808,8.905 10.564,8.536 11.056,7.79 11.056,7.014 11.056,6.776 11.042,6.726 10.959,6.667 10.824,6.573 10.647,6.582 10.551,6.687 10.505,6.738 10.455,6.891 10.434,7.045 A 1.672,1.672 0 0 1 9.933,8.048 C 9.585,8.378 9.367,8.461 8.861,8.463 8.498,8.465 8.411,8.45 8.194,8.348 A 1.758,1.758 0 0 1 7.428,7.602 C 7.325,7.402 7.304,7.301 7.288,6.915 7.267,6.393 7.313,6.292 7.572,6.292 c 0.234,0 0.322,0.123 0.323,0.45 0,0.386 0.067,0.583 0.273,0.806 0.57,0.619 1.615,0.235 1.615,-0.593 0,-0.246 -0.097,-0.356 -0.314,-0.356 -0.13,0 -0.3,0.176 -0.3,0.307 0,0.042 -0.042,0.129 -0.092,0.192 A 0.296,0.296 0 0 1 8.661,7.151 C 8.583,7.094 8.573,7.012 8.548,6.175 8.525,5.415 8.505,5.211 8.428,4.971 8.124,4.028 7.242,3.401 6.303,3.409 Z"
     id="path2"
     inkscape:connector-curvature="0"
     style="fill:#bde6fb;fill-opacity:1" />
</svg>
