<?xml version="1.0" encoding="UTF-8" standalone="no"?>
<svg
   width="47.546486"
   height="47.546486"
   viewBox="0 0 12.580008 12.580008"
   version="1.1"
   id="svg6"
   sodipodi:docname="viber.svg"
   inkscape:version="0.92.4 (5da689c313, 2019-01-14)"
   xmlns:inkscape="http://www.inkscape.org/namespaces/inkscape"
   xmlns:sodipodi="http://sodipodi.sourceforge.net/DTD/sodipodi-0.dtd"
   xmlns="http://www.w3.org/2000/svg"
   xmlns:svg="http://www.w3.org/2000/svg"
   xmlns:rdf="http://www.w3.org/1999/02/22-rdf-syntax-ns#"
   xmlns:cc="http://creativecommons.org/ns#"
   xmlns:dc="http://purl.org/dc/elements/1.1/">
  <metadata
     id="metadata12">
    <rdf:RDF>
      <cc:Work
         rdf:about="">
        <dc:format>image/svg+xml</dc:format>
        <dc:type
           rdf:resource="http://purl.org/dc/dcmitype/StillImage" />
        <dc:title />
      </cc:Work>
    </rdf:RDF>
  </metadata>
  <defs
     id="defs10" />
  <sodipodi:namedview
     pagecolor="#ffffff"
     bordercolor="#666666"
     borderopacity="1"
     objecttolerance="10"
     gridtolerance="10"
     guidetolerance="10"
     inkscape:pageopacity="0"
     inkscape:pageshadow="2"
     inkscape:window-width="1087"
     inkscape:window-height="480"
     id="namedview8"
     showgrid="false"
     inkscape:zoom="4.9166667"
     inkscape:cx="2.1355932"
     inkscape:cy="24"
     inkscape:window-x="0"
     inkscape:window-y="25"
     inkscape:window-maximized="0"
     inkscape:current-layer="svg6"
     inkscape:showpageshadow="0"
     inkscape:pagecheckerboard="0"
     inkscape:deskcolor="#d1d1d1" />
  <path
     d="M 6.2900079,0 A 6.29,6.29 0 0 0 7.9490244e-6,6.3 6.29,6.29 0 0 0 6.3000079,12.58 6.29,6.29 0 0 0 12.580008,6.29 6.29,6.29 0 0 0 6.2900079,0 Z m -0.02,0.93 0.01,0.01 A 5.4,5.4 0 0 1 11.680008,6.34 5.4,5.4 0 0 1 6.2800079,11.75 5.4,5.4 0 0 1 0.87000795,6.35 5.4,5.4 0 0 1 6.2700079,0.93 Z"
     id="path2"
     inkscape:connector-curvature="0"
     style="fill:#bde6fb;fill-opacity:1" />
  <path
     d="m 5.1800079,2.01 a 2.75,2.75 0 0 0 -2.71,2.8 v 1.65 c 0,1.26 0.8,2.32 1.91,2.67 v 1.61 l 1.64,-1.49 h 1.4 c 1.5,0 2.7100001,-1.24 2.7100001,-2.8 V 4.82 c 0,-1.55 -1.2000001,-2.8 -2.7000001,-2.8 z m 1.74,1.07 c 0.54,0 1,0.18 1.37,0.52 0.19,0.18 0.33,0.39 0.42,0.63 0.1,0.23 0.14,0.5 0.15,0.8 a 0.19,0.19 0 0 1 -0.2,0.18 0.19,0.19 0 0 1 -0.18,-0.19 c 0,-0.5 -0.16,-0.88 -0.45,-1.15 -0.3,-0.28 -0.67,-0.42 -1.12,-0.43 a 0.19,0.19 0 0 1 -0.18,-0.18 c 0,-0.1 0.08,-0.18 0.19,-0.18 z m -1.93,0.43 c 0.08,0.01 0.15,0.05 0.2,0.11 l 0.01,0.01 0.02,0.03 0.08,0.1 0.18,0.22 c 0.08,0.12 0.2,0.3 0.25,0.4 0.1,0.19 0.04,0.39 -0.07,0.47 l -0.2,0.16 c -0.07,0.06 -0.07,0.19 -0.07,0.2 0,0 0.29,1.06 1.34,1.33 0,0 0.13,0 0.2,-0.07 l 0.15,-0.2 c 0.09,-0.11 0.29,-0.17 0.48,-0.07 a 4.28,4.28 0 0 1 0.75,0.54 c 0.12,0.1 0.15,0.26 0.08,0.42 v 0.02 c -0.1,0.15 -0.2,0.28 -0.34,0.4 v 0.01 a 0.67,0.67 0 0 1 -0.4,0.17 c -0.06,0 -0.1,0 -0.16,-0.02 l -0.01,-0.01 a 5.45,5.45 0 0 1 -2,-1.22 V 6.5 h -0.03 V 6.48 l -0.02,-0.01 -0.01,-0.01 a 5.45,5.45 0 0 1 -1.22,-2 h -0.01 V 4.43 a 0.51,0.51 0 0 1 -0.03,-0.15 V 4.23 a 0.67,0.67 0 0 1 0.16,-0.33 l 0.01,-0.02 c 0.13,-0.14 0.27,-0.25 0.41,-0.33 h 0.01 a 0.38,0.38 0 0 1 0.23,-0.04 z m 1.94,0.42 c 0.32,0.02 0.6,0.14 0.8,0.34 0.18,0.2 0.28,0.47 0.27,0.76 0,0.1 -0.08,0.18 -0.18,0.18 a 0.18,0.18 0 0 1 -0.19,-0.19 0.66,0.66 0 0 0 -0.18,-0.5 c -0.13,-0.14 -0.3,-0.21 -0.55,-0.23 -0.1,0 -0.18,-0.1 -0.17,-0.2 0,-0.1 0.1,-0.17 0.2,-0.16 z"
     id="path4"
     inkscape:connector-curvature="0"
     style="opacity:0.75;fill:#800080" />
</svg>
