<?xml version="1.0" encoding="UTF-8" standalone="no"?>
<svg
   width="47.542679"
   height="47.546455"
   viewBox="0 0 12.579 12.58"
   version="1.1"
   id="svg4"
   sodipodi:docname="vidcutter.svg"
   inkscape:version="0.92.4 (5da689c313, 2019-01-14)"
   xmlns:inkscape="http://www.inkscape.org/namespaces/inkscape"
   xmlns:sodipodi="http://sodipodi.sourceforge.net/DTD/sodipodi-0.dtd"
   xmlns="http://www.w3.org/2000/svg"
   xmlns:svg="http://www.w3.org/2000/svg"
   xmlns:rdf="http://www.w3.org/1999/02/22-rdf-syntax-ns#"
   xmlns:cc="http://creativecommons.org/ns#"
   xmlns:dc="http://purl.org/dc/elements/1.1/">
  <metadata
     id="metadata10">
    <rdf:RDF>
      <cc:Work
         rdf:about="">
        <dc:format>image/svg+xml</dc:format>
        <dc:type
           rdf:resource="http://purl.org/dc/dcmitype/StillImage" />
        <dc:title />
      </cc:Work>
    </rdf:RDF>
  </metadata>
  <defs
     id="defs8" />
  <sodipodi:namedview
     pagecolor="#ffffff"
     bordercolor="#666666"
     borderopacity="1"
     objecttolerance="10"
     gridtolerance="10"
     guidetolerance="10"
     inkscape:pageopacity="0"
     inkscape:pageshadow="2"
     inkscape:window-width="1109"
     inkscape:window-height="480"
     id="namedview6"
     showgrid="false"
     inkscape:zoom="4.9166667"
     inkscape:cx="2.1355932"
     inkscape:cy="24"
     inkscape:window-x="0"
     inkscape:window-y="25"
     inkscape:window-maximized="0"
     inkscape:current-layer="svg4"
     inkscape:showpageshadow="0"
     inkscape:pagecheckerboard="0"
     inkscape:deskcolor="#d1d1d1" />
  <path
     d="M 6.29,0 A 6.29,6.29 0 0 0 0,6.29 a 6.29,6.29 0 0 0 0.406,2.203 6.29,6.29 0 0 0 0.09,0.25 6.29,6.29 0 0 0 0.274,0.565 6.29,6.29 0 0 0 0.329,0.536 6.29,6.29 0 0 0 0.38,0.5 6.29,6.29 0 0 0 0.43,0.46 6.29,6.29 0 0 0 0.472,0.415 6.29,6.29 0 0 0 0.511,0.366 6.29,6.29 0 0 0 0.546,0.313 6.29,6.29 0 0 0 0.335,0.15 6.29,6.29 0 0 0 2.516,0.532 6.29,6.29 0 0 0 6.29,-6.29 A 6.29,6.29 0 0 0 12.049,3.774 6.29,6.29 0 0 0 6.29,0 Z M 6.272,0.937 a 5.407,5.407 0 0 1 1.48,0.211 L 7.751,1.149 1.075,7.825 A 5.407,5.407 0 0 1 0.865,6.345 5.407,5.407 0 0 1 6.273,0.938 Z M 7.85,1.669 8.638,2.457 7.85,3.245 7.063,2.457 Z m 2.3,0.909 A 5.407,5.407 0 0 1 10.508,2.983 5.407,5.407 0 0 0 10.151,2.578 Z M 6.274,3.245 7.063,4.033 6.274,4.821 5.486,4.033 Z M 9.82,3.639 10.608,4.426 9.82,5.215 9.032,4.426 Z m 1.523,0.84 A 5.407,5.407 0 0 1 11.679,6.344 5.407,5.407 0 0 1 6.272,11.751 5.407,5.407 0 0 1 4.409,11.412 L 11.343,4.48 Z M 4.699,4.821 5.486,5.609 4.699,6.397 3.911,5.609 Z M 8.243,5.215 9.032,6.003 8.243,6.791 7.456,6.003 Z M 3.123,6.397 3.911,7.185 3.123,7.973 2.334,7.185 Z M 6.668,6.791 7.456,7.579 6.668,8.367 5.881,7.579 Z M 1.546,7.973 2.334,8.761 1.768,9.327 A 5.407,5.407 0 0 1 1.23,8.29 Z M 5.092,8.367 5.881,9.155 5.092,9.942 4.304,9.155 Z M 3.516,9.942 4.304,10.73 3.859,11.175 A 5.407,5.407 0 0 1 2.897,10.561 l 0.62,-0.62 z"
     id="path2"
     inkscape:connector-curvature="0"
     style="fill:#bde6fb;fill-opacity:1" />
</svg>
