<?xml version="1.0" encoding="UTF-8" standalone="no"?>
<svg
   width="47.545998"
   height="47.541"
   version="1"
   id="svg8"
   sodipodi:docname="vim.svg"
   inkscape:version="0.92.4 (5da689c313, 2019-01-14)"
   xmlns:inkscape="http://www.inkscape.org/namespaces/inkscape"
   xmlns:sodipodi="http://sodipodi.sourceforge.net/DTD/sodipodi-0.dtd"
   xmlns="http://www.w3.org/2000/svg"
   xmlns:svg="http://www.w3.org/2000/svg"
   xmlns:rdf="http://www.w3.org/1999/02/22-rdf-syntax-ns#"
   xmlns:cc="http://creativecommons.org/ns#"
   xmlns:dc="http://purl.org/dc/elements/1.1/">
  <metadata
     id="metadata14">
    <rdf:RDF>
      <cc:Work
         rdf:about="">
        <dc:format>image/svg+xml</dc:format>
        <dc:type
           rdf:resource="http://purl.org/dc/dcmitype/StillImage" />
        <dc:title />
      </cc:Work>
    </rdf:RDF>
  </metadata>
  <defs
     id="defs12" />
  <sodipodi:namedview
     pagecolor="#ffffff"
     bordercolor="#666666"
     borderopacity="1"
     objecttolerance="10"
     gridtolerance="10"
     guidetolerance="10"
     inkscape:pageopacity="0"
     inkscape:pageshadow="2"
     inkscape:window-width="862"
     inkscape:window-height="480"
     id="namedview10"
     showgrid="false"
     inkscape:zoom="4.9166667"
     inkscape:cx="2.1355932"
     inkscape:cy="24"
     inkscape:window-x="0"
     inkscape:window-y="25"
     inkscape:window-maximized="0"
     inkscape:current-layer="svg8"
     inkscape:showpageshadow="0"
     inkscape:pagecheckerboard="0"
     inkscape:deskcolor="#d1d1d1" />
  <path
     d="m 23.773,7.771 c -0.839,0 -1.677,0.312 -2.304,0.939 L 8.712,21.469 c -1.253,1.253 -1.251,3.35 0.002,4.603 L 21.471,38.83 c 1.253,1.253 3.352,1.255 4.605,0.003 l 12.758,-12.76 c 1.252,-1.253 1.252,-3.351 0,-4.604 L 26.076,8.709 A 3.25,3.25 0 0 0 23.773,7.771 Z"
     id="path2"
     inkscape:connector-curvature="0"
     style="opacity:0.75;fill:#7a7afb;fill-opacity:1" />
  <path
     d="m 10.821,11.581 a 1.52,1.52 0 0 0 -1.524,1.523 c 0,0.845 0.68,1.524 1.524,1.524 h 0.762 v 18.286 c 0,2.69 3.232,4.06 5.166,2.19 l 21.26,-20.573 a 1.52,1.52 0 0 0 -0.521,-2.95 h -7.62 a 1.52,1.52 0 0 0 -1.524,1.523 c 0,0.631 0.381,1.17 0.926,1.402 L 17.678,25.723 V 14.628 h 0.762 a 1.52,1.52 0 0 0 1.523,-1.524 1.52,1.52 0 0 0 -1.523,-1.523 z"
     id="path4"
     inkscape:connector-curvature="0"
     style="fill:#bde6fb;fill-opacity:1" />
  <path
     d="M 23.773,0 V 0.003 A 23.773,23.773 0 0 0 1.680851e-8,23.777 23.773,23.773 0 0 0 23.773,47.541 23.773,23.773 0 0 0 47.546,23.772 23.773,23.773 0 0 0 23.773,0 Z M 23.705,3.54 A 20.436,20.436 0 0 1 44.14,23.976 20.436,20.436 0 0 1 23.705,44.414 20.436,20.436 0 0 1 3.273,23.976 20.436,20.436 0 0 1 23.705,3.544 V 3.541 Z"
     id="path6"
     inkscape:connector-curvature="0"
     style="fill:#bde6fb;fill-opacity:1" />
</svg>
