<?xml version="1.0" encoding="UTF-8" standalone="no"?>
<svg
   width="48"
   height="48"
   viewBox="0 0 12.7 12.7"
   version="1.1"
   id="svg4"
   sodipodi:docname="virtualbox.svg"
   inkscape:version="0.92.5 (2060ec1f9f, 2020-04-08)"
   xmlns:inkscape="http://www.inkscape.org/namespaces/inkscape"
   xmlns:sodipodi="http://sodipodi.sourceforge.net/DTD/sodipodi-0.dtd"
   xmlns="http://www.w3.org/2000/svg"
   xmlns:svg="http://www.w3.org/2000/svg">
  <sodipodi:namedview
     id="namedview1"
     pagecolor="#505050"
     bordercolor="#eeeeee"
     borderopacity="1"
     inkscape:showpageshadow="0"
     inkscape:pageopacity="0"
     inkscape:pagecheckerboard="0"
     inkscape:deskcolor="#d1d1d1" />
  <defs
     id="defs8">
    <style
       id="current-color-scheme"
       type="text/css">&#10;      .ColorScheme-Highlight {&#10;        color:#1e3f5a;&#10;      }&#10;  </style>
  </defs>
  <path
     class="ColorScheme-Highlight"
     style="fill:#bde6fb;fill-opacity:1;stroke-width:0.264583"
     d="M 6.3499999,0 C 2.8429918,0 0,2.8429918 0,6.3499999 0,9.857008 2.8429918,12.7 6.3499999,12.7 9.857008,12.7 12.7,9.857008 12.7,6.3499999 12.7,2.8429918 9.857008,0 6.3499999,0 Z m 0,0.79374999 c 3.0686322,0 5.5562501,2.48761781 5.5562501,5.55624991 0,3.0686322 -2.4876179,5.5562501 -5.5562501,5.5562501 -3.0686321,0 -5.55624991,-2.4876179 -5.55624991,-5.5562501 0,-3.0686321 2.48761781,-5.55624991 5.55624991,-5.55624991 z M 5.9706948,3.175 5.3748656,3.1858532 5.2694458,3.5796275 l -0.014986,0.00414 0.00672,0.025839 L 4.141866,7.7855711 3.6762613,6.0471761 3.5553385,5.5562499 H 3.4395833 0.52916666 v 0.79375 H 2.9352213 l 0.8500774,3.175 H 4.4979166 L 5.6720051,5.1423217 6.3499999,7.6729166 H 6.7003662 7.0693358 L 7.8449992,4.8953083 8.7312499,8.2020832 H 11.90625 v -0.79375 H 9.3405149 L 8.2020832,3.175 H 7.5013507 l -0.05581,0.1441772 -0.00672,0.024289 -0.00878,0.00259 0.00414,0.015502 L 6.72569,6.0068774 6.0828351,3.6096077 Z"
     id="path817"
     inkscape:connector-curvature="0" />
</svg>
