<?xml version="1.0" encoding="UTF-8" standalone="no"?>
<svg
   width="47.546486"
   height="47.546486"
   viewBox="0 0 12.580008 12.580008"
   version="1.1"
   id="svg6"
   sodipodi:docname="vivaldi.svg"
   inkscape:version="0.92.4 (5da689c313, 2019-01-14)"
   xmlns:inkscape="http://www.inkscape.org/namespaces/inkscape"
   xmlns:sodipodi="http://sodipodi.sourceforge.net/DTD/sodipodi-0.dtd"
   xmlns="http://www.w3.org/2000/svg"
   xmlns:svg="http://www.w3.org/2000/svg"
   xmlns:rdf="http://www.w3.org/1999/02/22-rdf-syntax-ns#"
   xmlns:cc="http://creativecommons.org/ns#"
   xmlns:dc="http://purl.org/dc/elements/1.1/">
  <metadata
     id="metadata12">
    <rdf:RDF>
      <cc:Work
         rdf:about="">
        <dc:format>image/svg+xml</dc:format>
        <dc:type
           rdf:resource="http://purl.org/dc/dcmitype/StillImage" />
        <dc:title />
      </cc:Work>
    </rdf:RDF>
  </metadata>
  <defs
     id="defs10" />
  <sodipodi:namedview
     pagecolor="#ffffff"
     bordercolor="#666666"
     borderopacity="1"
     objecttolerance="10"
     gridtolerance="10"
     guidetolerance="10"
     inkscape:pageopacity="0"
     inkscape:pageshadow="2"
     inkscape:window-width="1087"
     inkscape:window-height="480"
     id="namedview8"
     showgrid="false"
     inkscape:zoom="4.9166667"
     inkscape:cx="2.1355932"
     inkscape:cy="24"
     inkscape:window-x="0"
     inkscape:window-y="25"
     inkscape:window-maximized="0"
     inkscape:current-layer="svg6"
     inkscape:showpageshadow="0"
     inkscape:pagecheckerboard="0"
     inkscape:deskcolor="#d1d1d1" />
  <path
     d="M 6.2900079,0 A 6.29,6.29 0 0 0 7.9490244e-6,6.3 6.29,6.29 0 0 0 6.3000079,12.58 6.29,6.29 0 0 0 12.580008,6.29 6.29,6.29 0 0 0 6.2900079,0 Z m -0.01,0.94 A 5.4,5.4 0 0 1 11.680008,6.34 5.4,5.4 0 0 1 6.2800079,11.75 5.4,5.4 0 0 1 0.87000795,6.35 5.4,5.4 0 0 1 6.2700079,0.93 Z"
     id="path2"
     inkscape:connector-curvature="0"
     style="fill:#bde6fb;fill-opacity:1" />
  <path
     d="m 9.2600079,3.11 a 1,1 0 0 0 -0.44,0.1 c -0.19,0.1 -0.38,0.3 -0.46,0.49 -0.09,0.2 -0.1,0.58 -0.03,0.77 l 0.12,0.32 c 0.08,0.2 0.11,0.65 0.06,0.9 -0.06,0.3 -0.23,0.62 -0.44,0.83 a 1.5,1.5 0 0 1 -2.15,0.02 c -0.21,-0.2 -0.24,-0.26 -1.2,-2 -0.32,-0.58 -0.6,-1.08 -0.67,-1.14 a 0.93,0.93 0 0 0 -0.69,-0.28 c -0.52,0 -0.88,0.4 -0.96,0.85 -0.06,0.36 -0.1,0.3 1.58,3.34 a 50.38,50.38 0 0 0 1.64,2.9 c 0.29,0.31 0.7,0.39 1.1,0.2 0.1,-0.04 0.21,-0.13 0.29,-0.21 0.14,-0.17 3.1300001,-5.6 3.1800001,-5.79 0.05,-0.2 0.04,-0.47 -0.03,-0.67 a 1.06,1.06 0 0 0 -0.5500001,-0.57 0.95,0.95 0 0 0 -0.35,-0.06 z"
     id="path4"
     inkscape:connector-curvature="0"
     style="opacity:0.75;fill:#d40000" />
</svg>
