<?xml version="1.0" encoding="UTF-8" standalone="no"?>
<svg
   width="47.546486"
   height="47.546486"
   viewBox="0 0 12.580008 12.580008"
   version="1.1"
   id="svg4"
   sodipodi:docname="vk.svg"
   inkscape:version="0.92.4 (5da689c313, 2019-01-14)"
   xmlns:inkscape="http://www.inkscape.org/namespaces/inkscape"
   xmlns:sodipodi="http://sodipodi.sourceforge.net/DTD/sodipodi-0.dtd"
   xmlns="http://www.w3.org/2000/svg"
   xmlns:svg="http://www.w3.org/2000/svg"
   xmlns:rdf="http://www.w3.org/1999/02/22-rdf-syntax-ns#"
   xmlns:cc="http://creativecommons.org/ns#"
   xmlns:dc="http://purl.org/dc/elements/1.1/">
  <metadata
     id="metadata10">
    <rdf:RDF>
      <cc:Work
         rdf:about="">
        <dc:format>image/svg+xml</dc:format>
        <dc:type
           rdf:resource="http://purl.org/dc/dcmitype/StillImage" />
        <dc:title />
      </cc:Work>
    </rdf:RDF>
  </metadata>
  <defs
     id="defs8" />
  <sodipodi:namedview
     pagecolor="#ffffff"
     bordercolor="#666666"
     borderopacity="1"
     objecttolerance="10"
     gridtolerance="10"
     guidetolerance="10"
     inkscape:pageopacity="0"
     inkscape:pageshadow="2"
     inkscape:window-width="1087"
     inkscape:window-height="480"
     id="namedview6"
     showgrid="false"
     inkscape:zoom="4.9166667"
     inkscape:cx="2.1355932"
     inkscape:cy="24"
     inkscape:window-x="0"
     inkscape:window-y="25"
     inkscape:window-maximized="0"
     inkscape:current-layer="svg4"
     inkscape:showpageshadow="0"
     inkscape:pagecheckerboard="0"
     inkscape:deskcolor="#d1d1d1" />
  <path
     d="M 6.2900079,0 A 6.29,6.29 0 0 0 7.9490244e-6,6.3 6.29,6.29 0 0 0 6.3000079,12.58 6.29,6.29 0 0 0 12.580008,6.29 6.29,6.29 0 0 0 6.2900079,0 Z m -0.02,0.93 0.01,0.01 A 5.4,5.4 0 0 1 11.680008,6.34 5.4,5.4 0 0 1 6.2800079,11.75 5.4,5.4 0 0 1 0.87000795,6.35 5.4,5.4 0 0 1 6.2700079,0.93 Z m -0.56,2.95 c -0.3,0 -0.55,0.02 -0.71,0.1 -0.14,0.08 -0.25,0.23 -0.18,0.24 0.08,0.01 0.26,0.05 0.36,0.19 0.13,0.18 0.12,0.57 0.12,0.57 0,0 0.07,1.1 -0.17,1.23 -0.16,0.1 -0.4,-0.1 -0.88,-0.96 -0.25,-0.45 -0.44,-0.94 -0.44,-0.94 0,0 -0.04,-0.1 -0.1,-0.14 -0.08,-0.06 -0.2,-0.08 -0.2,-0.08 h -1.16 c 0,0 -0.17,0.01 -0.24,0.09 -0.05,0.07 0,0.21 0,0.21 0,0 0.92,2.21 1.96,3.32 0.95,1.02 2.03,0.95 2.03,0.95 h 0.5 c 0,0 0.14,-0.01 0.21,-0.1 0.07,-0.07 0.07,-0.22 0.07,-0.22 0,0 0,-0.67 0.3,-0.77 0.3,-0.1 0.68,0.65 1.1,0.94 0.3,0.22 0.54,0.17 0.54,0.17 l 1.1,-0.02 c 0,0 0.5700001,-0.03 0.3000001,-0.5 -0.03,-0.03 -0.16,-0.34 -0.8200001,-0.96 -0.69,-0.66 -0.6,-0.55 0.23,-1.69 C 10.130008,4.82 10.340008,4.41 10.280008,4.22 10.220008,4.05 9.8500079,4.1 9.8500079,4.1 h -1.25 c 0,0 -0.09,0 -0.16,0.03 a 0.35,0.35 0 0 0 -0.1,0.14 c 0,0 -0.2,0.53 -0.46,0.99 -0.55,0.95 -0.77,1 -0.86,0.95 -0.2,-0.14 -0.16,-0.56 -0.16,-0.86 0,-0.93 0.14,-1.31 -0.26,-1.41 a 2.05,2.05 0 0 0 -0.58,-0.06 z"
     id="path2"
     inkscape:connector-curvature="0"
     style="fill:#bde6fb;fill-opacity:1" />
</svg>
