<?xml version="1.0" encoding="UTF-8" standalone="no"?>
<svg
   width="47.546486"
   height="47.546608"
   viewBox="0 0 12.580008 12.58004"
   version="1.1"
   id="svg6"
   sodipodi:docname="vkaudiosaver.svg"
   inkscape:version="0.92.4 (5da689c313, 2019-01-14)"
   xmlns:inkscape="http://www.inkscape.org/namespaces/inkscape"
   xmlns:sodipodi="http://sodipodi.sourceforge.net/DTD/sodipodi-0.dtd"
   xmlns="http://www.w3.org/2000/svg"
   xmlns:svg="http://www.w3.org/2000/svg"
   xmlns:rdf="http://www.w3.org/1999/02/22-rdf-syntax-ns#"
   xmlns:cc="http://creativecommons.org/ns#"
   xmlns:dc="http://purl.org/dc/elements/1.1/">
  <defs
     id="defs10" />
  <sodipodi:namedview
     pagecolor="#ffffff"
     bordercolor="#666666"
     borderopacity="1"
     objecttolerance="10"
     gridtolerance="10"
     guidetolerance="10"
     inkscape:pageopacity="0"
     inkscape:pageshadow="2"
     inkscape:window-width="1087"
     inkscape:window-height="480"
     id="namedview8"
     showgrid="false"
     inkscape:zoom="4.9166667"
     inkscape:cx="2.1355932"
     inkscape:cy="24"
     inkscape:window-x="0"
     inkscape:window-y="25"
     inkscape:window-maximized="0"
     inkscape:current-layer="svg6"
     inkscape:showpageshadow="0"
     inkscape:pagecheckerboard="0"
     inkscape:deskcolor="#d1d1d1" />
  <metadata
     id="metadata2">
    <rdf:RDF>
      <cc:Work>
        <dc:format>image/svg+xml</dc:format>
        <dc:type
           rdf:resource="http://purl.org/dc/dcmitype/StillImage" />
        <dc:title />
      </cc:Work>
    </rdf:RDF>
  </metadata>
  <path
     d="M 6.280008,3.1791329e-5 A 6.29,6.29 0 0 0 7.9585612e-6,6.3000318 6.29,6.29 0 0 0 6.280008,12.580032 a 6.29,6.29 0 0 0 6.3,-6.2900002 6.29,6.29 0 0 0 -6.31,-6.290000008671 z M 6.270008,0.94003179 a 5.4,5.4 0 0 1 5.4,5.40000001 5.4,5.4 0 0 1 -5.4,5.4100002 A 5.4,5.4 0 0 1 0.86000796,6.3500318 5.4,5.4 0 0 1 6.260008,0.93003179 Z m -0.17,1.71000001 a 2,2 0 0 0 -0.79,0.08 c -0.1,0.06 -0.19,0.18 -0.14,0.19 0.06,0 0.2,0.04 0.28,0.14 0.1,0.14 0.1,0.45 0.1,0.45 0,0 0.05,0.84 -0.13,0.95 -0.13,0.07 -0.3,-0.08 -0.69,-0.75 -0.19,-0.34 -0.34,-0.73 -0.34,-0.73 0,0 -0.02,-0.07 -0.08,-0.1 -0.06,-0.05 -0.14,-0.06 -0.14,-0.06 h -0.9 c 0,0 -0.14,0 -0.2,0.07 -0.04,0.05 0,0.16 0,0.16 0,0 0.71,1.7 1.52,2.56 0.73,0.8 1.57,0.74 1.57,0.74 h 0.38 c 0,0 0.11,-0.01 0.17,-0.08 0.05,-0.06 0.05,-0.17 0.05,-0.17 0,0 0,-0.52 0.23,-0.6 0.23,-0.07 0.53,0.5 0.85,0.73 0.24,0.17 0.42,0.13 0.42,0.13 l 0.84,-0.01 c 0,0 0.45,-0.03 0.24,-0.39 -0.02,-0.02 -0.13,-0.26 -0.63,-0.74 -0.53,-0.51 -0.46,-0.43 0.18,-1.3 0.39,-0.54 0.54,-0.86 0.5,-1 -0.05,-0.13 -0.34,-0.1 -0.34,-0.1 h -0.95 c 0,0 -0.07,0 -0.12,0.03 -0.06,0.03 -0.09,0.1 -0.09,0.1 0,0 -0.15,0.42 -0.35,0.77 -0.43,0.74 -0.6,0.78 -0.66,0.73 -0.17,-0.1 -0.13,-0.43 -0.13,-0.66 0,-0.72 0.11,-1.02 -0.2,-1.1 -0.1,-0.02 -0.18,-0.04 -0.45,-0.04 z m -2.7,5.03 a 0.72,0.72 0 0 0 -0.23,0.03 0.47,0.47 0 0 0 -0.17,0.1 0.42,0.42 0 0 0 -0.1,0.15 0.52,0.52 0 0 0 -0.04,0.2 0.47,0.47 0 0 0 0.14,0.34 c 0.03,0.04 0.08,0.07 0.12,0.1 a 2.5,2.5 0 0 0 0.24,0.13 l 0.08,0.06 0.06,0.07 0.02,0.09 a 0.2,0.2 0 0 1 -0.01,0.07 c 0,0.02 -0.02,0.04 -0.04,0.06 a 0.19,0.19 0 0 1 -0.07,0.03 0.35,0.35 0 0 1 -0.1,0.02 0.97,0.97 0 0 1 -0.35,-0.09 4.99,4.99 0 0 1 -0.11,-0.05 v 0.33 c 0.06,0.04 0.13,0.06 0.2,0.08 a 1.1,1.1 0 0 0 0.5,-0.01 0.52,0.52 0 0 0 0.18,-0.1 c 0.05,-0.04 0.09,-0.1 0.11,-0.15 a 0.52,0.52 0 0 0 0.04,-0.21 0.42,0.42 0 0 0 -0.11,-0.3 0.6,0.6 0 0 0 -0.12,-0.11 1.91,1.91 0 0 0 -0.29,-0.17 0.56,0.56 0 0 1 -0.08,-0.06 0.2,0.2 0 0 1 -0.05,-0.06 0.2,0.2 0 0 1 -0.01,-0.08 c 0,-0.05 0.02,-0.1 0.05,-0.12 0.03,-0.04 0.08,-0.05 0.14,-0.05 h 0.08 l 0.08,0.02 a 0.94,0.94 0 0 1 0.2,0.08 l 0.1,-0.28 a 1.68,1.68 0 0 0 -0.23,-0.1 0.96,0.96 0 0 0 -0.23,-0.02 z m 1.13,0.01 -0.55,1.71 h 0.36 l 0.12,-0.4 h 0.58 l 0.12,0.4 h 0.36 l -0.55,-1.7 h -0.44 z m 0.92,0.01 0.53,1.7 h 0.4 l 0.53,-1.7 h -0.37 l -0.28,1.03 -0.02,0.07 -0.02,0.1 a 4.6,4.6 0 0 0 -0.04,0.2 2.73,2.73 0 0 0 -0.07,-0.37 l -0.3,-1.02 h -0.36 z m 1.67,0 v 1.7 h 0.98 v -0.3 h -0.62 v -0.43 h 0.58 v -0.3 h -0.58 v -0.37 h 0.62 v -0.3 z m 1.34,0 v 1.7 h 0.36 v -0.65 h 0.15 l 0.37,0.65 h 0.4 l -0.02,-0.03 a 3.21,3.21 0 0 1 -0.21,-0.34 l -0.23,-0.37 a 0.58,0.58 0 0 0 0.1,-0.07 0.48,0.48 0 0 0 0.18,-0.38 c 0,-0.17 -0.05,-0.3 -0.16,-0.38 -0.1,-0.09 -0.26,-0.13 -0.48,-0.13 z m -3.72,0.23 0.02,0.1 0.03,0.12 c 0,0.04 0.02,0.07 0.03,0.1 0,0.04 0.02,0.06 0.02,0.07 l 0.1,0.37 h -0.4 l 0.1,-0.37 0.01,-0.04 0.02,-0.06 0.02,-0.07 a 3.75,3.75 0 0 0 0.06,-0.22 z m 4.07,0.07 h 0.09 c 0.1,0 0.17,0.01 0.21,0.05 0.05,0.03 0.07,0.09 0.07,0.17 0,0.08 -0.02,0.14 -0.06,0.18 -0.04,0.04 -0.12,0.06 -0.22,0.06 h -0.1 v -0.46 z"
     id="path4"
     inkscape:connector-curvature="0"
     style="fill:#bde6fb;fill-opacity:0.988235" />
</svg>
