<?xml version="1.0" encoding="UTF-8" standalone="no"?>
<svg
   width="47.546455"
   height="47.542679"
   viewBox="0 0 12.58 12.579"
   version="1.1"
   id="svg4"
   sodipodi:docname="vmware-player.svg"
   inkscape:version="0.92.4 (5da689c313, 2019-01-14)"
   xmlns:inkscape="http://www.inkscape.org/namespaces/inkscape"
   xmlns:sodipodi="http://sodipodi.sourceforge.net/DTD/sodipodi-0.dtd"
   xmlns="http://www.w3.org/2000/svg"
   xmlns:svg="http://www.w3.org/2000/svg"
   xmlns:rdf="http://www.w3.org/1999/02/22-rdf-syntax-ns#"
   xmlns:cc="http://creativecommons.org/ns#"
   xmlns:dc="http://purl.org/dc/elements/1.1/">
  <metadata
     id="metadata10">
    <rdf:RDF>
      <cc:Work
         rdf:about="">
        <dc:format>image/svg+xml</dc:format>
        <dc:type
           rdf:resource="http://purl.org/dc/dcmitype/StillImage" />
        <dc:title />
      </cc:Work>
    </rdf:RDF>
  </metadata>
  <defs
     id="defs8" />
  <sodipodi:namedview
     pagecolor="#ffffff"
     bordercolor="#666666"
     borderopacity="1"
     objecttolerance="10"
     gridtolerance="10"
     guidetolerance="10"
     inkscape:pageopacity="0"
     inkscape:pageshadow="2"
     inkscape:window-width="1087"
     inkscape:window-height="480"
     id="namedview6"
     showgrid="false"
     inkscape:zoom="4.9166667"
     inkscape:cx="2.1355932"
     inkscape:cy="24"
     inkscape:window-x="0"
     inkscape:window-y="25"
     inkscape:window-maximized="0"
     inkscape:current-layer="svg4"
     inkscape:showpageshadow="0"
     inkscape:pagecheckerboard="0"
     inkscape:deskcolor="#d1d1d1" />
  <path
     d="M 6.29,9.9999565e-4 A 6.29,6.29 0 0 0 0,6.291 6.29,6.29 0 0 0 6.29,12.579 6.29,6.29 0 0 0 12.58,6.29 6.29,6.29 0 0 0 6.29,0 Z M 6.272,0.937 A 5.407,5.407 0 0 1 11.679,6.344 5.407,5.407 0 0 1 6.272,11.751 5.407,5.407 0 0 1 0.866,6.344 5.407,5.407 0 0 1 6.272,0.938 Z M 3.248,2.334 c -0.496,0 -0.896,0.4 -0.896,0.896 v 6.096 c 0,0.496 0.4,0.896 0.896,0.896 h 6.096 c 0.497,0 0.896,-0.4 0.896,-0.896 V 3.23 A 0.894,0.894 0 0 0 9.344,2.334 Z m 0.187,0.24 H 9.158 A 0.84,0.84 0 0 1 10,3.416 V 9.14 A 0.84,0.84 0 0 1 9.158,9.981 H 3.436 A 0.84,0.84 0 0 1 2.594,9.14 V 3.416 A 0.84,0.84 0 0 1 3.436,2.575 Z m 3.615,0.5 a 0.422,0.422 0 0 0 0,0.843 H 8.04 L 7.198,4.759 H 6.464 V 5.6 H 6.63 c 0.336,0 0.337,0 0.337,0.336 V 6.11 H 7.809 V 5.337 L 8.65,4.495 v 1.02 a 0.421,0.421 0 0 0 0.842,0 c 0,-0.666 -0.01,-1.372 0,-2.019 A 0.422,0.422 0 0 0 9.071,3.075 c -0.667,0 -1.373,0.01 -2.02,0 z M 3.518,3.079 a 0.42,0.42 0 0 0 -0.42,0.42 c 0.009,0.647 0,1.354 0,2.02 a 0.421,0.421 0 0 0 0.842,0 V 4.499 L 4.781,5.341 V 6.114 H 5.623 V 5.941 c 0,-0.337 0,-0.337 0.337,-0.337 H 6.125 V 4.763 H 5.392 L 4.55,3.921 h 0.989 a 0.421,0.421 0 0 0 0,-0.842 c -0.647,0.01 -1.354,0 -2.02,0 z m 3.449,3.362 v 0.173 c 0,0.337 0,0.336 -0.337,0.336 H 6.464 V 7.792 H 7.198 L 8.04,8.634 H 7.05 a 0.421,0.421 0 0 0 0,0.842 c 0.648,-0.01 1.354,0 2.021,0 a 0.42,0.42 0 0 0 0.42,-0.42 c -0.009,-0.648 0,-1.355 0,-2.021 a 0.42,0.42 0 0 0 -0.84,0 v 1.02 L 7.809,7.214 V 6.441 H 6.966 Z M 4.781,6.445 v 0.841 c 0,0.279 0.226,0.505 0.505,0.505 H 6.128 V 6.95 H 5.797 C 5.627,6.95 5.623,6.947 5.623,6.781 V 6.445 Z"
     id="path2"
     inkscape:connector-curvature="0"
     style="fill:#bde6fb;fill-opacity:1" />
</svg>
