<?xml version="1.0" encoding="UTF-8" standalone="no"?>
<svg
   width="47.546455"
   height="47.542679"
   viewBox="0 0 12.58 12.579"
   version="1.1"
   id="svg4"
   sodipodi:docname="vmware.svg"
   inkscape:version="0.92.4 (5da689c313, 2019-01-14)"
   xmlns:inkscape="http://www.inkscape.org/namespaces/inkscape"
   xmlns:sodipodi="http://sodipodi.sourceforge.net/DTD/sodipodi-0.dtd"
   xmlns="http://www.w3.org/2000/svg"
   xmlns:svg="http://www.w3.org/2000/svg"
   xmlns:rdf="http://www.w3.org/1999/02/22-rdf-syntax-ns#"
   xmlns:cc="http://creativecommons.org/ns#"
   xmlns:dc="http://purl.org/dc/elements/1.1/">
  <metadata
     id="metadata10">
    <rdf:RDF>
      <cc:Work
         rdf:about="">
        <dc:format>image/svg+xml</dc:format>
        <dc:type
           rdf:resource="http://purl.org/dc/dcmitype/StillImage" />
        <dc:title />
      </cc:Work>
    </rdf:RDF>
  </metadata>
  <defs
     id="defs8" />
  <sodipodi:namedview
     pagecolor="#ffffff"
     bordercolor="#666666"
     borderopacity="1"
     objecttolerance="10"
     gridtolerance="10"
     guidetolerance="10"
     inkscape:pageopacity="0"
     inkscape:pageshadow="2"
     inkscape:window-width="1087"
     inkscape:window-height="480"
     id="namedview6"
     showgrid="false"
     inkscape:zoom="4.9166667"
     inkscape:cx="2.1355932"
     inkscape:cy="24"
     inkscape:window-x="0"
     inkscape:window-y="25"
     inkscape:window-maximized="0"
     inkscape:current-layer="svg4"
     inkscape:showpageshadow="0"
     inkscape:pagecheckerboard="0"
     inkscape:deskcolor="#d1d1d1" />
  <path
     d="M 6.29,9.9999565e-4 A 6.29,6.29 0 0 0 0,6.291 6.29,6.29 0 0 0 6.29,12.579 6.29,6.29 0 0 0 12.58,6.29 6.29,6.29 0 0 0 6.29,0 Z M 6.272,0.937 A 5.407,5.407 0 0 1 11.679,6.344 5.407,5.407 0 0 1 6.272,11.751 5.407,5.407 0 0 1 0.866,6.344 5.407,5.407 0 0 1 6.272,0.938 Z M 3.774,2.098 a 0.048,0.048 0 0 0 -0.048,0.05 v 2.64 H 2.362 A 0.048,0.048 0 0 0 2.314,4.837 v 4.954 c 0,0.027 0.021,0.049 0.048,0.049 H 7.501 A 0.049,0.049 0 0 0 7.549,9.791 V 8.166 H 10.23 A 0.048,0.048 0 0 0 10.279,8.118 V 3.163 A 0.048,0.048 0 0 0 10.23,3.115 H 8.961 V 2.146 A 0.048,0.048 0 0 0 8.912,2.098 H 3.776 Z m 0.425,0.413 h 4.33 A 0.04,0.04 0 0 1 8.571,2.552 V 3.116 H 5.091 A 0.048,0.048 0 0 0 5.043,3.164 V 4.79 H 4.158 V 2.551 A 0.04,0.04 0 0 1 4.199,2.511 Z M 5.517,3.528 H 8.571 V 6.751 A 0.041,0.041 0 0 1 8.53,6.793 H 7.55 V 4.838 A 0.049,0.049 0 0 0 7.5,4.789 H 5.476 v -1.22 a 0.04,0.04 0 0 1 0.04,-0.042 z m 3.444,0 h 0.887 a 0.04,0.04 0 0 1 0.04,0.041 v 4.2 a 0.04,0.04 0 0 1 -0.04,0.04 H 7.549 V 7.151 h 1.363 c 0.027,0 0.05,-0.022 0.05,-0.049 z M 2.788,5.202 h 0.938 v 1.899 c 0,0.027 0.022,0.048 0.049,0.048 h 1.268 v 0.969 c 0,0.027 0.022,0.048 0.048,0.048 H 7.159 V 9.442 A 0.04,0.04 0 0 1 7.119,9.483 H 2.787 A 0.04,0.04 0 0 1 2.746,9.442 v -4.2 a 0.04,0.04 0 0 1 0.04,-0.04 z m 1.37,0 h 0.885 v 1.59 H 4.199 A 0.041,0.041 0 0 1 4.159,6.75 Z m 1.318,0 h 1.642 a 0.04,0.04 0 0 1 0.041,0.04 v 1.55 H 5.476 Z m 0,1.948 H 7.158 V 7.809 H 5.517 A 0.04,0.04 0 0 1 5.477,7.767 Z"
     id="path2"
     inkscape:connector-curvature="0"
     style="fill:#bde6fb;fill-opacity:1" />
</svg>
