<?xml version="1.0" encoding="UTF-8" standalone="no"?>
<svg
   width="47.546486"
   height="47.546486"
   viewBox="0 0 12.580008 12.580008"
   version="1.1"
   id="svg4"
   sodipodi:docname="vmware-netcfg.svg"
   inkscape:version="0.92.4 (5da689c313, 2019-01-14)"
   xmlns:inkscape="http://www.inkscape.org/namespaces/inkscape"
   xmlns:sodipodi="http://sodipodi.sourceforge.net/DTD/sodipodi-0.dtd"
   xmlns="http://www.w3.org/2000/svg"
   xmlns:svg="http://www.w3.org/2000/svg"
   xmlns:rdf="http://www.w3.org/1999/02/22-rdf-syntax-ns#"
   xmlns:cc="http://creativecommons.org/ns#"
   xmlns:dc="http://purl.org/dc/elements/1.1/">
  <metadata
     id="metadata10">
    <rdf:RDF>
      <cc:Work
         rdf:about="">
        <dc:format>image/svg+xml</dc:format>
        <dc:type
           rdf:resource="http://purl.org/dc/dcmitype/StillImage" />
        <dc:title />
      </cc:Work>
    </rdf:RDF>
  </metadata>
  <defs
     id="defs8" />
  <sodipodi:namedview
     pagecolor="#ffffff"
     bordercolor="#666666"
     borderopacity="1"
     objecttolerance="10"
     gridtolerance="10"
     guidetolerance="10"
     inkscape:pageopacity="0"
     inkscape:pageshadow="2"
     inkscape:window-width="1087"
     inkscape:window-height="480"
     id="namedview6"
     showgrid="false"
     inkscape:zoom="4.9166667"
     inkscape:cx="2.1355932"
     inkscape:cy="24"
     inkscape:window-x="0"
     inkscape:window-y="25"
     inkscape:window-maximized="0"
     inkscape:current-layer="svg4"
     inkscape:showpageshadow="0"
     inkscape:pagecheckerboard="0"
     inkscape:deskcolor="#d1d1d1" />
  <path
     d="M 6.2900079,0 A 6.29,6.29 0 0 0 7.9490244e-6,6.3 6.29,6.29 0 0 0 6.3000079,12.58 6.29,6.29 0 0 0 12.580008,6.29 6.29,6.29 0 0 0 6.2900079,0 Z m -0.02,0.93 0.01,0.01 A 5.4,5.4 0 0 1 11.680008,6.34 5.4,5.4 0 0 1 6.2800079,11.75 5.4,5.4 0 0 1 0.87000795,6.35 5.4,5.4 0 0 1 6.2700079,0.93 Z m -1.83,1.3 a 0.49,0.49 0 0 0 -0.5,0.48 v 3.73 c 0,0.27 0.23,0.49 0.5,0.49 h 1.39 v 0.6 a 0.94,0.94 0 0 0 -0.42,0.51 h -1.51 a 0.94,0.94 0 0 0 -0.9,-0.64 0.94,0.94 0 0 0 -0.93,0.94 0.94,0.94 0 0 0 0.94,0.94 0.94,0.94 0 0 0 0.87,-0.6 h 1.55 a 0.94,0.94 0 0 0 0.87,0.6 0.94,0.94 0 0 0 0.87,-0.6 h 1.55 a 0.94,0.94 0 0 0 0.87,0.6 0.94,0.94 0 0 0 0.9400001,-0.94 0.94,0.94 0 0 0 -0.9400001,-0.94 0.94,0.94 0 0 0 -0.89,0.64 h -1.5 a 0.94,0.94 0 0 0 -0.43,-0.52 V 6.93 h 1.4 c 0.26,0 0.48,-0.21 0.48,-0.48 V 2.71 c 0,-0.27 -0.22,-0.49 -0.49,-0.49 h -3.71 z m 0.45,0.93 h 2.82 v 2.83 h -2.82 z"
     id="path2"
     inkscape:connector-curvature="0"
     style="fill:#bde6fb;fill-opacity:1" />
</svg>
