<?xml version="1.0" encoding="UTF-8" standalone="no"?>
<svg
   width="47.546455"
   height="47.542679"
   viewBox="0 0 12.58 12.579"
   version="1.1"
   id="svg4"
   sodipodi:docname="vmware-server.svg"
   inkscape:version="0.92.4 (5da689c313, 2019-01-14)"
   xmlns:inkscape="http://www.inkscape.org/namespaces/inkscape"
   xmlns:sodipodi="http://sodipodi.sourceforge.net/DTD/sodipodi-0.dtd"
   xmlns="http://www.w3.org/2000/svg"
   xmlns:svg="http://www.w3.org/2000/svg"
   xmlns:rdf="http://www.w3.org/1999/02/22-rdf-syntax-ns#"
   xmlns:cc="http://creativecommons.org/ns#"
   xmlns:dc="http://purl.org/dc/elements/1.1/">
  <metadata
     id="metadata10">
    <rdf:RDF>
      <cc:Work
         rdf:about="">
        <dc:format>image/svg+xml</dc:format>
        <dc:type
           rdf:resource="http://purl.org/dc/dcmitype/StillImage" />
        <dc:title />
      </cc:Work>
    </rdf:RDF>
  </metadata>
  <defs
     id="defs8" />
  <sodipodi:namedview
     pagecolor="#ffffff"
     bordercolor="#666666"
     borderopacity="1"
     objecttolerance="10"
     gridtolerance="10"
     guidetolerance="10"
     inkscape:pageopacity="0"
     inkscape:pageshadow="2"
     inkscape:window-width="1087"
     inkscape:window-height="480"
     id="namedview6"
     showgrid="false"
     inkscape:zoom="4.9166667"
     inkscape:cx="2.1355932"
     inkscape:cy="24"
     inkscape:window-x="0"
     inkscape:window-y="25"
     inkscape:window-maximized="0"
     inkscape:current-layer="svg4"
     inkscape:showpageshadow="0"
     inkscape:pagecheckerboard="0"
     inkscape:deskcolor="#d1d1d1" />
  <path
     d="M 6.29,9.9999565e-4 A 6.29,6.29 0 0 0 0,6.291 6.29,6.29 0 0 0 6.29,12.579 6.29,6.29 0 0 0 12.58,6.29 6.29,6.29 0 0 0 6.29,0 Z M 6.272,0.937 A 5.407,5.407 0 0 1 11.679,6.344 5.407,5.407 0 0 1 6.272,11.751 5.407,5.407 0 0 1 0.866,6.344 5.407,5.407 0 0 1 6.272,0.938 Z M 3.359,2.478 A 0.862,0.862 0 0 0 2.496,3.343 v 5.872 c 0,0.479 0.385,0.864 0.863,0.864 H 9.233 A 0.861,0.861 0 0 0 10.096,9.215 V 3.342 A 0.862,0.862 0 0 0 9.233,2.478 Z m 3.406,0.519 h 2.676 c 0.12,0 0.137,0.009 0.137,0.12 v 2.71 c 0,0.115 0,0.106 -0.151,0.106 H 6.792 c -0.153,0 -0.15,0.005 -0.15,-0.156 v -2.64 c 0,-0.14 0.003,-0.14 0.123,-0.14 z m -3.319,0 c 0.684,0 1.409,0.01 2.073,0 a 0.432,0.432 0 1 1 0,0.864 H 4.504 L 5.367,4.725 H 6.12 V 5.588 H 5.95 c -0.345,0 -0.345,0 -0.345,0.346 V 6.111 H 4.742 V 5.318 L 3.878,4.454 v 1.048 a 0.432,0.432 0 0 1 -0.864,0 c 0,-0.684 0.01,-1.409 0,-2.073 0,-0.238 0.194,-0.431 0.432,-0.431 z m 3.887,0.69 V 5.243 H 8.886 V 3.687 Z M 6.984,6.447 H 7.848 V 7.24 L 8.711,8.104 V 7.056 a 0.432,0.432 0 0 1 0.864,0 c 0,0.684 -0.01,1.408 0,2.072 A 0.432,0.432 0 0 1 9.143,9.56 c -0.684,0 -1.409,-0.01 -2.073,0 a 0.432,0.432 0 0 1 0,-0.864 H 8.086 L 7.222,7.833 H 6.469 V 6.968 h 0.17 c 0.345,0 0.345,0 0.345,-0.345 V 6.445 Z M 3.138,6.624 h 2.675 c 0.12,0 0.137,0.01 0.137,0.121 v 2.71 c 0,0.115 0,0.106 -0.15,0.106 H 3.163 c -0.153,0 -0.15,0.005 -0.15,-0.157 v -2.64 c 0,-0.14 0.004,-0.14 0.124,-0.14 z M 3.705,7.315 V 8.87 H 5.259 V 7.314 H 3.706 Z"
     id="path2"
     inkscape:connector-curvature="0"
     style="fill:#bde6fb;fill-opacity:1" />
</svg>
