<?xml version="1.0" encoding="UTF-8" standalone="no"?>
<svg
   width="47.542679"
   height="47.546455"
   viewBox="0 0 12.579 12.58"
   version="1.1"
   id="svg6"
   sodipodi:docname="volafox.svg"
   inkscape:version="0.92.5 (2060ec1f9f, 2020-04-08)"
   xmlns:inkscape="http://www.inkscape.org/namespaces/inkscape"
   xmlns:sodipodi="http://sodipodi.sourceforge.net/DTD/sodipodi-0.dtd"
   xmlns="http://www.w3.org/2000/svg"
   xmlns:svg="http://www.w3.org/2000/svg"
   xmlns:rdf="http://www.w3.org/1999/02/22-rdf-syntax-ns#"
   xmlns:cc="http://creativecommons.org/ns#"
   xmlns:dc="http://purl.org/dc/elements/1.1/">
  <metadata
     id="metadata12">
    <rdf:RDF>
      <cc:Work
         rdf:about="">
        <dc:format>image/svg+xml</dc:format>
        <dc:type
           rdf:resource="http://purl.org/dc/dcmitype/StillImage" />
        <dc:title />
      </cc:Work>
    </rdf:RDF>
  </metadata>
  <defs
     id="defs10" />
  <sodipodi:namedview
     pagecolor="#ffffff"
     bordercolor="#666666"
     borderopacity="1"
     objecttolerance="10"
     gridtolerance="10"
     guidetolerance="10"
     inkscape:pageopacity="0"
     inkscape:pageshadow="2"
     inkscape:window-width="1085"
     inkscape:window-height="480"
     id="namedview8"
     showgrid="false"
     inkscape:zoom="4.9166667"
     inkscape:cx="2.1355932"
     inkscape:cy="24"
     inkscape:window-x="0"
     inkscape:window-y="25"
     inkscape:window-maximized="0"
     inkscape:current-layer="svg6"
     inkscape:showpageshadow="0"
     inkscape:pagecheckerboard="0"
     inkscape:deskcolor="#d1d1d1" />
  <path
     d="M 6.285,0 A 6.295,6.295 0 0 0 0,6.285 6.295,6.295 0 0 0 6.285,12.58 6.295,6.295 0 0 0 12.579,6.285 6.295,6.295 0 0 0 6.285,0 Z M 6.274,0.94 a 5.408,5.408 0 0 1 5.397,5.387 5.407,5.407 0 0 1 -10.814,0 C 0.857,3.34 3.287,0.94 6.274,0.94 Z M 2.068,5.165 a 4.32,4.32 0 0 0 0.525,3.46 4.32,4.32 0 0 0 3.84,2.006 c 0.042,-0.02 0.109,-0.034 0.138,-0.053 a 3.69,3.69 0 0 1 -0.369,0 A 3.69,3.69 0 0 1 5.835,10.542 3.69,3.69 0 0 1 5.473,10.47 3.69,3.69 0 0 1 5.12,10.361 3.69,3.69 0 0 1 4.78,10.218 3.69,3.69 0 0 1 4.456,10.041 3.69,3.69 0 0 1 4.151,9.833 3.69,3.69 0 0 1 3.925,9.647 c 0.455,0.202 0.822,0.305 1.132,0.35 0.06,0.01 0.096,-0.003 0.152,0.002 A 3.83,3.83 0 0 1 2.992,8.371 3.83,3.83 0 0 1 2.501,5.391 1.863,1.863 0 0 1 2.48,5.34 1.863,1.863 0 0 1 2.444,5.225 2.217,2.217 0 0 0 2.068,5.165 Z m 8.34,0.476 c -0.039,0.226 0.043,0.495 0.106,0.847 0.015,0.08 0.018,0.181 0.029,0.27 a 4.32,4.32 0 0 0 0.005,-0.81 C 10.498,5.833 10.446,5.702 10.408,5.641 Z m -0.252,2.028 -0.002,0.002 v 0.005 c 10e-4,-0.003 0,-0.004 0.002,-0.007 z M 10.154,7.676 C 9.897,8.136 9.845,8.561 9.674,8.889 9.614,9.003 9.431,9.203 9.303,9.374 a 4.32,4.32 0 0 0 0.845,-1.207 c 0.01,-0.16 0.018,-0.322 0.006,-0.491 z M 8.75,9.433 C 8.614,9.618 8.361,9.858 8.042,10.093 7.831,10.248 7.564,10.373 7.308,10.504 A 4.32,4.32 0 0 0 8.592,9.947 C 8.615,9.909 8.652,9.878 8.67,9.837 A 0.94,0.94 0 0 0 8.75,9.433 Z"
     id="path2"
     inkscape:connector-curvature="0"
     style="fill:#bde6fb;fill-opacity:1" />
  <path
     d="M 10.156,7.67 C 9.896,8.132 9.846,8.56 9.675,8.89 9.444,9.324 8.673,10.362 7.668,10.598 8.266,10.404 8.761,10.023 8.75,9.433 8.478,9.803 7.739,10.396 6.932,10.715 6.41,10.921 5.806,10.896 5.556,10.79 5.799,10.88 6.359,10.718 6.571,10.579 A 3.69,3.69 0 0 1 3.925,9.649 c 0.91,0.403 1.468,0.412 1.925,0.355 C 5.539,9.94 5.133,9.747 4.979,9.541 5.426,9.711 6.492,9.794 7.537,9.041 A 2.593,2.593 0 0 1 6.774,9.047 C 7.913,8.48 8.074,8.232 8.313,7.982 8.173,8.049 8.046,8.065 7.968,8.077 c 0,0 0.326,-0.228 0.66,-0.747 C 8.883,6.934 8.883,6.695 8.825,6.629 8.811,6.606 8.794,6.605 8.794,6.605 8.75,6.639 8.705,6.677 8.667,6.686 c 0,0 -0.024,-0.086 0.015,-0.173 A 0.509,0.509 0 0 0 8.707,6.396 L 8.669,6.483 C 8.674,6.443 8.68,6.398 8.693,6.349 8.737,6.173 8.796,5.999 8.727,5.971 8.744,6.027 8.71,6.101 8.658,6.148 8.661,6.089 8.671,5.932 8.555,5.673 8.505,5.567 8.317,5.106 7.692,4.733 7.734,4.82 7.782,4.959 7.892,5.013 7.738,4.987 7.615,4.752 7.466,4.627 7.333,4.517 7.023,4.461 6.861,4.418 7.234,4.776 7.446,5.272 7.437,5.645 7.426,6.02 7.392,6.262 7.513,6.382 7.633,6.5 7.555,6.682 7.36,6.653 A 0.863,0.863 0 0 1 6.694,6.056 C 6.587,5.741 6.657,5.366 6.258,5.081 L 6.181,5.03 C 6.153,5.016 6.246,5.102 6.217,5.086 A 2.345,2.345 0 0 0 5.951,4.916 C 5.942,4.913 5.994,4.964 5.989,4.961 5.539,4.735 5.383,4.869 5.276,4.938 A 0.364,0.364 0 0 0 5.118,5.25 c 0.05,0.04 0.09,0.061 0.09,0.061 0,0 -0.052,0.002 -0.081,-0.004 L 5.131,5.32 c 0.042,0.036 0.14,0.108 0.195,0.142 0.077,0.045 0.124,0.046 0.124,0.046 0,0 0,0.019 -0.046,0.026 A 0.28,0.28 0 0 1 5.249,5.499 L 5.251,5.501 A 0.99,0.99 0 0 0 5.376,5.578 C 5.326,5.628 5.282,5.691 5.167,5.743 5.083,5.778 5.064,5.793 5.027,5.793 4.992,5.789 4.996,5.818 5.031,5.83 A 0.397,0.397 0 0 1 4.962,5.84 C 4.882,5.92 4.946,6.648 4.942,6.71 A 0.621,0.621 0 0 1 4.858,6.976 0.471,0.471 0 0 1 4.669,7.153 C 4.599,7.195 4.529,7.18 4.159,6.593 A 0.472,0.472 0 0 0 3.771,6.383 L 3.694,6.386 C 3.662,6.385 3.635,6.392 3.611,6.395 A 1.487,1.487 0 0 0 3.235,7.24 C 3.233,7.26 3.208,7.182 3.205,7.202 3.202,7.226 3.215,7.346 3.218,7.37 3.219,7.4 3.109,7.298 3.062,7.18 3.016,7.06 3.014,7.032 3.009,6.96 3.001,6.997 3.011,7.09 3.002,7.072 A 1.378,1.378 0 0 1 2.952,6.592 L 2.916,6.614 C 2.911,6.542 2.928,6.349 2.983,6.267 L 2.937,6.293 C 2.947,6.233 2.965,6.171 2.988,6.109 L 2.991,6.108 A 1.863,1.863 0 0 1 2.444,5.226 C 2.364,5.196 2.241,5.146 1.922,5.143 1.903,5.143 1.948,5.113 1.926,5.115 A 1.244,1.244 0 0 0 1.45,5.263 c 0,0 -0.005,-0.129 0.15,-0.315 L 1.657,4.876 C 1.658,4.869 1.597,4.92 1.599,4.913 1.616,4.886 1.633,4.829 1.67,4.789 1.697,4.762 1.707,4.734 1.747,4.702 1.737,4.708 1.702,4.731 1.706,4.722 1.76,4.65 1.826,4.57 1.904,4.492 A 2.58,2.58 0 0 1 2.478,4.063 C 2.5,4.049 2.523,4.041 2.54,4.027 a 2.064,2.064 0 0 1 0.178,-0.36 c 0.147,-0.25 0.406,-0.58 0.869,-1.006 0,0 -0.156,0.188 -0.3,0.453 C 3.51,2.845 3.897,2.494 4.579,2.116 A 4.606,4.606 0 0 0 4.214,2.447 3.983,3.983 0 0 1 6.062,1.923 C 6.667,1.896 8.129,1.917 9.606,3.377 A 0.968,0.968 0 0 0 9.25,3.175 c 0,0 0.614,0.506 0.894,0.982 C 10.024,4.03 9.937,4.045 9.937,4.045 c 0,0 1.154,1.593 0.74,2.663 0.101,-0.342 -0.151,-0.878 -0.27,-1.066 -0.077,0.452 0.33,1.077 0.098,2.19 -0.127,0.61 -0.382,0.83 -0.6179997,1.042 C 10.19,8.591 10.187,8.131 10.154,7.672 Z"
     id="path4"
     inkscape:connector-curvature="0"
     style="opacity:0.75;fill:#d45500" />
</svg>
