<?xml version="1.0" encoding="UTF-8" standalone="no"?>
<svg
   width="47.542679"
   height="47.02866"
   viewBox="0 0 12.579 12.443"
   version="1.1"
   id="svg4"
   sodipodi:docname="volatility.svg"
   inkscape:version="0.92.5 (2060ec1f9f, 2020-04-08)"
   xmlns:inkscape="http://www.inkscape.org/namespaces/inkscape"
   xmlns:sodipodi="http://sodipodi.sourceforge.net/DTD/sodipodi-0.dtd"
   xmlns="http://www.w3.org/2000/svg"
   xmlns:svg="http://www.w3.org/2000/svg"
   xmlns:rdf="http://www.w3.org/1999/02/22-rdf-syntax-ns#"
   xmlns:cc="http://creativecommons.org/ns#"
   xmlns:dc="http://purl.org/dc/elements/1.1/">
  <metadata
     id="metadata10">
    <rdf:RDF>
      <cc:Work
         rdf:about="">
        <dc:format>image/svg+xml</dc:format>
        <dc:type
           rdf:resource="http://purl.org/dc/dcmitype/StillImage" />
        <dc:title />
      </cc:Work>
    </rdf:RDF>
  </metadata>
  <defs
     id="defs8" />
  <sodipodi:namedview
     pagecolor="#ffffff"
     bordercolor="#666666"
     borderopacity="1"
     objecttolerance="10"
     gridtolerance="10"
     guidetolerance="10"
     inkscape:pageopacity="0"
     inkscape:pageshadow="2"
     inkscape:window-width="1085"
     inkscape:window-height="480"
     id="namedview6"
     showgrid="false"
     inkscape:zoom="4.9166667"
     inkscape:cx="2.1355932"
     inkscape:cy="24"
     inkscape:window-x="0"
     inkscape:window-y="25"
     inkscape:window-maximized="0"
     inkscape:current-layer="svg4"
     inkscape:showpageshadow="0"
     inkscape:pagecheckerboard="0"
     inkscape:deskcolor="#d1d1d1" />
  <path
     d="M 4.996,1.7404556e-8 A 6.295,6.295 0 0 0 0,6.148 6.295,6.295 0 0 0 6.285,12.443 6.295,6.295 0 0 0 12.579,6.148 6.295,6.295 0 0 0 7.594,0.00800002 v 0.968 A 5.408,5.408 0 0 1 11.671,6.19 5.407,5.407 0 0 1 0.857,6.19 c 0,-2.545 1.77,-4.65 4.14,-5.21999998 V 1.7404557e-8 Z M 5.766,0.05300002 V 2.963 H 6.824 V 0.05300002 Z M 8.498,2.245 C 8.469,2.221 8.397,2.428 7.29,5.456 L 6.287,8.202 5.682,6.665 C 5.349,5.819 5.062,5.111 5.042,5.091 4.996,5.041 2.108,5 2.127,5.048 2.135,5.068 2.311,5.224 2.518,5.393 l 0.377,0.308 0.766,0.03 c 0.42,0.015 0.787,0.05 0.814,0.078 0.04,0.04 1.211,3 1.696,4.285 C 6.25,10.301 6.3,10.373 6.329,10.319 6.353,10.276 6.833,8.888 7.396,7.235 A 221,221 0 0 1 8.456,4.16 c 0.02,-0.037 0.219,0.342 0.44,0.843 l 0.402,0.91 0.387,0.017 c 0.37,0.016 0.39,0.01 0.468,-0.136 0.044,-0.084 0.191,-0.223 0.327,-0.31 L 10.727,5.328 9.573,5.296 9.06,3.797 C 8.778,2.973 8.53,2.282 8.51,2.262 8.506,2.257 8.503,2.249 8.498,2.245 Z"
     id="path2"
     inkscape:connector-curvature="0"
     style="fill:#bde6fb;fill-opacity:1" />
</svg>
