<?xml version="1.0" encoding="UTF-8" standalone="no"?>
<svg
   width="47.538898"
   height="47.538898"
   viewBox="0 0 12.578 12.578"
   version="1.1"
   id="svg8"
   sodipodi:docname="vulnhub.svg"
   inkscape:version="0.92.5 (2060ec1f9f, 2020-04-08)"
   xmlns:inkscape="http://www.inkscape.org/namespaces/inkscape"
   xmlns:sodipodi="http://sodipodi.sourceforge.net/DTD/sodipodi-0.dtd"
   xmlns="http://www.w3.org/2000/svg"
   xmlns:svg="http://www.w3.org/2000/svg"
   xmlns:rdf="http://www.w3.org/1999/02/22-rdf-syntax-ns#"
   xmlns:cc="http://creativecommons.org/ns#"
   xmlns:dc="http://purl.org/dc/elements/1.1/">
  <metadata
     id="metadata14">
    <rdf:RDF>
      <cc:Work
         rdf:about="">
        <dc:format>image/svg+xml</dc:format>
        <dc:type
           rdf:resource="http://purl.org/dc/dcmitype/StillImage" />
        <dc:title />
      </cc:Work>
    </rdf:RDF>
  </metadata>
  <defs
     id="defs12" />
  <sodipodi:namedview
     pagecolor="#ffffff"
     bordercolor="#666666"
     borderopacity="1"
     objecttolerance="10"
     gridtolerance="10"
     guidetolerance="10"
     inkscape:pageopacity="0"
     inkscape:pageshadow="2"
     inkscape:window-width="1085"
     inkscape:window-height="480"
     id="namedview10"
     showgrid="false"
     inkscape:zoom="4.9166667"
     inkscape:cx="2.1355932"
     inkscape:cy="24"
     inkscape:window-x="0"
     inkscape:window-y="25"
     inkscape:window-maximized="0"
     inkscape:current-layer="svg8"
     inkscape:showpageshadow="0"
     inkscape:pagecheckerboard="0"
     inkscape:deskcolor="#d1d1d1" />
  <path
     d="M 6.289,0 A 6.29,6.29 0 0 0 0,6.289 6.29,6.29 0 0 0 6.289,12.578 6.29,6.29 0 0 0 12.578,6.289 6.29,6.29 0 0 0 6.289,0 Z M 6.271,0.936 A 5.407,5.407 0 0 1 11.678,6.343 5.407,5.407 0 0 1 6.271,11.75 5.407,5.407 0 0 1 0.864,6.343 5.407,5.407 0 0 1 6.271,0.936 Z m 0.001,0.619 a 0.62,0.62 0 0 0 -0.365,0.13 l -4.231,3.45 c -0.2,0.163 -0.2,0.418 0.002,0.566 L 5.939,8.826 C 6.142,8.974 6.471,8.961 6.671,8.797 L 10.903,5.349 C 11.103,5.186 11.102,4.93 10.9,4.782 L 6.639,1.659 A 0.585,0.585 0 0 0 6.272,1.556 Z m 0.003,0.543 a 0.5,0.5 0 0 1 0.313,0.087 l 3.633,2.665 c 0.172,0.126 0.174,0.344 0.003,0.483 L 6.614,8.274 A 0.54,0.54 0 0 1 5.99,8.299 L 2.356,5.634 C 2.184,5.507 2.183,5.29 2.354,5.151 L 5.964,2.209 A 0.528,0.528 0 0 1 6.275,2.098 Z M 6.272,2.533 A 0.62,0.62 0 0 0 5.907,2.663 L 2.483,5.456 2.49,5.462 2.85,5.726 5.963,3.188 A 0.54,0.54 0 0 1 6.588,3.164 L 9.721,5.462 10.081,5.169 10.086,5.164 6.639,2.636 A 0.585,0.585 0 0 0 6.272,2.533 Z m 0,1.086 A 0.62,0.62 0 0 0 5.907,3.751 L 3.184,5.971 3.551,6.239 5.963,4.274 A 0.54,0.54 0 0 1 6.587,4.249 L 9.019,6.033 9.383,5.736 6.639,3.723 A 0.585,0.585 0 0 0 6.272,3.619 Z m 4.55,2.113 -0.472,0.384 A 0.326,0.326 0 0 1 10.223,6.341 L 10.126,6.42 v 0.568 l 0.776,-0.632 c 0.2,-0.163 0.2,-0.418 -0.003,-0.566 z M 1.764,6.07 1.676,6.142 c -0.2,0.163 -0.2,0.418 0.002,0.567 L 2.411,7.246 V 6.681 L 2.356,6.641 A 0.295,0.295 0 0 1 2.226,6.41 Z M 9.69,6.776 9.101,7.255 V 7.824 L 9.69,7.344 Z M 10.822,6.819 10.35,7.203 A 0.325,0.325 0 0 1 10.223,7.427 L 9.102,8.342 V 8.91 l 1.8,-1.467 c 0.2,-0.163 0.2,-0.419 -0.003,-0.567 z M 2.848,7.002 v 0.564 l 0.518,0.38 V 7.381 L 2.848,7.001 Z M 1.764,7.157 1.676,7.228 c -0.2,0.164 -0.2,0.42 0.002,0.567 L 5.939,10.92 A 0.632,0.632 0 0 0 6.671,10.892 L 7.054,10.58 V 10.01 L 6.616,10.369 A 0.54,0.54 0 0 1 5.991,10.393 L 2.356,7.728 A 0.296,0.296 0 0 1 2.226,7.496 L 1.764,7.156 Z M 3.802,7.701 V 8.266 L 4.32,8.646 V 8.081 Z m 0.955,0.7 v 0.565 l 0.518,0.38 V 8.781 Z M 7.053,8.924 6.615,9.282 A 0.54,0.54 0 0 1 5.99,9.306 L 5.71,9.101 V 9.666 L 5.939,9.833 A 0.632,0.632 0 0 0 6.67,9.805 L 7.053,9.493 Z"
     id="path2"
     inkscape:connector-curvature="0"
     style="fill:#bde6fb;fill-opacity:1" />
  <path
     d="m 5.972,6.208 c -0.095,-0.02 -0.17,0.03 -0.16,0.155 l 0.164,1.176 c 0.04,0.106 0.109,0.129 0.205,0.069 L 6.466,7.264 7.045,7.665 7.496,7.297 6.071,6.253 A 0.293,0.293 0 0 0 5.971,6.209 Z M 7.878,8.227 7.303,8.695 v 2.324 l 0.575,-0.468 z"
     id="path4"
     inkscape:connector-curvature="0"
     style="clip-rule:evenodd;opacity:0.75;fill:#367bf0;fill-rule:evenodd" />
  <path
     d="M 7.604,5.484 6.375,5.646 C 6.268,5.664 6.196,5.801 6.296,5.876 L 7.826,7.027 8.268,6.667 7.438,6.034 7.713,5.669 C 7.785,5.574 7.72,5.469 7.603,5.484 Z m 1.194,1.992 -0.576,0.47 v 3.071 l 0.576,-0.465 z"
     id="path6"
     inkscape:connector-curvature="0"
     style="clip-rule:evenodd;opacity:0.75;fill:#fd7d00;fill-rule:evenodd" />
</svg>
