<?xml version="1.0" encoding="UTF-8" standalone="no"?>
<svg
   width="47.376953"
   height="47.373047"
   viewBox="0 0 12.535152 12.534119"
   version="1.1"
   id="svg16"
   sodipodi:docname="vvave.svg"
   inkscape:version="0.92.5 (2060ec1f9f, 2020-04-08)"
   xmlns:inkscape="http://www.inkscape.org/namespaces/inkscape"
   xmlns:sodipodi="http://sodipodi.sourceforge.net/DTD/sodipodi-0.dtd"
   xmlns="http://www.w3.org/2000/svg"
   xmlns:svg="http://www.w3.org/2000/svg"
   xmlns:rdf="http://www.w3.org/1999/02/22-rdf-syntax-ns#"
   xmlns:cc="http://creativecommons.org/ns#"
   xmlns:dc="http://purl.org/dc/elements/1.1/">
  <metadata
     id="metadata22">
    <rdf:RDF>
      <cc:Work
         rdf:about="">
        <dc:format>image/svg+xml</dc:format>
        <dc:type
           rdf:resource="http://purl.org/dc/dcmitype/StillImage" />
        <dc:title />
      </cc:Work>
    </rdf:RDF>
  </metadata>
  <defs
     id="defs20" />
  <sodipodi:namedview
     pagecolor="#ffffff"
     bordercolor="#666666"
     borderopacity="1"
     objecttolerance="10"
     gridtolerance="10"
     guidetolerance="10"
     inkscape:pageopacity="0"
     inkscape:pageshadow="2"
     inkscape:window-width="1087"
     inkscape:window-height="480"
     id="namedview18"
     showgrid="false"
     inkscape:zoom="4.9166667"
     inkscape:cx="2.1355932"
     inkscape:cy="24"
     inkscape:window-x="0"
     inkscape:window-y="25"
     inkscape:window-maximized="0"
     inkscape:current-layer="svg16"
     inkscape:showpageshadow="0"
     inkscape:pagecheckerboard="0"
     inkscape:deskcolor="#d1d1d1" />
  <path
     style="fill:#bde6fb;fill-opacity:1;stroke-width:1"
     d="M 6.2678342,5.5986767e-8 A 6.2669999,6.2669999 0 0 0 0,6.2668008 6.2669999,6.2669999 0 0 0 6.2678342,12.534118 6.2669999,6.2669999 0 0 0 12.535153,6.2668008 6.2669999,6.2669999 0 0 0 6.2678342,5.5986767e-8 Z M 6.2502643,0.93224288 A 5.3879998,5.3879998 0 0 1 11.63805,6.3220948 5.3879998,5.3879998 0 0 1 6.2502643,11.708846 5.3879998,5.3879998 0 0 1 0.85989584,6.3210613 5.3879998,5.3879998 0 0 1 6.2502643,0.93224288 Z M 4.4219522,3.6266521 c -0.1465773,0 -0.2645833,0.118006 -0.2645833,0.2645833 v 4.7625 c 0,0.1465773 0.118006,0.2645833 0.2645833,0.2645833 h 0.5291667 c 0.1465773,0 0.2645833,-0.118006 0.2645833,-0.2645833 v -4.7625 c 0,-0.1465773 -0.118006,-0.2645833 -0.2645833,-0.2645833 z m 3.175,0 c -0.1465773,0 -0.2645833,0.118006 -0.2645833,0.2645833 v 4.7625 c 0,0.1465773 0.118006,0.2645833 0.2645833,0.2645833 h 0.5291667 c 0.1465773,0 0.2645833,-0.118006 0.2645833,-0.2645833 v -4.7625 c 0,-0.1465773 -0.118006,-0.2645833 -0.2645833,-0.2645833 z M 2.8344523,4.6849854 c -0.1465773,0 -0.2645834,0.118006 -0.2645834,0.2645833 v 2.38125 c 0,0.1465773 0.1180061,0.2645833 0.2645834,0.2645833 h 0.5291666 c 0.1465773,0 0.2645834,-0.118006 0.2645834,-0.2645833 v -2.38125 c 0,-0.1465773 -0.1180061,-0.2645833 -0.2645834,-0.2645833 z m 3.1749999,0 c -0.1465773,0 -0.2645833,0.118006 -0.2645833,0.2645833 v 4.7625 c 0,0.1465773 0.118006,0.2645835 0.2645833,0.2645835 h 0.5291667 c 0.1465773,0 0.2645833,-0.1180062 0.2645833,-0.2645835 v -4.7625 c 0,-0.1465773 -0.118006,-0.2645833 -0.2645833,-0.2645833 z m 3.175,0 c -0.1465773,0 -0.2645833,0.118006 -0.2645833,0.2645833 v 2.38125 c 0,0.1465773 0.118006,0.2645833 0.2645833,0.2645833 h 0.5291666 c 0.1465774,0 0.2645838,-0.118006 0.2645838,-0.2645833 v -2.38125 c 0,-0.1465773 -0.1180064,-0.2645833 -0.2645838,-0.2645833 z"
     id="path2"
     inkscape:connector-curvature="0" />
</svg>
