<?xml version="1.0" encoding="UTF-8" standalone="no"?>
<svg
   width="47.542679"
   height="47.546455"
   viewBox="0 0 12.579 12.58"
   version="1.1"
   id="svg4"
   sodipodi:docname="w3af.svg"
   inkscape:version="0.92.5 (2060ec1f9f, 2020-04-08)"
   xmlns:inkscape="http://www.inkscape.org/namespaces/inkscape"
   xmlns:sodipodi="http://sodipodi.sourceforge.net/DTD/sodipodi-0.dtd"
   xmlns="http://www.w3.org/2000/svg"
   xmlns:svg="http://www.w3.org/2000/svg"
   xmlns:rdf="http://www.w3.org/1999/02/22-rdf-syntax-ns#"
   xmlns:cc="http://creativecommons.org/ns#"
   xmlns:dc="http://purl.org/dc/elements/1.1/">
  <metadata
     id="metadata10">
    <rdf:RDF>
      <cc:Work
         rdf:about="">
        <dc:format>image/svg+xml</dc:format>
        <dc:type
           rdf:resource="http://purl.org/dc/dcmitype/StillImage" />
        <dc:title />
      </cc:Work>
    </rdf:RDF>
  </metadata>
  <defs
     id="defs8" />
  <sodipodi:namedview
     pagecolor="#ffffff"
     bordercolor="#666666"
     borderopacity="1"
     objecttolerance="10"
     gridtolerance="10"
     guidetolerance="10"
     inkscape:pageopacity="0"
     inkscape:pageshadow="2"
     inkscape:window-width="1085"
     inkscape:window-height="480"
     id="namedview6"
     showgrid="false"
     inkscape:zoom="4.9166667"
     inkscape:cx="2.1355932"
     inkscape:cy="24"
     inkscape:window-x="0"
     inkscape:window-y="25"
     inkscape:window-maximized="0"
     inkscape:current-layer="svg4"
     inkscape:showpageshadow="0"
     inkscape:pagecheckerboard="0"
     inkscape:deskcolor="#d1d1d1" />
  <path
     d="M 6.285,0 A 6.295,6.295 0 0 0 2.067,1.64 c 0.067,0.064 0.049,0.027 0.132,0.107 0.079,0.077 0.147,0.135 0.223,0.206 0.092,0.086 0.185,0.173 0.272,0.25 0.023,0.02 0.043,0.034 0.066,0.053 a 5.392,5.392 0 0 1 3.514,-1.316 5.408,5.408 0 0 1 5.397,5.387 5.407,5.407 0 0 1 -10.814,0 C 0.857,5.202 1.203,4.16 1.792,3.298 L 1.77,3.29 A 1.825,1.825 0 0 1 1.644,2.993 C 1.568,2.781 1.521,2.558 1.443,2.293 A 6.295,6.295 0 0 0 0,6.285 6.295,6.295 0 0 0 6.285,12.58 6.295,6.295 0 0 0 12.579,6.285 6.295,6.295 0 0 0 6.285,0 Z M 6.317,1.76 A 4.504,4.504 0 0 0 3.494,2.752 4.188,4.188 0 0 1 6.017,1.902 4.188,4.188 0 0 1 8.205,2.524 4.209,4.209 0 0 1 10.529,6.289 4.206,4.206 0 0 1 8.674,9.782 C 8.528,9.864 8.38,9.942 8.222,10.007 7.463,10.315 6.332,10.454 6.004,10.279 5.568,10.048 5.623,9.524 6.139,8.976 6.351,8.752 6.289,8.683 6,8.821 5.39,9.111 4.227,8.757 3.443,8.045 3.248,7.867 3.083,7.745 3.046,7.746 3.04,7.747 3.037,7.749 3.037,7.754 c 0,0.158 1.034,1.083 1.49,1.332 0.518,0.285 0.686,0.44 0.63,0.585 C 5.092,9.842 4.602,9.796 4.168,9.577 3.794,9.389 3.078,8.752 2.738,8.304 2.633,8.167 2.561,8.101 2.515,8.096 2.474,8.091 2.453,8.136 2.453,8.236 c 0,0.264 0.254,0.795 0.514,1.093 0.011,0.012 0.021,0.03 0.032,0.041 0.016,0.017 0.033,0.032 0.05,0.048 0.072,0.075 0.145,0.148 0.224,0.217 0.671,0.59 1.555,0.978 2.588,1.134 0.323,0.048 1.182,-0.008 1.585,-0.098 0.02,-0.005 0.053,-0.008 0.071,-0.013 0.036,-0.01 0.07,-0.023 0.105,-0.033 l 0.079,-0.024 c 0.06,-0.02 0.122,-0.04 0.182,-0.062 0.003,-10e-4 0.005,0 0.007,-0.003 h 0.004 a 4.495,4.495 0 0 0 1.303,-0.751 4.52,4.52 0 0 0 1.65,-3.496 c 0,-2.5 -2.03,-4.529 -4.53,-4.529 z M 2.171,2.43 A 0.118,0.118 0 0 0 2.109,2.444 C 2.004,2.5 1.992,2.554 2.03,2.809 2.065,3.043 2.253,3.672 2.387,4.046 2.44,4.195 2.487,4.311 2.509,4.334 2.536,4.361 2.424,4.522 2.261,4.691 A 1.856,1.856 0 0 0 1.938,5.151 C 1.853,5.322 1.804,5.494 1.804,5.639 c 0,0.05 0.008,0.078 0.022,0.09 C 1.866,5.76 1.964,5.645 2.15,5.353 2.174,5.315 2.214,5.273 2.244,5.233 2.39,5.036 2.584,4.823 2.751,4.697 2.944,4.551 3.102,4.421 3.102,4.409 A 2.3,2.3 0 0 0 2.935,4.141 C 2.901,4.091 2.862,4.001 2.823,3.935 A 5.365,5.365 0 0 1 2.659,3.629 C 2.512,3.333 2.389,3.049 2.406,2.996 2.419,2.959 2.527,3.072 2.647,3.249 2.684,3.304 2.745,3.377 2.795,3.446 2.863,3.539 2.922,3.619 2.992,3.709 3.039,3.769 3.084,3.835 3.122,3.882 3.425,4.249 3.415,4.293 2.895,4.85 2.582,5.185 2.532,5.331 2.737,5.314 2.832,5.306 2.829,5.33 2.714,5.516 2.556,5.771 2.542,6.005 2.684,6.005 c 0.077,0 0.09,0.036 0.055,0.146 -0.09,0.27 -0.067,0.406 0.069,0.406 0.095,0 0.19,0.128 0.37,0.502 0.276,0.57 0.7,1.034 1.11,1.217 0.317,0.14 0.823,0.158 1.152,0.04 C 5.768,8.196 5.725,8.073 5.324,7.983 4.979,7.905 4.812,7.823 4.999,7.823 A 0.278,0.278 0 0 0 5.179,7.726 0.302,0.302 0 0 1 5.383,7.628 C 5.538,7.628 5.536,7.556 5.375,7.255 5.303,7.122 5.245,6.976 5.245,6.931 5.245,6.768 5.115,6.854 4.989,7.101 4.78,7.51 4.579,7.533 4.092,7.205 3.306,6.675 3.201,5.619 3.896,5.229 4.068,5.133 4.076,5.137 4.582,5.617 4.966,5.981 5.146,6.212 5.304,6.541 5.42,6.781 5.544,6.979 5.577,6.979 A 0.645,0.645 0 0 0 5.796,6.876 c 0.092,-0.06 0.212,-0.085 0.29,-0.06 0.18,0.057 0.167,0.14 -0.028,0.19 a 0.42,0.42 0 0 0 -0.235,0.18 c -0.065,0.122 -0.053,0.16 0.086,0.275 0.178,0.148 0.31,0.473 0.31,0.761 0,0.243 0.1,0.235 0.231,-0.017 C 6.517,8.075 6.547,7.888 6.533,7.685 6.521,7.511 6.529,7.368 6.551,7.368 6.621,7.368 6.868,6.616 6.868,6.402 6.868,6.179 7.035,5.809 7.332,5.376 7.58,5.014 7.574,4.901 7.306,4.901 7.19,4.901 7.004,4.927 6.893,4.959 6.591,5.045 5.463,4.76 4.823,4.435 A 6.824,6.824 0 0 1 3.281,3.375 C 3.206,3.309 3.127,3.235 3.049,3.161 2.985,3.101 2.927,3.051 2.859,2.986 2.425,2.566 2.271,2.435 2.172,2.43 Z m 4.876,2.732 c 0.045,0 0.08,0.02 0.08,0.047 0,0.027 -0.066,0.132 -0.147,0.233 L 6.832,5.626 6.817,5.446 C 6.803,5.269 6.887,5.164 7.047,5.162 Z M 4.181,5.485 C 4.022,5.509 3.662,6.505 4.19,6.843 4.497,7.013 4.89,6.733 5.05,6.393 5.042,6.157 4.56,6.99 4.222,6.638 3.895,6.298 4.334,5.51 4.196,5.485 Z M 2.064,5.758 H 2.054 C 1.976,5.785 1.855,6.064 1.789,6.319 1.763,6.421 1.744,6.519 1.743,6.596 1.741,6.726 1.758,6.966 1.781,7.132 1.816,7.392 1.896,7.496 1.923,7.369 1.928,7.345 1.934,7.329 1.935,7.287 1.935,7.207 1.979,6.997 2.032,6.822 2.07,6.695 2.094,6.533 2.109,6.372 2.124,6.224 2.127,6.09 2.121,5.978 2.113,5.857 2.098,5.761 2.064,5.758 Z M 4.46,5.78 C 4.432,5.776 4.413,5.789 4.396,5.816 4.292,5.991 4.192,6.305 4.298,6.506 4.388,6.644 4.71,6.438 4.85,6.314 4.926,6.192 4.91,6.156 4.694,5.952 4.574,5.839 4.506,5.786 4.46,5.78 Z M 2.155,7.174 c -0.102,0 -0.15,0.243 -0.148,0.505 0.002,0.227 0.041,0.469 0.128,0.574 0.045,0.055 0.07,0.04 0.088,-0.038 A 2.26,2.26 0 0 0 2.264,7.882 C 2.281,7.672 2.276,7.562 2.271,7.453 2.265,7.325 2.248,7.223 2.205,7.196 2.19,7.186 2.175,7.174 2.155,7.174 Z M 5.801,7.46 A 0.061,0.061 0 0 0 5.759,7.47 C 5.73,7.487 5.761,7.596 5.828,7.711 5.895,7.826 5.97,8.03 5.994,8.163 6.062,8.533 6.143,8.393 6.083,8.011 6.037,7.724 5.903,7.475 5.801,7.461 Z"
     id="path2"
     inkscape:connector-curvature="0"
     style="fill:#bde6fb;fill-opacity:1" />
</svg>
