<?xml version="1.0" encoding="UTF-8" standalone="no"?>
<svg
   width="47.546455"
   height="47.546455"
   viewBox="0 0 12.58 12.58"
   version="1.1"
   id="svg4"
   sodipodi:docname="warmux.svg"
   inkscape:version="0.92.4 (5da689c313, 2019-01-14)"
   xmlns:inkscape="http://www.inkscape.org/namespaces/inkscape"
   xmlns:sodipodi="http://sodipodi.sourceforge.net/DTD/sodipodi-0.dtd"
   xmlns="http://www.w3.org/2000/svg"
   xmlns:svg="http://www.w3.org/2000/svg"
   xmlns:rdf="http://www.w3.org/1999/02/22-rdf-syntax-ns#"
   xmlns:cc="http://creativecommons.org/ns#"
   xmlns:dc="http://purl.org/dc/elements/1.1/">
  <metadata
     id="metadata10">
    <rdf:RDF>
      <cc:Work
         rdf:about="">
        <dc:format>image/svg+xml</dc:format>
        <dc:type
           rdf:resource="http://purl.org/dc/dcmitype/StillImage" />
        <dc:title />
      </cc:Work>
    </rdf:RDF>
  </metadata>
  <defs
     id="defs8" />
  <sodipodi:namedview
     pagecolor="#ffffff"
     bordercolor="#666666"
     borderopacity="1"
     objecttolerance="10"
     gridtolerance="10"
     guidetolerance="10"
     inkscape:pageopacity="0"
     inkscape:pageshadow="2"
     inkscape:window-width="862"
     inkscape:window-height="480"
     id="namedview6"
     showgrid="false"
     inkscape:zoom="4.9166667"
     inkscape:cx="2.1355932"
     inkscape:cy="24"
     inkscape:window-x="0"
     inkscape:window-y="25"
     inkscape:window-maximized="0"
     inkscape:current-layer="svg4"
     inkscape:showpageshadow="0"
     inkscape:pagecheckerboard="0"
     inkscape:deskcolor="#d1d1d1" />
  <path
     d="M 6.29,9.9999768e-4 A 6.29,6.29 0 0 0 0,6.291 6.29,6.29 0 0 0 6.29,12.58 6.29,6.29 0 0 0 12.58,6.29 6.29,6.29 0 0 0 6.29,0 Z M 6.272,0.938 A 5.407,5.407 0 0 1 11.679,6.345 5.407,5.407 0 0 1 6.272,11.752 5.407,5.407 0 0 1 0.866,6.345 5.407,5.407 0 0 1 6.272,0.939 Z m -0.45,1.51 C 5.744,2.447 5.673,2.45 5.612,2.455 5.032,2.507 4.275,3.024 3.634,3.807 3.014,4.565 2.835,5.17 3.1,5.615 3.398,6.117 3.742,6.403 4.223,6.547 4.635,6.67 4.758,6.744 5.11,7.085 5.679,7.635 5.875,7.697 7.07,7.701 7.576,7.702 8.184,7.681 8.422,7.656 8.775,7.617 8.924,7.572 9.215,7.413 9.987,6.991 10.111,6.703 9.884,5.876 A 16.029,16.029 0 0 1 9.627,4.665 C 9.556,4.256 9.467,3.859 9.429,3.781 9.259,3.438 8.708,3.107 7.76,2.777 7.24,2.597 6.363,2.452 5.821,2.447 Z M 5.484,4.199 c 0.46,0.02 0.564,0.422 0.561,0.767 0,0.487 -0.07,0.675 -0.322,0.86 C 5.536,5.966 5.077,5.994 4.94,5.876 4.796,5.751 4.732,5.519 4.732,5.124 4.732,4.53 5,4.199 5.484,4.199 Z m 2.332,0 a 0.82,0.82 0 0 1 0.38,0.107 C 8.346,4.381 8.514,4.503 8.57,4.576 8.704,4.75 8.705,5.142 8.572,5.579 8.374,6.238 7.978,6.504 7.432,6.342 7.223,6.279 6.976,5.984 6.932,5.742 6.859,5.35 7.18,4.521 7.482,4.318 A 0.61,0.61 0 0 1 7.816,4.199 Z M 3.978,6.825 C 3.794,6.825 3.598,6.885 3.41,7.01 3.18,7.163 2.73,7.694 2.611,7.955 2.385,8.449 2.761,9.213 3.323,9.404 3.521,9.471 3.524,9.471 3.703,9.384 3.917,9.282 4.022,9.144 4.391,8.474 4.641,8.023 4.707,7.854 4.725,7.624 4.745,7.364 4.732,7.318 4.588,7.132 A 0.762,0.762 0 0 0 3.978,6.825 Z m 1.821,1.314 c -0.425,0 -0.726,0.266 -0.923,0.814 -0.17,0.475 -0.19,0.878 -0.05,1.02 0.246,0.245 1.156,0.444 1.434,0.312 C 6.376,10.23 6.412,10.149 6.467,9.815 6.52,9.496 6.447,8.783 6.333,8.508 6.231,8.262 6.053,8.138 5.799,8.138 Z m 1.994,0 C 7.755,8.139 7.71,8.141 7.658,8.145 7.343,8.169 7.173,8.275 7.021,8.545 6.92,8.725 6.911,8.792 6.931,9.156 6.957,9.611 7.027,9.844 7.15,9.878 7.282,9.914 7.874,9.861 8.135,9.788 8.455,9.701 8.673,9.526 8.673,9.36 8.673,9.183 8.212,8.342 8.049,8.223 A 0.38,0.38 0 0 0 7.793,8.139 Z"
     id="path2"
     inkscape:connector-curvature="0"
     style="fill:#bde6fb;fill-opacity:1" />
</svg>
