<?xml version="1.0" encoding="UTF-8" standalone="no"?>
<svg
   width="47.508694"
   height="47.546455"
   viewBox="0 0 12.570009 12.58"
   version="1.1"
   id="svg8"
   sodipodi:docname="waterfox.svg"
   inkscape:version="0.92.4 (5da689c313, 2019-01-14)"
   xmlns:inkscape="http://www.inkscape.org/namespaces/inkscape"
   xmlns:sodipodi="http://sodipodi.sourceforge.net/DTD/sodipodi-0.dtd"
   xmlns="http://www.w3.org/2000/svg"
   xmlns:svg="http://www.w3.org/2000/svg"
   xmlns:rdf="http://www.w3.org/1999/02/22-rdf-syntax-ns#"
   xmlns:cc="http://creativecommons.org/ns#"
   xmlns:dc="http://purl.org/dc/elements/1.1/">
  <defs
     id="defs12" />
  <sodipodi:namedview
     pagecolor="#ffffff"
     bordercolor="#666666"
     borderopacity="1"
     objecttolerance="10"
     gridtolerance="10"
     guidetolerance="10"
     inkscape:pageopacity="0"
     inkscape:pageshadow="2"
     inkscape:window-width="1087"
     inkscape:window-height="480"
     id="namedview10"
     showgrid="false"
     inkscape:zoom="4.9166667"
     inkscape:cx="2.1355932"
     inkscape:cy="24"
     inkscape:window-x="0"
     inkscape:window-y="25"
     inkscape:window-maximized="0"
     inkscape:current-layer="svg8"
     inkscape:showpageshadow="0"
     inkscape:pagecheckerboard="0"
     inkscape:deskcolor="#d1d1d1" />
  <metadata
     id="metadata2">
    <rdf:RDF>
      <cc:Work>
        <dc:format>image/svg+xml</dc:format>
        <dc:type
           rdf:resource="http://purl.org/dc/dcmitype/StillImage" />
        <dc:title />
      </cc:Work>
    </rdf:RDF>
  </metadata>
  <path
     d="M 6.280008,0 A 6.29,6.29 0 0 0 7.9585612e-6,6.3 6.29,6.29 0 0 0 6.290008,12.58 a 6.29,6.29 0 0 0 6.28,-6.29 6.29,6.29 0 0 0 -6.29,-6.29 z m -0.01,0.94 a 5.4,5.4 0 0 1 5.4,5.4 5.4,5.4 0 0 1 -5.4,5.41 A 5.4,5.4 0 0 1 0.86000796,6.35 5.4,5.4 0 0 1 6.260008,0.93 Z"
     id="path4"
     inkscape:connector-curvature="0"
     style="fill:#bde6fb;fill-opacity:1" />
  <path
     d="m 6.790008,1.39 c -0.11,0 -0.32,0.02 -0.43,0.05 -0.36,0.1 -0.7,0.48 -0.82,0.8 l -0.05,0.1 a 5.05,5.05 0 0 0 -1.4,0.5 4.36,4.36 0 0 0 -2.25,3.19 4.23,4.23 0 0 0 1.26,3.56 4.56,4.56 0 0 0 5.12,0.88 4.33,4.33 0 0 0 2.55,-3.85 2.5,2.5 0 0 0 -0.4,-1.35 c -0.23,-0.39 -0.31,-0.57 -0.37,-0.8 a 1.88,1.88 0 0 1 -0.06,-0.57 2.4,2.4 0 0 0 -0.71,0.42 c -0.47,0.49 -0.82,1.09 -0.82,1.57 0,0.38 0.1,0.47 0.28,0.94 a 2.52,2.52 0 0 1 -0.6,2.81 c -0.1,0.1 -0.12,0.11 -0.13,0.1 0,0 0,-0.04 0.03,-0.1 0.36,-0.75 0.29,-1.66 -0.27,-2.3 -0.08,-0.1 -0.21,-0.29 -0.23,-0.29 l -0.02,0.02 a 1.77,1.7 0 0 1 0,0.08 1.77,1.7 0 0 1 -1.77,1.7 1.77,1.7 0 0 1 -1.76,-1.7 1.77,1.7 0 0 1 1.76,-1.7 1.77,1.7 0 0 1 0.07,0 l 0.03,-0.03 a 2.3,2.3 0 0 0 -1.2,-0.76 l -0.12,-0.04 c 0,-0.03 0.3,-0.12 0.63,-0.18 0.4,-0.08 0.66,-0.1 1.44,-0.1 l 0.72,-0.03 c 0.31,-0.03 0.67,-0.15 0.94,-0.32 0.27,-0.18 0.47,-0.27 0.63,-0.48 0.08,-0.11 0.26,-0.45 0.28,-0.51 0.01,-0.03 0.01,-0.03 -0.12,-0.03 -0.28,0 -0.59,-0.06 -0.85,-0.17 a 3.5,3.5 0 0 0 -1.02,-0.38 c -0.09,-0.02 -0.22,-0.07 -0.36,-0.09 -0.03,-0.27 -0.04,-0.66 0.09,-0.84 a 0.28,0.28 0 0 0 0.05,-0.1 l -0.12,-0.01 z"
     id="path6"
     inkscape:connector-curvature="0"
     style="opacity:0.8;fill:#2c89a0" />
</svg>
