<?xml version="1.0" encoding="UTF-8" standalone="no"?>
<svg
   width="47.538898"
   height="47.542679"
   viewBox="0 0 12.578 12.579"
   version="1.1"
   id="svg4"
   sodipodi:docname="wayland.svg"
   inkscape:version="0.92.4 (5da689c313, 2019-01-14)"
   xmlns:inkscape="http://www.inkscape.org/namespaces/inkscape"
   xmlns:sodipodi="http://sodipodi.sourceforge.net/DTD/sodipodi-0.dtd"
   xmlns="http://www.w3.org/2000/svg"
   xmlns:svg="http://www.w3.org/2000/svg"
   xmlns:rdf="http://www.w3.org/1999/02/22-rdf-syntax-ns#"
   xmlns:cc="http://creativecommons.org/ns#"
   xmlns:dc="http://purl.org/dc/elements/1.1/">
  <metadata
     id="metadata10">
    <rdf:RDF>
      <cc:Work
         rdf:about="">
        <dc:format>image/svg+xml</dc:format>
        <dc:type
           rdf:resource="http://purl.org/dc/dcmitype/StillImage" />
        <dc:title />
      </cc:Work>
    </rdf:RDF>
  </metadata>
  <defs
     id="defs8" />
  <sodipodi:namedview
     pagecolor="#ffffff"
     bordercolor="#666666"
     borderopacity="1"
     objecttolerance="10"
     gridtolerance="10"
     guidetolerance="10"
     inkscape:pageopacity="0"
     inkscape:pageshadow="2"
     inkscape:window-width="1087"
     inkscape:window-height="480"
     id="namedview6"
     showgrid="false"
     inkscape:zoom="4.9166667"
     inkscape:cx="2.1355932"
     inkscape:cy="24"
     inkscape:window-x="0"
     inkscape:window-y="25"
     inkscape:window-maximized="0"
     inkscape:current-layer="svg4"
     inkscape:showpageshadow="0"
     inkscape:pagecheckerboard="0"
     inkscape:deskcolor="#d1d1d1" />
  <path
     d="M 6.289,0.001 A 6.29,6.29 0 0 0 0,6.291 6.29,6.29 0 0 0 6.289,12.579 6.29,6.29 0 0 0 12.578,6.291 6.29,6.29 0 0 0 6.289,0 Z M 6.271,0.937 A 5.407,5.407 0 0 1 11.678,6.344 5.407,5.407 0 0 1 6.271,11.751 5.407,5.407 0 0 1 0.863,6.344 5.407,5.407 0 0 1 6.271,0.937 Z M 6.289,1.575 A 4.752,4.752 0 0 0 1.526,6.337 4.752,4.752 0 0 0 6.289,11.1 4.752,4.752 0 0 0 11.051,6.337 c 0,-1.348 -0.557,-2.56 -1.452,-3.425 L 9.474,3.977 H 9.522 L 9.626,3.895 H 9.654 V 3.919 C 9.511,4.024 9.373,4.31 9.239,4.778 9.188,5.18 9.102,5.551 8.982,5.893 A 3.39,3.39 0 0 0 8.823,6.866 l -0.2,0.587 c 0,0.05 0.075,0.098 0.228,0.148 -0.028,0.116 -0.07,0.174 -0.125,0.174 v 0.033 h 0.049 v 0.025 c 0,0.06 -0.08,0.09 -0.236,0.09 L 8.567,7.957 V 8.072 H 8.519 c 0.032,0.115 0.1,0.173 0.207,0.173 V 8.303 H 8.519 v 0.033 c 0.07,0 0.103,0.05 0.103,0.15 L 8.332,8.6 8.359,8.634 v 0.024 c 0,0.039 -0.034,0.058 -0.104,0.058 v 0.033 c 0.088,0 0.132,0.02 0.132,0.058 -0.125,0.05 -0.288,0.295 -0.491,0.735 -0.208,0.39 -0.388,0.586 -0.54,0.586 H 7.299 C 7.183,10.04 7.089,9.748 7.015,9.253 6.72,8.499 6.572,8.056 6.572,7.924 6.572,7.583 6.477,7.219 6.288,6.834 A 3.063,3.063 0 0 1 6.184,6.19 L 6.06,6.157 C 5.746,6.724 5.582,7.167 5.568,7.487 A 2.879,2.879 0 0 0 5.36,8.163 c 0.19,0.06 0.284,0.118 0.284,0.173 V 8.369 C 5.496,8.347 5.393,8.306 5.333,8.246 5.268,8.395 5.183,8.806 5.076,9.484 4.993,9.797 4.889,9.954 4.765,9.954 A 1.992,1.992 0 0 1 3.885,9.278 C 3.849,9.278 3.788,9.121 3.705,8.808 3.655,8.808 3.62,8.65 3.602,8.336 A 6.007,6.007 0 0 1 3.242,6.809 V 5.95 H 3.214 L 3.089,5.984 V 5.95 c 0,-0.038 0.042,-0.057 0.125,-0.057 L 3.186,5.398 V 5.009 L 2.986,3.771 V 3.243 c 0.087,-0.33 0.24,-0.495 0.457,-0.495 0,0 0.019,-0.003 0.082,0.082 L 3.443,2.805 C 3.78,3.245 3.978,3.617 4.038,3.92 h 0.235 v 0.057 h -0.18 v 0.067 c 0.07,0.253 0.12,0.38 0.152,0.38 H 4.301 L 4.425,4.39 4.453,4.423 4.481,4.39 4.509,4.423 V 4.448 A 0.485,0.485 0 0 0 4.322,4.721 H 4.301 V 4.778 H 4.35 c 0.064,0.92 0.184,1.615 0.36,2.089 l 0.103,0.082 h 0.055 c 0.07,0 0.215,-0.322 0.437,-0.965 A 4.97,4.97 0 0 0 5.616,5.216 L 5.588,5.126 C 5.731,4.911 5.879,4.803 6.032,4.803 H 6.08 c 0.097,0 0.166,0.06 0.208,0.182 0.13,0.181 0.233,0.454 0.312,0.817 l 0.388,0.859 c 0.05,0.06 0.075,0.129 0.075,0.206 0.143,0.324 0.273,0.54 0.388,0.644 h 0.083 c 0.097,0 0.226,-0.402 0.388,-1.205 0.028,0 0.104,-0.215 0.229,-0.644 V 5.629 L 7.714,5.571 7.61,5.604 H 7.48 V 5.538 L 7.742,5.513 H 8.254 C 8.453,4.803 8.635,4.253 8.802,3.862 8.857,3.058 8.933,2.657 9.03,2.657 L 9.205,2.573 A 4.742,4.742 0 0 0 6.288,1.575 Z M 6.704,3.218 H 6.78 V 3.243 C 6.78,3.281 6.755,3.3 6.704,3.3 L 6.677,3.333 V 3.366 L 6.601,3.333 V 3.276 Z M 6.317,3.54 v 0.033 c 0,0.044 -0.111,0.09 -0.333,0.14 V 3.655 L 6.137,3.573 6.164,3.597 H 6.185 Z M 5.569,3.837 V 3.862 C 5.472,3.95 5.315,4.029 5.098,4.101 V 4.043 c 0.037,0 0.056,-0.03 0.056,-0.09 z M 6.884,4.126 6.912,4.159 V 4.184 L 6.864,4.249 H 6.836 L 6.78,4.184 V 4.159 Z M 7.84,4.159 H 7.868 V 4.184 L 7.819,4.249 H 7.791 V 4.216 L 7.841,4.159 Z M 7.404,4.572 7.508,4.654 c -0.019,0.06 -0.07,0.09 -0.152,0.09 L 7.3,4.654 C 7.3,4.626 7.334,4.599 7.404,4.572 Z m 0.623,0.38 0.02,0.033 V 5.009 L 8.027,5.042 H 7.972 V 5.009 Z M 7.044,5.248 V 5.273 L 6.912,5.398 H 6.836 V 5.364 c 0,-0.05 0.07,-0.088 0.208,-0.116 z M 6.137,7.775 H 6.164 V 7.833 L 5.956,7.956 5.929,7.923 V 7.866 Z M 6.061,8.543 h 0.02 L 6.164,8.633 6.137,8.658 H 6.109 L 6.061,8.576 Z"
     id="path2"
     inkscape:connector-curvature="0"
     style="fill:#bde6fb;fill-opacity:1" />
</svg>
