<?xml version="1.0" encoding="UTF-8" standalone="no"?>
<svg
   width="48"
   height="48"
   viewBox="0 0 12.7 12.7"
   version="1.1"
   id="svg4"
   sodipodi:docname="web-browser.svg"
   inkscape:version="0.92.5 (2060ec1f9f, 2020-04-08)"
   xmlns:inkscape="http://www.inkscape.org/namespaces/inkscape"
   xmlns:sodipodi="http://sodipodi.sourceforge.net/DTD/sodipodi-0.dtd"
   xmlns="http://www.w3.org/2000/svg"
   xmlns:svg="http://www.w3.org/2000/svg">
  <sodipodi:namedview
     id="namedview1"
     pagecolor="#505050"
     bordercolor="#eeeeee"
     borderopacity="1"
     inkscape:showpageshadow="0"
     inkscape:pageopacity="0"
     inkscape:pagecheckerboard="0"
     inkscape:deskcolor="#d1d1d1" />
  <defs
     id="defs8">
    <style
       id="current-color-scheme"
       type="text/css">&#10;      .ColorScheme-Highlight {&#10;        color:#1e3f5a;&#10;      }&#10;  </style>
  </defs>
  <path
     class="ColorScheme-Highlight"
     style="fill:#bde6fb;fill-opacity:1;stroke-width:0.264583"
     d="M 6.3499999,0 C 2.8429918,0 0,2.8429918 0,6.3499999 5.162841e-4,7.4243744 0.27362039,8.4810525 0.79374999,9.4211303 v 0.1038696 h 0.063562 C 1.9904552,11.487664 4.0837122,12.697653 6.3499999,12.7 6.80361,12.698703 7.2557761,12.648813 7.6987547,12.551172 l -0.00465,-1.403532 c -0.1714402,0.242027 -0.3558513,0.474568 -0.5524208,0.696598 -0.174761,0.02594 -0.3506613,0.04353 -0.5270992,0.05271 V 9.5249999 H 7.688421 l -0.00259,-0.79375 H 6.6145833 V 6.8791666 h 1.065568 l -0.0031,-0.79375 H 6.6145833 V 4.2333333 H 8.9622436 C 9.1249454,4.8380742 9.2180515,5.4594751 9.239746,6.0854166 l 0.774113,0.79375 h 1.865519 c -0.05239,0.5178806 -0.177287,1.0258308 -0.371037,1.5089518 l 0.617017,0.5834269 C 12.50149,8.1486173 12.697412,7.2548088 12.7,6.3499999 12.7,2.8429918 9.857008,0 6.3499999,0 Z m 0.2645834,0.80718585 c 0.1673508,0.007781 0.3342639,0.0231278 0.5002278,0.045992 C 7.8007794,1.6087665 8.3400298,2.4859028 8.704895,3.4395833 H 6.6145833 Z m -0.79375,0.0170532 V 3.4395833 H 3.9878703 C 4.3514515,2.4866272 4.8891041,1.6098748 5.5733031,0.85421141 5.6555785,0.84237033 5.7381094,0.83237709 5.8208333,0.82423905 Z M 4.2958617,1.1901082 C 3.8061548,1.8816468 3.416623,2.6389636 3.1388264,3.4395833 H 1.6252238 C 2.2505744,2.4222504 3.1870478,1.6334601 4.2958617,1.1901082 Z m 4.1103433,0.0031 c 1.1087457,0.4423525 2.045548,1.2300273 2.671672,2.2463744 H 9.5451537 C 9.2727289,2.6410474 8.8893194,1.8848399 8.406205,1.1932082 Z M 1.2154297,4.2333333 H 2.9026651 C 2.7546969,4.8402734 2.6703533,5.4609864 2.6510009,6.0854166 H 0.80718585 C 0.83611939,5.4492215 0.97421191,4.8227358 1.2154297,4.2333333 Z m 2.5156085,0 H 5.8208333 V 6.0854166 H 3.4535358 C 3.4752317,5.4594751 3.5683367,4.8380742 3.7310382,4.2333333 Z m 6.0451092,0 h 1.7058386 c 0.243522,0.5889918 0.38389,1.2154916 0.414962,1.8520833 H 10.027812 C 10.00846,5.4609864 9.9241156,4.8402734 9.7761474,4.2333333 Z m -1.5740642,1.8520833 0.020153,6.0001504 1.319816,-1.460376 0.7601608,1.64021 c 0.2,0.55 1.289911,0.260261 1.029911,-0.469739 l -0.810286,-1.64021 1.890323,-0.08992 z m -7.37784411,0.79375 H 2.6721882 c 0.03677,0.6263105 0.1389573,1.2470521 0.304891,1.8520833 H 1.3363525 C 1.0593789,8.1483165 0.88608335,7.5215847 0.82423909,6.8791666 Z m 2.64221581,0 H 5.8208333 V 8.7312499 H 3.8018352 C 3.6195484,8.1288058 3.5070158,7.5073636 3.4664549,6.8791666 Z M 1.7983398,9.5249999 H 3.2359782 C 3.4971349,10.222745 3.8439576,10.885319 4.2684731,11.497489 3.2714861,11.093018 2.4133753,10.407786 1.7983398,9.5249999 Z m 2.289266,0 H 5.8208333 V 11.879378 C 5.7294078,11.868897 5.638257,11.856146 5.547465,11.841137 4.9348363,11.156404 4.4413535,10.37347 4.0876058,9.5249999 Z"
     id="path817" />
</svg>
