<?xml version="1.0" encoding="UTF-8" standalone="no"?>
<svg
   width="48"
   height="48"
   viewBox="0 0 12.7 12.7"
   version="1.1"
   id="svg4"
   sodipodi:docname="webstorm.svg"
   inkscape:version="0.92.5 (2060ec1f9f, 2020-04-08)"
   xmlns:inkscape="http://www.inkscape.org/namespaces/inkscape"
   xmlns:sodipodi="http://sodipodi.sourceforge.net/DTD/sodipodi-0.dtd"
   xmlns="http://www.w3.org/2000/svg"
   xmlns:svg="http://www.w3.org/2000/svg">
  <sodipodi:namedview
     id="namedview1"
     pagecolor="#505050"
     bordercolor="#eeeeee"
     borderopacity="1"
     inkscape:showpageshadow="0"
     inkscape:pageopacity="0"
     inkscape:pagecheckerboard="0"
     inkscape:deskcolor="#d1d1d1" />
  <defs
     id="defs8">
    <style
       id="current-color-scheme"
       type="text/css">&#10;      .ColorScheme-Highlight {&#10;        color:#1e3f5a;&#10;      }&#10;  </style>
  </defs>
  <path
     class="ColorScheme-Highlight"
     style="fill:#bde6fb;fill-opacity:1;stroke-width:0.264583"
     d="M 6.3499999,0 A 6.3499999,6.3499999 0 0 0 0,6.3499999 6.3499999,6.3499999 0 0 0 6.3499999,12.7 6.3499999,6.3499999 0 0 0 12.7,6.3499999 6.3499999,6.3499999 0 0 0 6.3499999,0 Z m 0,0.79374999 A 5.5562499,5.5562499 0 0 1 11.90625,6.3499999 5.5562499,5.5562499 0 0 1 6.3499999,11.90625 5.5562499,5.5562499 0 0 1 0.79374999,6.3499999 5.5562499,5.5562499 0 0 1 6.3499999,0.79374999 Z m 0,1.05833331 A 4.4979182,4.4979182 0 0 0 1.8520833,6.3499999 4.4979182,4.4979182 0 0 0 6.3499999,10.847917 4.4979182,4.4979182 0 0 0 10.847917,6.3499999 4.4979182,4.4979182 0 0 0 6.3499999,1.8520833 Z m 1.6154053,3.0024006 c 0.3611563,0 0.6336234,0.1014389 0.818038,0.3043743 0.1423456,0.1566333 0.2139402,0.3387741 0.2139402,0.5467366 H 8.4666666 C 8.4542311,5.6008198 8.4233783,5.5206098 8.3741658,5.4647827 8.285795,5.3623889 8.1359829,5.3113037 7.9245808,5.3113037 c -0.1254125,0 -0.2283148,0.022476 -0.3095418,0.066663 -0.1008063,0.056356 -0.1508953,0.1392658 -0.1508951,0.249597 0,0.091017 0.031836,0.159887 0.095601,0.206189 0.037042,0.026987 0.098495,0.050184 0.1844847,0.069763 l 0.6449218,0.1586465 c 0.2188105,0.053975 0.3797351,0.1238168 0.482658,0.2098064 0.1399646,0.1153583 0.2103231,0.2821987 0.2103231,0.5007446 0,0.2674937 -0.088611,0.4742944 -0.2656168,0.6216676 -0.1939396,0.161925 -0.4530992,0.2433958 -0.7772135,0.243396 -0.4299479,0 -0.7399653,-0.1058912 -0.9291423,-0.3172933 C 6.9752228,7.1699355 6.9075887,6.9806425 6.9075887,6.7520425 h 0.5307168 c 0,0.1082146 0.032089,0.1983139 0.096118,0.2697509 0.095779,0.1055687 0.2502712,0.1581301 0.4640546,0.1581301 0.157427,0 0.2828065,-0.02196 0.3762044,-0.066146 0.1180041,-0.056621 0.1767332,-0.148423 0.1767332,-0.2759522 0,-0.095515 -0.044172,-0.1680935 -0.1328084,-0.2170408 C 8.3596056,6.5890346 8.244619,6.5517362 8.0723755,6.5101969 L 7.7886718,6.4440511 C 7.5060968,6.3779053 7.3128311,6.3092872 7.209379,6.2383788 7.0350186,6.118258 6.9478963,5.9279564 6.9478963,5.667871 c 0,-0.2037291 0.061453,-0.3755141 0.1844847,-0.5152141 0.1743604,-0.1987021 0.4520242,-0.298173 0.8330242,-0.298173 z m -4.5010172,0.1757 h 0.5896282 c 0.1227664,0.5201708 0.2126133,0.9088975 0.2692341,1.1663371 0.068792,0.306652 0.1188805,0.5615987 0.1508951,0.7653279 l 0.3756877,-1.931665 h 0.5865275 c 0.1423458,0.6720417 0.2395969,1.1318462 0.2914552,1.3797605 0.034396,0.1693334 0.06844,0.3532024 0.1028359,0.5519045 C 5.8994436,6.6332364 5.9525214,6.3851771 5.9892985,6.218225 5.9919443,6.2060542 6.0852221,5.8101756 6.2699016,5.0301839 H 6.8300739 L 6.0854166,7.6729166 H 5.5546997 C 5.4316685,7.0940082 5.3408503,6.6524679 5.2818482,6.347933 5.2352812,6.1076911 5.1896078,5.8628732 5.1454224,5.6125773 5.1231974,5.7377253 5.0953333,5.8897572 5.0606729,6.0688801 5.0141063,6.3093864 4.9761015,6.5006595 4.9464679,6.6430053 4.8729143,6.9864345 4.7998186,7.3300041 4.7289103,7.6734333 H 4.2126627 V 7.6729166 Z M 4.4979166,8.4666666 H 8.2020832 V 8.9958332 H 4.4979166 Z"
     id="path843" />
</svg>
