<?xml version="1.0" encoding="UTF-8" standalone="no"?>
<svg
   width="47.542679"
   height="47.546455"
   viewBox="0 0 12.579 12.58"
   version="1.1"
   id="svg4"
   sodipodi:docname="webscarab.svg"
   inkscape:version="0.92.5 (2060ec1f9f, 2020-04-08)"
   xmlns:inkscape="http://www.inkscape.org/namespaces/inkscape"
   xmlns:sodipodi="http://sodipodi.sourceforge.net/DTD/sodipodi-0.dtd"
   xmlns="http://www.w3.org/2000/svg"
   xmlns:svg="http://www.w3.org/2000/svg"
   xmlns:rdf="http://www.w3.org/1999/02/22-rdf-syntax-ns#"
   xmlns:cc="http://creativecommons.org/ns#"
   xmlns:dc="http://purl.org/dc/elements/1.1/">
  <metadata
     id="metadata10">
    <rdf:RDF>
      <cc:Work
         rdf:about="">
        <dc:format>image/svg+xml</dc:format>
        <dc:type
           rdf:resource="http://purl.org/dc/dcmitype/StillImage" />
        <dc:title />
      </cc:Work>
    </rdf:RDF>
  </metadata>
  <defs
     id="defs8" />
  <sodipodi:namedview
     pagecolor="#ffffff"
     bordercolor="#666666"
     borderopacity="1"
     objecttolerance="10"
     gridtolerance="10"
     guidetolerance="10"
     inkscape:pageopacity="0"
     inkscape:pageshadow="2"
     inkscape:window-width="1085"
     inkscape:window-height="480"
     id="namedview6"
     showgrid="false"
     inkscape:zoom="4.9166667"
     inkscape:cx="2.1355932"
     inkscape:cy="24"
     inkscape:window-x="0"
     inkscape:window-y="25"
     inkscape:window-maximized="0"
     inkscape:current-layer="svg4"
     inkscape:showpageshadow="0"
     inkscape:pagecheckerboard="0"
     inkscape:deskcolor="#d1d1d1" />
  <path
     d="M 6.285,0 A 6.295,6.295 0 0 0 0,6.285 6.295,6.295 0 0 0 6.285,12.58 6.295,6.295 0 0 0 12.579,6.285 6.295,6.295 0 0 0 6.285,0 Z M 6.274,0.94 a 5.408,5.408 0 0 1 5.397,5.387 5.407,5.407 0 0 1 -10.814,0 C 0.857,3.34 3.287,0.94 6.274,0.94 Z M 6.454,1.742 6.109,2.053 C 6.198,2.377 6.368,2.788 6.418,3.037 6.573,3.81 6.545,4.202 6.514,4.387 L 6.178,4.528 C 6.128,4.635 6.074,4.73 6.016,4.816 5.792,4.426 4.871,3.82 3.634,3.756 3.932,3.964 4.099,4.172 3.818,4.379 4.634,4.009 5.288,4.252 5.787,5.095 5.44,5.443 5.02,5.595 4.635,5.841 4.474,5.97 4.348,6.111 4.251,6.261 L 4.002,5.933 1.492,6.947 1.365,7.592 C 1.512,7.315 1.47,6.927 2.102,6.935 l 0.057,0.495 0.22,-0.587 1.462,-0.484 0.226,0.3 c -0.353,1.194 0.862,2.556 2.234,1.69 l 0.28,0.175 -0.426,1.532 -0.621,0.207 0.656,0.034 C 6.252,10.582 6.02,10.85 5.499,11.104 L 6.213,10.954 6.984,8.421 6.602,8.123 C 6.63,8.1 6.658,8.078 6.685,8.053 a 9.455,9.455 0 0 0 1.16,-1.325 c 1.05,0.388 1.04,1.046 0.81,1.76 C 8.826,8.32 9.01,8.255 9.243,8.604 9.021,7.784 9.078,6.843 8.111,6.342 8.251,6.129 8.385,5.912 8.51,5.689 9.187,5.942 9.793,5.618 10.854,6.162 L 11.177,5.725 C 10.744,6.02 10.413,5.729 10.72,5.526 10.5,5.596 9.154,5.577 8.62,5.49 L 8.643,5.449 C 9.24,5.229 9.39,4.833 9.29,4.443 9.88,4.263 10.178,3.942 9.703,3.215 9.785,3.904 9.611,4.039 9.38,3.503 9.355,3.723 9.294,3.93 9.142,4.103 8.916,3.74 8.505,3.438 8.089,3.365 8.304,3.065 8.689,3.191 8.919,3.123 8.588,2.947 8.737,2.787 9.035,2.581 8.554,2.608 8.01,2.461 7.841,3.351 7.468,3.374 7.121,3.614 6.939,4.205 L 6.877,4.232 C 6.712,3.778 6.716,3.026 6.72,2.271 6.25,2.667 6.481,2.011 6.456,1.741 Z"
     id="path2"
     inkscape:connector-curvature="0"
     style="fill:#bde6fb;fill-opacity:1" />
</svg>
