<?xml version="1.0" encoding="UTF-8" standalone="no"?>
<svg
   width="47.546486"
   height="47.546486"
   viewBox="0 0 12.580008 12.580008"
   version="1.1"
   id="svg4"
   sodipodi:docname="wechat.svg"
   inkscape:version="0.92.4 (5da689c313, 2019-01-14)"
   xmlns:inkscape="http://www.inkscape.org/namespaces/inkscape"
   xmlns:sodipodi="http://sodipodi.sourceforge.net/DTD/sodipodi-0.dtd"
   xmlns="http://www.w3.org/2000/svg"
   xmlns:svg="http://www.w3.org/2000/svg"
   xmlns:rdf="http://www.w3.org/1999/02/22-rdf-syntax-ns#"
   xmlns:cc="http://creativecommons.org/ns#"
   xmlns:dc="http://purl.org/dc/elements/1.1/">
  <metadata
     id="metadata10">
    <rdf:RDF>
      <cc:Work
         rdf:about="">
        <dc:format>image/svg+xml</dc:format>
        <dc:type
           rdf:resource="http://purl.org/dc/dcmitype/StillImage" />
        <dc:title />
      </cc:Work>
    </rdf:RDF>
  </metadata>
  <defs
     id="defs8" />
  <sodipodi:namedview
     pagecolor="#ffffff"
     bordercolor="#666666"
     borderopacity="1"
     objecttolerance="10"
     gridtolerance="10"
     guidetolerance="10"
     inkscape:pageopacity="0"
     inkscape:pageshadow="2"
     inkscape:window-width="1087"
     inkscape:window-height="480"
     id="namedview6"
     showgrid="false"
     inkscape:zoom="4.9166667"
     inkscape:cx="2.1355932"
     inkscape:cy="24"
     inkscape:window-x="0"
     inkscape:window-y="25"
     inkscape:window-maximized="0"
     inkscape:current-layer="svg4"
     inkscape:showpageshadow="0"
     inkscape:pagecheckerboard="0"
     inkscape:deskcolor="#d1d1d1" />
  <path
     d="M 6.2900079,0 A 6.29,6.29 0 0 0 7.9490244e-6,6.3 6.29,6.29 0 0 0 6.3000079,12.58 6.29,6.29 0 0 0 12.580008,6.29 6.29,6.29 0 0 0 6.2900079,0 Z m -0.01,0.94 A 5.4,5.4 0 0 1 11.680008,6.34 5.4,5.4 0 0 1 6.2800079,11.75 5.4,5.4 0 0 1 0.87000795,6.35 5.4,5.4 0 0 1 6.2700079,0.93 Z m 0.2,1.11 a 6.26,6.26 0 0 0 -0.48,0.03 l -0.36,0.03 c -2.37,0.35 -4.13,1.99 -3.97,3.76 0.1,1.15 0.99,2.1 2.24,2.59 l -0.52,2.05 2.32,-1.68 h 0.02 c 0.29,0 0.57,0.01 0.87,-0.02 2.56,-0.23 4.5000001,-1.93 4.3300001,-3.79 -0.16,-1.74 -2.1100001,-3 -4.4600001,-2.97 z m 2.39,2.34 a 0.68,0.65 85.37 0 1 0.63,0.63 0.68,0.65 85.37 0 1 -0.59,0.74 0.68,0.65 85.37 0 1 -0.7,-0.63 0.68,0.65 85.37 0 1 0.6,-0.74 0.68,0.65 85.37 0 1 0.06,0 z m -2.64,0.21 a 0.68,0.65 85.37 0 1 0.64,0.64 0.68,0.65 85.37 0 1 -0.6,0.73 0.68,0.65 85.37 0 1 -0.7,-0.63 0.68,0.65 85.37 0 1 0.6,-0.73 0.68,0.65 85.37 0 1 0.06,0 z m -2.64,0.22 a 0.68,0.65 85.37 0 1 0.64,0.63 0.68,0.65 85.37 0 1 -0.6,0.73 0.68,0.65 85.37 0 1 -0.7,-0.63 0.68,0.65 85.37 0 1 0.6,-0.73 0.68,0.65 85.37 0 1 0.06,0 z"
     id="path2"
     inkscape:connector-curvature="0"
     style="fill:#bde6fb;fill-opacity:1" />
</svg>
