<?xml version="1.0" encoding="UTF-8" standalone="no"?>
<svg
   width="47.542679"
   height="47.546455"
   viewBox="0 0 12.579 12.58"
   version="1.1"
   id="svg4"
   sodipodi:docname="weevely.svg"
   inkscape:version="0.92.5 (2060ec1f9f, 2020-04-08)"
   xmlns:inkscape="http://www.inkscape.org/namespaces/inkscape"
   xmlns:sodipodi="http://sodipodi.sourceforge.net/DTD/sodipodi-0.dtd"
   xmlns="http://www.w3.org/2000/svg"
   xmlns:svg="http://www.w3.org/2000/svg"
   xmlns:rdf="http://www.w3.org/1999/02/22-rdf-syntax-ns#"
   xmlns:cc="http://creativecommons.org/ns#"
   xmlns:dc="http://purl.org/dc/elements/1.1/">
  <metadata
     id="metadata10">
    <rdf:RDF>
      <cc:Work
         rdf:about="">
        <dc:format>image/svg+xml</dc:format>
        <dc:type
           rdf:resource="http://purl.org/dc/dcmitype/StillImage" />
        <dc:title />
      </cc:Work>
    </rdf:RDF>
  </metadata>
  <defs
     id="defs8" />
  <sodipodi:namedview
     pagecolor="#ffffff"
     bordercolor="#666666"
     borderopacity="1"
     objecttolerance="10"
     gridtolerance="10"
     guidetolerance="10"
     inkscape:pageopacity="0"
     inkscape:pageshadow="2"
     inkscape:window-width="1085"
     inkscape:window-height="480"
     id="namedview6"
     showgrid="false"
     inkscape:zoom="4.9166667"
     inkscape:cx="2.1355932"
     inkscape:cy="24"
     inkscape:window-x="0"
     inkscape:window-y="25"
     inkscape:window-maximized="0"
     inkscape:current-layer="svg4"
     inkscape:showpageshadow="0"
     inkscape:pagecheckerboard="0"
     inkscape:deskcolor="#d1d1d1" />
  <path
     d="M 6.285,0 A 6.295,6.295 0 0 0 0,6.285 6.295,6.295 0 0 0 6.285,12.58 6.295,6.295 0 0 0 12.579,6.285 6.295,6.295 0 0 0 6.285,0 Z M 6.274,0.94 a 5.408,5.408 0 0 1 5.397,5.387 5.407,5.407 0 0 1 -10.814,0 C 0.857,3.34 3.287,0.94 6.274,0.94 Z m -1.73,3.577 c -0.295,0 -0.606,0.085 -0.866,0.229 A 0.16,0.16 0 0 0 3.602,4.934 l 0.076,0.24 c 0.03,0.094 0.138,0.14 0.228,0.095 0.196,-0.096 0.387,-0.143 0.555,-0.143 0.14,0 0.234,0.033 0.287,0.073 0.052,0.04 0.074,0.08 0.074,0.154 0,0.128 -0.102,0.228 -0.257,0.39 C 4.409,5.904 4.218,6.129 4.218,6.466 v 0.208 c 0,0.089 0.073,0.161 0.163,0.161 h 0.302 c 0.09,0 0.164,-0.072 0.164,-0.161 V 6.465 C 4.847,6.331 4.957,6.219 5.12,6.051 5.284,5.883 5.486,5.656 5.486,5.316 5.486,5.082 5.385,4.87 5.213,4.729 5.042,4.589 4.808,4.516 4.544,4.516 Z M 9.246,4.913 C 9.158,4.916 9.088,4.995 9.088,5.093 v 0.361 c 0,0.068 0.034,0.13 0.09,0.16 L 10.313,6.236 9.18,6.833 A 0.182,0.182 0 0 0 9.088,6.994 v 0.34 c 0,0.133 0.126,0.22 0.235,0.161 l 1.772,-0.964 a 0.181,0.181 0 0 0 0.09,-0.16 V 6.091 A 0.181,0.181 0 0 0 11.097,5.931 L 9.325,4.934 A 0.15,0.15 0 0 0 9.246,4.914 Z M 5.85,4.92 c -0.113,0 -0.192,0.13 -0.153,0.253 l 0.7,2.205 C 6.42,7.452 6.481,7.501 6.549,7.501 h 0.302 c 0.07,0 0.134,-0.052 0.156,-0.13 L 7.351,6.133 7.709,7.373 C 7.732,7.45 7.794,7.501 7.864,7.501 h 0.322 c 0.069,0 0.13,-0.05 0.153,-0.125 L 9.015,5.171 C 9.052,5.048 8.974,4.92 8.861,4.92 H 8.543 c -0.07,0 -0.134,0.053 -0.155,0.13 L 8.044,6.295 7.705,5.061 C 7.683,4.982 7.62,4.929 7.549,4.929 H 7.192 C 7.12,4.929 7.057,4.983 7.036,5.062 L 6.708,6.291 6.366,5.051 C 6.344,4.973 6.282,4.921 6.211,4.92 H 5.849 Z M 3.27,4.935 A 0.152,0.152 0 0 0 3.201,4.955 L 1.493,5.919 a 0.182,0.182 0 0 0 -0.089,0.16 v 0.278 c 0,0.066 0.034,0.127 0.087,0.158 l 1.708,1 C 3.308,7.578 3.439,7.491 3.439,7.356 V 6.995 A 0.183,0.183 0 0 0 3.351,6.836 L 2.261,6.213 3.348,5.616 a 0.182,0.182 0 0 0 0.09,-0.16 V 5.115 C 3.438,5.014 3.363,4.933 3.271,4.936 Z M 4.53,7.116 A 0.417,0.458 0 0 0 4.113,7.574 0.417,0.458 0 0 0 4.53,8.032 0.417,0.458 0 0 0 4.947,7.574 0.417,0.458 0 0 0 4.53,7.116 Z"
     id="path2"
     inkscape:connector-curvature="0"
     style="fill:#bde6fb;fill-opacity:1" />
</svg>
