<?xml version="1.0" encoding="UTF-8" standalone="no"?>
<svg
   width="47.546486"
   height="47.546486"
   viewBox="0 0 12.580008 12.580008"
   version="1.1"
   id="svg6"
   sodipodi:docname="wesnoth.svg"
   inkscape:version="0.92.4 (5da689c313, 2019-01-14)"
   xmlns:inkscape="http://www.inkscape.org/namespaces/inkscape"
   xmlns:sodipodi="http://sodipodi.sourceforge.net/DTD/sodipodi-0.dtd"
   xmlns="http://www.w3.org/2000/svg"
   xmlns:svg="http://www.w3.org/2000/svg"
   xmlns:rdf="http://www.w3.org/1999/02/22-rdf-syntax-ns#"
   xmlns:cc="http://creativecommons.org/ns#"
   xmlns:dc="http://purl.org/dc/elements/1.1/">
  <metadata
     id="metadata12">
    <rdf:RDF>
      <cc:Work
         rdf:about="">
        <dc:format>image/svg+xml</dc:format>
        <dc:type
           rdf:resource="http://purl.org/dc/dcmitype/StillImage" />
        <dc:title />
      </cc:Work>
    </rdf:RDF>
  </metadata>
  <defs
     id="defs10" />
  <sodipodi:namedview
     pagecolor="#ffffff"
     bordercolor="#666666"
     borderopacity="1"
     objecttolerance="10"
     gridtolerance="10"
     guidetolerance="10"
     inkscape:pageopacity="0"
     inkscape:pageshadow="2"
     inkscape:window-width="1087"
     inkscape:window-height="480"
     id="namedview8"
     showgrid="false"
     inkscape:zoom="4.9166667"
     inkscape:cx="2.1355932"
     inkscape:cy="24"
     inkscape:window-x="0"
     inkscape:window-y="25"
     inkscape:window-maximized="0"
     inkscape:current-layer="svg6"
     inkscape:showpageshadow="0"
     inkscape:pagecheckerboard="0"
     inkscape:deskcolor="#d1d1d1" />
  <path
     d="M 6.2900079,0 A 6.29,6.29 0 0 0 7.9490244e-6,6.3 6.29,6.29 0 0 0 6.3000079,12.58 6.29,6.29 0 0 0 12.580008,6.29 6.29,6.29 0 0 0 6.2900079,0 Z m -0.01,0.94 A 5.4,5.4 0 0 1 11.680008,6.34 5.4,5.4 0 0 1 6.2800079,11.75 5.4,5.4 0 0 1 0.87000795,6.35 5.4,5.4 0 0 1 6.2700079,0.93 Z m 3.44,1.5 a 0.1,0.1 0 0 0 -0.05,0 c -0.05,0.18 -0.62,0.74 -0.95,1.1 l -0.4,-0.37 c -0.57,-0.51 -0.6,0.36 -0.58,0.38 0.1,-0.2 0.33,-0.28 0.74,0.15 l -0.43,0.4 c 0.14,0.06 0.27,0.1 0.41,0.09 l 0.28,-0.24 c 0.44,0.43 0.35,0.47 0.16,0.75 0.28,0.08 0.79,-0.22 0.33,-0.6 l -0.31,-0.35 c 0.35,-0.34 0.8,-0.83 1.0800001,-0.96 0.07,-0.14 -0.1300001,-0.36 -0.2700001,-0.36 a 0.1,0.1 0 0 0 -0.01,0 z m -6.92,0.02 c -0.14,0 -0.35,0.22 -0.27,0.36 0.28,0.13 0.72,0.62 1.08,0.96 l -0.32,0.34 c -0.45,0.39 0.06,0.69 0.34,0.61 -0.19,-0.28 -0.28,-0.32 0.16,-0.75 l 0.28,0.24 a 0.94,0.94 0 0 0 0.4,-0.09 l -0.43,-0.4 c 0.41,-0.43 0.64,-0.36 0.75,-0.15 0.01,-0.02 -0.01,-0.9 -0.58,-0.38 l -0.4,0.38 c -0.33,-0.37 -0.9,-0.93 -0.95,-1.1 a 0.1,0.1 0 0 0 -0.06,-0.02 z m 3.5,1.1 a 6.3,6.3 0 0 1 -2.47,0.8 c -0.13,2.86 0.25,4.7 2.48,6.5 2.23,-1.8 2.6,-3.64 2.47,-6.5 a 6.28,6.28 0 0 1 -2.47,-0.8 z m 0,0.25 c 0.73,0.46 1.5,0.6 2.27,0.73 0.12,2.6 -0.22,4.28 -2.26,5.94 -2.04,-1.65 -2.39,-3.33 -2.26,-5.94 a 5.74,5.74 0 0 0 2.26,-0.73 z m -2.06,4.74 c -0.44,0.47 -1.02,1.01 -1.04,1.55 0.45,-0.22 0.76,-0.69 1.2,-1.17 z m 4.14,0 -0.17,0.38 c 0.44,0.48 0.75,0.95 1.2,1.17 -0.02,-0.54 -0.6,-1.08 -1.04,-1.55 z"
     id="path2"
     inkscape:connector-curvature="0"
     style="fill:#bde6fb;fill-opacity:1" />
  <path
     d="m 6.3100079,4.84 c -0.45,0.2 -0.91,0.33 -1.38,0.45 -0.07,1.58 0.14,2.84 1.38,3.85 1.24,-1 1.45,-2.27 1.37,-3.85 -0.38,-0.11 -0.93,-0.26 -1.37,-0.45 z"
     id="path4"
     inkscape:connector-curvature="0"
     style="opacity:0.75;fill:#800000" />
</svg>
