<?xml version="1.0" encoding="UTF-8" standalone="no"?>
<svg
   width="47.542679"
   height="47.546455"
   viewBox="0 0 12.579 12.58"
   version="1.1"
   id="svg4"
   sodipodi:docname="wfuzz.svg"
   inkscape:version="0.92.5 (2060ec1f9f, 2020-04-08)"
   xmlns:inkscape="http://www.inkscape.org/namespaces/inkscape"
   xmlns:sodipodi="http://sodipodi.sourceforge.net/DTD/sodipodi-0.dtd"
   xmlns="http://www.w3.org/2000/svg"
   xmlns:svg="http://www.w3.org/2000/svg"
   xmlns:rdf="http://www.w3.org/1999/02/22-rdf-syntax-ns#"
   xmlns:cc="http://creativecommons.org/ns#"
   xmlns:dc="http://purl.org/dc/elements/1.1/">
  <metadata
     id="metadata10">
    <rdf:RDF>
      <cc:Work
         rdf:about="">
        <dc:format>image/svg+xml</dc:format>
        <dc:type
           rdf:resource="http://purl.org/dc/dcmitype/StillImage" />
        <dc:title />
      </cc:Work>
    </rdf:RDF>
  </metadata>
  <defs
     id="defs8" />
  <sodipodi:namedview
     pagecolor="#ffffff"
     bordercolor="#666666"
     borderopacity="1"
     objecttolerance="10"
     gridtolerance="10"
     guidetolerance="10"
     inkscape:pageopacity="0"
     inkscape:pageshadow="2"
     inkscape:window-width="1085"
     inkscape:window-height="480"
     id="namedview6"
     showgrid="false"
     inkscape:zoom="4.9166667"
     inkscape:cx="2.1355932"
     inkscape:cy="24"
     inkscape:window-x="0"
     inkscape:window-y="25"
     inkscape:window-maximized="0"
     inkscape:current-layer="svg4"
     inkscape:showpageshadow="0"
     inkscape:pagecheckerboard="0"
     inkscape:deskcolor="#d1d1d1" />
  <path
     d="M 6.285,0 A 6.295,6.295 0 0 0 2.21,1.507 6.295,6.295 0 0 0 1.772,1.917 6.295,6.295 0 0 0 1.716,1.98 6.295,6.295 0 0 0 0,6.285 a 6.295,6.295 0 0 0 2.722,5.174 6.295,6.295 0 0 0 0.172,0.123 6.295,6.295 0 0 0 0.182,0.105 6.295,6.295 0 0 0 3.21,0.893 6.295,6.295 0 0 0 3.22,-0.896 6.295,6.295 0 0 0 0.333,-0.204 6.295,6.295 0 0 0 0.03,-0.023 6.295,6.295 0 0 0 2.71,-5.172 A 6.295,6.295 0 0 0 10.875,1.999 6.295,6.295 0 0 0 10.663,1.772 6.295,6.295 0 0 0 10.361,1.508 6.295,6.295 0 0 0 6.285,0 Z M 6.274,0.94 A 5.408,5.408 0 0 1 9.557,2.065 1.612,1.612 0 0 0 9.21,2.745 C 9.106,3.189 9.18,3.632 9.251,4.061 9.391,4.899 9.431,5.354 8.701,5.747 8.277,5.976 7.891,6.03 7.517,5.911 A 1.478,1.478 0 0 1 7.259,5.801 0.84,0.84 0 0 1 7.314,5.651 0.373,0.373 0 0 1 7.519,5.465 0.605,0.605 0 0 0 7.916,4.892 0.609,0.609 0 0 0 7.749,4.472 0.33,0.33 0 0 1 7.68,4.129 C 7.77,3.89 7.82,3.624 7.82,3.343 7.82,2.308 7.137,1.468 6.296,1.468 c -0.84,0 -1.524,0.84 -1.524,1.875 0,0.281 0.05,0.547 0.14,0.786 A 0.33,0.33 0 0 1 4.843,4.473 0.609,0.609 0 0 0 4.676,4.892 c 0,0.265 0.163,0.488 0.397,0.573 0.09,0.033 0.163,0.1 0.205,0.185 A 0.84,0.84 0 0 1 5.333,5.8 1.478,1.478 0 0 1 5.075,5.911 C 4.702,6.03 4.315,5.976 3.891,5.747 3.161,5.354 3.201,4.899 3.341,4.061 3.412,3.632 3.486,3.189 3.382,2.746 A 1.614,1.614 0 0 0 3.022,2.041 L 3.012,2.031 A 5.411,5.411 0 0 1 6.275,0.94 Z M 2.369,2.597 2.373,2.601 c 0.27,0.31 0.232,0.702 0.129,1.321 -0.071,0.426 -0.145,0.866 -0.048,1.31 0.117,0.54 0.455,0.952 1.032,1.264 0.398,0.215 0.816,0.336 1.245,0.326 L 4.733,6.824 A 3.6,3.6 0 0 0 4.52,7.058 V 7.053 A 3.523,3.523 0 0 1 4.308,7.248 C 3.722,7.742 3.118,7.909 2.516,7.746 1.578,7.491 1.514,6.939 1.486,6.06 1.47,5.57 1.453,5.065 1.134,4.705 L 1.133,4.702 1.113,4.685 A 5.361,5.361 0 0 1 2.369,2.597 Z m 7.826,0.043 a 5.408,5.408 0 0 1 1.233,2.124 C 11.151,5.121 11.119,5.594 11.105,6.06 11.076,6.94 11.012,7.491 10.075,7.746 9.471,7.909 8.868,7.742 8.282,7.248 A 3.517,3.517 0 0 1 8.07,7.053 V 7.058 A 3.6,3.6 0 0 0 7.857,6.824 L 7.859,6.822 C 8.288,6.832 8.706,6.711 9.104,6.496 9.681,6.184 10.019,5.771 10.136,5.233 10.233,4.788 10.159,4.348 10.088,3.923 9.988,3.327 9.958,2.945 10.195,2.64 Z m -4.52,2.068 c 0.17,0 0.326,0.086 0.417,0.23 a 0.1767088,0.1767088 0 1 1 -0.298,0.19 0.14,0.14 0 0 0 -0.238,0 0.1767088,0.1767088 0 0 1 -0.298,-0.19 0.493,0.493 0 0 1 0.417,-0.23 z m 1.24,0 c 0.17,0 0.326,0.086 0.418,0.23 a 0.1771306,0.1771306 0 0 1 -0.299,0.19 0.14,0.14 0 0 0 -0.238,0 0.177,0.177 0 0 1 -0.298,-0.19 0.492,0.492 0 0 1 0.417,-0.23 z m -0.62,2.59 c 0.463,0 0.895,0.243 1.13,0.641 0.21,0.357 0.357,0.876 0.211,1.595 -0.177,0.873 0.293,1.388 0.844,1.717 A 5.407,5.407 0 0 1 4.079,11.27 C 4.644,10.942 5.134,10.424 4.954,9.534 4.808,8.815 4.955,8.296 5.165,7.939 a 1.31,1.31 0 0 1 1.13,-0.64 z M 0.996,7.526 C 1.214,7.943 1.588,8.311 2.309,8.506 2.877,8.661 3.426,8.607 3.935,8.397 H 3.939 C 3.93,8.59 3.951,8.792 4.019,9.001 4.35,10.006 3.892,10.582 3.355,10.877 A 5.407,5.407 0 0 1 0.996,7.527 Z M 11.48,7.728 A 5.407,5.407 0 0 1 9.204,10.863 C 8.68,10.563 8.246,9.987 8.57,9.001 8.64,8.791 8.66,8.591 8.651,8.397 h 0.004 c 0.509,0.21 1.058,0.264 1.626,0.11 0.603,-0.164 0.965,-0.448 1.199,-0.779 z"
     id="path2"
     inkscape:connector-curvature="0"
     style="fill:#bde6fb;fill-opacity:1" />
</svg>
