<?xml version="1.0" encoding="UTF-8" standalone="no"?>
<svg
   width="47.543304"
   height="47.543308"
   viewBox="0 0 12.579166 12.579167"
   version="1.1"
   id="svg6"
   sodipodi:docname="whatsapp.svg"
   inkscape:version="0.92.4 (5da689c313, 2019-01-14)"
   xmlns:inkscape="http://www.inkscape.org/namespaces/inkscape"
   xmlns:sodipodi="http://sodipodi.sourceforge.net/DTD/sodipodi-0.dtd"
   xmlns="http://www.w3.org/2000/svg"
   xmlns:svg="http://www.w3.org/2000/svg"
   xmlns:rdf="http://www.w3.org/1999/02/22-rdf-syntax-ns#"
   xmlns:cc="http://creativecommons.org/ns#"
   xmlns:dc="http://purl.org/dc/elements/1.1/">
  <metadata
     id="metadata12">
    <rdf:RDF>
      <cc:Work
         rdf:about="">
        <dc:format>image/svg+xml</dc:format>
        <dc:type
           rdf:resource="http://purl.org/dc/dcmitype/StillImage" />
        <dc:title />
      </cc:Work>
    </rdf:RDF>
  </metadata>
  <defs
     id="defs10" />
  <sodipodi:namedview
     pagecolor="#ffffff"
     bordercolor="#666666"
     borderopacity="1"
     objecttolerance="10"
     gridtolerance="10"
     guidetolerance="10"
     inkscape:pageopacity="0"
     inkscape:pageshadow="2"
     inkscape:window-width="1087"
     inkscape:window-height="480"
     id="namedview8"
     showgrid="false"
     inkscape:zoom="4.9166667"
     inkscape:cx="2.1355932"
     inkscape:cy="24"
     inkscape:window-x="0"
     inkscape:window-y="25"
     inkscape:window-maximized="0"
     inkscape:current-layer="svg6"
     inkscape:showpageshadow="0"
     inkscape:pagecheckerboard="0"
     inkscape:deskcolor="#d1d1d1" />
  <path
     d="M 6.2843637,0 A 6.2948029,6.2948029 0 0 0 0,6.2843637 6.2948029,6.2948029 0 0 0 6.2843637,12.579166 6.2948029,6.2948029 0 0 0 12.579166,6.2843637 6.2948029,6.2948029 0 0 0 6.2843637,0 Z M 6.2739246,0.93952282 A 5.4074758,5.4074758 0 0 1 11.670961,6.3261203 5.4074758,5.4074758 0 0 1 6.2634854,11.733596 5.4074758,5.4074758 0 0 1 0.85600968,6.3261203 5.4074758,5.4074758 0 0 1 6.2634854,0.91864452 Z"
     id="path2"
     inkscape:connector-curvature="0"
     style="fill:#bde6fb;fill-opacity:1;stroke-width:1.04391" />
  <path
     d="M 6.2739246,1.764215 A 4.5827835,4.5827835 0 0 0 1.691141,6.3261203 4.5827835,4.5827835 0 0 0 6.2739246,10.908904 4.5827835,4.5827835 0 0 0 10.846269,6.3261203 4.5827835,4.5827835 0 0 0 6.2739246,1.7537759 Z M 4.5201487,3.7894087 c 0.3444917,0.010439 0.4488831,0 0.7620574,0.7620574 0.2714177,0.6472268 0.2714177,0.657666 -0.041757,1.0125968 A 0.91864454,0.91864454 0 0 0 5.0525449,5.8459197 c 0.2609786,0.8142532 1.09611,1.4301626 1.9103631,1.6389454 0.073074,0 0.1670263,-0.083513 0.3758091,-0.3340525 0.3444917,-0.4175657 0.292296,-0.4175657 1.09611,-0.041757 0.6263485,0.292296 0.657666,0.3758091 0.6054702,0.6785442 C 8.9776625,8.2051659 8.7793188,8.4452662 8.3617531,8.6227316 7.9650657,8.8210753 7.5370608,8.8001971 6.8585166,8.5809751 A 5.1047407,5.1047407 0 0 1 4.1547787,6.5349031 C 3.6850173,5.8981155 3.5284301,5.5118672 3.5284301,5.0421058 c 0,-0.3758092 0.073074,-0.6263486 0.3027352,-0.9186446 C 4.0503872,3.8311653 4.1652178,3.7789695 4.5097095,3.7894087 Z"
     id="path4"
     inkscape:connector-curvature="0"
     style="fill:#47ad5d;stroke-width:1.04391" />
</svg>
