<?xml version="1.0" encoding="UTF-8" standalone="no"?>
<svg
   width="47.538898"
   height="47.538898"
   viewBox="0 0 12.578 12.578"
   version="1.1"
   id="svg4"
   sodipodi:docname="whatweb.svg"
   inkscape:version="0.92.5 (2060ec1f9f, 2020-04-08)"
   xmlns:inkscape="http://www.inkscape.org/namespaces/inkscape"
   xmlns:sodipodi="http://sodipodi.sourceforge.net/DTD/sodipodi-0.dtd"
   xmlns="http://www.w3.org/2000/svg"
   xmlns:svg="http://www.w3.org/2000/svg"
   xmlns:rdf="http://www.w3.org/1999/02/22-rdf-syntax-ns#"
   xmlns:cc="http://creativecommons.org/ns#"
   xmlns:dc="http://purl.org/dc/elements/1.1/">
  <metadata
     id="metadata10">
    <rdf:RDF>
      <cc:Work
         rdf:about="">
        <dc:format>image/svg+xml</dc:format>
        <dc:type
           rdf:resource="http://purl.org/dc/dcmitype/StillImage" />
        <dc:title />
      </cc:Work>
    </rdf:RDF>
  </metadata>
  <defs
     id="defs8" />
  <sodipodi:namedview
     pagecolor="#ffffff"
     bordercolor="#666666"
     borderopacity="1"
     objecttolerance="10"
     gridtolerance="10"
     guidetolerance="10"
     inkscape:pageopacity="0"
     inkscape:pageshadow="2"
     inkscape:window-width="1085"
     inkscape:window-height="480"
     id="namedview6"
     showgrid="false"
     inkscape:zoom="4.9166667"
     inkscape:cx="2.1355932"
     inkscape:cy="24"
     inkscape:window-x="0"
     inkscape:window-y="25"
     inkscape:window-maximized="0"
     inkscape:current-layer="svg4"
     inkscape:showpageshadow="0"
     inkscape:pagecheckerboard="0"
     inkscape:deskcolor="#d1d1d1" />
  <path
     d="M 6.289,0 A 6.29,6.29 0 0 0 0,6.289 6.29,6.29 0 0 0 6.289,12.578 6.29,6.29 0 0 0 12.578,6.289 6.29,6.29 0 0 0 6.289,0 Z M 6.271,0.936 A 5.407,5.407 0 0 1 11.678,6.343 5.407,5.407 0 0 1 6.271,11.75 5.407,5.407 0 0 1 0.864,6.343 5.407,5.407 0 0 1 6.271,0.936 Z M 4.027,2.501 3.567,2.947 3.107,3.393 3.114,3.805 C 3.121,4.155 3.073,4.34 2.798,5.005 2.613,5.438 2.448,5.842 2.428,5.897 2.408,5.952 2.688,5.787 3.052,5.534 3.416,5.274 3.718,5.081 3.718,5.094 3.718,5.157 3.491,5.671 3.1,6.514 2.613,7.564 2.462,8.1 2.462,8.814 c 0,0.597 0.15,1.056 0.418,1.296 0.145,0.124 0.152,0.124 0.611,-0.116 0.79,-0.412 1.983,-0.748 2.052,-0.57 0.014,0.041 -0.028,0.302 -0.096,0.577 -0.09,0.357 -0.103,0.494 -0.048,0.467 0.63,-0.24 1.112,-0.337 1.88,-0.364 L 8.123,10.062 8.219,9.829 C 8.301,9.644 8.309,9.315 8.274,8.107 8.246,7.105 8.254,6.481 8.308,6.207 8.398,5.726 8.857,4.759 9.543,3.613 9.803,3.173 10.017,2.81 10.003,2.81 9.996,2.81 9.385,2.885 8.651,2.981 7.32,3.153 7.32,3.153 7.121,3.379 6.84,3.702 6.421,4.594 6.284,5.177 6.167,5.664 6.161,5.685 5.927,5.726 5.797,5.746 5.68,5.753 5.667,5.74 5.611,5.692 5.968,4.436 6.311,3.462 l 0.33,-0.96 H 4.027 Z m 0.11,0.467 0.926,0.006 C 5.646,2.981 5.975,3.009 5.955,3.05 5.783,3.51 5.42,4.745 5.33,5.177 5.214,5.726 5.104,7.407 5.18,7.407 5.207,7.407 5.29,7.174 5.378,6.885 5.529,6.35 5.632,6.227 5.988,6.138 L 6.174,6.09 6.222,6.77 C 6.27,7.462 6.372,8.107 6.387,7.833 6.455,6.44 6.764,4.875 7.087,4.23 7.403,3.606 7.423,3.592 8.123,3.503 8.473,3.455 8.843,3.407 8.946,3.386 9.138,3.346 9.138,3.352 8.726,4.134 7.91,5.678 7.711,6.514 7.801,7.942 7.828,8.422 7.855,8.992 7.862,9.219 L 7.869,9.616 7.149,9.637 C 6.75,9.644 6.325,9.672 6.209,9.706 L 5.982,9.754 V 9.438 C 5.982,9.26 5.934,8.786 5.872,8.388 L 5.756,7.661 5.639,7.894 C 5.57,8.024 5.461,8.306 5.392,8.519 5.282,8.889 5.255,8.917 5.028,8.959 A 5.902,5.902 0 0 0 3.458,9.493 L 3.025,9.727 2.955,9.562 C 2.853,9.28 2.887,8.492 3.025,7.949 3.1,7.668 3.333,7.078 3.546,6.632 4.218,5.204 4.424,4.402 4.28,3.702 L 4.219,3.393 4.164,3.77 C 4.116,4.093 4.068,4.19 3.828,4.402 3.526,4.683 3.395,4.731 3.478,4.539 3.512,4.477 3.546,4.223 3.56,3.976 3.594,3.572 3.615,3.503 3.868,3.249 L 4.136,2.968 Z M 3.769,6.685 C 3.759,6.644 3.66,6.82 3.519,7.167 3.128,8.107 2.929,9.13 3.087,9.383 3.135,9.452 3.21,9.431 3.45,9.301 3.615,9.205 4.006,9.061 4.322,8.978 4.63,8.896 4.87,8.814 4.857,8.8 4.829,8.773 3.897,8.883 3.533,8.958 L 3.306,8.998 V 8.704 C 3.306,8.381 3.498,7.51 3.683,7.002 3.75,6.812 3.776,6.709 3.769,6.685 Z"
     id="path2"
     inkscape:connector-curvature="0"
     style="fill:#bde6fb;fill-opacity:1" />
</svg>
