<?xml version="1.0" encoding="UTF-8" standalone="no"?>
<svg
   width="47.546486"
   height="47.546486"
   viewBox="0 0 12.580008 12.580008"
   version="1.1"
   id="svg4"
   sodipodi:docname="wikipedia.svg"
   inkscape:version="0.92.4 (5da689c313, 2019-01-14)"
   xmlns:inkscape="http://www.inkscape.org/namespaces/inkscape"
   xmlns:sodipodi="http://sodipodi.sourceforge.net/DTD/sodipodi-0.dtd"
   xmlns="http://www.w3.org/2000/svg"
   xmlns:svg="http://www.w3.org/2000/svg"
   xmlns:rdf="http://www.w3.org/1999/02/22-rdf-syntax-ns#"
   xmlns:cc="http://creativecommons.org/ns#"
   xmlns:dc="http://purl.org/dc/elements/1.1/">
  <metadata
     id="metadata10">
    <rdf:RDF>
      <cc:Work
         rdf:about="">
        <dc:format>image/svg+xml</dc:format>
        <dc:type
           rdf:resource="http://purl.org/dc/dcmitype/StillImage" />
        <dc:title />
      </cc:Work>
    </rdf:RDF>
  </metadata>
  <defs
     id="defs8" />
  <sodipodi:namedview
     pagecolor="#ffffff"
     bordercolor="#666666"
     borderopacity="1"
     objecttolerance="10"
     gridtolerance="10"
     guidetolerance="10"
     inkscape:pageopacity="0"
     inkscape:pageshadow="2"
     inkscape:window-width="1087"
     inkscape:window-height="480"
     id="namedview6"
     showgrid="false"
     inkscape:zoom="4.9166667"
     inkscape:cx="2.1355932"
     inkscape:cy="24"
     inkscape:window-x="0"
     inkscape:window-y="25"
     inkscape:window-maximized="0"
     inkscape:current-layer="svg4"
     inkscape:showpageshadow="0"
     inkscape:pagecheckerboard="0"
     inkscape:deskcolor="#d1d1d1" />
  <path
     d="M 6.2900079,0 A 6.29,6.29 0 0 0 7.9490244e-6,6.3 6.29,6.29 0 0 0 6.3000079,12.58 6.29,6.29 0 0 0 12.580008,6.29 6.29,6.29 0 0 0 6.2900079,0 Z m -0.02,0.93 0.01,0.01 A 5.4,5.4 0 0 1 11.680008,6.34 5.4,5.4 0 0 1 6.2800079,11.75 5.4,5.4 0 0 1 0.87000795,6.35 5.4,5.4 0 0 1 6.2700079,0.93 Z m 1.35,3.23 h -0.88 l -0.02,0.02 v 0.15 c 0,0.02 0,0.03 0.02,0.04 0.02,0.02 0.04,0.02 0.05,0.02 l 0.07,0.01 c 0.18,0 0.27,0.05 0.3,0.08 0.04,0.06 0.06,0.11 -0.05,0.34 l -0.62,1.21 -0.56,-1.13 c -0.18,-0.36 -0.23,-0.47 0.05,-0.5 h 0.11 c 0.05,0 0.08,-0.02 0.08,-0.06 V 4.18 l -0.04,-0.01 h -1.51 l -0.02,0.01 v 0.16 c 0,0.04 0.04,0.05 0.1,0.06 0.27,0.03 0.26,0.06 0.52,0.56 l 0.15,0.3 0.58,1.13 0.17,0.37 -0.85,1.67 h -0.04 c 0,0 -1.32,-2.75 -1.7,-3.67 a 0.62,0.62 0 0 1 -0.06,-0.2 c 0,-0.1 0.09,-0.15 0.26,-0.15 l 0.2,-0.01 c 0.05,0 0.07,-0.02 0.07,-0.07 V 4.19 l -0.01,-0.02 h -1.9 l -0.02,0.02 v 0.15 c 0,0.03 0.03,0.05 0.1,0.06 0.2,0 0.34,0.04 0.4,0.09 0.06,0.05 0.13,0.19 0.22,0.4 0.48,1.13 1.5,3.16 1.99,4.31 0.14,0.32 0.32,0.37 0.54,0 l 0.98,-1.94 c 0,-0.07 0,0.06 0.06,0.02 l 0.9,1.9 c 0.15,0.34 0.34,0.37 0.52,0.02 0.5,-1.07 1.92,-4.3 1.92,-4.3 a 0.85,0.85 0 0 1 0.25,-0.36 0.87,0.87 0 0 1 0.5100001,-0.15 c 0.05,0 0.07,-0.02 0.07,-0.06 V 4.18 l -0.01,-0.02 H 8.7700079 l -0.03,0.02 v 0.15 c 0,0.02 0.01,0.03 0.03,0.04 0.01,0.02 0.03,0.02 0.05,0.02 l 0.15,0.01 c 0.17,0 0.22,0.04 0.3,0.1 0.06,0.06 0.07,0.17 0.02,0.31 l -1.55,3.63 -0.06,-0.01 -0.99,-1.99 0.03,-0.05 0.8,-1.48 0.23,-0.36 c 0.09,-0.12 0.13,-0.15 0.36,-0.16 0.05,0 0.07,-0.02 0.07,-0.06 V 4.18 l -0.01,-0.01 h -0.55 z"
     id="path2"
     inkscape:connector-curvature="0"
     style="fill:#bde6fb;fill-opacity:1" />
</svg>
