<?xml version="1.0" encoding="UTF-8" standalone="no"?>
<svg
   width="48"
   height="48"
   viewBox="0 0 12.7 12.7"
   version="1.1"
   id="svg4"
   sodipodi:docname="winetricks.svg"
   inkscape:version="0.92.5 (2060ec1f9f, 2020-04-08)"
   xmlns:inkscape="http://www.inkscape.org/namespaces/inkscape"
   xmlns:sodipodi="http://sodipodi.sourceforge.net/DTD/sodipodi-0.dtd"
   xmlns="http://www.w3.org/2000/svg"
   xmlns:svg="http://www.w3.org/2000/svg">
  <sodipodi:namedview
     id="namedview1"
     pagecolor="#505050"
     bordercolor="#eeeeee"
     borderopacity="1"
     inkscape:showpageshadow="0"
     inkscape:pageopacity="0"
     inkscape:pagecheckerboard="0"
     inkscape:deskcolor="#d1d1d1" />
  <defs
     id="defs8">
    <style
       id="current-color-scheme"
       type="text/css">&#10;      .ColorScheme-Highlight {&#10;        color:#1e3f5a;&#10;      }&#10;  </style>
  </defs>
  <path
     class="ColorScheme-Highlight"
     style="fill:#bde6fb;fill-opacity:1;stroke-width:0.264583"
     d="M 6.3499999,0 A 6.3499999,6.3499999 0 0 0 0,6.3499999 6.3499999,6.3499999 0 0 0 6.3499999,12.7 6.3499999,6.3499999 0 0 0 12.7,6.3499999 6.3499999,6.3499999 0 0 0 6.3499999,0 Z m 0,0.79374999 A 5.5562499,5.5562499 0 0 1 11.90625,6.3499999 5.5562499,5.5562499 0 0 1 6.3499999,11.90625 5.5562499,5.5562499 0 0 1 0.79374999,6.3499999 5.5562499,5.5562499 0 0 1 6.3499999,0.79374999 Z M 9.7895832,2.6458333 6.0854166,3.2990234 v 2.4277587 0.3586345 h 3.3072916 0.396875 z M 5.5562499,3.3920408 2.6458333,3.905188 V 6.0854166 H 5.5562499 V 5.6337646 Z M 2.6458333,6.6145833 v 2.210201 l 2.9104166,0.513147 V 7.0962075 6.6145833 Z m 3.4395833,0 V 7.00319 9.4309487 L 7.6078042,9.6991494 A 2.2489583,2.2489583 0 0 1 7.5003172,9.5492878 2.2489583,2.2489583 0 0 1 7.3881794,9.3544677 2.2489583,2.2489583 0 0 1 7.2967121,9.1493122 2.2489583,2.2489583 0 0 1 7.2259155,8.9358887 2.2489583,2.2489583 0 0 1 7.1763061,8.7167804 2.2489583,2.2489583 0 0 1 7.1494342,8.4935382 2.2489583,2.2489583 0 0 1 7.1437499,8.3343749 2.2489583,2.2489583 0 0 1 7.1551191,8.1100992 2.2489583,2.2489583 0 0 1 7.1887087,7.8873738 2.2489583,2.2489583 0 0 1 7.2440024,7.6698159 2.2489583,2.2489583 0 0 1 7.3215171,7.4584593 2.2489583,2.2489583 0 0 1 7.4191857,7.2564045 2.2489583,2.2489583 0 0 1 7.5364911,7.064685 2.2489583,2.2489583 0 0 1 7.6724001,6.8853679 2.2489583,2.2489583 0 0 1 7.8258791,6.7210368 2.2489583,2.2489583 0 0 1 7.9473183,6.6145833 Z m 3.3072916,0 A 1.7197915,1.7197915 0 0 0 7.6729166,8.3343749 1.7197915,1.7197915 0 0 0 9.3927082,10.054167 1.7197915,1.7197915 0 0 0 11.1125,8.3343749 1.7197915,1.7197915 0 0 0 9.3927082,6.6145833 Z m 0,0.4015258 0.2997232,0.9306925 0.8909016,-0.0093 L 9.8603799,8.4682168 10.159587,9.3973591 9.3761718,8.8232339 8.5943074,9.3973591 8.9028158,8.476485 8.2020832,7.9628213 l 0.8764323,-0.0093 z"
     id="path826" />
</svg>
