<?xml version="1.0" encoding="UTF-8" standalone="no"?>
<svg
   width="47.357479"
   height="47.357479"
   viewBox="0 0 12.53 12.53"
   version="1.1"
   id="svg4"
   sodipodi:docname="winemine.svg"
   inkscape:version="0.92.4 (5da689c313, 2019-01-14)"
   xmlns:inkscape="http://www.inkscape.org/namespaces/inkscape"
   xmlns:sodipodi="http://sodipodi.sourceforge.net/DTD/sodipodi-0.dtd"
   xmlns="http://www.w3.org/2000/svg"
   xmlns:svg="http://www.w3.org/2000/svg"
   xmlns:rdf="http://www.w3.org/1999/02/22-rdf-syntax-ns#"
   xmlns:cc="http://creativecommons.org/ns#"
   xmlns:dc="http://purl.org/dc/elements/1.1/">
  <metadata
     id="metadata10">
    <rdf:RDF>
      <cc:Work
         rdf:about="">
        <dc:format>image/svg+xml</dc:format>
        <dc:type
           rdf:resource="http://purl.org/dc/dcmitype/StillImage" />
        <dc:title />
      </cc:Work>
    </rdf:RDF>
  </metadata>
  <defs
     id="defs8" />
  <sodipodi:namedview
     pagecolor="#ffffff"
     bordercolor="#666666"
     borderopacity="1"
     objecttolerance="10"
     gridtolerance="10"
     guidetolerance="10"
     inkscape:pageopacity="0"
     inkscape:pageshadow="2"
     inkscape:window-width="1087"
     inkscape:window-height="480"
     id="namedview6"
     showgrid="false"
     inkscape:zoom="4.9166667"
     inkscape:cx="2.1355932"
     inkscape:cy="24"
     inkscape:window-x="0"
     inkscape:window-y="25"
     inkscape:window-maximized="0"
     inkscape:current-layer="svg4"
     inkscape:showpageshadow="0"
     inkscape:pagecheckerboard="0"
     inkscape:deskcolor="#d1d1d1" />
  <path
     d="M 6.26,0 A 6.27,6.27 0 0 0 0,6.26 6.27,6.27 0 0 0 6.26,12.53 6.27,6.27 0 0 0 12.53,6.26 6.27,6.27 0 0 0 6.26,0 Z M 6.25,0.92 a 5.39,5.39 0 0 1 5.37,5.4 5.39,5.39 0 0 1 -5.38,5.39 5.39,5.39 0 0 1 -5.4,-5.4 5.39,5.39 0 0 1 5.4,-5.38 z M 5.82,2.02 5.72,3.29 A 3.02,3.02 0 0 0 4.55,3.77 L 3.6,2.94 2.95,3.59 3.78,4.54 A 3.02,3.02 0 0 0 3.3,5.72 L 2.04,5.81 v 0.9 L 3.3,6.81 A 3.02,3.02 0 0 0 3.78,7.98 L 2.95,8.93 3.6,9.57 4.55,8.75 a 3.02,3.02 0 0 0 1.18,0.48 l 0.09,1.26 h 0.9 L 6.78,9.71 A 2.12,2.12 0 0 1 6.75,9.67 2.12,2.12 0 0 1 6.62,9.5 2.12,2.12 0 0 1 6.51,9.32 2.12,2.12 0 0 1 6.41,9.13 2.12,2.12 0 0 1 6.34,8.93 2.12,2.12 0 0 1 6.29,8.73 2.12,2.12 0 0 1 6.26,8.52 2.12,2.12 0 0 1 6.25,8.31 2.12,2.12 0 0 1 6.25,8.16 2.12,2.12 0 0 1 6.28,7.95 2.12,2.12 0 0 1 6.33,7.75 2.12,2.12 0 0 1 6.39,7.55 2.12,2.12 0 0 1 6.48,7.35 2.12,2.12 0 0 1 6.58,7.16 2.12,2.12 0 0 1 6.71,6.99 2.12,2.12 0 0 1 6.85,6.83 2.12,2.12 0 0 1 7,6.69 2.12,2.12 0 0 1 7.17,6.56 2.12,2.12 0 0 1 7.35,6.45 a 2.12,2.12 0 0 1 0.2,-0.1 2.12,2.12 0 0 1 0.2,-0.06 2.12,2.12 0 0 1 0.2,-0.06 2.12,2.12 0 0 1 0.2,-0.03 2.12,2.12 0 0 1 0.22,0 2.12,2.12 0 0 1 0.15,0 2.12,2.12 0 0 1 0.2,0.02 2.12,2.12 0 0 1 0.21,0.05 2.12,2.12 0 0 1 0.2,0.06 2.12,2.12 0 0 1 0.2,0.1 2.12,2.12 0 0 1 0.18,0.1 2.12,2.12 0 0 1 0.17,0.12 2.12,2.12 0 0 1 0.13,0.11 l 0.7,-0.05 V 5.81 L 9.24,5.71 A 3.02,3.02 0 0 0 8.76,4.54 L 9.59,3.59 8.94,2.94 7.99,3.77 A 3.02,3.02 0 0 0 6.81,3.29 L 6.72,2.04 H 5.82 Z M 5.7,4.32 A 1.06,1.06 0 0 1 6.75,5.38 1.06,1.06 0 0 1 5.7,6.44 1.06,1.06 0 0 1 4.64,5.38 1.06,1.06 0 0 1 5.7,4.32 Z M 8.37,6.48 A 1.85,1.85 0 0 0 6.51,8.32 1.85,1.85 0 0 0 8.37,10.17 1.85,1.85 0 0 0 10.22,8.32 1.85,1.85 0 0 0 8.37,6.47 Z m -1,0.79 H 8.13 Z M 7.5,7.4 h 0.66 c 0.03,0 0.05,0.03 0.05,0.06 v 0.66 c 0,0.03 -0.02,0.05 -0.05,0.05 H 7.5 A 0.05,0.05 0 0 1 7.44,8.12 V 7.46 C 7.44,7.43 7.46,7.4 7.5,7.4 Z m 1.08,0 h 0.66 c 0.03,0 0.05,0.03 0.05,0.06 v 0.66 c 0,0.03 -0.02,0.05 -0.05,0.05 H 8.58 A 0.06,0.06 0 0 1 8.52,8.12 V 7.46 C 8.52,7.43 8.55,7.4 8.58,7.4 Z M 7.5,8.47 h 0.66 c 0.03,0 0.05,0.03 0.05,0.06 v 0.66 c 0,0.03 -0.02,0.05 -0.05,0.05 H 7.5 A 0.05,0.05 0 0 1 7.44,9.19 V 8.52 C 7.44,8.49 7.46,8.46 7.5,8.46 Z m 1.08,0 h 0.66 c 0.03,0 0.05,0.03 0.05,0.06 v 0.66 c 0,0.03 -0.02,0.05 -0.05,0.05 H 8.58 A 0.05,0.05 0 0 1 8.52,9.19 V 8.52 c 0,-0.03 0.03,-0.06 0.06,-0.06 z"
     id="path2"
     inkscape:connector-curvature="0"
     style="fill:#bde6fb;fill-opacity:1" />
</svg>
