<?xml version="1.0" encoding="UTF-8" standalone="no"?>
<svg
   width="47.54644"
   height="47.546432"
   version="1.1"
   viewBox="0 0 12.579996 12.579994"
   id="svg10"
   sodipodi:docname="winusb.svg"
   inkscape:version="0.92.4 (5da689c313, 2019-01-14)"
   xmlns:inkscape="http://www.inkscape.org/namespaces/inkscape"
   xmlns:sodipodi="http://sodipodi.sourceforge.net/DTD/sodipodi-0.dtd"
   xmlns:xlink="http://www.w3.org/1999/xlink"
   xmlns="http://www.w3.org/2000/svg"
   xmlns:svg="http://www.w3.org/2000/svg"
   xmlns:rdf="http://www.w3.org/1999/02/22-rdf-syntax-ns#"
   xmlns:cc="http://creativecommons.org/ns#"
   xmlns:dc="http://purl.org/dc/elements/1.1/">
  <metadata
     id="metadata16">
    <rdf:RDF>
      <cc:Work
         rdf:about="">
        <dc:format>image/svg+xml</dc:format>
        <dc:type
           rdf:resource="http://purl.org/dc/dcmitype/StillImage" />
        <dc:title />
      </cc:Work>
    </rdf:RDF>
  </metadata>
  <defs
     id="defs14">
    <linearGradient
       id="swatch2"
       inkscape:swatch="solid">
      <stop
         style="stop-color:#bde6fb;stop-opacity:1;"
         offset="0"
         id="stop2" />
    </linearGradient>
    <linearGradient
       id="swatch1"
       inkscape:swatch="solid">
      <stop
         style="stop-color:#bde6fb;stop-opacity:1;"
         offset="0"
         id="stop1" />
    </linearGradient>
    <linearGradient
       inkscape:collect="always"
       xlink:href="#swatch1"
       id="linearGradient1"
       x1="0.050261296"
       y1="6.3597584"
       x2="12.630256"
       y2="6.3597584"
       gradientUnits="userSpaceOnUse" />
    <linearGradient
       inkscape:collect="always"
       xlink:href="#swatch2"
       id="linearGradient2"
       x1="2.2899001"
       y1="6.0457916"
       x2="10.374694"
       y2="6.0457916"
       gradientUnits="userSpaceOnUse"
       gradientTransform="translate(0.0502613,0.06976181)" />
    <linearGradient
       inkscape:collect="always"
       xlink:href="#swatch2"
       id="linearGradient3"
       gradientUnits="userSpaceOnUse"
       x1="2.2899001"
       y1="6.0457916"
       x2="10.374694"
       y2="6.0457916"
       gradientTransform="translate(0.0502613,0.06976181)" />
    <linearGradient
       inkscape:collect="always"
       xlink:href="#swatch2"
       id="linearGradient4"
       gradientUnits="userSpaceOnUse"
       x1="2.2899001"
       y1="6.0457916"
       x2="10.374694"
       y2="6.0457916"
       gradientTransform="translate(0.0502613,0.06976181)" />
  </defs>
  <sodipodi:namedview
     pagecolor="#ffffff"
     bordercolor="#666666"
     borderopacity="1"
     objecttolerance="10"
     gridtolerance="10"
     guidetolerance="10"
     inkscape:pageopacity="0"
     inkscape:pageshadow="2"
     inkscape:window-width="1136"
     inkscape:window-height="480"
     id="namedview12"
     showgrid="false"
     inkscape:zoom="4.9166667"
     inkscape:cx="2.1355932"
     inkscape:cy="24"
     inkscape:window-x="0"
     inkscape:window-y="25"
     inkscape:window-maximized="0"
     inkscape:current-layer="svg10"
     inkscape:showpageshadow="0"
     inkscape:pagecheckerboard="0"
     inkscape:deskcolor="#d1d1d1" />
  <path
     d="M 6.2898693,0 A 6.2898603,6.2898603 0 0 0 8.9036681e-6,6.3004435 6.2898603,6.2898603 0 0 0 6.2999233,12.579985 6.2898603,6.2898603 0 0 0 12.579995,6.2901249 6.2898603,6.2898603 0 0 0 6.2901339,2.6457731e-4 Z m -0.020154,0.93015745 0.00982,0.009818 A 5.3998132,5.3998132 0 0 1 11.679612,6.3400536 5.3998132,5.3998132 0 0 1 6.279534,11.749921 5.3998132,5.3998132 0 0 1 0.86966669,6.349843 5.3998132,5.3998132 0 0 1 6.2697445,0.93018629 Z M 4.0099379,3.1899352 V 3.9402577 H 5.1297463 V 3.1899352 Z m 3.3495828,0 V 3.9402577 H 8.4798583 V 3.1899352 Z M 4.0099379,5.7902539 V 6.5400737 H 7.3095151 A 2.0499658,2.0499658 0 0 0 6.8997336,6.9198782 H 4.3800324 V 7.659882 H 6.5095839 A 2.0499658,2.0499658 0 0 0 6.4398221,8.0298707 H 4.750029 V 8.7801931 H 6.5095919 A 2.0499658,2.0499658 0 0 0 8.4799985,10.270016 2.0499658,2.0499658 0 0 0 10.519646,8.2200508 2.0499658,2.0499658 0 0 0 8.4799985,6.170085 V 5.8000963 l -4.4700791,-0.00982 z m 3.399853,1.2841391 h 0.8288762 c 0.037689,0 0.063044,0.038274 0.063044,0.075964 v 0.8288763 c 0,0.037689 -0.025359,0.062012 -0.063044,0.062012 H 7.4097909 A 0.06281129,0.06281129 0 0 1 7.3343433,7.9792328 V 7.1503565 c 0,-0.037689 0.025195,-0.075953 0.075448,-0.075964 z m 1.3565017,0 h 0.8288762 c 0.037689,0 0.063044,0.038274 0.063044,0.075964 v 0.8288763 c 0,0.037689 -0.025367,0.062012 -0.063044,0.062012 H 8.7662926 A 0.07537355,0.07537355 0 0 1 8.6908449,7.9792328 V 7.1503565 c 0,-0.037689 0.037761,-0.075953 0.075448,-0.075964 z M 7.4097909,8.406077 v 0.012402 h 0.8288762 c 0.037689,0 0.063044,0.037758 0.063044,0.075448 v 0.8288763 c 0,0.037689 -0.025359,0.063044 -0.063044,0.063044 H 7.4097909 A 0.06281129,0.06281129 0 0 1 7.3343433,9.3228031 V 8.481518 c 0,-0.037689 0.025195,-0.075448 0.075448,-0.075448 z m 1.3565017,0 v 0.012402 h 0.8288762 c 0.037689,0 0.063044,0.037758 0.063044,0.075448 v 0.8288763 c 0,0.037689 -0.025367,0.063044 -0.063044,0.063044 H 8.7662926 A 0.06281129,0.06281129 0 0 1 8.6908449,9.3228031 V 8.481518 c 0,-0.037689 0.037761,-0.075448 0.075448,-0.075448 z"
     id="path2"
     style="fill:url(#linearGradient1);stroke-width:0.99998"
     inkscape:connector-curvature="0" />
  <g
     id="g8"
     style="fill:url(#linearGradient2);stroke:#1e3f5a;stroke-width:0.56"
     transform="translate(-0.0502613,-0.06976181)">
    <path
       d="m 2.9399,4.9398 c -0.2,0 -0.37,0.16 -0.37,0.37 V 9.03 c 0,0.2 0.17,0.37982 0.37,0.37982 l 4.0131,0.02064 0.099952,-1.1434 3.0344,0.026571 -0.07708,-3.0039 c -0.0051,-0.19993 -0.16001,-0.37 -0.37001,-0.37 z"
       id="path4"
       style="fill:url(#linearGradient3);stroke:#fffbfb;stroke-opacity:1"
       inkscape:connector-curvature="0" />
    <path
       d="M 3.5,2.6598 V 4.9201 H 9.1002 V 2.6598 Z"
       id="path6"
       style="fill:url(#linearGradient4);stroke:#fffbfb;stroke-opacity:1"
       inkscape:connector-curvature="0" />
  </g>
</svg>
