<?xml version="1.0" encoding="UTF-8" standalone="no"?>
<svg
   width="48"
   height="48"
   viewBox="0 0 12.7 12.7"
   version="1.1"
   id="svg4"
   sodipodi:docname="wireshark.svg"
   inkscape:version="0.92.5 (2060ec1f9f, 2020-04-08)"
   xmlns:inkscape="http://www.inkscape.org/namespaces/inkscape"
   xmlns:sodipodi="http://sodipodi.sourceforge.net/DTD/sodipodi-0.dtd"
   xmlns="http://www.w3.org/2000/svg"
   xmlns:svg="http://www.w3.org/2000/svg">
  <sodipodi:namedview
     id="namedview1"
     pagecolor="#505050"
     bordercolor="#eeeeee"
     borderopacity="1"
     inkscape:showpageshadow="0"
     inkscape:pageopacity="0"
     inkscape:pagecheckerboard="0"
     inkscape:deskcolor="#d1d1d1" />
  <defs
     id="defs8">
    <style
       id="current-color-scheme"
       type="text/css">&#10;      .ColorScheme-Highlight {&#10;        color:#1e3f5a;&#10;      }&#10;  </style>
  </defs>
  <path
     class="ColorScheme-Highlight"
     style="fill:#bde6fb;fill-opacity:1;stroke-width:0.264583"
     d="M 6.3499999,0 C 2.8429918,0 0,2.8429918 0,6.3499999 0,9.857008 2.8429918,12.7 6.3499999,12.7 9.857008,12.7 12.7,9.857008 12.7,6.3499999 12.7,2.8429918 9.857008,0 6.3499999,0 Z m 0,0.79374999 c 3.0686322,0 5.5562501,2.48761781 5.5562501,5.55624991 -0.0023,0.6313445 -0.112259,1.2576731 -0.325045,1.8520833 H 10.847917 8.6945596 C 8.5945471,7.9718957 7.4145549,5.2816413 8.8247843,3.1517455 8.8618863,3.0884413 8.8726493,3.0131001 8.8547566,2.9419394 8.8447792,2.8977113 8.8242075,2.8565689 8.7948118,2.82205 8.7384413,2.7608503 8.6577674,2.7278988 8.5746703,2.732133 6.5784848,2.7146176 4.7484754,3.8413803 3.8653971,5.6316975 3.1655742,6.9318599 3.0651648,8.0020582 3.0551106,8.2020832 H 1.8520833 1.1177612 C 0.90532703,7.6076116 0.79575479,6.9812849 0.79374999,6.3499999 c 0,-3.0686321 2.48761781,-5.55624991 5.55624991,-5.55624991 z M 8.1814127,3.3424315 c -1.2115271,2.447396 0.063562,5.249292 0.063562,5.249292 l 0.039791,0.040308 c 0.040217,0.06985 0.1019969,0.089165 0.1819011,0.099219 h 2.3812502 0.514697 C 10.444011,10.667839 8.493408,11.903355 6.3499999,11.90625 4.2062183,11.903754 2.2551152,10.668176 1.3363525,8.7312499 h 0.5157308 v 0 l 1.3322035,0.00265 c 0.079904,1.582e-4 0.2311284,-0.021643 0.2811346,-0.081703 0.02947,-0.034667 0.050046,-0.075995 0.059945,-0.120406 v -0.029973 c 0,0 0.1295548,-1.2996785 0.8195882,-2.599841 0.7310663,-1.4761198 2.1927836,-2.45132 3.8364581,-2.5595375 z"
     id="path817"
     inkscape:connector-curvature="0" />
</svg>
