<?xml version="1.0" encoding="UTF-8" standalone="no"?>
<svg
   width="48"
   height="48"
   viewBox="0 0 12.7 12.7"
   version="1.1"
   id="svg4"
   sodipodi:docname="wmtweaks.svg"
   inkscape:version="0.92.5 (2060ec1f9f, 2020-04-08)"
   xmlns:inkscape="http://www.inkscape.org/namespaces/inkscape"
   xmlns:sodipodi="http://sodipodi.sourceforge.net/DTD/sodipodi-0.dtd"
   xmlns="http://www.w3.org/2000/svg"
   xmlns:svg="http://www.w3.org/2000/svg">
  <sodipodi:namedview
     id="namedview1"
     pagecolor="#505050"
     bordercolor="#eeeeee"
     borderopacity="1"
     inkscape:showpageshadow="0"
     inkscape:pageopacity="0"
     inkscape:pagecheckerboard="0"
     inkscape:deskcolor="#d1d1d1" />
  <defs
     id="defs8">
    <style
       id="current-color-scheme"
       type="text/css">&#10;      .ColorScheme-Highlight {&#10;        color:#1e3f5a;&#10;      }&#10;  </style>
  </defs>
  <path
     class="ColorScheme-Highlight"
     style="fill:#bde6fb;fill-opacity:1;stroke-width:0.264583"
     d="M 6.3499999,0 A 6.3499999,6.3499999 0 0 0 0,6.3499999 6.3499999,6.3499999 0 0 0 6.3499999,12.7 6.3499999,6.3499999 0 0 0 12.7,6.3499999 6.3499999,6.3499999 0 0 0 6.3499999,0 Z m 0,0.79374999 A 5.5562499,5.5562499 0 0 1 11.90625,6.3499999 5.5562499,5.5562499 0 0 1 10.60297,9.926009 L 10.153385,9.476424 C 10.255538,9.3428538 10.31875,9.1777247 10.31875,8.9958332 V 3.7041666 c 0,-0.4397375 -0.3540124,-0.79375 -0.7937501,-0.79375 H 3.175 c -0.4397378,0 -0.79375,0.3540125 -0.79375,0.79375 v 5.2916666 c 0,0.4397375 0.3540122,0.79375 0.79375,0.79375 H 8.9694783 L 9.8453939,10.665499 A 5.5562499,5.5562499 0 0 1 6.3499999,11.90625 5.5562499,5.5562499 0 0 1 0.79374999,6.3499999 5.5562499,5.5562499 0 0 1 6.3499999,0.79374999 Z M 2.9104166,4.2333333 h 6.8791666 c 0.1465792,0 0.2645838,0.1242422 0.2645838,0.2785358 V 9.246464 c 0,0.038995 -0.0076,0.075918 -0.02119,0.1095539 L 7.1602864,6.483325 A 1.0583332,1.0583332 0 0 0 6.8874348,5.4621988 1.0583332,1.0583332 0 0 0 6.1231404,5.1531736 1.0583332,1.0583332 0 0 0 5.8657918,5.1893472 l 0.6475058,0.6469891 c 0.051824,0.051824 0.076998,0.119436 0.076998,0.1870686 0,0.067633 -0.025175,0.1352452 -0.076998,0.1870686 L 6.1386433,6.584611 c -0.051824,0.051823 -0.119436,0.077514 -0.1870686,0.077515 -0.067633,0 -0.1352452,-0.025691 -0.1870688,-0.077515 L 5.1175171,5.9376219 a 1.0583332,1.0583332 0 0 0 0.2728515,1.0211263 1.0583332,1.0583332 0 0 0 1.021643,0.2728516 L 8.704895,9.5249999 H 2.9104166 c -0.1465791,0 -0.2645833,-0.1242423 -0.2645833,-0.2785359 V 4.5118691 c 0,-0.1542936 0.1180042,-0.2785358 0.2645833,-0.2785358 z"
     id="path833" />
</svg>
