<?xml version="1.0" encoding="UTF-8" standalone="no"?>
<svg
   width="47.542679"
   height="47.550236"
   viewBox="0 0 12.579 12.581"
   version="1.1"
   id="svg4"
   sodipodi:docname="wordlists.svg"
   inkscape:version="0.92.5 (2060ec1f9f, 2020-04-08)"
   xmlns:inkscape="http://www.inkscape.org/namespaces/inkscape"
   xmlns:sodipodi="http://sodipodi.sourceforge.net/DTD/sodipodi-0.dtd"
   xmlns="http://www.w3.org/2000/svg"
   xmlns:svg="http://www.w3.org/2000/svg"
   xmlns:rdf="http://www.w3.org/1999/02/22-rdf-syntax-ns#"
   xmlns:cc="http://creativecommons.org/ns#"
   xmlns:dc="http://purl.org/dc/elements/1.1/">
  <metadata
     id="metadata10">
    <rdf:RDF>
      <cc:Work
         rdf:about="">
        <dc:format>image/svg+xml</dc:format>
        <dc:type
           rdf:resource="http://purl.org/dc/dcmitype/StillImage" />
        <dc:title />
      </cc:Work>
    </rdf:RDF>
  </metadata>
  <defs
     id="defs8" />
  <sodipodi:namedview
     pagecolor="#ffffff"
     bordercolor="#666666"
     borderopacity="1"
     objecttolerance="10"
     gridtolerance="10"
     guidetolerance="10"
     inkscape:pageopacity="0"
     inkscape:pageshadow="2"
     inkscape:window-width="1085"
     inkscape:window-height="480"
     id="namedview6"
     showgrid="false"
     inkscape:zoom="4.9166667"
     inkscape:cx="2.1355932"
     inkscape:cy="24"
     inkscape:window-x="0"
     inkscape:window-y="25"
     inkscape:window-maximized="0"
     inkscape:current-layer="svg4"
     inkscape:showpageshadow="0"
     inkscape:pagecheckerboard="0"
     inkscape:deskcolor="#d1d1d1" />
  <path
     d="M 6.285,9.9999905e-4 A 6.295,6.295 0 0 0 0,6.286 6.295,6.295 0 0 0 6.285,12.581 6.295,6.295 0 0 0 12.579,6.286 6.295,6.295 0 0 0 12.107,3.913 h -1.016 a 5.408,5.408 0 0 1 0.58,2.415 5.407,5.407 0 0 1 -10.814,0 c 0,-2.987 2.43,-5.387 5.417,-5.387 A 5.408,5.408 0 0 1 9.362,1.92 H 10.8 A 6.295,6.295 0 0 0 6.285,0 Z M 3.135,2.781 v 0.42 h 0.582 l 1.538,5.45 H 5.9 L 7.244,3.879 8.588,8.651 H 9.233 L 10.77,3.203 h 0.577 v -0.42 h -1.69 v 0.42 h 0.676 L 9.103,7.59 7.743,2.783 H 7.105 L 5.769,7.536 4.547,3.202 h 0.73 V 2.782 H 3.136 Z m 0.008,1.284 a 0.489,0.489 0 1 0 0,0.977 h 0.53 L 3.398,4.065 Z m 2.1,0 0.275,0.977 h 0.5 L 6.292,4.065 h -1.05 z m -2.1,1.55 a 0.489,0.489 0 1 0 0,0.978 H 4.111 L 3.835,5.616 H 3.143 Z m 2.537,0 0.088,0.314 0.088,-0.313 H 5.68 Z M 7.243,5.876 7.041,6.593 h 0.404 z m -4.1,1.29 a 0.489,0.489 0 1 0 0,0.978 H 4.548 L 4.273,7.167 h -1.13 z m 3.736,0 -0.275,0.978 H 7.882 L 7.607,7.167 H 6.879 Z M 3.143,8.719 a 0.489,0.489 0 1 0 0,0.977 H 7.922 A 0.489,0.489 0 0 0 8.409,9.301 0.489,0.489 0 0 1 8.399,9.297 0.489,0.489 0 0 1 8.355,9.276 0.489,0.489 0 0 1 8.313,9.25 0.489,0.489 0 0 1 8.274,9.221 0.489,0.489 0 0 1 8.238,9.188 0.489,0.489 0 0 1 8.205,9.151 0.489,0.489 0 0 1 8.177,9.111 0.489,0.489 0 0 1 8.153,9.07 0.489,0.489 0 0 1 8.133,9.025 0.489,0.489 0 0 1 8.117,8.979 L 8.047,8.734 A 0.489,0.489 0 0 0 7.922,8.719 H 6.442 L 6.369,8.979 A 0.489,0.489 0 0 1 6.354,9.023 0.489,0.489 0 0 1 6.334,9.068 0.489,0.489 0 0 1 6.31,9.11 0.489,0.489 0 0 1 6.282,9.15 0.489,0.489 0 0 1 6.25,9.187 0.489,0.489 0 0 1 6.214,9.22 0.489,0.489 0 0 1 6.174,9.25 0.489,0.489 0 0 1 6.134,9.275 0.489,0.489 0 0 1 6.089,9.296 0.489,0.489 0 0 1 6.043,9.314 0.489,0.489 0 0 1 5.996,9.325 0.489,0.489 0 0 1 5.948,9.333 0.489,0.489 0 0 1 5.898,9.335 H 5.255 A 0.489,0.489 0 0 1 5.208,9.333 0.489,0.489 0 0 1 5.16,9.325 0.489,0.489 0 0 1 5.113,9.314 0.489,0.489 0 0 1 5.067,9.297 0.489,0.489 0 0 1 5.023,9.277 0.489,0.489 0 0 1 4.981,9.25 0.489,0.489 0 0 1 4.942,9.222 0.489,0.489 0 0 1 4.906,9.188 0.489,0.489 0 0 1 4.873,9.152 0.489,0.489 0 0 1 4.845,9.112 0.489,0.489 0 0 1 4.821,9.07 0.489,0.489 0 0 1 4.801,9.025 0.489,0.489 0 0 1 4.784,8.979 L 4.711,8.719 Z"
     id="path2"
     inkscape:connector-curvature="0"
     style="fill:#bde6fb;fill-opacity:1" />
</svg>
