<?xml version="1.0" encoding="UTF-8" standalone="no"?>
<svg
   width="47.546486"
   height="47.546486"
   viewBox="0 0 12.580008 12.580008"
   version="1.1"
   id="svg4"
   sodipodi:docname="wordpress.svg"
   inkscape:version="0.92.4 (5da689c313, 2019-01-14)"
   xmlns:inkscape="http://www.inkscape.org/namespaces/inkscape"
   xmlns:sodipodi="http://sodipodi.sourceforge.net/DTD/sodipodi-0.dtd"
   xmlns="http://www.w3.org/2000/svg"
   xmlns:svg="http://www.w3.org/2000/svg"
   xmlns:rdf="http://www.w3.org/1999/02/22-rdf-syntax-ns#"
   xmlns:cc="http://creativecommons.org/ns#"
   xmlns:dc="http://purl.org/dc/elements/1.1/">
  <metadata
     id="metadata10">
    <rdf:RDF>
      <cc:Work
         rdf:about="">
        <dc:format>image/svg+xml</dc:format>
        <dc:type
           rdf:resource="http://purl.org/dc/dcmitype/StillImage" />
        <dc:title />
      </cc:Work>
    </rdf:RDF>
  </metadata>
  <defs
     id="defs8" />
  <sodipodi:namedview
     pagecolor="#ffffff"
     bordercolor="#666666"
     borderopacity="1"
     objecttolerance="10"
     gridtolerance="10"
     guidetolerance="10"
     inkscape:pageopacity="0"
     inkscape:pageshadow="2"
     inkscape:window-width="1087"
     inkscape:window-height="480"
     id="namedview6"
     showgrid="false"
     inkscape:zoom="4.9166667"
     inkscape:cx="2.1355932"
     inkscape:cy="24"
     inkscape:window-x="0"
     inkscape:window-y="25"
     inkscape:window-maximized="0"
     inkscape:current-layer="svg4"
     inkscape:showpageshadow="0"
     inkscape:pagecheckerboard="0"
     inkscape:deskcolor="#d1d1d1" />
  <path
     d="M 6.2900079,0 A 6.29,6.29 0 0 0 7.9490244e-6,6.3 6.29,6.29 0 0 0 6.3000079,12.58 6.29,6.29 0 0 0 12.580008,6.29 6.29,6.29 0 0 0 6.2900079,0 Z m -0.02,0.93 0.01,0.01 A 5.4,5.4 0 0 1 11.680008,6.34 5.4,5.4 0 0 1 6.2800079,11.75 5.4,5.4 0 0 1 0.87000795,6.35 5.4,5.4 0 0 1 6.2700079,0.93 Z m 0.03,0.85 a 4.5,4.5 0 0 0 -4.5,4.5 4.5,4.5 0 0 0 4.5,4.5 4.5,4.5 0 0 0 4.5000001,-4.5 4.5,4.5 0 0 0 -4.5000001,-4.5 z m 0,0.27 a 4.23,4.23 0 0 1 3.07,1.32 h -0.24 c -0.42,0 -0.72,0.36 -0.72,0.75 0,0.35 0.2,0.55 0.42,0.9 0.17,0.28 0.36,0.65 0.36,1.18 0,0.36 -0.14,0.79 -0.33,1.38 l -0.43,1.42 -1.54,-4.57 0.6,-0.01 c 0.22,-0.03 0.2,-0.55 -0.03,-0.54 0,0 -0.8,0.06 -1.25,0.06 -0.42,0 -1.3,-0.06 -1.3,-0.06 -0.24,-0.01 -0.27,0.53 -0.04,0.54 l 0.64,0.01 0.66,1.8 -0.93,2.8 -1.56,-4.57 0.62,-0.04 c 0.23,-0.03 0.2,-0.52 -0.02,-0.51 0,0 -0.83,0.05 -1.28,0.05 h -0.24 a 4.23,4.23 0 0 1 3.54,-1.91 z m 3.7000001,2.17 a 4.23,4.23 0 0 1 0.53,2.06 4.23,4.23 0 0 1 -2.0000001,3.6 l 1.22,-3.55 C 10.000008,5.73 10.000008,5.23 10.000008,4.8 V 4.23 Z m -7.5300001,0.27 -0.07,0.18 1.95,5.36 a 4.23,4.23 0 0 0 0.8,0.32 l 1.23,-3.56 1.27,3.5 0.45,-0.18 a 4.23,4.23 0 0 1 -0.45,0.18 4.23,4.23 0 0 1 -1.35,0.22 4.23,4.23 0 0 1 -1.15,-0.16 4.23,4.23 0 0 1 -0.4,-0.14 4.23,4.23 0 0 1 -0.4,-0.18 4.23,4.23 0 0 1 -2.28,-3.75 4.23,4.23 0 0 1 0.4,-1.79 z m 5.85,5.5 a 4.23,4.23 0 0 1 -0.22,0.11 l 0.22,-0.1 z"
     id="path2"
     inkscape:connector-curvature="0"
     style="fill:#bde6fb;fill-opacity:1" />
</svg>
