<?xml version="1.0" encoding="UTF-8" standalone="no"?>
<svg
   width="47.542679"
   height="47.546455"
   viewBox="0 0 12.579 12.58"
   version="1.1"
   id="svg8"
   sodipodi:docname="wpscan.svg"
   inkscape:version="0.92.5 (2060ec1f9f, 2020-04-08)"
   xmlns:inkscape="http://www.inkscape.org/namespaces/inkscape"
   xmlns:sodipodi="http://sodipodi.sourceforge.net/DTD/sodipodi-0.dtd"
   xmlns="http://www.w3.org/2000/svg"
   xmlns:svg="http://www.w3.org/2000/svg"
   xmlns:rdf="http://www.w3.org/1999/02/22-rdf-syntax-ns#"
   xmlns:cc="http://creativecommons.org/ns#"
   xmlns:dc="http://purl.org/dc/elements/1.1/">
  <metadata
     id="metadata14">
    <rdf:RDF>
      <cc:Work
         rdf:about="">
        <dc:format>image/svg+xml</dc:format>
        <dc:type
           rdf:resource="http://purl.org/dc/dcmitype/StillImage" />
        <dc:title />
      </cc:Work>
    </rdf:RDF>
  </metadata>
  <defs
     id="defs12" />
  <sodipodi:namedview
     pagecolor="#ffffff"
     bordercolor="#666666"
     borderopacity="1"
     objecttolerance="10"
     gridtolerance="10"
     guidetolerance="10"
     inkscape:pageopacity="0"
     inkscape:pageshadow="2"
     inkscape:window-width="1085"
     inkscape:window-height="480"
     id="namedview10"
     showgrid="false"
     inkscape:zoom="4.9166667"
     inkscape:cx="2.1355932"
     inkscape:cy="24"
     inkscape:window-x="0"
     inkscape:window-y="25"
     inkscape:window-maximized="0"
     inkscape:current-layer="svg8"
     inkscape:showpageshadow="0"
     inkscape:pagecheckerboard="0"
     inkscape:deskcolor="#d1d1d1" />
  <path
     d="M 6.285,0 A 6.295,6.295 0 0 0 0,6.285 6.295,6.295 0 0 0 6.285,12.58 6.295,6.295 0 0 0 12.579,6.285 6.295,6.295 0 0 0 6.285,0 Z M 6.274,0.94 a 5.408,5.408 0 0 1 5.397,5.387 5.407,5.407 0 0 1 -10.814,0 C 0.857,3.34 3.287,0.94 6.274,0.94 Z M 6.323,5.176 A 1.056,1.056 0 0 0 6.049,5.211 1.058,1.058 0 0 0 5.306,5.995 1.081,1.081 0 0 0 5.483,6.863 C 5.49,6.867 5.497,6.88 5.497,6.891 5.497,6.903 5.281,7.109 5.017,7.349 4.754,7.589 4.529,7.8 4.517,7.818 4.48,7.87 4.487,7.964 4.533,8.018 a 0.242,0.242 0 0 0 0.07,0.058 C 4.65,8.096 4.687,8.092 4.737,8.065 4.763,8.051 4.942,7.866 5.135,7.655 5.328,7.442 5.528,7.225 5.578,7.17 L 5.67,7.07 5.718,7.1 c 0.2,0.132 0.391,0.191 0.621,0.191 0.302,0 0.53,-0.094 0.743,-0.305 A 0.977,0.977 0 0 0 7.396,6.281 1.018,1.018 0 0 0 7.177,5.582 1.105,1.105 0 0 0 6.601,5.202 1.092,1.092 0 0 0 6.323,5.176 Z M 6.339,5.41 c 0.18,0 0.31,0.04 0.457,0.138 0.222,0.149 0.35,0.37 0.367,0.639 A 0.778,0.778 0 0 1 6.921,6.813 0.766,0.766 0 0 1 6.536,7.036 C 6.433,7.062 6.246,7.063 6.14,7.038 A 0.886,0.886 0 0 1 5.602,6.608 0.825,0.825 0 0 1 6.339,5.41 Z M 6.837,6.245 6.827,6.306 A 0.524,0.524 0 0 1 6.416,6.718 l -0.062,0.01 v 0.07 c 0,0.07 0,0.071 0.048,0.071 A 0.673,0.673 0 0 0 6.659,6.793 0.906,0.906 0 0 0 6.885,6.576 0.715,0.715 0 0 0 6.979,6.296 V 6.245 Z"
     id="path2"
     inkscape:connector-curvature="0"
     style="fill:#bde6fb;fill-opacity:1" />
  <path
     d="M 6.295,4.367 1.529,7.201 6.293,10.033 11.059,7.201 9.503,6.276 6.295,8.183 5.497,7.709 5.36,7.859 A 13.413,13.413 0 0 1 4.994,8.244 0.47,0.47 0 0 1 4.764,8.368 0.609,0.609 0 0 1 4.487,8.358 C 4.413,8.328 4.398,8.308 4.373,8.287 A 0.588,0.588 0 0 1 4.3,8.214 0.462,0.462 0 0 1 4.19,7.943 0.431,0.431 0 0 1 4.267,7.643 C 4.312,7.58 4.304,7.599 4.315,7.589 L 4.351,7.552 4.465,7.445 4.695,7.232 3.086,6.276 6.295,4.368 Z"
     id="path4"
     inkscape:connector-curvature="0"
     style="opacity:0.75;fill:#2b62c0" />
  <path
     d="M 6.295,2.517 1.531,5.349 3.088,6.275 6.295,4.368 9.503,6.275 11.06,5.348 Z"
     id="path6"
     inkscape:connector-curvature="0"
     style="opacity:0.75;fill:#30aa93" />
</svg>
