<?xml version="1.0" encoding="UTF-8" standalone="no"?>
<svg
   width="47.546486"
   height="47.546486"
   viewBox="0 0 12.580008 12.580008"
   version="1.1"
   id="svg4"
   sodipodi:docname="wxcas.svg"
   inkscape:version="0.92.4 (5da689c313, 2019-01-14)"
   xmlns:inkscape="http://www.inkscape.org/namespaces/inkscape"
   xmlns:sodipodi="http://sodipodi.sourceforge.net/DTD/sodipodi-0.dtd"
   xmlns="http://www.w3.org/2000/svg"
   xmlns:svg="http://www.w3.org/2000/svg"
   xmlns:rdf="http://www.w3.org/1999/02/22-rdf-syntax-ns#"
   xmlns:cc="http://creativecommons.org/ns#"
   xmlns:dc="http://purl.org/dc/elements/1.1/">
  <metadata
     id="metadata10">
    <rdf:RDF>
      <cc:Work
         rdf:about="">
        <dc:format>image/svg+xml</dc:format>
        <dc:type
           rdf:resource="http://purl.org/dc/dcmitype/StillImage" />
        <dc:title />
      </cc:Work>
    </rdf:RDF>
  </metadata>
  <defs
     id="defs8" />
  <sodipodi:namedview
     pagecolor="#ffffff"
     bordercolor="#666666"
     borderopacity="1"
     objecttolerance="10"
     gridtolerance="10"
     guidetolerance="10"
     inkscape:pageopacity="0"
     inkscape:pageshadow="2"
     inkscape:window-width="1087"
     inkscape:window-height="480"
     id="namedview6"
     showgrid="false"
     inkscape:zoom="4.9166667"
     inkscape:cx="2.1355932"
     inkscape:cy="24"
     inkscape:window-x="0"
     inkscape:window-y="25"
     inkscape:window-maximized="0"
     inkscape:current-layer="svg4"
     inkscape:showpageshadow="0"
     inkscape:pagecheckerboard="0"
     inkscape:deskcolor="#d1d1d1" />
  <path
     d="M 6.2900079,0 A 6.29,6.29 0 0 0 7.9490244e-6,6.3 6.29,6.29 0 0 0 6.3000079,12.58 6.29,6.29 0 0 0 12.580008,6.29 a 6.29,6.29 0 0 0 -0.79,-3.05 l 0.7,-1.21 a 0.58,0.58 0 0 0 -0.5,-0.88 h -0.01 c -0.2,0 -0.39,0.11 -0.5,0.3 l -0.42,0.74 A 6.29,6.29 0 0 0 6.2900079,0 Z m -0.01,0.94 a 5.4,5.4 0 0 1 4.2800001,2.11 l -2.3500001,4.08 -1.82,-3.15 a 0.6,0.6 0 0 0 -0.08,-0.11 l -0.01,-0.02 h -0.01 V 3.83 l -0.02,-0.02 a 0.58,0.58 0 0 0 -0.35,-0.14 h -0.05 -0.02 -0.02 a 0.58,0.58 0 0 0 -0.34,0.14 l -0.02,0.02 -0.01,0.01 -0.02,0.02 a 0.51,0.51 0 0 0 -0.08,0.11 l -1.81,3.16 -0.67,-1.15 a 0.58053854,0.58053854 0 1 0 -1,0.59 l 1.16,2.01 c 0.12,0.2 0.33,0.3 0.55,0.3 a 0.58,0.58 0 0 0 0.46,-0.3 l 1.83,-3.15 1.81,3.15 0.06,0.08 0.01,0.02 0.02,0.01 c 0.14,0.16 0.35,0.22 0.55,0.18 h 0.03 l 0.01,-0.01 h 0.02 l 0.01,-0.01 a 0.59,0.59 0 0 0 0.17,-0.09 l 0.01,-0.01 0.02,-0.02 c 0.05,-0.05 0.1,-0.1 0.12,-0.16 L 11.240008,4.22 a 5.4,5.4 0 0 1 0.44,2.14 5.4,5.4 0 0 1 -5.4000001,5.4 A 5.4,5.4 0 0 1 0.87000795,6.36 5.4,5.4 0 0 1 6.2700079,0.93 Z"
     id="path2"
     inkscape:connector-curvature="0"
     style="fill:#bde6fb;fill-opacity:1" />
</svg>
