<?xml version="1.0" encoding="UTF-8" standalone="no"?>
<svg
   width="48"
   height="48"
   viewBox="0 0 12.7 12.7"
   version="1.1"
   id="svg4"
   sodipodi:docname="x.svg"
   inkscape:version="0.92.5 (2060ec1f9f, 2020-04-08)"
   xmlns:inkscape="http://www.inkscape.org/namespaces/inkscape"
   xmlns:sodipodi="http://sodipodi.sourceforge.net/DTD/sodipodi-0.dtd"
   xmlns="http://www.w3.org/2000/svg"
   xmlns:svg="http://www.w3.org/2000/svg">
  <sodipodi:namedview
     id="namedview1"
     pagecolor="#505050"
     bordercolor="#eeeeee"
     borderopacity="1"
     inkscape:showpageshadow="0"
     inkscape:pageopacity="0"
     inkscape:pagecheckerboard="0"
     inkscape:deskcolor="#d1d1d1" />
  <defs
     id="defs8">
    <style
       id="current-color-scheme"
       type="text/css">&#10;      .ColorScheme-Highlight {&#10;        color:#1e3f5a;&#10;      }&#10;  </style>
  </defs>
  <path
     class="ColorScheme-Highlight"
     style="fill:#bde6fb;fill-opacity:1;stroke-width:0.264583"
     d="M 6.3499999,0 A 6.3499999,6.3499999 0 0 0 0,6.3499999 6.3499999,6.3499999 0 0 0 6.3499999,12.7 6.3499999,6.3499999 0 0 0 12.7,6.3499999 6.3499999,6.3499999 0 0 0 6.3499999,0 Z m 0,0.79374999 A 5.5562499,5.5562499 0 0 1 11.90625,6.3499999 5.5562499,5.5562499 0 0 1 6.3499999,11.90625 5.5562499,5.5562499 0 0 1 0.79374999,6.3499999 5.5562499,5.5562499 0 0 1 6.3499999,0.79374999 Z M 3.5434529,3.0137695 c -0.1352651,0 -0.2704902,0.051899 -0.3741372,0.1555462 -0.2072945,0.2072941 -0.2072945,0.5409803 0,0.7482747 L 5.6017252,6.3499999 3.1693157,8.7824095 c -0.2072945,0.2072944 -0.2072945,0.5409805 0,0.7482747 0.2072941,0.2072944 0.5409803,0.2072941 0.7482747,0 L 6.3499999,7.0982747 8.7824095,9.5306842 c 0.2072944,0.2072944 0.5409805,0.2072944 0.7482747,0 0.2072944,-0.2072942 0.2072944,-0.5409803 0,-0.7482747 L 7.0982747,6.3499999 9.5306842,3.9175904 c 0.2072944,-0.2072944 0.2072944,-0.5409806 0,-0.7482747 -0.2072942,-0.2072945 -0.5409803,-0.2072945 -0.7482747,0 L 6.3499999,5.6017252 3.9175904,3.1693157 C 3.813943,3.0656686 3.6787179,3.0137695 3.5434529,3.0137695 Z"
     id="path817" />
</svg>
