<?xml version="1.0" encoding="UTF-8" standalone="no"?>
<svg
   width="48"
   height="48"
   viewBox="0 0 12.7 12.7"
   version="1.1"
   id="svg4"
   sodipodi:docname="xfburn.svg"
   inkscape:version="0.92.5 (2060ec1f9f, 2020-04-08)"
   xmlns:inkscape="http://www.inkscape.org/namespaces/inkscape"
   xmlns:sodipodi="http://sodipodi.sourceforge.net/DTD/sodipodi-0.dtd"
   xmlns="http://www.w3.org/2000/svg"
   xmlns:svg="http://www.w3.org/2000/svg">
  <sodipodi:namedview
     id="namedview1"
     pagecolor="#505050"
     bordercolor="#eeeeee"
     borderopacity="1"
     inkscape:showpageshadow="0"
     inkscape:pageopacity="0"
     inkscape:pagecheckerboard="0"
     inkscape:deskcolor="#d1d1d1" />
  <defs
     id="defs8">
    <style
       id="current-color-scheme"
       type="text/css">&#10;      .ColorScheme-Highlight {&#10;        color:#1e3f5a;&#10;      }&#10;  </style>
  </defs>
  <path
     class="ColorScheme-Highlight"
     style="fill:#bde6fb;fill-opacity:1"
     d="M 6.3499996,0 A 6.35,6.35 0 0 0 0,6.35 6.35,6.35 0 0 0 6.3499996,12.7 6.35,6.35 0 0 0 12.7,6.35 6.35,6.35 0 0 0 6.3499996,0 Z m 0,3.4395833 A 2.9104167,2.9104167 0 0 1 9.2604163,6.35 2.9104167,2.9104167 0 0 1 6.3499996,9.2604167 2.9104167,2.9104167 0 0 1 3.4395827,6.35 2.9104167,2.9104167 0 0 1 6.3499996,3.4395833 Z m 0,1.0583334 A 1.8520833,1.8520833 0 0 0 4.4979166,6.35 1.8520833,1.8520833 0 0 0 6.3499996,8.2020833 1.8520833,1.8520833 0 0 0 8.2020829,6.35 1.8520833,1.8520833 0 0 0 6.3499996,4.4979167 Z m 0,0.79375 A 1.0583333,1.0583333 0 0 1 7.4083329,6.35 1.0583333,1.0583333 0 0 1 6.3499996,7.4083333 1.0583333,1.0583333 0 0 1 5.2916666,6.35 1.0583333,1.0583333 0 0 1 6.3499996,5.2916667 Z"
     id="path835" />
  <path
     d="m 8.4666665,3.4395833 c 0,0 2.1600005,1 2.3500005,3.38 0.13,1.7 -0.1,2.43 -0.24,2.71 a 0.64000002,0.64000002 0 0 1 -0.1,0.15 4.4800001,4.4800001 0 0 0 1.12,-3.23 c 0,0 1.189999,1.6799999 0.779999,3.3500002 -0.41,1.6700005 -1.709999,2.6799995 -1.709999,2.6799995 0,0 0.37,-1.38 0.37,-2.01 0,0 -0.7,0.52 -1.0800011,0.63 0,0 -0.9999997,-1.3799997 -0.8499997,-3.1399996 0,0 -2.1200008,1.2 -1.1200004,4.5199996 0,0 -2.4999999,-1.75 -1.2000001,-4.4999997 1.3100001,-2.75 1.8699998,-3.09 1.6800008,-4.54 z"
     id="path6"
     inkscape:connector-curvature="0"
     style="fill:#ff2a2a" />
</svg>
