<?xml version="1.0" encoding="UTF-8" standalone="no"?>
<svg
   width="48"
   height="48"
   viewBox="0 0 12.7 12.7"
   version="1.1"
   id="svg4"
   sodipodi:docname="xfce4-fsguard-plugin-warning.svg"
   inkscape:version="0.92.5 (2060ec1f9f, 2020-04-08)"
   xmlns:inkscape="http://www.inkscape.org/namespaces/inkscape"
   xmlns:sodipodi="http://sodipodi.sourceforge.net/DTD/sodipodi-0.dtd"
   xmlns="http://www.w3.org/2000/svg"
   xmlns:svg="http://www.w3.org/2000/svg">
  <sodipodi:namedview
     id="namedview1"
     pagecolor="#505050"
     bordercolor="#eeeeee"
     borderopacity="1"
     inkscape:showpageshadow="0"
     inkscape:pageopacity="0"
     inkscape:pagecheckerboard="0"
     inkscape:deskcolor="#d1d1d1" />
  <defs
     id="defs8">
    <style
       id="current-color-scheme"
       type="text/css">&#10;      .ColorScheme-Highlight {&#10;        color:#1e3f5a;&#10;      }&#10;  </style>
  </defs>
  <path
     class="ColorScheme-Highlight"
     style="fill:#bde6fb;fill-opacity:1;stroke-width:0.264583"
     d="M 6.3499999,0 A 6.3499999,6.3499999 0 0 0 0,6.3499999 6.3499999,6.3499999 0 0 0 6.3499999,12.7 6.3499999,6.3499999 0 0 0 6.485909,12.693282 L 6.8951863,11.873694 A 5.5562499,5.5562499 0 0 1 6.3499999,11.90625 5.5562499,5.5562499 0 0 1 0.79374999,6.3499999 5.5562499,5.5562499 0 0 1 6.3499999,0.79374999 5.5562499,5.5562499 0 0 1 11.90625,6.3499999 5.5562499,5.5562499 0 0 1 11.239624,8.9860148 L 11.66027,9.8267902 A 6.3499999,6.3499999 0 0 0 12.7,6.3499999 6.3499999,6.3499999 0 0 0 6.3499999,0 Z M 3.175,2.38125 c -0.1465792,0 -0.2645834,0.1229997 -0.2645834,0.2759522 v 6.0740477 1.190625 c 0,0.2198691 0.1180042,0.3968751 0.2645834,0.3968751 h 2.1166666 2.38125 L 9.7895832,6.0854166 V 2.6572022 C 9.7895832,2.5042497 9.6715788,2.38125 9.5249999,2.38125 Z M 6.3499999,3.175 a 2.3812498,2.3812498 0 0 1 2.38125,2.3812499 2.3812498,2.3812498 0 0 1 -2.38125,2.38125 H 3.96875 v -2.38125 A 2.3812498,2.3812498 0 0 1 6.3499999,3.175 Z m 0,1.0583333 A 1.3229165,1.3229165 0 0 0 5.0270833,5.5562499 1.3229165,1.3229165 0 0 0 6.3499999,6.8791666 1.3229165,1.3229165 0 0 0 7.6729166,5.5562499 1.3229165,1.3229165 0 0 0 6.3499999,4.2333333 Z M 9.7895832,7.1437499 7.1437499,12.435417 h 2.6458333 2.6458338 z m -0.2645833,1.5875 H 10.054167 V 10.847917 H 9.5249999 Z m 0,2.6458331 H 10.054167 V 11.90625 H 9.5249999 Z"
     id="path879" />
</svg>
