<?xml version="1.0" encoding="UTF-8" standalone="no"?>
<svg
   width="47.546486"
   height="47.546486"
   viewBox="0 0 12.580008 12.580008"
   version="1.1"
   id="svg4"
   sodipodi:docname="xfce4-logo.svg"
   inkscape:version="0.92.4 (5da689c313, 2019-01-14)"
   xmlns:inkscape="http://www.inkscape.org/namespaces/inkscape"
   xmlns:sodipodi="http://sodipodi.sourceforge.net/DTD/sodipodi-0.dtd"
   xmlns="http://www.w3.org/2000/svg"
   xmlns:svg="http://www.w3.org/2000/svg"
   xmlns:rdf="http://www.w3.org/1999/02/22-rdf-syntax-ns#"
   xmlns:cc="http://creativecommons.org/ns#"
   xmlns:dc="http://purl.org/dc/elements/1.1/">
  <metadata
     id="metadata10">
    <rdf:RDF>
      <cc:Work
         rdf:about="">
        <dc:format>image/svg+xml</dc:format>
        <dc:type
           rdf:resource="http://purl.org/dc/dcmitype/StillImage" />
        <dc:title />
      </cc:Work>
    </rdf:RDF>
  </metadata>
  <defs
     id="defs8" />
  <sodipodi:namedview
     pagecolor="#ffffff"
     bordercolor="#666666"
     borderopacity="1"
     objecttolerance="10"
     gridtolerance="10"
     guidetolerance="10"
     inkscape:pageopacity="0"
     inkscape:pageshadow="2"
     inkscape:window-width="1087"
     inkscape:window-height="480"
     id="namedview6"
     showgrid="false"
     inkscape:zoom="4.9166667"
     inkscape:cx="2.1355932"
     inkscape:cy="24"
     inkscape:window-x="0"
     inkscape:window-y="25"
     inkscape:window-maximized="0"
     inkscape:current-layer="svg4"
     inkscape:showpageshadow="0"
     inkscape:pagecheckerboard="0"
     inkscape:deskcolor="#d1d1d1" />
  <path
     d="M 6.2900079,0 A 6.29,6.29 0 0 0 7.9490244e-6,6.3 6.29,6.29 0 0 0 6.3000079,12.58 6.29,6.29 0 0 0 12.580008,6.29 6.29,6.29 0 0 0 6.2900079,0 Z m -0.01,0.94 A 5.4,5.4 0 0 1 11.680008,6.34 5.4,5.4 0 0 1 6.2800079,11.75 5.4,5.4 0 0 1 0.87000795,6.35 5.4,5.4 0 0 1 6.2700079,0.93 Z m 2.22,2.28 c -0.36,0.05 -0.53,2.27 -0.37,2.57 a 4.4,4.4 0 0 0 0.8,-1.33 c -0.09,0.27 -0.21,1.56 -0.16,1.57 0.1,0.14 1.5700001,-2.27 1.14,-2.45 -0.06,-0.02 -0.47,0.74 -0.81,1.5 0,-0.32 0.27,-1.32 0.16,-1.62 -0.22,-0.07 -0.63,0.88 -0.8,1.32 -0.05,-0.22 0.23,-1.45 0.04,-1.56 z m -3.23,0.23 c -0.11,0 -0.2,0.04 -0.23,0.04 -0.69,0.1 -0.48,1.07 -0.19,1.98 0.03,0.23 -0.22,0.14 -0.37,-0.1 -0.54,-1.31 -0.77,-1.27 -0.92,-1.3 -0.14,-0.04 -0.64,0.22 -0.63,0.75 0,0.15 0.2,0.87 0.2,1.09 -0.63,1.07 -0.89,2.14 -0.1,3.23 0.79,1.05 3.14,1.09 3.56,0.84 0.16,-0.11 2.56,-1.3 3.12,-1.75 0.8200001,-0.69 -0.03,-1.55 -0.22,-1.67 -1.71,-1.11 -3.46,-0.88 -3.48,-1.06 -0.02,-0.2 0,-0.77 -0.04,-0.97 -0.11,-0.95 -0.46,-1.08 -0.7,-1.08 z m 2.31,3.5 a 4.5,4.5 0 0 1 -0.92,1.27 6.5,6.5 0 0 1 1.4,-0.78 c 0.17,0.04 -1.44,2.13 -1.76,1.8 -0.05,-0.04 0.35,-0.62 1.01,-1.13 -0.3,0.13 -1.18,0.61 -1.5,0.63 -0.14,-0.18 0.78,-0.76 0.98,-1.1 -0.23,0.04 -1.43,0.6 -1.6,0.47 -0.1,-0.35 2.01,-0.96 2.4,-1.16 z"
     id="path2"
     inkscape:connector-curvature="0"
     style="fill:#bde6fb;fill-opacity:1;stroke-width:3.78" />
</svg>
