<?xml version="1.0" encoding="UTF-8" standalone="no"?>
<svg
   width="47.546486"
   height="47.546486"
   viewBox="0 0 12.580008 12.580008"
   version="1.1"
   id="svg13"
   sodipodi:docname="xhydra.svg"
   inkscape:version="0.92.4 (5da689c313, 2019-01-14)"
   xmlns:inkscape="http://www.inkscape.org/namespaces/inkscape"
   xmlns:sodipodi="http://sodipodi.sourceforge.net/DTD/sodipodi-0.dtd"
   xmlns="http://www.w3.org/2000/svg"
   xmlns:svg="http://www.w3.org/2000/svg"
   xmlns:rdf="http://www.w3.org/1999/02/22-rdf-syntax-ns#"
   xmlns:cc="http://creativecommons.org/ns#"
   xmlns:dc="http://purl.org/dc/elements/1.1/">
  <metadata
     id="metadata17">
    <rdf:RDF>
      <cc:Work
         rdf:about="">
        <dc:format>image/svg+xml</dc:format>
        <dc:type
           rdf:resource="http://purl.org/dc/dcmitype/StillImage" />
        <dc:title />
      </cc:Work>
    </rdf:RDF>
  </metadata>
  <sodipodi:namedview
     pagecolor="#ffffff"
     bordercolor="#666666"
     borderopacity="1"
     objecttolerance="10"
     gridtolerance="10"
     guidetolerance="10"
     inkscape:pageopacity="0"
     inkscape:pageshadow="2"
     inkscape:window-width="1087"
     inkscape:window-height="480"
     id="namedview15"
     showgrid="false"
     inkscape:zoom="4.9166667"
     inkscape:cx="2.1355932"
     inkscape:cy="24"
     inkscape:window-x="0"
     inkscape:window-y="25"
     inkscape:window-maximized="0"
     inkscape:current-layer="svg13"
     inkscape:showpageshadow="0"
     inkscape:pagecheckerboard="0"
     inkscape:deskcolor="#d1d1d1" />
  <defs
     id="defs7" />
  <path
     d="M 6.2900079,0 A 6.29,6.29 0 0 0 7.9490244e-6,6.3 6.29,6.29 0 0 0 6.3000079,12.58 6.29,6.29 0 0 0 12.580008,6.29 6.29,6.29 0 0 0 6.2900079,0 Z m -0.02,0.93 0.01,0.01 A 5.4,5.4 0 0 1 11.680008,6.34 5.4,5.4 0 0 1 6.2800079,11.75 5.4,5.4 0 0 1 0.87000795,6.35 5.4,5.4 0 0 1 6.2700079,0.93 Z"
     id="path9"
     inkscape:connector-curvature="0"
     style="fill:#bde6fb;fill-opacity:1" />
  <path
     d="m 5.0800079,1.99 c -0.13,0.01 -0.19,0.04 -0.24,0.1 -0.05,0.07 -0.1,0.09 -0.3,0.1 -0.15,0.02 -0.26,0.05 -0.3,0.08 a 0.57,0.57 0 0 0 -0.15,0.36 c 0,0.07 0,0.08 0.12,0.06 0.08,-0.01 0.19,0 0.25,0.02 0.1,0.03 0.11,0.05 0.08,0.08 -0.02,0.03 -0.1,0.02 -0.18,0.02 -0.17,0 -0.18,0.05 -0.07,0.18 l 0.08,0.1 0.13,-0.08 c 0.14,-0.08 0.25,-0.06 0.35,0 0.04,0.02 0.22,0.05 0.4,0.06 0.3,0.02 0.22,0.02 0.3,0.1 0.04,0.06 0.1,0.14 0.1,0.2 0,0.22 -0.15,0.6 -0.6,1.13 -0.22,0.26 -0.26,0.75 -0.26,0.88 0,0.04 -0.01,0.08 -0.03,0.1 -0.03,0.01 -0.05,-0.11 -0.08,-0.51 -0.04,-0.4 -0.11,-0.63 -0.28,-0.8 a 0.65,0.65 0 0 0 -0.3,-0.2 c -0.15,-0.04 -0.16,-0.07 -0.02,-0.13 0.05,-0.02 0.1,-0.05 0.1,-0.07 0,-0.04 -0.15,-0.07 -0.25,-0.05 -0.1,0.02 -0.1,0 -0.01,-0.1 0.17,-0.18 -0.13,-0.14 -0.44,0.07 -0.27,0.18 -0.44,0.37 -0.47,0.51 -0.02,0.09 -0.07,0.16 -0.19,0.27 -0.21,0.2 -0.26,0.3 -0.23,0.49 0.04,0.27 0.07,0.3 0.2,0.14 0.07,-0.1 0.26,-0.2 0.3,-0.16 0.03,0.04 -0.06,0.15 -0.16,0.21 -0.12,0.08 -0.12,0.13 0,0.17 0.13,0.05 0.15,0.03 0.22,-0.1 0.08,-0.16 0.17,-0.25 0.3,-0.3 0.07,-0.01 0.19,-0.1 0.27,-0.17 a 0.72,0.72 0 0 1 0.2,-0.14 c 0.06,0 0.19,0.15 0.22,0.28 0.02,0.07 0.05,0.35 0.07,0.61 0.06,0.84 0.14,0.95 0.45,1.61 0.1,0.21 0.17,0.4 0.17,0.43 0,0.04 -0.25,0.05 -0.44,0.07 -0.46,0.04 -0.65,0.2 -0.68,0.55 -0.01,0.13 0,0.2 0.04,0.29 0.1,0.17 0.15,0.17 0.12,-0.01 -0.02,-0.15 0.04,-0.25 0.08,-0.13 0.03,0.08 0.14,0.2 0.2,0.2 0.05,0 0.05,0 0,-0.1 -0.03,-0.1 0,-0.11 0.08,-0.04 0.09,0.06 0.12,0.03 0.1,-0.1 -0.04,-0.23 0.31,-0.42 0.73,-0.3 0.2,0.07 0.25,0.07 0.34,0.04 0.17,-0.06 0.41,-0.05 0.52,0.05 0.12,0.1 0.03,0.34 -0.05,0.45 -0.08,0.11 -0.2,0.16 -0.52,0.2 -0.15,0.02 -0.32,0.05 -0.36,0.08 a 0.37,0.37 0 0 0 -0.15,0.28 c 0,0.09 0.04,0.08 0.12,-0.01 0.04,-0.05 0.1,-0.09 0.14,-0.09 0.08,0 0.08,0.02 0,0.13 -0.06,0.07 -0.1,0.27 -0.05,0.27 0.01,0 0.07,-0.05 0.13,-0.12 0.06,-0.06 0.14,-0.11 0.18,-0.11 0.08,0 0.08,0.02 0.02,0.11 -0.05,0.07 -0.07,0.28 -0.03,0.28 0.02,0 0.06,-0.05 0.1,-0.1 0.06,-0.1 0.13,-0.15 0.4,-0.26 0.05,-0.03 0.27,-0.23 0.48,-0.45 0.37,-0.4 0.37,-0.4 0.36,-0.54 l -0.01,-0.14 0.38,-0.04 c 0.33,-0.12 0.51,-0.13 0.7,-0.03 0.27,0.14 0.51,0.37 0.48,0.59 -0.03,0.16 -0.12,0.47 -0.34,0.49 -0.53,-0.01 -1.28,0.33 -1.2,0.83 0.07,0.33 0.5,0.56 0.94,0.65 0.14,0.04 0.32,0.05 0.55,0.04 0.58,-0.03 0.95,-0.06 1.25,-0.37 0.12,-0.12 0.26,-0.4 0.31,-0.53 L 10.040008,9.82 V 9.07 l -0.7500001,0.33 0.4,0.23 c -0.05,0.03 -0.11,0.13 -0.18,0.2 -0.3,0.31 -0.51,0.31 -0.89,0.36 -0.3,0.04 -0.65,0 -0.86,-0.1 -0.18,-0.07 -0.31,-0.24 -0.31,-0.36 0,-0.12 0.14,-0.22 0.3,-0.23 0.46,-0.01 0.54,-0.06 0.54,-0.06 0.33,-0.1 0.64,-0.66 0.64,-1.02 0,-0.09 0.01,-0.2 0.03,-0.25 0.03,-0.07 0.01,-0.12 -0.08,-0.32 -0.08,-0.16 -0.1,-0.18 -0.1,-0.24 0.02,-0.06 0,-0.11 -0.17,-0.27 -0.17,-0.17 -0.18,-0.26 -0.15,-0.31 a 0.32,0.32 0 0 0 0.04,-0.08 0.9,0.9 0 0 0 -0.19,-0.12 l -0.27,-0.16 c -0.07,-0.05 -0.07,-0.07 -0.03,-0.12 0.02,-0.03 0.03,-0.06 0.02,-0.07 a 1.52,1.52 0 0 0 -0.27,-0.07 c -0.32,-0.06 -0.37,-0.08 -0.38,-0.2 0,-0.04 -0.02,-0.08 -0.03,-0.08 a 19,19 0 0 0 -0.35,0.06 c -0.35,0.06 -0.43,0.06 -0.43,-0.05 0,-0.08 0,-0.08 -0.22,0.03 -0.36,0.2 -0.65,0.08 -0.56,-0.22 l 0.14,-0.28 c 0.2,-0.3 0.6,-0.4 1.34,-0.43 0.4,-0.02 0.59,-0.04 0.7,-0.1 0.2,-0.08 0.63,-0.38 0.7,-0.53 0.04,-0.06 0.08,-0.12 0.1,-0.12 0.07,0 0.15,-0.14 0.15,-0.24 0,-0.15 0.07,-0.14 0.11,0.01 0.04,0.16 0.1,0.08 0.1,-0.11 0,-0.16 0.02,-0.18 0.1,-0.07 0.08,0.11 0.1,0.04 0.06,-0.19 a 3.45,3.45 0 0 0 -0.45,-0.88 c -0.04,-0.04 -0.33,-0.09 -0.38,-0.1 -0.07,-0.02 -0.16,-0.07 -0.26,-0.24 a 0.87,0.87 0 0 0 -0.23,-0.27 c -0.08,-0.04 -0.1,-0.04 -0.23,0.01 -0.16,0.06 -0.17,0.09 -0.1,0.15 0.07,0.06 0.18,0.3 0.18,0.4 0,0.07 0,0.07 -0.07,0 -0.03,-0.03 -0.14,-0.1 -0.17,-0.17 -0.04,-0.11 -0.05,-0.11 -0.1,-0.05 a 0.25,0.25 0 0 0 0.06,0.34 c 0.11,0.08 0.2,0.25 0.25,0.43 0,0.06 0.05,0.16 0.08,0.22 0.13,0.2 0.1,0.7 -0.1,0.8 a 2.6,2.6 0 0 1 -0.62,0.08 c -0.78,0.05 -1.14,0.15 -1.51,0.52 -0.18,0.17 -0.2,0.18 -0.17,0.09 0.03,-0.14 0.05,-0.34 0.37,-0.76 0.42,-0.54 0.47,-0.67 0.47,-1.06 0,-0.34 -0.15,-0.72 -0.5,-1 -0.08,-0.05 -0.13,-0.1 -0.12,-0.12 0,-0.02 0.08,-0.03 0.15,-0.03 0.15,0 0.16,-0.05 0,-0.14 a 1.87,1.87 0 0 0 -0.75,-0.12 z"
     id="path11"
     inkscape:connector-curvature="0"
     style="opacity:0.75;fill:#0ba05d" />
</svg>
