<?xml version="1.0" encoding="UTF-8" standalone="no"?>
<svg
   width="48"
   height="48"
   viewBox="0 0 12.7 12.7"
   version="1.1"
   id="svg4"
   sodipodi:docname="xmind.svg"
   inkscape:version="0.92.5 (2060ec1f9f, 2020-04-08)"
   xmlns:inkscape="http://www.inkscape.org/namespaces/inkscape"
   xmlns:sodipodi="http://sodipodi.sourceforge.net/DTD/sodipodi-0.dtd"
   xmlns="http://www.w3.org/2000/svg"
   xmlns:svg="http://www.w3.org/2000/svg">
  <sodipodi:namedview
     id="namedview1"
     pagecolor="#505050"
     bordercolor="#eeeeee"
     borderopacity="1"
     inkscape:showpageshadow="0"
     inkscape:pageopacity="0"
     inkscape:pagecheckerboard="0"
     inkscape:deskcolor="#d1d1d1" />
  <defs
     id="defs8">
    <style
       id="current-color-scheme"
       type="text/css">&#10;      .ColorScheme-Highlight {&#10;        color:#1e3f5a;&#10;      }&#10;  </style>
  </defs>
  <path
     class="ColorScheme-Highlight"
     style="fill:#bde6fb;fill-opacity:1;stroke-width:0.264583"
     d="M 6.3499999,0 A 6.3499999,6.3499999 0 0 0 0,6.3499999 6.3499999,6.3499999 0 0 0 6.3499999,12.7 6.3499999,6.3499999 0 0 0 12.7,6.3499999 6.3499999,6.3499999 0 0 0 6.3499999,0 Z m 0,0.79374999 A 5.5562499,5.5562499 0 0 1 11.90625,6.3499999 5.5562499,5.5562499 0 0 1 6.3499999,11.90625 5.5562499,5.5562499 0 0 1 0.79374999,6.3499999 5.5562499,5.5562499 0 0 1 6.3499999,0.79374999 Z M 4.7624999,3.96875 C 4.7450379,3.9690145 4.7256879,3.97036 4.7030719,3.97185 4.6173539,3.97732 2.999408,4.2804552 2.8964639,4.3103306 2.7876277,4.3418984 2.6948659,4.4082927 2.6721882,4.471562 2.6335193,4.5790818 2.7454243,4.9288871 2.8933634,5.1635093 3.4835494,5.8643572 4.138931,6.0421088 4.7811033,6.4197634 4.8548057,6.5061612 4.8839585,6.54823 4.3185995,6.7985515 3.4349888,7.1898144 3.1488959,7.5221776 2.9796631,8.0144981 2.929686,8.1599724 2.9067014,8.5450459 2.9419394,8.6418498 2.9876723,8.7673354 3.0152699,8.7924308 3.8690145,8.6304807 4.726637,8.4677871 4.6553212,8.4584626 4.7268431,8.390702 4.7850993,8.3355092 4.7887342,8.3221429 4.8141762,8.0610063 4.8288342,7.9113667 4.8591464,7.6190649 4.8813558,7.5416581 4.932849,7.3618973 5.062248,7.1743035 5.2033,7.0750199 5.7382401,6.6985305 6.7451535,6.8859031 7.2899941,7.4636267 c 0.2052984,0.2176819 0.3342995,0.528488 0.4371827,0.8660971 0.059365,0.1947966 0.1192869,0.2795495 0.212907,0.298173 0.086125,0.017108 0.088544,-0.00984 1.1797729,-0.2170412 0.607007,-0.1152559 0.8593222,-0.1711629 0.8950353,-0.1989542 0.07673,-0.059762 0.07702,-0.206389 5.29e-4,-0.4480346 C 9.8842461,7.3486657 9.6566441,7.0729352 9.2351073,6.7535927 9.026568,6.5956116 8.7637026,6.4461863 8.3178506,6.2326943 7.8937791,6.0296303 7.6915324,5.9748454 7.6915321,5.9117835 c 0,-0.052144 0.1664258,-0.075568 0.5028118,-0.1762167 0.7370842,-0.2205842 1.0924397,-0.5298247 1.0924397,-1.1027749 0,-0.2514351 -0.047647,-0.4545475 -0.1214395,-0.5203817 -0.098137,-0.087561 -0.2700589,-0.090028 -0.6821289,-0.015502 -1.32089,0.238851 -1.2299474,0.2292239 -1.2913939,0.328662 -0.032509,0.052586 -0.031345,0.064857 0.028422,0.3038575 0.034226,0.1370193 0.061699,0.3085343 0.061495,0.3482991 C 7.2812091,5.1623008 7.171666,5.3038175 7.1179241,5.3541957 6.9864236,5.4773926 6.6879003,5.5609015 6.3825685,5.5609015 c -0.3693001,0 -0.647074,-0.1268344 -0.923458,-0.421163 C 5.2593851,4.9270639 5.1574556,4.7210545 5.021399,4.3423705 4.9019211,4.0097778 4.8852904,3.9666161 4.7624999,3.96875 Z"
     id="path817" />
</svg>
