<?xml version="1.0" encoding="UTF-8" standalone="no"?>
<svg
   width="47.546455"
   height="47.546455"
   viewBox="0 0 12.58 12.58"
   version="1.1"
   id="svg4"
   sodipodi:docname="xnconvert.svg"
   inkscape:version="0.92.4 (5da689c313, 2019-01-14)"
   xmlns:inkscape="http://www.inkscape.org/namespaces/inkscape"
   xmlns:sodipodi="http://sodipodi.sourceforge.net/DTD/sodipodi-0.dtd"
   xmlns="http://www.w3.org/2000/svg"
   xmlns:svg="http://www.w3.org/2000/svg"
   xmlns:rdf="http://www.w3.org/1999/02/22-rdf-syntax-ns#"
   xmlns:cc="http://creativecommons.org/ns#"
   xmlns:dc="http://purl.org/dc/elements/1.1/">
  <metadata
     id="metadata10">
    <rdf:RDF>
      <cc:Work
         rdf:about="">
        <dc:format>image/svg+xml</dc:format>
        <dc:type
           rdf:resource="http://purl.org/dc/dcmitype/StillImage" />
        <dc:title />
      </cc:Work>
    </rdf:RDF>
  </metadata>
  <defs
     id="defs8" />
  <sodipodi:namedview
     pagecolor="#ffffff"
     bordercolor="#666666"
     borderopacity="1"
     objecttolerance="10"
     gridtolerance="10"
     guidetolerance="10"
     inkscape:pageopacity="0"
     inkscape:pageshadow="2"
     inkscape:window-width="1112"
     inkscape:window-height="480"
     id="namedview6"
     showgrid="false"
     inkscape:zoom="4.9166667"
     inkscape:cx="2.1355932"
     inkscape:cy="24"
     inkscape:window-x="0"
     inkscape:window-y="25"
     inkscape:window-maximized="0"
     inkscape:current-layer="svg4"
     inkscape:showpageshadow="0"
     inkscape:pagecheckerboard="0"
     inkscape:deskcolor="#d1d1d1" />
  <path
     d="m 6.29,0 a 6.29,6.29 0 0 0 0,12.58 A 6.29,6.29 0 0 0 6.29,0 Z M 6.27,0.93 a 5.417,5.417 0 0 1 5.41,5.41 5.4,5.4 0 0 1 -5.4,5.41 5.4,5.4 0 0 1 -5.41,-5.4 5.4,5.4 0 0 1 5.4,-5.42 z M 5.075,2.71 a 0.594,0.594 0 0 0 -0.54,0.75 l 0.23,0.864 C 4.565,4.444 4.379,4.58 4.206,4.729 L 3.546,4.069 A 0.59573757,0.59573757 0 1 0 2.704,4.912 L 3.37,5.578 c -0.294,0.33 -0.564,0.639 -0.832,0.841 -0.276,0.203 -0.276,0.71 0,0.914 1.182,0.736 1.976,2.524 3.761,2.519 h 0.002 c 1.785,0.005 2.58,-1.783 3.761,-2.52 0.276,-0.202 0.276,-0.71 0,-0.913 C 9.794,6.217 9.524,5.909 9.23,5.579 L 9.896,4.912 A 0.59573757,0.59573757 0 1 0 9.054,4.069 l -0.66,0.66 A 4.053,4.053 0 0 0 7.838,4.326 L 8.07,3.458 A 0.59526549,0.59526549 0 1 0 6.92,3.15 L 6.713,3.924 a 3.028,3.028 0 0 0 -0.822,0 L 5.685,3.15 A 0.594,0.594 0 0 0 5.075,2.71 Z M 6.3,4.691 A 2.183,2.183 0 0 1 8.4,6.279 H 7.33 A 1.19,1.19 0 0 0 6.3,5.684 1.19,1.19 0 0 0 5.11,6.874 1.19,1.19 0 0 0 6.3,8.064 1.19,1.19 0 0 0 7.33,7.47 H 8.398 A 2.183,2.183 0 0 1 6.3,9.058 2.183,2.183 0 0 1 4.117,6.875 2.183,2.183 0 0 1 6.3,4.692 Z"
     id="path2"
     inkscape:connector-curvature="0"
     style="fill:#bde6fb;fill-opacity:1" />
</svg>
