<?xml version="1.0" encoding="UTF-8" standalone="no"?>
<svg
   width="47.546486"
   height="47.546486"
   viewBox="0 0 12.580008 12.580008"
   version="1.1"
   id="svg4"
   sodipodi:docname="xnoise.svg"
   inkscape:version="0.92.4 (5da689c313, 2019-01-14)"
   xmlns:inkscape="http://www.inkscape.org/namespaces/inkscape"
   xmlns:sodipodi="http://sodipodi.sourceforge.net/DTD/sodipodi-0.dtd"
   xmlns="http://www.w3.org/2000/svg"
   xmlns:svg="http://www.w3.org/2000/svg"
   xmlns:rdf="http://www.w3.org/1999/02/22-rdf-syntax-ns#"
   xmlns:cc="http://creativecommons.org/ns#"
   xmlns:dc="http://purl.org/dc/elements/1.1/">
  <metadata
     id="metadata10">
    <rdf:RDF>
      <cc:Work
         rdf:about="">
        <dc:format>image/svg+xml</dc:format>
        <dc:type
           rdf:resource="http://purl.org/dc/dcmitype/StillImage" />
        <dc:title />
      </cc:Work>
    </rdf:RDF>
  </metadata>
  <defs
     id="defs8" />
  <sodipodi:namedview
     pagecolor="#ffffff"
     bordercolor="#666666"
     borderopacity="1"
     objecttolerance="10"
     gridtolerance="10"
     guidetolerance="10"
     inkscape:pageopacity="0"
     inkscape:pageshadow="2"
     inkscape:window-width="1087"
     inkscape:window-height="480"
     id="namedview6"
     showgrid="false"
     inkscape:zoom="4.9166667"
     inkscape:cx="2.1355932"
     inkscape:cy="24"
     inkscape:window-x="0"
     inkscape:window-y="25"
     inkscape:window-maximized="0"
     inkscape:current-layer="svg4"
     inkscape:showpageshadow="0"
     inkscape:pagecheckerboard="0"
     inkscape:deskcolor="#d1d1d1" />
  <path
     d="M 6.2900079,0 A 6.29,6.29 0 0 0 7.9490244e-6,6.3 6.29,6.29 0 0 0 6.3000079,12.58 6.29,6.29 0 0 0 12.580008,6.29 6.29,6.29 0 0 0 6.2900079,0 Z m -0.02,0.93 0.01,0.01 A 5.4,5.4 0 0 1 11.680008,6.34 5.4,5.4 0 0 1 6.2800079,11.75 5.4,5.4 0 0 1 0.87000795,6.35 5.4,5.4 0 0 1 6.2700079,0.93 Z m -3.5,2.45 a 0.205,0.205 0 1 0 0,0.41 c 0.42,0 0.71,0.14 0.97,0.37 0.26,0.23 0.48,0.55 0.7,0.89 0.22,0.33 0.44,0.68 0.73,0.96 0.1,0.1 0.22,0.2 0.36,0.27 -0.14,0.08 -0.25,0.17 -0.36,0.27 -0.29,0.28 -0.5,0.63 -0.73,0.96 a 4.3,4.3 0 0 1 -0.7,0.89 c -0.26,0.23 -0.55,0.37 -0.96,0.37 a 0.205,0.205 0 1 0 0,0.41 c 0.51,0 0.92,-0.2 1.24,-0.47 0.31,-0.28 0.55,-0.63 0.77,-0.97 0.22,-0.34 0.43,-0.66 0.67,-0.89 0.23,-0.23 0.48,-0.36 0.84,-0.36 0.36,0 0.6,0.13 0.84,0.36 0.24,0.23 0.45,0.55 0.67,0.9 0.22,0.33 0.46,0.68 0.77,0.96 0.32,0.28 0.73,0.47 1.24,0.47 a 0.205,0.205 0 1 0 0,-0.41 c -0.41,0 -0.7,-0.14 -0.96,-0.37 a 4.3,4.3 0 0 1 -0.7,-0.89 c -0.22,-0.33 -0.44,-0.68 -0.73,-0.96 -0.1,-0.1 -0.22,-0.2 -0.36,-0.27 0.14,-0.08 0.25,-0.17 0.36,-0.27 0.29,-0.28 0.5,-0.63 0.73,-0.96 0.22,-0.34 0.44,-0.66 0.7,-0.89 0.26,-0.23 0.55,-0.37 0.96,-0.37 a 0.205,0.205 0 1 0 0,-0.41 c -0.51,0 -0.92,0.2 -1.24,0.47 -0.31,0.28 -0.55,0.63 -0.77,0.97 -0.22,0.34 -0.43,0.66 -0.67,0.89 -0.23,0.23 -0.48,0.36 -0.84,0.36 -0.36,0 -0.6,-0.13 -0.84,-0.36 -0.24,-0.23 -0.45,-0.55 -0.67,-0.9 -0.22,-0.33 -0.46,-0.68 -0.77,-0.96 a 1.84,1.84 0 0 0 -1.24,-0.47 z"
     id="path2"
     inkscape:connector-curvature="0"
     style="fill:#bde6fb;fill-opacity:1" />
</svg>
