<?xml version="1.0" encoding="UTF-8" standalone="no"?>
<svg
   width="47.542679"
   height="47.546455"
   viewBox="0 0 12.579 12.58"
   version="1.1"
   id="svg4"
   sodipodi:docname="xonotic.svg"
   inkscape:version="0.92.5 (2060ec1f9f, 2020-04-08)"
   xmlns:inkscape="http://www.inkscape.org/namespaces/inkscape"
   xmlns:sodipodi="http://sodipodi.sourceforge.net/DTD/sodipodi-0.dtd"
   xmlns="http://www.w3.org/2000/svg"
   xmlns:svg="http://www.w3.org/2000/svg"
   xmlns:rdf="http://www.w3.org/1999/02/22-rdf-syntax-ns#"
   xmlns:cc="http://creativecommons.org/ns#"
   xmlns:dc="http://purl.org/dc/elements/1.1/">
  <metadata
     id="metadata10">
    <rdf:RDF>
      <cc:Work
         rdf:about="">
        <dc:format>image/svg+xml</dc:format>
        <dc:type
           rdf:resource="http://purl.org/dc/dcmitype/StillImage" />
        <dc:title />
      </cc:Work>
    </rdf:RDF>
  </metadata>
  <defs
     id="defs8" />
  <sodipodi:namedview
     pagecolor="#ffffff"
     bordercolor="#666666"
     borderopacity="1"
     objecttolerance="10"
     gridtolerance="10"
     guidetolerance="10"
     inkscape:pageopacity="0"
     inkscape:pageshadow="2"
     inkscape:window-width="1085"
     inkscape:window-height="480"
     id="namedview6"
     showgrid="false"
     inkscape:zoom="4.9166667"
     inkscape:cx="2.1355932"
     inkscape:cy="24"
     inkscape:window-x="0"
     inkscape:window-y="25"
     inkscape:window-maximized="0"
     inkscape:current-layer="svg4"
     inkscape:showpageshadow="0"
     inkscape:pagecheckerboard="0"
     inkscape:deskcolor="#d1d1d1" />
  <path
     d="M 6.285,0 A 6.295,6.295 0 0 0 0,6.285 6.295,6.295 0 0 0 6.285,12.58 6.295,6.295 0 0 0 12.579,6.285 6.295,6.295 0 0 0 6.285,0 Z m -0.01,0.94 a 5.408,5.408 0 0 1 5.396,5.387 5.407,5.407 0 1 1 -10.814,0 C 0.857,3.34 3.287,0.94 6.274,0.94 Z M 8.198,2.255 A 3.897,3.897 0 0 1 7.035,9.483 c -0.24,0.046 -0.533,1.114 -0.742,1.114 -0.208,0 -0.5,-1.068 -0.74,-1.114 A 3.897,3.897 0 0 1 4.386,2.257 4.456,4.456 0 0 0 1.839,6.282 4.456,4.456 0 0 0 6.294,10.736 4.456,4.456 0 0 0 10.749,6.282 4.457,4.457 0 0 0 8.199,2.255 Z M 7.447,3.475 C 6.264,3.665 4.749,5.143 3.274,6.33 L 5.088,5.493 4.039,6.608 4.945,6.184 c -0.297,0.586 -0.265,1.6 -1.244,1.8 0.51,0.504 1.165,0.862 1.897,1.002 0.349,0.067 0.593,0.748 0.697,0.748 0.104,0 0.348,-0.681 0.697,-0.748 A 3.683,3.683 0 0 0 8.947,7.925 C 6.357,7.957 6.521,5.33 8.809,4.755 8.632,4.591 8.045,4.622 7.564,4.698 7.648,4.138 8.442,3.87 9.029,3.942 8.694,3.602 8.285,3.356 7.608,3.639 Z M 7.121,3.946 7.298,4.121 C 7.068,4.315 6.863,4.328 6.669,4.154 Z"
     id="path2"
     inkscape:connector-curvature="0"
     style="fill:#bde6fb;fill-opacity:1" />
</svg>
