<?xml version="1.0" encoding="UTF-8" standalone="no"?>
<svg
   width="47.546486"
   height="47.546486"
   viewBox="0 0 12.580008 12.580008"
   version="1.1"
   id="svg6"
   sodipodi:docname="xorg.svg"
   inkscape:version="0.92.4 (5da689c313, 2019-01-14)"
   xmlns:inkscape="http://www.inkscape.org/namespaces/inkscape"
   xmlns:sodipodi="http://sodipodi.sourceforge.net/DTD/sodipodi-0.dtd"
   xmlns="http://www.w3.org/2000/svg"
   xmlns:svg="http://www.w3.org/2000/svg"
   xmlns:rdf="http://www.w3.org/1999/02/22-rdf-syntax-ns#"
   xmlns:cc="http://creativecommons.org/ns#"
   xmlns:dc="http://purl.org/dc/elements/1.1/">
  <metadata
     id="metadata12">
    <rdf:RDF>
      <cc:Work
         rdf:about="">
        <dc:format>image/svg+xml</dc:format>
        <dc:type
           rdf:resource="http://purl.org/dc/dcmitype/StillImage" />
        <dc:title />
      </cc:Work>
    </rdf:RDF>
  </metadata>
  <defs
     id="defs10" />
  <sodipodi:namedview
     pagecolor="#ffffff"
     bordercolor="#666666"
     borderopacity="1"
     objecttolerance="10"
     gridtolerance="10"
     guidetolerance="10"
     inkscape:pageopacity="0"
     inkscape:pageshadow="2"
     inkscape:window-width="1087"
     inkscape:window-height="480"
     id="namedview8"
     showgrid="false"
     inkscape:zoom="4.9166667"
     inkscape:cx="2.1355932"
     inkscape:cy="24"
     inkscape:window-x="0"
     inkscape:window-y="25"
     inkscape:window-maximized="0"
     inkscape:current-layer="svg6"
     inkscape:showpageshadow="0"
     inkscape:pagecheckerboard="0"
     inkscape:deskcolor="#d1d1d1" />
  <path
     d="M 6.2900079,0 A 6.29,6.29 0 0 0 7.9490244e-6,6.3 6.29,6.29 0 0 0 6.3000079,12.58 6.29,6.29 0 0 0 12.580008,6.29 6.29,6.29 0 0 0 6.2900079,0 Z m -0.01,0.94 A 5.4,5.4 0 0 1 11.680008,6.34 5.4,5.4 0 0 1 6.2800079,11.75 5.4,5.4 0 0 1 0.87000795,6.35 5.4,5.4 0 0 1 6.2700079,0.93 Z m 2.93,1.69 -3.33,4.35 1.54,2.14 c 0.18,-0.03 0.37,-0.02 0.53,-0.07 0.34,-0.1 0.63,-0.26 0.9,-0.43 l -1.75,-2.45 2.7,-3.54 h -0.6 z m -6.49,0 2.77,3.87 -1.45,1.9 c 0.04,0.05 0.06,0.1 0.11,0.13 0.08,0.06 0.2,0.08 0.3,0.14 l 2.26,-3 -2.2,-3.04 h -1.8 z m 6.6,6.66 c -0.36,0.21 -0.74,0.41 -1.2,0.54 -0.05,0.02 -0.12,0.01 -0.17,0.02 l 0.12,0.18 h 1.78 l -0.52,-0.74 z m -5.97,0.04 -0.54,0.7 h 0.6 l 0.39,-0.5 c -0.15,-0.06 -0.31,-0.12 -0.45,-0.2 z"
     id="path2"
     inkscape:connector-curvature="0"
     style="fill:#bde6fb;fill-opacity:1" />
  <path
     d="m 6.3000079,4.03 c -0.21,0 -0.44,0.03 -0.65,0.05 l 1.02,1.34 c -0.2,-0.42 -0.6,-0.83 -0.46,-1.04 0.14,-0.2 0.4,-0.17 0.41,-0.17 0.41,0 0.8,0.05 1.18,0.13 l 0.08,-0.12 a 6.37,6.37 0 0 0 -1.58,-0.18 z m 2.22,0.4 -0.08,0.11 c 1.13,0.44 1.9000001,1.3 1.9000001,2.27 0,1.43 -1.6600001,2.6 -3.7200001,2.6 -2.05,0 -3.71,-1.17 -3.71,-2.6 0,-0.78 0.5,-1.48 1.27,-1.96 l -0.23,-0.37 c -1.23,0.52 -2.05,1.45 -2.05,2.47 0,1.62 1.97,2.93 4.4,2.93 2.43,0 4.4000001,-1.31 4.4000001,-2.93 0,-1.07 -0.8800001,-2.02 -2.1800001,-2.52 z"
     id="path4"
     inkscape:connector-curvature="0"
     style="opacity:0.75;fill:#bde6fb;fill-opacity:1" />
</svg>
