<?xml version="1.0" encoding="UTF-8" standalone="no"?>
<svg
   width="47.546455"
   height="47.546455"
   viewBox="0 0 12.58 12.58"
   version="1.1"
   id="svg4"
   sodipodi:docname="xournal.svg"
   inkscape:version="0.92.4 (5da689c313, 2019-01-14)"
   xmlns:inkscape="http://www.inkscape.org/namespaces/inkscape"
   xmlns:sodipodi="http://sodipodi.sourceforge.net/DTD/sodipodi-0.dtd"
   xmlns="http://www.w3.org/2000/svg"
   xmlns:svg="http://www.w3.org/2000/svg"
   xmlns:rdf="http://www.w3.org/1999/02/22-rdf-syntax-ns#"
   xmlns:cc="http://creativecommons.org/ns#"
   xmlns:dc="http://purl.org/dc/elements/1.1/">
  <metadata
     id="metadata10">
    <rdf:RDF>
      <cc:Work
         rdf:about="">
        <dc:format>image/svg+xml</dc:format>
        <dc:type
           rdf:resource="http://purl.org/dc/dcmitype/StillImage" />
        <dc:title />
      </cc:Work>
    </rdf:RDF>
  </metadata>
  <defs
     id="defs8" />
  <sodipodi:namedview
     pagecolor="#ffffff"
     bordercolor="#666666"
     borderopacity="1"
     objecttolerance="10"
     gridtolerance="10"
     guidetolerance="10"
     inkscape:pageopacity="0"
     inkscape:pageshadow="2"
     inkscape:window-width="1112"
     inkscape:window-height="480"
     id="namedview6"
     showgrid="false"
     inkscape:zoom="4.9166667"
     inkscape:cx="2.1355932"
     inkscape:cy="24"
     inkscape:window-x="0"
     inkscape:window-y="25"
     inkscape:window-maximized="0"
     inkscape:current-layer="svg4"
     inkscape:showpageshadow="0"
     inkscape:pagecheckerboard="0"
     inkscape:deskcolor="#d1d1d1" />
  <path
     d="m 6.29,0 a 6.29,6.29 0 0 0 0,12.58 A 6.29,6.29 0 0 0 6.29,0 Z M 6.27,0.93 a 5.417,5.417 0 0 1 5.41,5.41 5.4,5.4 0 0 1 -5.4,5.41 5.4,5.4 0 0 1 -5.41,-5.4 5.4,5.4 0 0 1 5.4,-5.42 z M 3.81,2.763 A 0.3,0.3 0 0 0 3.515,3.067 v 0.8 a 0.3,0.3 0 1 0 0.6,0 v -0.8 A 0.3,0.3 0 0 0 3.81,2.763 Z m 5.15,0.01 A 0.3,0.3 0 0 0 8.665,3.077 v 0.8 a 0.3,0.3 0 1 0 0.6,0 v -0.8 A 0.3,0.3 0 0 0 8.959,2.773 Z M 5.09,2.783 A 0.3,0.3 0 0 0 4.795,3.086 v 0.79 a 0.3,0.3 0 1 0 0.6,0 V 3.086 A 0.3,0.3 0 0 0 5.09,2.783 Z m 1.3,0 A 0.3,0.3 0 0 0 6.095,3.086 v 0.79 a 0.3,0.3 0 1 0 0.6,0 V 3.086 A 0.3,0.3 0 0 0 6.389,2.783 Z m 1.27,0 A 0.3,0.3 0 0 0 7.365,3.086 v 0.79 a 0.3,0.3 0 1 0 0.6,0 V 3.086 A 0.3,0.3 0 0 0 7.66,2.783 Z M 2.695,3.366 c -0.22,0 -0.4,0.19 -0.4,0.4 v 5.63 a 0.4,0.4 0 0 0 0.4,0.4 h 7.21 a 0.4,0.4 0 0 0 0.4,-0.4 v -5.63 a 0.4,0.4 0 0 0 -0.4,-0.4 h -0.57 v 0.53 a 0.37,0.37 0 1 1 -0.74,0 v -0.53 h -0.55 v 0.53 a 0.37,0.37 0 1 1 -0.74,0 v -0.53 h -0.55 v 0.53 a 0.37,0.37 0 1 1 -0.74,0 v -0.53 h -0.55 v 0.53 a 0.37,0.37 0 1 1 -0.74,0 v -0.53 h -0.55 v 0.53 a 0.37,0.37 0 0 1 -0.74,0 v -0.53 z m 0.16,1.46 h 6.89 v 2.59 l -0.01,1 v 0.46 c 0,0.18 -0.16,0.33 -0.35,0.33 h -6.19 c -0.19,0 -0.34,-0.15 -0.34,-0.33 z m 4.67,0.403 C 7.441,5.224 7.348,5.248 7.294,5.307 7.004,5.625 6.727,5.953 6.46,6.29 6.182,5.98 5.9,5.674 5.604,5.378 5.474,5.248 5.055,5.423 5.198,5.566 5.542,5.911 5.871,6.269 6.193,6.634 5.692,7.294 5.23,7.984 4.807,8.696 4.694,8.885 5.013,8.927 5.171,8.821 V 8.823 L 5.176,8.818 A 0.212,0.212 0 0 0 5.214,8.783 C 5.34,8.668 5.704,8.341 5.902,8.206 c 0,0 -0.15,-0.042 -0.325,-0.005 C 5.853,7.768 6.145,7.344 6.452,6.931 6.769,7.299 7.079,7.674 7.385,8.053 7.5,8.195 7.923,8.028 7.792,7.865 7.442,7.43 7.086,7 6.72,6.58 7.022,6.193 7.338,5.816 7.668,5.454 7.786,5.324 7.668,5.237 7.526,5.229 Z"
     id="path2"
     inkscape:connector-curvature="0"
     style="fill:#bde6fb;fill-opacity:1" />
</svg>
