<?xml version="1.0" encoding="UTF-8" standalone="no"?>
<svg
   width="47.542679"
   height="47.546455"
   viewBox="0 0 12.579 12.58"
   version="1.1"
   id="svg4"
   sodipodi:docname="xplico.svg"
   inkscape:version="0.92.5 (2060ec1f9f, 2020-04-08)"
   xmlns:inkscape="http://www.inkscape.org/namespaces/inkscape"
   xmlns:sodipodi="http://sodipodi.sourceforge.net/DTD/sodipodi-0.dtd"
   xmlns="http://www.w3.org/2000/svg"
   xmlns:svg="http://www.w3.org/2000/svg"
   xmlns:rdf="http://www.w3.org/1999/02/22-rdf-syntax-ns#"
   xmlns:cc="http://creativecommons.org/ns#"
   xmlns:dc="http://purl.org/dc/elements/1.1/">
  <metadata
     id="metadata10">
    <rdf:RDF>
      <cc:Work
         rdf:about="">
        <dc:format>image/svg+xml</dc:format>
        <dc:type
           rdf:resource="http://purl.org/dc/dcmitype/StillImage" />
        <dc:title />
      </cc:Work>
    </rdf:RDF>
  </metadata>
  <defs
     id="defs8" />
  <sodipodi:namedview
     pagecolor="#ffffff"
     bordercolor="#666666"
     borderopacity="1"
     objecttolerance="10"
     gridtolerance="10"
     guidetolerance="10"
     inkscape:pageopacity="0"
     inkscape:pageshadow="2"
     inkscape:window-width="1085"
     inkscape:window-height="480"
     id="namedview6"
     showgrid="false"
     inkscape:zoom="4.9166667"
     inkscape:cx="24"
     inkscape:cy="24"
     inkscape:window-x="0"
     inkscape:window-y="25"
     inkscape:window-maximized="0"
     inkscape:current-layer="svg4"
     inkscape:showpageshadow="0"
     inkscape:pagecheckerboard="0"
     inkscape:deskcolor="#d1d1d1" />
  <path
     d="M 6.285,0 A 6.295,6.295 0 0 0 0,6.285 6.295,6.295 0 0 0 6.285,12.58 6.295,6.295 0 0 0 12.579,6.285 6.295,6.295 0 0 0 6.285,0 Z M 6.274,0.94 a 5.408,5.408 0 0 1 5.397,5.387 5.407,5.407 0 0 1 -10.814,0 C 0.857,3.34 3.287,0.94 6.274,0.94 Z M 5.273,2.783 v 0.2 H 2.579 V 3.461 H 5.273 V 3.659 H 5.857 V 3.884 H 6.056 V 4.369 H 5.441 c -0.065,0 -0.156,0.1 -0.156,0.222 V 6.765 H 4.231 c -0.018,0 -0.365,0 -0.017,0.321 L 6.065,8.745 C 6.134,8.807 6.205,8.839 6.295,8.84 6.385,8.839 6.456,8.807 6.525,8.746 L 8.376,7.086 C 8.724,6.764 8.376,6.764 8.359,6.764 H 7.305 V 4.591 C 7.305,4.468 7.214,4.369 7.149,4.369 H 6.535 V 3.885 H 6.734 V 3.66 H 7.318 V 3.462 h 2.694 V 2.983 H 7.317 V 2.784 H 5.273 Z M 3.405,7.219 A 0.36,0.36 0 0 0 3.05,7.584 v 0.93 c 0,0.824 0.674,1.499 1.498,1.499 H 8.04 c 0.823,0 1.498,-0.675 1.498,-1.498 v -0.93 a 0.36,0.36 0 1 0 -0.72,0 v 0.93 c 0,0.437 -0.341,0.777 -0.778,0.777 H 4.549 A 0.768,0.768 0 0 1 3.772,8.515 V 7.585 A 0.36,0.36 0 0 0 3.406,7.219 Z"
     id="path2"
     inkscape:connector-curvature="0"
     style="fill:#bde6fb;fill-opacity:1" />
</svg>
