<?xml version="1.0" encoding="UTF-8" standalone="no"?>
<svg
   width="47.542679"
   height="47.546455"
   viewBox="0 0 12.579 12.58"
   version="1.1"
   id="svg18"
   sodipodi:docname="y-ppa-manager.svg"
   inkscape:version="0.92.5 (2060ec1f9f, 2020-04-08)"
   xmlns:inkscape="http://www.inkscape.org/namespaces/inkscape"
   xmlns:sodipodi="http://sodipodi.sourceforge.net/DTD/sodipodi-0.dtd"
   xmlns="http://www.w3.org/2000/svg"
   xmlns:svg="http://www.w3.org/2000/svg"
   xmlns:rdf="http://www.w3.org/1999/02/22-rdf-syntax-ns#"
   xmlns:cc="http://creativecommons.org/ns#"
   xmlns:dc="http://purl.org/dc/elements/1.1/">
  <metadata
     id="metadata24">
    <rdf:RDF>
      <cc:Work
         rdf:about="">
        <dc:format>image/svg+xml</dc:format>
        <dc:type
           rdf:resource="http://purl.org/dc/dcmitype/StillImage" />
        <dc:title />
      </cc:Work>
    </rdf:RDF>
  </metadata>
  <defs
     id="defs22" />
  <sodipodi:namedview
     pagecolor="#ffffff"
     bordercolor="#666666"
     borderopacity="1"
     objecttolerance="10"
     gridtolerance="10"
     guidetolerance="10"
     inkscape:pageopacity="0"
     inkscape:pageshadow="2"
     inkscape:window-width="1085"
     inkscape:window-height="480"
     id="namedview20"
     showgrid="false"
     inkscape:zoom="4.9166667"
     inkscape:cx="2.1355932"
     inkscape:cy="24"
     inkscape:window-x="0"
     inkscape:window-y="25"
     inkscape:window-maximized="0"
     inkscape:current-layer="svg18"
     inkscape:showpageshadow="0"
     inkscape:pagecheckerboard="0"
     inkscape:deskcolor="#d1d1d1" />
  <path
     d="M 6.285,0 A 6.295,6.295 0 0 0 0,6.285 6.295,6.295 0 0 0 6.285,12.58 6.295,6.295 0 0 0 12.579,6.285 6.295,6.295 0 0 0 6.285,0 Z m -0.01,0.94 a 5.408,5.408 0 0 1 5.396,5.387 5.407,5.407 0 1 1 -10.814,0 C 0.857,3.34 3.287,0.94 6.274,0.94 Z"
     id="path2"
     inkscape:connector-curvature="0"
     style="fill:#bde6fb;fill-opacity:1" />
  <path
     d="M 4.508,7.28 V 5.27 L 6.295,4.264 8.082,5.27 V 7.28 L 6.295,8.286 Z"
     id="path4"
     inkscape:connector-curvature="0"
     style="fill:#d6ac12" />
  <path
     d="M 6.538,1.965 V 3.733 L 8.384,4.736 9.924,3.813 Z"
     id="path6"
     inkscape:connector-curvature="0"
     style="fill:#8fb635" />
  <path
     d="M 5.922,1.965 V 3.733 L 4.075,4.736 2.536,3.813 Z"
     id="path8"
     inkscape:connector-curvature="0"
     style="fill:#3895bd" />
  <path
     d="m 10.223,4.266 -1.53,0.884 0.055,2.1 1.569,0.872 z"
     id="path10"
     inkscape:connector-curvature="0"
     style="fill:#d18c3b" />
  <path
     d="M 2.367,4.266 3.897,5.15 3.842,7.25 2.273,8.122 Z"
     id="path12"
     inkscape:connector-curvature="0"
     style="fill:#3941bf" />
  <path
     d="M 6.538,10.585 V 8.816 l 1.846,-1.003 1.54,0.923 z"
     id="path14"
     inkscape:connector-curvature="0"
     style="fill:#a02c35" />
  <path
     d="M 5.922,10.585 V 8.816 L 4.075,7.814 2.536,8.737 Z"
     id="path16"
     inkscape:connector-curvature="0"
     style="fill:#bb3a84" />
</svg>
