<?xml version="1.0" encoding="UTF-8" standalone="no"?>
<svg
   width="48"
   height="48"
   viewBox="0 0 12.7 12.7"
   version="1.1"
   id="svg4"
   sodipodi:docname="yad.svg"
   inkscape:version="0.92.5 (2060ec1f9f, 2020-04-08)"
   xmlns:inkscape="http://www.inkscape.org/namespaces/inkscape"
   xmlns:sodipodi="http://sodipodi.sourceforge.net/DTD/sodipodi-0.dtd"
   xmlns="http://www.w3.org/2000/svg"
   xmlns:svg="http://www.w3.org/2000/svg">
  <sodipodi:namedview
     id="namedview1"
     pagecolor="#505050"
     bordercolor="#eeeeee"
     borderopacity="1"
     inkscape:showpageshadow="0"
     inkscape:pageopacity="0"
     inkscape:pagecheckerboard="0"
     inkscape:deskcolor="#d1d1d1" />
  <defs
     id="defs8">
    <style
       id="current-color-scheme"
       type="text/css">&#10;      .ColorScheme-Highlight {&#10;        color:#1e3f5a;&#10;      }&#10;  </style>
  </defs>
  <path
     class="ColorScheme-Highlight"
     style="fill:#bde6fb;fill-opacity:1"
     d="M 6.3500007,0 A 6.3499999,6.3499999 0 0 0 0,6.3499999 6.3499999,6.3499999 0 0 0 6.3500007,12.7 6.3499999,6.3499999 0 0 0 12.7,6.3499999 6.3499999,6.3499999 0 0 0 6.3500007,0 Z m 0,0.79374999 A 5.5562499,5.5562499 0 0 1 11.90625,6.3499999 5.5562499,5.5562499 0 0 1 6.3500007,11.90625 5.5562499,5.5562499 0 0 1 0.79375,6.3499999 5.5562499,5.5562499 0 0 1 6.3500007,0.79374999 Z M 4.630209,2.9104166 c -0.219869,0 -0.396875,0.1770063 -0.396875,0.396875 0,0.2198688 0.177006,0.396875 0.396875,0.396875 H 4.7625007 V 5.0270833 5.5562499 L 2.645834,9.2604166 c 0,0.4397374 0.354012,0.7937504 0.79375,0.7937504 h 5.8208327 c 0.439738,0 0.7937493,-0.354013 0.7937493,-0.7937504 L 7.9375007,5.5562499 v -1.0583333 -0.79375 h 0.132291 c 0.219869,0 0.396875,-0.1770062 0.396875,-0.396875 0,-0.2198687 -0.177006,-0.396875 -0.396875,-0.396875 z m 0.9260417,0.79375 h 1.5875 v 1.8520833 l 2.116666,3.7041667 H 3.439584 L 5.5562507,5.5562499 Z"
     id="path829"
     inkscape:connector-curvature="0" />
  <path
     style="fill:#217821"
     d="M 5.2916667,1.5875 A 0.2645833,0.2645833 0 0 0 5.0270837,1.8520833 0.2645833,0.2645833 0 0 0 5.2916667,2.1166666 0.2645833,0.2645833 0 0 0 5.5562507,1.8520833 0.2645833,0.2645833 0 0 0 5.2916667,1.5875 Z m 1.719792,0 A 0.396875,0.396875 0 0 0 6.6145837,1.984375 0.396875,0.396875 0 0 0 7.0114587,2.38125 0.396875,0.396875 0 0 0 7.4083337,1.984375 0.396875,0.396875 0 0 0 7.0114587,1.5875 Z M 5.8208337,6.6145833 4.497917,8.7312499 H 8.2020837 L 6.8791667,6.6145833 Z"
     id="path823"
     inkscape:connector-curvature="0" />
</svg>
