<?xml version="1.0" encoding="UTF-8" standalone="no"?>
<svg
   width="47.546486"
   height="47.546486"
   viewBox="0 0 12.580008 12.580008"
   version="1.1"
   id="svg4"
   sodipodi:docname="yandex-disk.svg"
   inkscape:version="0.92.4 (5da689c313, 2019-01-14)"
   xmlns:inkscape="http://www.inkscape.org/namespaces/inkscape"
   xmlns:sodipodi="http://sodipodi.sourceforge.net/DTD/sodipodi-0.dtd"
   xmlns="http://www.w3.org/2000/svg"
   xmlns:svg="http://www.w3.org/2000/svg"
   xmlns:rdf="http://www.w3.org/1999/02/22-rdf-syntax-ns#"
   xmlns:cc="http://creativecommons.org/ns#"
   xmlns:dc="http://purl.org/dc/elements/1.1/">
  <metadata
     id="metadata10">
    <rdf:RDF>
      <cc:Work
         rdf:about="">
        <dc:format>image/svg+xml</dc:format>
        <dc:type
           rdf:resource="http://purl.org/dc/dcmitype/StillImage" />
        <dc:title />
      </cc:Work>
    </rdf:RDF>
  </metadata>
  <defs
     id="defs8" />
  <sodipodi:namedview
     pagecolor="#ffffff"
     bordercolor="#666666"
     borderopacity="1"
     objecttolerance="10"
     gridtolerance="10"
     guidetolerance="10"
     inkscape:pageopacity="0"
     inkscape:pageshadow="2"
     inkscape:window-width="1087"
     inkscape:window-height="480"
     id="namedview6"
     showgrid="false"
     inkscape:zoom="4.9166667"
     inkscape:cx="2.1355932"
     inkscape:cy="24"
     inkscape:window-x="0"
     inkscape:window-y="25"
     inkscape:window-maximized="0"
     inkscape:current-layer="svg4"
     inkscape:showpageshadow="0"
     inkscape:pagecheckerboard="0"
     inkscape:deskcolor="#d1d1d1" />
  <path
     d="M 6.2900079,0 A 6.29,6.29 0 0 0 7.9490244e-6,6.3 6.29,6.29 0 0 0 6.3000079,12.58 6.29,6.29 0 0 0 12.580008,6.29 6.29,6.29 0 0 0 6.2900079,0 Z m -0.02,0.93 0.01,0.01 A 5.4,5.4 0 0 1 11.680008,6.34 5.4,5.4 0 0 1 6.2800079,11.75 5.4,5.4 0 0 1 0.87000795,6.35 5.4,5.4 0 0 1 6.2700079,0.93 Z m 0,2.53 a 2.9,2.9 0 0 0 -2.03,0.81 c -0.3,0.29 -0.49,0.55 -0.79,1.15 -0.25,0.5 -0.27,0.53 -0.6,0.91 -0.27,0.31 -0.48,0.62 -0.63,0.93 a 2.5,2.5 0 0 0 -0.2,0.67 0.3,0.3 0 0 0 0.01,0.15 c 0,0.02 0,0.03 0.03,0.05 l 0.02,0.01 c 0.06,0.56 0.57,0.88 1.5,0.94 a 5.38,5.38 0 0 0 0.92,0 8.3,8.3 0 0 0 3.24,-1.02 c 1.6,-0.9 2.8400001,-2.32 2.8400001,-3.23 0,-0.23 -0.15,-0.47 -0.37,-0.63 V 4.17 a 0.06,0.06 0 0 0 -0.03,-0.02 c 0,-0.02 -0.02,-0.02 -0.03,-0.03 A 2.56,2.56 0 0 0 9.7500079,3.93 c -0.3,-0.1 -0.66,-0.15 -1.38,-0.17 -0.69,-0.02 -0.68,-0.02 -1.01,-0.13 a 2.89,2.89 0 0 0 -1.08,-0.18 z m 3,1.2 a 3.17,3.17 0 0 1 0.7,0.09 h 0.03 l 0.06,0.08 c 0,0.22 -0.2300001,0.74 -0.7000001,1.27 -0.22,0.26 -0.5,0.52 -0.8,0.77 a 0.7,2.1 64.57 0 0 0.17,-0.54 0.7,2.1 64.57 0 0 -2.2,0.27 0.7,2.1 64.57 0 0 -1.58,1.53 0.7,2.1 64.57 0 0 0.72,0.2 6.16,6.16 0 0 1 -1.62,0.25 c 0,0 -0.25,0 -0.42,-0.02 -0.42,-0.03 -0.7,-0.12 -0.84,-0.2 -0.08,-0.06 -0.08,-0.11 -0.1,-0.16 l 0.06,-0.15 c 0.04,-0.11 0.23,-0.41 0.53,-0.72 0.3,-0.3 0.71,-0.64 1.17,-0.95 1.24,-0.83 2.91,-1.5 4.17,-1.68 0.2,-0.03 0.44,-0.04 0.65,-0.04 z"
     id="path2"
     inkscape:connector-curvature="0"
     style="fill:#bde6fb;fill-opacity:1" />
</svg>
