<?xml version="1.0" encoding="UTF-8" standalone="no"?>
<svg
   width="47.542679"
   height="47.546455"
   viewBox="0 0 12.579 12.58"
   version="1.1"
   id="svg4"
   sodipodi:docname="yara.svg"
   inkscape:version="0.92.5 (2060ec1f9f, 2020-04-08)"
   xmlns:inkscape="http://www.inkscape.org/namespaces/inkscape"
   xmlns:sodipodi="http://sodipodi.sourceforge.net/DTD/sodipodi-0.dtd"
   xmlns="http://www.w3.org/2000/svg"
   xmlns:svg="http://www.w3.org/2000/svg"
   xmlns:rdf="http://www.w3.org/1999/02/22-rdf-syntax-ns#"
   xmlns:cc="http://creativecommons.org/ns#"
   xmlns:dc="http://purl.org/dc/elements/1.1/">
  <metadata
     id="metadata10">
    <rdf:RDF>
      <cc:Work
         rdf:about="">
        <dc:format>image/svg+xml</dc:format>
        <dc:type
           rdf:resource="http://purl.org/dc/dcmitype/StillImage" />
        <dc:title />
      </cc:Work>
    </rdf:RDF>
  </metadata>
  <defs
     id="defs8" />
  <sodipodi:namedview
     pagecolor="#ffffff"
     bordercolor="#666666"
     borderopacity="1"
     objecttolerance="10"
     gridtolerance="10"
     guidetolerance="10"
     inkscape:pageopacity="0"
     inkscape:pageshadow="2"
     inkscape:window-width="1085"
     inkscape:window-height="480"
     id="namedview6"
     showgrid="false"
     inkscape:zoom="4.9166667"
     inkscape:cx="2.1355932"
     inkscape:cy="24"
     inkscape:window-x="0"
     inkscape:window-y="25"
     inkscape:window-maximized="0"
     inkscape:current-layer="svg4"
     inkscape:showpageshadow="0"
     inkscape:pagecheckerboard="0"
     inkscape:deskcolor="#d1d1d1" />
  <path
     d="M 6.285,0 A 6.295,6.295 0 0 0 0,6.285 6.295,6.295 0 0 0 6.285,12.58 6.295,6.295 0 0 0 12.579,6.285 6.295,6.295 0 0 0 6.285,0 Z M 6.274,0.94 a 5.408,5.408 0 0 1 5.397,5.387 5.407,5.407 0 0 1 -10.814,0 C 0.857,3.34 3.287,0.94 6.274,0.94 Z M 6.86,1.553 C 6.58,1.561 6.303,1.619 6.026,1.7 5.356,1.954 5.013,2.399 4.92,2.891 4.79,3.576 5.102,4.434 5.348,5.271 5.394,5.478 5.22,5.431 4.83,5.591 4.474,5.741 4.342,5.659 4.243,5.944 4.195,6.154 4.163,6.363 4.147,6.567 4.132,6.882 4.227,6.773 5.025,7.136 5.127,7.194 4.895,7.426 4.639,7.762 4.022,8.459 3.643,9.346 3.827,10.015 c 0.102,0.367 0.47,0.823 0.872,0.835 H 6.122 C 6.266,10.838 6.17,10.577 6.436,10.07 6.577,9.814 6.42,9.693 6.329,9.7 5.742,9.724 5.665,9.721 5.545,9.528 A 0.478,0.478 0 0 1 5.547,8.999 C 5.691,8.773 5.734,8.626 5.842,8.461 6.069,8.116 6.337,7.803 6.646,7.305 6.779,7.102 6.851,6.819 6.566,6.699 6.411,6.633 5.843,6.457 5.386,6.289 5.366,6.253 5.831,6.135 6.29,5.991 6.64,5.881 6.945,5.828 6.996,5.666 7.11,5.328 6.7,4.715 6.546,3.894 6.428,3.096 6.44,2.732 7.422,2.816 7.872,2.858 7.722,2.586 7.742,2.161 7.743,1.927 7.776,1.711 7.712,1.7 A 2.087,2.087 0 0 0 6.86,1.553 Z"
     id="path2"
     inkscape:connector-curvature="0"
     style="fill:#bde6fb;fill-opacity:1" />
</svg>
