<?xml version="1.0" encoding="UTF-8" standalone="no"?>
<svg
   width="47.546486"
   height="47.546486"
   viewBox="0 0 12.580008 12.580008"
   version="1.1"
   id="svg4"
   sodipodi:docname="yarock.svg"
   inkscape:version="0.92.4 (5da689c313, 2019-01-14)"
   xmlns:inkscape="http://www.inkscape.org/namespaces/inkscape"
   xmlns:sodipodi="http://sodipodi.sourceforge.net/DTD/sodipodi-0.dtd"
   xmlns="http://www.w3.org/2000/svg"
   xmlns:svg="http://www.w3.org/2000/svg"
   xmlns:rdf="http://www.w3.org/1999/02/22-rdf-syntax-ns#"
   xmlns:cc="http://creativecommons.org/ns#"
   xmlns:dc="http://purl.org/dc/elements/1.1/">
  <metadata
     id="metadata10">
    <rdf:RDF>
      <cc:Work
         rdf:about="">
        <dc:format>image/svg+xml</dc:format>
        <dc:type
           rdf:resource="http://purl.org/dc/dcmitype/StillImage" />
        <dc:title />
      </cc:Work>
    </rdf:RDF>
  </metadata>
  <defs
     id="defs8" />
  <sodipodi:namedview
     pagecolor="#ffffff"
     bordercolor="#666666"
     borderopacity="1"
     objecttolerance="10"
     gridtolerance="10"
     guidetolerance="10"
     inkscape:pageopacity="0"
     inkscape:pageshadow="2"
     inkscape:window-width="1087"
     inkscape:window-height="480"
     id="namedview6"
     showgrid="false"
     inkscape:zoom="4.9166667"
     inkscape:cx="2.1355932"
     inkscape:cy="24"
     inkscape:window-x="0"
     inkscape:window-y="25"
     inkscape:window-maximized="0"
     inkscape:current-layer="svg4"
     inkscape:showpageshadow="0"
     inkscape:pagecheckerboard="0"
     inkscape:deskcolor="#d1d1d1" />
  <path
     d="M 6.2900079,0 A 6.29,6.29 0 0 0 7.9490244e-6,6.3 6.29,6.29 0 0 0 6.3000079,12.58 6.29,6.29 0 0 0 12.580008,6.29 6.29,6.29 0 0 0 6.2900079,0 Z m -0.02,0.93 0.01,0.01 A 5.4,5.4 0 0 1 11.680008,6.34 5.4,5.4 0 0 1 6.2800079,11.75 5.4,5.4 0 0 1 0.87000795,6.35 5.4,5.4 0 0 1 6.2700079,0.93 Z m -1.882,1.496 a 0.516,0.516 0 0 0 -0.531,0.517 v 3.79 a 0.756,0.756 0 0 1 0.529,-0.188 h 0.503 V 2.943 a 0.516,0.516 0 0 0 -0.5,-0.517 z m 3.842,0.769 a 0.516,0.516 0 0 0 -0.532,0.516 v 3.601 c 0,0.416 -0.34,0.769 -0.768,0.769 a 0.77,0.77 0 0 1 -0.642,-0.353 0.835,0.835 0 0 1 -0.68,0.353 h -0.593 a 0.126,0.126 0 0 1 0,-0.252 h 0.63 a 0.504,0.504 0 0 0 0.504,-0.541 0.469,0.469 0 0 0 -0.252,-0.416 v 0.176 a 0.126,0.126 0 0 1 -0.126,0.126 h -0.567 a 0.063,0.063 0 0 1 0,-0.126 h 0.504 c 0.038,0 0.063,-0.025 0.063,-0.063 V 6.81 l -0.126,-0.013 h -1.284 a 0.518,0.518 0 0 0 -0.517,0.516 v 0.504 a 2.317,2.317 0 0 0 2.343,2.318 h 0.251 a 2.319,2.319 0 0 0 2.318,-2.318 l -0.026,0.013 V 3.71 a 0.516,0.516 0 0 0 -0.501,-0.516 z m -1.272,1.41 a 0.516,0.516 0 0 0 -0.532,0.516 v 2.191 a 0.5165,0.5165 0 0 0 1.033,0 v -2.19 a 0.516,0.516 0 0 0 -0.501,-0.517 z m -1.285,0 a 0.516,0.516 0 0 0 -0.532,0.516 l 0.013,1.424 h 0.504 a 0.756,0.756 0 0 1 0.516,0.188 V 5.121 a 0.516,0.516 0 0 0 -0.5,-0.515 z"
     id="path2"
     inkscape:connector-curvature="0"
     style="fill:#bde6fb;fill-opacity:1" />
</svg>
