<?xml version="1.0" encoding="UTF-8" standalone="no"?>
<svg
   width="47.546455"
   height="47.546455"
   viewBox="0 0 12.58 12.58"
   version="1.1"
   id="svg8"
   sodipodi:docname="yast-upgrade.svg"
   inkscape:version="0.92.4 (5da689c313, 2019-01-14)"
   xmlns:inkscape="http://www.inkscape.org/namespaces/inkscape"
   xmlns:sodipodi="http://sodipodi.sourceforge.net/DTD/sodipodi-0.dtd"
   xmlns="http://www.w3.org/2000/svg"
   xmlns:svg="http://www.w3.org/2000/svg"
   xmlns:rdf="http://www.w3.org/1999/02/22-rdf-syntax-ns#"
   xmlns:cc="http://creativecommons.org/ns#"
   xmlns:dc="http://purl.org/dc/elements/1.1/">
  <metadata
     id="metadata14">
    <rdf:RDF>
      <cc:Work
         rdf:about="">
        <dc:format>image/svg+xml</dc:format>
        <dc:type
           rdf:resource="http://purl.org/dc/dcmitype/StillImage" />
        <dc:title />
      </cc:Work>
    </rdf:RDF>
  </metadata>
  <defs
     id="defs12" />
  <sodipodi:namedview
     pagecolor="#ffffff"
     bordercolor="#666666"
     borderopacity="1"
     objecttolerance="10"
     gridtolerance="10"
     guidetolerance="10"
     inkscape:pageopacity="0"
     inkscape:pageshadow="2"
     inkscape:window-width="1138"
     inkscape:window-height="480"
     id="namedview10"
     showgrid="false"
     inkscape:zoom="4.9166667"
     inkscape:cx="2.1355932"
     inkscape:cy="24"
     inkscape:window-x="0"
     inkscape:window-y="25"
     inkscape:window-maximized="0"
     inkscape:current-layer="svg8"
     inkscape:showpageshadow="0"
     inkscape:pagecheckerboard="0"
     inkscape:deskcolor="#d1d1d1" />
  <path
     d="M 6.29,9.9999768e-4 A 6.29,6.29 0 0 0 0,6.291 6.29,6.29 0 0 0 6.29,12.58 6.29,6.29 0 0 0 12.58,6.29 6.29,6.29 0 0 0 6.29,0 Z M 6.272,0.938 A 5.407,5.407 0 0 1 11.679,6.345 5.407,5.407 0 0 1 6.272,11.752 5.407,5.407 0 0 1 0.866,6.345 5.407,5.407 0 0 1 6.272,0.939 Z M 6.297,2.31 4.444,4.162 4.841,4.559 6.031,3.369 v 2.645 h 0.53 V 3.368 L 7.751,4.558 8.149,4.162 6.296,2.309 Z"
     id="path2"
     inkscape:connector-curvature="0"
     style="fill:#bde6fb;fill-opacity:1" />
  <path
     d="M 7.04,8.13 H 9.256 A 0.791,0.791 0 0 0 10.794,7.866 0.792,0.792 0 0 0 10,7.072 0.792,0.792 0 0 0 9.256,7.602 H 7.04 c 0.05,0.264 0.05,0.264 0,0.528"
     id="path4"
     inkscape:connector-curvature="0"
     style="opacity:0.779;fill:#bde6fb;fill-opacity:1" />
  <path
     d="M 2.592,7.072 A 0.792,0.792 0 0 0 1.798,7.866 c 0,0.44 0.354,0.794 0.794,0.794 A 0.792,0.792 0 0 0 3.336,8.13 H 5.552 A 0.791,0.791 0 0 0 7.09,7.866 0.792,0.792 0 0 0 6.297,7.072 0.792,0.792 0 0 0 5.552,7.602 H 3.336 A 0.791,0.791 0 0 0 2.592,7.072"
     id="path6"
     inkscape:connector-curvature="0"
     style="opacity:0.75;fill:#008000" />
</svg>
