<?xml version="1.0" encoding="UTF-8" standalone="no"?>
<svg
   width="47.546486"
   height="47.546486"
   viewBox="0 0 12.580008 12.580008"
   version="1.1"
   id="svg4"
   sodipodi:docname="yast.svg"
   inkscape:version="0.92.4 (5da689c313, 2019-01-14)"
   xmlns:inkscape="http://www.inkscape.org/namespaces/inkscape"
   xmlns:sodipodi="http://sodipodi.sourceforge.net/DTD/sodipodi-0.dtd"
   xmlns="http://www.w3.org/2000/svg"
   xmlns:svg="http://www.w3.org/2000/svg"
   xmlns:rdf="http://www.w3.org/1999/02/22-rdf-syntax-ns#"
   xmlns:cc="http://creativecommons.org/ns#"
   xmlns:dc="http://purl.org/dc/elements/1.1/">
  <metadata
     id="metadata10">
    <rdf:RDF>
      <cc:Work
         rdf:about="">
        <dc:format>image/svg+xml</dc:format>
        <dc:type
           rdf:resource="http://purl.org/dc/dcmitype/StillImage" />
        <dc:title />
      </cc:Work>
    </rdf:RDF>
  </metadata>
  <defs
     id="defs8" />
  <sodipodi:namedview
     pagecolor="#ffffff"
     bordercolor="#666666"
     borderopacity="1"
     objecttolerance="10"
     gridtolerance="10"
     guidetolerance="10"
     inkscape:pageopacity="0"
     inkscape:pageshadow="2"
     inkscape:window-width="1087"
     inkscape:window-height="480"
     id="namedview6"
     showgrid="false"
     inkscape:zoom="4.9166667"
     inkscape:cx="2.1355932"
     inkscape:cy="24"
     inkscape:window-x="0"
     inkscape:window-y="25"
     inkscape:window-maximized="0"
     inkscape:current-layer="svg4"
     inkscape:showpageshadow="0"
     inkscape:pagecheckerboard="0"
     inkscape:deskcolor="#d1d1d1" />
  <path
     d="M 6.2900079,0 A 6.29,6.29 0 0 0 7.9490244e-6,6.3 6.29,6.29 0 0 0 6.3000079,12.58 6.29,6.29 0 0 0 12.580008,6.29 6.29,6.29 0 0 0 6.2900079,0 Z m -0.01,0.94 A 5.4,5.4 0 0 1 11.680008,6.34 5.4,5.4 0 0 1 6.2800079,11.75 5.4,5.4 0 0 1 0.87000795,6.35 5.4,5.4 0 0 1 6.2700079,0.93 Z m -0.03,1.27 -0.76,0.05 0.4,0.4 0.11,0.03 c 0,0 0.49,0.11 0.87,0.4 0.39,0.27 0.49,0.76 0.2,1.32 -0.18,0.34 -0.29,0.45 -0.52,0.72 -0.28,0.32 -0.52,0.57 -0.63,0.68 a 0.25,0.25 0 0 0 -0.12,0.06 l -3.12,3.14 a 0.58,0.58 0 0 0 -0.02,0.8 l 0.22,0.18 c 0.23,0.2 0.58,0.16 0.77,-0.07 l 2.86,-3.38 a 0.26,0.26 0 0 0 0.05,-0.13 c 0.09,-0.11 0.42,-0.52 1.1,-1.2 0.81,-0.8 0.95,-0.4 1.1,-0.26 0.15,0.14 0.13,0.26 0.13,0.26 0.02,0.07 0.07,0.18 0.13,0.23 l 0.24,0.2 c 0.02,0 0.43,-0.44 0.56,-0.59 0.12,-0.12 0.3000001,-0.38 0.3000001,-0.38 a 0.08,0.08 0 0 0 0,-0.1 c 0,0 -0.2300001,-0.25 -0.3100001,-0.25 -0.24,-0.02 -0.35,-0.04 -0.47,-0.22 -0.12,-0.18 -0.12,-0.32 -0.18,-0.43 a 3.4,3.4 0 0 0 -0.94,-0.83 3.87,3.87 0 0 0 -1.97,-0.63 z m -2.4,0.22 a 2.2,2.2 0 0 0 -0.55,0.06 0.1,0.1 0 0 0 -0.05,0.02 c -0.02,0.02 -0.03,0.05 -0.03,0.08 a 0.1,0.1 0 0 0 0.05,0.08 l 1.01,0.57 c 0.1,0.05 0.14,0.16 0.13,0.3 a 1.15,1.15 0 0 1 -0.15,0.5 1.14,1.14 0 0 1 -0.34,0.4 c -0.12,0.08 -0.23,0.1 -0.32,0.05 l -1,-0.56 a 0.1,0.1 0 0 0 -0.12,0 0.1,0.1 0 0 0 -0.03,0.09 v 0.03 c 0.16,0.46 0.49,0.89 0.85,1.1 0.3,0.16 0.62,0.2 0.93,0.12 0.21,0.08 0.5,0.23 0.8,0.52 l 0.27,0.23 c 0.28,-0.34 0.5,-0.55 0.74,-0.79 l -0.21,-0.23 a 2.5,2.5 0 0 1 -0.51,-0.92 c 0.1,-0.57 -0.14,-1.16 -0.65,-1.44 a 1.81,1.81 0 0 0 -0.83,-0.2 z m 3.33,3.85 c -0.26,0.29 -0.55,0.58 -0.87,0.88 l 2.62,2.8 c 0.25,0.25 0.7,0.22 0.98,-0.07 0.3000001,-0.3 0.3300001,-0.73 0.07,-0.99 z m 2.2,2.7 a 0.37,0.37 0 0 1 0.27,0.64 0.37,0.37 0 1 1 -0.28,-0.63 z"
     id="path2"
     inkscape:connector-curvature="0"
     style="fill:#bde6fb;fill-opacity:1" />
</svg>
