<?xml version="1.0" encoding="UTF-8" standalone="no"?>
<svg
   width="48"
   height="48"
   viewBox="0 0 12.7 12.7"
   version="1.1"
   id="svg4"
   sodipodi:docname="youtrack.svg"
   inkscape:version="0.92.5 (2060ec1f9f, 2020-04-08)"
   xmlns:inkscape="http://www.inkscape.org/namespaces/inkscape"
   xmlns:sodipodi="http://sodipodi.sourceforge.net/DTD/sodipodi-0.dtd"
   xmlns="http://www.w3.org/2000/svg"
   xmlns:svg="http://www.w3.org/2000/svg">
  <sodipodi:namedview
     id="namedview1"
     pagecolor="#505050"
     bordercolor="#eeeeee"
     borderopacity="1"
     inkscape:showpageshadow="0"
     inkscape:pageopacity="0"
     inkscape:pagecheckerboard="0"
     inkscape:deskcolor="#d1d1d1" />
  <defs
     id="defs8">
    <style
       id="current-color-scheme"
       type="text/css">&#10;      .ColorScheme-Highlight {&#10;        color:#1e3f5a;&#10;      }&#10;  </style>
  </defs>
  <path
     class="ColorScheme-Highlight"
     style="fill:#bde6fb;fill-opacity:1;stroke-width:0.264583"
     d="M 6.3499999,0 A 6.3499999,6.3499999 0 0 0 0,6.3499999 6.3499999,6.3499999 0 0 0 6.3499999,12.7 6.3499999,6.3499999 0 0 0 12.7,6.3499999 6.3499999,6.3499999 0 0 0 6.3499999,0 Z m 0,0.79374999 A 5.5562499,5.5562499 0 0 1 11.90625,6.3499999 5.5562499,5.5562499 0 0 1 6.3499999,11.90625 5.5562499,5.5562499 0 0 1 0.79374999,6.3499999 5.5562499,5.5562499 0 0 1 6.3499999,0.79374999 Z m 0,1.05833331 A 4.4979182,4.4979182 0 0 0 1.8520833,6.3499999 4.4979182,4.4979182 0 0 0 6.3499999,10.847917 4.4979182,4.4979182 0 0 0 10.847917,6.3499999 4.4979182,4.4979182 0 0 0 6.3499999,1.8520833 Z m -2.1166666,3.175 H 4.7624999 V 5.5562499 A 0.52916663,0.52916663 0 0 0 5.2916666,6.0854166 0.52916663,0.52916663 0 0 0 5.5515991,6.0161701 V 5.0296672 h 0.5291666 v 1.5875 c 0,0.5863166 -0.4720166,1.0583333 -1.0583333,1.0583333 -0.4091781,0 -0.7585694,-0.2323174 -0.9348266,-0.5705078 L 4.600236,6.9344603 c 0.09638,0.1283234 0.2486271,0.2123903 0.4221964,0.2123903 0.2931584,0 0.5291667,-0.2360084 0.5291667,-0.5291667 V 6.5804769 A 1.0583332,1.0583332 0 0 1 5.2916666,6.6145833 1.0583332,1.0583332 0 0 1 4.2333333,5.5562499 Z m 2.1166666,0 h 2.1166667 v 0.5291666 h -0.79375 V 7.6729166 H 7.1437499 V 5.5562499 h -0.79375 z M 4.4979166,8.4666666 H 8.2020832 V 8.9958332 H 4.4979166 Z"
     id="path836" />
</svg>
