<?xml version="1.0" encoding="UTF-8" standalone="no"?>
<svg
   width="47.546486"
   height="47.546486"
   viewBox="0 0 12.580008 12.580008"
   version="1.1"
   id="svg8"
   sodipodi:docname="yubikey-personalization-gui.svg"
   inkscape:version="0.92.4 (5da689c313, 2019-01-14)"
   xmlns:inkscape="http://www.inkscape.org/namespaces/inkscape"
   xmlns:sodipodi="http://sodipodi.sourceforge.net/DTD/sodipodi-0.dtd"
   xmlns="http://www.w3.org/2000/svg"
   xmlns:svg="http://www.w3.org/2000/svg"
   xmlns:rdf="http://www.w3.org/1999/02/22-rdf-syntax-ns#"
   xmlns:cc="http://creativecommons.org/ns#"
   xmlns:dc="http://purl.org/dc/elements/1.1/">
  <metadata
     id="metadata14">
    <rdf:RDF>
      <cc:Work
         rdf:about="">
        <dc:format>image/svg+xml</dc:format>
        <dc:type
           rdf:resource="http://purl.org/dc/dcmitype/StillImage" />
        <dc:title />
      </cc:Work>
    </rdf:RDF>
  </metadata>
  <defs
     id="defs12" />
  <sodipodi:namedview
     pagecolor="#ffffff"
     bordercolor="#666666"
     borderopacity="1"
     objecttolerance="10"
     gridtolerance="10"
     guidetolerance="10"
     inkscape:pageopacity="0"
     inkscape:pageshadow="2"
     inkscape:window-width="1087"
     inkscape:window-height="480"
     id="namedview10"
     showgrid="false"
     inkscape:zoom="4.9166667"
     inkscape:cx="2.1355932"
     inkscape:cy="24"
     inkscape:window-x="0"
     inkscape:window-y="25"
     inkscape:window-maximized="0"
     inkscape:current-layer="svg8"
     inkscape:showpageshadow="0"
     inkscape:pagecheckerboard="0"
     inkscape:deskcolor="#d1d1d1" />
  <path
     d="M 6.2900079,0 A 6.29,6.29 0 0 0 7.9490244e-6,6.3 6.29,6.29 0 0 0 6.3000079,12.58 6.29,6.29 0 0 0 12.580008,6.29 6.29,6.29 0 0 0 6.2900079,0 Z m -0.02,0.93 0.01,0.01 A 5.4,5.4 0 0 1 11.680008,6.34 5.4,5.4 0 0 1 6.2800079,11.75 5.4,5.4 0 0 1 0.87000795,6.35 5.4,5.4 0 0 1 6.2700079,0.93 Z m 1.62,5.88 -0.04,0.42 a 1.26,1.25 0 0 0 -0.37,0.21 l -0.38,-0.18 -0.4,0.69 0.35,0.24 a 1.26,1.25 0 0 0 -0.02,0.2 1.26,1.25 0 0 0 0.02,0.22 l -0.35,0.24 0.4,0.69 0.38,-0.18 a 1.26,1.25 0 0 0 0.37,0.2 l 0.04,0.43 h 0.8 l 0.03,-0.42 a 1.26,1.25 0 0 0 0.37,-0.21 l 0.38,0.18 0.4,-0.69 -0.34,-0.24 a 1.26,1.25 0 0 0 0.02,-0.21 1.26,1.25 0 0 0 -0.02,-0.21 l 0.34,-0.24 -0.4,-0.69 -0.38,0.18 a 1.26,1.25 0 0 0 -0.37,-0.2 l -0.03,-0.43 z m 0.4,1.14 a 0.46,0.45 0 0 1 0.46,0.45 0.46,0.45 0 0 1 -0.46,0.45 0.46,0.45 0 0 1 -0.46,-0.45 0.46,0.45 0 0 1 0.46,-0.45 z"
     id="path2"
     inkscape:connector-curvature="0"
     style="fill:#bde6fb;fill-opacity:1;stroke-width:1.00013;stroke-dasharray:none" />
  <g
     id="g6"
     style="fill:none;stroke:#bde6fb;stroke-width:4;stroke-linecap:round;stroke-linejoin:round;stroke-opacity:1"
     transform="translate(-0.04999205,-0.07)">
    <path
       d="m 3.84,8.2 3.7,-5.02 m -4.23,0 2.12,2.38"
       id="path4"
       inkscape:connector-curvature="0"
       style="stroke:#bde6fb;stroke-width:1.05832;stroke-opacity:1" />
  </g>
</svg>
