<?xml version="1.0" encoding="UTF-8" standalone="no"?>
<svg
   width="47.546486"
   height="47.546486"
   viewBox="0 0 12.580008 12.580008"
   version="1.1"
   id="svg10"
   sodipodi:docname="yubikey-piv-manager.svg"
   inkscape:version="0.92.4 (5da689c313, 2019-01-14)"
   xmlns:inkscape="http://www.inkscape.org/namespaces/inkscape"
   xmlns:sodipodi="http://sodipodi.sourceforge.net/DTD/sodipodi-0.dtd"
   xmlns:xlink="http://www.w3.org/1999/xlink"
   xmlns="http://www.w3.org/2000/svg"
   xmlns:svg="http://www.w3.org/2000/svg"
   xmlns:rdf="http://www.w3.org/1999/02/22-rdf-syntax-ns#"
   xmlns:cc="http://creativecommons.org/ns#"
   xmlns:dc="http://purl.org/dc/elements/1.1/">
  <metadata
     id="metadata16">
    <rdf:RDF>
      <cc:Work
         rdf:about="">
        <dc:format>image/svg+xml</dc:format>
        <dc:type
           rdf:resource="http://purl.org/dc/dcmitype/StillImage" />
        <dc:title />
      </cc:Work>
    </rdf:RDF>
  </metadata>
  <defs
     id="defs14">
    <linearGradient
       id="swatch1"
       inkscape:swatch="solid">
      <stop
         style="stop-color:#bde6fb;stop-opacity:1;"
         offset="0"
         id="stop1" />
    </linearGradient>
    <linearGradient
       inkscape:collect="always"
       xlink:href="#swatch1"
       id="linearGradient1"
       x1="2.91084"
       y1="5.6900001"
       x2="8.1991596"
       y2="5.6900001"
       gradientUnits="userSpaceOnUse"
       gradientTransform="translate(0.04999205,0.07)" />
  </defs>
  <sodipodi:namedview
     pagecolor="#ffffff"
     bordercolor="#666666"
     borderopacity="1"
     objecttolerance="10"
     gridtolerance="10"
     guidetolerance="10"
     inkscape:pageopacity="0"
     inkscape:pageshadow="2"
     inkscape:window-width="1087"
     inkscape:window-height="480"
     id="namedview12"
     showgrid="false"
     inkscape:zoom="4.9166667"
     inkscape:cx="2.1355932"
     inkscape:cy="24"
     inkscape:window-x="0"
     inkscape:window-y="25"
     inkscape:window-maximized="0"
     inkscape:current-layer="svg10"
     inkscape:showpageshadow="0"
     inkscape:pagecheckerboard="0"
     inkscape:deskcolor="#d1d1d1" />
  <path
     d="M 6.2900079,0 A 6.29,6.29 0 0 0 7.9490244e-6,6.3 6.29,6.29 0 0 0 6.3000079,12.58 6.29,6.29 0 0 0 12.580008,6.29 6.29,6.29 0 0 0 6.2900079,0 Z m -0.02,0.93 0.01,0.01 A 5.4,5.4 0 0 1 11.680008,6.34 5.4,5.4 0 0 1 6.2800079,11.75 5.4,5.4 0 0 1 0.87000795,6.35 5.4,5.4 0 0 1 6.2700079,0.93 Z"
     id="path2"
     inkscape:connector-curvature="0"
     style="fill:#bde6fb;fill-opacity:1" />
  <g
     id="g6"
     style="fill:none;stroke:#1e3f5a;stroke-width:4;stroke-linecap:round;stroke-linejoin:round"
     transform="translate(-0.04999205,-0.07)">
    <path
       d="m 3.97,8.2 3.7,-5.02 m -4.23,0 2.12,2.38"
       id="path4"
       inkscape:connector-curvature="0"
       style="stroke:url(#linearGradient1);stroke-width:1.05832" />
  </g>
  <path
     d="M 7.4900079,9.59 V 7.21 h 1.86 v 1.32 h -1.86"
     id="path8"
     inkscape:connector-curvature="0"
     style="fill:none;stroke:#bde6fb;stroke-width:0.79;stroke-linecap:round;stroke-linejoin:round;stroke-opacity:1" />
</svg>
