<?xml version="1.0" encoding="UTF-8" standalone="no"?>
<svg
   width="47.546455"
   height="47.535118"
   viewBox="0 0 12.58 12.577"
   version="1.1"
   id="svg4"
   sodipodi:docname="zaproxy.svg"
   inkscape:version="0.92.5 (2060ec1f9f, 2020-04-08)"
   xmlns:inkscape="http://www.inkscape.org/namespaces/inkscape"
   xmlns:sodipodi="http://sodipodi.sourceforge.net/DTD/sodipodi-0.dtd"
   xmlns="http://www.w3.org/2000/svg"
   xmlns:svg="http://www.w3.org/2000/svg"
   xmlns:rdf="http://www.w3.org/1999/02/22-rdf-syntax-ns#"
   xmlns:cc="http://creativecommons.org/ns#"
   xmlns:dc="http://purl.org/dc/elements/1.1/">
  <metadata
     id="metadata10">
    <rdf:RDF>
      <cc:Work
         rdf:about="">
        <dc:format>image/svg+xml</dc:format>
        <dc:type
           rdf:resource="http://purl.org/dc/dcmitype/StillImage" />
        <dc:title />
      </cc:Work>
    </rdf:RDF>
  </metadata>
  <defs
     id="defs8" />
  <sodipodi:namedview
     pagecolor="#ffffff"
     bordercolor="#666666"
     borderopacity="1"
     objecttolerance="10"
     gridtolerance="10"
     guidetolerance="10"
     inkscape:pageopacity="0"
     inkscape:pageshadow="2"
     inkscape:window-width="1085"
     inkscape:window-height="480"
     id="namedview6"
     showgrid="false"
     inkscape:zoom="4.9166667"
     inkscape:cx="2.1355932"
     inkscape:cy="24"
     inkscape:window-x="0"
     inkscape:window-y="25"
     inkscape:window-maximized="0"
     inkscape:current-layer="svg4"
     inkscape:showpageshadow="0"
     inkscape:pagecheckerboard="0"
     inkscape:deskcolor="#d1d1d1" />
  <path
     d="m 6.3900001,0 0.735,1.011 A 5.408,5.408 0 0 1 11.672,6.322 5.407,5.407 0 0 1 10.738,9.359 l 0.524,0.77 A 6.295,6.295 0 0 0 12.58,6.279 6.295,6.295 0 0 0 6.3900001,0.001 Z m -0.447,0.48 -5.17300002,2.187 2.66300002,2.111 -0.723,0.437 2.93,2.035 -1.37,0.78 L 11.82,12.062 9.0620001,8.011 10.127,7.669 7.9400001,4.835 l 0.894,-0.304 -2.89,-4.05 z M 0.66000008,3.491 A 6.295,6.295 0 0 0 7.8529119e-8,6.281 6.295,6.295 0 0 0 6.2850001,12.577 a 6.295,6.295 0 0 0 3.237,-0.905 l -0.907,-0.484 A 5.407,5.407 0 0 1 0.85700008,6.323 c 0,-0.804 0.18700002,-1.56 0.50300002,-2.244 L 0.66000008,3.49 Z"
     id="path2"
     inkscape:connector-curvature="0"
     style="fill:#bde6fb;fill-opacity:1" />
</svg>
