<?xml version="1.0" encoding="UTF-8" standalone="no"?>
<svg
   width="47.543434"
   height="47.543434"
   version="1.1"
   viewBox="0 0 12.5792 12.5792"
   id="svg12"
   sodipodi:docname="zulip.svg"
   inkscape:version="0.92.4 (5da689c313, 2019-01-14)"
   xmlns:inkscape="http://www.inkscape.org/namespaces/inkscape"
   xmlns:sodipodi="http://sodipodi.sourceforge.net/DTD/sodipodi-0.dtd"
   xmlns="http://www.w3.org/2000/svg"
   xmlns:svg="http://www.w3.org/2000/svg"
   xmlns:rdf="http://www.w3.org/1999/02/22-rdf-syntax-ns#"
   xmlns:cc="http://creativecommons.org/ns#"
   xmlns:dc="http://purl.org/dc/elements/1.1/">
  <metadata
     id="metadata18">
    <rdf:RDF>
      <cc:Work
         rdf:about="">
        <dc:format>image/svg+xml</dc:format>
        <dc:type
           rdf:resource="http://purl.org/dc/dcmitype/StillImage" />
        <dc:title />
      </cc:Work>
    </rdf:RDF>
  </metadata>
  <defs
     id="defs16" />
  <sodipodi:namedview
     pagecolor="#ffffff"
     bordercolor="#666666"
     borderopacity="1"
     objecttolerance="10"
     gridtolerance="10"
     guidetolerance="10"
     inkscape:pageopacity="0"
     inkscape:pageshadow="2"
     inkscape:window-width="1136"
     inkscape:window-height="480"
     id="namedview14"
     showgrid="false"
     inkscape:zoom="4.9166667"
     inkscape:cx="2.1355932"
     inkscape:cy="24"
     inkscape:window-x="0"
     inkscape:window-y="25"
     inkscape:window-maximized="0"
     inkscape:current-layer="svg12"
     inkscape:showpageshadow="0"
     inkscape:pagecheckerboard="0"
     inkscape:deskcolor="#d1d1d1" />
  <path
     d="M 6.2844,0 C 2.816,0.0057471 0.0058,2.816 0,6.2844 c -4.6090225e-6,3.4725 2.8119,6.289 6.2844,6.2948 3.4765,0 6.2948,-2.8183 6.2948,-6.2948 C 12.5734,2.812 9.7568,0 6.2844,0 Z M 6.273961,0.93952 c 2.9743,0.00572 5.3856,2.4124 5.397,5.3866 0,2.9865 -2.421,5.4075 -5.4075,5.4075 -2.9865,0 -5.4075,-2.421 -5.4075,-5.4075 0,-2.9865 2.4314,-5.3866 5.4179,-5.3866 z"
     id="path2"
     inkscape:connector-curvature="0"
     style="fill:#bde6fb;fill-opacity:1;stroke-width:1.0439" />
  <g
     id="g10"
     style="stroke-width:0.31269"
     transform="translate(-0.0554,-0.075417)">
    <path
       d="m 3.3796,2.9104 0.78135,1.5632 h 2.8608 l 1.5172,-1.5632 z"
       id="path4"
       inkscape:connector-curvature="0"
       style="opacity:0.8;fill:#1b4f2f" />
    <path
       d="M 8.539,2.9104 3.3796,8.2264 H 5.6782 L 9.3204,4.4737 Z"
       id="path6"
       inkscape:connector-curvature="0"
       style="opacity:0.8;fill:#207344" />
    <path
       d="m 3.3796,8.2264 0.78135,1.5632 h 5.1594 L 8.539,8.2264 H 5.6782 Z"
       id="path8"
       inkscape:connector-curvature="0"
       style="opacity:0.8;fill:#219053" />
  </g>
</svg>
