<?xml version="1.0" encoding="UTF-8" standalone="no"?>
<svg
   width="47.546486"
   height="47.546486"
   viewBox="0 0 12.580008 12.580008"
   version="1.1"
   id="svg4"
   sodipodi:docname="zynaddsubfx.svg"
   inkscape:version="0.92.4 (5da689c313, 2019-01-14)"
   xmlns:inkscape="http://www.inkscape.org/namespaces/inkscape"
   xmlns:sodipodi="http://sodipodi.sourceforge.net/DTD/sodipodi-0.dtd"
   xmlns="http://www.w3.org/2000/svg"
   xmlns:svg="http://www.w3.org/2000/svg"
   xmlns:rdf="http://www.w3.org/1999/02/22-rdf-syntax-ns#"
   xmlns:cc="http://creativecommons.org/ns#"
   xmlns:dc="http://purl.org/dc/elements/1.1/">
  <metadata
     id="metadata10">
    <rdf:RDF>
      <cc:Work
         rdf:about="">
        <dc:format>image/svg+xml</dc:format>
        <dc:type
           rdf:resource="http://purl.org/dc/dcmitype/StillImage" />
        <dc:title />
      </cc:Work>
    </rdf:RDF>
  </metadata>
  <defs
     id="defs8" />
  <sodipodi:namedview
     pagecolor="#ffffff"
     bordercolor="#666666"
     borderopacity="1"
     objecttolerance="10"
     gridtolerance="10"
     guidetolerance="10"
     inkscape:pageopacity="0"
     inkscape:pageshadow="2"
     inkscape:window-width="1087"
     inkscape:window-height="480"
     id="namedview6"
     showgrid="false"
     inkscape:zoom="4.9166667"
     inkscape:cx="2.1355932"
     inkscape:cy="24"
     inkscape:window-x="0"
     inkscape:window-y="25"
     inkscape:window-maximized="0"
     inkscape:current-layer="svg4"
     inkscape:showpageshadow="0"
     inkscape:pagecheckerboard="0"
     inkscape:deskcolor="#d1d1d1" />
  <path
     d="M 6.2900079,0 A 6.29,6.29 0 0 0 7.9490244e-6,6.3 6.29,6.29 0 0 0 6.3000079,12.58 6.29,6.29 0 0 0 12.580008,6.29 6.29,6.29 0 0 0 6.2900079,0 Z m -0.02,0.93 0.01,0.01 A 5.4,5.4 0 0 1 11.680008,6.34 5.4,5.4 0 0 1 6.2800079,11.75 5.4,5.4 0 0 1 0.87000795,6.35 5.4,5.4 0 0 1 6.2700079,0.93 Z m 0,0.8 a 4.6,4.6 0 0 0 -2.62,0.82 l 1.55,1.55 a 2.5,2.5 0 0 1 0.17,-0.08 2.5,2.5 0 0 1 0.24,-0.08 2.5,2.5 0 0 1 0.24,-0.05 2.5,2.5 0 0 1 0.25,-0.03 2.5,2.5 0 0 1 0.18,-0.01 2.5,2.5 0 0 1 0.26,0.02 2.5,2.5 0 0 1 0.24,0.03 2.5,2.5 0 0 1 0.24,0.07 2.5,2.5 0 0 1 0.24,0.08 2.5,2.5 0 0 1 0.12,0.06 l 1.54,-1.54 a 4.6,4.6 0 0 0 -2.64,-0.84 z m -3.72,1.88 a 4.6,4.6 0 0 0 -0.89,2.73 4.6,4.6 0 0 0 0.84,2.64 l 1.55,-1.53 a 2.5,2.5 0 0 1 -0.08,-0.19 2.5,2.5 0 0 1 -0.08,-0.23 2.5,2.5 0 0 1 -0.06,-0.25 2.5,2.5 0 0 1 -0.03,-0.24 2.5,2.5 0 0 1 0,-0.19 2.5,2.5 0 0 1 0,-0.24 2.5,2.5 0 0 1 0.05,-0.25 2.5,2.5 0 0 1 0.06,-0.24 2.5,2.5 0 0 1 0.08,-0.24 2.5,2.5 0 0 1 0.1,-0.22 l -1.54,-1.54 z M 10.020008,3.64 8.4900079,5.18 a 2.5,2.5 0 0 1 0.02,0.04 2.5,2.5 0 0 1 0.1,0.23 2.5,2.5 0 0 1 0.08,0.23 2.5,2.5 0 0 1 0.06,0.25 2.5,2.5 0 0 1 0.03,0.24 2.5,2.5 0 0 1 0,0.18 2.5,2.5 0 0 1 -0.01,0.25 2.5,2.5 0 0 1 -0.04,0.25 2.5,2.5 0 0 1 -0.06,0.24 2.5,2.5 0 0 1 -0.08,0.23 2.5,2.5 0 0 1 -0.05,0.1 l 1.5300001,1.54 a 4.6,4.6 0 0 0 0.82,-2.62 4.6,4.6 0 0 0 -0.87,-2.69 z M 5.0300079,4.77 v 0.6 h 1.57 l -1.61,1.94 v 0.47 h 2.62 v -0.6 h -1.66 l 1.62,-1.95 V 4.76 h -2.54 z m 2.45,3.78 a 2.5,2.5 0 0 1 -0.06,0.03 2.5,2.5 0 0 1 -0.22,0.1 2.5,2.5 0 0 1 -0.24,0.08 2.5,2.5 0 0 1 -0.24,0.05 2.5,2.5 0 0 1 -0.25,0.03 2.5,2.5 0 0 1 -0.18,0 2.5,2.5 0 0 1 -0.25,0 2.5,2.5 0 0 1 -0.25,-0.04 2.5,2.5 0 0 1 -0.24,-0.06 2.5,2.5 0 0 1 -0.23,-0.09 2.5,2.5 0 0 1 -0.2,-0.1 l -1.54,1.54 a 4.6,4.6 0 0 0 2.7,0.87 4.6,4.6 0 0 0 2.71,-0.9 z"
     id="path2"
     inkscape:connector-curvature="0"
     style="fill:#bde6fb;fill-opacity:1" />
</svg>
