<?xml version="1.0" encoding="UTF-8" standalone="no"?>
<svg
   width="16.000038"
   height="16.000008"
   version="1.1"
   id="svg8"
   sodipodi:docname="audio-volume-medium.svg"
   inkscape:version="0.92.4 (5da689c313, 2019-01-14)"
   inkscape:export-filename="audio-volume-medium.svg"
   inkscape:export-xdpi="96"
   inkscape:export-ydpi="96"
   xmlns:inkscape="http://www.inkscape.org/namespaces/inkscape"
   xmlns:sodipodi="http://sodipodi.sourceforge.net/DTD/sodipodi-0.dtd"
   xmlns="http://www.w3.org/2000/svg"
   xmlns:svg="http://www.w3.org/2000/svg"
   xmlns:rdf="http://www.w3.org/1999/02/22-rdf-syntax-ns#"
   xmlns:cc="http://creativecommons.org/ns#"
   xmlns:dc="http://purl.org/dc/elements/1.1/">
  <metadata
     id="metadata14">
    <rdf:RDF>
      <cc:Work
         rdf:about="">
        <dc:format>image/svg+xml</dc:format>
        <dc:type
           rdf:resource="http://purl.org/dc/dcmitype/StillImage" />
        <dc:title />
      </cc:Work>
    </rdf:RDF>
  </metadata>
  <defs
     id="defs12" />
  <sodipodi:namedview
     pagecolor="#ffffff"
     bordercolor="#666666"
     borderopacity="1"
     objecttolerance="10"
     gridtolerance="10"
     guidetolerance="10"
     inkscape:pageopacity="0"
     inkscape:pageshadow="2"
     inkscape:window-width="1087"
     inkscape:window-height="480"
     id="namedview10"
     showgrid="false"
     inkscape:zoom="9.8333333"
     inkscape:cx="1.0677966"
     inkscape:cy="12"
     inkscape:window-x="0"
     inkscape:window-y="25"
     inkscape:window-maximized="0"
     inkscape:current-layer="svg8"
     inkscape:showpageshadow="0"
     inkscape:pagecheckerboard="0"
     inkscape:deskcolor="#d1d1d1" />
  <path
     class="ColorScheme-Text"
     d="m 11.324039,4.2910076 -0.539,0.861 a 4,4 0 0 1 1.215,2.858 4,4 0 0 1 -1.21,2.8610004 l 0.538,0.863 a 5,5 0 0 0 1.672,-3.7240004 5,5 0 0 0 -1.676,-3.719 z"
     id="path2"
     inkscape:connector-curvature="0"
     style="color:#31363b;fill:#bde6fb;fill-opacity:1" />
  <path
     class="ColorScheme-Text"
     d="m 10.865039,0.54700763 -0.244,0.97599997 a 7,7 0 0 1 4.379,6.487 7,7 0 0 1 -4.38,6.4780004 l 0.243,0.975 a 8,8 0 0 0 5.137,-7.4530004 8,8 0 0 0 -5.135,-7.46299997 z"
     id="path4"
     inkscape:connector-curvature="0"
     style="color:#31363b;opacity:0.25;fill:#bde6fb;fill-opacity:1" />
  <path
     d="M 7.9620393,16.000008 A 8,8 0 0 1 3.9339066e-5,7.9750076 8,8 0 0 1 8.0110393,7.6293945e-6 L 8.0000393,8.0000076 Z"
     id="path6"
     inkscape:connector-curvature="0"
     style="fill:#bde6fb;fill-opacity:1;fill-rule:evenodd" />
</svg>
