<?xml version="1.0" encoding="UTF-8" standalone="no"?>
<svg
   width="16.000038"
   height="16.00001"
   version="1.1"
   id="svg4"
   sodipodi:docname="audio-volume-high.svg"
   inkscape:version="0.92.4 (5da689c313, 2019-01-14)"
   xmlns:inkscape="http://www.inkscape.org/namespaces/inkscape"
   xmlns:sodipodi="http://sodipodi.sourceforge.net/DTD/sodipodi-0.dtd"
   xmlns="http://www.w3.org/2000/svg"
   xmlns:svg="http://www.w3.org/2000/svg"
   xmlns:rdf="http://www.w3.org/1999/02/22-rdf-syntax-ns#"
   xmlns:cc="http://creativecommons.org/ns#"
   xmlns:dc="http://purl.org/dc/elements/1.1/">
  <metadata
     id="metadata10">
    <rdf:RDF>
      <cc:Work
         rdf:about="">
        <dc:format>image/svg+xml</dc:format>
        <dc:type
           rdf:resource="http://purl.org/dc/dcmitype/StillImage" />
        <dc:title />
      </cc:Work>
    </rdf:RDF>
  </metadata>
  <defs
     id="defs8" />
  <sodipodi:namedview
     pagecolor="#ffffff"
     bordercolor="#666666"
     borderopacity="1"
     objecttolerance="10"
     gridtolerance="10"
     guidetolerance="10"
     inkscape:pageopacity="0"
     inkscape:pageshadow="2"
     inkscape:window-width="1087"
     inkscape:window-height="480"
     id="namedview6"
     showgrid="false"
     inkscape:zoom="9.8333333"
     inkscape:cx="1.0677966"
     inkscape:cy="12"
     inkscape:window-x="0"
     inkscape:window-y="25"
     inkscape:window-maximized="0"
     inkscape:current-layer="svg4"
     inkscape:showpageshadow="0"
     inkscape:pagecheckerboard="0"
     inkscape:deskcolor="#d1d1d1" />
  <path
     d="M 8.0120393,9.059906e-6 A 8,8 0 0 0 3.9339066e-5,7.9750091 8,8 0 0 0 7.9630393,16.000009 l 0.037,-7.9999999 z M 10.865039,0.54700906 l -0.244,0.97600004 a 7,7 0 0 1 4.379,6.487 7,7 0 0 1 -4.38,6.4779999 l 0.243,0.975 a 8,8 0 0 0 5.137,-7.4529999 8,8 0 0 0 -5.135,-7.46300004 z m 0.46,3.74400004 -0.54,0.861 a 4,4 0 0 1 1.215,2.858 4,4 0 0 1 -1.21,2.8609999 l 0.538,0.863 a 5,5 0 0 0 1.672,-3.7239999 5,5 0 0 0 -1.676,-3.719 z"
     id="path2"
     inkscape:connector-curvature="0"
     style="color:#31363b;fill:#bde6fb;fill-opacity:1" />
</svg>
