<?xml version="1.0" encoding="UTF-8" standalone="no"?>
<svg
   width="21.694752"
   height="21.732347"
   viewBox="0 0 5.7400697 5.7500169"
   version="1.1"
   id="svg4"
   sodipodi:docname="avatar-default.svg"
   inkscape:version="0.92.4 (5da689c313, 2019-01-14)"
   xmlns:inkscape="http://www.inkscape.org/namespaces/inkscape"
   xmlns:sodipodi="http://sodipodi.sourceforge.net/DTD/sodipodi-0.dtd"
   xmlns="http://www.w3.org/2000/svg"
   xmlns:svg="http://www.w3.org/2000/svg"
   xmlns:rdf="http://www.w3.org/1999/02/22-rdf-syntax-ns#"
   xmlns:cc="http://creativecommons.org/ns#"
   xmlns:dc="http://purl.org/dc/elements/1.1/">
  <metadata
     id="metadata10">
    <rdf:RDF>
      <cc:Work
         rdf:about="">
        <dc:format>image/svg+xml</dc:format>
        <dc:type
           rdf:resource="http://purl.org/dc/dcmitype/StillImage" />
        <dc:title />
      </cc:Work>
    </rdf:RDF>
  </metadata>
  <defs
     id="defs8" />
  <sodipodi:namedview
     pagecolor="#ffffff"
     bordercolor="#666666"
     borderopacity="1"
     objecttolerance="10"
     gridtolerance="10"
     guidetolerance="10"
     inkscape:pageopacity="0"
     inkscape:pageshadow="2"
     inkscape:window-width="1087"
     inkscape:window-height="480"
     id="namedview6"
     showgrid="false"
     inkscape:zoom="9.8333333"
     inkscape:cx="1.0677966"
     inkscape:cy="12"
     inkscape:window-x="0"
     inkscape:window-y="25"
     inkscape:window-maximized="0"
     inkscape:current-layer="svg4"
     inkscape:showpageshadow="0"
     inkscape:pagecheckerboard="0"
     inkscape:deskcolor="#d1d1d1" />
  <path
     d="M 2.8600698,-1.1920929e-8 A 2.87,2.87 0 0 0 6.9824457e-5,2.89 2.87,2.87 0 0 0 2.8600698,5.75 a 2.87,2.87 0 0 0 2.88,-2.87 2.87,2.87 0 0 0 -2.88,-2.87000001 z m 0,0.430000001920929 A 2.47,2.47 0 0 1 5.3200698,2.9 2.47,2.47 0 0 1 2.8600698,5.37 2.47,2.47 0 0 1 0.39006985,2.9 2.47,2.47 0 0 1 2.8600698,0.42999999 Z m 0.01,0.4 c -0.42,0 -0.76,0.30000001 -0.76,0.69000001 0,0.13 0.02,0.3 0.1,0.68 0.04,0.1 0.28,0.32 0.41,0.46 a 0.3,0.3 0 0 1 -0.03,0.16 c -0.44,0.15 -1.22,0.43 -1.27,0.61 l -0.11,0.98 c 0.77,0.42 2.57,0.4 3.31,0 -0.03,-0.2 -0.05,-0.78 -0.08,-0.98 -0.2,-0.23 -0.71,-0.37 -1.26,-0.61 a 0.24,0.24 0 0 1 -0.05,-0.12 c 0.11,-0.13 0.37,-0.4 0.4,-0.51 0.1,-0.4 0.1,-0.54 0.11,-0.68 0,-0.38 -0.34,-0.69000001 -0.77,-0.69000001 z"
     id="path2"
     inkscape:connector-curvature="0"
     style="fill:#bde6fb;fill-opacity:1" />
</svg>
