<?xml version="1.0" encoding="UTF-8" standalone="no"?>
<svg
   height="20.01"
   width="17.991838"
   version="1.1"
   id="svg4"
   sodipodi:docname="bluetooth-searching.svg"
   inkscape:version="0.92.4 (5da689c313, 2019-01-14)"
   xmlns:inkscape="http://www.inkscape.org/namespaces/inkscape"
   xmlns:sodipodi="http://sodipodi.sourceforge.net/DTD/sodipodi-0.dtd"
   xmlns="http://www.w3.org/2000/svg"
   xmlns:svg="http://www.w3.org/2000/svg"
   xmlns:rdf="http://www.w3.org/1999/02/22-rdf-syntax-ns#"
   xmlns:cc="http://creativecommons.org/ns#"
   xmlns:dc="http://purl.org/dc/elements/1.1/">
  <metadata
     id="metadata10">
    <rdf:RDF>
      <cc:Work
         rdf:about="">
        <dc:format>image/svg+xml</dc:format>
        <dc:type
           rdf:resource="http://purl.org/dc/dcmitype/StillImage" />
        <dc:title />
      </cc:Work>
    </rdf:RDF>
  </metadata>
  <defs
     id="defs8" />
  <sodipodi:namedview
     pagecolor="#ffffff"
     bordercolor="#666666"
     borderopacity="1"
     objecttolerance="10"
     gridtolerance="10"
     guidetolerance="10"
     inkscape:pageopacity="0"
     inkscape:pageshadow="2"
     inkscape:window-width="1087"
     inkscape:window-height="480"
     id="namedview6"
     showgrid="false"
     inkscape:zoom="9.8333333"
     inkscape:cx="1.0677966"
     inkscape:cy="12"
     inkscape:window-x="0"
     inkscape:window-y="25"
     inkscape:window-maximized="0"
     inkscape:current-layer="svg4"
     inkscape:showpageshadow="0"
     inkscape:pagecheckerboard="0"
     inkscape:deskcolor="#d1d1d1" />
  <path
     d="m 11.24,10.01 2.32,2.32 a 6.46,6.46 0 0 0 0.01,-4.6500001 z m 5.3,-5.3000001 -1.27,1.27 a 8.71,8.71 0 0 1 0,8.0500001 l 1.2,1.2 A 10.02,10.02 0 0 0 16.53,4.7099999 Z m -3.83,1 L 7.0099999,-1.0490417e-7 h -1 V 7.5799999 l -4.59,-4.57 -1.42000001444092,1.4 L 5.5899999,9.9999999 -1.1444092e-7,15.58 1.4199999,17.01 l 4.58,-4.59 v 7.59 h 1 L 12.71,14.31 8.4199999,10.01 Z m -4.7000001,-1.88 1.87,1.88 -1.88,1.87 z m 1.87,10.4600001 -1.88,1.88 v -3.76 z"
     id="path2"
     inkscape:connector-curvature="0"
     style="fill:#bde6fb;fill-opacity:1" />
</svg>
