<?xml version="1.0" encoding="UTF-8" standalone="no"?>
<svg
   height="22.129999"
   width="22.09"
   version="1.1"
   id="svg4"
   sodipodi:docname="bluetooth-paired.svg"
   inkscape:version="0.92.4 (5da689c313, 2019-01-14)"
   xmlns:inkscape="http://www.inkscape.org/namespaces/inkscape"
   xmlns:sodipodi="http://sodipodi.sourceforge.net/DTD/sodipodi-0.dtd"
   xmlns="http://www.w3.org/2000/svg"
   xmlns:svg="http://www.w3.org/2000/svg"
   xmlns:rdf="http://www.w3.org/1999/02/22-rdf-syntax-ns#"
   xmlns:cc="http://creativecommons.org/ns#"
   xmlns:dc="http://purl.org/dc/elements/1.1/">
  <metadata
     id="metadata10">
    <rdf:RDF>
      <cc:Work
         rdf:about="">
        <dc:format>image/svg+xml</dc:format>
        <dc:type
           rdf:resource="http://purl.org/dc/dcmitype/StillImage" />
        <dc:title />
      </cc:Work>
    </rdf:RDF>
  </metadata>
  <defs
     id="defs8" />
  <sodipodi:namedview
     pagecolor="#ffffff"
     bordercolor="#666666"
     borderopacity="1"
     objecttolerance="10"
     gridtolerance="10"
     guidetolerance="10"
     inkscape:pageopacity="0"
     inkscape:pageshadow="2"
     inkscape:window-width="1087"
     inkscape:window-height="480"
     id="namedview6"
     showgrid="false"
     inkscape:zoom="9.8333333"
     inkscape:cx="1.0677966"
     inkscape:cy="12"
     inkscape:window-x="0"
     inkscape:window-y="25"
     inkscape:window-maximized="0"
     inkscape:current-layer="svg4"
     inkscape:showpageshadow="0"
     inkscape:pagecheckerboard="0"
     inkscape:deskcolor="#d1d1d1" />
  <path
     d="M 6,0 V 7.59 L 1.41,3 2.3841858e-8,4.41 5.58,10 2.3841858e-8,15.59 1.41,17 6,12.41 V 20 H 7 L 12.7,14.3 8.41,10 12.71,5.7 6.99,0 Z M 8,3.83 9.88,5.71 8,7.6 Z M 8,12.41 9.88,14.29 8,16.17 Z m 9.78,-1.42 a 2.65,2.65 0 0 0 -2.65,2.65 v 1.06 h -1.59 v 6.36 c 0,0.6 0.47,1.07 1.06,1.07 h 6.36 c 0.59,0 1.06,-0.48 1.06,-1.07 l 0.07,-6.34 -1.13,-0.02 h -0.53 v -1.06 a 2.65,2.65 0 0 0 -2.65,-2.65 z m 0,1 c 0.9,0 1.64,0.74 1.64,1.65 v 1.06 h -3.27 v -1.06 c 0,-0.9 0.73,-1.65 1.64,-1.65 z"
     id="path2"
     inkscape:connector-curvature="0"
     style="fill:#bde6fb;fill-opacity:1" />
</svg>
