<?xml version="1.0" encoding="UTF-8" standalone="no"?>
<svg
   width="17.969999"
   height="20.200207"
   version="1.1"
   id="svg4"
   sodipodi:docname="budgie-caffeine-cup-full.svg"
   inkscape:version="0.92.4 (5da689c313, 2019-01-14)"
   xmlns:inkscape="http://www.inkscape.org/namespaces/inkscape"
   xmlns:sodipodi="http://sodipodi.sourceforge.net/DTD/sodipodi-0.dtd"
   xmlns="http://www.w3.org/2000/svg"
   xmlns:svg="http://www.w3.org/2000/svg"
   xmlns:rdf="http://www.w3.org/1999/02/22-rdf-syntax-ns#"
   xmlns:cc="http://creativecommons.org/ns#"
   xmlns:dc="http://purl.org/dc/elements/1.1/">
  <metadata
     id="metadata10">
    <rdf:RDF>
      <cc:Work
         rdf:about="">
        <dc:format>image/svg+xml</dc:format>
        <dc:type
           rdf:resource="http://purl.org/dc/dcmitype/StillImage" />
        <dc:title />
      </cc:Work>
    </rdf:RDF>
  </metadata>
  <defs
     id="defs8" />
  <sodipodi:namedview
     pagecolor="#ffffff"
     bordercolor="#666666"
     borderopacity="1"
     objecttolerance="10"
     gridtolerance="10"
     guidetolerance="10"
     inkscape:pageopacity="0"
     inkscape:pageshadow="2"
     inkscape:window-width="640"
     inkscape:window-height="480"
     id="namedview6"
     showgrid="false"
     inkscape:zoom="9.8333333"
     inkscape:cx="10.220339"
     inkscape:cy="12"
     inkscape:window-x="0"
     inkscape:window-y="25"
     inkscape:window-maximized="0"
     inkscape:current-layer="svg4"
     inkscape:showpageshadow="0"
     inkscape:pagecheckerboard="0"
     inkscape:deskcolor="#d1d1d1" />
  <path
     d="M 4.75,2.3841858e-8 C 3.1,2.07 2.61,2.36 3.2,3.68 3.74,4.88 5.13,4.73 4.43,7.5 5.58,6.15 6.5,5.2 5.59,3.81 4.67,2.41 4.17,2.3 4.75,0.01000002 Z m 4.5,0 C 7.6,2.07 7.11,2.36 7.7,3.68 8.24,4.88 9.63,4.73 8.93,7.5 10.08,6.15 11,5.2 10.09,3.81 9.17,2.41 8.67,2.3 9.25,0.01000002 Z m 4.5,0 C 12.1,2.07 11.61,2.36 12.2,3.68 12.74,4.88 14.13,4.73 13.43,7.5 14.58,6.15 15.5,5.2 14.59,3.81 13.67,2.41 13.17,2.3 13.75,0.01000002 Z M 0.59000004,8.07 A 8.98,8.98 0 0 0 3.8146973e-8,11.22 8.98,8.98 0 0 0 4.5,19 a 8.98,8.98 0 0 0 8.97,0 8.98,8.98 0 0 0 4.5,-7.78 8.98,8.98 0 0 0 -0.58,-3.15 z"
     id="path2"
     inkscape:connector-curvature="0"
     style="fill:#bde6fb;fill-opacity:1" />
</svg>
