<?xml version="1.0" encoding="UTF-8" standalone="no"?>
<svg
   width="15.4286"
   height="18"
   id="svg7"
   version="1.1"
   sodipodi:docname="camera-on.svg"
   inkscape:version="0.92.4 (5da689c313, 2019-01-14)"
   xmlns:inkscape="http://www.inkscape.org/namespaces/inkscape"
   xmlns:sodipodi="http://sodipodi.sourceforge.net/DTD/sodipodi-0.dtd"
   xmlns="http://www.w3.org/2000/svg"
   xmlns:svg="http://www.w3.org/2000/svg"
   xmlns:rdf="http://www.w3.org/1999/02/22-rdf-syntax-ns#"
   xmlns:cc="http://creativecommons.org/ns#"
   xmlns:dc="http://purl.org/dc/elements/1.1/">
  <metadata
     id="metadata8">
    <rdf:RDF>
      <cc:Work
         rdf:about="">
        <dc:format>image/svg+xml</dc:format>
        <dc:type
           rdf:resource="http://purl.org/dc/dcmitype/StillImage" />
        <dc:title />
      </cc:Work>
    </rdf:RDF>
  </metadata>
  <sodipodi:namedview
     pagecolor="#ffffff"
     bordercolor="#666666"
     borderopacity="1"
     objecttolerance="10"
     gridtolerance="10"
     guidetolerance="10"
     inkscape:pageopacity="0"
     inkscape:pageshadow="2"
     inkscape:window-width="1087"
     inkscape:window-height="480"
     id="namedview6"
     showgrid="false"
     inkscape:zoom="9.8333333"
     inkscape:cx="1.0677966"
     inkscape:cy="12"
     inkscape:window-x="0"
     inkscape:window-y="25"
     inkscape:window-maximized="0"
     inkscape:current-layer="svg7"
     inkscape:showpageshadow="0"
     inkscape:pagecheckerboard="0"
     inkscape:deskcolor="#d1d1d1" />
  <defs
     id="defs3">
    <style
       id="current-color-scheme" />
  </defs>
  <path
     d="M 7.7143002,0 C 3.4538002,0 1.5563965e-7,3.4538 1.5563965e-7,7.7143 1.5563965e-7,10.3976 1.3768002,12.7608 3.4554002,14.1429 h -0.884 C 1.5563965e-7,14.1429 1.5563965e-7,16.7143 1.5563965e-7,16.7143 V 18 H 15.4286 v -1.2857 c 0,0 0,-2.5714 -2.5714,-2.5714 h -0.884 c 2.0786,-1.382 3.4554,-3.7453 3.4554,-6.4286 C 15.4286,3.4538 11.9748,0 7.7143002,0 Z m 0,5.1479 a 2.5714,2.5714 0 0 1 2.5713998,2.5714 2.5714,2.5714 0 0 1 -2.5713998,2.5714 2.5714,2.5714 0 0 1 -2.5714,-2.5714 2.5714,2.5714 0 0 1 2.5714,-2.5713 z"
     id="path5"
     inkscape:connector-curvature="0"
     style="color:#dfdfdf;fill:#bde6fb;fill-opacity:1;stroke-width:1.2857" />
</svg>
