<?xml version="1.0" encoding="UTF-8" standalone="no"?>
<svg
   width="20.110001"
   height="20.110001"
   id="svg7"
   version="1.1"
   sodipodi:docname="camera-off.svg"
   inkscape:version="0.92.4 (5da689c313, 2019-01-14)"
   xmlns:inkscape="http://www.inkscape.org/namespaces/inkscape"
   xmlns:sodipodi="http://sodipodi.sourceforge.net/DTD/sodipodi-0.dtd"
   xmlns="http://www.w3.org/2000/svg"
   xmlns:svg="http://www.w3.org/2000/svg"
   xmlns:rdf="http://www.w3.org/1999/02/22-rdf-syntax-ns#"
   xmlns:cc="http://creativecommons.org/ns#"
   xmlns:dc="http://purl.org/dc/elements/1.1/">
  <metadata
     id="metadata8">
    <rdf:RDF>
      <cc:Work
         rdf:about="">
        <dc:format>image/svg+xml</dc:format>
        <dc:type
           rdf:resource="http://purl.org/dc/dcmitype/StillImage" />
        <dc:title />
      </cc:Work>
    </rdf:RDF>
  </metadata>
  <sodipodi:namedview
     pagecolor="#ffffff"
     bordercolor="#666666"
     borderopacity="1"
     objecttolerance="10"
     gridtolerance="10"
     guidetolerance="10"
     inkscape:pageopacity="0"
     inkscape:pageshadow="2"
     inkscape:window-width="1087"
     inkscape:window-height="480"
     id="namedview6"
     showgrid="false"
     inkscape:zoom="9.8333333"
     inkscape:cx="1.0677966"
     inkscape:cy="12"
     inkscape:window-x="0"
     inkscape:window-y="25"
     inkscape:window-maximized="0"
     inkscape:current-layer="svg7"
     inkscape:showpageshadow="0"
     inkscape:pagecheckerboard="0"
     inkscape:deskcolor="#d1d1d1" />
  <defs
     id="defs3">
    <style
       id="current-color-scheme" />
  </defs>
  <path
     d="M 18.852,-5.2452087e-8 15.522,3.3299999 a 7.688,7.688 0 0 0 -5.467,-2.275 7.715,7.715 0 0 0 -7.7150001,7.715 c 0,2.1340001 1.027,3.9160001 2.43,5.3120001 L -5.2452087e-8,18.852 1.2579999,20.11 20.11,1.2579999 Z M 17.18,6.1879999 4.3129999,19.055 H 17.77 V 17.77 c 0,0 -0.001,-2.572 -2.572,-2.572 H 14.315 A 7.711,7.711 0 0 0 17.77,8.7699999 c 0,-0.934 -0.253,-1.777 -0.59,-2.582 z m -7.125,0.015 a 2.571,2.571 0 0 1 1.828,0.766 L 8.2499999,10.602 a 2.571,2.571 0 0 1 -0.767,-1.8280001 2.571,2.571 0 0 1 2.5720001,-2.57 z"
     id="rect815"
     inkscape:connector-curvature="0"
     style="fill:#bde6fb;fill-opacity:1;stroke-width:0.624" />
</svg>
