<?xml version="1.0" encoding="UTF-8" standalone="no"?>
<svg
   width="20"
   height="20"
   id="svg9"
   version="1.1"
   sodipodi:docname="caps-lock-on.svg"
   inkscape:version="0.92.4 (5da689c313, 2019-01-14)"
   xmlns:inkscape="http://www.inkscape.org/namespaces/inkscape"
   xmlns:sodipodi="http://sodipodi.sourceforge.net/DTD/sodipodi-0.dtd"
   xmlns="http://www.w3.org/2000/svg"
   xmlns:svg="http://www.w3.org/2000/svg"
   xmlns:rdf="http://www.w3.org/1999/02/22-rdf-syntax-ns#"
   xmlns:cc="http://creativecommons.org/ns#"
   xmlns:dc="http://purl.org/dc/elements/1.1/">
  <metadata
     id="metadata8">
    <rdf:RDF>
      <cc:Work
         rdf:about="">
        <dc:format>image/svg+xml</dc:format>
        <dc:type
           rdf:resource="http://purl.org/dc/dcmitype/StillImage" />
        <dc:title />
      </cc:Work>
    </rdf:RDF>
  </metadata>
  <sodipodi:namedview
     pagecolor="#ffffff"
     bordercolor="#666666"
     borderopacity="1"
     objecttolerance="10"
     gridtolerance="10"
     guidetolerance="10"
     inkscape:pageopacity="0"
     inkscape:pageshadow="2"
     inkscape:window-width="1138"
     inkscape:window-height="480"
     id="namedview6"
     showgrid="false"
     inkscape:zoom="9.8333333"
     inkscape:cx="1.0677966"
     inkscape:cy="12"
     inkscape:window-x="0"
     inkscape:window-y="25"
     inkscape:window-maximized="0"
     inkscape:current-layer="svg9"
     inkscape:showpageshadow="0"
     inkscape:pagecheckerboard="0"
     inkscape:deskcolor="#d1d1d1" />
  <defs
     id="defs3">
    <style
       id="current-color-scheme" />
  </defs>
  <path
     d="M 10,0 A 10,10 0 0 0 0,10 10,10 0 0 0 10,20 10,10 0 0 0 20,10 10,10 0 0 0 10,0 Z m 0,2.222 A 7.778,7.778 0 0 1 17.778,10 7.778,7.778 0 0 1 10,17.778 7.778,7.778 0 0 1 2.222,10 7.778,7.778 0 0 1 10,2.222 Z m -1.378,2.16 -3.733,10.62 h 2.416 l 0.77,-2.517 h 3.852 l 0.77,2.517 h 2.414 L 11.363,4.382 Z M 10,6.024 c 0.05,0.198 0.114,0.43 0.193,0.697 0.08,0.267 0.158,0.529 0.237,0.786 0.079,0.256 0.143,0.47 0.193,0.638 l 0.77,2.458 H 8.637 L 9.392,8.145 C 9.432,8.035 9.486,7.852 9.555,7.595 9.635,7.329 9.715,7.053 9.794,6.766 9.883,6.47 9.951,6.222 10,6.024 Z"
     id="path818"
     inkscape:connector-curvature="0"
     style="fill:#bde6fb;fill-opacity:1;stroke-width:2.5" />
</svg>
