<?xml version="1.0" encoding="UTF-8" standalone="no"?>
<svg
   width="18.000017"
   height="18.000017"
   version="1.1"
   id="svg7"
   sodipodi:docname="cisco-tray-notconnected.svg"
   inkscape:version="0.92.5 (2060ec1f9f, 2020-04-08)"
   xmlns:inkscape="http://www.inkscape.org/namespaces/inkscape"
   xmlns:sodipodi="http://sodipodi.sourceforge.net/DTD/sodipodi-0.dtd"
   xmlns="http://www.w3.org/2000/svg"
   xmlns:svg="http://www.w3.org/2000/svg"
   xmlns:rdf="http://www.w3.org/1999/02/22-rdf-syntax-ns#"
   xmlns:cc="http://creativecommons.org/ns#"
   xmlns:dc="http://purl.org/dc/elements/1.1/">
  <metadata
     id="metadata8">
    <rdf:RDF>
      <cc:Work
         rdf:about="">
        <dc:format>image/svg+xml</dc:format>
        <dc:type
           rdf:resource="http://purl.org/dc/dcmitype/StillImage" />
        <dc:title />
      </cc:Work>
    </rdf:RDF>
  </metadata>
  <sodipodi:namedview
     pagecolor="#ffffff"
     bordercolor="#666666"
     borderopacity="1"
     objecttolerance="10"
     gridtolerance="10"
     guidetolerance="10"
     inkscape:pageopacity="0"
     inkscape:pageshadow="2"
     inkscape:window-width="1085"
     inkscape:window-height="480"
     id="namedview6"
     showgrid="false"
     inkscape:zoom="9.8333333"
     inkscape:cx="1.0677966"
     inkscape:cy="12"
     inkscape:window-x="0"
     inkscape:window-y="25"
     inkscape:window-maximized="0"
     inkscape:current-layer="svg7"
     inkscape:showpageshadow="0"
     inkscape:pagecheckerboard="0"
     inkscape:deskcolor="#d1d1d1" />
  <defs
     id="defs3">
    <style
       id="current-color-scheme"
       type="text/css" />
  </defs>
  <path
     d="M 9,1.6927719e-5 A 8.972,8.972 0 0 0 1.176,4.5500169 a 8.979,8.979 0 0 1 6.174,-1.008 l 0.006,-0.015 a 8.892,8.892 0 0 1 0.934,-1.789 c 0.034,-0.05 0.065,-0.102 0.1,-0.152 0.17,-0.242 0.353,-0.476 0.546,-0.69999997 0.032,-0.037 0.06,-0.076 0.093,-0.113 0.23,-0.258 0.471,-0.505 0.73,-0.736 A 9.15,9.15 0 0 0 9,1.6927719e-5 Z M 12.63,0.76201693 c -0.326,0.17 -0.63,0.36999997 -0.92,0.58999997 -0.073,0.053 -0.14,0.114 -0.21,0.17 a 6.712,6.712 0 0 0 -0.683,0.636 c -0.033,0.036 -0.068,0.07 -0.1,0.107 a 6.79,6.79 0 0 0 -1.227,1.987 8.97,8.97 0 0 1 5.135,8.1230001 c 0,0.344 -0.03,0.681 -0.068,1.015 h 0.01 c 0.385,0.068 0.779,0.11 1.183,0.11 0.373,0 0.736,-0.039 1.092,-0.097 A 8.949,8.949 0 0 0 18,9.0000169 8.977,8.977 0 0 0 12.63,0.76201693 Z M 5.625,5.6250169 a 6.735,6.735 0 0 0 -5.605,2.975 c -0.006,0.134 -0.02,0.265 -0.02,0.4 0,4.9860001 4.014,9.0000001 9,9.0000001 0.134,0 0.265,-0.014 0.398,-0.02 H 9.4 a 6.736,6.736 0 0 0 2.496,-3.1 l -0.004,-0.002 a 8.94,8.94 0 0 1 -1.048,-0.59 c -0.037,-0.023 -0.072,-0.048 -0.108,-0.072 a 8.978,8.978 0 0 1 -0.92,-0.7 l -0.012,-0.01 a 8.997,8.997 0 0 1 -0.826,-0.832 l -0.103,-0.121 a 8.95,8.95 0 0 1 -0.66,-0.877 l -0.043,-0.066 a 8.954,8.954 0 0 1 -0.547,-0.995 c -0.032,-0.066 -0.06,-0.133 -0.09,-0.2 A 8.9,8.9 0 0 1 7.145,9.3930169 c -0.007,-0.024 -0.017,-0.046 -0.024,-0.07 a 8.996,8.996 0 0 1 -0.285,-1.387 9.108,9.108 0 0 1 -0.086,-1.186 c 0,-0.344 0.02,-0.682 0.057,-1.015 a 6.831,6.831 0 0 0 -1.182,-0.11 z m 3.39,0.914 c -0.002,0.071 -0.015,0.14 -0.015,0.211 0,0.28 0.022,0.553 0.055,0.824 0.01,0.083 0.024,0.164 0.037,0.246 0.032,0.198 0.07,0.393 0.119,0.585 0.02,0.08 0.039,0.158 0.061,0.237 0.075,0.255 0.16,0.505 0.262,0.747 0.109,0.256 0.235,0.502 0.373,0.7400001 l 0.058,0.095 c 0.13,0.216 0.271,0.425 0.424,0.624 0.015,0.02 0.028,0.04 0.044,0.06 0.344,0.44 0.741,0.835 1.184,1.177 l 0.055,0.042 c 0.216,0.163 0.442,0.315 0.677,0.452 l 0.013,0.01 c 0.002,-0.072 0.013,-0.142 0.013,-0.214 0,-2.5000001 -1.35,-4.6700001 -3.36,-5.8360001 z m 5.01,9.0350001 c -0.165,0.432 -0.35,0.853 -0.576,1.25 a 8.995,8.995 0 0 0 1.525,-1.114 l -0.008,-0.002 a 9.038,9.038 0 0 1 -0.94,-0.134 z"
     id="path5"
     inkscape:connector-curvature="0"
     style="color:#dfdfdf;fill:#bde6fb;fill-opacity:1;stroke-width:1.125" />
</svg>
