<?xml version="1.0" encoding="UTF-8" standalone="no"?>
<svg
   width="19.000019"
   height="17.882038"
   version="1.1"
   id="svg7"
   sodipodi:docname="cisco-tray-connected.svg"
   inkscape:version="0.92.5 (2060ec1f9f, 2020-04-08)"
   xmlns:inkscape="http://www.inkscape.org/namespaces/inkscape"
   xmlns:sodipodi="http://sodipodi.sourceforge.net/DTD/sodipodi-0.dtd"
   xmlns="http://www.w3.org/2000/svg"
   xmlns:svg="http://www.w3.org/2000/svg"
   xmlns:rdf="http://www.w3.org/1999/02/22-rdf-syntax-ns#"
   xmlns:cc="http://creativecommons.org/ns#"
   xmlns:dc="http://purl.org/dc/elements/1.1/">
  <metadata
     id="metadata8">
    <rdf:RDF>
      <cc:Work
         rdf:about="">
        <dc:format>image/svg+xml</dc:format>
        <dc:type
           rdf:resource="http://purl.org/dc/dcmitype/StillImage" />
        <dc:title />
      </cc:Work>
    </rdf:RDF>
  </metadata>
  <sodipodi:namedview
     pagecolor="#ffffff"
     bordercolor="#666666"
     borderopacity="1"
     objecttolerance="10"
     gridtolerance="10"
     guidetolerance="10"
     inkscape:pageopacity="0"
     inkscape:pageshadow="2"
     inkscape:window-width="1085"
     inkscape:window-height="480"
     id="namedview6"
     showgrid="false"
     inkscape:zoom="9.8333333"
     inkscape:cx="1.0677966"
     inkscape:cy="12"
     inkscape:window-x="0"
     inkscape:window-y="25"
     inkscape:window-maximized="0"
     inkscape:current-layer="svg7"
     inkscape:showpageshadow="0"
     inkscape:pagecheckerboard="0"
     inkscape:deskcolor="#d1d1d1" />
  <defs
     id="defs3">
    <style
       id="current-color-scheme"
       type="text/css" />
  </defs>
  <path
     d="m 8.9410203,1.7866135e-5 a 8.913,8.913 0 0 0 -7.773,4.520000033865 8.92,8.92 0 0 1 6.134,-1.001 l 0.006,-0.016 a 8.835,8.835 0 0 1 0.928,-1.776 c 0.034,-0.05 0.064,-0.102 0.098,-0.151 0.17,-0.241 0.352,-0.474 0.544,-0.69600003 0.031,-0.037 0.06,-0.076 0.092,-0.112 0.228,-0.256 0.468,-0.502 0.724,-0.731 a 9.09,9.09 0 0 0 -0.753,-0.03700000386 z M 12.54702,0.75701787 a 6.572,6.572 0 0 0 -0.914,0.58500003 c -0.072,0.054 -0.138,0.114 -0.208,0.17 -0.24,0.196 -0.469,0.405 -0.679,0.631 -0.033,0.036 -0.067,0.07 -0.1,0.107 a 6.746,6.746 0 0 0 -1.2179997,1.974 8.924,8.924 0 0 1 4.5999997,5.162 3.24,3.24 0 0 1 1.62,-0.445 c 0.838,0 1.593,0.327 2.178,0.847 0.026,-0.28 0.056,-0.56 0.056,-0.847 a 8.918,8.918 0 0 0 -5.335,-8.18400003 z M 5.5880203,5.5880179 a 6.69,6.69 0 0 0 -5.56800003,2.956 c -0.006,0.132 -0.02000000442,0.263 -0.02000000442,0.397 A 8.922,8.922 0 0 0 8.9410203,17.882018 c 0.134,0 0.263,-0.014 0.395,-0.02 h 0.002 a 6.674,6.674 0 0 0 1.8379997,-1.883 v -1.558 c -0.133,-0.078 -0.274,-0.143 -0.403,-0.227 -0.037,-0.023 -0.072,-0.048 -0.107,-0.072 a 8.92,8.92 0 0 1 -0.9149997,-0.696 l -0.01,-0.009 a 8.938,8.938 0 0 1 -0.822,-0.827 l -0.102,-0.12 a 8.89,8.89 0 0 1 -0.655,-0.871 l -0.044,-0.066 a 8.895,8.895 0 0 1 -0.543,-0.989 c -0.032,-0.065 -0.06,-0.132 -0.09,-0.198 a 8.84,8.84 0 0 1 -0.386,-1.0150001 c -0.008,-0.024 -0.017,-0.046 -0.024,-0.07 a 8.937,8.937 0 0 1 -0.284,-1.377 9.062,9.062 0 0 1 -0.085,-1.18 c 0,-0.34 0.02,-0.677 0.057,-1.008 a 6.776,6.776 0 0 0 -1.175,-0.109 z m 3.368,0.908 c -0.002,0.07 -0.015,0.138 -0.015,0.21 0,0.278 0.022,0.55 0.055,0.818 0.01,0.083 0.024,0.164 0.037,0.245 0.031,0.196 0.07,0.39 0.118,0.58 0.02,0.08 0.038,0.158 0.06,0.236 0.075,0.254 0.159,0.503 0.26,0.742 0.109,0.255 0.234,0.499 0.372,0.7360001 l 0.056,0.094 c 0.1299997,0.215 0.2699997,0.422 0.4219997,0.62 l 0.043,0.059 c 0.343,0.437 0.737,0.83 1.177,1.17 l 0.055,0.041 c 0.117,0.09 0.245,0.165 0.368,0.247 h 0.33 A 6.683,6.683 0 0 0 8.9560203,6.4960179 Z M 15.64702,10.059018 c -1.238,0 -2.235,1.018 -2.235,2.27 v 1.083 h -1.118 v 4.47 h 6.706 v -4.47 h -1.118 v -1.083 c 0,-1.252 -0.997,-2.27 -2.235,-2.27 z m 0,1.117 c 0.62,0 1.118,0.495 1.118,1.118 v 1.118 h -2.236 v -1.118 c 0,-0.623 0.499,-1.118 1.118,-1.118 z"
     id="path5"
     inkscape:connector-curvature="0"
     style="color:#dfdfdf;fill:#bde6fb;fill-opacity:1;stroke-width:1.118" />
</svg>
