<?xml version="1.0" encoding="UTF-8" standalone="no"?>
<svg
   width="18.99876"
   height="17.882038"
   version="1.1"
   id="svg7"
   sodipodi:docname="cisco-tray-reconnecting.svg"
   inkscape:version="0.92.5 (2060ec1f9f, 2020-04-08)"
   xmlns:inkscape="http://www.inkscape.org/namespaces/inkscape"
   xmlns:sodipodi="http://sodipodi.sourceforge.net/DTD/sodipodi-0.dtd"
   xmlns="http://www.w3.org/2000/svg"
   xmlns:svg="http://www.w3.org/2000/svg"
   xmlns:rdf="http://www.w3.org/1999/02/22-rdf-syntax-ns#"
   xmlns:cc="http://creativecommons.org/ns#"
   xmlns:dc="http://purl.org/dc/elements/1.1/">
  <metadata
     id="metadata8">
    <rdf:RDF>
      <cc:Work
         rdf:about="">
        <dc:format>image/svg+xml</dc:format>
        <dc:type
           rdf:resource="http://purl.org/dc/dcmitype/StillImage" />
        <dc:title />
      </cc:Work>
    </rdf:RDF>
  </metadata>
  <sodipodi:namedview
     pagecolor="#ffffff"
     bordercolor="#666666"
     borderopacity="1"
     objecttolerance="10"
     gridtolerance="10"
     guidetolerance="10"
     inkscape:pageopacity="0"
     inkscape:pageshadow="2"
     inkscape:window-width="1085"
     inkscape:window-height="480"
     id="namedview6"
     showgrid="false"
     inkscape:zoom="9.8333333"
     inkscape:cx="1.0677966"
     inkscape:cy="12"
     inkscape:window-x="0"
     inkscape:window-y="25"
     inkscape:window-maximized="0"
     inkscape:current-layer="svg7"
     inkscape:showpageshadow="0"
     inkscape:pagecheckerboard="0"
     inkscape:deskcolor="#d1d1d1" />
  <defs
     id="defs3">
    <style
       id="current-color-scheme"
       type="text/css" />
  </defs>
  <path
     d="m 8.9410203,1.7866135e-5 a 8.913,8.913 0 0 0 -7.773,4.520000033865 8.92,8.92 0 0 1 6.134,-1.001 l 0.006,-0.016 a 8.834,8.834 0 0 1 0.928,-1.777 c 0.034,-0.05 0.064,-0.1 0.098,-0.15 0.17,-0.241 0.352,-0.474 0.544,-0.69700003 0.031,-0.036 0.06,-0.075 0.092,-0.11 0.228,-0.257 0.468,-0.503 0.724,-0.732 a 9.09,9.09 0 0 0 -0.753,-0.03700000386 z M 12.54702,0.75701787 a 6.572,6.572 0 0 0 -0.914,0.58500003 c -0.072,0.054 -0.138,0.114 -0.208,0.17 -0.239,0.196 -0.469,0.405 -0.678,0.631 -0.034,0.036 -0.068,0.07 -0.1,0.107 a 6.746,6.746 0 0 0 -1.2189997,1.974 8.923,8.923 0 0 1 4.5379997,5 c 0.303,-0.148 0.625,-0.258 0.974,-0.279 h 0.004 c 0.093,-0.005 0.187,-0.005 0.28,0 0.944,0.05 1.776,0.622 2.213,1.4450001 l 0.227,0.428 c 0.132,-0.606 0.218,-1.2300001 0.218,-1.8770001 a 8.918,8.918 0 0 0 -5.335,-8.18400003 z M 5.5880203,5.5880179 a 6.69,6.69 0 0 0 -5.56800003,2.956 c -0.006,0.132 -0.02000000442,0.263 -0.02000000442,0.397 A 8.922,8.922 0 0 0 8.9410203,17.882018 c 0.134,0 0.263,-0.014 0.395,-0.02 h 0.003 c 0.326,-0.22 0.624,-0.476 0.9049997,-0.748 -0.2509997,-0.735 -0.24,-1.572 0.158,-2.32 l 0.331,-0.625 -0.067,-0.046 a 8.92,8.92 0 0 1 -0.9149997,-0.696 l -0.01,-0.009 a 8.939,8.939 0 0 1 -0.822,-0.827 l -0.102,-0.12 a 8.89,8.89 0 0 1 -0.655,-0.871 c -0.015,-0.022 -0.03,-0.043 -0.044,-0.066 a 8.895,8.895 0 0 1 -0.543,-0.989 c -0.032,-0.065 -0.06,-0.132 -0.09,-0.198 a 8.841,8.841 0 0 1 -0.386,-1.0150001 c -0.007,-0.024 -0.017,-0.046 -0.024,-0.07 a 8.944,8.944 0 0 1 -0.284,-1.378 9.046,9.046 0 0 1 -0.085,-1.178 c 0,-0.342 0.02,-0.678 0.057,-1.009 a 6.779,6.779 0 0 0 -1.175,-0.109 z m 3.369,0.908 c -0.003,0.07 -0.016,0.138 -0.016,0.21 0,0.278 0.022,0.55 0.055,0.818 0.01,0.083 0.024,0.163 0.037,0.245 0.031,0.196 0.07,0.39 0.118,0.58 0.02,0.08 0.038,0.158 0.06,0.236 0.075,0.254 0.159,0.503 0.26,0.742 0.109,0.255 0.234,0.499 0.372,0.7360001 0.018,0.032 0.038,0.062 0.057,0.094 0.1289997,0.215 0.2699997,0.422 0.4199997,0.62 l 0.045,0.059 c 0.342,0.437 0.737,0.83 1.176,1.17 l 0.055,0.041 c 0.061,0.047 0.13,0.084 0.194,0.13 l 0.439,-0.824 A 6.686,6.686 0 0 0 8.9570203,6.4960179 Z M 15.00502,10.061018 a 1.573,1.71 0 0 0 -1.279,0.853 l -1.17,2.2 -1.168,2.203 a 1.573,1.71 0 0 0 1.36,2.565 h 4.678 a 1.573,1.71 0 0 0 1.362,-2.565 l -1.17,-2.202 -1.168,-2.2 a 1.573,1.71 0 0 0 -1.287,-0.854 1.573,1.71 0 0 0 -0.158,0 z m -0.476,1.115 h 1.118 v 3.353 h -1.117 z m 0,4.47 h 1.118 v 1.119 h -1.117 z"
     id="path5"
     inkscape:connector-curvature="0"
     style="color:#dfdfdf;fill:#bde6fb;fill-opacity:1;stroke-width:1.118" />
</svg>
