<?xml version="1.0" encoding="UTF-8" standalone="no"?>
<svg
   width="20.01"
   height="15.500033"
   id="svg9"
   version="1.1"
   sodipodi:docname="disk-quota-high.svg"
   inkscape:version="0.92.4 (5da689c313, 2019-01-14)"
   xmlns:inkscape="http://www.inkscape.org/namespaces/inkscape"
   xmlns:sodipodi="http://sodipodi.sourceforge.net/DTD/sodipodi-0.dtd"
   xmlns="http://www.w3.org/2000/svg"
   xmlns:svg="http://www.w3.org/2000/svg"
   xmlns:rdf="http://www.w3.org/1999/02/22-rdf-syntax-ns#"
   xmlns:cc="http://creativecommons.org/ns#"
   xmlns:dc="http://purl.org/dc/elements/1.1/">
  <metadata
     id="metadata8">
    <rdf:RDF>
      <cc:Work
         rdf:about="">
        <dc:format>image/svg+xml</dc:format>
        <dc:type
           rdf:resource="http://purl.org/dc/dcmitype/StillImage" />
        <dc:title />
      </cc:Work>
    </rdf:RDF>
  </metadata>
  <sodipodi:namedview
     pagecolor="#ffffff"
     bordercolor="#666666"
     borderopacity="1"
     objecttolerance="10"
     gridtolerance="10"
     guidetolerance="10"
     inkscape:pageopacity="0"
     inkscape:pageshadow="2"
     inkscape:window-width="1138"
     inkscape:window-height="480"
     id="namedview6"
     showgrid="false"
     inkscape:zoom="9.8333333"
     inkscape:cx="1.0677966"
     inkscape:cy="12"
     inkscape:window-x="0"
     inkscape:window-y="25"
     inkscape:window-maximized="0"
     inkscape:current-layer="svg9"
     inkscape:showpageshadow="0"
     inkscape:pagecheckerboard="0"
     inkscape:deskcolor="#d1d1d1" />
  <defs
     id="defs3">
    <style
       id="current-color-scheme" />
  </defs>
  <path
     d="M 1.53,3.2901764e-5 A 1.52,1.52 0 0 0 0,1.5200329 v 2.54 l 0.01999999,0.12 V 11.600033 H 0 v 2.38 c 0,0.84 0.67999999,1.52 1.52,1.52 h 16.97 a 1.52,1.52 0 0 0 1.52,-1.52 V 4.5660329 l -0.02,0.004 H 2.94 v 2.24 c 0,0.43 -0.29,0.78 -0.64,0.78 -0.36,0 -0.64,-0.35 -0.64,-0.78 v -2.63 l 0.02,-0.1 -0.02,-0.1 c 0,-0.3 0.22,-0.52 0.51,-0.56 l 0.07,-0.01 v -0.01 h 17.75 l 0.02,-0.02 v -1.68 h -11 L 7.31,3.2901764e-5 Z M 14.213,5.6330329 h 4.735 v 2.347 h -4.735 z"
     id="path822"
     inkscape:connector-curvature="0"
     style="fill:#bde6fb;fill-opacity:1;stroke-width:2.36" />
</svg>
