<?xml version="1.0" encoding="UTF-8" standalone="no"?>
<svg
   height="17.000002"
   width="19.01"
   version="1.1"
   id="svg4"
   sodipodi:docname="dropboxstatus-busy.svg"
   inkscape:version="0.92.4 (5da689c313, 2019-01-14)"
   xmlns:inkscape="http://www.inkscape.org/namespaces/inkscape"
   xmlns:sodipodi="http://sodipodi.sourceforge.net/DTD/sodipodi-0.dtd"
   xmlns="http://www.w3.org/2000/svg"
   xmlns:svg="http://www.w3.org/2000/svg"
   xmlns:rdf="http://www.w3.org/1999/02/22-rdf-syntax-ns#"
   xmlns:cc="http://creativecommons.org/ns#"
   xmlns:dc="http://purl.org/dc/elements/1.1/">
  <metadata
     id="metadata10">
    <rdf:RDF>
      <cc:Work
         rdf:about="">
        <dc:format>image/svg+xml</dc:format>
        <dc:type
           rdf:resource="http://purl.org/dc/dcmitype/StillImage" />
        <dc:title />
      </cc:Work>
    </rdf:RDF>
  </metadata>
  <defs
     id="defs8" />
  <sodipodi:namedview
     pagecolor="#ffffff"
     bordercolor="#666666"
     borderopacity="1"
     objecttolerance="10"
     gridtolerance="10"
     guidetolerance="10"
     inkscape:pageopacity="0"
     inkscape:pageshadow="2"
     inkscape:window-width="1138"
     inkscape:window-height="480"
     id="namedview6"
     showgrid="false"
     inkscape:zoom="9.8333333"
     inkscape:cx="1.0677966"
     inkscape:cy="12"
     inkscape:window-x="0"
     inkscape:window-y="25"
     inkscape:window-maximized="0"
     inkscape:current-layer="svg4"
     inkscape:showpageshadow="0"
     inkscape:pagecheckerboard="0"
     inkscape:deskcolor="#d1d1d1" />
  <path
     d="M 5.01,1.449585e-7 0.00999999,3.0000001 4.01,5.9840001 0,8.9920001 5.01,12 l 4,-2.9999999 -5,-3 5,-3 5,3.015 -5,2.985 1.777,1.3339999 a 5,5 0 0 1 4.223,-2.3339999 5.003,5.003 0 0 1 2.98,0.994 l 0.03,-0.018 -4.01,-2.976 4,-3 L 13.01,1.4495849e-7 9.01,2.9840001 Z M 15.01,9.0000001 A 4,4 0 1 0 15.01,17 a 4,4 0 0 0 0,-7.9999999 z M 9.01,10 l -4,3 -1,-0.6 V 13 l 5,3 1.476,-0.885 A 5,5 0 0 1 10.01,13 5,5 0 0 1 10.406,11.047 Z m 6,0 a 3,3 0 0 1 3,3 h -1 a 2,2 0 0 0 -2,-2 z m -3,3 h 1 a 2,2 0 0 0 2,2 v 1 a 3,3 0 0 1 -3,-3 z"
     id="path2"
     inkscape:connector-curvature="0"
     style="color:#000000;fill:#bde6fb;fill-opacity:1" />
</svg>
