<?xml version="1.0" encoding="UTF-8" standalone="no"?>
<svg
   height="17.000002"
   width="19.01"
   version="1.1"
   id="svg4"
   sodipodi:docname="dropboxstatus-idle.svg"
   inkscape:version="0.92.4 (5da689c313, 2019-01-14)"
   xmlns:inkscape="http://www.inkscape.org/namespaces/inkscape"
   xmlns:sodipodi="http://sodipodi.sourceforge.net/DTD/sodipodi-0.dtd"
   xmlns="http://www.w3.org/2000/svg"
   xmlns:svg="http://www.w3.org/2000/svg"
   xmlns:rdf="http://www.w3.org/1999/02/22-rdf-syntax-ns#"
   xmlns:cc="http://creativecommons.org/ns#"
   xmlns:dc="http://purl.org/dc/elements/1.1/">
  <metadata
     id="metadata10">
    <rdf:RDF>
      <cc:Work
         rdf:about="">
        <dc:format>image/svg+xml</dc:format>
        <dc:type
           rdf:resource="http://purl.org/dc/dcmitype/StillImage" />
        <dc:title />
      </cc:Work>
    </rdf:RDF>
  </metadata>
  <defs
     id="defs8" />
  <sodipodi:namedview
     pagecolor="#ffffff"
     bordercolor="#666666"
     borderopacity="1"
     objecttolerance="10"
     gridtolerance="10"
     guidetolerance="10"
     inkscape:pageopacity="0"
     inkscape:pageshadow="2"
     inkscape:window-width="1138"
     inkscape:window-height="480"
     id="namedview6"
     showgrid="false"
     inkscape:zoom="9.8333333"
     inkscape:cx="1.0677966"
     inkscape:cy="12"
     inkscape:window-x="0"
     inkscape:window-y="25"
     inkscape:window-maximized="0"
     inkscape:current-layer="svg4"
     inkscape:showpageshadow="0"
     inkscape:pagecheckerboard="0"
     inkscape:deskcolor="#d1d1d1" />
  <path
     d="M 5.01,1.449585e-7 0.00999999,3.0000001 4.01,5.9840001 0,8.9920001 5.01,12 l 4,-2.9999999 -5,-3 5,-3 5,3.015 -5,2.985 1.777,1.3339999 a 5,5 0 0 1 4.223,-2.3339999 5,5 0 0 1 2.98,0.994 l 0.03,-0.018 -4.01,-2.976 4,-3 L 13.01,1.4495849e-7 9.01,2.9840001 Z M 15.01,9.0000001 A 4,4 0 0 0 11.01,13 a 4,4 0 0 0 4,4 4,4 0 0 0 4,-4 4,4 0 0 0 -4,-3.9999999 z m 0,0.492 a 3.5,3.5 0 0 1 0.543,0.047 3.46,3.46 0 0 0 -0.6,-0.045 3.5,3.5 0 0 1 0.057,-0.002 z m -0.069,0.002 c -0.16,0.003 -0.32,0.019 -0.48,0.045 a 3.5,3.5 0 0 1 0.48,-0.045 z m -0.505,0.049 a 3.483,3.483 0 0 0 -0.49,0.119 3.5,3.5 0 0 1 0.49,-0.12 z m 1.271,0.025 a 3.5,3.5 0 0 1 0.402,0.107 3.48,3.48 0 0 0 -0.402,-0.107 z m -1.77,0.096 c -0.153,0.05 -0.303,0.113 -0.45,0.185 a 3.5,3.5 0 0 1 0.45,-0.185 z m 2.325,0.066 a 3.5,3.5 0 0 1 0.369,0.17 3.459,3.459 0 0 0 -0.37,-0.17 z m -2.819,0.14 A 3.552,3.552 0 0 0 12.464,10.597 a 3.467,3.467 0 0 0 -0.403,0.52 3.5,3.5 0 0 1 0.404,-0.52 3.5,3.5 0 0 1 0.978,-0.7259999 z m 3.342,0.116 A 3.5,3.5 0 0 1 17.207,10.275 3.472,3.472 0 0 0 16.785,9.9860001 Z M 9.01,10 l -4,3 -1,-0.6 V 13 l 5,3 1.476,-0.885 A 5,5 0 0 1 10.01,13 5,5 0 0 1 10.406,11.046 Z m 8.199,0.275 a 3.5,3.5 0 0 1 0.434,0.422 3.5,3.5 0 0 1 0.002,0.002 3.5,3.5 0 0 1 0.712,1.295 3.5,3.5 0 0 1 0.106,0.437 3.5,3.5 0 0 1 0.043,0.461 3.123,3.123 0 0 0 -0.148,-0.898 3.841,3.841 0 0 0 -0.159,-0.414 l -3.181,3.634 -0.344,0.407 -0.393,-0.375 -1.502,-1.502 a 0.53,0.53 0 0 1 0,-0.72 0.53,0.53 0 0 1 0.721,0 l 1.127,1.126 3.016,-3.453 a 3.527,3.527 0 0 0 -0.434,-0.422 z m -5.182,0.894 c -0.108,0.177 -0.198,0.36 -0.273,0.551 a 3.5,3.5 0 0 1 0.273,-0.55 z m -0.29,0.598 a 3.503,3.503 0 0 0 -0.165,0.588 3.5,3.5 0 0 1 0.164,-0.588 z m -0.176,0.654 c -0.034,0.203 -0.051,0.41 -0.05,0.616 a 3.5,3.5 0 0 1 -10e-4,-0.045 3.5,3.5 0 0 1 0.05,-0.57 z m 6.947,0.508 a 3.5,3.5 0 0 1 0.002,0.063 3.5,3.5 0 0 1 -0.022,0.38 c 0.016,-0.146 0.023,-0.294 0.02,-0.443 z m -6.992,0.176 c 0.005,0.187 0.026,0.372 0.062,0.557 a 3.5,3.5 0 0 1 -0.062,-0.557 z m 0.091,0.69 c 0.042,0.177 0.098,0.355 0.168,0.527 a 3.5,3.5 0 0 1 -0.168,-0.528 z m 0.225,0.654 c 0.08,0.176 0.175,0.348 0.287,0.513 a 3.5,3.5 0 0 1 -0.287,-0.513 z m 6.324,0.064 -0.01,0.022 a 3.5,3.5 0 0 1 -0.074,0.15 l -0.011,0.02 c 0.034,-0.063 0.064,-0.128 0.095,-0.192 z m -0.193,0.35 -0.02,0.033 a 3.5,3.5 0 0 1 -0.101,0.146 c 0.042,-0.058 0.082,-0.118 0.12,-0.18 z m -5.772,0.197 c 0.11,0.15 0.23,0.287 0.358,0.414 A 3.5,3.5 0 0 1 12.191,15.06 Z m 5.516,0.16 -0.012,0.016 a 3.5,3.5 0 0 1 -0.168,0.181 3.51,3.51 0 0 0 0.18,-0.197 z m -5.037,0.371 c 0.125,0.114 0.259,0.214 0.396,0.307 A 3.5,3.5 0 0 1 12.67,15.591 Z m 4.281,0.31 a 3.5,3.5 0 0 1 -0.463,0.26 3.518,3.518 0 0 0 0.463,-0.26 z m -3.703,0.112 c 0.125,0.074 0.256,0.137 0.389,0.194 a 3.5,3.5 0 0 1 -0.389,-0.194 z m 3.082,0.219 -0.014,0.006 a 3.5,3.5 0 0 1 -0.457,0.146 c 0.159,-0.04 0.317,-0.089 0.471,-0.152 z m -2.424,0.076 c 0.135,0.045 0.27,0.087 0.408,0.115 a 3.5,3.5 0 0 1 -0.408,-0.115 z m 1.711,0.127 a 3.5,3.5 0 0 1 -0.431,0.05 h -0.014 c 0.15,-0.006 0.297,-0.024 0.445,-0.05 z m -1.094,0.022 c 0.138,0.019 0.277,0.028 0.416,0.03 h -0.017 a 3.5,3.5 0 0 1 -0.383,-0.028 z"
     id="path2"
     inkscape:connector-curvature="0"
     style="color:#000000;fill:#bde6fb;fill-opacity:1" />
</svg>
