<?xml version="1.0" encoding="UTF-8" standalone="no"?>
<svg
   height="22"
   width="18.07531"
   version="1.1"
   id="svg4"
   sodipodi:docname="firewall-applet.svg"
   inkscape:version="0.92.4 (5da689c313, 2019-01-14)"
   xmlns:inkscape="http://www.inkscape.org/namespaces/inkscape"
   xmlns:sodipodi="http://sodipodi.sourceforge.net/DTD/sodipodi-0.dtd"
   xmlns="http://www.w3.org/2000/svg"
   xmlns:svg="http://www.w3.org/2000/svg"
   xmlns:rdf="http://www.w3.org/1999/02/22-rdf-syntax-ns#"
   xmlns:cc="http://creativecommons.org/ns#"
   xmlns:dc="http://purl.org/dc/elements/1.1/">
  <metadata
     id="metadata10">
    <rdf:RDF>
      <cc:Work
         rdf:about="">
        <dc:format>image/svg+xml</dc:format>
        <dc:type
           rdf:resource="http://purl.org/dc/dcmitype/StillImage" />
        <dc:title />
      </cc:Work>
    </rdf:RDF>
  </metadata>
  <defs
     id="defs8" />
  <sodipodi:namedview
     pagecolor="#ffffff"
     bordercolor="#666666"
     borderopacity="1"
     objecttolerance="10"
     gridtolerance="10"
     guidetolerance="10"
     inkscape:pageopacity="0"
     inkscape:pageshadow="2"
     inkscape:window-width="1138"
     inkscape:window-height="480"
     id="namedview6"
     showgrid="false"
     inkscape:zoom="9.8333333"
     inkscape:cx="1.0677966"
     inkscape:cy="12"
     inkscape:window-x="0"
     inkscape:window-y="25"
     inkscape:window-maximized="0"
     inkscape:current-layer="svg4"
     inkscape:showpageshadow="0"
     inkscape:pagecheckerboard="0"
     inkscape:deskcolor="#d1d1d1" />
  <path
     d="m 9.039845,0 c -4.74,0.88 -4.6,3.52 -9.00000001,4 -0.034,0.311 0.033,0.511 0.008,0.813 H 9.039845 Z m 1.375,0.457 v 4.355 h 7.617 c -0.024,-0.301 0.041,-0.5 0.008,-0.812 -3.856,-0.42 -4.406,-2.448 -7.625,-3.543 z M 0.05984499,6.187 c -0.053,1.448 -0.118,2.91 0.037,4.125 H 2.164845 V 6.189 H 0.05984499 Z m 3.48000001,0 v 4.125 h 11 V 6.189 h -11 z m 12.375,0 v 4.125 h 2.063 c 0.154,-1.214 0.092,-2.677 0.04,-4.124 h -2.103 z m -15.63700001,5.5 c 0.313,1.559 0.78400001,2.94 1.42800001,4.126 h 7.334 V 11.688 H 0.27784499 Z m 10.13700001,0 v 4.126 h 5.955 c 0.644,-1.185 1.112,-2.567 1.426,-4.125 h -7.381 z m -7.627,5.5 c 1.607,2.144 3.68,3.76 6.252,4.813 2.571,-1.054 4.644,-2.669 6.25,-4.813 z"
     id="path2"
     inkscape:connector-curvature="0"
     style="fill:#bde6fb;fill-opacity:1" />
</svg>
