<?xml version="1.0" encoding="UTF-8" standalone="no"?>
<svg
   height="14.080001"
   width="20.200001"
   version="1.1"
   id="svg6"
   sodipodi:docname="gpm-keyboard-020.svg"
   inkscape:version="0.92.4 (5da689c313, 2019-01-14)"
   xmlns:inkscape="http://www.inkscape.org/namespaces/inkscape"
   xmlns:sodipodi="http://sodipodi.sourceforge.net/DTD/sodipodi-0.dtd"
   xmlns="http://www.w3.org/2000/svg"
   xmlns:svg="http://www.w3.org/2000/svg"
   xmlns:rdf="http://www.w3.org/1999/02/22-rdf-syntax-ns#"
   xmlns:cc="http://creativecommons.org/ns#"
   xmlns:dc="http://purl.org/dc/elements/1.1/">
  <metadata
     id="metadata12">
    <rdf:RDF>
      <cc:Work
         rdf:about="">
        <dc:format>image/svg+xml</dc:format>
        <dc:type
           rdf:resource="http://purl.org/dc/dcmitype/StillImage" />
        <dc:title />
      </cc:Work>
    </rdf:RDF>
  </metadata>
  <defs
     id="defs10" />
  <sodipodi:namedview
     pagecolor="#ffffff"
     bordercolor="#666666"
     borderopacity="1"
     objecttolerance="10"
     gridtolerance="10"
     guidetolerance="10"
     inkscape:pageopacity="0"
     inkscape:pageshadow="2"
     inkscape:window-width="1087"
     inkscape:window-height="480"
     id="namedview8"
     showgrid="false"
     inkscape:zoom="9.8333333"
     inkscape:cx="1.0677966"
     inkscape:cy="12"
     inkscape:window-x="0"
     inkscape:window-y="25"
     inkscape:window-maximized="0"
     inkscape:current-layer="svg6"
     inkscape:showpageshadow="0"
     inkscape:pagecheckerboard="0"
     inkscape:deskcolor="#d1d1d1" />
  <path
     d="M 20.2,-3.8146973e-8 H 2.3841858e-8 V 14.06 L 20.2,14.08 Z M 9.13,3.01 h 2 v 2.01 h -2 z m 0,3.02 h 2 v 2.01 h -2 z M 6.1,3.01 h 2.01 v 2.01 h -2 z m 0,3.02 h 2.01 v 2.01 h -2 z m -1,2.01 h -2 V 6.03 h 2 z m 0,-3.02 h -2 v -2 h 2 z m 9.04,7.04 H 6.11 v -2.01 h 8.04 z m 0,-4.02 h -2 V 6.03 h 2 z m 0,-3.02 h -2 v -2 h 2 z m 3.03,3.02 H 15.16 V 6.03 h 2.01 z m 0,-3.02 h -2.01 v -2 h 2.01 z"
     id="path2"
     inkscape:connector-curvature="0"
     style="fill:#1e3f5a;fill-opacity:0.3" />
  <path
     d="M 2.3841858e-8,6.27 7.81,14.08 2.3841858e-8,14.06 Z"
     id="path4"
     inkscape:connector-curvature="0"
     style="fill:#bde6fb;fill-opacity:1" />
</svg>
