<?xml version="1.0" encoding="UTF-8" standalone="no"?>
<svg
   height="19.058083"
   width="14.150112"
   version="1.1"
   id="svg6"
   sodipodi:docname="haguichi-connecting-1.svg"
   inkscape:version="0.92.4 (5da689c313, 2019-01-14)"
   xmlns:inkscape="http://www.inkscape.org/namespaces/inkscape"
   xmlns:sodipodi="http://sodipodi.sourceforge.net/DTD/sodipodi-0.dtd"
   xmlns="http://www.w3.org/2000/svg"
   xmlns:svg="http://www.w3.org/2000/svg"
   xmlns:rdf="http://www.w3.org/1999/02/22-rdf-syntax-ns#"
   xmlns:cc="http://creativecommons.org/ns#"
   xmlns:dc="http://purl.org/dc/elements/1.1/">
  <metadata
     id="metadata12">
    <rdf:RDF>
      <cc:Work
         rdf:about="">
        <dc:format>image/svg+xml</dc:format>
        <dc:type
           rdf:resource="http://purl.org/dc/dcmitype/StillImage" />
        <dc:title />
      </cc:Work>
    </rdf:RDF>
  </metadata>
  <defs
     id="defs10" />
  <sodipodi:namedview
     pagecolor="#ffffff"
     bordercolor="#666666"
     borderopacity="1"
     objecttolerance="10"
     gridtolerance="10"
     guidetolerance="10"
     inkscape:pageopacity="0"
     inkscape:pageshadow="2"
     inkscape:window-width="1087"
     inkscape:window-height="480"
     id="namedview8"
     showgrid="false"
     inkscape:zoom="9.8333333"
     inkscape:cx="1.0677966"
     inkscape:cy="12"
     inkscape:window-x="0"
     inkscape:window-y="25"
     inkscape:window-maximized="0"
     inkscape:current-layer="svg6"
     inkscape:showpageshadow="0"
     inkscape:pagecheckerboard="0"
     inkscape:deskcolor="#d1d1d1" />
  <path
     d="M 10.600133,6.6757202e-8 A 3.54,3.54 0 0 0 7.060133,3.5300001 c 0,0.44 0.11,0.84 0.26,1.22 l -2,1.66 a 3.5,3.5 0 0 0 -5.32000001965,3.02 A 3.54,3.54 0 0 0 5.340133,12.45 l 1.99,1.66 c -0.15,0.38 -0.26,0.78 -0.26,1.22 a 3.54,3.54 0 1 0 1.73,-3.03 l -1.99,-1.65 c 0.15,-0.39 0.26,-0.7799999 0.26,-1.2199999 0,-0.44 -0.11,-0.83 -0.26,-1.22 l 2,-1.65 a 3.5,3.5 0 0 0 5.33,-3.03 3.54,3.54 0 0 0 -3.53,-3.530000033242798 z"
     style="color:#000000;overflow:visible;fill:#1e3f5a;fill-opacity:0.3;marker:none"
     overflow="visible"
     id="path2"
     inkscape:connector-curvature="0" />
  <path
     d="m 14.130133,15.33 a 3.54,3.54 0 1 1 -7.07,0 3.54,3.54 0 0 1 7.07,0 z"
     style="color:#000000;overflow:visible;fill:#bde6fb;fill-opacity:1;marker:none"
     overflow="visible"
     id="path4"
     inkscape:connector-curvature="0" />
</svg>
