<?xml version="1.0" encoding="UTF-8" standalone="no"?>
<svg
   width="18.935446"
   height="18.973228"
   viewBox="0 0 5.0100034 5.02"
   version="1.1"
   id="svg4"
   sodipodi:docname="indicator-messages.svg"
   inkscape:version="0.92.4 (5da689c313, 2019-01-14)"
   xmlns:inkscape="http://www.inkscape.org/namespaces/inkscape"
   xmlns:sodipodi="http://sodipodi.sourceforge.net/DTD/sodipodi-0.dtd"
   xmlns="http://www.w3.org/2000/svg"
   xmlns:svg="http://www.w3.org/2000/svg"
   xmlns:rdf="http://www.w3.org/1999/02/22-rdf-syntax-ns#"
   xmlns:cc="http://creativecommons.org/ns#"
   xmlns:dc="http://purl.org/dc/elements/1.1/">
  <metadata
     id="metadata10">
    <rdf:RDF>
      <cc:Work
         rdf:about="">
        <dc:format>image/svg+xml</dc:format>
        <dc:type
           rdf:resource="http://purl.org/dc/dcmitype/StillImage" />
        <dc:title />
      </cc:Work>
    </rdf:RDF>
  </metadata>
  <defs
     id="defs8" />
  <sodipodi:namedview
     pagecolor="#ffffff"
     bordercolor="#666666"
     borderopacity="1"
     objecttolerance="10"
     gridtolerance="10"
     guidetolerance="10"
     inkscape:pageopacity="0"
     inkscape:pageshadow="2"
     inkscape:window-width="1087"
     inkscape:window-height="480"
     id="namedview6"
     showgrid="false"
     inkscape:zoom="9.8333333"
     inkscape:cx="1.0677966"
     inkscape:cy="12"
     inkscape:window-x="0"
     inkscape:window-y="25"
     inkscape:window-maximized="0"
     inkscape:current-layer="svg4"
     inkscape:showpageshadow="0"
     inkscape:pagecheckerboard="0"
     inkscape:deskcolor="#d1d1d1" />
  <path
     d="M 2.51,0.01 A 2.5,2.5 0 0 0 0.30999997,1.31 L 2.46,3.43 h 0.2 L 4.75,1.39 A 2.5,2.5 0 0 0 2.51,0 Z M 0.16999997,1.61 A 2.5,2.5 0 0 0 -2.6226044e-8,2.5 2.5,2.5 0 0 0 0.33999997,3.74 L 1.33,2.76 0.16999997,1.62 Z M 4.88,1.71 3.83,2.76 4.73,3.66 A 2.5,2.5 0 0 0 5.01,2.51 2.5,2.5 0 0 0 4.88,1.71 Z M 1.56,2.99 0.51999997,4.02 A 2.5,2.5 0 0 0 2.51,5.02 2.5,2.5 0 0 0 4.56,3.95 L 3.58,2.99 2.81,3.76 H 2.34 L 1.57,2.99 Z"
     id="path2"
     inkscape:connector-curvature="0"
     style="fill:#bde6fb;fill-opacity:1" />
</svg>
