<?xml version="1.0" encoding="UTF-8" standalone="no"?>
<svg
   width="18.125013"
   height="18.086006"
   version="1"
   id="svg4"
   sodipodi:docname="input-touchpad-off.svg"
   inkscape:version="0.92.4 (5da689c313, 2019-01-14)"
   xmlns:inkscape="http://www.inkscape.org/namespaces/inkscape"
   xmlns:sodipodi="http://sodipodi.sourceforge.net/DTD/sodipodi-0.dtd"
   xmlns="http://www.w3.org/2000/svg"
   xmlns:svg="http://www.w3.org/2000/svg"
   xmlns:rdf="http://www.w3.org/1999/02/22-rdf-syntax-ns#"
   xmlns:cc="http://creativecommons.org/ns#"
   xmlns:dc="http://purl.org/dc/elements/1.1/">
  <metadata
     id="metadata10">
    <rdf:RDF>
      <cc:Work
         rdf:about="">
        <dc:format>image/svg+xml</dc:format>
        <dc:type
           rdf:resource="http://purl.org/dc/dcmitype/StillImage" />
        <dc:title />
      </cc:Work>
    </rdf:RDF>
  </metadata>
  <defs
     id="defs8" />
  <sodipodi:namedview
     pagecolor="#ffffff"
     bordercolor="#666666"
     borderopacity="1"
     objecttolerance="10"
     gridtolerance="10"
     guidetolerance="10"
     inkscape:pageopacity="0"
     inkscape:pageshadow="2"
     inkscape:window-width="1138"
     inkscape:window-height="480"
     id="namedview6"
     showgrid="false"
     inkscape:zoom="9.8333333"
     inkscape:cx="1.0677966"
     inkscape:cy="12"
     inkscape:window-x="0"
     inkscape:window-y="25"
     inkscape:window-maximized="0"
     inkscape:current-layer="svg4"
     inkscape:showpageshadow="0"
     inkscape:pagecheckerboard="0"
     inkscape:deskcolor="#d1d1d1" />
  <path
     class="ColorScheme-Text"
     d="M 1.1470054,0.00100189 A 1.145,1.295 0 0 0 5.4473877e-6,1.3000019 v 8.69 L 18.122005,10.038002 V 1.3000019 A 1.145,1.295 0 0 0 16.975005,1.8901825e-6 H 1.1500054 Z m 5.121,1.41200001 2.795,2.795 2.7899996,-2.795 1.01,1.005 -2.795,2.794 2.795,2.79 -1.005,1.01 -2.7949996,-2.795 -2.79,2.796 -1.01,-1.006 2.795,-2.795 -2.795,-2.789 z M 5.4473877e-6,10.776002 v 6.01 c 0,0.72 0.5130000026123,1.3 1.1469999526123,1.3 H 16.977005 a 1.145,1.295 0 0 0 1.148,-1.3 v -5.966 l -18.12199955,-0.044 z M 1.8380054,12.506002 h 5.927 c 0.47,0 0.845,0.37 0.845,0.83 v 2.495 c 0,0.46 -0.376,0.832 -0.845,0.832 h -5.927 a 0.838,0.838 0 0 1 -0.84599995,-0.832 v -2.495 c 0,-0.46 0.37699995,-0.83 0.84599995,-0.83 z m 8.5229996,0 h 5.927 c 0.469,0 0.846,0.37 0.846,0.83 v 2.495 c 0,0.46 -0.377,0.832 -0.846,0.832 h -5.927 a 0.838,0.838 0 0 1 -0.8469996,-0.832 v -2.495 c 0,-0.46 0.378,-0.83 0.8469996,-0.83 z"
     id="path2"
     inkscape:connector-curvature="0"
     style="fill:#bde6fb;fill-opacity:1;stroke-width:2.526" />
</svg>
