<?xml version="1.0" encoding="UTF-8" standalone="no"?>
<svg
   width="22.617998"
   height="22.572001"
   version="1.1"
   id="svg4"
   sodipodi:docname="megawarning.svg"
   inkscape:version="0.92.4 (5da689c313, 2019-01-14)"
   xmlns:inkscape="http://www.inkscape.org/namespaces/inkscape"
   xmlns:sodipodi="http://sodipodi.sourceforge.net/DTD/sodipodi-0.dtd"
   xmlns="http://www.w3.org/2000/svg"
   xmlns:svg="http://www.w3.org/2000/svg"
   xmlns:rdf="http://www.w3.org/1999/02/22-rdf-syntax-ns#"
   xmlns:cc="http://creativecommons.org/ns#"
   xmlns:dc="http://purl.org/dc/elements/1.1/">
  <metadata
     id="metadata10">
    <rdf:RDF>
      <cc:Work
         rdf:about="">
        <dc:format>image/svg+xml</dc:format>
        <dc:type
           rdf:resource="http://purl.org/dc/dcmitype/StillImage" />
        <dc:title />
      </cc:Work>
    </rdf:RDF>
  </metadata>
  <defs
     id="defs8" />
  <sodipodi:namedview
     pagecolor="#ffffff"
     bordercolor="#666666"
     borderopacity="1"
     objecttolerance="10"
     gridtolerance="10"
     guidetolerance="10"
     inkscape:pageopacity="0"
     inkscape:pageshadow="2"
     inkscape:window-width="1087"
     inkscape:window-height="480"
     id="namedview6"
     showgrid="false"
     inkscape:zoom="9.8333333"
     inkscape:cx="1.0677966"
     inkscape:cy="12"
     inkscape:window-x="0"
     inkscape:window-y="25"
     inkscape:window-maximized="0"
     inkscape:current-layer="svg4"
     inkscape:showpageshadow="0"
     inkscape:pagecheckerboard="0"
     inkscape:deskcolor="#d1d1d1" />
  <path
     style="font-weight:400;font-size:21.333px;line-height:1.25;font-family:'1 Punk';-inkscape-font-specification:'1 Punk';letter-spacing:0;word-spacing:0;fill:#bde6fb;fill-opacity:1"
     d="M 10.86,1.4305115e-8 A 10.86,10.86 0 0 0 1.4305115e-8,10.86 10.86,10.86 0 0 0 10.86,21.72 a 10.86,10.86 0 0 0 2.217,-0.233 6,6 0 0 1 -0.049,-0.05 6,6 0 0 1 -0.363,-0.48 6,6 0 0 1 -0.313,-0.51 6,6 0 0 1 -0.262,-0.54 6,6 0 0 1 -0.084,-0.229 8.97,8.97 0 0 1 -1.126,0.082 8.97,8.97 0 0 1 -8.97,-8.97 8.97,8.97 0 0 1 8.97,-8.97 8.97,8.97 0 0 1 8.98,8.97 8.97,8.97 0 0 1 -0.088,1.183 6,6 0 0 1 0.02,0.006 6,6 0 0 1 0.547,0.244 6,6 0 0 1 0.521,0.3 6,6 0 0 1 0.486,0.347 A 6,6 0 0 1 21.495,13 10.86,10.86 0 0 0 21.719,10.86 10.86,10.86 0 0 0 10.86,1.4305115e-8 Z M 5.995,6.488 v 8.746 H 8.133 V 8.837 l 2.016,4.716 h 1.43 l 2.015,-4.716 v 4.293 a 6,6 0 0 1 0.159,-0.149 6,6 0 0 1 0.476,-0.363 6,6 0 0 1 0.512,-0.313 6,6 0 0 1 0.539,-0.261 6,6 0 0 1 0.447,-0.163 V 6.487 h -2.865 l -2.004,4.68 -1.992,-4.68 H 5.995 Z m 11.623,6.084 a 5,5 0 0 0 -5,5 5,5 0 0 0 5,5 5,5 0 0 0 5,-5 5,5 0 0 0 -5,-5 z m -1.945,2.09 1.945,1.943 1.945,-1.943 0.965,0.97 -1.943,1.94 1.943,1.945 -0.97,0.965 -1.94,-1.943 -1.945,1.943 -0.965,-0.97 1.943,-1.94 -1.943,-1.945 0.964,-0.961 V 14.66 Z"
     font-weight="400"
     font-size="21.333"
     letter-spacing="0"
     word-spacing="0"
     id="path2"
     inkscape:connector-curvature="0" />
</svg>
