<?xml version="1.0" encoding="UTF-8" standalone="no"?>
<svg
   width="16.990051"
   height="20.089998"
   version="1.1"
   id="svg4"
   sodipodi:docname="microphone-sensitivity-high.svg"
   inkscape:version="0.92.4 (5da689c313, 2019-01-14)"
   xmlns:inkscape="http://www.inkscape.org/namespaces/inkscape"
   xmlns:sodipodi="http://sodipodi.sourceforge.net/DTD/sodipodi-0.dtd"
   xmlns="http://www.w3.org/2000/svg"
   xmlns:svg="http://www.w3.org/2000/svg"
   xmlns:rdf="http://www.w3.org/1999/02/22-rdf-syntax-ns#"
   xmlns:cc="http://creativecommons.org/ns#"
   xmlns:dc="http://purl.org/dc/elements/1.1/">
  <metadata
     id="metadata10">
    <rdf:RDF>
      <cc:Work
         rdf:about="">
        <dc:format>image/svg+xml</dc:format>
        <dc:type
           rdf:resource="http://purl.org/dc/dcmitype/StillImage" />
        <dc:title />
      </cc:Work>
    </rdf:RDF>
  </metadata>
  <defs
     id="defs8" />
  <sodipodi:namedview
     pagecolor="#ffffff"
     bordercolor="#666666"
     borderopacity="1"
     objecttolerance="10"
     gridtolerance="10"
     guidetolerance="10"
     inkscape:pageopacity="0"
     inkscape:pageshadow="2"
     inkscape:window-width="1087"
     inkscape:window-height="480"
     id="namedview6"
     showgrid="false"
     inkscape:zoom="9.8333333"
     inkscape:cx="1.0677966"
     inkscape:cy="12"
     inkscape:window-x="0"
     inkscape:window-y="25"
     inkscape:window-maximized="0"
     inkscape:current-layer="svg4"
     inkscape:showpageshadow="0"
     inkscape:pagecheckerboard="0"
     inkscape:deskcolor="#d1d1d1" />
  <path
     d="M 8.5,1.1444092e-7 A 5.55,5.68 0 0 0 2.95,5.6800001 5.55,5.68 0 0 0 8.5,11.36 5.55,5.68 0 0 0 14.05,5.6800001 5.55,5.68 0 0 0 8.5,1.1444092e-7 Z M 0.01,6.0700001 a 8.49,8.68 0 0 0 0,0.06 A 8.49,8.68 0 0 0 7.44,14.73 v 5.36 h 2.17 v -5.36 a 8.49,8.68 0 0 0 7.38,-8.5999999 8.49,8.68 0 0 0 0,-0.06 h -1.96 a 6.53,6.68 0 0 1 0,0.06 A 6.53,6.68 0 0 1 8.5,12.81 6.53,6.68 0 0 1 1.97,6.1300001 a 6.53,6.68 0 0 1 0,-0.06 H 0 Z"
     id="path2"
     inkscape:connector-curvature="0"
     style="fill:#bde6fb;fill-opacity:1" />
</svg>
