<?xml version="1.0" encoding="UTF-8" standalone="no"?>
<svg
   width="17.12005"
   height="21.16"
   version="1.1"
   id="svg4"
   sodipodi:docname="microphone-sensitivity-muted.svg"
   inkscape:version="0.92.4 (5da689c313, 2019-01-14)"
   xmlns:inkscape="http://www.inkscape.org/namespaces/inkscape"
   xmlns:sodipodi="http://sodipodi.sourceforge.net/DTD/sodipodi-0.dtd"
   xmlns="http://www.w3.org/2000/svg"
   xmlns:svg="http://www.w3.org/2000/svg"
   xmlns:rdf="http://www.w3.org/1999/02/22-rdf-syntax-ns#"
   xmlns:cc="http://creativecommons.org/ns#"
   xmlns:dc="http://purl.org/dc/elements/1.1/">
  <metadata
     id="metadata10">
    <rdf:RDF>
      <cc:Work
         rdf:about="">
        <dc:format>image/svg+xml</dc:format>
        <dc:type
           rdf:resource="http://purl.org/dc/dcmitype/StillImage" />
        <dc:title />
      </cc:Work>
    </rdf:RDF>
  </metadata>
  <defs
     id="defs8" />
  <sodipodi:namedview
     pagecolor="#ffffff"
     bordercolor="#666666"
     borderopacity="1"
     objecttolerance="10"
     gridtolerance="10"
     guidetolerance="10"
     inkscape:pageopacity="0"
     inkscape:pageshadow="2"
     inkscape:window-width="1087"
     inkscape:window-height="480"
     id="namedview6"
     showgrid="false"
     inkscape:zoom="9.8333333"
     inkscape:cx="1.0677966"
     inkscape:cy="12"
     inkscape:window-x="0"
     inkscape:window-y="25"
     inkscape:window-maximized="0"
     inkscape:current-layer="svg4"
     inkscape:showpageshadow="0"
     inkscape:pagecheckerboard="0"
     inkscape:deskcolor="#d1d1d1" />
  <path
     d="M 1.5299999,4.7683716e-8 -1.1444092e-7,1.46 3.3499999,5 a 5.55,5.68 0 0 0 -0.28,1.76 5.55,5.68 0 0 0 5.55,5.67 A 5.55,5.68 0 0 0 10.16,12.2 l 1.06,1.12 a 6.53,6.68 0 0 1 -2.6000001,0.56 6.53,6.68 0 0 1 -6.53,-6.68 6.53,6.68 0 0 1 0,-0.06 H 0.11999989 a 8.49,8.68 0 0 0 0,0.06 8.49,8.68 0 0 0 7.43000001,8.6 v 5.36 h 2.17 V 15.8 A 8.49,8.68 0 0 0 12.64,14.82 l 2.52,2.67 1.53,-1.45 L 1.5199999,0.01000005 Z M 8.6199999,1.08 a 5.55,5.68 0 0 0 -3.3,1.12 L 12.97,10.28 A 5.55,5.68 0 0 0 14.17,6.76 5.55,5.68 0 0 0 8.6199999,1.07 Z M 15.15,7.15 a 6.53,6.68 0 0 1 0,0.06 6.53,6.68 0 0 1 -1.3,4 l 1.36,1.44 a 8.49,8.68 0 0 0 1.91,-5.45 8.49,8.68 0 0 0 0,-0.06 h -1.96 z"
     id="path2"
     inkscape:connector-curvature="0"
     style="fill:#bde6fb;fill-opacity:1" />
</svg>
