<?xml version="1.0" encoding="UTF-8" standalone="no"?>
<svg
   height="9.5699997"
   width="7.3400002"
   version="1.1"
   id="svg4"
   sodipodi:docname="network-vpn.svg"
   inkscape:version="0.92.4 (5da689c313, 2019-01-14)"
   xmlns:inkscape="http://www.inkscape.org/namespaces/inkscape"
   xmlns:sodipodi="http://sodipodi.sourceforge.net/DTD/sodipodi-0.dtd"
   xmlns="http://www.w3.org/2000/svg"
   xmlns:svg="http://www.w3.org/2000/svg"
   xmlns:rdf="http://www.w3.org/1999/02/22-rdf-syntax-ns#"
   xmlns:cc="http://creativecommons.org/ns#"
   xmlns:dc="http://purl.org/dc/elements/1.1/">
  <metadata
     id="metadata10">
    <rdf:RDF>
      <cc:Work
         rdf:about="">
        <dc:format>image/svg+xml</dc:format>
        <dc:type
           rdf:resource="http://purl.org/dc/dcmitype/StillImage" />
        <dc:title />
      </cc:Work>
    </rdf:RDF>
  </metadata>
  <defs
     id="defs8" />
  <sodipodi:namedview
     pagecolor="#ffffff"
     bordercolor="#666666"
     borderopacity="1"
     objecttolerance="10"
     gridtolerance="10"
     guidetolerance="10"
     inkscape:pageopacity="0"
     inkscape:pageshadow="2"
     inkscape:window-width="1087"
     inkscape:window-height="480"
     id="namedview6"
     showgrid="false"
     inkscape:zoom="9.8333333"
     inkscape:cx="12"
     inkscape:cy="12"
     inkscape:window-x="0"
     inkscape:window-y="25"
     inkscape:window-maximized="0"
     inkscape:current-layer="svg4"
     inkscape:showpageshadow="0"
     inkscape:pagecheckerboard="0"
     inkscape:deskcolor="#d1d1d1" />
  <path
     d="M 3.6399994,7.6293945e-8 A 2.28,2.28 0 0 0 1.3599994,2.2800001 v 0.9 H 0.89999939 l -0.90000000035156,0.01 v 5.47 c 0,0.5 0.40000000035156,0.91 0.90000000035156,0.91 H 6.3699994 a 0.92,0.92 0 0 0 0.91,-0.91 l 0.06,-5.45 -0.97,-0.02 h -0.45 v -0.91 A 2.28,2.28 0 0 0 3.6399994,7.6293945e-8 Z m 0,0.860000003706055 c 0.78,0 1.41,0.64000002 1.41,1.42000002 v 0.9 h -2.83 v -0.9 c 0,-0.78 0.64,-1.41000002 1.42,-1.41000002 z"
     id="path2"
     inkscape:connector-curvature="0"
     style="fill:#bde6fb;fill-opacity:1" />
</svg>
