<?xml version="1.0" encoding="UTF-8" standalone="no"?>
<svg
   width="15"
   height="12.51"
   id="svg9"
   version="1.1"
   sodipodi:docname="network-cellular-3g.svg"
   inkscape:version="0.92.4 (5da689c313, 2019-01-14)"
   xmlns:inkscape="http://www.inkscape.org/namespaces/inkscape"
   xmlns:sodipodi="http://sodipodi.sourceforge.net/DTD/sodipodi-0.dtd"
   xmlns="http://www.w3.org/2000/svg"
   xmlns:svg="http://www.w3.org/2000/svg"
   xmlns:rdf="http://www.w3.org/1999/02/22-rdf-syntax-ns#"
   xmlns:cc="http://creativecommons.org/ns#"
   xmlns:dc="http://purl.org/dc/elements/1.1/">
  <metadata
     id="metadata8">
    <rdf:RDF>
      <cc:Work
         rdf:about="">
        <dc:format>image/svg+xml</dc:format>
        <dc:type
           rdf:resource="http://purl.org/dc/dcmitype/StillImage" />
        <dc:title />
      </cc:Work>
    </rdf:RDF>
  </metadata>
  <sodipodi:namedview
     pagecolor="#ffffff"
     bordercolor="#666666"
     borderopacity="1"
     objecttolerance="10"
     gridtolerance="10"
     guidetolerance="10"
     inkscape:pageopacity="0"
     inkscape:pageshadow="2"
     inkscape:window-width="1087"
     inkscape:window-height="480"
     id="namedview6"
     showgrid="false"
     inkscape:zoom="9.8333333"
     inkscape:cx="1.0677966"
     inkscape:cy="12"
     inkscape:window-x="0"
     inkscape:window-y="25"
     inkscape:window-maximized="0"
     inkscape:current-layer="svg9"
     inkscape:showpageshadow="0"
     inkscape:pagecheckerboard="0"
     inkscape:deskcolor="#d1d1d1" />
  <defs
     id="defs3">
    <style
       id="current-color-scheme" />
  </defs>
  <path
     d="M 0,0.01000023 V 2.5100002 h 2.97 l -1.56,3.2 c -0.37,0.75 0.26,1.78 1.09,1.8 H 3.75 V 10.01 H 0 v 2.5 h 3.75 a 2.5,2.5 0 0 0 2.5,-2.5 V 7.5100002 c 0,-0.67 -0.25,-1.22 -0.66,-1.68 -0.28,-0.3 -0.77,-0.4 -1.21,-0.55 l 1.71,-3.48 C 6.46,1.0600002 5.83,0.03000023 5,2.2888184e-7 H 0 Z m 10,0 c 0,0 -2.5,0 -2.5,2.49999997 V 10.01 c 0,2.5 2.5,2.5 2.5,2.5 h 2.5 C 15,12.51 15,9.9700002 15,9.9700002 v -4.92 l -1.25,-0.04 -2.5,0.04 v 2.46 H 12.5 V 10.01 H 10 V 2.5100002 h 2.5 v 1.25 H 15 v -1.25 c 0,0 0,-2.49999997 -2.5,-2.49999997 z"
     id="path822"
     inkscape:connector-curvature="0"
     style="color:#ffffff;fill:#bde6fb;fill-opacity:1;stroke-width:1.25" />
</svg>
