<?xml version="1.0" encoding="UTF-8" standalone="no"?>
<svg
   width="16.4"
   height="16.33"
   version="1.1"
   id="svg16"
   sodipodi:docname="network-wired-acquiring.svg"
   inkscape:version="0.92.4 (5da689c313, 2019-01-14)"
   xmlns:inkscape="http://www.inkscape.org/namespaces/inkscape"
   xmlns:sodipodi="http://sodipodi.sourceforge.net/DTD/sodipodi-0.dtd"
   xmlns:xlink="http://www.w3.org/1999/xlink"
   xmlns="http://www.w3.org/2000/svg"
   xmlns:svg="http://www.w3.org/2000/svg"
   xmlns:rdf="http://www.w3.org/1999/02/22-rdf-syntax-ns#"
   xmlns:cc="http://creativecommons.org/ns#"
   xmlns:dc="http://purl.org/dc/elements/1.1/">
  <metadata
     id="metadata22">
    <rdf:RDF>
      <cc:Work
         rdf:about="">
        <dc:format>image/svg+xml</dc:format>
        <dc:type
           rdf:resource="http://purl.org/dc/dcmitype/StillImage" />
        <dc:title />
      </cc:Work>
    </rdf:RDF>
  </metadata>
  <defs
     id="defs20">
    <linearGradient
       id="swatch5"
       inkscape:swatch="solid">
      <stop
         style="stop-color:#bde6fb;stop-opacity:0.96862745;"
         offset="0"
         id="stop5" />
    </linearGradient>
    <linearGradient
       id="swatch4"
       inkscape:swatch="solid">
      <stop
         style="stop-color:#bde6fb;stop-opacity:0.96862745;"
         offset="0"
         id="stop4" />
    </linearGradient>
    <linearGradient
       id="swatch3"
       inkscape:swatch="solid">
      <stop
         style="stop-color:#bde6fb;stop-opacity:0.96862745;"
         offset="0"
         id="stop3" />
    </linearGradient>
    <linearGradient
       id="swatch2"
       inkscape:swatch="solid">
      <stop
         style="stop-color:#bde6fb;stop-opacity:0.96862745;"
         offset="0"
         id="stop2" />
    </linearGradient>
    <linearGradient
       id="swatch1"
       inkscape:swatch="solid">
      <stop
         style="stop-color:#bde6fb;stop-opacity:0.96862745;"
         offset="0"
         id="stop1" />
    </linearGradient>
    <linearGradient
       inkscape:collect="always"
       xlink:href="#swatch1"
       id="linearGradient1"
       x1="5.1500001"
       y1="9.6599998"
       x2="7.0300002"
       y2="9.6599998"
       gradientUnits="userSpaceOnUse"
       gradientTransform="translate(3.4683165,3.7682789)" />
    <linearGradient
       inkscape:collect="always"
       xlink:href="#swatch2"
       id="linearGradient2"
       x1="8.1400003"
       y1="9.6400003"
       x2="10.02"
       y2="9.6400003"
       gradientUnits="userSpaceOnUse"
       gradientTransform="translate(3.4683165,3.7682789)" />
    <linearGradient
       inkscape:collect="always"
       xlink:href="#swatch3"
       id="linearGradient3"
       x1="11.15"
       y1="9.6599998"
       x2="13.03"
       y2="9.6599998"
       gradientUnits="userSpaceOnUse"
       gradientTransform="translate(3.4683165,3.7682789)" />
    <linearGradient
       inkscape:collect="always"
       xlink:href="#swatch4"
       id="linearGradient4"
       x1="14.14"
       y1="9.6400003"
       x2="16.02"
       y2="9.6400003"
       gradientUnits="userSpaceOnUse"
       gradientTransform="translate(3.4683165,3.7682789)" />
    <linearGradient
       inkscape:collect="always"
       xlink:href="#swatch5"
       id="linearGradient5"
       x1="17.15"
       y1="9.6599998"
       x2="19.030001"
       y2="9.6599998"
       gradientUnits="userSpaceOnUse"
       gradientTransform="translate(3.4683165,3.7682789)" />
  </defs>
  <sodipodi:namedview
     pagecolor="#ffffff"
     bordercolor="#666666"
     borderopacity="1"
     objecttolerance="10"
     gridtolerance="10"
     guidetolerance="10"
     inkscape:pageopacity="0"
     inkscape:pageshadow="2"
     inkscape:window-width="1087"
     inkscape:window-height="480"
     id="namedview18"
     showgrid="false"
     inkscape:zoom="9.8333333"
     inkscape:cx="1.0677966"
     inkscape:cy="12"
     inkscape:window-x="0"
     inkscape:window-y="25"
     inkscape:window-maximized="0"
     inkscape:current-layer="svg16"
     inkscape:showpageshadow="0"
     inkscape:pagecheckerboard="0"
     inkscape:deskcolor="#d1d1d1" />
  <path
     d="M 15.03,1.9073486e-8 11.16,3.87 A 4.8,4.8 0 0 0 8.48,3.05 4.8,4.8 0 0 0 5.07,4.48 L 5.52,4.93 5.12,5.33 4.63,4.83 A 4.8,4.8 0 0 0 3.24,8.22 4.8,4.8 0 0 0 4.06,10.89 L -4.7683717e-8,14.94 1.38,16.33 5.45,12.26 a 4.8,4.8 0 0 0 2.59,0.76 4.8,4.8 0 0 0 3.37,-1.39 l -0.45,-0.45 0.4,-0.4 0.49,0.49 A 4.8,4.8 0 0 0 13.28,7.85 4.8,4.8 0 0 0 12.52,5.27 L 16.4,1.38 Z M 6.55,5.95 7.13,6.54 6.73,6.94 6.15,6.35 Z m 1.6,1.61 0.59,0.58 -0.4,0.4 -0.58,-0.58 z m 1.61,1.6 0.58,0.6 -0.4,0.4 -0.58,-0.6 z"
     id="path2"
     inkscape:connector-curvature="0"
     style="fill:#1e3f5a;fill-opacity:0.3" />
  <g
     transform="matrix(1.0668,0,0,1.0668,-4.6,-2.32)"
     id="g14"
     style="fill:#1e3f5a;fill-opacity:0.97">
    <ellipse
       ry="0.92000002"
       rx="0.94"
       cy="9.6599998"
       cx="6.0900002"
       id="ellipse4"
       style="fill:url(#linearGradient1)" />
    <ellipse
       ry="0.92000002"
       rx="0.94"
       cy="9.6400003"
       cx="9.0799999"
       id="ellipse6"
       style="fill:url(#linearGradient2)" />
    <ellipse
       ry="0.92000002"
       rx="0.94"
       cy="9.6599998"
       cx="12.09"
       id="ellipse8"
       style="fill:url(#linearGradient3)" />
    <ellipse
       ry="0.92000002"
       rx="0.94"
       cy="9.6400003"
       cx="15.08"
       id="ellipse10"
       style="fill:url(#linearGradient4)" />
    <ellipse
       ry="0.92000002"
       rx="0.94"
       cy="9.6599998"
       cx="18.09"
       id="ellipse12"
       style="fill:url(#linearGradient5)" />
  </g>
</svg>
