<?xml version="1.0" encoding="UTF-8" standalone="no"?>
<svg
   width="16.400002"
   height="16.33"
   version="1.1"
   id="svg4"
   sodipodi:docname="network-wired-offline.svg"
   inkscape:version="0.92.4 (5da689c313, 2019-01-14)"
   xmlns:inkscape="http://www.inkscape.org/namespaces/inkscape"
   xmlns:sodipodi="http://sodipodi.sourceforge.net/DTD/sodipodi-0.dtd"
   xmlns="http://www.w3.org/2000/svg"
   xmlns:svg="http://www.w3.org/2000/svg"
   xmlns:rdf="http://www.w3.org/1999/02/22-rdf-syntax-ns#"
   xmlns:cc="http://creativecommons.org/ns#"
   xmlns:dc="http://purl.org/dc/elements/1.1/">
  <metadata
     id="metadata10">
    <rdf:RDF>
      <cc:Work
         rdf:about="">
        <dc:format>image/svg+xml</dc:format>
        <dc:type
           rdf:resource="http://purl.org/dc/dcmitype/StillImage" />
        <dc:title />
      </cc:Work>
    </rdf:RDF>
  </metadata>
  <defs
     id="defs8" />
  <sodipodi:namedview
     pagecolor="#ffffff"
     bordercolor="#666666"
     borderopacity="1"
     objecttolerance="10"
     gridtolerance="10"
     guidetolerance="10"
     inkscape:pageopacity="0"
     inkscape:pageshadow="2"
     inkscape:window-width="1087"
     inkscape:window-height="480"
     id="namedview6"
     showgrid="false"
     inkscape:zoom="9.8333333"
     inkscape:cx="1.0677966"
     inkscape:cy="12"
     inkscape:window-x="0"
     inkscape:window-y="25"
     inkscape:window-maximized="0"
     inkscape:current-layer="svg4"
     inkscape:showpageshadow="0"
     inkscape:pagecheckerboard="0"
     inkscape:deskcolor="#d1d1d1" />
  <path
     d="M 15.01,1.9073486e-8 12.75,2.26 A 4.8,4.8 0 0 0 10.08,1.44 4.8,4.8 0 0 0 6.67,2.87 l 6.79,6.8 A 4.8,4.8 0 0 0 14.89,6.24 4.8,4.8 0 0 0 14.12,3.66 L 16.4,1.38 Z M 3.01,6.45 A 4.8,4.8 0 0 0 1.62,9.82 4.8,4.8 0 0 0 2.44,12.5 L -3.8146973e-8,14.94 1.38,16.33 3.84,13.87 a 4.8,4.8 0 0 0 2.59,0.76 4.8,4.8 0 0 0 3.38,-1.39 l -6.8,-6.8 z"
     id="path2"
     inkscape:connector-curvature="0"
     style="fill:#bde6fb;fill-opacity:1" />
</svg>
