<?xml version="1.0" encoding="UTF-8" standalone="no"?>
<svg
   width="19.01598"
   height="14.587503"
   version="1.1"
   id="svg16"
   sodipodi:docname="network-vpn-acquiring.svg"
   inkscape:version="0.92.4 (5da689c313, 2019-01-14)"
   xmlns:inkscape="http://www.inkscape.org/namespaces/inkscape"
   xmlns:sodipodi="http://sodipodi.sourceforge.net/DTD/sodipodi-0.dtd"
   xmlns="http://www.w3.org/2000/svg"
   xmlns:svg="http://www.w3.org/2000/svg"
   xmlns:rdf="http://www.w3.org/1999/02/22-rdf-syntax-ns#"
   xmlns:cc="http://creativecommons.org/ns#"
   xmlns:dc="http://purl.org/dc/elements/1.1/">
  <metadata
     id="metadata22">
    <rdf:RDF>
      <cc:Work
         rdf:about="">
        <dc:format>image/svg+xml</dc:format>
        <dc:type
           rdf:resource="http://purl.org/dc/dcmitype/StillImage" />
        <dc:title />
      </cc:Work>
    </rdf:RDF>
  </metadata>
  <defs
     id="defs20" />
  <sodipodi:namedview
     pagecolor="#ffffff"
     bordercolor="#666666"
     borderopacity="1"
     objecttolerance="10"
     gridtolerance="10"
     guidetolerance="10"
     inkscape:pageopacity="0"
     inkscape:pageshadow="2"
     inkscape:window-width="1087"
     inkscape:window-height="480"
     id="namedview18"
     showgrid="false"
     inkscape:zoom="9.8333333"
     inkscape:cx="1.0677966"
     inkscape:cy="12"
     inkscape:window-x="0"
     inkscape:window-y="25"
     inkscape:window-maximized="0"
     inkscape:current-layer="svg16"
     inkscape:showpageshadow="0"
     inkscape:pagecheckerboard="0"
     inkscape:deskcolor="#d1d1d1" />
  <path
     d="m 15.30598,5.0275033 a 2.28,2.28 0 0 0 -2.28,2.28 v 0.9 h -0.45 l -0.91,0.01 v 5.4699997 a 0.91,0.91 0 0 0 0.9,0.9 h 5.48 a 0.92,0.92 0 0 0 0.9,-0.9 l 0.07,-5.4499997 -0.97,-0.02 h -0.46 v -0.91 a 2.28,2.28 0 0 0 -2.28,-2.28 z m 0,0.86 c 0.78,0 1.42,0.64 1.42,1.42 v 0.9 h -2.83 v -0.9 c 0,-0.78 0.63,-1.42 1.41,-1.42 z"
     id="path2"
     inkscape:connector-curvature="0"
     style="fill:#bde6fb;fill-opacity:0.984314" />
  <g
     transform="matrix(1.0668,0,0,1.0668,-5.4940204,-9.3024967)"
     id="g14"
     style="fill:#bde6fb;fill-opacity:0.984314">
    <ellipse
       ry="0.92000002"
       rx="0.94"
       cy="9.6599998"
       cx="6.0900002"
       id="ellipse4"
       style="fill:#bde6fb;fill-opacity:0.984314" />
    <ellipse
       ry="0.92000002"
       rx="0.94"
       cy="9.6400003"
       cx="9.0799999"
       id="ellipse6"
       style="fill:#bde6fb;fill-opacity:0.984314" />
    <ellipse
       ry="0.92000002"
       rx="0.94"
       cy="9.6599998"
       cx="12.09"
       id="ellipse8"
       style="fill:#bde6fb;fill-opacity:0.984314" />
    <ellipse
       ry="0.92000002"
       rx="0.94"
       cy="9.6400003"
       cx="15.08"
       id="ellipse10"
       style="fill:#bde6fb;fill-opacity:0.984314" />
    <ellipse
       ry="0.92000002"
       rx="0.94"
       cy="9.6599998"
       cx="18.09"
       id="ellipse12"
       style="fill:#bde6fb;fill-opacity:0.984314" />
  </g>
</svg>
