<?xml version="1.0" encoding="UTF-8" standalone="no"?>
<svg
   width="19.910002"
   height="19.57"
   version="1.1"
   id="svg4"
   sodipodi:docname="network-wired-secure.svg"
   inkscape:version="0.92.4 (5da689c313, 2019-01-14)"
   xmlns:inkscape="http://www.inkscape.org/namespaces/inkscape"
   xmlns:sodipodi="http://sodipodi.sourceforge.net/DTD/sodipodi-0.dtd"
   xmlns="http://www.w3.org/2000/svg"
   xmlns:svg="http://www.w3.org/2000/svg"
   xmlns:rdf="http://www.w3.org/1999/02/22-rdf-syntax-ns#"
   xmlns:cc="http://creativecommons.org/ns#"
   xmlns:dc="http://purl.org/dc/elements/1.1/">
  <metadata
     id="metadata10">
    <rdf:RDF>
      <cc:Work
         rdf:about="">
        <dc:format>image/svg+xml</dc:format>
        <dc:type
           rdf:resource="http://purl.org/dc/dcmitype/StillImage" />
        <dc:title />
      </cc:Work>
    </rdf:RDF>
  </metadata>
  <defs
     id="defs8" />
  <sodipodi:namedview
     pagecolor="#ffffff"
     bordercolor="#666666"
     borderopacity="1"
     objecttolerance="10"
     gridtolerance="10"
     guidetolerance="10"
     inkscape:pageopacity="0"
     inkscape:pageshadow="2"
     inkscape:window-width="1087"
     inkscape:window-height="480"
     id="namedview6"
     showgrid="false"
     inkscape:zoom="9.8333333"
     inkscape:cx="1.0677966"
     inkscape:cy="12"
     inkscape:window-x="0"
     inkscape:window-y="25"
     inkscape:window-maximized="0"
     inkscape:current-layer="svg4"
     inkscape:showpageshadow="0"
     inkscape:pagecheckerboard="0"
     inkscape:deskcolor="#d1d1d1" />
  <path
     d="M 15.03,1.9073486e-8 11.16,3.87 A 4.8,4.8 0 0 0 8.48,3.05 4.8,4.8 0 0 0 5.07,4.48 L 5.52,4.93 5.12,5.33 4.63,4.83 A 4.8,4.8 0 0 0 3.24,8.22 4.8,4.8 0 0 0 4.06,10.89 L -4.7683717e-8,14.94 1.38,16.33 5.45,12.26 a 4.8,4.8 0 0 0 2.59,0.76 4.8,4.8 0 0 0 3.37,-1.39 l -0.45,-0.45 0.4,-0.4 0.49,0.49 A 4.8,4.8 0 0 0 13.28,7.85 4.8,4.8 0 0 0 12.52,5.27 L 16.4,1.38 Z M 6.55,5.95 7.13,6.54 6.73,6.94 6.15,6.35 Z m 1.6,1.61 0.59,0.58 -0.4,0.4 -0.58,-0.58 z m 1.61,1.6 0.58,0.6 -0.4,0.4 -0.58,-0.6 z m 6.44,0.85 a 2.28,2.28 0 0 0 -2.28,2.28 v 0.9 h -0.45 l -0.91,0.01 v 5.47 a 0.91,0.91 0 0 0 0.9,0.9 h 5.48 a 0.92,0.92 0 0 0 0.9,-0.9 L 19.91,13.22 18.94,13.2 H 18.48 V 12.29 A 2.28,2.28 0 0 0 16.2,10.01 Z m 0,0.86 c 0.78,0 1.42,0.64 1.42,1.42 v 0.9 h -2.83 v -0.9 c 0,-0.78 0.63,-1.42 1.41,-1.42 z"
     id="path2"
     inkscape:connector-curvature="0"
     style="fill:#bde6fb;fill-opacity:1" />
</svg>
