<?xml version="1.0" encoding="UTF-8" standalone="no"?>
<svg
   width="15"
   height="12.5"
   id="svg9"
   version="1.1"
   sodipodi:docname="network-cellular-4g.svg"
   inkscape:version="0.92.4 (5da689c313, 2019-01-14)"
   xmlns:inkscape="http://www.inkscape.org/namespaces/inkscape"
   xmlns:sodipodi="http://sodipodi.sourceforge.net/DTD/sodipodi-0.dtd"
   xmlns="http://www.w3.org/2000/svg"
   xmlns:svg="http://www.w3.org/2000/svg"
   xmlns:rdf="http://www.w3.org/1999/02/22-rdf-syntax-ns#"
   xmlns:cc="http://creativecommons.org/ns#"
   xmlns:dc="http://purl.org/dc/elements/1.1/">
  <metadata
     id="metadata8">
    <rdf:RDF>
      <cc:Work
         rdf:about="">
        <dc:format>image/svg+xml</dc:format>
        <dc:type
           rdf:resource="http://purl.org/dc/dcmitype/StillImage" />
        <dc:title />
      </cc:Work>
    </rdf:RDF>
  </metadata>
  <sodipodi:namedview
     pagecolor="#ffffff"
     bordercolor="#666666"
     borderopacity="1"
     objecttolerance="10"
     gridtolerance="10"
     guidetolerance="10"
     inkscape:pageopacity="0"
     inkscape:pageshadow="2"
     inkscape:window-width="1087"
     inkscape:window-height="480"
     id="namedview6"
     showgrid="false"
     inkscape:zoom="9.8333333"
     inkscape:cx="1.0677966"
     inkscape:cy="12"
     inkscape:window-x="0"
     inkscape:window-y="25"
     inkscape:window-maximized="0"
     inkscape:current-layer="svg9"
     inkscape:showpageshadow="0"
     inkscape:pagecheckerboard="0"
     inkscape:deskcolor="#d1d1d1" />
  <defs
     id="defs3">
    <style
       id="current-color-scheme" />
  </defs>
  <path
     d="m 0,0 v 5 c 0,0 0,2.5 2.5,2.5 h 1.25 v 5 h 2.5 V 0 H 3.75 V 5 H 2.5 V 0 Z M 10,0 C 10,0 7.5,0 7.5,2.5 V 10 c 0,2.5 2.5,2.5 2.5,2.5 h 2.5 C 15,12.5 15,9.96 15,9.96 V 5.05 l -1.25,-0.04 -2.5,0.04 v 2.46 h 1.25 v 2.5 H 10 v -7.5 h 2.5 V 3.75 H 15 V 2.5 C 15,2.5 15,0 12.5,0 Z"
     id="path823"
     inkscape:connector-curvature="0"
     style="color:#ffffff;fill:#bde6fb;fill-opacity:1;stroke-width:1.25" />
</svg>
