<?xml version="1.0" encoding="UTF-8" standalone="no"?>
<svg
   width="16.4"
   height="17.110001"
   version="1.1"
   id="svg8"
   sodipodi:docname="network-error.svg"
   inkscape:version="0.92.4 (5da689c313, 2019-01-14)"
   xmlns:inkscape="http://www.inkscape.org/namespaces/inkscape"
   xmlns:sodipodi="http://sodipodi.sourceforge.net/DTD/sodipodi-0.dtd"
   xmlns="http://www.w3.org/2000/svg"
   xmlns:svg="http://www.w3.org/2000/svg"
   xmlns:rdf="http://www.w3.org/1999/02/22-rdf-syntax-ns#"
   xmlns:cc="http://creativecommons.org/ns#"
   xmlns:dc="http://purl.org/dc/elements/1.1/">
  <metadata
     id="metadata14">
    <rdf:RDF>
      <cc:Work
         rdf:about="">
        <dc:format>image/svg+xml</dc:format>
        <dc:type
           rdf:resource="http://purl.org/dc/dcmitype/StillImage" />
        <dc:title />
      </cc:Work>
    </rdf:RDF>
  </metadata>
  <defs
     id="defs12" />
  <sodipodi:namedview
     pagecolor="#ffffff"
     bordercolor="#666666"
     borderopacity="1"
     objecttolerance="10"
     gridtolerance="10"
     guidetolerance="10"
     inkscape:pageopacity="0"
     inkscape:pageshadow="2"
     inkscape:window-width="1087"
     inkscape:window-height="480"
     id="namedview10"
     showgrid="false"
     inkscape:zoom="9.8333333"
     inkscape:cx="1.0677966"
     inkscape:cy="12"
     inkscape:window-x="0"
     inkscape:window-y="25"
     inkscape:window-maximized="0"
     inkscape:current-layer="svg8"
     inkscape:showpageshadow="0"
     inkscape:pagecheckerboard="0"
     inkscape:deskcolor="#d1d1d1" />
  <path
     d="m 15.03,0.6299999 -3.87,3.87 a 4.8,4.8 0 0 0 -2.68,-0.82 4.8,4.8 0 0 0 -3.41,1.43 l 0.45,0.45 -0.4,0.4 -0.49,-0.5 a 4.8,4.8 0 0 0 -1.39,3.39 A 4.8,4.8 0 0 0 4.06,11.52 L -4.7683717e-8,15.57 1.38,16.96 5.45,12.89 a 4.8,4.8 0 0 0 2.59,0.76 4.8,4.8 0 0 0 3.37,-1.39 l -0.45,-0.45 0.4,-0.4 0.49,0.49 a 4.8,4.8 0 0 0 1.43,-3.4200001 4.8,4.8 0 0 0 -0.76,-2.58 l 3.88,-3.89 z m -8.48,5.95 0.58,0.59 -0.4,0.4 -0.58,-0.59 z m 1.6,1.61 0.59,0.58 -0.4,0.4 -0.58,-0.58 z m 1.61,1.6 0.58,0.6000001 -0.4,0.4 -0.58,-0.6 z"
     id="path2"
     inkscape:connector-curvature="0"
     style="fill:#1e3f5a;fill-opacity:0.3" />
  <rect
     width="3.0699999"
     height="11.32"
     x="6.7399998"
     y="0"
     ry="1.61"
     id="rect4"
     style="fill:#bde6fb;fill-opacity:1"
     rx="1.61" />
  <circle
     cx="8.3000002"
     cy="15.22"
     r="1.89"
     id="circle6"
     style="fill:#bde6fb;fill-opacity:1" />
</svg>
