<?xml version="1.0" encoding="UTF-8" standalone="no"?>
<svg
   width="16.015923"
   height="14.881936"
   version="1.1"
   id="svg28"
   sodipodi:docname="network-wireless-no-route.svg"
   inkscape:version="0.92.4 (5da689c313, 2019-01-14)"
   xmlns:inkscape="http://www.inkscape.org/namespaces/inkscape"
   xmlns:sodipodi="http://sodipodi.sourceforge.net/DTD/sodipodi-0.dtd"
   xmlns="http://www.w3.org/2000/svg"
   xmlns:svg="http://www.w3.org/2000/svg"
   xmlns:rdf="http://www.w3.org/1999/02/22-rdf-syntax-ns#"
   xmlns:cc="http://creativecommons.org/ns#"
   xmlns:dc="http://purl.org/dc/elements/1.1/">
  <metadata
     id="metadata32">
    <rdf:RDF>
      <cc:Work
         rdf:about="">
        <dc:format>image/svg+xml</dc:format>
        <dc:type
           rdf:resource="http://purl.org/dc/dcmitype/StillImage" />
        <dc:title />
      </cc:Work>
    </rdf:RDF>
  </metadata>
  <sodipodi:namedview
     pagecolor="#ffffff"
     bordercolor="#666666"
     borderopacity="1"
     objecttolerance="10"
     gridtolerance="10"
     guidetolerance="10"
     inkscape:pageopacity="0"
     inkscape:pageshadow="2"
     inkscape:window-width="1087"
     inkscape:window-height="480"
     id="namedview30"
     showgrid="false"
     inkscape:zoom="9.8333333"
     inkscape:cx="1.0677966"
     inkscape:cy="12"
     inkscape:window-x="0"
     inkscape:window-y="25"
     inkscape:window-maximized="0"
     inkscape:current-layer="svg28"
     inkscape:showpageshadow="0"
     inkscape:pagecheckerboard="0"
     inkscape:deskcolor="#d1d1d1" />
  <defs
     id="defs14">
    <clipPath
       id="a">
      <ellipse
         cx="7.9899998"
         cy="40.18"
         rx="7.5500002"
         ry="7.4899998"
         fill="#cccccc"
         stroke-width="0.38"
         stroke-linecap="round"
         stroke-linejoin="round"
         id="ellipse2" />
    </clipPath>
    <clipPath
       id="b">
      <ellipse
         cx="23.620001"
         cy="24.5"
         rx="21.01"
         ry="21.049999"
         fill="#cccccc"
         stroke-width="0.3"
         stroke-linecap="round"
         stroke-linejoin="round"
         id="ellipse5" />
    </clipPath>
    <clipPath
       id="c">
      <ellipse
         cx="23.620001"
         cy="24.5"
         rx="21.01"
         ry="21.049999"
         fill="#cccccc"
         stroke-width="0.3"
         stroke-linecap="round"
         stroke-linejoin="round"
         id="ellipse8" />
    </clipPath>
    <clipPath
       id="d">
      <ellipse
         cx="23.620001"
         cy="24.5"
         rx="21.01"
         ry="21.049999"
         fill="#cccccc"
         stroke-width="0.3"
         stroke-linecap="round"
         stroke-linejoin="round"
         id="ellipse11" />
    </clipPath>
  </defs>
  <g
     id="g24"
     style="fill:#1e3f5a;fill-opacity:0.3"
     transform="translate(-3.9948018,-4.5564852)">
    <path
       transform="matrix(0.26951375,-0.26951375,0.26951375,0.26951375,-1.0038452,7.8965032)"
       clip-path="url(#a)"
       d="m 2.12,33.97 v 11.9 h 11.91 z"
       id="path16"
       inkscape:connector-curvature="0" />
    <path
       transform="matrix(0.26951375,-0.26951375,0.26951375,0.26951375,-1.0038452,7.8965032)"
       clip-path="url(#b)"
       d="M 2.12,26.7 V 19.12 L 28.88,45.88 H 21.3 Z"
       id="path18"
       inkscape:connector-curvature="0" />
    <path
       transform="matrix(0.38115,0,0,0.38115,3,3.07)"
       d="m -3.46,14.7 5.12,5.11 h 43.4 l 5.1,-5.1 h -31.3 z"
       clip-path="url(#c)"
       id="path20"
       inkscape:connector-curvature="0" />
    <path
       transform="matrix(0.38115,0,0,0.38115,3,3.07)"
       d="M 3.13,3.9 -2.4,9.44 H 49.25 L 43.73,3.9 H 21 Z"
       clip-path="url(#d)"
       id="path22"
       inkscape:connector-curvature="0" />
  </g>
  <path
     d="m 7.8051982,1.9435148 c -1.8,0.1 -3.2,1.5 -3.1,3.3 h 2.2 c -0.03,-0.62 0.41,-1.06 1.03,-1.1 a 1.09,1.09 0 0 1 1.17,1.04 v 0.03 c 0,0.14 -0.03,0.36 -0.14,0.48 -0.25,0.3 -0.53,0.54 -0.75,0.72 a 4.2,4.2 0 0 0 -0.8,0.76 c -0.26,0.34 -0.5,0.82 -0.5,1.37 -0.02,0.58 0.51,1.1 1.1,1.1 0.57,0 1.1,-0.52 1.1,-1.1 l 0.03,-0.03 c 0.05,-0.07 0.2,-0.19 0.4,-0.34 1.3399998,-1.02 1.7599998,-1.6 1.7599998,-3.13 -0.1,-1.8 -1.6999998,-3.2 -3.4999998,-3.1 z m 0.16,8.8000002 a 1.1001818,1.1001818 0 0 0 0.04,2.2 1.1,1.1 0 1 0 0,-2.2 1.1,1.1 0 0 0 -0.04,0 z"
     id="path26"
     inkscape:connector-curvature="0"
     style="fill:#bde6fb;fill-opacity:1" />
</svg>
