<?xml version="1.0" encoding="UTF-8" standalone="no"?>
<svg
   width="16"
   height="17"
   version="1.1"
   id="svg1"
   sodipodi:docname="nylas-tray-full.svg"
   xmlns:inkscape="http://www.inkscape.org/namespaces/inkscape"
   xmlns:sodipodi="http://sodipodi.sourceforge.net/DTD/sodipodi-0.dtd"
   xmlns="http://www.w3.org/2000/svg"
   xmlns:svg="http://www.w3.org/2000/svg">
  <sodipodi:namedview
     id="namedview1"
     pagecolor="#505050"
     bordercolor="#eeeeee"
     borderopacity="1"
     inkscape:showpageshadow="0"
     inkscape:pageopacity="0"
     inkscape:pagecheckerboard="0"
     inkscape:deskcolor="#d1d1d1" />
  <defs
     id="defs1">
    <style
       id="current-color-scheme"
       type="text/css">&#10;   .ColorScheme-Text { color:#1e3f5a; } .ColorScheme-Highlight { color:#ff0000; }&#10;  </style>
  </defs>
  <path
     fill-rule="evenodd"
     style="fill:#bde6fb;fill-opacity:1"
     class="ColorScheme-Text"
     d="m 9,0 v 3 l 7,4 V 4 Z M 1,0.7227 c -0.552,0 -1,0.448 -1,1 V 3 L 7,7 V 4.002 C 5.167,2.954 3.3261,1.8985 1.4961,0.8555 1.3451,0.7685 1.174,0.7227 1,0.7227 Z M 0,5 v 3 l 7,4 V 9 Z m 9,0 v 3 l 7,4 V 9 Z m -9,5 v 3 l 7,4 v -3 z m 9,0 v 2.998 c 1.833,1.048 3.6739,2.1035 5.5039,3.1465 0.151,0.087 0.32209,0.13281 0.49609,0.13281 0.552,0 1,-0.448 1,-1 v -1.277 l -7,-4 z"
     id="path1" />
</svg>
