<?xml version="1.0" encoding="UTF-8" standalone="no"?>
<svg
   width="16"
   height="17"
   version="1.1"
   id="svg2"
   sodipodi:docname="nylas-tray-full-newitems.svg"
   xmlns:inkscape="http://www.inkscape.org/namespaces/inkscape"
   xmlns:sodipodi="http://sodipodi.sourceforge.net/DTD/sodipodi-0.dtd"
   xmlns="http://www.w3.org/2000/svg"
   xmlns:svg="http://www.w3.org/2000/svg">
  <sodipodi:namedview
     id="namedview2"
     pagecolor="#505050"
     bordercolor="#eeeeee"
     borderopacity="1"
     inkscape:showpageshadow="0"
     inkscape:pageopacity="0"
     inkscape:pagecheckerboard="0"
     inkscape:deskcolor="#d1d1d1" />
  <defs
     id="defs1">
    <style
       id="current-color-scheme"
       type="text/css">&#10;   .ColorScheme-Text { color:#1e3f5a; } .ColorScheme-Highlight { color:#ff0000; }&#10;  </style>
  </defs>
  <g
     fill-rule="evenodd"
     transform="translate(-3,-2.5)"
     id="g2">
    <path
       style="fill:#bde6fb;fill-opacity:1"
       class="ColorScheme-Text"
       d="m 12,2.5 v 3 l 7,4 v -3 z M 4,3.2227 c -0.552,0 -1,0.448 -1,1 V 5.5 l 7,4 V 6.502 C 8.167,5.454 6.3261,4.3985 4.4961,3.3555 4.3451,3.2685 4.174,3.2227 4,3.2227 Z M 3,7.5 v 3 l 7,4 v -3 z m 9,0 v 3 l 7,4 v -3 z m -9,5 v 3 l 7,4 v -3 z"
       id="path1" />
    <path
       style="fill:currentColor"
       class="ColorScheme-Highlight"
       d="m 12,12.5 v 2.998 c 1.833,1.048 3.6739,2.1035 5.5039,3.1465 0.151,0.087 0.32209,0.13281 0.49609,0.13281 0.552,0 1,-0.448 1,-1 v -1.277 l -7,-4 z"
       id="path2" />
  </g>
</svg>
