<?xml version="1.0" encoding="UTF-8" standalone="no"?>
<svg
   width="18"
   height="18"
   version="1.1"
   id="svg1"
   sodipodi:docname="pomodoro-start-light.svg"
   xmlns:inkscape="http://www.inkscape.org/namespaces/inkscape"
   xmlns:sodipodi="http://sodipodi.sourceforge.net/DTD/sodipodi-0.dtd"
   xmlns="http://www.w3.org/2000/svg"
   xmlns:svg="http://www.w3.org/2000/svg">
  <sodipodi:namedview
     id="namedview1"
     pagecolor="#505050"
     bordercolor="#eeeeee"
     borderopacity="1"
     inkscape:showpageshadow="0"
     inkscape:pageopacity="0"
     inkscape:pagecheckerboard="0"
     inkscape:deskcolor="#d1d1d1" />
  <defs
     id="defs1">
    <style
       id="current-color-scheme"
       type="text/css">&#10;   .ColorScheme-Text { color:#1e3f5a; } .ColorScheme-Highlight { color:#ff0000; }&#10;  </style>
  </defs>
  <path
     style="fill:#bde6fb;fill-opacity:1"
     class="ColorScheme-Text"
     d="M 9,0 C 6.8724,0 4.9155,0.73435 3.375,1.96875 L 1.5625,0.15625 0.15625,1.5625 1.96875,3.375 C 0.73435,4.9155 0,6.8724 0,9 c 0,4.971 4.0294,9 9,9 4.971,0 9,-4.029 9,-9 C 18,6.8724 17.26625,4.9155 16.03125,3.375 L 17.84375,1.5625 16.4375,0.15625 14.625,1.96875 C 13.084,0.73435 11.128,0 9,0 Z m 0,2 c 3.866,0 7,3.134 7,7 0,3.866 -3.134,7 -7,7 C 5.134,16 2,12.866 2,9 2,5.134 5.134,2 9,2 Z M 7,5 v 8 l 6,-4 z"
     id="path1" />
</svg>
