<?xml version="1.0" encoding="UTF-8" standalone="no"?>
<svg
   width="18"
   height="18"
   version="1.1"
   id="svg1"
   sodipodi:docname="pomodoro-indicator-light-58.svg"
   xmlns:inkscape="http://www.inkscape.org/namespaces/inkscape"
   xmlns:sodipodi="http://sodipodi.sourceforge.net/DTD/sodipodi-0.dtd"
   xmlns="http://www.w3.org/2000/svg"
   xmlns:svg="http://www.w3.org/2000/svg">
  <sodipodi:namedview
     id="namedview1"
     pagecolor="#505050"
     bordercolor="#eeeeee"
     borderopacity="1"
     inkscape:showpageshadow="0"
     inkscape:pageopacity="0"
     inkscape:pagecheckerboard="0"
     inkscape:deskcolor="#d1d1d1" />
  <defs
     id="defs1">
    <style
       id="current-color-scheme"
       type="text/css">&#10;   .ColorScheme-Text { color:#1e3f5a; } .ColorScheme-Highlight { color:#ff0000; }&#10;  </style>
  </defs>
  <g
     transform="translate(-3,-1031.4)"
     id="g1">
    <path
       style="fill:#bde6fb;fill-opacity:1"
       class="ColorScheme-Text"
       d="m 12,1031.4 c -2.1276,0 -4.0845,0.7344 -5.625,1.9688 l -1.8125,-1.8125 -1.4062,1.4062 1.8125,1.8125 C 3.7345,1036.3155 3,1038.2724 3,1040.4 c 0,4.9706 4.0294,9 9,9 4.9706,0 9,-4.0294 9,-9 0,-2.1276 -0.73441,-4.0845 -1.9688,-5.625 l 1.8125,-1.8125 -1.4063,-1.4062 -1.8125,1.8125 c -1.5405,-1.2344 -3.4974,-1.9688 -5.625,-1.9688 z m 0,2 c 3.866,0 7,3.134 7,7 0,3.866 -3.134,7 -7,7 -3.866,0 -7,-3.134 -7,-7 0,-3.866 3.134,-7 7,-7 z m 0,1 v 6 l -1.8535,-5.707 a 6,6 0 0 0 -3.9805,7.1074 6,6 0 0 0 6.7734,4.5254 6,6 0 0 0 5.043,-6.3965 A 6,6 0 0 0 12,1034.4 Z"
       id="path1" />
  </g>
</svg>
