<?xml version="1.0" encoding="UTF-8" standalone="no"?>
<svg
   width="18"
   height="18"
   version="1.1"
   id="svg1"
   sodipodi:docname="pomodoro-stop-light.svg"
   xmlns:inkscape="http://www.inkscape.org/namespaces/inkscape"
   xmlns:sodipodi="http://sodipodi.sourceforge.net/DTD/sodipodi-0.dtd"
   xmlns="http://www.w3.org/2000/svg"
   xmlns:svg="http://www.w3.org/2000/svg">
  <sodipodi:namedview
     id="namedview1"
     pagecolor="#505050"
     bordercolor="#eeeeee"
     borderopacity="1"
     inkscape:showpageshadow="0"
     inkscape:pageopacity="0"
     inkscape:pagecheckerboard="0"
     inkscape:deskcolor="#d1d1d1" />
  <defs
     id="defs1">
    <style
       id="current-color-scheme"
       type="text/css">&#10;   .ColorScheme-Text { color:#1e3f5a; } .ColorScheme-Highlight { color:#ff0000; }&#10;  </style>
  </defs>
  <g
     transform="translate(-2,-1032.4)"
     id="g1">
    <path
       style="fill:#bde6fb;fill-opacity:1"
       class="ColorScheme-Text"
       d="M 11,2 C 8.8724,2 6.9155,2.7344 5.375,3.9688 L 3.5625,2.1562 2.1562,3.5625 3.9688,5.375 C 2.7344,6.9155 2,8.8724 2,11 c 0,4.9706 4.0294,9 9,9 4.9706,0 9,-4.0294 9,-9 C 20,8.8724 19.266,6.9155 18.031,5.375 L 19.844,3.5625 18.438,2.1562 16.625,3.9688 C 15.084,2.7344 13.128,2 11,2 Z m 0,2 c 3.866,0 7,3.134 7,7 0,3.866 -3.134,7 -7,7 C 7.134,18 4,14.866 4,11 4,7.134 7.134,4 11,4 Z M 8,8 v 6 h 6 V 11 8 Z"
       transform="translate(0,1030.4)"
       id="path1" />
  </g>
</svg>
