<?xml version="1.0" encoding="UTF-8" standalone="no"?>
<svg
   width="24"
   height="24"
   version="1.1"
   id="svg1"
   sodipodi:docname="pomodoro-indicator-light-34.svg"
   inkscape:export-filename="pomodoro-indicator-light-34.svg"
   inkscape:export-xdpi="96"
   inkscape:export-ydpi="96"
   inkscape:version="1.3 (0e150ed6c4, 2023-07-21)"
   xmlns:inkscape="http://www.inkscape.org/namespaces/inkscape"
   xmlns:sodipodi="http://sodipodi.sourceforge.net/DTD/sodipodi-0.dtd"
   xmlns="http://www.w3.org/2000/svg"
   xmlns:svg="http://www.w3.org/2000/svg">
  <sodipodi:namedview
     id="namedview1"
     pagecolor="#505050"
     bordercolor="#eeeeee"
     borderopacity="1"
     inkscape:showpageshadow="0"
     inkscape:pageopacity="0"
     inkscape:pagecheckerboard="0"
     inkscape:deskcolor="#d1d1d1"
     inkscape:zoom="33.333333"
     inkscape:cx="12"
     inkscape:cy="12"
     inkscape:window-width="1920"
     inkscape:window-height="1002"
     inkscape:window-x="0"
     inkscape:window-y="50"
     inkscape:window-maximized="1"
     inkscape:current-layer="g1" />
  <defs
     id="defs1">
    <style
       id="current-color-scheme"
       type="text/css">&#10;   .ColorScheme-Text { color:#1e3f5a; } .ColorScheme-Highlight { color:#ff0000; }&#10;  </style>
  </defs>
  <g
     transform="translate(0 -1028.4)"
     id="g1">
    <path
       style="fill:#bde6fb;fill-opacity:1"
       class="ColorScheme-Text"
       d="m12 1031.4c-2.1276 0-4.0845 0.7343-5.625 1.9687l-1.8125-1.8125-1.4062 1.4063 1.8125 1.8125c-1.2344 1.5-1.9688 3.4-1.9688 5.6 0 4.9706 4.0294 9 9 9s9-4.0294 9-9c0-2.1276-0.73441-4.0845-1.9688-5.625l1.8125-1.8125-1.4062-1.4063-1.8125 1.8125c-1.5405-1.2344-3.4974-1.9687-5.625-1.9687zm0 2c3.866 0 7 3.134 7 7s-3.134 7-7 7-7-3.134-7-7 3.134-7 7-7zm0 1v6l-2.4395 5.4805a6 6 0 0 0 6.6074 -1.1641 6 6 0 0 0 1.3945 -6.5645 6 6 0 0 0 -5.562 -3.8z"
       id="path1" />
  </g>
</svg>
