<?xml version="1.0" encoding="UTF-8" standalone="no"?>
<svg
   width="18.919998"
   height="20.173"
   version="1.1"
   id="svg4"
   sodipodi:docname="protonmail-indicator.svg"
   inkscape:version="0.92.4 (5da689c313, 2019-01-14)"
   xmlns:inkscape="http://www.inkscape.org/namespaces/inkscape"
   xmlns:sodipodi="http://sodipodi.sourceforge.net/DTD/sodipodi-0.dtd"
   xmlns="http://www.w3.org/2000/svg"
   xmlns:svg="http://www.w3.org/2000/svg"
   xmlns:rdf="http://www.w3.org/1999/02/22-rdf-syntax-ns#"
   xmlns:cc="http://creativecommons.org/ns#"
   xmlns:dc="http://purl.org/dc/elements/1.1/">
  <metadata
     id="metadata10">
    <rdf:RDF>
      <cc:Work
         rdf:about="">
        <dc:format>image/svg+xml</dc:format>
        <dc:type
           rdf:resource="http://purl.org/dc/dcmitype/StillImage" />
        <dc:title />
      </cc:Work>
    </rdf:RDF>
  </metadata>
  <defs
     id="defs8" />
  <sodipodi:namedview
     pagecolor="#ffffff"
     bordercolor="#666666"
     borderopacity="1"
     objecttolerance="10"
     gridtolerance="10"
     guidetolerance="10"
     inkscape:pageopacity="0"
     inkscape:pageshadow="2"
     inkscape:window-width="1138"
     inkscape:window-height="480"
     id="namedview6"
     showgrid="false"
     inkscape:zoom="9.8333333"
     inkscape:cx="1.0677966"
     inkscape:cy="12"
     inkscape:window-x="0"
     inkscape:window-y="25"
     inkscape:window-maximized="0"
     inkscape:current-layer="svg4"
     inkscape:showpageshadow="0"
     inkscape:pagecheckerboard="0"
     inkscape:deskcolor="#d1d1d1" />
  <path
     d="M 9.46,1.2397766e-8 A 6.85,6.54 0 0 0 2.612,6.483 H 1.464 l 7.836,7.7 h 0.76 l 7.86,-7.7 H 16.306 A 6.85,6.54 0 0 0 9.46,1.2397766e-8 Z M 9.46,1.713 a 5.056,4.828 0 0 1 5.055,4.77 H 4.407 A 5.056,4.828 0 0 1 9.46,1.713 Z M 0.61000004,7.383 A 9.46,9.46 0 0 0 3.8146973e-8,10.713 9.46,9.46 0 0 0 1.24,15.373 l 3.72,-3.7 z M 18.43,7.733 l -3.97,3.95 3.38,3.39 a 9.46,9.46 0 0 0 1.08,-4.36 9.46,9.46 0 0 0 -0.49,-2.98 z m -12.55,4.8 -3.94,3.91 a 9.46,9.46 0 0 0 7.52,3.73 9.46,9.46 0 0 0 7.74,-4.02 l -3.68,-3.61 -2.9,2.9 H 8.78 l -2.9,-2.9 z"
     id="path2"
     inkscape:connector-curvature="0"
     style="fill:#bde6fb;fill-opacity:1" />
</svg>
