<?xml version="1.0" encoding="UTF-8" standalone="no"?>
<svg
   width="18.919001"
   height="20.174002"
   version="1.1"
   id="svg4"
   sodipodi:docname="protonmail-notification.svg"
   inkscape:version="0.92.4 (5da689c313, 2019-01-14)"
   xmlns:inkscape="http://www.inkscape.org/namespaces/inkscape"
   xmlns:sodipodi="http://sodipodi.sourceforge.net/DTD/sodipodi-0.dtd"
   xmlns="http://www.w3.org/2000/svg"
   xmlns:svg="http://www.w3.org/2000/svg"
   xmlns:rdf="http://www.w3.org/1999/02/22-rdf-syntax-ns#"
   xmlns:cc="http://creativecommons.org/ns#"
   xmlns:dc="http://purl.org/dc/elements/1.1/">
  <metadata
     id="metadata10">
    <rdf:RDF>
      <cc:Work
         rdf:about="">
        <dc:format>image/svg+xml</dc:format>
        <dc:type
           rdf:resource="http://purl.org/dc/dcmitype/StillImage" />
        <dc:title />
      </cc:Work>
    </rdf:RDF>
  </metadata>
  <defs
     id="defs8" />
  <sodipodi:namedview
     pagecolor="#ffffff"
     bordercolor="#666666"
     borderopacity="1"
     objecttolerance="10"
     gridtolerance="10"
     guidetolerance="10"
     inkscape:pageopacity="0"
     inkscape:pageshadow="2"
     inkscape:window-width="1138"
     inkscape:window-height="480"
     id="namedview6"
     showgrid="false"
     inkscape:zoom="9.8333333"
     inkscape:cx="1.0677966"
     inkscape:cy="12"
     inkscape:window-x="0"
     inkscape:window-y="25"
     inkscape:window-maximized="0"
     inkscape:current-layer="svg4"
     inkscape:showpageshadow="0"
     inkscape:pagecheckerboard="0"
     inkscape:deskcolor="#d1d1d1" />
  <path
     d="M 9.46,5.9127808e-8 A 6.85,6.54 0 0 0 2.612,6.4830001 H 1.464 L 9.3,14.183 h 0.76 L 17.92,6.4830001 H 16.306 A 6.85,6.54 0 0 0 9.46,5.9127808e-8 Z M 9.46,1.7130001 a 5.056,4.828 0 0 1 5.055,4.77 H 4.407 a 5.056,4.828 0 0 1 5.053,-4.77 z m -8.84999996,5.672 A 9.46,9.46 0 0 0 3.8146973e-8,10.715 9.46,9.46 0 0 0 1.24,15.375 L 4.96,11.674 0.61000004,7.3840001 Z M 18.43,7.7350001 14.46,11.683 l 2.25,2.25 a 3.67,3.67 0 0 1 0.19,0.011 3.67,3.67 0 0 1 0.36,0.05 3.67,3.67 0 0 1 0.36,0.08 3.67,3.67 0 0 1 0.35,0.109 3.67,3.67 0 0 1 0.23,0.101 9.46,9.46 0 0 0 0.719,-3.57 9.46,9.46 0 0 0 -0.488,-2.9799999 z M 5.88,12.535 1.94,16.445 a 9.46,9.46 0 0 0 7.52,3.729 9.46,9.46 0 0 0 3.92,-0.86 3.67,3.67 0 0 1 -0.13,-0.269 3.67,3.67 0 0 1 -0.12,-0.35 3.67,3.67 0 0 1 -0.1,-0.351 3.67,3.67 0 0 1 -0.05,-0.37 3.67,3.67 0 0 1 -0.02,-0.359 3.67,3.67 0 0 1 0.01,-0.26 3.67,3.67 0 0 1 0.05,-0.37 3.67,3.67 0 0 1 0.08,-0.36 3.67,3.67 0 0 1 0.11,-0.34 3.67,3.67 0 0 1 0.15,-0.34 3.67,3.67 0 0 1 0.19,-0.32 3.67,3.67 0 0 1 0.2,-0.3 3.67,3.67 0 0 1 0.25,-0.27 3.67,3.67 0 0 1 0.27,-0.25 3.67,3.67 0 0 1 0.3,-0.22 3.67,3.67 0 0 1 0.3,-0.2 3.67,3.67 0 0 1 0.34,-0.16 3.67,3.67 0 0 1 0.02,0 l -1.7,-1.68 -2.91,2.9 H 8.78 l -2.9,-2.9 z m 10.76,3.08 a 2,2 0 0 0 -2,2 2,2 0 0 0 2,2 2,2 0 0 0 2,-2 2,2 0 0 0 -2,-2 z"
     id="path2"
     inkscape:connector-curvature="0"
     style="fill:#bde6fb;fill-opacity:1" />
</svg>
