<?xml version="1.0" encoding="UTF-8" standalone="no"?>
<svg
   width="17.869156"
   height="19.999615"
   version="1.1"
   id="svg9"
   sodipodi:docname="rambox-notification.svg"
   inkscape:version="0.92.5 (2060ec1f9f, 2020-04-08)"
   xmlns:inkscape="http://www.inkscape.org/namespaces/inkscape"
   xmlns:sodipodi="http://sodipodi.sourceforge.net/DTD/sodipodi-0.dtd"
   xmlns="http://www.w3.org/2000/svg"
   xmlns:svg="http://www.w3.org/2000/svg"
   xmlns:rdf="http://www.w3.org/1999/02/22-rdf-syntax-ns#"
   xmlns:cc="http://creativecommons.org/ns#"
   xmlns:dc="http://purl.org/dc/elements/1.1/">
  <metadata
     id="metadata8">
    <rdf:RDF>
      <cc:Work
         rdf:about="">
        <dc:format>image/svg+xml</dc:format>
        <dc:type
           rdf:resource="http://purl.org/dc/dcmitype/StillImage" />
        <dc:title />
      </cc:Work>
    </rdf:RDF>
  </metadata>
  <sodipodi:namedview
     pagecolor="#ffffff"
     bordercolor="#666666"
     borderopacity="1"
     objecttolerance="10"
     gridtolerance="10"
     guidetolerance="10"
     inkscape:pageopacity="0"
     inkscape:pageshadow="2"
     inkscape:window-width="1085"
     inkscape:window-height="480"
     id="namedview6"
     showgrid="false"
     inkscape:zoom="9.8333333"
     inkscape:cx="1.0677966"
     inkscape:cy="12"
     inkscape:window-x="0"
     inkscape:window-y="25"
     inkscape:window-maximized="0"
     inkscape:current-layer="svg9"
     inkscape:showpageshadow="0"
     inkscape:pagecheckerboard="0"
     inkscape:deskcolor="#d1d1d1" />
  <defs
     id="defs3">
    <style
       id="current-color-scheme"
       type="text/css" />
  </defs>
  <path
     d="m 9.0371551,0 c -0.798,0.098 -3.074,1.067 -3.431,4.08 -0.809,-0.76 -0.625,-2.626 -0.625,-2.626 -0.916,0.889 -4.00099996,8.553 -4.89899996,11.978 -1.012,3.884 7.62299996,5.992 9.54699996,6.404 2.4889999,0.533 3.6879999,-0.411 4.1529999,-0.363 1.39,0.17 2.784,-0.502 3.275,-2.457 0.685,-0.297 0.436,-1.224 0.182,-1.742 -0.33,-0.67 -0.64,-0.78 -1.885,-2.205 0.003,-0.667 0.002,-1.195 -0.274,-1.455 -0.276,-0.26 -0.827,-0.252 -1.351,0.148 -0.186,-0.006 -0.413,-0.372 -0.403,-0.865 0.018,-0.847 0.543,-0.484 0.883,-1.197 0.34,-0.713 -0.137,-1.768 -0.982,-1.823 -0.681,-0.044 -0.986,-1.85 -3.3149999,-1.884 0,0 -1.635,-3.271 4.2999999,-4.323 -1.377,-0.723 -4.3499999,-0.948 -6.1259999,1.252 -0.229,-0.924 0.169,-1.991 0.951,-2.921 z m 6.8319999,2.79 a 2,2 0 0 0 -2,2 2,2 0 0 0 2,2 2,2 0 0 0 2,-2 2,2 0 0 0 -2,-2 z"
     id="path5"
     inkscape:connector-curvature="0"
     style="color:#dfdfdf;fill:#bde6fb;fill-opacity:1;fill-rule:evenodd;stroke-width:1.25" />
</svg>
