<?xml version="1.0" encoding="UTF-8" standalone="no"?>
<svg
   width="19"
   height="18.000002"
   version="1.1"
   id="svg1"
   sodipodi:docname="teamviewer-indicator-connected.svg"
   xmlns:inkscape="http://www.inkscape.org/namespaces/inkscape"
   xmlns:sodipodi="http://sodipodi.sourceforge.net/DTD/sodipodi-0.dtd"
   xmlns:xlink="http://www.w3.org/1999/xlink"
   xmlns="http://www.w3.org/2000/svg"
   xmlns:svg="http://www.w3.org/2000/svg">
  <sodipodi:namedview
     id="namedview1"
     pagecolor="#505050"
     bordercolor="#eeeeee"
     borderopacity="1"
     inkscape:showpageshadow="0"
     inkscape:pageopacity="0"
     inkscape:pagecheckerboard="0"
     inkscape:deskcolor="#d1d1d1" />
  <defs
     id="defs1">
    <linearGradient
       id="swatch1"
       inkscape:swatch="solid">
      <stop
         style="stop-color:#bde6fb;stop-opacity:1;"
         offset="0"
         id="stop1" />
    </linearGradient>
    <style
       id="current-color-scheme"
       type="text/css">&#10;   .ColorScheme-Text { color:#1e3f5a; } .ColorScheme-Highlight { color:#ff0000; }&#10;  </style>
    <linearGradient
       inkscape:collect="always"
       xlink:href="#swatch1"
       id="linearGradient1"
       x1="4"
       y1="12.999999"
       x2="23"
       y2="12.999999"
       gradientUnits="userSpaceOnUse"
       gradientTransform="translate(4,3.9999986)" />
    <linearGradient
       inkscape:collect="always"
       xlink:href="#swatch1"
       id="linearGradient2"
       gradientUnits="userSpaceOnUse"
       x1="4"
       y1="12.999999"
       x2="23"
       y2="12.999999"
       gradientTransform="translate(4,3.9999986)" />
  </defs>
  <g
     id="g1"
     style="fill:url(#linearGradient1)"
     transform="translate(-4,-3.9999986)">
    <path
       style="fill:url(#linearGradient2)"
       class="ColorScheme-Text"
       d="M 21.587042,14.915801 23,16.328644 l -4.252463,4.252517 0.0059,0.006 L 17.338575,22 13.1,17.761471 l 1.412758,-1.412844 2.82192,2.819691 z M 14,9.0000002 V 11 H 10 V 9.0000002 L 7.0000002,12 10,15 v -2 h 4 v 2 l 3,-3 z M 20,12 c -0.0016,1.571558 -0.467437,3.108196 -1.336919,4.417323 l -1.335597,1.335584 -2.821662,-2.821631 -2.831359,2.821631 2.050336,2.050313 C 13.158703,19.930569 12.58024,19.997763 12,19.999999 c -4.4172782,0 -8.0000001,-3.582769 -8.0000001,-8 C 3.9999999,7.5827676 7.582572,3.9998486 12,3.9999986 16.417428,4.00015 20,7.5827694 20,12 Z"
       id="path1" />
  </g>
</svg>
