<?xml version="1.0" encoding="UTF-8" standalone="no"?>
<svg
   width="19"
   height="18"
   version="1.1"
   id="svg1"
   sodipodi:docname="teamviewer-indicator-busy.svg"
   xmlns:inkscape="http://www.inkscape.org/namespaces/inkscape"
   xmlns:sodipodi="http://sodipodi.sourceforge.net/DTD/sodipodi-0.dtd"
   xmlns="http://www.w3.org/2000/svg"
   xmlns:svg="http://www.w3.org/2000/svg">
  <sodipodi:namedview
     id="namedview1"
     pagecolor="#505050"
     bordercolor="#eeeeee"
     borderopacity="1"
     inkscape:showpageshadow="0"
     inkscape:pageopacity="0"
     inkscape:pagecheckerboard="0"
     inkscape:deskcolor="#d1d1d1" />
  <defs
     id="defs1">
    <style
       id="current-color-scheme"
       type="text/css">&#10;   .ColorScheme-Text { color:#1e3f5a; } .ColorScheme-Highlight { color:#ff0000; }&#10;  </style>
  </defs>
  <g
     id="g1"
     transform="translate(-4,-4)">
    <path
       style="fill:#bde6fb;fill-opacity:1"
       class="ColorScheme-Text"
       d="M 17.4,14.999999 16,16.4 18.10198,18.5 16,20.60198 17.4,22 19.5,19.9 21.60198,22 23,20.60198 20.9,18.5 23,16.4 21.60198,14.999999 19.5,17.101979 Z M 10,9 v 2 h 4 V 9 l 3,3 -3,3 v -2 h -4 v 2 L 7,12 Z m 2,-5 c -4.4175389,2e-7 -7.9999998,3.5824611 -8,8 2e-7,4.417539 3.5824611,8 8,8 1.691541,-0.0032 3.337169,-0.542328 4.702876,-1.540408 l -2.116646,-2.114646 2.823527,-2.831527 1.841692,1.841692 C 19.740021,14.304513 19.99719,13.158641 20,12 20,7.5824607 16.417539,3.9999997 12,4 Z"
       id="path1" />
  </g>
</svg>
