<?xml version="1.0" encoding="UTF-8" standalone="no"?>
<svg
   width="21"
   height="21"
   version="1.1"
   id="svg7"
   sodipodi:docname="teams-tray-activity.svg"
   inkscape:version="0.92.5 (2060ec1f9f, 2020-04-08)"
   xmlns:inkscape="http://www.inkscape.org/namespaces/inkscape"
   xmlns:sodipodi="http://sodipodi.sourceforge.net/DTD/sodipodi-0.dtd"
   xmlns="http://www.w3.org/2000/svg"
   xmlns:svg="http://www.w3.org/2000/svg"
   xmlns:rdf="http://www.w3.org/1999/02/22-rdf-syntax-ns#"
   xmlns:cc="http://creativecommons.org/ns#"
   xmlns:dc="http://purl.org/dc/elements/1.1/">
  <metadata
     id="metadata8">
    <rdf:RDF>
      <cc:Work
         rdf:about="">
        <dc:format>image/svg+xml</dc:format>
        <dc:type
           rdf:resource="http://purl.org/dc/dcmitype/StillImage" />
        <dc:title />
      </cc:Work>
    </rdf:RDF>
  </metadata>
  <sodipodi:namedview
     pagecolor="#ffffff"
     bordercolor="#666666"
     borderopacity="1"
     objecttolerance="10"
     gridtolerance="10"
     guidetolerance="10"
     inkscape:pageopacity="0"
     inkscape:pageshadow="2"
     inkscape:window-width="1087"
     inkscape:window-height="480"
     id="namedview6"
     showgrid="false"
     inkscape:zoom="9.8333333"
     inkscape:cx="1.0677966"
     inkscape:cy="12"
     inkscape:window-x="0"
     inkscape:window-y="25"
     inkscape:window-maximized="0"
     inkscape:current-layer="svg7"
     inkscape:showpageshadow="0"
     inkscape:pagecheckerboard="0"
     inkscape:deskcolor="#d1d1d1" />
  <defs
     id="defs3">
    <style
       id="current-color-scheme"
       type="text/css" />
  </defs>
  <path
     d="M 10,0 A 10,10 0 0 0 0,10 10,10 0 0 0 10,20 10,10 0 0 0 12.457,19.68 5.5,5.5 0 0 1 12.373,19.492 5.5,5.5 0 0 1 12.201,18.971 5.5,5.5 0 0 1 12.081,18.436 5.5,5.5 0 0 1 12.014,17.889 5.5,5.5 0 0 1 12,17.5 a 5.5,5.5 0 0 1 0.027,-0.549 5.5,5.5 0 0 1 0.082,-0.543 5.5,5.5 0 0 1 0.137,-0.533 5.5,5.5 0 0 1 0.188,-0.518 5.5,5.5 0 0 1 0.24,-0.494 5.5,5.5 0 0 1 0.287,-0.468 5.5,5.5 0 0 1 0.332,-0.438 5.5,5.5 0 0 1 0.375,-0.402 5.5,5.5 0 0 1 0.414,-0.364 5.5,5.5 0 0 1 0.447,-0.32 5.5,5.5 0 0 1 0.477,-0.273 5.5,5.5 0 0 1 0.502,-0.225 5.5,5.5 0 0 1 0.521,-0.172 5.5,5.5 0 0 1 0.535,-0.12 5.5,5.5 0 0 1 0.547,-0.067 A 5.5,5.5 0 0 1 17.5,12 a 5.5,5.5 0 0 1 0.549,0.027 5.5,5.5 0 0 1 0.543,0.082 5.5,5.5 0 0 1 0.533,0.137 5.5,5.5 0 0 1 0.518,0.188 5.5,5.5 0 0 1 0.043,0.021 A 10,10 0 0 0 20,10 10,10 0 0 0 10,0 Z M 5,5 h 10 v 3 h -3 v 7 H 8 V 8 H 5 Z m 12.5,9 A 3.5,3.5 0 0 0 14,17.5 3.5,3.5 0 0 0 17.5,21 3.5,3.5 0 0 0 21,17.5 3.5,3.5 0 0 0 17.5,14 Z"
     id="path820"
     stroke-miterlimit="4"
     inkscape:connector-curvature="0"
     style="opacity:1;vector-effect:none;fill:#bde6fb;fill-opacity:1;fill-rule:nonzero;stroke:none;stroke-width:0.378;stroke-linecap:round;stroke-linejoin:round;stroke-miterlimit:4;stroke-dasharray:none;stroke-dashoffset:0;stroke-opacity:1;paint-order:stroke fill markers" />
</svg>
