<?xml version="1.0" encoding="UTF-8" standalone="no"?>
<svg
   width="14.257749"
   height="16.259998"
   version="1"
   id="svg4"
   sodipodi:docname="transmission-tray-icon.svg"
   inkscape:version="0.92.4 (5da689c313, 2019-01-14)"
   xmlns:inkscape="http://www.inkscape.org/namespaces/inkscape"
   xmlns:sodipodi="http://sodipodi.sourceforge.net/DTD/sodipodi-0.dtd"
   xmlns="http://www.w3.org/2000/svg"
   xmlns:svg="http://www.w3.org/2000/svg"
   xmlns:rdf="http://www.w3.org/1999/02/22-rdf-syntax-ns#"
   xmlns:cc="http://creativecommons.org/ns#"
   xmlns:dc="http://purl.org/dc/elements/1.1/">
  <metadata
     id="metadata10">
    <rdf:RDF>
      <cc:Work
         rdf:about="">
        <dc:format>image/svg+xml</dc:format>
        <dc:type
           rdf:resource="http://purl.org/dc/dcmitype/StillImage" />
        <dc:title />
      </cc:Work>
    </rdf:RDF>
  </metadata>
  <defs
     id="defs8" />
  <sodipodi:namedview
     pagecolor="#ffffff"
     bordercolor="#666666"
     borderopacity="1"
     objecttolerance="10"
     gridtolerance="10"
     guidetolerance="10"
     inkscape:pageopacity="0"
     inkscape:pageshadow="2"
     inkscape:window-width="1087"
     inkscape:window-height="480"
     id="namedview6"
     showgrid="false"
     inkscape:zoom="9.8333333"
     inkscape:cx="1.0677966"
     inkscape:cy="12"
     inkscape:window-x="0"
     inkscape:window-y="25"
     inkscape:window-maximized="0"
     inkscape:current-layer="svg4"
     inkscape:showpageshadow="0"
     inkscape:pagecheckerboard="0"
     inkscape:deskcolor="#d1d1d1" />
  <path
     d="m 3.2851802,1.1444092e-7 a 1.18,1.18 0 1 0 0,2.35999998555908 h 2.72 v 4.26 h 2.45 v -4.26 H 10.95518 a 1.18,1.18 0 1 0 0,-2.35999998555908 z M 6.0051802,6.6200001 h -3.51 c -0.48,0 -0.93,0.37 -1.01,0.83 L 0.01518024,15.39 c -0.09,0.46 0.23,0.84 0.7,0.84 H 5.0051802 v 0.03 h 4.24 V 16.23 H 13.54518 c 0.47,0 0.78,-0.38 0.7,-0.84 l -1.48,-7.9399999 a 1.06,1.06 0 0 0 -1,-0.83 H 8.4951802 V 10.08 H 10.87518 l -3.7199998,3.05 -3.57,-3.04 h 2.42 z"
     id="path2"
     inkscape:connector-curvature="0"
     style="fill:#bde6fb;fill-opacity:1" />
</svg>
