<?xml version="1.0" encoding="UTF-8" standalone="no"?>
<svg
   width="19.16"
   height="19.16"
   id="svg11"
   version="1.1"
   sodipodi:docname="update-high.svg"
   inkscape:version="0.92.4 (5da689c313, 2019-01-14)"
   xmlns:inkscape="http://www.inkscape.org/namespaces/inkscape"
   xmlns:sodipodi="http://sodipodi.sourceforge.net/DTD/sodipodi-0.dtd"
   xmlns="http://www.w3.org/2000/svg"
   xmlns:svg="http://www.w3.org/2000/svg"
   xmlns:rdf="http://www.w3.org/1999/02/22-rdf-syntax-ns#"
   xmlns:cc="http://creativecommons.org/ns#"
   xmlns:dc="http://purl.org/dc/elements/1.1/">
  <metadata
     id="metadata8">
    <rdf:RDF>
      <cc:Work
         rdf:about="">
        <dc:format>image/svg+xml</dc:format>
        <dc:type
           rdf:resource="http://purl.org/dc/dcmitype/StillImage" />
        <dc:title />
      </cc:Work>
    </rdf:RDF>
  </metadata>
  <sodipodi:namedview
     pagecolor="#ffffff"
     bordercolor="#666666"
     borderopacity="1"
     objecttolerance="10"
     gridtolerance="10"
     guidetolerance="10"
     inkscape:pageopacity="0"
     inkscape:pageshadow="2"
     inkscape:window-width="1366"
     inkscape:window-height="711"
     id="namedview6"
     showgrid="false"
     inkscape:zoom="9.8333333"
     inkscape:cx="1.0677966"
     inkscape:cy="12"
     inkscape:window-x="0"
     inkscape:window-y="25"
     inkscape:window-maximized="1"
     inkscape:current-layer="svg11"
     inkscape:showpageshadow="0"
     inkscape:pagecheckerboard="0"
     inkscape:deskcolor="#d1d1d1" />
  <defs
     id="defs3">
    <style
       id="current-color-scheme" />
  </defs>
  <path
     d="M 9.5799999,0.00199992 A 9.58,9.58 0 0 0 -7.6293945e-8,9.5819999 9.58,9.58 0 0 0 9.5799999,19.16 9.58,9.58 0 0 0 19.16,9.5819999 9.58,9.58 0 0 0 9.5799999,-7.6293945e-8 Z m -0.027,1.42599998 A 8.235,8.235 0 0 1 17.788,9.6629999 8.235,8.235 0 0 1 9.5529999,17.898 a 8.235,8.235 0 0 1 -8.234,-8.2350001 8.235,8.235 0 0 1 8.234,-8.234 z m 0,1.613 a 6.519,6.519 0 0 0 -4.227,1.552 c -0.489,0.472 0.798,1.552 1.234,1.101 a 4.865,4.865 0 0 1 2.993,-1.02 4.889,4.889 0 0 1 4.9020001,4.9 4.889,4.889 0 0 1 -4.9020001,4.9020001 4.874,4.874 0 0 1 -3.465,-1.435 4.894,4.894 0 0 1 -1.211,-1.995 h 1.858 l -2.635,-3.0640001 -2.632,3.0620001 h 1.72 a 6.538,6.538 0 0 0 6.366,5.066 6.55,6.55 0 0 0 6.5340001,-6.5350001 6.548,6.548 0 0 0 -6.5340001,-6.534 z"
     id="path2-36-3"
     inkscape:connector-curvature="0"
     style="fill:#bde6fb;fill-opacity:1;stroke-width:1.523" />
</svg>
