<?xml version="1.0" encoding="UTF-8" standalone="no"?>
<svg
   width="19.16"
   height="19.16"
   id="svg11"
   version="1.1"
   sodipodi:docname="update-none.svg"
   inkscape:version="0.92.4 (5da689c313, 2019-01-14)"
   xmlns:inkscape="http://www.inkscape.org/namespaces/inkscape"
   xmlns:sodipodi="http://sodipodi.sourceforge.net/DTD/sodipodi-0.dtd"
   xmlns="http://www.w3.org/2000/svg"
   xmlns:svg="http://www.w3.org/2000/svg"
   xmlns:rdf="http://www.w3.org/1999/02/22-rdf-syntax-ns#"
   xmlns:cc="http://creativecommons.org/ns#"
   xmlns:dc="http://purl.org/dc/elements/1.1/">
  <metadata
     id="metadata8">
    <rdf:RDF>
      <cc:Work
         rdf:about="">
        <dc:format>image/svg+xml</dc:format>
        <dc:type
           rdf:resource="http://purl.org/dc/dcmitype/StillImage" />
        <dc:title />
      </cc:Work>
    </rdf:RDF>
  </metadata>
  <sodipodi:namedview
     pagecolor="#ffffff"
     bordercolor="#666666"
     borderopacity="1"
     objecttolerance="10"
     gridtolerance="10"
     guidetolerance="10"
     inkscape:pageopacity="0"
     inkscape:pageshadow="2"
     inkscape:window-width="1087"
     inkscape:window-height="480"
     id="namedview6"
     showgrid="false"
     inkscape:zoom="9.8333333"
     inkscape:cx="1.0677966"
     inkscape:cy="12"
     inkscape:window-x="0"
     inkscape:window-y="25"
     inkscape:window-maximized="0"
     inkscape:current-layer="svg11"
     inkscape:showpageshadow="0"
     inkscape:pagecheckerboard="0"
     inkscape:deskcolor="#d1d1d1" />
  <defs
     id="defs3">
    <style
       id="current-color-scheme" />
  </defs>
  <path
     d="M 9.5799999,0.00199992 A 9.58,9.58 0 0 0 -7.6293945e-8,9.5819999 9.58,9.58 0 0 0 9.5799999,19.16 9.58,9.58 0 0 0 19.16,9.5819999 9.58,9.58 0 0 0 9.5799999,-7.6293945e-8 Z m -0.027,1.42599998 A 8.235,8.235 0 0 1 17.788,9.6629999 8.235,8.235 0 0 1 9.5529999,17.898 a 8.235,8.235 0 0 1 -8.234,-8.2350001 8.235,8.235 0 0 1 8.234,-8.234 z m 3.3430001,2.33 a 0.458,0.458 0 0 0 -0.451,0.24 L 8.5109999,11.226 l -2.531,-2.0200001 a 0.461,0.461 0 0 0 -0.631,0.183 L 4.2159999,10.85 a 0.466,0.466 0 0 0 0.184,0.632 c 0,0 4.62,3.832 4.626,3.834 a 0.411,0.411 0 0 0 0.164,0.05 0.461,0.461 0 0 0 0.465,-0.238 L 14.962,5.3809999 a 0.466,0.466 0 0 0 -0.184,-0.63 l -1.703,-0.939 a 0.45,0.45 0 0 0 -0.18,-0.055 z"
     id="path2"
     inkscape:connector-curvature="0"
     style="fill:#bde6fb;fill-opacity:1;stroke-width:1.523" />
</svg>
