<?xml version="1.0" encoding="UTF-8" standalone="no"?>
<svg
   width="18"
   height="22.033001"
   version="1.1"
   id="svg4"
   sodipodi:docname="weather-snow-rain.svg"
   inkscape:version="0.92.4 (5da689c313, 2019-01-14)"
   xmlns:inkscape="http://www.inkscape.org/namespaces/inkscape"
   xmlns:sodipodi="http://sodipodi.sourceforge.net/DTD/sodipodi-0.dtd"
   xmlns="http://www.w3.org/2000/svg"
   xmlns:svg="http://www.w3.org/2000/svg"
   xmlns:rdf="http://www.w3.org/1999/02/22-rdf-syntax-ns#"
   xmlns:cc="http://creativecommons.org/ns#"
   xmlns:dc="http://purl.org/dc/elements/1.1/">
  <metadata
     id="metadata10">
    <rdf:RDF>
      <cc:Work
         rdf:about="">
        <dc:format>image/svg+xml</dc:format>
        <dc:type
           rdf:resource="http://purl.org/dc/dcmitype/StillImage" />
        <dc:title />
      </cc:Work>
    </rdf:RDF>
  </metadata>
  <defs
     id="defs8" />
  <sodipodi:namedview
     pagecolor="#ffffff"
     bordercolor="#666666"
     borderopacity="1"
     objecttolerance="10"
     gridtolerance="10"
     guidetolerance="10"
     inkscape:pageopacity="0"
     inkscape:pageshadow="2"
     inkscape:window-width="1087"
     inkscape:window-height="480"
     id="namedview6"
     showgrid="false"
     inkscape:zoom="9.8333333"
     inkscape:cx="1.0677966"
     inkscape:cy="12"
     inkscape:window-x="0"
     inkscape:window-y="25"
     inkscape:window-maximized="0"
     inkscape:current-layer="svg4"
     inkscape:showpageshadow="0"
     inkscape:pagecheckerboard="0"
     inkscape:deskcolor="#d1d1d1" />
  <path
     d="M 9,0 A 6,6 0 0 0 3,6 6,6 0 0 0 3.004,6.129 4,4 0 0 0 0,9.999 a 4,4 0 0 0 4,4 h 9 a 5,5 0 0 0 5,-5 A 5,5 0 0 0 14.758,4.324 6,6 0 0 0 9,0 Z M 9,0.99999999 A 5,5 0 0 1 13.92,5.111 4,4 0 0 1 17,9 4,4 0 0 1 13,13 H 4 A 3,3 0 0 1 1,10 3,3 0 0 1 4,7 3,3 0 0 1 4.107,7.006 5,5 0 0 1 4,6 5,5 0 0 1 9,0.99999999 Z M 3,15.033 a 1,1 0 0 0 -1,1 1,1 0 0 0 1,1 1,1 0 0 0 1,-1 1,1 0 0 0 -1,-1 z m 4,0 a 1,1 0 0 0 -1,1 1,1 0 0 0 1,1 1,1 0 0 0 1,-1 1,1 0 0 0 -1,-1 z m 3.418,0 A 0.418,0.418 0 0 0 10,15.451 v 2.164 c 0,0.231 0.187,0.418 0.418,0.418 h 0.164 A 0.418,0.418 0 0 0 11,17.615 v -2.164 a 0.418,0.418 0 0 0 -0.418,-0.418 z m 4,0 A 0.418,0.418 0 0 0 14,15.451 v 2.164 c 0,0.231 0.187,0.418 0.418,0.418 h 0.164 A 0.418,0.418 0 0 0 15,17.615 v -2.164 a 0.418,0.418 0 0 0 -0.418,-0.418 z m -9.418,4 a 1,1 0 0 0 -1,1 1,1 0 0 0 1,1 1,1 0 0 0 1,-1 1,1 0 0 0 -1,-1 z m 3.418,0 A 0.418,0.418 0 0 0 8,19.451 v 2.164 c 0,0.231 0.187,0.418 0.418,0.418 H 8.582 A 0.418,0.418 0 0 0 9,21.615 V 19.451 A 0.418,0.418 0 0 0 8.582,19.033 Z m 4,0 A 0.418,0.418 0 0 0 12,19.451 v 2.164 c 0,0.231 0.187,0.418 0.418,0.418 h 0.164 A 0.418,0.418 0 0 0 13,21.615 v -2.164 a 0.418,0.418 0 0 0 -0.418,-0.418 z"
     id="path2"
     inkscape:connector-curvature="0"
     style="fill:#bde6fb;fill-opacity:1" />
</svg>
