<?xml version="1.0" encoding="UTF-8" standalone="no"?>
<svg
   width="20.023998"
   height="20.023998"
   version="1.1"
   id="svg4"
   sodipodi:docname="weather-clear.svg"
   inkscape:version="0.92.4 (5da689c313, 2019-01-14)"
   xmlns:inkscape="http://www.inkscape.org/namespaces/inkscape"
   xmlns:sodipodi="http://sodipodi.sourceforge.net/DTD/sodipodi-0.dtd"
   xmlns="http://www.w3.org/2000/svg"
   xmlns:svg="http://www.w3.org/2000/svg"
   xmlns:rdf="http://www.w3.org/1999/02/22-rdf-syntax-ns#"
   xmlns:cc="http://creativecommons.org/ns#"
   xmlns:dc="http://purl.org/dc/elements/1.1/">
  <metadata
     id="metadata10">
    <rdf:RDF>
      <cc:Work
         rdf:about="">
        <dc:format>image/svg+xml</dc:format>
        <dc:type
           rdf:resource="http://purl.org/dc/dcmitype/StillImage" />
        <dc:title />
      </cc:Work>
    </rdf:RDF>
  </metadata>
  <defs
     id="defs8" />
  <sodipodi:namedview
     pagecolor="#ffffff"
     bordercolor="#666666"
     borderopacity="1"
     objecttolerance="10"
     gridtolerance="10"
     guidetolerance="10"
     inkscape:pageopacity="0"
     inkscape:pageshadow="2"
     inkscape:window-width="1087"
     inkscape:window-height="480"
     id="namedview6"
     showgrid="false"
     inkscape:zoom="9.8333333"
     inkscape:cx="1.0677966"
     inkscape:cy="12"
     inkscape:window-x="0"
     inkscape:window-y="25"
     inkscape:window-maximized="0"
     inkscape:current-layer="svg4"
     inkscape:showpageshadow="0"
     inkscape:pagecheckerboard="0"
     inkscape:deskcolor="#d1d1d1" />
  <path
     d="M 9.674,-3.528595e-8 C 9.495,-3.528595e-8 9.356,0.16099996 9.356,0.33999996 V 2.33 c 0,0.2 0.139,0.338 0.318,0.338 h 0.676 c 0.179,0 0.318,-0.139 0.318,-0.318 V 0.33999996 C 10.668,0.14099996 10.529,-3.5285949e-8 10.35,-3.5285949e-8 Z M 3.404,2.588 A 0.338,0.338 0 0 0 3.166,2.708 L 2.707,3.166 a 0.338,0.338 0 0 0 0,0.477 l 1.395,1.414 a 0.338,0.338 0 0 0 0.476,0 L 5.057,4.578 a 0.338,0.338 0 0 0 0,-0.457 L 3.662,2.707 A 0.318,0.318 0 0 0 3.405,2.607 V 2.588 Z m 13.215,0 a 0.318,0.318 0 0 0 -0.238,0.12 l -1.414,1.394 a 0.338,0.338 0 0 0 0,0.476 l 0.479,0.479 a 0.338,0.338 0 0 0 0.457,0 l 1.414,-1.395 a 0.338,0.338 0 0 0 0,-0.496 l -0.46,-0.459 a 0.338,0.338 0 0 0 -0.238,-0.1 z m -6.607,1.381 a 6.044,6.044 0 0 0 -6.043,6.043 6.044,6.044 0 0 0 6.043,6.043 6.044,6.044 0 0 0 6.043,-6.043 6.044,6.044 0 0 0 -6.043,-6.043 z m 0,1 a 5.044,5.044 0 0 1 5.043,5.043 5.044,5.044 0 0 1 -5.043,5.043 5.044,5.044 0 0 1 -5.043,-5.043 5.044,5.044 0 0 1 5.043,-5.043 z M 0.33999996,9.356 C 0.14099996,9.356 -3.528595e-8,9.495 -3.528595e-8,9.674 v 0.676 c 0,0.179 0.16099999528595,0.318 0.33999999528595,0.318 H 2.33 c 0.2,0 0.338,-0.139 0.338,-0.318 V 9.674 C 2.668,9.495 2.529,9.356 2.35,9.356 Z M 17.674,9.356 c -0.179,0 -0.318,0.139 -0.318,0.318 v 0.676 c 0,0.179 0.139,0.318 0.318,0.318 h 2.01 c 0.199,0 0.34,-0.139 0.34,-0.318 V 9.674 c 0,-0.179 -0.161,-0.318 -0.34,-0.318 z M 4.34,14.867 a 0.338,0.338 0 0 0 -0.219,0.1 l -1.414,1.395 a 0.338,0.338 0 0 0 0,0.496 l 0.46,0.459 a 0.338,0.338 0 0 0 0.476,0 l 1.414,-1.395 a 0.338,0.338 0 0 0 0,-0.476 L 4.578,14.967 a 0.338,0.338 0 0 0 -0.218,-0.1 z m 11.34,0 a 0.338,0.338 0 0 0 -0.234,0.1 l -0.479,0.479 a 0.338,0.338 0 0 0 0,0.457 l 1.414,1.414 a 0.338,0.338 0 0 0 0.477,0 l 0.459,-0.46 a 0.338,0.338 0 0 0 0,-0.476 l -1.395,-1.414 a 0.338,0.338 0 0 0 -0.238,-0.1 z m -6.006,2.489 c -0.179,0 -0.318,0.139 -0.318,0.318 v 2.01 c 0,0.199 0.139,0.34 0.318,0.34 h 0.676 c 0.179,0 0.318,-0.161 0.318,-0.34 v -1.99 c 0,-0.2 -0.139,-0.338 -0.318,-0.338 z"
     id="path2"
     inkscape:connector-curvature="0"
     style="fill:#bde6fb;fill-opacity:1" />
</svg>
