<?xml version="1.0" encoding="UTF-8" standalone="no"?>
<svg
   width="18"
   height="19.980001"
   version="1.1"
   id="svg4"
   sodipodi:docname="weather-none-available.svg"
   inkscape:version="0.92.4 (5da689c313, 2019-01-14)"
   xmlns:inkscape="http://www.inkscape.org/namespaces/inkscape"
   xmlns:sodipodi="http://sodipodi.sourceforge.net/DTD/sodipodi-0.dtd"
   xmlns="http://www.w3.org/2000/svg"
   xmlns:svg="http://www.w3.org/2000/svg"
   xmlns:rdf="http://www.w3.org/1999/02/22-rdf-syntax-ns#"
   xmlns:cc="http://creativecommons.org/ns#"
   xmlns:dc="http://purl.org/dc/elements/1.1/">
  <metadata
     id="metadata10">
    <rdf:RDF>
      <cc:Work
         rdf:about="">
        <dc:format>image/svg+xml</dc:format>
        <dc:type
           rdf:resource="http://purl.org/dc/dcmitype/StillImage" />
        <dc:title />
      </cc:Work>
    </rdf:RDF>
  </metadata>
  <defs
     id="defs8" />
  <sodipodi:namedview
     pagecolor="#ffffff"
     bordercolor="#666666"
     borderopacity="1"
     objecttolerance="10"
     gridtolerance="10"
     guidetolerance="10"
     inkscape:pageopacity="0"
     inkscape:pageshadow="2"
     inkscape:window-width="1087"
     inkscape:window-height="480"
     id="namedview6"
     showgrid="false"
     inkscape:zoom="9.8333333"
     inkscape:cx="1.0677966"
     inkscape:cy="12"
     inkscape:window-x="0"
     inkscape:window-y="25"
     inkscape:window-maximized="0"
     inkscape:current-layer="svg4"
     inkscape:showpageshadow="0"
     inkscape:pagecheckerboard="0"
     inkscape:deskcolor="#d1d1d1" />
  <path
     d="M 9,1.9073486e-8 A 6,6 0 0 0 3,6 6,6 0 0 0 3.004,6.128 4,4 0 0 0 0,10 4,4 0 0 0 4,14 H 6 V 13 H 4 A 3,3 0 0 1 1,10 3,3 0 0 1 4,7 3,3 0 0 1 4.107,7.005 5,5 0 0 1 4,6 5,5 0 0 1 9,1 5,5 0 0 1 13.92,5.11 4,4 0 0 1 17,9 4,4 0 0 1 13,13 v 1 A 5,5 0 0 0 18,9 5,5 0 0 0 14.758,4.324 6,6 0 0 0 9,1.9073486e-8 Z M 9,8.255 A 3.429,3.429 0 0 0 5.572,11.683 H 7.285 A 1.72,1.72 0 0 1 9,9.968 a 1.714,1.714 0 0 1 1.715,1.715 c 0,0.472 -0.189,0.9 -0.506,1.21 l -1.063,1.08 a 3.454,3.454 0 0 0 -1.003,2.425 v 0.428 h 1.714 c 0,-1.286 0.385,-1.8 1.002,-2.426 l 0.772,-0.787 A 2.73,2.73 0 0 0 12.428,11.683 3.429,3.429 0 0 0 9,8.255 Z M 8.984,17.98 A 0.982,0.982 0 0 0 8,18.964 v 0.032 c 0,0.545 0.439,0.984 0.984,0.984 H 9.016 A 0.982,0.982 0 0 0 10,18.996 V 18.964 A 0.982,0.982 0 0 0 9.016,17.98 Z"
     id="path2"
     inkscape:connector-curvature="0"
     style="fill:#bde6fb;fill-opacity:1" />
</svg>
