<?xml version="1.0" encoding="UTF-8" standalone="no"?>
<svg
   width="45.996109"
   height="43.998062"
   viewBox="0 0 12.169804 11.641154"
   version="1.1"
   id="svg6"
   sodipodi:docname="application-x-deb.svg"
   inkscape:version="0.92.5 (2060ec1f9f, 2020-04-08)"
   xmlns:inkscape="http://www.inkscape.org/namespaces/inkscape"
   xmlns:sodipodi="http://sodipodi.sourceforge.net/DTD/sodipodi-0.dtd"
   xmlns="http://www.w3.org/2000/svg"
   xmlns:svg="http://www.w3.org/2000/svg">
  <sodipodi:namedview
     id="namedview1"
     pagecolor="#505050"
     bordercolor="#eeeeee"
     borderopacity="1"
     inkscape:showpageshadow="0"
     inkscape:pageopacity="0"
     inkscape:pagecheckerboard="0"
     inkscape:deskcolor="#d1d1d1" />
  <defs
     id="defs8">
    <style
       id="current-color-scheme"
       type="text/css">&#10;      .ColorScheme-Highlight {&#10;        color:#1e3f5a;&#10;      }&#10;  </style>
  </defs>
  <path
     class="ColorScheme-Highlight"
     style="fill:#bde6fb;fill-opacity:1;stroke-width:0.264583"
     d="M 1.0578166,0 0,2.64635 H 5.8197998 V 0 Z M 6.3499999,0 V 2.64635 H 12.1698 L 11.111983,0 Z M 0,3.175 V 9.5249999 C 0,10.696999 0.94414989,11.64115 2.1161499,11.64115 H 10.05365 A 2.1119999,2.1119999 0 0 0 12.1698,9.5249999 V 3.175 H 11.377083 V 9.5249999 A 1.3199999,1.3199999 0 0 1 10.05365,10.848433 H 2.1151164 A 1.3199999,1.3199999 0 0 1 0.79168293,9.5249999 V 3.175 Z M 3.9682332,5.0270833 V 6.6626424 C 3.8851567,6.6332861 3.7970258,6.6145833 3.7036499,6.6145833 H 2.6453165 c -0.4397375,0 -0.79375,0.3540124 -0.79375,0.7937499 v 1.0583334 c 0,0.4397375 0.3540125,0.79375 0.79375,0.79375 h 1.0583334 c 0.093376,0 0.1815068,-0.018698 0.2645833,-0.048059 v 0.048059 H 4.4973998 V 8.4666666 7.4083332 5.0270833 Z m 3.7041666,0 v 2.3812499 1.0583334 0.79375 h 0.5291667 v -0.048059 c 0.083077,0.02936 0.1712073,0.048059 0.2645833,0.048059 h 1.0583333 c 0.4397378,0 0.7937499,-0.3540125 0.7937499,-0.79375 V 7.4083332 c 0,-0.4397375 -0.3540121,-0.7937499 -0.7937499,-0.7937499 H 8.4661498 c -0.093376,0 -0.1815063,0.018703 -0.2645833,0.048059 V 5.0270833 Z M 4.7619832,6.0854166 v 1.0583333 0.5291667 0.79375 0.2645833 c 0,0.2931583 0.2360083,0.5291667 0.5291666,0.5291667 h 1.5875 0.5291667 V 8.7312499 h -1.0583333 -0.79375 c -0.1465792,0 -0.2645834,-0.1180042 -0.2645834,-0.2645833 V 8.2020832 h 1.5875 c 0.2931583,0 0.5291667,-0.2360083 0.5291667,-0.5291666 V 7.1437499 c 0,-0.2931583 -0.2360084,-0.5291666 -0.5291667,-0.5291666 h -1.5875 V 6.0854166 Z M 2.9098999,7.1437499 h 0.5291666 c 0.2931584,0 0.5291667,0.2360083 0.5291667,0.5291667 v 0.5291666 c 0,0.2931584 -0.2360083,0.5291667 -0.5291667,0.5291667 H 2.9098999 c -0.2931584,0 -0.5291667,-0.2360083 -0.5291667,-0.5291667 V 7.6729166 c 0,-0.2931584 0.2360083,-0.5291667 0.5291667,-0.5291667 z m 2.6458333,0 h 1.0583333 c 0.1465792,0 0.2645833,0.1180042 0.2645833,0.2645833 0,0.1465792 -0.1180041,0.2645834 -0.2645833,0.2645834 H 5.5557332 c -0.1465792,0 -0.2645834,-0.1180042 -0.2645834,-0.2645834 0,-0.1465791 0.1180042,-0.2645833 0.2645834,-0.2645833 z m 3.1749999,0 h 0.5291667 c 0.2931583,0 0.5291666,0.2360083 0.5291666,0.5291667 v 0.5291666 c 0,0.2931584 -0.2360083,0.5291667 -0.5291666,0.5291667 H 8.7307331 c -0.2931583,0 -0.5291666,-0.2360083 -0.5291666,-0.5291667 V 7.6729166 c 0,-0.2931584 0.2360083,-0.5291667 0.5291666,-0.5291667 z"
     id="path859" />
</svg>
