<?xml version="1.0" encoding="UTF-8" standalone="no"?>
<svg
   width="40"
   height="48"
   version="1.1"
   id="svg6"
   sodipodi:docname="application-dicom.svg"
   inkscape:version="0.92.5 (2060ec1f9f, 2020-04-08)"
   xmlns:inkscape="http://www.inkscape.org/namespaces/inkscape"
   xmlns:sodipodi="http://sodipodi.sourceforge.net/DTD/sodipodi-0.dtd"
   xmlns="http://www.w3.org/2000/svg"
   xmlns:svg="http://www.w3.org/2000/svg">
  <sodipodi:namedview
     id="namedview1"
     pagecolor="#505050"
     bordercolor="#eeeeee"
     borderopacity="1"
     inkscape:showpageshadow="0"
     inkscape:pageopacity="0"
     inkscape:pagecheckerboard="0"
     inkscape:deskcolor="#d1d1d1" />
  <defs
     id="defs8">
    <style
       id="current-color-scheme"
       type="text/css">&#10;      .ColorScheme-Highlight {&#10;        color:#1e3f5a;&#10;      }&#10;  </style>
  </defs>
  <path
     class="ColorScheme-Highlight"
     style="fill:#bde6fb;fill-opacity:1"
     d="M 2,0 C 0.892,0 0,0.892 0,2 v 44 c 0,1.108 0.892,2 2,2 h 36 c 1.108,0 2,-0.892 2,-2 V 13 L 39.416016,12.416016 38,11 37,10 30,3 29,2 27.583984,0.58398438 27.292969,0.29296875 27,0 Z m 2,3 h 22 v 8 c 0,1.108 0.892,2 2,2 h 9 v 31 c 0,0.277 -0.112219,0.526281 -0.292969,0.707031 C 36.526281,44.887781 36.277,45 36,45 H 4 C 3.723,45 3.4737187,44.887781 3.2929688,44.707031 3.1122188,44.526281 3,44.277 3,44 V 4 C 3,3.723 3.1122186,3.4737187 3.2929688,3.2929688 3.4737188,3.1122186 3.723,3 4,3 Z m 14.796875,13.513672 c -0.709758,-0.0084 -1.482641,0.05827 -2.369141,0.267578 a 7.1747866,7.1747866 0 0 0 -1.646484,0.640625 c -2.11625,0 -2.937075,0.924377 -3.242188,1.523437 -0.729293,-0.06698 -1.346457,0.08373 -1.832031,0.451172 A 2.5469423,2.5469423 0 0 0 8.8125,20.828125 3.1571666,3.1571666 0 0 0 7.103516,22.380859 C 6.619801,23.392008 6.803271,24.477594 6.931641,24.96875 6.611646,25.485952 6.508259,25.986062 6.615234,26.451172 a 1.6278849,1.6278849 0 0 0 0.507813,0.849609 2.6688011,2.6688011 0 0 0 0.648437,1.886719 c 1.128357,1.307889 3.374553,1.495253 3.816407,1.517578 0.116278,1.460446 1.222513,2.898841 3.669921,3.259766 l 0.01953,0.002 c 0.02325,0 0.294377,0.02734 0.753906,0.02734 0.415808,0 0.981003,-0.02064 1.658203,-0.101563 1.441841,1.362772 1.890567,3.211632 2.222656,4.578125 0.118138,0.494877 0.223471,0.927492 0.357422,1.255859 a 0.52371384,0.52371384 0 0 0 0.570313,0.31836 l 2.365234,-0.394531 a 0.52371384,0.52371384 0 0 0 0.416016,-0.660157 5.4827165,5.4827165 0 0 1 -0.208985,-1.416015 c 0.153486,0.05023 0.31238,0.09467 0.466797,0.132812 1.255797,0.316275 2.533486,0.250448 3.597656,-0.191406 1.119054,-0.46232 1.873097,-1.278937 2.128907,-2.291016 0.03442,-0.142324 0.06045,-0.284573 0.07813,-0.429687 0.893011,-0.121859 1.964979,-0.654116 2.791015,-2.238281 0,-0.01209 0.0053,-0.02093 0.01172,-0.0293 0.02326,-0.05302 0.550754,-1.261092 0.707031,-2.738282 0.192555,-1.82323 -0.269531,-3.255605 -1.347656,-4.191406 a 2.3515961,2.3515961 0 0 0 -0.763672,-2.574218 c -0.116277,-0.93022 -0.992807,-1.521156 -1.710937,-1.808594 A 3.0994929,3.0994929 0 0 0 28.38477,19.097696 C 27.424783,18.226079 26.049598,18.109415 25.37891,18.109415 H 25.35743 C 24.702551,16.993111 23.2056,16.940727 22.333984,17.103516 a 11.873328,11.873328 0 0 0 -1.537109,-0.416016 16.07141,16.07141 0 0 0 -2,-0.173828 z m -0.09766,0.996094 c 0.651154,-0.02047 1.287282,0.04034 1.898437,0.203125 0.502318,0.102324 1.016561,0.243366 1.525391,0.423828 a 0.52371384,0.52371384 0 0 0 0.294922,0.01758 c 0.01488,-0.0065 1.741657,-0.398993 2.123047,0.667969 a 0.52371384,0.52371384 0 0 0 0.541015,0.34375 c 0.01674,0 1.662041,-0.145887 2.601563,0.708984 a 1.9767174,1.9767174 0 0 1 0.617187,1.175781 c -0.706967,0.03442 -1.805891,0.280124 -2.378906,1.414063 a 0.52371384,0.52371384 0 0 0 0.933594,0.470703 c 0.482784,-0.953476 1.680766,-0.856124 1.898437,-0.830078 0.191626,0.06326 1.33669,0.469467 1.292969,1.169922 a 0.52371384,0.52371384 0 0 0 0.279297,0.501953 c 0.0028,0 0.188589,0.103663 0.347656,0.322265 0.213021,0.291159 0.282378,0.642508 0.207031,1.052735 l -0.03125,0.04687 c -0.813943,0.08837 -2.035592,0.600558 -2.201171,2.109375 a 0.52371384,0.52371384 0 0 0 1.041015,0.113281 c 0.104184,-0.956267 0.927674,-1.143502 1.279297,-1.181641 2.291132,1.679977 0.672358,5.599473 0.564453,5.851563 -0.567435,1.084636 -1.275794,1.637176 -2.166015,1.685547 -0.383252,-0.319065 -1.385022,-1.028667 -3.134766,-1.447266 a 0.52440579,0.52440579 0 0 0 -0.246094,1.019531 c 1.494863,0.357205 2.351602,0.943408 2.666016,1.199219 0,0.142323 -0.02522,0.285133 -0.06055,0.421875 -0.369298,1.47626 -2.370455,2.252137 -4.455078,1.726563 a 5.3636483,5.3636483 0 0 1 -0.994141,-0.353516 0.52371384,0.52371384 0 0 0 -0.746094,0.421875 7.1757168,7.1757168 0 0 0 0.08789,1.945313 L 21.11132,38.941403 A 20.161588,20.161588 0 0 1 20.927734,38.226562 C 20.622622,36.955883 20.180099,35.121446 18.875,33.619141 c 1.087427,-0.265113 2.129016,-0.436835 3.111328,-0.521485 a 0.52371384,0.52371384 0 1 0 -0.08594,-1.041015 22.20249,22.20249 0 0 0 -4.140625,0.769531 11.54403,11.54403 0 0 1 -2.365235,0.09766 c -2.267877,-0.33953 -2.898835,-1.707591 -2.75,-2.777344 A 0.52371384,0.52371384 0 0 0 12.00195,29.568363 l -0.378906,0.08984 C 10.9598,29.628433 9.310582,29.370034 8.566406,28.505859 A 1.7004421,1.7004421 0 0 1 8.1875,27.119141 0.52371384,0.52371384 0 0 0 7.916016,26.591797 c -0.0028,0 -0.229158,-0.137702 -0.28125,-0.373047 -0.06698,-0.282787 0.122645,-0.619007 0.291015,-0.851562 a 0.52371384,0.52371384 0 0 0 0.07031,-0.488282 c -0.0037,-0.01116 -0.390234,-1.124189 0.04883,-2.048828 0.244647,-0.511621 0.716493,-0.888539 1.396484,-1.121094 a 0.5172023,0.5172023 0 0 0 0.34961,-0.451172 c 0.0028,-0.0056 0.06995,-0.671255 0.552734,-1.03125 0.334879,-0.250229 0.812951,-0.312148 1.429688,-0.1875 a 0.52371384,0.52371384 0 0 0 0.621093,-0.43164 c 0,-0.01116 0.231698,-1.100533 2.275391,-1.138672 0.308833,0.42232 0.990415,1.533962 0.484375,2.529297 a 0.52371384,0.52371384 0 0 0 0.929687,0.474609 2.6948472,2.6948472 0 0 0 0.294922,-1.099609 c 0.281857,-0.119068 0.721666,-0.25067 1.074219,-0.146485 0.226044,0.06698 0.401204,0.233306 0.535156,0.50586 a 0.5241947,0.5241947 0 1 0 0.941407,-0.458984 1.9190438,1.9190438 0 0 0 -1.181641,-1.048829 2.5264774,2.5264774 0 0 0 -1.503906,0.07813 4.6650531,4.6650531 0 0 0 -0.53711,-1.167968 c 0.243718,-0.107906 0.57331,-0.232869 0.986328,-0.339844 a 10.483579,10.483579 0 0 1 2.00586,-0.285156 z m 2.59375,1.496093 a 2.7850786,2.7850786 0 0 0 -0.65625,0.08203 0.52371384,0.52371384 0 0 0 0.279297,1.005859 1.6511404,1.6511404 0 0 1 1.126953,0.132812 c 0.296741,0.174881 0.501562,0.493503 0.611328,0.951172 a 0.52371384,0.52371384 0 0 0 0.625,0.390625 0.52371384,0.52371384 0 0 0 0.388672,-0.628906 c -0.173951,-0.744176 -0.542037,-1.283798 -1.091797,-1.609375 a 2.4650829,2.4650829 0 0 0 -1.283203,-0.320312 z m -10.460938,2.964844 a 0.52371384,0.52371384 0 0 0 -0.470703,0.658203 c 0.122789,0.444645 0.115719,0.813376 -0.01172,1.125 l -0.0098,0.01953 a 1.1655656,1.1655656 0 0 1 -0.251953,0.36914 1.6539311,1.6539311 0 0 1 -0.650391,0.402344 0.52371384,0.52371384 0 0 0 0.275391,1.009766 2.7181027,2.7181027 0 0 0 1.195312,-0.75586 c 0.348832,0.258601 0.762572,0.392578 1.210938,0.392578 A 2.3776422,2.3776422 0 0 0 12.5,25.160156 c 0.593481,-0.0986 1.036635,-0.377413 1.085938,-0.40625 A 0.52371384,0.52371384 0 1 0 13.021484,23.875 c -0.0028,0 -0.310668,0.190558 -0.685546,0.251953 a 0.98882383,0.98882383 0 0 1 -0.919922,-0.269531 2.8864726,2.8864726 0 0 0 -0.04492,-1.498047 0.52371384,0.52371384 0 0 0 -0.486328,-0.388672 0.52371384,0.52371384 0 0 0 -0.05274,0 z m 8.427735,1.476563 A 0.52371384,0.52371384 0 0 0 18.738281,24.0625 c 0.0037,0.02884 0.138214,0.748111 0.638672,1.455078 0.119068,0.167439 0.264665,0.347255 0.441406,0.515625 -0.09302,0.537667 -0.915081,0.829427 -0.935547,0.835938 a 0.52371384,0.52371384 0 0 0 0.335938,0.988281 c 0.482784,-0.159998 1.189307,-0.567688 1.5,-1.220703 0.407437,0.186044 0.895453,0.308595 1.482422,0.308593 h 0.115234 a 0.52445855,0.52445855 0 0 0 -0.01367,-1.048828 h -0.01172 c -2.099506,0.05209 -2.508832,-1.934321 -2.529297,-2.027343 a 0.52371384,0.52371384 0 0 0 -0.5,-0.421875 z m 4.427734,0.34375 a 0.52371384,0.52371384 0 0 0 -0.236328,0.974609 c 0.0056,0.0028 0.530819,0.320957 0.875,0.902344 0.435343,0.732083 0.395086,1.560669 -0.123047,2.464843 a 0.5237661,0.5237661 0 1 0 0.908203,0.519532 c 0.906965,-1.586955 0.549281,-2.814696 0.08789,-3.564453 a 3.9069239,3.9069239 0 0 0 -1.216797,-1.22461 0.52371384,0.52371384 0 0 0 -0.244141,-0.07227 0.52371384,0.52371384 0 0 0 -0.002,0 0.52371384,0.52371384 0 0 0 -0.04883,0 z m -8.960938,2.269531 -0.05273,0.002 a 0.52371384,0.52371384 0 0 0 -0.451172,0.583984 c 0.08744,0.718129 -0.474459,1.23666 -0.804687,1.478516 a 3.2557699,3.2557699 0 0 0 -1.820313,-0.244141 0.52371384,0.52371384 0 0 0 0.179688,1.027344 c 0.0093,0 0.891557,-0.145075 1.419922,0.314453 0.302321,0.261392 0.446709,0.697906 0.435546,1.298828 a 0.52371384,0.52371384 0 0 0 1.046876,0.02539 c 0.01488,-0.704177 -0.136573,-1.281916 -0.447266,-1.726563 0.511621,-0.427901 1.164924,-1.199585 1.02539,-2.304687 a 0.52371384,0.52371384 0 0 0 -0.527343,-0.455078 z m 12.517579,2.310547 a 0.52371384,0.52371384 0 0 0 -0.466797,0.763672 2.8343802,2.8343802 0 0 0 1.376953,1.228515 c -0.162789,0.639992 -0.267277,1.76986 0.679687,2.560547 a 0.52092318,0.52092318 0 0 0 0.736328,-0.06445 0.52371384,0.52371384 0 0 0 -0.06641,-0.740234 c -0.576736,-0.482785 -0.413245,-1.273656 -0.298828,-1.63086 0.470691,-0.05767 0.956947,-0.25989 1.445313,-0.615234 a 0.52371384,0.52371384 0 0 0 -0.605469,-0.851563 c -0.50883,0.366506 -0.973238,0.501132 -1.376953,0.40625 -0.611155,-0.139533 -0.961216,-0.767296 -0.966797,-0.78125 a 0.52371384,0.52371384 0 0 0 -0.457031,-0.27539 z m -6.144532,0.554687 a 0.52371384,0.52371384 0 0 0 -0.414062,0.261719 1.8892768,1.8892768 0 0 1 -1.599609,1.017578 2.6836846,2.6836846 0 0 1 -1.023438,-0.154297 0.52374359,0.52374359 0 0 0 -0.398438,0.96875 c 0.0614,0.02419 0.593443,0.230469 1.292969,0.230469 h 0.134766 a 2.9069374,2.9069374 0 0 0 2.494141,-1.539062 0.52371384,0.52371384 0 0 0 -0.433594,-0.785157 0.52371384,0.52371384 0 0 0 -0.002,0 0.52371384,0.52371384 0 0 0 -0.05078,0 z"
     id="path816" />
</svg>
