<?xml version="1.0" encoding="UTF-8" standalone="no"?>
<svg
   width="45.996849"
   height="43.997478"
   viewBox="0 0 12.17 11.641"
   version="1.1"
   id="svg4"
   sodipodi:docname="application-vnd.comicbook+zip.svg"
   inkscape:version="0.92.5 (2060ec1f9f, 2020-04-08)"
   xmlns:inkscape="http://www.inkscape.org/namespaces/inkscape"
   xmlns:sodipodi="http://sodipodi.sourceforge.net/DTD/sodipodi-0.dtd"
   xmlns="http://www.w3.org/2000/svg"
   xmlns:svg="http://www.w3.org/2000/svg">
  <sodipodi:namedview
     id="namedview1"
     pagecolor="#505050"
     bordercolor="#eeeeee"
     borderopacity="1"
     inkscape:showpageshadow="0"
     inkscape:pageopacity="0"
     inkscape:pagecheckerboard="0"
     inkscape:deskcolor="#d1d1d1" />
  <defs
     id="defs8">
    <style
       id="current-color-scheme"
       type="text/css">&#10;      .ColorScheme-Highlight {&#10;        color:#1e3f5a;&#10;      }&#10;  </style>
  </defs>
  <path
     class="ColorScheme-Highlight"
     style="fill:#bde6fb;fill-opacity:1"
     d="M 1.058,3.0040741e-8 1.4305115e-8,2.646 H 5.82 V 3.0040741e-8 Z m 5.292,0 V 2.646 h 5.82 L 11.112,3.0040741e-8 Z M 1.4305115e-8,3.175 v 6.35 C 1.4305115e-8,10.697 0.94400001,11.641 2.116,11.641 h 7.938 A 2.112,2.112 0 0 0 12.17,9.525 v -6.35 h -0.793 v 6.35 a 1.32,1.32 0 0 1 -1.323,1.323 H 2.115 A 1.32,1.32 0 0 1 0.79200001,9.525 V 3.175 Z M 6.217,3.968 c -1.539,0 -2.778,0.886 -2.778,1.985 0,0.246 0.065,0.48 0.179,0.698 0.131,0.315 0.37,0.596 0.686,0.82 0.188,0.131 0.406,0.24 0.642,0.33 -0.1,0.44 -0.207,0.73 -0.567,1.252 L 4.233,9.26 4.467,9.154 c 0.64,-0.288 1.094,-0.619 1.522,-1.135 0.074,0.006 0.148,0.01 0.224,0.01 0.742,0 1.414,-0.213 1.905,-0.56 C 8.388,7.279 8.601,7.044 8.74,6.783 8.903,6.53 8.995,6.25 8.995,5.953 8.995,4.853 7.756,3.968 6.217,3.968 Z"
     id="path2"
     inkscape:connector-curvature="0" />
</svg>
