<?xml version="1.0" encoding="UTF-8" standalone="no"?>
<svg
   width="40"
   height="48"
   version="1.1"
   id="svg6"
   sodipodi:docname="application-wireshark-doc.svg"
   inkscape:version="0.92.5 (2060ec1f9f, 2020-04-08)"
   xmlns:inkscape="http://www.inkscape.org/namespaces/inkscape"
   xmlns:sodipodi="http://sodipodi.sourceforge.net/DTD/sodipodi-0.dtd"
   xmlns="http://www.w3.org/2000/svg"
   xmlns:svg="http://www.w3.org/2000/svg">
  <sodipodi:namedview
     id="namedview1"
     pagecolor="#505050"
     bordercolor="#eeeeee"
     borderopacity="1"
     inkscape:showpageshadow="0"
     inkscape:pageopacity="0"
     inkscape:pagecheckerboard="0"
     inkscape:deskcolor="#d1d1d1" />
  <defs
     id="defs8">
    <style
       id="current-color-scheme"
       type="text/css">&#10;      .ColorScheme-Highlight {&#10;        color:#1e3f5a;&#10;      }&#10;  </style>
  </defs>
  <path
     class="ColorScheme-Highlight"
     style="fill:#bde6fb;fill-opacity:1"
     d="M 2,0 C 0.892,0 0,0.892 0,2 v 44 c 0,1.108 0.892,2 2,2 h 36 c 1.108,0 2,-0.892 2,-2 V 13 L 39.416016,12.416016 38,11 37,10 30,3 29,2 27.583984,0.58398438 27.292969,0.29296875 27,0 Z m 2,3 h 22 v 8 c 0,1.108 0.892,2 2,2 h 9 v 24.921875 h -8.138672 c -0.378,-0.87 -4.837812,-11.037891 0.492188,-19.087891 a 1.058,1.058 0 0 0 0.113281,-0.792968 1.058,1.058 0 0 0 -0.226563,-0.453125 1.058,1.058 0 0 0 -0.832031,-0.339844 19.654,19.654 0 0 0 -17.798828,10.958984 c -2.645,4.914 -3.0245,8.958844 -3.0625,9.714844 H 3 V 4 C 3,3.723 3.1122186,3.4737187 3.2929688,3.2929688 3.4737188,3.1122186 3.723,3 4,3 Z m 22.921875,16.554688 c -4.579,9.25 0.240234,19.839843 0.240234,19.839843 L 27.3125,39.546875 C 27.4645,39.810875 27.766359,39.962 28.068359,40 H 37 v 4 c 0,0.277 -0.112219,0.526281 -0.292969,0.707031 C 36.526281,44.887781 36.277,45 36,45 H 4 C 3.723,45 3.4737187,44.887781 3.2929688,44.707031 3.1122188,44.526281 3,44.277 3,44 v -4 h 5.341797 c 0.302,0 0.566859,-0.149953 0.755859,-0.376953 a 1.058,1.058 0 0 0 0.226563,-0.455078 v -0.113281 c 0,0 0.489656,-4.912172 3.097656,-9.826172 a 17.461,17.461 0 0 1 14.5,-9.673828 z"
     id="path816" />
</svg>
