<?xml version="1.0" encoding="UTF-8" standalone="no"?>
<svg
   width="40"
   height="48"
   version="1.1"
   id="svg6"
   sodipodi:docname="application-x-sln.svg"
   inkscape:version="0.92.5 (2060ec1f9f, 2020-04-08)"
   xmlns:inkscape="http://www.inkscape.org/namespaces/inkscape"
   xmlns:sodipodi="http://sodipodi.sourceforge.net/DTD/sodipodi-0.dtd"
   xmlns="http://www.w3.org/2000/svg"
   xmlns:svg="http://www.w3.org/2000/svg">
  <sodipodi:namedview
     id="namedview1"
     pagecolor="#505050"
     bordercolor="#eeeeee"
     borderopacity="1"
     inkscape:showpageshadow="0"
     inkscape:pageopacity="0"
     inkscape:pagecheckerboard="0"
     inkscape:deskcolor="#d1d1d1" />
  <defs
     id="defs8">
    <style
       id="current-color-scheme"
       type="text/css">&#10;      .ColorScheme-Highlight {&#10;        color:#1e3f5a;&#10;      }&#10;  </style>
  </defs>
  <path
     class="ColorScheme-Highlight"
     style="fill:#bde6fb;fill-opacity:1"
     d="M 2,0 C 0.892,0 0,0.892 0,2 v 44 c 0,1.108 0.892,2 2,2 h 36 c 1.108,0 2,-0.892 2,-2 V 13 L 39.416016,12.416016 38,11 37,10 30,3 29,2 27.583984,0.58398438 27.292969,0.29296875 27,0 Z m 2,3 h 22 v 8 c 0,1.108 0.892,2 2,2 h 9 v 10.476562 c -0.86438,-3.316358 -2.226241,-5.877667 -3.375,-8.628906 l -5.310547,2.1875 c 1.219,2.47 2.818813,4.93425 3.382813,6.15625 1.578,3.423 2.154437,4.9535 2.023437,7.5625 -0.128,2.522 -1.010547,4.0765 -2.560547,5.5625 -1.551,1.487 -3.664562,2.226 -6.226562,1.875 -5.426,-0.743 -7.171782,-4.80425 -7.300782,-6.78125 -0.106999,-1.628 1.045844,-5.6335 5.214844,-5.4375 2.89,0.136 4.512985,1.7505 4.708985,4.4375 0.143,1.98 -1.795641,3.9475 -4.931641,2.9375 -0.505,-0.163 -0.53975,0.7335 0.03125,1.1875 1.47,1.17 7.291484,0.723 7.271484,-3.875 -0.019,-4.26 -3.466875,-7.106 -6.796875,-7.125 -6.973,-0.04 -8.311546,5.40325 -8.060547,9.15625 0.280001,4.16 5.555313,9.1885 11.570313,9.1875 3.855025,0 8.495597,-2.832121 10.359375,-7.482422 V 44 c 0,0.277 -0.112219,0.526281 -0.292969,0.707031 C 36.526281,44.887781 36.277,45 36,45 H 4 C 3.723,45 3.4737187,44.887781 3.2929688,44.707031 3.1122188,44.526281 3,44.277 3,44 V 4 C 3,3.723 3.1122186,3.4737187 3.2929688,3.2929688 3.4737188,3.1122186 3.723,3 4,3 Z"
     id="path816" />
  <path
     d="m 13.318,14.848 c -3.86,0 -8.508,2.839 -10.367,7.5 v 10.875 c 0.864,3.33 2.23,5.897 3.382,8.656 l 5.31,-2.187 C 10.424,37.222 8.825,34.758 8.261,33.536 6.683,30.113 6.107,28.582 6.238,25.973 c 0.128,-2.522 1.01,-4.076 2.56,-5.562 1.551,-1.487 3.665,-2.226 6.227,-1.875 5.426,0.743 7.172,4.803 7.301,6.78 0.107,1.628 -1.046,5.634 -5.215,5.438 -2.89,-0.136 -4.514,-1.75 -4.71,-4.437 -0.143,-1.98 1.795,-3.948 4.931,-2.938 0.505,0.163 0.54,-0.733 -0.031,-1.187 -1.47,-1.17 -7.29,-0.723 -7.27,3.875 0.019,4.26 3.466,7.106 6.796,7.125 6.973,0.04 8.311,-5.403 8.06,-9.156 -0.28,-4.16 -5.554,-9.189 -11.569,-9.188 z"
     id="path35"
     inkscape:connector-curvature="0"
     class="ColorScheme-Highlight"
     style="opacity:0.75;fill:#bde6fb;fill-opacity:1" />
</svg>
