<?xml version="1.0" encoding="UTF-8" standalone="no"?>
<svg
   width="40"
   height="48"
   version="1.1"
   id="svg6"
   sodipodi:docname="application-x-blender.svg"
   inkscape:version="0.92.5 (2060ec1f9f, 2020-04-08)"
   xmlns:inkscape="http://www.inkscape.org/namespaces/inkscape"
   xmlns:sodipodi="http://sodipodi.sourceforge.net/DTD/sodipodi-0.dtd"
   xmlns="http://www.w3.org/2000/svg"
   xmlns:svg="http://www.w3.org/2000/svg">
  <sodipodi:namedview
     id="namedview1"
     pagecolor="#505050"
     bordercolor="#eeeeee"
     borderopacity="1"
     inkscape:showpageshadow="0"
     inkscape:pageopacity="0"
     inkscape:pagecheckerboard="0"
     inkscape:deskcolor="#d1d1d1" />
  <defs
     id="defs8">
    <style
       id="current-color-scheme"
       type="text/css">&#10;      .ColorScheme-Highlight {&#10;        color:#1e3f5a;&#10;      }&#10;  </style>
  </defs>
  <path
     class="ColorScheme-Highlight"
     style="fill:#bde6fb;fill-opacity:1"
     d="M 2,0 C 0.892,0 0,0.892 0,2 v 44 c 0,1.108 0.892,2 2,2 h 36 c 1.108,0 2,-0.892 2,-2 V 13 L 39.416016,12.416016 38,11 37,10 30,3 29,2 27.583984,0.58398438 27.292969,0.29296875 27,0 Z m 2,3 h 22 v 8 c 0,1.108 0.892,2 2,2 h 9 v 31 c 0,0.277 -0.112219,0.526281 -0.292969,0.707031 C 36.526281,44.887781 36.277,45 36,45 H 4 C 3.723,45 3.4737187,44.887781 3.2929688,44.707031 3.1122188,44.526281 3,44.277 3,44 V 4 C 3,3.723 3.1122186,3.4737187 3.2929688,3.2929688 3.4737188,3.1122186 3.723,3 4,3 Z m 15.625,14.001953 a 1.5,1.5 0 0 0 -1.5,1.5 1.5,1.5 0 0 0 0.435547,1.054688 l -0.0039,0.002 L 22,23 H 10.5 A 1.5,1.5 0 0 0 9,24.5 1.5,1.5 0 0 0 10.5,26 H 16 L 9.568359,32.433594 A 1.5,1.5 0 0 0 9,33.611328 a 1.5,1.5 0 0 0 1.5,1.5 1.5,1.5 0 0 0 1.083984,-0.466797 c 0.004,0.003 0.0048,0.0029 0.0098,0.0059 l 3.417969,-3.416016 A 8,8 0 0 0 23,39.001953 a 8,8 0 0 0 8,-8 8,8 0 0 0 -2.996094,-6.240234 l -7.271484,-7.269531 a 1.5,1.5 0 0 1 -0.002,-0.002 A 1.5,1.5 0 0 0 19.625,17.001953 Z m 3.375,9 a 5,5 0 0 1 3.033203,1.033203 l 0.867188,0.867188 0.01172,-0.01172 A 5,5 0 0 1 28,31.001953 a 5,5 0 0 1 -5,5 5,5 0 0 1 -5,-5 5,5 0 0 1 5,-5 z m 0,3 a 2,2 0 0 0 -2,2 2,2 0 0 0 2,2 2,2 0 0 0 2,-2 2,2 0 0 0 -2,-2 z"
     id="path816" />
</svg>
