<?xml version="1.0" encoding="UTF-8" standalone="no"?>
<svg
   width="45.996094"
   height="43.998051"
   viewBox="0 0 12.1698 11.641151"
   version="1.1"
   id="svg4"
   sodipodi:docname="application-vnd.android.package-archive.svg"
   inkscape:version="0.92.5 (2060ec1f9f, 2020-04-08)"
   xmlns:inkscape="http://www.inkscape.org/namespaces/inkscape"
   xmlns:sodipodi="http://sodipodi.sourceforge.net/DTD/sodipodi-0.dtd"
   xmlns="http://www.w3.org/2000/svg"
   xmlns:svg="http://www.w3.org/2000/svg">
  <sodipodi:namedview
     id="namedview1"
     pagecolor="#505050"
     bordercolor="#eeeeee"
     borderopacity="1"
     inkscape:showpageshadow="0"
     inkscape:pageopacity="0"
     inkscape:pagecheckerboard="0"
     inkscape:deskcolor="#d1d1d1" />
  <defs
     id="defs8">
    <style
       id="current-color-scheme"
       type="text/css">&#10;      .ColorScheme-Highlight {&#10;        color:#1e3f5a;&#10;      }&#10;  </style>
  </defs>
  <path
     class="ColorScheme-Highlight"
     style="fill:#bde6fb;fill-opacity:1"
     d="M 1.0578165,0 0,2.64635 H 5.8197998 V 0 Z M 6.3499999,0 V 2.64635 H 12.1698 L 11.111984,0 Z M 0,3.175 v 6.35 c 0,1.172 0.94414991,2.11615 2.1161499,2.11615 H 10.05365 A 2.112,2.112 0 0 0 12.1698,9.525 v -6.35 h -0.792716 v 6.35 A 1.32,1.32 0 0 1 10.05365,10.848433 H 2.1151164 A 1.32,1.32 0 0 1 0.79168291,9.525 v -6.35 z m 6.6926147,0.8366413 a 0.036,0.036 0 0 0 -0.00362,5.167e-4 0.04,0.04 0 0 0 -0.026872,0.020154 L 6.4600708,4.3082641 A 1.455,1.19 0 0 0 5.9531249,4.2333333 1.455,1.19 0 0 0 5.3800335,4.3304851 L 5.1619589,4.0323119 A 0.05,0.05 0 0 0 5.1319866,4.012158 h -0.029972 c -0.02,0.02 -0.02,0.05028 0,0.07028 l 0.1891358,0.28267 A 1.455,1.19 0 0 0 4.5067016,5.2911499 H 7.3969644 A 1.455,1.19 0 0 0 6.5427531,4.3372029 L 6.7318886,4.0824382 c 0.01,-0.02 0.010182,-0.049945 -0.00982,-0.059945 A 0.036,0.036 0 0 0 6.6926147,4.0116413 Z M 5.4125894,4.7624999 a 0.132,0.132 0 0 1 0.011369,0 A 0.132,0.132 0 0 1 5.5557333,4.8953083 0.132,0.132 0 0 1 5.4239584,5.0270833 0.132,0.132 0 0 1 5.29115,4.8953083 0.132,0.132 0 0 1 5.4125894,4.7624999 Z m 1.0588503,0 a 0.132,0.132 0 0 1 0.010335,0 A 0.132,0.132 0 0 1 6.6140665,4.8953083 0.132,0.132 0 0 1 6.4817748,5.0270833 0.132,0.132 0 0 1 6.3499999,4.8953083 0.132,0.132 0 0 1 6.4714397,4.7624999 Z M 3.7036499,5.82135 A 0.264,0.264 0 0 0 3.4390666,6.0854166 v 1.0578166 a 0.265,0.265 0 1 0 0.5296833,0 V 6.08645 a 0.264,0.264 0 0 0 -0.2651,-0.2640666 z m 0.7932332,0 v 2.3796998 h 0.5302002 v 0.7953001 a 0.2645,0.2645 0 1 0 0.5286499,0 V 8.2020832 h 0.7942667 v 0.7942667 a 0.2645,0.2645 0 0 0 0.5286499,0 V 8.2020832 H 7.4078165 V 5.82135 H 4.4979166 Z m 3.7052001,0 a 0.264,0.264 0 0 0 -0.2651,0.2640666 v 1.0578166 a 0.265,0.265 0 1 0 0.5296834,0 V 6.08645 A 0.264,0.264 0 0 0 8.2020832,5.8223834 Z"
     id="path2"
     inkscape:connector-curvature="0" />
</svg>
