<?xml version="1.0" encoding="UTF-8" standalone="no"?>
<svg
   width="40"
   height="48"
   version="1.1"
   id="svg6"
   sodipodi:docname="application-x-clementine.svg"
   inkscape:version="0.92.5 (2060ec1f9f, 2020-04-08)"
   xmlns:inkscape="http://www.inkscape.org/namespaces/inkscape"
   xmlns:sodipodi="http://sodipodi.sourceforge.net/DTD/sodipodi-0.dtd"
   xmlns="http://www.w3.org/2000/svg"
   xmlns:svg="http://www.w3.org/2000/svg">
  <sodipodi:namedview
     id="namedview1"
     pagecolor="#505050"
     bordercolor="#eeeeee"
     borderopacity="1"
     inkscape:showpageshadow="0"
     inkscape:pageopacity="0"
     inkscape:pagecheckerboard="0"
     inkscape:deskcolor="#d1d1d1" />
  <defs
     id="defs8">
    <style
       id="current-color-scheme"
       type="text/css">&#10;      .ColorScheme-Highlight {&#10;        color:#1e3f5a;&#10;      }&#10;  </style>
  </defs>
  <path
     class="ColorScheme-Highlight"
     style="fill:#bde6fb;fill-opacity:1"
     d="M 2,0 C 0.892,0 0,0.892 0,2 v 44 c 0,1.108 0.892,2 2,2 h 36 c 1.108,0 2,-0.892 2,-2 V 13 L 39.416016,12.416016 38,11 37,10 30,3 29,2 27.583984,0.58398438 27.292969,0.29296875 27,0 Z m 2,3 h 22 v 8 c 0,1.108 0.892,2 2,2 h 9 v 31 c 0,0.277 -0.112219,0.526281 -0.292969,0.707031 C 36.526281,44.887781 36.277,45 36,45 H 4 C 3.723,45 3.4737187,44.887781 3.2929688,44.707031 3.1122188,44.526281 3,44.277 3,44 V 4 C 3,3.723 3.1122186,3.4737187 3.2929688,3.2929688 3.4737188,3.1122187 3.723,3 4,3 Z"
     id="path816" />
  <path
     id="c-3"
     d="m 10.34388,24.00062 c -1.2286,0.99309 -2.1826,2.2756 -2.75,3.7499 -1.7811,4.6279 0.55969,9.875 5.1876,11.656 4.6279,1.7811 9.875,-0.55969 11.656,-5.1876 l -2.0313,-0.78124 -6.4061,-2.4375 4.2861,4.4664 c -0.41382,0.33431 -1.492,0.97672 -1.9751,1.1913 l -2.3109,-5.6578 -0.30932,6.0631 c -0.51079,-0.05513 -1.5976,-0.33967 -2.0994,-0.53282 l 2.4088,-5.5302 -4.7192,3.6864 c -0.33235,-0.41238 -0.66199,-0.98905 -0.87564,-1.47 l 5.5947,-2.2165 -6,-0.65626 c 0.05512,-0.51079 0.2134,-1.4081 0.40658,-1.9101 L 16,31 12.2187,26.2812 11.71869,25.68744 Z"
     style="fill:#ff6600"
     inkscape:connector-curvature="0" />
</svg>
