<?xml version="1.0" encoding="UTF-8" standalone="no"?>
<svg
   width="45.996109"
   height="43.998062"
   viewBox="0 0 12.169804 11.641154"
   version="1.1"
   id="svg6"
   sodipodi:docname="application-x-rpm.svg"
   inkscape:version="0.92.5 (2060ec1f9f, 2020-04-08)"
   xmlns:inkscape="http://www.inkscape.org/namespaces/inkscape"
   xmlns:sodipodi="http://sodipodi.sourceforge.net/DTD/sodipodi-0.dtd"
   xmlns="http://www.w3.org/2000/svg"
   xmlns:svg="http://www.w3.org/2000/svg">
  <sodipodi:namedview
     id="namedview1"
     pagecolor="#505050"
     bordercolor="#eeeeee"
     borderopacity="1"
     inkscape:showpageshadow="0"
     inkscape:pageopacity="0"
     inkscape:pagecheckerboard="0"
     inkscape:deskcolor="#d1d1d1" />
  <defs
     id="defs8">
    <style
       id="current-color-scheme"
       type="text/css">&#10;      .ColorScheme-Highlight {&#10;        color:#1e3f5a;&#10;      }&#10;  </style>
  </defs>
  <path
     class="ColorScheme-Highlight"
     style="fill:#bde6fb;fill-opacity:1;stroke-width:0.264583"
     d="M 1.0578166,0 0,2.64635 H 5.8197998 V 0 Z M 6.3499999,0 V 2.64635 H 12.1698 L 11.111983,0 Z M 0,3.175 V 9.5249999 C 0,10.697 0.94414995,11.64115 2.1161499,11.64115 H 10.05365 A 2.1119999,2.1119999 0 0 0 12.1698,9.5249999 V 3.175 H 11.377083 V 9.5249999 A 1.3199999,1.3199999 0 0 1 10.05365,10.848433 H 2.1151164 A 1.3199999,1.3199999 0 0 1 0.79168293,9.5249999 V 3.175 Z M 1.3223999,6.0854166 V 7.4083332 7.9374999 9.2604166 H 1.8515665 V 7.9374999 7.6729166 c 0,-0.2931584 0.2360084,-0.5291667 0.5291667,-0.5291667 h 0.5291667 c 0.2931583,0 0.5291666,0.2360083 0.5291666,0.5291667 H 3.9682332 V 7.4083332 c 0,-0.4397375 -0.3540125,-0.7937499 -0.79375,-0.7937499 H 2.1161499 c -0.093376,0 -0.1815068,0.018703 -0.2645834,0.048059 V 6.0854166 Z m 2.9104166,0 v 1.0583333 0.79375 1.3229167 h 0.5291667 v -0.79375 h 1.5875 c 0.2931583,0 0.5291666,-0.2360084 0.5291666,-0.5291667 v -0.79375 c 0,-0.2931583 -0.2360083,-0.5291666 -0.5291666,-0.5291666 h -1.5875 V 6.0854166 Z m 2.9104166,0 v 1.0583333 1.5875 0.5291667 H 7.6723998 V 7.4083332 c 0,-0.07329 0.029691,-0.1392451 0.077515,-0.1870686 0.047823,-0.047823 0.1137791,-0.077515 0.1870686,-0.077515 h 0.5291667 c 0.07329,0 0.1392452,0.029691 0.1870686,0.077515 0.047823,0.047824 0.077515,0.1137791 0.077515,0.1870686 V 9.2604166 H 9.2598998 V 7.9374999 7.4083332 c 0,-0.07329 0.029691,-0.1392451 0.077515,-0.1870686 0.047823,-0.047823 0.113779,-0.077515 0.1870686,-0.077515 H 10.05365 c 0.07329,0 0.139245,0.029691 0.187068,0.077515 0.04782,0.047824 0.07752,0.1137791 0.07752,0.1870686 V 9.2604166 H 10.8474 v -0.5291667 -1.5875 c 0,-0.2931583 -0.236009,-0.5291666 -0.529167,-0.5291666 H 9.2598998 c -0.097084,0 -0.186531,0.027594 -0.2645833,0.072864 -0.078052,-0.04527 -0.1674998,-0.072864 -0.2645834,-0.072864 H 7.6723998 V 6.0854166 Z M 5.0265665,7.1437499 h 1.0583333 c 0.1465792,0 0.2645834,0.1180042 0.2645834,0.2645833 v 0.2645834 c 0,0.1465791 -0.1180042,0.2645833 -0.2645834,0.2645833 H 5.0265665 c -0.1465792,0 -0.2645833,-0.1180042 -0.2645833,-0.2645833 V 7.4083332 c 0,-0.1465791 0.1180041,-0.2645833 0.2645833,-0.2645833 z"
     id="path835" />
</svg>
