<?xml version="1.0" encoding="UTF-8" standalone="no"?>
<svg
   width="40"
   height="48"
   version="1.1"
   id="svg6"
   sodipodi:docname="application-xmind.svg"
   inkscape:version="0.92.5 (2060ec1f9f, 2020-04-08)"
   xmlns:inkscape="http://www.inkscape.org/namespaces/inkscape"
   xmlns:sodipodi="http://sodipodi.sourceforge.net/DTD/sodipodi-0.dtd"
   xmlns="http://www.w3.org/2000/svg"
   xmlns:svg="http://www.w3.org/2000/svg">
  <sodipodi:namedview
     id="namedview1"
     pagecolor="#505050"
     bordercolor="#eeeeee"
     borderopacity="1"
     inkscape:showpageshadow="0"
     inkscape:pageopacity="0"
     inkscape:pagecheckerboard="0"
     inkscape:deskcolor="#d1d1d1" />
  <defs
     id="defs8">
    <style
       id="current-color-scheme"
       type="text/css">&#10;      .ColorScheme-Highlight {&#10;        color:#1e3f5a;&#10;      }&#10;  </style>
  </defs>
  <path
     class="ColorScheme-Highlight"
     style="fill:#bde6fb;fill-opacity:1"
     d="M 2,0 C 0.892,0 0,0.892 0,2 v 44 c 0,1.108 0.892,2 2,2 h 36 c 1.108,0 2,-0.892 2,-2 V 13 L 39.416016,12.416016 38,11 37,10 30,3 29,2 27.583984,0.58398438 27.292969,0.29296875 27,0 Z m 2,3 h 22 v 8 c 0,1.108 0.892,2 2,2 h 9 v 31 c 0,0.277 -0.112219,0.526281 -0.292969,0.707031 C 36.526281,44.887781 36.277,45 36,45 H 4 C 3.723,45 3.4737187,44.887781 3.2929688,44.707031 3.1122188,44.526281 3,44.277 3,44 V 4 C 3,3.723 3.1122186,3.4737187 3.2929688,3.2929688 3.4737188,3.1122186 3.723,3 4,3 Z m 10,18 c -0.066,0.001 -0.139129,0.0061 -0.224609,0.01172 -0.32397,0.02068 -6.439045,1.166382 -6.828125,1.279297 -0.41135,0.119308 -0.761947,0.370247 -0.847657,0.609375 -0.1461505,0.406374 0.276798,1.728473 0.835938,2.615234 2.230624,2.648874 4.707658,3.320691 7.134765,4.748047 0.27856,0.326543 0.388744,0.485543 -1.748046,1.43164 -3.33963,1.478789 -4.420927,2.734965 -5.060547,4.595704 -0.18889,0.549824 -0.275758,2.005219 -0.142578,2.371093 0.17285,0.474275 0.277156,0.569125 3.503906,-0.04297 3.24141,-0.614905 2.971867,-0.650147 3.242187,-0.90625 0.22018,-0.208603 0.233918,-0.259121 0.330078,-1.246094 0.0554,-0.565567 0.169967,-1.67033 0.253907,-1.962891 0.19462,-0.679411 0.683687,-1.388427 1.216797,-1.763672 2.021821,-1.422952 5.827478,-0.714772 7.886718,1.46875 0.77593,0.822735 1.263494,1.997435 1.652344,3.273438 0.22437,0.736239 0.450848,1.056565 0.804688,1.126953 0.32551,0.06466 0.334654,-0.0372 4.458984,-0.820313 2.2942,-0.435612 3.247833,-0.646915 3.382812,-0.751953 0.29,-0.225872 0.291094,-0.780053 0.002,-1.693359 -0.49578,-1.569264 -1.356009,-2.611395 -2.949219,-3.818359 -0.78818,-0.597093 -1.781687,-1.161851 -3.466797,-1.96875 -1.60279,-0.767486 -2.367188,-0.974547 -2.367188,-1.212891 0,-0.197081 0.629011,-0.285612 1.900391,-0.666016 2.78583,-0.833704 4.128906,-2.002487 4.128906,-4.167968 0,-0.950306 -0.180084,-1.717975 -0.458984,-1.966797 -0.37091,-0.330941 -1.020695,-0.340263 -2.578125,-0.05859 -4.99234,0.902744 -4.648619,0.866359 -4.880859,1.242187 -0.12287,0.198752 -0.118469,0.245129 0.107421,1.148438 0.12936,0.517868 0.233192,1.166114 0.232422,1.316406 -0.002,0.319649 -0.41602,0.854516 -0.61914,1.044922 -0.49701,0.465626 -1.625287,0.78125 -2.779297,0.78125 -1.39578,0 -2.445635,-0.479374 -3.490235,-1.591797 -0.754867,-0.80381 -1.140112,-1.582428 -1.654342,-3.013675 C 14.526946,21.155066 14.46409,20.991935 14,21 Z"
     id="path816" />
</svg>
