<?xml version="1.0" encoding="UTF-8" standalone="no"?>
<svg
   width="40"
   height="48"
   version="1.1"
   id="svg6"
   sodipodi:docname="application-x-gnome-saved-search.svg"
   inkscape:version="0.92.5 (2060ec1f9f, 2020-04-08)"
   xmlns:inkscape="http://www.inkscape.org/namespaces/inkscape"
   xmlns:sodipodi="http://sodipodi.sourceforge.net/DTD/sodipodi-0.dtd"
   xmlns="http://www.w3.org/2000/svg"
   xmlns:svg="http://www.w3.org/2000/svg">
  <sodipodi:namedview
     id="namedview1"
     pagecolor="#505050"
     bordercolor="#eeeeee"
     borderopacity="1"
     inkscape:showpageshadow="0"
     inkscape:pageopacity="0"
     inkscape:pagecheckerboard="0"
     inkscape:deskcolor="#d1d1d1" />
  <defs
     id="defs8">
    <style
       id="current-color-scheme"
       type="text/css">&#10;      .ColorScheme-Highlight {&#10;        color:#1e3f5a;&#10;      }&#10;  </style>
  </defs>
  <path
     class="ColorScheme-Highlight"
     style="fill:#bde6fb;fill-opacity:1"
     d="M 2,0 C 0.892,0 0,0.892 0,2 v 44 c 0,1.108 0.892,2 2,2 h 36 c 1.108,0 2,-0.892 2,-2 V 13 L 39.416016,12.416016 38,11 37,10 30,3 29,2 27.583984,0.58398438 27.292969,0.29296875 27,0 Z m 2,3 h 22 v 8 c 0,1.108 0.892,2 2,2 h 9 v 31 c 0,0.277 -0.112219,0.526281 -0.292969,0.707031 C 36.526281,44.887781 36.277,45 36,45 H 4 C 3.723,45 3.4737187,44.887781 3.2929688,44.707031 3.1122188,44.526281 3,44.277 3,44 V 4 C 3,3.723 3.1122186,3.4737187 3.2929688,3.2929688 3.4737188,3.1122186 3.723,3 4,3 Z m 12.597656,10.757812 a 11,11 0 0 0 -7.61914,3.220704 11,11 0 0 0 0,15.55664 11,11 0 0 0 14.009765,1.28125 l 1.546875,1.546875 5.658203,5.658203 c 0.783475,0.783475 2.044651,0.783475 2.828125,0 0.783475,-0.783474 0.783475,-2.04465 0,-2.828125 L 26.65625,31.828125 25.814453,30.986328 a 11,11 0 0 0 -1.279297,-14.007812 11,11 0 0 0 -7.9375,-3.220704 z m 0.291016,2 a 8.9999991,8.9999991 0 0 1 6.232422,2.634766 8.9999991,8.9999991 0 0 1 0,12.728516 8.9999991,8.9999991 0 0 1 -12.728516,0 8.9999991,8.9999991 0 0 1 0,-12.728516 8.9999991,8.9999991 0 0 1 6.496094,-2.634766 z"
     id="path816" />
</svg>
