<?xml version="1.0" encoding="UTF-8" standalone="no"?>
<svg
   width="40"
   height="48"
   version="1.1"
   id="svg6"
   sodipodi:docname="audio-x-mp3-playlist.svg"
   inkscape:version="0.92.5 (2060ec1f9f, 2020-04-08)"
   xmlns:inkscape="http://www.inkscape.org/namespaces/inkscape"
   xmlns:sodipodi="http://sodipodi.sourceforge.net/DTD/sodipodi-0.dtd"
   xmlns="http://www.w3.org/2000/svg"
   xmlns:svg="http://www.w3.org/2000/svg">
  <sodipodi:namedview
     id="namedview1"
     pagecolor="#505050"
     bordercolor="#eeeeee"
     borderopacity="1"
     inkscape:showpageshadow="0"
     inkscape:pageopacity="0"
     inkscape:pagecheckerboard="0"
     inkscape:deskcolor="#d1d1d1" />
  <defs
     id="defs8">
    <style
       id="current-color-scheme"
       type="text/css">&#10;      .ColorScheme-Highlight {&#10;        color:#1e3f5a;&#10;      }&#10;  </style>
  </defs>
  <path
     class="ColorScheme-Highlight"
     style="fill:#bde6fb;fill-opacity:1"
     d="M 2,0 C 0.892,0 0,0.892 0,2 v 44 c 0,1.108 0.892,2 2,2 h 36 c 1.108,0 2,-0.892 2,-2 V 13 L 39.416016,12.416016 38,11 37,10 30,3 29,2 27.583984,0.58398438 27.292969,0.29296875 27,0 Z m 4,3 h 20 v 8 c 0,1.108 0.892,2 2,2 h 9 v 31 c 0,0.277 -0.112219,0.526281 -0.292969,0.707031 C 36.526281,44.887781 36.277,45 36,45 H 6 Z m 8,13 v 5 10.341797 A 3.5,3.5 0 0 0 12.5,31 3.5,3.5 0 0 0 9,34.5 3.5,3.5 0 0 0 12.5,38 3.5,3.5 0 0 0 16,34.5 3.5,3.5 0 0 0 15.960938,34 H 16 V 21 h 7 V 36.341797 A 3.5,3.5 0 0 0 21.5,36 3.5,3.5 0 0 0 18,39.5 3.5,3.5 0 0 0 21.5,43 3.5,3.5 0 0 0 25,39.5 3.5,3.5 0 0 0 24.960938,39 H 25 V 21 h 2 5 v 4.341797 A 3.5,3.5 0 0 0 30.5,25 3.5,3.5 0 0 0 27,28.5 3.5,3.5 0 0 0 30.5,32 3.5,3.5 0 0 0 34,28.5 3.5,3.5 0 0 0 33.960938,28 H 34 v -7 -2 -3 h -7 z"
     id="path816" />
</svg>
