<?xml version="1.0" encoding="UTF-8" standalone="no"?>
<svg
   width="40"
   height="48"
   version="1.1"
   id="svg6"
   sodipodi:docname="cockos-reaper-document.svg"
   inkscape:version="0.92.5 (2060ec1f9f, 2020-04-08)"
   xmlns:inkscape="http://www.inkscape.org/namespaces/inkscape"
   xmlns:sodipodi="http://sodipodi.sourceforge.net/DTD/sodipodi-0.dtd"
   xmlns="http://www.w3.org/2000/svg"
   xmlns:svg="http://www.w3.org/2000/svg">
  <sodipodi:namedview
     id="namedview1"
     pagecolor="#505050"
     bordercolor="#eeeeee"
     borderopacity="1"
     inkscape:showpageshadow="0"
     inkscape:pageopacity="0"
     inkscape:pagecheckerboard="0"
     inkscape:deskcolor="#d1d1d1" />
  <defs
     id="defs8">
    <style
       id="current-color-scheme"
       type="text/css">&#10;      .ColorScheme-Highlight {&#10;        color:#1e3f5a;&#10;      }&#10;  </style>
  </defs>
  <path
     class="ColorScheme-Highlight"
     style="fill:#bde6fb;fill-opacity:1"
     d="M 2,0 C 0.892,0 0,0.892 0,2 v 44 c 0,1.108 0.892,2 2,2 h 36 c 1.108,0 2,-0.892 2,-2 V 13 L 39.416016,12.416016 38,11 37,10 30,3 29,2 27.583984,0.58398438 27.292969,0.29296875 27,0 Z m 2,3 h 22 v 8 c 0,1.108 0.892,2 2,2 h 9 v 31 c 0,0.277 -0.112219,0.526281 -0.292969,0.707031 C 36.526281,44.887781 36.277,45 36,45 H 4 C 3.723,45 3.4737187,44.887781 3.2929688,44.707031 3.1122188,44.526281 3,44.277 3,44 V 4 C 3,3.723 3.1122186,3.4737187 3.2929688,3.2929688 3.4737188,3.1122186 3.723,3 4,3 Z m 12.353516,11.033203 c -2.7674,0.02192 -5.547728,0.512356 -7.986328,1.447266 L 7,16 8.203125,18.277344 c 0.81298,1.5934 2.309894,3.446222 4.683594,5.982422 3.6743,3.837 5.072512,6.146937 5.820312,9.398437 0.52029,2.2436 0.455114,6.828441 -0.09766,8.681641 -0.68277,2.2111 -0.130374,1.6254 0.910156,-0.94336 1.0731,-2.6339 1.4628,-7.28459 0.8125,-10.27539 -0.55272,-2.7314 -2.308743,-5.918388 -4.714843,-8.617188 -1.170601,-1.3007 -2.341363,-2.796106 -2.601563,-3.316406 -0.45522,-0.87795 -0.453854,-0.974878 0.06641,-1.267578 1.7235,-0.9104 4.681681,-1.464844 7.738281,-1.464844 3.967,0.03245 7.218794,0.976911 10.308594,3.025391 1.1055,0.74788 1.756138,1.0718 1.398438,0.68164 -0.97549,-1.073 -4.683978,-3.413718 -6.830078,-4.324218 -1.0726,-0.45504 -3.087425,-1.039332 -4.453125,-1.332032 h -0.002 c -1.5724,-0.32894 -3.228872,-0.485796 -4.888672,-0.472656 z"
     id="path816" />
</svg>
