<?xml version="1.0" encoding="UTF-8" standalone="no"?>
<svg
   width="140.04883"
   height="48.084621"
   version="1.1"
   id="svg6"
   sodipodi:docname="cockos-reaper-peak.svg"
   inkscape:version="0.92.5 (2060ec1f9f, 2020-04-08)"
   xmlns:inkscape="http://www.inkscape.org/namespaces/inkscape"
   xmlns:sodipodi="http://sodipodi.sourceforge.net/DTD/sodipodi-0.dtd"
   xmlns="http://www.w3.org/2000/svg"
   xmlns:svg="http://www.w3.org/2000/svg">
  <sodipodi:namedview
     id="namedview1"
     pagecolor="#505050"
     bordercolor="#eeeeee"
     borderopacity="1"
     inkscape:showpageshadow="0"
     inkscape:pageopacity="0"
     inkscape:pagecheckerboard="0"
     inkscape:deskcolor="#d1d1d1" />
  <defs
     id="defs8">
    <style
       id="current-color-scheme"
       type="text/css">&#10;      .ColorScheme-Highlight {&#10;        color:#1e3f5a;&#10;      }&#10;  </style>
  </defs>
  <path
     class="ColorScheme-Highlight"
     style="fill:#bde6fb;fill-opacity:1"
     d="M 125.70508,6.3632929e-4 C 123.65808,0.00863633 121.5835,0.08829257 121.1875,0.09829258 H 103 a 2.938,2.938 0 0 0 -0.5625,0 C 101.0645,0.36029258 99.975,1.6963395 100,3.0963395 V 45.084621 c 0,1.57 1.43,3 3,3 h 34 c 1.57,0 3,-1.43 3,-3 V 18.90298 c 0.018,-0.792 0.21506,-9.9271937 -0.33594,-10.4960937 l -9.60937,-8.07421872 c -0.281,-0.27500001 -2.30261,-0.34003125 -4.34961,-0.33203125071 z M 2,0.0846207 c -1.108,0 -2,0.892 -2,2 V 46.084621 c 0,1.108 0.892,2 2,2 h 36 c 1.108,0 2,-0.892 2,-2 v -33 L 39.416016,12.500637 38,11.084621 l -1,-1 -7,-7.0000003 -1,-1 L 27.583984,0.66860508 27.292969,0.37758945 27,0.0846207 Z m 2,3 h 22 v 8.0000003 c 0,1.108 0.892,2 2,2 h 9 v 15 H 23.238281 l -2.572265,-6 h -1 L 15.238281,32.713527 10.666016,18.084621 h -1 L 7,26.084621 H 3 V 4.0846207 C 3,3.8076207 3.1122186,3.5583394 3.2929688,3.3775895 3.4737188,3.1968392 3.723,3.0846207 4,3.0846207 Z m 123.19531,0.00781 v 0.00195 l 0.13281,7.5039063 c 0.012,0.68 0.63742,1.290297 1.31641,1.279297 l 7.77149,-0.136719 c 0.133,0.018 0.26839,0.01818 0.40039,-0.0059 l 0.082,3.029297 0.10159,4.08989 v 7.013672 h -17.90039 l -0.85352,-3.107422 c -0.0661,-0.23345 -0.72132,-0.23345 -0.78711,0 l -1.29101,6.146485 -1.50781,-13.1875 v -0.02149 c -0.0824,-0.23254 -0.74427,-0.215315 -0.78907,0.02149 v 0.02148 7.484375 l -0.13086,-0.460937 c -0.0748,-0.23268 -0.70963,-0.211393 -0.76562,0.02344 v 0.06445 l -0.63477,5.009766 -1.29101,-6.191406 v -0.04297 c -0.0104,-0.13524 -0.20364,-0.246955 -0.41406,-0.240235 -0.21035,0.007 -0.38376,0.126479 -0.37305,0.261719 l -0.45899,7.392578 -0.54687,-12.515625 v -0.04492 c -0.0449,-0.23681 -0.70451,-0.254054 -0.78711,-0.02148 v 0.04297 l -1.33398,6.279297 -0.57032,-2.31836 c -0.0158,-0.13517 -0.22722,-0.250314 -0.4375,-0.240234 -0.21027,0.01017 -0.38692,0.148043 -0.37109,0.283203 l -0.32813,6.5625 -0.61328,-13.105469 -0.91797,0.0039 L 103,26.588527 V 3.1041519 h 18.67188 z m -22.90429,16.3886713 0.7207,15.921875 v 0.02344 c 6e-5,0.13517 0.18425,0.240234 0.39453,0.240234 0.21027,0 0.41595,-0.105004 0.41602,-0.240234 v -0.02344 l 0.58984,-12.25 0.37305,1.400391 c 0.066,0.23345 0.72131,0.23345 0.78711,0 l 1.02734,-4.964844 0.76562,16.97461 c 0.066,0.23345 0.72327,0.23345 0.78907,0 l 0.7207,-11.939454 1.16016,5.621094 v 0.04297 c 0.0748,0.23268 0.73111,0.23485 0.78711,0 v -0.06445 l 0.65625,-5.359375 0.39257,1.421875 c 0.0936,0.31885 0.77157,0.262364 0.78907,-0.06641 v -0.04297 -3.566406 l 1.00586,8.75 v 0.06641 c -0.0104,0.13517 0.16088,0.254929 0.37109,0.261719 0.21021,0.007 0.40537,-0.105065 0.41601,-0.240235 l 1.44336,-6.933593 0.45899,1.771484 c 0.0346,0.15379 0.21491,0.279703 0.39453,0.283203 H 137 v 18.513672 h -34 v -6.876953 z m -94.140629,0.152347 4.515625,14.451172 h 1 l 4.507812,-10.816406 2.492188,5.816406 h 1 H 37 v 15 c 0,0.277 -0.112219,0.526281 -0.292969,0.707031 C 36.526281,44.972402 36.277,45.084621 36,45.084621 H 4 c -0.277,0 -0.5262813,-0.112219 -0.7070312,-0.292969 C 3.1122188,44.610902 3,44.361621 3,44.084621 v -17 h 4.666016 z"
     id="path816" />
</svg>
