<?xml version="1.0" encoding="UTF-8" standalone="no"?>
<svg
   width="40"
   height="40"
   viewBox="0 0 10.583333 10.583333"
   version="1.1"
   id="svg4"
   sodipodi:docname="extension.svg"
   inkscape:version="0.92.5 (2060ec1f9f, 2020-04-08)"
   xmlns:inkscape="http://www.inkscape.org/namespaces/inkscape"
   xmlns:sodipodi="http://sodipodi.sourceforge.net/DTD/sodipodi-0.dtd"
   xmlns="http://www.w3.org/2000/svg"
   xmlns:svg="http://www.w3.org/2000/svg">
  <sodipodi:namedview
     id="namedview1"
     pagecolor="#505050"
     bordercolor="#eeeeee"
     borderopacity="1"
     inkscape:showpageshadow="0"
     inkscape:pageopacity="0"
     inkscape:pagecheckerboard="0"
     inkscape:deskcolor="#d1d1d1" />
  <defs
     id="defs8">
    <style
       id="current-color-scheme"
       type="text/css">&#10;      .ColorScheme-Highlight {&#10;        color:#1e3f5a;&#10;      }&#10;  </style>
  </defs>
  <path
     class="ColorScheme-Highlight"
     style="fill:#bde6fb;fill-opacity:1;stroke-width:0.264583"
     d="m 3.9687499,0 a 1.5874999,1.5874999 0 0 0 -1.5875,1.5875 1.5874999,1.5874999 0 0 0 0.4066934,1.0583333 H 1.0583332 1.0459309 C 0.4663535,2.6458333 -9.6139526e-8,3.1121868 -9.6139526e-8,3.6917643 V 3.7041663 5.697843 6.0880002 A 1.3229166,1.3229166 0 0 1 0.02222067,6.0569945 1.3229166,1.3229166 0 0 1 0.10955383,5.957259 1.3229166,1.3229166 0 0 1 0.20618877,5.867342 1.3229166,1.3229166 0 0 1 0.31160869,5.7872436 1.3229166,1.3229166 0 0 1 0.4242633,5.7179971 1.3229166,1.3229166 0 0 1 0.5431191,5.6606363 1.3229166,1.3229166 0 0 1 0.66714254,5.615161 1.3229166,1.3229166 0 0 1 0.79530009,5.5826048 1.3229166,1.3229166 0 0 1 0.92604156,5.562968 1.3229166,1.3229166 0 0 1 1.0583332,5.556248 a 1.3229166,1.3229166 0 0 1 0.093534,0.0031 1.3229166,1.3229166 0 0 1 0.1312581,0.016021 1.3229166,1.3229166 0 0 1 0.1291912,0.028939 1.3229166,1.3229166 0 0 1 0.1255736,0.041858 1.3229166,1.3229166 0 0 1 0.1204061,0.05426 1.3229166,1.3229166 0 0 1 0.1147217,0.065629 1.3229166,1.3229166 0 0 1 0.107487,0.076998 1.3229166,1.3229166 0 0 1 0.099735,0.087333 1.3229166,1.3229166 0 0 1 0.089917,0.096635 1.3229166,1.3229166 0 0 1 0.080098,0.1054198 1.3229166,1.3229166 0 0 1 0.069247,0.1126548 1.3229166,1.3229166 0 0 1 0.057361,0.1188556 1.3229166,1.3229166 0 0 1 0.045475,0.1240235 1.3229166,1.3229166 0 0 1 0.032556,0.1281575 1.3229166,1.3229166 0 0 1 0.019637,0.1307404 1.3229166,1.3229166 0 0 1 0.00672,0.1322917 1.3229166,1.3229166 0 0 1 -0.0031,0.093534 1.3229166,1.3229166 0 0 1 -0.016021,0.131258 1.3229166,1.3229166 0 0 1 -0.028939,0.1291912 1.3229166,1.3229166 0 0 1 -0.041858,0.1255737 1.3229166,1.3229166 0 0 1 -0.05426,0.120406 1.3229166,1.3229166 0 0 1 -0.065629,0.1147218 1.3229166,1.3229166 0 0 1 -0.076998,0.1074869 1.3229166,1.3229166 0 0 1 -0.087333,0.099736 1.3229166,1.3229166 0 0 1 -0.096635,0.089917 1.3229166,1.3229166 0 0 1 -0.1054198,0.080098 1.3229166,1.3229166 0 0 1 -0.1126548,0.069247 1.3229166,1.3229166 0 0 1 -0.1188556,0.057361 1.3229166,1.3229166 0 0 1 -0.1240234,0.045475 1.3229166,1.3229166 0 0 1 -0.1281566,0.032556 1.3229166,1.3229166 0 0 1 -0.1307414,0.019637 1.3229166,1.3229166 0 0 1 -0.1322917,0.00672 1.3229166,1.3229166 0 0 1 -0.0935343,-0.0031 A 1.3229166,1.3229166 0 0 1 0.83354074,8.1829629 1.3229166,1.3229166 0 0 1 0.70434967,8.1540241 1.3229166,1.3229166 0 0 1 0.57877594,8.1121662 1.3229166,1.3229166 0 0 1 0.45836986,8.057906 1.3229166,1.3229166 0 0 1 0.34364817,7.9922769 1.3229166,1.3229166 0 0 1 0.23616119,7.9152791 1.3229166,1.3229166 0 0 1 0.13642568,7.827946 1.3229166,1.3229166 0 0 1 0.04650868,7.7313109 1.3229166,1.3229166 0 0 1 -9.6139526e-8,7.6703327 v 0.3896404 1.4650268 0.012402 C -9.6139526e-8,10.11698 0.4663535,10.583333 1.0459309,10.583333 h 0.012402 1.7290934 0.3901572 a 1.3229166,1.3229166 0 0 1 -0.031006,-0.02222 1.3229166,1.3229166 0 0 1 -0.099736,-0.08733 1.3229166,1.3229166 0 0 1 -0.089917,-0.09664 1.3229166,1.3229166 0 0 1 -0.080098,-0.10542 A 1.3229166,1.3229166 0 0 1 2.8075804,10.15907 1.3229166,1.3229166 0 0 1 2.7502195,10.040214 1.3229166,1.3229166 0 0 1 2.7047443,9.9161906 1.3229166,1.3229166 0 0 1 2.6721881,9.788033 1.3229166,1.3229166 0 0 1 2.6525512,9.6572915 a 1.3229166,1.3229166 0 0 1 -0.00672,-0.1322916 1.3229166,1.3229166 0 0 1 0.0031,-0.093534 1.3229166,1.3229166 0 0 1 0.016021,-0.1312579 1.3229166,1.3229166 0 0 1 0.028939,-0.1291913 1.3229166,1.3229166 0 0 1 0.041858,-0.1255736 1.3229166,1.3229166 0 0 1 0.05426,-0.1204061 1.3229166,1.3229166 0 0 1 0.065629,-0.1147217 1.3229166,1.3229166 0 0 1 0.076998,-0.107487 1.3229166,1.3229166 0 0 1 0.087333,-0.099735 1.3229166,1.3229166 0 0 1 0.096635,-0.089917 1.3229166,1.3229166 0 0 1 0.1054198,-0.080098 1.3229166,1.3229166 0 0 1 0.1126548,-0.069247 1.3229166,1.3229166 0 0 1 0.1188556,-0.057361 1.3229166,1.3229166 0 0 1 0.1240234,-0.045475 1.3229166,1.3229166 0 0 1 0.1281576,-0.032556 1.3229166,1.3229166 0 0 1 0.1307404,-0.019637 1.3229166,1.3229166 0 0 1 0.1322917,-0.00672 1.3229166,1.3229166 0 0 1 0.093534,0.0031 1.3229166,1.3229166 0 0 1 0.1312579,0.016021 1.3229166,1.3229166 0 0 1 0.1291913,0.028939 1.3229166,1.3229166 0 0 1 0.1255736,0.041858 1.3229166,1.3229166 0 0 1 0.1204061,0.05426 1.3229166,1.3229166 0 0 1 0.1147217,0.065629 1.3229166,1.3229166 0 0 1 0.107487,0.076998 1.3229166,1.3229166 0 0 1 0.099736,0.087333 1.3229166,1.3229166 0 0 1 0.089917,0.096635 1.3229166,1.3229166 0 0 1 0.080098,0.1054198 1.3229166,1.3229166 0 0 1 0.069247,0.1126548 1.3229166,1.3229166 0 0 1 0.057361,0.1188556 1.3229166,1.3229166 0 0 1 0.045475,0.1240235 1.3229166,1.3229166 0 0 1 0.032556,0.1281575 1.3229166,1.3229166 0 0 1 0.019637,0.1307404 1.3229166,1.3229166 0 0 1 0.00672,0.1322917 1.3229166,1.3229166 0 0 1 -0.0031,0.093534 1.3229166,1.3229166 0 0 1 -0.01602,0.131258 1.3229166,1.3229166 0 0 1 -0.028939,0.1291912 1.3229166,1.3229166 0 0 1 -0.041858,0.1255732 1.3229166,1.3229166 0 0 1 -0.05426,0.120406 1.3229166,1.3229166 0 0 1 -0.065629,0.114722 1.3229166,1.3229166 0 0 1 -0.076998,0.107487 1.3229166,1.3229166 0 0 1 -0.087333,0.09973 1.3229166,1.3229166 0 0 1 -0.096635,0.08992 1.3229166,1.3229166 0 0 1 -0.060977,0.04651 h 0.3896405 1.7296101 0.012402 c 0.5795775,0 1.045931,-0.466353 1.045931,-1.0459305 v -0.012402 -1.46451 a 1.5874999,1.5874999 0 0 0 1.0583333,0.4061767 1.5874999,1.5874999 0 0 0 1.5875,-1.5875 1.5874999,1.5874999 0 0 0 -1.5875,-1.5875 A 1.5874999,1.5874999 0 0 0 7.9374998,5.69836 V 3.7041666 3.6917643 c 0,-0.5795775 -0.4663535,-1.045931 -1.045931,-1.045931 H 6.8791665 5.1500731 A 1.5874999,1.5874999 0 0 0 5.5562498,1.5875 1.5874999,1.5874999 0 0 0 3.9687499,0 Z"
     id="rect829" />
</svg>
