<?xml version="1.0" encoding="UTF-8" standalone="no"?>
<svg
   width="45.996105"
   height="44.99025"
   viewBox="0 0 12.169803 11.90367"
   version="1.1"
   id="svg4"
   sodipodi:docname="gnome-mime-text-x-vcalendar.svg"
   inkscape:version="0.92.5 (2060ec1f9f, 2020-04-08)"
   xmlns:inkscape="http://www.inkscape.org/namespaces/inkscape"
   xmlns:sodipodi="http://sodipodi.sourceforge.net/DTD/sodipodi-0.dtd"
   xmlns="http://www.w3.org/2000/svg"
   xmlns:svg="http://www.w3.org/2000/svg">
  <sodipodi:namedview
     id="namedview1"
     pagecolor="#505050"
     bordercolor="#eeeeee"
     borderopacity="1"
     inkscape:showpageshadow="0"
     inkscape:pageopacity="0"
     inkscape:pagecheckerboard="0"
     inkscape:deskcolor="#d1d1d1" />
  <defs
     id="defs8">
    <style
       id="current-color-scheme"
       type="text/css">&#10;      .ColorScheme-Highlight {&#10;        color:#1e3f5a;&#10;      }&#10;  </style>
  </defs>
  <path
     class="ColorScheme-Highlight"
     style="fill:#bde6fb;fill-opacity:1;stroke-width:0.264583"
     d="m 2.9098999,0 c -0.44,0 -0.79375,0.30254508 -0.79375,0.67954507 V 1.5859497 H 3.7046833 V 0.67954507 C 3.7046833,0.30254508 3.3509333,1.8470408e-8 2.9109333,0 Z m 6.3499999,0 c -0.44,0 -0.79375,0.30254508 -0.79375,0.67954507 V 1.5859497 H 10.05365 V 0.67954507 C 10.05365,0.30254508 9.6998997,0 9.2598998,0 Z M 0,2.1156331 V 9.788033 c 0,1.172 0.94414992,2.115633 2.1161499,2.115633 H 10.05365 A 2.1119999,2.1119999 0 0 0 12.1698,9.788033 V 2.1156331 Z M 0.81287029,4.2307496 H 11.356929 c 0.012,0.087 0.02015,0.1750999 0.02015,0.2651 v 5.0270833 c 0,0.8800001 -0.590434,1.5880171 -1.323434,1.5880171 H 2.1151164 c -0.7330001,0 -1.32343347,-0.708017 -1.32343347,-1.5880171 V 4.4968831 c 0,-0.09 0.008154,-0.1781 0.0201538,-0.2651001 z M 4.2328165,5.2906331 A 1.3229166,1.3229166 0 0 0 2.9098999,6.6135497 h 0.5291666 a 0.79374999,0.79374999 0 0 1 0.79375,-0.79375 0.79374999,0.79374999 0 0 1 0.79375,0.79375 0.79374999,0.79374999 0 0 1 -0.2330606,0.5606894 l -1.883606,1.8205606 v 0.5291667 h 0.2645833 2.38125 V 8.9947997 H 3.7083007 L 5.1676431,7.5483763 A 1.3229165,1.3229165 0 0 0 5.5557332,6.6135497 1.3229166,1.3229166 0 0 0 4.2328165,5.2906331 Z m 3.4395833,0 -1.0583333,0.5291666 V 6.3489664 L 7.6723998,5.8197997 v 3.175 H 6.6140665 V 9.5239664 H 9.2598998 V 8.9947997 H 8.2015665 V 5.2906331 Z"
     id="path832" />
</svg>
