<?xml version="1.0" encoding="UTF-8" standalone="no"?>
<svg
   width="40"
   height="48"
   version="1.1"
   id="svg6"
   sodipodi:docname="gnome-mime-application-pdf.svg"
   inkscape:version="0.92.5 (2060ec1f9f, 2020-04-08)"
   xmlns:inkscape="http://www.inkscape.org/namespaces/inkscape"
   xmlns:sodipodi="http://sodipodi.sourceforge.net/DTD/sodipodi-0.dtd"
   xmlns="http://www.w3.org/2000/svg"
   xmlns:svg="http://www.w3.org/2000/svg">
  <sodipodi:namedview
     id="namedview1"
     pagecolor="#505050"
     bordercolor="#eeeeee"
     borderopacity="1"
     inkscape:showpageshadow="0"
     inkscape:pageopacity="0"
     inkscape:pagecheckerboard="0"
     inkscape:deskcolor="#d1d1d1" />
  <defs
     id="defs8">
    <style
       id="current-color-scheme"
       type="text/css">&#10;      .ColorScheme-Highlight {&#10;        color:#1e3f5a;&#10;      }&#10;  </style>
  </defs>
  <path
     class="ColorScheme-Highlight"
     style="fill:#bde6fb;fill-opacity:1"
     d="M 2,0 C 0.892,0 0,0.892 0,2 v 44 c 0,1.108 0.892,2 2,2 h 36 c 1.108,0 2,-0.892 2,-2 V 13 L 39.416016,12.416016 38,11 37,10 30,3 29,2 27.583984,0.58398438 27.292969,0.29296875 27,0 Z m 2,3 h 22 v 8 c 0,1.108 0.892,2 2,2 h 9 v 31 c 0,0.277 -0.112219,0.526281 -0.292969,0.707031 C 36.526281,44.887781 36.277,45 36,45 H 4 C 3.723,45 3.4737187,44.887781 3.2929688,44.707031 3.1122188,44.526281 3,44.277 3,44 V 4 C 3,3.723 3.1122186,3.4737187 3.2929688,3.2929688 3.4737188,3.1122186 3.723,3 4,3 Z m 6.978516,9.810547 c -0.363,0.013 -0.750735,0.111922 -1.177735,0.294922 -3.8123931,1.628741 -0.999109,5.371411 3.855469,8.792969 l 0.002,0.0059 c -0.157146,3.490085 -0.804071,7.428102 -1.685547,10.701172 l -0.01953,0.0332 c -3.709168,2.310075 -6.0299919,4.704532 -4.787109,6.287109 0.3,0.383 0.539406,0.659047 0.816406,0.748047 l 0.449219,-0.36914 c -2.4500293,-1.445597 1.45298,-3.54051 2.699218,-4.167969 l 0.04297,0.04297 c -0.495828,1.375288 -1.820483,4.214419 -2.742187,4.125 0,0 -0.173266,0.143093 -0.447266,0.371093 1.441,0.828 3.336531,-1.759859 4.519531,-5.380859 3.092064,-1.853925 8.615788,-4.62134 12.867188,-6.509766 h 0.01172 c 2.049345,0.596849 5.349214,1.286866 6.939454,0.988282 0.345,-0.054 1.288218,-0.316172 1.324218,-1.076172 0.173903,-0.919413 -0.509439,-1.738991 -1.818359,-2.017578 -1.605788,-0.359495 -4.219224,0.329131 -6.107422,0.917968 -3.6995,-1.457643 -7.813457,-3.84863 -11.234375,-6.083984 h 0.0039 c -0.101,-4.172 -1.01539,-7.442594 -3.15039,-7.683594 -0.114,-0.013 -0.240328,-0.01962 -0.361328,-0.01563 z m -0.277344,0.681641 c 1.735579,-0.02834 2.949997,2.480436 2.99414,6.490234 v 0.002 c -4.147,-2.838 -5.762578,-5.655313 -3.767578,-6.320313 0.267375,-0.110625 0.525455,-0.167826 0.773438,-0.171874 z m 3.783203,8.976562 c 2.796279,1.86309 6.135853,3.57931 9.269531,4.757812 -3.546084,1.181954 -7.429898,2.884798 -10.58789,4.699219 l -0.0098,0.002 c 0.0034,-0.0019 0.0064,-0.0039 0.0098,-0.0059 0.7317,-2.950791 1.217086,-6.343167 1.318359,-9.453125 z m 16.410156,3.873047 c 0.960901,0.001 2.3352,0.228762 2.59961,1.441406 -1.599281,0.92736 -5.244802,0.419074 -6.667969,-0.591797 0.09954,-0.0671 0.209627,-0.131764 0.349609,-0.193359 0.01083,-0.0045 0.02436,-0.01113 0.03516,-0.01563 0.457612,-0.1935 1.359528,-0.377953 3.037109,-0.601563 0.170941,-0.01851 0.369041,-0.03937 0.646484,-0.03906 z m -3.115234,0.392578 -0.002,0.0039 c -0.0013,-4.2e-4 -0.0045,4.09e-4 -0.0059,0 0.0023,-9.44e-4 0.0055,-0.003 0.0078,-0.0039 z"
     id="path816" />
</svg>
