<?xml version="1.0" encoding="UTF-8" standalone="no"?>
<svg
   width="45.996109"
   height="43.998062"
   viewBox="0 0 12.169804 11.641154"
   version="1.1"
   id="svg4"
   sodipodi:docname="image-svg+xml-compressed.svg"
   inkscape:version="0.92.5 (2060ec1f9f, 2020-04-08)"
   xmlns:inkscape="http://www.inkscape.org/namespaces/inkscape"
   xmlns:sodipodi="http://sodipodi.sourceforge.net/DTD/sodipodi-0.dtd"
   xmlns="http://www.w3.org/2000/svg"
   xmlns:svg="http://www.w3.org/2000/svg">
  <sodipodi:namedview
     id="namedview1"
     pagecolor="#505050"
     bordercolor="#eeeeee"
     borderopacity="1"
     inkscape:showpageshadow="0"
     inkscape:pageopacity="0"
     inkscape:pagecheckerboard="0"
     inkscape:deskcolor="#d1d1d1" />
  <defs
     id="defs8">
    <style
       id="current-color-scheme"
       type="text/css">&#10;      .ColorScheme-Highlight {&#10;        color:#1e3f5a;&#10;      }&#10;  </style>
  </defs>
  <path
     class="ColorScheme-Highlight"
     style="fill:#bde6fb;fill-opacity:1;stroke-width:0.264583"
     d="M 1.0578166,0 0,2.64635 H 5.8197998 V 0 Z M 6.3499999,0 V 2.64635 H 12.1698 L 11.111983,0 Z M 0,3.175 V 9.5249999 C 0,10.697 0.94414992,11.64115 2.1161499,11.64115 H 10.05365 A 2.1119999,2.1119999 0 0 0 12.1698,9.5249999 V 3.175 H 11.377083 V 9.5249999 A 1.32,1.32 0 0 1 10.05365,10.848433 H 2.1151164 A 1.32,1.32 0 0 1 0.79168293,9.5249999 V 3.175 Z M 5.8203165,4.4979166 4.4973998,6.3499999 5.0265665,8.2020832 H 6.8786498 L 7.4078165,6.3499999 6.0848998,4.4979166 v 1.6107545 a 0.396875,0.396875 0 0 1 0.2645834,0.3736205 0.396875,0.396875 0 0 1 -0.396875,0.396875 0.396875,0.396875 0 0 1 -0.396875,-0.396875 0.396875,0.396875 0 0 1 0.2645833,-0.3736205 z m -0.5291667,3.96875 c -0.2931583,0 -0.5291666,0.236008 -0.5291666,0.5291666 V 9.5249999 H 7.1432331 V 8.9958332 c 0,-0.2931586 -0.2360083,-0.5291666 -0.5291666,-0.5291666 z"
     id="path864" />
</svg>
