<?xml version="1.0" encoding="UTF-8" standalone="no"?>
<svg
   width="46"
   height="46"
   version="1.1"
   id="svg6"
   sodipodi:docname="image-x-generic.svg"
   inkscape:version="0.92.5 (2060ec1f9f, 2020-04-08)"
   xmlns:inkscape="http://www.inkscape.org/namespaces/inkscape"
   xmlns:sodipodi="http://sodipodi.sourceforge.net/DTD/sodipodi-0.dtd"
   xmlns="http://www.w3.org/2000/svg"
   xmlns:svg="http://www.w3.org/2000/svg">
  <sodipodi:namedview
     id="namedview1"
     pagecolor="#505050"
     bordercolor="#eeeeee"
     borderopacity="1"
     inkscape:showpageshadow="0"
     inkscape:pageopacity="0"
     inkscape:pagecheckerboard="0"
     inkscape:deskcolor="#d1d1d1" />
  <defs
     id="defs8">
    <style
       id="current-color-scheme"
       type="text/css">&#10;      .ColorScheme-Highlight {&#10;        color:#1e3f5a;&#10;      }&#10;  </style>
  </defs>
  <path
     class="ColorScheme-Highlight"
     style="fill:#bde6fb;fill-opacity:1"
     d="M 1,0 C 0.446,0 0,0.446 0,1 v 29 c 0,0.554 0.446,1 1,1 h 13 v 14 c 0,0.554 0.446,1 1,1 h 30 c 0.554,0 1,-0.446 1,-1 V 16 c 0,-0.554 -0.446,-1 -1,-1 H 32 V 1 C 32,0.446 31.554,0 31,0 Z M 2,2 H 30 V 15 H 18.537109 C 17.726643,12.678779 15.606864,11 13,11 H 4 v 6 6 h 10 v 2 H 2 Z M 23.5,5 A 3.5,3.5 0 0 0 20,8.5 3.5,3.5 0 0 0 23.5,12 3.5,3.5 0 0 0 27,8.5 3.5,3.5 0 0 0 23.5,5 Z M 16,17 H 44 V 40 H 16 Z m 21.5,3 A 3.5,3.5 0 0 0 34,23.5 3.5,3.5 0 0 0 37.5,27 3.5,3.5 0 0 0 41,23.5 3.5,3.5 0 0 0 37.5,20 Z M 18,26 v 6 6 h 24 v -6 h -9 c 0,-3.324 -2.676,-6 -6,-6 z"
     id="rect814" />
</svg>
