<?xml version="1.0" encoding="UTF-8" standalone="no"?>
<svg
   width="40"
   height="48"
   version="1.1"
   id="svg6"
   sodipodi:docname="libreoffice-oasis-presentation.svg"
   inkscape:version="0.92.5 (2060ec1f9f, 2020-04-08)"
   xmlns:inkscape="http://www.inkscape.org/namespaces/inkscape"
   xmlns:sodipodi="http://sodipodi.sourceforge.net/DTD/sodipodi-0.dtd"
   xmlns="http://www.w3.org/2000/svg"
   xmlns:svg="http://www.w3.org/2000/svg">
  <sodipodi:namedview
     id="namedview1"
     pagecolor="#505050"
     bordercolor="#eeeeee"
     borderopacity="1"
     inkscape:showpageshadow="0"
     inkscape:pageopacity="0"
     inkscape:pagecheckerboard="0"
     inkscape:deskcolor="#d1d1d1" />
  <defs
     id="defs8">
    <style
       id="current-color-scheme"
       type="text/css">&#10;      .ColorScheme-Highlight {&#10;        color:#1e3f5a;&#10;      }&#10;  </style>
  </defs>
  <path
     class="ColorScheme-Highlight"
     style="fill:#bde6fb;fill-opacity:1"
     d="M 2,0 C 0.892,0 0,0.892 0,2 v 44 c 0,1.108 0.892,2 2,2 h 36 c 1.108,0 2,-0.892 2,-2 V 15 L 25,0 Z M 29,0 40,11 V 2.1542969 C 40,0.96106596 39.038934,0 37.845703,0 Z M 3.9550781,3 H 24 L 37,16 V 44.044922 C 37,44.57374 36.57374,45 36.044922,45 H 3.9550781 C 3.4262599,45 3,44.57374 3,44.044922 V 3.9550781 C 3,3.4262599 3.4262599,3 3.9550781,3 Z M 10,19 v 13 h 9.445312 L 15,40 h 1 l 4,-7.199219 V 40 h 1 V 32.800781 L 25,40 h 1 L 21.554688,32 H 31 V 19 Z m 1,1 H 30 V 31 H 11 Z m 14,2 v 7 h 3 v -7 z m -6,2 v 5 h 3 v -5 z m -6,2 v 3 h 3 v -3 z"
     id="path827" />
</svg>
