<?xml version="1.0" encoding="UTF-8" standalone="no"?>
<svg
   width="40"
   height="48"
   version="1.1"
   id="svg6"
   sodipodi:docname="libreoffice-oasis-text-template.svg"
   inkscape:version="0.92.5 (2060ec1f9f, 2020-04-08)"
   xmlns:inkscape="http://www.inkscape.org/namespaces/inkscape"
   xmlns:sodipodi="http://sodipodi.sourceforge.net/DTD/sodipodi-0.dtd"
   xmlns="http://www.w3.org/2000/svg"
   xmlns:svg="http://www.w3.org/2000/svg">
  <sodipodi:namedview
     id="namedview1"
     pagecolor="#505050"
     bordercolor="#eeeeee"
     borderopacity="1"
     inkscape:showpageshadow="0"
     inkscape:pageopacity="0"
     inkscape:pagecheckerboard="0"
     inkscape:deskcolor="#d1d1d1" />
  <defs
     id="defs8">
    <style
       id="current-color-scheme"
       type="text/css">&#10;      .ColorScheme-Highlight {&#10;        color:#1e3f5a;&#10;      }&#10;  </style>
  </defs>
  <path
     class="ColorScheme-Highlight"
     style="fill:#bde6fb;fill-opacity:1"
     d="M 2,0 C 0.892,0 0,0.892 0,2 v 44 c 0,1.108 0.892,2 2,2 h 36 c 1.108,0 2,-0.892 2,-2 V 15 L 25,0 Z M 29,0 40,11 V 2.1542969 C 40,0.96106594 39.038934,0 37.845703,0 Z M 6,3 H 24 L 37,16 V 44.044922 C 37,44.57374 36.57374,45 36.044922,45 H 6 Z m 3,5 v 14 h 11 6 V 8 h -6 z m 1,1 h 10 5 V 19 H 20 10 Z m 11.5,1 A 1.5,1.5 0 0 0 20,11.5 1.5,1.5 0 0 0 21.5,13 1.5,1.5 0 0 0 23,11.5 1.5,1.5 0 0 0 21.5,10 Z M 11,12 v 3 3 h 9 4 v -3 h -4 -1 c 0,-1.662 -1.338,-3 -3,-3 H 15 Z M 9,27 v 2 H 20 34 V 27 H 20 Z m 0,5 v 2 H 20 34 V 32 H 20 Z m 0,5 v 2 H 20 34 V 37 H 20 Z"
     id="path827" />
</svg>
