<?xml version="1.0" encoding="UTF-8" standalone="no"?>
<svg
   width="40"
   height="48"
   version="1.1"
   id="svg6"
   sodipodi:docname="libreoffice-oasis-web-template.svg"
   inkscape:version="0.92.5 (2060ec1f9f, 2020-04-08)"
   xmlns:inkscape="http://www.inkscape.org/namespaces/inkscape"
   xmlns:sodipodi="http://sodipodi.sourceforge.net/DTD/sodipodi-0.dtd"
   xmlns="http://www.w3.org/2000/svg"
   xmlns:svg="http://www.w3.org/2000/svg">
  <sodipodi:namedview
     id="namedview1"
     pagecolor="#505050"
     bordercolor="#eeeeee"
     borderopacity="1"
     inkscape:showpageshadow="0"
     inkscape:pageopacity="0"
     inkscape:pagecheckerboard="0"
     inkscape:deskcolor="#d1d1d1" />
  <defs
     id="defs8">
    <style
       id="current-color-scheme"
       type="text/css">&#10;      .ColorScheme-Highlight {&#10;        color:#1e3f5a;&#10;      }&#10;  </style>
  </defs>
  <path
     class="ColorScheme-Highlight"
     style="fill:#bde6fb;fill-opacity:1"
     d="M 2,0 C 0.892,0 0,0.892 0,2 v 44 c 0,1.108 0.892,2 2,2 h 36 c 1.108,0 2,-0.892 2,-2 V 15 L 25,0 Z M 29,0 40,11 V 2.1542969 C 40,0.96106594 39.038934,0 37.845703,0 Z M 6,3 H 24 L 37,16 V 44.044922 C 37,44.57374 36.57374,45 36.044922,45 H 6 Z M 16.5,7 A 6.5,6.5 0 0 0 13.048828,8 H 13 V 8.03125 A 6.5,6.5 0 0 0 11.025391,10 H 11 v 0.04297 A 6.5,6.5 0 0 0 10,13.5 6.5,6.5 0 0 0 11,16.951172 V 17 h 0.03125 A 6.5,6.5 0 0 0 13,18.974609 V 19 h 0.04297 A 6.5,6.5 0 0 0 16.5,20 6.5,6.5 0 0 0 19.951172,19 H 20 V 18.96875 A 6.5,6.5 0 0 0 21.974609,17 H 22 V 16.95703 A 6.5,6.5 0 0 0 23,13.5 6.5,6.5 0 0 0 22,10.048828 V 10 H 21.96875 A 6.5,6.5 0 0 0 20,8.0253906 V 8 H 19.95703 A 6.5,6.5 0 0 0 16.5,7 Z M 17,8.0253906 a 5.5,5.5 0 0 1 2,0.5820313 V 10 h -2 z m -1,0.00195 V 10 H 14 V 8.6015625 a 5.5,5.5 0 0 1 2,-0.5742187 z m 4,1.2324218 A 5.5,5.5 0 0 1 20.736328,10 H 20 Z m -7,0.00391 V 10 H 12.259766 A 5.5,5.5 0 0 1 13,9.2636724 Z M 11.607422,11 H 13 v 2 h -1.974609 a 5.5,5.5 0 0 1 0.582031,-2 z M 14,11 h 2 v 2 h -2 z m 3,0 h 2 v 2 h -2 z m 3,0 h 1.398438 a 5.5,5.5 0 0 1 0.574218,2 H 20 Z m -8.972656,3 H 13 v 2 H 11.601562 A 5.5,5.5 0 0 1 11.027344,14 Z M 14,14 h 2 v 2 h -2 z m 3,0 h 2 v 2 h -2 z m 3,0 h 1.974609 a 5.5,5.5 0 0 1 -0.582031,2 H 20 Z m -7.736328,3 H 13 v 0.740234 A 5.5,5.5 0 0 1 12.263672,17 Z M 14,17 h 2 v 1.974609 a 5.5,5.5 0 0 1 -2,-0.582031 z m 3,0 h 2 v 1.398438 a 5.5,5.5 0 0 1 -2,0.574218 z m 3,0 h 0.740234 A 5.5,5.5 0 0 1 20,17.736328 Z M 9,27 v 2 h 25 v -2 z m 0,5 v 2 h 25 v -2 z m 0,5 v 2 h 25 v -2 z"
     id="path827" />
</svg>
