<?xml version="1.0" encoding="UTF-8" standalone="no"?>
<svg
   width="40"
   height="48"
   version="1.1"
   id="svg6"
   sodipodi:docname="multipart-encrypted.svg"
   inkscape:version="0.92.5 (2060ec1f9f, 2020-04-08)"
   xmlns:inkscape="http://www.inkscape.org/namespaces/inkscape"
   xmlns:sodipodi="http://sodipodi.sourceforge.net/DTD/sodipodi-0.dtd"
   xmlns="http://www.w3.org/2000/svg"
   xmlns:svg="http://www.w3.org/2000/svg">
  <sodipodi:namedview
     id="namedview1"
     pagecolor="#505050"
     bordercolor="#eeeeee"
     borderopacity="1"
     inkscape:showpageshadow="0"
     inkscape:pageopacity="0"
     inkscape:pagecheckerboard="0"
     inkscape:deskcolor="#d1d1d1" />
  <defs
     id="defs8">
    <style
       id="current-color-scheme"
       type="text/css">&#10;      .ColorScheme-Highlight {&#10;        color:#1e3f5a;&#10;      }&#10;  </style>
  </defs>
  <path
     class="ColorScheme-Highlight"
     style="fill:#bde6fb;fill-opacity:1"
     d="M 2,0 C 0.892,0 0,0.892 0,2 v 44 c 0,1.108 0.892,2 2,2 h 36 c 1.108,0 2,-0.892 2,-2 V 13 L 39.416016,12.416016 38,11 37,10 30,3 29,2 27.583984,0.58398438 27.292969,0.29296875 27,0 Z m 2,3 h 22 v 8 c 0,1.108 0.892,2 2,2 h 9 v 31 c 0,0.277 -0.112219,0.526281 -0.292969,0.707031 C 36.526281,44.887781 36.277,45 36,45 H 4 C 3.723,45 3.4737187,44.887781 3.2929688,44.707031 3.1122188,44.526281 3,44.277 3,44 V 4 C 3,3.723 3.1122186,3.4737187 3.2929688,3.2929688 3.4737188,3.1122186 3.723,3 4,3 Z m 3,3 v 5 H 8 V 6 Z m 0,10 v 5 h 1 v -5 z m 4.5,0 C 10.669,16 10,16.669 10,17.5 v 2 c 0,0.831 0.669,1.5 1.5,1.5 0.831,0 1.5,-0.669 1.5,-1.5 v -2 C 13,16.669 12.331,16 11.5,16 Z m 0,1 c 0.277,0 0.5,0.223 0.5,0.5 v 2 C 12,19.777 11.777,20 11.5,20 11.223,20 11,19.777 11,19.5 v -2 C 11,17.223 11.223,17 11.5,17 Z M 7,26 v 5 h 1 v -5 z m 4.5,0 C 10.669,26 10,26.669 10,27.5 v 2 c 0,0.831 0.669,1.5 1.5,1.5 0.831,0 1.5,-0.669 1.5,-1.5 v -2 C 13,26.669 12.331,26 11.5,26 Z m 3.5,0 v 5 h 1 v -5 z m -3.5,1 c 0.277,0 0.5,0.223 0.5,0.5 v 2 C 12,29.777 11.777,30 11.5,30 11.223,30 11,29.777 11,29.5 v -2 C 11,27.223 11.223,27 11.5,27 Z M 7,36 v 5 h 1 v -5 z m 4.5,0 C 10.669,36 10,36.669 10,37.5 v 2 c 0,0.831 0.669,1.5 1.5,1.5 0.831,0 1.5,-0.669 1.5,-1.5 v -2 C 13,36.669 12.331,36 11.5,36 Z m 3.5,0 v 5 h 1 v -5 z m 4.5,0 C 18.669,36 18,36.669 18,37.5 v 2 c 0,0.831 0.669,1.5 1.5,1.5 0.831,0 1.5,-0.669 1.5,-1.5 v -2 C 21,36.669 20.331,36 19.5,36 Z m -8,1 c 0.277,0 0.5,0.223 0.5,0.5 v 2 C 12,39.777 11.777,40 11.5,40 11.223,40 11,39.777 11,39.5 v -2 C 11,37.223 11.223,37 11.5,37 Z m 8,0 c 0.277,0 0.5,0.223 0.5,0.5 v 2 C 20,39.777 19.777,40 19.5,40 19.223,40 19,39.777 19,39.5 v -2 C 19,37.223 19.223,37 19.5,37 Z"
     id="path816" />
</svg>
