<?xml version="1.0" encoding="UTF-8" standalone="no"?>
<svg
   width="45.996109"
   height="43.998062"
   viewBox="0 0 12.169804 11.641154"
   version="1.1"
   id="svg4"
   sodipodi:docname="package-x-generic.svg"
   inkscape:version="0.92.5 (2060ec1f9f, 2020-04-08)"
   xmlns:inkscape="http://www.inkscape.org/namespaces/inkscape"
   xmlns:sodipodi="http://sodipodi.sourceforge.net/DTD/sodipodi-0.dtd"
   xmlns="http://www.w3.org/2000/svg"
   xmlns:svg="http://www.w3.org/2000/svg">
  <sodipodi:namedview
     id="namedview1"
     pagecolor="#505050"
     bordercolor="#eeeeee"
     borderopacity="1"
     inkscape:showpageshadow="0"
     inkscape:pageopacity="0"
     inkscape:pagecheckerboard="0"
     inkscape:deskcolor="#d1d1d1" />
  <defs
     id="defs8">
    <style
       id="current-color-scheme"
       type="text/css">&#10;      .ColorScheme-Highlight {&#10;        color:#1e3f5a;&#10;      }&#10;  </style>
  </defs>
  <path
     class="ColorScheme-Highlight"
     style="fill:#bde6fb;fill-opacity:1;stroke-width:0.264583"
     d="M 1.0578166,0 0,2.64635 H 5.8197998 V 0 Z M 6.3499999,0 V 2.64635 H 12.1698 L 11.111983,0 Z M 0,3.175 V 9.5249999 C 0,10.697 0.94414992,11.64115 2.1161499,11.64115 H 10.05365 A 2.1119999,2.1119999 0 0 0 12.1698,9.5249999 V 3.175 H 11.377083 V 9.5249999 A 1.32,1.32 0 0 1 10.05365,10.848433 H 2.1151164 A 1.32,1.32 0 0 1 0.79168293,9.5249999 V 3.175 Z M 1.5869832,4.2333333 V 5.2916666 H 1.8515665 V 6.3499999 H 2.3807332 V 5.2916666 H 2.6453165 V 4.2333333 Z m 1.3208497,0 V 4.7630167 H 3.4380331 V 4.2333333 Z M 3.4380331,4.7630167 V 5.2932168 H 3.9677165 V 4.7630167 Z m 0.5296834,0 H 4.4979166 V 4.2333333 H 3.9677165 Z m 0.5302001,0 V 5.2932168 H 5.0281167 V 4.7630167 Z m 0.5302001,0 h 0.519865 V 4.2333333 h -0.519865 z m 0.519865,0 V 5.2932168 H 6.0776651 V 4.7630167 Z m 0.5296834,0 H 6.6078652 V 4.2333333 H 6.0776651 Z m 0.5302001,0 V 5.2932168 H 7.1380656 V 4.7630167 Z m 0.5302004,0 H 7.667749 V 4.2333333 H 7.1380656 Z m 0.5296834,0 V 5.2932168 H 8.1979491 V 4.7630167 Z m 0.5302001,0 H 8.7281492 V 4.2333333 H 8.1979491 Z m 0.5302001,0 V 5.2932168 H 9.2578329 V 4.7630167 Z m 0.5296837,0 H 9.788033 V 4.2333333 H 9.2578329 Z m 0.5302001,0 v 0.5302001 h 0.529683 V 4.7630167 Z m 0.529683,0 h 0.5302 V 4.2333333 h -0.5302 z M 1.8515665,4.4979166 H 2.3807332 V 5.0270833 H 1.8515665 Z"
     id="path864" />
</svg>
