<?xml version="1.0" encoding="UTF-8" standalone="no"?>
<svg
   width="40"
   height="48"
   version="1.1"
   id="svg6"
   sodipodi:docname="text-x-sql.svg"
   inkscape:version="0.92.5 (2060ec1f9f, 2020-04-08)"
   xmlns:inkscape="http://www.inkscape.org/namespaces/inkscape"
   xmlns:sodipodi="http://sodipodi.sourceforge.net/DTD/sodipodi-0.dtd"
   xmlns="http://www.w3.org/2000/svg"
   xmlns:svg="http://www.w3.org/2000/svg">
  <sodipodi:namedview
     id="namedview1"
     pagecolor="#505050"
     bordercolor="#eeeeee"
     borderopacity="1"
     inkscape:showpageshadow="0"
     inkscape:pageopacity="0"
     inkscape:pagecheckerboard="0"
     inkscape:deskcolor="#d1d1d1" />
  <defs
     id="defs8">
    <style
       id="current-color-scheme"
       type="text/css">&#10;      .ColorScheme-Highlight {&#10;        color:#1e3f5a;&#10;      }&#10;  </style>
  </defs>
  <path
     class="ColorScheme-Highlight"
     style="fill:#bde6fb;fill-opacity:1"
     d="M 2,0 C 0.892,0 0,0.892 0,2 v 44 c 0,1.108 0.892,2 2,2 h 36 c 1.108,0 2,-0.892 2,-2 V 13 L 39.416016,12.416016 38,11 37,10 30,3 29,2 27.583984,0.58398438 27.292969,0.29296875 27,0 Z m 2,3 h 22 v 8 c 0,1.108 0.892,2 2,2 h 9 v 31 c 0,0.277 -0.112219,0.526281 -0.292969,0.707031 C 36.526281,44.887781 36.277,45 36,45 H 4 C 3.723,45 3.4737187,44.887781 3.2929688,44.707031 3.1122188,44.526281 3,44.277 3,44 V 4 C 3,3.723 3.1122186,3.4737187 3.2929688,3.2929688 3.4737188,3.1122186 3.723,3 4,3 Z m 16,18 a 7,2 0 0 0 -7,2 v 2 a 7,2 0 0 0 7,2 7,2 0 0 0 7,-2 v -2 a 7,2 0 0 0 -7,-2 z m -7,6 v 2 a 7,2 0 0 0 7,2 7,2 0 0 0 7,-2 v -2 a 7,2 0 0 1 -0.01758,0.140625 7,2 0 0 1 -0.08398,0.199219 7,2 0 0 1 -0.154297,0.195312 7,2 0 0 1 -0.220703,0.189453 7,2 0 0 1 -0.285157,0.181641 7,2 0 0 1 -0.347656,0.173828 7,2 0 0 1 -0.408203,0.164063 7,2 0 0 1 -0.460938,0.148437 7,2 0 0 1 -0.511718,0.136719 7,2 0 0 1 -0.556641,0.121094 7,2 0 0 1 -0.597656,0.105468 7,2 0 0 1 -0.628907,0.08594 7,2 0 0 1 -0.658203,0.06836 7,2 0 0 1 -0.677734,0.05078 7,2 0 0 1 -0.691406,0.0293 A 7,2 0 0 1 20,29 7,2 0 0 1 19.503906,28.9941 7,2 0 0 1 18.810547,28.97066 7,2 0 0 1 18.126953,28.92769 7,2 0 0 1 17.462891,28.86324 7,2 0 0 1 16.824219,28.78316 7,2 0 0 1 16.21875,28.683594 7,2 0 0 1 15.648438,28.566406 7,2 0 0 1 15.123047,28.435547 7,2 0 0 1 14.646484,28.289062 7,2 0 0 1 14.222656,28.128906 7,2 0 0 1 13.857422,27.958984 7,2 0 0 1 13.552734,27.779297 7,2 0 0 1 13.3125,27.591797 7,2 0 0 1 13.138672,27.396484 7,2 0 0 1 13.035156,27.199219 7,2 0 0 1 13,27 Z m 0,4 v 2 a 7,2 0 0 0 7,2 7,2 0 0 0 7,-2 v -2 a 7,2 0 0 1 -0.01758,0.140625 7,2 0 0 1 -0.08398,0.199219 7,2 0 0 1 -0.154297,0.195312 7,2 0 0 1 -0.220703,0.189453 7,2 0 0 1 -0.285157,0.181641 7,2 0 0 1 -0.347656,0.173828 7,2 0 0 1 -0.408203,0.164063 7,2 0 0 1 -0.460938,0.148437 7,2 0 0 1 -0.511718,0.136719 7,2 0 0 1 -0.556641,0.121094 7,2 0 0 1 -0.597656,0.105468 7,2 0 0 1 -0.628907,0.08594 7,2 0 0 1 -0.658203,0.06836 7,2 0 0 1 -0.677734,0.05078 7,2 0 0 1 -0.691406,0.0293 A 7,2 0 0 1 20,33 7,2 0 0 1 19.503906,32.9941 7,2 0 0 1 18.810547,32.97066 7,2 0 0 1 18.126953,32.92769 7,2 0 0 1 17.462891,32.86324 7,2 0 0 1 16.824219,32.78316 7,2 0 0 1 16.21875,32.683594 7,2 0 0 1 15.648438,32.566406 7,2 0 0 1 15.123047,32.435547 7,2 0 0 1 14.646484,32.289062 7,2 0 0 1 14.222656,32.128906 7,2 0 0 1 13.857422,31.958984 7,2 0 0 1 13.552734,31.779297 7,2 0 0 1 13.3125,31.591797 7,2 0 0 1 13.138672,31.396484 7,2 0 0 1 13.035156,31.199219 7,2 0 0 1 13,31 Z m 0,4 v 2 a 7,2 0 0 0 7,2 7,2 0 0 0 7,-2 v -2 a 7,2 0 0 1 -0.01758,0.140625 7,2 0 0 1 -0.08398,0.199219 7,2 0 0 1 -0.154297,0.195312 7,2 0 0 1 -0.220703,0.189453 7,2 0 0 1 -0.285157,0.181641 7,2 0 0 1 -0.347656,0.173828 7,2 0 0 1 -0.408203,0.164063 7,2 0 0 1 -0.460938,0.148437 7,2 0 0 1 -0.511718,0.136719 7,2 0 0 1 -0.556641,0.121094 7,2 0 0 1 -0.597656,0.105468 7,2 0 0 1 -0.628907,0.08594 7,2 0 0 1 -0.658203,0.06836 7,2 0 0 1 -0.677734,0.05078 7,2 0 0 1 -0.691406,0.0293 A 7,2 0 0 1 20,37 7,2 0 0 1 19.503906,36.9941 7,2 0 0 1 18.810547,36.97066 7,2 0 0 1 18.126953,36.92769 7,2 0 0 1 17.462891,36.86324 7,2 0 0 1 16.824219,36.78316 7,2 0 0 1 16.21875,36.683594 7,2 0 0 1 15.648438,36.566406 7,2 0 0 1 15.123047,36.435547 7,2 0 0 1 14.646484,36.289062 7,2 0 0 1 14.222656,36.128906 7,2 0 0 1 13.857422,35.958984 7,2 0 0 1 13.552734,35.779297 7,2 0 0 1 13.3125,35.591797 7,2 0 0 1 13.138672,35.396484 7,2 0 0 1 13.035156,35.199219 7,2 0 0 1 13,35 Z"
     id="path816" />
</svg>
