<?xml version="1.0" encoding="UTF-8" standalone="no"?>
<svg
   width="40"
   height="48"
   version="1.1"
   id="svg6"
   sodipodi:docname="text-x-sass.svg"
   inkscape:version="0.92.5 (2060ec1f9f, 2020-04-08)"
   xmlns:inkscape="http://www.inkscape.org/namespaces/inkscape"
   xmlns:sodipodi="http://sodipodi.sourceforge.net/DTD/sodipodi-0.dtd"
   xmlns="http://www.w3.org/2000/svg"
   xmlns:svg="http://www.w3.org/2000/svg">
  <sodipodi:namedview
     id="namedview1"
     pagecolor="#505050"
     bordercolor="#eeeeee"
     borderopacity="1"
     inkscape:showpageshadow="0"
     inkscape:pageopacity="0"
     inkscape:pagecheckerboard="0"
     inkscape:deskcolor="#d1d1d1" />
  <defs
     id="defs8">
    <style
       id="current-color-scheme"
       type="text/css">&#10;      .ColorScheme-Highlight {&#10;        color:#1e3f5a;&#10;      }&#10;  </style>
  </defs>
  <path
     class="ColorScheme-Highlight"
     style="fill:#bde6fb;fill-opacity:1"
     d="M 2,0 C 0.892,0 0,0.892 0,2 v 44 c 0,1.108 0.892,2 2,2 h 36 c 1.108,0 2,-0.892 2,-2 V 13 L 39.416016,12.416016 38,11 37,10 30,3 29,2 27.583984,0.58398438 27.292969,0.29296875 27,0 Z m 2,3 h 22 v 8 c 0,1.108 0.892,2 2,2 h 9 v 31 c 0,0.277 -0.112219,0.526281 -0.292969,0.707031 C 36.526281,44.887781 36.277,45 36,45 H 4 C 3.723,45 3.4737187,44.887781 3.2929688,44.707031 3.1122188,44.526281 3,44.277 3,44 V 4 C 3,3.723 3.1122186,3.4737187 3.2929688,3.2929688 3.4737188,3.1122186 3.723,3 4,3 Z m 19.851562,14.861328 c -1.26414,0.02103 -2.629478,0.259834 -3.970703,0.736328 -2.554196,0.907372 -5.318475,2.331697 -7.30664,4.191406 -2.363938,2.21109 -2.741327,4.135303 -2.585938,4.939454 0.548067,2.837443 4.434971,4.692293 6.033203,6.068359 v 0.0098 c -0.471264,0.232004 -3.919354,1.977115 -4.726562,3.761718 -0.851738,1.882701 0.135395,3.234156 0.789062,3.416016 2.025276,0.563464 4.103846,-0.451243 5.220704,-2.117187 1.077816,-1.60769 0.987927,-3.684095 0.519531,-4.716797 0.646125,-0.170432 1.398199,-0.246589 2.355469,-0.134766 2.701268,0.315521 3.232205,2.003258 3.130859,2.708984 -0.101264,0.705929 -0.667993,1.093774 -0.857422,1.210938 -0.189497,0.117231 -0.248389,0.157022 -0.232422,0.244141 0.02292,0.126662 0.111906,0.123083 0.273438,0.0957 0.222314,-0.03748 1.417615,-0.573955 1.46875,-1.876953 0.06513,-1.654326 -1.519072,-3.505382 -4.326172,-3.457032 -1.156062,0.01993 -1.883128,0.130764 -2.408203,0.326172 -0.03882,-0.04422 -0.07829,-0.08926 -0.119141,-0.132812 -1.735411,-1.851528 -4.944659,-3.161271 -4.808594,-5.650391 0.04946,-0.904898 0.363615,-3.287375 6.164063,-6.177734 4.751576,-2.367621 8.555514,-1.715482 9.21289,-0.271485 0.939007,2.062904 -2.03226,5.896192 -6.966796,6.449219 -1.880024,0.210791 -2.869004,-0.51772 -3.115235,-0.789063 -0.259263,-0.285665 -0.299717,-0.297721 -0.396484,-0.24414 -0.157726,0.08732 -0.05779,0.337906 0,0.488281 0.14729,0.383411 0.752458,1.06413 1.783203,1.402344 0.906693,0.297583 3.113732,0.460273 5.783203,-0.572266 2.98968,-1.156524 5.324381,-4.373392 4.638672,-7.0625 -0.479413,-1.880245 -2.771625,-2.891975 -5.552735,-2.845703 z m -7.166015,16.783203 c 0.224027,0.828746 0.200158,1.602852 -0.03125,2.302735 -0.02571,0.07771 -0.0552,0.154465 -0.08594,0.230468 -0.03074,0.07587 -0.06394,0.15055 -0.09961,0.22461 -0.17849,0.370297 -0.417649,0.717199 -0.710938,1.037109 -0.894719,0.97609 -2.145613,1.344226 -2.68164,1.033203 -0.578819,-0.335483 -0.287336,-1.712119 0.75,-2.808594 1.115988,-1.179774 2.720703,-1.9375 2.720703,-1.9375 l -0.002,-0.0039 c 0.04624,-0.0249 0.09304,-0.05188 0.140625,-0.07813 z"
     id="path816" />
</svg>
