<?xml version="1.0" encoding="UTF-8" standalone="no"?>
<svg
   width="40"
   height="48"
   version="1.1"
   id="svg6"
   sodipodi:docname="text-html.svg"
   inkscape:version="0.92.5 (2060ec1f9f, 2020-04-08)"
   xmlns:inkscape="http://www.inkscape.org/namespaces/inkscape"
   xmlns:sodipodi="http://sodipodi.sourceforge.net/DTD/sodipodi-0.dtd"
   xmlns="http://www.w3.org/2000/svg"
   xmlns:svg="http://www.w3.org/2000/svg">
  <sodipodi:namedview
     id="namedview1"
     pagecolor="#505050"
     bordercolor="#eeeeee"
     borderopacity="1"
     inkscape:showpageshadow="0"
     inkscape:pageopacity="0"
     inkscape:pagecheckerboard="0"
     inkscape:deskcolor="#d1d1d1" />
  <defs
     id="defs8">
    <style
       id="current-color-scheme"
       type="text/css">&#10;      .ColorScheme-Highlight {&#10;        color:#1e3f5a;&#10;      }&#10;  </style>
  </defs>
  <path
     class="ColorScheme-Highlight"
     style="fill:#bde6fb;fill-opacity:1"
     d="M 2,0 C 0.892,0 0,0.892 0,2 v 44 c 0,1.108 0.892,2 2,2 h 36 c 1.108,0 2,-0.892 2,-2 V 13 L 39.416016,12.416016 38,11 37,10 30,3 29,2 27.583984,0.58398438 27.292969,0.29296875 27,0 Z m 2,3 h 22 v 8 c 0,1.108 0.892,2 2,2 h 9 v 31 c 0,0.277 -0.112219,0.526281 -0.292969,0.707031 C 36.526281,44.887781 36.277,45 36,45 H 4 C 3.723,45 3.4737187,44.887781 3.2929688,44.707031 3.1122188,44.526281 3,44.277 3,44 V 4 C 3,3.723 3.1122186,3.4737187 3.2929688,3.2929688 3.4737188,3.1122186 3.723,3 4,3 Z M 20,14 A 14,14 0 0 0 6,28 14,14 0 0 0 20,42 14,14 0 0 0 34,28 14,14 0 0 0 20,14 Z m -1,2.414062 V 21 H 15.648438 A 16,16 0 0 1 19,16.414062 Z m 2,0.03906 A 16,16 0 0 1 24.359375,21 H 21 Z m 2.958984,0.232422 A 12,12 0 0 1 29.728516,21 H 26.5625 a 18,18 0 0 0 -2.603516,-4.314453 z m -7.941406,0.0098 A 18,18 0 0 0 13.447266,21 h -3.181641 a 12,12 0 0 1 5.751953,-4.304688 z M 9.105469,23 h 3.613281 a 18,18 0 0 0 -0.677734,4 H 8.050781 a 12,12 0 0 1 1.054688,-4 z m 5.716797,0 H 19 v 4 h -4.949219 a 16,16 0 0 1 0.771485,-4 z M 21,23 h 4.166016 a 16,16 0 0 1 0.789062,4 H 21 Z m 6.263672,0 h 3.628906 a 12,12 0 0 1 1.060547,4 H 27.947266 A 18,18 0 0 0 27.263672,23 Z M 8.046875,29 h 4.005859 a 18,18 0 0 0 0.683594,4 H 9.107422 A 12,12 0 0 1 8.046875,29 Z m 5.998047,0 H 19 v 4 H 14.833984 A 16,16 0 0 1 14.044922,29 Z M 21,29 h 4.949219 a 16,16 0 0 1 -0.771485,4 H 21 Z m 6.958984,0 h 3.990235 a 12,12 0 0 1 -1.054688,4 H 27.28125 a 18,18 0 0 0 0.677734,-4 z m -17.6875,6 H 13.4375 A 18,18 0 0 0 16.041016,39.314453 12,12 0 0 1 10.271484,35 Z m 5.369141,0 H 19 v 4.546875 A 16,16 0 0 1 15.640625,35 Z M 21,35 h 3.351562 A 16,16 0 0 1 21,39.585938 Z m 5.552734,0 h 3.181641 A 12,12 0 0 1 23.982422,39.304688 18,18 0 0 0 26.552734,35 Z"
     id="path878" />
</svg>
