<?xml version="1.0" encoding="UTF-8" standalone="no"?>
<svg
   width="40"
   height="48"
   version="1.1"
   id="svg6"
   sodipodi:docname="text-x-perl.svg"
   inkscape:version="0.92.5 (2060ec1f9f, 2020-04-08)"
   xmlns:inkscape="http://www.inkscape.org/namespaces/inkscape"
   xmlns:sodipodi="http://sodipodi.sourceforge.net/DTD/sodipodi-0.dtd"
   xmlns="http://www.w3.org/2000/svg"
   xmlns:svg="http://www.w3.org/2000/svg">
  <sodipodi:namedview
     id="namedview1"
     pagecolor="#505050"
     bordercolor="#eeeeee"
     borderopacity="1"
     inkscape:showpageshadow="0"
     inkscape:pageopacity="0"
     inkscape:pagecheckerboard="0"
     inkscape:deskcolor="#d1d1d1" />
  <defs
     id="defs8">
    <style
       id="current-color-scheme"
       type="text/css">&#10;      .ColorScheme-Highlight {&#10;        color:#1e3f5a;&#10;      }&#10;  </style>
  </defs>
  <path
     class="ColorScheme-Highlight"
     style="fill:#bde6fb;fill-opacity:1"
     d="M 2,0 C 0.892,0 0,0.892 0,2 v 44 c 0,1.108 0.892,2 2,2 h 36 c 1.108,0 2,-0.892 2,-2 V 13 L 39.416016,12.416016 38,11 37,10 30,3 29,2 27.583984,0.58398438 27.292969,0.29296875 27,0 Z m 2,3 h 22 v 8 c 0,1.108 0.892,2 2,2 h 9 v 31 c 0,0.277 -0.112219,0.526281 -0.292969,0.707031 C 36.526281,44.887781 36.277,45 36,45 H 4 C 3.723,45 3.4737187,44.887781 3.2929688,44.707031 3.1122188,44.526281 3,44.277 3,44 V 4 C 3,3.723 3.1122186,3.4737187 3.2929688,3.2929688 3.4737188,3.1122185 3.723,3 4,3 Z M 7,6 C 6.446,6 6,6.446 6,7 6,7.554 6.446,8 7,8 h 9 C 16.554,8 17,7.554 17,7 17,6.446 16.554,6 16,6 Z m 0,6 c -0.554,0 -1,0.446 -1,1 0,0.554 0.446,1 1,1 h 6 c 0.554,0 1,-0.446 1,-1 0,-0.554 -0.446,-1 -1,-1 z m 12,0 c -0.554,0 -1,0.446 -1,1 0,0.554 0.446,1 1,1 h 3 c 0.554,0 1,-0.446 1,-1 0,-0.554 -0.446,-1 -1,-1 z M 9,18 c -0.554,0 -1,0.446 -1,1 0,0.554 0.446,1 1,1 h 9 c 0.554,0 1,-0.446 1,-1 0,-0.554 -0.446,-1 -1,-1 z m 14,0 c -0.554,0 -1,0.446 -1,1 0,0.554 0.446,1 1,1 h 2 c 0.554,0 1,-0.446 1,-1 0,-0.554 -0.446,-1 -1,-1 z m 7,0 c -0.554,0 -1,0.446 -1,1 0,0.554 0.446,1 1,1 h 2 c 0.554,0 1,-0.446 1,-1 0,-0.554 -0.446,-1 -1,-1 z M 8,24 c -0.554,0 -1,0.446 -1,1 0,0.554 0.446,1 1,1 h 15 c 0.554,0 1,-0.446 1,-1 0,-0.554 -0.446,-1 -1,-1 z m 20,0 c -0.554,0 -1,0.446 -1,1 0,0.554 0.446,1 1,1 h 3 c 0.554,0 1,-0.446 1,-1 0,-0.554 -0.446,-1 -1,-1 z M 7,30 c -0.554,0 -1,0.446 -1,1 0,0.554 0.446,1 1,1 h 7 c 0.554,0 1,-0.446 1,-1 0,-0.554 -0.446,-1 -1,-1 z m 13,0 c -0.554,0 -1,0.446 -1,1 0,0.554 0.446,1 1,1 h 12 c 0.554,0 1,-0.446 1,-1 0,-0.554 -0.446,-1 -1,-1 z m -9,5 v 7 h 1 v -3 h 3 v -1 -2 -1 h -3 z m 18,0 v 7 h 1 v -7 z m -17,1 h 2 v 2 h -2 z m 5,1 v 5 h 1 3 v -1 h -3 v -1 h 3 v -1 -2 h -3 z m 6,0 v 5 h 1 v -3 l 1,-1 h 2 v -1 h -2 l -1,1 v -1 z m -5,1 h 2 v 1 h -2 z"
     id="path816" />
</svg>
