<?xml version="1.0" encoding="UTF-8" standalone="no"?>
<svg
   width="44"
   height="40"
   version="1.1"
   id="svg6"
   sodipodi:docname="video-x-generic.svg"
   inkscape:version="0.92.5 (2060ec1f9f, 2020-04-08)"
   xmlns:inkscape="http://www.inkscape.org/namespaces/inkscape"
   xmlns:sodipodi="http://sodipodi.sourceforge.net/DTD/sodipodi-0.dtd"
   xmlns="http://www.w3.org/2000/svg"
   xmlns:svg="http://www.w3.org/2000/svg">
  <sodipodi:namedview
     id="namedview1"
     pagecolor="#505050"
     bordercolor="#eeeeee"
     borderopacity="1"
     inkscape:showpageshadow="0"
     inkscape:pageopacity="0"
     inkscape:pagecheckerboard="0"
     inkscape:deskcolor="#d1d1d1" />
  <defs
     id="defs8">
    <style
       id="current-color-scheme"
       type="text/css">&#10;      .ColorScheme-Highlight {&#10;        color:#1e3f5a;&#10;      }&#10;  </style>
  </defs>
  <path
     class="ColorScheme-Highlight"
     style="fill:#bde6fb;fill-opacity:1"
     d="M 2,0 C 0.892,0 0,0.892 0,2 v 36 c 0,1.108 0.892,2 2,2 h 40 c 1.108,0 2,-0.892 2,-2 V 2 C 44,0.892 43.108,0 42,0 Z m 1,2 h 38 c 0.554,0 1,0.446 1,1 v 34 c 0,0.554 -0.446,1 -1,1 H 3 C 2.446,38 2,37.554 2,37 V 3 C 2,2.446 2.446,2 3,2 Z m 1,2 v 5 h 6 V 4 Z m 10,0 v 5 h 6 V 4 Z m 10,0 v 5 h 6 V 4 Z m 10,0 v 5 h 6 V 4 Z M 22,14 a 6,6 0 0 0 -6,6 6,6 0 0 0 6,6 6,6 0 0 0 6,-6 6,6 0 0 0 -6,-6 z m -2,3 5,3 -5,3 z M 4,31 v 5 h 6 v -5 z m 10,0 v 5 h 6 v -5 z m 10,0 v 5 h 6 v -5 z m 10,0 v 5 h 6 v -5 z"
     id="rect857" />
</svg>
