<?xml version="1.0" encoding="UTF-8" standalone="no"?>
<svg
   width="40.064453"
   height="48.064453"
   version="1.1"
   id="svg6"
   sodipodi:docname="x-office-address-book.svg"
   inkscape:version="0.92.5 (2060ec1f9f, 2020-04-08)"
   xmlns:inkscape="http://www.inkscape.org/namespaces/inkscape"
   xmlns:sodipodi="http://sodipodi.sourceforge.net/DTD/sodipodi-0.dtd"
   xmlns="http://www.w3.org/2000/svg"
   xmlns:svg="http://www.w3.org/2000/svg">
  <sodipodi:namedview
     id="namedview1"
     pagecolor="#505050"
     bordercolor="#eeeeee"
     borderopacity="1"
     inkscape:showpageshadow="0"
     inkscape:pageopacity="0"
     inkscape:pagecheckerboard="0"
     inkscape:deskcolor="#d1d1d1" />
  <defs
     id="defs8">
    <style
       id="current-color-scheme"
       type="text/css">&#10;      .ColorScheme-Highlight {&#10;        color:#1e3f5a;&#10;      }&#10;  </style>
  </defs>
  <path
     class="ColorScheme-Highlight"
     style="fill:#bde6fb;fill-opacity:1"
     d="M 2,0 C 0.892,0 0,0.892 0,2 v 44 c 0,0.573014 0.2413622,1.085248 0.625,1.449219 0.3634702,0.378418 0.870888,0.615234 1.4394531,0.615234 H 38.064453 c 1.108,0 2,-0.892 2,-2 V 2.0644531 C 40.064453,1.495888 39.827637,0.98847016 39.449219,0.625 39.085248,0.24136217 38.573014,0 38,0 Z M 6.064453,3.0644531 H 22 V 21 l 4,-4 4,4 V 3.0644531 h 6.064453 c 0.259224,0 0.490663,0.1049547 0.667969,0.265625 C 36.894746,3.5077285 37,3.7392831 37,4 v 40 c 0,0.554 -0.446,1 -1,1 H 6.064453 Z M 17,25 a 5,5 0 0 0 -5,5 5,5 0 0 0 5,5 5,5 0 0 0 5,-5 5,5 0 0 0 -5,-5 z m -5.5,12 c -0.831,0 -1.5,0.669 -1.5,1.5 0,0.17676 0.03614,0.342779 0.0918,0.5 H 10 v 2 H 24 V 39 H 23.9082 C 23.963861,38.842779 24,38.67676 24,38.5 24,37.669 23.331,37 22.5,37 Z"
     id="rect815" />
</svg>
