<?xml version="1.0" encoding="UTF-8" standalone="no"?>
<svg
   width="45.996849"
   height="43.997478"
   viewBox="0 0 12.17 11.641"
   version="1.1"
   id="svg4"
   sodipodi:docname="x-package-repository.svg"
   inkscape:version="0.92.5 (2060ec1f9f, 2020-04-08)"
   xmlns:inkscape="http://www.inkscape.org/namespaces/inkscape"
   xmlns:sodipodi="http://sodipodi.sourceforge.net/DTD/sodipodi-0.dtd"
   xmlns="http://www.w3.org/2000/svg"
   xmlns:svg="http://www.w3.org/2000/svg">
  <sodipodi:namedview
     id="namedview1"
     pagecolor="#505050"
     bordercolor="#eeeeee"
     borderopacity="1"
     inkscape:showpageshadow="0"
     inkscape:pageopacity="0"
     inkscape:pagecheckerboard="0"
     inkscape:deskcolor="#d1d1d1" />
  <defs
     id="defs8">
    <style
       id="current-color-scheme"
       type="text/css">&#10;      .ColorScheme-Highlight {&#10;        color:#1e3f5a;&#10;      }&#10;  </style>
  </defs>
  <path
     class="ColorScheme-Highlight"
     style="fill:#bde6fb;fill-opacity:1"
     d="M 1.058,3.0040741e-8 1.4305115e-8,2.646 H 5.82 V 3.0040741e-8 Z m 5.292,0 V 2.646 h 5.82 L 11.112,3.0040741e-8 Z M 1.4305115e-8,3.175 v 6.35 C 1.4305115e-8,10.697 0.94400001,11.641 2.116,11.641 h 7.938 A 2.112,2.112 0 0 0 12.17,9.525 v -6.35 h -0.793 v 6.35 a 1.32,1.32 0 0 1 -1.323,1.323 H 2.115 A 1.32,1.32 0 0 1 0.79200001,9.525 V 3.175 Z M 3.175,3.439 2.381,5.027 h 3.44 V 3.439 Z m 3.175,0 V 5.027 H 9.79 L 8.995,3.439 Z M 2.38,5.556 v 3.44 c 0,0.586 0.473,1.058 1.06,1.058 h 5.29 c 0.587,0 1.06,-0.472 1.06,-1.058 V 5.556 H 8.995 v 3.175 c 0,0.293 -0.236,0.53 -0.529,0.53 H 3.705 A 0.528,0.528 0 0 1 3.175,8.731 V 5.556 H 2.382 Z"
     id="path2"
     inkscape:connector-curvature="0" />
</svg>
