<?xml version="1.0" encoding="UTF-8" standalone="no"?>
<svg
   width="47.546486"
   height="47.546486"
   viewBox="0 0 12.580008 12.580008"
   version="1.1"
   id="svg6"
   sodipodi:docname="face-clown.svg"
   inkscape:version="0.92.4 (5da689c313, 2019-01-14)"
   xmlns:inkscape="http://www.inkscape.org/namespaces/inkscape"
   xmlns:sodipodi="http://sodipodi.sourceforge.net/DTD/sodipodi-0.dtd"
   xmlns="http://www.w3.org/2000/svg"
   xmlns:svg="http://www.w3.org/2000/svg"
   xmlns:rdf="http://www.w3.org/1999/02/22-rdf-syntax-ns#"
   xmlns:cc="http://creativecommons.org/ns#"
   xmlns:dc="http://purl.org/dc/elements/1.1/">
  <metadata
     id="metadata12">
    <rdf:RDF>
      <cc:Work
         rdf:about="">
        <dc:format>image/svg+xml</dc:format>
        <dc:type
           rdf:resource="http://purl.org/dc/dcmitype/StillImage" />
        <dc:title />
      </cc:Work>
    </rdf:RDF>
  </metadata>
  <defs
     id="defs10" />
  <sodipodi:namedview
     pagecolor="#ffffff"
     bordercolor="#666666"
     borderopacity="1"
     objecttolerance="10"
     gridtolerance="10"
     guidetolerance="10"
     inkscape:pageopacity="0"
     inkscape:pageshadow="2"
     inkscape:window-width="1087"
     inkscape:window-height="480"
     id="namedview8"
     showgrid="false"
     inkscape:zoom="4.9166667"
     inkscape:cx="2.1355932"
     inkscape:cy="24"
     inkscape:window-x="0"
     inkscape:window-y="25"
     inkscape:window-maximized="0"
     inkscape:current-layer="svg6"
     inkscape:showpageshadow="0"
     inkscape:pagecheckerboard="0"
     inkscape:deskcolor="#d1d1d1" />
  <path
     d="M 6.2900079,0 A 6.29,6.29 0 0 0 7.9490244e-6,6.3 6.29,6.29 0 0 0 6.3000079,12.58 6.29,6.29 0 0 0 12.580008,6.29 6.29,6.29 0 0 0 6.2900079,0 Z m -0.02,0.93 0.01,0.01 A 5.4,5.4 0 0 1 11.680008,6.34 5.4,5.4 0 0 1 6.2800079,11.75 5.4,5.4 0 0 1 0.87000795,6.35 5.4,5.4 0 0 1 6.2700079,0.93 Z m 2.02,1.61 a 0.66,1.55 0 0 0 -0.65,1.55 0.66,1.55 0 0 0 0.65,1.54 0.66,1.55 0 0 0 0.66,-1.53 0.66,1.55 0 0 0 -0.66,-1.55 z m -3.99,0.03 a 0.66,1.55 0 0 1 0.01,0 z m 0,0 a 0.66,1.55 0 0 0 -0.65,1.56 0.66,1.55 0 0 0 0.66,1.54 0.66,1.55 0 0 0 0.64,-1.54 0.66,1.55 0 0 0 -0.64,-1.55 z m 3.98,0.41 a 0.2,0.3 0 0 1 0.2,0.3 0.2,0.3 0 0 1 -0.2,0.3 0.2,0.3 0 0 1 -0.2,-0.3 0.2,0.3 0 0 1 0.2,-0.3 z m -3.99,0.03 a 0.2,0.3 0 0 1 0.2,0.3 0.2,0.3 0 0 1 -0.2,0.3 0.2,0.3 0 0 1 -0.2,-0.3 0.2,0.3 0 0 1 0.2,-0.3 z m 5.2,4.43 c -0.02,0 -0.03,0 -0.05,0.02 -2,1.94 -4.09,2.2 -6.29,0 -0.07,-0.08 -0.07,0.08 -0.07,0.2 0,0.1 0,0.1 0.07,0.18 2.1,2.13 4.2,2.1 6.3,0 0.06,-0.08 0.04,-0.1 0.04,-0.22 0,-0.08 0.02,-0.17 0,-0.18 z m -3.98,2.61 v 0.01 c -0.06,0.13 -0.1,0.26 0,0.4 0.59,0.24 1.1,0.18 1.6,0 a 0.4,0.4 0 0 0 0,-0.4 c -0.5,0.2 -1.02,0.26 -1.6,0 z"
     id="path2"
     inkscape:connector-curvature="0"
     style="fill:#bde6fb;fill-opacity:1" />
  <path
     d="m 6.2900079,5.2 a 1.32,1.32 0 0 0 -1.32,1.33 1.32,1.32 0 0 0 1.32,1.32 1.32,1.32 0 0 0 1.31,-1.32 1.32,1.32 0 0 0 -1.31,-1.32 z m -0.4,1.9 a 0.2,0.15 0 0 1 0.2,0.16 0.2,0.15 0 0 1 -0.2,0.15 0.2,0.15 0 0 1 -0.2,-0.15 0.2,0.15 0 0 1 0.2,-0.15 z m 0.82,0 a 0.2,0.15 0 0 1 0.2,0.16 0.2,0.15 0 0 1 -0.2,0.15 0.2,0.15 0 0 1 -0.2,-0.15 0.2,0.15 0 0 1 0.2,-0.15 z"
     id="path4"
     inkscape:connector-curvature="0"
     style="opacity:0.75;fill:#d40000" />
</svg>
