<?xml version="1.0" encoding="UTF-8" standalone="no"?>
<svg
   width="47.546486"
   height="47.546486"
   viewBox="0 0 12.580008 12.580008"
   version="1.1"
   id="svg16"
   sodipodi:docname="face-angry.svg"
   inkscape:version="0.92.4 (5da689c313, 2019-01-14)"
   xmlns:inkscape="http://www.inkscape.org/namespaces/inkscape"
   xmlns:sodipodi="http://sodipodi.sourceforge.net/DTD/sodipodi-0.dtd"
   xmlns="http://www.w3.org/2000/svg"
   xmlns:svg="http://www.w3.org/2000/svg"
   xmlns:rdf="http://www.w3.org/1999/02/22-rdf-syntax-ns#"
   xmlns:cc="http://creativecommons.org/ns#"
   xmlns:dc="http://purl.org/dc/elements/1.1/">
  <metadata
     id="metadata20">
    <rdf:RDF>
      <cc:Work
         rdf:about="">
        <dc:format>image/svg+xml</dc:format>
        <dc:type
           rdf:resource="http://purl.org/dc/dcmitype/StillImage" />
        <dc:title />
      </cc:Work>
    </rdf:RDF>
  </metadata>
  <sodipodi:namedview
     pagecolor="#ffffff"
     bordercolor="#666666"
     borderopacity="1"
     objecttolerance="10"
     gridtolerance="10"
     guidetolerance="10"
     inkscape:pageopacity="0"
     inkscape:pageshadow="2"
     inkscape:window-width="1087"
     inkscape:window-height="480"
     id="namedview18"
     showgrid="false"
     inkscape:zoom="4.9166667"
     inkscape:cx="2.1355932"
     inkscape:cy="24"
     inkscape:window-x="0"
     inkscape:window-y="25"
     inkscape:window-maximized="0"
     inkscape:current-layer="svg16"
     inkscape:showpageshadow="0"
     inkscape:pagecheckerboard="0"
     inkscape:deskcolor="#d1d1d1" />
  <defs
     id="defs12" />
  <path
     style="overflow:visible;fill:#bde6fb;fill-opacity:1;marker:none"
     d="M 6.2900079,0 A 6.29,6.29 0 0 0 7.9490244e-6,6.3 6.29,6.29 0 0 0 6.3000079,12.58 6.29,6.29 0 0 0 12.580008,6.29 6.29,6.29 0 0 0 6.2900079,0 Z m -0.02,0.93 0.01,0.01 A 5.4,5.4 0 0 1 11.680008,6.34 5.4,5.4 0 0 1 6.2800079,11.75 5.4,5.4 0 0 1 0.87000795,6.35 5.4,5.4 0 0 1 6.2700079,0.93 Z m -2.15,2.69 c -0.22,0.28 -0.36,0.71 -0.36,1.2 0,0.84 0.43,1.53 0.96,1.53 0.39,0 0.72,-0.35 0.87,-0.85 a 6.4,6.4 0 0 1 -1.47,-1.88 z m 4.35,0 a 6.4,6.4 0 0 1 -1.48,1.88 c 0.16,0.5 0.5,0.85 0.87,0.85 0.54,0 0.97,-0.69 0.97,-1.54 0,-0.48 -0.14,-0.91 -0.36,-1.2 z m -3.52,1.86 a 0.2,0.22 0 0 1 0.2,0.21 0.2,0.22 0 0 1 -0.2,0.22 0.2,0.22 0 0 1 -0.19,-0.22 0.2,0.22 0 0 1 0.2,-0.21 z m 2.7,0 a 0.2,0.22 0 0 1 0.2,0.21 0.2,0.22 0 0 1 -0.2,0.22 0.2,0.22 0 0 1 -0.18,-0.22 0.2,0.22 0 0 1 0.19,-0.21 z m -1.4,1.72 c -2.11,0 -3.04,2.38 -2.48,2.2 a 9.72,9.72 0 0 1 5.04,-0.03 c 0.6,0.18 -0.48,-2.17 -2.57,-2.17 z m -0.02,0.21 0.09,0.7 h -0.04 c -0.51,-0.02 -1.37,-0.26 -1.38,-0.27 0.35,-0.24 0.79,-0.42 1.33,-0.43 z m 0.16,0 c 0.49,0.03 0.91,0.19 1.25,0.4 -0.04,0.02 -0.85,0.28 -1.31,0.29 l 0.06,-0.68 z m -1.89,0.78 0.75,0.01 -0.08,0.7 c -0.35,0.04 -0.67,0.1 -0.96,0.18 -0.25,0.07 -0.14,-0.42 0.3,-0.89 z m 0.77,0.01 1.05,0.02 -0.08,0.6 c -0.31,0 -0.62,0.02 -0.9,0.05 z m 1.06,0.02 h 1.02 l -0.07,0.64 a 9.6,9.6 0 0 0 -0.9,-0.04 l -0.06,-0.6 z m 1.06,0 0.76,0.02 c 0.42,0.44 0.53,0.88 0.27,0.82 a 7.4,7.4 0 0 0 -0.97,-0.18 l -0.06,-0.65 z"
     overflow="visible"
     id="path14"
     inkscape:connector-curvature="0" />
</svg>
