<?xml version="1.0" encoding="UTF-8" standalone="no"?>
<svg
   width="47.584312"
   height="47.546516"
   viewBox="0 0 12.590016 12.580016"
   version="1.1"
   id="svg16"
   sodipodi:docname="face-tired.svg"
   inkscape:version="0.92.4 (5da689c313, 2019-01-14)"
   xmlns:inkscape="http://www.inkscape.org/namespaces/inkscape"
   xmlns:sodipodi="http://sodipodi.sourceforge.net/DTD/sodipodi-0.dtd"
   xmlns:xlink="http://www.w3.org/1999/xlink"
   xmlns="http://www.w3.org/2000/svg"
   xmlns:svg="http://www.w3.org/2000/svg"
   xmlns:rdf="http://www.w3.org/1999/02/22-rdf-syntax-ns#"
   xmlns:cc="http://creativecommons.org/ns#"
   xmlns:dc="http://purl.org/dc/elements/1.1/">
  <metadata
     id="metadata20">
    <rdf:RDF>
      <cc:Work
         rdf:about="">
        <dc:format>image/svg+xml</dc:format>
        <dc:type
           rdf:resource="http://purl.org/dc/dcmitype/StillImage" />
        <dc:title />
      </cc:Work>
    </rdf:RDF>
  </metadata>
  <sodipodi:namedview
     pagecolor="#ffffff"
     bordercolor="#666666"
     borderopacity="1"
     objecttolerance="10"
     gridtolerance="10"
     guidetolerance="10"
     inkscape:pageopacity="0"
     inkscape:pageshadow="2"
     inkscape:window-width="1087"
     inkscape:window-height="480"
     id="namedview18"
     showgrid="false"
     inkscape:zoom="4.9166667"
     inkscape:cx="2.1355932"
     inkscape:cy="24"
     inkscape:window-x="0"
     inkscape:window-y="25"
     inkscape:window-maximized="0"
     inkscape:current-layer="svg16"
     inkscape:showpageshadow="0"
     inkscape:pagecheckerboard="0"
     inkscape:deskcolor="#d1d1d1" />
  <defs
     id="defs8">
    <linearGradient
       id="swatch2"
       inkscape:swatch="solid">
      <stop
         style="stop-color:#008080;stop-opacity:1;"
         offset="0"
         id="stop3" />
    </linearGradient>
    <linearGradient
       id="swatch1"
       inkscape:swatch="solid">
      <stop
         style="stop-color:#bde6fb;stop-opacity:1;"
         offset="0"
         id="stop1" />
    </linearGradient>
    <linearGradient
       id="a"
       inkscape:swatch="gradient">
      <stop
         offset="0"
         stop-color="#1e3f5a"
         stop-opacity="0"
         id="stop2" />
      <stop
         offset="1"
         stop-color="#1e3f5a"
         id="stop4" />
    </linearGradient>
    <linearGradient
       inkscape:collect="always"
       xlink:href="#swatch2"
       id="linearGradient3"
       x1="3.8921394"
       y1="9.3292389"
       x2="5.6246991"
       y2="9.3292389"
       gradientUnits="userSpaceOnUse" />
    <linearGradient
       inkscape:collect="always"
       xlink:href="#a"
       id="linearGradient4"
       x1="2.2500088"
       y1="8.1599579"
       x2="-7.867013"
       y2="10.641562"
       gradientUnits="userSpaceOnUse" />
    <linearGradient
       inkscape:collect="always"
       xlink:href="#swatch1"
       id="linearGradient5"
       gradientUnits="userSpaceOnUse"
       x1="0.019992039"
       y1="6.3400002"
       x2="12.610008"
       y2="6.3400002" />
  </defs>
  <path
     d="M 6.300008,7.9602003e-6 A 6.29,6.29 0 0 0 7.9613924e-6,6.300008 6.29,6.29 0 0 0 6.300008,12.580008 a 6.29,6.29 0 0 0 6.29,-6.3 6.29,6.29 0 0 0 -6.31,-6.27000004 z M 6.280008,0.93000796 a 5.4,5.4 0 0 1 5.4,5.40000004 5.4,5.4 0 0 1 -5.4,5.42 5.4,5.4 0 0 1 -5.40000004,-5.4 A 5.4,5.4 0 0 1 6.280008,0.93000796 Z m 1.97,1.30000004 a 0.6,0.6 0 0 0 -0.15,0 c -0.32,0.04 -0.64,0.34 -0.97,1.1 -0.05,0.13 0.04,0.3 0.2,0.2 0.59,-1.07 1.04,-1 1.85,-0.36 0.16,0.02 0.16,-0.22 0.11,-0.25 -0.34,-0.32 -0.69,-0.65 -1.04,-0.7 z m -3.41,0.6 c -0.32,-0.01 -0.69,0.22 -1.16,0.9 -0.08,0.13 -0.01,0.32 0.16,0.24 0.78,-0.94 1.2,-0.8 1.89,-0.01 0.15,0.05 0.2,-0.19 0.15,-0.22 -0.32,-0.44 -0.63,-0.88 -1.04,-0.9 z m 3.16,1.95 a 1.66,3.12 74.44 0 0 -1.49,0.17 1.66,3.12 74.44 0 0 -2.63,2.42 1.66,3.12 74.44 0 0 3.38,0.83 1.66,3.12 74.44 0 0 2.65,-2.42 1.66,3.12 74.44 0 0 -1.9,-1 z m -0.23,0.34 a 1.3,2.65 74.39 0 1 1.67,0.7 1.3,2.65 74.39 0 1 -2.16,1.97 1.3,2.65 74.39 0 1 -2.94,-0.5 1.3,2.65 74.39 0 1 2.16,-1.97 1.3,2.65 74.39 0 1 1.27,-0.2 z m 1.76,2.44 c -0.05,-0.01 -0.09,0 -0.12,0.03 -0.4,0.43 -0.88,0.7 -1.4,0.83 -0.1,0.02 -0.12,0.13 -0.08,0.2 l 0.01,0.02 c 0.04,0.06 0.13,0.05 0.22,0.03 a 2.8,2.8 0 0 0 1.4,-0.82 c 0.06,-0.07 0.12,-0.14 0.08,-0.2 l -0.02,-0.03 a 0.15,0.15 0 0 0 -0.1,-0.06 z"
     id="path10"
     inkscape:connector-curvature="0"
     style="fill:url(#linearGradient5)" />
  <path
     d="m 5.300008,8.380008 -0.4,-0.51 -0.21,0.34 c -0.46,0.46 -0.64,0.87 -0.78,1.27 -0.16,0.6 0.21,1.1 0.68,1.19 0.48,0.1 1.12,-0.21 1,-0.83 a 3.34,3.34 0 0 1 -0.3,-1.46 z m -0.72,0.82 h 0.06 c 0.1,0.06 0.11,0.27 0.01,0.48 -0.1,0.2 -0.27,0.32 -0.38,0.27 -0.1,-0.05 -0.11,-0.26 -0.01,-0.47 0.08,-0.16 0.2,-0.28 0.32,-0.28 z"
     id="path12"
     inkscape:connector-curvature="0"
     style="opacity:0.75;fill:url(#linearGradient3)" />
  <path
     transform="matrix(0.96841626,-0.24933904,0.21931112,0.97565498,0,0)"
     id="ellipse14"
     style="fill:url(#linearGradient4)"
     sodipodi:type="arc"
     sodipodi:cx="5.2814751"
     sodipodi:cy="8.106535"
     sodipodi:rx="3.0400116"
     sodipodi:ry="1.6499915"
     sodipodi:start="0"
     sodipodi:end="6.2762827"
     sodipodi:arc-type="slice"
     d="M 8.3214867,8.106535 A 3.0400116,1.6499915 0 0 1 5.2867211,9.756524 3.0400116,1.6499915 0 0 1 2.2414815,8.1122296 3.0400116,1.6499915 0 0 1 5.2657371,6.4565656 3.0400116,1.6499915 0 0 1 8.3214143,8.0951458 L 5.2814751,8.106535 Z" />
</svg>
