<?xml version="1.0" encoding="UTF-8" standalone="no"?>
<svg
   width="47.546486"
   height="47.546486"
   viewBox="0 0 12.580008 12.580008"
   version="1.1"
   id="svg6"
   sodipodi:docname="face-embarrassed.svg"
   inkscape:version="0.92.4 (5da689c313, 2019-01-14)"
   xmlns:inkscape="http://www.inkscape.org/namespaces/inkscape"
   xmlns:sodipodi="http://sodipodi.sourceforge.net/DTD/sodipodi-0.dtd"
   xmlns="http://www.w3.org/2000/svg"
   xmlns:svg="http://www.w3.org/2000/svg"
   xmlns:rdf="http://www.w3.org/1999/02/22-rdf-syntax-ns#"
   xmlns:cc="http://creativecommons.org/ns#"
   xmlns:dc="http://purl.org/dc/elements/1.1/">
  <metadata
     id="metadata12">
    <rdf:RDF>
      <cc:Work
         rdf:about="">
        <dc:format>image/svg+xml</dc:format>
        <dc:type
           rdf:resource="http://purl.org/dc/dcmitype/StillImage" />
        <dc:title />
      </cc:Work>
    </rdf:RDF>
  </metadata>
  <defs
     id="defs10" />
  <sodipodi:namedview
     pagecolor="#ffffff"
     bordercolor="#666666"
     borderopacity="1"
     objecttolerance="10"
     gridtolerance="10"
     guidetolerance="10"
     inkscape:pageopacity="0"
     inkscape:pageshadow="2"
     inkscape:window-width="1087"
     inkscape:window-height="480"
     id="namedview8"
     showgrid="false"
     inkscape:zoom="4.9166667"
     inkscape:cx="2.1355932"
     inkscape:cy="24"
     inkscape:window-x="0"
     inkscape:window-y="25"
     inkscape:window-maximized="0"
     inkscape:current-layer="svg6"
     inkscape:showpageshadow="0"
     inkscape:pagecheckerboard="0"
     inkscape:deskcolor="#d1d1d1" />
  <path
     style="overflow:visible;fill:#bde6fb;fill-opacity:1;marker:none"
     d="M 6.2900079,0 A 6.29,6.29 0 0 0 7.9490244e-6,6.3 6.29,6.29 0 0 0 6.3000079,12.58 6.29,6.29 0 0 0 12.580008,6.29 6.29,6.29 0 0 0 6.2900079,0 Z m -0.02,0.93 0.01,0.01 A 5.4,5.4 0 0 1 11.680008,6.34 5.4,5.4 0 0 1 6.2800079,11.75 5.4,5.4 0 0 1 0.87000795,6.35 5.4,5.4 0 0 1 6.2700079,0.93 Z m -2.08,2.15 c -0.68,0 -1.22,1.07 -1.54,1.73 0.59,-0.5 1.42,-2.21 2.53,-0.9 -0.35,-0.6 -0.68,-0.82 -0.99,-0.83 z m 4.22,0 c -0.3,0 -0.64,0.24 -1,0.83 1.12,-1.31 1.95,0.4 2.53,0.9 -0.31,-0.66 -0.86,-1.74 -1.53,-1.73 z m -4.08,1.67 c -0.35,0 -0.88,0.52 -0.88,0.52 0,0.84 0.31,2.47 0.67,2.47 0.35,0 0.64,-0.67 0.64,-1.5 0,-0.54 0.15,-1.49 -0.43,-1.49 z m 3.9,0 c -0.59,0 -0.43,0.95 -0.43,1.49 0,0.83 0.28,1.5 0.64,1.5 0.35,0 0.67,-1.63 0.67,-2.46 0,0 -0.53,-0.53 -0.89,-0.53 z m -4.08,0.3 a 0.21,0.33 0 0 1 0.21,0.33 0.21,0.33 0 0 1 -0.21,0.33 0.21,0.33 0 0 1 -0.22,-0.33 0.21,0.33 0 0 1 0.22,-0.33 z m 4.26,0 a 0.21,0.33 0 0 1 0.21,0.33 0.21,0.33 0 0 1 -0.21,0.33 0.21,0.33 0 0 1 -0.22,-0.33 0.21,0.33 0 0 1 0.22,-0.32 z m -0.99,4.86 c -0.54,0 -1.2,0.08 -1.7,0.2 1.82,0.3 2.62,0.1 2.62,0.1 0.03,-0.2 -0.38,-0.3 -0.92,-0.3 z"
     overflow="visible"
     id="path2"
     inkscape:connector-curvature="0" />
  <path
     d="m 2.8500079,7.58 a 0.77,0.79 0 0 0 -0.77,0.8 0.77,0.79 0 0 0 0.76,0.78 0.77,0.79 0 0 0 0.77,-0.79 0.77,0.79 0 0 0 -0.77,-0.79 z m 6.87,0 a 0.77,0.79 0 0 0 -0.76,0.8 0.77,0.79 0 0 0 0.76,0.78 A 0.77,0.79 0 0 0 10.490008,8.37 0.77,0.79 0 0 0 9.7200079,7.58 Z"
     id="path4"
     inkscape:connector-curvature="0"
     style="opacity:0.75;fill:#ff2a2a" />
</svg>
