<?xml version="1.0" encoding="UTF-8" standalone="no"?>
<svg
   width="47.54652"
   height="47.546486"
   viewBox="0 0 12.580017 12.580008"
   version="1.1"
   id="svg4"
   sodipodi:docname="face-angel.svg"
   inkscape:version="0.92.4 (5da689c313, 2019-01-14)"
   xmlns:inkscape="http://www.inkscape.org/namespaces/inkscape"
   xmlns:sodipodi="http://sodipodi.sourceforge.net/DTD/sodipodi-0.dtd"
   xmlns="http://www.w3.org/2000/svg"
   xmlns:svg="http://www.w3.org/2000/svg"
   xmlns:rdf="http://www.w3.org/1999/02/22-rdf-syntax-ns#"
   xmlns:cc="http://creativecommons.org/ns#"
   xmlns:dc="http://purl.org/dc/elements/1.1/">
  <metadata
     id="metadata10">
    <rdf:RDF>
      <cc:Work
         rdf:about="">
        <dc:format>image/svg+xml</dc:format>
        <dc:type
           rdf:resource="http://purl.org/dc/dcmitype/StillImage" />
        <dc:title />
      </cc:Work>
    </rdf:RDF>
  </metadata>
  <defs
     id="defs8" />
  <sodipodi:namedview
     pagecolor="#ffffff"
     bordercolor="#666666"
     borderopacity="1"
     objecttolerance="10"
     gridtolerance="10"
     guidetolerance="10"
     inkscape:pageopacity="0"
     inkscape:pageshadow="2"
     inkscape:window-width="1087"
     inkscape:window-height="480"
     id="namedview6"
     showgrid="false"
     inkscape:zoom="4.9166667"
     inkscape:cx="2.1355932"
     inkscape:cy="24"
     inkscape:window-x="0"
     inkscape:window-y="25"
     inkscape:window-maximized="0"
     inkscape:current-layer="svg4"
     inkscape:showpageshadow="0"
     inkscape:pagecheckerboard="0"
     inkscape:deskcolor="#d1d1d1" />
  <path
     d="m 6.2900172,0 a 6.29,6.29 0 0 0 -2.37,0.47 A 5.48,1.49 0 0 0 0.81001717,1.81 5.48,1.49 0 0 0 1.3200172,2.43 6.29,6.29 0 0 0 1.7165393e-5,6.3 6.29,6.29 0 0 0 6.3000172,12.58 6.29,6.29 0 0 0 12.580017,6.29 a 6.29,6.29 0 0 0 -1.33,-3.86 5.48,1.49 0 0 0 0.52,-0.62 5.48,1.49 0 0 0 -3.1199998,-1.34 6.29,6.29 0 0 0 -2.36,-0.47 z m -0.02,0.93 0.01,0.01 a 5.4,5.4 0 0 1 3.66,1.44 4.74,0.93 0 0 1 -3.65,0.33 4.74,0.93 0 0 1 -3.68,-0.34 5.4,5.4 0 0 1 3.66,-1.44 z m -3.67,0.27 a 6.29,6.29 0 0 0 -0.9,0.8 4.74,0.93 0 0 1 -0.15,-0.22 4.74,0.93 0 0 1 1.05,-0.58 z m 7.38,0 A 4.74,0.93 0 0 1 11.020017,1.78 4.74,0.93 0 0 1 10.880017,2 6.29,6.29 0 0 0 9.9800172,1.2 Z m -7.79,1.6 a 5.48,1.49 0 0 0 4.1,0.5 5.48,1.49 0 0 0 4.0599998,-0.5 5.4,5.4 0 0 1 1.33,3.54 A 5.4,5.4 0 0 1 6.2800172,11.75 5.4,5.4 0 0 1 0.87001717,6.35 5.4,5.4 0 0 1 2.1900172,2.8 Z m 6.1,1.13 a 0.66,1.55 0 0 0 -0.65,1.54 0.66,1.55 0 0 0 0.65,1.55 0.66,1.55 0 0 0 0.66,-1.55 0.66,1.55 0 0 0 -0.66,-1.54 z m -3.98,0.03 a 0.66,1.55 0 0 0 -0.66,1.54 0.66,1.55 0 0 0 0.66,1.55 0.66,1.55 0 0 0 0.64,-1.55 0.66,1.55 0 0 0 -0.65,-1.54 z m 3.97,0.41 a 0.2,0.3 0 0 1 0.2,0.3 0.2,0.3 0 0 1 -0.2,0.3 0.2,0.3 0 0 1 -0.2,-0.3 0.2,0.3 0 0 1 0.2,-0.3 z m -3.99,0.03 a 0.2,0.3 0 0 1 0.2,0.3 0.2,0.3 0 0 1 -0.2,0.3 0.2,0.3 0 0 1 -0.2,-0.3 0.2,0.3 0 0 1 0.2,-0.3 z m 5.2,3.36 c -0.02,0 -0.03,0 -0.05,0.02 -2,1.95 -4.09,2.21 -6.29,0 -0.07,-0.07 -0.07,0.09 -0.07,0.2 0,0.1 0,0.1 0.07,0.19 2.1,2.13 4.2,2.08 6.3,0 0.06,-0.09 0.04,-0.12 0.04,-0.22 0,-0.08 0.02,-0.18 0,-0.19 z m -3.97,2.63 c -0.06,0.14 -0.1,0.27 0,0.4 0.59,0.25 1.1,0.18 1.6,0 a 0.4,0.4 0 0 0 0,-0.4 c -0.5,0.2 -1.02,0.26 -1.6,0 z"
     id="path2"
     inkscape:connector-curvature="0"
     style="fill:#bde6fb;fill-opacity:1" />
</svg>
