<?xml version="1.0" encoding="UTF-8" standalone="no"?>
<svg
   width="47.546486"
   height="47.546486"
   viewBox="0 0 12.580008 12.580008"
   version="1.1"
   id="svg6"
   sodipodi:docname="face-crying.svg"
   inkscape:version="0.92.4 (5da689c313, 2019-01-14)"
   xmlns:inkscape="http://www.inkscape.org/namespaces/inkscape"
   xmlns:sodipodi="http://sodipodi.sourceforge.net/DTD/sodipodi-0.dtd"
   xmlns="http://www.w3.org/2000/svg"
   xmlns:svg="http://www.w3.org/2000/svg"
   xmlns:rdf="http://www.w3.org/1999/02/22-rdf-syntax-ns#"
   xmlns:cc="http://creativecommons.org/ns#"
   xmlns:dc="http://purl.org/dc/elements/1.1/">
  <metadata
     id="metadata12">
    <rdf:RDF>
      <cc:Work
         rdf:about="">
        <dc:format>image/svg+xml</dc:format>
        <dc:type
           rdf:resource="http://purl.org/dc/dcmitype/StillImage" />
        <dc:title />
      </cc:Work>
    </rdf:RDF>
  </metadata>
  <defs
     id="defs10" />
  <sodipodi:namedview
     pagecolor="#ffffff"
     bordercolor="#666666"
     borderopacity="1"
     objecttolerance="10"
     gridtolerance="10"
     guidetolerance="10"
     inkscape:pageopacity="0"
     inkscape:pageshadow="2"
     inkscape:window-width="1087"
     inkscape:window-height="480"
     id="namedview8"
     showgrid="false"
     inkscape:zoom="4.9166667"
     inkscape:cx="2.1355932"
     inkscape:cy="24"
     inkscape:window-x="0"
     inkscape:window-y="25"
     inkscape:window-maximized="0"
     inkscape:current-layer="svg6"
     inkscape:showpageshadow="0"
     inkscape:pagecheckerboard="0"
     inkscape:deskcolor="#d1d1d1" />
  <path
     d="m 3.9100079,5.3 0.15,0.29 c 0,0.24 -0.01,0.53 -0.17,0.9 -0.08,0.39 0.32,0.58 0.62,0.52 a 0.58,0.58 0 0 0 0.41,-0.74 c -0.08,-0.25 -0.2,-0.5 -0.48,-0.78 l -0.14,-0.15 z m 0.6,0.8 c 0.07,0 0.15,0.07 0.2,0.17 0.06,0.13 0.06,0.26 -0.01,0.3 -0.07,0.03 -0.17,-0.05 -0.24,-0.17 -0.06,-0.13 -0.05,-0.26 0.01,-0.3 z"
     id="path2"
     inkscape:connector-curvature="0"
     style="opacity:0.75;fill:#008080" />
  <path
     d="M 6.2900079,0 A 6.29,6.29 0 0 0 7.9490244e-6,6.3 6.29,6.29 0 0 0 6.3000079,12.58 6.29,6.29 0 0 0 12.580008,6.29 6.29,6.29 0 0 0 6.2900079,0 Z m -0.02,0.93 0.01,0.01 A 5.4,5.4 0 0 1 11.680008,6.34 5.4,5.4 0 0 1 6.2800079,11.75 5.4,5.4 0 0 1 0.87000795,6.35 5.4,5.4 0 0 1 6.2700079,0.93 Z m -1.9,1.34 a 7.72,7.72 0 0 1 -1.22,2.32 c 0.14,0.62 0.41,1.06 0.73,1.06 0.44,0 0.8,-0.85 0.8,-1.9 0,-0.6 -0.11,-1.13 -0.3,-1.48 z m 3.82,0 c -0.18,0.35 -0.3,0.88 -0.3,1.48 0,1.05 0.36,1.9 0.8,1.9 0.32,0 0.6,-0.44 0.73,-1.06 a 7.5,7.5 0 0 1 -1.23,-2.32 z m -4.07,2.15 a 0.21,0.33 0 0 1 0.2,0.33 0.21,0.33 0 0 1 -0.2,0.32 0.21,0.33 0 0 1 -0.21,-0.32 0.21,0.33 0 0 1 0.2,-0.33 z m 4.33,0 a 0.21,0.33 0 0 1 0.21,0.33 0.21,0.33 0 0 1 -0.21,0.32 0.21,0.33 0 0 1 -0.21,-0.32 0.21,0.33 0 0 1 0.2,-0.33 z m -2.15,2.88 c -1.05,0 -2.1,0.52 -3.15,1.59 -0.07,0.08 -0.07,0.08 -0.07,0.19 0,0.1 0,0.27 0.07,0.19 2.2,-2.2 4.29,-1.95 6.3,0 0.01,0.02 0.02,0.02 0.03,0.02 0.03,-0.01 0,-0.1 0,-0.18 0,-0.11 0.03,-0.14 -0.04,-0.22 -1.04,-1.06 -2.09,-1.58 -3.14,-1.59 z m 0.05,1.05 c -0.26,-0.01 -0.54,0.04 -0.83,0.17 -0.1,0.12 -0.06,0.25 0,0.39 0.58,-0.26 1.1,-0.2 1.6,0 a 0.4,0.4 0 0 0 0,-0.4 c -0.25,-0.09 -0.5,-0.15 -0.77,-0.16 z"
     id="path4"
     inkscape:connector-curvature="0"
     style="fill:#bde6fb;fill-opacity:1" />
</svg>
