<?xml version="1.0" encoding="UTF-8" standalone="no"?>
<svg
   width="47.546486"
   height="47.546486"
   viewBox="0 0 12.580008 12.580008"
   version="1.1"
   id="svg6"
   sodipodi:docname="face-in-love.svg"
   inkscape:version="0.92.4 (5da689c313, 2019-01-14)"
   xmlns:inkscape="http://www.inkscape.org/namespaces/inkscape"
   xmlns:sodipodi="http://sodipodi.sourceforge.net/DTD/sodipodi-0.dtd"
   xmlns="http://www.w3.org/2000/svg"
   xmlns:svg="http://www.w3.org/2000/svg"
   xmlns:rdf="http://www.w3.org/1999/02/22-rdf-syntax-ns#"
   xmlns:cc="http://creativecommons.org/ns#"
   xmlns:dc="http://purl.org/dc/elements/1.1/">
  <metadata
     id="metadata12">
    <rdf:RDF>
      <cc:Work
         rdf:about="">
        <dc:format>image/svg+xml</dc:format>
        <dc:type
           rdf:resource="http://purl.org/dc/dcmitype/StillImage" />
        <dc:title />
      </cc:Work>
    </rdf:RDF>
  </metadata>
  <defs
     id="defs10" />
  <sodipodi:namedview
     pagecolor="#ffffff"
     bordercolor="#666666"
     borderopacity="1"
     objecttolerance="10"
     gridtolerance="10"
     guidetolerance="10"
     inkscape:pageopacity="0"
     inkscape:pageshadow="2"
     inkscape:window-width="1087"
     inkscape:window-height="480"
     id="namedview8"
     showgrid="false"
     inkscape:zoom="4.9166667"
     inkscape:cx="2.1355932"
     inkscape:cy="24"
     inkscape:window-x="0"
     inkscape:window-y="25"
     inkscape:window-maximized="0"
     inkscape:current-layer="svg6"
     inkscape:showpageshadow="0"
     inkscape:pagecheckerboard="0"
     inkscape:deskcolor="#d1d1d1" />
  <path
     d="M 6.2900079,0 A 6.29,6.29 0 0 0 7.9490244e-6,6.3 6.29,6.29 0 0 0 6.3000079,12.58 6.29,6.29 0 0 0 12.580008,6.29 6.29,6.29 0 0 0 6.2900079,0 Z m -0.02,0.93 0.01,0.01 A 5.4,5.4 0 0 1 11.680008,6.34 5.4,5.4 0 0 1 6.2800079,11.75 5.4,5.4 0 0 1 0.87000795,6.35 5.4,5.4 0 0 1 6.2700079,0.93 Z m 3.22,6.38 c -0.02,0 -0.03,0 -0.05,0.02 -2,1.94 -4.09,2.2 -6.29,0 -0.07,-0.08 -0.07,0.08 -0.07,0.19 0,0.1 0,0.1 0.07,0.19 2.1,2.13 4.2,2.09 6.3,0 0.06,-0.08 0.04,-0.11 0.04,-0.22 0,-0.08 0.02,-0.17 0,-0.18 z m -3.98,2.61 v 0.01 c -0.06,0.13 -0.1,0.26 0,0.39 0.59,0.25 1.1,0.19 1.6,0 a 0.4,0.4 0 0 0 0,-0.4 c -0.5,0.2 -1.02,0.27 -1.6,0 z"
     id="path2"
     inkscape:connector-curvature="0"
     style="fill:#bde6fb;fill-opacity:1" />
  <path
     d="m 4.9900079,3.12 h -0.14 c -0.15,0.04 -0.31,0.14 -0.49,0.32 l -0.06,0.06 -0.06,-0.06 a 1.27,1.27 0 0 0 -0.38,-0.28 c -0.23,-0.09 -0.52,-0.03 -0.75,0.15 -0.25,0.2 -0.4,0.51 -0.44,0.87 V 4.6 c 0.06,0.38 0.23,0.72 0.5,1.05 0.2,0.23 0.4,0.42 0.78,0.7 0.18,0.14 0.29,0.23 0.32,0.27 l 0.03,0.03 0.03,-0.04 0.3,-0.22 c 0.43,-0.3 0.62,-0.47 0.83,-0.73 a 2,2 0 0 0 0.48,-1.3 c 0,-0.21 -0.03,-0.39 -0.1,-0.56 -0.14,-0.34 -0.4,-0.58 -0.7,-0.66 a 0.6,0.6 0 0 0 -0.15,-0.02 z m 3.97,0 h -0.14 c -0.15,0.04 -0.32,0.14 -0.49,0.32 l -0.06,0.06 -0.07,-0.06 a 1.27,1.27 0 0 0 -0.38,-0.28 c -0.22,-0.09 -0.51,-0.03 -0.74,0.15 -0.25,0.2 -0.4,0.51 -0.45,0.87 l 0.01,0.42 c 0.06,0.38 0.22,0.72 0.5,1.05 0.2,0.23 0.4,0.42 0.78,0.7 0.18,0.14 0.29,0.23 0.32,0.27 l 0.03,0.03 0.03,-0.04 0.3,-0.22 c 0.42,-0.3 0.62,-0.47 0.82,-0.73 a 2,2 0 0 0 0.49,-1.3 c 0,-0.21 -0.04,-0.39 -0.1,-0.56 -0.14,-0.34 -0.4,-0.58 -0.7,-0.66 a 0.6,0.6 0 0 0 -0.16,-0.01 z"
     id="path4"
     inkscape:connector-curvature="0"
     style="opacity:0.75;fill:#ff2a2a" />
</svg>
