<?xml version="1.0" encoding="UTF-8" standalone="no"?>
<svg
   width="47.546486"
   height="47.546486"
   viewBox="0 0 12.580008 12.580008"
   version="1.1"
   id="svg6"
   sodipodi:docname="face-raspberry.svg"
   inkscape:version="0.92.4 (5da689c313, 2019-01-14)"
   xmlns:inkscape="http://www.inkscape.org/namespaces/inkscape"
   xmlns:sodipodi="http://sodipodi.sourceforge.net/DTD/sodipodi-0.dtd"
   xmlns:xlink="http://www.w3.org/1999/xlink"
   xmlns="http://www.w3.org/2000/svg"
   xmlns:svg="http://www.w3.org/2000/svg"
   xmlns:rdf="http://www.w3.org/1999/02/22-rdf-syntax-ns#"
   xmlns:cc="http://creativecommons.org/ns#"
   xmlns:dc="http://purl.org/dc/elements/1.1/">
  <metadata
     id="metadata12">
    <rdf:RDF>
      <cc:Work
         rdf:about="">
        <dc:format>image/svg+xml</dc:format>
        <dc:type
           rdf:resource="http://purl.org/dc/dcmitype/StillImage" />
        <dc:title />
      </cc:Work>
    </rdf:RDF>
  </metadata>
  <defs
     id="defs10">
    <linearGradient
       id="swatch2"
       inkscape:swatch="solid">
      <stop
         style="stop-color:#bde6fb;stop-opacity:1;"
         offset="0"
         id="stop2" />
    </linearGradient>
    <linearGradient
       id="swatch1"
       inkscape:swatch="solid">
      <stop
         style="stop-color:#bde6fb;stop-opacity:1;"
         offset="0"
         id="stop1" />
    </linearGradient>
    <linearGradient
       inkscape:collect="always"
       xlink:href="#swatch2"
       id="linearGradient2"
       x1="5.5773172"
       y1="9.1199999"
       x2="10.015"
       y2="9.1199999"
       gradientUnits="userSpaceOnUse" />
    <linearGradient
       inkscape:collect="always"
       xlink:href="#swatch1"
       id="linearGradient3"
       gradientUnits="userSpaceOnUse"
       x1="0.049992051"
       y1="6.3600039"
       x2="12.63"
       y2="6.3600039" />
  </defs>
  <sodipodi:namedview
     pagecolor="#ffffff"
     bordercolor="#666666"
     borderopacity="1"
     objecttolerance="10"
     gridtolerance="10"
     guidetolerance="10"
     inkscape:pageopacity="0"
     inkscape:pageshadow="2"
     inkscape:window-width="1087"
     inkscape:window-height="480"
     id="namedview8"
     showgrid="false"
     inkscape:zoom="4.9166667"
     inkscape:cx="2.1355932"
     inkscape:cy="24"
     inkscape:window-x="0"
     inkscape:window-y="25"
     inkscape:window-maximized="0"
     inkscape:current-layer="svg6"
     inkscape:showpageshadow="0"
     inkscape:pagecheckerboard="0"
     inkscape:deskcolor="#d1d1d1" />
  <path
     d="M 6.2900081,0 C 2.812228,-4.400298e-6 -0.00552094,2.8222243 8.1203878e-6,6.3 0.00552662,9.7738729 2.8261352,12.585527 6.3000081,12.58 9.7699733,12.5745 12.580012,9.7599696 12.580008,6.29 12.580008,3.9569734 11.30983,1.9206127 9.4232781,0.83472144 8.5007586,0.30372323 7.4308525,0 6.2900081,0 Z m -0.02,0.93 0.01,0.01 c 0.8010914,0 1.5614401,0.17444 2.2451335,0.4874074 C 10.386731,2.2795684 11.680008,4.1587538 11.680008,6.34 11.685538,9.3262421 9.2662554,11.750005 6.2800081,11.75 3.293766,11.75553 0.870003,9.3362473 0.87000812,6.35 0.85893343,3.3598549 3.2798425,0.92997949 6.2700081,0.93 Z m 2.02,2.54 c -0.3605967,0.012833 -0.6500414,0.7030468 -0.65,1.55 0.00227,0.8430576 0.2910545,1.5272431 0.65,1.54 0.3612079,7.06e-5 0.6553393,-0.6817793 0.66,-1.53 0,-0.8560414 -0.2954921,-1.55 -0.66,-1.55 z m -3.98,0.03 c -0.3645079,0 -0.66,0.6939586 -0.66,1.55 0.00234,0.8521335 0.2971485,1.5400177 0.66,1.54 0.355028,-0.025263 0.6378714,-0.7058544 0.64,-1.54 4.14e-5,-0.8469532 -0.2894033,-1.5371674 -0.65,-1.55 z m 3.97,0.41 c 0.1104569,0 0.2,0.1343146 0.2,0.3 0,0.1656854 -0.089543,0.3 -0.2,0.3 -0.1104569,0 -0.2,-0.1343146 -0.2,-0.3 0,-0.1656854 0.089543,-0.3 0.2,-0.3 z m -3.99,0.03 c 0.1104569,0 0.2,0.1343146 0.2,0.3 0,0.1656854 -0.089543,0.3 -0.2,0.3 -0.1104569,0 -0.2,-0.1343146 -0.2,-0.3 0,-0.1656854 0.089543,-0.3 0.2,-0.3 z m -1.5,3.57 v 0.33 h 4.64 c 0.44,0.27 0.97,0.82 0.97,1.62 0,0.33 0.15,0.3 0.15,-0.02 0,-0.8 -0.35,-1.34 -0.61,-1.6 h 1.87 V 7.51 Z"
     id="path2"
     inkscape:connector-curvature="0"
     style="fill:url(#linearGradient3)"
     sodipodi:nodetypes="ccccscccsccccccccccccccccsssssssssscccsscccc" />
  <path
     d="m 5.6900081,7.67 c 0.34,0 1.37,0.52 1.37,1.73 0,0.57 0.61,1.03 1.37,1.03 0.76,0 1.37,-0.46 1.37,-1.03 0,-1.21 -1.37,-1.73 -1.71,-1.73 z"
     id="path4"
     inkscape:connector-curvature="0"
     style="fill:url(#linearGradient2);stroke:#d4d7fb;stroke-width:0.33;stroke-linecap:round;stroke-linejoin:round;stroke-dashoffset:0.7;stroke-opacity:1" />
</svg>
