<?xml version="1.0" encoding="UTF-8" standalone="no"?>
<svg
   width="47.546486"
   height="47.546486"
   viewBox="0 0 12.580008 12.580008"
   version="1.1"
   id="svg4"
   sodipodi:docname="face-sick.svg"
   inkscape:version="0.92.4 (5da689c313, 2019-01-14)"
   xmlns:inkscape="http://www.inkscape.org/namespaces/inkscape"
   xmlns:sodipodi="http://sodipodi.sourceforge.net/DTD/sodipodi-0.dtd"
   xmlns="http://www.w3.org/2000/svg"
   xmlns:svg="http://www.w3.org/2000/svg"
   xmlns:rdf="http://www.w3.org/1999/02/22-rdf-syntax-ns#"
   xmlns:cc="http://creativecommons.org/ns#"
   xmlns:dc="http://purl.org/dc/elements/1.1/">
  <metadata
     id="metadata10">
    <rdf:RDF>
      <cc:Work
         rdf:about="">
        <dc:format>image/svg+xml</dc:format>
        <dc:type
           rdf:resource="http://purl.org/dc/dcmitype/StillImage" />
        <dc:title />
      </cc:Work>
    </rdf:RDF>
  </metadata>
  <defs
     id="defs8" />
  <sodipodi:namedview
     pagecolor="#ffffff"
     bordercolor="#666666"
     borderopacity="1"
     objecttolerance="10"
     gridtolerance="10"
     guidetolerance="10"
     inkscape:pageopacity="0"
     inkscape:pageshadow="2"
     inkscape:window-width="1087"
     inkscape:window-height="480"
     id="namedview6"
     showgrid="false"
     inkscape:zoom="4.9166667"
     inkscape:cx="2.1355932"
     inkscape:cy="24"
     inkscape:window-x="0"
     inkscape:window-y="25"
     inkscape:window-maximized="0"
     inkscape:current-layer="svg4"
     inkscape:showpageshadow="0"
     inkscape:pagecheckerboard="0"
     inkscape:deskcolor="#d1d1d1" />
  <path
     style="overflow:visible;fill:#bde6fb;fill-opacity:1;marker:none"
     d="M 6.2900079,0 A 6.29,6.29 0 0 0 7.9490244e-6,6.3 6.29,6.29 0 0 0 6.3000079,12.58 6.29,6.29 0 0 0 12.580008,6.29 6.29,6.29 0 0 0 6.2900079,0 Z m -0.02,0.93 0.01,0.01 A 5.4,5.4 0 0 1 11.680008,6.34 5.4,5.4 0 0 1 6.2800079,11.75 5.4,5.4 0 0 1 0.87000795,6.35 5.4,5.4 0 0 1 6.2700079,0.93 Z m -1.09,2.77 a 9.2,9.2 0 0 0 -1.96,0.59 c -0.14,0.47 0,1.22 0.25,1.37 0.36,0.22 0.98,-0.17 1.39,-0.85 0.23,-0.4 0.34,-0.8 0.32,-1.11 z m 2.22,0 c -0.02,0.31 0.1,0.72 0.33,1.1 0.4,0.7 1.02,1.08 1.38,0.86 0.26,-0.15 0.39,-0.9 0.25,-1.37 a 9.2,9.2 0 0 0 -1.96,-0.6 z m -3.79,0.77 a 0.2,0.3 0 0 1 0.2,0.3 0.2,0.3 0 0 1 -0.2,0.3 0.2,0.3 0 0 1 -0.19,-0.3 0.2,0.3 0 0 1 0.2,-0.3 z m 5.36,0 a 0.2,0.3 0 0 1 0.2,0.3 0.2,0.3 0 0 1 -0.2,0.3 0.2,0.3 0 0 1 -0.2,-0.3 0.2,0.3 0 0 1 0.2,-0.3 z m -5.82,1.36 -0.15,0.02 c 0.02,0.24 0.1,0.48 0.3,0.54 0.38,0.13 0.87,0 1.33,-0.37 l -0.2,-0.11 c -0.36,0.21 -0.76,0.35 -1.02,0.26 -0.14,-0.05 -0.22,-0.18 -0.26,-0.34 z m 6.28,0 c -0.04,0.16 -0.12,0.3 -0.25,0.34 -0.27,0.09 -0.67,-0.05 -1.03,-0.26 l -0.2,0.11 c 0.46,0.37 0.95,0.5 1.33,0.37 0.2,-0.06 0.28,-0.3 0.3,-0.54 z m -6.07,1.34 c -0.11,0 -0.18,0.02 -0.2,0.01 1.87,0.55 2.97,2.3 5.07,2.28 0.3,0 0.62,-0.04 0.97,-0.13 l 0.13,-0.44 c -2.56,0.69 -3.3,-1.06 -5.48,-1.66 a 1.59,1.59 0 0 0 -0.49,-0.06 z m 2,1.71 -0.12,0.3 c 0.55,0.43 1.11,0.82 1.83,0.81 0.05,-0.15 0.05,-0.2 0.09,-0.35 -0.72,0.03 -1.25,-0.35 -1.8,-0.76 z"
     overflow="visible"
     id="path2"
     inkscape:connector-curvature="0" />
</svg>
