<?xml version="1.0" encoding="UTF-8" standalone="no"?>
<svg
   width="47.584312"
   height="47.546516"
   viewBox="0 0 12.590016 12.580016"
   version="1.1"
   id="svg8"
   sodipodi:docname="face-kiss.svg"
   inkscape:version="0.92.4 (5da689c313, 2019-01-14)"
   xmlns:inkscape="http://www.inkscape.org/namespaces/inkscape"
   xmlns:sodipodi="http://sodipodi.sourceforge.net/DTD/sodipodi-0.dtd"
   xmlns="http://www.w3.org/2000/svg"
   xmlns:svg="http://www.w3.org/2000/svg"
   xmlns:rdf="http://www.w3.org/1999/02/22-rdf-syntax-ns#"
   xmlns:cc="http://creativecommons.org/ns#"
   xmlns:dc="http://purl.org/dc/elements/1.1/">
  <metadata
     id="metadata14">
    <rdf:RDF>
      <cc:Work
         rdf:about="">
        <dc:format>image/svg+xml</dc:format>
        <dc:type
           rdf:resource="http://purl.org/dc/dcmitype/StillImage" />
        <dc:title />
      </cc:Work>
    </rdf:RDF>
  </metadata>
  <defs
     id="defs12" />
  <sodipodi:namedview
     pagecolor="#ffffff"
     bordercolor="#666666"
     borderopacity="1"
     objecttolerance="10"
     gridtolerance="10"
     guidetolerance="10"
     inkscape:pageopacity="0"
     inkscape:pageshadow="2"
     inkscape:window-width="1087"
     inkscape:window-height="480"
     id="namedview10"
     showgrid="false"
     inkscape:zoom="4.9166667"
     inkscape:cx="2.1355932"
     inkscape:cy="24"
     inkscape:window-x="0"
     inkscape:window-y="25"
     inkscape:window-maximized="0"
     inkscape:current-layer="svg8"
     inkscape:showpageshadow="0"
     inkscape:pagecheckerboard="0"
     inkscape:deskcolor="#d1d1d1" />
  <path
     d="m 3.480008,8.260008 c 1.43,-0.14 0.72,-1.7 1.85,-1.7 0.85,0 0.69,0.56 1,0.56 0.28,0 0.14,-0.56 1,-0.56 1.13,0 0.42,1.56 1.84,1.7 -1.7,0.14 -1.13,1.99 -2.84,1.99 -1.71,0 -1.14,-1.85 -2.84,-2 z"
     id="path2"
     inkscape:connector-curvature="0"
     style="opacity:0.75;fill:#ff2a2a" />
  <path
     d="m 3.490008,8.250008 c 1.43,-0.14 0.72,-1.7 1.85,-1.7 0.85,0 0.69,0.56 1,0.56 0.28,0 0.14,-0.56 1,-0.56 1.13,0 0.42,1.56 1.84,1.7 -1.7,0.14 -1.13,1.99 -2.84,1.99 -1.71,0 -1.14,-1.85 -2.84,-2 z"
     id="path4"
     inkscape:connector-curvature="0"
     style="fill:none;stroke:#bde6fb;stroke-width:0.33999;stroke-linecap:round;stroke-linejoin:round;stroke-dasharray:none;stroke-opacity:1" />
  <path
     d="M 6.300008,7.9602003e-6 A 6.29,6.29 0 0 0 7.9613924e-6,6.300008 6.29,6.29 0 0 0 6.300008,12.580008 a 6.29,6.29 0 0 0 6.29,-6.3 6.29,6.29 0 0 0 -6.31,-6.27000004 z M 6.280008,0.93000796 a 5.4,5.4 0 0 1 5.4,5.40000004 5.4,5.4 0 0 1 -5.4,5.42 5.4,5.4 0 0 1 -5.40000004,-5.4 A 5.4,5.4 0 0 1 6.280008,0.93000796 Z m -1.72,2.02000004 c -0.59,0.02 -1.2,0.28 -1.88,1.09 l -0.23,0.28 0.27,-0.24 c 1.04,-0.8 1.8,-0.93 2.5,-0.6 0.1,0.05 0.17,-0.16 0.14,-0.3 -0.02,-0.14 -0.12,-0.16 -0.23,-0.18 a 2.63,2.63 0 0 0 -0.57,-0.05 z m 3.49,0 c -0.2,0 -0.39,0.01 -0.58,0.05 -0.1,0.02 -0.2,0.04 -0.23,0.18 -0.02,0.14 0.04,0.35 0.14,0.3 0.71,-0.33 1.47,-0.2 2.5,0.6 0.17,0.13 0.27,0.24 0.27,0.24 0.01,-0.01 -0.12,-0.16 -0.22,-0.28 -0.68,-0.81 -1.3,-1.07 -1.88,-1.1 z m -0.13,1.66 c -0.3,0 -0.58,0.09 -0.85,0.2 -0.13,0.06 -0.25,0.12 -0.25,0.26 0,0.14 0.13,0.31 0.25,0.25 0.61,-0.31 1.21,-0.44 1.8,0 0.1,0.08 0.25,-0.11 0.25,-0.25 0,-0.14 -0.13,-0.19 -0.26,-0.25 a 1.92,1.92 0 0 0 -0.94,-0.21 z m -3.25,0 c -0.3,-0.01 -0.61,0.05 -0.95,0.21 -0.12,0.06 -0.25,0.11 -0.25,0.25 0,0.14 0.14,0.34 0.25,0.25 0.58,-0.43 1.19,-0.3 1.8,0 0.12,0.07 0.25,-0.1 0.25,-0.25 0,-0.14 -0.13,-0.2 -0.25,-0.25 -0.28,-0.12 -0.56,-0.2 -0.85,-0.21 z m 0.96,3.19 c -0.4,0.35 -2.1,0.5 -2.1,0.5 0,0 1.57,-0.15 1.92,-0.15 0.35,0 0.88,0.52 0.88,0.52 0,0 0.53,-0.52 0.88,-0.52 0.35,0 1.93,0.15 1.93,0.15 0,0 -1.63,-0.15 -2.11,-0.5 -0.52,0.35 -0.7,0.7 -0.7,0.7 0,0 -0.18,-0.35 -0.7,-0.7 z"
     id="path6"
     inkscape:connector-curvature="0"
     style="fill:#bde6fb;fill-opacity:1" />
</svg>
