<?xml version="1.0" encoding="UTF-8" standalone="no"?>
<svg
   width="47.546455"
   height="47.508694"
   viewBox="0 0 12.58 12.570009"
   version="1.1"
   id="svg4"
   sodipodi:docname="face-monkey.svg"
   inkscape:version="0.92.4 (5da689c313, 2019-01-14)"
   xmlns:inkscape="http://www.inkscape.org/namespaces/inkscape"
   xmlns:sodipodi="http://sodipodi.sourceforge.net/DTD/sodipodi-0.dtd"
   xmlns="http://www.w3.org/2000/svg"
   xmlns:svg="http://www.w3.org/2000/svg"
   xmlns:rdf="http://www.w3.org/1999/02/22-rdf-syntax-ns#"
   xmlns:cc="http://creativecommons.org/ns#"
   xmlns:dc="http://purl.org/dc/elements/1.1/">
  <metadata
     id="metadata10">
    <rdf:RDF>
      <cc:Work
         rdf:about="">
        <dc:format>image/svg+xml</dc:format>
        <dc:type
           rdf:resource="http://purl.org/dc/dcmitype/StillImage" />
        <dc:title />
      </cc:Work>
    </rdf:RDF>
  </metadata>
  <defs
     id="defs8" />
  <sodipodi:namedview
     pagecolor="#ffffff"
     bordercolor="#666666"
     borderopacity="1"
     objecttolerance="10"
     gridtolerance="10"
     guidetolerance="10"
     inkscape:pageopacity="0"
     inkscape:pageshadow="2"
     inkscape:window-width="1087"
     inkscape:window-height="480"
     id="namedview6"
     showgrid="false"
     inkscape:zoom="4.9166667"
     inkscape:cx="2.1355932"
     inkscape:cy="24"
     inkscape:window-x="0"
     inkscape:window-y="25"
     inkscape:window-maximized="0"
     inkscape:current-layer="svg4"
     inkscape:showpageshadow="0"
     inkscape:pagecheckerboard="0"
     inkscape:deskcolor="#d1d1d1" />
  <path
     d="m 6.2900004,0 a 6.29,6.29 0 0 0 -2.31,0.45 2.52,2.43 0 0 0 -1.39,-0.4 2.52,2.43 0 0 0 -2.51999996,2.43 2.52,2.43 0 0 0 0.43,1.35 A 6.29,6.29 0 0 0 4.4256449e-7,6.29 6.29,6.29 0 0 0 6.3000004,12.57 6.29,6.29 0 0 0 12.58,6.28 6.29,6.29 0 0 0 12.09,3.85 2.52,2.43 0 0 0 12.55,2.47 2.52,2.43 0 0 0 10.02,0.05 2.52,2.43 0 0 0 8.6200004,0.45 6.29,6.29 0 0 0 6.3000004,0 Z M 10.02,0.95 A 1.58,1.52 0 0 1 11.61,2.48 1.58,1.52 0 0 1 11.55,2.86 6.29,6.29 0 0 0 9.6800004,0.99 1.58,1.52 0 0 1 10.02,0.95 Z m -7.4299996,0 a 1.58,1.52 0 0 1 0.33,0.04 6.29,6.29 0 0 0 -1.87,1.83 1.58,1.52 0 0 1 -0.04,-0.34 1.58,1.52 0 0 1 1.58,-1.53 z m 0.36,1.8 c 1.07,-0.03 2.39,0.88 3.34,2.35 1.27,-1.95 3.17,-2.92 4.2999996,-2.01 a 5.4,5.4 0 0 1 1.08,2.96 c -0.02,0.6 -0.25,1.28 -1.26,1.53 a 3.54,3.54 0 0 1 -1.1999996,3.3 5.4,5.4 0 0 1 -2.93,0.87 5.4,5.4 0 0 1 -2.88,-0.83 c -0.76,-0.77 -1.43,-1.6 -1.23,-3.34 -1.1,-0.27 -1.26999996,-1.05 -1.25999996,-1.7 l -0.02,0.07 A 5.4,5.4 0 0 1 1.8900004,3.17 c 0.3,-0.28 0.67,-0.42 1.06,-0.43 z m 0.7,1.47 a 0.9,0.97 0 0 0 -0.9,0.98 0.9,0.97 0 0 0 0.9,0.98 0.9,0.97 0 0 0 0.92,-0.98 0.9,0.97 0 0 0 -0.92,-0.96 z m 5.16,0 a 0.9,0.97 0 0 0 -0.92,0.98 0.9,0.97 0 0 0 0.92,0.98 0.9,0.97 0 0 0 0.9,-0.98 0.9,0.97 0 0 0 -0.9,-0.96 z m -5.19,0.3 a 0.32,0.14 0 0 1 0.03,0 0.32,0.14 0 0 1 0.31,0.13 0.32,0.14 0 0 1 -0.31,0.14 0.32,0.14 0 0 1 -0.32,-0.14 0.32,0.14 0 0 1 0.3,-0.14 z m 5.15,0 h 0.01 a 0.32,0.14 0 0 1 0.03,0 0.32,0.14 0 0 1 0.3,0.13 0.32,0.14 0 0 1 -0.3,0.14 0.32,0.14 0 0 1 -0.31,-0.14 0.32,0.14 0 0 1 0.27,-0.14 z m -3.1,2.36 a 0.3,0.59 76.61 0 0 -0.23,0.03 0.3,0.59 76.61 0 0 -0.5,0.43 0.3,0.59 76.61 0 0 0.64,0.15 0.3,0.59 76.61 0 0 0.5,-0.42 0.3,0.59 76.61 0 0 -0.42,-0.19 z m 1.27,0 a 0.59,0.3 13.39 0 0 -0.42,0.19 0.59,0.3 13.39 0 0 0.5,0.42 0.59,0.3 13.39 0 0 0.64,-0.15 0.59,0.3 13.39 0 0 -0.5,-0.43 0.59,0.3 13.39 0 0 -0.22,-0.03 z m 2.52,0.54 -0.04,0.02 c -2,1.95 -4.09,2.2 -6.29,0 -0.07,-0.07 -0.07,0.09 -0.07,0.2 0,0.1 0,0.1 0.07,0.18 2.1,2.14 4.2,2.09 6.3,0 0.06,-0.08 0.04,-0.1 0.04,-0.22 0,-0.07 0.01,-0.17 -0.01,-0.18 z m -3.96,2.63 c -0.06,0.14 -0.1,0.27 0,0.39 0.59,0.26 1.1,0.19 1.6,0 a 0.4,0.4 0 0 0 0,-0.39 c -0.5,0.2 -1.03,0.26 -1.6,0 z"
     id="path2"
     inkscape:connector-curvature="0"
     style="fill:#bde6fb;fill-opacity:1" />
</svg>
