<?xml version="1.0" encoding="UTF-8" standalone="no"?>
<svg
   width="47.584312"
   height="47.546516"
   viewBox="0 0 12.590016 12.580016"
   version="1.1"
   id="svg21"
   sodipodi:docname="face-laugh.svg"
   inkscape:version="0.92.4 (5da689c313, 2019-01-14)"
   xmlns:inkscape="http://www.inkscape.org/namespaces/inkscape"
   xmlns:sodipodi="http://sodipodi.sourceforge.net/DTD/sodipodi-0.dtd"
   xmlns="http://www.w3.org/2000/svg"
   xmlns:svg="http://www.w3.org/2000/svg"
   xmlns:rdf="http://www.w3.org/1999/02/22-rdf-syntax-ns#"
   xmlns:cc="http://creativecommons.org/ns#"
   xmlns:dc="http://purl.org/dc/elements/1.1/">
  <metadata
     id="metadata25">
    <rdf:RDF>
      <cc:Work
         rdf:about="">
        <dc:format>image/svg+xml</dc:format>
        <dc:type
           rdf:resource="http://purl.org/dc/dcmitype/StillImage" />
        <dc:title />
      </cc:Work>
    </rdf:RDF>
  </metadata>
  <sodipodi:namedview
     pagecolor="#ffffff"
     bordercolor="#666666"
     borderopacity="1"
     objecttolerance="10"
     gridtolerance="10"
     guidetolerance="10"
     inkscape:pageopacity="0"
     inkscape:pageshadow="2"
     inkscape:window-width="1087"
     inkscape:window-height="480"
     id="namedview23"
     showgrid="false"
     inkscape:zoom="4.9166667"
     inkscape:cx="2.1355932"
     inkscape:cy="24"
     inkscape:window-x="0"
     inkscape:window-y="25"
     inkscape:window-maximized="0"
     inkscape:current-layer="svg21"
     inkscape:showpageshadow="0"
     inkscape:pagecheckerboard="0"
     inkscape:deskcolor="#d1d1d1" />
  <defs
     id="defs17" />
  <path
     d="M 6.300008,7.9602003e-6 A 6.29,6.29 0 0 0 7.9613924e-6,6.300008 6.29,6.29 0 0 0 6.300008,12.580008 a 6.29,6.29 0 0 0 6.29,-6.3 6.29,6.29 0 0 0 -6.31,-6.27000004 z M 6.280008,0.93000796 a 5.4,5.4 0 0 1 5.4,5.40000004 5.4,5.4 0 0 1 -5.4,5.42 5.4,5.4 0 0 1 -5.40000004,-5.4 A 5.4,5.4 0 0 1 6.280008,0.93000796 Z m -2.08,1.84000004 c -0.32,-0.02 -0.7,0.22 -1.16,0.9 -0.08,0.13 -0.01,0.31 0.15,0.24 0.79,-0.95 1.22,-0.8 1.9,-0.02 0.15,0.05 0.2,-0.18 0.15,-0.22 -0.32,-0.44 -0.64,-0.88 -1.04,-0.9 z m 4.37,0 c -0.31,-0.02 -0.68,0.22 -1.15,0.9 -0.08,0.13 -0.02,0.31 0.15,0.24 0.78,-0.95 1.21,-0.8 1.9,-0.02 0.14,0.05 0.19,-0.18 0.15,-0.22 -0.32,-0.44 -0.64,-0.88 -1.05,-0.9 z m 2.1,2.47 c -2.56,0.74 -5.2,0.66 -8.76,0.03 -0.21,7.47 9.17,6.97 8.76,-0.03 z m -0.4,0.53 a 4.9,4.9 0 0 1 -0.15,1.66 l -1.12,0.02 -0.13,-1.4 c 0.48,-0.06 0.94,-0.15 1.4,-0.28 z m -7.96,0.02 1.4,0.2 -0.13,1.46 -1.08,-0.02 a 5.48,5.48 0 0 1 -0.19,-1.64 z m 1.44,0.2 c 0.9,0.12 1.72,0.19 2.51,0.2 l -0.15,1.48 -1.01,0.1 -1.15,-0.27 -0.2,-1.5 z m 5.07,0.08 -0.19,1.43 -1.15,0.27 -1.01,-0.1 -0.18,-1.47 c 0.89,0.02 1.72,-0.02 2.53,-0.13 z m 1.3,1.36 a 3.8,3.8 0 0 1 -1.26,1.95 l 0.15,-1.54 1.1,-0.4 z m -7.62,0.02 1.07,0.4 0.15,1.53 a 3.84,3.84 0 0 1 -1.22,-1.93 z m 2.62,0.4 0.97,0.23 0.17,2.2 c -0.9,0 -1.8,-0.29 -2.52,-0.88 l 0.23,-1.5 z m 2.34,0 1.15,0.05 0.23,1.49 c -0.72,0.59 -1.64,0.89 -2.56,0.9 l 0.2,-2.2 z"
     id="path19"
     inkscape:connector-curvature="0"
     style="fill:#bde6fb;fill-opacity:1" />
</svg>
