<?xml version="1.0" encoding="UTF-8" standalone="no"?>
<svg
   width="47.546486"
   height="47.546486"
   viewBox="0 0 12.580008 12.580008"
   version="1.1"
   id="svg4"
   sodipodi:docname="face-cool.svg"
   inkscape:version="0.92.4 (5da689c313, 2019-01-14)"
   xmlns:inkscape="http://www.inkscape.org/namespaces/inkscape"
   xmlns:sodipodi="http://sodipodi.sourceforge.net/DTD/sodipodi-0.dtd"
   xmlns="http://www.w3.org/2000/svg"
   xmlns:svg="http://www.w3.org/2000/svg"
   xmlns:rdf="http://www.w3.org/1999/02/22-rdf-syntax-ns#"
   xmlns:cc="http://creativecommons.org/ns#"
   xmlns:dc="http://purl.org/dc/elements/1.1/">
  <metadata
     id="metadata10">
    <rdf:RDF>
      <cc:Work
         rdf:about="">
        <dc:format>image/svg+xml</dc:format>
        <dc:type
           rdf:resource="http://purl.org/dc/dcmitype/StillImage" />
        <dc:title />
      </cc:Work>
    </rdf:RDF>
  </metadata>
  <defs
     id="defs8" />
  <sodipodi:namedview
     pagecolor="#ffffff"
     bordercolor="#666666"
     borderopacity="1"
     objecttolerance="10"
     gridtolerance="10"
     guidetolerance="10"
     inkscape:pageopacity="0"
     inkscape:pageshadow="2"
     inkscape:window-width="1087"
     inkscape:window-height="480"
     id="namedview6"
     showgrid="false"
     inkscape:zoom="4.9166667"
     inkscape:cx="2.1355932"
     inkscape:cy="24"
     inkscape:window-x="0"
     inkscape:window-y="25"
     inkscape:window-maximized="0"
     inkscape:current-layer="svg4"
     inkscape:showpageshadow="0"
     inkscape:pagecheckerboard="0"
     inkscape:deskcolor="#d1d1d1" />
  <path
     d="M 6.2900079,0 A 6.29,6.29 0 0 0 7.9490244e-6,6.3 6.29,6.29 0 0 0 6.3000079,12.58 6.29,6.29 0 0 0 12.580008,6.29 6.29,6.29 0 0 0 6.2900079,0 Z m -0.02,0.93 0.01,0.01 a 5.4,5.4 0 0 1 4.8200001,2.97 c -0.28,-0.1 -0.6,-0.14 -0.95,-0.14 -1.0100001,0 -2.2200001,0.41 -3.1900001,1.04 -0.4,-0.23 -0.84,-0.33 -1.36,0.01 a 6.27,6.27 0 0 0 -3.2,-1.05 c -0.35,0 -0.67,0.05 -0.95,0.15 a 5.4,5.4 0 0 1 4.82,-2.99 z m -4,3.21 c 0.62,-0.04 1.9,0.35 2.14,0.7 -0.3,-0.28 -1.49,-0.5 -2.08,-0.45 -0.93,0.05 -1.25,0.57 -1.25,0.57 0,0 0.16,-0.75 1.19,-0.82 z m 8.0200001,0 c 1.02,0.07 1.18,0.82 1.18,0.82 0,0 -0.32,-0.52 -1.25,-0.57 -0.6000001,-0.04 -1.7900001,0.17 -2.0800001,0.45 0.23,-0.35 1.52,-0.74 2.1500001,-0.7 z M 6.2400079,5.02 c 0.15,0 0.28,0.04 0.42,0.11 a 0.6,0.6 0 0 0 0.08,0.42 c 1.16,1.54 3.8400001,1.27 4.9000001,0.2 a 5.4,5.4 0 0 1 0.04,0.59 5.4,5.4 0 0 1 -5.4000001,5.41 5.4,5.4 0 0 1 -5.40999995,-5.4 5.4,5.4 0 0 1 0.03,-0.6 C 1.9600079,6.82 4.6500079,7.09 5.8100079,5.55 a 0.6,0.6 0 0 0 0.08,-0.43 c 0.12,-0.07 0.24,-0.1 0.35,-0.1 z m 3.24,2.29 -0.04,0.02 c -2,1.94 -4.09,2.2 -6.29,0 -0.07,-0.08 -0.07,0.08 -0.07,0.19 0,0.1 0,0.1 0.07,0.19 2.1,2.13 4.2,2.09 6.3,0 0.06,-0.08 0.04,-0.11 0.04,-0.22 0,-0.08 0.02,-0.17 0,-0.18 z m -3.96,2.62 c -0.06,0.13 -0.1,0.26 0,0.39 0.59,0.25 1.1,0.19 1.6,0 a 0.4,0.4 0 0 0 0,-0.4 c -0.5,0.2 -1.02,0.27 -1.6,0 z"
     id="path2"
     inkscape:connector-curvature="0"
     style="fill:#bde6fb;fill-opacity:1" />
</svg>
