<?xml version="1.0" encoding="UTF-8" standalone="no"?>
<svg
   width="47.584312"
   height="47.546516"
   viewBox="0 0 12.590016 12.580016"
   version="1.1"
   id="svg21"
   sodipodi:docname="face-smile-big.svg"
   inkscape:version="0.92.4 (5da689c313, 2019-01-14)"
   xmlns:inkscape="http://www.inkscape.org/namespaces/inkscape"
   xmlns:sodipodi="http://sodipodi.sourceforge.net/DTD/sodipodi-0.dtd"
   xmlns="http://www.w3.org/2000/svg"
   xmlns:svg="http://www.w3.org/2000/svg"
   xmlns:rdf="http://www.w3.org/1999/02/22-rdf-syntax-ns#"
   xmlns:cc="http://creativecommons.org/ns#"
   xmlns:dc="http://purl.org/dc/elements/1.1/">
  <metadata
     id="metadata25">
    <rdf:RDF>
      <cc:Work
         rdf:about="">
        <dc:format>image/svg+xml</dc:format>
        <dc:type
           rdf:resource="http://purl.org/dc/dcmitype/StillImage" />
        <dc:title />
      </cc:Work>
    </rdf:RDF>
  </metadata>
  <sodipodi:namedview
     pagecolor="#ffffff"
     bordercolor="#666666"
     borderopacity="1"
     objecttolerance="10"
     gridtolerance="10"
     guidetolerance="10"
     inkscape:pageopacity="0"
     inkscape:pageshadow="2"
     inkscape:window-width="1087"
     inkscape:window-height="480"
     id="namedview23"
     showgrid="false"
     inkscape:zoom="4.9166667"
     inkscape:cx="2.1355932"
     inkscape:cy="24"
     inkscape:window-x="0"
     inkscape:window-y="25"
     inkscape:window-maximized="0"
     inkscape:current-layer="svg21"
     inkscape:showpageshadow="0"
     inkscape:pagecheckerboard="0"
     inkscape:deskcolor="#d1d1d1" />
  <defs
     id="defs17" />
  <path
     d="M 6.300008,7.9602003e-6 A 6.29,6.29 0 0 0 7.9613924e-6,6.300008 6.29,6.29 0 0 0 6.300008,12.580008 a 6.29,6.29 0 0 0 6.29,-6.3 6.29,6.29 0 0 0 -6.31,-6.27000004 z M 6.280008,0.93000796 a 5.4,5.4 0 0 1 5.4,5.40000004 5.4,5.4 0 0 1 -5.4,5.42 5.4,5.4 0 0 1 -5.40000004,-5.4 A 5.4,5.4 0 0 1 6.280008,0.93000796 Z m -2.08,1.84000004 c -0.32,-0.02 -0.7,0.22 -1.16,0.9 -0.08,0.13 -0.01,0.31 0.15,0.24 0.79,-0.95 1.22,-0.8 1.9,-0.02 0.15,0.05 0.2,-0.18 0.15,-0.22 -0.32,-0.44 -0.64,-0.88 -1.04,-0.9 z m 4.37,0 c -0.31,-0.02 -0.68,0.22 -1.15,0.9 -0.08,0.13 -0.02,0.31 0.15,0.24 0.78,-0.95 1.21,-0.8 1.9,-0.02 0.14,0.05 0.19,-0.18 0.15,-0.22 -0.32,-0.44 -0.64,-0.88 -1.05,-0.9 z m -5.52,2.74 c -0.05,0.02 -0.03,0.11 -0.03,0.23 0,0.15 0.02,0.2 0.1,0.33 2.2,3.29 4.3,2.9 6.37,0 0.09,-0.12 0.12,-0.15 0.12,-0.3 0,-0.15 0.02,-0.29 -0.12,-0.25 a 10.37,10.37 0 0 1 -6.44,0 z m 0.65,0.5 h 0.06 c 0.34,0.1 0.67,0.18 0.99,0.23 l -0.05,0.73 -0.52,-0.05 a 7.03,7.03 0 0 1 -0.42,-0.51 c -0.07,-0.1 -0.09,-0.14 -0.09,-0.25 0,-0.08 -0.01,-0.14 0.03,-0.16 z m 5.1,0 c 0.12,-0.03 0.1,0.07 0.1,0.18 0,0.1 -0.03,0.13 -0.1,0.22 -0.14,0.18 -0.29,0.34 -0.43,0.5 l -0.5,0.05 -0.05,-0.74 c 0.33,-0.06 0.66,-0.13 0.98,-0.21 z m -1.02,0.22 -0.06,0.75 -0.62,0.11 c 0.2,-0.02 0.52,0.02 0.63,0.04 l 0.03,0.34 c -0.47,0.37 -0.95,0.58 -1.43,0.6 l 0.07,-0.86 0.7,-0.12 -0.7,-0.03 -0.07,-0.7 c 0.5,0 0.98,-0.05 1.45,-0.13 z m -3,0.02 c 0.53,0.1 1.03,0.12 1.5,0.12 l -0.07,0.69 -0.74,0.04 0.74,0.11 0.08,0.86 c -0.5,0.01 -0.99,-0.17 -1.49,-0.56 l 0.04,-0.37 c 0.1,-0.01 0.43,-0.05 0.63,-0.04 l -0.63,-0.1 -0.05,-0.75 z m 3.5,0.76 c -0.15,0.15 -0.3,0.28 -0.44,0.4 l 0.02,-0.29 c 0.04,0 0.21,-0.06 0.42,-0.11 z m -4.02,0 0.45,0.13 0.02,0.32 a 4.79,4.79 0 0 1 -0.47,-0.45 z m 1.05,1.7 c -0.08,0.18 -0.12,0.34 0,0.5 0.73,0.32 1.37,0.23 1.97,0 a 0.52,0.52 0 0 0 0,-0.5 c -0.61,0.26 -1.26,0.33 -1.97,0 z"
     id="path19"
     inkscape:connector-curvature="0"
     style="fill:#bde6fb;fill-opacity:1" />
</svg>
