<?xml version="1.0" encoding="UTF-8" standalone="no"?>
<svg
   width="47.546486"
   height="47.546486"
   viewBox="0 0 12.580008 12.580008"
   version="1.1"
   id="svg4"
   sodipodi:docname="face-quiet.svg"
   inkscape:version="0.92.4 (5da689c313, 2019-01-14)"
   xmlns:inkscape="http://www.inkscape.org/namespaces/inkscape"
   xmlns:sodipodi="http://sodipodi.sourceforge.net/DTD/sodipodi-0.dtd"
   xmlns="http://www.w3.org/2000/svg"
   xmlns:svg="http://www.w3.org/2000/svg"
   xmlns:rdf="http://www.w3.org/1999/02/22-rdf-syntax-ns#"
   xmlns:cc="http://creativecommons.org/ns#"
   xmlns:dc="http://purl.org/dc/elements/1.1/">
  <metadata
     id="metadata10">
    <rdf:RDF>
      <cc:Work
         rdf:about="">
        <dc:format>image/svg+xml</dc:format>
        <dc:type
           rdf:resource="http://purl.org/dc/dcmitype/StillImage" />
        <dc:title />
      </cc:Work>
    </rdf:RDF>
  </metadata>
  <defs
     id="defs8" />
  <sodipodi:namedview
     pagecolor="#ffffff"
     bordercolor="#666666"
     borderopacity="1"
     objecttolerance="10"
     gridtolerance="10"
     guidetolerance="10"
     inkscape:pageopacity="0"
     inkscape:pageshadow="2"
     inkscape:window-width="1087"
     inkscape:window-height="480"
     id="namedview6"
     showgrid="false"
     inkscape:zoom="4.9166667"
     inkscape:cx="2.1355932"
     inkscape:cy="24"
     inkscape:window-x="0"
     inkscape:window-y="25"
     inkscape:window-maximized="0"
     inkscape:current-layer="svg4"
     inkscape:showpageshadow="0"
     inkscape:pagecheckerboard="0"
     inkscape:deskcolor="#d1d1d1" />
  <path
     d="M 6.2900079,0 A 6.29,6.29 0 0 0 7.9490244e-6,6.3 6.29,6.29 0 0 0 6.3000079,12.58 6.29,6.29 0 0 0 12.580008,6.29 6.29,6.29 0 0 0 6.2900079,0 Z m -0.02,0.93 0.01,0.01 A 5.4,5.4 0 0 1 11.680008,6.34 5.4,5.4 0 0 1 6.2800079,11.75 5.4,5.4 0 0 1 0.87000795,6.35 5.4,5.4 0 0 1 6.2700079,0.93 Z m 2.02,2.54 a 0.66,1.55 0 0 0 -0.65,1.55 0.66,1.55 0 0 0 0.65,1.54 0.66,1.55 0 0 0 0.66,-1.53 0.66,1.55 0 0 0 -0.66,-1.55 z m -3.99,0.03 a 0.66,1.55 0 0 1 0.01,0 z m 0,0 a 0.66,1.55 0 0 0 -0.65,1.55 0.66,1.55 0 0 0 0.66,1.54 0.66,1.55 0 0 0 0.64,-1.54 0.66,1.55 0 0 0 -0.64,-1.55 z m 3.98,0.41 a 0.2,0.3 0 0 1 0.2,0.3 0.2,0.3 0 0 1 -0.2,0.3 0.2,0.3 0 0 1 -0.2,-0.3 0.2,0.3 0 0 1 0.2,-0.3 z m -3.99,0.03 a 0.2,0.3 0 0 1 0.2,0.3 0.2,0.3 0 0 1 -0.2,0.3 0.2,0.3 0 0 1 -0.2,-0.3 0.2,0.3 0 0 1 0.2,-0.3 z m -1.56,3.93 v 1.06 h 0.28 v 1.06 h 0.53 V 8.93 h 0.26 V 7.87 Z m 1.32,0.05 v 0.53 h 0.53 V 7.92 Z m 0.53,0.53 v 0.53 h 0.53 V 8.45 Z m 0.53,0 h 0.53 V 7.92 h -0.53 z m 0.53,0 v 0.53 h 0.53 V 8.45 Z m 0.53,0 h 0.52 V 7.92 h -0.52 z m 0.52,0 v 0.53 h 0.53 V 8.45 Z m 0.53,0 h 0.53 V 7.92 h -0.53 z m 0.53,0 v 0.53 h 0.53 V 8.45 Z m 0.53,0 h 0.53 V 7.92 h -0.53 z m 0.53,0 v 0.53 h 0.53 V 8.45 Z m 0.53,0 h 0.53 V 7.92 h -0.53 z m -6.34,-0.32 h 0.53 v 0.53 h -0.53 z"
     id="path2"
     inkscape:connector-curvature="0"
     style="fill:#bde6fb;fill-opacity:1" />
</svg>
