<?xml version="1.0" encoding="UTF-8" standalone="no"?>
<svg
   width="47.546505"
   height="47.546486"
   viewBox="0 0 12.580013 12.580008"
   version="1.1"
   id="svg4"
   sodipodi:docname="face-devilish.svg"
   inkscape:version="0.92.4 (5da689c313, 2019-01-14)"
   xmlns:inkscape="http://www.inkscape.org/namespaces/inkscape"
   xmlns:sodipodi="http://sodipodi.sourceforge.net/DTD/sodipodi-0.dtd"
   xmlns="http://www.w3.org/2000/svg"
   xmlns:svg="http://www.w3.org/2000/svg"
   xmlns:rdf="http://www.w3.org/1999/02/22-rdf-syntax-ns#"
   xmlns:cc="http://creativecommons.org/ns#"
   xmlns:dc="http://purl.org/dc/elements/1.1/">
  <metadata
     id="metadata10">
    <rdf:RDF>
      <cc:Work
         rdf:about="">
        <dc:format>image/svg+xml</dc:format>
        <dc:type
           rdf:resource="http://purl.org/dc/dcmitype/StillImage" />
        <dc:title />
      </cc:Work>
    </rdf:RDF>
  </metadata>
  <defs
     id="defs8" />
  <sodipodi:namedview
     pagecolor="#ffffff"
     bordercolor="#666666"
     borderopacity="1"
     objecttolerance="10"
     gridtolerance="10"
     guidetolerance="10"
     inkscape:pageopacity="0"
     inkscape:pageshadow="2"
     inkscape:window-width="1087"
     inkscape:window-height="480"
     id="namedview6"
     showgrid="false"
     inkscape:zoom="4.9166667"
     inkscape:cx="2.1355932"
     inkscape:cy="24"
     inkscape:window-x="0"
     inkscape:window-y="25"
     inkscape:window-maximized="0"
     inkscape:current-layer="svg4"
     inkscape:showpageshadow="0"
     inkscape:pagecheckerboard="0"
     inkscape:deskcolor="#d1d1d1" />
  <path
     style="overflow:visible;fill:#bde6fb;fill-opacity:1;marker:none"
     d="m 6.2900122,0 a 6.29,6.29 0 0 0 -3.64,1.17 2.4,2.4 0 0 1 -0.46,-1.01 c -0.03,-0.18 -0.34,-0.2 -0.41,-0.03 a 3.6,3.6 0 0 0 -0.12,1.9 A 6.29,6.29 0 0 0 1.2188405e-5,6.3 6.29,6.29 0 0 0 6.3000122,12.58 6.29,6.29 0 0 0 12.580012,6.29 6.29,6.29 0 0 0 10.880012,2 c 0.11,-0.67 0,-1.4 -0.2,-1.87 -0.08,-0.18 -0.4,-0.14 -0.42,0.03 -0.04,0.34 -0.18,0.68 -0.3699998,0.98 a 6.29,6.29 0 0 0 -3.6,-1.14 z m -0.02,0.93 0.01,0.01 a 5.4,5.4 0 0 1 2.97,0.9 l -0.15,0.1 c -0.78,0.47 0.46,2.01 1.1899998,1.31 0.08,-0.08 0.15,-0.17 0.22,-0.27 a 5.4,5.4 0 0 1 1.17,3.36 A 5.4,5.4 0 0 1 6.2800122,11.75 5.4,5.4 0 0 1 0.87001219,6.35 5.4,5.4 0 0 1 2.0500122,2.96 l 0.26,0.3 c 0.76,0.65 1.93,-0.95 1.13,-1.38 l -0.12,-0.07 a 5.4,5.4 0 0 1 2.95,-0.88 z m 2.02,2.54 a 0.66,1.55 0 0 0 -0.65,1.55 0.66,1.55 0 0 0 0.65,1.54 0.66,1.55 0 0 0 0.66,-1.53 0.66,1.55 0 0 0 -0.66,-1.55 z m -3.98,0.03 a 0.66,1.55 0 0 0 -0.66,1.55 0.66,1.55 0 0 0 0.66,1.54 0.66,1.55 0 0 0 0.64,-1.54 0.66,1.55 0 0 0 -0.65,-1.55 z m 3.97,0.41 a 0.2,0.3 0 0 1 0.2,0.3 0.2,0.3 0 0 1 -0.2,0.3 0.2,0.3 0 0 1 -0.2,-0.3 0.2,0.3 0 0 1 0.2,-0.3 z m -3.99,0.03 a 0.2,0.3 0 0 1 0.2,0.3 0.2,0.3 0 0 1 -0.2,0.3 0.2,0.3 0 0 1 -0.2,-0.3 0.2,0.3 0 0 1 0.2,-0.3 z m 5.2,3.37 c -0.02,0 -0.03,0 -0.05,0.02 -2,1.94 -4.09,2.2 -6.29,0 -0.07,-0.08 -0.07,0.08 -0.07,0.19 0,0.1 0,0.1 0.07,0.19 l 0.25,0.23 c 0,0.19 0.06,1.59 0.38,1.72 0.18,0.08 0.42,-0.59 0.55,-0.98 1.3,0.82 2.61,0.8 3.92,0 0.13,0.4 0.37,1.06 0.55,0.98 0.31,-0.13 0.37,-1.49 0.38,-1.7 l 0.26,-0.25 c 0.07,-0.08 0.05,-0.11 0.05,-0.22 0,-0.08 0.02,-0.17 0,-0.18 z m -3.98,2.62 c -0.06,0.13 -0.1,0.26 0,0.39 0.59,0.25 1.1,0.19 1.6,0 a 0.4,0.4 0 0 0 0,-0.4 c -0.5,0.2 -1.02,0.27 -1.6,0 z"
     overflow="visible"
     id="path2"
     inkscape:connector-curvature="0" />
</svg>
