<?xml version="1.0" encoding="UTF-8" standalone="no"?>
<svg
   width="47.546486"
   height="47.546486"
   viewBox="0 0 12.580008 12.580008"
   version="1.1"
   id="svg4"
   sodipodi:docname="face-worried.svg"
   inkscape:version="0.92.4 (5da689c313, 2019-01-14)"
   xmlns:inkscape="http://www.inkscape.org/namespaces/inkscape"
   xmlns:sodipodi="http://sodipodi.sourceforge.net/DTD/sodipodi-0.dtd"
   xmlns="http://www.w3.org/2000/svg"
   xmlns:svg="http://www.w3.org/2000/svg"
   xmlns:rdf="http://www.w3.org/1999/02/22-rdf-syntax-ns#"
   xmlns:cc="http://creativecommons.org/ns#"
   xmlns:dc="http://purl.org/dc/elements/1.1/">
  <metadata
     id="metadata10">
    <rdf:RDF>
      <cc:Work
         rdf:about="">
        <dc:format>image/svg+xml</dc:format>
        <dc:type
           rdf:resource="http://purl.org/dc/dcmitype/StillImage" />
        <dc:title />
      </cc:Work>
    </rdf:RDF>
  </metadata>
  <defs
     id="defs8" />
  <sodipodi:namedview
     pagecolor="#ffffff"
     bordercolor="#666666"
     borderopacity="1"
     objecttolerance="10"
     gridtolerance="10"
     guidetolerance="10"
     inkscape:pageopacity="0"
     inkscape:pageshadow="2"
     inkscape:window-width="1087"
     inkscape:window-height="480"
     id="namedview6"
     showgrid="false"
     inkscape:zoom="4.9166667"
     inkscape:cx="2.1355932"
     inkscape:cy="24"
     inkscape:window-x="0"
     inkscape:window-y="25"
     inkscape:window-maximized="0"
     inkscape:current-layer="svg4"
     inkscape:showpageshadow="0"
     inkscape:pagecheckerboard="0"
     inkscape:deskcolor="#d1d1d1" />
  <path
     d="M 6.2900079,0 A 6.29,6.29 0 0 0 7.9490244e-6,6.3 6.29,6.29 0 0 0 6.3000079,12.58 6.29,6.29 0 0 0 12.580008,6.29 6.29,6.29 0 0 0 6.2900079,0 Z m -0.02,0.93 0.01,0.01 A 5.4,5.4 0 0 1 11.680008,6.34 5.4,5.4 0 0 1 6.2800079,11.75 5.4,5.4 0 0 1 0.87000795,6.35 5.4,5.4 0 0 1 6.2700079,0.93 Z m 2.02,2.54 a 0.66,1.55 0 0 0 -0.65,1.55 0.66,1.55 0 0 0 0.65,1.54 0.66,1.55 0 0 0 0.66,-1.53 0.66,1.55 0 0 0 -0.66,-1.55 z m -3.98,0.03 a 0.66,1.55 0 0 0 -0.66,1.55 0.66,1.55 0 0 0 0.66,1.54 0.66,1.55 0 0 0 0.64,-1.54 0.66,1.55 0 0 0 -0.65,-1.55 z m 3.97,0.41 a 0.2,0.3 0 0 1 0.2,0.3 0.2,0.3 0 0 1 -0.2,0.3 0.2,0.3 0 0 1 -0.2,-0.3 0.2,0.3 0 0 1 0.2,-0.3 z m -3.99,0.03 a 0.2,0.3 0 0 1 0.2,0.3 0.2,0.3 0 0 1 -0.2,0.3 0.2,0.3 0 0 1 -0.2,-0.3 0.2,0.3 0 0 1 0.2,-0.3 z m 1.93,3.96 c -0.44,0 -0.7,0.29 -0.88,0.53 -0.18,0.23 -0.28,0.4 -0.54,0.4 -0.1,0 -0.22,-0.1 -0.36,-0.25 -0.14,-0.14 -0.29,-0.32 -0.46,-0.44 -0.18,-0.13 -0.42,-0.17 -0.62,0.04 -0.21,0.2 -0.46,0.88 -0.62,1.58 0.32,-0.7 0.63,-1.04 0.8,-1.19 0.15,-0.15 0.18,-0.1 0.3,-0.03 0.12,0.08 0.26,0.26 0.41,0.42 0.16,0.16 0.33,0.33 0.55,0.33 0.36,0 0.58,-0.3 0.76,-0.52 0.17,-0.22 0.3,-0.4 0.66,-0.4 0.35,0 0.48,0.18 0.66,0.4 0.17,0.23 0.39,0.52 0.76,0.52 0.21,0 0.38,-0.18 0.51,-0.34 0.13,-0.17 0.24,-0.33 0.34,-0.4 0.09,-0.08 0.14,-0.1 0.28,0.02 0.55,0.7 0.6,0.72 0.92,1.19 -0.16,-0.7 -0.5,-1.4 -0.75,-1.58 -0.23,-0.17 -0.45,-0.17 -0.61,-0.04 -0.17,0.13 -0.28,0.32 -0.39,0.46 -0.1,0.14 -0.2,0.23 -0.3,0.23 -0.27,0 -0.36,-0.17 -0.55,-0.4 -0.18,-0.24 -0.44,-0.53 -0.87,-0.53 z"
     id="path2"
     inkscape:connector-curvature="0"
     style="fill:#bde6fb;fill-opacity:1" />
</svg>
