<?xml version="1.0" encoding="UTF-8" standalone="no"?>
<svg
   width="12"
   height="14"
   viewBox="0 0 12 14"
   version="1.1"
   id="svg1"
   sodipodi:docname="adjustrgb.svg"
   xmlns:inkscape="http://www.inkscape.org/namespaces/inkscape"
   xmlns:sodipodi="http://sodipodi.sourceforge.net/DTD/sodipodi-0.dtd"
   xmlns="http://www.w3.org/2000/svg"
   xmlns:svg="http://www.w3.org/2000/svg">
  <sodipodi:namedview
     id="namedview1"
     pagecolor="#505050"
     bordercolor="#eeeeee"
     borderopacity="1"
     inkscape:showpageshadow="0"
     inkscape:pageopacity="0"
     inkscape:pagecheckerboard="0"
     inkscape:deskcolor="#d1d1d1" />
  <defs
     id="defs1">
    <style
       id="current-color-scheme"
       type="text/css">&#10;   .ColorScheme-Text { color:#1e3f5a; } .ColorScheme-Highlight { color:#4285f4; }&#10;  </style>
  </defs>
  <path
     style="fill:#bde6fb;fill-opacity:1"
     class="ColorScheme-Text"
     d="M 2,0 V 2.1738281 A 3,3 0 0 0 0,5 3,3 0 0 0 2,7.8242188 V 14 H 4 V 7.8261719 A 3,3 0 0 0 6,5 3,3 0 0 0 4,2.1757812 V 0 Z M 8,0 V 7.1738281 A 3,3 0 0 0 6,10 3,3 0 0 0 8,12.824219 V 14 h 2 V 12.826172 A 3,3 0 0 0 12,10 3,3 0 0 0 10,7.1757812 V 0 Z"
     id="path1" />
</svg>
