<?xml version="1.0" encoding="UTF-8" standalone="no"?>
<svg
   width="14"
   height="12"
   viewBox="0 0 14 12"
   version="1.1"
   id="svg1"
   sodipodi:docname="adjustlevels.svg"
   xmlns:inkscape="http://www.inkscape.org/namespaces/inkscape"
   xmlns:sodipodi="http://sodipodi.sourceforge.net/DTD/sodipodi-0.dtd"
   xmlns="http://www.w3.org/2000/svg"
   xmlns:svg="http://www.w3.org/2000/svg">
  <sodipodi:namedview
     id="namedview1"
     pagecolor="#505050"
     bordercolor="#eeeeee"
     borderopacity="1"
     inkscape:showpageshadow="0"
     inkscape:pageopacity="0"
     inkscape:pagecheckerboard="0"
     inkscape:deskcolor="#d1d1d1" />
  <defs
     id="defs1">
    <style
       id="current-color-scheme"
       type="text/css">&#10;   .ColorScheme-Text { color:#1e3f5a; } .ColorScheme-Highlight { color:#4285f4; }&#10;  </style>
  </defs>
  <path
     style="fill:#bde6fb;fill-opacity:1"
     class="ColorScheme-Text"
     d="M 10,0 A 3,3 0 0 0 7.1757812,2 H 0 V 4 H 7.1738281 A 3,3 0 0 0 10,6 3,3 0 0 0 12.824219,4 H 14 V 2 H 12.826172 A 3,3 0 0 0 10,0 Z M 5,6 A 3,3 0 0 0 2.1757812,8 H 0 v 2 H 2.1738281 A 3,3 0 0 0 5,12 3,3 0 0 0 7.8242188,10 H 14 V 8 H 7.8261719 A 3,3 0 0 0 5,6 Z"
     id="path1" />
</svg>
