<?xml version="1.0" encoding="UTF-8" standalone="no"?>
<svg
   width="23.996252"
   height="23.993801"
   viewBox="0 0 23.996252 23.993801"
   version="1.1"
   id="svg1"
   sodipodi:docname="align-vertical-node.svg"
   xmlns:inkscape="http://www.inkscape.org/namespaces/inkscape"
   xmlns:sodipodi="http://sodipodi.sourceforge.net/DTD/sodipodi-0.dtd"
   xmlns="http://www.w3.org/2000/svg"
   xmlns:svg="http://www.w3.org/2000/svg">
  <sodipodi:namedview
     id="namedview1"
     pagecolor="#505050"
     bordercolor="#eeeeee"
     borderopacity="1"
     inkscape:showpageshadow="0"
     inkscape:pageopacity="0"
     inkscape:pagecheckerboard="0"
     inkscape:deskcolor="#d1d1d1" />
  <defs
     id="defs1">
    <style
       id="current-color-scheme"
       type="text/css">&#10;   .ColorScheme-Text { color:#1e3f5a; } .ColorScheme-Highlight { color:#4285f4; }&#10;  </style>
  </defs>
  <path
     style="fill:#bde6fb;fill-opacity:1"
     class="ColorScheme-Text"
     d="m 0.9609375,0.0012722 a 0.49999,0.49998 0 0 0 -0.37695313,0.78125 C 1.9018844,2.7589223 2.4401344,6.2991254 2.8027344,10.003225 H 0.99609375 v 1.992187 H 0.5 0 v 0.5 0.5 h 0.99609375 v 2.00586 H 3.2480469 c 0.2106,2.3041 0.4725656,4.431781 1.0097656,6.050781 0.2912,0.8777 0.6619656,1.617044 1.1972656,2.152344 0.5352001,0.5354 1.2610719,0.837203 2.0761719,0.783203 2.0528,-0.1368 3.451138,-1.390159 4.335938,-3.06836 0.8848,-1.6782 1.337193,-3.796849 1.683593,-5.90625 0,-0.002 -7e-4,-0.01172 0,-0.01172 h 1.439454 v -2.00586 h 3 v 2.00586 h 2.445312 c 0.2282,1.5082 0.453494,3.022272 0.746094,4.388672 0.4132,1.9285 0.924422,3.571915 1.982422,4.478515 a 0.49977,0.49975 0 0 0 0.830078,-0.363279 h 0.002 a 0.49977,0.49975 0 0 0 -0.179688,-0.396484 c -0.6913,-0.5923 -1.255496,-2.066035 -1.654297,-3.927735 -0.2728,-1.2735 -0.49129,-2.720387 -0.71289,-4.179687 h 1.541016 v -2.00586 h 0.5 0.5 v -1 h -0.5 -0.5 v -1.992187 h -2.458985 c -0.2451,-0.9509996 -0.543134,-1.8188746 -0.927734,-2.5468746 -0.3806,-0.7203 -0.855328,-1.3174938 -1.486328,-1.6835938 -0.6309,-0.366 -1.406841,-0.4670125 -2.244141,-0.2578125 -0.6589,0.1647 -1.156472,0.6451 -1.513672,1.25 -0.3573,0.6048 -0.605247,1.353925 -0.810547,2.203125 -0.079,0.3271 -0.146844,0.6807563 -0.214843,1.0351559 H 9.9941407 v 1.992187 h -4 V 10.003225 H 3.8300781 C 3.4926782,6.2442254 2.9676156,2.5545348 1.4160157,0.2278347 A 0.49999,0.49998 0 0 0 0.9609375,0.0012722 Z M 16.558594,6.4094754 c 0.415931,-0.03502 0.748837,0.051066 1.054687,0.2285156 0.4078,0.2366 0.778116,0.6692562 1.103516,1.2851563 0.2972,0.5625 0.544672,1.2812781 0.763672,2.0800777 h -1.490234 v 1.992187 h -3 v -1.992187 h -0.638672 c 0.0538,-0.2713996 0.106015,-0.5521809 0.166015,-0.8007809 0.1929,-0.798 0.425919,-1.4668875 0.699219,-1.9296875 0.2733,-0.4627 0.555884,-0.7021093 0.896484,-0.7871093 0.15935,-0.039825 0.306669,-0.064499 0.445313,-0.076172 z M 5.9921875,12.995412 h 4 v 2.00586 h 2.5429685 c -0.338,2.0224 -0.785534,3.996072 -1.552734,5.451172 -0.7863,1.4914 -1.8240314,2.424109 -3.5195313,2.537109 -0.5563,0.0371 -0.9357344,-0.123034 -1.3027344,-0.490234 C 5.7931563,22.132219 5.465825,21.5291 5.203125,20.7376 4.725125,19.2971 4.4610532,17.249572 4.2519531,15.001272 h 1.7402344 z"
     id="path1" />
</svg>
