<?xml version="1.0" encoding="UTF-8" standalone="no"?>
<svg
   width="23.988602"
   height="23.99625"
   viewBox="0 0 23.988602 23.99625"
   version="1.1"
   id="svg1"
   sodipodi:docname="align-horizontal-node.svg"
   xmlns:inkscape="http://www.inkscape.org/namespaces/inkscape"
   xmlns:sodipodi="http://sodipodi.sourceforge.net/DTD/sodipodi-0.dtd"
   xmlns="http://www.w3.org/2000/svg"
   xmlns:svg="http://www.w3.org/2000/svg">
  <sodipodi:namedview
     id="namedview1"
     pagecolor="#505050"
     bordercolor="#eeeeee"
     borderopacity="1"
     inkscape:showpageshadow="0"
     inkscape:pageopacity="0"
     inkscape:pagecheckerboard="0"
     inkscape:deskcolor="#d1d1d1" />
  <defs
     id="defs1">
    <style
       id="current-color-scheme"
       type="text/css">&#10;   .ColorScheme-Text { color:#1e3f5a; } .ColorScheme-Highlight { color:#4285f4; }&#10;  </style>
  </defs>
  <path
     style="fill:#bde6fb;fill-opacity:1"
     class="ColorScheme-Text"
     d="M 0.48862039,1.5758456e-4 V 0.00211071 A 0.49975,0.49977 0 0 0 0.12533914,0.83218883 C 1.0319091,1.8901888 2.6753548,2.4014107 4.6038548,2.8146107 c 1.3663,0.2926 2.8804718,0.5178937 4.3886719,0.7460938 v 2.4453124 h 2.0058593 v 3 H 8.9925267 V 10.44547 c -0.004,7e-4 -0.00772,0 -0.011719,0 -2.1094,0.3464 -4.22805,0.798794 -5.90625,1.683594 -1.6783,0.8848 -2.93145938,2.283138 -3.06835938,4.335938 -0.05399001,0.8151 0.24784312,1.540971 0.78320312,2.076171 0.53536996,0.535301 1.27474376,0.906066 2.15234376,1.197266 1.619,0.5372 3.7466812,0.799166 6.0507813,1.009766 v 2.251953 h 2.0058595 v 0.996094 h 0.5 0.5 v -0.5 -0.496094 h 1.992188 v -1.806641 c 3.7041,0.3626 7.244403,0.90085 9.220703,2.21875 a 0.49998139,0.49999139 0 1 0 0.554687,-0.832031 c -2.3268,-1.5516 -6.01639,-2.076663 -9.77539,-2.414063 v -2.164062 h -1.992188 v -4 h 1.992188 v -3.339844 c 0.3544,-0.068 0.708026,-0.135844 1.035156,-0.214844 0.84919,-0.2053 1.598325,-0.4532467 2.203125,-0.8105467 0.60485,-0.3572 1.0852,-0.8547719 1.25,-1.5136718 0.20915,-0.8373 0.108197,-1.6132407 -0.257813,-2.2441407 -0.36611,-0.631 -0.963263,-1.1057281 -1.683593,-1.4863281 -0.72804,-0.3846 -1.595775,-0.6826344 -2.546875,-0.9277344 V 1.0060169 h -1.992188 v -0.49999994 -0.5 h -1 v 0.5 0.49999994 H 8.9925267 V 2.5470326 C 7.5332267,2.3254326 6.0863391,2.1069419 4.8128391,1.8341419 2.9511392,1.435342 1.4774048,0.87114508 0.88510477,0.17984509 A 0.49975,0.49977 0 0 0 0.48862039,1.5758456e-4 Z M 13.990574,4.5157826 c 0.79883,0.219 1.517478,0.4664719 2.080078,0.7636719 0.61585,0.3253999 1.048556,0.6957156 1.285156,1.1035156 0.23664,0.4078 0.311604,0.8626 0.152344,1.5 -0.08498,0.3406 -0.32442,0.6231843 -0.78711,0.8964844 -0.46278,0.2733 -1.131687,0.5063187 -1.929687,0.6992187 -0.24866,0.06 -0.529301,0.1122156 -0.800781,0.1660156 V 9.0060169 h -1.992188 v -3 h 1.992188 z M 8.9925267,11.461095 v 2.542969 h 2.0058593 v 4 H 8.9925267 v 1.740235 C 6.7442266,19.535198 4.6966985,19.271127 3.2561985,18.793127 c -0.7915,-0.2627 -1.3946187,-0.590032 -1.7617187,-0.957032 -0.36711,-0.367 -0.52733441,-0.746434 -0.4902344,-1.302734 0.11297,-1.6955 1.0457094,-2.733231 2.5371094,-3.519531 1.455,-0.7672 3.4287718,-1.214735 5.4511719,-1.552735 z"
     id="path1" />
</svg>
