<?xml version="1.0" encoding="UTF-8" standalone="no"?>
<svg
   width="15"
   height="15"
   viewBox="0 0 15 15"
   version="1.1"
   id="svg1"
   sodipodi:docname="amarok_cart_add.svg"
   xmlns:inkscape="http://www.inkscape.org/namespaces/inkscape"
   xmlns:sodipodi="http://sodipodi.sourceforge.net/DTD/sodipodi-0.dtd"
   xmlns="http://www.w3.org/2000/svg"
   xmlns:svg="http://www.w3.org/2000/svg">
  <sodipodi:namedview
     id="namedview1"
     pagecolor="#505050"
     bordercolor="#eeeeee"
     borderopacity="1"
     inkscape:showpageshadow="0"
     inkscape:pageopacity="0"
     inkscape:pagecheckerboard="0"
     inkscape:deskcolor="#d1d1d1" />
  <defs
     id="defs1">
    <style
       id="current-color-scheme"
       type="text/css">&#10;   .ColorScheme-Text { color:#1e3f5a; } .ColorScheme-Highlight { color:#4285f4; }&#10;  </style>
  </defs>
  <path
     style="fill:#bde6fb;fill-opacity:1"
     class="ColorScheme-Text"
     d="M 4,0 C 3.446,0 3,0.446 3,1 V 4 H 1 C 0.446,4 0,4.446 0,5 v 8 c 0,0.554 0.446,1 1,1 h 7 v -4 h 2 V 8 h 4 V 5 C 14,4.446 13.554,4 13,4 H 11 V 1 C 11,0.446 10.554,0 10,0 Z M 5,2 H 9 V 4 H 5 Z m 6,7 v 2 H 9 v 2 h 2 v 2 h 2 v -2 h 2 V 11 H 13 V 9 Z"
     id="path1" />
</svg>
