<?xml version="1.0" encoding="UTF-8" standalone="no"?>
<svg
   version="1"
   viewBox="0 0 522.47998 522.72003"
   id="svg6"
   sodipodi:docname="appointment-missed.svg"
   inkscape:version="0.92.4 (5da689c313, 2019-01-14)"
   width="522.47998"
   height="522.72003"
   xmlns:inkscape="http://www.inkscape.org/namespaces/inkscape"
   xmlns:sodipodi="http://sodipodi.sourceforge.net/DTD/sodipodi-0.dtd"
   xmlns="http://www.w3.org/2000/svg"
   xmlns:svg="http://www.w3.org/2000/svg"
   xmlns:rdf="http://www.w3.org/1999/02/22-rdf-syntax-ns#"
   xmlns:cc="http://creativecommons.org/ns#"
   xmlns:dc="http://purl.org/dc/elements/1.1/">
  <metadata
     id="metadata12">
    <rdf:RDF>
      <cc:Work
         rdf:about="">
        <dc:format>image/svg+xml</dc:format>
        <dc:type
           rdf:resource="http://purl.org/dc/dcmitype/StillImage" />
        <dc:title />
      </cc:Work>
    </rdf:RDF>
  </metadata>
  <defs
     id="defs10" />
  <sodipodi:namedview
     pagecolor="#ffffff"
     bordercolor="#666666"
     borderopacity="1"
     objecttolerance="10"
     gridtolerance="10"
     guidetolerance="10"
     inkscape:pageopacity="0"
     inkscape:pageshadow="2"
     inkscape:window-width="1078"
     inkscape:window-height="480"
     id="namedview8"
     showgrid="false"
     inkscape:zoom="9.8333333"
     inkscape:cx="-0.81355932"
     inkscape:cy="12"
     inkscape:window-x="0"
     inkscape:window-y="28"
     inkscape:window-maximized="0"
     inkscape:current-layer="svg6"
     inkscape:showpageshadow="0"
     inkscape:pagecheckerboard="0"
     inkscape:deskcolor="#d1d1d1" />
  <path
     style="color:#000000;font-weight:400;font-variant-ligatures:normal;font-variant-position:normal;font-variant-caps:normal;font-variant-numeric:normal;font-variant-alternates:normal;font-feature-settings:normal;text-indent:0;text-decoration:none;text-decoration-line:none;text-decoration-style:solid;text-decoration-color:#000000;text-transform:none;text-orientation:mixed;white-space:normal;shape-padding:0;overflow:visible;isolation:auto;mix-blend-mode:normal;fill:#bde6fb;fill-opacity:0.301961"
     overflow="visible"
     font-weight="400"
     d="m -12.7,-22.999996 a 10.33,10.33 0 0 0 -10.3,10.32 10.33,10.33 0 0 0 12.37,10.0999998 v -2.82 a 7.66,7.66 0 0 1 -2.06,0.29 7.54,7.54 0 0 1 -7.57,-7.5599998 c 0,-4.2 3.37,-7.57 7.57,-7.57 a 7.54,7.54 0 0 1 7.27,9.63 h 2.83 a 10.31,10.31 0 0 0 -10.1,-12.39 z m 4.08,5.5 a 0.69,0.69 0 0 0 -0.1,0.02 v 0.01 a 0.69,0.69 0 0 0 -0.34,0.21 l -3.64,3.66 -2.3,-2.28 a 0.69,0.69 0 1 0 -0.94,0.95 l 2.75,2.74 a 0.69,0.69 0 0 0 0.94,0 l 4.15,-4.11 a 0.69,0.69 0 0 0 -0.5,-1.18 z"
     id="path2"
     inkscape:connector-curvature="0" />
  <path
     overflow="visible"
     d="m -3.23,-9.0299962 -1.92,1.96 -1.97,-1.92 -1.92,1.96 1.97,1.93 -1.93,1.96 1.96,1.92 1.92,-1.96 1.97,1.92 1.92,-1.96 -1.97,-1.92 1.92,-1.96 z"
     id="path4"
     inkscape:connector-curvature="0"
     style="color:#bebebe;overflow:visible;fill:#bde6fb;fill-opacity:1" />
</svg>
