<?xml version="1.0" encoding="UTF-8" standalone="no"?>
<svg
   version="1"
   viewBox="0 0 494.9826 522.96027"
   id="svg4"
   sodipodi:docname="appointment-soon.svg"
   inkscape:version="0.92.4 (5da689c313, 2019-01-14)"
   width="494.9826"
   height="522.96027"
   xmlns:inkscape="http://www.inkscape.org/namespaces/inkscape"
   xmlns:sodipodi="http://sodipodi.sourceforge.net/DTD/sodipodi-0.dtd"
   xmlns="http://www.w3.org/2000/svg"
   xmlns:svg="http://www.w3.org/2000/svg"
   xmlns:rdf="http://www.w3.org/1999/02/22-rdf-syntax-ns#"
   xmlns:cc="http://creativecommons.org/ns#"
   xmlns:dc="http://purl.org/dc/elements/1.1/">
  <metadata
     id="metadata10">
    <rdf:RDF>
      <cc:Work
         rdf:about="">
        <dc:format>image/svg+xml</dc:format>
        <dc:type
           rdf:resource="http://purl.org/dc/dcmitype/StillImage" />
        <dc:title />
      </cc:Work>
    </rdf:RDF>
  </metadata>
  <defs
     id="defs8" />
  <sodipodi:namedview
     pagecolor="#ffffff"
     bordercolor="#666666"
     borderopacity="1"
     objecttolerance="10"
     gridtolerance="10"
     guidetolerance="10"
     inkscape:pageopacity="0"
     inkscape:pageshadow="2"
     inkscape:window-width="1078"
     inkscape:window-height="480"
     id="namedview6"
     showgrid="false"
     inkscape:zoom="9.8333333"
     inkscape:cx="-0.81355932"
     inkscape:cy="12"
     inkscape:window-x="0"
     inkscape:window-y="28"
     inkscape:window-maximized="0"
     inkscape:current-layer="svg4"
     inkscape:showpageshadow="0"
     inkscape:pagecheckerboard="0"
     inkscape:deskcolor="#d1d1d1" />
  <path
     style="color:#000000;font-weight:400;font-variant-ligatures:normal;font-variant-position:normal;font-variant-caps:normal;font-variant-numeric:normal;font-variant-alternates:normal;font-feature-settings:normal;text-indent:0;text-decoration:none;text-decoration-line:none;text-decoration-style:solid;text-decoration-color:#000000;text-transform:none;text-orientation:mixed;white-space:normal;shape-padding:0;overflow:visible;isolation:auto;mix-blend-mode:normal;fill:#bde6fb;fill-opacity:1"
     d="m -12.7,-22.999763 a 10.33,10.33 0 0 0 -10.3,10.33 10.34,10.34 0 0 0 12.37,10.0999995 v -2.83 a 7.66,7.66 0 0 1 -2.06,0.29 7.54,7.54 0 0 1 -7.57,-7.5599995 c 0,-4.2 3.37,-7.57 7.57,-7.57 a 7.54,7.54 0 0 1 7.27,9.63 h 2.83 a 10.3,10.3 0 0 0 -10.1,-12.39 z m 4.08,5.5 a 0.69,0.69 0 0 0 -0.1,0.02 0.69,0.69 0 0 0 -0.34,0.22 l -3.64,3.66 -2.3,-2.28 a 0.69,0.69 0 1 0 -0.94,0.94 l 2.75,2.75 a 0.69,0.69 0 0 0 0.94,0 l 4.15,-4.11 a 0.69,0.69 0 0 0 -0.5,-1.18 z m 1.08,8.3399995 v 5.3 h 2.67 v -5.3 z m 0,6.62 v 1.33 h 2.67 v -1.33 z"
     font-weight="400"
     overflow="visible"
     id="path2"
     inkscape:connector-curvature="0" />
</svg>
