<?xml version="1.0" encoding="UTF-8" standalone="no"?>
<svg
   width="14"
   height="14"
   version="1.1"
   id="svg7"
   sodipodi:docname="atmosphere.svg"
   inkscape:version="0.92.4 (5da689c313, 2019-01-14)"
   xmlns:inkscape="http://www.inkscape.org/namespaces/inkscape"
   xmlns:sodipodi="http://sodipodi.sourceforge.net/DTD/sodipodi-0.dtd"
   xmlns="http://www.w3.org/2000/svg"
   xmlns:svg="http://www.w3.org/2000/svg"
   xmlns:rdf="http://www.w3.org/1999/02/22-rdf-syntax-ns#"
   xmlns:cc="http://creativecommons.org/ns#"
   xmlns:dc="http://purl.org/dc/elements/1.1/">
  <metadata
     id="metadata11">
    <rdf:RDF>
      <cc:Work
         rdf:about="">
        <dc:format>image/svg+xml</dc:format>
        <dc:type
           rdf:resource="http://purl.org/dc/dcmitype/StillImage" />
        <dc:title />
      </cc:Work>
    </rdf:RDF>
  </metadata>
  <sodipodi:namedview
     pagecolor="#ffffff"
     bordercolor="#666666"
     borderopacity="1"
     objecttolerance="10"
     gridtolerance="10"
     guidetolerance="10"
     inkscape:pageopacity="0"
     inkscape:pageshadow="2"
     inkscape:window-width="1078"
     inkscape:window-height="480"
     id="namedview9"
     showgrid="false"
     inkscape:zoom="9.8333333"
     inkscape:cx="-0.81355932"
     inkscape:cy="12"
     inkscape:window-x="0"
     inkscape:window-y="28"
     inkscape:window-maximized="0"
     inkscape:current-layer="svg7"
     inkscape:showpageshadow="0"
     inkscape:pagecheckerboard="0"
     inkscape:deskcolor="#d1d1d1" />
  <defs
     id="defs3">
    <style
       id="current-color-scheme" />
  </defs>
  <path
     d="M 7,0 A 7,7 0 0 0 0,7 7,7 0 0 0 7,14 7,7 0 0 0 14,7 7,7 0 0 0 7,0 Z m 0,2 c 0.17,0 0.33,0.02 0.5,0.04 h 0.04 a 5,5 0 0 1 0.3,0.04 6.6,6.6 0 0 1 1.1,0.33 L 9.31,2.6 v 0.03 c 0.03,0.01 0.05,0.07 0.1,0.1 L 9.44,2.76 C 9.47,2.77 9.51,2.79 9.5,2.82 9.5,2.86 9.43,2.85 9.4,2.88 9.41,2.94 9.36,2.93 9.34,2.98 9.35,3 9.4,3.01 9.41,3.04 c 0,0.03 -0.08,0.02 -0.07,0.06 0.06,0.04 0.1,0 0.16,0 0.11,-0.02 0.21,-0.01 0.28,-0.06 0,-0.06 0.1,-0.05 0.1,-0.1 L 9.97,3 9.94,3.04 C 9.92,3.04 9.89,3.05 9.88,3.07 L 9.78,3.13 C 9.76,3.14 9.71,3.23 9.68,3.23 L 9.59,3.19 C 9.56,3.2 9.57,3.24 9.53,3.25 9.47,3.28 9.33,3.22 9.31,3.32 9.34,3.37 9.45,3.35 9.5,3.38 9.53,3.4 9.59,3.47 9.6,3.5 V 3.7 C 9.56,3.77 9.47,3.76 9.38,3.75 H 9.31 c -0.15,0 -0.3,-0.08 -0.37,0.04 0,0.08 0.02,0.14 0,0.21 -0.02,0.06 -0.1,0.11 -0.1,0.16 0,0.02 0.06,0.06 0.07,0.1 v 0.06 c 0.02,0.05 0.08,-0.01 0.12,0 0.05,0 0.1,0.07 0.1,0.12 0,0.03 -0.01,0.1 -0.04,0.12 C 9.05,4.63 8.97,4.62 8.91,4.66 8.85,4.69 8.84,4.76 8.81,4.81 8.78,4.87 8.74,4.89 8.75,4.97 A 0.37,0.37 0 0 1 8.56,5.16 C 8.54,5.17 8.49,5.17 8.46,5.19 L 8.41,5.29 8.31,5.38 8.28,5.48 C 8.26,5.51 8.22,5.52 8.18,5.57 L 8.16,5.66 c -0.04,0.06 -0.07,0.1 -0.07,0.16 0,0.04 0.06,0.05 0.07,0.09 0,0.02 -0.04,0.04 -0.04,0.06 0,0.04 0.03,0.07 0.04,0.1 0,0.07 -0.05,0.1 -0.07,0.15 v 0.06 c 0,0.04 -0.06,0.08 -0.06,0.13 0,0.03 0.06,0.05 0.06,0.1 L 8.06,6.6 C 8.07,6.65 8.18,6.71 8.22,6.75 8.28,6.81 8.35,6.85 8.37,6.91 8.4,6.96 8.4,7.06 8.44,7.1 8.47,7.12 8.53,7.13 8.56,7.16 l 0.1,0.06 C 8.72,7.27 8.81,7.38 8.91,7.38 8.96,7.37 9.01,7.32 9.06,7.31 L 9.25,7.28 c 0.05,0.01 0.1,0.04 0.16,0.03 0.05,0 0.1,0 0.15,-0.03 0.1,-0.04 0.26,-0.11 0.4,-0.1 0.12,0.03 0.12,0.15 0.2,0.2 0.08,0 0.15,-0.02 0.21,0 0.06,0.01 0.13,0.08 0.13,0.12 0,0.04 -0.06,0.1 -0.06,0.13 -0.02,0.05 0,0.12 0,0.15 l -0.03,0.1 c 0,0.02 0.03,0.09 0.06,0.12 l 0.12,0.13 c 0.08,0.08 0.1,0.17 0.16,0.28 v 0.1 c -0.02,0.16 -0.08,0.27 -0.19,0.46 -0.05,0.06 -0.12,0.11 -0.12,0.19 0,0.18 0.1,0.3 0.1,0.47 -0.03,0.23 0,0.25 0,0.37 0.07,0.04 0.01,0.17 0,0.25 -0.04,0.1 -0.08,0.13 -0.1,0.2 h 0.19 a 5,5 0 0 1 -0.01,0 l -0.09,0.08 c -0.21,0.22 -0.46,0.42 -0.71,0.6 a 5,5 0 0 1 -0.07,0.04 c -0.2,0.13 -0.4,0.25 -0.62,0.35 A 5,5 0 0 1 8.82,11.66 C 8.65,11.73 8.47,11.78 8.3,11.83 A 5,5 0 0 1 7.37,11.99 7.62,7.62 0 0 1 6.46,11.97 5,5 0 0 1 5.87,11.87 C 5.64,11.81 5.41,11.71 5.19,11.63 5.18,11.61 5.15,11.59 5.16,11.57 c 0.05,-0.03 0.15,0.07 0.18,0 0.02,-0.04 -0.02,-0.13 0,-0.16 0.02,-0.03 0.12,-0.03 0.16,-0.03 l 0.16,-0.03 c 0.03,-0.03 0.06,-0.1 0.06,-0.16 0,-0.03 -0.04,-0.04 -0.06,-0.06 -0.02,-0.03 0,-0.04 0,-0.06 C 5.63,11.03 5.57,11.02 5.56,10.97 5.63,10.96 5.74,11.03 5.84,11 5.89,10.99 5.98,10.9 6,10.85 V 10.79 L 6.03,10.72 V 10.69 C 6.05,10.64 6.1,10.6 6.13,10.57 l 0.09,-0.1 0.03,-0.06 C 6.26,10.31 6.2,10.24 6.22,10.16 6.24,10.07 6.38,10.01 6.47,9.97 L 6.57,9.94 6.75,9.88 C 6.85,9.84 6.86,9.78 6.91,9.69 L 6.97,9.57 V 9.5 9.41 L 7,9.22 C 7,9.18 6.97,9.16 6.97,9.12 6.97,9 7.01,9.02 7.07,8.94 L 7.12,8.82 C 7.21,8.7 7.35,8.65 7.34,8.47 7.34,8.41 7.29,8.27 7.25,8.25 L 7.15,8.22 C 7.04,8.18 6.94,8.05 6.81,8.04 H 6.75 C 6.7,8.04 6.65,8.01 6.59,8 H 6.47 C 6.44,7.99 6.43,7.93 6.41,7.91 L 6.31,7.88 C 6.26,7.86 6.24,7.82 6.19,7.82 H 6.13 L 6.03,7.78 C 6,7.76 5.95,7.75 5.93,7.72 5.97,7.62 5.87,7.6 5.84,7.54 V 7.41 C 5.84,7.37 5.79,7.35 5.75,7.31 A 0.37,0.37 0 0 0 5.53,7.22 H 5.38 A 0.35,0.35 0 0 1 5.18,7.12 C 5.15,7.08 5.13,7.02 5.09,7 L 5,6.94 C 4.99,6.94 4.98,6.94 4.97,6.91 4.95,6.87 4.92,6.86 4.94,6.81 4.9,6.8 4.92,6.85 4.88,6.85 4.84,6.79 4.81,6.74 4.72,6.75 4.68,6.76 4.64,6.85 4.59,6.85 4.55,6.85 4.52,6.76 4.47,6.75 4.43,6.75 4.37,6.79 4.34,6.79 4.3,6.78 4.29,6.75 4.25,6.72 4.22,6.7 4.17,6.66 4.15,6.66 4.11,6.66 4.07,6.76 4,6.72 3.97,6.68 4.07,6.67 4.03,6.62 4,6.6 3.99,6.65 3.97,6.66 3.94,6.68 3.91,6.68 3.87,6.69 L 3.69,6.75 a 0.19,0.19 0 0 0 -0.1,0.1 C 3.57,6.89 3.53,6.97 3.5,6.97 3.46,6.97 3.44,6.93 3.4,6.91 3.3,6.86 3.22,6.94 3.12,6.94 3.04,6.94 2.9,6.81 2.91,6.72 L 2.94,6.54 C 2.94,6.48 3,6.42 3,6.38 3,6.32 2.88,6.29 2.84,6.28 2.75,6.27 2.64,6.33 2.54,6.28 2.51,6.25 2.55,6.23 2.56,6.19 V 6.13 C 2.57,6.1 2.64,6.07 2.66,6.03 V 5.94 C 2.66,5.91 2.72,5.87 2.72,5.84 2.72,5.81 2.68,5.78 2.66,5.75 2.57,5.76 2.52,5.76 2.46,5.79 2.36,5.84 2.39,5.97 2.28,6.01 A 1,1 0 0 1 2.16,6.04 H 2.1 a 5,5 0 0 1 0,-0.06 L 2.12,5.94 A 5,5 0 0 1 2.44,5.01 h 0.03 c 0.04,0 0.06,0.06 0.1,0.06 0.08,0 0.1,-0.09 0.18,-0.13 H 2.94 C 2.99,4.95 3.06,5 3.09,5 3.13,5 3.13,4.97 3.16,4.97 c 0.03,0.01 0.09,0.06 0.09,0.1 0,0.04 -0.04,0.1 -0.03,0.15 0.05,0.05 0.15,0.07 0.22,0.1 0.04,-0.04 0,-0.1 0,-0.16 V 5.06 L 3.41,4.97 C 3.41,4.83 3.53,4.77 3.62,4.72 3.67,4.7 3.72,4.65 3.75,4.62 3.8,4.6 3.83,4.62 3.88,4.6 L 4.06,4.44 c 0.03,-0.06 0,-0.15 0,-0.22 h 0.1 c 0.04,0 0.06,-0.06 0.09,-0.1 0.01,0 0.04,0 0.06,-0.02 C 4.36,4.06 4.37,4.02 4.41,4 A 0.28,0.28 0 0 1 4.47,3.97 L 4.59,3.94 4.72,3.91 V 3.81 C 4.74,3.71 4.9,3.7 5,3.66 5.07,3.63 5.14,3.56 5.22,3.56 5.2,3.62 5.14,3.63 5.16,3.69 5.17,3.79 5.28,3.67 5.31,3.66 L 5.56,3.56 C 5.63,3.54 5.76,3.52 5.69,3.44 5.63,3.44 5.61,3.48 5.56,3.5 5.53,3.51 5.53,3.47 5.5,3.47 5.47,3.47 5.46,3.51 5.44,3.5 5.41,3.5 5.38,3.44 5.38,3.4 5.36,3.32 5.43,3.31 5.47,3.25 5.45,3.18 5.35,3.22 5.28,3.19 c 0,-0.04 0.04,-0.08 0.1,-0.1 0.04,0 0.16,0.02 0.18,0.04 0.02,0.01 -0.02,0.04 0,0.06 0.03,0.02 0.06,0.01 0.1,0 C 5.66,3.13 5.58,3.17 5.59,3.13 5.66,3.08 5.79,3.11 5.88,3.1 A 0.7,0.7 0 0 0 6.03,3.04 C 6.07,3.01 6.08,2.97 6.13,3 6.13,3.05 6.12,3.08 6.09,3.1 6.02,3.17 5.93,3.24 5.88,3.32 5.91,3.35 5.97,3.34 6.03,3.35 h 0.19 c 0.04,0 0.05,0.1 0.1,0.1 0.06,0 0.03,-0.09 0,-0.13 0,-0.05 0.04,-0.1 0.02,-0.13 C 6.31,3.13 6.19,3.21 6.19,3.13 6.19,3.08 6.23,3.07 6.25,3.03 6.25,2.93 6.32,2.93 6.31,2.85 6.31,2.81 6.27,2.82 6.25,2.79 L 6.22,2.69 C 6.17,2.65 6.07,2.69 6.06,2.59 V 2.44 c 0,-0.05 -0.05,-0.2 -0.1,-0.22 -0.05,0 -0.08,0.1 -0.15,0.13 A 0.37,0.37 0 0 1 5.66,2.38 C 5.63,2.37 5.6,2.36 5.59,2.32 5.59,2.27 5.64,2.25 5.66,2.22 V 2.2 L 5.73,2.18 A 5,5 0 0 1 6.05,2.11 H 6.09 A 4.85,4.85 0 0 1 7,2 Z M 4.97,2.47 C 4.94,2.66 4.77,2.73 4.57,2.72 4.52,2.77 4.56,2.85 4.53,2.91 4.51,2.96 4.43,3.01 4.38,3.01 4.34,3.01 4.28,2.95 4.28,2.91 4.28,2.87 4.35,2.87 4.31,2.81 L 4.34,2.79 4.41,2.75 Z M 9.16,2.66 9.12,2.69 9.03,2.75 c -0.04,0.02 -0.09,0.03 -0.1,0.07 0,0.03 0.04,0.03 0.04,0.06 L 8.94,2.98 C 8.99,3.06 9.09,2.95 9.16,2.94 9.18,2.94 9.2,2.94 9.22,2.91 9.24,2.88 9.24,2.85 9.25,2.81 9.26,2.77 9.32,2.76 9.31,2.72 9.31,2.68 9.21,2.65 9.16,2.66 Z M 3.69,3.29 C 3.73,3.32 3.8,3.41 3.72,3.44 A 0.54,0.54 0 0 1 3.56,3.47 L 3.53,3.44 Z M 3.88,3.47 C 3.9,3.47 3.91,3.53 3.94,3.54 3.96,3.54 3.98,3.5 4,3.5 4.04,3.52 4.07,3.6 4.03,3.63 4,3.63 3.99,3.59 3.97,3.6 3.9,3.61 3.87,3.76 3.81,3.75 3.76,3.75 3.73,3.63 3.78,3.6 V 3.54 C 3.8,3.52 3.84,3.47 3.88,3.47 Z M 3.62,3.5 H 3.66 C 3.65,3.56 3.63,3.57 3.59,3.6 3.52,3.64 3.46,3.7 3.44,3.79 3.44,3.81 3.34,3.89 3.31,3.88 3.23,3.86 3.36,3.71 3.37,3.69 L 3.44,3.63 3.5,3.53 A 0.25,0.25 0 0 1 3.63,3.5 Z m 6.79,0.16 c 0.08,-0.01 0.12,0.08 0.15,0.13 0.03,0.03 0.11,0.1 0.16,0.12 0.03,0.02 0.06,0.05 0.1,0.06 C 10.88,4 11,4.1 11,4.16 c 0,0.03 -0.04,0.06 -0.03,0.1 0.05,0 0.1,-0.08 0.1,-0.13 l 0.24,0.4 c 0.04,0.07 0.1,0.13 0.13,0.2 -0.05,0 -0.06,0.01 -0.07,0.06 0,0.05 0.03,0.14 -0.06,0.15 C 11.26,4.95 11.2,4.9 11.13,4.88 h -0.1 C 10.98,4.86 10.98,4.78 10.93,4.75 A 0.5,0.5 0 0 0 10.78,4.69 h -0.06 c -0.04,0 -0.1,0.02 -0.13,0 A 0.32,0.32 0 0 1 10.5,4.59 C 10.49,4.56 10.6,4.54 10.6,4.5 L 10.56,4.41 V 4.35 c 0,-0.03 -0.05,-0.03 -0.1,-0.03 H 9.88 A 0.62,0.62 0 0 0 9.68,4.38 L 9.63,4.41 A 0.45,0.45 0 0 1 9.56,4.44 C 9.54,4.45 9.5,4.5 9.46,4.5 H 9.31 C 9.26,4.5 9.19,4.47 9.19,4.41 9.19,4.31 9.35,4.36 9.44,4.35 L 9.54,4.29 9.56,4.25 C 9.59,4.23 9.66,4.18 9.66,4.16 V 4.1 C 9.66,4.08 9.69,4.06 9.72,4.04 9.76,3.99 9.79,3.94 9.84,3.91 9.88,3.89 9.92,3.88 9.94,3.85 V 3.79 A 0.13,0.13 0 0 1 10,3.76 c 0.05,-0.02 0.1,0 0.16,0 h 0.09 l 0.06,-0.07 a 0.25,0.25 0 0 1 0.1,-0.03 z m 0.56,0.6 h -0.13 c -0.04,0 -0.1,-0.03 -0.12,0 0.04,0.05 0.1,0.07 0.19,0.09 a 0.2,0.2 0 0 0 0.06,-0.1 z M 4.12,3.69 H 4.28 C 4.27,3.76 4.11,3.75 4.06,3.72 4.06,3.7 4.09,3.7 4.12,3.69 Z M 3.91,3.82 C 3.86,3.85 3.81,3.89 3.75,3.91 3.71,3.92 3.66,3.92 3.65,3.88 3.65,3.83 3.72,3.85 3.75,3.85 3.79,3.84 3.85,3.82 3.91,3.82 Z m 6.5,0 c -0.04,0 -0.05,0.08 0,0.09 0.02,-0.01 0.03,-0.05 0.03,-0.1 H 10.41 Z M 10.34,3.97 V 4.13 C 10.38,4.19 10.45,4.14 10.47,4.1 10.49,4 10.45,3.96 10.41,3.97 10.39,3.98 10.36,3.96 10.34,3.97 Z M 2.06,6.32 c 0.06,0.05 0.1,0.12 0.16,0.15 A 0.5,0.5 0 0 0 2.32,6.5 H 2.37 L 2.53,6.57 C 2.6,6.59 2.66,6.69 2.72,6.72 v 0.1 a 0.3,0.3 0 0 0 0.1,0.09 l 0.12,0.1 C 2.95,7.01 2.97,6.99 3,7.01 3.07,7.02 3.1,7.11 3.16,7.1 3.19,7.09 3.18,7.04 3.19,7 3.21,6.98 3.24,6.94 3.29,6.94 c 0.05,0 0.06,0.1 0.09,0.16 0,0.03 0.05,0.06 0.06,0.1 V 7.47 C 3.42,7.52 3.35,7.52 3.31,7.57 3.29,7.59 3.3,7.64 3.28,7.66 L 3.22,7.72 A 0.45,0.45 0 0 0 3.19,7.79 C 3.16,7.85 3.1,7.89 3.13,7.97 c 0,0.03 0.06,0.06 0.06,0.1 0,0.04 -0.09,0.07 -0.1,0.12 0,0.04 0.02,0.08 0.04,0.13 0,0.03 0.07,0.07 0.09,0.09 l 0.1,0.16 C 3.38,8.67 3.41,8.78 3.47,8.87 3.5,8.93 3.57,8.95 3.59,9 v 0.1 c 0.04,0.08 0.2,0.18 0.29,0.22 0.03,0.02 0.09,0 0.12,0.03 0.05,0.03 0.16,0.1 0.19,0.15 0.02,0.05 0.02,0.16 0.03,0.22 v 0.25 c 0,0.05 0.03,0.08 0.03,0.13 v 0.38 c 0,0.02 0.03,0.03 0.03,0.06 l -0.03,0.09 c 0,0.06 0.05,0.1 0.06,0.16 0.01,0.04 0.04,0.16 0.03,0.21 l -0.03,0.1 v 0.11 A 5,5 0 0 1 4.2,11.15 5.2,5.2 0 0 1 3.47,10.54 l -0.1,-0.1 C 3.19,10.25 3.02,10.04 2.87,9.82 A 4.81,4.81 0 0 1 2.4,8.95 C 2.4,8.92 2.38,8.9 2.37,8.88 A 5.02,5.02 0 0 1 2.07,6.32 Z M 4,6.85 C 4.05,6.83 4.04,6.9 4,6.91 3.96,6.92 3.96,6.87 4,6.85 Z"
     id="path5"
     inkscape:connector-curvature="0"
     style="color:#1e3f5a;fill:#bde6fb;fill-opacity:1" />
</svg>
