<?xml version="1.0" encoding="UTF-8" standalone="no"?>
<svg
   width="14"
   height="15"
   viewBox="0 0 14 15"
   version="1.1"
   id="svg1"
   sodipodi:docname="automated-tasks.svg"
   xmlns:inkscape="http://www.inkscape.org/namespaces/inkscape"
   xmlns:sodipodi="http://sodipodi.sourceforge.net/DTD/sodipodi-0.dtd"
   xmlns="http://www.w3.org/2000/svg"
   xmlns:svg="http://www.w3.org/2000/svg">
  <sodipodi:namedview
     id="namedview1"
     pagecolor="#505050"
     bordercolor="#eeeeee"
     borderopacity="1"
     inkscape:showpageshadow="0"
     inkscape:pageopacity="0"
     inkscape:pagecheckerboard="0"
     inkscape:deskcolor="#d1d1d1" />
  <defs
     id="defs1">
    <style
       id="current-color-scheme"
       type="text/css">&#10;   .ColorScheme-Text { color:#1e3f5a; } .ColorScheme-Highlight { color:#4285f4; }&#10;  </style>
  </defs>
  <path
     style="fill:#bde6fb;fill-opacity:1"
     class="ColorScheme-Text"
     d="M 7,0 A 1,1 0 0 0 6,1 1,1 0 0 0 7,2 1,1 0 0 0 8,1 1,1 0 0 0 7,0 Z M 7,2 H 1.4003906 C 0.6247906,2 0,2.8941125 0,3.6328125 V 10.300781 C 0,11.038781 0.6247906,12 1.4003906,12 h 4.1992188 v 1 H 2.8007812 v 2 H 11.199219 V 13 H 8.4003906 V 12 H 12.599609 C 13.374609,12 14,11.038781 14,10.300781 V 3.6328125 C 14,2.8941125 13.374609,2 12.599609,2 Z M 2.5,4 h 9 c 0.831,0 1.5,0.446 1.5,1 0,0.554 -0.669,1 -1.5,1 h -9 C 1.669,6 1,5.554 1,5 1,4.446 1.669,4 2.5,4 Z"
     id="path1" />
</svg>
