<?xml version="1.0" encoding="UTF-8" standalone="no"?>
<svg
   width="15"
   height="12.996094"
   viewBox="0 0 15 12.996094"
   version="1.1"
   id="svg1"
   sodipodi:docname="bitmap-trace.svg"
   xmlns:inkscape="http://www.inkscape.org/namespaces/inkscape"
   xmlns:sodipodi="http://sodipodi.sourceforge.net/DTD/sodipodi-0.dtd"
   xmlns="http://www.w3.org/2000/svg"
   xmlns:svg="http://www.w3.org/2000/svg">
  <sodipodi:namedview
     id="namedview1"
     pagecolor="#505050"
     bordercolor="#eeeeee"
     borderopacity="1"
     inkscape:showpageshadow="0"
     inkscape:pageopacity="0"
     inkscape:pagecheckerboard="0"
     inkscape:deskcolor="#d1d1d1" />
  <defs
     id="defs1">
    <style
       id="current-color-scheme"
       type="text/css">&#10;   .ColorScheme-Text { color:#1e3f5a; } .ColorScheme-Highlight { color:#4285f4; }&#10;  </style>
  </defs>
  <path
     style="fill:#bde6fb;fill-opacity:1"
     class="ColorScheme-Text"
     d="M 1,0 C 0,0 0,1 0,1 v 10 c 0,1 1,1 1,1 H 8 V 10.582031 L 8.5820312,10 H 2 V 7.5 l 2.5,-2.9375 3.3125,3.75 2.125,-2.0625 1.197266,1.1972656 0.158203,-0.1582031 1,-1 L 13,5.5820312 l 1,1 V 1 C 14,0 13,0 13,0 Z m 12,6.9960938 -1,1 -1,1.0000002 -2,2 v 2 h 2 l 0.59375,-0.59375 0.40625,-0.40625 1,-1 1,-1 1,-1 z"
     id="path1" />
</svg>
