<?xml version="1.0" encoding="UTF-8" standalone="no"?>
<svg
   width="13"
   height="15"
   viewBox="0 0 13 15"
   version="1.1"
   id="svg1"
   sodipodi:docname="blurfx.svg"
   xmlns:inkscape="http://www.inkscape.org/namespaces/inkscape"
   xmlns:sodipodi="http://sodipodi.sourceforge.net/DTD/sodipodi-0.dtd"
   xmlns="http://www.w3.org/2000/svg"
   xmlns:svg="http://www.w3.org/2000/svg">
  <sodipodi:namedview
     id="namedview1"
     pagecolor="#505050"
     bordercolor="#eeeeee"
     borderopacity="1"
     inkscape:showpageshadow="0"
     inkscape:pageopacity="0"
     inkscape:pagecheckerboard="0"
     inkscape:deskcolor="#d1d1d1" />
  <defs
     id="defs1">
    <style
       id="current-color-scheme"
       type="text/css">&#10;   .ColorScheme-Text { color:#1e3f5a; } .ColorScheme-Highlight { color:#4285f4; }&#10;  </style>
  </defs>
  <path
     style="fill:#bde6fb;fill-opacity:1"
     class="ColorScheme-Text"
     d="M 10,0 9.425781,1.6132812 7.8789062,0.8789062 8.6132812,2.4257812 7,3 8.6132812,3.5742188 7.8789062,5.1210938 9.425781,4.3867188 10,6 10.574219,4.3867188 12.121094,5.1210938 11.386719,3.5742188 13,3 11.386719,2.4257812 12.121094,0.8789062 10.574219,1.6132812 Z M 5,1 C 4.79297,1.66364 4.5132275,2.3130187 4.2109375,2.9492188 c -1.5405,3.1502 -3.9510937,5.3047687 -4.1835937,7.2929692 -0.006,0.0297 -0.022144,0.0622 -0.027344,0.0918 l 0.019531,0.0059 C 0.0145313,10.408244 0,10.476732 0,10.544922 0,13.005122 2.2386,15 5,15 c 2.7614,0 5,-1.994878 5,-4.455078 0,-0.0682 -0.01453,-0.136718 -0.01953,-0.205078 L 10,10.333984 c -0.005,-0.0295 -0.02104,-0.0621 -0.02734,-0.0918 C 9.740106,8.2539875 7.3295625,6.0974656 5.7890625,2.9472656 5.4867825,2.3110556 5.20702,1.6637 5,1 Z"
     id="path1" />
</svg>
