<?xml version="1.0" encoding="UTF-8" standalone="no"?>
<svg
   width="16"
   height="16"
   viewBox="0 0 16 16"
   version="1.1"
   id="svg1"
   sodipodi:docname="boundingbox_bottom_right.svg"
   xmlns:inkscape="http://www.inkscape.org/namespaces/inkscape"
   xmlns:sodipodi="http://sodipodi.sourceforge.net/DTD/sodipodi-0.dtd"
   xmlns="http://www.w3.org/2000/svg"
   xmlns:svg="http://www.w3.org/2000/svg">
  <sodipodi:namedview
     id="namedview1"
     pagecolor="#505050"
     bordercolor="#eeeeee"
     borderopacity="1"
     inkscape:showpageshadow="0"
     inkscape:pageopacity="0"
     inkscape:pagecheckerboard="0"
     inkscape:deskcolor="#d1d1d1" />
  <defs
     id="defs1">
    <style
       id="current-color-scheme"
       type="text/css">&#10;   .ColorScheme-Text { color:#1e3f5a; } .ColorScheme-Highlight { color:#4285f4; }&#10;  </style>
  </defs>
  <path
     style="fill:#bde6fb;fill-opacity:1"
     class="ColorScheme-Text"
     d="m 10,0 v 6.1015625 c -0.2234,0.0474 -0.4433031,0.11 -0.6582031,0.1875 -0.0367,0.0129 -0.073075,0.025362 -0.109375,0.039063 -0.4201,0.159 -0.8168875,0.3737719 -1.1796875,0.6386719 -0.03,0.0219 -0.058391,0.045759 -0.087891,0.068359 -0.1753,0.1328001 -0.3417469,0.2769407 -0.4980469,0.4316407 -0.1607,0.1621 -0.3101656,0.3349781 -0.4472657,0.5175781 -0.01895,0.02503 -0.036207,0.050772 -0.054687,0.076172 -0.1227401,0.16734 -0.2349276,0.3421575 -0.3359376,0.5234375 -0.01004,0.01818 -0.019497,0.036378 -0.029297,0.054687 -0.11193,0.20644 -0.2091757,0.420515 -0.2910156,0.640625 -8.001e-4,0.002 -0.00125,0.00396 -0.00195,0.00586 l -0.00391,0.011719 c -0.08178,0.22676 -0.1470525,0.4591325 -0.1953125,0.6953125 -6e-4,0.0026 -0.00141,0.00511 -0.00195,0.00781 H 0 v 1.9999998 h 6.1015625 c 0.0564,0.268 0.134875,0.532109 0.234375,0.787109 0.01017,0.02658 0.018697,0.05373 0.029297,0.08008 0.0939,0.231 0.2048312,0.453968 0.3320312,0.667968 0.0285,0.049 0.057791,0.09558 0.087891,0.142578 0.1288,0.205 0.2723875,0.400938 0.4296876,0.585938 0.02235,0.02591 0.047453,0.04879 0.070312,0.07422 0.15521,0.17288 0.3222801,0.334725 0.5,0.484375 0.02658,0.02236 0.051095,0.04656 0.078125,0.06836 0.1896601,0.15108 0.3900594,0.288156 0.5996094,0.410156 0.04609,0.02723 0.091682,0.05432 0.1386719,0.08008 0.20995,0.11577 0.4279637,0.216292 0.6523437,0.300782 0.043813,0.01636 0.088457,0.02976 0.1328126,0.04492 0.23136,0.08043 0.4683343,0.143754 0.7089841,0.189454 0.01382,0.0025 0.02717,0.0054 0.04102,0.0078 C 10.421729,15.974158 10.71058,15.999643 11,16 c 0.167,0 0.334,-0.0094 0.5,-0.02539 0.16741,-0.01661 0.332001,-0.04151 0.494141,-0.07422 0.01392,-0.0028 0.02713,-0.0069 0.04101,-0.0098 0.3042,-0.06461 0.601722,-0.157464 0.888672,-0.277344 0.0076,-0.0032 0.01584,-0.0046 0.02344,-0.0078 l 0.01563,-0.0078 c 0.27747,-0.11957 0.543531,-0.26404 0.794921,-0.43164 0.01628,-0.0108 0.03464,-0.01831 0.05078,-0.0293 0.24792,-0.17017 0.479979,-0.362349 0.693359,-0.574219 0.01485,-0.01461 0.03024,-0.02818 0.04492,-0.04297 0.20171,-0.20515 0.385328,-0.427332 0.548828,-0.664062 0.02328,-0.03331 0.04979,-0.06377 0.07227,-0.09766 0.15239,-0.233309 0.285024,-0.478965 0.396484,-0.734374 0.01927,-0.04337 0.04052,-0.0849 0.05859,-0.128907 0.10779,-0.26439 0.192736,-0.537516 0.253906,-0.816406 0.01167,-0.05293 0.02516,-0.104653 0.03516,-0.158203 0.01348,-0.0759 0.02516,-0.152086 0.03516,-0.228516 0.01186,-0.08558 0.02375,-0.170902 0.03125,-0.257812 C 15.991896,11.289444 15.99912,11.14477 16,11 15.998,10.736 15.97464,10.471937 15.93164,10.210938 15.92474,10.167968 15.92011,10.124658 15.91211,10.082031 15.864989,9.8332513 15.799054,9.5883994 15.714844,9.3496094 15.703044,9.3160294 15.690224,9.28327 15.677734,9.25 15.587994,9.00761 15.479596,8.772505 15.353516,8.546875 15.344816,8.531555 15.334976,8.517183 15.326176,8.501953 15.194456,8.273713 15.04491,8.0562324 14.87891,7.8515624 c -0.0041,-0.00506 -0.0076,-0.010525 -0.01172,-0.015625 -0.167751,-0.20296 -0.351259,-0.3923463 -0.548829,-0.5664063 -0.02216,-0.0197 -0.0439,-0.039274 -0.06641,-0.058594 -0.19898,-0.17206 -0.411226,-0.3281369 -0.634765,-0.4667969 -0.01191,-0.00732 -0.02513,-0.012331 -0.03711,-0.019531 -0.4859,-0.29361 -1.018249,-0.5023175 -1.574219,-0.6171875 -0.0021,-5e-4 -0.0038,-0.00154 -0.0059,-0.00195 V 0 Z"
     id="path1" />
</svg>
