<?xml version="1.0" encoding="UTF-8" standalone="no"?>
<svg
   width="16"
   height="16"
   viewBox="0 0 16 16"
   version="1.1"
   id="svg1"
   sodipodi:docname="boundingbox_top_right.svg"
   xmlns:inkscape="http://www.inkscape.org/namespaces/inkscape"
   xmlns:sodipodi="http://sodipodi.sourceforge.net/DTD/sodipodi-0.dtd"
   xmlns="http://www.w3.org/2000/svg"
   xmlns:svg="http://www.w3.org/2000/svg">
  <sodipodi:namedview
     id="namedview1"
     pagecolor="#505050"
     bordercolor="#eeeeee"
     borderopacity="1"
     inkscape:showpageshadow="0"
     inkscape:pageopacity="0"
     inkscape:pagecheckerboard="0"
     inkscape:deskcolor="#d1d1d1" />
  <defs
     id="defs1">
    <style
       id="current-color-scheme"
       type="text/css">&#10;   .ColorScheme-Text { color:#1e3f5a; } .ColorScheme-Highlight { color:#4285f4; }&#10;  </style>
  </defs>
  <path
     style="fill:#bde6fb;fill-opacity:1"
     class="ColorScheme-Text"
     d="m 11,0 c -0.28942,3.57e-4 -0.578271,0.02584188 -0.863281,0.07617187 -0.01385,0.0024 -0.0272,0.0053125 -0.04102,0.0078125 -0.2406499,0.0457 -0.4776242,0.10902313 -0.7089842,0.18945313 -0.044356,0.01516 -0.088999,0.0285619 -0.1328126,0.0449219 -0.22438,0.08449 -0.4423937,0.18501125 -0.6523437,0.30078124 -0.04699,0.02576 -0.092582,0.0528481 -0.1386719,0.0800781 -0.20955,0.122 -0.4099494,0.25907625 -0.5996094,0.41015626 -0.02703,0.0218 -0.051545,0.045999 -0.078125,0.068359 -0.1777199,0.14965 -0.34479,0.311495 -0.5,0.484375 -0.02286,0.02543 -0.047963,0.048309 -0.070312,0.074219 -0.1573001,0.1846 -0.3008875,0.3804375 -0.4296876,0.5859375 -0.0301,0.0472 -0.059391,0.094278 -0.087891,0.1425782 -0.1272,0.2141 -0.2381312,0.4373687 -0.3320312,0.6679687 -0.0106,0.02635 -0.019127,0.053498 -0.029297,0.080078 C 6.2364375,3.4683906 6.1579625,3.7316 6.1015625,4 H 0 v 2 h 6.1054688 c 5.42e-4,0.0027 0.00135,0.00521 0.00195,0.00781 0.04826,0.23618 0.1135325,0.4685525 0.1953125,0.6953125 l 0.00391,0.011719 c 7.06e-4,0.0019 0.00115,0.00386 0.00195,0.00586 0.08184,0.22011 0.1790856,0.434185 0.2910156,0.640625 0.0098,0.01831 0.019257,0.036507 0.029297,0.054687 0.10101,0.18128 0.2131975,0.3560975 0.3359376,0.5234375 0.01848,0.0254 0.035738,0.051142 0.054687,0.076172 0.1371001,0.18253 0.2865357,0.3554581 0.4472657,0.5175781 0.15634,0.15468 0.3227169,0.2988706 0.4980469,0.4316407 0.02948,0.02262 0.057901,0.046389 0.087891,0.068359 0.36273,0.2649 0.7595875,0.4797419 1.1796875,0.6386719 0.036255,0.01374 0.072711,0.026143 0.109375,0.039063 0.2149,0.0775 0.4348031,0.1401 0.6582031,0.1875 V 16 H 11.999998 V 9.8945312 c 0.0021,-4.179e-4 0.0038,-0.00145 0.0059,-0.00195 0.55597,-0.11487 1.088319,-0.3235775 1.574219,-0.6171875 0.01198,-0.0072 0.0252,-0.012211 0.03711,-0.019531 0.223539,-0.13866 0.435785,-0.2947369 0.634765,-0.4667969 0.02251,-0.01932 0.04425,-0.038894 0.06641,-0.058594 0.19757,-0.1740601 0.381078,-0.3634463 0.548829,-0.5664063 0.0041,-0.0051 0.0076,-0.010565 0.01172,-0.015625 0.166,-0.20467 0.315546,-0.4221506 0.447266,-0.6503906 0.0088,-0.01523 0.01868,-0.029602 0.02734,-0.044922 0.12608,-0.22563 0.234478,-0.460735 0.324218,-0.703125 0.01249,-0.03327 0.02531,-0.066029 0.03711,-0.099609 0.08421,-0.23879 0.150145,-0.4836419 0.197265,-0.7324218 0.008,-0.04263 0.01264,-0.085936 0.01953,-0.1289063 C 15.974641,5.5282625 15.998,5.2644 16,5 15.999,4.8552 15.9915,4.7106063 15.97852,4.5664062 c -0.008,-0.0869 -0.01925,-0.1722125 -0.03125,-0.2578124 -0.01,-0.0764 -0.02116,-0.1526157 -0.03516,-0.2285157 -0.01,-0.0536 -0.02316,-0.1053031 -0.03516,-0.1582031 -0.061,-0.2789 -0.145906,-0.5520063 -0.253906,-0.8164062 -0.018,-0.044 -0.03859,-0.085606 -0.05859,-0.1289063 -0.111,-0.2555 -0.244484,-0.501075 -0.396484,-0.734375 -0.023,-0.0339 -0.04927,-0.064356 -0.07227,-0.097656 -0.164,-0.2366999 -0.346828,-0.4589624 -0.548828,-0.6640624 -0.015,-0.0148 -0.02992,-0.028369 -0.04492,-0.042969 -0.213,-0.2119 -0.445359,-0.4040987 -0.693359,-0.57421875 -0.01614,-0.01099 -0.0345,-0.0184969 -0.05078,-0.0292969 -0.25139,-0.1676 -0.517451,-0.31207063 -0.794921,-0.43164063 l -0.01563,-0.007813 c -0.0076,-0.0032 -0.01582,-0.004613 -0.02344,-0.007813 -0.28695,-0.11988 -0.584472,-0.21273375 -0.888672,-0.27734375 -0.01388,-0.0029 -0.0271,-0.006966 -0.04101,-0.0097656 C 11.832001,0.06689937 11.66741,0.04200062 11.5,0.02539063 11.334,0.00858163 11.167,1.03e-4 11,0 Z"
     id="path1" />
</svg>
