<?xml version="1.0" encoding="UTF-8" standalone="no"?>
<svg
   width="16"
   height="16"
   viewBox="0 0 16 16"
   version="1.1"
   id="svg1"
   sodipodi:docname="boundingbox_top_left.svg"
   xmlns:inkscape="http://www.inkscape.org/namespaces/inkscape"
   xmlns:sodipodi="http://sodipodi.sourceforge.net/DTD/sodipodi-0.dtd"
   xmlns="http://www.w3.org/2000/svg"
   xmlns:svg="http://www.w3.org/2000/svg">
  <sodipodi:namedview
     id="namedview1"
     pagecolor="#505050"
     bordercolor="#eeeeee"
     borderopacity="1"
     inkscape:showpageshadow="0"
     inkscape:pageopacity="0"
     inkscape:pagecheckerboard="0"
     inkscape:deskcolor="#d1d1d1" />
  <defs
     id="defs1">
    <style
       id="current-color-scheme"
       type="text/css">&#10;   .ColorScheme-Text { color:#1e3f5a; } .ColorScheme-Highlight { color:#4285f4; }&#10;  </style>
  </defs>
  <path
     style="fill:#bde6fb;fill-opacity:1"
     class="ColorScheme-Text"
     d="M 5,0 C 4.833,1.03e-4 4.6661,0.00858163 4.5,0.02539063 4.33259,0.04200062 4.1679994,0.06689937 4.0058594,0.09960937 c -0.01392,0.0028 -0.027136,0.0068656 -0.041016,0.0097656 -0.3042001,0.06461 -0.6017219,0.15746375 -0.8886719,0.27734375 -0.00762,0.0032 -0.015837,0.004613 -0.023437,0.007813 l -0.015625,0.007813 c -0.27747,0.11957 -0.5435319,0.26404063 -0.7949219,0.43164063 -0.01628,0.0108 -0.034641,0.0183069 -0.050781,0.0292969 C 1.9435062,1.0334013 1.7114469,1.2256 1.4980469,1.4375 c -0.0148,0.0146 -0.030222,0.028169 -0.044922,0.042969 -0.2017,0.2051 -0.3853281,0.4273625 -0.54882812,0.6640624 -0.02328,0.0333 -0.0497856,0.063756 -0.0722656,0.097656 -0.15239,0.2333 -0.28502437,0.478875 -0.39648437,0.734375 -0.01927,0.0433 -0.0405238,0.084906 -0.0585938,0.1289063 -0.10779,0.2643999 -0.19273624,0.5375062 -0.25390624,0.8164062 -0.01167,0.0529 -0.02515626,0.1046031 -0.03515626,0.1582031 -0.01348,0.0759 -0.02515625,0.1521157 -0.03515625,0.2285157 -0.01186,0.0856 -0.02375,0.1709125 -0.03124999,0.2578124 C 0.00810438,4.7106062 8.8e-4,4.8552 0,5 c 0.001886,0.2644 0.02478638,0.5282625 0.06835937,0.7890625 0.00689,0.0429 0.01152926,0.086206 0.01953125,0.1289063 0.04711,0.2487999 0.11305563,0.4936218 0.19726563,0.7324218 0.0118,0.0336 0.0246194,0.066309 0.0371094,0.099609 0.08974,0.2424 0.19813876,0.477525 0.32421876,0.703125 0.00866,0.0153 0.0185437,0.029722 0.0273437,0.044922 0.13172,0.2283 0.28131563,0.4456906 0.44726569,0.6503906 0.0042,0.0051 0.00762,0.010525 0.011719,0.015625 0.1677,0.203 0.3512281,0.3924063 0.5488281,0.5664063 0.0222,0.0197 0.043906,0.039294 0.066406,0.058594 0.199,0.1721 0.4111656,0.3281969 0.6347656,0.4667969 0.0119,0.0073 0.025109,0.012331 0.037109,0.019531 0.4859,0.2937 1.0182187,0.5023875 1.5742187,0.6171875 0.0021,5e-4 0.00376,0.00155 0.00586,0.00195 V 16 H 6 V 9.8984375 c 0.2234,-0.0474 0.4433031,-0.11 0.6582031,-0.1875 0.0367,-0.0129 0.073075,-0.025362 0.109375,-0.039063 0.4201,-0.159 0.8168875,-0.3737719 1.1796875,-0.6386719 0.03,-0.0219 0.058391,-0.045759 0.087891,-0.068359 0.1753,-0.1328 0.3417469,-0.2769407 0.4980469,-0.4316407 0.1607,-0.1621 0.3101656,-0.3349781 0.4472657,-0.5175781 0.01895,-0.02503 0.036207,-0.050772 0.054687,-0.076172 0.1227401,-0.16734 0.2349275,-0.3421575 0.3359376,-0.5234375 0.01004,-0.01818 0.019497,-0.036377 0.029297,-0.054687 0.11193,-0.20644 0.2091757,-0.420515 0.2910156,-0.640625 8e-4,-0.002 0.00125,-0.00396 0.00195,-0.00586 l 0.00391,-0.011719 c 0.08178,-0.22676 0.1470525,-0.4591325 0.1953125,-0.6953125 6e-4,-0.0026 0.00141,-0.00511 0.00195,-0.00781 H 16 V 4 H 9.8984375 c -0.0564,-0.2684 -0.134775,-0.5317094 -0.234375,-0.7871094 -0.01017,-0.02658 -0.018697,-0.053728 -0.029297,-0.080078 -0.09389,-0.23061 -0.2048712,-0.4538887 -0.3320312,-0.6679687 -0.0285,-0.04836 -0.057851,-0.095338 -0.087891,-0.1425782 -0.12882,-0.20548 -0.2724376,-0.4013075 -0.4296876,-0.5859375 -0.02235,-0.02591 -0.047452,-0.048789 -0.070312,-0.074219 -0.1552101,-0.17288 -0.32228,-0.334725 -0.5,-0.484375 C 8.1882637,1.1553744 8.1637487,1.131175 8.1367188,1.109375 7.9470588,0.958295 7.7466594,0.82121875 7.5371094,0.69921875 7.4910194,0.67198875 7.4454275,0.64490063 7.3984375,0.61914062 7.1884875,0.50337063 6.9704738,0.40284938 6.7460938,0.31835938 6.7022807,0.30199937 6.6576372,0.2885975 6.6132812,0.2734375 6.3819213,0.1930075 6.1449469,0.12968437 5.9042969,0.08398437 5.8904769,0.08148438 5.8771312,0.07857187 5.8632812,0.07617187 5.5782712,0.02584188 5.28942,3.57e-4 5,0 Z"
     id="path1" />
</svg>
