<?xml version="1.0" encoding="UTF-8" standalone="no"?>
<svg
   width="16"
   height="16"
   viewBox="0 0 16 16"
   version="1.1"
   id="svg1"
   sodipodi:docname="boundingbox_bottom_left.svg"
   xmlns:inkscape="http://www.inkscape.org/namespaces/inkscape"
   xmlns:sodipodi="http://sodipodi.sourceforge.net/DTD/sodipodi-0.dtd"
   xmlns="http://www.w3.org/2000/svg"
   xmlns:svg="http://www.w3.org/2000/svg">
  <sodipodi:namedview
     id="namedview1"
     pagecolor="#505050"
     bordercolor="#eeeeee"
     borderopacity="1"
     inkscape:showpageshadow="0"
     inkscape:pageopacity="0"
     inkscape:pagecheckerboard="0"
     inkscape:deskcolor="#d1d1d1" />
  <defs
     id="defs1">
    <style
       id="current-color-scheme"
       type="text/css">&#10;   .ColorScheme-Text { color:#1e3f5a; } .ColorScheme-Highlight { color:#4285f4; }&#10;  </style>
  </defs>
  <path
     style="fill:#bde6fb;fill-opacity:1"
     class="ColorScheme-Text"
     d="m 4,0 v 6.1054688 c -0.00205,4.179e-4 -0.00381,0.00145 -0.00586,0.00195 -0.55597,0.11487 -1.0883187,0.3235775 -1.5742187,0.6171875 -0.011981,0.0072 -0.025197,0.012211 -0.037109,0.019531 -0.22354,0.13866 -0.4357856,0.2947369 -0.6347656,0.4667969 -0.022514,0.01932 -0.044253,0.038894 -0.066406,0.058594 -0.19757,0.17406 -0.3810781,0.3634463 -0.5488281,0.5664063 -0.00414,0.0051 -0.0076,0.010565 -0.011719,0.015625 -0.16600005,0.20467 -0.31554567,0.4221506 -0.44726568,0.6503906 -0.00882,0.01523 -0.0186807,0.029602 -0.0273437,0.044922 -0.1261,0.2256 -0.23448875,0.460725 -0.32421876,0.703125 -0.0125,0.0333 -0.0253194,0.066009 -0.0371094,0.099609 -0.08421,0.2388 -0.15014563,0.4836219 -0.19726563,0.7324219 -0.007989,0.043 -0.01263925,0.08591 -0.01953125,0.128907 C 0.02474438,10.471937 0.001886,10.736 0,11 c 8.805e-4,0.14477 0.00805038,0.289444 0.02148438,0.433594 0.00747,0.08691 0.01938599,0.172232 0.03124999,0.257812 0.00996,0.07643 0.02167825,0.152616 0.03515625,0.228516 0.00997,0.05355 0.02349426,0.105273 0.03515626,0.158203 0.06117,0.27889 0.14611624,0.552016 0.25390624,0.816406 0.018067,0.04401 0.0393178,0.08554 0.0585938,0.128907 0.11146999,0.255409 0.24409437,0.501064 0.39648437,0.734374 0.02248,0.03389 0.0489876,0.06435 0.0722656,0.09766 0.16350001,0.23673 0.34711811,0.458912 0.54882811,0.664062 0.014675,0.01479 0.030065,0.02836 0.044922,0.04297 0.21338,0.21187 0.4454394,0.404049 0.6933593,0.574219 0.016145,0.01099 0.034502,0.0185 0.050781,0.0293 0.25139,0.1676 0.5174519,0.31207 0.7949219,0.43164 l 0.015625,0.0078 c 0.0076,0.0032 0.015821,0.0046 0.023437,0.0078 0.28695,0.11988 0.5844718,0.212734 0.8886719,0.277344 0.013876,0.0029 0.027097,0.007 0.041016,0.0098 C 4.1679994,15.933101 4.33259,15.957999 4.5,15.974609 4.6661,15.990609 4.833,16 5,16 c 0.28942,-3.57e-4 0.5782713,-0.02584 0.8632812,-0.07617 0.013848,-0.0024 0.027204,-0.0053 0.041016,-0.0078 0.24065,-0.0457 0.4776244,-0.109024 0.7089843,-0.189454 0.044356,-0.01516 0.088999,-0.02856 0.1328126,-0.04492 0.22438,-0.08449 0.4423937,-0.185012 0.6523437,-0.300782 0.04699,-0.02576 0.092582,-0.05285 0.1386719,-0.08008 0.20955,-0.122 0.4099494,-0.259076 0.5996094,-0.410156 0.02703,-0.0218 0.051545,-0.046 0.078125,-0.06836 0.17772,-0.14965 0.3447899,-0.311495 0.5,-0.484375 0.02286,-0.02543 0.047962,-0.04831 0.070312,-0.07422 0.15725,-0.18463 0.3008575,-0.380458 0.4296876,-0.585938 0.03004,-0.04724 0.059391,-0.09422 0.087891,-0.142578 0.12716,-0.21408 0.2381412,-0.437359 0.3320312,-0.667968 0.0106,-0.02635 0.019127,-0.0535 0.029297,-0.08008 C 9.7636625,12.532109 9.8420375,12.268 9.8984375,12 H 16 V 10 H 9.8945312 c -5e-4,-0.0027 -0.00135,-0.00521 -0.00195,-0.00781 -0.0482,-0.2362 -0.1135125,-0.4686125 -0.1953125,-0.6953125 l -0.00391,-0.011719 c -7.06e-4,-0.0019 -0.00115,-0.00386 -0.00195,-0.00586 -0.0818,-0.2201 -0.1791156,-0.434125 -0.2910156,-0.640625 -0.0098,-0.0183 -0.019297,-0.036587 -0.029297,-0.054687 C 9.2700937,8.4026844 9.1578562,8.2279469 9.0351562,8.0605469 9.0166563,8.0351469 8.9993687,8.009475 8.9804688,7.984375 8.8433687,7.801875 8.6939031,7.6288969 8.5332031,7.4667969 c -0.1563,-0.1547 -0.3227468,-0.2988407 -0.4980469,-0.4316407 -0.0295,-0.0226 -0.057891,-0.046459 -0.087891,-0.068359 -0.3628,-0.2649 -0.7595875,-0.4796719 -1.1796875,-0.6386719 -0.0363,-0.0137 -0.072675,-0.026162 -0.109375,-0.039063 C 6.4433031,6.2115625 6.2234,6.1489625 6,6.1015625 V 0 Z"
     id="path1" />
</svg>
