<?xml version="1.0" encoding="UTF-8" standalone="no"?>
<svg
   width="12"
   height="14"
   viewBox="0 0 12 14"
   version="1.1"
   id="svg1"
   sodipodi:docname="cache.svg"
   xmlns:inkscape="http://www.inkscape.org/namespaces/inkscape"
   xmlns:sodipodi="http://sodipodi.sourceforge.net/DTD/sodipodi-0.dtd"
   xmlns="http://www.w3.org/2000/svg"
   xmlns:svg="http://www.w3.org/2000/svg">
  <sodipodi:namedview
     id="namedview1"
     pagecolor="#505050"
     bordercolor="#eeeeee"
     borderopacity="1"
     inkscape:showpageshadow="0"
     inkscape:pageopacity="0"
     inkscape:pagecheckerboard="0"
     inkscape:deskcolor="#d1d1d1" />
  <defs
     id="defs1">
    <style
       id="current-color-scheme"
       type="text/css">&#10;   .ColorScheme-Text { color:#1e3f5a; } .ColorScheme-Highlight { color:#4285f4; }&#10;  </style>
  </defs>
  <path
     style="fill:#bde6fb;fill-opacity:1"
     class="ColorScheme-Text"
     d="M 1,2.5e-8 C 0,2.5e-8 0,1 0,1 v 12 c 0,0 0,1 1,1 h 10 c 0,0 1,0 1,-1 V 1 C 12,1 12,2.5e-8 11,2.5e-8 Z M 6,2 c 2.2091,0 4,1.7909 4,4 0,2.2091 -1.7909,4 -4,4 H 2 V 6 C 2,3.7909 3.7909,2 6,2 Z M 6,4 C 4.8954,4 4,4.89543 4,6 4,7.10457 4.89543,8 6,8 7.10457,8 8,7.10457 8,6 8,4.89543 7.10457,4 6,4 Z"
     id="path1" />
</svg>
