<?xml version="1.0" encoding="UTF-8" standalone="no"?>
<svg
   width="14"
   height="14"
   viewBox="0 0 14 14"
   version="1.1"
   id="svg1"
   sodipodi:docname="code-context.svg"
   xmlns:inkscape="http://www.inkscape.org/namespaces/inkscape"
   xmlns:sodipodi="http://sodipodi.sourceforge.net/DTD/sodipodi-0.dtd"
   xmlns="http://www.w3.org/2000/svg"
   xmlns:svg="http://www.w3.org/2000/svg">
  <sodipodi:namedview
     id="namedview1"
     pagecolor="#505050"
     bordercolor="#eeeeee"
     borderopacity="1"
     inkscape:showpageshadow="0"
     inkscape:pageopacity="0"
     inkscape:pagecheckerboard="0"
     inkscape:deskcolor="#d1d1d1" />
  <defs
     id="defs1">
    <style
       id="current-color-scheme"
       type="text/css">&#10;   .ColorScheme-Text { color:#1e3f5a; } .ColorScheme-Highlight { color:#4285f4; }&#10;  </style>
  </defs>
  <path
     style="fill:#bde6fb;fill-opacity:1"
     class="ColorScheme-Text"
     d="M 2,-2.5e-8 C 0.892,-2.5e-8 0,0.89199997 0,2 v 10 c 0,1.108 0.892,2 2,2 h 10 c 1.108,0 2,-0.892 2,-2 V 2 C 14,0.89179998 13.108,-2.5e-8 12,-2.5e-8 Z M 5.6816406,1.9902344 H 6 V 2.7460938 H 5.6464844 c -0.472,0 -0.7783219,0.079175 -0.9199219,0.234375 -0.145,0.1517 -0.21875,0.4776156 -0.21875,0.9785156 v 1.3125 c 0,0.5538 -0.074763,0.9546781 -0.2265625,1.2050781 -0.1517,0.2505 -0.4148625,0.4197125 -0.7890625,0.5078125 0.3742,0.0953 0.6373625,0.2690313 0.7890625,0.5195313 0.1518,0.2504 0.2265625,0.6509718 0.2265625,1.2011719 v 1.3124998 c 0,0.505 0.07375,0.830422 0.21875,0.982422 0.1416,0.151 0.4479219,0.228515 0.9199219,0.228515 H 6 v 0.761719 H 5.6816406 c -0.8394,0 -1.3998875,-0.129625 -1.6796875,-0.390625 -0.2832,-0.261 -0.4238281,-0.7835 -0.4238281,-1.5625 V 8.7734375 c 0,-0.5326 -0.091437,-0.9008687 -0.2734375,-1.1054687 -0.1821,-0.2046 -0.5115344,-0.3066406 -0.9902344,-0.3066406 H 2 V 6.6035156 h 0.3144531 c 0.4787,0 0.8081344,-0.099681 0.9902344,-0.3007812 0.182,-0.2046 0.2734375,-0.5701031 0.2734375,-1.0957031 V 3.9375 c 0,-0.7796 0.1406281,-1.2991406 0.4238281,-1.5566406 0.2798,-0.261 0.8402875,-0.390625 1.6796875,-0.390625 z m 2.3183594,0 h 0.3183594 c 0.8395996,0 1.3996876,0.129625 1.6796876,0.390625 0.283,0.2575 0.423828,0.7770406 0.423828,1.5566406 v 1.2695313 c 0,0.5256 0.09144,0.8911031 0.273437,1.0957031 0.182001,0.2011 0.511235,0.3007812 0.990235,0.3007812 H 12 v 0.7578126 h -0.314453 c -0.479,0 -0.808234,0.1020406 -0.990235,0.3066406 -0.182,0.2046 -0.273437,0.5728687 -0.273437,1.1054687 v 1.2636715 c 0,0.779 -0.140828,1.3015 -0.423828,1.5625 -0.28,0.261 -0.840088,0.390625 -1.6796876,0.390625 H 8 v -0.761719 h 0.3535156 c 0.472,0 0.7789214,-0.07752 0.9199224,-0.228515 0.144999,-0.152 0.218749,-0.477422 0.21875,-0.982422 V 8.7050782 c 0,-0.5502001 0.07456,-0.9507719 0.226562,-1.2011719 0.151,-0.2505 0.415062,-0.4242313 0.789062,-0.5195313 C 10.133812,6.896275 9.86975,6.7270625 9.71875,6.4765625 9.56675,6.2261625 9.492188,5.8252844 9.492188,5.2714844 v -1.3125 c 0,-0.5009 -0.07375,-0.8268156 -0.21875,-0.9785156 -0.141001,-0.1552 -0.4479224,-0.234375 -0.9199224,-0.234375 H 8 Z"
     id="path1" />
</svg>
