<?xml version="1.0" encoding="UTF-8" standalone="no"?>
<svg
   viewBox="0 0 575.75824 575.89972"
   version="1.1"
   id="svg4"
   sodipodi:docname="color-select.svg"
   inkscape:version="0.92.4 (5da689c313, 2019-01-14)"
   width="575.75824"
   height="575.89972"
   xmlns:inkscape="http://www.inkscape.org/namespaces/inkscape"
   xmlns:sodipodi="http://sodipodi.sourceforge.net/DTD/sodipodi-0.dtd"
   xmlns="http://www.w3.org/2000/svg"
   xmlns:svg="http://www.w3.org/2000/svg"
   xmlns:rdf="http://www.w3.org/1999/02/22-rdf-syntax-ns#"
   xmlns:cc="http://creativecommons.org/ns#"
   xmlns:dc="http://purl.org/dc/elements/1.1/">
  <metadata
     id="metadata10">
    <rdf:RDF>
      <cc:Work
         rdf:about="">
        <dc:format>image/svg+xml</dc:format>
        <dc:type
           rdf:resource="http://purl.org/dc/dcmitype/StillImage" />
        <dc:title />
      </cc:Work>
    </rdf:RDF>
  </metadata>
  <defs
     id="defs8" />
  <sodipodi:namedview
     pagecolor="#ffffff"
     bordercolor="#666666"
     borderopacity="1"
     objecttolerance="10"
     gridtolerance="10"
     guidetolerance="10"
     inkscape:pageopacity="0"
     inkscape:pageshadow="2"
     inkscape:window-width="1078"
     inkscape:window-height="480"
     id="namedview6"
     showgrid="false"
     inkscape:zoom="9.8333333"
     inkscape:cx="-0.81355932"
     inkscape:cy="12"
     inkscape:window-x="0"
     inkscape:window-y="28"
     inkscape:window-maximized="0"
     inkscape:current-layer="svg4"
     inkscape:showpageshadow="0"
     inkscape:pagecheckerboard="0"
     inkscape:deskcolor="#d1d1d1" />
  <path
     d="m -2.3000001,22.56916 a 2.25,2.25 0 0 1 2.26,-2.25 c 0.98,0 1.5,-0.87 1.5,-1.5 0.91,0.7 1.5,1.87 1.5,3 a 3,3 0 0 1 -3,3 2.25,2.25 0 0 1 -2.26,-2.25 M 21.4,3.4591598 l -2.32,-2.34 a 1,1 0 0 0 -1.42,0 l -3.12,3.12 -1.92,-1.92 -1.41,1.42 1.42,1.42 -8.9300001,8.9000002 v 4.75 h 4.75 L 17.37,9.8891598 18.78,11.30916 20.2,9.8991598 l -1.92,-1.92 3.12,-3.12 a 0.99,0.99 0 0 0 0,-1.4 M 7.6299999,16.80916 l -1.93,-1.91 L 13.76,6.8391598 l 1.94,1.92 -8.0600001,8.0600002"
     id="path2"
     inkscape:connector-curvature="0"
     style="fill:#bde6fb;fill-opacity:1" />
</svg>
