<?xml version="1.0" encoding="UTF-8" standalone="no"?>
<svg
   width="14"
   height="14"
   viewBox="0 0 14 14"
   version="1.1"
   id="svg1"
   sodipodi:docname="compass.svg"
   xmlns:inkscape="http://www.inkscape.org/namespaces/inkscape"
   xmlns:sodipodi="http://sodipodi.sourceforge.net/DTD/sodipodi-0.dtd"
   xmlns="http://www.w3.org/2000/svg"
   xmlns:svg="http://www.w3.org/2000/svg">
  <sodipodi:namedview
     id="namedview1"
     pagecolor="#505050"
     bordercolor="#eeeeee"
     borderopacity="1"
     inkscape:showpageshadow="0"
     inkscape:pageopacity="0"
     inkscape:pagecheckerboard="0"
     inkscape:deskcolor="#d1d1d1" />
  <defs
     id="defs1">
    <style
       id="current-color-scheme"
       type="text/css">&#10;   .ColorScheme-Text { color:#1e3f5a; } .ColorScheme-Highlight { color:#4285f4; }&#10;  </style>
  </defs>
  <path
     style="fill:#bde6fb;fill-opacity:1"
     class="ColorScheme-Text"
     d="M 7,0 C 3.134,0 0,3.134 0,7 c 0,3.866 3.134,7 7,7 3.866,0 7,-3.134 7,-7 C 14,3.134 10.866,0 7,0 Z m 0,2 c 2.7614,0 5,2.2386 5,5 0,2.7614 -2.2386,5 -5,5 C 4.2386,12 2,9.7614 2,7 2,4.2386 4.2386,2 7,2 Z M 10.5,3.5 7,4.6660156 C 5.7783,4.6660156 4.6660156,5.7782 4.6660156,7 L 3.5,10.5 7,9.333984 C 8.2217,9.333984 9.333984,8.2217 9.333984,7 Z M 7,5.8339844 C 7.61088,5.8339844 8.1660156,6.3891 8.1660156,7 8.1659956,7.6108 7.61083,8.1660156 7,8.1660156 6.38915,8.1660156 5.8339844,7.6108 5.8339844,7 5.8339544,6.3891 6.38913,5.8339844 7,5.8339844 Z"
     id="path1" />
</svg>
