<?xml version="1.0" encoding="UTF-8" standalone="no"?>
<svg
   width="15"
   height="12"
   version="1.1"
   id="svg7"
   sodipodi:docname="configure-shortcuts.svg"
   inkscape:version="0.92.4 (5da689c313, 2019-01-14)"
   xmlns:inkscape="http://www.inkscape.org/namespaces/inkscape"
   xmlns:sodipodi="http://sodipodi.sourceforge.net/DTD/sodipodi-0.dtd"
   xmlns="http://www.w3.org/2000/svg"
   xmlns:svg="http://www.w3.org/2000/svg"
   xmlns:rdf="http://www.w3.org/1999/02/22-rdf-syntax-ns#"
   xmlns:cc="http://creativecommons.org/ns#"
   xmlns:dc="http://purl.org/dc/elements/1.1/">
  <metadata
     id="metadata11">
    <rdf:RDF>
      <cc:Work
         rdf:about="">
        <dc:format>image/svg+xml</dc:format>
        <dc:type
           rdf:resource="http://purl.org/dc/dcmitype/StillImage" />
        <dc:title />
      </cc:Work>
    </rdf:RDF>
  </metadata>
  <sodipodi:namedview
     pagecolor="#ffffff"
     bordercolor="#666666"
     borderopacity="1"
     objecttolerance="10"
     gridtolerance="10"
     guidetolerance="10"
     inkscape:pageopacity="0"
     inkscape:pageshadow="2"
     inkscape:window-width="1078"
     inkscape:window-height="480"
     id="namedview9"
     showgrid="false"
     inkscape:zoom="9.8333333"
     inkscape:cx="-0.81355932"
     inkscape:cy="12"
     inkscape:window-x="0"
     inkscape:window-y="28"
     inkscape:window-maximized="0"
     inkscape:current-layer="svg7"
     inkscape:showpageshadow="0"
     inkscape:pagecheckerboard="0"
     inkscape:deskcolor="#d1d1d1" />
  <defs
     id="defs3">
    <style
       id="current-color-scheme" />
  </defs>
  <path
     d="M 2,0 C 2,0 0,0 0,2 v 8 c 0,2 2,2 2,2 h 11 c 0,0 2,0 2,-2 V 2 C 15,0 13,0 13,0 Z m 0.25,2 h 1.5 C 3.89,2 4,2.11 4,2.25 v 1.5 C 4,3.89 3.89,4 3.75,4 H 2.25 A 0.25,0.25 0 0 1 2,3.75 V 2.25 C 2,2.11 2.11,2 2.25,2 Z m 3,0 h 1.5 C 6.89,2 7,2.11 7,2.25 v 1.5 C 7,3.89 6.89,4 6.75,4 H 5.25 A 0.25,0.25 0 0 1 5,3.75 V 2.25 C 5,2.11 5.11,2 5.25,2 Z m 3,0 h 1.5 C 9.89,2 10,2.11 10,2.25 v 1.5 C 10,3.89 9.89,4 9.75,4 H 8.25 A 0.25,0.25 0 0 1 8,3.75 V 2.25 C 8,2.11 8.11,2 8.25,2 Z m 3,0 h 1.5 C 12.89,2 13,2.11 13,2.25 v 1.5 C 13,3.89 12.89,4 12.75,4 h -1.5 A 0.25,0.25 0 0 1 11,3.75 V 2.25 C 11,2.11 11.11,2 11.25,2 Z m -9,3 h 1.5 C 3.89,5 4,5.11 4,5.25 v 1.5 C 4,6.89 3.89,7 3.75,7 H 2.25 A 0.25,0.25 0 0 1 2,6.75 V 5.25 C 2,5.11 2.11,5 2.25,5 Z m 3,0 h 1.5 C 6.89,5 7,5.11 7,5.25 v 1.5 C 7,6.89 6.89,7 6.75,7 H 5.25 A 0.25,0.25 0 0 1 5,6.75 V 5.25 C 5,5.11 5.11,5 5.25,5 Z m 3,0 h 1.5 C 9.89,5 10,5.11 10,5.25 v 1.5 C 10,6.89 9.89,7 9.75,7 H 8.25 A 0.25,0.25 0 0 1 8,6.75 V 5.25 C 8,5.11 8.11,5 8.25,5 Z m 3,0 h 1.5 C 12.89,5 13,5.11 13,5.25 v 1.5 C 13,6.89 12.89,7 12.75,7 h -1.5 A 0.25,0.25 0 0 1 11,6.75 V 5.25 C 11,5.11 11.11,5 11.25,5 Z m -7,3 h 6.5 C 10.89,8 11,8.11 11,8.25 v 1.5 C 11,9.89 10.89,10 10.75,10 H 4.25 A 0.25,0.25 0 0 1 4,9.75 V 8.25 C 4,8.11 4.11,8 4.25,8 Z"
     id="path5"
     inkscape:connector-curvature="0"
     style="color:#1e3f5a;fill:#bde6fb;fill-opacity:1" />
</svg>
