<?xml version="1.0" encoding="UTF-8" standalone="no"?>
<svg
   width="15.999521"
   height="16"
   version="1.1"
   id="svg7"
   sodipodi:docname="configure-toolbars.svg"
   inkscape:version="0.92.4 (5da689c313, 2019-01-14)"
   xmlns:inkscape="http://www.inkscape.org/namespaces/inkscape"
   xmlns:sodipodi="http://sodipodi.sourceforge.net/DTD/sodipodi-0.dtd"
   xmlns="http://www.w3.org/2000/svg"
   xmlns:svg="http://www.w3.org/2000/svg"
   xmlns:rdf="http://www.w3.org/1999/02/22-rdf-syntax-ns#"
   xmlns:cc="http://creativecommons.org/ns#"
   xmlns:dc="http://purl.org/dc/elements/1.1/">
  <metadata
     id="metadata11">
    <rdf:RDF>
      <cc:Work
         rdf:about="">
        <dc:format>image/svg+xml</dc:format>
        <dc:type
           rdf:resource="http://purl.org/dc/dcmitype/StillImage" />
        <dc:title />
      </cc:Work>
    </rdf:RDF>
  </metadata>
  <sodipodi:namedview
     pagecolor="#ffffff"
     bordercolor="#666666"
     borderopacity="1"
     objecttolerance="10"
     gridtolerance="10"
     guidetolerance="10"
     inkscape:pageopacity="0"
     inkscape:pageshadow="2"
     inkscape:window-width="1078"
     inkscape:window-height="480"
     id="namedview9"
     showgrid="false"
     inkscape:zoom="9.8333333"
     inkscape:cx="-0.81355932"
     inkscape:cy="12"
     inkscape:window-x="0"
     inkscape:window-y="28"
     inkscape:window-maximized="0"
     inkscape:current-layer="svg7"
     inkscape:showpageshadow="0"
     inkscape:pagecheckerboard="0"
     inkscape:deskcolor="#d1d1d1" />
  <defs
     id="defs3">
    <style
       id="current-color-scheme" />
  </defs>
  <path
     d="m 11.02,0 c -0.35,0.13 -0.7,0.3 -0.98,0.54 A 2.56,2.56 0 0 0 10,4.64 C 10.28,4.87 10.63,5.05 10.97,5.2 11,5.2 11,7.25 11,7.25 A 7.42,7.42 0 0 1 14,10 V 5.25 C 14.34,5.12 14.66,4.93 14.95,4.7 A 2.56,2.56 0 0 0 14.99,0.6 3.64,3.64 0 0 0 14.02,0.04 L 14,2.27 C 14,2.73 13.55,3 13,3 H 12 C 11.44,3 11,2.7 11,2.23 Z M 8,8 C 4,8 2,11 2,14 H 0.25 C 0,14 0,14.16 0,14.25 v 1.5 C 0,16 0.14,16 0.25,16 h 15.5 c 0.19,0 0.24,-0.13 0.24,-0.25 v -1.5 C 16.02,14.1 15.99,14 15.74,14 H 14 C 14,11 12,8 8,8 Z m 0,3 c 2.35,0 3,1.76 3,3 H 5 c 0,-1.2 0.7,-3 3,-3 z"
     id="path5"
     inkscape:connector-curvature="0"
     style="color:#1e3f5a;fill:#bde6fb;fill-opacity:1" />
</svg>
