<?xml version="1.0" encoding="UTF-8" standalone="no"?>
<svg
   width="16"
   height="15.990001"
   version="1.1"
   id="svg7"
   sodipodi:docname="contrast.svg"
   inkscape:version="0.92.4 (5da689c313, 2019-01-14)"
   xmlns:inkscape="http://www.inkscape.org/namespaces/inkscape"
   xmlns:sodipodi="http://sodipodi.sourceforge.net/DTD/sodipodi-0.dtd"
   xmlns="http://www.w3.org/2000/svg"
   xmlns:svg="http://www.w3.org/2000/svg"
   xmlns:rdf="http://www.w3.org/1999/02/22-rdf-syntax-ns#"
   xmlns:cc="http://creativecommons.org/ns#"
   xmlns:dc="http://purl.org/dc/elements/1.1/">
  <metadata
     id="metadata11">
    <rdf:RDF>
      <cc:Work
         rdf:about="">
        <dc:format>image/svg+xml</dc:format>
        <dc:type
           rdf:resource="http://purl.org/dc/dcmitype/StillImage" />
        <dc:title />
      </cc:Work>
    </rdf:RDF>
  </metadata>
  <sodipodi:namedview
     pagecolor="#ffffff"
     bordercolor="#666666"
     borderopacity="1"
     objecttolerance="10"
     gridtolerance="10"
     guidetolerance="10"
     inkscape:pageopacity="0"
     inkscape:pageshadow="2"
     inkscape:window-width="1078"
     inkscape:window-height="480"
     id="namedview9"
     showgrid="false"
     inkscape:zoom="9.8333333"
     inkscape:cx="-0.81355932"
     inkscape:cy="12"
     inkscape:window-x="0"
     inkscape:window-y="28"
     inkscape:window-maximized="0"
     inkscape:current-layer="svg7"
     inkscape:showpageshadow="0"
     inkscape:pagecheckerboard="0"
     inkscape:deskcolor="#d1d1d1" />
  <defs
     id="defs3">
    <style
       id="current-color-scheme" />
  </defs>
  <path
     d="M 7.5,3.8146973e-8 V 1.81 h 1 V 3.8146973e-8 Z M 2.69,1.96 1.97,2.68 3.25,3.98 3.97,3.24 Z m 10.62,0 -1.28,1.28 0.72,0.75 1.28,-1.31 z M 8,3 A 5,5 0 1 0 8,13 5,5 0 0 0 8,3 Z m 0,1 v 8 A 4,4 0 0 1 8,4 Z M 0,7.5 v 1 h 1.81 v -1 z m 14.19,0 v 1 H 16 v -1 h -1.8 z m -10.94,4.53 -1.28,1.28 0.72,0.72 1.28,-1.28 z m 9.5,0 -0.72,0.72 1.28,1.28 0.72,-0.72 z M 7.5,14.19 v 1.8 h 1 v -1.8 z"
     id="path5"
     inkscape:connector-curvature="0"
     style="color:#1e3f5a;fill:#bde6fb;fill-opacity:1" />
</svg>
