<?xml version="1.0" encoding="UTF-8" standalone="no"?>
<svg
   width="14"
   height="15"
   viewBox="0 0 14 15"
   version="1.1"
   id="svg1"
   sodipodi:docname="curve-connector.svg"
   xmlns:inkscape="http://www.inkscape.org/namespaces/inkscape"
   xmlns:sodipodi="http://sodipodi.sourceforge.net/DTD/sodipodi-0.dtd"
   xmlns="http://www.w3.org/2000/svg"
   xmlns:svg="http://www.w3.org/2000/svg">
  <sodipodi:namedview
     id="namedview1"
     pagecolor="#505050"
     bordercolor="#eeeeee"
     borderopacity="1"
     inkscape:showpageshadow="0"
     inkscape:pageopacity="0"
     inkscape:pagecheckerboard="0"
     inkscape:deskcolor="#d1d1d1" />
  <defs
     id="defs1">
    <style
       id="current-color-scheme"
       type="text/css">&#10;   .ColorScheme-Text { color:#1e3f5a; } .ColorScheme-Highlight { color:#4285f4; }&#10;  </style>
  </defs>
  <path
     style="fill:#bde6fb;fill-opacity:1"
     class="ColorScheme-Text"
     d="M 11.5,0 A 2.4999375,2.4999275 0 0 0 9.050781,2 H 3.5 C 2.1193345,2 1,3.61934 1,5 1,6.38066 2.1193345,8 3.5,8 h 7 c 0.827979,0 1.5,1.172024 1.5,2 0,0.827976 -0.672021,2 -1.5,2 H 4.9453125 A 2.4999375,2.4999275 0 0 0 2.5,10 2.4999375,2.4999275 0 0 0 0,12.5 2.4999375,2.4999275 0 0 0 2.5,15 2.4999375,2.4999275 0 0 0 4.9492188,13 H 10.5 C 11.880965,13 13,11.38096 13,10 13,8.61934 11.880965,7 10.5,7 h -7 C 2.6716207,7 2,5.828376 2,5 2,4.171624 2.6716207,3 3.5,3 H 9.054688 A 2.4999375,2.4999275 0 0 0 11.5,5 2.4999375,2.4999275 0 0 0 14,2.5 2.4999375,2.4999275 0 0 0 11.5,0 Z"
     id="path1" />
</svg>
