<?xml version="1.0" encoding="UTF-8" standalone="no"?>
<svg
   width="16"
   height="12"
   version="1.1"
   id="svg2"
   sodipodi:docname="database-change-key.svg"
   xmlns:inkscape="http://www.inkscape.org/namespaces/inkscape"
   xmlns:sodipodi="http://sodipodi.sourceforge.net/DTD/sodipodi-0.dtd"
   xmlns:xlink="http://www.w3.org/1999/xlink"
   xmlns="http://www.w3.org/2000/svg"
   xmlns:svg="http://www.w3.org/2000/svg">
  <sodipodi:namedview
     id="namedview2"
     pagecolor="#505050"
     bordercolor="#eeeeee"
     borderopacity="1"
     inkscape:showpageshadow="0"
     inkscape:pageopacity="0"
     inkscape:pagecheckerboard="0"
     inkscape:deskcolor="#d1d1d1" />
  <defs
     id="defs1">
    <linearGradient
       id="swatch2"
       inkscape:swatch="solid">
      <stop
         style="stop-color:#bde6fb;stop-opacity:1;"
         offset="0"
         id="stop2" />
    </linearGradient>
    <style
       id="current-color-scheme"
       type="text/css">&#10;   .ColorScheme-Text { color:#1e3f5a; } .ColorScheme-Highlight { color:#4285f4; }&#10;  </style>
    <linearGradient
       inkscape:collect="always"
       xlink:href="#swatch2"
       id="linearGradient2"
       x1="0"
       y1="14"
       x2="16"
       y2="14"
       gradientUnits="userSpaceOnUse"
       gradientTransform="translate(4,6)" />
    <linearGradient
       inkscape:collect="always"
       xlink:href="#swatch2"
       id="linearGradient3"
       gradientUnits="userSpaceOnUse"
       x1="0"
       y1="14"
       x2="16"
       y2="14"
       gradientTransform="translate(4,6)" />
    <linearGradient
       inkscape:collect="always"
       xlink:href="#swatch2"
       id="linearGradient4"
       gradientUnits="userSpaceOnUse"
       x1="0"
       y1="14"
       x2="16"
       y2="14"
       gradientTransform="translate(4,6)" />
  </defs>
  <g
     transform="translate(0,-8)"
     id="g2"
     style="fill:url(#linearGradient2)">
    <path
       style="fill:url(#linearGradient3)"
       class="ColorScheme-Text"
       d="M 4.5,9 C 2.01,9 0,11.02 0,13.5 c 0,1.221 0.48724,2.323 1.2734,3.133 L 3.3965,14.51 C 3.1525,14.243 3,13.891 3,13.5 3,12.68 3.67,12 4.5,12 c 0.3901,0 0.7414,0.154 1.0078,0.398 L 7.627,10.279 C 6.8046,9.4835 5.6928,9.0063 4.5,9 Z m 9.592,3 -3.008,3 H 12 v 2 h 3 v -2 h 1 v -3 z"
       id="path1" />
    <path
       style="fill:url(#linearGradient4)"
       class="ColorScheme-Text"
       d="M 2,17.32 V 20 h 2.67 l 6.75,-6.75 -2.67,-2.68 z m 11.79,-6.43 c 0.28,-0.28 0.28,-0.73 0,-1.01 L 12.12,8.21 c -0.29,-0.28 -0.73,-0.28 -1.01,0 l -1.4,1.4 2.67,2.68 z"
       id="path2" />
  </g>
</svg>
