<?xml version="1.0" encoding="UTF-8" standalone="no"?>
<svg
   width="14.000347"
   height="14"
   viewBox="0 0 14.000347 14"
   version="1.1"
   id="svg1"
   sodipodi:docname="debug-step-over.svg"
   xmlns:inkscape="http://www.inkscape.org/namespaces/inkscape"
   xmlns:sodipodi="http://sodipodi.sourceforge.net/DTD/sodipodi-0.dtd"
   xmlns="http://www.w3.org/2000/svg"
   xmlns:svg="http://www.w3.org/2000/svg">
  <sodipodi:namedview
     id="namedview1"
     pagecolor="#505050"
     bordercolor="#eeeeee"
     borderopacity="1"
     inkscape:showpageshadow="0"
     inkscape:pageopacity="0"
     inkscape:pagecheckerboard="0"
     inkscape:deskcolor="#d1d1d1" />
  <defs
     id="defs1">
    <style
       id="current-color-scheme"
       type="text/css">&#10;   .ColorScheme-Text { color:#1e3f5a; } .ColorScheme-Highlight { color:#4285f4; }&#10;  </style>
  </defs>
  <path
     style="fill:#bde6fb;fill-opacity:1"
     class="ColorScheme-Text"
     d="M 2.0081591,0 C -0.24054083,0 0.00815914,2 0.00815914,2 V 14 H 14.000347 V 4 H 12.0023 v 8 H 2.0081591 V 4 H 9.0003465 V 0 Z m 7.9921879,0 2,3 2,-3 z M 8.5882373,4.9941406 8.5765185,5 v 0.5917969 c 0.71028,0 0.71875,0.2391287 0.71875,1.1054687 0.007,0.0804 0.002,0.1986244 0.02539,0.3027344 0.0532,0.37563 0.224195,0.8013462 0.6972655,1.0039062 -0.5986905,0.25635 -0.7226565,0.8755657 -0.7226565,1.2910158 -0.0137,0.19066 -0.01718,0.589108 -0.05078,0.705078 -0.0635,0.28989 -0.218459,0.408203 -0.667969,0.408203 V 11 c 0.95725,0 1.410941,-0.28836 1.4941415,-1 0.004,-0.10814 0.02258,-0.302633 0.01758,-0.476562 0,-0.5569105 0.02081,-1.2011724 0.609375,-1.2011724 h 0.304687 V 7.6777344 H 10.697613 C 10.294883,7.6777344 10.165668,7.36892 10.119488,7 10.112488,6.84134 10.088238,6.2539062 10.088238,6.2539062 10.098238,5.3439063 9.6482375,4.9941406 8.5882373,4.9941406 Z M 5.4339404,5 c -1.0655,0 -1.5136719,0.3522562 -1.5136719,1.2539062 0,0 -0.02455,0.5874338 -0.03125,0.7460938 -0.0462,0.36892 -0.175395,0.6777344 -0.578125,0.6777344 H 3.006206 v 0.6445312 h 0.3046875 c 0.58855,0 0.609375,0.6442319 0.609375,1.2011724 -0.005,0.17393 0.013578,0.368422 0.017578,0.476562 0.0833,0.71164 0.5388438,1 1.4960938,1 V 10.408203 C 4.9844304,10.408203 4.8275485,10.28989 4.7640185,10 4.7303185,9.88403 4.7268372,9.485582 4.7132373,9.294922 4.7132373,8.8794619 4.589271,8.2602063 3.990581,8.0039062 4.463651,7.8013362 4.6346566,7.37562 4.6878466,7 c 0.0239,-0.10411 0.018591,-0.2223044 0.025391,-0.3027344 0,-0.86631 0.010393,-1.1054687 0.7207031,-1.1054687 z"
     id="path1" />
</svg>
