<?xml version="1.0" encoding="UTF-8" standalone="no"?>
<svg
   width="14.00036"
   height="14"
   viewBox="0 0 14.00036 14"
   version="1.1"
   id="svg1"
   sodipodi:docname="debug-step-out.svg"
   xmlns:inkscape="http://www.inkscape.org/namespaces/inkscape"
   xmlns:sodipodi="http://sodipodi.sourceforge.net/DTD/sodipodi-0.dtd"
   xmlns="http://www.w3.org/2000/svg"
   xmlns:svg="http://www.w3.org/2000/svg">
  <sodipodi:namedview
     id="namedview1"
     pagecolor="#505050"
     bordercolor="#eeeeee"
     borderopacity="1"
     inkscape:showpageshadow="0"
     inkscape:pageopacity="0"
     inkscape:pagecheckerboard="0"
     inkscape:deskcolor="#d1d1d1" />
  <defs
     id="defs1">
    <style
       id="current-color-scheme"
       type="text/css">&#10;   .ColorScheme-Text { color:#1e3f5a; } .ColorScheme-Highlight { color:#4285f4; }&#10;  </style>
  </defs>
  <path
     style="fill:#bde6fb;fill-opacity:1"
     class="ColorScheme-Text"
     d="M 2.0081595,0 C -0.24054046,0 0.00815954,2 0.00815954,2 V 14 H 14.00016 V 4 h -1.998 v 8 H 2.0079595 V 4 H 10.00016 V 0 H 2.0079595 Z M 11.00036,0 v 4 l 3,-2 z M 5.4339595,5 c -1.0655,0 -1.5137,0.3522 -1.5137,1.2539 0,0 -0.0244,0.5874 -0.0312,0.7461 -0.0462,0.3689 -0.1754,0.6777 -0.5782,0.6777 h -0.3046 v 0.6446 h 0.3046 c 0.5886,0 0.6094,0.6442 0.6094,1.2007 -0.005,0.174 0.0136,0.369 0.0176,0.477 0.0833,0.712 0.5388,1 1.4961,1 v -0.592 c -0.4495,0 -0.6064,-0.118 -0.6699,-0.408 -0.0337,-0.116 -0.0372,-0.514 -0.0508,-0.705 0,-0.4155 -0.124,-1.0347 -0.7227,-1.2911 0.4731,-0.2026 0.6441,-0.6283 0.6973,-1.0039 0.0239,-0.1041 0.0186,-0.2223 0.0254,-0.3027 0,-0.8663 0.0104,-1.1055 0.7207,-1.1055 z m 3.1426,0 v 0.5918 c 0.7098,0 0.7188,0.2392 0.7188,1.1055 0.007,0.0804 0.002,0.1986 0.025,0.3027 0.054,0.3756 0.225,0.8013 0.6980005,1.0039 -0.5990005,0.2564 -0.7230005,0.8756 -0.7230005,1.2911 -0.014,0.191 -0.017,0.589 -0.051,0.705 -0.063,0.29 -0.218,0.408 -0.6678,0.408 V 11 c 0.9568,0 1.4108,-0.288 1.4938005,-1 0.004,-0.108 0.023,-0.303 0.018,-0.477 0,-0.5565 0.021,-1.2007 0.609,-1.2007 h 0.305 V 7.6777 h -0.305 c -0.402,0 -0.532,-0.3088 -0.578,-0.6777 -0.007,-0.1587 -0.031,-0.7461 -0.031,-0.7461 C 10.08836,5.3522 9.6423595,5 8.5765595,5 Z"
     id="path1" />
</svg>
