<?xml version="1.0" encoding="UTF-8" standalone="no"?>
<svg
   width="14.000517"
   height="14"
   viewBox="0 0 14.000517 14"
   version="1.1"
   id="svg1"
   sodipodi:docname="debug-step-into.svg"
   xmlns:inkscape="http://www.inkscape.org/namespaces/inkscape"
   xmlns:sodipodi="http://sodipodi.sourceforge.net/DTD/sodipodi-0.dtd"
   xmlns="http://www.w3.org/2000/svg"
   xmlns:svg="http://www.w3.org/2000/svg">
  <sodipodi:namedview
     id="namedview1"
     pagecolor="#505050"
     bordercolor="#eeeeee"
     borderopacity="1"
     inkscape:showpageshadow="0"
     inkscape:pageopacity="0"
     inkscape:pagecheckerboard="0"
     inkscape:deskcolor="#d1d1d1" />
  <defs
     id="defs1">
    <style
       id="current-color-scheme"
       type="text/css">&#10;   .ColorScheme-Text { color:#1e3f5a; } .ColorScheme-Highlight { color:#4285f4; }&#10;  </style>
  </defs>
  <path
     style="fill:#bde6fb;fill-opacity:1"
     class="ColorScheme-Text"
     d="M 2.0063762,0 C -0.24232373,0 0.00832944,2 0.00832944,2 V 14 H 14.000517 V 2 c 0,-2 -2,-2 -2,-2 H 10.00247 v 4 h 1.998047 v 8 H 2.0063762 V 4 h 2 V 0 Z m 2.9980469,0 2,3 1.9980465,-3 z m 0.4277344,5 c -1.0655,0 -1.5117188,0.3522562 -1.5117188,1.2539062 0,0 -0.02445,0.5874338 -0.03125,0.7460938 -0.0462,0.36892 -0.175395,0.6777344 -0.578125,0.6777344 H 3.0063762 v 0.6445312 h 0.3046875 c 0.58855,0 0.609375,0.6442319 0.609375,1.2011724 -0.005,0.17393 0.013578,0.368422 0.017578,0.476562 0.0833,0.71164 0.5369007,1 1.4941407,1 V 10.408203 C 4.9826475,10.408203 4.8257656,10.28989 4.7622356,10 4.7285356,9.88403 4.7250543,9.485582 4.7114544,9.294922 4.7114544,8.8794619 4.5894412,8.2602063 3.9907512,8.0039062 4.4638212,7.8013362 4.6328737,7.37562 4.6860637,7 c 0.0239,-0.10411 0.018591,-0.2223044 0.025391,-0.3027344 0,-0.86631 0.010423,-1.1054687 0.7207031,-1.1054687 z m 3.1425781,0 v 0.5917969 c 0.71028,0 0.720703,0.2391287 0.720703,1.1054687 0.007,0.0804 0.002,0.1986244 0.02539,0.3027344 0.0532,0.37563 0.224195,0.8013462 0.6972654,1.0039062 -0.5986904,0.25635 -0.7226564,0.8755657 -0.7226564,1.2910158 -0.0137,0.19066 -0.01718,0.589108 -0.05078,0.705078 -0.0635,0.28989 -0.220412,0.408203 -0.669922,0.408203 V 11 c 0.95725,0 1.412894,-0.28836 1.4960944,-1 0.004,-0.10814 0.02258,-0.302633 0.01758,-0.476562 0,-0.5569105 0.02086,-1.2011724 0.609375,-1.2011724 h 0.302734 V 7.6777344 H 10.697783 C 10.295053,7.6777344 10.165838,7.36892 10.119658,7 10.112658,6.84134 10.088408,6.2539062 10.088408,6.2539062 10.088408,5.3522463 9.6402156,5 8.5747356,5 Z"
     id="path1" />
</svg>
