<?xml version="1.0" encoding="UTF-8" standalone="no"?>
<svg
   width="24"
   height="24"
   viewBox="0 0 24 24"
   version="1.1"
   id="svg1"
   sodipodi:docname="delete-comment.svg"
   xmlns:inkscape="http://www.inkscape.org/namespaces/inkscape"
   xmlns:sodipodi="http://sodipodi.sourceforge.net/DTD/sodipodi-0.dtd"
   xmlns="http://www.w3.org/2000/svg"
   xmlns:svg="http://www.w3.org/2000/svg">
  <sodipodi:namedview
     id="namedview1"
     pagecolor="#505050"
     bordercolor="#eeeeee"
     borderopacity="1"
     inkscape:showpageshadow="0"
     inkscape:pageopacity="0"
     inkscape:pagecheckerboard="0"
     inkscape:deskcolor="#d1d1d1" />
  <defs
     id="defs1">
    <style
       id="current-color-scheme"
       type="text/css">&#10;   .ColorScheme-Text { color:#1e3f5a; } .ColorScheme-Highlight { color:#4285f4; }&#10;  </style>
  </defs>
  <path
     style="fill:#bde6fb;fill-opacity:1"
     class="ColorScheme-Text"
     d="M 6.9688,6 C 6.9688,6 5,6 5,8 v 6 c 0,1.108 0.892,2 2,2 h 5 L 14,19.004 16,16 h 1 c 0,0 2,0 2,-2 V 8 C 19,6 17,6 17,6 H 6.969 Z M 10.5859,8.1719 12,9.5859 13.4141,8.1719 14.828,9.5859 13.4141,11 14.828,12.4141 13.4141,13.8281 12,12.4141 10.5859,13.8281 9.1719,12.4141 10.5859,11 9.1719,9.5859 Z"
     id="path1" />
</svg>
