<?xml version="1.0" encoding="UTF-8" standalone="no"?>
<svg
   width="24"
   height="24"
   viewBox="0 0 24 24"
   version="1.1"
   id="svg1"
   sodipodi:docname="depth16to8.svg"
   xmlns:inkscape="http://www.inkscape.org/namespaces/inkscape"
   xmlns:sodipodi="http://sodipodi.sourceforge.net/DTD/sodipodi-0.dtd"
   xmlns="http://www.w3.org/2000/svg"
   xmlns:svg="http://www.w3.org/2000/svg">
  <sodipodi:namedview
     id="namedview1"
     pagecolor="#505050"
     bordercolor="#eeeeee"
     borderopacity="1"
     inkscape:showpageshadow="0"
     inkscape:pageopacity="0"
     inkscape:pagecheckerboard="0"
     inkscape:deskcolor="#d1d1d1" />
  <defs
     id="defs1">
    <style
       id="current-color-scheme"
       type="text/css">&#10;   .ColorScheme-Text { color:#1e3f5a; } .ColorScheme-Highlight { color:#4285f4; }&#10;  </style>
  </defs>
  <path
     style="fill:#bde6fb;fill-opacity:1"
     class="ColorScheme-Text"
     d="M 5,4.7304687 V 5.7304688 H 6 V 11.730469 H 7 V 4.7304687 H 6 Z m 5,0 A 2,2 0 0 0 8,6.7304688 v 3 a 2,2 0 0 0 2,2.0000002 2,2 0 0 0 2,-2.0000002 2,2 0 0 0 -2,-2 A 2,2 0 0 0 9,8 V 6.7304688 a 1,1 0 0 1 1,-1 1,1 0 0 1 1,1 h 1 A 2,2 0 0 0 10,4.7304687 Z M 12,5 v 1 a 7,7 0 0 1 6.308594,4 h -3.609375 v 1 h 4 1 V 10.886719 10 6 h -1 V 8.65625 A 8,8 0 0 0 12,5 Z m -2,3.7304688 a 1,1 0 0 1 1,1 1,1 0 0 1 -1,1.0000002 1,1 0 0 1 -1,-1.0000002 1,1 0 0 1 1,-1 z M 18,12 a 2,2 0 0 0 -2,2 2,2 0 0 0 0.679688,1.5 A 2,2 0 0 0 16,17 2,2 0 0 0 18,19 2,2 0 0 0 20,17 2,2 0 0 0 19.320312,15.5 2,2 0 0 0 20,14 2,2 0 0 0 18,12 Z M 5,13 V 13.113281 14 18 H 6 V 15.34375 A 8,8 0 0 0 12.699219,19 V 18 A 7,7 0 0 1 6.390625,14 H 10 V 13 H 5.9980469 Z m 13,0 a 1,1 0 0 1 1,1 1,1 0 0 1 -1,1 1,1 0 0 1 -1,-1 1,1 0 0 1 1,-1 z m 0,3 a 1,1 0 0 1 1,1 1,1 0 0 1 -1,1 1,1 0 0 1 -1,-1 1,1 0 0 1 1,-1 z"
     id="path1" />
</svg>
