<?xml version="1.0" encoding="UTF-8" standalone="no"?>
<svg
   width="24"
   height="24"
   viewBox="0 0 24 24"
   version="1.1"
   id="svg1"
   sodipodi:docname="depth8to16.svg"
   xmlns:inkscape="http://www.inkscape.org/namespaces/inkscape"
   xmlns:sodipodi="http://sodipodi.sourceforge.net/DTD/sodipodi-0.dtd"
   xmlns="http://www.w3.org/2000/svg"
   xmlns:svg="http://www.w3.org/2000/svg">
  <sodipodi:namedview
     id="namedview1"
     pagecolor="#505050"
     bordercolor="#eeeeee"
     borderopacity="1"
     inkscape:showpageshadow="0"
     inkscape:pageopacity="0"
     inkscape:pagecheckerboard="0"
     inkscape:deskcolor="#d1d1d1" />
  <defs
     id="defs1">
    <style
       id="current-color-scheme"
       type="text/css">&#10;   .ColorScheme-Text { color:#1e3f5a; } .ColorScheme-Highlight { color:#4285f4; }&#10;  </style>
  </defs>
  <path
     style="fill:#bde6fb;fill-opacity:1"
     class="ColorScheme-Text"
     d="M 8,5 A 2,2 0 0 0 6,7 2,2 0 0 0 6.6796875,8.5 2,2 0 0 0 6,10 2,2 0 0 0 8,12 2,2 0 0 0 10,10 2,2 0 0 0 9.3203125,8.5 2,2 0 0 0 10,7 2,2 0 0 0 8,5 Z m 4,0 v 1 a 7,7 0 0 1 6.308594,4 h -3.609375 v 1 h 4 1 V 10.886719 10 6 h -1 V 8.65625 A 8,8 0 0 0 12,5 Z M 8,6 A 1,1 0 0 1 9,7 1,1 0 0 1 8,8 1,1 0 0 1 7,7 1,1 0 0 1 8,6 Z M 8,9 A 1,1 0 0 1 9,10 1,1 0 0 1 8,11 1,1 0 0 1 7,10 1,1 0 0 1 8,9 Z m 5,3 v 1 h 1 v 6 h 1 v -7 h -1 z m 5,0 a 2,2 0 0 0 -2,2 v 3 a 2,2 0 0 0 2,2 2,2 0 0 0 2,-2 2,2 0 0 0 -2,-2 2,2 0 0 0 -1,0.269531 V 14 a 1,1 0 0 1 1,-1 1,1 0 0 1 1,1 h 1 A 2,2 0 0 0 18,12 Z M 5,13 V 13.113281 14 18 H 6 V 15.34375 A 8,8 0 0 0 12.699219,19 V 18 A 7,7 0 0 1 6.390625,14 H 10 V 13 H 5.9980469 Z m 13,3 a 1,1 0 0 1 1,1 1,1 0 0 1 -1,1 1,1 0 0 1 -1,-1 1,1 0 0 1 1,-1 z"
     id="path1" />
</svg>
