<?xml version="1.0" encoding="UTF-8" standalone="no"?>
<svg
   width="24"
   height="24"
   viewBox="0 0 24 24"
   version="1.1"
   id="svg1"
   sodipodi:docname="distribute-horizontal-node.svg"
   xmlns:inkscape="http://www.inkscape.org/namespaces/inkscape"
   xmlns:sodipodi="http://sodipodi.sourceforge.net/DTD/sodipodi-0.dtd"
   xmlns="http://www.w3.org/2000/svg"
   xmlns:svg="http://www.w3.org/2000/svg">
  <sodipodi:namedview
     id="namedview1"
     pagecolor="#505050"
     bordercolor="#eeeeee"
     borderopacity="1"
     inkscape:showpageshadow="0"
     inkscape:pageopacity="0"
     inkscape:pagecheckerboard="0"
     inkscape:deskcolor="#d1d1d1" />
  <defs
     id="defs1">
    <style
       id="current-color-scheme"
       type="text/css">&#10;   .ColorScheme-Text { color:#1e3f5a; } .ColorScheme-Highlight { color:#4285f4; }&#10;  </style>
  </defs>
  <path
     style="fill:#bde6fb;fill-opacity:1"
     class="ColorScheme-Text"
     d="M 3.0039062,0 V 10 H 1.0058594 v 1.994141 h -0.50000002 -0.5 v 1 h 0.5 0.50000002 V 15 H 2.546875 c -0.22153,1.4595 -0.4401306,2.905987 -0.7128906,4.179688 -0.39883,1.8622 -0.9630569,3.337187 -1.6542969,3.929687 A 0.49977,0.49988 0 0 0 0,23.505859 0.49977,0.49988 0 0 0 0.83007812,23.869141 C 1.8880781,22.962141 2.3994,21.317672 2.8125,19.388672 3.1052,18.021672 3.3303937,16.509 3.5585938,15 h 2.4453124 v -2.005859 h 3 V 15 h 1.4394528 c 6.56e-4,0.004 0.0013,0.0077 0.002,0.01172 0.346411,2.1099 0.798784,4.22765 1.683594,5.90625 0.88481,1.6786 2.283138,2.933412 4.335938,3.070312 0.81496,0.054 1.540872,-0.247803 2.076172,-0.783203 0.53523,-0.5354 0.906005,-1.274444 1.197265,-2.152344 0.538,-1.62 0.798766,-3.747734 1.009766,-6.052734 H 23 v -2.005859 h 0.996094 v -0.5 -0.5 h -0.5 H 23 V 10 h -1.816406 c 0.10374,-1.1091 0.21885,-2.2059531 0.375,-3.2519531 A 0.49977,0.49988 0 0 0 21,6.1640625 V 0 H 20 V 2.5 10 h -1.998047 v 1.994141 h -4 V 10 h -2 V 2.5 0 h -1 V 2.5 10 h -0.339844 c -0.068,-0.3545 -0.135843,-0.7079563 -0.214843,-1.0351562 -0.205,-0.8494 -0.4532472,-1.598125 -0.8105472,-2.203125 -0.3572001,-0.605 -0.8546719,-1.0852 -1.5136719,-1.25 -0.8371,-0.2092001 -1.6131407,-0.1082875 -2.2441407,0.2578124 -0.631,0.3662001 -1.1057281,0.9630938 -1.4863281,1.6835938 -0.1445,0.2735 -0.2670719,0.5828781 -0.3886719,0.8925781 V 2.5 0 Z m 1,2.5 2,1.53125 V 3 h 3 V 4 L 11.001953,2.5 9.0039062,1 v 1 h -3 V 1.03125 Z m 7.9980468,0 2,1.53125 V 3 h 4 V 4 L 20,2.5 18.001953,1 v 1 h -4 V 1.03125 Z M 7.4355469,6.40625 c 0.1388,0.011672 0.2859525,0.036347 0.4453125,0.076172 0.34059,0.085 0.6231543,0.3243093 0.8964844,0.7871093 0.27332,0.4629001 0.5062687,1.1314875 0.6992187,1.9296876 C 9.5367625,9.4479187 9.5886781,9.7284 9.6425781,10 H 9.0039062 v 1.994141 h -3 V 10 H 4.515625 c 0.2181,-0.8002 0.4649188,-1.5179781 0.7617188,-2.0800781 0.3254,-0.616 0.6957156,-1.0485563 1.1035156,-1.2851563 0.3058,-0.1776 0.6382875,-0.2635156 1.0546875,-0.2285156 z m 6.5664061,6.587891 h 4 V 15 h 1.740235 c -0.209161,2.2488 -0.473202,4.297381 -0.951172,5.738281 -0.26264,0.7917 -0.590032,1.392666 -0.957032,1.759766 -0.367,0.3672 -0.746404,0.529187 -1.302734,0.492187 -1.6955,-0.113 -2.733231,-1.045309 -3.519531,-2.537109 C 12.244719,18.998125 11.796984,17.023 11.458984,15 h 2.542969 z"
     id="path1" />
</svg>
