<?xml version="1.0" encoding="UTF-8" standalone="no"?>
<svg
   width="24"
   height="24"
   viewBox="0 0 24 24"
   version="1.1"
   id="svg1"
   sodipodi:docname="distribute-graph.svg"
   xmlns:inkscape="http://www.inkscape.org/namespaces/inkscape"
   xmlns:sodipodi="http://sodipodi.sourceforge.net/DTD/sodipodi-0.dtd"
   xmlns="http://www.w3.org/2000/svg"
   xmlns:svg="http://www.w3.org/2000/svg">
  <sodipodi:namedview
     id="namedview1"
     pagecolor="#505050"
     bordercolor="#eeeeee"
     borderopacity="1"
     inkscape:showpageshadow="0"
     inkscape:pageopacity="0"
     inkscape:pagecheckerboard="0"
     inkscape:deskcolor="#d1d1d1" />
  <defs
     id="defs1">
    <style
       id="current-color-scheme"
       type="text/css">&#10;   .ColorScheme-Text { color:#1e3f5a; } .ColorScheme-Highlight { color:#4285f4; }&#10;  </style>
  </defs>
  <path
     style="fill:#bde6fb;fill-opacity:1"
     class="ColorScheme-Text"
     d="M 11.492188,3.9960938 11.5,4 A 1.5,1.5 0 0 0 10,5.5 1.5,1.5 0 0 0 10.113281,6.0703125 L 6.2207031,9.1855469 A 1.5,1.5 0 0 0 5.5,9 1.5,1.5 0 0 0 4,10.5 1.5,1.5 0 0 0 5,11.912109 v 5.175782 A 1.5,1.5 0 0 0 4,18.5 1.5,1.5 0 0 0 5.5,20 1.5,1.5 0 0 0 6.9121094,19 H 11.087891 A 1.5,1.5 0 0 0 12.5,20 1.5,1.5 0 0 0 14,18.5 1.5,1.5 0 0 0 13.814453,17.783203 l 3.117188,-3.896484 A 1.5,1.5 0 0 0 17.5,14 1.5,1.5 0 0 0 19,12.5 1.5,1.5 0 0 0 17.5,11 1.5,1.5 0 0 0 16.916016,11.119141 l -4.09375,-4.9121098 a 1.5,1.5 0 0 0 0.169922,-0.7109374 1.5,1.5 0 0 0 -1.5,-1.5 z M 10.78125,6.8164062 A 1.5,1.5 0 0 0 11.5,7 1.5,1.5 0 0 0 12.082031,6.8808594 l 4.095703,4.9140626 a 1.5,1.5 0 0 0 -0.179687,0.710937 1.5,1.5 0 0 0 0.185547,0.71875 l -3.115235,3.894532 a 1.5,1.5 0 0 0 -0.570312,-0.111329 1.5,1.5 0 0 0 -1.412109,1 H 6.9101562 A 1.5,1.5 0 0 0 6,17.097656 V 11.921875 A 1.5,1.5 0 0 0 7,10.509766 1.5,1.5 0 0 0 6.8867188,9.9414062 L 10.78125,6.8261719 Z"
     id="path1" />
</svg>
