<?xml version="1.0" encoding="UTF-8" standalone="no"?>
<svg
   width="24"
   height="24"
   viewBox="0 0 24 24"
   version="1.1"
   id="svg1"
   sodipodi:docname="distribute-vertical-node.svg"
   xmlns:inkscape="http://www.inkscape.org/namespaces/inkscape"
   xmlns:sodipodi="http://sodipodi.sourceforge.net/DTD/sodipodi-0.dtd"
   xmlns="http://www.w3.org/2000/svg"
   xmlns:svg="http://www.w3.org/2000/svg">
  <sodipodi:namedview
     id="namedview1"
     pagecolor="#505050"
     bordercolor="#eeeeee"
     borderopacity="1"
     inkscape:showpageshadow="0"
     inkscape:pageopacity="0"
     inkscape:pagecheckerboard="0"
     inkscape:deskcolor="#d1d1d1" />
  <defs
     id="defs1">
    <style
       id="current-color-scheme"
       type="text/css">&#10;   .ColorScheme-Text { color:#1e3f5a; } .ColorScheme-Highlight { color:#4285f4; }&#10;  </style>
  </defs>
  <path
     style="fill:#bde6fb;fill-opacity:1"
     class="ColorScheme-Text"
     d="M 0.49414062,0 A 0.49975,0.49977 0 0 0 0.13085938,0.83007812 C 1.0374194,1.8880781 2.680775,2.3994 4.609375,2.8125 c 1.3663,0.2927 2.8804719,0.5179937 4.3886719,0.7460938 v 2.4453124 h 2.0058591 v 3 H 8.9980469 v 1.4394528 c -0.004,6.56e-4 -0.00772,0.0013 -0.011719,0.002 -2.1094,0.346411 -4.22815,0.798784 -5.90625,1.683594 -1.6783,0.88481 -2.93145935,2.283138 -3.06835935,4.335938 -0.053987,0.81504 0.24784312,1.540872 0.78320313,2.076172 0.53537002,0.53523 1.27474372,0.906005 2.15234372,1.197265 1.619,0.53723 3.7466813,0.799156 6.0507813,1.009766 V 23 h 2.0058593 v 0.996094 h 0.5 0.5 v -0.5 V 23 h 1.992188 v -1.796875 c 3.7035,0.36184 7.243503,0.890494 9.220703,2.208984 a 0.49998181,0.49999181 0 0 0 0.554687,-0.832031 C 22.681584,21.853228 21.277356,21.3632 19.722656,21 h 4.271485 v -1 h -2.5 -7.498047 v -1.998047 h -1.992188 v -4 h 1.992188 v -2 h 7.498047 2.5 v -1 h -2.5 -7.498047 v -0.339844 c 0.3544,-0.06792 0.708026,-0.135773 1.035156,-0.214843 0.84919,-0.20532 1.598325,-0.4532973 2.203125,-0.8105472 0.60485,-0.3572401 1.0852,-0.8546719 1.25,-1.5136719 0.21,-0.837 0.108188,-1.6131406 -0.257813,-2.2441407 -0.367,-0.631 -0.963593,-1.1057281 -1.683593,-1.4863281 -0.273,-0.1445 -0.582578,-0.2670719 -0.892578,-0.3886719 h 5.84375 2.5 v -1 H 13.996094 V 1.0058594 h -1.992188 v -0.50000002 -0.5 h -1 v 0.5 0.50000002 H 8.9980469 V 2.546875 C 7.5391469,2.325275 6.0918594,2.1067844 4.8183594,1.8339844 2.9566594,1.4351844 1.483025,0.8709175 0.890625,0.1796875 A 0.49975,0.49977 0 0 0 0.49414062,0 Z m 21.00000038,4.0039062 -1.53125,2 h 1.03125 v 3 h -1 l 1.5,1.9980468 1.5,-1.9980468 h -1 v -3 h 0.96875 z m 0,7.9980468 -1.53125,2 h 1.03125 v 4 h -1 l 1.5,1.998047 1.5,-1.998047 h -1 v -4 h 0.96875 z M 13.996094,4.5136719 c 0.79883,0.219 1.517478,0.4664618 2.080078,0.7636719 0.61585,0.3254 1.048556,0.6957356 1.285156,1.1035156 0.23664,0.40779 0.311604,0.86254 0.152344,1.5 -0.08498,0.34059 -0.32442,0.6231544 -0.78711,0.8964844 -0.462779,0.27332 -1.131687,0.5062687 -1.929687,0.6992187 -0.24866,0.06012 -0.529301,0.1121756 -0.800781,0.1660156 V 9.0039062 h -1.992188 v -3 h 1.992188 z M 8.9980469,11.458984 v 2.542969 h 2.0058591 v 4 H 8.9980469 v 1.740235 c -2.2483,-0.209 -4.2958281,-0.473172 -5.7363281,-0.951172 C 2.4702187,18.528016 1.8671,18.200984 1.5,17.833984 1.1329,17.466984 0.97262563,17.08825 1.0097656,16.53125 c 0.1129,-1.695 1.0456094,-2.733531 2.5371094,-3.519531 1.455,-0.767 3.4288719,-1.214735 5.4511719,-1.552735 z"
     id="path1" />
</svg>
