<?xml version="1.0" encoding="UTF-8" standalone="no"?>
<svg
   width="24"
   height="24"
   viewBox="0 0 24 24"
   version="1.1"
   id="svg1"
   sodipodi:docname="document-edit-decrypt-verify.svg"
   xmlns:inkscape="http://www.inkscape.org/namespaces/inkscape"
   xmlns:sodipodi="http://sodipodi.sourceforge.net/DTD/sodipodi-0.dtd"
   xmlns="http://www.w3.org/2000/svg"
   xmlns:svg="http://www.w3.org/2000/svg">
  <sodipodi:namedview
     id="namedview1"
     pagecolor="#505050"
     bordercolor="#eeeeee"
     borderopacity="1"
     inkscape:showpageshadow="0"
     inkscape:pageopacity="0"
     inkscape:pagecheckerboard="0"
     inkscape:deskcolor="#d1d1d1" />
  <defs
     id="defs1">
    <style
       id="current-color-scheme"
       type="text/css">&#10;   .ColorScheme-Text { color:#1e3f5a; } .ColorScheme-Highlight { color:#4285f4; }&#10;  </style>
  </defs>
  <path
     style="fill:#bde6fb;fill-opacity:1"
     class="ColorScheme-Text"
     d="m 6,5.9902344 v 2 h 2 v -2 z m 5,0 v 2 h 2 v -2 z m 5,0 v 2 h 2 v -2 z m -8,3 v 1.9999996 h 2 V 8.9902344 Z m 6,0 v 1.9999996 h 2 V 8.9902344 Z M 6,11.990234 V 18 c 0,1 1,1 1,1 h 10 c 0,0 1,0 1,-1 v -5.990234 h -2 v 4.986328 H 8 v -5.00586 z m 8,0 -3,3 -1,-1 -1,1 1,1 1,1 4,-4 z"
     id="path1" />
</svg>
