<?xml version="1.0" encoding="UTF-8" standalone="no"?>
<svg
   width="24"
   height="24"
   viewBox="0 0 24 24"
   version="1.1"
   id="svg1"
   sodipodi:docname="document-share.svg"
   xmlns:inkscape="http://www.inkscape.org/namespaces/inkscape"
   xmlns:sodipodi="http://sodipodi.sourceforge.net/DTD/sodipodi-0.dtd"
   xmlns="http://www.w3.org/2000/svg"
   xmlns:svg="http://www.w3.org/2000/svg">
  <sodipodi:namedview
     id="namedview1"
     pagecolor="#505050"
     bordercolor="#eeeeee"
     borderopacity="1"
     inkscape:showpageshadow="0"
     inkscape:pageopacity="0"
     inkscape:pagecheckerboard="0"
     inkscape:deskcolor="#d1d1d1" />
  <defs
     id="defs1">
    <style
       id="current-color-scheme"
       type="text/css">&#10;   .ColorScheme-Text { color:#1e3f5a; } .ColorScheme-Highlight { color:#4285f4; }&#10;  </style>
  </defs>
  <path
     style="fill:#bde6fb;fill-opacity:1"
     class="ColorScheme-Text"
     d="m 16,4 c -1.6568,0 -3,1.3432 -3,3 0,0.23127 0.04425,0.44001 0.09375,0.65625 l -3.21875,2 C 9.36159,9.24498 8.7091,9 8,9 6.3432,9 5,10.3432 5,12 c 0,1.6568 1.3432,3 3,3 0.70904,0 1.3615,-0.24498 1.875,-0.65625 l 3.21875,2 C 13.04425,16.55999 13,16.76873 13,17 c 0,1.6568 1.3432,3 3,3 1.6568,0 3,-1.3432 3,-3 0,-1.6568 -1.3432,-3 -3,-3 -0.70904,0 -1.3615,0.24498 -1.875,0.65625 l -3.21875,-2 C 10.95575,12.44001 11,12.23127 11,12 11,11.76873 10.95575,11.55999 10.90625,11.34375 l 3.21875,-2 C 14.63841,9.75502 15.2909,10 16,10 17.6568,10 19,8.6568 19,7 19,5.3432 17.6568,4 16,4 Z"
     id="path1" />
</svg>
