<?xml version="1.0" encoding="UTF-8" standalone="no"?>
<svg
   width="24"
   height="24"
   viewBox="0 0 24 24"
   version="1.1"
   id="svg1"
   sodipodi:docname="document-edit-sign-encrypt.svg"
   xmlns:inkscape="http://www.inkscape.org/namespaces/inkscape"
   xmlns:sodipodi="http://sodipodi.sourceforge.net/DTD/sodipodi-0.dtd"
   xmlns="http://www.w3.org/2000/svg"
   xmlns:svg="http://www.w3.org/2000/svg">
  <sodipodi:namedview
     id="namedview1"
     pagecolor="#505050"
     bordercolor="#eeeeee"
     borderopacity="1"
     inkscape:showpageshadow="0"
     inkscape:pageopacity="0"
     inkscape:pagecheckerboard="0"
     inkscape:deskcolor="#d1d1d1" />
  <defs
     id="defs1">
    <style
       id="current-color-scheme"
       type="text/css">&#10;   .ColorScheme-Text { color:#1e3f5a; } .ColorScheme-Highlight { color:#4285f4; }&#10;  </style>
  </defs>
  <path
     style="fill:#bde6fb;fill-opacity:1"
     class="ColorScheme-Text"
     d="M 7,5 C 7,5 6,5 6,6 v 12 c 0,1 1,1 1,1 h 4 V 17 H 8 V 7.0039062 h 8 v 4.9863278 h 2 V 6 C 18,5 17,5 17,5 Z m 8,7.990234 c -2,0 -2,1 -2,1 v 2 h -1 v 3 h 6 v -3 h -1 v -2 c 0,0 0,-1 -2,-1 z m 0,1 c 0.37268,0 1,0.22386 1,0.5 v 1.5 h -2 v -1.5 c 0,-0.27614 0.62732,-0.5 1,-0.5 z"
     id="path1" />
</svg>
