<?xml version="1.0" encoding="UTF-8" standalone="no"?>
<svg
   width="24"
   height="24"
   version="1.1"
   id="svg2"
   sodipodi:docname="draw-calligraphic.svg"
   xmlns:inkscape="http://www.inkscape.org/namespaces/inkscape"
   xmlns:sodipodi="http://sodipodi.sourceforge.net/DTD/sodipodi-0.dtd"
   xmlns="http://www.w3.org/2000/svg"
   xmlns:svg="http://www.w3.org/2000/svg">
  <defs
     id="defs2" />
  <sodipodi:namedview
     id="namedview2"
     pagecolor="#505050"
     bordercolor="#eeeeee"
     borderopacity="1"
     inkscape:showpageshadow="0"
     inkscape:pageopacity="0"
     inkscape:pagecheckerboard="0"
     inkscape:deskcolor="#d1d1d1" />
  <g
     transform="matrix(0.76904669,0.54572538,-0.54572538,0.76904669,7.2964164,-0.53027749)"
     fill="#1e3f5a"
     id="g2"
     style="fill:#bde6fb;fill-opacity:1">
    <path
       d="M 7.03,4.08 5,10.5 10.67,22.18 V 10.5 h 0.32 A 1.5,1.57 0 0 1 9.5,8.94 1.5,1.57 0 0 1 11,7.37 a 1.5,1.57 0 0 1 1.49,1.57 1.5,1.57 0 0 1 -1.5,1.56 h 0.33 V 22.18 L 16.98,10.5 15.01,4.08 Z"
       id="path1"
       style="fill:#bde6fb;fill-opacity:1" />
    <rect
       ry="0.029999999"
       rx="0.029999999"
       y="2.8699999"
       x="6.3699999"
       height="2.22"
       width="9.1999998"
       paint-order="markers fill stroke"
       id="rect1"
       style="fill:#bde6fb;fill-opacity:1" />
    <rect
       ry="0.30000001"
       rx="0.18000001"
       y="-1.53"
       x="5.3600001"
       height="4.8499999"
       width="10.97"
       paint-order="markers fill stroke"
       id="rect2"
       style="fill:#bde6fb;fill-opacity:1" />
  </g>
</svg>
