<?xml version="1.0" encoding="UTF-8" standalone="no"?>
<svg
   width="24"
   height="24"
   viewBox="0 0 24 24"
   version="1.1"
   id="svg1"
   sodipodi:docname="edit-table-insert-column-left.svg"
   xmlns:inkscape="http://www.inkscape.org/namespaces/inkscape"
   xmlns:sodipodi="http://sodipodi.sourceforge.net/DTD/sodipodi-0.dtd"
   xmlns="http://www.w3.org/2000/svg"
   xmlns:svg="http://www.w3.org/2000/svg">
  <sodipodi:namedview
     id="namedview1"
     pagecolor="#505050"
     bordercolor="#eeeeee"
     borderopacity="1"
     inkscape:showpageshadow="0"
     inkscape:pageopacity="0"
     inkscape:pagecheckerboard="0"
     inkscape:deskcolor="#d1d1d1" />
  <defs
     id="defs1">
    <style
       id="current-color-scheme"
       type="text/css">&#10;   .ColorScheme-Text { color:#1e3f5a; } .ColorScheme-Highlight { color:#4285f4; }&#10;  </style>
  </defs>
  <path
     style="fill:#bde6fb;fill-opacity:1"
     class="ColorScheme-Text"
     d="m 11,5 v 2 h 2 v 2 h -2 v 2 h 2 v 2 h -2 v 2 h 2 v 2 h -2 v 2 h 8 V 5 Z M 5,6 v 7 H 6.7188 L 6,12.2812 V 9.7188 L 6.2812,10 l 1,1 L 9,12.7188 V 13 h 1 V 6 H 9 V 7.2812 L 8.7188,7 l -1,-1 H 6.2812 l 1,1 L 9,8.7188 v 2.5624 L 8.7188,11 7.7188,10 6,8.2812 V 6 Z m 10,1 h 2 v 2 h -2 z m 0,4 h 2 v 2 h -2 z m -6,3 -4,2 4,2 z m 6,1 h 2 v 2 h -2 z"
     id="path1" />
</svg>
