<?xml version="1.0" encoding="UTF-8" standalone="no"?>
<svg
   width="24"
   height="24"
   viewBox="0 0 24 24"
   version="1.1"
   id="svg1"
   sodipodi:docname="edit-table-insert-row-above.svg"
   xmlns:inkscape="http://www.inkscape.org/namespaces/inkscape"
   xmlns:sodipodi="http://sodipodi.sourceforge.net/DTD/sodipodi-0.dtd"
   xmlns="http://www.w3.org/2000/svg"
   xmlns:svg="http://www.w3.org/2000/svg">
  <sodipodi:namedview
     id="namedview1"
     pagecolor="#505050"
     bordercolor="#eeeeee"
     borderopacity="1"
     inkscape:showpageshadow="0"
     inkscape:pageopacity="0"
     inkscape:pagecheckerboard="0"
     inkscape:deskcolor="#d1d1d1" />
  <defs
     id="defs1">
    <style
       id="current-color-scheme"
       type="text/css">&#10;   .ColorScheme-Text { color:#1e3f5a; } .ColorScheme-Highlight { color:#4285f4; }&#10;  </style>
  </defs>
  <path
     style="fill:#bde6fb;fill-opacity:1"
     class="ColorScheme-Text"
     d="M 6,5 V 6 H 8.28125 L 10,7.71875 l 1,1 L 11.28125,9 H 8.71875 L 7,7.28125 l -1,-1 v 1.4375 l 1,1 L 7.28125,9 H 6 v 1 h 7 V 9 H 12.71875 L 11,7.28125 l -1,-1 L 9.71875,6 h 2.5625 L 13,6.71875 V 5 Z m 10,0 -2,4 h 4 z M 5,11 v 8 h 14 v -8 h -2 v 2 h -2 v -2 h -2 v 2 H 11 V 11 H 9 v 2 H 7 v -2 z m 2,4 h 2 v 2 H 7 Z m 4,0 h 2 v 2 h -2 z m 4,0 h 2 v 2 h -2 z"
     id="path1" />
</svg>
