<?xml version="1.0" encoding="UTF-8" standalone="no"?>
<svg
   width="24"
   height="24"
   viewBox="0 0 24 24"
   version="1.1"
   id="svg1"
   sodipodi:docname="edit-select-all-layers.svg"
   xmlns:inkscape="http://www.inkscape.org/namespaces/inkscape"
   xmlns:sodipodi="http://sodipodi.sourceforge.net/DTD/sodipodi-0.dtd"
   xmlns="http://www.w3.org/2000/svg"
   xmlns:svg="http://www.w3.org/2000/svg">
  <sodipodi:namedview
     id="namedview1"
     pagecolor="#505050"
     bordercolor="#eeeeee"
     borderopacity="1"
     inkscape:showpageshadow="0"
     inkscape:pageopacity="0"
     inkscape:pagecheckerboard="0"
     inkscape:deskcolor="#d1d1d1" />
  <defs
     id="defs1">
    <style
       id="current-color-scheme"
       type="text/css">&#10;   .ColorScheme-Text { color:#1e3f5a; } .ColorScheme-Highlight { color:#4285f4; }&#10;  </style>
  </defs>
  <path
     style="fill:#bde6fb;fill-opacity:1"
     class="ColorScheme-Text"
     d="M 4.5019531,4 4.0898437,4.21875 4.0371094,4.6835937 4.390625,4.9882812 4.5,5 h 1 L 5.9140625,4.78125 5.9648438,4.3164062 5.6113281,4.0117187 5.5019531,4 Z m 3,0 L 7.0898438,4.21875 7.0371094,4.6835937 7.390625,4.9882812 7.5,5 h 1 L 8.9140625,4.78125 8.9648438,4.3164062 8.6113281,4.0117187 8.5019531,4 Z M 10.501953,4 10.089844,4.21875 10.037109,4.6835937 10.390625,4.9882812 10.5,5 h 1 L 11.914063,4.78125 11.964844,4.3164062 11.611328,4.0117187 11.501953,4 Z m 3,0 -0.412109,0.21875 -0.05274,0.4648437 0.353516,0.3046875 L 13.5,5 h 1 L 14.914062,4.78125 14.964844,4.3164062 14.611328,4.0117187 14.501953,4 Z m 3,0 -0.412109,0.21875 -0.05274,0.4648437 L 16.39062,4.9882812 16.5,5 h 1 L 17.914062,4.78125 17.964844,4.3164062 17.611328,4.0117187 17.501953,4 Z M 19.498047,4.5 19,5.5 19.21875,5.9140625 19.683594,5.9648438 19.988281,5.6113281 19.998047,5.5 Z M 4.3164062,6.0351562 4.0097656,6.3886719 4,6.5 v 1 L 4.21875,7.9140625 4.6835937,7.9648438 4.9882812,7.6113281 4.9980469,7.5 v -1 L 4.7792969,6.0859375 Z M 7,7 v 2 h 6 V 7 Z M 19.316406,7.0351562 19.009766,7.3886719 19,7.5 v 1 l 0.21875,0.4140625 0.464844,0.050781 L 19.988281,8.6113281 19.998047,8.5 v -1 l -0.21875,-0.4140625 z m -14.9999998,2 L 4.0097656,9.3886719 4,9.5 v 1 l 0.21875,0.414063 0.4648437,0.05078 L 4.9882812,10.611328 4.9980469,10.5 v -1 L 4.7792969,9.0859375 Z M 19.316406,10.035156 19.009766,10.388672 19,10.5 v 1 l 0.21875,0.414063 0.464844,0.05078 0.304687,-0.353516 0.0098,-0.111328 v -1 l -0.21875,-0.414062 z M 9,11 v 2 h 6 V 11 Z M 4.3164062,12.035156 4.0097656,12.388672 4,12.5 v 1 l 0.21875,0.414063 0.4648437,0.05078 L 4.9882812,13.611328 4.9980469,13.5 v -1 l -0.21875,-0.414062 z m 14.9999998,1 -0.30664,0.353516 L 19,13.5 v 1 l 0.21875,0.414062 0.464844,0.05078 0.304687,-0.353516 0.0098,-0.111328 v -1 l -0.218784,-0.41406 z M 11,15 v 2 h 6 V 15 Z M 4.3164062,15.035156 4.0097656,15.388672 4,15.5 v 1 l 0.21875,0.414062 0.4648437,0.05078 L 4.9882812,16.611326 4.9980469,16.5 v -1 l -0.21875,-0.414062 z m 14.9999998,1 -0.30664,0.353516 L 19,16.5 v 1 l 0.21875,0.414062 0.464844,0.05078 0.304687,-0.353516 0.0098,-0.111328 v -1 l -0.21875,-0.414062 z m -14.9980466,2 L 4.0097656,18.388672 4,18.5 4.5,19.5 5,18.5 4.78125,18.085938 Z M 6.5058594,19 6.0839844,19.21875 6.03125,19.683594 6.3847656,19.988281 6.5058594,20 h 1 L 7.9199219,19.78125 7.9707031,19.316406 7.6171875,19.011719 7.5058594,19 Z m 3,0 -0.421875,0.21875 L 9.03125,19.683594 9.3847656,19.988281 9.5058594,20 h 0.9999996 l 0.414063,-0.21875 0.05078,-0.464844 L 10.617188,19.011719 10.505859,19 Z m 2.9999996,0 -0.421875,0.21875 -0.05273,0.464844 0.353516,0.304687 L 12.505859,20 h 1 l 0.414063,-0.21875 0.05078,-0.464844 L 13.617188,19.011719 13.505859,19 Z m 3,0 -0.421875,0.21875 -0.05273,0.464844 0.353516,0.304687 L 15.505859,20 h 1 l 0.414063,-0.21875 0.05078,-0.464844 L 16.617188,19.011719 16.505859,19 Z m 3,0 -0.421875,0.21875 -0.05273,0.464844 0.353516,0.304687 0.121093,0.01172 1,-0.5 z"
     id="path1" />
</svg>
