<?xml version="1.0" encoding="UTF-8" standalone="no"?>
<svg
   width="24"
   height="24"
   viewBox="0 0 24 24"
   version="1.1"
   id="svg1"
   sodipodi:docname="edit-select-original.svg"
   xmlns:inkscape="http://www.inkscape.org/namespaces/inkscape"
   xmlns:sodipodi="http://sodipodi.sourceforge.net/DTD/sodipodi-0.dtd"
   xmlns="http://www.w3.org/2000/svg"
   xmlns:svg="http://www.w3.org/2000/svg">
  <sodipodi:namedview
     id="namedview1"
     pagecolor="#505050"
     bordercolor="#eeeeee"
     borderopacity="1"
     inkscape:showpageshadow="0"
     inkscape:pageopacity="0"
     inkscape:pagecheckerboard="0"
     inkscape:deskcolor="#d1d1d1" />
  <defs
     id="defs1">
    <style
       id="current-color-scheme"
       type="text/css">&#10;   .ColorScheme-Text { color:#1e3f5a; } .ColorScheme-Highlight { color:#4285f4; }&#10;  </style>
  </defs>
  <path
     style="fill:#bde6fb;fill-opacity:1"
     class="ColorScheme-Text"
     d="M 6,5 C 6,5 5,5.0186 5,6 V 7 H 7 V 5 Z m 3,0 v 2 h 2 V 5 Z m 4,0 v 2 h 2 V 5 Z m 4,0 v 2 h 2 V 6 C 19,5.01859 18,5 18,5 Z M 5,9 v 2 H 7 V 9 Z m 12,0 v 2 h 2 V 9 Z M 5,13 v 2 h 2 v -2 z m 12,0 v 2 h 2 V 13 Z M 5,17 v 1 c 0,0.98141 1,1 1,1 h 1 v -2 z m 4,0 v 2 h 2 v -2 z m 4,0 v 2 h 2 v -2 z m 4,0 v 2 h 1 c 0,0 1,-0.0186 1,-1 v -1 z"
     id="path1" />
</svg>
