<?xml version="1.0" encoding="UTF-8" standalone="no"?>
<svg
   width="24"
   height="24"
   viewBox="0 0 24 24"
   version="1.1"
   id="svg1"
   sodipodi:docname="edit-table-insert-column-right.svg"
   xmlns:inkscape="http://www.inkscape.org/namespaces/inkscape"
   xmlns:sodipodi="http://sodipodi.sourceforge.net/DTD/sodipodi-0.dtd"
   xmlns="http://www.w3.org/2000/svg"
   xmlns:svg="http://www.w3.org/2000/svg">
  <sodipodi:namedview
     id="namedview1"
     pagecolor="#505050"
     bordercolor="#eeeeee"
     borderopacity="1"
     inkscape:showpageshadow="0"
     inkscape:pageopacity="0"
     inkscape:pagecheckerboard="0"
     inkscape:deskcolor="#d1d1d1" />
  <defs
     id="defs1">
    <style
       id="current-color-scheme"
       type="text/css">&#10;   .ColorScheme-Text { color:#1e3f5a; } .ColorScheme-Highlight { color:#4285f4; }&#10;  </style>
  </defs>
  <path
     style="fill:#bde6fb;fill-opacity:1"
     class="ColorScheme-Text"
     d="m 5,5 v 14 h 8 v -2 h -2 v -2 h 2 v -2 h -2 v -2 h 2 V 9 H 11 V 7 h 2 V 5 Z m 9,1 v 7 h 1 V 12.71875 L 16.71875,11 l 1,-1 L 18,9.71875 v 2.5625 L 17.28125,13 H 19 V 6 H 18 V 8.28125 L 16.28125,10 l -1,1 L 15,11.28125 V 8.71875 L 16.71875,7 l 1,-1 h -1.4375 l -1,1 L 15,7.28125 V 6 Z M 7,7 H 9 V 9 H 7 Z m 0,4 h 2 v 2 H 7 Z m 8,3 v 4 l 4,-2 z m -8,1 h 2 v 2 H 7 Z"
     id="path1" />
</svg>
