<?xml version="1.0" encoding="UTF-8" standalone="no"?>
<svg
   width="24"
   height="24"
   viewBox="0 0 24 24"
   version="1.1"
   id="svg1"
   sodipodi:docname="edit-table-insert-row-under.svg"
   xmlns:inkscape="http://www.inkscape.org/namespaces/inkscape"
   xmlns:sodipodi="http://sodipodi.sourceforge.net/DTD/sodipodi-0.dtd"
   xmlns="http://www.w3.org/2000/svg"
   xmlns:svg="http://www.w3.org/2000/svg">
  <sodipodi:namedview
     id="namedview1"
     pagecolor="#505050"
     bordercolor="#eeeeee"
     borderopacity="1"
     inkscape:showpageshadow="0"
     inkscape:pageopacity="0"
     inkscape:pagecheckerboard="0"
     inkscape:deskcolor="#d1d1d1" />
  <defs
     id="defs1">
    <style
       id="current-color-scheme"
       type="text/css">&#10;   .ColorScheme-Text { color:#1e3f5a; } .ColorScheme-Highlight { color:#4285f4; }&#10;  </style>
  </defs>
  <path
     style="fill:#bde6fb;fill-opacity:1"
     class="ColorScheme-Text"
     d="M 5,5 V 9 H 7 V 7 h 2 v 2 h 2 V 7 h 2 v 2 h 2 V 7 h 2 v 2 h 2 V 5 Z m 0,5 v 1 H 6.2812 L 6,11.2812 l -1,1 v 1.4376 l 1,-1 L 7.7188,11 h 2.5624 L 10,11.2812 l -1,1 L 7.2812,14 H 5 v 5 h 14 v -4 h -2 v 2 h -2 v -2 h -2 v 2 h -2 v -2 h 1 V 13.2812 L 11.2812,14 H 8.7188 L 9,13.7188 l 1,-1 L 11.7188,11 H 12 v -1 z m 9,1 2,4 2,-4 z m -7,4 h 2 v 2 H 7 Z"
     id="path1" />
</svg>
