<?xml version="1.0" encoding="UTF-8" standalone="no"?>
<svg
   width="24"
   height="24"
   viewBox="0 0 24 24"
   version="1.1"
   id="svg1"
   sodipodi:docname="edit-link.svg"
   xmlns:inkscape="http://www.inkscape.org/namespaces/inkscape"
   xmlns:sodipodi="http://sodipodi.sourceforge.net/DTD/sodipodi-0.dtd"
   xmlns="http://www.w3.org/2000/svg"
   xmlns:svg="http://www.w3.org/2000/svg">
  <sodipodi:namedview
     id="namedview1"
     pagecolor="#505050"
     bordercolor="#eeeeee"
     borderopacity="1"
     inkscape:showpageshadow="0"
     inkscape:pageopacity="0"
     inkscape:pagecheckerboard="0"
     inkscape:deskcolor="#d1d1d1" />
  <defs
     id="defs1">
    <style
       id="current-color-scheme"
       type="text/css">&#10;   .ColorScheme-Text { color:#1e3f5a; } .ColorScheme-Highlight { color:#4285f4; }&#10;  </style>
  </defs>
  <path
     style="fill:#bde6fb;fill-opacity:1"
     class="ColorScheme-Text"
     d="m 9,7.0117188 c -2.77,0 -5,2.2299999 -5,5.0000002 0,2.77 2.23,5 5,5 h 2 v -2 H 9 c -1.662,0 -3,-1.338 -3,-3 0,-1.662 1.338,-3.0000002 3,-3.0000002 h 2 v -2 z m 4,0 v 2 h 2 c 1.662,0 3,1.3380002 3,3.0000002 0,1.662 -1.338,3 -3,3 h -2 v 2 h 2 c 2.77,0 5,-2.23 5,-5 C 20,9.2417187 17.77,7.0117188 15,7.0117188 Z M 9,11.011719 v 2 h 6 v -2 z"
     id="path1" />
</svg>
