<?xml version="1.0" encoding="UTF-8" standalone="no"?>
<svg
   width="24"
   height="24"
   viewBox="0 0 24 24"
   version="1.1"
   id="svg1"
   sodipodi:docname="edit-select-lasso.svg"
   xmlns:inkscape="http://www.inkscape.org/namespaces/inkscape"
   xmlns:sodipodi="http://sodipodi.sourceforge.net/DTD/sodipodi-0.dtd"
   xmlns="http://www.w3.org/2000/svg"
   xmlns:svg="http://www.w3.org/2000/svg">
  <sodipodi:namedview
     id="namedview1"
     pagecolor="#505050"
     bordercolor="#eeeeee"
     borderopacity="1"
     inkscape:showpageshadow="0"
     inkscape:pageopacity="0"
     inkscape:pagecheckerboard="0"
     inkscape:deskcolor="#d1d1d1" />
  <defs
     id="defs1">
    <style
       id="current-color-scheme"
       type="text/css">&#10;   .ColorScheme-Text { color:#1e3f5a; } .ColorScheme-Highlight { color:#4285f4; }&#10;  </style>
  </defs>
  <path
     style="fill:#bde6fb;fill-opacity:1"
     class="ColorScheme-Text"
     d="M 13.125,3.9414063 V 4.0625 l 0.669922,1.1054688 a 7,5 0 0 1 2.742187,1.0175781 l 0.8125,-0.6445313 A 8,6 0 0 0 13.125,3.9414063 Z M 11.917969,4 A 8,6 0 0 0 9.5,4.3027344 l 0.837891,0.8417968 a 7,5 0 0 1 1.667968,-0.1484375 7,5 0 0 1 0.527344,0.019531 z M 8.4238281,4.6386719 a 8,6 0 0 0 -1.859375,0.96875 l 0.9726563,0.546875 A 7,5 0 0 1 9.2011719,5.421875 Z M 18.164062,6.1699219 17.375,6.796875 a 7,5 0 0 1 0.794922,0.8378906 l 1,-0.2929687 a 8,6 0 0 0 -1.00586,-1.171875 z M 5.7246094,6.28125 A 8,6 0 0 0 4.6914062,7.5859375 L 5.6230469,7.953125 A 7,5 0 0 1 6.6347656,6.7929688 Z M 19.654297,8.2421875 18.6875,8.5253906 a 7,5 0 0 1 0.296875,1.0898438 l 1.005859,0.1367187 A 8,6 0 0 0 19.654297,8.2421875 Z m -15.3867189,0.25 A 8,6 0 0 0 4.0097656,9.9179688 L 5.0136719,9.8730469 A 7,5 0 0 1 5.1953125,8.859375 Z M 18.945312,10.619141 a 7,5 0 0 1 -0.58789,1.466797 l 0.990234,0.27539 a 8,6 0 0 0 0.583985,-1.607422 z m -13.8300776,0.25 -1.0058594,0.04492 a 8,6 0 0 0 0.5625,1.472656 L 5.5820312,11.96875 A 7,5 0 0 1 5.1152344,10.869141 Z M 6.203125,12.78125 v 0.0039 l -0.9394531,0.429684 a 8,6 0 0 0 1.7714843,1.466797 c 0.63604,2.3756 -1.8404968,4.5014 -1.0292968,5.3125 1.1347,0.1082 1.8092312,-1.566854 2.0820312,-3.189453 0.10207,-0.1389 0.4709982,-0.666875 0.7675782,-1.296876 a 8,6 0 0 0 3.1406252,0.488282 L 10.929688,14.929688 A 7,5 0 0 1 9.1425781,14.544922 C 9.1504981,14.100922 8.8768425,13.8213 8.0078125,14 c -0.00105,0 -9.01e-4,2.34e-4 -0.00195,-0.0098 -0.079193,0 -0.1576282,-0.01634 -0.2363282,-0.02734 A 7,5 0 0 1 6.203125,12.78125 Z m 11.460937,0.150391 a 7,5 0 0 1 -1.673828,1.167968 l 0.976563,0.595703 a 8,6 0 0 0 1.777344,-1.46289 z m -2.833984,1.632812 a 7,5 0 0 1 -2.429687,0.421875 l 0.921875,0.921875 a 8,6 0 0 0 2.59375,-0.681641 z"
     id="path1" />
</svg>
