<?xml version="1.0" encoding="UTF-8" standalone="no"?>
<svg
   viewBox="0 0 576 576"
   version="1.1"
   id="svg1"
   sodipodi:docname="edit-select-all.svg"
   width="576"
   height="576"
   xmlns:inkscape="http://www.inkscape.org/namespaces/inkscape"
   xmlns:sodipodi="http://sodipodi.sourceforge.net/DTD/sodipodi-0.dtd"
   xmlns="http://www.w3.org/2000/svg"
   xmlns:svg="http://www.w3.org/2000/svg">
  <defs
     id="defs1" />
  <sodipodi:namedview
     id="namedview1"
     pagecolor="#505050"
     bordercolor="#eeeeee"
     borderopacity="1"
     inkscape:showpageshadow="0"
     inkscape:pageopacity="0"
     inkscape:pagecheckerboard="0"
     inkscape:deskcolor="#d1d1d1" />
  <path
     fill="#1e3f5a"
     d="M 3,5 H 5 V 3 A 2,2 0 0 0 3,5 m 0,8 H 5 V 11 H 3 v 2 m 4,8 H 9 V 19 H 7 v 2 M 3,9 H 5 V 7 H 3 V 9 M 13,3 h -2 v 2 h 2 V 3 m 6,0 v 2 h 2 A 2,2 0 0 0 19,3 M 5,21 V 19 H 3 a 2,2 0 0 0 2,2 M 3,17 H 5 V 15 H 3 v 2 M 9,3 H 7 V 5 H 9 V 3 m 2,18 h 2 v -2 h -2 v 2 m 8,-8 h 2 v -2 h -2 v 2 m 0,8 a 2,2 0 0 0 2,-2 h -2 v 2 M 19,9 h 2 V 7 h -2 v 2 m 0,8 h 2 v -2 h -2 v 2 m -4,4 h 2 v -2 h -2 v 2 M 15,5 h 2 V 3 H 15 V 5 M 7,17 H 17 V 7 H 7 V 17 M 9,9 h 6 v 6 H 9 V 9"
     id="path1"
     style="fill:#bde6fb;fill-opacity:1" />
</svg>
