<?xml version="1.0" encoding="UTF-8" standalone="no"?>
<svg
   width="24"
   height="24"
   viewBox="0 0 24 24"
   version="1.1"
   id="svg1"
   sodipodi:docname="edit-clone-unlink.svg"
   xmlns:inkscape="http://www.inkscape.org/namespaces/inkscape"
   xmlns:sodipodi="http://sodipodi.sourceforge.net/DTD/sodipodi-0.dtd"
   xmlns="http://www.w3.org/2000/svg"
   xmlns:svg="http://www.w3.org/2000/svg">
  <sodipodi:namedview
     id="namedview1"
     pagecolor="#505050"
     bordercolor="#eeeeee"
     borderopacity="1"
     inkscape:showpageshadow="0"
     inkscape:pageopacity="0"
     inkscape:pagecheckerboard="0"
     inkscape:deskcolor="#d1d1d1" />
  <defs
     id="defs1">
    <style
       id="current-color-scheme"
       type="text/css">&#10;   .ColorScheme-Text { color:#1e3f5a; } .ColorScheme-Highlight { color:#4285f4; }&#10;  </style>
  </defs>
  <path
     style="fill:#bde6fb;fill-opacity:1"
     class="ColorScheme-Text"
     d="m 6,6 v 8 h 4 v 4 h 8 V 10 H 14 V 6 Z m 8,5 c 0.739,0 1.333984,0.683438 1.333984,1.523438 V 14 h 0.332032 C 15.851016,14 16,14.167 16,14.375 v 2.25 C 16,16.833 15.851016,17 15.666016,17 H 12.333984 C 12.149284,17 12,16.833 12,16.625 v -2.25 C 12,14.167 12.149284,14 12.333984,14 h 2.332032 v -1.5 c 0,-0.4155 -0.297016,-0.75 -0.666016,-0.75 -0.3693,0 -0.666016,0.3345 -0.666016,0.75 v 0.375 H 12.666016 V 12.5 C 12.677216,11.6706 13.2683,11 14,11 Z"
     id="path1" />
</svg>
