<?xml version="1.0" encoding="UTF-8" standalone="no"?>
<svg
   width="24"
   height="24"
   viewBox="0 0 24 24"
   version="1.1"
   id="svg1"
   sodipodi:docname="edit-clone.svg"
   xmlns:inkscape="http://www.inkscape.org/namespaces/inkscape"
   xmlns:sodipodi="http://sodipodi.sourceforge.net/DTD/sodipodi-0.dtd"
   xmlns="http://www.w3.org/2000/svg"
   xmlns:svg="http://www.w3.org/2000/svg">
  <sodipodi:namedview
     id="namedview1"
     pagecolor="#505050"
     bordercolor="#eeeeee"
     borderopacity="1"
     inkscape:showpageshadow="0"
     inkscape:pageopacity="0"
     inkscape:pagecheckerboard="0"
     inkscape:deskcolor="#d1d1d1" />
  <defs
     id="defs1">
    <style
       id="current-color-scheme"
       type="text/css">&#10;   .ColorScheme-Text { color:#1e3f5a; } .ColorScheme-Highlight { color:#4285f4; }&#10;  </style>
  </defs>
  <path
     style="fill:#bde6fb;fill-opacity:1"
     class="ColorScheme-Text"
     d="m 6,6 v 8 h 4 v 4 h 8 V 10 H 14 V 6 Z m 8,5 c 0.739,0 1.333984,0.780234 1.333984,1.740234 v 0.832032 h 0.332032 C 15.851016,13.572266 16,13.7626 16,14 v 2.572266 C 16,16.810266 15.851016,17 15.666016,17 H 12.333984 C 12.149284,17 12,16.810266 12,16.572266 V 14 c 0,-0.2374 0.149284,-0.427734 0.333984,-0.427734 h 0.332032 V 12.740234 C 12.666016,11.779934 13.2613,11 14,11 Z m 0,0.857422 c -0.3693,0 -0.666016,0.382622 -0.666016,0.857422 v 0.857422 h 1.332032 v -0.857422 c 0,-0.4748 -0.297016,-0.857422 -0.666016,-0.857422 z"
     id="path1" />
</svg>
