<?xml version="1.0" encoding="UTF-8" standalone="no"?>
<svg
   width="24"
   height="24"
   viewBox="0 0 24 24"
   version="1.1"
   id="svg1"
   sodipodi:docname="escape-direction-horizontal.svg"
   xmlns:inkscape="http://www.inkscape.org/namespaces/inkscape"
   xmlns:sodipodi="http://sodipodi.sourceforge.net/DTD/sodipodi-0.dtd"
   xmlns="http://www.w3.org/2000/svg"
   xmlns:svg="http://www.w3.org/2000/svg">
  <sodipodi:namedview
     id="namedview1"
     pagecolor="#505050"
     bordercolor="#eeeeee"
     borderopacity="1"
     inkscape:showpageshadow="0"
     inkscape:pageopacity="0"
     inkscape:pagecheckerboard="0"
     inkscape:deskcolor="#d1d1d1" />
  <defs
     id="defs1">
    <style
       id="current-color-scheme"
       type="text/css">&#10;   .ColorScheme-Text { color:#1e3f5a; } .ColorScheme-Highlight { color:#4285f4; }&#10;  </style>
  </defs>
  <path
     style="fill:#bde6fb;fill-opacity:1"
     class="ColorScheme-Text"
     d="M 5,5.0039062 V 19.003906 H 19 V 5.0039062 Z m 2,2 h 10 v 3.9999998 h -3.277344 c -0.1704,-0.2931 -0.408593,-0.536787 -0.699218,-0.710937 -0.015,-0.009 -0.03188,-0.01639 -0.04687,-0.02539 -0.119325,-0.0675 -0.246007,-0.122213 -0.378907,-0.164063 -0.03825,-0.012 -0.07593,-0.02345 -0.115234,-0.0332 -0.155475,-0.039 -0.314947,-0.06641 -0.482422,-0.06641 -0.167475,0 -0.326947,0.02741 -0.482422,0.06641 -0.039,0.0098 -0.07691,0.0212 -0.115234,0.0332 -0.1329,0.042 -0.259581,0.09679 -0.378906,0.164063 -0.01575,0.009 -0.03188,0.01639 -0.04687,0.02539 -0.290625,0.17415 -0.528819,0.417837 -0.699219,0.710937 H 7 Z m 0,5.9999998 h 3.277344 c 0.1704,0.2931 0.408594,0.536788 0.699219,0.710938 0.015,0.009 0.03187,0.01834 0.04687,0.02734 0.119325,0.0675 0.246006,0.122212 0.378906,0.164062 0.03825,0.012 0.07593,0.0215 0.115234,0.03125 0.155475,0.039 0.314947,0.06836 0.482422,0.06836 0.167475,0 0.326947,-0.02936 0.482422,-0.06836 0.039,-0.0098 0.07691,-0.01925 0.115234,-0.03125 0.1329,-0.042 0.259582,-0.09679 0.378907,-0.164062 0.01575,-0.009 0.03187,-0.01835 0.04687,-0.02734 0.290625,-0.17415 0.528818,-0.417838 0.699218,-0.710938 H 17 v 4 H 7 Z"
     id="path1" />
</svg>
