<?xml version="1.0" encoding="UTF-8" standalone="no"?>
<svg
   width="24"
   height="24"
   viewBox="0 0 24 24"
   version="1.1"
   id="svg1"
   sodipodi:docname="escape-direction-vertical.svg"
   xmlns:inkscape="http://www.inkscape.org/namespaces/inkscape"
   xmlns:sodipodi="http://sodipodi.sourceforge.net/DTD/sodipodi-0.dtd"
   xmlns="http://www.w3.org/2000/svg"
   xmlns:svg="http://www.w3.org/2000/svg">
  <sodipodi:namedview
     id="namedview1"
     pagecolor="#505050"
     bordercolor="#eeeeee"
     borderopacity="1"
     inkscape:showpageshadow="0"
     inkscape:pageopacity="0"
     inkscape:pagecheckerboard="0"
     inkscape:deskcolor="#d1d1d1" />
  <defs
     id="defs1">
    <style
       id="current-color-scheme"
       type="text/css">&#10;   .ColorScheme-Text { color:#1e3f5a; } .ColorScheme-Highlight { color:#4285f4; }&#10;  </style>
  </defs>
  <path
     style="fill:#bde6fb;fill-opacity:1"
     class="ColorScheme-Text"
     d="M 5,5 V 19 H 19 V 5 Z m 2,2 h 4 v 3.2773 c -0.293,0.1705 -0.5368,0.4087 -0.7109,0.6993 -0.0093,0.0152 -0.0166,0.0313 -0.0254,0.0468 -0.0673,0.1194 -0.1222,0.246 -0.1641,0.3789 -0.0122,0.0383 -0.0233,0.076 -0.0332,0.1153 C 10.0276,11.6731 10,11.8325 10,12 c 0,0.1675 0.0276,0.3269 0.0664,0.4824 0.0099,0.0393 0.021,0.077 0.0332,0.1153 0.0419,0.1329 0.0968,0.2595 0.1641,0.3789 0.0088,0.0155 0.0161,0.0316 0.0254,0.0468 0.1741,0.2906 0.4179,0.5288 0.7109,0.6993 V 17 H 7 Z m 6,0 h 4 v 10 h -4 v -3.2773 c 0.293,-0.1705 0.5368,-0.4087 0.7109,-0.6993 0.0093,-0.0152 0.0166,-0.0313 0.0254,-0.0468 0.0673,-0.1194 0.1222,-0.246 0.1641,-0.3789 0.0122,-0.0383 0.0233,-0.076 0.0332,-0.1153 C 13.9724,12.3269 14,12.1675 14,12 14,11.8325 13.9724,11.6731 13.9336,11.5176 13.9237,11.4783 13.9126,11.4406 13.9004,11.4023 13.8585,11.2694 13.8036,11.1428 13.7363,11.0234 13.7275,11.0079 13.7202,10.9918 13.7109,10.9766 13.5368,10.686 13.293,10.4478 13,10.2773 Z"
     id="path1" />
</svg>
