<?xml version="1.0" encoding="UTF-8" standalone="no"?>
<svg
   width="24"
   height="24"
   viewBox="0 0 24 24"
   version="1.1"
   id="svg1"
   sodipodi:docname="exchange-positions-zorder.svg"
   xmlns:inkscape="http://www.inkscape.org/namespaces/inkscape"
   xmlns:sodipodi="http://sodipodi.sourceforge.net/DTD/sodipodi-0.dtd"
   xmlns="http://www.w3.org/2000/svg"
   xmlns:svg="http://www.w3.org/2000/svg">
  <sodipodi:namedview
     id="namedview1"
     pagecolor="#505050"
     bordercolor="#eeeeee"
     borderopacity="1"
     inkscape:showpageshadow="0"
     inkscape:pageopacity="0"
     inkscape:pagecheckerboard="0"
     inkscape:deskcolor="#d1d1d1" />
  <defs
     id="defs1">
    <style
       id="current-color-scheme"
       type="text/css">&#10;   .ColorScheme-Text { color:#1e3f5a; } .ColorScheme-Highlight { color:#4285f4; }&#10;  </style>
  </defs>
  <path
     style="fill:#bde6fb;fill-opacity:1"
     class="ColorScheme-Text"
     d="m 4,4 v 7 h 8 V 4 Z m 9,1.0781 V 9 h 1 V 6.3555 c 2.393,0.846 3.995,3.1063 4,5.6445 h 1 C 18.997,8.5227 16.442,5.5749 13,5.0781 Z M 5,12 c 0.003,3.477 2.5584,6.425 6,6.922 V 15 h -1 v 2.645 C 7.607,16.798 6.0052,14.538 6,12 Z m 9,1 -0.207,0.207 L 12,15 v 1.414 l 1.5,-1.5 V 19 h 1 v -4.086 l 1.5,1.5 V 15 l -1.793,-1.793 z m 3.5,1 v 4.086 L 16,16.586 V 18 L 17.793,19.793 18,20 18.207,19.793 20,18 v -1.414 l -1.5,1.5 V 14 Z"
     id="path1" />
</svg>
