<?xml version="1.0" encoding="UTF-8" standalone="no"?>
<svg
   width="24"
   height="24"
   viewBox="0 0 24 24"
   version="1.1"
   id="svg1"
   sodipodi:docname="exchange-positions-clockwise.svg"
   xmlns:inkscape="http://www.inkscape.org/namespaces/inkscape"
   xmlns:sodipodi="http://sodipodi.sourceforge.net/DTD/sodipodi-0.dtd"
   xmlns="http://www.w3.org/2000/svg"
   xmlns:svg="http://www.w3.org/2000/svg">
  <sodipodi:namedview
     id="namedview1"
     pagecolor="#505050"
     bordercolor="#eeeeee"
     borderopacity="1"
     inkscape:showpageshadow="0"
     inkscape:pageopacity="0"
     inkscape:pagecheckerboard="0"
     inkscape:deskcolor="#d1d1d1" />
  <defs
     id="defs1">
    <style
       id="current-color-scheme"
       type="text/css">&#10;   .ColorScheme-Text { color:#1e3f5a; } .ColorScheme-Highlight { color:#4285f4; }&#10;  </style>
  </defs>
  <path
     style="fill:#bde6fb;fill-opacity:1"
     class="ColorScheme-Text"
     d="m 4,4 v 7 h 8 V 4 Z m 9,1.078125 V 9 h 1 V 6.3554688 C 16.393,7.2015187 17.9948,9.4619 18,12 h 1 C 18.997,8.5227 16.4416,5.574925 13,5.078125 Z M 5,12 c 0.003,3.4773 2.5584,6.425075 6,6.921875 V 15 h -1 v 2.644531 C 7.607,16.798481 6.0052,14.5381 6,12 Z m 11.5,1 a 3.5,3.5 0 0 0 -3.5,3.5 3.5,3.5 0 0 0 0.699219,2.09375 l 0.716797,-0.716797 a 2.5,2.5 0 0 1 -0.419922,-1.369141 2.5,2.5 0 0 1 2.5,-2.5 2.5,2.5 0 0 1 1.376953,0.416016 l 0.716797,-0.716797 a 3.5,3.5 0 0 0 -2.09961,-0.701172 z m 2.804688,1.398438 -0.0039,0.0078 -0.716797,0.716797 a 2.5,2.5 0 0 1 0.419922,1.369141 2.5,2.5 0 0 1 -2.5,2.5 2.5,2.5 0 0 1 -1.376953,-0.416016 l -0.716797,0.716797 a 3.5,3.5 0 0 0 2.09375,0.699219 3.5,3.5 0 0 0 3.5,-3.5 3.5,3.5 0 0 0 -0.699218,-2.09375 z"
     id="path1" />
</svg>
