<?xml version="1.0" encoding="UTF-8" standalone="no"?>
<svg
   width="24"
   height="24"
   viewBox="0 0 24 24"
   version="1.1"
   id="svg1"
   sodipodi:docname="favorite-genres-amarok.svg"
   xmlns:inkscape="http://www.inkscape.org/namespaces/inkscape"
   xmlns:sodipodi="http://sodipodi.sourceforge.net/DTD/sodipodi-0.dtd"
   xmlns="http://www.w3.org/2000/svg"
   xmlns:svg="http://www.w3.org/2000/svg">
  <sodipodi:namedview
     id="namedview1"
     pagecolor="#505050"
     bordercolor="#eeeeee"
     borderopacity="1"
     inkscape:showpageshadow="0"
     inkscape:pageopacity="0"
     inkscape:pagecheckerboard="0"
     inkscape:deskcolor="#d1d1d1" />
  <defs
     id="defs1">
    <style
       id="current-color-scheme"
       type="text/css">&#10;   .ColorScheme-Text { color:#1e3f5a; } .ColorScheme-Highlight { color:#4285f4; }&#10;  </style>
  </defs>
  <path
     style="fill:#bde6fb;fill-opacity:1"
     class="ColorScheme-Text"
     d="M 12,5 C 10.3708,5 8.8726,5.3839 7.7793,6.1621 6.686,6.9403 5.9986,8.1201 6,9.6875 c 0.007,1.7713 1.0562,4.0562 2.3223,5.9235 0.633,0.934 1.3213,1.763 1.9648,2.368 0.6435,0.604 1.2374,0.989 1.707,1.021 h 0.0118 c 0.4696,-0.033 1.0635,-0.417 1.707,-1.021 C 14.356,17.374 15.045,16.545 15.678,15.611 16.944,13.7437 17.992,11.4588 18,9.6875 18.001,8.1201 17.314,6.9403 16.221,6.1621 15.127,5.3839 13.6292,5 12,5 Z M 12.0176,7 13.2402,9.6348 16,10.0645 13.9902,12.1074 14.445,15 11.9785,13.625 9.5,14.984 9.9902,12.0938 8,10.0391 10.7676,9.625 Z"
     id="path1" />
</svg>
