<?xml version="1.0" encoding="UTF-8" standalone="no"?>
<svg
   width="24"
   height="24"
   version="1.1"
   id="svg1"
   sodipodi:docname="fcitx-anthy.svg"
   xmlns:inkscape="http://www.inkscape.org/namespaces/inkscape"
   xmlns:sodipodi="http://sodipodi.sourceforge.net/DTD/sodipodi-0.dtd"
   xmlns:xlink="http://www.w3.org/1999/xlink"
   xmlns="http://www.w3.org/2000/svg"
   xmlns:svg="http://www.w3.org/2000/svg">
  <sodipodi:namedview
     id="namedview1"
     pagecolor="#505050"
     bordercolor="#eeeeee"
     borderopacity="1"
     inkscape:showpageshadow="0"
     inkscape:pageopacity="0"
     inkscape:pagecheckerboard="0"
     inkscape:deskcolor="#d1d1d1" />
  <defs
     id="defs1">
    <linearGradient
       id="swatch1"
       inkscape:swatch="solid">
      <stop
         style="stop-color:#bde6fb;stop-opacity:1;"
         offset="0"
         id="stop1" />
    </linearGradient>
    <style
       id="current-color-scheme"
       type="text/css">&#10;   .ColorScheme-Text { color:#1e3f5a; } .ColorScheme-Highlight { color:#4285f4; }&#10;  </style>
    <linearGradient
       inkscape:collect="always"
       xlink:href="#swatch1"
       id="linearGradient1"
       x1="0"
       y1="8"
       x2="16"
       y2="8"
       gradientUnits="userSpaceOnUse" />
    <linearGradient
       inkscape:collect="always"
       xlink:href="#swatch1"
       id="linearGradient2"
       gradientUnits="userSpaceOnUse"
       x1="0"
       y1="8"
       x2="16"
       y2="8" />
  </defs>
  <g
     transform="translate(4,4)"
     id="g1"
     style="fill:url(#linearGradient1)">
    <path
       d="M 2,0 C 0.892,0 0,0.892 0,2 v 12 c 0,1.108 0.892,2 2,2 h 12 c 1.108,0 2,-0.892 2,-2 V 2 C 16,0.892 15.108,0 14,0 Z M 6.334,2 H 7.6113 C 7.5373,2.5556 7.4078,3.1248 7.2227,3.9766 9.7297,3.875 11.609,3.7399 13,3.5762 V 4.8555 C 11.832,4.9885 9.9046,4.9217 6.9453,5.0547 6.649,6.2398 6.2588,8.2716 5.7773,9.3457 L 5.8887,9.4004 C 7.259,8.4745 8.2245,8.0117 9.1875,8.0117 10.41,8.0117 11.355,8.3078 12.021,8.9004 12.688,9.493 13,10.252 13,11.178 13,12.252 12.596,12.667 11.744,13.223 10.929,13.741 9.7058,14 8.0762,14 7.054,14 6.1191,14.006 5,13.945 v -1.447 c 0.9443,0.191 1.8385,0.225 2.9648,0.225 1.1852,0 2.0752,-0.149 2.6682,-0.446 0.629,-0.333 0.943,-0.433 0.943,-1.099 0,-0.593 -0.204,-1.056 -0.611,-1.3889 C 10.557,9.4187 9.9653,9.2344 9.1875,9.2344 7.669,9.2344 6.4447,9.8811 5.1113,11.178 l -1,-0.778 C 4.7039,9.4378 5.2216,6.9747 5.666,5.0117 H 3 V 3.9805 C 3.9591,3.9759 4.9321,3.9653 5.9453,3.9336 Z"
       style="fill:url(#linearGradient2)"
       class="ColorScheme-Text"
       id="path1" />
  </g>
</svg>
