<?xml version="1.0" encoding="UTF-8" standalone="no"?>
<svg
   width="24"
   height="24"
   version="1.1"
   id="svg1"
   sodipodi:docname="fcitx-remind-inactive.svg"
   xmlns:inkscape="http://www.inkscape.org/namespaces/inkscape"
   xmlns:sodipodi="http://sodipodi.sourceforge.net/DTD/sodipodi-0.dtd"
   xmlns:xlink="http://www.w3.org/1999/xlink"
   xmlns="http://www.w3.org/2000/svg"
   xmlns:svg="http://www.w3.org/2000/svg">
  <sodipodi:namedview
     id="namedview1"
     pagecolor="#505050"
     bordercolor="#eeeeee"
     borderopacity="1"
     inkscape:showpageshadow="0"
     inkscape:pageopacity="0"
     inkscape:pagecheckerboard="0"
     inkscape:deskcolor="#d1d1d1" />
  <defs
     id="defs1">
    <linearGradient
       id="swatch1"
       inkscape:swatch="solid">
      <stop
         style="stop-color:#bde6fb;stop-opacity:1;"
         offset="0"
         id="stop1" />
    </linearGradient>
    <style
       id="current-color-scheme"
       type="text/css">&#10;   .ColorScheme-Text { color:#1e3f5a; } .ColorScheme-Highlight { color:#4285f4; }&#10;  </style>
    <linearGradient
       inkscape:collect="always"
       xlink:href="#swatch1"
       id="linearGradient1"
       x1="3"
       y1="8"
       x2="13"
       y2="8"
       gradientUnits="userSpaceOnUse" />
    <linearGradient
       inkscape:collect="always"
       xlink:href="#swatch1"
       id="linearGradient2"
       gradientUnits="userSpaceOnUse"
       x1="3"
       y1="8"
       x2="13"
       y2="8" />
  </defs>
  <g
     transform="translate(4,4)"
     id="g1"
     style="fill:url(#linearGradient1)">
    <path
       class="ColorScheme-Text"
       d="M 8,0 C 5.2377,0 3,2.31 3,5.16 3,6.84 3.7694,8.3198 4.9852,9.2598 5.5396,9.6898 5.9753,10.25 5.9753,11.02 L 6,12 h 4 l 0.029,-0.98 C 10.068,10.25 10.46,9.6898 11.015,9.2598 12.231,8.3198 13,6.84 13,5.16 13,2.31 10.762,0 8,0 Z m 0,2.0605 c 1.6535,0 3.005,1.3895 3.005,3.0995 0,0.97 -0.438,1.8694 -1.1965,2.4494 -1.1283,0.88 -1.556,1.8597 -1.7116,2.6796 H 7.9031 C 7.7475,9.4691 7.3198,8.4894 6.1915,7.6094 5.4328,7.0294 4.9947,6.13 4.9947,5.16 4.9947,3.45 6.3465,2.0605 8,2.0605 Z M 6,13 v 2 c 0,1 1.0274,1 1.0274,1 h 1.9452 c 0,0 1.0564,0 1.0274,-1 v -2 z"
       style="opacity:0.3;fill:url(#linearGradient2)"
       id="path1" />
  </g>
</svg>
