<?xml version="1.0" encoding="UTF-8" standalone="no"?>
<svg
   width="24"
   height="24"
   version="1.1"
   id="svg1"
   sodipodi:docname="fcitx-shuangpin.svg"
   xmlns:inkscape="http://www.inkscape.org/namespaces/inkscape"
   xmlns:sodipodi="http://sodipodi.sourceforge.net/DTD/sodipodi-0.dtd"
   xmlns:xlink="http://www.w3.org/1999/xlink"
   xmlns="http://www.w3.org/2000/svg"
   xmlns:svg="http://www.w3.org/2000/svg">
  <sodipodi:namedview
     id="namedview1"
     pagecolor="#505050"
     bordercolor="#eeeeee"
     borderopacity="1"
     inkscape:showpageshadow="0"
     inkscape:pageopacity="0"
     inkscape:pagecheckerboard="0"
     inkscape:deskcolor="#d1d1d1" />
  <defs
     id="defs1">
    <linearGradient
       id="swatch1"
       inkscape:swatch="solid">
      <stop
         style="stop-color:#bde6fb;stop-opacity:1;"
         offset="0"
         id="stop1" />
    </linearGradient>
    <style
       id="current-color-scheme"
       type="text/css">&#10;   .ColorScheme-Text { color:#1e3f5a; } .ColorScheme-Highlight { color:#4285f4; }&#10;  </style>
    <linearGradient
       inkscape:collect="always"
       xlink:href="#swatch1"
       id="linearGradient1"
       x1="0"
       y1="8"
       x2="16"
       y2="8"
       gradientUnits="userSpaceOnUse" />
    <linearGradient
       inkscape:collect="always"
       xlink:href="#swatch1"
       id="linearGradient2"
       gradientUnits="userSpaceOnUse"
       x1="0"
       y1="8"
       x2="16"
       y2="8" />
  </defs>
  <g
     transform="translate(4,4)"
     id="g1"
     style="fill:url(#linearGradient1)">
    <path
       class="ColorScheme-Text"
       d="M 2,0 C 0.892,0 0,0.892 0,2 v 12 c 0,1.108 0.892,2 2,2 h 12 c 1.108,0 2,-0.892 2,-2 V 2 C 16,0.892 15.108,0 14,0 Z M 2,2 H 7.5488 L 7.498,2.5508 c 0,0 -0.3276,3.5189 -1.2246,6.1289 0.583,0.87 1.1389,1.7693 1.8379,3.0093 L 7.2422,12.18 C 6.7032,11.23 6.2583,10.491 5.8203,9.8105 4.4263,12.931 2.4551,14.293 2.4551,14.293 L 1.8984,13.461 c 0,0 1.9707,-1.31 3.2637,-4.6505 -0.765,-1.11 -1.6347,-2.23 -3.0527,-4 l 0.7812,-0.621 c 1.181,1.47 1.973,2.4911 2.668,3.4511 C 6.1096,5.7406 6.3567,3.64 6.4277,3 H 2 Z m 6,0 h 6 v 0.5 c 0,2.15 -0.833,4.9702 -1.707,6.9102 -0.111,0.25 -0.242,0.4594 -0.367,0.6898 0.624,1.09 1.46,2.12 2.844,3.232 l -0.627,0.779 c -1.282,-1.034 -2.147,-2.04 -2.803,-3.06 -1.3932,1.984 -3.1037,3.033 -3.1037,3.033 L 7.7188,13.229 c 0,0 1.7803,-1.099 3.0682,-3.139 C 10.449,9.4398 10.166,8.7798 9.9004,8.0898 9.1424,6.1398 8.6918,3.59 8.5898,3 H 8 Z m 1.6074,1 c 0.14,0.77 0.5686,3.0305 1.2266,4.7305 0.173,0.45 0.351,0.8693 0.539,1.2793 C 12.13,7.3298 12.815,4.85 12.924,3 Z"
       style="fill:url(#linearGradient2)"
       id="path1" />
  </g>
</svg>
