<?xml version="1.0" encoding="UTF-8" standalone="no"?>
<svg
   width="24"
   height="24"
   version="1.1"
   id="svg1"
   sodipodi:docname="fcitx-cangjie.svg"
   xmlns:inkscape="http://www.inkscape.org/namespaces/inkscape"
   xmlns:sodipodi="http://sodipodi.sourceforge.net/DTD/sodipodi-0.dtd"
   xmlns:xlink="http://www.w3.org/1999/xlink"
   xmlns="http://www.w3.org/2000/svg"
   xmlns:svg="http://www.w3.org/2000/svg">
  <sodipodi:namedview
     id="namedview1"
     pagecolor="#505050"
     bordercolor="#eeeeee"
     borderopacity="1"
     inkscape:showpageshadow="0"
     inkscape:pageopacity="0"
     inkscape:pagecheckerboard="0"
     inkscape:deskcolor="#d1d1d1" />
  <defs
     id="defs1">
    <linearGradient
       id="swatch1"
       inkscape:swatch="solid">
      <stop
         style="stop-color:#bde6fb;stop-opacity:1;"
         offset="0"
         id="stop1" />
    </linearGradient>
    <style
       id="current-color-scheme"
       type="text/css">&#10;   .ColorScheme-Text { color:#1e3f5a; } .ColorScheme-Highlight { color:#4285f4; }&#10;  </style>
    <linearGradient
       inkscape:collect="always"
       xlink:href="#swatch1"
       id="linearGradient1"
       x1="0"
       y1="8"
       x2="16"
       y2="8"
       gradientUnits="userSpaceOnUse" />
    <linearGradient
       inkscape:collect="always"
       xlink:href="#swatch1"
       id="linearGradient2"
       gradientUnits="userSpaceOnUse"
       x1="0"
       y1="8"
       x2="16"
       y2="8" />
  </defs>
  <g
     transform="translate(4,4)"
     id="g1"
     style="fill:url(#linearGradient1)">
    <path
       class="ColorScheme-Text"
       d="M 2,0 C 0.892,0 0,0.892 0,2 v 12 c 0,1.108 0.892,2 2,2 h 12 c 1.108,0 2,-0.892 2,-2 V 2 C 16,0.892 15.108,0 14,0 Z m 5.584,1.7227 h 0.832 c 1.844,2.7653 5.647,3.2812 5.647,3.2812 l -0.125,0.9922 c 0,0 -0.834,-0.1238 -1.938,-0.5352 V 10 H 4.9453 C 4.903,10.339 4.8316,10.673 4.7246,11 H 12 v 3 H 4 v -1.377 l -0.0664,0.125 c -0.5203,0.911 -1.043,1.565 -1.043,1.565 L 2.1094,13.688 c -10e-5,0 0.4774,-0.597 0.957,-1.436 C 3.5461,11.413 4,10.333 4,9.5 V 5.4609 C 2.8964,5.8723 2.0625,5.9961 2.0625,5.9961 L 1.9375,5.0039 c 0,0 3.8029,-0.5159 5.6465,-3.2812 z M 8,2.7031 C 7.1412,3.7727 6.0665,4.5017 5.0664,5 h 2.5313 l -0.875,-0.584 0.5546,-0.832 1.5,1 L 8.5,5 h 2.434 C 9.9335,4.5017 8.8588,3.7727 8,2.7031 Z M 5,6 v 1 h 5 V 8 H 5 v 1 h 6 V 6 Z m 0,6 v 1 h 6 v -1 z"
       style="fill:url(#linearGradient2)"
       id="path1" />
  </g>
</svg>
