<?xml version="1.0" encoding="UTF-8" standalone="no"?>
<svg
   width="24"
   height="24"
   version="1.1"
   id="svg1"
   sodipodi:docname="fcitx-skk.svg"
   xmlns:inkscape="http://www.inkscape.org/namespaces/inkscape"
   xmlns:sodipodi="http://sodipodi.sourceforge.net/DTD/sodipodi-0.dtd"
   xmlns:xlink="http://www.w3.org/1999/xlink"
   xmlns="http://www.w3.org/2000/svg"
   xmlns:svg="http://www.w3.org/2000/svg">
  <sodipodi:namedview
     id="namedview1"
     pagecolor="#505050"
     bordercolor="#eeeeee"
     borderopacity="1"
     inkscape:showpageshadow="0"
     inkscape:pageopacity="0"
     inkscape:pagecheckerboard="0"
     inkscape:deskcolor="#d1d1d1" />
  <defs
     id="defs1">
    <linearGradient
       id="swatch1"
       inkscape:swatch="solid">
      <stop
         style="stop-color:#bde6fb;stop-opacity:1;"
         offset="0"
         id="stop1" />
    </linearGradient>
    <style
       id="current-color-scheme"
       type="text/css">&#10;   .ColorScheme-Text { color:#1e3f5a; } .ColorScheme-Highlight { color:#4285f4; }&#10;  </style>
    <linearGradient
       inkscape:collect="always"
       xlink:href="#swatch1"
       id="linearGradient1"
       x1="0"
       y1="8"
       x2="16"
       y2="8"
       gradientUnits="userSpaceOnUse" />
    <linearGradient
       inkscape:collect="always"
       xlink:href="#swatch1"
       id="linearGradient2"
       gradientUnits="userSpaceOnUse"
       x1="0"
       y1="8"
       x2="16"
       y2="8" />
  </defs>
  <g
     transform="translate(4,4)"
     id="g1"
     style="fill:url(#linearGradient1)">
    <path
       class="ColorScheme-Text"
       d="M 2,0 C 0.892,0 0,0.892 0,2 v 12 c 0,1.108 0.892,2 2,2 h 12 c 1.108,0 2,-0.892 2,-2 V 2 C 16,0.892 15.108,0 14,0 Z M 6,4 H 7 V 8.293 L 9.293,6 H 10 V 4 h 1 V 8.293 L 13.293,6 h 1.414 l -3,3 3,3 H 13.293 L 11,9.707 V 12 H 9.293 L 7,9.707 V 12 H 6 V 10 C 6,10.583 5.8455,11.111 5.4785,11.479 5.1105,11.846 4.583,12 4,12 3.417,12 2.8895,11.846 2.5215,11.479 2.1545,11.111 2,10.583 2,10 h 1 c 0,0.417 0.0955,0.639 0.2285,0.771 C 3.3605,10.904 3.583,11 4,11 4.417,11 4.6395,10.904 4.7715,10.771 4.9045,10.639 5,10.417 5,10 5,9.583 4.9045,9.3605 4.7715,9.2285 4.6395,9.0955 4.417,9 4,9 3.417,9 2.8895,8.8455 2.5215,8.4785 2.1545,8.1105 2,7.583 2,7 2,6.417 2.1545,5.8895 2.5215,5.5215 2.8895,5.1545 3.417,5 4,5 4.583,5 5.1105,5.1545 5.4785,5.5215 5.8455,5.8895 6,6.417 6,7 Z M 6,7 H 5 C 5,6.583 4.9045,6.3605 4.7715,6.2285 4.6395,6.0955 4.417,6 4,6 3.583,6 3.3605,6.0955 3.2285,6.2285 3.0955,6.3605 3,6.583 3,7 3,7.417 3.0955,7.6395 3.2285,7.7715 3.3605,7.9045 3.583,8 4,8 4.583,8 5.1105,8.1545 5.4785,8.5215 5.8455,8.8895 6,9.417 6,10 Z M 10,6.707 7.707,9 10,11.293 Z"
       style="fill:url(#linearGradient2)"
       id="path1" />
  </g>
</svg>
