<?xml version="1.0" encoding="UTF-8" standalone="no"?>
<svg
   width="24"
   height="24"
   version="1.1"
   id="svg1"
   sodipodi:docname="fcitx-rime-sync.svg"
   xmlns:inkscape="http://www.inkscape.org/namespaces/inkscape"
   xmlns:sodipodi="http://sodipodi.sourceforge.net/DTD/sodipodi-0.dtd"
   xmlns:xlink="http://www.w3.org/1999/xlink"
   xmlns="http://www.w3.org/2000/svg"
   xmlns:svg="http://www.w3.org/2000/svg">
  <sodipodi:namedview
     id="namedview1"
     pagecolor="#505050"
     bordercolor="#eeeeee"
     borderopacity="1"
     inkscape:showpageshadow="0"
     inkscape:pageopacity="0"
     inkscape:pagecheckerboard="0"
     inkscape:deskcolor="#d1d1d1" />
  <defs
     id="defs1">
    <linearGradient
       id="swatch1"
       inkscape:swatch="solid">
      <stop
         style="stop-color:#bde6fb;stop-opacity:1;"
         offset="0"
         id="stop1" />
    </linearGradient>
    <style
       id="current-color-scheme"
       type="text/css">&#10;   .ColorScheme-Text { color:#1e3f5a; } .ColorScheme-Highlight { color:#4285f4; }&#10;  </style>
    <linearGradient
       inkscape:collect="always"
       xlink:href="#swatch1"
       id="linearGradient1"
       x1="0"
       y1="7.5"
       x2="16"
       y2="7.5"
       gradientUnits="userSpaceOnUse" />
    <linearGradient
       inkscape:collect="always"
       xlink:href="#swatch1"
       id="linearGradient2"
       gradientUnits="userSpaceOnUse"
       x1="0"
       y1="7.5"
       x2="16"
       y2="7.5" />
  </defs>
  <g
     transform="translate(4,4)"
     id="g1"
     style="fill:url(#linearGradient1)">
    <path
       class="ColorScheme-Text"
       d="M 8,2 C 5.9926,2 4.1798,3.2006 3.3965,5.0488 1.4442,5.3468 0.0015,7.0251 0,9 c 0.00276,2.133 1.6783,3.888 3.8086,3.99 V 13 H 4 13.523 C 14.891,13 16,11.891 16,10.523 15.999,9.6649 15.553,8.8682 14.822,8.418 14.939,8.1259 14.999,7.8144 15,7.5 14.999,6.1507 13.927,5.0461 12.578,5.0039 11.785,3.1817 9.9874,2.0024 8,2 Z m 2,2 2,3 h -1 v 3 H 9 V 7 H 8 Z M 5,5 H 7 V 8 H 8 L 6,11 4,8 h 1 z"
       style="fill:url(#linearGradient2)"
       id="path1" />
  </g>
</svg>
