<?xml version="1.0" encoding="UTF-8" standalone="no"?>
<svg
   width="24"
   height="24"
   version="1.1"
   id="svg1"
   sodipodi:docname="fcitx-pinyin.svg"
   xmlns:inkscape="http://www.inkscape.org/namespaces/inkscape"
   xmlns:sodipodi="http://sodipodi.sourceforge.net/DTD/sodipodi-0.dtd"
   xmlns:xlink="http://www.w3.org/1999/xlink"
   xmlns="http://www.w3.org/2000/svg"
   xmlns:svg="http://www.w3.org/2000/svg">
  <sodipodi:namedview
     id="namedview1"
     pagecolor="#505050"
     bordercolor="#eeeeee"
     borderopacity="1"
     inkscape:showpageshadow="0"
     inkscape:pageopacity="0"
     inkscape:pagecheckerboard="0"
     inkscape:deskcolor="#d1d1d1" />
  <defs
     id="defs1">
    <linearGradient
       id="swatch1"
       inkscape:swatch="solid">
      <stop
         style="stop-color:#bde6fb;stop-opacity:1;"
         offset="0"
         id="stop1" />
    </linearGradient>
    <style
       id="current-color-scheme"
       type="text/css">&#10;   .ColorScheme-Text { color:#1e3f5a; } .ColorScheme-Highlight { color:#4285f4; }&#10;  </style>
    <linearGradient
       inkscape:collect="always"
       xlink:href="#swatch1"
       id="linearGradient1"
       x1="0"
       y1="8"
       x2="16"
       y2="8"
       gradientUnits="userSpaceOnUse" />
    <linearGradient
       inkscape:collect="always"
       xlink:href="#swatch1"
       id="linearGradient2"
       gradientUnits="userSpaceOnUse"
       x1="0"
       y1="8"
       x2="16"
       y2="8" />
  </defs>
  <g
     transform="translate(4,4)"
     id="g1"
     style="fill:url(#linearGradient1)">
    <path
       class="ColorScheme-Text"
       d="M 2,0 C 0.892,0 0,0.892 0,2 v 12 c 0,1.108 0.892,2 2,2 h 12 c 1.108,0 2,-0.892 2,-2 V 2 C 16,0.892 15.108,0 14,0 Z m 5.9004,1.6992 1.5,2 L 9.002,4 h 1.996 L 10.6,3.6992 l 1.5,-2 0.8,0.6016 L 11.625,4 H 14 v 1 h -2 v 3 h 2 v 1 h -2 v 5 H 11 V 9 H 8.959 c -0.096,1.12 -0.4768,2.031 -0.9258,2.811 -0.621,1.07 -1.6914,2.054 -1.6914,2.054 L 5.6582,13.137 c 0,0 1.0125,-0.966 1.5098,-1.826 C 7.569,10.611 7.8719,9.9 7.9609,9 H 6 V 8.0605 l -1,0.5 V 14 H 2 V 13 H 4 V 9.0605 L 2.2227,9.9492 1.7773,9.0508 4,7.9395 V 5 H 2 V 4 H 4 V 2 H 5 V 4 H 6 V 5 H 5 V 7.4395 L 5.7773,7.0508 6.2227,7.9492 6.1172,8 H 8 V 5 H 7 V 4 H 8.375 L 7.0996,2.3008 Z M 9,5 v 3 h 2 V 5 Z"
       style="fill:url(#linearGradient2)"
       id="path1" />
  </g>
</svg>
