<?xml version="1.0" encoding="UTF-8" standalone="no"?>
<svg
   width="24"
   height="24"
   version="1.1"
   id="svg1"
   sodipodi:docname="fcitx-rime-deploy.svg"
   xmlns:inkscape="http://www.inkscape.org/namespaces/inkscape"
   xmlns:sodipodi="http://sodipodi.sourceforge.net/DTD/sodipodi-0.dtd"
   xmlns:xlink="http://www.w3.org/1999/xlink"
   xmlns="http://www.w3.org/2000/svg"
   xmlns:svg="http://www.w3.org/2000/svg">
  <sodipodi:namedview
     id="namedview1"
     pagecolor="#505050"
     bordercolor="#eeeeee"
     borderopacity="1"
     inkscape:showpageshadow="0"
     inkscape:pageopacity="0"
     inkscape:pagecheckerboard="0"
     inkscape:deskcolor="#d1d1d1" />
  <defs
     id="defs1">
    <linearGradient
       id="swatch1"
       inkscape:swatch="solid">
      <stop
         style="stop-color:#bde6fb;stop-opacity:1;"
         offset="0"
         id="stop1" />
    </linearGradient>
    <style
       id="current-color-scheme"
       type="text/css">&#10;   .ColorScheme-Text { color:#1e3f5a; } .ColorScheme-Highlight { color:#4285f4; }&#10;  </style>
    <linearGradient
       inkscape:collect="always"
       xlink:href="#swatch1"
       id="linearGradient1"
       x1="0"
       y1="8"
       x2="16"
       y2="8"
       gradientUnits="userSpaceOnUse" />
    <linearGradient
       inkscape:collect="always"
       xlink:href="#swatch1"
       id="linearGradient2"
       gradientUnits="userSpaceOnUse"
       x1="0"
       y1="8"
       x2="16"
       y2="8" />
  </defs>
  <g
     transform="translate(4,4)"
     id="g1"
     style="fill:url(#linearGradient1)">
    <path
       class="ColorScheme-Text"
       d="M 8,0 C 3.5817,0 0,3.5817 0,8 c 0,4.418 3.5817,8 8,8 4.418,0 8,-3.582 8,-8 C 16,3.5817 12.418,0 8,0 Z M 7,2 10,4 7,6 V 5.1738 C 5.8021,5.5973 5.001,6.7295 5,8 5.0012,9.0283 5.529,9.9843 6.3984,10.533 L 5.4453,11.168 C 5.1516,11.364 5.005,11.677 5.002,11.99 3.7449,11.048 3.0035,9.5707 3,8 3.0003,5.6242 4.6722,3.5767 7,3.1016 Z m 3.998,2.0098 C 12.255,4.9516 12.996,6.4293 13,8 c 0,2.376 -1.672,4.423 -4,4.898 V 14 L 6,12 9,10 v 0.826 C 10.198,10.403 10.999,9.2705 11,8 10.999,6.9717 10.471,6.0157 9.6016,5.4668 L 10.555,4.832 c 0.293,-0.1958 0.44,-0.5085 0.443,-0.8222 z"
       style="fill:url(#linearGradient2)"
       id="path1" />
  </g>
</svg>
