<?xml version="1.0" encoding="UTF-8" standalone="no"?>
<svg
   width="24"
   height="24"
   version="1.1"
   id="svg1"
   sodipodi:docname="fcitx-chttrans-active.svg"
   xmlns:inkscape="http://www.inkscape.org/namespaces/inkscape"
   xmlns:sodipodi="http://sodipodi.sourceforge.net/DTD/sodipodi-0.dtd"
   xmlns:xlink="http://www.w3.org/1999/xlink"
   xmlns="http://www.w3.org/2000/svg"
   xmlns:svg="http://www.w3.org/2000/svg">
  <sodipodi:namedview
     id="namedview1"
     pagecolor="#505050"
     bordercolor="#eeeeee"
     borderopacity="1"
     inkscape:showpageshadow="0"
     inkscape:pageopacity="0"
     inkscape:pagecheckerboard="0"
     inkscape:deskcolor="#d1d1d1" />
  <defs
     id="defs1">
    <linearGradient
       id="swatch1"
       inkscape:swatch="solid">
      <stop
         style="stop-color:#bde6fb;stop-opacity:1;"
         offset="0"
         id="stop1" />
    </linearGradient>
    <style
       id="current-color-scheme"
       type="text/css">&#10;   .ColorScheme-Text { color:#1e3f5a; } .ColorScheme-Highlight { color:#4285f4; }&#10;  </style>
    <linearGradient
       inkscape:collect="always"
       xlink:href="#swatch1"
       id="linearGradient1"
       x1="0"
       y1="8"
       x2="16"
       y2="8"
       gradientUnits="userSpaceOnUse" />
    <linearGradient
       inkscape:collect="always"
       xlink:href="#swatch1"
       id="linearGradient2"
       gradientUnits="userSpaceOnUse"
       x1="0"
       y1="8"
       x2="16"
       y2="8" />
  </defs>
  <g
     transform="translate(4,4)"
     id="g1"
     style="fill:url(#linearGradient1)">
    <path
       class="ColorScheme-Text"
       d="M 2,0 C 0.892,0 0,0.892 0,2 v 12 c 0,1.108 0.892,2 2,2 h 12 c 1.108,0 2,-0.892 2,-2 V 2 C 16,0.892 15.108,0 14,0 Z M 7,0.5 H 8 V 1 h 3 V 0.5 h 1 V 1 h 2 v 1 h -2 v 2 h -2 v 1 h 3 v 3 h -3 v 1 h 3 v 1 h -3 v 1 h 4 v 1 h -3.662 c 0.257,0.394 0.639,0.782 1.113,1.115 0.876,0.616 1.998,0.998 2.539,0.987 l 0.02,1 C 13.066,15.121 11.899,14.651 10.877,13.934 10.346,13.56 9.8503,13.108 9.5,12.588 9.1497,13.108 8.6542,13.56 8.123,13.934 7.1012,14.651 5.9343,15.121 4.9902,15.102 l 0.0196,-1 c 0.541,0.011 1.6629,-0.371 2.539,-0.987 C 8.023,12.782 8.4047,12.394 8.6621,12 H 5 V 11 H 9 V 10 H 6 V 9 H 9 V 8 H 6 V 5 H 9 V 4 H 7 V 2 H 5 V 1 H 7 Z M 2.3516,2.3769 c 0.8458,0.4613 1.6146,1.0202 2.3066,1.6738 l -0.75,0.9804 C 3.1393,4.3006 2.3504,3.6853 1.543,3.1854 Z M 8,2 v 1 h 3 V 2 Z M 1.7754,5.6531 C 2.5443,6.076 3.2546,6.5562 3.9082,7.0945 L 3.1016,8.0749 C 2.448,7.4213 1.7357,6.8826 0.9668,6.4597 Z M 7,6 V 7 H 9 V 6 Z m 3,0 v 1 h 2 V 6 Z M 3.1016,8.9863 4.082,9.6797 C 3.6207,11.487 2.9468,13.236 2.0625,14.928 L 0.91016,14.119 C 1.8329,12.504 2.5633,10.793 3.1016,8.9863 Z"
       style="fill:url(#linearGradient2)"
       id="path1" />
  </g>
</svg>
