<?xml version="1.0" encoding="UTF-8" standalone="no"?>
<svg
   width="24"
   height="24"
   version="1.1"
   viewBox="0 0 24 24"
   id="svg1"
   sodipodi:docname="fcitx-vk-active.svg"
   xmlns:inkscape="http://www.inkscape.org/namespaces/inkscape"
   xmlns:sodipodi="http://sodipodi.sourceforge.net/DTD/sodipodi-0.dtd"
   xmlns:xlink="http://www.w3.org/1999/xlink"
   xmlns="http://www.w3.org/2000/svg"
   xmlns:svg="http://www.w3.org/2000/svg">
  <sodipodi:namedview
     id="namedview1"
     pagecolor="#505050"
     bordercolor="#eeeeee"
     borderopacity="1"
     inkscape:showpageshadow="0"
     inkscape:pageopacity="0"
     inkscape:pagecheckerboard="0"
     inkscape:deskcolor="#d1d1d1" />
  <defs
     id="defs1">
    <linearGradient
       id="swatch1"
       inkscape:swatch="solid">
      <stop
         style="stop-color:#bde6fb;stop-opacity:1;"
         offset="0"
         id="stop1" />
    </linearGradient>
    <style
       id="current-color-scheme"
       type="text/css">&#10;   .ColorScheme-Text { color:#1e3f5a; } .ColorScheme-Highlight { color:#4285f4; }&#10;  </style>
    <linearGradient
       inkscape:collect="always"
       xlink:href="#swatch1"
       id="linearGradient1"
       x1="0"
       y1="8"
       x2="15"
       y2="8"
       gradientUnits="userSpaceOnUse" />
    <linearGradient
       inkscape:collect="always"
       xlink:href="#swatch1"
       id="linearGradient2"
       gradientUnits="userSpaceOnUse"
       x1="0"
       y1="8"
       x2="15"
       y2="8" />
  </defs>
  <g
     transform="translate(4,4)"
     id="g1"
     style="fill:url(#linearGradient1)">
    <path
       class="ColorScheme-Text"
       d="M 2,2 C 2,2 0,2 0,4 v 8 c 0,2 2,2 2,2 h 11 c 0,0 2,0 2,-2 V 4 C 15,2 13,2 13,2 Z m 0.25,2 h 1.5 C 3.8885,4 4,4.1115 4,4.25 v 1.5 C 4,5.8885 3.8885,6 3.75,6 H 2.25 C 2.1115,6 2,5.8885 2,5.75 V 4.25 C 2,4.1115 2.1115,4 2.25,4 Z m 3,0 h 1.5 C 6.8885,4 7,4.1115 7,4.25 v 1.5 C 7,5.8885 6.8885,6 6.75,6 H 5.25 C 5.1115,6 5,5.8885 5,5.75 V 4.25 C 5,4.1115 5.1115,4 5.25,4 Z m 3,0 h 1.5 C 9.8885,4 10,4.1115 10,4.25 v 1.5 C 10,5.8885 9.8885,6 9.75,6 H 8.25 C 8.1115,6 8,5.8885 8,5.75 V 4.25 C 8,4.1115 8.1115,4 8.25,4 Z m 3,0 h 1.5 C 12.889,4 13,4.1115 13,4.25 v 1.5 C 13,5.8885 12.889,6 12.75,6 h -1.5 C 11.112,6 11,5.8885 11,5.75 V 4.25 C 11,4.1115 11.112,4 11.25,4 Z m -9,3 h 1.5 C 3.8885,7 4,7.1115 4,7.25 v 1.5 C 4,8.8885 3.8885,9 3.75,9 H 2.25 C 2.1115,9 2,8.8885 2,8.75 V 7.25 C 2,7.1115 2.1115,7 2.25,7 Z m 3,0 h 1.5 C 6.8885,7 7,7.1115 7,7.25 v 1.5 C 7,8.8885 6.8885,9 6.75,9 H 5.25 C 5.1115,9 5,8.8885 5,8.75 V 7.25 C 5,7.1115 5.1115,7 5.25,7 Z m 3,0 h 1.5 C 9.8885,7 10,7.1115 10,7.25 v 1.5 C 10,8.8885 9.8885,9 9.75,9 H 8.25 C 8.1115,9 8,8.8885 8,8.75 V 7.25 C 8,7.1115 8.1115,7 8.25,7 Z m 3,0 h 1.5 C 12.889,7 13,7.1115 13,7.25 v 1.5 C 13,8.8885 12.889,9 12.75,9 h -1.5 C 11.112,9 11,8.8885 11,8.75 V 7.25 C 11,7.1115 11.112,7 11.25,7 Z m -7,3 h 6.5 c 0.139,0 0.25,0.112 0.25,0.25 v 1.5 C 11,11.889 10.889,12 10.75,12 H 4.25 C 4.1115,12 4,11.889 4,11.75 v -1.5 C 4,10.112 4.1115,10 4.25,10 Z"
       style="fill:url(#linearGradient2)"
       id="path1" />
  </g>
</svg>
