<?xml version="1.0" encoding="UTF-8" standalone="no"?>
<svg
   width="24"
   height="24"
   version="1.1"
   id="svg1"
   sodipodi:docname="fcitx-wubi.svg"
   xmlns:inkscape="http://www.inkscape.org/namespaces/inkscape"
   xmlns:sodipodi="http://sodipodi.sourceforge.net/DTD/sodipodi-0.dtd"
   xmlns:xlink="http://www.w3.org/1999/xlink"
   xmlns="http://www.w3.org/2000/svg"
   xmlns:svg="http://www.w3.org/2000/svg">
  <sodipodi:namedview
     id="namedview1"
     pagecolor="#505050"
     bordercolor="#eeeeee"
     borderopacity="1"
     inkscape:showpageshadow="0"
     inkscape:pageopacity="0"
     inkscape:pagecheckerboard="0"
     inkscape:deskcolor="#d1d1d1" />
  <defs
     id="defs1">
    <linearGradient
       id="swatch1"
       inkscape:swatch="solid">
      <stop
         style="stop-color:#bde6fb;stop-opacity:1;"
         offset="0"
         id="stop1" />
    </linearGradient>
    <style
       id="current-color-scheme"
       type="text/css">&#10;   .ColorScheme-Text { color:#1e3f5a; } .ColorScheme-Highlight { color:#4285f4; }&#10;  </style>
    <linearGradient
       inkscape:collect="always"
       xlink:href="#swatch1"
       id="linearGradient1"
       x1="0"
       y1="8"
       x2="16"
       y2="8"
       gradientUnits="userSpaceOnUse" />
    <linearGradient
       inkscape:collect="always"
       xlink:href="#swatch1"
       id="linearGradient2"
       gradientUnits="userSpaceOnUse"
       x1="0"
       y1="8"
       x2="16"
       y2="8" />
  </defs>
  <g
     transform="translate(4,4)"
     id="g1"
     style="fill:url(#linearGradient1)">
    <path
       class="ColorScheme-Text"
       d="M 2,0 C 0.892,0 0,0.892 0,2 v 12 c 0,1.108 0.892,2 2,2 h 12 c 1.108,0 2,-0.892 2,-2 V 2 C 16,0.892 15.108,0 14,0 Z m 1,3 h 9 V 4 H 7.9023 L 7.2363,7 H 11 v 5 h 2 v 1 H 3 V 12 H 5.0996 L 5.9883,8 H 4 V 7 H 6.2109 L 6.877,4 H 3 Z M 7.0137,8 6.123,12 H 10 V 8 Z"
       style="fill:url(#linearGradient2)"
       id="path1" />
  </g>
</svg>
