<?xml version="1.0" encoding="UTF-8" standalone="no"?>
<svg
   width="24"
   height="24"
   version="1.1"
   id="svg1"
   sodipodi:docname="fcitx-handwriting-active.svg"
   xmlns:inkscape="http://www.inkscape.org/namespaces/inkscape"
   xmlns:sodipodi="http://sodipodi.sourceforge.net/DTD/sodipodi-0.dtd"
   xmlns:xlink="http://www.w3.org/1999/xlink"
   xmlns="http://www.w3.org/2000/svg"
   xmlns:svg="http://www.w3.org/2000/svg">
  <sodipodi:namedview
     id="namedview1"
     pagecolor="#505050"
     bordercolor="#eeeeee"
     borderopacity="1"
     inkscape:showpageshadow="0"
     inkscape:pageopacity="0"
     inkscape:pagecheckerboard="0"
     inkscape:deskcolor="#d1d1d1" />
  <defs
     id="defs1">
    <linearGradient
       id="swatch1"
       inkscape:swatch="solid">
      <stop
         style="stop-color:#bde6fb;stop-opacity:1;"
         offset="0"
         id="stop1" />
    </linearGradient>
    <style
       id="current-color-scheme"
       type="text/css">&#10;   .ColorScheme-Text { color:#1e3f5a; } .ColorScheme-Highlight { color:#4285f4; }&#10;  </style>
    <linearGradient
       inkscape:collect="always"
       xlink:href="#swatch1"
       id="linearGradient1"
       x1="0"
       y1="8"
       x2="16"
       y2="8"
       gradientUnits="userSpaceOnUse" />
    <linearGradient
       inkscape:collect="always"
       xlink:href="#swatch1"
       id="linearGradient2"
       gradientUnits="userSpaceOnUse"
       x1="0"
       y1="8"
       x2="16"
       y2="8" />
  </defs>
  <g
     transform="translate(4,4)"
     id="g1"
     style="fill:url(#linearGradient1)">
    <path
       class="ColorScheme-Text"
       d="M 2,0 C 0.892,0 0,0.892 0,2 v 12 c 0,1.108 0.892,2 2,2 h 12 c 1.108,0 2,-0.892 2,-2 V 2 C 16,0.892 15.108,0 14,0 Z m 9.613281,2 c 0.182048,0 0.36255,0.071535 0.503907,0.2128906 l 1.669921,1.6699219 c 0.282711,0.2827105 0.282711,0.7290085 0,1.0117187 L 12.382812,6.2890625 9.7109375,3.6171875 11.105469,2.2128906 C 11.246824,2.0715352 11.431233,2 11.613281,2 Z M 8.75,4.5761719 11.423828,7.25 4.671875,14 H 2 v -2.671875 z"
       style="fill:url(#linearGradient2)"
       id="path1" />
  </g>
</svg>
