<?xml version="1.0" encoding="UTF-8" standalone="no"?>
<svg
   width="24"
   height="24"
   viewBox="0 0 24 24"
   version="1.1"
   id="svg1"
   sodipodi:docname="filename-initial-amarok.svg"
   xmlns:inkscape="http://www.inkscape.org/namespaces/inkscape"
   xmlns:sodipodi="http://sodipodi.sourceforge.net/DTD/sodipodi-0.dtd"
   xmlns="http://www.w3.org/2000/svg"
   xmlns:svg="http://www.w3.org/2000/svg">
  <sodipodi:namedview
     id="namedview1"
     pagecolor="#505050"
     bordercolor="#eeeeee"
     borderopacity="1"
     inkscape:showpageshadow="0"
     inkscape:pageopacity="0"
     inkscape:pagecheckerboard="0"
     inkscape:deskcolor="#d1d1d1" />
  <defs
     id="defs1">
    <style
       id="current-color-scheme"
       type="text/css">&#10;   .ColorScheme-Text { color:#1e3f5a; } .ColorScheme-Highlight { color:#4285f4; }&#10;  </style>
  </defs>
  <path
     style="fill:#bde6fb;fill-opacity:1"
     class="ColorScheme-Text"
     d="M 7.890625,6 A 1.0001,1.0001 0 0 0 6.9296875,6.7226562 L 4.0429687,16.722656 A 1.0001,1.0001 0 0 0 5.0039062,18 H 6.1699219 A 1.0001,1.0001 0 0 0 7.1328125,17.267578 L 7.7636719,15 H 9.2441406 L 9.875,17.267578 A 1.0001,1.0001 0 0 0 10.837891,18 h 1.166015 a 1.0001,1.0001 0 0 0 0.5,-0.134766 1.0001,1.0001 0 0 0 0.5,0.134766 h 1 a 1.0001,1.0001 0 0 0 0.660156,-0.248047 C 15.091273,17.904803 15.540823,17.99937 16.001953,18 a 1.0001,1.0001 0 0 0 0.002,0 c 2.1973,0 4,-1.8027 4,-4 0,-2.1973 -1.8027,-4 -4,-4 a 1.0001,1.0001 0 0 0 -0.002,0 c -0.34402,4.7e-4 -0.670237,0.0993 -0.998047,0.185547 V 7 a 1.0001,1.0001 0 0 0 -1,-1 h -1 a 1.0001,1.0001 0 0 0 -1,1 v 6.087891 L 10.326172,6.7441406 A 1.0001,1.0001 0 0 0 9.359375,6 Z m 0.6640625,3 0.9492187,4 h -2 z m 7.4492185,3 a 2,2 0 0 1 2,2 2,2 0 0 1 -2,2 2,2 0 0 1 -2,-2 2,2 0 0 1 2,-2 z"
     id="path1" />
</svg>
