<?xml version="1.0" encoding="UTF-8" standalone="no"?>
<svg
   width="24"
   height="24"
   viewBox="0 0 24 24"
   version="1.1"
   id="svg1"
   sodipodi:docname="filename-and-amarok.svg"
   xmlns:inkscape="http://www.inkscape.org/namespaces/inkscape"
   xmlns:sodipodi="http://sodipodi.sourceforge.net/DTD/sodipodi-0.dtd"
   xmlns="http://www.w3.org/2000/svg"
   xmlns:svg="http://www.w3.org/2000/svg">
  <sodipodi:namedview
     id="namedview1"
     pagecolor="#505050"
     bordercolor="#eeeeee"
     borderopacity="1"
     inkscape:showpageshadow="0"
     inkscape:pageopacity="0"
     inkscape:pagecheckerboard="0"
     inkscape:deskcolor="#d1d1d1" />
  <defs
     id="defs1">
    <style
       id="current-color-scheme"
       type="text/css">&#10;   .ColorScheme-Text { color:#1e3f5a; } .ColorScheme-Highlight { color:#4285f4; }&#10;  </style>
  </defs>
  <path
     style="fill:#bde6fb;fill-opacity:1"
     class="ColorScheme-Text"
     d="m 11.279297,5.0507812 c -1.1178,0 -2.1522783,0.2925057 -2.9550782,0.9160157 -0.80478,0.62368 -1.2695313,1.5764656 -1.2695313,2.5722656 0,0.91979 0.4235406,1.7848625 1.0253906,2.6015625 -0.24211,0.16584 -0.4774112,0.346557 -0.7070312,0.560547 -0.2794,0.26021 -0.5240663,0.544406 -0.7226563,0.853516 a 1.0233,0.97743 0 0 0 -0.00195,0.0059 c -0.20359,0.32163 -0.3556431,0.678566 -0.4707031,1.066406 a 1.0233,0.97743 0 0 0 -0.00195,0.0098 c -0.11563,0.40727 -0.1699218,0.83486 -0.1699218,1.27539 0,0.5513 0.1474019,1.098144 0.4199218,1.589844 a 1.0233,0.97743 0 0 0 0.00586,0.0098 c 0.27063,0.47508 0.6375282,0.89642 1.0800782,1.24414 0.45013,0.35367 0.9764437,0.624136 1.5585937,0.822266 a 1.0233,0.97743 0 0 0 0.013672,0.0039 c 0.60056,0.19557 1.2305996,0.292969 1.8749996,0.292969 1.1651,0 2.274319,-0.397581 3.324219,-0.988281 l 0.75,0.794922 a 1.0233,0.97743 0 0 0 1.412109,0.09961 l 0.97461,-0.771484 a 1.0233,0.97743 0 0 0 0.101562,-1.414063 L 16.748054,15.79105 c 0.4006,-0.47929 0.812159,-0.931458 1.167969,-1.523438 a 1.0233,0.97743 0 0 0 -0.326179,-1.304721 l -0.958985,-0.59961 a 1.0233,0.97743 0 0 0 -1.453125,0.339844 c -0.18994,0.32468 -0.412117,0.550825 -0.617187,0.828125 l -1.644531,-1.707031 c 0.21463,-0.12287 0.404202,-0.238748 0.570312,-0.367188 0.12924,-0.1 0.277213,-0.217058 0.445313,-0.355468 a 1.0233,0.97743 0 0 0 0.0019,-0.002 C 14.151364,10.919309 14.34125,10.729403 14.5,10.501953 a 1.0233,0.97743 0 0 0 0.01172,-0.01367 c 0.10422,-0.1556 0.203874,-0.32354 0.302734,-0.4999999 0.1449,-0.25233 0.249564,-0.5264237 0.308594,-0.8085937 0.0411,-0.19644 0.05145,-0.3999956 0.06055,-0.6035156 a 1.0233,0.97743 0 0 0 0.01758,-0.1816407 c 0,-0.97937 -0.399312,-1.9224781 -1.169922,-2.5175781 C 13.28806,5.3030031 12.323897,5.0507812 11.279297,5.0507812 Z m 1.9375,1.5957032 0.0059,0.00781 c -10e-4,-0.001 -0.0029,-8.632e-4 -0.0039,-0.00195 -0.002,-10e-4 -3.53e-4,-0.00386 -0.002,-0.00586 z m -1.919922,1.3125 c 0.37084,0 0.476166,0.074679 0.509766,0.1054687 a 1.0233,0.97743 0 0 0 0.0059,0.00586 c 0.0372,0.0333 0.08984,0.075674 0.08984,0.3652344 0,0.11698 -0.01905,0.2112368 -0.06055,0.3105469 a 1.0233,0.97743 0 0 0 -0.0059,0.011719 c -0.0506,0.12563 -0.104107,0.2091981 -0.154297,0.2675781 a 1.0233,0.97743 0 0 0 -0.01172,0.017578 c -0.0421,0.0513 -0.152418,0.1570799 -0.330078,0.28125 -0.15196,0.10517 -0.274158,0.1796893 -0.398438,0.2558593 -0.29603,-0.41543 -0.605469,-0.8378762 -0.605469,-1.1289062 0,-0.17332 -0.01051,-0.1605638 0.158203,-0.2773438 0.20017,-0.13856 0.427725,-0.2148437 0.802735,-0.2148444 z m -1.162109,5.5332036 1.884765,2 c -0.33249,0.112269 -0.687402,0.36914 -1.007812,0.36914 -0.56149,0 -0.918999,-0.126964 -1.230469,-0.371094 -0.31584,-0.25253 -0.3847656,-0.410131 -0.3847656,-0.707031 0,-0.43064 0.097511,-0.691432 0.2753906,-0.914062 a 1.0233,0.97743 0 0 0 0.00391,-0.0078 c 0.095,-0.12041 0.3172944,-0.245281 0.458984,-0.369141 z"
     id="path1" />
</svg>
