<?xml version="1.0" encoding="UTF-8" standalone="no"?>
<svg
   viewBox="0 0 576 576"
   version="1.1"
   id="svg1"
   sodipodi:docname="find-location.svg"
   width="576"
   height="576"
   xmlns:inkscape="http://www.inkscape.org/namespaces/inkscape"
   xmlns:sodipodi="http://sodipodi.sourceforge.net/DTD/sodipodi-0.dtd"
   xmlns="http://www.w3.org/2000/svg"
   xmlns:svg="http://www.w3.org/2000/svg">
  <defs
     id="defs1" />
  <sodipodi:namedview
     id="namedview1"
     pagecolor="#505050"
     bordercolor="#eeeeee"
     borderopacity="1"
     inkscape:showpageshadow="0"
     inkscape:pageopacity="0"
     inkscape:pagecheckerboard="0"
     inkscape:deskcolor="#d1d1d1" />
  <path
     fill="#1e3f5a"
     d="m 12,8.36 a 3.635,3.635 0 1 0 0,7.27 3.635,3.635 0 0 0 0,-7.27 z m 8.13,2.73 A 8.18,8.18 0 0 0 12.91,3.87 V 2 H 11.09 V 3.87 A 8.18,8.18 0 0 0 3.87,11.09 H 2 v 1.82 h 1.87 a 8.18,8.18 0 0 0 7.22,7.22 V 22 h 1.82 v -1.87 a 8.18,8.18 0 0 0 7.22,-7.22 H 22 V 11.09 Z M 12,18.36 a 6.37,6.37 0 0 1 0,-12.72 6.37,6.37 0 0 1 0,12.72 z"
     id="path1"
     style="fill:#bde6fb;fill-opacity:1" />
</svg>
