<?xml version="1.0" encoding="UTF-8" standalone="no"?>
<svg
   width="24"
   height="24"
   viewBox="0 0 24 24"
   version="1.1"
   id="svg1"
   sodipodi:docname="format-text-remove-formatting.svg"
   xmlns:inkscape="http://www.inkscape.org/namespaces/inkscape"
   xmlns:sodipodi="http://sodipodi.sourceforge.net/DTD/sodipodi-0.dtd"
   xmlns="http://www.w3.org/2000/svg"
   xmlns:svg="http://www.w3.org/2000/svg">
  <sodipodi:namedview
     id="namedview1"
     pagecolor="#505050"
     bordercolor="#eeeeee"
     borderopacity="1"
     inkscape:showpageshadow="0"
     inkscape:pageopacity="0"
     inkscape:pagecheckerboard="0"
     inkscape:deskcolor="#d1d1d1" />
  <defs
     id="defs1">
    <style
       id="current-color-scheme"
       type="text/css">&#10;   .ColorScheme-Text { color:#1e3f5a; } .ColorScheme-Highlight { color:#4285f4; }&#10;  </style>
  </defs>
  <path
     style="fill:#bde6fb;fill-opacity:1"
     class="ColorScheme-Text"
     d="m 6.3398438,4.9375 -1.4062501,1.40625 4.6933594,4.693359 c -0.76451,0.0884 -1.4374594,0.427631 -1.8808593,0.931641 -0.5144001,0.58479 -0.7563901,1.31065 -0.75,2.03125 0.006,0.72062 0.26893,1.45275 0.78125,2.03125 C 8.2896637,16.60979 9.0877938,17 9.9960938,17 h 5.5937502 l 2.0625,2.0625 1.40625,-1.40625 z M 10.402344,7 l 2,2 h 1.59375 c 0.42816,0 1,0.61414 1,1 v 1 h -0.59375 l 2.59375,2.59375 V 10 c 9e-5,-1.6343 -1.3198,-3 -3,-3 z m -0.4062502,6 h 1.5937502 l 2,2 H 9.9960938 C 9.5982237,15 9.4291837,14.89021 9.2773438,14.71875 9.1255038,14.54729 8.9985737,14.27938 8.9960938,14 c -0.002,-0.27938 0.1046699,-0.55354 0.25,-0.71875 C 9.3914238,13.11604 9.5737337,13 9.9960938,13 Z"
     id="path1" />
</svg>
