<?xml version="1.0" encoding="UTF-8" standalone="no"?>
<svg
   width="24"
   height="24"
   viewBox="0 0 24 24"
   version="1.1"
   id="svg1"
   sodipodi:docname="format-text-superscript.svg"
   xmlns:inkscape="http://www.inkscape.org/namespaces/inkscape"
   xmlns:sodipodi="http://sodipodi.sourceforge.net/DTD/sodipodi-0.dtd"
   xmlns="http://www.w3.org/2000/svg"
   xmlns:svg="http://www.w3.org/2000/svg">
  <sodipodi:namedview
     id="namedview1"
     pagecolor="#505050"
     bordercolor="#eeeeee"
     borderopacity="1"
     inkscape:showpageshadow="0"
     inkscape:pageopacity="0"
     inkscape:pagecheckerboard="0"
     inkscape:deskcolor="#d1d1d1" />
  <defs
     id="defs1">
    <style
       id="current-color-scheme"
       type="text/css">&#10;   .ColorScheme-Text { color:#1e3f5a; } .ColorScheme-Highlight { color:#4285f4; }&#10;  </style>
  </defs>
  <path
     style="fill:#bde6fb;fill-opacity:1"
     class="ColorScheme-Text"
     d="m 15,4 v 6 h 3 C 19.108,10 20,9.108 20,8 20,7.1891 19.519125,6.4980938 18.828125,6.1835938 18.934125,5.9776938 19,5.7483 19,5.5 19,4.669 18.331,4 17.5,4 Z M 11,5 6,19 h 2.5 l 1.0625,-3 h 4.875 L 15.5,19 h 2.78125 L 13,5 Z m 5,0 h 1.5 C 17.777,5 18,5.223 18,5.5 18,5.777 17.777,6 17.5,6 H 16 Z m 0,2 h 2 c 0.554,0 1,0.446 1,1 0,0.554 -0.446,1 -1,1 h -2 z m -4,2 1.75,5 h -3.5 z"
     id="path1" />
</svg>
