<?xml version="1.0" encoding="UTF-8" standalone="no"?>
<svg
   width="24"
   height="24"
   viewBox="0 0 24 24"
   version="1.1"
   id="svg1"
   sodipodi:docname="format-precision-more.svg"
   xmlns:inkscape="http://www.inkscape.org/namespaces/inkscape"
   xmlns:sodipodi="http://sodipodi.sourceforge.net/DTD/sodipodi-0.dtd"
   xmlns="http://www.w3.org/2000/svg"
   xmlns:svg="http://www.w3.org/2000/svg">
  <sodipodi:namedview
     id="namedview1"
     pagecolor="#505050"
     bordercolor="#eeeeee"
     borderopacity="1"
     inkscape:showpageshadow="0"
     inkscape:pageopacity="0"
     inkscape:pagecheckerboard="0"
     inkscape:deskcolor="#d1d1d1" />
  <defs
     id="defs1">
    <style
       id="current-color-scheme"
       type="text/css">&#10;   .ColorScheme-Text { color:#1e3f5a; } .ColorScheme-Highlight { color:#4285f4; }&#10;  </style>
  </defs>
  <path
     style="fill:#bde6fb;fill-opacity:1"
     class="ColorScheme-Text"
     d="M 8.5,4 C 6.567,4 5,5.7909 5,8 v 3 c 0,2.2091 1.567,4 3.5,4 1.933,0 3.5,-1.7909 3.5,-4 V 8 C 12,5.7909 10.433,4 8.5,4 Z m 8,0 C 14.567,4 13,5.7909 13,8 v 3 c 0,2.2091 1.567,4 3.5,4 1.933,0 3.5,-1.7909 3.5,-4 V 8 C 20,5.7909 18.433,4 16.5,4 Z m -8,2 C 9.3284,6 10,7.0452844 10,8.3339844 V 10.666016 C 10,11.954716 9.3284,13 8.5,13 7.6716,13 7,11.954716 7,10.666016 V 8.3339844 C 7,7.0452844 7.6716,6 8.5,6 Z m 8,0 C 17.328,6 18,7.0452844 18,8.3339844 V 10.666016 C 18,11.954716 17.328,13 16.5,13 15.672,13 15,11.954716 15,10.666016 V 8.3339844 C 15,7.0452844 15.672,6 16.5,6 Z M 4,14 v 1 h 1 v -1 z m 12,2 v 1.5 h -1.5 v 1 H 16 V 20 h 1 v -1.5 h 1.5 v -1 H 17 V 16 Z"
     id="path1" />
</svg>
