<?xml version="1.0" encoding="UTF-8" standalone="no"?>
<svg
   width="24"
   height="24"
   viewBox="0 0 24 24"
   version="1.1"
   id="svg1"
   sodipodi:docname="format-text-uppercase.svg"
   xmlns:inkscape="http://www.inkscape.org/namespaces/inkscape"
   xmlns:sodipodi="http://sodipodi.sourceforge.net/DTD/sodipodi-0.dtd"
   xmlns="http://www.w3.org/2000/svg"
   xmlns:svg="http://www.w3.org/2000/svg">
  <sodipodi:namedview
     id="namedview1"
     pagecolor="#505050"
     bordercolor="#eeeeee"
     borderopacity="1"
     inkscape:showpageshadow="0"
     inkscape:pageopacity="0"
     inkscape:pagecheckerboard="0"
     inkscape:deskcolor="#d1d1d1" />
  <defs
     id="defs1">
    <style
       id="current-color-scheme"
       type="text/css">&#10;   .ColorScheme-Text { color:#1e3f5a; } .ColorScheme-Highlight { color:#4285f4; }&#10;  </style>
  </defs>
  <path
     style="fill:#bde6fb;fill-opacity:1"
     class="ColorScheme-Text"
     d="m 15.214844,6 -2.5,3 h 5 z M 7.828125,10 5,18 H 6.1425781 L 7.1171875,15.714844 H 9.8398438 L 10.714844,18 h 1.142578 L 9.265625,10 Z m 4.886719,0 v 8 h 4 A 2.2857,2.2857 0 0 0 19,15.714844 2.2857,2.2857 0 0 0 17.466797,13.560547 2.2857,2.2857 0 0 0 17.857422,12.285156 2.2857,2.2857 0 0 0 15.572266,10 Z m 1.142578,1.142578 h 1.714844 a 1.1429,1.1429 0 0 1 1.142578,1.142578 1.1429,1.1429 0 0 1 -1.142578,1.142578 h -1.714844 z m -5.310547,0.09766 1.0722656,3.332032 H 7.3632812 Z m 5.310547,3.332032 h 2.857422 a 1.1429,1.1429 0 0 1 1.142578,1.142578 1.1429,1.1429 0 0 1 -1.142578,1.142578 h -2.857422 z"
     id="path1" />
</svg>
