<?xml version="1.0" encoding="UTF-8" standalone="no"?>
<svg
   width="24"
   height="24"
   viewBox="0 0 24 24"
   version="1.1"
   id="svg1"
   sodipodi:docname="format-font-size-less.svg"
   xmlns:inkscape="http://www.inkscape.org/namespaces/inkscape"
   xmlns:sodipodi="http://sodipodi.sourceforge.net/DTD/sodipodi-0.dtd"
   xmlns="http://www.w3.org/2000/svg"
   xmlns:svg="http://www.w3.org/2000/svg">
  <sodipodi:namedview
     id="namedview1"
     pagecolor="#505050"
     bordercolor="#eeeeee"
     borderopacity="1"
     inkscape:showpageshadow="0"
     inkscape:pageopacity="0"
     inkscape:pagecheckerboard="0"
     inkscape:deskcolor="#d1d1d1" />
  <defs
     id="defs1">
    <style
       id="current-color-scheme"
       type="text/css">&#10;   .ColorScheme-Text { color:#1e3f5a; } .ColorScheme-Highlight { color:#4285f4; }&#10;  </style>
  </defs>
  <path
     style="fill:#bde6fb;fill-opacity:1"
     class="ColorScheme-Text"
     d="M 10,5 5,19 h 2.5 l 1.0625,-3 h 3.572266 a 1.0001,1.0001 0 0 1 0.158203,-0.207031 L 13,15.085938 a 1.0001,1.0001 0 0 1 1.414062,0 L 15,15.671875 v -1.878906 a 1.0001,1.0001 0 0 1 0.130859,-0.492188 L 12,5 Z m 1,4 1.75,5 h -3.5 z m 5,4.792969 v 4.292969 L 13.707031,15.792969 13,16.5 16.292969,19.792969 16.5,20 16.707031,19.792969 20,16.5 19.292969,15.792969 17,18.085938 v -4.292969 z"
     id="path1" />
</svg>
