<?xml version="1.0" encoding="UTF-8" standalone="no"?>
<svg
   width="24"
   height="24"
   viewBox="0 0 24 24"
   version="1.1"
   id="svg1"
   sodipodi:docname="format-text-blockquote.svg"
   xmlns:inkscape="http://www.inkscape.org/namespaces/inkscape"
   xmlns:sodipodi="http://sodipodi.sourceforge.net/DTD/sodipodi-0.dtd"
   xmlns="http://www.w3.org/2000/svg"
   xmlns:svg="http://www.w3.org/2000/svg">
  <sodipodi:namedview
     id="namedview1"
     pagecolor="#505050"
     bordercolor="#eeeeee"
     borderopacity="1"
     inkscape:showpageshadow="0"
     inkscape:pageopacity="0"
     inkscape:pagecheckerboard="0"
     inkscape:deskcolor="#d1d1d1" />
  <defs
     id="defs1">
    <style
       id="current-color-scheme"
       type="text/css">&#10;   .ColorScheme-Text { color:#1e3f5a; } .ColorScheme-Highlight { color:#4285f4; }&#10;  </style>
  </defs>
  <path
     style="fill:#bde6fb;fill-opacity:1"
     class="ColorScheme-Text"
     d="M 10,9 C 8.8954,9 8,9.89543 8,11 v 2.53125 H 8.00195 A 1.5,1.5 0 0 0 9.5,15 1.5,1.5 0 0 0 11,13.5 1.5,1.5 0 0 0 9.5,12 a 1.5,1.5 0 0 0 -0.03125,0.002 V 12 H 9 v -1 c 0,-0.55228 0.44772,-1 1,-1 z m 4,0 c -1.1046,0 -2,0.89543 -2,2 v 2.53125 h 0.002 A 1.5,1.5 0 0 0 13.5,15 1.5,1.5 0 0 0 15,13.5 1.5,1.5 0 0 0 13.5,12 a 1.5,1.5 0 0 0 -0.03125,0.002 V 12 H 13 v -1 c 0,-0.55228 0.44772,-1 1,-1 z"
     id="path1" />
</svg>
