<?xml version="1.0" encoding="UTF-8" standalone="no"?>
<svg
   width="24"
   height="24"
   viewBox="0 0 24 24"
   version="1.1"
   id="svg1"
   sodipodi:docname="formula.svg"
   xmlns:inkscape="http://www.inkscape.org/namespaces/inkscape"
   xmlns:sodipodi="http://sodipodi.sourceforge.net/DTD/sodipodi-0.dtd"
   xmlns="http://www.w3.org/2000/svg"
   xmlns:svg="http://www.w3.org/2000/svg">
  <sodipodi:namedview
     id="namedview1"
     pagecolor="#505050"
     bordercolor="#eeeeee"
     borderopacity="1"
     inkscape:showpageshadow="0"
     inkscape:pageopacity="0"
     inkscape:pagecheckerboard="0"
     inkscape:deskcolor="#d1d1d1" />
  <defs
     id="defs1">
    <style
       id="current-color-scheme"
       type="text/css">&#10;   .ColorScheme-Text { color:#1e3f5a; } .ColorScheme-Highlight { color:#4285f4; }&#10;  </style>
  </defs>
  <path
     style="fill:#bde6fb;fill-opacity:1"
     class="ColorScheme-Text"
     d="M 13.150391,5 A 1.0001,1.0001 0 0 0 12.183594,5.7421875 L 10.289063,12.816406 9.5292969,11.5 A 1.0001,1.0001 0 0 0 8.6640625,11 H 6.0019531 a 1.0001,1.0001 0 0 0 -1,1 v 1 a 1.0001,1.0001 0 0 0 1,1 h 1.5058594 l 2.5996095,4.5 a 1.0001,1.0001 0 0 0 1.832031,-0.240234 L 14.6875,8 h 3.314453 a 1.0001,1.0001 0 0 0 1,-1 V 6 a 1.0001,1.0001 0 0 0 -1,-1 z"
     id="path1" />
</svg>
