<?xml version="1.0" encoding="UTF-8" standalone="no"?>
<svg
   width="24"
   height="24"
   viewBox="0 0 24 24"
   version="1.1"
   id="svg1"
   sodipodi:docname="format-number-percent.svg"
   xmlns:inkscape="http://www.inkscape.org/namespaces/inkscape"
   xmlns:sodipodi="http://sodipodi.sourceforge.net/DTD/sodipodi-0.dtd"
   xmlns="http://www.w3.org/2000/svg"
   xmlns:svg="http://www.w3.org/2000/svg">
  <sodipodi:namedview
     id="namedview1"
     pagecolor="#505050"
     bordercolor="#eeeeee"
     borderopacity="1"
     inkscape:showpageshadow="0"
     inkscape:pageopacity="0"
     inkscape:pagecheckerboard="0"
     inkscape:deskcolor="#d1d1d1" />
  <defs
     id="defs1">
    <style
       id="current-color-scheme"
       type="text/css">&#10;   .ColorScheme-Text { color:#1e3f5a; } .ColorScheme-Highlight { color:#4285f4; }&#10;  </style>
  </defs>
  <path
     style="fill:#bde6fb;fill-opacity:1"
     class="ColorScheme-Text"
     d="M 8.5,5 C 6.5788,5 5,6.5789 5,8.5 5,10.4212 6.5788,12 8.5,12 c 0.8976,0 1.702219,-0.368441 2.324219,-0.931641 l -3.8750002,5.814453 a 1.0001,1.0001 0 0 0 0.2636718,1.376954 l 0.8125,0.5625 a 1.0001,1.0001 0 0 0 1.4003906,-0.267578 l 2.8124998,-4.21875 C 12.105281,14.703938 12,15.088 12,15.5 12,17.421 13.5788,19 15.5,19 17.421,19 19,17.421 19,15.5 19,13.5788 17.421,12 15.5,12 c -0.898,0 -1.702219,0.368441 -2.324219,0.931641 l 3.875,-5.8144535 A 1.0001,1.0001 0 0 0 16.787109,5.7402344 l -0.8125,-0.5625 a 1.0001,1.0001 0 0 0 -1.40039,0.2675781 l -2.8125,4.21875 C 11.894719,9.2957625 12,8.9119 12,8.5 12,6.5789 10.4212,5 8.5,5 Z m 0,2 C 9.364,7 10,7.636 10,8.5 10,9.364 9.364,10 8.5,10 7.636,10 7,9.364 7,8.5 7,7.636 7.636,7 8.5,7 Z m 7,7 C 16.364,14 17,14.636 17,15.5 17,16.364 16.364,17 15.5,17 14.636,17 14,16.364 14,15.5 14,14.636 14.636,14 15.5,14 Z"
     id="path1" />
</svg>
