<?xml version="1.0" encoding="UTF-8" standalone="no"?>
<svg
   width="24"
   height="24"
   viewBox="0 0 24 24"
   version="1.1"
   id="svg1"
   sodipodi:docname="format-list-unordered.svg"
   xmlns:inkscape="http://www.inkscape.org/namespaces/inkscape"
   xmlns:sodipodi="http://sodipodi.sourceforge.net/DTD/sodipodi-0.dtd"
   xmlns="http://www.w3.org/2000/svg"
   xmlns:svg="http://www.w3.org/2000/svg">
  <sodipodi:namedview
     id="namedview1"
     pagecolor="#505050"
     bordercolor="#eeeeee"
     borderopacity="1"
     inkscape:showpageshadow="0"
     inkscape:pageopacity="0"
     inkscape:pagecheckerboard="0"
     inkscape:deskcolor="#d1d1d1" />
  <defs
     id="defs1">
    <style
       id="current-color-scheme"
       type="text/css">&#10;   .ColorScheme-Text { color:#1e3f5a; } .ColorScheme-Highlight { color:#4285f4; }&#10;  </style>
  </defs>
  <path
     style="fill:#bde6fb;fill-opacity:1"
     class="ColorScheme-Text"
     d="M 7.5,6 A 2.5,2.5 0 0 0 5,8.5 2.5,2.5 0 0 0 7.5,11 2.5,2.5 0 0 0 10,8.5 2.5,2.5 0 0 0 7.5,6 Z M 12,6 v 2 h 6 V 6 Z m 0,3 v 2 h 4 V 9 Z M 7.5,14 A 2.5,2.5 0 0 0 5,16.5 2.5,2.5 0 0 0 7.5,19 2.5,2.5 0 0 0 10,16.5 2.5,2.5 0 0 0 7.5,14 Z m 4.5,0 v 2 h 6 v -2 z m 0,3 v 2 h 2 v -2 z m 3,0 v 2 h 3 v -2 z"
     id="path1" />
</svg>
