<?xml version="1.0" encoding="UTF-8" standalone="no"?>
<svg
   width="24"
   height="24"
   viewBox="0 0 24 24"
   version="1.1"
   id="svg1"
   sodipodi:docname="format-convert-to-path.svg"
   xmlns:inkscape="http://www.inkscape.org/namespaces/inkscape"
   xmlns:sodipodi="http://sodipodi.sourceforge.net/DTD/sodipodi-0.dtd"
   xmlns="http://www.w3.org/2000/svg"
   xmlns:svg="http://www.w3.org/2000/svg">
  <sodipodi:namedview
     id="namedview1"
     pagecolor="#505050"
     bordercolor="#eeeeee"
     borderopacity="1"
     inkscape:showpageshadow="0"
     inkscape:pageopacity="0"
     inkscape:pagecheckerboard="0"
     inkscape:deskcolor="#d1d1d1" />
  <defs
     id="defs1">
    <style
       id="current-color-scheme"
       type="text/css">&#10;   .ColorScheme-Text { color:#1e3f5a; } .ColorScheme-Highlight { color:#4285f4; }&#10;  </style>
  </defs>
  <path
     style="fill:#bde6fb;fill-opacity:1"
     class="ColorScheme-Text"
     d="M 8.5,4 C 6.1827,3.99999 5.6464031,6.556 5.5332031,10 H 4 v 4 H 8 V 10 H 6.5488281 C 6.6581181,7.1289 7.07112,5 8.5,5 c 1.696,0 2.613331,2.1158 2.894531,5 H 10 v 4 h 1.650391 c 0.42699,3.4818 1.663609,5.9971 3.849609,6 2.5026,-10e-6 2.687481,-2.5404 2.925781,-6 H 20 v -4 h -4 v 4 h 1.425781 C 17.220351,16.899 17.06687,19 15.5,19 13.8244,18.996 12.989731,16.9207 12.644531,14 H 14 V 10 H 12.386719 C 12.024389,6.556 10.7106,4 8.5,4 Z"
     id="path1" />
</svg>
