<?xml version="1.0" encoding="UTF-8" standalone="no"?>
<svg
   width="24"
   height="24"
   viewBox="0 0 24 24"
   version="1.1"
   id="svg1"
   sodipodi:docname="format-currency.svg"
   xmlns:inkscape="http://www.inkscape.org/namespaces/inkscape"
   xmlns:sodipodi="http://sodipodi.sourceforge.net/DTD/sodipodi-0.dtd"
   xmlns="http://www.w3.org/2000/svg"
   xmlns:svg="http://www.w3.org/2000/svg">
  <sodipodi:namedview
     id="namedview1"
     pagecolor="#505050"
     bordercolor="#eeeeee"
     borderopacity="1"
     inkscape:showpageshadow="0"
     inkscape:pageopacity="0"
     inkscape:pagecheckerboard="0"
     inkscape:deskcolor="#d1d1d1" />
  <defs
     id="defs1">
    <style
       id="current-color-scheme"
       type="text/css">&#10;   .ColorScheme-Text { color:#1e3f5a; } .ColorScheme-Highlight { color:#4285f4; }&#10;  </style>
  </defs>
  <path
     style="fill:#bde6fb;fill-opacity:1"
     class="ColorScheme-Text"
     d="M 10,4.0390625 V 5.171875 c -0.9772,0.1418 -1.8092906,0.3971281 -2.4628906,0.7988281 -1.0105,0.6149 -1.515625,1.5580782 -1.515625,2.8300781 C 6.0168844,10.996081 7.579,11.720719 10,12.386719 v 4.990234 C 8.8273,17.277953 7.7551469,17.056266 6.6230469,16.572266 L 6,17.929688 c 0.56451,0.3013 1.3272625,0.562156 2.2890625,0.785156 C 8.8332625,18.836844 9.4003,18.91475 10,18.96875 v 1.072266 h 1 v -1.023438 c 0.17,0.004 0.314141,0.02148 0.494141,0.02148 0.164,-9.96e-4 0.335859,-0.01348 0.505859,-0.02148 v 1.021484 h 1 v -1.11914 c 1.9967,-0.28485 3.979984,-1.2023 3.958984,-3.6875 C 16.888984,13.402422 15.756,12.724859 13,11.755859 V 6.8027344 c 0.90326,0.12074 2.002109,0.3722818 3.224609,0.9824218 L 17,6.2421875 C 16.449,5.9466875 15.168516,5.4757812 14.353516,5.3007812 13.919516,5.2081812 13.467,5.1451625 13,5.1015625 v -1.0625 h -1 v 1.0136719 c -0.092,-0.0018 -0.178484,-0.013672 -0.271484,-0.013672 -0.257,0 -0.487516,0.020303 -0.728516,0.033203 V 4.0390625 Z M 11.4375,6.6875 c 0.15102,8.281e-4 0.36234,0.00945 0.5625,0.017578 V 11.40625 c -0.157,-0.053 -0.254875,-0.09148 -0.421875,-0.146484 C 11.399125,11.215766 11.193,11.151609 11,11.099609 V 6.703125 c 0.14588,-0.00637 0.29158,-0.013656 0.4375,-0.013672 z M 10,6.7988281 V 10.796875 C 8.773,10.362475 7.6429812,9.7037687 7.6757812,8.6054688 7.6161813,7.5641688 8.6802,7.0146281 10,6.7988281 Z m 1,5.8535159 c 0.18387,0.04679 0.329824,0.09212 0.521484,0.140625 0.16101,0.04582 0.317396,0.09735 0.478516,0.144531 v 4.492188 c -0.14946,0.0031 -0.311392,0.01879 -0.451172,0.01758 C 11.357348,17.445466 11.18416,17.433274 11,17.427734 Z M 13,13.25 c 1.2815,0.44854 2.319675,1.037206 2.296875,2.066406 -0.039,1.395 -1.131875,1.880875 -2.296875,2.046875 z"
     id="path1" />
</svg>
