<?xml version="1.0" encoding="UTF-8" standalone="no"?>
<svg
   width="24"
   height="24"
   viewBox="0 0 24 24"
   version="1.1"
   id="svg1"
   sodipodi:docname="go-next-context.svg"
   xmlns:inkscape="http://www.inkscape.org/namespaces/inkscape"
   xmlns:sodipodi="http://sodipodi.sourceforge.net/DTD/sodipodi-0.dtd"
   xmlns="http://www.w3.org/2000/svg"
   xmlns:svg="http://www.w3.org/2000/svg">
  <sodipodi:namedview
     id="namedview1"
     pagecolor="#505050"
     bordercolor="#eeeeee"
     borderopacity="1"
     inkscape:showpageshadow="0"
     inkscape:pageopacity="0"
     inkscape:pagecheckerboard="0"
     inkscape:deskcolor="#d1d1d1" />
  <defs
     id="defs1">
    <style
       id="current-color-scheme"
       type="text/css">&#10;   .ColorScheme-Text { color:#1e3f5a; } .ColorScheme-Highlight { color:#4285f4; }&#10;  </style>
  </defs>
  <path
     style="fill:#bde6fb;fill-opacity:1"
     class="ColorScheme-Text"
     d="M 4,6 V 18 H 14 L 19.292969,12.707031 20,12 19.292969,11.292969 14,6 Z M 8,8 H 9 V 9 H 8 C 7.44778,9 7,9.44771 7,10 v 1 C 7,11.38251 6.86072,11.73504 6.625,12 6.86072,12.26497 7,12.6175 7,13 v 1 c 0,0.55222 0.44771,1 1,1 h 1 v 1 H 8 C 6.89549,16 6,15.1045 6,14 V 13 C 6,12.72385 5.77614,12.5 5.5,12.5 H 5 v -1 H 5.5 C 5.77614,11.5 6,11.27616 6,11 V 10 C 6,8.89549 6.8955,8 8,8 Z m 2,0 h 1 c 1.10452,0 2,0.8955 2,2 v 1 c 0,0.27616 0.22386,0.5 0.5,0.5 H 14 v 1 H 13.5 C 13.22386,12.5 13,12.72385 13,13 v 1 c 0,1.10452 -0.8955,2 -2,2 h -1 v -1 h 1 c 0.55229,0 1,-0.44778 1,-1 v -1 c 0,-0.3825 0.13928,-0.73503 0.375,-1 C 12.13928,11.73504 12,11.38251 12,11 V 10 C 12,9.44771 11.55222,9 11,9 h -1 z"
     id="path1" />
</svg>
