<?xml version="1.0" encoding="UTF-8" standalone="no"?>
<svg
   width="24"
   height="24"
   viewBox="0 0 24 24"
   version="1.1"
   id="svg1"
   sodipodi:docname="go-previous-context.svg"
   xmlns:inkscape="http://www.inkscape.org/namespaces/inkscape"
   xmlns:sodipodi="http://sodipodi.sourceforge.net/DTD/sodipodi-0.dtd"
   xmlns="http://www.w3.org/2000/svg"
   xmlns:svg="http://www.w3.org/2000/svg">
  <sodipodi:namedview
     id="namedview1"
     pagecolor="#505050"
     bordercolor="#eeeeee"
     borderopacity="1"
     inkscape:showpageshadow="0"
     inkscape:pageopacity="0"
     inkscape:pagecheckerboard="0"
     inkscape:deskcolor="#d1d1d1" />
  <defs
     id="defs1">
    <style
       id="current-color-scheme"
       type="text/css">&#10;   .ColorScheme-Text { color:#1e3f5a; } .ColorScheme-Highlight { color:#4285f4; }&#10;  </style>
  </defs>
  <path
     style="fill:#bde6fb;fill-opacity:1"
     class="ColorScheme-Text"
     d="M 10,6 4.7070312,11.292969 4,12 4.7070312,12.707031 10,18 H 20 V 6 Z m 3,2 h 1 v 1 h -1 c -0.55222,0 -1,0.44771 -1,1 v 1 c 0,0.38251 -0.13928,0.73504 -0.375,1 0.23572,0.26497 0.375,0.6175 0.375,1 v 1 c 0,0.55222 0.44771,1 1,1 h 1 v 1 h -1 c -1.1045,0 -2,-0.89548 -2,-2 v -1 c 0,-0.27615 -0.22386,-0.5 -0.5,-0.5 H 10 v -1 h 0.5 c 0.27614,0 0.5,-0.22384 0.5,-0.5 v -1 c 0,-1.1045 0.89548,-2 2,-2 z m 2,0 h 1 c 1.1045,0 2,0.89549 2,2 v 1 c 0,0.27616 0.22386,0.5 0.5,0.5 H 19 v 1 H 18.5 C 18.22386,12.5 18,12.72385 18,13 v 1 c 0,1.1045 -0.89549,2 -2,2 h -1 v -1 h 1 c 0.55229,0 1,-0.44778 1,-1 v -1 c 0,-0.3825 0.13928,-0.73503 0.375,-1 C 17.13928,11.73504 17,11.38251 17,11 V 10 C 17,9.44771 16.55222,9 16,9 h -1 z"
     id="path1" />
</svg>
