<?xml version="1.0" encoding="UTF-8" standalone="no"?>
<svg
   width="24"
   height="24"
   viewBox="0 0 24 24"
   version="1.1"
   id="svg1"
   sodipodi:docname="grid-rectangular.svg"
   xmlns:inkscape="http://www.inkscape.org/namespaces/inkscape"
   xmlns:sodipodi="http://sodipodi.sourceforge.net/DTD/sodipodi-0.dtd"
   xmlns="http://www.w3.org/2000/svg"
   xmlns:svg="http://www.w3.org/2000/svg">
  <sodipodi:namedview
     id="namedview1"
     pagecolor="#505050"
     bordercolor="#eeeeee"
     borderopacity="1"
     inkscape:showpageshadow="0"
     inkscape:pageopacity="0"
     inkscape:pagecheckerboard="0"
     inkscape:deskcolor="#d1d1d1" />
  <defs
     id="defs1">
    <style
       id="current-color-scheme"
       type="text/css">&#10;   .ColorScheme-Text { color:#1e3f5a; } .ColorScheme-Highlight { color:#4285f4; }&#10;  </style>
  </defs>
  <path
     style="fill:#bde6fb;fill-opacity:1"
     class="ColorScheme-Text"
     d="m 6,5.0039062 v 1 H 5 v 2 H 6 V 11.003906 H 5 v 2 h 1 v 3 H 5 v 2 h 1 v 1 h 2 v -1 h 3 v 1 h 2 v -1 h 3 v 1 h 2 v -1 h 1 v -2 h -1 v -3 h 1 v -2 H 18 V 8.0039062 h 1 v -2 h -1 v -1 h -2 v 1 h -3 v -1 h -2 v 1 H 8 v -1 z m 2,3 h 3 V 11.003906 H 8 Z m 5,0 h 3 V 11.003906 H 13 Z M 8,13.003906 h 3 v 3 H 8 Z m 5,0 h 3 v 3 h -3 z"
     id="path1" />
</svg>
