<?xml version="1.0" encoding="UTF-8" standalone="no"?>
<svg
   width="24"
   height="24"
   viewBox="0 0 24 24"
   version="1.1"
   id="svg1"
   sodipodi:docname="hint.svg"
   xmlns:inkscape="http://www.inkscape.org/namespaces/inkscape"
   xmlns:sodipodi="http://sodipodi.sourceforge.net/DTD/sodipodi-0.dtd"
   xmlns="http://www.w3.org/2000/svg"
   xmlns:svg="http://www.w3.org/2000/svg">
  <sodipodi:namedview
     id="namedview1"
     pagecolor="#505050"
     bordercolor="#eeeeee"
     borderopacity="1"
     inkscape:showpageshadow="0"
     inkscape:pageopacity="0"
     inkscape:pagecheckerboard="0"
     inkscape:deskcolor="#d1d1d1" />
  <defs
     id="defs1">
    <style
       id="current-color-scheme"
       type="text/css">&#10;   .ColorScheme-Text { color:#1e3f5a; } .ColorScheme-Highlight { color:#4285f4; }&#10;  </style>
  </defs>
  <path
     style="fill:#bde6fb;fill-opacity:1"
     class="ColorScheme-Text"
     d="m 16.949219,5.6367188 -1.875,1.875 C 14.462219,7.2932187 13.827481,7.1346125 13.175781,7.0703125 12.785881,7.0248125 12.3925,7.0039063 12,7.0039062 c -1.5508,0.0151 -3.1120906,0.3693657 -4.4628906,1.1347657 -0.5384,0.3506 -1.184675,0.8035656 -1.671875,1.2597656 C 5.0987344,10.148937 4.4427,11.024406 4,12.003906 c 0.65287,1.4399 1.7335687,2.661063 3.0429688,3.539063 l -1.40625,1.40625 1.4140624,1.414062 1.8691407,-1.86914 c 0.6141,0.22 1.2506971,0.378359 1.9042971,0.443359 1.9274,0.218 3.944672,-0.114359 5.638672,-1.068359 0.538,-0.35 1.184875,-0.802766 1.671875,-1.259766 0.766,-0.75 1.422234,-1.625969 1.865234,-2.605469 -0.654,-1.4414 -1.735875,-2.6647685 -3.046875,-3.5429685 L 18.363281,7.0507812 Z M 12,9.0039062 c 0.4529,-0.01 0.88595,0.1061813 1.28125,0.3007813 L 9.3125,13.273438 C 8.9908,12.606737 8.8873187,11.837588 9.1367188,11.117188 9.5059188,9.8877875 10.7125,8.9886063 12,9.0039062 Z m 2.695312,1.7148438 c 0.196,0.397 0.313688,0.832556 0.304688,1.285156 0.052,1.7664 -1.709019,3.290938 -3.449219,2.960938 -0.2993,-0.035 -0.57539,-0.136672 -0.83789,-0.263672 l 1.93164,-1.933594 a 1,1 0 0 0 0.03516,-0.0332 l 0.03711,-0.03516 a 1,1 0 0 0 0.01758,-0.01953 z"
     id="path1" />
</svg>
