<?xml version="1.0" encoding="UTF-8" standalone="no"?>
<svg
   width="24"
   height="24"
   viewBox="0 0 24 24"
   version="1.1"
   id="svg1"
   sodipodi:docname="image-straighten.svg"
   xmlns:inkscape="http://www.inkscape.org/namespaces/inkscape"
   xmlns:sodipodi="http://sodipodi.sourceforge.net/DTD/sodipodi-0.dtd"
   xmlns="http://www.w3.org/2000/svg"
   xmlns:svg="http://www.w3.org/2000/svg">
  <sodipodi:namedview
     id="namedview1"
     pagecolor="#505050"
     bordercolor="#eeeeee"
     borderopacity="1"
     inkscape:showpageshadow="0"
     inkscape:pageopacity="0"
     inkscape:pagecheckerboard="0"
     inkscape:deskcolor="#d1d1d1" />
  <defs
     id="defs1">
    <style
       id="current-color-scheme"
       type="text/css">&#10;   .ColorScheme-Text { color:#1e3f5a; } .ColorScheme-Highlight { color:#4285f4; }&#10;  </style>
  </defs>
  <path
     style="fill:#bde6fb;fill-opacity:1"
     class="ColorScheme-Text"
     d="m 17.029297,5.03125 c -0.095,8.9e-4 -0.15625,0.03125 -0.15625,0.03125 L 5.0625,7.125 C 4.0777,7.29865 4.25,8.28125 4.25,8.28125 L 4.71875,11 H 7.8125 L 8.9375,9.0625 11.375,11 h 2.3125 L 14.59375,9.78125 16.34375,11 H 18.9375 L 18.03125,5.875 c -0.13023,-0.7386 -0.71488,-0.84642 -1,-0.84375 z M 5,12 v 1 h 1 v -1 z m 2,0 v 1 h 1 v -1 z m 2,0 v 1 h 1 v -1 z m 2,0 v 1 h 1 v -1 z m 2,0 v 1 h 1 v -1 z m 2,0 v 1 h 1 v -1 z m 2,0 v 1 h 1 v -1 z m 2,0 v 1 h 1 v -1 z m -13.75,2 0.71875,4.15625 c 0.17364,0.9848 1.15625,0.8125 1.15625,0.8125 L 18.935547,16.875 c 0,0 0.98614,-0.17149 0.8125,-1.15625 L 19.4375,14 h -2 l 0.1875,1.0625 -9.84375,1.75 -0.5,-2.8125 z"
     id="path1" />
</svg>
