<?xml version="1.0" encoding="UTF-8" standalone="no"?>
<svg
   width="24"
   height="24"
   viewBox="0 0 24 24"
   version="1.1"
   id="svg1"
   sodipodi:docname="image-denoise.svg"
   xmlns:inkscape="http://www.inkscape.org/namespaces/inkscape"
   xmlns:sodipodi="http://sodipodi.sourceforge.net/DTD/sodipodi-0.dtd"
   xmlns="http://www.w3.org/2000/svg"
   xmlns:svg="http://www.w3.org/2000/svg">
  <sodipodi:namedview
     id="namedview1"
     pagecolor="#505050"
     bordercolor="#eeeeee"
     borderopacity="1"
     inkscape:showpageshadow="0"
     inkscape:pageopacity="0"
     inkscape:pagecheckerboard="0"
     inkscape:deskcolor="#d1d1d1" />
  <defs
     id="defs1">
    <style
       id="current-color-scheme"
       type="text/css">&#10;   .ColorScheme-Text { color:#1e3f5a; } .ColorScheme-Highlight { color:#4285f4; }&#10;  </style>
  </defs>
  <path
     style="fill:#bde6fb;fill-opacity:1"
     class="ColorScheme-Text"
     d="m 5,5 v 2 h 2 2 v 2 h 2 V 7 5 H 9 7 Z m 6,4 v 2 h 2 2 V 9 h -2 z m 4,0 h 2 V 7 H 15 Z M 15,7 V 5 h -2 v 2 z m -4,4 H 9 v 2 h 2 z M 9,13 H 7 v 2 H 9 Z M 7,13 V 11 H 5 v 2 z M 7,11 H 9 V 9 H 7 Z m 8,2 v 2 h 2 v -2 z m 2,2 v 2 2 h 2 v -2 -2 z m -6,0 v 2 h 2 v -2 z m 2,2 v 2 h 2 v -2 z m -6,0 v 2 h 2 v -2 z"
     id="path1" />
</svg>
