<?xml version="1.0" encoding="UTF-8" standalone="no"?>
<svg
   width="24"
   height="24"
   viewBox="0 0 24 24"
   version="1.1"
   id="svg1"
   sodipodi:docname="image-red-eye.svg"
   xmlns:inkscape="http://www.inkscape.org/namespaces/inkscape"
   xmlns:sodipodi="http://sodipodi.sourceforge.net/DTD/sodipodi-0.dtd"
   xmlns="http://www.w3.org/2000/svg"
   xmlns:svg="http://www.w3.org/2000/svg">
  <sodipodi:namedview
     id="namedview1"
     pagecolor="#505050"
     bordercolor="#eeeeee"
     borderopacity="1"
     inkscape:showpageshadow="0"
     inkscape:pageopacity="0"
     inkscape:pagecheckerboard="0"
     inkscape:deskcolor="#d1d1d1" />
  <defs
     id="defs1">
    <style
       id="current-color-scheme"
       type="text/css">&#10;   .ColorScheme-Text { color:#1e3f5a; } .ColorScheme-Highlight { color:#4285f4; }&#10;  </style>
  </defs>
  <path
     style="fill:#bde6fb;fill-opacity:1"
     class="ColorScheme-Text"
     d="M 6.34375,4.9375 4.9375,6.34375 7.0507812,8.4570312 C 4.8506812,9.9316312 4,12 4,12 c 0,0 2,5.003906 8,5.003906 1.1815,0 2.191172,-0.208484 3.076172,-0.521484 L 17.65625,19.0625 19.0625,17.65625 Z M 12,7.0039062 c -0.5239,0 -1.006403,0.049641 -1.470703,0.1191407 l 1.919922,1.9199219 a 3,3 0 0 1 2.515625,2.5156252 l 3.109375,3.109375 C 19.448219,13.365769 20,12.003906 20,12.003906 c 0,0 -2,-4.9999998 -8,-4.9999998 z M 9.3007812,10.707031 13.296875,14.703125 A 3,3 0 0 1 12,15.003906 a 3,3 0 0 1 -3,-3 3,3 0 0 1 0.3007812,-1.296875 z"
     id="path1" />
</svg>
