<?xml version="1.0" encoding="UTF-8" standalone="no"?>
<svg
   width="24"
   height="24"
   viewBox="0 0 24 24"
   version="1.1"
   id="svg1"
   sodipodi:docname="insert-emoticon.svg"
   xmlns:inkscape="http://www.inkscape.org/namespaces/inkscape"
   xmlns:sodipodi="http://sodipodi.sourceforge.net/DTD/sodipodi-0.dtd"
   xmlns="http://www.w3.org/2000/svg"
   xmlns:svg="http://www.w3.org/2000/svg">
  <sodipodi:namedview
     id="namedview1"
     pagecolor="#505050"
     bordercolor="#eeeeee"
     borderopacity="1"
     inkscape:showpageshadow="0"
     inkscape:pageopacity="0"
     inkscape:pagecheckerboard="0"
     inkscape:deskcolor="#d1d1d1" />
  <defs
     id="defs1">
    <style
       id="current-color-scheme"
       type="text/css">&#10;   .ColorScheme-Text { color:#1e3f5a; } .ColorScheme-Highlight { color:#4285f4; }&#10;  </style>
  </defs>
  <path
     style="fill:#bde6fb;fill-opacity:1"
     class="ColorScheme-Text"
     d="m 12,4.9980469 c -3.866,0 -7,3.134 -7,7.0000001 0,3.866 3.134,7 7,7 3.866,0 7,-3.134 7,-7 C 19,8.1320469 15.866,4.9980469 12,4.9980469 Z M 9,9.0019531 c 0.55407,0 1,0.44945 1,0.9999999 0,0.55064 -0.44593,1 -1,1 -0.55424,0 -1,-0.44936 -1,-1 C 8,9.4514031 8.44576,9.0019531 9,9.0019531 Z m 6,0 c 0.55415,0 1,0.44945 1,0.9999999 0,0.55064 -0.44585,1 -1,1 -0.55407,0 -1,-0.44936 -1,-1 0,-0.5505499 0.44593,-0.9999999 1,-0.9999999 z M 8.0078125,14.001953 h 7.9843755 c -0.94262,1.2568 -2.421188,1.9975 -3.992188,2 -1.571,-0.002 -3.0495875,-0.74317 -3.9921875,-2 z"
     id="path1" />
</svg>
