<?xml version="1.0" encoding="UTF-8" standalone="no"?>
<svg
   width="24"
   height="24"
   viewBox="0 0 24 24"
   version="1.1"
   id="svg1"
   sodipodi:docname="insert-math-expression.svg"
   xmlns:inkscape="http://www.inkscape.org/namespaces/inkscape"
   xmlns:sodipodi="http://sodipodi.sourceforge.net/DTD/sodipodi-0.dtd"
   xmlns="http://www.w3.org/2000/svg"
   xmlns:svg="http://www.w3.org/2000/svg">
  <sodipodi:namedview
     id="namedview1"
     pagecolor="#505050"
     bordercolor="#eeeeee"
     borderopacity="1"
     inkscape:showpageshadow="0"
     inkscape:pageopacity="0"
     inkscape:pagecheckerboard="0"
     inkscape:deskcolor="#d1d1d1" />
  <defs
     id="defs1">
    <style
       id="current-color-scheme"
       type="text/css">&#10;   .ColorScheme-Text { color:#1e3f5a; } .ColorScheme-Highlight { color:#4285f4; }&#10;  </style>
  </defs>
  <path
     style="fill:#bde6fb;fill-opacity:1"
     class="ColorScheme-Text"
     d="m 12,5.9804688 c -0.91677,9.999e-4 -1.810169,0.2930099 -2.3554688,0.96875 -0.54527,0.67574 -0.6990481,1.5034906 -0.7675781,2.4628906 -0.0338,0.47264 -0.043662,0.9944196 -0.039063,1.5683596 H 8 c -0.554,0 -1,0.446 -1,1 0,0.554 0.446,1 1,1 h 0.8886719 c 0.0477,1.3981 0.1112781,3.0426 0.1113281,5 a 1.0001,1.0001 0 1 0 2,0 c -5e-5,-1.9617 -0.05629,-3.6195 -0.101562,-5 H 12 c 0.554,0 1,-0.446 1,-1 0,-0.554 -0.446,-1 -1,-1 h -1.154297 c -0.007,-0.5528 -9.56e-4,-1.0279815 0.02734,-1.4257815 0.0565,-0.79061 0.217095,-1.2120094 0.328125,-1.3496094 0.11103,-0.1376 0.217451,-0.2239494 0.800781,-0.2246093 a 1.0001,1.0001 0 1 0 -0.002,-2 z M 12.707031,14.738281 12,15.445312 13.414063,16.859375 12,18.273438 l 0.707031,0.707031 1.414063,-1.414063 1.414062,1.414063 0.707032,-0.707031 -1.414063,-1.414063 1.414063,-1.414063 -0.707032,-0.707031 -1.414062,1.414063 z"
     id="path1" />
</svg>
