<?xml version="1.0" encoding="UTF-8" standalone="no"?>
<svg
   width="24"
   height="24"
   viewBox="0 0 24 24"
   version="1.1"
   id="svg1"
   sodipodi:docname="kdenlive-show-markers.svg"
   xmlns:inkscape="http://www.inkscape.org/namespaces/inkscape"
   xmlns:sodipodi="http://sodipodi.sourceforge.net/DTD/sodipodi-0.dtd"
   xmlns="http://www.w3.org/2000/svg"
   xmlns:svg="http://www.w3.org/2000/svg">
  <sodipodi:namedview
     id="namedview1"
     pagecolor="#505050"
     bordercolor="#eeeeee"
     borderopacity="1"
     inkscape:showpageshadow="0"
     inkscape:pageopacity="0"
     inkscape:pagecheckerboard="0"
     inkscape:deskcolor="#d1d1d1" />
  <defs
     id="defs1">
    <style
       id="current-color-scheme"
       type="text/css">&#10;   .ColorScheme-Text { color:#1e3f5a; } .ColorScheme-Highlight { color:#4285f4; }&#10;  </style>
  </defs>
  <path
     style="fill:#bde6fb;fill-opacity:1"
     class="ColorScheme-Text"
     d="m 5,5.015625 v 14 h 14 v -14 z m 3.4335938,5.833984 h 2.3242192 c 0.056,0 0.08912,0.02443 0.101562,0.07422 l 2.044922,6.085938 c 0.01245,0.03113 0.0089,0.06248 -0.0098,0.09375 -0.01867,0.03127 -0.0502,0.04687 -0.09375,0.04687 H 10.90625 c -0.01867,0 -0.04152,-0.0069 -0.06641,-0.01953 -0.01867,-0.01867 -0.03089,-0.03971 -0.03711,-0.06445 l -0.4375,-1.40039 H 8.7773438 c -0.056,0.236461 -0.1171004,0.472569 -0.1855469,0.708984 -0.062221,0.230255 -0.121734,0.461184 -0.1777344,0.691406 -0.012133,0.056 -0.048794,0.08399 -0.1113281,0.08399 H 6.5097656 c -0.043554,0 -0.075083,-0.01561 -0.09375,-0.04687 -0.018667,-0.03113 -0.020259,-0.06248 -0.00781,-0.09375 l 1.9238256,-6.085948 c 0.012134,-0.04993 0.045562,-0.07422 0.1015626,-0.07422 z m 1.0917968,1.625 c -0.00622,0.03108 -0.014898,0.06793 -0.027344,0.111329 -0.00623,0.04354 -0.013311,0.08006 -0.019531,0.111328 -0.024887,0.105794 -0.051284,0.209053 -0.076172,0.308593 -0.024888,0.09333 -0.050918,0.182451 -0.082031,0.269532 h 0.00781 c -0.043552,0.180461 -0.083758,0.336129 -0.1210914,0.466797 -0.037333,0.130667 -0.08108,0.286382 -0.1308593,0.466796 H 10.056641 C 10.006861,14.053443 9.9595699,13.897775 9.9160156,13.742188 9.8724613,13.58044 9.8271234,13.424725 9.7773438,13.275391 9.7462309,13.17585 9.7076168,13.070985 9.6640625,12.958984 9.6267289,12.846984 9.5936129,12.738607 9.5625,12.632813 l 0.00977,0.0098 c -0.012446,-0.04345 -0.023076,-0.0701 -0.029297,-0.07617 0,-0.0126 0.00354,-0.01758 0.00977,-0.01758 l -0.00977,-0.0098 c 0,-0.01241 -0.00513,-0.03319 -0.017578,-0.06445 z M 14.679688,15.75 a 0.700005,0.700005 0 0 1 0.701171,0.699219 0.700005,0.700005 0 0 1 -0.701171,0.701172 A 0.700005,0.700005 0 0 1 13.980469,16.449219 0.700005,0.700005 0 0 1 14.679688,15.75 Z m 2.220703,0 a 0.700005,0.700005 0 0 1 0.699218,0.699219 0.700005,0.700005 0 0 1 -0.699218,0.701172 A 0.700005,0.700005 0 0 1 16.199219,16.449219 0.700005,0.700005 0 0 1 16.900391,15.75 Z"
     id="path1" />
</svg>
