<?xml version="1.0" encoding="UTF-8" standalone="no"?>
<svg
   width="24"
   height="24"
   viewBox="0 0 24 24"
   version="1.1"
   id="svg1"
   sodipodi:docname="kdenlive-split-audio.svg"
   xmlns:inkscape="http://www.inkscape.org/namespaces/inkscape"
   xmlns:sodipodi="http://sodipodi.sourceforge.net/DTD/sodipodi-0.dtd"
   xmlns="http://www.w3.org/2000/svg"
   xmlns:svg="http://www.w3.org/2000/svg">
  <sodipodi:namedview
     id="namedview1"
     pagecolor="#505050"
     bordercolor="#eeeeee"
     borderopacity="1"
     inkscape:showpageshadow="0"
     inkscape:pageopacity="0"
     inkscape:pagecheckerboard="0"
     inkscape:deskcolor="#d1d1d1" />
  <defs
     id="defs1">
    <style
       id="current-color-scheme"
       type="text/css">&#10;   .ColorScheme-Text { color:#1e3f5a; } .ColorScheme-Highlight { color:#4285f4; }&#10;  </style>
  </defs>
  <path
     style="fill:#bde6fb;fill-opacity:1"
     class="ColorScheme-Text"
     d="m 17.179688,4 c -0.0904,8.95e-4 -0.148438,0.03125 -0.148438,0.03125 L 5.7792969,6.1054688 C 4.8413269,6.2800287 5.0058594,7.2675781 5.0058594,7.2675781 L 5.4570312,10 H 8.4023438 L 9.4746094,8.0527344 11.796875,10 h 2.201172 L 14.861328,8.7753906 16.529297,10 h 2.46875 L 18.134766,4.8496094 C 18.010726,4.1071494 17.455144,3.9992731 17.183594,4.0019531 Z M 5,11 v 1 h 1 v -1 z m 2,0 v 1 h 1 v -1 z m 2,0 v 1 h 1 v -1 z m 2,0 v 1 h 1 v -1 z m 2,0 v 1 h 1 v -1 z m 2,0 v 1 h 1 v -1 z m 2,0 v 1 h 1 v -1 z m 2,0 v 1 h 1 V 11 Z M 5.0019531,13 v 2.908203 H 7.8183594 L 11.910156,20 v -7 z m 8.9082029,0 v 3 c 1.07,-0.58 1.789063,-1.7 1.789063,-3 z m 4,0 c 0,2.57 -1.68,4.76 -4,5.5 V 20 c 3.15,-0.78 5.5,-3.6 5.5,-7 z"
     id="path1" />
</svg>
