<?xml version="1.0" encoding="UTF-8" standalone="no"?>
<svg
   width="24"
   height="24"
   viewBox="0 0 24 24"
   version="1.1"
   id="svg2"
   sodipodi:docname="kmouth-phresebook-new.svg"
   xmlns:inkscape="http://www.inkscape.org/namespaces/inkscape"
   xmlns:sodipodi="http://sodipodi.sourceforge.net/DTD/sodipodi-0.dtd"
   xmlns="http://www.w3.org/2000/svg"
   xmlns:svg="http://www.w3.org/2000/svg">
  <sodipodi:namedview
     id="namedview2"
     pagecolor="#505050"
     bordercolor="#eeeeee"
     borderopacity="1"
     inkscape:showpageshadow="0"
     inkscape:pageopacity="0"
     inkscape:pagecheckerboard="0"
     inkscape:deskcolor="#d1d1d1" />
  <defs
     id="defs1">
    <style
       id="current-color-scheme"
       type="text/css">&#10;   .ColorScheme-Text { color:#1e3f5a; } .ColorScheme-Highlight { color:#4285f4; }&#10;  </style>
  </defs>
  <path
     style="fill:#bde6fb;fill-opacity:1"
     class="ColorScheme-Text"
     d="M 9.40625,10 C 9.40625,10 8,10.000391 8,11.400391 v 4.199218 C 8,16.374609 8.6363344,17 9.4277344,17 H 13 l 1.5,2 1.5,-2 h 0.572266 C 16.572266,17 18,16.999609 18,15.599609 V 11.400391 C 18,10.000391 16.572266,10 16.572266,10 Z M 13,11 h 1 v 2 h 2 v 1 h -2 v 2 h -1 v -2 h -2 v -1 h 2 z"
     id="path1" />
  <path
     style="opacity:0.3;fill:#bde6fb;fill-opacity:1"
     class="ColorScheme-Text"
     d="M 7.40625,6 C 7.40625,6 6,6.0003906 6,7.4003906 v 4.1992184 c 0,0.6282 0.4207,1.151679 1,1.330079 V 10.400391 C 7,9.0003906 8.40625,9 8.40625,9 h 7.166016 C 15.572266,9 15.768,9.023537 16,9.085937 V 7.4003906 C 16,6.0003906 14.572266,6 14.572266,6 Z"
     id="path2" />
</svg>
