<?xml version="1.0" encoding="UTF-8" standalone="no"?>
<svg
   width="24"
   height="24"
   viewBox="0 0 24 24"
   version="1.1"
   id="svg1"
   sodipodi:docname="kstars_supernovae.svg"
   xmlns:inkscape="http://www.inkscape.org/namespaces/inkscape"
   xmlns:sodipodi="http://sodipodi.sourceforge.net/DTD/sodipodi-0.dtd"
   xmlns="http://www.w3.org/2000/svg"
   xmlns:svg="http://www.w3.org/2000/svg">
  <sodipodi:namedview
     id="namedview1"
     pagecolor="#505050"
     bordercolor="#eeeeee"
     borderopacity="1"
     inkscape:showpageshadow="0"
     inkscape:pageopacity="0"
     inkscape:pagecheckerboard="0"
     inkscape:deskcolor="#d1d1d1" />
  <defs
     id="defs1">
    <style
       id="current-color-scheme"
       type="text/css">&#10;   .ColorScheme-Text { color:#1e3f5a; } .ColorScheme-Highlight { color:#4285f4; }&#10;  </style>
  </defs>
  <path
     style="fill:#bde6fb;fill-opacity:1"
     class="ColorScheme-Text"
     d="m 19.810547,4 c -0.33111,-0.029 -1.331541,0.3367344 -1.681641,0.5527344 -0.78299,0.3652 -2.193628,1.1088594 -3.861328,2.4433594 0.11437,0.081 0.227148,0.171925 0.335938,0.265625 1.5907,-1.174 2.697468,-1.6036719 3.042968,-1.1386719 0.32403,0.4362 -0.254341,1.5080281 -1.363281,2.9238281 a 5.0063,5.4049 0 0 0 -4.875,-2.453125 5.0063,5.4049 0 0 0 -4.3046874,6.068359 5.0063,5.4049 0 0 0 0.3359375,1.345703 c -1.8811,2.430101 -3.8296937,5.197154 -3.3710937,5.814454 0.49605,0.6678 3.2261531,-0.641829 6.1269536,-2.861328 a 5.0063,5.4049 0 0 0 2.53125,0.347656 5.0063,5.4049 0 0 0 4.302734,-6.06836 5.0063,5.4049 0 0 0 -0.230469,-1.035156 c 2.16,-2.8601999 3.584975,-5.5276686 3.109375,-6.1679686 C 19.892043,4.0151094 19.857857,4.004 19.810547,4 Z M 7.6230469,14.431641 a 5.0063,5.4049 0 0 0 1.5273437,1.904297 c -1.4638,1.187599 -2.5406594,1.756828 -2.8808594,1.298828 -0.3375799,-0.4545 0.2035257,-1.586125 1.3535157,-3.203125 z"
     id="path1" />
</svg>
