<?xml version="1.0" encoding="UTF-8" standalone="no"?>
<svg
   width="24"
   height="24"
   viewBox="0 0 24 24"
   version="1.1"
   id="svg1"
   sodipodi:docname="kstars_fitsviewer.svg"
   xmlns:inkscape="http://www.inkscape.org/namespaces/inkscape"
   xmlns:sodipodi="http://sodipodi.sourceforge.net/DTD/sodipodi-0.dtd"
   xmlns="http://www.w3.org/2000/svg"
   xmlns:svg="http://www.w3.org/2000/svg">
  <sodipodi:namedview
     id="namedview1"
     pagecolor="#505050"
     bordercolor="#eeeeee"
     borderopacity="1"
     inkscape:showpageshadow="0"
     inkscape:pageopacity="0"
     inkscape:pagecheckerboard="0"
     inkscape:deskcolor="#d1d1d1" />
  <defs
     id="defs1">
    <style
       id="current-color-scheme"
       type="text/css">&#10;   .ColorScheme-Text { color:#1e3f5a; } .ColorScheme-Highlight { color:#4285f4; }&#10;  </style>
  </defs>
  <path
     style="fill:#bde6fb;fill-opacity:1"
     class="ColorScheme-Text"
     d="M 10,6 C 6.134,6 4,8.679875 4,11.984375 4,15.288975 6.134,17.75 10,17.75 6.7783,17.75 5.1660156,14.738275 5.1660156,11.984375 5.1659901,9.230475 6.7783,6.9960938 10,6.9960938 c 1.4561,0 2.770869,0.4744156 3.792969,1.2285156 C 13.221189,8.0506094 12.6134,7.9606844 12,7.9589844 9.2386,7.9589844 7,9.712 7,11.875 v 0.0098 c 0.00102,0.106 0.00754,0.212759 0.019531,0.318359 0.1929503,3.230296 3.238969,5.798824 6.980469,5.798824 3.866,0 6,-2.741847 6,-6.123047 0,-3.3812998 -2.134,-5.8769529 -6,-5.8769529 3.2217,0 4.833984,3.0573 4.833984,5.8749999 2.6e-5,2.8177 -1.612284,5.101563 -4.833984,5.101563 -1.6725,0 -3.176634,-0.619169 -4.2402344,-1.605469 0.6950204,0.2741 1.4621344,0.416969 2.2402344,0.417969 2.705,0 4.916888,-1.688641 4.992188,-3.806641 H 17 c 0,-0.019 -0.0037,-0.03959 -0.0039,-0.05859 C 16.997494,11.908781 16.9988,11.892 17,11.875 16.9983,11.7414 16.98786,11.607309 16.96875,11.474609 16.66616,8.4086094 13.6652,6 10,6 Z"
     id="path1" />
</svg>
