<?xml version="1.0" encoding="UTF-8" standalone="no"?>
<svg
   width="24"
   height="24"
   viewBox="0 0 24 24"
   version="1.1"
   id="svg1"
   sodipodi:docname="kstars_deepsky.svg"
   xmlns:inkscape="http://www.inkscape.org/namespaces/inkscape"
   xmlns:sodipodi="http://sodipodi.sourceforge.net/DTD/sodipodi-0.dtd"
   xmlns="http://www.w3.org/2000/svg"
   xmlns:svg="http://www.w3.org/2000/svg">
  <sodipodi:namedview
     id="namedview1"
     pagecolor="#505050"
     bordercolor="#eeeeee"
     borderopacity="1"
     inkscape:showpageshadow="0"
     inkscape:pageopacity="0"
     inkscape:pagecheckerboard="0"
     inkscape:deskcolor="#d1d1d1" />
  <defs
     id="defs1">
    <style
       id="current-color-scheme"
       type="text/css">&#10;   .ColorScheme-Text { color:#1e3f5a; } .ColorScheme-Highlight { color:#4285f4; }&#10;  </style>
  </defs>
  <path
     style="fill:#bde6fb;fill-opacity:1"
     class="ColorScheme-Text"
     d="M 10.5,4 A 0.5,0.5 0 0 0 10,4.5 0.5,0.5 0 0 0 10.5,5 0.5,0.5 0 0 0 11,4.5 0.5,0.5 0 0 0 10.5,4 Z m 3,0 A 0.5,0.5 0 0 0 13,4.5 0.5,0.5 0 0 0 13.5,5 0.5,0.5 0 0 0 14,4.5 0.5,0.5 0 0 0 13.5,4 Z m -5,1 A 0.5,0.5 0 0 0 8,5.5 0.5,0.5 0 0 0 8.5,6 0.5,0.5 0 0 0 9,5.5 0.5,0.5 0 0 0 8.5,5 Z m 7,0 A 0.5,0.5 0 0 0 15,5.5 0.5,0.5 0 0 0 15.5,6 0.5,0.5 0 0 0 16,5.5 0.5,0.5 0 0 0 15.5,5 Z m -9,1 A 0.5,0.5 0 0 0 6,6.5 0.5,0.5 0 0 0 6.5,7 0.5,0.5 0 0 0 7,6.5 0.5,0.5 0 0 0 6.5,6 Z m 11,0 A 0.5,0.5 0 0 0 17,6.5 0.5,0.5 0 0 0 17.5,7 0.5,0.5 0 0 0 18,6.5 0.5,0.5 0 0 0 17.5,6 Z M 5.5,8 A 0.5,0.5 0 0 0 5,8.5 0.5,0.5 0 0 0 5.5,9 0.5,0.5 0 0 0 6,8.5 0.5,0.5 0 0 0 5.5,8 Z m 13,0 A 0.5,0.5 0 0 0 18,8.5 0.5,0.5 0 0 0 18.5,9 0.5,0.5 0 0 0 19,8.5 0.5,0.5 0 0 0 18.5,8 Z m -14,2 A 0.5,0.5 0 0 0 4,10.5 0.5,0.5 0 0 0 4.5,11 0.5,0.5 0 0 0 5,10.5 0.5,0.5 0 0 0 4.5,10 Z m 15,0 A 0.5,0.5 0 0 0 19,10.5 0.5,0.5 0 0 0 19.5,11 0.5,0.5 0 0 0 20,10.5 0.5,0.5 0 0 0 19.5,10 Z m -15,3 A 0.5,0.5 0 0 0 4,13.5 0.5,0.5 0 0 0 4.5,14 0.5,0.5 0 0 0 5,13.5 0.5,0.5 0 0 0 4.5,13 Z m 15,0 A 0.5,0.5 0 0 0 19,13.5 0.5,0.5 0 0 0 19.5,14 0.5,0.5 0 0 0 20,13.5 0.5,0.5 0 0 0 19.5,13 Z m -14,2 A 0.5,0.5 0 0 0 5,15.5 0.5,0.5 0 0 0 5.5,16 0.5,0.5 0 0 0 6,15.5 0.5,0.5 0 0 0 5.5,15 Z m 13,0 A 0.5,0.5 0 0 0 18,15.5 0.5,0.5 0 0 0 18.5,16 0.5,0.5 0 0 0 19,15.5 0.5,0.5 0 0 0 18.5,15 Z m -12,2 A 0.5,0.5 0 0 0 6,17.5 0.5,0.5 0 0 0 6.5,18 0.5,0.5 0 0 0 7,17.5 0.5,0.5 0 0 0 6.5,17 Z m 11,0 A 0.5,0.5 0 0 0 17,17.5 0.5,0.5 0 0 0 17.5,18 0.5,0.5 0 0 0 18,17.5 0.5,0.5 0 0 0 17.5,17 Z m -9,1 A 0.5,0.5 0 0 0 8,18.5 0.5,0.5 0 0 0 8.5,19 0.5,0.5 0 0 0 9,18.5 0.5,0.5 0 0 0 8.5,18 Z m 7,0 A 0.5,0.5 0 0 0 15,18.5 0.5,0.5 0 0 0 15.5,19 0.5,0.5 0 0 0 16,18.5 0.5,0.5 0 0 0 15.5,18 Z m -5,1 A 0.5,0.5 0 0 0 10,19.5 0.5,0.5 0 0 0 10.5,20 0.5,0.5 0 0 0 11,19.5 0.5,0.5 0 0 0 10.5,19 Z m 3,0 A 0.5,0.5 0 0 0 13,19.5 0.5,0.5 0 0 0 13.5,20 0.5,0.5 0 0 0 14,19.5 0.5,0.5 0 0 0 13.5,19 Z"
     id="path1" />
</svg>
