<?xml version="1.0" encoding="UTF-8" standalone="no"?>
<svg
   width="24"
   height="24"
   viewBox="0 0 24 24"
   version="1.1"
   id="svg1"
   sodipodi:docname="kstars_indi.svg"
   xmlns:inkscape="http://www.inkscape.org/namespaces/inkscape"
   xmlns:sodipodi="http://sodipodi.sourceforge.net/DTD/sodipodi-0.dtd"
   xmlns="http://www.w3.org/2000/svg"
   xmlns:svg="http://www.w3.org/2000/svg">
  <sodipodi:namedview
     id="namedview1"
     pagecolor="#505050"
     bordercolor="#eeeeee"
     borderopacity="1"
     inkscape:showpageshadow="0"
     inkscape:pageopacity="0"
     inkscape:pagecheckerboard="0"
     inkscape:deskcolor="#d1d1d1" />
  <defs
     id="defs1">
    <style
       id="current-color-scheme"
       type="text/css">&#10;   .ColorScheme-Text { color:#1e3f5a; } .ColorScheme-Highlight { color:#4285f4; }&#10;  </style>
  </defs>
  <path
     style="fill:#bde6fb;fill-opacity:1"
     class="ColorScheme-Text"
     d="M 6,4 8.8125,20 H 14.25 L 18,4 Z M 7.5,6 C 7.77614,6 8,6.2239 8,6.5 8,6.7761 7.77614,7 7.5,7 7.22386,7 7,6.7761 7,6.5 7,6.2239 7.22386,6 7.5,6 Z m 7,0 C 14.77614,6 15,6.2239 15,6.5 15,6.7761 14.77614,7 14.5,7 14.22386,7 14,6.7761 14,6.5 14,6.2239 14.22386,6 14.5,6 Z m -2.595703,2.0019531 c 1.5402,-0.05 2.867412,1.0759157 3.070312,2.6035159 0.21827,1.6429 -0.937028,3.15164 -2.580078,3.36914 -1.6429,0.2183 -3.1516404,-0.936978 -3.3691404,-2.580078 -0.21827,-1.6428998 0.9370281,-3.1516404 2.5800784,-3.3691404 0.09916,-0.013 0.198888,-0.021437 0.298828,-0.023437 z M 13.5,15.001953 c 0.27614,0 0.5,0.2239 0.5,0.5 0,0.2761 -0.22386,0.5 -0.5,0.5 -0.27614,0 -0.5,-0.2239 -0.5,-0.5 0,-0.2761 0.22386,-0.5 0.5,-0.5 z m -3,2 c 0.27614,0 0.5,0.2239 0.5,0.5 0,0.2761 -0.22386,0.5 -0.5,0.5 -0.27614,0 -0.5,-0.2239 -0.5,-0.5 0,-0.2761 0.22386,-0.5 0.5,-0.5 z"
     id="path1" />
</svg>
