<?xml version="1.0" encoding="UTF-8" standalone="no"?>
<svg
   width="24"
   height="24"
   viewBox="0 0 24 24"
   version="1.1"
   id="svg1"
   sodipodi:docname="kstars_satellites.svg"
   xmlns:inkscape="http://www.inkscape.org/namespaces/inkscape"
   xmlns:sodipodi="http://sodipodi.sourceforge.net/DTD/sodipodi-0.dtd"
   xmlns="http://www.w3.org/2000/svg"
   xmlns:svg="http://www.w3.org/2000/svg">
  <sodipodi:namedview
     id="namedview1"
     pagecolor="#505050"
     bordercolor="#eeeeee"
     borderopacity="1"
     inkscape:showpageshadow="0"
     inkscape:pageopacity="0"
     inkscape:pagecheckerboard="0"
     inkscape:deskcolor="#d1d1d1" />
  <defs
     id="defs1">
    <style
       id="current-color-scheme"
       type="text/css">&#10;   .ColorScheme-Text { color:#1e3f5a; } .ColorScheme-Highlight { color:#4285f4; }&#10;  </style>
  </defs>
  <path
     style="fill:#bde6fb;fill-opacity:1"
     class="ColorScheme-Text"
     d="M 15,3.8613281 V 4 l -5.2636719,7.177734 a 4.5,4.5 0 0 1 0.4492189,0.15625 C 9.6642369,11.122884 9.097,11 8.5,11 7.307,11 6.1633125,11.476112 5.3203125,12.320313 a 4.5,4.5 0 0 0 -0.6269531,0.787109 l 2.09375,2.09375 -1.3964844,1.904297 a 3.5,3.5 0 0 0 1.5058594,1.501953 l 1.9023437,-1.394531 2.0957029,2.095703 a 4.5,4.5 0 0 0 0.785157,-0.628906 C 12.523877,17.836687 12.9988,16.693 13,15.5 c 10e-7,-0.5812 -0.119692,-1.132578 -0.320312,-1.642578 a 4.5,4.5 0 0 1 0.144531,0.404297 L 20,8.8613281 Z M 6.9140625,4.0859375 4.0859375,6.9160156 7.7578125,10.585938 10.585938,7.7578125 Z m 9.3281255,9.3281255 -2.828125,2.830078 3.671875,3.671875 2.828124,-2.830078 z M 4.7480469,17.914062 4,19.013672 l 1,1 1.0195312,-0.748047 A 4.5,4.5 0 0 1 4.7480469,17.994141 Z"
     id="path1" />
</svg>
