<?xml version="1.0" encoding="UTF-8" standalone="no"?>
<svg
   width="24"
   height="24"
   viewBox="0 0 24 24"
   version="1.1"
   id="svg1"
   sodipodi:docname="kstars_grid.svg"
   xmlns:inkscape="http://www.inkscape.org/namespaces/inkscape"
   xmlns:sodipodi="http://sodipodi.sourceforge.net/DTD/sodipodi-0.dtd"
   xmlns="http://www.w3.org/2000/svg"
   xmlns:svg="http://www.w3.org/2000/svg">
  <sodipodi:namedview
     id="namedview1"
     pagecolor="#505050"
     bordercolor="#eeeeee"
     borderopacity="1"
     inkscape:showpageshadow="0"
     inkscape:pageopacity="0"
     inkscape:pagecheckerboard="0"
     inkscape:deskcolor="#d1d1d1" />
  <defs
     id="defs1">
    <style
       id="current-color-scheme"
       type="text/css">&#10;   .ColorScheme-Text { color:#1e3f5a; } .ColorScheme-Highlight { color:#4285f4; }&#10;  </style>
  </defs>
  <path
     style="fill:#bde6fb;fill-opacity:1"
     class="ColorScheme-Text"
     d="M 7.5253906,4 10.427734,5.2792969 C 9.9455844,6.2083969 9.3338531,7.0555531 8.6269531,7.8144531 L 4.8183594,4.0195312 H 4.0117187 V 4.96875 L 7.734375,8.6738281 c -0.72083,0.6239 -1.5138,1.16285 -2.375,1.5937499 L 4.5683594,8.4824219 4.0292969,7.2265625 4.015625,10.25 4.2402344,10.755859 C 4.1587724,10.785859 4.08232,10.826469 4,10.855469 v 1.308594 c 0.25343,-0.079 0.4938344,-0.185397 0.7402344,-0.279297 L 6.6757812,16.25 C 5.8141912,16.5847 4.9223,16.864753 4,17.064453 v 1.269531 c 1.0992,-0.2218 2.1576344,-0.551431 3.1777344,-0.957031 L 8.3125,19.939453 H 9.6445312 L 8.2949219,16.892578 c 1.6841,-0.8013 3.2270911,-1.847397 4.5878911,-3.091797 l 3.423828,3.408203 C 15.188341,18.249884 13.974622,19.1899 12.669922,20 h 2.220703 c 0.80623,-0.59 1.564769,-1.238722 2.292969,-1.919922 l 1.867187,1.859375 0.888672,0.0098 0.0059,-0.855469 -1.884765,-1.876953 C 18.746247,16.508797 19.4016,15.771228 20,14.986328 v -2.148437 c -0.82306,1.2604 -1.7697,2.430612 -2.8125,3.507812 L 13.767578,12.9375 c 1.333,-1.3905 2.453594,-2.9837219 3.308594,-4.7324219 l 2.859375,1.2597657 0.0039,-1.3457032 L 17.572266,7.09375 c 0.40526,-0.9881 0.738503,-2.0121719 0.970703,-3.0761719 h -1.269531 c -0.208641,0.8916 -0.490339,1.7529375 -0.830079,2.5859375 L 12.039063,4.6953125 c 0.09049,-0.2264 0.195787,-0.4452344 0.273437,-0.6777344 h -1.316406 c -0.02451,0.066 -0.05831,0.1263063 -0.08398,0.1914063 L 10.431641,4 Z m 4.0292974,1.7753906 4.392578,1.9335938 c -0.79178,1.6093 -1.827788,3.0750216 -3.054688,4.3574216 L 9.5,8.6855469 c 0.81296,-0.867 1.507588,-1.8427563 2.054688,-2.9101563 z m -2.945313,3.7695313 3.398438,3.3828121 c -1.2533,1.1378 -2.6693443,2.096785 -4.2148442,2.833985 L 5.859375,11.394531 c 0.99973,-0.4962 1.9198,-1.120009 2.75,-1.8496091 z"
     id="path1" />
</svg>
