<?xml version="1.0" encoding="UTF-8" standalone="no"?>
<svg
   width="24"
   height="24"
   viewBox="0 0 24 24"
   version="1.1"
   id="svg1"
   sodipodi:docname="kstars_hgrid.svg"
   xmlns:inkscape="http://www.inkscape.org/namespaces/inkscape"
   xmlns:sodipodi="http://sodipodi.sourceforge.net/DTD/sodipodi-0.dtd"
   xmlns="http://www.w3.org/2000/svg"
   xmlns:svg="http://www.w3.org/2000/svg">
  <sodipodi:namedview
     id="namedview1"
     pagecolor="#505050"
     bordercolor="#eeeeee"
     borderopacity="1"
     inkscape:showpageshadow="0"
     inkscape:pageopacity="0"
     inkscape:pagecheckerboard="0"
     inkscape:deskcolor="#d1d1d1" />
  <defs
     id="defs1">
    <style
       id="current-color-scheme"
       type="text/css">&#10;   .ColorScheme-Text { color:#1e3f5a; } .ColorScheme-Highlight { color:#4285f4; }&#10;  </style>
  </defs>
  <path
     style="fill:#bde6fb;fill-opacity:1"
     class="ColorScheme-Text"
     d="M 8.0292969,4 7.3261719,5.8085938 C 6.1832719,5.4646938 5.0671,5.0049281 4,4.4238281 V 5.8125 c 0.9327,0.465 1.8919,0.8576031 2.875,1.1582031 L 5.3808594,10.816406 C 4.9115594,10.602406 4.4531,10.357509 4,10.099609 v 1.408204 c 0.30873,0.159079 0.6167906,0.32102 0.9316406,0.46289 L 4,14.369141 v 3.417968 l 0.054687,-0.140625 c 2.3068,1.1254 4.7957406,1.744588 7.3066405,1.867188 L 11.363281,20 h 1.236328 V 19.535156 C 15.129609,19.494156 17.651,18.947625 20,17.890625 V 14.1875 L 19.310547,12.40625 C 19.544547,12.31725 19.768,12.201516 20,12.103516 V 10.757813 C 19.623,10.930813 19.246375,11.104 18.859375,11.25 L 17.263672,7.1425781 C 18.193672,6.8929781 19.109,6.5703344 20,6.1777344 V 4.8046875 c -1.03,0.4952 -2.094547,0.8937344 -3.185547,1.1777344 L 16.042969,4 h -1.337891 l 0.878906,2.2558594 c -0.994,0.1837 -1.999812,0.2801156 -3.007812,0.2910156 L 12.570313,4 h -1.248047 l 0.0078,2.5175781 C 10.393278,6.4611781 9.4588625,6.3351062 8.5390625,6.1289062 L 9.3671875,4 Z m 0.054687,3.2949219 c 1.0695,0.25028 2.1564471,0.4002675 3.2480471,0.4609375 l 0.01172,4.5859376 c -1.6363,-0.122 -3.2581531,-0.470781 -4.8144531,-1.050781 z m 7.9570311,0.1347656 1.642578,4.2187505 c -1.660699,0.49689 -3.378356,0.748637 -5.097656,0.742187 l -0.0078,-4.6054688 c 1.161,-0.012105 2.319891,-0.1294887 3.46289,-0.3554687 z M 6.0800776,12.445313 c 1.7021,0.634169 3.4769782,1.011465 5.2675784,1.134765 l 0.01172,4.695313 c -2.3574003,-0.124 -4.6888097,-0.724875 -6.8496097,-1.796875 z m 12.0546874,0.359375 1.511719,3.878906 c -2.2333,1.0345 -4.636981,1.573134 -7.050781,1.615234 l -0.0078,-4.671875 c 1.8714,0.0056 3.741575,-0.272235 5.546875,-0.822265 z"
     id="path1" />
</svg>
