<?xml version="1.0" encoding="UTF-8" standalone="no"?>
<svg
   width="24"
   height="24"
   viewBox="0 0 24 24"
   version="1.1"
   id="svg1"
   sodipodi:docname="kstars_cnames.svg"
   xmlns:inkscape="http://www.inkscape.org/namespaces/inkscape"
   xmlns:sodipodi="http://sodipodi.sourceforge.net/DTD/sodipodi-0.dtd"
   xmlns="http://www.w3.org/2000/svg"
   xmlns:svg="http://www.w3.org/2000/svg">
  <sodipodi:namedview
     id="namedview1"
     pagecolor="#505050"
     bordercolor="#eeeeee"
     borderopacity="1"
     inkscape:showpageshadow="0"
     inkscape:pageopacity="0"
     inkscape:pagecheckerboard="0"
     inkscape:deskcolor="#d1d1d1" />
  <defs
     id="defs1">
    <style
       id="current-color-scheme"
       type="text/css">&#10;   .ColorScheme-Text { color:#1e3f5a; } .ColorScheme-Highlight { color:#4285f4; }&#10;  </style>
  </defs>
  <path
     style="fill:#bde6fb;fill-opacity:1"
     class="ColorScheme-Text"
     d="M 7.9003906,4 C 5.1389906,4 4,6.2386 4,9 v 6 c 0,2.7614 1.1389906,5 3.9003906,5 C 10.661791,20 11.5,17.7614 11.5,15 V 9 C 11.5,6.2386 10.661811,4 7.9003906,4 Z m 0,1 C 10.109491,5 10.5,6.7909 10.5,9 v 6 c 0,2.2091 -0.390479,4 -2.5996094,4 C 5.6912606,19 5,17.2091 5,15 V 9 C 5,6.7909 5.6912406,5 7.9003906,5 Z M 19,8 v 1 h 1 V 8 Z m -6,3 v 9 h 1 v -6 c 0,-1.1046 0.89543,-2 2,-2 1.10457,0 1,0.8954 1,2 h 1 c 0,-1.6569 -0.34315,-3 -2,-3 -0.73841,10e-4 -1.4505,0.274278 -2,0.767578 V 11 Z m 6,0 v 9 h 1 v -9 z"
     id="path1" />
</svg>
