<?xml version="1.0" encoding="UTF-8" standalone="no"?>
<svg
   width="24"
   height="24"
   viewBox="0 0 24 24"
   version="1.1"
   id="svg2"
   sodipodi:docname="kstars_horizon.svg"
   xmlns:inkscape="http://www.inkscape.org/namespaces/inkscape"
   xmlns:sodipodi="http://sodipodi.sourceforge.net/DTD/sodipodi-0.dtd"
   xmlns="http://www.w3.org/2000/svg"
   xmlns:svg="http://www.w3.org/2000/svg">
  <sodipodi:namedview
     id="namedview2"
     pagecolor="#505050"
     bordercolor="#eeeeee"
     borderopacity="1"
     inkscape:showpageshadow="0"
     inkscape:pageopacity="0"
     inkscape:pagecheckerboard="0"
     inkscape:deskcolor="#d1d1d1" />
  <defs
     id="defs1">
    <style
       id="current-color-scheme"
       type="text/css">&#10;   .ColorScheme-Text { color:#1e3f5a; } .ColorScheme-Highlight { color:#4285f4; }&#10;  </style>
  </defs>
  <path
     style="fill:#bde6fb;fill-opacity:1"
     class="ColorScheme-Text"
     d="m 12,4 a 8,8 0 0 0 -8,8 8,8 0 0 0 8,8 8,8 0 0 0 8,-8 8,8 0 0 0 -8,-8 z m 0,1 a 7,7 0 0 1 7,7 7,7 0 0 1 -7,7 7,7 0 0 1 -7,-7 7,7 0 0 1 7,-7 z"
     id="path1" />
  <path
     style="opacity:0.3;fill:#bde6fb;fill-opacity:1"
     class="ColorScheme-Text"
     d="m 4.0351562,11.263672 c -0.0022,0.02338 -0.00191,0.04691 -0.00391,0.07031 a 8,8 0 0 1 0.00781,-0.05859 c -9.666e-4,-0.0039 -0.00298,-0.0078 -0.00391,-0.01172 z M 5.015625,12.443359 A 7,7 0 0 0 12,19 7,7 0 0 0 18.976562,12.453125 C 17.602563,13.378125 14.987,14 12,14 9.003,13.999 6.383825,13.373359 5.015625,12.443359 Z M 19.964844,12.6875 a 8,8 0 0 1 -0.05469,0.453125 c 0.02153,-0.1504 0.04164,-0.300155 0.05469,-0.453125 z M 4.0410156,12.818359 a 8,8 0 0 0 0.1855469,1.033204 C 4.1460929,13.513554 4.0769014,13.17172 4.0410156,12.818359 Z m 0.1855469,1.033204 c 0.022337,0.09383 0.044698,0.186784 0.070312,0.279296 a 8,8 0 0 1 -0.070312,-0.279296 z m 0.070312,0.279296 a 8,8 0 0 0 0.3320312,0.982422 C 4.4951765,14.797125 4.3896733,14.466016 4.296875,14.130859 Z m 15.564453,-0.679687 a 8,8 0 0 1 -0.105469,0.482422 c 0.03963,-0.15932 0.07555,-0.319482 0.105469,-0.482422 z m -0.183594,0.783203 a 8,8 0 0 1 -0.152343,0.458984 c 0.05427,-0.15155 0.107113,-0.303364 0.152343,-0.458984 z m -0.259765,0.75 a 8,8 0 0 1 -0.208985,0.466797 c 0.07373,-0.15366 0.144975,-0.307877 0.208985,-0.466797 z M 4.6308594,15.115234 c 0.10393,0.24548 0.2186931,0.484567 0.3457031,0.716797 A 8,8 0 0 1 4.6308594,15.115234 Z M 19.09375,15.689453 a 8,8 0 0 1 -0.240234,0.421875 c 0.0833,-0.13853 0.165254,-0.278045 0.240234,-0.421875 z M 5.0800781,16 c 0.095218,0.16432 0.190565,0.329678 0.296875,0.486328 A 8,8 0 0 1 5.0800781,16 Z m 13.5976559,0.398438 a 8,8 0 0 1 -0.232422,0.326171 c 0.07915,-0.10778 0.158642,-0.214372 0.232422,-0.326171 z m -13.0624996,0.40625 a 8,8 0 0 0 0.2382812,0.310546 C 5.7701356,17.015154 5.6956815,16.908817 5.6171875,16.804688 Z M 18.216797,17.03125 a 8,8 0 0 1 -0.269531,0.304688 c 0.09059,-0.100881 0.184101,-0.199278 0.269531,-0.304688 z M 6.1210938,17.412109 c 0.085777,0.09312 0.1697056,0.188394 0.2597656,0.277344 A 8,8 0 0 1 6.1210938,17.412109 Z m 11.5683592,0.207032 a 8,8 0 0 1 -0.277344,0.259765 c 0.09312,-0.08578 0.188394,-0.169715 0.277344,-0.259765 z M 6.6640625,17.947266 c 0.10088,0.09059 0.1992775,0.184101 0.3046875,0.269531 A 8,8 0 0 1 6.6640625,17.947266 Z m 10.4511715,0.201172 a 8,8 0 0 1 -0.310546,0.236328 c 0.104129,-0.0785 0.210466,-0.152949 0.310546,-0.236328 z m -9.8398434,0.296874 c 0.10778,0.07915 0.2143719,0.158642 0.3261719,0.232422 A 8,8 0 0 1 7.2753906,18.445312 Z m 9.2109374,0.177735 A 8,8 0 0 1 16,18.919922 c 0.16432,-0.09522 0.329678,-0.190565 0.486328,-0.296875 z m -8.5976561,0.230469 c 0.13853,0.0833 0.278045,0.165254 0.421875,0.240234 a 8,8 0 0 1 -0.421875,-0.240234 z m 0.6601562,0.355468 c 0.15366,0.07373 0.3078769,0.144975 0.4667969,0.208985 A 8,8 0 0 1 8.5488281,19.208984 Z m 6.5644529,0.16211 c -0.314767,0.133142 -0.642954,0.237502 -0.976562,0.330078 a 8,8 0 0 0 0.976562,-0.330078 z m -0.976562,0.330078 a 8,8 0 0 1 -0.285156,0.07422 c 0.09598,-0.02283 0.190551,-0.04797 0.285156,-0.07422 z m -0.285156,0.07422 c -0.337389,0.08023 -0.680524,0.147775 -1.033204,0.183593 a 8,8 0 0 0 1.033204,-0.183593 z m -4.5449224,-0.25 c 0.15155,0.05427 0.3033644,0.107113 0.4589844,0.152343 A 8,8 0 0 1 9.3066406,19.525391 Z m 0.7597654,0.230468 v 0.002 a 8,8 0 0 0 0.482422,0.103516 c -0.16294,-0.02992 -0.323102,-0.06584 -0.482422,-0.105469 z m 0.792969,0.154297 c 0.1504,0.02153 0.300155,0.04164 0.453125,0.05469 a 8,8 0 0 1 -0.453125,-0.05469 z"
     id="path2" />
</svg>
