<?xml version="1.0" encoding="UTF-8" standalone="no"?>
<svg
   width="24"
   height="24"
   viewBox="0 0 24 24"
   version="1.1"
   id="svg1"
   sodipodi:docname="kstars_ekos.svg"
   xmlns:inkscape="http://www.inkscape.org/namespaces/inkscape"
   xmlns:sodipodi="http://sodipodi.sourceforge.net/DTD/sodipodi-0.dtd"
   xmlns="http://www.w3.org/2000/svg"
   xmlns:svg="http://www.w3.org/2000/svg">
  <sodipodi:namedview
     id="namedview1"
     pagecolor="#505050"
     bordercolor="#eeeeee"
     borderopacity="1"
     inkscape:showpageshadow="0"
     inkscape:pageopacity="0"
     inkscape:pagecheckerboard="0"
     inkscape:deskcolor="#d1d1d1" />
  <defs
     id="defs1">
    <style
       id="current-color-scheme"
       type="text/css">&#10;   .ColorScheme-Text { color:#1e3f5a; } .ColorScheme-Highlight { color:#4285f4; }&#10;  </style>
  </defs>
  <path
     style="fill:#bde6fb;fill-opacity:1"
     class="ColorScheme-Text"
     d="M 12,3.9042969 V 4 a 7,6 0 0 0 -0.919922,0.058594 7,6 0 0 0 -0.162109,0.017578 h -0.0039 A 7,6 0 0 0 5,9.9765625 v 7.9999995 a 7,2 0 0 0 7,2 7,2 0 0 0 7,-2 V 9.9765625 A 7,6 0 0 0 14.685547,4.4414062 h -0.002 A 7,6 0 0 0 14.630859,4.4238281 7,6 0 0 0 14.240234,4.3046875 7,6 0 0 0 13.958984,4.2246094 7,6 0 0 0 13.578125,4.1425781 7,6 0 0 0 13.275391,4.0839844 7,6 0 0 0 12.904297,4.0390625 7,6 0 0 0 12.576172,4.0039062 7,6 0 0 0 12,3.9042969 Z m 2.115234,1.421875 A 6,5 0 0 1 18,10.025391 a 6,2 0 0 1 -6,2 6,2 0 0 1 -6,-2 6,5 0 0 1 3.7519531,-4.6328129 c -1.0237,1.4859 -1.5613375,3.4269125 -1.7109375,5.1328129 A 6,2 0 0 0 12,11.025391 C 12.29858,8.5300906 13.192834,6.7807625 14.115234,5.3515625 Z M 6,11.525391 a 7,3 0 0 0 6,1.46289 7,3 0 0 0 6,-1.460937 v 6.460937 a 6,1 0 0 1 -6,1 6,1 0 0 1 -6,-1 z"
     id="path1" />
</svg>
