<?xml version="1.0" encoding="UTF-8" standalone="no"?>
<svg
   width="24"
   height="24"
   viewBox="0 0 24 24"
   version="1.1"
   id="svg1"
   sodipodi:docname="kstars_solarsystem.svg"
   xmlns:inkscape="http://www.inkscape.org/namespaces/inkscape"
   xmlns:sodipodi="http://sodipodi.sourceforge.net/DTD/sodipodi-0.dtd"
   xmlns="http://www.w3.org/2000/svg"
   xmlns:svg="http://www.w3.org/2000/svg">
  <sodipodi:namedview
     id="namedview1"
     pagecolor="#505050"
     bordercolor="#eeeeee"
     borderopacity="1"
     inkscape:showpageshadow="0"
     inkscape:pageopacity="0"
     inkscape:pagecheckerboard="0"
     inkscape:deskcolor="#d1d1d1" />
  <defs
     id="defs1">
    <style
       id="current-color-scheme"
       type="text/css">&#10;   .ColorScheme-Text { color:#1e3f5a; } .ColorScheme-Highlight { color:#4285f4; }&#10;  </style>
  </defs>
  <path
     style="fill:#bde6fb;fill-opacity:1"
     class="ColorScheme-Text"
     d="M 12,3.9492188 V 4 A 8,8 0 0 0 4,12 8,8 0 0 0 5.3847656,16.498047 1.5,1.5 0 0 0 5.2011719,16.75 1.5,1.5 0 0 0 5.75,18.75 1.5,1.5 0 0 0 7.5078125,18.550781 8,8 0 0 0 12,19.949219 a 8,8 0 0 0 8,-8 8,8 0 0 0 -8,-8.0000002 z M 12,5 a 7,7 0 0 1 7,7 7,7 0 0 1 -7,7 A 7,7 0 0 1 7.9824219,17.728516 1.5,1.5 0 0 0 7.25,16.228516 1.5,1.5 0 0 0 6.2773438,16.029297 7,7 0 0 1 5,12.029297 7,7 0 0 1 12,5.0292969 Z m 0,2 a 5,5 0 0 0 -5,5 5,5 0 0 0 5,5 5,5 0 0 0 3.072266,-1.0625 A 1.5,1.5 0 0 0 16.798828,15.25 1.5,1.5 0 0 0 16.720703,13.630859 5,5 0 0 0 17,12 5,5 0 0 0 12,7 Z m 0,1 a 4,4 0 0 1 4,4 4,4 0 0 1 -0.142578,1.042969 1.5,1.5 0 0 0 -1.65625,0.707031 1.5,1.5 0 0 0 0.03711,1.560547 A 4,4 0 0 1 12,16.009766 a 4,4 0 0 1 -4,-4 4,4 0 0 1 4,-4.0000004 z m 0,2 a 2,2 0 0 0 -2,2 2,2 0 0 0 2,2 2,2 0 0 0 2,-2 2,2 0 0 0 -2,-2 z"
     id="path1" />
</svg>
