<?xml version="1.0" encoding="UTF-8" standalone="no"?>
<svg
   width="24"
   height="24"
   viewBox="0 0 24 24"
   version="1.1"
   id="svg1"
   sodipodi:docname="kstars_cbound.svg"
   xmlns:inkscape="http://www.inkscape.org/namespaces/inkscape"
   xmlns:sodipodi="http://sodipodi.sourceforge.net/DTD/sodipodi-0.dtd"
   xmlns="http://www.w3.org/2000/svg"
   xmlns:svg="http://www.w3.org/2000/svg">
  <sodipodi:namedview
     id="namedview1"
     pagecolor="#505050"
     bordercolor="#eeeeee"
     borderopacity="1"
     inkscape:showpageshadow="0"
     inkscape:pageopacity="0"
     inkscape:pagecheckerboard="0"
     inkscape:deskcolor="#d1d1d1" />
  <defs
     id="defs1">
    <style
       id="current-color-scheme"
       type="text/css">&#10;   .ColorScheme-Text { color:#1e3f5a; } .ColorScheme-Highlight { color:#4285f4; }&#10;  </style>
  </defs>
  <path
     style="fill:#bde6fb;fill-opacity:1"
     class="ColorScheme-Text"
     d="M 9,3.7871094 V 4 A 5,5 0 0 1 8.9160156,4.8847656 5,5 0 0 1 8.8046875,5.3691406 5,5 0 0 1 8.6425781,5.84375 5,5 0 0 1 6.0449219,8.5507812 5,5 0 0 1 5.5898438,8.7304688 a 5,5 0 0 1 -0.00977,0 5,5 0 0 1 -0.011719,0 5,5 0 0 1 -0.4550782,0.1269531 5,5 0 0 1 -0.015625,0 A 5,5 0 0 1 4,8.9570312 v 1 A 6,6 0 0 0 5.4140625,9.78125 l 0.9511719,2.851563 C 5.5994344,12.732813 4.804,12.933594 4,12.933594 v 0.662109 c 1.6837,10e-5 3.3324812,-0.4143 4.8007812,-1.1875 l 0.6699219,1.052735 0.5371099,0.841796 a 12,12 0 0 0 0.84375,-0.535156 l -0.0039,-0.0098 C 12.921556,12.311213 14.541,10.218619 15.375,7.6992188 L 17.529297,8.3144531 18.269531,8.5625 C 18.744351,7.0872 18.99749,5.4819344 19,3.9277344 h -1 c -0.0037,1.1164 -0.154551,2.262275 -0.425781,3.359375 L 9.8808594,5.0878906 A 6,6 0 0 0 10,3.7871094 Z m 0.609375,2.3359375 4.808594,1.375 C 13.653439,9.7774469 12.1874,11.673334 10.3125,12.990234 L 9.6640625,11.970703 9.2402344,11.302734 a 9,9 0 0 1 -0.6992188,0.451172 c -0.39465,0.2321 -0.8076087,0.42455 -1.2304687,0.59375 L 6.3652344,9.5117188 A 6,6 0 0 0 9.609375,6.1230469 Z m 3.513672,5.6660161 a 12,12 0 0 1 -0.681641,0.732421 l 1.451172,1.347657 C 11.278578,16.492141 7.7303,17.9969 4,18 v 1 c 4.0072,-0.01 7.816388,-1.631584 10.617188,-4.458984 l 2.208984,2.052734 A 18,18 0 0 1 12.189453,20 h 2.019531 a 19,19 0 0 0 3.345704,-2.728516 l 0.0098,0.0098 a 19,19 0 0 0 0.681641,-0.732422 h -0.0059 A 19,19 0 0 0 20,14.25 v -2.039062 a 18,18 0 0 1 -2.507812,3.640624 L 15.3125,13.826172 14.585938,13.152344 13.123047,11.792969 Z"
     id="path1" />
</svg>
