<?xml version="1.0" encoding="UTF-8" standalone="no"?>
<svg
   width="24"
   height="24"
   viewBox="0 0 24 24"
   version="1.1"
   id="svg1"
   sodipodi:docname="labplot-xy-fit-curve.svg"
   xmlns:inkscape="http://www.inkscape.org/namespaces/inkscape"
   xmlns:sodipodi="http://sodipodi.sourceforge.net/DTD/sodipodi-0.dtd"
   xmlns="http://www.w3.org/2000/svg"
   xmlns:svg="http://www.w3.org/2000/svg">
  <sodipodi:namedview
     id="namedview1"
     pagecolor="#505050"
     bordercolor="#eeeeee"
     borderopacity="1"
     inkscape:showpageshadow="0"
     inkscape:pageopacity="0"
     inkscape:pagecheckerboard="0"
     inkscape:deskcolor="#d1d1d1" />
  <defs
     id="defs1">
    <style
       id="current-color-scheme"
       type="text/css">&#10;   .ColorScheme-Text { color:#1e3f5a; } .ColorScheme-Highlight { color:#4285f4; }&#10;  </style>
  </defs>
  <path
     style="fill:#bde6fb;fill-opacity:1"
     class="ColorScheme-Text"
     d="m 17.519531,6.0039062 c -0.8178,0 -1.525437,0.7232575 -1.523437,1.5234376 -0.002,0.80023 0.705677,1.4765624 1.523437,1.4765624 0.81779,0 1.478463,-0.6762925 1.476563,-1.4765624 0.002,-0.80022 -0.658733,-1.5234376 -1.476563,-1.5234376 z m -7,1 c -0.8177998,0 -1.5254372,0.7232575 -1.5234372,1.5234376 -0.002,0.80023 0.7056774,1.4765622 1.5234372,1.4765622 0.81779,0 1.478463,-0.6762923 1.476563,-1.4765622 0.002,-0.80022 -0.658733,-1.5234376 -1.476563,-1.5234376 z M 5.5195312,11.003906 c -0.8178,0 -1.5254374,0.723258 -1.5234374,1.523438 -0.002,0.80023 0.7056774,1.476562 1.5234374,1.476562 0.64748,0 1.1911251,-0.42615 1.390625,-1 H 19.996094 v -1 H 6.8964844 c -0.21058,-0.56611 -0.7444432,-1 -1.3769532,-1 z m 12.9999998,3 c -0.8178,0 -1.525437,0.723258 -1.523437,1.523438 -0.002,0.80023 0.705677,1.476562 1.523437,1.476562 0.81779,0 1.478463,-0.676292 1.476563,-1.476562 0.002,-0.80022 -0.658733,-1.523438 -1.476563,-1.523438 z m -5.5,1 c -0.8178,0 -1.525437,0.723258 -1.523437,1.523438 -0.002,0.80023 0.705677,1.476562 1.523437,1.476562 0.81779,0 1.478463,-0.676292 1.476563,-1.476562 0.002,-0.80022 -0.658733,-1.523438 -1.476563,-1.523438 z"
     id="path1" />
</svg>
