<?xml version="1.0" encoding="UTF-8" standalone="no"?>
<svg
   width="24"
   height="24"
   viewBox="0 0 24 24"
   version="1.1"
   id="svg1"
   sodipodi:docname="labplot-xy-curve.svg"
   xmlns:inkscape="http://www.inkscape.org/namespaces/inkscape"
   xmlns:sodipodi="http://sodipodi.sourceforge.net/DTD/sodipodi-0.dtd"
   xmlns="http://www.w3.org/2000/svg"
   xmlns:svg="http://www.w3.org/2000/svg">
  <sodipodi:namedview
     id="namedview1"
     pagecolor="#505050"
     bordercolor="#eeeeee"
     borderopacity="1"
     inkscape:showpageshadow="0"
     inkscape:pageopacity="0"
     inkscape:pagecheckerboard="0"
     inkscape:deskcolor="#d1d1d1" />
  <defs
     id="defs1">
    <style
       id="current-color-scheme"
       type="text/css">&#10;   .ColorScheme-Text { color:#1e3f5a; } .ColorScheme-Highlight { color:#4285f4; }&#10;  </style>
  </defs>
  <path
     style="fill:#bde6fb;fill-opacity:1"
     class="ColorScheme-Text"
     d="m 17.779297,6.9746094 -0.03125,0.056641 c -0.0743,-0.0124 -0.149053,-0.025391 -0.226563,-0.025391 -0.8178,0 -1.525437,0.7232575 -1.523437,1.5234375 -9e-4,0.35866 0.146633,0.6880456 0.376953,0.9472656 L 13.253906,15.03125 c -0.0761,-0.0131 -0.152932,-0.02539 -0.232422,-0.02539 -0.0133,0 -0.02586,0.0039 -0.03906,0.0039 l -1.542968,-4.333979 c 0.3393,-0.27333 0.559694,-0.6875341 0.558594,-1.1464841 0.002,-0.80022 -0.658733,-1.5234375 -1.476563,-1.5234375 -0.8177996,0 -1.5254371,0.7232575 -1.5234371,1.5234375 -1.5e-4,0.058 0.010478,0.1134318 0.017578,0.1699219 L 6.5351562,10.939453 c -0.26449,-0.26356 -0.6194918,-0.433594 -1.0136718,-0.433594 -0.8178,0 -1.5254375,0.723258 -1.5234375,1.523438 -0.002,0.80023 0.7056775,1.476562 1.5234375,1.476562 0.81779,0 1.4784625,-0.676292 1.4765625,-1.476562 1.8e-4,-0.0735 -0.010884,-0.145077 -0.021484,-0.216797 l 2.4824219,-1.240234 c 0.27487,0.26288 0.6464546,0.42733 1.0468746,0.43164 l 1.5625,4.367188 c -0.34226,0.2863 -0.571392,0.707363 -0.570312,1.158203 -0.002,0.80023 0.705677,1.476562 1.523437,1.476562 0.81779,0 1.478463,-0.676292 1.476563,-1.476562 9.2e-4,-0.36959 -0.145043,-0.719198 -0.376953,-0.992188 l 3.095703,-5.5 0.589844,4.169922 c -0.4729,0.26781 -0.809914,0.773416 -0.808594,1.322266 -0.002,0.80023 0.705677,1.476562 1.523437,1.476562 0.81779,0 1.478463,-0.676292 1.476563,-1.476562 0.002,-0.70802 -0.515612,-1.352388 -1.201172,-1.492188 L 18.197266,9.8339844 c 0.47546,-0.24905 0.802131,-0.7438275 0.800781,-1.3046875 0.002,-0.71067 -0.519605,-1.3576407 -1.208985,-1.4941407 z"
     id="path1" />
</svg>
