<?xml version="1.0" encoding="UTF-8" standalone="no"?>
<svg
   width="24"
   height="24"
   viewBox="0 0 24 24"
   version="1.1"
   id="svg1"
   sodipodi:docname="labplot-xy-plot-four-axes.svg"
   xmlns:inkscape="http://www.inkscape.org/namespaces/inkscape"
   xmlns:sodipodi="http://sodipodi.sourceforge.net/DTD/sodipodi-0.dtd"
   xmlns="http://www.w3.org/2000/svg"
   xmlns:svg="http://www.w3.org/2000/svg">
  <sodipodi:namedview
     id="namedview1"
     pagecolor="#505050"
     bordercolor="#eeeeee"
     borderopacity="1"
     inkscape:showpageshadow="0"
     inkscape:pageopacity="0"
     inkscape:pagecheckerboard="0"
     inkscape:deskcolor="#d1d1d1" />
  <defs
     id="defs1">
    <style
       id="current-color-scheme"
       type="text/css">&#10;   .ColorScheme-Text { color:#1e3f5a; } .ColorScheme-Highlight { color:#4285f4; }&#10;  </style>
  </defs>
  <path
     style="fill:#bde6fb;fill-opacity:1"
     class="ColorScheme-Text"
     d="M 4,4 V 20 H 20 V 4 H 5 Z M 5,5 H 17.71875 L 17.25,5.46875 16.4375,6.28125 15.125,7.59375 13,5.46875 11.46875,7 11,7.46875 10.15625,8.28125 8.46875,10 H 5 Z m 14,0.125 v 13.71875 l -0.28125,-0.28125 -0.75,-0.75 L 17.125,17 15.84375,15.6875 15.125,15 13,17.09375 11.6875,15.8125 10.875,15 l -2,-2 H 5 v -2 h 3.875 l 2,-2 L 11.6875,8.15625 13,6.875 15.125,9 l 2,-2 0.84375,-0.84375 z M 5,14 h 3.46875 l 1.6875,1.6875 L 11,16.53125 11.46875,17 13,18.53125 13.53125,18 15.125,16.40625 l 1.3125,1.28125 0.5,0.53125 0.3125,0.3125 0.03125,0.03125 L 17.71875,19 H 5 Z"
     id="path1" />
</svg>
