<?xml version="1.0" encoding="UTF-8" standalone="no"?>
<svg
   width="24"
   height="24"
   viewBox="0 0 24 24"
   version="1.1"
   id="svg1"
   sodipodi:docname="labplot-xy-equation-curve.svg"
   xmlns:inkscape="http://www.inkscape.org/namespaces/inkscape"
   xmlns:sodipodi="http://sodipodi.sourceforge.net/DTD/sodipodi-0.dtd"
   xmlns="http://www.w3.org/2000/svg"
   xmlns:svg="http://www.w3.org/2000/svg">
  <sodipodi:namedview
     id="namedview1"
     pagecolor="#505050"
     bordercolor="#eeeeee"
     borderopacity="1"
     inkscape:showpageshadow="0"
     inkscape:pageopacity="0"
     inkscape:pagecheckerboard="0"
     inkscape:deskcolor="#d1d1d1" />
  <defs
     id="defs1">
    <style
       id="current-color-scheme"
       type="text/css">&#10;   .ColorScheme-Text { color:#1e3f5a; } .ColorScheme-Highlight { color:#4285f4; }&#10;  </style>
  </defs>
  <path
     style="fill:#bde6fb;fill-opacity:1"
     class="ColorScheme-Text"
     d="m 12,5.0039062 c -0.93056,0 -1.729612,0.4954413 -2.4453125,1.1445313 -0.71569,0.6491 -1.3778469,1.4764031 -2.0605469,2.2832031 C 6.6496006,9.5986406 4.4955,11.169094 4,11.433594 v 1.070312 c 1.272,0 1.3661375,0.791823 2.3984375,1.851563 0.0397,0.11742 0.076303,0.238157 0.1269531,0.341797 0.0753,0.15404 0.1389482,0.331595 0.4238282,0.453125 l 0.1191406,0.05078 0.080078,-0.0098 c 0.11398,0.13108 0.23038,0.250796 0.34375,0.384766 0.68268,0.80678 1.3468,1.634103 2.0625,2.283203 C 10.270377,18.50844 11.0695,19.003871 12,19.003871 c 0.93055,0 1.729612,-0.495351 2.445312,-1.144531 0.71569,-0.64909 1.377847,-1.476403 2.060547,-2.283203 C 17.871259,13.962572 18.2709,12.503906 20,12.503906 v -1 c -0.78416,0 -0.497708,-0.310702 -1.173828,-0.789062 -0.0989,-0.0875 -0.200442,-0.173395 -0.294922,-0.265625 -0.2881,-0.2812 -0.553423,-0.5627096 -0.789062,-0.7871096 -0.11781,-0.11219 -0.225434,-0.2102219 -0.345704,-0.2949219 -0.0327,-0.0231 -0.0759,-0.044106 -0.115234,-0.066406 C 17.02121,9.0180212 16.761559,8.7338406 16.505859,8.4316406 15.823179,7.6248506 15.161012,6.7975375 14.445312,6.1484375 13.729623,5.4993375 12.9305,5.0039062 12,5.0039062 Z m 0,1 c 0.56944,0 1.145438,0.3170988 1.773438,0.8867188 0.62806,0.56965 1.278403,1.3693 1.970703,2.1875 0.12133,0.14338 0.255909,0.2832844 0.380859,0.4277344 -0.0592,0.0497 -0.116116,0.1037562 -0.166016,0.1601562 -0.23429,0.26477 -0.414348,0.5914004 -0.580078,0.9687504 -0.33145,0.75472 -0.597147,1.710062 -0.835937,2.664062 -0.23878,0.95401 -0.448062,1.90431 -0.638672,2.59961 -0.0418,0.15233 -0.07569,0.227642 -0.115235,0.351562 -0.0935,-0.24922 -0.187378,-0.496388 -0.292968,-0.867188 -0.28929,-1.0158 -0.603437,-2.397796 -0.910157,-3.779296 -0.30671,-1.3815 -0.60635,-2.7635004 -0.875,-3.8125004 C 11.576618,7.2665156 11.452255,6.8284237 11.328125,6.4960938 11.287425,6.3873137 11.240633,6.3016075 11.195313,6.2109375 11.467713,6.0801175 11.73502,6.0039062 12,6.0039062 Z m -1.564453,0.9921876 c 0.0914,0.2647699 0.192851,0.6005618 0.306641,1.0449218 0.260449,1.0169 0.559727,2.3944974 0.867187,3.7792974 0.30745,1.3849 0.623581,2.774837 0.925781,3.835937 0.1511,0.53058 0.295669,0.975793 0.449219,1.320312 0.0768,0.172271 0.152302,0.319389 0.257813,0.455079 0.0169,0.0217 0.04816,0.04331 0.06836,0.06641 C 12.857757,17.826467 12.4264,18.003906 12,18.003906 c -0.56945,0 -1.145437,-0.317089 -1.773437,-0.886718 -0.6280605,-0.569651 -1.2784036,-1.367247 -1.9707036,-2.185547 -0.0629,-0.0743 -0.1334756,-0.147917 -0.1972656,-0.222657 0.0423,-0.0461 0.085397,-0.09139 0.1230468,-0.140625 0.23728,-0.31073 0.4134556,-0.68921 0.5722656,-1.11914 0.3176301,-0.85991 0.5495382,-1.930022 0.7675782,-2.982422 0.21804,-1.0524001 0.4214644,-2.0878657 0.6464846,-2.8222658 0.0894,-0.2917499 0.182068,-0.4820375 0.267578,-0.6484374 z M 8.9960938,8.2070312 c -0.1562001,0.64684 -0.3041551,1.3376407 -0.453125,2.0566408 -0.2163901,1.0444 -0.4487226,2.085691 -0.7265626,2.837891 -0.13747,0.372159 -0.2881212,0.671075 -0.4257812,0.853515 -0.0415,-0.0452 -0.079094,-0.0919 -0.1210938,-0.136719 -0.0929,-0.31393 -0.1899849,-0.71182 -0.296875,-1.125 -0.1143399,-0.44195 -0.2341681,-0.885066 -0.3925781,-1.253906 -0.0587,-0.1368 -0.1267444,-0.261209 -0.2089843,-0.380859 0.6868399,-0.59577 1.3063656,-1.2988221 1.8847656,-1.9824221 0.25377,-0.29993 0.4967843,-0.5849507 0.7402344,-0.8691407 z m 7.7968752,2.0546878 c 0.43884,0.46267 0.907629,0.891376 1.412109,1.253906 0.21311,0.1967 0.436388,0.385464 0.679688,0.552734 -1.2245,0.65712 -2.233378,1.788782 -3.142578,2.863282 -0.275561,0.32567 -0.539605,0.637279 -0.802735,0.943359 0.1814,-0.69548 0.365889,-1.499731 0.574219,-2.332031 0.23414,-0.93546 0.49757,-1.85986 0.78125,-2.50586 0.14184,-0.32296 0.291609,-0.574757 0.412109,-0.710937 0.058,-0.0656 0.06434,-0.05355 0.08594,-0.06445 z m -11.2089846,1.43164 c 0.0263,0.0445 0.046125,0.0661 0.078125,0.140625 0.0737,0.17156 0.1481462,0.45797 0.2226562,0.71875 -0.28648,-0.21251 -0.5890437,-0.391768 -0.9023437,-0.548828 0.14433,-0.0724 0.2893344,-0.143315 0.4277343,-0.228515 0.0587,-0.0298 0.1149682,-0.04953 0.1738282,-0.08203 z"
     id="path1" />
</svg>
