<?xml version="1.0" encoding="UTF-8" standalone="no"?>
<svg
   width="24"
   height="24"
   viewBox="0 0 24 24"
   version="1.1"
   id="svg1"
   sodipodi:docname="labplot-xy-plot-two-axes.svg"
   xmlns:inkscape="http://www.inkscape.org/namespaces/inkscape"
   xmlns:sodipodi="http://sodipodi.sourceforge.net/DTD/sodipodi-0.dtd"
   xmlns="http://www.w3.org/2000/svg"
   xmlns:svg="http://www.w3.org/2000/svg">
  <sodipodi:namedview
     id="namedview1"
     pagecolor="#505050"
     bordercolor="#eeeeee"
     borderopacity="1"
     inkscape:showpageshadow="0"
     inkscape:pageopacity="0"
     inkscape:pagecheckerboard="0"
     inkscape:deskcolor="#d1d1d1" />
  <defs
     id="defs1">
    <style
       id="current-color-scheme"
       type="text/css">&#10;   .ColorScheme-Text { color:#1e3f5a; } .ColorScheme-Highlight { color:#4285f4; }&#10;  </style>
  </defs>
  <path
     style="fill:#bde6fb;fill-opacity:1"
     class="ColorScheme-Text"
     d="M 5,4 V 18 H 4 v 1 h 1 v 1 H 6 V 19 H 20 V 18 H 19.15625 L 18.96875,17.8125 18.125,17 16.84375,15.6875 16.125,15 14,17.09375 12.6875,15.8125 11.875,15 l -2,-2 H 6 v -2 h 3.875 l 2,-2 L 12.6875,8.15625 14,6.875 16.125,9 18.125,7 18.96875,6.15625 20,5.125 V 4.90625 H 19.78125 L 19.28125,4.4375 18.25,5.46875 17.4375,6.28125 16.125,7.59375 14,5.46875 12.46875,7 12,7.46875 11.15625,8.28125 9.46875,10 H 6 V 4 Z m 1,10 h 3.46875 l 1.6875,1.6875 L 12,16.53125 12.46875,17 l 1,1 H 6 Z M 16.125,16.40625 17.4375,17.6875 17.732422,18 H 14.53125 Z"
     id="path1" />
</svg>
