<?xml version="1.0" encoding="UTF-8" standalone="no"?>
<svg
   width="24"
   height="24"
   viewBox="0 0 24 24"
   version="1.1"
   id="svg1"
   sodipodi:docname="lensdistortion.svg"
   xmlns:inkscape="http://www.inkscape.org/namespaces/inkscape"
   xmlns:sodipodi="http://sodipodi.sourceforge.net/DTD/sodipodi-0.dtd"
   xmlns="http://www.w3.org/2000/svg"
   xmlns:svg="http://www.w3.org/2000/svg">
  <sodipodi:namedview
     id="namedview1"
     pagecolor="#505050"
     bordercolor="#eeeeee"
     borderopacity="1"
     inkscape:showpageshadow="0"
     inkscape:pageopacity="0"
     inkscape:pagecheckerboard="0"
     inkscape:deskcolor="#d1d1d1" />
  <defs
     id="defs1">
    <style
       id="current-color-scheme"
       type="text/css">&#10;   .ColorScheme-Text { color:#1e3f5a; } .ColorScheme-Highlight { color:#4285f4; }&#10;  </style>
  </defs>
  <path
     style="fill:#bde6fb;fill-opacity:1"
     class="ColorScheme-Text"
     d="M 4,4 V 7.8886719 9.0097656 12 14.990234 16 16.111328 20 H 20 V 16.107422 16 14.990234 12 9.0097656 7.8925781 4 Z M 5,5 H 19 V 7.3867188 A 11,6 0 0 0 12,6 11,6 0 0 0 5,7.3808594 Z m 7,2 a 10,5 0 0 1 7,1.4414062 V 10.548828 A 8,3 0 0 0 12,9 8,3 0 0 0 5,10.554688 V 8.4453125 A 10,5 0 0 1 12,7 Z m 0,3 a 7,2 0 0 1 7,2 7,2 0 0 1 -7,2 7,2 0 0 1 -7,-2 7,2 0 0 1 7,-2 z m 7,3.445313 v 2.113281 A 10,5 0 0 1 12,17 10,5 0 0 1 5,15.554688 V 13.451172 A 8,3 0 0 0 12,15 8,3 0 0 0 19,13.445313 Z m 0,3.167968 V 19 H 5 V 16.619141 A 11,6 0 0 0 12,18 11,6 0 0 0 19,16.613281 Z"
     id="path1" />
</svg>
