<?xml version="1.0" encoding="UTF-8" standalone="no"?>
<svg
   width="24"
   height="24"
   viewBox="0 0 24 24"
   version="1.1"
   id="svg1"
   sodipodi:docname="license.svg"
   xmlns:inkscape="http://www.inkscape.org/namespaces/inkscape"
   xmlns:sodipodi="http://sodipodi.sourceforge.net/DTD/sodipodi-0.dtd"
   xmlns="http://www.w3.org/2000/svg"
   xmlns:svg="http://www.w3.org/2000/svg">
  <sodipodi:namedview
     id="namedview1"
     pagecolor="#505050"
     bordercolor="#eeeeee"
     borderopacity="1"
     inkscape:showpageshadow="0"
     inkscape:pageopacity="0"
     inkscape:pagecheckerboard="0"
     inkscape:deskcolor="#d1d1d1" />
  <defs
     id="defs1">
    <style
       id="current-color-scheme"
       type="text/css">&#10;   .ColorScheme-Text { color:#1e3f5a; } .ColorScheme-Highlight { color:#4285f4; }&#10;  </style>
  </defs>
  <path
     style="fill:#bde6fb;fill-opacity:1"
     class="ColorScheme-Text"
     d="m 12,5.0039062 c -3.8659033,0 -7,3.1340967 -7,6.9999998 0,3.865904 3.1340967,7 7,7 3.865903,0 7,-3.134096 7,-7 0,-3.8659031 -3.134097,-6.9999998 -7,-6.9999998 z m 0,2 c 2.760931,0 5,2.2386691 5,4.9999998 0,2.760931 -2.239069,5 -5,5 -2.761331,0 -5,-2.239069 -5,-5 0,-2.7613307 2.238669,-4.9999998 5,-4.9999998 z m 0,2 a 2.999925,2.999925 0 0 0 -3,2.9999998 2.999925,2.999925 0 0 0 3,3 2.999925,2.999925 0 0 0 2.396484,-1.201172 L 13.597656,13.203125 A 1.99995,1.99995 0 0 1 12,14.003906 a 1.99995,1.99995 0 0 1 -2,-2 1.99995,1.99995 0 0 1 2,-2 1.99995,1.99995 0 0 1 1.599609,0.800782 l 0.796875,-0.59961 A 2.999925,2.999925 0 0 0 12,9.0039062 Z"
     id="path1" />
</svg>
