<?xml version="1.0" encoding="UTF-8" standalone="no"?>
<svg
   width="24"
   height="24"
   viewBox="0 0 24 24"
   version="1.1"
   id="svg1"
   sodipodi:docname="lighttable.svg"
   xmlns:inkscape="http://www.inkscape.org/namespaces/inkscape"
   xmlns:sodipodi="http://sodipodi.sourceforge.net/DTD/sodipodi-0.dtd"
   xmlns="http://www.w3.org/2000/svg"
   xmlns:svg="http://www.w3.org/2000/svg">
  <sodipodi:namedview
     id="namedview1"
     pagecolor="#505050"
     bordercolor="#eeeeee"
     borderopacity="1"
     inkscape:showpageshadow="0"
     inkscape:pageopacity="0"
     inkscape:pagecheckerboard="0"
     inkscape:deskcolor="#d1d1d1" />
  <defs
     id="defs1">
    <style
       id="current-color-scheme"
       type="text/css">&#10;   .ColorScheme-Text { color:#1e3f5a; } .ColorScheme-Highlight { color:#4285f4; }&#10;  </style>
  </defs>
  <path
     style="fill:#bde6fb;fill-opacity:1"
     class="ColorScheme-Text"
     d="m 12,5 c -3.8541,0 -7,3.1458 -7,7 0,3.854 3.1459,7 7,7 3.854,0 7,-3.146 7,-7 0,-3.8542 -3.146,-7 -7,-7 z m 3.535156,3.4667969 c 0.03906,0.041673 0.07762,0.083966 0.115235,0.1269531 0.137,0.1468 0.264812,0.3020437 0.382812,0.4648438 0.06898,0.093384 0.134952,0.1891512 0.197266,0.2871093 0.109,0.1731 0.205015,0.3543156 0.291015,0.5410157 0.03868,0.077171 0.07474,0.1553052 0.109375,0.2343752 l 0.0078,0.02344 c 0.087,0.2189 0.154937,0.446687 0.210937,0.679687 0.02646,0.100184 0.05012,0.2011 0.07031,0.302735 0.02825,0.16423 0.04883,0.329864 0.06055,0.496094 0.009,0.110492 0.01398,0.221184 0.01563,0.332031 C 16.996094,11.970678 17,11.9843 17,12 c 0,0.0107 -0.002,0.02065 -0.002,0.03125 -0.0021,0.07952 -0.0058,0.158955 -0.01172,0.238281 -0.005,0.094 -0.0086,0.186797 -0.01758,0.279297 -10e-4,0.0032 0,0.0066 0,0.0098 l -0.002,0.01367 c -0.003,0.029 -0.0097,0.05714 -0.01367,0.08594 v 0.0019 c -0.017,0.1271 -0.03845,0.2511 -0.06445,0.375 -0.0089,0.03523 -0.01762,0.07044 -0.02734,0.105469 -0.053,0.2305 -0.124984,0.453222 -0.208984,0.669922 -0.0069,0.02024 -0.01436,0.04039 -0.02149,0.06055 -0.015,0.0357 -0.02601,0.07212 -0.04101,0.107422 -0.01853,0.0374 -0.03718,0.0744 -0.05664,0.111328 -0.085,0.186 -0.182062,0.364109 -0.289062,0.537109 -0.02282,0.03865 -0.04646,0.07721 -0.07031,0.115235 -0.017,0.025 -0.02988,0.05312 -0.04687,0.07812 -0.02684,0.03637 -0.05421,0.07179 -0.08203,0.107422 -0.13,0.179 -0.267922,0.351719 -0.419922,0.511719 -0.02891,0.03238 -0.05814,0.06408 -0.08789,0.0957 -0.04103,0.03837 -0.0827,0.07632 -0.125,0.113282 -0.152,0.142999 -0.313423,0.274484 -0.482421,0.396484 -0.03499,0.02646 -0.0698,0.0526 -0.105469,0.07813 -0.013,0.009 -0.02702,0.0203 -0.04102,0.0293 -0.04523,0.02806 -0.09062,0.05543 -0.136719,0.08203 -0.172,0.108 -0.352062,0.205016 -0.539062,0.291016 -0.03151,0.01533 -0.06388,0.03025 -0.0957,0.04492 -0.0333,0.015 -0.06426,0.03483 -0.09766,0.04883 -0.01368,0.0047 -0.0273,0.0091 -0.04102,0.01367 -0.246,0.099 -0.501625,0.177329 -0.765625,0.236329 l -0.03125,0.0078 c -0.0428,0.009 -0.08375,0.0213 -0.126953,0.0293 -0.05389,0.0096 -0.107938,0.01761 -0.16211,0.02539 -0.108599,0.017 -0.217325,0.03392 -0.328125,0.04492 -0.08453,0.0058 -0.169193,0.01022 -0.253906,0.01172 C 12.136678,16.991281 12.069,17 12,17 c -0.007,0 -0.01243,-0.002 -0.01953,-0.002 -0.27312,-0.003 -0.545485,-0.02863 -0.814453,-0.07617 -0.0206,-0.004 -0.042,-0.0058 -0.0625,-0.0098 -0.09566,-0.01921 -0.190787,-0.04163 -0.285156,-0.06641 -0.2298,-0.056 -0.455975,-0.122031 -0.671875,-0.207031 h -0.002 c -0.0937,-0.0395 -0.1862237,-0.08181 -0.2773441,-0.126953 -0.1757,-0.083 -0.3461656,-0.173391 -0.5097656,-0.275391 -0.1054284,-0.06581 -0.2083604,-0.135506 -0.3085938,-0.208984 -0.1669,-0.122 -0.3264625,-0.253532 -0.4765625,-0.394532 -0.036307,-0.03214 -0.072066,-0.06447 -0.1074218,-0.09766 z"
     id="path1" />
</svg>
