<?xml version="1.0" encoding="UTF-8" standalone="no"?>
<svg
   width="24"
   height="24"
   viewBox="0 0 24 24"
   version="1.1"
   id="svg1"
   sodipodi:docname="link.svg"
   xmlns:inkscape="http://www.inkscape.org/namespaces/inkscape"
   xmlns:sodipodi="http://sodipodi.sourceforge.net/DTD/sodipodi-0.dtd"
   xmlns="http://www.w3.org/2000/svg"
   xmlns:svg="http://www.w3.org/2000/svg">
  <sodipodi:namedview
     id="namedview1"
     pagecolor="#505050"
     bordercolor="#eeeeee"
     borderopacity="1"
     inkscape:showpageshadow="0"
     inkscape:pageopacity="0"
     inkscape:pagecheckerboard="0"
     inkscape:deskcolor="#d1d1d1" />
  <defs
     id="defs1">
    <style
       id="current-color-scheme"
       type="text/css">&#10;   .ColorScheme-Text { color:#1e3f5a; } .ColorScheme-Highlight { color:#4285f4; }&#10;  </style>
  </defs>
  <path
     style="fill:#bde6fb;fill-opacity:1"
     class="ColorScheme-Text"
     d="M 7,5 C 5.892,5 5,5.892 5,7 v 10 c 0,1.108 0.892,2 2,2 h 10 c 1.108,2e-5 2,-0.892 2,-2 v -4 l -2,-0.0059 V 17 H 7 V 7 h 4 V 5 Z m 5,0 v 2 h 3.585938 l -4.494141,4.494141 -0.707031,0.707031 0.0059,0.0059 A 1,1 0 0 0 9.9902344,13 a 1,1 0 0 0 0.9999996,1 1,1 0 0 0 0.792969,-0.390625 l 0.0059,0.0059 0.707031,-0.707032 4.49414,-4.4941405 V 12 l 2,0.0059 V 5 Z"
     id="path1" />
</svg>
