<?xml version="1.0" encoding="UTF-8" standalone="no"?>
<svg
   width="24"
   height="24"
   viewBox="0 0 24 24"
   version="1.1"
   id="svg1"
   sodipodi:docname="map-gnomonic.svg"
   xmlns:inkscape="http://www.inkscape.org/namespaces/inkscape"
   xmlns:sodipodi="http://sodipodi.sourceforge.net/DTD/sodipodi-0.dtd"
   xmlns="http://www.w3.org/2000/svg"
   xmlns:svg="http://www.w3.org/2000/svg">
  <sodipodi:namedview
     id="namedview1"
     pagecolor="#505050"
     bordercolor="#eeeeee"
     borderopacity="1"
     inkscape:showpageshadow="0"
     inkscape:pageopacity="0"
     inkscape:pagecheckerboard="0"
     inkscape:deskcolor="#d1d1d1" />
  <defs
     id="defs1">
    <style
       id="current-color-scheme"
       type="text/css">&#10;   .ColorScheme-Text { color:#1e3f5a; } .ColorScheme-Highlight { color:#4285f4; }&#10;  </style>
  </defs>
  <path
     style="fill:#bde6fb;fill-opacity:1"
     class="ColorScheme-Text"
     d="M 4,4 V 20 H 20 V 4 Z M 5,5 H 9 V 9.7070312 A 7,3 0 0 1 5,7 Z m 5,0 h 4 V 9.8730469 A 7,3 0 0 1 12,10 7,3 0 0 1 10,9.8730469 Z m 5,0 h 4 V 7 A 7,3 0 0 1 15,9.7070312 Z M 5,8.9277344 a 8,4 0 0 0 4,1.7773436 v 2.589844 a 8,4 0 0 0 -4,1.777344 z m 14,0.00781 V 15.064453 A 8,4 0 0 0 15,13.294922 V 10.705078 A 8,4 0 0 0 19,8.9355469 Z M 10,10.867188 A 8,4 0 0 0 12,11 8,4 0 0 0 14,10.869141 v 2.261718 A 8,4 0 0 0 12,13 8,4 0 0 0 10,13.132813 Z M 12,14 a 7,3 0 0 1 2,0.126953 V 19 H 10 V 14.126953 A 7,3 0 0 1 12,14 Z M 9,14.292969 V 19 H 5 v -2 a 7,3 0 0 1 4,-2.707031 z m 6,0 A 7,3 0 0 1 19,17 v 2 h -4 z"
     id="path1" />
</svg>
