<?xml version="1.0" encoding="UTF-8" standalone="no"?>
<svg
   width="24"
   height="24"
   viewBox="0 0 24 24"
   version="1.1"
   id="svg1"
   sodipodi:docname="map-globe.svg"
   xmlns:inkscape="http://www.inkscape.org/namespaces/inkscape"
   xmlns:sodipodi="http://sodipodi.sourceforge.net/DTD/sodipodi-0.dtd"
   xmlns="http://www.w3.org/2000/svg"
   xmlns:svg="http://www.w3.org/2000/svg">
  <sodipodi:namedview
     id="namedview1"
     pagecolor="#505050"
     bordercolor="#eeeeee"
     borderopacity="1"
     inkscape:showpageshadow="0"
     inkscape:pageopacity="0"
     inkscape:pagecheckerboard="0"
     inkscape:deskcolor="#d1d1d1" />
  <defs
     id="defs1">
    <style
       id="current-color-scheme"
       type="text/css">&#10;   .ColorScheme-Text { color:#1e3f5a; } .ColorScheme-Highlight { color:#4285f4; }&#10;  </style>
  </defs>
  <path
     style="fill:#bde6fb;fill-opacity:1"
     class="ColorScheme-Text"
     d="m 12.109375,4 a 8,8 0 0 0 -5.7734375,2.34375 8,8 0 0 0 0,11.3125 8,8 0 0 0 11.3125005,0 8,8 0 0 0 0,-11.3125 A 8,8 0 0 0 12.109375,4 Z m -0.21875,1 a 7,7 0 0 1 4.679687,1.7148438 L 15.166016,8.1191406 A 8,5 45 0 0 9.7421875,5.3769531 7,7 0 0 1 11.890625,5 Z M 8.8632812,6.3066406 A 7,4 45 0 1 14.457031,8.828125 L 11.992188,11.292969 7.4414062,6.7421875 a 7,4 45 0 1 1.421875,-0.4355469 z m 8.4199218,1.109375 a 7,7 0 0 1 1.335938,6.8105464 8,5 45 0 0 -2.75,-5.3964839 z M 6.7324219,7.4472656 11.285156,12 8.8183594,14.466797 A 7,4 45 0 1 6.7324219,7.4472656 Z m 8.4335941,2.0859375 a 7,4 45 0 1 2.085937,7.0195309 L 12.699219,12 Z M 5.3652344,9.7734375 a 8,5 45 0 0 2.75,5.3964845 L 6.7011719,16.583984 A 7,7 0 0 1 5.3652344,9.7734375 Z m 6.6269536,2.9335935 4.550781,4.550781 A 7,4 45 0 1 9.5273438,15.171875 Z m -3.1738286,3.173828 a 8,5 45 0 0 5.4238286,2.742188 7,7 0 0 1 -6.8281255,-1.337891 z"
     id="path1" />
</svg>
