<?xml version="1.0" encoding="UTF-8" standalone="no"?>
<svg
   width="24"
   height="24"
   viewBox="0 0 24 24"
   version="1.1"
   id="svg1"
   sodipodi:docname="measure.svg"
   xmlns:inkscape="http://www.inkscape.org/namespaces/inkscape"
   xmlns:sodipodi="http://sodipodi.sourceforge.net/DTD/sodipodi-0.dtd"
   xmlns="http://www.w3.org/2000/svg"
   xmlns:svg="http://www.w3.org/2000/svg">
  <sodipodi:namedview
     id="namedview1"
     pagecolor="#505050"
     bordercolor="#eeeeee"
     borderopacity="1"
     inkscape:showpageshadow="0"
     inkscape:pageopacity="0"
     inkscape:pagecheckerboard="0"
     inkscape:deskcolor="#d1d1d1" />
  <defs
     id="defs1">
    <style
       id="current-color-scheme"
       type="text/css">&#10;   .ColorScheme-Text { color:#1e3f5a; } .ColorScheme-Highlight { color:#4285f4; }&#10;  </style>
  </defs>
  <path
     style="fill:#bde6fb;fill-opacity:1"
     class="ColorScheme-Text"
     d="M 6,5 C 5.4477,5.0001 5.0001,5.4477 5,6 v 6 c 10e-5,0.5523 0.4477,0.9999 1,1 h 12 c 0.552,-10e-5 1,-0.4477 1,-1 V 6 C 19,5.4477 18.552,5.0001 18,5 Z M 7,7 H 8 V 9 H 9 V 7 h 2 v 2 h 1 V 7 h 2 v 2 h 1 V 7 h 2 v 4 H 7 Z m 1,7 -3,2.5 3,2.5 z m 8,0 v 5 l 3,-2.5 z"
     id="path1" />
</svg>
