<?xml version="1.0" encoding="UTF-8" standalone="no"?>
<svg
   width="24"
   height="24"
   id="svg9"
   version="1.1"
   sodipodi:docname="meeting-participant-request-response.svg"
   xmlns:inkscape="http://www.inkscape.org/namespaces/inkscape"
   xmlns:sodipodi="http://sodipodi.sourceforge.net/DTD/sodipodi-0.dtd"
   xmlns="http://www.w3.org/2000/svg"
   xmlns:svg="http://www.w3.org/2000/svg">
  <sodipodi:namedview
     id="namedview1"
     pagecolor="#505050"
     bordercolor="#eeeeee"
     borderopacity="1"
     inkscape:showpageshadow="0"
     inkscape:pageopacity="0"
     inkscape:pagecheckerboard="0"
     inkscape:deskcolor="#d1d1d1" />
  <defs
     id="defs3">
    <style
       id="current-color-scheme" />
  </defs>
  <path
     d="M 20.34,2.33 A 1.46,1.46 0 0 0 18.88,3.79 1.46,1.46 0 0 0 20.34,5.26 1.46,1.46 0 0 0 21.8,3.79 1.46,1.46 0 0 0 20.34,2.33 Z M 12,3 A 4.3800029,4.3800029 0 1 0 11.99,11.76 4.3800029,4.3800029 0 0 0 12,3 Z m 8.34,3.72 A 1.46,1.46 0 0 0 18.88,8.18 1.46,1.46 0 0 0 20.34,9.64 1.46,1.46 0 0 0 21.8,8.18 1.46,1.46 0 0 0 20.34,6.72 Z m 0,4.38 a 1.46,1.46 0 0 0 -1.46,1.46 1.46,1.46 0 0 0 1.46,1.46 1.46,1.46 0 0 0 1.46,-1.46 1.46,1.46 0 0 0 -1.46,-1.46 z M 12,14.7 c -8.77,0 -8.77,5.84 -8.77,5.84 V 22 h 17.54 v -1.46 c 0,0 0,-5.86 -8.77,-5.85 z"
     id="path5"
     color="#dfdfdf"
     fill="#1e3f5a"
     stroke-width="1.46"
     style="fill:#bde6fb;fill-opacity:1" />
</svg>
