<?xml version="1.0" encoding="UTF-8" standalone="no"?>
<svg
   width="24"
   height="24"
   id="svg9"
   version="1.1"
   sodipodi:docname="meeting-participant-no-response.svg"
   xmlns:inkscape="http://www.inkscape.org/namespaces/inkscape"
   xmlns:sodipodi="http://sodipodi.sourceforge.net/DTD/sodipodi-0.dtd"
   xmlns="http://www.w3.org/2000/svg"
   xmlns:svg="http://www.w3.org/2000/svg">
  <sodipodi:namedview
     id="namedview1"
     pagecolor="#505050"
     bordercolor="#eeeeee"
     borderopacity="1"
     inkscape:showpageshadow="0"
     inkscape:pageopacity="0"
     inkscape:pagecheckerboard="0"
     inkscape:deskcolor="#d1d1d1" />
  <defs
     id="defs3">
    <style
       id="current-color-scheme" />
  </defs>
  <g
     transform="matrix(1.46154,0,0,1.46154,0.3,-8.7)"
     id="g7"
     fill="#1e3f5a"
     style="fill:#bde6fb;fill-opacity:1">
    <path
       d="m 8,8 a 3,3 0 1 1 0,6 3,3 0 0 1 0,-6 z m 0,8 c 6,-0.01 6,4 6,4 v 1 H 2 v -1 c 0,0 0,-4 6,-4 z"
       id="path5"
       color="#dfdfdf"
       style="fill:#bde6fb;fill-opacity:1" />
  </g>
  <path
     d="M 20.34,2.33 A 1.46,1.46 0 0 0 18.88,3.79 1.46,1.46 0 0 0 20.34,5.26 1.46,1.46 0 0 0 21.8,3.79 1.46,1.46 0 0 0 20.34,2.33 Z m 0,4.39 A 1.46,1.46 0 0 0 18.88,8.18 1.46,1.46 0 0 0 20.34,9.64 1.46,1.46 0 0 0 21.8,8.18 1.46,1.46 0 0 0 20.34,6.72 Z m 0,4.38 a 1.46,1.46 0 0 0 -1.46,1.46 1.46,1.46 0 0 0 1.46,1.46 1.46,1.46 0 0 0 1.46,-1.46 1.46,1.46 0 0 0 -1.46,-1.46 z"
     id="path824"
     color="#dfdfdf"
     fill="#1e3f5a"
     stroke-width="1.46"
     fill-opacity=".3"
     style="fill:#bde6fb;fill-opacity:0.301961" />
</svg>
