<?xml version="1.0" encoding="UTF-8" standalone="no"?>
<svg
   width="24"
   height="24"
   viewBox="0 0 24 24"
   version="1.1"
   id="svg1"
   sodipodi:docname="news-unsubscribe.svg"
   xmlns:inkscape="http://www.inkscape.org/namespaces/inkscape"
   xmlns:sodipodi="http://sodipodi.sourceforge.net/DTD/sodipodi-0.dtd"
   xmlns="http://www.w3.org/2000/svg"
   xmlns:svg="http://www.w3.org/2000/svg">
  <sodipodi:namedview
     id="namedview1"
     pagecolor="#505050"
     bordercolor="#eeeeee"
     borderopacity="1"
     inkscape:showpageshadow="0"
     inkscape:pageopacity="0"
     inkscape:pagecheckerboard="0"
     inkscape:deskcolor="#d1d1d1" />
  <defs
     id="defs1">
    <style
       id="current-color-scheme"
       type="text/css">&#10;   .ColorScheme-Text { color:#1e3f5a; } .ColorScheme-Highlight { color:#4285f4; }&#10;  </style>
  </defs>
  <path
     style="fill:#bde6fb;fill-opacity:1"
     class="ColorScheme-Text"
     d="m 4,5 v 14 c 3.4739,-0.001 6.947775,-4.7e-5 10.421875,0.002 l -0.128906,-0.128906 c -0.3904,-0.39 -0.3904,-1.023063 0,-1.414063 L 14.751953,17 H 5 v -1 h 9.751953 l -0.458984,-0.458984 c -0.3904,-0.391 -0.3904,-1.024063 0,-1.414063 L 14.419922,14 H 13 v -1 h 6 v 0.01563 c 0.319,-0.0541 0.644047,0.04914 0.873047,0.277344 L 20,13.419922 V 5.0039062 C 14.667,5.0059063 9.333,4.998 4,5 Z m 6,2 v 6.996094 L 5,14 V 7.0039062 Z m 3,0 h 6 v 1 h -6 z m 0,3 h 6 v 1 H 13 Z M 15.833984,14 15,14.833984 16.666016,16.5 15,18.166016 15.833984,19 17.5,17.333984 19.166016,19 20,18.166016 18.333984,16.5 20,14.833984 19.166016,14 17.5,15.666016 Z"
     id="path1" />
</svg>
