<?xml version="1.0" encoding="UTF-8" standalone="no"?>
<svg
   width="24"
   height="24"
   viewBox="0 0 24 24"
   version="1.1"
   id="svg1"
   sodipodi:docname="node-join-segment.svg"
   xmlns:inkscape="http://www.inkscape.org/namespaces/inkscape"
   xmlns:sodipodi="http://sodipodi.sourceforge.net/DTD/sodipodi-0.dtd"
   xmlns="http://www.w3.org/2000/svg"
   xmlns:svg="http://www.w3.org/2000/svg">
  <sodipodi:namedview
     id="namedview1"
     pagecolor="#505050"
     bordercolor="#eeeeee"
     borderopacity="1"
     inkscape:showpageshadow="0"
     inkscape:pageopacity="0"
     inkscape:pagecheckerboard="0"
     inkscape:deskcolor="#d1d1d1" />
  <defs
     id="defs1">
    <style
       id="current-color-scheme"
       type="text/css">&#10;   .ColorScheme-Text { color:#1e3f5a; } .ColorScheme-Highlight { color:#4285f4; }&#10;  </style>
  </defs>
  <path
     style="fill:#bde6fb;fill-opacity:1"
     class="ColorScheme-Text"
     d="M 5,4 V 6.0019531 H 4.5039062 c -0.66537,0 -0.66537,0.9980469 0,0.9980469 H 5 V 9 H 9 V 7 6 4 Z m 9,0 v 2 1 2 h 4 V 7 h 0.507812 c 0.676001,0.0096 0.676001,-1.0096 0,-1 H 18 V 4 Z M 11,9.0273438 V 11.027344 H 9 l 2.5,3 2.5,-3 H 12 V 9.0273438 Z M 5,15 v 2.001953 H 4.5039062 c -0.6653599,0 -0.6653599,0.998047 0,0.998047 H 5 v 2 h 4 v -2 h 5 v 2 h 4 v -2 h 0.507812 c 0.67616,0.0096 0.676161,-1.0096 0,-1 H 18 v -2 h -4 v 2 H 9 v -2 z"
     id="path1" />
</svg>
