<?xml version="1.0" encoding="UTF-8" standalone="no"?>
<svg
   width="24"
   height="24"
   viewBox="0 0 24 24"
   version="1.1"
   id="svg1"
   sodipodi:docname="node-join.svg"
   xmlns:inkscape="http://www.inkscape.org/namespaces/inkscape"
   xmlns:sodipodi="http://sodipodi.sourceforge.net/DTD/sodipodi-0.dtd"
   xmlns="http://www.w3.org/2000/svg"
   xmlns:svg="http://www.w3.org/2000/svg">
  <sodipodi:namedview
     id="namedview1"
     pagecolor="#505050"
     bordercolor="#eeeeee"
     borderopacity="1"
     inkscape:showpageshadow="0"
     inkscape:pageopacity="0"
     inkscape:pagecheckerboard="0"
     inkscape:deskcolor="#d1d1d1" />
  <defs
     id="defs1">
    <style
       id="current-color-scheme"
       type="text/css">&#10;   .ColorScheme-Text { color:#1e3f5a; } .ColorScheme-Highlight { color:#4285f4; }&#10;  </style>
  </defs>
  <path
     style="fill:#bde6fb;fill-opacity:1"
     class="ColorScheme-Text"
     d="M 5,4 V 6.0019531 H 4.5039062 A 0.49902345,0.49902345 0 0 0 4.5039062,7 H 5 V 9 H 9 V 4 Z m 9,0 v 5 h 4 V 7 h 0.507812 a 0.50005,0.50005 0 1 0 0,-1 H 18 V 4 Z M 11,9.0273438 V 11.027344 H 9 l 2.5,3 2.5,-3 H 12 V 9.0273438 Z M 9,15 v 2.027344 H 4.5214844 a 0.50005,0.50005 0 1 0 0,1 H 9 V 20 h 5 v -1.972656 h 4.498047 a 0.50005,0.50005 0 1 0 0,-1 H 14 V 15 Z"
     id="path1" />
</svg>
