<?xml version="1.0" encoding="UTF-8" standalone="no"?>
<svg
   width="24"
   height="24"
   viewBox="0 0 24 24"
   version="1.1"
   id="svg1"
   sodipodi:docname="node-type-smooth.svg"
   xmlns:inkscape="http://www.inkscape.org/namespaces/inkscape"
   xmlns:sodipodi="http://sodipodi.sourceforge.net/DTD/sodipodi-0.dtd"
   xmlns="http://www.w3.org/2000/svg"
   xmlns:svg="http://www.w3.org/2000/svg">
  <sodipodi:namedview
     id="namedview1"
     pagecolor="#505050"
     bordercolor="#eeeeee"
     borderopacity="1"
     inkscape:showpageshadow="0"
     inkscape:pageopacity="0"
     inkscape:pagecheckerboard="0"
     inkscape:deskcolor="#d1d1d1" />
  <defs
     id="defs1">
    <style
       id="current-color-scheme"
       type="text/css">&#10;   .ColorScheme-Text { color:#1e3f5a; } .ColorScheme-Highlight { color:#4285f4; }&#10;  </style>
  </defs>
  <path
     style="fill:#bde6fb;fill-opacity:1"
     class="ColorScheme-Text"
     d="m 18.533203,6.0058594 a 0.50005,0.50005 0 0 0 -0.46875,0.5742187 c 0.22151,1.6172 -0.04358,3.7823219 -1.050781,5.4824219 -0.65127,1.0993 -1.592406,2.012591 -2.941406,2.525391 v -1.59375 H 9.0722656 v 1.664062 c -1.4311,-0.485 -2.4013281,-1.40289 -3.0488281,-2.52539 -0.9594,-1.663 -1.1734813,-3.7937161 -0.9257813,-5.4160161 A 0.50005,0.50005 0 1 0 4.109375,6.5644531 c -0.27943,1.8301 -0.059072,4.1458059 1.0488281,6.0664059 0.79494,1.378 2.0881625,2.519647 3.9140625,3.060547 v 2.302735 h 5.0000004 v -2.373047 c 1.7413,-0.57352 3.003234,-1.699328 3.802734,-3.048828 1.154,-1.948 1.431088,-4.2937066 1.179688,-6.1289066 a 0.50005,0.50005 0 0 0 -0.521485,-0.4375 z"
     id="path1" />
</svg>
