<?xml version="1.0" encoding="UTF-8" standalone="no"?>
<svg
   width="24"
   height="24"
   viewBox="0 0 24 24"
   version="1.1"
   id="svg1"
   sodipodi:docname="node-transform.svg"
   xmlns:inkscape="http://www.inkscape.org/namespaces/inkscape"
   xmlns:sodipodi="http://sodipodi.sourceforge.net/DTD/sodipodi-0.dtd"
   xmlns="http://www.w3.org/2000/svg"
   xmlns:svg="http://www.w3.org/2000/svg">
  <sodipodi:namedview
     id="namedview1"
     pagecolor="#505050"
     bordercolor="#eeeeee"
     borderopacity="1"
     inkscape:showpageshadow="0"
     inkscape:pageopacity="0"
     inkscape:pagecheckerboard="0"
     inkscape:deskcolor="#d1d1d1" />
  <defs
     id="defs1">
    <style
       id="current-color-scheme"
       type="text/css">&#10;   .ColorScheme-Text { color:#1e3f5a; } .ColorScheme-Highlight { color:#4285f4; }&#10;  </style>
  </defs>
  <path
     style="fill:#bde6fb;fill-opacity:1"
     class="ColorScheme-Text"
     d="m 4,4 v 5 l 1.5,-1.5 2,2 L 6,11 h 5 V 6 L 9.5,7.5 7.5,5.5 9,4 Z m 11,0 1.5,1.5 -2,2 L 13,6 v 5 h 5 l -1.5,-1.5 2,-2 L 20,9 V 4 Z m -9,9 1.5,1.5 -2,2 L 4,15 v 5 h 5 l -1.5,-1.5 2,-2 1.5,1.5 v -5 z m 7,0 v 5 l 1.5,-1.5 2,2 L 15,20 h 5 v -5 l -1.5,1.5 -2,-2 L 18,13 Z"
     id="path1" />
</svg>
