<?xml version="1.0" encoding="UTF-8" standalone="no"?>
<svg
   width="24"
   height="24"
   viewBox="0 0 24 24"
   version="1.1"
   id="svg1"
   sodipodi:docname="node-type-cusp.svg"
   xmlns:inkscape="http://www.inkscape.org/namespaces/inkscape"
   xmlns:sodipodi="http://sodipodi.sourceforge.net/DTD/sodipodi-0.dtd"
   xmlns="http://www.w3.org/2000/svg"
   xmlns:svg="http://www.w3.org/2000/svg">
  <sodipodi:namedview
     id="namedview1"
     pagecolor="#505050"
     bordercolor="#eeeeee"
     borderopacity="1"
     inkscape:showpageshadow="0"
     inkscape:pageopacity="0"
     inkscape:pagecheckerboard="0"
     inkscape:deskcolor="#d1d1d1" />
  <defs
     id="defs1">
    <style
       id="current-color-scheme"
       type="text/css">&#10;   .ColorScheme-Text { color:#1e3f5a; } .ColorScheme-Highlight { color:#4285f4; }&#10;  </style>
  </defs>
  <path
     style="fill:#bde6fb;fill-opacity:1"
     class="ColorScheme-Text"
     d="m 19.496094,4.9960937 a 0.50005,0.50005 0 0 0 -0.488282,0.4609375 c -0.390859,4.1341001 -2.236415,6.8007718 -5.103515,8.9511718 l -2.326172,-2.326172 c -0.12184,-0.62281 -0.27381,-1.262475 -0.5,-1.921875 C 10.625185,8.8397562 9.9391469,7.5564969 8.8730469,6.5917969 7.8069469,5.6271469 6.3558,5.0039062 4.5,5.0039062 a 0.50005,0.50005 0 1 0 0,1 c 1.638,0 2.8050719,0.5192282 3.7011719,1.3300782 0.89607,0.81083 1.5153406,1.9367906 1.9316411,3.1503906 0.265879,0.77507 0.426871,1.565637 0.550781,2.335938 L 8,15.503906 l 3.5,3.5 3.5,-3.5 -0.351562,-0.351562 c 2.968999,-2.2988 4.944368,-5.2535628 5.355468,-9.6015628 A 0.50005,0.50005 0 0 0 19.496094,4.9960937 Z"
     id="path1" />
</svg>
