<?xml version="1.0" encoding="UTF-8" standalone="no"?>
<svg
   width="24"
   height="24"
   viewBox="0 0 24 24"
   version="1.1"
   id="svg1"
   sodipodi:docname="node-type-auto-smooth.svg"
   xmlns:inkscape="http://www.inkscape.org/namespaces/inkscape"
   xmlns:sodipodi="http://sodipodi.sourceforge.net/DTD/sodipodi-0.dtd"
   xmlns="http://www.w3.org/2000/svg"
   xmlns:svg="http://www.w3.org/2000/svg">
  <sodipodi:namedview
     id="namedview1"
     pagecolor="#505050"
     bordercolor="#eeeeee"
     borderopacity="1"
     inkscape:showpageshadow="0"
     inkscape:pageopacity="0"
     inkscape:pagecheckerboard="0"
     inkscape:deskcolor="#d1d1d1" />
  <defs
     id="defs1">
    <style
       id="current-color-scheme"
       type="text/css">&#10;   .ColorScheme-Text { color:#1e3f5a; } .ColorScheme-Highlight { color:#4285f4; }&#10;  </style>
  </defs>
  <path
     style="fill:#bde6fb;fill-opacity:1"
     class="ColorScheme-Text"
     d="m 19.419922,6 a 0.49828,0.50178 0 0 0 -0.480469,0.5878906 c 0.21765,1.6002 -0.143139,3.8694814 -1.255859,5.6757814 -0.57302,0.93016 -1.33436,1.739647 -2.31836,2.310547 a 3.4876,3.5121 0 0 0 -3.367187,-2.59961 3.4876,3.5121 0 0 0 -3.3750001,2.646485 c -1.0173,-0.572 -1.7948938,-1.395763 -2.3710938,-2.351563 -1.0876,-1.8042 -1.4183812,-4.0736279 -1.1757812,-5.6738279 A 0.49828,0.50178 0 0 0 4.5527344,6.0117188 0.49828,0.50178 0 0 0 4.0917969,6.4453125 c -0.28263,1.8642 0.077261,4.3043495 1.3066406,6.3437505 0.7158,1.1873 1.7593406,2.218812 3.1191406,2.882812 A 3.4876,3.5121 0 0 0 11.998047,19 3.4876,3.5121 0 0 0 15.480469,15.623047 c 1.3176,-0.66534 2.338281,-1.673378 3.050781,-2.830078 1.255,-2.0371 1.650084,-4.475644 1.396484,-6.339844 A 0.49828,0.50178 0 0 0 19.419922,6 Z"
     id="path1" />
</svg>
