<?xml version="1.0" encoding="UTF-8" standalone="no"?>
<svg
   width="24"
   height="24"
   viewBox="0 0 24 24"
   version="1.1"
   id="svg1"
   sodipodi:docname="node-type-symmetric.svg"
   xmlns:inkscape="http://www.inkscape.org/namespaces/inkscape"
   xmlns:sodipodi="http://sodipodi.sourceforge.net/DTD/sodipodi-0.dtd"
   xmlns="http://www.w3.org/2000/svg"
   xmlns:svg="http://www.w3.org/2000/svg">
  <sodipodi:namedview
     id="namedview1"
     pagecolor="#505050"
     bordercolor="#eeeeee"
     borderopacity="1"
     inkscape:showpageshadow="0"
     inkscape:pageopacity="0"
     inkscape:pagecheckerboard="0"
     inkscape:deskcolor="#d1d1d1" />
  <defs
     id="defs1">
    <style
       id="current-color-scheme"
       type="text/css">&#10;   .ColorScheme-Text { color:#1e3f5a; } .ColorScheme-Highlight { color:#4285f4; }&#10;  </style>
  </defs>
  <path
     style="fill:#bde6fb;fill-opacity:1"
     class="ColorScheme-Text"
     d="m 19.390625,6.34375 a 0.49918,0.49918 0 0 0 -0.480469,0.5878906 c 0.218,1.5948 -0.142812,3.8988284 -1.257812,5.7363284 -0.636,1.0489 -1.506344,1.94339 -2.652344,2.52539 V 13 H 9 v 2.275391 C 7.7819,14.698391 6.8773625,13.768275 6.2265625,12.671875 5.1369625,10.836475 4.8063281,8.5340531 5.0488281,6.9394531 A 0.49918,0.49918 0 0 0 4.5253906,6.359375 0.49918,0.49918 0 0 0 4.0625,6.7890625 c -0.28265,1.8583 0.077508,4.3233255 1.3046875,6.3906255 0.6862,1.156299 1.6986687,2.143265 2.9804687,2.822265 H 6.9140625 A 1.5,1.5 0 0 0 5.5,15 1.5,1.5 0 0 0 4,16.5 1.5,1.5 0 0 0 5.5,18 1.5,1.5 0 0 0 6.9121094,17 H 9 v 2 h 6 v -2 h 2.087891 A 1.5,1.5 0 0 0 18.5,18 1.5,1.5 0 0 0 20,16.5 1.5,1.5 0 0 0 18.5,15 1.5,1.5 0 0 0 17.085938,16.001953 h -1.591797 c 1.289,-0.678 2.310718,-1.661906 3.011718,-2.816406 1.253,-2.0651 1.646579,-4.530472 1.392579,-6.388672 A 0.49918,0.49918 0 0 0 19.390625,6.34375 Z"
     id="path1" />
</svg>
