<?xml version="1.0" encoding="UTF-8" standalone="no"?>
<svg
   width="24"
   height="24"
   viewBox="0 0 24 24"
   version="1.1"
   id="svg1"
   sodipodi:docname="object-to-path.svg"
   xmlns:inkscape="http://www.inkscape.org/namespaces/inkscape"
   xmlns:sodipodi="http://sodipodi.sourceforge.net/DTD/sodipodi-0.dtd"
   xmlns="http://www.w3.org/2000/svg"
   xmlns:svg="http://www.w3.org/2000/svg">
  <sodipodi:namedview
     id="namedview1"
     pagecolor="#505050"
     bordercolor="#eeeeee"
     borderopacity="1"
     inkscape:showpageshadow="0"
     inkscape:pageopacity="0"
     inkscape:pagecheckerboard="0"
     inkscape:deskcolor="#d1d1d1" />
  <defs
     id="defs1">
    <style
       id="current-color-scheme"
       type="text/css">&#10;   .ColorScheme-Text { color:#1e3f5a; } .ColorScheme-Highlight { color:#4285f4; }&#10;  </style>
  </defs>
  <path
     style="fill:#bde6fb;fill-opacity:1"
     class="ColorScheme-Text"
     d="m 8.9042969,3.96875 v 0.097656 c -1.352,-0.1416199 -2.4685907,0.1833025 -3.2753907,0.8203125 -0.81567,0.6441001 -1.3050656,1.5773126 -1.5097656,2.5703125 -0.29378,1.4258 -0.021804,3.0095968 0.7851563,4.2167968 v 3.294922 h 4 v -1.162109 c 0.6603,0.088 1.3430691,0.140533 2.0429691,0.158203 -0.004,0.21521 -0.01728,0.444347 -0.01758,0.654297 -0.002,1.3957 0.0771,2.656128 0.554687,3.611328 0.89515,1.7903 2.700522,2.086125 4.419922,1.578125 v 0.160156 h 4 v -3.773438 c 0.18457,-0.71537 0.103351,-1.454378 -0.355469,-2.142578 -0.48313,-0.72469 -1.394706,-0.921458 -2.441406,-1.017578 -1.0466,-0.09609 -2.298263,-0.05566 -3.601562,-0.02734 -0.51656,0.01122 -1.011251,-0.03417 -1.53125,-0.03711 0.032,-0.89938 0.06557,-1.783259 0.07227,-2.693359 0.006,-0.8010003 -0.0208,-1.577394 -0.107423,-2.308594 h 0.964844 v -4 z M 8.0253906,5.0351562 c 0.25019,-0.01421 0.5201869,-0.0071 0.8105469,0.025391 0.026,0.0029 0.042959,0.014078 0.068359,0.017578 V 7.96875 h 2.0214845 c 0.0908,0.69764 0.127124,1.4758813 0.121094,2.300781 -0.006,0.87694 -0.04027,1.776735 -0.07227,2.677735 -0.72619,-0.0272 -1.4213129,-0.0826 -2.0703129,-0.175782 V 10.96875 H 5.6601562 C 5.0912363,10.01205 4.8700362,8.7628031 5.0976562,7.6582031 5.2637262,6.8522731 5.6480969,6.145575 6.2480469,5.671875 6.6979969,5.316595 7.2748906,5.0777762 8.0253906,5.0351562 Z M 15.40625,13.974609 c 0.59016,-9.66e-4 1.135875,0.01318 1.609375,0.05664 0.94689,0.08693 1.536672,0.329522 1.701172,0.576172 0.27437,0.41156 0.298476,0.882878 0.160156,1.361328 h -2.972656 v 2.802734 c -1.3652,0.52037 -2.821091,0.420329 -3.525391,-0.988281 -0.32863,-0.65726 -0.450869,-1.816709 -0.449218,-3.162109 2.39e-4,-0.19843 0.01348,-0.434925 0.01758,-0.640625 0.532129,-0.0029 1.061678,0.03665 1.580078,0.02539 0.65418,-0.01421 1.288706,-0.03028 1.878906,-0.03125 z"
     id="path1" />
</svg>
