<?xml version="1.0" encoding="UTF-8" standalone="no"?>
<svg
   width="24"
   height="24"
   viewBox="0 0 24 24"
   version="1.1"
   id="svg1"
   sodipodi:docname="object-straighten.svg"
   xmlns:inkscape="http://www.inkscape.org/namespaces/inkscape"
   xmlns:sodipodi="http://sodipodi.sourceforge.net/DTD/sodipodi-0.dtd"
   xmlns="http://www.w3.org/2000/svg"
   xmlns:svg="http://www.w3.org/2000/svg">
  <sodipodi:namedview
     id="namedview1"
     pagecolor="#505050"
     bordercolor="#eeeeee"
     borderopacity="1"
     inkscape:showpageshadow="0"
     inkscape:pageopacity="0"
     inkscape:pagecheckerboard="0"
     inkscape:deskcolor="#d1d1d1" />
  <defs
     id="defs1">
    <style
       id="current-color-scheme"
       type="text/css">&#10;   .ColorScheme-Text { color:#1e3f5a; } .ColorScheme-Highlight { color:#4285f4; }&#10;  </style>
  </defs>
  <path
     style="fill:#bde6fb;fill-opacity:1"
     class="ColorScheme-Text"
     d="m 16.037109,5.2070312 c -0.09483,7.665e-4 -0.15625,0.011719 -0.15625,0.011719 l -9.8437496,1.75 c -0.98481,0.17365 -0.8125,1.15625 -0.8125,1.15625 L 5.7246094,11 H 17.912109 l -0.875,-4.9687498 c -0.130237,-0.7386075 -0.715518,-0.826518 -1,-0.824219 z M 5,12 v 1 h 1 v -1 z m 2,0 v 1 h 1 v -1 z m 2,0 v 1 h 1 v -1 z m 2,0 v 1 h 1 v -1 z m 2,0 v 1 h 1 v -1 z m 2,0 v 1 h 1 v -1 z m 2,0 v 1 h 1 v -1 z m 2,0 v 1 h 1 v -1 z m -12.75,2 0.71875,3.96875 c 0.17365,0.98481 1.15625,0.8125 1.15625,0.8125 l 9.84375,-1.75 c 0,0 0.98615,-0.17149 0.8125,-1.15625 L 18.441406,14 H 6.2519531 Z"
     id="path1" />
</svg>
