<?xml version="1.0" encoding="UTF-8" standalone="no"?>
<svg
   width="24"
   height="24"
   viewBox="0 0 24 24"
   version="1.1"
   id="svg1"
   sodipodi:docname="office-chart-line-stacked.svg"
   xmlns:inkscape="http://www.inkscape.org/namespaces/inkscape"
   xmlns:sodipodi="http://sodipodi.sourceforge.net/DTD/sodipodi-0.dtd"
   xmlns="http://www.w3.org/2000/svg"
   xmlns:svg="http://www.w3.org/2000/svg">
  <sodipodi:namedview
     id="namedview1"
     pagecolor="#505050"
     bordercolor="#eeeeee"
     borderopacity="1"
     inkscape:showpageshadow="0"
     inkscape:pageopacity="0"
     inkscape:pagecheckerboard="0"
     inkscape:deskcolor="#d1d1d1" />
  <defs
     id="defs1">
    <style
       id="current-color-scheme"
       type="text/css">&#10;   .ColorScheme-Text { color:#1e3f5a; } .ColorScheme-Highlight { color:#4285f4; }&#10;  </style>
  </defs>
  <path
     style="fill:#bde6fb;fill-opacity:1"
     class="ColorScheme-Text"
     d="M 6,6 V 8.9960938 H 5.0078125 v 0.00977 H 6 V 18 H 18 V 17 H 7 V 9.0058594 h 4.46875 l -3,2.9999996 H 7.0078125 v 1 h 1.875 l 4.1230465,-4.1230465 2.123047,2.1230465 0.0059,-0.0039 0.0039,0.0039 2.828125,-2.8281246 c 0.003,0.005 -0.707031,-0.7070313 -0.707031,-0.7070313 l -2.125,2.125 -2.126954,-2.125 -0.002,0.00195 -0.002,-0.00195 -1.527343,1.5253907 H 7 V 6 Z m 5.599609,7 -1.9999996,2 h -2.59375 v 1 h 2.9999996 v -0.0078 l 0.0078,0.0078 2,-2 h 1.591797 l 2.000001,2 h 2.400389 v -1 h -1.986328 l -1.999999,-2 h -1.41406 z"
     id="path1" />
</svg>
