<?xml version="1.0" encoding="UTF-8" standalone="no"?>
<svg
   width="24"
   height="24"
   viewBox="0 0 24 24"
   version="1.1"
   id="svg1"
   sodipodi:docname="office-chart-line.svg"
   xmlns:inkscape="http://www.inkscape.org/namespaces/inkscape"
   xmlns:sodipodi="http://sodipodi.sourceforge.net/DTD/sodipodi-0.dtd"
   xmlns="http://www.w3.org/2000/svg"
   xmlns:svg="http://www.w3.org/2000/svg">
  <sodipodi:namedview
     id="namedview1"
     pagecolor="#505050"
     bordercolor="#eeeeee"
     borderopacity="1"
     inkscape:showpageshadow="0"
     inkscape:pageopacity="0"
     inkscape:pagecheckerboard="0"
     inkscape:deskcolor="#d1d1d1" />
  <defs
     id="defs1">
    <style
       id="current-color-scheme"
       type="text/css">&#10;   .ColorScheme-Text { color:#1e3f5a; } .ColorScheme-Highlight { color:#4285f4; }&#10;  </style>
  </defs>
  <path
     style="fill:#bde6fb;fill-opacity:1"
     class="ColorScheme-Text"
     d="m 6,6 v 1 1 4 1 1.626953 1 V 17 18 H 18 V 17.001953 17 15.867188 L 17.958984,15.828125 15.130859,13 l -0.0039,0.0039 L 15.121094,13 12.998047,15.123047 9.875,12 H 8.4609375 7 V 8 7 6 Z m 7,0 -4.0019531,4.001953 H 7.0019531 v 1 H 9.4121094 L 13.001953,7.4121094 15.125,9.5351562 l 0.0059,-0.00391 0.0039,0.00391 2.828125,-2.828125 C 17.965857,6.7120315 17.255859,6 17.255859,6 l -2.125,2.125 L 13.003906,6 l -0.002,0.00195 z m -6,7 h 2.4609375 l 3.5351565,3.535156 0.002,-0.002 0.0019,0.002 2.126953,-2.125 2.125,2.125 L 17.734375,17 H 7 v -1.373047 -1 z"
     id="path1" />
</svg>
