<?xml version="1.0" encoding="UTF-8" standalone="no"?>
<svg
   width="24"
   height="24"
   viewBox="0 0 24 24"
   version="1.1"
   id="svg1"
   sodipodi:docname="office-chart-polar.svg"
   xmlns:inkscape="http://www.inkscape.org/namespaces/inkscape"
   xmlns:sodipodi="http://sodipodi.sourceforge.net/DTD/sodipodi-0.dtd"
   xmlns="http://www.w3.org/2000/svg"
   xmlns:svg="http://www.w3.org/2000/svg">
  <sodipodi:namedview
     id="namedview1"
     pagecolor="#505050"
     bordercolor="#eeeeee"
     borderopacity="1"
     inkscape:showpageshadow="0"
     inkscape:pageopacity="0"
     inkscape:pagecheckerboard="0"
     inkscape:deskcolor="#d1d1d1" />
  <defs
     id="defs1">
    <style
       id="current-color-scheme"
       type="text/css">&#10;   .ColorScheme-Text { color:#1e3f5a; } .ColorScheme-Highlight { color:#4285f4; }&#10;  </style>
  </defs>
  <path
     style="fill:#bde6fb;fill-opacity:1"
     class="ColorScheme-Text"
     d="M 11.5,6 C 11.223,6 11,6.22299 11,6.5 11,6.77701 11.223,7 11.5,7 11.777,7 12,6.77701 12,6.5 12,6.22299 11.777,6 11.5,6 Z m -5,1 C 6.22299,7 6,7.22299 6,7.5 6,7.77701 6.22299,8 6.5,8 6.77701,8 7,7.77701 7,7.5 7,7.22299 6.77701,7 6.5,7 Z M 11,7 C 9.09856,7 7.4122131,7.87831 6.3144531,9.25 l 3.1289063,2.503906 C 9.8092894,11.297096 10.36652,11 11,11 v -0.5 -2 z m 0,1.5 C 11,8.77701 11.223,9 11.5,9 11.777,9 12,8.77701 12,8.5 12,8.22299 11.777,8 11.5,8 11.223,8 11,8.22299 11,8.5 Z m 0,2 C 11,10.77701 11.223,11 11.5,11 11.777,11 12,10.77701 12,10.5 12,10.22299 11.777,10 11.5,10 11.223,10 11,10.22299 11,10.5 Z m 3.708984,-3.4355469 -2.65039,4.2421879 c 0.51946,0.32486 0.870288,0.881273 0.923828,1.527343 l 4.988281,-0.416015 c -0.18555,-2.2658 -1.439659,-4.2157259 -3.261719,-5.3535159 z M 7.5,12 C 7.22299,12 7,12.22299 7,12.5 7,12.77701 7.22299,13 7.5,13 7.77701,13 8,12.77701 8,12.5 8,12.22299 7.77701,12 7.5,12 Z m 2,0 C 9.22299,12 9,12.22299 9,12.5 9,12.77701 9.22299,13 9.5,13 9.77701,13 10,12.77701 10,12.5 10,12.22299 9.77701,12 9.5,12 Z m 2,0 C 11.223,12 11,12.22299 11,12.5 11,12.77701 11.223,13 11.5,13 11.777,13 12,12.77701 12,12.5 12,12.22299 11.777,12 11.5,12 Z m 0,2 C 11.223,14 11,14.22299 11,14.5 11,14.77701 11.223,15 11.5,15 11.777,15 12,14.77701 12,14.5 12,14.22299 11.777,14 11.5,14 Z m 2,0 C 13.223,14 13,14.22299 13,14.5 13,14.77701 13.223,15 13.5,15 13.777,15 14,14.77701 14,14.5 14,14.22299 13.777,14 13.5,14 Z M 9.5839844,14.416016 7.4609375,16.539062 C 8.3646875,17.442812 9.615,18 11,18 V 16.5 15 C 10.446,15 9.9454844,14.777516 9.5839844,14.416016 Z M 11,16.5 C 11,16.77701 11.223,17 11.5,17 11.777,17 12,16.77701 12,16.5 12,16.22299 11.777,16 11.5,16 11.223,16 11,16.22299 11,16.5 Z M 15.5,16 C 15.223,16 15,16.22299 15,16.5 15,16.77701 15.223,17 15.5,17 15.777,17 16,16.77701 16,16.5 16,16.22299 15.777,16 15.5,16 Z"
     id="path1" />
</svg>
