<?xml version="1.0" encoding="UTF-8" standalone="no"?>
<svg
   width="24"
   height="24"
   viewBox="0 0 24 24"
   version="1.1"
   id="svg1"
   sodipodi:docname="office-chart-scatter.svg"
   xmlns:inkscape="http://www.inkscape.org/namespaces/inkscape"
   xmlns:sodipodi="http://sodipodi.sourceforge.net/DTD/sodipodi-0.dtd"
   xmlns="http://www.w3.org/2000/svg"
   xmlns:svg="http://www.w3.org/2000/svg">
  <sodipodi:namedview
     id="namedview1"
     pagecolor="#505050"
     bordercolor="#eeeeee"
     borderopacity="1"
     inkscape:showpageshadow="0"
     inkscape:pageopacity="0"
     inkscape:pagecheckerboard="0"
     inkscape:deskcolor="#d1d1d1" />
  <defs
     id="defs1">
    <style
       id="current-color-scheme"
       type="text/css">&#10;   .ColorScheme-Text { color:#1e3f5a; } .ColorScheme-Highlight { color:#4285f4; }&#10;  </style>
  </defs>
  <path
     style="fill:#bde6fb;fill-opacity:1"
     class="ColorScheme-Text"
     d="m 6,6 v 11 1 H 7 18 V 17 H 7 V 6 Z M 8,6 V 7 H 9 V 6 Z m 2,0 v 1 h 1 V 6 Z m 6,1 v 1 h 1 V 7 Z m 1,1 v 1 h 1 V 8 Z m 0,1 h -1 v 1 h 1 z M 16,9 V 8 H 15 V 9 Z M 8,8 V 9 H 9 V 8 Z m 2,0 v 1 h 1 V 8 Z m 3,3 v 1 h 1 v -1 z m 2,0 v 1 h 1 v -1 z m -6,2 v 1 h 1 v -1 z m 1,1 v 1 h 1 v -1 z m 0,1 H 9 v 1 h 1 z M 9,15 V 14 H 8 v 1 z m 4,-2 v 1 h 1 v -1 z m 2,0 v 1 h 1 v -1 z"
     id="path1" />
</svg>
