<?xml version="1.0" encoding="UTF-8" standalone="no"?>
<svg
   width="24"
   height="24"
   viewBox="0 0 24 24"
   version="1.1"
   id="svg2"
   sodipodi:docname="office-chart-area.svg"
   xmlns:inkscape="http://www.inkscape.org/namespaces/inkscape"
   xmlns:sodipodi="http://sodipodi.sourceforge.net/DTD/sodipodi-0.dtd"
   xmlns="http://www.w3.org/2000/svg"
   xmlns:svg="http://www.w3.org/2000/svg">
  <sodipodi:namedview
     id="namedview2"
     pagecolor="#505050"
     bordercolor="#eeeeee"
     borderopacity="1"
     inkscape:showpageshadow="0"
     inkscape:pageopacity="0"
     inkscape:pagecheckerboard="0"
     inkscape:deskcolor="#d1d1d1" />
  <defs
     id="defs1">
    <style
       id="current-color-scheme"
       type="text/css">&#10;   .ColorScheme-Text { color:#1e3f5a; } .ColorScheme-Highlight { color:#4285f4; }&#10;  </style>
  </defs>
  <path
     style="fill:#bde6fb;fill-opacity:1"
     class="ColorScheme-Text"
     d="M 6,6 V 7.5273438 H 5.0039062 v 0.00781 H 6 V 12 13 15 H 5 v 0.0078 H 6 V 18 H 18 V 17.001953 17 15.867188 L 17.958984,15.828125 15.130859,13 l -0.0039,0.0039 L 15.121094,13 12.998047,15.123047 9.875,12 H 8.4609375 7 V 7.5351562 h 4.464844 L 8.9980469,10.001953 H 7.0019531 v 1 H 9.4121094 L 13.001953,7.4121094 15.125,9.5351562 l 0.0059,-0.00391 0.0039,0.00391 2.828125,-2.828125 C 17.965891,6.7120312 17.255859,6 17.255859,6 l -2.125,2.125 L 13.003906,6 l -0.002,0.00195 L 13,6 11.472656,7.5273438 H 7 V 6 Z m 1,7 h 2.4609375 l 2.0000005,2 H 7 Z m 8.126953,1.410156 2.125,2.125 L 17.734375,17 H 7 v -1.992188 h 4.46875 l 1.527344,1.527344 0.002,-0.002 0.0019,0.002 z"
     id="path1" />
  <path
     style="opacity:0.5;fill:#bde6fb;fill-opacity:1"
     class="ColorScheme-Text"
     d="m 17.46,6.22 -2.451,2.779 -2,-3 -4,4 h -2 v 7 h 11 V 6.741 Z"
     id="path2" />
</svg>
