<?xml version="1.0" encoding="UTF-8" standalone="no"?>
<svg
   width="24"
   height="24"
   viewBox="0 0 24 24"
   version="1.1"
   id="svg2"
   sodipodi:docname="office-chart-area-focus-peak-node.svg"
   xmlns:inkscape="http://www.inkscape.org/namespaces/inkscape"
   xmlns:sodipodi="http://sodipodi.sourceforge.net/DTD/sodipodi-0.dtd"
   xmlns="http://www.w3.org/2000/svg"
   xmlns:svg="http://www.w3.org/2000/svg">
  <sodipodi:namedview
     id="namedview2"
     pagecolor="#505050"
     bordercolor="#eeeeee"
     borderopacity="1"
     inkscape:showpageshadow="0"
     inkscape:pageopacity="0"
     inkscape:pagecheckerboard="0"
     inkscape:deskcolor="#d1d1d1" />
  <defs
     id="defs1">
    <style
       id="current-color-scheme"
       type="text/css">&#10;   .ColorScheme-Text { color:#1e3f5a; } .ColorScheme-Highlight { color:#4285f4; }&#10;  </style>
  </defs>
  <path
     style="fill:#bde6fb;fill-opacity:1"
     class="ColorScheme-Text"
     d="m 6,6 v 5.996094 1 V 18 H 18 V 17 H 7 v -1 h 3.005859 v -0.0078 l 0.0078,0.0078 2,-2 h 1.591797 l 2,2 h 2.40039 v -1 h -1.986328 l -2,-2 h -1.414062 -1.00586 l -2,2 H 7 v -2.003906 h 2 v -0.0078 l 0.0078,0.0078 L 10.003906,12 H 11 12 v -1 h -1 v -1 h -1 v 1.996094 L 9.296875,11.292969 8.59375,11.996094 H 7 V 6 Z m 4,0 v 1 1 h 1 V 7 h 1 V 6 Z m 4,0 v 1 h 1 v 1 h 1 V 6 H 15 Z M 13,7.5898438 11.296875,9.2929688 12.003906,10 13,9.0039062 13.996094,10 14.703125,9.2929688 Z M 15,10 v 1 h -1 v 1 h 2 v -1 -1 z m 3,0 -1,1 h 1 z"
     id="path1" />
  <path
     style="opacity:0.5;fill:#bde6fb;fill-opacity:1"
     class="ColorScheme-Text"
     d="m 13,9 -1.996094,2 H 12 v 1 H 10.005859 L 9.0078125,13 H 5.9980469 v 4 h 5.0000001 l 2,-0.0078 5,0.0078 v -6 h -2 v 1 h -2 v -1 h 1 z"
     id="path2" />
</svg>
