<?xml version="1.0" encoding="UTF-8" standalone="no"?>
<svg
   width="24"
   height="24"
   viewBox="0 0 24 24"
   version="1.1"
   id="svg1"
   sodipodi:docname="office-chart-polar-stacked.svg"
   xmlns:inkscape="http://www.inkscape.org/namespaces/inkscape"
   xmlns:sodipodi="http://sodipodi.sourceforge.net/DTD/sodipodi-0.dtd"
   xmlns="http://www.w3.org/2000/svg"
   xmlns:svg="http://www.w3.org/2000/svg">
  <sodipodi:namedview
     id="namedview1"
     pagecolor="#505050"
     bordercolor="#eeeeee"
     borderopacity="1"
     inkscape:showpageshadow="0"
     inkscape:pageopacity="0"
     inkscape:pagecheckerboard="0"
     inkscape:deskcolor="#d1d1d1" />
  <defs
     id="defs1">
    <style
       id="current-color-scheme"
       type="text/css">&#10;   .ColorScheme-Text { color:#1e3f5a; } .ColorScheme-Highlight { color:#4285f4; }&#10;  </style>
  </defs>
  <path
     style="fill:#bde6fb;fill-opacity:1"
     class="ColorScheme-Text"
     d="m 12,6 a 6.0000019,6.0000148 0 0 0 -0.867187,0.070312 6.0000019,6.0000148 0 0 0 -0.558594,0.109375 6,6 0 0 0 -0.09961,0.021484 c -0.02565,0.00671 -0.05086,0.014056 -0.07617,0.021484 a 6.0000019,6.0000148 0 0 0 -0.396485,0.1269544 6,6 0 0 0 -0.1445311,0.048828 c -0.033653,0.012854 -0.066658,0.026827 -0.099609,0.041016 a 6.0000019,6.0000148 0 0 0 -0.28125,0.125 6,6 0 0 0 -0.1816406,0.082031 c -0.024001,0.012137 -0.047051,0.025769 -0.070312,0.039063 A 6.0000019,6.0000148 0 0 0 8.9355469,6.8496094 6,6 0 0 0 8.7578125,6.9511719 6,6 0 0 0 8.6816406,7.0058594 6.0000019,6.0000148 0 0 0 8.4394531,7.1777344 6,6 0 0 0 8.2695312,7.3007812 6,6 0 0 0 8.2070312,7.3554688 6.0000019,6.0000148 0 0 0 7.9453125,7.5878906 C 7.89408,7.6329269 7.8416512,7.6766439 7.7929688,7.7246094 A 6,6 0 0 0 7.7597656,7.7597656 6.0000019,6.0000148 0 0 0 7.4765625,8.0703125 C 7.440745,8.1100346 7.4031281,8.1481436 7.3691406,8.1894531 A 6,6 0 0 0 7.3574219,8.2050781 6.0000019,6.0000148 0 0 0 6,12 6.0000019,6.0000148 0 0 0 12,18 6.0000019,6.0000148 0 0 0 18,12 6.0000019,6.0000148 0 0 0 17.558594,9.7578125 6.0000019,6.0000148 0 0 0 12,6 Z m 0,1 a 5,5 0 0 1 2.646484,0.765625 l -1.58789,2.541016 c 0.51946,0.32486 0.870288,0.881273 0.923828,1.527343 l 2.998047,-0.25 A 5,5 0 0 1 17,12 5,5 0 0 1 12,17 V 15.5 14 c -0.554,0 -1.054516,-0.222484 -1.416016,-0.583984 L 8.4667969,15.533203 A 5,5 0 0 1 7,12 5,5 0 0 1 8.0996094,8.8789062 L 10.443359,10.753906 C 10.809289,10.297096 11.36652,10 12,10 v -0.5 -2 z m -3.4355469,8.625 c 0.1812526,0.171753 0.3725668,0.333397 0.578125,0.476562 A 5,5 0 0 1 8.5644531,15.625 Z m 0.734375,0.576172 c 0.2137065,0.137308 0.4373125,0.261264 0.671875,0.365234 a 5,5 0 0 1 -0.671875,-0.365234 z m 0.8300779,0.43164 c 0.264816,0.106541 0.538906,0.193497 0.824219,0.253907 a 5,5 0 0 1 -0.824219,-0.253907 z"
     id="path1" />
</svg>
