<?xml version="1.0" encoding="UTF-8" standalone="no"?>
<svg
   width="24"
   height="24"
   viewBox="0 0 24 24"
   version="1.1"
   id="svg1"
   sodipodi:docname="office-chart-ring.svg"
   xmlns:inkscape="http://www.inkscape.org/namespaces/inkscape"
   xmlns:sodipodi="http://sodipodi.sourceforge.net/DTD/sodipodi-0.dtd"
   xmlns="http://www.w3.org/2000/svg"
   xmlns:svg="http://www.w3.org/2000/svg">
  <sodipodi:namedview
     id="namedview1"
     pagecolor="#505050"
     bordercolor="#eeeeee"
     borderopacity="1"
     inkscape:showpageshadow="0"
     inkscape:pageopacity="0"
     inkscape:pagecheckerboard="0"
     inkscape:deskcolor="#d1d1d1" />
  <defs
     id="defs1">
    <style
       id="current-color-scheme"
       type="text/css">&#10;   .ColorScheme-Text { color:#1e3f5a; } .ColorScheme-Highlight { color:#4285f4; }&#10;  </style>
  </defs>
  <path
     style="fill:#bde6fb;fill-opacity:1"
     class="ColorScheme-Text"
     d="m 12,6 c -3.324,0 -6,2.676 -6,6 0,3.324 2.676,6 6,6 3.324,0 6,-2.676 6,-6 0,-0.88178 -0.19248,-1.71603 -0.53125,-2.46875 L 16.6875,10.3125 C 16.87723,10.84177 17,11.40386 17,12 c 0,2.77 -2.23,5 -5,5 -2.77,0 -5,-2.23 -5,-5 0,-2.77 2.23,-5 5,-5 1.64157,0 3.079714,0.7951356 3.990234,2.0097656 L 16.712891,8.2871094 C 15.616001,6.8947094 13.91806,6 12,6 Z m 0,2 C 10.892,8 9.8929219,8.4469219 9.1699219,9.1699219 L 9.8769531,9.8769531 C 10.419203,9.3347031 11.169,9 12,9 c 1.662,0 3,1.338 3,3 0,1.662 -1.338,3 -3,3 -1.662,0 -3,-1.338 -3,-3 0,-0.30185 0.056502,-0.586928 0.1386719,-0.861328 l -0.78125,-0.78125 C 8.1318319,10.859002 8,11.41251 8,12 c 0,2.216 1.784,4 4,4 2.216,0 4,-1.784 4,-4 0,-2.216 -1.784,-4 -4,-4 z m 0,2 a 2,2 0 0 0 -2,2 2,2 0 0 0 2,2 2,2 0 0 0 1.935547,-1.5 H 12.863281 A 1,1 0 0 1 12,13 a 1,1 0 0 1 -1,-1 1,1 0 0 1 1,-1 1,1 0 0 1 0.865234,0.5 h 1.06836 A 2,2 0 0 0 12,10 Z"
     id="path1" />
</svg>
