<?xml version="1.0" encoding="UTF-8" standalone="no"?>
<svg
   width="24"
   height="24"
   version="1.1"
   id="svg1"
   sodipodi:docname="password-generator.svg"
   xmlns:inkscape="http://www.inkscape.org/namespaces/inkscape"
   xmlns:sodipodi="http://sodipodi.sourceforge.net/DTD/sodipodi-0.dtd"
   xmlns:xlink="http://www.w3.org/1999/xlink"
   xmlns="http://www.w3.org/2000/svg"
   xmlns:svg="http://www.w3.org/2000/svg">
  <sodipodi:namedview
     id="namedview1"
     pagecolor="#505050"
     bordercolor="#eeeeee"
     borderopacity="1"
     inkscape:showpageshadow="0"
     inkscape:pageopacity="0"
     inkscape:pagecheckerboard="0"
     inkscape:deskcolor="#d1d1d1" />
  <defs
     id="defs1">
    <linearGradient
       id="swatch1"
       inkscape:swatch="solid">
      <stop
         style="stop-color:#bde6fb;stop-opacity:1;"
         offset="0"
         id="stop1" />
    </linearGradient>
    <style
       id="current-color-scheme"
       type="text/css">&#10;   .ColorScheme-Text { color:#1e3f5a; } .ColorScheme-Highlight { color:#4285f4; }&#10;  </style>
    <linearGradient
       inkscape:collect="always"
       xlink:href="#swatch1"
       id="linearGradient1"
       x1="1"
       y1="14"
       x2="15"
       y2="14"
       gradientUnits="userSpaceOnUse" />
    <linearGradient
       inkscape:collect="always"
       xlink:href="#swatch1"
       id="linearGradient2"
       gradientUnits="userSpaceOnUse"
       x1="1"
       y1="14"
       x2="15"
       y2="14" />
  </defs>
  <g
     transform="translate(4,-2)"
     id="g1"
     style="fill:url(#linearGradient1)">
    <path
       style="fill:url(#linearGradient2)"
       class="ColorScheme-Text"
       d="M 2.5,7 C 1.669,7 1,7.669 1,8.5 v 11 C 1,20.331 1.669,21 2.5,21 h 11 C 14.331,21 15,20.331 15,19.5 V 8.5 C 15,7.669 14.331,7 13.5,7 Z m 9,2 C 12.328,9 13,9.6716 13,10.5 13,11.328 12.328,12 11.5,12 10.672,12 10,11.328 10,10.5 10,9.6716 10.672,9 11.5,9 Z m -7,7 C 5.3284,16 6,16.672 6,17.5 6,18.328 5.3284,19 4.5,19 3.6716,19 3,18.328 3,17.5 3,16.672 3.6716,16 4.5,16 Z"
       id="path1" />
  </g>
</svg>
