<?xml version="1.0" encoding="UTF-8" standalone="no"?>
<svg
   width="24"
   height="24"
   viewBox="0 0 24 24"
   version="1.1"
   id="svg1"
   sodipodi:docname="path-effect-parameter-next.svg"
   xmlns:inkscape="http://www.inkscape.org/namespaces/inkscape"
   xmlns:sodipodi="http://sodipodi.sourceforge.net/DTD/sodipodi-0.dtd"
   xmlns="http://www.w3.org/2000/svg"
   xmlns:svg="http://www.w3.org/2000/svg">
  <sodipodi:namedview
     id="namedview1"
     pagecolor="#505050"
     bordercolor="#eeeeee"
     borderopacity="1"
     inkscape:showpageshadow="0"
     inkscape:pageopacity="0"
     inkscape:pagecheckerboard="0"
     inkscape:deskcolor="#d1d1d1" />
  <defs
     id="defs1">
    <style
       id="current-color-scheme"
       type="text/css">&#10;   .ColorScheme-Text { color:#1e3f5a; } .ColorScheme-Highlight { color:#4285f4; }&#10;  </style>
  </defs>
  <path
     style="fill:#bde6fb;fill-opacity:1"
     class="ColorScheme-Text"
     d="M 18.5,5 A 1.5,1.5 0 0 0 17.060547,6.0839844 C 11.729447,7.1856844 7.0174063,10.742206 6.0664062,17.066406 A 1.5,1.5 0 0 0 5,18.5 1.5,1.5 0 0 0 6.5,20 1.5,1.5 0 0 0 8,18.5 1.5,1.5 0 0 0 7.0703125,17.113281 C 7.9802125,11.324681 12.1831,8.15235 17.125,7.09375 A 1.5,1.5 0 0 0 18.5,8 1.5,1.5 0 0 0 20,6.5 1.5,1.5 0 0 0 18.5,5 Z M 13,11 V 15.5 20 L 16.5,17.75 19,16.142578 V 20 h 1 V 15.5 11 h -1 v 3.857422 L 16.5,13.25 Z"
     id="path1" />
</svg>
