<?xml version="1.0" encoding="UTF-8" standalone="no"?>
<svg
   width="24"
   height="24"
   viewBox="0 0 24 24"
   version="1.1"
   id="svg2"
   sodipodi:docname="path-clip-edit.svg"
   xmlns:inkscape="http://www.inkscape.org/namespaces/inkscape"
   xmlns:sodipodi="http://sodipodi.sourceforge.net/DTD/sodipodi-0.dtd"
   xmlns="http://www.w3.org/2000/svg"
   xmlns:svg="http://www.w3.org/2000/svg">
  <sodipodi:namedview
     id="namedview2"
     pagecolor="#505050"
     bordercolor="#eeeeee"
     borderopacity="1"
     inkscape:showpageshadow="0"
     inkscape:pageopacity="0"
     inkscape:pagecheckerboard="0"
     inkscape:deskcolor="#d1d1d1" />
  <defs
     id="defs1">
    <style
       id="current-color-scheme"
       type="text/css">&#10;   .ColorScheme-Text { color:#1e3f5a; } .ColorScheme-Highlight { color:#4285f4; }&#10;  </style>
  </defs>
  <path
     style="fill:#bde6fb;fill-opacity:1"
     class="ColorScheme-Text"
     d="m 18.501953,4.9472656 c -0.8272,0 -1.498047,0.67157 -1.498047,1.5 0,0.82843 0.670817,1.5 1.498047,1.5 0.8272,0 1.498047,-0.67157 1.498047,-1.5 0,-0.82843 -0.670817,-1.5 -1.498047,-1.5 z m -6.810547,4.4394532 c -0.2735,0.1978999 -0.537468,0.4064531 -0.792968,0.6269532 1.4703,1.411 2.959931,2.289481 4.394531,2.550781 1.512,0.2753 2.959547,-0.160572 4.060547,-1.263672 L 18.648438,10.59375 c -0.895,0.8969 -1.941782,1.211028 -3.175782,0.986328 -1.141,-0.2077 -2.44655,-0.941259 -3.78125,-2.1933592 z m -1.326172,1.1074222 c -0.23552,0.23065 -0.4561746,0.475845 -0.6718746,0.728515 1.3997996,1.4258 2.2839066,2.924819 2.5039066,4.136719 0.22439,1.236 -0.08888,2.284841 -0.984375,3.181641 l 0.705078,0.707031 c 1.1015,-1.103 1.536518,-2.554359 1.261719,-4.068359 -0.2704,-1.489101 -1.308954,-3.157147 -2.814454,-4.685547 z m -3.8457028,6.453125 c -0.8271999,0 -1.4980468,0.67157 -1.4980468,1.5 0,0.82843 0.6708169,1.5 1.4980468,1.5 0.8272,0 1.4980469,-0.67157 1.4980469,-1.5 0,-0.82843 -0.6708169,-1.5 -1.4980469,-1.5 z"
     id="path1" />
  <path
     style="opacity:0.3;fill:#bde6fb;fill-opacity:1"
     class="ColorScheme-Text"
     d="m 17.070312,6.0292969 c -5.327099,1.1006 -10.0373745,4.6577811 -10.9843745,10.9882811 0.13845,-0.0423 0.2813238,-0.07227 0.4335937,-0.07227 0.2018,0 0.3946226,0.04082 0.5703126,0.113282 0.42877,-2.7319 1.5878437,-4.8809 3.2148442,-6.5 0.02107,-0.02112 0.03928,-0.04552 0.06055,-0.06641 0,0 0.0019,0.002 0.0019,0.002 1.812399,-1.7741002 4.185765,-2.9003252 6.759765,-3.4531252 -0.078,-0.1823 -0.123047,-0.38255 -0.123047,-0.59375 0,-0.14598 0.02757,-0.2845487 0.06641,-0.4179687 z"
     id="path2" />
</svg>
