<?xml version="1.0" encoding="UTF-8" standalone="no"?>
<svg
   width="24"
   height="24"
   viewBox="0 0 24 24"
   version="1.1"
   id="svg1"
   sodipodi:docname="path-mask-edit.svg"
   xmlns:inkscape="http://www.inkscape.org/namespaces/inkscape"
   xmlns:sodipodi="http://sodipodi.sourceforge.net/DTD/sodipodi-0.dtd"
   xmlns="http://www.w3.org/2000/svg"
   xmlns:svg="http://www.w3.org/2000/svg">
  <sodipodi:namedview
     id="namedview1"
     pagecolor="#505050"
     bordercolor="#eeeeee"
     borderopacity="1"
     inkscape:showpageshadow="0"
     inkscape:pageopacity="0"
     inkscape:pagecheckerboard="0"
     inkscape:deskcolor="#d1d1d1" />
  <defs
     id="defs1">
    <style
       id="current-color-scheme"
       type="text/css">&#10;   .ColorScheme-Text { color:#1e3f5a; } .ColorScheme-Highlight { color:#4285f4; }&#10;  </style>
  </defs>
  <path
     style="fill:#bde6fb;fill-opacity:1"
     class="ColorScheme-Text"
     d="m 18.501953,4.9472656 c -0.682,0 -1.24964,0.4581613 -1.431641,1.0820313 -5.325999,1.1005 -10.0363745,4.6579811 -10.9843745,10.9882811 -0.6139,0.187 -1.0644531,0.753688 -1.0644531,1.429688 0,0.829 0.6708469,1.5 1.4980468,1.5 0.8272,0 1.4980469,-0.671 1.4980469,-1.5 0,-0.626 -0.3832344,-1.162719 -0.9277343,-1.386719 0.3728,-2.376 1.2989156,-4.309191 2.6035156,-5.837891 1.3997996,1.4257 2.2839066,2.925719 2.5039066,4.136719 0.2244,1.236 -0.08888,2.284641 -0.984375,3.181641 l 0.705078,0.707031 c 1.1014,-1.103 1.536619,-2.554359 1.261719,-4.068359 -0.2702,-1.488701 -1.3081,-3.155794 -2.8125,-4.683594 0.1711,-0.1676 0.352403,-0.324269 0.533203,-0.480469 1.4696,1.4099 2.958478,2.287628 4.392578,2.548828 1.512,0.2752 2.958547,-0.160572 4.060547,-1.263672 L 18.648438,10.59375 c -0.895,0.8968 -1.943735,1.211028 -3.177735,0.986328 -1.141,-0.2078 -2.444497,-0.941159 -3.779297,-2.1933592 1.5823,-1.1458 3.447547,-1.9188032 5.435547,-2.3457032 0.23,0.5332 0.758,0.90625 1.375,0.90625 0.827,0 1.498047,-0.6716 1.498047,-1.5 0,-0.8285 -0.671047,-1.5 -1.498047,-1.5 z"
     id="path1" />
</svg>
