<?xml version="1.0" encoding="UTF-8" standalone="no"?>
<svg
   width="24"
   height="24"
   viewBox="0 0 24 24"
   version="1.1"
   id="svg1"
   sodipodi:docname="pipe.svg"
   xmlns:inkscape="http://www.inkscape.org/namespaces/inkscape"
   xmlns:sodipodi="http://sodipodi.sourceforge.net/DTD/sodipodi-0.dtd"
   xmlns="http://www.w3.org/2000/svg"
   xmlns:svg="http://www.w3.org/2000/svg">
  <sodipodi:namedview
     id="namedview1"
     pagecolor="#505050"
     bordercolor="#eeeeee"
     borderopacity="1"
     inkscape:showpageshadow="0"
     inkscape:pageopacity="0"
     inkscape:pagecheckerboard="0"
     inkscape:deskcolor="#d1d1d1" />
  <defs
     id="defs1">
    <style
       id="current-color-scheme"
       type="text/css">&#10;   .ColorScheme-Text { color:#1e3f5a; } .ColorScheme-Highlight { color:#4285f4; }&#10;  </style>
  </defs>
  <path
     style="fill:#bde6fb;fill-opacity:1"
     class="ColorScheme-Text"
     d="m 16,4.0039062 c -1.6568,0 -3,1.3432001 -3,3 0,0.23127 0.04425,0.4400101 0.09375,0.65625 l -3.21875,2 C 9.36159,9.2488863 8.7091,9.0039062 8,9.0039062 c -1.6568,0 -3,1.3431998 -3,2.9999998 0,1.6568 1.3432,3 3,3 0.70904,0 1.3615,-0.24498 1.875,-0.65625 l 3.21875,2 C 13.04425,16.563896 13,16.772636 13,17.003906 c 0,1.6568 1.3432,3 3,3 1.6568,0 3,-1.3432 3,-3 0,-1.6568 -1.3432,-3 -3,-3 -0.70904,0 -1.3615,0.24498 -1.875,0.65625 l -3.21875,-2 C 10.95575,12.443916 11,12.235176 11,12.003906 c 0,-0.23127 -0.04425,-0.44001 -0.09375,-0.65625 L 14.125,9.3476562 c 0.51341,0.41127 1.1659,0.6562498 1.875,0.6562498 1.6568,0 3,-1.3431998 3,-2.9999998 0,-1.6567999 -1.3432,-3 -3,-3 z"
     id="path1" />
</svg>
