<?xml version="1.0" encoding="UTF-8" standalone="no"?>
<svg
   width="24"
   height="24"
   viewBox="0 0 24 24"
   version="1.1"
   id="svg1"
   sodipodi:docname="quickopen-function.svg"
   xmlns:inkscape="http://www.inkscape.org/namespaces/inkscape"
   xmlns:sodipodi="http://sodipodi.sourceforge.net/DTD/sodipodi-0.dtd"
   xmlns="http://www.w3.org/2000/svg"
   xmlns:svg="http://www.w3.org/2000/svg">
  <sodipodi:namedview
     id="namedview1"
     pagecolor="#505050"
     bordercolor="#eeeeee"
     borderopacity="1"
     inkscape:showpageshadow="0"
     inkscape:pageopacity="0"
     inkscape:pagecheckerboard="0"
     inkscape:deskcolor="#d1d1d1" />
  <defs
     id="defs1">
    <style
       id="current-color-scheme"
       type="text/css">&#10;   .ColorScheme-Text { color:#1e3f5a; } .ColorScheme-Highlight { color:#4285f4; }&#10;  </style>
  </defs>
  <path
     style="fill:#bde6fb;fill-opacity:1"
     class="ColorScheme-Text"
     d="m 10.234375,5 -0.15625,1.84375 A 5.5495,5.5 0 0 0 8.4570312,7.7734375 L 6.765625,6.984375 5,10.015625 6.5351562,11.072266 A 5.5495,5.5 0 0 0 6.4511719,12 5.5495,5.5 0 0 0 6.53125,12.931641 L 5,13.984375 l 1.765625,3.03125 1.6875,-0.787109 a 5.5495,5.5 0 0 0 1.625,0.923828 L 10.234375,19 h 3.53125 l 0.15625,-1.84375 a 5.5495,5.5 0 0 0 1.621094,-0.929688 L 17.234375,17.015625 19,13.984375 17.464844,12.927734 A 5.5495,5.5 0 0 0 17.548828,12 5.5495,5.5 0 0 0 17.46875,11.068359 L 19,10.015625 l -1.765625,-3.03125 -1.6875,0.7871094 a 5.5495,5.5 0 0 0 -1.625,-0.9238282 L 13.765625,5 Z M 13,9 12.300781,11.099609 15,12 11,15 11.699219,12.900391 9,12 Z"
     id="path1" />
</svg>
