<?xml version="1.0" encoding="UTF-8" standalone="no"?>
<svg
   width="24"
   height="24"
   viewBox="0 0 24 24"
   version="1.1"
   id="svg1"
   sodipodi:docname="raindrop.svg"
   xmlns:inkscape="http://www.inkscape.org/namespaces/inkscape"
   xmlns:sodipodi="http://sodipodi.sourceforge.net/DTD/sodipodi-0.dtd"
   xmlns="http://www.w3.org/2000/svg"
   xmlns:svg="http://www.w3.org/2000/svg">
  <sodipodi:namedview
     id="namedview1"
     pagecolor="#505050"
     bordercolor="#eeeeee"
     borderopacity="1"
     inkscape:showpageshadow="0"
     inkscape:pageopacity="0"
     inkscape:pagecheckerboard="0"
     inkscape:deskcolor="#d1d1d1" />
  <defs
     id="defs1">
    <style
       id="current-color-scheme"
       type="text/css">&#10;   .ColorScheme-Text { color:#1e3f5a; } .ColorScheme-Highlight { color:#4285f4; }&#10;  </style>
  </defs>
  <path
     style="fill:#bde6fb;fill-opacity:1"
     class="ColorScheme-Text"
     d="M 12,4 C 11.51354,5.7025 10.3374,7.17195 9.8125,8.34375 9.6288,8.69215 9.5,9.07735 9.5,9.5 9.5,10.885 10.615,12 12,12 13.385,12 14.5,10.885 14.5,9.5 14.5,9.0773 14.4025,8.6921 14.21875,8.34375 13.69384,7.17195 12.4865,5.7026 12,4 Z M 7.5,12 C 7.01354,13.7025 5.8374,15.17195 5.3125,16.34375 5.1288,16.69215 5,17.07735 5,17.5 5,18.885 6.115,20 7.5,20 8.885,20 10,18.885 10,17.5 10,17.0773 9.9025,16.6921 9.71875,16.34375 9.19384,15.17195 7.9865,13.7026 7.5,12 Z m 9,0 c -0.48646,1.7025 -1.6626,3.17195 -2.1875,4.34375 C 14.1288,16.69215 14,17.07735 14,17.5 14,18.885 15.115,20 16.5,20 17.885,20 19,18.885 19,17.5 19,17.0773 18.9025,16.6921 18.71875,16.34375 18.19384,15.17195 16.9865,13.7026 16.5,12 Z"
     id="path1" />
</svg>
