<?xml version="1.0" encoding="UTF-8" standalone="no"?>
<svg
   width="24"
   height="24"
   viewBox="0 0 24 24"
   version="1.1"
   id="svg1"
   sodipodi:docname="remove-link.svg"
   xmlns:inkscape="http://www.inkscape.org/namespaces/inkscape"
   xmlns:sodipodi="http://sodipodi.sourceforge.net/DTD/sodipodi-0.dtd"
   xmlns="http://www.w3.org/2000/svg"
   xmlns:svg="http://www.w3.org/2000/svg">
  <sodipodi:namedview
     id="namedview1"
     pagecolor="#505050"
     bordercolor="#eeeeee"
     borderopacity="1"
     inkscape:showpageshadow="0"
     inkscape:pageopacity="0"
     inkscape:pagecheckerboard="0"
     inkscape:deskcolor="#d1d1d1" />
  <defs
     id="defs1">
    <style
       id="current-color-scheme"
       type="text/css">&#10;   .ColorScheme-Text { color:#1e3f5a; } .ColorScheme-Highlight { color:#4285f4; }&#10;  </style>
  </defs>
  <path
     style="fill:#bde6fb;fill-opacity:1"
     class="ColorScheme-Text"
     d="M 9,4 C 6.23,4 4,6.23 4,9 c 0,2.77 2.23,5 5,5 h 2 V 12 H 9 C 7.338,12 6,10.662 6,9 6,7.338 7.338,6 9,6 h 2 V 4 Z m 4,0 v 2 h 2 c 1.662,0 3,1.338 3,3 0,1.662 -1.338,3 -3,3 h -2 v 2 h 2 c 2.77,0 5,-2.23 5,-5 C 20,6.23 17.77,4 15,4 Z M 9,8 v 2 h 6 V 8 Z M 16.414062,15.050781 15,16.464844 16.060547,17.525391 15,18.585938 16.414062,20 17.474609,18.939453 18.535156,20 l 1.414063,-1.414062 -1.060547,-1.060547 1.060547,-1.060547 -1.414063,-1.414063 -1.060547,1.060547 z"
     id="path1" />
</svg>
