<?xml version="1.0" encoding="UTF-8" standalone="no"?>
<svg
   width="24"
   height="24"
   viewBox="0 0 24 24"
   version="1.1"
   id="svg1"
   sodipodi:docname="resource-calendar-child-insert.svg"
   xmlns:inkscape="http://www.inkscape.org/namespaces/inkscape"
   xmlns:sodipodi="http://sodipodi.sourceforge.net/DTD/sodipodi-0.dtd"
   xmlns="http://www.w3.org/2000/svg"
   xmlns:svg="http://www.w3.org/2000/svg">
  <sodipodi:namedview
     id="namedview1"
     pagecolor="#505050"
     bordercolor="#eeeeee"
     borderopacity="1"
     inkscape:showpageshadow="0"
     inkscape:pageopacity="0"
     inkscape:pagecheckerboard="0"
     inkscape:deskcolor="#d1d1d1" />
  <defs
     id="defs1">
    <style
       id="current-color-scheme"
       type="text/css">&#10;   .ColorScheme-Text { color:#1e3f5a; } .ColorScheme-Highlight { color:#4285f4; }&#10;  </style>
  </defs>
  <path
     style="fill:#bde6fb;fill-opacity:1"
     class="ColorScheme-Text"
     d="M 7,5 C 4.75,5 5,7 5,7 v 4 H 7 V 7 h 10 v 4 h 2 V 7 C 19,5 17,5 17,5 Z m 1,3 v 2 h 2 V 8 Z m 3,0 v 2 h 2 V 8 Z m 3,0 v 2 h 2 V 8 Z m -7,5 v 2 H 5 v 2 h 2 v 2 h 2 v -2 h 2 V 15 H 9 v -2 z m 6,0 c -0.554,0 -1,0.534619 -1,1.199219 v 3.601562 C 12,18.465781 12.446,19 13,19 h 5 c 0.554,0 1,-0.534219 1,-1.199219 V 14.199219 C 19,13.534619 18.554,13 18,13 Z"
     id="path1" />
</svg>
