<?xml version="1.0" encoding="UTF-8" standalone="no"?>
<svg
   width="24"
   height="24"
   viewBox="0 0 24 24"
   version="1.1"
   id="svg1"
   sodipodi:docname="resource-calendar-insert.svg"
   xmlns:inkscape="http://www.inkscape.org/namespaces/inkscape"
   xmlns:sodipodi="http://sodipodi.sourceforge.net/DTD/sodipodi-0.dtd"
   xmlns="http://www.w3.org/2000/svg"
   xmlns:svg="http://www.w3.org/2000/svg">
  <sodipodi:namedview
     id="namedview1"
     pagecolor="#505050"
     bordercolor="#eeeeee"
     borderopacity="1"
     inkscape:showpageshadow="0"
     inkscape:pageopacity="0"
     inkscape:pagecheckerboard="0"
     inkscape:deskcolor="#d1d1d1" />
  <defs
     id="defs1">
    <style
       id="current-color-scheme"
       type="text/css">&#10;   .ColorScheme-Text { color:#1e3f5a; } .ColorScheme-Highlight { color:#4285f4; }&#10;  </style>
  </defs>
  <path
     style="fill:#bde6fb;fill-opacity:1"
     class="ColorScheme-Text"
     d="m 7.0039062,5 c -2.25,0 -1.9999999,2 -2,2 V 19 H 11 V 17 H 7.0039062 V 7 h 9.9999998 v 4 H 19 l 0.0039,-4 c 0,-2 -2,-2 -2,-2 z m 1,3 v 2 H 10.003906 V 8 Z m 2.9999998,0 v 2 h 2 V 8 Z m 3,0 v 2 h 2 V 8 Z m -5.9999998,3 v 2 H 10.003906 V 11 Z M 15,13 v 2 h -2 v 2 h 2 v 2 h 2 v -2 h 2 v -2 h -2 v -2 z m -6.9960938,1 v 2 h 1.9999998 v -2 z"
     id="path1" />
</svg>
