<?xml version="1.0" encoding="UTF-8" standalone="no"?>
<svg
   width="24"
   height="24"
   viewBox="0 0 24 24"
   version="1.1"
   id="svg1"
   sodipodi:docname="run-build.svg"
   xmlns:inkscape="http://www.inkscape.org/namespaces/inkscape"
   xmlns:sodipodi="http://sodipodi.sourceforge.net/DTD/sodipodi-0.dtd"
   xmlns="http://www.w3.org/2000/svg"
   xmlns:svg="http://www.w3.org/2000/svg">
  <sodipodi:namedview
     id="namedview1"
     pagecolor="#505050"
     bordercolor="#eeeeee"
     borderopacity="1"
     inkscape:showpageshadow="0"
     inkscape:pageopacity="0"
     inkscape:pagecheckerboard="0"
     inkscape:deskcolor="#d1d1d1" />
  <defs
     id="defs1">
    <style
       id="current-color-scheme"
       type="text/css">&#10;   .ColorScheme-Text { color:#1e3f5a; } .ColorScheme-Highlight { color:#4285f4; }&#10;  </style>
  </defs>
  <path
     style="fill:#bde6fb;fill-opacity:1"
     class="ColorScheme-Text"
     d="M 11,5 V 6.0859375 A 6,6 0 0 0 8.5292969,7.1152344 L 7.7578125,6.34375 6.34375,7.7578125 7.1132812,8.5273438 A 6,6 0 0 0 6.0898438,11 H 5 v 2 h 1.0859375 a 6,6 0 0 0 1.0292969,2.470703 L 6.34375,16.242188 7.7578125,17.65625 8.5273438,16.886719 A 6,6 0 0 0 11,17.910156 V 19 h 2 v -1.085938 a 6,6 0 0 0 2.470703,-1.029296 l 0.771485,0.771484 1.414062,-1.414062 -0.769531,-0.769532 A 6,6 0 0 0 17.910156,13 H 19 V 11 H 17.914062 A 6,6 0 0 0 16.884766,8.5292969 L 17.65625,7.7578125 16.242188,6.34375 15.472656,7.1132812 A 6,6 0 0 0 13,6.0898438 V 5 Z m -1,5 4,2 -4,2 z"
     id="path1" />
</svg>
