<?xml version="1.0" encoding="UTF-8" standalone="no"?>
<svg
   width="24"
   height="24"
   viewBox="0 0 24 24"
   version="1.1"
   id="svg1"
   sodipodi:docname="run-build-clean.svg"
   xmlns:inkscape="http://www.inkscape.org/namespaces/inkscape"
   xmlns:sodipodi="http://sodipodi.sourceforge.net/DTD/sodipodi-0.dtd"
   xmlns="http://www.w3.org/2000/svg"
   xmlns:svg="http://www.w3.org/2000/svg">
  <sodipodi:namedview
     id="namedview1"
     pagecolor="#505050"
     bordercolor="#eeeeee"
     borderopacity="1"
     inkscape:showpageshadow="0"
     inkscape:pageopacity="0"
     inkscape:pagecheckerboard="0"
     inkscape:deskcolor="#d1d1d1" />
  <defs
     id="defs1">
    <style
       id="current-color-scheme"
       type="text/css">&#10;   .ColorScheme-Text { color:#1e3f5a; } .ColorScheme-Highlight { color:#4285f4; }&#10;  </style>
  </defs>
  <path
     style="fill:#bde6fb;fill-opacity:1"
     class="ColorScheme-Text"
     d="m 11,5 v 1.0859375 c -0.8906,0.1527 -1.7351031,0.5045969 -2.4707031,1.0292969 L 7.7578125,6.34375 6.34375,7.7578125 7.1132812,8.5273438 C 6.5902812,9.2640437 6.2405438,10.1092 6.0898438,11 H 5 v 2 h 1.0859375 c 0.1527,0.8906 0.5045969,1.734703 1.0292969,2.470703 L 6.34375,16.242188 7.7578125,17.65625 8.5273438,16.886719 C 9.2640437,17.409719 10.1092,17.760156 11,17.910156 V 19 h 2 v -1.085938 c 0.8906,-0.153 1.734703,-0.504296 2.470703,-1.029296 l 0.771485,0.771484 1.414062,-1.414062 -0.769531,-0.769532 C 17.409719,14.735656 17.760156,13.8908 17.910156,13 H 19 v -2 h -1.085938 c -0.153,-0.8906 -0.504296,-1.7351031 -1.029296,-2.4707031 L 17.65625,7.7578125 16.242188,6.34375 15.472656,7.1132812 C 14.735656,6.5902812 13.8908,6.2405438 13,6.0898438 V 5 Z m 0,5 h 4 v 4 H 11 L 9,12 Z"
     id="path1" />
</svg>
