<?xml version="1.0" encoding="UTF-8" standalone="no"?>
<svg
   width="24"
   height="24"
   viewBox="0 0 24 24"
   version="1.1"
   id="svg1"
   sodipodi:docname="run-build-configure.svg"
   xmlns:inkscape="http://www.inkscape.org/namespaces/inkscape"
   xmlns:sodipodi="http://sodipodi.sourceforge.net/DTD/sodipodi-0.dtd"
   xmlns="http://www.w3.org/2000/svg"
   xmlns:svg="http://www.w3.org/2000/svg">
  <sodipodi:namedview
     id="namedview1"
     pagecolor="#505050"
     bordercolor="#eeeeee"
     borderopacity="1"
     inkscape:showpageshadow="0"
     inkscape:pageopacity="0"
     inkscape:pagecheckerboard="0"
     inkscape:deskcolor="#d1d1d1" />
  <defs
     id="defs1">
    <style
       id="current-color-scheme"
       type="text/css">&#10;   .ColorScheme-Text { color:#1e3f5a; } .ColorScheme-Highlight { color:#4285f4; }&#10;  </style>
  </defs>
  <path
     style="fill:#bde6fb;fill-opacity:1"
     class="ColorScheme-Text"
     d="M 11,5 V 6.0859375 C 10.10944,6.2386175 9.2648969,6.5904744 8.5292969,7.1152344 L 7.7578125,6.34375 6.34375,7.7578125 7.1132812,8.5273438 C 6.5903313,9.2640038 6.2404537,10.1092 6.0898438,11 H 5 v 2 h 1.0859375 c 0.15268,0.89056 0.5045369,1.735103 1.0292969,2.470703 L 6.34375,16.242188 7.7578125,17.65625 8.5273438,16.886719 C 9.2640037,17.409669 10.1092,17.759546 11,17.910156 V 19 h 2 v -1.085938 c 0.89056,-0.15268 1.735103,-0.504536 2.470703,-1.029296 l 0.771485,0.771484 1.414062,-1.414062 -0.769531,-0.769532 C 17.409669,14.735996 17.759546,13.8908 17.910156,13 H 19 V 11 H 17.914062 C 17.761383,10.10944 17.409526,9.2648969 16.884766,8.5292969 L 17.65625,7.7578125 16.242188,6.34375 15.472656,7.1132812 C 14.735996,6.5903312 13.8908,6.2404538 13,6.0898438 V 5 Z m -1,4 h 4 v 1 h -4 z m 0,2 h 4 v 1 h -4 z m 0,2 h 4 v 1 h -4 z"
     id="path1" />
</svg>
