<?xml version="1.0" encoding="UTF-8" standalone="no"?>
<svg
   width="24"
   height="24"
   viewBox="0 0 24 24"
   version="1.1"
   id="svg1"
   sodipodi:docname="send-to.svg"
   xmlns:inkscape="http://www.inkscape.org/namespaces/inkscape"
   xmlns:sodipodi="http://sodipodi.sourceforge.net/DTD/sodipodi-0.dtd"
   xmlns="http://www.w3.org/2000/svg"
   xmlns:svg="http://www.w3.org/2000/svg">
  <sodipodi:namedview
     id="namedview1"
     pagecolor="#505050"
     bordercolor="#eeeeee"
     borderopacity="1"
     inkscape:showpageshadow="0"
     inkscape:pageopacity="0"
     inkscape:pagecheckerboard="0"
     inkscape:deskcolor="#d1d1d1" />
  <defs
     id="defs1">
    <style
       id="current-color-scheme"
       type="text/css">&#10;   .ColorScheme-Text { color:#1e3f5a; } .ColorScheme-Highlight { color:#4285f4; }&#10;  </style>
  </defs>
  <path
     style="fill:#bde6fb;fill-opacity:1"
     class="ColorScheme-Text"
     d="m 13,5.0039062 1.21875,1.90625 -4.40625,2.75 C 9.29706,9.2492462 8.6617,9.0038663 8,9.0039062 6.4291,9.0039963 5,10.433206 5,12.003906 c 0,1.5707 1.4291,2.9999 3,3 0.66168,4e-5 1.2971,-0.27659 1.8125,-0.6875 L 14.21875,17.095703 13,19.001953 h 6 l -2.5,-5.5 -1.21875,1.9375 -4.375,-2.78125 C 10.96075,12.443573 11,12.226093 11,12.001953 c 0,-0.22414 -0.03935,-0.44162 -0.09375,-0.65625 L 15.28125,8.5664062 16.5,10.503906 19,5.0039062 Z"
     id="path1" />
</svg>
