<?xml version="1.0" encoding="UTF-8" standalone="no"?>
<svg
   width="24"
   height="24"
   viewBox="0 0 24 24"
   version="1.1"
   id="svg1"
   sodipodi:docname="show-menu.svg"
   xmlns:inkscape="http://www.inkscape.org/namespaces/inkscape"
   xmlns:sodipodi="http://sodipodi.sourceforge.net/DTD/sodipodi-0.dtd"
   xmlns="http://www.w3.org/2000/svg"
   xmlns:svg="http://www.w3.org/2000/svg">
  <sodipodi:namedview
     id="namedview1"
     pagecolor="#505050"
     bordercolor="#eeeeee"
     borderopacity="1"
     inkscape:showpageshadow="0"
     inkscape:pageopacity="0"
     inkscape:pagecheckerboard="0"
     inkscape:deskcolor="#d1d1d1" />
  <defs
     id="defs1">
    <style
       id="current-color-scheme"
       type="text/css">&#10;   .ColorScheme-Text { color:#1e3f5a; } .ColorScheme-Highlight { color:#4285f4; }&#10;  </style>
  </defs>
  <path
     style="fill:#bde6fb;fill-opacity:1"
     class="ColorScheme-Text"
     d="m 14.583984,5.5546875 -1.33789,2.5117187 H 4 V 15.933594 H 9.0566406 L 8.09375,17.740234 9.4160156,18.445312 10.753906,15.933594 H 20 V 8.0664062 H 14.943359 L 15.90625,6.2597656 Z M 4.7675781,8.5996094 h 8.1933599 l -0.498047,0.9375 H 12.341797 V 9.7636719 L 10.882813,12.503906 V 10.96875 h -0.759766 v 2.960938 L 9.3398438,15.400391 H 4.7675781 Z m 9.8925779,0 h 4.572266 v 6.8007816 h -8.193359 l 1.302734,-2.447266 v 1.447266 h 0.759766 v -2.873047 z m -4.152343,1.0839844 c -0.1248,0 -0.23196,0.029948 -0.31836,0.085937 -0.0832,0.05653 -0.125,0.1466844 -0.125,0.2714842 0,0.1232 0.0418,0.213351 0.125,0.271485 0.0864,0.05813 0.19356,0.08789 0.31836,0.08789 0.122665,0 0.226634,-0.02976 0.3125,-0.08789 0.08907,-0.06027 0.132812,-0.150419 0.132812,-0.271485 0,-0.0624 -0.01204,-0.116423 -0.03711,-0.160156 -0.0224,-0.04533 -0.0541,-0.081997 -0.0957,-0.1113282 -0.03893,-0.0288 -0.08658,-0.0497 -0.142578,-0.0625 -0.0528,-0.0144 -0.108589,-0.023437 -0.169922,-0.023437 z M 6.0234375,9.8320312 V 14.400391 H 6.7988281 V 12.46875 H 9.0292969 V 11.957031 H 6.7988281 V 10.34375 h 2.390625 V 9.8320312 Z M 16.199219,10.90625 c -0.281067,0 -0.537885,0.03949 -0.771485,0.121094 -0.230934,0.08107 -0.429303,0.201156 -0.595703,0.357422 -0.166934,0.154134 -0.296939,0.341519 -0.388672,0.564453 -0.09173,0.222933 -0.136718,0.476565 -0.136718,0.759765 0,0.281067 0.05066,0.531334 0.15039,0.75 0.100267,0.2192 0.241608,0.402515 0.421875,0.550782 0.184,0.147734 0.401497,0.26109 0.654297,0.33789 0.2528,0.07733 0.532291,0.115234 0.837891,0.115235 0.141867,0 0.271159,-0.0057 0.390625,-0.01367 0.122133,-0.0085 0.240095,-0.02039 0.351562,-0.03906 0.114133,-0.01867 0.224478,-0.04293 0.330078,-0.07226 0.108267,-0.02933 0.217192,-0.06351 0.328125,-0.103516 v -0.505869 c -0.108266,0.03787 -0.214712,0.07205 -0.320312,0.103515 -0.1056,0.0288 -0.216478,0.05342 -0.330078,0.07422 -0.111466,0.01867 -0.226943,0.03284 -0.34961,0.04297 -0.119466,0.01067 -0.250711,0.01563 -0.392578,0.01563 -0.419733,0 -0.737306,-0.09334 -0.951172,-0.283203 -0.2112,-0.189334 -0.324023,-0.486538 -0.33789,-0.888672 h 2.886718 v -0.351563 c 0,-0.2288 -0.0418,-0.437267 -0.125,-0.625 -0.08053,-0.189334 -0.196543,-0.351042 -0.349609,-0.484375 -0.152534,-0.135473 -0.341347,-0.239433 -0.560547,-0.3125 -0.219734,-0.07467 -0.466987,-0.113281 -0.742187,-0.113281 z m -0.01563,0.472656 c 0.172267,0 0.318739,0.02249 0.441406,0.06836 0.122133,0.04587 0.222914,0.11016 0.300781,0.19336 0.08107,0.0832 0.140047,0.183801 0.175781,0.302734 0.03893,0.116267 0.05859,0.246805 0.05859,0.388672 h -2.052734 c 0.03093,-0.3104 0.136845,-0.548272 0.320312,-0.710938 0.186133,-0.162667 0.438527,-0.242187 0.75586,-0.242187 z"
     id="path1" />
</svg>
