<?xml version="1.0" encoding="UTF-8" standalone="no"?>
<svg
   width="24"
   height="24"
   viewBox="0 0 24 24"
   version="1.1"
   id="svg1"
   sodipodi:docname="snap-nodes-midpoint.svg"
   xmlns:inkscape="http://www.inkscape.org/namespaces/inkscape"
   xmlns:sodipodi="http://sodipodi.sourceforge.net/DTD/sodipodi-0.dtd"
   xmlns="http://www.w3.org/2000/svg"
   xmlns:svg="http://www.w3.org/2000/svg">
  <sodipodi:namedview
     id="namedview1"
     pagecolor="#505050"
     bordercolor="#eeeeee"
     borderopacity="1"
     inkscape:showpageshadow="0"
     inkscape:pageopacity="0"
     inkscape:pagecheckerboard="0"
     inkscape:deskcolor="#d1d1d1" />
  <defs
     id="defs1">
    <style
       id="current-color-scheme"
       type="text/css">&#10;   .ColorScheme-Text { color:#1e3f5a; } .ColorScheme-Highlight { color:#4285f4; }&#10;  </style>
  </defs>
  <path
     style="fill:#bde6fb;fill-opacity:1"
     class="ColorScheme-Text"
     d="M 16.613281,4.2050781 A 0.50005,0.50005 0 0 0 16.142578,4.7792969 L 16.425781,6.8652344 15.388672,7.9023438 15.085938,5.671875 A 0.50005,0.50005 0 0 0 14.564453,5.2324219 0.50005,0.50005 0 0 0 14.095703,5.8066406 L 14.5,8.7910156 12.791016,10.5 H 10.5 v 1.40625 L 9.2695312,12.257813 9.0097656,10.335938 A 0.50005,0.50005 0 0 0 8.4882812,9.8964844 0.50005,0.50005 0 0 0 8.0175781,10.46875 l 0.28125,2.066406 -1.6875,0.482422 -0.2402343,-1.765625 A 0.50005,0.50005 0 0 0 5.8496094,10.8125 0.50005,0.50005 0 0 0 5.3789062,11.386719 l 0.2597657,1.910156 -0.7753907,0.220703 a 0.50005,0.50005 0 1 0 0.2734376,0.960938 l 0.6367187,-0.181641 0.3867187,2.833984 -1.5136718,1.513672 a 0.50005,0.50005 0 1 0 0.7070312,0.707031 l 0.9746094,-0.974609 0.097656,0.712891 a 0.50005,0.50005 0 1 0 0.9902344,-0.132813 l -0.1992187,-1.46875 1.5449219,-1.544922 0.3027343,2.230469 A 0.50005,0.50005 0 1 0 10.054688,18.039062 L 9.6503906,15.054688 11.205078,13.5 H 13.5 v -1.410156 l 1.394531,-0.398438 0.246094,1.81836 a 0.50052,0.50052 0 0 0 0.992187,-0.132813 L 15.865234,11.414063 17,11.089844 l 0.189453,1.394531 a 0.50006301,0.50006301 0 1 0 0.990235,-0.134766 L 17.970703,10.8125 19.136719,10.478516 A 0.50005,0.50005 0 0 0 18.996094,9.4960938 0.50005,0.50005 0 0 0 18.863281,9.5175781 L 17.835938,9.8105469 17.484375,7.2207031 19.353516,5.3515625 A 0.50005,0.50005 0 0 0 18.990234,4.4941406 0.50005,0.50005 0 0 0 18.646484,4.6445312 L 17.314453,5.9765625 17.134766,4.6445312 A 0.50005,0.50005 0 0 0 16.613281,4.2050781 Z m -0.01758,3.9042969 0.267578,1.980469 -1.132812,0.322265 -0.171875,-1.2656246 z m -1.925781,1.925781 0.08789,0.65625 -1.041015,0.296875 z M 10.283203,13.007813 9.4804688,13.810547 9.40625,13.257813 Z m -1.8496092,0.529296 0.1582031,1.16211 -1.5429688,1.542969 -0.3027343,-2.22461 z"
     id="path1" />
</svg>
