<?xml version="1.0" encoding="UTF-8" standalone="no"?>
<svg
   width="24"
   height="24"
   viewBox="0 0 24 24"
   version="1.1"
   id="svg1"
   sodipodi:docname="snap-nodes-intersection.svg"
   xmlns:inkscape="http://www.inkscape.org/namespaces/inkscape"
   xmlns:sodipodi="http://sodipodi.sourceforge.net/DTD/sodipodi-0.dtd"
   xmlns="http://www.w3.org/2000/svg"
   xmlns:svg="http://www.w3.org/2000/svg">
  <sodipodi:namedview
     id="namedview1"
     pagecolor="#505050"
     bordercolor="#eeeeee"
     borderopacity="1"
     inkscape:showpageshadow="0"
     inkscape:pageopacity="0"
     inkscape:pagecheckerboard="0"
     inkscape:deskcolor="#d1d1d1" />
  <defs
     id="defs1">
    <style
       id="current-color-scheme"
       type="text/css">&#10;   .ColorScheme-Text { color:#1e3f5a; } .ColorScheme-Highlight { color:#4285f4; }&#10;  </style>
  </defs>
  <path
     style="fill:#bde6fb;fill-opacity:1"
     class="ColorScheme-Text"
     d="m 18.990234,4.4941406 a 0.50005,0.50005 0 0 0 -0.34375,0.1503906 L 12.791016,10.5 H 10.5 v 1.40625 l -5.6367188,1.611328 a 0.50005,0.50005 0 1 0 0.2734376,0.960938 l 5.1464842,-1.470703 -5.6367186,5.636718 a 0.50005,0.50005 0 1 0 0.7070312,0.707031 L 11.205078,13.5 H 13.5 v -1.410156 l 5.636719,-1.611328 A 0.50005,0.50005 0 0 0 18.996094,9.4960938 0.50005,0.50005 0 0 0 18.863281,9.5175781 L 13.716797,10.988281 19.353516,5.3515625 A 0.50005,0.50005 0 0 0 18.990234,4.4941406 Z"
     id="path1" />
</svg>
