<?xml version="1.0" encoding="UTF-8" standalone="no"?>
<svg
   width="24"
   height="24"
   viewBox="0 0 24 24"
   version="1.1"
   id="svg1"
   sodipodi:docname="snap-bounding-box-center.svg"
   xmlns:inkscape="http://www.inkscape.org/namespaces/inkscape"
   xmlns:sodipodi="http://sodipodi.sourceforge.net/DTD/sodipodi-0.dtd"
   xmlns="http://www.w3.org/2000/svg"
   xmlns:svg="http://www.w3.org/2000/svg">
  <sodipodi:namedview
     id="namedview1"
     pagecolor="#505050"
     bordercolor="#eeeeee"
     borderopacity="1"
     inkscape:showpageshadow="0"
     inkscape:pageopacity="0"
     inkscape:pagecheckerboard="0"
     inkscape:deskcolor="#d1d1d1" />
  <defs
     id="defs1">
    <style
       id="current-color-scheme"
       type="text/css">&#10;   .ColorScheme-Text { color:#1e3f5a; } .ColorScheme-Highlight { color:#4285f4; }&#10;  </style>
  </defs>
  <path
     style="fill:#bde6fb;fill-opacity:1"
     class="ColorScheme-Text"
     d="M 18,5.5 V 6 7 7.5 h 1 V 7 6 5.5 Z M 7,8 v 3 h 3 V 8 Z m 11,0.5 v 0.5 1 0.5 h 1 V 10 9 8.5 Z m 0,3 v 0.5 1 0.5 h 1 V 13 12 11.5 Z m 0,3 v 0.5 1 0.5 h 1 V 16 15 14.5 Z m 0,3 V 18 h -0.5 v 1 H 18 18.5 19 V 18.5 18 17.5 Z M 5.5,18 v 1 H 6 7 7.5 V 18 H 7 6 Z m 3,0 v 1 H 9 10 10.5 V 18 H 10 9 Z m 3,0 v 1 h 0.5 1 0.5 V 18 H 13 12 Z m 3,0 v 1 h 0.5 1 0.5 V 18 H 16 15 Z"
     id="path1" />
</svg>
