<?xml version="1.0" encoding="UTF-8" standalone="no"?>
<svg
   width="24"
   height="24"
   viewBox="0 0 24 24"
   version="1.1"
   id="svg1"
   sodipodi:docname="snap-nodes-path.svg"
   xmlns:inkscape="http://www.inkscape.org/namespaces/inkscape"
   xmlns:sodipodi="http://sodipodi.sourceforge.net/DTD/sodipodi-0.dtd"
   xmlns="http://www.w3.org/2000/svg"
   xmlns:svg="http://www.w3.org/2000/svg">
  <sodipodi:namedview
     id="namedview1"
     pagecolor="#505050"
     bordercolor="#eeeeee"
     borderopacity="1"
     inkscape:showpageshadow="0"
     inkscape:pageopacity="0"
     inkscape:pagecheckerboard="0"
     inkscape:deskcolor="#d1d1d1" />
  <defs
     id="defs1">
    <style
       id="current-color-scheme"
       type="text/css">&#10;   .ColorScheme-Text { color:#1e3f5a; } .ColorScheme-Highlight { color:#4285f4; }&#10;  </style>
  </defs>
  <path
     style="fill:#bde6fb;fill-opacity:1"
     class="ColorScheme-Text"
     d="M 5.0058594,5.4941406 5.0195312,5.5 A 0.50005,0.50005 0 0 0 4.9375,6.4960938 c 0,0 3.6861281,0.5151443 6.298828,2.1777343 1.3064,0.83131 2.307741,1.9094129 2.556641,3.3203129 0.24898,1.4109 -0.232368,3.261212 -2.179688,5.695312 A 0.50005,0.50005 0 0 0 11.994141,18.5 c 3.619,0 5.570356,-1.334591 6.535156,-2.712891 0.96,-1.38 0.958984,-2.791015 0.958984,-2.791015 a 0.50005,0.50005 0 1 0 -1,0 c 0,0 4.4e-5,1.09119 -0.785156,2.21289 -0.68535,0.97907 -2.180834,1.862016 -4.740234,2.103516 1.4315,-2.1056 2.068328,-3.971247 1.798828,-5.498047 -0.31352,-1.7766 -1.560306,-3.0716343 -3.003906,-3.9902342 C 8.8705125,5.9868188 5.0546875,5.5 5.0546875,5.5 a 0.50005,0.50005 0 0 0 -0.048828,-0.00586 z"
     id="path1" />
</svg>
