<?xml version="1.0" encoding="UTF-8" standalone="no"?>
<svg
   width="24"
   height="24"
   viewBox="0 0 24 24"
   version="1.1"
   id="svg1"
   sodipodi:docname="snap-nodes-smooth.svg"
   xmlns:inkscape="http://www.inkscape.org/namespaces/inkscape"
   xmlns:sodipodi="http://sodipodi.sourceforge.net/DTD/sodipodi-0.dtd"
   xmlns="http://www.w3.org/2000/svg"
   xmlns:svg="http://www.w3.org/2000/svg">
  <sodipodi:namedview
     id="namedview1"
     pagecolor="#505050"
     bordercolor="#eeeeee"
     borderopacity="1"
     inkscape:showpageshadow="0"
     inkscape:pageopacity="0"
     inkscape:pagecheckerboard="0"
     inkscape:deskcolor="#d1d1d1" />
  <defs
     id="defs1">
    <style
       id="current-color-scheme"
       type="text/css">&#10;   .ColorScheme-Text { color:#1e3f5a; } .ColorScheme-Highlight { color:#4285f4; }&#10;  </style>
  </defs>
  <path
     style="fill:#bde6fb;fill-opacity:1"
     class="ColorScheme-Text"
     d="m 5.0195312,5.5 a 0.50005,0.50005 0 0 0 -0.050781,0.00195 0.50005,0.50005 0 0 0 -0.033203,0.9960938 c 0,0 2.6625062,0.3768456 5.0664061,1.5097656 v 1.9941405 h 2.806641 c 0.49604,0.57783 0.849112,1.236688 0.982422,1.992188 0.24898,1.4109 -0.232368,3.261212 -2.179688,5.695312 a 0.50005,0.50005 0 0 0 0.390625,0.8125 c 3.619,0 5.570356,-1.33459 6.535156,-2.712891 0.9648,-1.378299 0.964844,-2.787109 0.964844,-2.787109 a 0.50005,0.50005 0 1 0 -1,0 c 0,0 4.4e-5,1.091191 -0.785156,2.212891 -0.68535,0.97907 -2.180835,1.862015 -4.740234,2.103515 1.431499,-2.1056 2.068328,-3.969193 1.798828,-5.496093 -0.2186,-1.2387 -0.896528,-2.2401754 -1.773438,-3.0468754 V 7.0019531 H 10.203125 C 7.670125,5.8505531 5.0683594,5.5058594 5.0683594,5.5058594 A 0.50005,0.50005 0 0 0 5.0195312,5.5 Z"
     id="path1" />
</svg>
