<?xml version="1.0" encoding="UTF-8" standalone="no"?>
<svg
   width="24"
   height="24"
   viewBox="0 0 24 24"
   version="1.1"
   id="svg2"
   sodipodi:docname="stroke-to-path.svg"
   xmlns:inkscape="http://www.inkscape.org/namespaces/inkscape"
   xmlns:sodipodi="http://sodipodi.sourceforge.net/DTD/sodipodi-0.dtd"
   xmlns="http://www.w3.org/2000/svg"
   xmlns:svg="http://www.w3.org/2000/svg">
  <sodipodi:namedview
     id="namedview2"
     pagecolor="#505050"
     bordercolor="#eeeeee"
     borderopacity="1"
     inkscape:showpageshadow="0"
     inkscape:pageopacity="0"
     inkscape:pagecheckerboard="0"
     inkscape:deskcolor="#d1d1d1" />
  <defs
     id="defs1">
    <style
       id="current-color-scheme"
       type="text/css">&#10;   .ColorScheme-Text { color:#1e3f5a; } .ColorScheme-Highlight { color:#4285f4; }&#10;  </style>
  </defs>
  <path
     style="fill:#bde6fb;fill-opacity:1"
     class="ColorScheme-Text"
     d="m 8.9746094,3.9785156 v 2.6015625 c -0.9045,0.685775 -1.7082582,1.4909915 -2.3925782,2.3984375 H 3.9746094 V 12.978516 H 4.5820312 C 4.1634013,14.416218 3.9747238,15.964085 4.0898437,17.59375 a 0.50026183,0.50026183 0 1 0 0.9980469,-0.07031 c -0.11428,-1.617654 0.089417,-3.142571 0.5292969,-4.544922 H 7.9746094 V 8.9785156 H 7.8320312 c 0.3529,-0.409385 0.7345582,-0.7906482 1.1425782,-1.1445312 V 7.9785156 H 12.974609 V 5.5976562 C 14.382229,5.1490083 15.909078,4.939642 17.517578,5.046875 a 0.50012701,0.50012701 0 0 0 0.06641,-0.9980469 C 15.964234,3.9408451 14.415909,4.136003 12.974609,4.5625 V 3.9785156 Z m 3.9999996,4 v 2.4453124 c -0.53379,0.313142 -1.016829,0.678943 -1.443359,1.105469 -0.42816,0.428163 -0.795465,0.912965 -1.109375,1.449219 H 7.9746094 v 4 h 1.1875 c -0.10147,0.784877 -0.1523438,1.627892 -0.1523438,2.529296 a 0.50005012,0.50005012 0 1 0 1.0000004,0 c 0,-0.922335 0.0576,-1.759205 0.164062,-2.529296 h 1.800781 v -4 h -0.355468 c 0.19105,-0.265084 0.39334,-0.516388 0.61914,-0.742188 0.2242,-0.224193 0.473408,-0.4253 0.736328,-0.615234 v 0.357422 h 4 v -1.806641 c 0.77167,-0.106989 1.610467,-0.164062 2.535157,-0.164062 a 0.50005012,0.50005012 0 1 0 0,-1.0000005 c -0.90367,0 -1.748607,0.05036 -2.535157,0.1523437 V 7.9785156 Z"
     id="path1" />
  <path
     style="opacity:0.3;fill:#bde6fb;fill-opacity:1"
     class="ColorScheme-Text"
     d="m 17.755859,5.0039062 a 0.50012701,0.50012701 0 0 1 -0.238281,0.042969 c -1.6085,-0.107235 -3.135349,0.1021332 -4.542969,0.5507812 v 2.3808594 h 4 v 1.1816406 c 0.73615,-0.09545 1.528458,-0.1423924 2.367188,-0.1484374 z m -4.78125,2.9746094 H 8.9746094 V 7.8339844 c -0.40802,0.353883 -0.7896782,0.7351462 -1.1425782,1.1445312 h 0.1425782 v 4.0000004 h 2.4472656 c 0.31391,-0.536254 0.681215,-1.021056 1.109375,-1.449219 0.42653,-0.426526 0.909569,-0.792327 1.443359,-1.105469 z M 7.9746094,12.978516 H 5.6171875 c -0.43988,1.402351 -0.6435769,2.927271 -0.5292969,4.544922 a 0.50026183,0.50026183 0 0 1 -0.011719,0.144531 l 3.9414062,1.560547 c 0.01,-0.794086 0.053901,-1.548878 0.1445313,-2.25 h -1.1875 z"
     id="path2" />
</svg>
