<?xml version="1.0" encoding="UTF-8" standalone="no"?>
<svg
   width="24"
   height="24"
   viewBox="0 0 24 24"
   version="1.1"
   id="svg1"
   sodipodi:docname="stroke-cap-round.svg"
   xmlns:inkscape="http://www.inkscape.org/namespaces/inkscape"
   xmlns:sodipodi="http://sodipodi.sourceforge.net/DTD/sodipodi-0.dtd"
   xmlns="http://www.w3.org/2000/svg"
   xmlns:svg="http://www.w3.org/2000/svg">
  <sodipodi:namedview
     id="namedview1"
     pagecolor="#505050"
     bordercolor="#eeeeee"
     borderopacity="1"
     inkscape:showpageshadow="0"
     inkscape:pageopacity="0"
     inkscape:pagecheckerboard="0"
     inkscape:deskcolor="#d1d1d1" />
  <defs
     id="defs1">
    <style
       id="current-color-scheme"
       type="text/css">&#10;   .ColorScheme-Text { color:#1e3f5a; } .ColorScheme-Highlight { color:#4285f4; }&#10;  </style>
  </defs>
  <path
     style="fill:#bde6fb;fill-opacity:1"
     class="ColorScheme-Text"
     d="M 12,6 C 9.23,6 7,8.23 7,11 v 7 h 4 v -7 c 0,-0.554 0.446,-1 1,-1 0.554,0 1,0.446 1,1 v 7 h 4 V 11 C 17,8.23 14.77,6 12,6 Z m 0,1 c 2.216,0 4,1.784 4,4 v 6 H 14 V 11 C 14,9.892 13.108,9 12,9 10.892,9 10,9.892 10,11 v 6 H 8 V 11 C 8,8.784 9.784,7 12,7 Z"
     id="path1" />
</svg>
