<?xml version="1.0" encoding="UTF-8" standalone="no"?>
<svg
   width="24"
   height="24"
   version="1.1"
   id="svg4"
   sodipodi:docname="tag.svg"
   inkscape:version="0.92.4 (5da689c313, 2019-01-14)"
   xmlns:inkscape="http://www.inkscape.org/namespaces/inkscape"
   xmlns:sodipodi="http://sodipodi.sourceforge.net/DTD/sodipodi-0.dtd"
   xmlns="http://www.w3.org/2000/svg"
   xmlns:svg="http://www.w3.org/2000/svg"
   xmlns:rdf="http://www.w3.org/1999/02/22-rdf-syntax-ns#"
   xmlns:cc="http://creativecommons.org/ns#"
   xmlns:dc="http://purl.org/dc/elements/1.1/">
  <metadata
     id="metadata10">
    <rdf:RDF>
      <cc:Work
         rdf:about="">
        <dc:format>image/svg+xml</dc:format>
        <dc:type
           rdf:resource="http://purl.org/dc/dcmitype/StillImage" />
        <dc:title />
      </cc:Work>
    </rdf:RDF>
  </metadata>
  <defs
     id="defs8" />
  <sodipodi:namedview
     pagecolor="#ffffff"
     bordercolor="#666666"
     borderopacity="1"
     objecttolerance="10"
     gridtolerance="10"
     guidetolerance="10"
     inkscape:pageopacity="0"
     inkscape:pageshadow="2"
     inkscape:window-width="1366"
     inkscape:window-height="683"
     id="namedview6"
     showgrid="false"
     inkscape:zoom="9.8333333"
     inkscape:cx="-0.81355932"
     inkscape:cy="12"
     inkscape:window-x="0"
     inkscape:window-y="28"
     inkscape:window-maximized="1"
     inkscape:current-layer="svg4"
     inkscape:showpageshadow="0"
     inkscape:pagecheckerboard="0"
     inkscape:deskcolor="#d1d1d1" />
  <path
     d="m 12,1.6308594 c -0.5,0 -0.979609,0.1885937 -1.349609,0.5585937 L 5.9003906,6.9296875 A 1.89,1.89 0 0 0 5.3398438,8.2792969 V 20.460938 A 1.91,1.91 0 0 0 7.25,22.359375 h 9.470703 c 0.5,0 0.979375,-0.178828 1.359375,-0.548828 a 1.91,1.91 0 0 0 0.560547,-1.361328 V 8.2792969 c 0,-0.49 -0.190547,-0.9796094 -0.560547,-1.3496094 L 13.339844,2.1894531 A 1.9,1.9 0 0 0 12,1.6308594 Z m 0,2.5 c 0.36,0 0.729766,0.1496875 1.009766,0.4296875 a 1.43,1.43 0 0 1 0,2.0292969 1.43,1.43 0 0 1 -2.029297,0 1.43,1.43 0 0 1 0,-2.0292969 A 1.43,1.43 0 0 1 12,4.140625 Z"
     id="path821"
     style="fill:#bde6fb;fill-opacity:1" />
</svg>
