<?xml version="1.0" encoding="UTF-8" standalone="no"?>
<svg
   width="24"
   height="24"
   viewBox="0 0 24 24"
   version="1.1"
   id="svg1"
   sodipodi:docname="taxes-finances.svg"
   xmlns:inkscape="http://www.inkscape.org/namespaces/inkscape"
   xmlns:sodipodi="http://sodipodi.sourceforge.net/DTD/sodipodi-0.dtd"
   xmlns="http://www.w3.org/2000/svg"
   xmlns:svg="http://www.w3.org/2000/svg">
  <sodipodi:namedview
     id="namedview1"
     pagecolor="#505050"
     bordercolor="#eeeeee"
     borderopacity="1"
     inkscape:showpageshadow="0"
     inkscape:pageopacity="0"
     inkscape:pagecheckerboard="0"
     inkscape:deskcolor="#d1d1d1" />
  <defs
     id="defs1">
    <style
       id="current-color-scheme"
       type="text/css">&#10;   .ColorScheme-Text { color:#1e3f5a; } .ColorScheme-Highlight { color:#4285f4; }&#10;  </style>
  </defs>
  <path
     style="fill:#bde6fb;fill-opacity:1"
     class="ColorScheme-Text"
     d="M 10,4.0390625 V 5.171875 c -0.9772,0.1418 -1.8092906,0.3971281 -2.4628906,0.7988281 -1.0105,0.6149 -1.515625,1.5580782 -1.515625,2.8300781 C 6.0168844,10.996081 7.579,11.719466 10,12.384766 v 4.992187 C 8.8273,17.277953 7.7551469,17.056266 6.6230469,16.572266 L 6,17.929688 c 0.5645,0.301 1.3272625,0.562156 2.2890625,0.785156 C 8.8332625,18.836844 9.4003,18.91475 10,18.96875 v 1.070312 h 3 v -1.117187 c 1.997,-0.285 3.979984,-1.203453 3.958984,-3.689453 C 16.888984,13.403722 15.756,12.724859 13,11.755859 V 6.8027344 c 0.9033,0.1207 2.001609,0.3722218 3.224609,0.9824218 L 17,6.2421875 C 16.449,5.9466875 15.168516,5.4757813 14.353516,5.3007812 13.919515,5.2081812 13.467,5.1451625 13,5.1015625 v -1.0625 z m 0,2.7597656 V 10.796875 C 8.773,10.362475 7.6429814,9.7037687 7.6757812,8.6054688 7.6161813,7.5641688 8.6802,7.0146281 10,6.7988281 Z M 13,13.25 c 1.281,0.4486 2.319875,1.035453 2.296875,2.064453 -0.039,1.396 -1.131875,1.882828 -2.296875,2.048828 z"
     id="path1" />
</svg>
