<?xml version="1.0" encoding="UTF-8" standalone="no"?>
<svg
   width="24"
   height="24"
   viewBox="0 0 24 24"
   version="1.1"
   id="svg1"
   sodipodi:docname="text_letter_spacing.svg"
   xmlns:inkscape="http://www.inkscape.org/namespaces/inkscape"
   xmlns:sodipodi="http://sodipodi.sourceforge.net/DTD/sodipodi-0.dtd"
   xmlns="http://www.w3.org/2000/svg"
   xmlns:svg="http://www.w3.org/2000/svg">
  <sodipodi:namedview
     id="namedview1"
     pagecolor="#505050"
     bordercolor="#eeeeee"
     borderopacity="1"
     inkscape:showpageshadow="0"
     inkscape:pageopacity="0"
     inkscape:pagecheckerboard="0"
     inkscape:deskcolor="#d1d1d1" />
  <defs
     id="defs1">
    <style
       id="current-color-scheme"
       type="text/css">&#10;   .ColorScheme-Text { color:#1e3f5a; } .ColorScheme-Highlight { color:#4285f4; }&#10;  </style>
  </defs>
  <path
     style="fill:#bde6fb;fill-opacity:1"
     class="ColorScheme-Text"
     d="m 5,5 v 5 H 7.5 C 8.3284,10 9,9.3284 9,8.5 9,7.9667 8.7318,7.48465 8.3125,7.21875 8.428,7.00615 8.5,6.7589 8.5,6.5 8.5,5.6716 7.8284,5 7,5 Z m 10,0 v 5 h 2.5 C 18.328,10 19,9.3284 19,8.5 v -2 C 19,5.6716 18.328,5 17.5,5 Z M 6,6 H 7 C 7.2761,6 7.5,6.2239 7.5,6.5 7.5,6.7761 7.2761,7 7,7 H 6 Z m 10,0 h 1.5 C 17.776,6 18,6.2239 18,6.5 v 2 C 18,8.7761 17.776,9 17.5,9 H 16 Z m -6,1 v 1 h 3 V 7 Z M 6,8 H 7.5 C 7.7761,8 8,8.2239 8,8.5 8,8.7761 7.7761,9 7.5,9 H 6 Z m -1,4 v 2 h 4 v -2 z m 6,0 v 2 h 2 v -2 z m 4,0 v 2 h 4 v -2 z m -5,4 -4,1.5 4,1.5 z m 4,0 v 3 l 4,-1.5 z m -2,1 c -0.2761,0 -0.5,0.224 -0.5,0.5 0,0.276 0.2239,0.5 0.5,0.5 0.2761,0 0.5,-0.224 0.5,-0.5 C 12.5,17.224 12.2761,17 12,17 Z"
     id="path1" />
</svg>
