<?xml version="1.0" encoding="UTF-8" standalone="no"?>
<svg
   width="24"
   height="24"
   viewBox="0 0 24 24"
   version="1.1"
   id="svg1"
   sodipodi:docname="text-field.svg"
   xmlns:inkscape="http://www.inkscape.org/namespaces/inkscape"
   xmlns:sodipodi="http://sodipodi.sourceforge.net/DTD/sodipodi-0.dtd"
   xmlns="http://www.w3.org/2000/svg"
   xmlns:svg="http://www.w3.org/2000/svg">
  <sodipodi:namedview
     id="namedview1"
     pagecolor="#505050"
     bordercolor="#eeeeee"
     borderopacity="1"
     inkscape:showpageshadow="0"
     inkscape:pageopacity="0"
     inkscape:pagecheckerboard="0"
     inkscape:deskcolor="#d1d1d1" />
  <defs
     id="defs1">
    <style
       id="current-color-scheme"
       type="text/css">&#10;   .ColorScheme-Text { color:#1e3f5a; } .ColorScheme-Highlight { color:#4285f4; }&#10;  </style>
  </defs>
  <path
     style="fill:#bde6fb;fill-opacity:1"
     class="ColorScheme-Text"
     d="M 6,5 A 1.0001,1.0001 0 0 0 5,6 v 1 a 1.0001,1.0001 0 0 0 1,1 h 1 v 8 H 6 a 1.0001,1.0001 0 0 0 -1,1 v 1 a 1.0001,1.0001 0 0 0 1,1 h 5 a 1.0001,1.0001 0 0 0 1,-1 V 17 A 1.0001,1.0001 0 0 0 11,16 H 10 V 8 h 1 A 1.0001,1.0001 0 0 0 12,7 V 6 A 1.0001,1.0001 0 0 0 11,5 Z m 6,7 a 1.0001,1.0001 0 0 0 -1,1 v 2 a 1.0001,1.0001 0 0 0 1,1 h 7 a 1.0001,1.0001 0 0 0 1,-1 v -2 a 1.0001,1.0001 0 0 0 -1,-1 h -1 a 1.0001,1.0001 0 0 0 -1,1 h -3 a 1.0001,1.0001 0 0 0 -1,-1 z"
     id="path1" />
</svg>
