<?xml version="1.0" encoding="UTF-8" standalone="no"?>
<svg
   width="24"
   height="24"
   viewBox="0 0 24 24"
   version="1.1"
   id="svg1"
   sodipodi:docname="tool_color_eraser.svg"
   xmlns:inkscape="http://www.inkscape.org/namespaces/inkscape"
   xmlns:sodipodi="http://sodipodi.sourceforge.net/DTD/sodipodi-0.dtd"
   xmlns="http://www.w3.org/2000/svg"
   xmlns:svg="http://www.w3.org/2000/svg">
  <sodipodi:namedview
     id="namedview1"
     pagecolor="#505050"
     bordercolor="#eeeeee"
     borderopacity="1"
     inkscape:showpageshadow="0"
     inkscape:pageopacity="0"
     inkscape:pagecheckerboard="0"
     inkscape:deskcolor="#d1d1d1" />
  <defs
     id="defs1">
    <style
       id="current-color-scheme"
       type="text/css">&#10;   .ColorScheme-Text { color:#1e3f5a; } .ColorScheme-Highlight { color:#4285f4; }&#10;  </style>
  </defs>
  <path
     style="fill:#bde6fb;fill-opacity:1"
     class="ColorScheme-Text"
     d="m 10.949219,6.0429688 c -0.23122,0.04133 -0.51686,0.2847012 -0.72461,0.6445312 l -4.9999996,8.660156 c -0.277,0.47978 -0.3062763,0.978678 -0.066406,1.117188 l 4.3300781,2.5 c 0.2398901,0.1385 0.6565935,-0.137408 0.9335935,-0.617188 l 5,-8.660156 c 0.277,-0.47978 0.306286,-0.9767644 0.06641,-1.1152344 l -4.330078,-2.5 c -0.06,-0.03462 -0.131904,-0.043067 -0.208984,-0.029297 z m 4.546875,6.9550782 c -0.10352,0.28441 -0.243392,0.563277 -0.394532,0.835937 -0.770269,1.3501 -1.975496,2.273 -2.091796,3.125 -0.003,0.01273 -0.01107,0.02638 -0.01367,0.03906 l 0.01172,0.0039 c -0.002,0.02931 -0.01172,0.05866 -0.01172,0.08789 0,1.0543 1.1193,1.908203 2.5,1.908203 1.3807,0 2.5,-0.853873 2.5,-1.908203 0,-0.02923 -0.0068,-0.05859 -0.0098,-0.08789 l 0.0098,-0.0039 c -0.002,-0.01264 -0.01047,-0.02633 -0.01367,-0.03906 -0.11628,-0.85206 -1.321497,-1.776853 -2.091797,-3.126953 -0.15114,-0.27266 -0.291021,-0.549574 -0.394531,-0.833984 z"
     id="path1" />
</svg>
