<?xml version="1.0" encoding="UTF-8" standalone="no"?>
<svg
   width="24"
   height="24"
   viewBox="0 0 24 24"
   version="1.1"
   id="svg2"
   sodipodi:docname="transform-skew-vertical.svg"
   xmlns:inkscape="http://www.inkscape.org/namespaces/inkscape"
   xmlns:sodipodi="http://sodipodi.sourceforge.net/DTD/sodipodi-0.dtd"
   xmlns="http://www.w3.org/2000/svg"
   xmlns:svg="http://www.w3.org/2000/svg">
  <sodipodi:namedview
     id="namedview2"
     pagecolor="#505050"
     bordercolor="#eeeeee"
     borderopacity="1"
     inkscape:showpageshadow="0"
     inkscape:pageopacity="0"
     inkscape:pagecheckerboard="0"
     inkscape:deskcolor="#d1d1d1" />
  <defs
     id="defs1">
    <style
       id="current-color-scheme"
       type="text/css">&#10;   .ColorScheme-Text { color:#1e3f5a; } .ColorScheme-Highlight { color:#4285f4; }&#10;  </style>
  </defs>
  <path
     style="fill:#bde6fb;fill-opacity:1"
     class="ColorScheme-Text"
     d="M 18.769531,0 A 0.34803699,0.71624863 34.650572 0 0 18.5,0.12109375 L 5.4980469,9.7382812 A 0.34803699,0.71624863 34.650572 0 0 5,10.607422 V 21 23.746094 a 0.34803699,0.71624863 34.650572 0 0 0.4980469,0.132812 L 18.5,14.261719 a 0.34803699,0.71624863 34.650572 0 0 0.498047,-0.869141 V 0.25390625 A 0.34803699,0.71624863 34.650572 0 0 18.810547,0 0.34803699,0.71624863 34.650572 0 0 18.769531,0 Z M 5,21 H 3 V 18 H 2 v 3 H 0 l 2.5,3 z M 21.5,0 19,3 h 2 v 3 h 1 V 3 h 2 z M 18.003906,1.4902344 V 13.626953 L 5.9960938,22.509766 V 10.371094 Z"
     id="path1" />
  <path
     style="opacity:0.3;fill:#bde6fb;fill-opacity:1"
     class="ColorScheme-Text"
     d="m 17.855469,1.7460938 c -0.09012,-0.023956 -0.215986,0.013633 -0.353516,0.1152343 L 6.4980469,10 C 6.2229869,10.203354 5.99991,10.592522 6,10.869141 v 11.138671 c -9e-5,0.276755 0.2229869,0.336016 0.4980469,0.132813 L 17.501953,14 C 17.777013,13.796646 18.00009,13.407478 18,13.130859 V 1.9941406 c 4.5e-5,-0.1383774 -0.05441,-0.2240914 -0.144531,-0.2480468 z"
     id="path2" />
</svg>
