<?xml version="1.0" encoding="UTF-8" standalone="no"?>
<svg
   width="24"
   height="24"
   viewBox="0 0 24 24"
   version="1.1"
   id="svg2"
   sodipodi:docname="transform-skew-horizontal.svg"
   xmlns:inkscape="http://www.inkscape.org/namespaces/inkscape"
   xmlns:sodipodi="http://sodipodi.sourceforge.net/DTD/sodipodi-0.dtd"
   xmlns="http://www.w3.org/2000/svg"
   xmlns:svg="http://www.w3.org/2000/svg">
  <sodipodi:namedview
     id="namedview2"
     pagecolor="#505050"
     bordercolor="#eeeeee"
     borderopacity="1"
     inkscape:showpageshadow="0"
     inkscape:pageopacity="0"
     inkscape:pagecheckerboard="0"
     inkscape:deskcolor="#d1d1d1" />
  <defs
     id="defs1">
    <style
       id="current-color-scheme"
       type="text/css">&#10;   .ColorScheme-Text { color:#1e3f5a; } .ColorScheme-Highlight { color:#4285f4; }&#10;  </style>
  </defs>
  <path
     style="fill:#bde6fb;fill-opacity:1"
     class="ColorScheme-Text"
     d="M 3,0 0,2.5 3,5 V 3 H 6 V 2 H 3 Z M 3,5 H 0.25390625 A 0.71624863,0.34803699 34.650572 0 0 0.12109375,5.4980469 L 9.7382812,18.5 a 0.71624863,0.34803699 34.650572 0 0 0.8691408,0.498047 H 23.746094 A 0.71624863,0.34803699 34.650572 0 0 23.878906,18.5 L 14.261719,5.4980469 A 0.71624863,0.34803699 34.650572 0 0 13.392578,5 Z M 1.4902344,5.9960938 H 13.628906 l 8.88086,12.0078122 H 10.373047 Z M 21,19 v 2 h -3 v 1 h 3 v 2 l 3,-2.5 z"
     id="path1" />
  <path
     style="opacity:0.3;fill:#bde6fb;fill-opacity:1"
     class="ColorScheme-Text"
     d="M 1.9921875,6 C 1.7154326,5.99991 1.656172,6.2229869 1.859375,6.4980469 L 10,17.501953 C 10.203354,17.777013 10.592522,18.00009 10.869141,18 h 11.136718 c 0.276755,9e-5 0.336016,-0.222987 0.132813,-0.498047 L 14,6.4980469 C 13.796646,6.2229869 13.407478,5.99991 13.130859,6 Z"
     id="path2" />
</svg>
