<?xml version="1.0" encoding="UTF-8" standalone="no"?>
<svg
   width="24"
   height="24"
   viewBox="0 0 24 24"
   version="1.1"
   id="svg1"
   sodipodi:docname="transform-scale-textbox-points.svg"
   xmlns:inkscape="http://www.inkscape.org/namespaces/inkscape"
   xmlns:sodipodi="http://sodipodi.sourceforge.net/DTD/sodipodi-0.dtd"
   xmlns="http://www.w3.org/2000/svg"
   xmlns:svg="http://www.w3.org/2000/svg">
  <sodipodi:namedview
     id="namedview1"
     pagecolor="#505050"
     bordercolor="#eeeeee"
     borderopacity="1"
     inkscape:showpageshadow="0"
     inkscape:pageopacity="0"
     inkscape:pagecheckerboard="0"
     inkscape:deskcolor="#d1d1d1" />
  <defs
     id="defs1">
    <style
       id="current-color-scheme"
       type="text/css">&#10;   .ColorScheme-Text { color:#1e3f5a; } .ColorScheme-Highlight { color:#4285f4; }&#10;  </style>
  </defs>
  <path
     style="fill:#bde6fb;fill-opacity:1"
     class="ColorScheme-Text"
     d="M 5,5 V 9 H 6 9 V 6 5 Z m 10,0 v 4 h 4 V 5 Z m -5,3 v 1 h 1 V 8 Z m 3,0 v 1 h 1 V 8 Z m -5,2 v 1 h 1 v -1 z m 7,0 v 1 h 1 v -1 z m -7,3 v 1 h 1 v -1 z m 5,0 v 2 h 2 v 4 h 2 v -4 h 2 v -2 h -3 -1 z m -8,2 v 4 h 4 v -4 z m 5,0 v 1 h 1 v -1 z"
     id="path1" />
</svg>
