<?xml version="1.0" encoding="UTF-8" standalone="no"?>
<svg
   width="24"
   height="24"
   viewBox="0 0 24 24"
   version="1.1"
   id="svg2"
   sodipodi:docname="transform-scale-vertical.svg"
   xmlns:inkscape="http://www.inkscape.org/namespaces/inkscape"
   xmlns:sodipodi="http://sodipodi.sourceforge.net/DTD/sodipodi-0.dtd"
   xmlns="http://www.w3.org/2000/svg"
   xmlns:svg="http://www.w3.org/2000/svg">
  <sodipodi:namedview
     id="namedview2"
     pagecolor="#505050"
     bordercolor="#eeeeee"
     borderopacity="1"
     inkscape:showpageshadow="0"
     inkscape:pageopacity="0"
     inkscape:pagecheckerboard="0"
     inkscape:deskcolor="#d1d1d1" />
  <defs
     id="defs1">
    <style
       id="current-color-scheme"
       type="text/css">&#10;   .ColorScheme-Text { color:#1e3f5a; } .ColorScheme-Highlight { color:#4285f4; }&#10;  </style>
  </defs>
  <path
     style="fill:#bde6fb;fill-opacity:1"
     class="ColorScheme-Text"
     d="M 3.5,0 A 0.50048,0.50038 0 0 0 3,0.5 V 7.5097656 16.490234 23.5 A 0.50048,0.50038 0 0 0 3.5,24 h 17 A 0.50048,0.50038 0 0 0 21,23.5 V 16.492188 7.5117188 0.5 A 0.50048,0.50038 0 0 0 20.5,0 Z M 4,1 h 11.542969 l -2.462891,2.9550781 h 2.001953 V 7.0097656 H 4 Z m 11.621094,0 h 4.376953 V 7.0097656 H 16.083984 V 3.9550781 h 2 z m 0.46289,7.0097656 h 3.914063 V 15.990234 H 16.083984 Z M 4,8.0117188 H 15.082031 V 15.990234 H 4 Z m 12.083984,8.9785152 h 3.914063 v 6.007813 h -4.376953 l 2.46289,-2.955078 h -2 z M 4,16.992188 h 11.082031 v 3.052734 h -2 L 15.544922,23 H 4.0019531 4 Z"
     id="path1" />
  <path
     style="opacity:0.3;fill:#bde6fb;fill-opacity:1"
     class="ColorScheme-Text"
     d="M 3.9921875,0.9921875 V 23.007812 H 20.007812 V 0.9921875 Z"
     id="path2" />
</svg>
