<?xml version="1.0" encoding="UTF-8" standalone="no"?>
<svg
   width="24"
   height="24"
   viewBox="0 0 24 24"
   version="1.1"
   id="svg2"
   sodipodi:docname="transform-move-horizontal.svg"
   xmlns:inkscape="http://www.inkscape.org/namespaces/inkscape"
   xmlns:sodipodi="http://sodipodi.sourceforge.net/DTD/sodipodi-0.dtd"
   xmlns="http://www.w3.org/2000/svg"
   xmlns:svg="http://www.w3.org/2000/svg">
  <sodipodi:namedview
     id="namedview2"
     pagecolor="#505050"
     bordercolor="#eeeeee"
     borderopacity="1"
     inkscape:showpageshadow="0"
     inkscape:pageopacity="0"
     inkscape:pagecheckerboard="0"
     inkscape:deskcolor="#d1d1d1" />
  <defs
     id="defs1">
    <style
       id="current-color-scheme"
       type="text/css">&#10;   .ColorScheme-Text { color:#1e3f5a; } .ColorScheme-Highlight { color:#4285f4; }&#10;  </style>
  </defs>
  <path
     style="fill:#bde6fb;fill-opacity:1"
     class="ColorScheme-Text"
     d="m 0.54882812,2.0078125 a 0.50005,0.50005 0 0 0 -0.5,0.5 V 10.5 a 0.50005,0.50005 0 0 0 0.5,0.5 H 9.5234375 A 0.50005,0.50005 0 0 0 10.023438,10.5 V 2.5078125 a 0.50005,0.50005 0 0 0 -0.5000005,-0.5 z m 13.97460988,0 a 0.50005,0.50005 0 0 0 -0.5,0.5 V 10.5 a 0.50005,0.50005 0 0 0 0.5,0.5 H 23.5 A 0.50005,0.50005 0 0 0 24,10.5 V 2.5078125 a 0.50005,0.50005 0 0 0 -0.5,-0.5 z M 1.5390625,3.0039062 h 6.9980469 c 0.2761,0 0.5,0.2239 0.5,0.5 v 5.9941407 c 0,0.2762 -0.2239,0.5 -0.5,0.5 H 1.5390625 c -0.2761,0 -0.5,-0.2238 -0.5,-0.5 V 3.5039062 c 0,-0.2761 0.2239,-0.5 0.5,-0.5 z m 13.9765625,0 h 6.998047 c 0.276,0 0.5,0.2239 0.5,0.5 v 5.9941407 c 0,0.2762 -0.224,0.5 -0.5,0.5 h -6.998047 c -0.277,0 -0.5,-0.2238 -0.5,-0.5 V 3.5039062 c 0,-0.2761 0.223,-0.5 0.5,-0.5 z M 17.023438,12 v 2 H 5.0234375 v 1 H 17.023438 v 2 l 3,-2.5 z"
     id="path1" />
  <path
     style="opacity:0.3;fill:#bde6fb;fill-opacity:1"
     class="ColorScheme-Text"
     d="M 1.0488281,3.0078125 V 10 H 9.0234375 V 3.0078125 Z m 13.9746099,0 V 10 H 23 V 3.0078125 Z"
     id="path2" />
</svg>
