<?xml version="1.0" encoding="UTF-8" standalone="no"?>
<svg
   width="24"
   height="24"
   viewBox="0 0 24 24"
   version="1.1"
   id="svg2"
   sodipodi:docname="transform-scale-horizontal.svg"
   xmlns:inkscape="http://www.inkscape.org/namespaces/inkscape"
   xmlns:sodipodi="http://sodipodi.sourceforge.net/DTD/sodipodi-0.dtd"
   xmlns="http://www.w3.org/2000/svg"
   xmlns:svg="http://www.w3.org/2000/svg">
  <sodipodi:namedview
     id="namedview2"
     pagecolor="#505050"
     bordercolor="#eeeeee"
     borderopacity="1"
     inkscape:showpageshadow="0"
     inkscape:pageopacity="0"
     inkscape:pagecheckerboard="0"
     inkscape:deskcolor="#d1d1d1" />
  <defs
     id="defs1">
    <style
       id="current-color-scheme"
       type="text/css">&#10;   .ColorScheme-Text { color:#1e3f5a; } .ColorScheme-Highlight { color:#4285f4; }&#10;  </style>
  </defs>
  <path
     style="fill:#bde6fb;fill-opacity:1"
     class="ColorScheme-Text"
     d="m 0.5078125,3.0078125 a 0.50005,0.50005 0 0 0 -0.5,0.5 V 20.492188 a 0.50005,0.50005 0 0 0 0.5,0.5 h 7.0039063 8.9746092 7.00586 a 0.50005,0.50005 0 0 0 0.5,-0.5 V 3.5078125 a 0.50005,0.50005 0 0 0 -0.5,-0.5 h -7.00586 -8.9746092 z m 0.5,1 H 7.0117188 V 15.080078 H 3.9609375 v -2 l -2.953125,2.460938 z m 7.0039063,0 H 15.986328 V 15.080078 H 8.0117188 Z m 8.9746092,0 h 6.00586 V 15.541016 l -2.953126,-2.460938 v 2 H 16.986328 Z M 1.0078125,15.619141 l 2.953125,2.460937 v -2 h 3.0507813 v 3.91211 H 1.0078125 Z m 21.9843755,0 v 4.373047 h -6.00586 v -3.91211 h 3.052734 v 2 z M 8.0117188,16.080078 h 7.9746092 v 3.91211 H 8.0117188 Z"
     id="path1" />
  <path
     style="opacity:0.3;fill:#bde6fb;fill-opacity:1"
     class="ColorScheme-Text"
     d="M 1,4 V 20 H 23 V 4 Z"
     id="path2" />
</svg>
