<?xml version="1.0" encoding="UTF-8" standalone="no"?>
<svg
   width="24"
   height="24"
   viewBox="0 0 24 24"
   version="1.1"
   id="svg2"
   sodipodi:docname="transform-move-vertical.svg"
   xmlns:inkscape="http://www.inkscape.org/namespaces/inkscape"
   xmlns:sodipodi="http://sodipodi.sourceforge.net/DTD/sodipodi-0.dtd"
   xmlns="http://www.w3.org/2000/svg"
   xmlns:svg="http://www.w3.org/2000/svg">
  <sodipodi:namedview
     id="namedview2"
     pagecolor="#505050"
     bordercolor="#eeeeee"
     borderopacity="1"
     inkscape:showpageshadow="0"
     inkscape:pageopacity="0"
     inkscape:pagecheckerboard="0"
     inkscape:deskcolor="#d1d1d1" />
  <defs
     id="defs1">
    <style
       id="current-color-scheme"
       type="text/css">&#10;   .ColorScheme-Text { color:#1e3f5a; } .ColorScheme-Highlight { color:#4285f4; }&#10;  </style>
  </defs>
  <path
     style="fill:#bde6fb;fill-opacity:1"
     class="ColorScheme-Text"
     d="M 13.5,0 A 0.50005,0.50005 0 0 0 13,0.5 v 8.9765625 a 0.50005,0.50005 0 0 0 0.5,0.5 h 7.992188 a 0.50005,0.50005 0 0 0 0.5,-0.5 V 0.5 a 0.50005,0.50005 0 0 0 -0.5,-0.5 z m 1.001953,0.98632812 h 5.994141 c 0.27613,3e-5 0.499972,0.22386998 0.5,0.49999998 V 8.484375 c -3e-5,0.27613 -0.22387,0.499973 -0.5,0.5 h -5.994141 c -0.27613,-3e-5 -0.499972,-0.22387 -0.5,-0.5 V 1.4863281 c 3e-5,-0.27613 0.22387,-0.49997298 0.5,-0.49999998 z M 9.5,3.9765625 l -2.5,3 H 9 V 18.976562 h 1 V 6.9765625 h 2 z m 4,9.9999995 a 0.50005,0.50005 0 0 0 -0.5,0.5 v 8.97461 a 0.50005,0.50005 0 0 0 0.5,0.5 h 7.992188 a 0.50005,0.50005 0 0 0 0.5,-0.5 v -8.97461 a 0.50005,0.50005 0 0 0 -0.5,-0.5 z m 1.001953,0.986329 h 5.994141 c 0.27613,0 0.49997,0.2239 0.5,0.5 v 6.998047 c -3e-5,0.276099 -0.22387,0.5 -0.5,0.5 h -5.994141 c -0.27613,0 -0.49997,-0.223901 -0.5,-0.5 v -6.998047 c 3e-5,-0.2761 0.22387,-0.5 0.5,-0.5 z"
     id="path1" />
  <path
     style="opacity:0.3;fill:#bde6fb;fill-opacity:1"
     class="ColorScheme-Text"
     d="m 14,1 v 7.9765625 h 6.992188 V 1 Z m 0,13.976562 v 7.97461 h 6.992188 v -7.97461 z"
     id="path2" />
</svg>
