<?xml version="1.0" encoding="UTF-8" standalone="no"?>
<svg
   width="24"
   height="24"
   viewBox="0 0 24 24"
   version="1.1"
   id="svg1"
   sodipodi:docname="transform-affect-pattern.svg"
   xmlns:inkscape="http://www.inkscape.org/namespaces/inkscape"
   xmlns:sodipodi="http://sodipodi.sourceforge.net/DTD/sodipodi-0.dtd"
   xmlns="http://www.w3.org/2000/svg"
   xmlns:svg="http://www.w3.org/2000/svg">
  <sodipodi:namedview
     id="namedview1"
     pagecolor="#505050"
     bordercolor="#eeeeee"
     borderopacity="1"
     inkscape:showpageshadow="0"
     inkscape:pageopacity="0"
     inkscape:pagecheckerboard="0"
     inkscape:deskcolor="#d1d1d1" />
  <defs
     id="defs1">
    <style
       id="current-color-scheme"
       type="text/css">&#10;   .ColorScheme-Text { color:#1e3f5a; } .ColorScheme-Highlight { color:#4285f4; }&#10;  </style>
  </defs>
  <path
     style="fill:#bde6fb;fill-opacity:1"
     class="ColorScheme-Text"
     d="M 6.0585938,7.0019531 8.203125,8.6328125 6,10.308594 v 0.0332 l 2.1796875,1.660156 h 0.046875 L 10.40625,10.341797 8.203125,8.6660156 10.394531,7.0019531 Z m 4.4062502,0 2.146484,1.6308594 2.142578,-1.6308594 z m 4.453125,0 L 17,8.5859375 V 7.0019531 Z m -2.261719,1.6640625 -2.203125,1.6757814 2.179688,1.660156 2.203125,-1.675781 z M 14.835938,10.326172 17,11.970703 V 8.6796875 Z m 0.171874,2.6875 v 1.99414 h -2.001953 v 0.996094 h 2.001953 V 18 l 3.003907,-2.494141 z M 8,14.992188 v 1.029296 h 1 v -1.029296 z m 2.017578,0 v 1.029296 h 0.484375 1.001953 0.484375 v -1.029296 h -0.484375 -1.001953 z"
     id="path1" />
</svg>
