<?xml version="1.0" encoding="UTF-8" standalone="no"?>
<svg
   width="24"
   height="24"
   viewBox="0 0 24 24"
   version="1.1"
   id="svg1"
   sodipodi:docname="twitter-home.svg"
   xmlns:inkscape="http://www.inkscape.org/namespaces/inkscape"
   xmlns:sodipodi="http://sodipodi.sourceforge.net/DTD/sodipodi-0.dtd"
   xmlns="http://www.w3.org/2000/svg"
   xmlns:svg="http://www.w3.org/2000/svg">
  <sodipodi:namedview
     id="namedview1"
     pagecolor="#505050"
     bordercolor="#eeeeee"
     borderopacity="1"
     inkscape:showpageshadow="0"
     inkscape:pageopacity="0"
     inkscape:pagecheckerboard="0"
     inkscape:deskcolor="#d1d1d1" />
  <defs
     id="defs1">
    <style
       id="current-color-scheme"
       type="text/css">&#10;   .ColorScheme-Text { color:#1e3f5a; } .ColorScheme-Highlight { color:#4285f4; }&#10;  </style>
  </defs>
  <path
     style="fill:#bde6fb;fill-opacity:1"
     class="ColorScheme-Text"
     d="m 12,4.7597656 -8,7.8105474 1.5234375,1.55664 1.1425781,-0.986328 0.7617188,6.095703 H 16.572266 L 17.333984,13.140625 18.476562,14.09375 20,12.570313 Z m 0,5.3339844 c 1.2624,0 2.285156,1.022856 2.285156,2.285156 0,1.2624 -1.022856,2.285156 -2.285156,2.285156 -1.2624,0 -2.2851562,-1.022856 -2.2851562,-2.285156 0,-1.2624 1.0228562,-2.285156 2.2851562,-2.285156 z m 0,6.095703 c 0.42079,0 0.761719,0.340929 0.761719,0.761719 0,0.42078 -0.340929,0.761719 -0.761719,0.761719 -0.42079,0 -0.761719,-0.340939 -0.761719,-0.761719 0,-0.42079 0.340929,-0.761719 0.761719,-0.761719 z"
     id="path1" />
</svg>
