<?xml version="1.0" encoding="UTF-8" standalone="no"?>
<svg
   width="24"
   height="24"
   viewBox="0 0 24 24"
   version="1.1"
   id="svg1"
   sodipodi:docname="view-task-child.svg"
   xmlns:inkscape="http://www.inkscape.org/namespaces/inkscape"
   xmlns:sodipodi="http://sodipodi.sourceforge.net/DTD/sodipodi-0.dtd"
   xmlns="http://www.w3.org/2000/svg"
   xmlns:svg="http://www.w3.org/2000/svg">
  <sodipodi:namedview
     id="namedview1"
     pagecolor="#505050"
     bordercolor="#eeeeee"
     borderopacity="1"
     inkscape:showpageshadow="0"
     inkscape:pageopacity="0"
     inkscape:pagecheckerboard="0"
     inkscape:deskcolor="#d1d1d1" />
  <defs
     id="defs1">
    <style
       id="current-color-scheme"
       type="text/css">&#10;   .ColorScheme-Text { color:#1e3f5a; } .ColorScheme-Highlight { color:#4285f4; }&#10;  </style>
  </defs>
  <path
     style="fill:#bde6fb;fill-opacity:1"
     class="ColorScheme-Text"
     d="M 7,5 C 4.75,5 5,7 5,7 v 12 h 8.003906 V 17 H 11.064453 7 V 12.53125 7 H 17 V 7.1640625 L 10.970703,14.0625 8.7207031,11.8125 c -0.3763,-0.3764 -1.0611,-0.3763 -1.4375,0 C 7.0950031,12.0007 7,12.26595 7,12.53125 7,12.79665 7.0950031,13.0618 7.2832031,13.25 l 2.9999999,3 0.78125,0.75 0.6875,-0.8125 L 17,10.189453 V 13 h 2 V 7 C 19,5 17,5 17,5 Z m 7.859375,9 c -0.9633,0 -0.855469,0.857422 -0.855469,0.857422 V 20 H 20 V 14.857422 C 20,14.000422 19.142578,14 19.142578,14 Z"
     id="path1" />
</svg>
