<?xml version="1.0" encoding="UTF-8" standalone="no"?>
<svg
   width="24"
   height="24"
   viewBox="0 0 24 24"
   version="1.1"
   id="svg1"
   sodipodi:docname="view-readermode-active.svg"
   xmlns:inkscape="http://www.inkscape.org/namespaces/inkscape"
   xmlns:sodipodi="http://sodipodi.sourceforge.net/DTD/sodipodi-0.dtd"
   xmlns="http://www.w3.org/2000/svg"
   xmlns:svg="http://www.w3.org/2000/svg">
  <sodipodi:namedview
     id="namedview1"
     pagecolor="#505050"
     bordercolor="#eeeeee"
     borderopacity="1"
     inkscape:showpageshadow="0"
     inkscape:pageopacity="0"
     inkscape:pagecheckerboard="0"
     inkscape:deskcolor="#d1d1d1" />
  <defs
     id="defs1">
    <style
       id="current-color-scheme"
       type="text/css">&#10;   .ColorScheme-Text { color:#1e3f5a; } .ColorScheme-Highlight { color:#4285f4; }&#10;  </style>
  </defs>
  <path
     style="fill:#bde6fb;fill-opacity:1"
     class="ColorScheme-Text"
     d="m 14.029297,5 c -0.1471,0.003 -0.299985,0.016962 -0.458984,0.039063 -0.5669,0.0788 -1.251626,0.3524656 -2.015625,0.7597656 C 10.014087,4.9457082 8.8138406,4.8937469 7.8066406,5.1542969 6.7378406,5.4307969 5.868925,5.88425 4.515625,5.84375 L 4,5.828125 V 20 H 15.787109 C 15.304109,19.467 15,18.769 15,18 c 0,-1.184 0.707844,-2.209314 1.714844,-2.695312 -0.487,-0.137001 -0.979391,-0.285874 -1.525391,-0.421876 C 14.210453,14.637814 13.0982,14.696187 12,15.367188 V 6.6699219 c 0.7033,-0.3855 1.245388,-0.5982094 1.679688,-0.6621094 0.2392,-0.0352 0.452203,-0.032159 0.658203,-0.00586 0.206,0.0265 0.405328,0.077172 0.611328,0.1386719 C 15.484219,6.300425 16.143,6.5531719 17,6.7011719 V 15.1875 C 17.315,15.0735 17.648,15 18,15 c 0.352,0 0.685,0.0735 1,0.1875 V 5.8457031 l -0.517578,0.017578 c -1.516,0.0552 -2.27,-0.3987062 -3.25,-0.6914062 C 14.865422,5.062075 14.471297,4.99098 14.029297,5 Z M 9.21875,5.9941406 C 9.71765,6.0327406 10.2822,6.213475 11,6.609375 v 8.726563 C 9.8956,14.693937 8.7902064,14.645672 7.8164062,14.888672 c -0.6532,0.162 -1.2472062,0.349 -1.8164062,0.5 V 6.6640625 c 0.8021,-0.148 1.4740875,-0.38105 2.0546875,-0.53125 C 8.2857875,6.0730125 8.5090812,6.024 8.7382812,6 8.8932813,5.9838 9.05235,5.9813406 9.21875,5.9941406 Z M 18,16 a 2,2 0 0 0 -2,2 2,2 0 0 0 2,2 2,2 0 0 0 2,-2 2,2 0 0 0 -2,-2 z"
     id="path1" />
</svg>
