<?xml version="1.0" encoding="UTF-8" standalone="no"?>
<svg
   width="24"
   height="24"
   version="1.1"
   id="svg1"
   sodipodi:docname="view-sort.svg"
   xmlns:inkscape="http://www.inkscape.org/namespaces/inkscape"
   xmlns:sodipodi="http://sodipodi.sourceforge.net/DTD/sodipodi-0.dtd"
   xmlns="http://www.w3.org/2000/svg"
   xmlns:svg="http://www.w3.org/2000/svg">
  <sodipodi:namedview
     id="namedview1"
     pagecolor="#505050"
     bordercolor="#eeeeee"
     borderopacity="1"
     inkscape:showpageshadow="0"
     inkscape:pageopacity="0"
     inkscape:pagecheckerboard="0"
     inkscape:deskcolor="#d1d1d1" />
  <defs
     id="defs1">
    <style
       id="current-color-scheme"
       type="text/css">&#10;   .ColorScheme-Text { color:#1e3f5a; } .ColorScheme-Highlight { color:#4285f4; }&#10;  </style>
  </defs>
  <path
     style="fill:#bde6fb;fill-opacity:1"
     class="ColorScheme-Text"
     d="m 15,5 -3,4 h 2 v 3 h 2 V 9 h 2 z M 6.5,6 A 1.5,1.5 0 0 0 5,7.5 1.5,1.5 0 0 0 6.5,9 1.5,1.5 0 0 0 8,7.5 1.5,1.5 0 0 0 6.5,6 Z m 0,4 A 1.5,1.5 0 0 0 5,11.5 1.5,1.5 0 0 0 6.5,13 1.5,1.5 0 0 0 8,11.5 1.5,1.5 0 0 0 6.5,10 Z m 4.5,1 v 3 H 9 l 3,4 3,-4 H 13 V 11 Z M 6.5,14 A 1.5,1.5 0 0 0 5,15.5 1.5,1.5 0 0 0 6.5,17 1.5,1.5 0 0 0 8,15.5 1.5,1.5 0 0 0 6.5,14 Z"
     id="path1" />
</svg>
