<?xml version="1.0" encoding="UTF-8" standalone="no"?>
<svg
   width="24"
   height="24"
   viewBox="0 0 24 24"
   version="1.1"
   id="svg1"
   sodipodi:docname="view-form.svg"
   xmlns:inkscape="http://www.inkscape.org/namespaces/inkscape"
   xmlns:sodipodi="http://sodipodi.sourceforge.net/DTD/sodipodi-0.dtd"
   xmlns="http://www.w3.org/2000/svg"
   xmlns:svg="http://www.w3.org/2000/svg">
  <sodipodi:namedview
     id="namedview1"
     pagecolor="#505050"
     bordercolor="#eeeeee"
     borderopacity="1"
     inkscape:showpageshadow="0"
     inkscape:pageopacity="0"
     inkscape:pagecheckerboard="0"
     inkscape:deskcolor="#d1d1d1" />
  <defs
     id="defs1">
    <style
       id="current-color-scheme"
       type="text/css">&#10;   .ColorScheme-Text { color:#1e3f5a; } .ColorScheme-Highlight { color:#4285f4; }&#10;  </style>
  </defs>
  <path
     style="fill:#bde6fb;fill-opacity:1"
     class="ColorScheme-Text"
     d="m 6,5 c 0,0 -0.076201,0.0041 -0.1816406,0.023437 -0.20412,0.03015 -0.3586863,0.103495 -0.4726563,0.203125 -0.0221,0.01694 -0.043553,0.035068 -0.064453,0.054687 -0.0196,0.02097 -0.037688,0.042383 -0.054687,0.064453 -0.0996,0.11397 -0.172975,0.2685363 -0.203125,0.4726563 C 5.0034375,5.9243594 5.0039062,6 5.0039062,6 v 12 c 0,1 1,1 1,1 H 18.003906 c 0,0 1,0 1,-1 V 6 c 0,0 -0.004,-0.076231 -0.02344,-0.1816406 -0.0301,-0.20412 -0.103505,-0.3586763 -0.203125,-0.4726563 -0.0169,-0.02207 -0.03509,-0.043483 -0.05469,-0.064453 -0.021,-0.01962 -0.04265,-0.037748 -0.06445,-0.054687 -0.11397,-0.09963 -0.268536,-0.172975 -0.472656,-0.203125 C 18.085547,5.0044375 18.005859,5 18.005859,5 H 6.0058594 Z m 2,4 h 3 v 6 H 8 Z m 4,1 h 4 v 1 h -4 z m 0,3 h 4 v 1 h -4 z"
     id="path1" />
</svg>
