<?xml version="1.0" encoding="UTF-8" standalone="no"?>
<svg
   width="24"
   height="24"
   viewBox="0 0 24 24"
   version="1.1"
   id="svg1"
   sodipodi:docname="view-compact.svg"
   xmlns:inkscape="http://www.inkscape.org/namespaces/inkscape"
   xmlns:sodipodi="http://sodipodi.sourceforge.net/DTD/sodipodi-0.dtd"
   xmlns="http://www.w3.org/2000/svg"
   xmlns:svg="http://www.w3.org/2000/svg">
  <sodipodi:namedview
     id="namedview1"
     pagecolor="#505050"
     bordercolor="#eeeeee"
     borderopacity="1"
     inkscape:showpageshadow="0"
     inkscape:pageopacity="0"
     inkscape:pagecheckerboard="0"
     inkscape:deskcolor="#d1d1d1" />
  <defs
     id="defs1">
    <style
       id="current-color-scheme"
       type="text/css">&#10;   .ColorScheme-Text { color:#1e3f5a; } .ColorScheme-Highlight { color:#4285f4; }&#10;  </style>
  </defs>
  <path
     style="fill:#bde6fb;fill-opacity:1"
     class="ColorScheme-Text"
     d="m 6.25,8.0039062 c -0.1385,0 -0.25,0.1115002 -0.25,0.25 v 1.5 c 0,0.1385 0.1115,0.2499998 0.25,0.2499998 h 1.5 c 0.1385,0 0.25,-0.1114997 0.25,-0.2499998 v -1.5 c 0,-0.1384999 -0.1115,-0.25 -0.25,-0.25 z m 3,0 c -0.1385,0 -0.25,0.1115002 -0.25,0.25 v 1.5 c 0,0.1385 0.1115,0.2499998 0.25,0.2499998 h 1.5 c 0.1385,0 0.25,-0.1114997 0.25,-0.2499998 v -1.5 c 0,-0.1384999 -0.1115,-0.25 -0.25,-0.25 z m 3,0 c -0.1385,0 -0.25,0.1115002 -0.25,0.25 v 1.5 c 0,0.1385 0.1115,0.2499998 0.25,0.2499998 h 1.5 c 0.1385,0 0.25,-0.1114997 0.25,-0.2499998 v -1.5 c 0,-0.1384999 -0.1115,-0.25 -0.25,-0.25 z m 3,0 c -0.1385,0 -0.25,0.1115002 -0.25,0.25 v 1.5 c 0,0.1385 0.1115,0.2499998 0.25,0.2499998 h 1.5 c 0.1385,0 0.25,-0.1114997 0.25,-0.2499998 v -1.5 c 0,-0.1384999 -0.1115,-0.25 -0.25,-0.25 z m -9,2.9999998 c -0.1385,0 -0.25,0.1115 -0.25,0.25 v 1.5 c 0,0.1385 0.1115,0.25 0.25,0.25 h 1.5 c 0.1385,0 0.25,-0.1115 0.25,-0.25 v -1.5 c 0,-0.1385 -0.1115,-0.25 -0.25,-0.25 z m 3,0 c -0.1385,0 -0.25,0.1115 -0.25,0.25 v 1.5 c 0,0.1385 0.1115,0.25 0.25,0.25 h 1.5 c 0.1385,0 0.25,-0.1115 0.25,-0.25 v -1.5 c 0,-0.1385 -0.1115,-0.25 -0.25,-0.25 z m 3,0 c -0.1385,0 -0.25,0.1115 -0.25,0.25 v 1.5 c 0,0.1385 0.1115,0.25 0.25,0.25 h 1.5 c 0.1385,0 0.25,-0.1115 0.25,-0.25 v -1.5 c 0,-0.1385 -0.1115,-0.25 -0.25,-0.25 z m 3,0 c -0.1385,0 -0.25,0.1115 -0.25,0.25 v 1.5 c 0,0.1385 0.1115,0.25 0.25,0.25 h 1.5 c 0.1385,0 0.25,-0.1115 0.25,-0.25 v -1.5 c 0,-0.1385 -0.1115,-0.25 -0.25,-0.25 z m -9,3 c -0.1385,0 -0.25,0.1115 -0.25,0.25 v 1.5 c 0,0.1385 0.1115,0.25 0.25,0.25 h 1.5 c 0.1385,0 0.25,-0.1115 0.25,-0.25 v -1.5 c 0,-0.1385 -0.1115,-0.25 -0.25,-0.25 z m 3,0 c -0.1385,0 -0.25,0.1115 -0.25,0.25 v 1.5 c 0,0.1385 0.1115,0.25 0.25,0.25 h 1.5 c 0.1385,0 0.25,-0.1115 0.25,-0.25 v -1.5 c 0,-0.1385 -0.1115,-0.25 -0.25,-0.25 z m 3,0 c -0.1385,0 -0.25,0.1115 -0.25,0.25 v 1.5 c 0,0.1385 0.1115,0.25 0.25,0.25 h 1.5 c 0.1385,0 0.25,-0.1115 0.25,-0.25 v -1.5 c 0,-0.1385 -0.1115,-0.25 -0.25,-0.25 z m 3,0 c -0.1385,0 -0.25,0.1115 -0.25,0.25 v 1.5 c 0,0.1385 0.1115,0.25 0.25,0.25 h 1.5 c 0.1385,0 0.25,-0.1115 0.25,-0.25 v -1.5 c 0,-0.1385 -0.1115,-0.25 -0.25,-0.25 z"
     id="path1" />
</svg>
