<?xml version="1.0" encoding="UTF-8" standalone="no"?>
<svg
   width="24"
   height="24"
   version="1.1"
   id="svg1"
   sodipodi:docname="view-pim-summary.svg"
   xmlns:inkscape="http://www.inkscape.org/namespaces/inkscape"
   xmlns:sodipodi="http://sodipodi.sourceforge.net/DTD/sodipodi-0.dtd"
   xmlns="http://www.w3.org/2000/svg"
   xmlns:svg="http://www.w3.org/2000/svg">
  <sodipodi:namedview
     id="namedview1"
     pagecolor="#505050"
     bordercolor="#eeeeee"
     borderopacity="1"
     inkscape:showpageshadow="0"
     inkscape:pageopacity="0"
     inkscape:pagecheckerboard="0"
     inkscape:deskcolor="#d1d1d1" />
  <defs
     id="defs1">
    <style
       id="current-color-scheme" />
  </defs>
  <path
     d="m 12,5 c -3.84,0 -7,3.16 -7,7 0,3.85 3.16,7 7,7 3.84,0 7,-3.15 7,-7 0,-3.84 -3.16,-7 -7,-7 z m 0,3 a 2,2 0 1 1 0,4 2,2 0 0 1 0,-4 z m 0,5 c 4,0 4,2.4 4,2.4 V 16 H 8 v -0.6 c 0,0 0,-2.4 4,-2.4 z"
     fill="currentColor"
     color="#1e3f5a"
     id="path1"
     style="fill:#bde6fb;fill-opacity:1" />
</svg>
