<?xml version="1.0" encoding="UTF-8" standalone="no"?>
<svg
   width="24"
   height="24"
   viewBox="0 0 24 24"
   version="1.1"
   id="svg1"
   sodipodi:docname="view-bank-account-savings.svg"
   xmlns:inkscape="http://www.inkscape.org/namespaces/inkscape"
   xmlns:sodipodi="http://sodipodi.sourceforge.net/DTD/sodipodi-0.dtd"
   xmlns="http://www.w3.org/2000/svg"
   xmlns:svg="http://www.w3.org/2000/svg">
  <sodipodi:namedview
     id="namedview1"
     pagecolor="#505050"
     bordercolor="#eeeeee"
     borderopacity="1"
     inkscape:showpageshadow="0"
     inkscape:pageopacity="0"
     inkscape:pagecheckerboard="0"
     inkscape:deskcolor="#d1d1d1" />
  <defs
     id="defs1">
    <style
       id="current-color-scheme"
       type="text/css">&#10;   .ColorScheme-Text { color:#1e3f5a; } .ColorScheme-Highlight { color:#4285f4; }&#10;  </style>
  </defs>
  <path
     style="fill:#bde6fb;fill-opacity:1"
     class="ColorScheme-Text"
     d="m 11,5 -7,7 h 2 v 7 h 10 v -7 h 2 z m 0,5 c 1.1046,0 2,0.89547 2,2 0,1.10453 -0.89543,2 -2,2 2.9999,-0.0018 3,2.400391 3,2.400391 V 17 H 8 V 16.400391 C 8,16.400391 7.9999,14.002 11,14 9.8954,14 9,13.1045 9,12 9,10.8955 9.8954,10 11,10 Z m 7,5 v 2 h -1 l 1.5,3 1.5,-3 h -1 v -2 z"
     id="path1" />
</svg>
