<?xml version="1.0" encoding="UTF-8" standalone="no"?>
<svg
   width="24"
   height="24"
   viewBox="0 0 24 24"
   version="1.1"
   id="svg1"
   sodipodi:docname="view-barcode-add.svg"
   xmlns:inkscape="http://www.inkscape.org/namespaces/inkscape"
   xmlns:sodipodi="http://sodipodi.sourceforge.net/DTD/sodipodi-0.dtd"
   xmlns="http://www.w3.org/2000/svg"
   xmlns:svg="http://www.w3.org/2000/svg">
  <sodipodi:namedview
     id="namedview1"
     pagecolor="#505050"
     bordercolor="#eeeeee"
     borderopacity="1"
     inkscape:showpageshadow="0"
     inkscape:pageopacity="0"
     inkscape:pagecheckerboard="0"
     inkscape:deskcolor="#d1d1d1" />
  <defs
     id="defs1">
    <style
       id="current-color-scheme"
       type="text/css">&#10;   .ColorScheme-Text { color:#1e3f5a; } .ColorScheme-Highlight { color:#4285f4; }&#10;  </style>
  </defs>
  <path
     style="fill:#bde6fb;fill-opacity:1"
     class="ColorScheme-Text"
     d="M 5,5.0039062 V 18.003906 H 7 V 5.0039062 Z m 3,0 V 11.003906 H 9 V 5.0039062 Z m 2,0 V 18.003906 h 1 V 5.0039062 Z m 2,0 v 7.9999998 h 1 V 5.0039062 Z m 2,0 v 5.9999998 h 1 V 5.0039062 Z m 2,0 v 5.9999998 h 3 V 5.0039062 Z m -1,6.9999998 a 1.000075,1.000075 0 0 0 -1,1 v 1 h -1 a 1.000075,1.000075 0 0 0 -1,1 v 1 a 1.000075,1.000075 0 0 0 1,1 h 1 v 1 a 1.000075,1.000075 0 0 0 1,1 h 1 a 1.000075,1.000075 0 0 0 1,-1 v -1 h 1 a 1.000075,1.000075 0 0 0 1,-1 v -1 a 1.000075,1.000075 0 0 0 -1,-1 h -1 v -1 a 1.000075,1.000075 0 0 0 -1,-1 z"
     id="path1" />
</svg>
