<?xml version="1.0" encoding="UTF-8" standalone="no"?>
<svg
   width="24"
   height="24"
   viewBox="0 0 24 24"
   version="1.1"
   id="svg1"
   sodipodi:docname="view-certificate.svg"
   xmlns:inkscape="http://www.inkscape.org/namespaces/inkscape"
   xmlns:sodipodi="http://sodipodi.sourceforge.net/DTD/sodipodi-0.dtd"
   xmlns="http://www.w3.org/2000/svg"
   xmlns:svg="http://www.w3.org/2000/svg">
  <sodipodi:namedview
     id="namedview1"
     pagecolor="#505050"
     bordercolor="#eeeeee"
     borderopacity="1"
     inkscape:showpageshadow="0"
     inkscape:pageopacity="0"
     inkscape:pagecheckerboard="0"
     inkscape:deskcolor="#d1d1d1" />
  <defs
     id="defs1">
    <style
       id="current-color-scheme"
       type="text/css">&#10;   .ColorScheme-Text { color:#1e3f5a; } .ColorScheme-Highlight { color:#4285f4; }&#10;  </style>
  </defs>
  <path
     style="fill:#bde6fb;fill-opacity:1"
     class="ColorScheme-Text"
     d="m 4,5 v 14 c 5.3333,-0.002 10.667,0.0059 16,0.0039 V 5.0039062 C 14.667,5.0058063 9.333,4.998 4,5 Z m 9,2 h 6 V 8 H 13 Z M 7.5,8 C 8.331,8 9,8.669 9,9.5 V 11 h 1 v 3 H 5 V 11 H 6 V 9.5 C 6,8.669 6.669,8 7.5,8 Z m 0,1 C 7.223,9 7,9.223 7,9.5 V 11 H 8 V 9.5 C 8,9.223 7.777,9 7.5,9 Z m 5.5,1 h 6 v 1 h -6 z m 0,3 h 6 v 1 h -6 z"
     id="path1" />
</svg>
