<?xml version="1.0" encoding="UTF-8" standalone="no"?>
<svg
   width="24"
   height="24"
   viewBox="0 0 24 24"
   version="1.1"
   id="svg1"
   sodipodi:docname="view-presentation.svg"
   xmlns:inkscape="http://www.inkscape.org/namespaces/inkscape"
   xmlns:sodipodi="http://sodipodi.sourceforge.net/DTD/sodipodi-0.dtd"
   xmlns="http://www.w3.org/2000/svg"
   xmlns:svg="http://www.w3.org/2000/svg">
  <sodipodi:namedview
     id="namedview1"
     pagecolor="#505050"
     bordercolor="#eeeeee"
     borderopacity="1"
     inkscape:showpageshadow="0"
     inkscape:pageopacity="0"
     inkscape:pagecheckerboard="0"
     inkscape:deskcolor="#d1d1d1" />
  <defs
     id="defs1">
    <style
       id="current-color-scheme"
       type="text/css">&#10;   .ColorScheme-Text { color:#1e3f5a; } .ColorScheme-Highlight { color:#4285f4; }&#10;  </style>
  </defs>
  <path
     style="fill:#bde6fb;fill-opacity:1"
     class="ColorScheme-Text"
     d="M 6,4 C 4.0004,4 4,6 4,6 v 9.001953 c 0,0 0,2 2,2 h 12 c 0,0 1.9995,4.2e-4 2,-2 V 6 c 0,0 4.1e-4,-2 -2,-2 z M 9,6 12,7.9257812 15,9.8515625 12.074219,11.925781 9.1464844,14 9.0742188,10 Z M 7.9785156,18.001953 c 0,0 -0.9785156,0.0017 -0.9785156,1.001953 V 20 h 10 v -0.996094 c 0,-1.0002 -1,-1.001953 -1,-1.001953 z"
     id="path1" />
</svg>
