<?xml version="1.0" encoding="UTF-8" standalone="no"?>
<svg
   width="24"
   height="24"
   viewBox="0 0 24 24"
   version="1.1"
   id="svg1"
   sodipodi:docname="view-time-schedule-baselined-remove.svg"
   xmlns:inkscape="http://www.inkscape.org/namespaces/inkscape"
   xmlns:sodipodi="http://sodipodi.sourceforge.net/DTD/sodipodi-0.dtd"
   xmlns="http://www.w3.org/2000/svg"
   xmlns:svg="http://www.w3.org/2000/svg">
  <sodipodi:namedview
     id="namedview1"
     pagecolor="#505050"
     bordercolor="#eeeeee"
     borderopacity="1"
     inkscape:showpageshadow="0"
     inkscape:pageopacity="0"
     inkscape:pagecheckerboard="0"
     inkscape:deskcolor="#d1d1d1" />
  <defs
     id="defs1">
    <style
       id="current-color-scheme"
       type="text/css">&#10;   .ColorScheme-Text { color:#1e3f5a; } .ColorScheme-Highlight { color:#4285f4; }&#10;  </style>
  </defs>
  <path
     style="fill:#bde6fb;fill-opacity:1"
     class="ColorScheme-Text"
     d="m 6.0078125,5 c -2.25,0 -2,2 -2,2 V 19 H 12.007813 V 17 H 6.0078125 V 10 H 10.007813 V 8 H 6.0078125 V 7 h 9.9999995 v 4 h -5.999999 v 2 h 7.999999 V 7 c 0,-2 -2,-2 -2,-2 z m 2,9 v 2 H 12.007813 V 14 Z M 15.414062,14.34375 14,15.757812 15.414062,17.171875 14,18.585938 15.414062,20 16.828125,18.585938 18.242188,20 19.65625,18.585938 18.242188,17.171875 19.65625,15.757812 18.242188,14.34375 16.828125,15.757812 Z"
     id="path1" />
</svg>
