<?xml version="1.0" encoding="UTF-8" standalone="no"?>
<svg
   width="24"
   height="24"
   viewBox="0 0 24 24"
   version="1.1"
   id="svg1"
   sodipodi:docname="whitebalance.svg"
   xmlns:inkscape="http://www.inkscape.org/namespaces/inkscape"
   xmlns:sodipodi="http://sodipodi.sourceforge.net/DTD/sodipodi-0.dtd"
   xmlns="http://www.w3.org/2000/svg"
   xmlns:svg="http://www.w3.org/2000/svg">
  <sodipodi:namedview
     id="namedview1"
     pagecolor="#505050"
     bordercolor="#eeeeee"
     borderopacity="1"
     inkscape:showpageshadow="0"
     inkscape:pageopacity="0"
     inkscape:pagecheckerboard="0"
     inkscape:deskcolor="#d1d1d1" />
  <defs
     id="defs1">
    <style
       id="current-color-scheme"
       type="text/css">&#10;   .ColorScheme-Text { color:#1e3f5a; } .ColorScheme-Highlight { color:#4285f4; }&#10;  </style>
  </defs>
  <path
     style="fill:#bde6fb;fill-opacity:1"
     class="ColorScheme-Text"
     d="m 11.5,4 v 1.8125 h 1 V 4 Z M 6.6875,5.96875 5.96875,6.6875 7.25,8 7.96875,7.25 Z m 10.623047,0 L 16.03125,7.25 16.75,8 18.03125,6.6875 Z M 12,7 c -2.7614,0 -5,2.2386 -5,5 0,2.761 2.2386,5 5,5 2.761,0 5,-2.239 5,-5 0,-2.7614 -2.239,-5 -5,-5 z m 0,2 a 3,3 0 0 1 3,3 3,3 0 0 1 -3,3 3,3 0 0 1 -3,-3 3,3 0 0 1 3,-3 z m -8,2.5 v 1 h 1.8125 v -1 z m 14.1875,0 v 1 H 20 v -1 z M 7.25,16.03125 5.96875,17.3125 6.6875,18.03125 7.96875,16.75 Z m 9.5,0 -0.71875,0.71875 1.279297,1.28125 0.720703,-0.71875 z M 11.5,18.1875 V 20 h 1 v -1.8125 z"
     id="path1" />
</svg>
