<?xml version="1.0" encoding="UTF-8" standalone="no"?>
<svg
   width="24"
   height="24"
   viewBox="0 0 24 24"
   version="1.1"
   id="svg1"
   sodipodi:docname="window-previous.svg"
   xmlns:inkscape="http://www.inkscape.org/namespaces/inkscape"
   xmlns:sodipodi="http://sodipodi.sourceforge.net/DTD/sodipodi-0.dtd"
   xmlns="http://www.w3.org/2000/svg"
   xmlns:svg="http://www.w3.org/2000/svg">
  <sodipodi:namedview
     id="namedview1"
     pagecolor="#505050"
     bordercolor="#eeeeee"
     borderopacity="1"
     inkscape:showpageshadow="0"
     inkscape:pageopacity="0"
     inkscape:pagecheckerboard="0"
     inkscape:deskcolor="#d1d1d1" />
  <defs
     id="defs1">
    <style
       id="current-color-scheme"
       type="text/css">&#10;   .ColorScheme-Text { color:#1e3f5a; } .ColorScheme-Highlight { color:#4285f4; }&#10;  </style>
  </defs>
  <path
     style="fill:#bde6fb;fill-opacity:1"
     class="ColorScheme-Text"
     d="m 5.9980469,5 c 0,0 -0.079688,0.00444 -0.1796875,0.023437 -0.20412,0.03015 -0.3586863,0.103495 -0.4726563,0.203125 -0.022,0.01694 -0.043453,0.035068 -0.064453,0.054687 -0.0196,0.02097 -0.037788,0.042383 -0.054687,0.064453 -0.09963,0.11398 -0.173025,0.2685363 -0.203125,0.4726563 C 5.0040375,5.9237694 5,6 5,6 v 12 c 0,1 1,1 1,1 h 12 c 0,0 1,0 1,-1 V 6 c 0,0 -0.004,-0.076231 -0.02344,-0.1816406 -0.03015,-0.20412 -0.103524,-0.3586863 -0.203124,-0.4726563 -0.017,-0.02207 -0.03509,-0.043483 -0.05469,-0.064453 -0.0209,-0.01962 -0.04235,-0.037748 -0.06445,-0.054687 C 18.540326,5.1269331 18.38576,5.0535881 18.18164,5.0234381 18.076201,5.0040975 18,5 18,5 H 17.998 Z M 7,10 h 10 v 7 H 7 Z m 5,1 -3,2.5 3,2.5 v -2 h 3 v -1 h -3 z"
     id="path1" />
</svg>
