<?xml version="1.0" encoding="UTF-8" standalone="no"?>
<svg
   id="c"
   width="24"
   height="24"
   version="1.1"
   sodipodi:docname="xc_crosshair.svg"
   inkscape:version="0.92.4 (5da689c313, 2019-01-14)"
   xmlns:inkscape="http://www.inkscape.org/namespaces/inkscape"
   xmlns:sodipodi="http://sodipodi.sourceforge.net/DTD/sodipodi-0.dtd"
   xmlns="http://www.w3.org/2000/svg"
   xmlns:svg="http://www.w3.org/2000/svg"
   xmlns:rdf="http://www.w3.org/1999/02/22-rdf-syntax-ns#"
   xmlns:cc="http://creativecommons.org/ns#"
   xmlns:dc="http://purl.org/dc/elements/1.1/">
  <metadata
     id="metadata8">
    <rdf:RDF>
      <cc:Work
         rdf:about="">
        <dc:format>image/svg+xml</dc:format>
        <dc:type
           rdf:resource="http://purl.org/dc/dcmitype/StillImage" />
        <dc:title />
      </cc:Work>
    </rdf:RDF>
  </metadata>
  <sodipodi:namedview
     pagecolor="#ffffff"
     bordercolor="#666666"
     borderopacity="1"
     objecttolerance="10"
     gridtolerance="10"
     guidetolerance="10"
     inkscape:pageopacity="0"
     inkscape:pageshadow="2"
     inkscape:window-width="1078"
     inkscape:window-height="480"
     id="namedview6"
     showgrid="false"
     inkscape:zoom="9.8333333"
     inkscape:cx="-0.81355932"
     inkscape:cy="12"
     inkscape:window-x="0"
     inkscape:window-y="28"
     inkscape:window-maximized="0"
     inkscape:current-layer="c"
     inkscape:showpageshadow="0"
     inkscape:pagecheckerboard="0"
     inkscape:deskcolor="#d1d1d1" />
  <defs
     id="defs4">
    <style
       id="current-color-scheme" />
  </defs>
  <path
     id="a"
     d="m 12,3 a 1,1 0 0 0 -1,1 v 6 a 1,1 0 1 0 2,0 V 4 A 1,1 0 0 0 12,3 Z m -8,8 a 1,1 0 1 0 0,2 h 6 a 1,1 0 1 0 0,-2 z m 10,0 a 1,1 0 1 0 0,2 h 6 a 1,1 0 1 0 0,-2 z m -2,2 a 1,1 0 0 0 -1,1 v 6 a 1,1 0 1 0 2,0 v -6 a 1,1 0 0 0 -1,-1 z"
     inkscape:connector-curvature="0"
     style="color:#090d11;fill:#bde6fb;fill-opacity:1" />
</svg>
