<?xml version="1.0" encoding="UTF-8" standalone="no"?>
<svg
   width="24"
   height="24"
   viewBox="0 0 24 24"
   version="1.1"
   id="svg1"
   sodipodi:docname="xfpm-brightness-lcd.svg"
   xmlns:inkscape="http://www.inkscape.org/namespaces/inkscape"
   xmlns:sodipodi="http://sodipodi.sourceforge.net/DTD/sodipodi-0.dtd"
   xmlns="http://www.w3.org/2000/svg"
   xmlns:svg="http://www.w3.org/2000/svg">
  <sodipodi:namedview
     id="namedview1"
     pagecolor="#505050"
     bordercolor="#eeeeee"
     borderopacity="1"
     inkscape:showpageshadow="0"
     inkscape:pageopacity="0"
     inkscape:pagecheckerboard="0"
     inkscape:deskcolor="#d1d1d1" />
  <defs
     id="defs1">
    <style
       id="current-color-scheme"
       type="text/css">&#10;   .ColorScheme-Text { color:#1e3f5a; } .ColorScheme-Highlight { color:#4285f4; }&#10;  </style>
  </defs>
  <path
     style="fill:#bde6fb;fill-opacity:1"
     class="ColorScheme-Text"
     d="m 11.996094,4.71875 0.002,0.00195 L 12,4.71875 Z m 0.002,0.00195 C 11.230785,5.4778926 10.483059,6.2561352 9.703125,7 H 7 V 9.703125 C 6.2554,10.483725 5.47665,11.232 4.71875,12 5.47665,12.76805 6.25545,13.516175 7,14.296875 V 17 H 9.703125 C 10.483725,17.7446 11.232,18.52335 12,19.28125 12.76805,18.52335 13.516175,17.74455 14.296875,17 H 17 V 14.296875 C 17.7446,13.516275 18.52335,12.768 19.28125,12 18.52335,11.23195 17.74455,10.483825 17,9.703125 V 7 H 14.296875 C 13.512544,6.2561347 12.767348,5.4780918 11.998047,4.7207031 Z M 12,7.5 c 2.4853,0 4.5,2.0147 4.5,4.5 0,2.4853 -2.0147,4.5 -4.5,4.5 C 9.5147,16.5 7.5,14.4853 7.5,12 7.5,9.5147 9.5147,7.5 12,7.5 Z M 12,9 c -1.65685,0 -3,1.34315 -3,3 0,1.65685 1.34315,3 3,3 z"
     id="path1" />
</svg>
