<?xml version="1.0" encoding="UTF-8" standalone="no"?>
<svg
   width="24"
   height="24"
   viewBox="0 0 24 24"
   version="1.1"
   id="svg1"
   sodipodi:docname="zoom-2-to-1.svg"
   xmlns:inkscape="http://www.inkscape.org/namespaces/inkscape"
   xmlns:sodipodi="http://sodipodi.sourceforge.net/DTD/sodipodi-0.dtd"
   xmlns="http://www.w3.org/2000/svg"
   xmlns:svg="http://www.w3.org/2000/svg">
  <sodipodi:namedview
     id="namedview1"
     pagecolor="#505050"
     bordercolor="#eeeeee"
     borderopacity="1"
     inkscape:showpageshadow="0"
     inkscape:pageopacity="0"
     inkscape:pagecheckerboard="0"
     inkscape:deskcolor="#d1d1d1" />
  <defs
     id="defs1">
    <style
       id="current-color-scheme"
       type="text/css">&#10;   .ColorScheme-Text { color:#1e3f5a; } .ColorScheme-Highlight { color:#4285f4; }&#10;  </style>
  </defs>
  <path
     style="fill:#bde6fb;fill-opacity:1"
     class="ColorScheme-Text"
     d="m 7.1894531,6 c -0.6627,0 -1.1875,0.54894 -1.1875,1.21875 V 11 h 2 V 8 H 11.001953 V 6 Z m 5.8124999,0 v 2 h 3 v 3 h 2 V 7.21875 C 18.001953,6.54894 17.477153,6 16.814453,6 Z M 9.0019531,9 v 6 H 11.001953 V 9 Z m 2.9999999,1 v 4 l 2,-2 z m 2,2 v 2 h 1 v -4 h -1 z m -7.9999999,1 v 3.78125 c 0,0.66981 0.5248,1.21875 1.1875,1.21875 H 11.001953 V 16 H 8.0019531 v -3 z m 9.9999999,0 v 3 h -3 v 2 h 3.8125 c 0.6627,0 1.1875,-0.54894 1.1875,-1.21875 V 13 Z"
     id="path1" />
</svg>
