<?xml version="1.0" encoding="UTF-8" standalone="no"?>
<svg
   width="24"
   height="24"
   viewBox="0 0 24 24"
   version="1.1"
   id="svg1"
   sodipodi:docname="zoom-fit-height.svg"
   xmlns:inkscape="http://www.inkscape.org/namespaces/inkscape"
   xmlns:sodipodi="http://sodipodi.sourceforge.net/DTD/sodipodi-0.dtd"
   xmlns="http://www.w3.org/2000/svg"
   xmlns:svg="http://www.w3.org/2000/svg">
  <sodipodi:namedview
     id="namedview1"
     pagecolor="#505050"
     bordercolor="#eeeeee"
     borderopacity="1"
     inkscape:showpageshadow="0"
     inkscape:pageopacity="0"
     inkscape:pagecheckerboard="0"
     inkscape:deskcolor="#d1d1d1" />
  <defs
     id="defs1">
    <style
       id="current-color-scheme"
       type="text/css">&#10;   .ColorScheme-Text { color:#1e3f5a; } .ColorScheme-Highlight { color:#4285f4; }&#10;  </style>
  </defs>
  <path
     style="fill:#bde6fb;fill-opacity:1"
     class="ColorScheme-Text"
     d="M 7.21875,6 C 6.54894,6 6,6.5248 6,7.1875 V 11 H 8 V 8 h 3 V 6 Z M 13,6 v 2 h 3 v 3 h 2 V 7.1875 C 18,6.5248 17.45106,6 16.78125,6 Z m -1,2 -2,2 h 4 z m -3,3 v 2 h 6 v -2 z m -3,2 v 3.8125 C 6,17.4752 6.54894,18 7.21875,18 H 11 V 16 H 8 v -3 z m 10,0 v 3 h -3 v 2 h 3.78125 C 17.45106,18 18,17.4752 18,16.8125 V 13 Z m -6,1 2,2 2,-2 z"
     id="path1" />
</svg>
