<?xml version="1.0" encoding="UTF-8" standalone="no"?>
<svg
   width="48"
   height="48"
   viewBox="0 0 12.7 12.7"
   version="1.1"
   id="svg4"
   sodipodi:docname="applications-electronics.svg"
   inkscape:version="0.92.5 (2060ec1f9f, 2020-04-08)"
   xmlns:inkscape="http://www.inkscape.org/namespaces/inkscape"
   xmlns:sodipodi="http://sodipodi.sourceforge.net/DTD/sodipodi-0.dtd"
   xmlns="http://www.w3.org/2000/svg"
   xmlns:svg="http://www.w3.org/2000/svg">
  <sodipodi:namedview
     id="namedview1"
     pagecolor="#505050"
     bordercolor="#eeeeee"
     borderopacity="1"
     inkscape:showpageshadow="0"
     inkscape:pageopacity="0"
     inkscape:pagecheckerboard="0"
     inkscape:deskcolor="#d1d1d1" />
  <defs
     id="defs8">
    <style
       id="current-color-scheme"
       type="text/css">&#10;      .ColorScheme-Highlight {&#10;        color:#1e3f5a;&#10;      }&#10;  </style>
  </defs>
  <path
     class="ColorScheme-Highlight"
     style="fill:#bde6fb;fill-opacity:1;stroke-width:0.264583"
     d="M 6.3499999,0 A 6.3499999,6.3499999 0 0 0 0,6.3499999 6.3499999,6.3499999 0 0 0 6.3499999,12.7 6.3499999,6.3499999 0 0 0 12.7,6.3499999 6.3499999,6.3499999 0 0 0 6.3499999,0 Z m 0,0.79374999 A 5.5562499,5.5562499 0 0 1 11.90625,6.3499999 5.5562499,5.5562499 0 0 1 6.3499999,11.90625 5.5562499,5.5562499 0 0 1 0.79374999,6.3499999 5.5562499,5.5562499 0 0 1 6.3499999,0.79374999 Z M 2.9104166,2.9104166 v 4.7625 H 4.2565878 A 0.396875,0.396875 0 0 1 4.6302083,7.4083332 0.396875,0.396875 0 0 1 5.0270833,7.8052082 0.396875,0.396875 0 0 1 4.6302083,8.2020832 0.396875,0.396875 0 0 1 4.2565878,7.9374999 H 2.9104166 V 9.7895832 H 9.7895832 V 2.9104166 h -1.5875 V 5.3149211 A 0.396875,0.396875 0 0 1 8.4666666,5.6885416 0.396875,0.396875 0 0 1 8.0697916,6.0854166 0.396875,0.396875 0 0 1 7.6729166,5.6885416 0.396875,0.396875 0 0 1 7.9374999,5.3149211 V 2.9104166 H 4.2333333 V 5.0270833 H 5.0503378 A 0.396875,0.396875 0 0 1 5.4239583,4.7624999 0.396875,0.396875 0 0 1 5.8208333,5.1593749 0.396875,0.396875 0 0 1 5.4239583,5.5562499 0.396875,0.396875 0 0 1 5.0503378,5.2916666 H 3.96875 V 5.0270833 2.9104166 Z"
     id="path817" />
</svg>
