<?xml version="1.0" encoding="UTF-8" standalone="no"?>
<svg
   width="48"
   height="48"
   viewBox="0 0 12.7 12.7"
   version="1.1"
   id="svg4"
   sodipodi:docname="applications-utilities.svg"
   inkscape:version="0.92.5 (2060ec1f9f, 2020-04-08)"
   xmlns:inkscape="http://www.inkscape.org/namespaces/inkscape"
   xmlns:sodipodi="http://sodipodi.sourceforge.net/DTD/sodipodi-0.dtd"
   xmlns="http://www.w3.org/2000/svg"
   xmlns:svg="http://www.w3.org/2000/svg">
  <sodipodi:namedview
     id="namedview1"
     pagecolor="#505050"
     bordercolor="#eeeeee"
     borderopacity="1"
     inkscape:showpageshadow="0"
     inkscape:pageopacity="0"
     inkscape:pagecheckerboard="0"
     inkscape:deskcolor="#d1d1d1" />
  <defs
     id="defs8">
    <style
       id="current-color-scheme"
       type="text/css">&#10;      .ColorScheme-Highlight {&#10;        color:#1e3f5a;&#10;      }&#10;  </style>
  </defs>
  <path
     class="ColorScheme-Highlight"
     style="fill:#bde6fb;fill-opacity:1;stroke-width:0.264583"
     d="M 6.3499999,0 A 6.3499999,6.3499999 0 0 0 0,6.3499999 6.3499999,6.3499999 0 0 0 6.3499999,12.7 6.3499999,6.3499999 0 0 0 12.7,6.3499999 6.3499999,6.3499999 0 0 0 6.3499999,0 Z m 0,0.79374999 A 5.5562499,5.5562499 0 0 1 11.90625,6.3499999 5.5562499,5.5562499 0 0 1 6.3499999,11.90625 5.5562499,5.5562499 0 0 1 0.79374999,6.3499999 5.5562499,5.5562499 0 0 1 6.3499999,0.79374999 Z M 6.2177083,2.6458333 c -0.5130271,0 -0.9260417,0.4130146 -0.9260417,0.9260417 v 5.5562499 c 0,0.5130271 0.4130146,0.9260421 0.9260417,0.9260421 0.513027,0 0.9260416,-0.413015 0.9260416,-0.9260421 V 3.571875 c 0,-0.5130271 -0.4130146,-0.9260417 -0.9260416,-0.9260417 z M 7.6729166,3.175 V 5.6735553 C 7.9071599,5.8565959 8.1331254,6.0486504 8.4093057,6.1805012 L 8.6082599,5.981547 8.2341227,5.6074095 C 8.1822995,5.5555866 8.156608,5.4874572 8.156608,5.4198242 c -3e-7,-0.067632 0.025691,-0.1352453 0.077515,-0.1870687 0.051823,-0.051823 0.1194355,-0.076998 0.1870686,-0.076998 0.067632,0 0.1352452,0.025175 0.1870686,0.076998 L 9.169466,5.7944784 c 0.051824,0.051824 0.077516,0.1194355 0.077515,0.1870686 6e-7,0.067633 -0.025691,0.1352452 -0.077515,0.1870686 l -0.2459799,0.24598 C 9.3078415,6.5184429 9.7525058,6.5684058 10.292395,6.5427531 10.916931,6.4568241 10.105069,5.6071523 7.6729166,3.175 Z M 2.5884725,4.3583902 C 2.5033474,4.3494703 2.4390537,4.3797463 2.38125,4.4281534 2.2134432,5.2645532 3.4654619,7.0117776 4.7624999,8.7312499 V 6.6481729 C 3.5927982,5.1357765 2.9831964,4.4934094 2.6809731,4.3811279 2.6473885,4.3686502 2.6168475,4.3613636 2.5884725,4.3583896 Z"
     id="path826" />
</svg>
