<?xml version="1.0" encoding="UTF-8" standalone="no"?>
<svg
   width="48"
   height="48"
   viewBox="0 0 12.7 12.7"
   version="1.1"
   id="svg4"
   sodipodi:docname="applications-games.svg"
   inkscape:version="0.92.5 (2060ec1f9f, 2020-04-08)"
   xmlns:inkscape="http://www.inkscape.org/namespaces/inkscape"
   xmlns:sodipodi="http://sodipodi.sourceforge.net/DTD/sodipodi-0.dtd"
   xmlns="http://www.w3.org/2000/svg"
   xmlns:svg="http://www.w3.org/2000/svg">
  <sodipodi:namedview
     id="namedview1"
     pagecolor="#505050"
     bordercolor="#eeeeee"
     borderopacity="1"
     inkscape:showpageshadow="0"
     inkscape:pageopacity="0"
     inkscape:pagecheckerboard="0"
     inkscape:deskcolor="#d1d1d1" />
  <defs
     id="defs8">
    <style
       id="current-color-scheme"
       type="text/css">&#10;      .ColorScheme-Highlight {&#10;        color:#1e3f5a;&#10;      }&#10;  </style>
  </defs>
  <path
     class="ColorScheme-Highlight"
     style="fill:#bde6fb;fill-opacity:1;stroke-width:0.264583"
     d="M 6.3499999,0 A 6.3499999,6.3499999 0 0 0 0,6.3499999 6.3499999,6.3499999 0 0 0 6.3499999,12.7 6.3499999,6.3499999 0 0 0 12.7,6.3499999 6.3499999,6.3499999 0 0 0 6.3499999,0 Z m 0,0.79374999 A 5.5562499,5.5562499 0 0 1 11.90625,6.3499999 5.5562499,5.5562499 0 0 1 6.3499999,11.90625 5.5562499,5.5562499 0 0 1 0.79374999,6.3499999 5.5562499,5.5562499 0 0 1 6.3499999,0.79374999 Z M 2.9104166,3.4395833 2.4541137,5.7210978 1.8520833,8.7312499 C 2.2630558,9.1061198 2.6633146,9.491293 3.7041666,9.2604166 l 1.3229167,-2.38125 h 2.6458333 l 1.3229166,2.38125 C 10.036685,9.491293 10.436944,9.1061198 10.847917,8.7312499 L 10.222632,5.6043091 9.7895832,3.4395833 Z M 8.2020832,3.96875 A 0.26458331,0.26458331 0 0 1 8.4666666,4.2333333 0.26458331,0.26458331 0 0 1 8.2020832,4.4979166 0.26458331,0.26458331 0 0 1 7.9374999,4.2333333 0.26458331,0.26458331 0 0 1 8.2020832,3.96875 Z M 4.2333333,4.2333333 H 4.7624999 V 4.7624999 H 5.2916666 V 5.2916666 H 4.7624999 V 5.8208333 H 4.2333333 V 5.2916666 H 3.7041666 V 4.7624999 H 4.2333333 Z M 7.4083332,4.7624999 A 0.26458331,0.26458331 0 0 1 7.6729166,5.0270833 0.26458331,0.26458331 0 0 1 7.4083332,5.2916666 0.26458331,0.26458331 0 0 1 7.1437499,5.0270833 0.26458331,0.26458331 0 0 1 7.4083332,4.7624999 Z m 1.5875,0 A 0.26458331,0.26458331 0 0 1 9.2604166,5.0270833 0.26458331,0.26458331 0 0 1 8.9958332,5.2916666 0.26458331,0.26458331 0 0 1 8.7312499,5.0270833 0.26458331,0.26458331 0 0 1 8.9958332,4.7624999 Z m -0.79375,0.79375 A 0.26458331,0.26458331 0 0 1 8.4666666,5.8208333 0.26458331,0.26458331 0 0 1 8.2020832,6.0854166 0.26458331,0.26458331 0 0 1 7.9374999,5.8208333 0.26458331,0.26458331 0 0 1 8.2020832,5.5562499 Z"
     id="path828" />
</svg>
