<?xml version="1.0" encoding="UTF-8" standalone="no"?>
<svg
   width="48"
   height="48"
   viewBox="0 0 12.7 12.7"
   version="1.1"
   id="svg4"
   sodipodi:docname="applications-photography.svg"
   inkscape:version="0.92.5 (2060ec1f9f, 2020-04-08)"
   xmlns:inkscape="http://www.inkscape.org/namespaces/inkscape"
   xmlns:sodipodi="http://sodipodi.sourceforge.net/DTD/sodipodi-0.dtd"
   xmlns="http://www.w3.org/2000/svg"
   xmlns:svg="http://www.w3.org/2000/svg">
  <sodipodi:namedview
     id="namedview1"
     pagecolor="#505050"
     bordercolor="#eeeeee"
     borderopacity="1"
     inkscape:showpageshadow="0"
     inkscape:pageopacity="0"
     inkscape:pagecheckerboard="0"
     inkscape:deskcolor="#d1d1d1" />
  <defs
     id="defs8">
    <style
       id="current-color-scheme"
       type="text/css">&#10;      .ColorScheme-Highlight {&#10;        color:#1e3f5a;&#10;      }&#10;  </style>
  </defs>
  <path
     class="ColorScheme-Highlight"
     style="fill:#bde6fb;fill-opacity:1"
     d="M 6.3499999,0 A 6.3499999,6.3499999 0 0 1 12.7,6.3499999 6.3499999,6.3499999 0 0 1 6.3499999,12.7 6.3499999,6.3499999 0 0 1 0,6.3499999 6.3499999,6.3499999 0 0 1 6.3499999,0 Z m 0,0.79374999 A 5.5562499,5.5562499 0 0 0 0.79374999,6.3499999 5.5562499,5.5562499 0 0 0 6.3499999,11.90625 5.5562499,5.5562499 0 0 0 11.90625,6.3499999 5.5562499,5.5562499 0 0 0 6.3499999,0.79374999 Z M 5.0270833,3.175 v 0.5291666 h 4.4979166 c 0.2931583,0 0.5291671,0.2360084 0.5291671,0.5291667 V 8.2020832 8.4666666 8.9958332 H 9.5249999 3.175 2.6458333 V 8.4666666 8.2020832 4.2333333 C 2.6458333,3.940175 2.8818416,3.7041666 3.175,3.7041666 H 3.4395833 V 3.175 Z M 6.3499999,4.4979166 A 1.8520832,1.8520832 0 0 0 4.4979166,6.3499999 1.8520832,1.8520832 0 0 0 6.3499999,8.2020832 1.8520832,1.8520832 0 0 0 8.2020832,6.3499999 1.8520832,1.8520832 0 0 0 6.3499999,4.4979166 Z m 0,0.5291667 A 1.3229165,1.3229165 0 0 1 7.6729166,6.3499999 1.3229165,1.3229165 0 0 1 6.3499999,7.6729166 1.3229165,1.3229165 0 0 1 5.0270833,6.3499999 1.3229165,1.3229165 0 0 1 6.3499999,5.0270833 Z"
     id="path827"
     inkscape:connector-curvature="0" />
</svg>
