<?xml version="1.0" encoding="UTF-8" standalone="no"?>
<svg
   width="48"
   height="48"
   viewBox="0 0 12.7 12.7"
   version="1.1"
   id="svg4"
   sodipodi:docname="applications-accessories.svg"
   inkscape:version="0.92.5 (2060ec1f9f, 2020-04-08)"
   xmlns:inkscape="http://www.inkscape.org/namespaces/inkscape"
   xmlns:sodipodi="http://sodipodi.sourceforge.net/DTD/sodipodi-0.dtd"
   xmlns="http://www.w3.org/2000/svg"
   xmlns:svg="http://www.w3.org/2000/svg">
  <sodipodi:namedview
     id="namedview1"
     pagecolor="#505050"
     bordercolor="#eeeeee"
     borderopacity="1"
     inkscape:showpageshadow="0"
     inkscape:pageopacity="0"
     inkscape:pagecheckerboard="0"
     inkscape:deskcolor="#d1d1d1" />
  <defs
     id="defs8">
    <style
       id="current-color-scheme"
       type="text/css">&#10;      .ColorScheme-Highlight {&#10;        color:#1e3f5a;&#10;      }&#10;  </style>
  </defs>
  <path
     class="ColorScheme-Highlight"
     style="fill:#bde6fb;fill-opacity:1;stroke-width:0.264583"
     d="M 6.3499999,0 A 6.3499999,6.3499999 0 0 0 0,6.3499999 6.3499999,6.3499999 0 0 0 6.3499999,12.7 6.3499999,6.3499999 0 0 0 12.7,6.3499999 6.3499999,6.3499999 0 0 0 6.3499999,0 Z m 0,0.79374999 A 5.5562499,5.5562499 0 0 1 11.90625,6.3499999 5.5562499,5.5562499 0 0 1 6.3499999,11.90625 5.5562499,5.5562499 0 0 1 0.79374999,6.3499999 5.5562499,5.5562499 0 0 1 6.3499999,0.79374999 Z M 4.8947916,2.38125 A 1.1906248,1.1906248 0 0 0 3.7041666,3.571875 1.1906248,1.1906248 0 0 0 4.8947916,4.7624999 1.1906248,1.1906248 0 0 0 5.4286091,4.6348591 L 6.3499999,5.5562499 6.0854166,5.8208333 5.9531249,5.9531249 4.2333333,7.6729166 v 0.79375 h 0.2645833 l 1.984375,-1.984375 0.1322917,-0.1322917 0.2645833,-0.2645833 2.38125,2.38125 h 0.2645833 v -0.79375 L 7.4083332,5.5562499 8.2542765,4.7103066 A 1.1906248,1.1906248 0 0 0 8.5989582,4.7624999 1.1906248,1.1906248 0 0 0 9.7895832,3.571875 1.1906248,1.1906248 0 0 0 8.5989582,2.38125 1.1906248,1.1906248 0 0 0 7.4083332,3.571875 1.1906248,1.1906248 0 0 0 7.6362263,4.2700236 L 6.8791666,5.0270833 5.9582925,4.1062092 A 1.1906248,1.1906248 0 0 0 6.0854166,3.571875 1.1906248,1.1906248 0 0 0 4.8947916,2.38125 Z m 0,0.5291666 A 0.6614583,0.6614583 0 0 1 5.5562499,3.571875 0.6614583,0.6614583 0 0 1 4.8947916,4.2333333 0.6614583,0.6614583 0 0 1 4.2333333,3.571875 0.6614583,0.6614583 0 0 1 4.8947916,2.9104166 Z m 3.7041666,0 A 0.6614583,0.6614583 0 0 1 9.2604166,3.571875 0.6614583,0.6614583 0 0 1 8.5989582,4.2333333 0.6614583,0.6614583 0 0 1 7.9374999,3.571875 0.6614583,0.6614583 0 0 1 8.5989582,2.9104166 Z M 2.6458333,4.7624999 V 9.7895832 H 7.6729166 L 6.6145833,8.7312499 H 3.7041666 V 5.8208333 Z M 6.8791666,5.2916666 A 0.26458328,0.26458331 0 0 1 7.1437499,5.5562499 0.26458328,0.26458331 0 0 1 6.8791666,5.8208333 0.26458328,0.26458331 0 0 1 6.6145833,5.5562499 0.26458328,0.26458331 0 0 1 6.8791666,5.2916666 Z"
     id="rect859" />
</svg>
