<?xml version="1.0" encoding="UTF-8" standalone="no"?>
<svg
   width="48"
   height="48"
   viewBox="0 0 12.7 12.7"
   version="1.1"
   id="svg4"
   sodipodi:docname="applications-arcade.svg"
   inkscape:version="0.92.5 (2060ec1f9f, 2020-04-08)"
   xmlns:inkscape="http://www.inkscape.org/namespaces/inkscape"
   xmlns:sodipodi="http://sodipodi.sourceforge.net/DTD/sodipodi-0.dtd"
   xmlns="http://www.w3.org/2000/svg"
   xmlns:svg="http://www.w3.org/2000/svg">
  <sodipodi:namedview
     id="namedview1"
     pagecolor="#505050"
     bordercolor="#eeeeee"
     borderopacity="1"
     inkscape:showpageshadow="0"
     inkscape:pageopacity="0"
     inkscape:pagecheckerboard="0"
     inkscape:deskcolor="#d1d1d1" />
  <defs
     id="defs8">
    <style
       id="current-color-scheme"
       type="text/css">&#10;      .ColorScheme-Highlight {&#10;        color:#1e3f5a;&#10;      }&#10;  </style>
  </defs>
  <path
     class="ColorScheme-Highlight"
     style="fill:#bde6fb;fill-opacity:1;stroke-width:0.264583"
     d="M 6.3499999,0 A 6.3499999,6.3499999 0 0 0 0,6.3499999 6.3499999,6.3499999 0 0 0 6.3499999,12.7 6.3499999,6.3499999 0 0 0 12.7,6.3499999 6.3499999,6.3499999 0 0 0 6.3499999,0 Z m 0,0.79374999 A 5.5562499,5.5562499 0 0 1 11.363647,3.96875 H 1.3373861 A 5.5562499,5.5562499 0 0 1 6.3499999,0.79374999 Z M 8.9958332,4.7624999 A 0.52916663,0.52916663 0 0 1 9.5249999,5.2916666 0.52916663,0.52916663 0 0 1 8.9958332,5.8208333 0.52916663,0.52916663 0 0 1 8.4666666,5.2916666 0.52916663,0.52916663 0 0 1 8.9958332,4.7624999 Z M 2.9104166,5.0270833 H 3.96875 v 0.79375 H 4.7624999 V 6.8791666 H 3.96875 v 0.79375 H 2.9104166 v -0.79375 h -0.79375 V 5.8208333 h 0.79375 z m 5.0270833,0.79375 A 0.52916663,0.52916663 0 0 1 8.4666666,6.3499999 0.52916663,0.52916663 0 0 1 7.9374999,6.8791666 0.52916663,0.52916663 0 0 1 7.4083332,6.3499999 0.52916663,0.52916663 0 0 1 7.9374999,5.8208333 Z m 2.1166671,0 A 0.52916663,0.52916663 0 0 1 10.583333,6.3499999 0.52916663,0.52916663 0 0 1 10.054167,6.8791666 0.52916663,0.52916663 0 0 1 9.5249999,6.3499999 0.52916663,0.52916663 0 0 1 10.054167,5.8208333 Z M 8.9958332,6.8791666 A 0.52916663,0.52916663 0 0 1 9.5249999,7.4083332 0.52916663,0.52916663 0 0 1 8.9958332,7.9374999 0.52916663,0.52916663 0 0 1 8.4666666,7.4083332 0.52916663,0.52916663 0 0 1 8.9958332,6.8791666 Z M 1.3363525,8.7312499 H 11.362614 A 5.5562499,5.5562499 0 0 1 6.3499999,11.90625 5.5562499,5.5562499 0 0 1 1.3363525,8.7312499 Z"
     id="path817" />
</svg>
