<?xml version="1.0" encoding="UTF-8" standalone="no"?>
<svg
   width="48"
   height="48"
   viewBox="0 0 12.7 12.7"
   version="1.1"
   id="svg4"
   sodipodi:docname="applications-fonts.svg"
   inkscape:version="0.92.5 (2060ec1f9f, 2020-04-08)"
   xmlns:inkscape="http://www.inkscape.org/namespaces/inkscape"
   xmlns:sodipodi="http://sodipodi.sourceforge.net/DTD/sodipodi-0.dtd"
   xmlns="http://www.w3.org/2000/svg"
   xmlns:svg="http://www.w3.org/2000/svg">
  <sodipodi:namedview
     id="namedview1"
     pagecolor="#505050"
     bordercolor="#eeeeee"
     borderopacity="1"
     inkscape:showpageshadow="0"
     inkscape:pageopacity="0"
     inkscape:pagecheckerboard="0"
     inkscape:deskcolor="#d1d1d1" />
  <defs
     id="defs8">
    <style
       id="current-color-scheme"
       type="text/css">&#10;      .ColorScheme-Highlight {&#10;        color:#1e3f5a;&#10;      }&#10;  </style>
  </defs>
  <path
     class="ColorScheme-Highlight"
     style="fill:#bde6fb;fill-opacity:1;stroke-width:0.264583"
     d="M 6.3499999,0 A 6.3499999,6.3499999 0 0 0 0,6.3499999 6.3499999,6.3499999 0 0 0 6.3499999,12.7 6.3499999,6.3499999 0 0 0 12.7,6.3499999 6.3499999,6.3499999 0 0 0 6.3499999,0 Z m 0,0.79374999 A 5.5562499,5.5562499 0 0 1 11.90625,6.3499999 5.5562499,5.5562499 0 0 1 6.3499999,11.90625 5.5562499,5.5562499 0 0 1 0.79374999,6.3499999 5.5562499,5.5562499 0 0 1 6.3499999,0.79374999 Z m -0.5291666,2.64583331 -3.175,5.5562499 H 2.1166666 V 9.2604166 H 3.96875 V 8.9958332 H 2.9104166 l 0.9337932,-1.5875 h 2.2257038 l 0.2800863,1.5875 h -0.79375 V 9.2604166 H 7.4083332 V 9.1012533 a 1.4552083,1.4552083 0 0 0 0.6614584,0.1591633 1.4552083,1.4552083 0 0 0 1.0221597,-0.421163 c 0.1333582,0.2499341 0.3934891,0.421163 0.6976319,0.421163 0.3362098,0 0.5686358,-0.2351884 0.6847128,-0.5291667 H 10.26449 c -0.058,0.1470718 -0.174451,0.2645833 -0.3426151,0.2645833 -0.2198688,0 -0.396875,-0.1770062 -0.396875,-0.396875 V 7.1437499 6.6145833 c 0,-0.1465792 -0.1180042,-0.2645834 -0.2645833,-0.2645834 -0.1465792,0 -0.2645834,0.1180042 -0.2645834,0.2645834 v 0.069763 A 1.4552083,1.4552083 0 0 0 8.0697916,6.3499999 1.4552083,1.4552083 0 0 0 6.7866659,7.1210121 L 6.0854166,3.4395833 Z m -0.2645834,1.0583333 0.467155,2.6458333 h -2.023649 z m 2.6458333,2.1166667 a 1.0583333,1.1906249 0 0 1 0.79375,0.4056599 c 1.426e-4,0.039419 0,0.073659 0,0.1235067 v 0.5291667 0.79375 c 0,0.037938 0.00575,0.074098 0.010853,0.1105876 A 1.0583333,1.1906249 0 0 1 8.2020832,8.9958332 1.0583333,1.1906249 0 0 1 7.1437499,7.8052082 1.0583333,1.1906249 0 0 1 8.2020832,6.6145833 Z"
     id="path831" />
</svg>
