<?xml version="1.0" encoding="UTF-8" standalone="no"?>
<svg
   width="48"
   height="48"
   viewBox="0 0 12.7 12.7"
   version="1.1"
   id="svg4"
   sodipodi:docname="applications-mathematics.svg"
   inkscape:version="0.92.5 (2060ec1f9f, 2020-04-08)"
   xmlns:inkscape="http://www.inkscape.org/namespaces/inkscape"
   xmlns:sodipodi="http://sodipodi.sourceforge.net/DTD/sodipodi-0.dtd"
   xmlns="http://www.w3.org/2000/svg"
   xmlns:svg="http://www.w3.org/2000/svg">
  <sodipodi:namedview
     id="namedview1"
     pagecolor="#505050"
     bordercolor="#eeeeee"
     borderopacity="1"
     inkscape:showpageshadow="0"
     inkscape:pageopacity="0"
     inkscape:pagecheckerboard="0"
     inkscape:deskcolor="#d1d1d1" />
  <defs
     id="defs8">
    <style
       id="current-color-scheme"
       type="text/css">&#10;      .ColorScheme-Highlight {&#10;        color:#1e3f5a;&#10;      }&#10;  </style>
  </defs>
  <path
     class="ColorScheme-Highlight"
     style="fill:#bde6fb;fill-opacity:1;stroke-width:0.264583"
     d="M 6.3499999,0 A 6.3499999,6.3499999 0 0 0 0,6.3499999 6.3499999,6.3499999 0 0 0 6.3499999,12.7 6.3499999,6.3499999 0 0 0 12.7,6.3499999 6.3499999,6.3499999 0 0 0 6.3499999,0 Z m 0,0.79374999 A 5.5562499,5.5562499 0 0 1 11.077877,3.4395833 H 8.6852579 A 0.79374999,0.79374999 0 0 0 7.9374999,2.9104166 0.79374999,0.79374999 0 0 0 7.1902586,3.4395833 H 6.0394246 A 0.79374999,0.79374999 0 0 0 5.2916666,2.9104166 0.79374999,0.79374999 0 0 0 4.5444253,3.4395833 H 1.6252238 A 5.5562499,5.5562499 0 0 1 6.3499999,0.79374999 Z M 1.3373861,3.96875 H 4.5439086 A 0.79374999,0.79374999 0 0 0 5.2916666,4.4979166 0.79374999,0.79374999 0 0 0 6.0389079,3.96875 h 1.150834 A 0.79374999,0.79374999 0 0 0 7.9374999,4.4979166 0.79374999,0.79374999 0 0 0 8.6847412,3.96875 h 2.6789058 a 5.5562499,5.5562499 0 0 1 0.533301,2.1166666 H 9.7435912 A 0.79374999,0.79374999 0 0 0 8.9958332,5.5562499 0.79374999,0.79374999 0 0 0 8.248592,6.0854166 H 3.3935913 A 0.79374999,0.79374999 0 0 0 2.6458333,5.5562499 0.79374999,0.79374999 0 0 0 1.8985921,6.0854166 H 0.80718585 A 5.5562499,5.5562499 0 0 1 1.3373861,3.96875 Z M 0.80305173,6.6145833 H 1.8980753 a 0.79374999,0.79374999 0 0 0 0.747758,0.5291666 0.79374999,0.79374999 0 0 0 0.7472413,-0.5291666 h 4.8550006 a 0.79374999,0.79374999 0 0 0 0.747758,0.5291666 0.79374999,0.79374999 0 0 0 0.7472413,-0.5291666 h 2.1497395 a 5.5562499,5.5562499 0 0 1 -0.5302,2.1166666 H 9.4790079 A 0.79374999,0.79374999 0 0 0 8.7312499,8.2020832 0.79374999,0.79374999 0 0 0 7.9840086,8.7312499 H 7.0977579 A 0.79374999,0.79374999 0 0 0 6.3499999,8.2020832 0.79374999,0.79374999 0 0 0 5.6027587,8.7312499 H 1.3363525 A 5.5562499,5.5562499 0 0 1 0.80305173,6.6145833 Z M 1.6221232,9.2604166 H 5.6022419 A 0.79374999,0.79374999 0 0 0 6.3499999,9.7895832 0.79374999,0.79374999 0 0 0 7.0972412,9.2604166 H 7.9834919 A 0.79374999,0.79374999 0 0 0 8.7312499,9.7895832 0.79374999,0.79374999 0 0 0 9.4784912,9.2604166 H 11.074776 A 5.5562499,5.5562499 0 0 1 6.3499999,11.90625 5.5562499,5.5562499 0 0 1 1.6221232,9.2604166 Z"
     id="path817" />
</svg>
