<?xml version="1.0" encoding="UTF-8" standalone="no"?>
<svg
   width="48"
   height="48"
   viewBox="0 0 12.7 12.7"
   version="1.1"
   id="svg4"
   sodipodi:docname="applications-java.svg"
   inkscape:version="0.92.5 (2060ec1f9f, 2020-04-08)"
   xmlns:inkscape="http://www.inkscape.org/namespaces/inkscape"
   xmlns:sodipodi="http://sodipodi.sourceforge.net/DTD/sodipodi-0.dtd"
   xmlns="http://www.w3.org/2000/svg"
   xmlns:svg="http://www.w3.org/2000/svg">
  <sodipodi:namedview
     id="namedview1"
     pagecolor="#505050"
     bordercolor="#eeeeee"
     borderopacity="1"
     inkscape:showpageshadow="0"
     inkscape:pageopacity="0"
     inkscape:pagecheckerboard="0"
     inkscape:deskcolor="#d1d1d1" />
  <defs
     id="defs8">
    <style
       id="current-color-scheme"
       type="text/css">&#10;      .ColorScheme-Highlight {&#10;        color:#1e3f5a;&#10;      }&#10;  </style>
  </defs>
  <path
     class="ColorScheme-Highlight"
     style="fill:#bde6fb;fill-opacity:1;stroke-width:0.264583"
     d="M 6.3499999,0 A 6.3499999,6.3499999 0 0 0 0,6.3499999 6.3499999,6.3499999 0 0 0 6.3499999,12.7 6.3499999,6.3499999 0 0 0 12.7,6.3499999 6.3499999,6.3499999 0 0 0 6.3499999,0 Z m 0,0.79374999 A 5.5562499,5.5562499 0 0 1 11.90625,6.3499999 5.5562499,5.5562499 0 0 1 6.3499999,11.90625 5.5562499,5.5562499 0 0 1 0.79374999,6.3499999 5.5562499,5.5562499 0 0 1 6.3499999,0.79374999 Z M 5.8208333,2.9104166 5.5562499,3.96875 5.8208333,5.0270833 6.0854166,3.96875 Z m 1.0583333,0 L 6.6145833,3.96875 6.8791666,5.0270833 7.1437499,3.96875 Z M 4.7624999,3.7041666 4.4979166,4.7624999 4.7624999,5.8208333 5.0270833,4.7624999 Z m 3.175,0 L 7.6729166,4.7624999 7.9374999,5.8208333 8.2020832,4.7624999 Z M 3.7041666,6.3499999 v 1.8520833 h 0.0062 C 3.7768226,8.9457775 4.3978175,9.5249999 5.159373,9.5249999 H 3.4395833 V 10.054167 H 9.2604166 V 9.5249999 H 7.5406249 c 0.7615555,0 1.3825506,-0.5792224 1.449007,-1.3229167 h 0.0062 V 6.3499999 Z"
     id="path817" />
</svg>
