<?xml version="1.0" encoding="UTF-8" standalone="no"?>
<svg
   width="48"
   height="48"
   viewBox="0 0 12.7 12.7"
   version="1.1"
   id="svg4"
   sodipodi:docname="applications-haskell.svg"
   inkscape:version="0.92.5 (2060ec1f9f, 2020-04-08)"
   xmlns:inkscape="http://www.inkscape.org/namespaces/inkscape"
   xmlns:sodipodi="http://sodipodi.sourceforge.net/DTD/sodipodi-0.dtd"
   xmlns="http://www.w3.org/2000/svg"
   xmlns:svg="http://www.w3.org/2000/svg">
  <sodipodi:namedview
     id="namedview1"
     pagecolor="#505050"
     bordercolor="#eeeeee"
     borderopacity="1"
     inkscape:showpageshadow="0"
     inkscape:pageopacity="0"
     inkscape:pagecheckerboard="0"
     inkscape:deskcolor="#d1d1d1" />
  <defs
     id="defs8">
    <style
       id="current-color-scheme"
       type="text/css">&#10;      .ColorScheme-Highlight {&#10;        color:#1e3f5a;&#10;      }&#10;  </style>
  </defs>
  <path
     class="ColorScheme-Highlight"
     style="fill:#bde6fb;fill-opacity:1;stroke-width:0.264583"
     d="M 6.3499999,0 A 6.3499999,6.3499999 0 0 0 0,6.3499999 6.3499999,6.3499999 0 0 0 6.3499999,12.7 6.3499999,6.3499999 0 0 0 12.7,6.3499999 6.3499999,6.3499999 0 0 0 6.3499999,0 Z m 0,0.79374999 A 5.5562499,5.5562499 0 0 1 11.90625,6.3499999 5.5562499,5.5562499 0 0 1 6.3499999,11.90625 5.5562499,5.5562499 0 0 1 0.79374999,6.3499999 5.5562499,5.5562499 0 0 1 6.3499999,0.79374999 Z M 4.7619832,3.175 l 1.7197917,3.1749999 -1.7197917,3.175 H 5.8208333 L 7.0109415,7.3287516 8.2020832,9.5249999 H 9.2598998 L 5.8197998,3.175 H 4.7630167 Z"
     id="path817" />
  <path
     class="ColorScheme-Highlight"
     style="opacity:0.75;fill:#bde6fb;fill-opacity:1;stroke-width:0.264583"
     d="m 2.9098999,3.175 1.7203084,3.1749999 -1.7203084,3.175 h 1.0598835 l 1.7203084,-3.175 L 3.9697834,3.175 Z M 7.7607664,5.2921833 8.1912311,6.0848999 H 9.7900999 V 5.2921833 Z M 8.4780354,6.6151 8.9079834,7.4078165 H 9.7900999 V 6.6151 Z"
     id="path4" />
</svg>
