<?xml version="1.0" encoding="UTF-8" standalone="no"?>
<svg
   width="48"
   height="48"
   viewBox="0 0 12.7 12.7"
   version="1.1"
   id="svg4"
   sodipodi:docname="package_games_board.svg"
   inkscape:version="0.92.5 (2060ec1f9f, 2020-04-08)"
   xmlns:inkscape="http://www.inkscape.org/namespaces/inkscape"
   xmlns:sodipodi="http://sodipodi.sourceforge.net/DTD/sodipodi-0.dtd"
   xmlns="http://www.w3.org/2000/svg"
   xmlns:svg="http://www.w3.org/2000/svg">
  <sodipodi:namedview
     id="namedview1"
     pagecolor="#505050"
     bordercolor="#eeeeee"
     borderopacity="1"
     inkscape:showpageshadow="0"
     inkscape:pageopacity="0"
     inkscape:pagecheckerboard="0"
     inkscape:deskcolor="#d1d1d1" />
  <defs
     id="defs8">
    <style
       id="current-color-scheme"
       type="text/css">&#10;      .ColorScheme-Highlight {&#10;        color:#1e3f5a;&#10;      }&#10;  </style>
  </defs>
  <path
     class="ColorScheme-Highlight"
     style="fill:#bde6fb;fill-opacity:1;stroke-width:0.264583"
     d="M 6.3499999,0 A 6.3499999,6.3499999 0 0 0 0,6.3499999 6.3499999,6.3499999 0 0 0 6.3499999,12.7 6.3499999,6.3499999 0 0 0 12.7,6.3499999 6.3499999,6.3499999 0 0 0 6.3499999,0 Z m 0,0.79374999 A 5.5562499,5.5562499 0 0 1 11.90625,6.3499999 5.5562499,5.5562499 0 0 1 6.3499999,11.90625 5.5562499,5.5562499 0 0 1 0.79374999,6.3499999 5.5562499,5.5562499 0 0 1 6.3499999,0.79374999 Z M 5.8208333,3.4395833 1.3229167,4.7624999 2.6458333,9.2604166 5.4570312,8.4335936 4.7624999,8.2020832 6.0688801,4.2829427 Z m 1.0583333,0 -1.3229167,4.4979166 4.4979171,1.3229167 1.322916,-4.4979167 z M 5.1888305,4.2007771 A 0.52916663,0.52916663 0 0 1 5.6797566,4.5930012 0.52916663,0.52916663 0 0 1 5.3056191,5.2410238 0.52916663,0.52916663 0 0 1 4.6575969,4.8668863 0.52916663,0.52916663 0 0 1 5.0317341,4.2188637 0.52916663,0.52916663 0 0 1 5.1888305,4.2007771 Z m 2.3378419,0 A 0.52916663,0.52916663 0 0 1 7.6682657,4.218864 0.52916663,0.52916663 0 0 1 8.042403,4.8668865 0.52916663,0.52916663 0 0 1 7.3943807,5.241024 0.52916663,0.52916663 0 0 1 7.0202432,4.5930015 0.52916663,0.52916663 0 0 1 7.5266724,4.2007771 Z m 2.5553996,0.6847128 a 0.52916663,0.52916663 0 0 1 0.141593,0.018087 0.52916663,0.52916663 0 0 1 0.374138,0.6480225 A 0.52916663,0.52916663 0 0 1 9.9497802,5.9257366 0.52916663,0.52916663 0 0 1 9.5756427,5.2777143 0.52916663,0.52916663 0 0 1 10.082072,4.8854899 Z M 2.633431,4.8860191 A 0.52916663,0.52916663 0 0 1 3.1243571,5.2777265 0.52916663,0.52916663 0 0 1 2.7502196,5.9257488 0.52916663,0.52916663 0 0 1 2.1021972,5.5516115 0.52916663,0.52916663 0 0 1 2.4763346,4.903589 0.52916663,0.52916663 0 0 1 2.633431,4.886018 Z M 8.4620157,5.8208333 A 0.52916663,0.52916663 0 0 1 8.6036091,5.8389202 0.52916663,0.52916663 0 0 1 8.9777466,6.4869427 0.52916663,0.52916663 0 0 1 8.329724,6.8610802 0.52916663,0.52916663 0 0 1 7.9555866,6.2130574 0.52916663,0.52916663 0 0 1 8.4620157,5.8208333 Z M 6.8414428,6.7561766 A 0.52916663,0.52916663 0 0 1 6.9835529,6.7742635 0.52916663,0.52916663 0 0 1 7.3576904,7.4222858 0.52916663,0.52916663 0 0 1 6.7096679,7.7964233 0.52916663,0.52916663 0 0 1 6.3355304,7.1484008 0.52916663,0.52916663 0 0 1 6.8414428,6.7561766 Z M 9.3973591,7.4408894 A 0.52916663,0.52916663 0 0 1 9.5389524,7.4589763 0.52916663,0.52916663 0 0 1 9.9130899,8.1069989 0.52916663,0.52916663 0 0 1 9.2650674,8.4811364 0.52916663,0.52916663 0 0 1 8.8909302,7.8331138 0.52916663,0.52916663 0 0 1 9.3973591,7.4408894 Z M 3.3181438,7.4414186 A 0.52916663,0.52916663 0 0 1 3.8090697,7.833126 0.52916663,0.52916663 0 0 1 3.4349324,8.4811485 0.52916663,0.52916663 0 0 1 2.7869099,8.107011 0.52916663,0.52916663 0 0 1 3.1610474,7.4589885 0.52916663,0.52916663 0 0 1 3.3181438,7.4414175 Z"
     id="path851" />
</svg>
